G04 #@! TF.GenerationSoftware,KiCad,Pcbnew,6.0.4-6f826c9f35~116~ubuntu18.04.1*
G04 #@! TF.CreationDate,2022-04-20T12:00:40+08:00*
G04 #@! TF.ProjectId,Nucleo_F446Shield_v2,4e75636c-656f-45f4-9634-343653686965,rev?*
G04 #@! TF.SameCoordinates,Original*
G04 #@! TF.FileFunction,Soldermask,Bot*
G04 #@! TF.FilePolarity,Negative*
%FSLAX46Y46*%
G04 Gerber Fmt 4.6, Leading zero omitted, Abs format (unit mm)*
G04 Created by KiCad (PCBNEW 6.0.4-6f826c9f35~116~ubuntu18.04.1) date 2022-04-20 12:00:40*
%MOMM*%
%LPD*%
G01*
G04 APERTURE LIST*
G04 Aperture macros list*
%AMRoundRect*
0 Rectangle with rounded corners*
0 $1 Rounding radius*
0 $2 $3 $4 $5 $6 $7 $8 $9 X,Y pos of 4 corners*
0 Add a 4 corners polygon primitive as box body*
4,1,4,$2,$3,$4,$5,$6,$7,$8,$9,$2,$3,0*
0 Add four circle primitives for the rounded corners*
1,1,$1+$1,$2,$3*
1,1,$1+$1,$4,$5*
1,1,$1+$1,$6,$7*
1,1,$1+$1,$8,$9*
0 Add four rect primitives between the rounded corners*
20,1,$1+$1,$2,$3,$4,$5,0*
20,1,$1+$1,$4,$5,$6,$7,0*
20,1,$1+$1,$6,$7,$8,$9,0*
20,1,$1+$1,$8,$9,$2,$3,0*%
G04 Aperture macros list end*
%ADD10R,0.900000X1.800000*%
%ADD11C,4.500000*%
%ADD12R,3.500000X3.500000*%
%ADD13RoundRect,0.750000X-1.000000X0.750000X-1.000000X-0.750000X1.000000X-0.750000X1.000000X0.750000X0*%
%ADD14RoundRect,0.875000X-0.875000X0.875000X-0.875000X-0.875000X0.875000X-0.875000X0.875000X0.875000X0*%
%ADD15RoundRect,0.250000X-0.600000X0.600000X-0.600000X-0.600000X0.600000X-0.600000X0.600000X0.600000X0*%
%ADD16C,1.700000*%
%ADD17C,1.300000*%
%ADD18RoundRect,0.250000X0.600000X-0.850000X0.600000X0.850000X-0.600000X0.850000X-0.600000X-0.850000X0*%
%ADD19O,1.700000X2.200000*%
%ADD20C,3.000000*%
%ADD21RoundRect,0.250001X-0.499999X-0.499999X0.499999X-0.499999X0.499999X0.499999X-0.499999X0.499999X0*%
%ADD22C,1.500000*%
%ADD23R,1.530000X1.530000*%
%ADD24C,1.530000*%
%ADD25R,1.600000X1.600000*%
%ADD26O,1.600000X1.600000*%
G04 APERTURE END LIST*
D10*
X75765000Y-44801000D03*
X62265000Y-44801000D03*
D11*
X65415000Y-50801000D03*
X72615000Y-50801000D03*
D12*
X85793500Y-48021000D03*
D13*
X85793500Y-42021000D03*
D14*
X81093500Y-45021000D03*
D15*
X101600000Y-123825000D03*
D16*
X101600000Y-126365000D03*
X99060000Y-123825000D03*
X99060000Y-126365000D03*
X96520000Y-123825000D03*
X96520000Y-126365000D03*
X93980000Y-123825000D03*
X93980000Y-126365000D03*
X91440000Y-123825000D03*
X91440000Y-126365000D03*
X88900000Y-123825000D03*
X88900000Y-126365000D03*
X86360000Y-123825000D03*
X86360000Y-126365000D03*
X83820000Y-123825000D03*
X83820000Y-126365000D03*
X81280000Y-123825000D03*
X81280000Y-126365000D03*
X78740000Y-123825000D03*
X78740000Y-126365000D03*
X76200000Y-123825000D03*
X76200000Y-126365000D03*
X73660000Y-123825000D03*
X73660000Y-126365000D03*
X71120000Y-123825000D03*
X71120000Y-126365000D03*
D17*
X56836000Y-122244000D03*
D18*
X53086000Y-120904000D03*
D19*
X55586000Y-120904000D03*
X58086000Y-120904000D03*
X60586000Y-120904000D03*
D20*
X99036000Y-39241000D03*
D21*
X97536000Y-43561000D03*
D22*
X100536000Y-43561000D03*
X97536000Y-46561000D03*
X100536000Y-46561000D03*
D17*
X113792000Y-122338000D03*
D18*
X110042000Y-120998000D03*
D19*
X112542000Y-120998000D03*
X115042000Y-120998000D03*
X117542000Y-120998000D03*
D23*
X54760000Y-68950000D03*
D24*
X57300000Y-68950000D03*
X54760000Y-71490000D03*
X57300000Y-71490000D03*
X54760000Y-74030000D03*
X57300000Y-74030000D03*
X54760000Y-76570000D03*
X57300000Y-76570000D03*
X54760000Y-79110000D03*
X57300000Y-79110000D03*
X54760000Y-81650000D03*
X57300000Y-81650000D03*
X54760000Y-84190000D03*
X57300000Y-84190000D03*
X54760000Y-86730000D03*
X57300000Y-86730000D03*
X54760000Y-89270000D03*
X57300000Y-89270000D03*
X54760000Y-91810000D03*
X57300000Y-91810000D03*
X54760000Y-94350000D03*
X57300000Y-94350000D03*
X54760000Y-96890000D03*
X57300000Y-96890000D03*
X54760000Y-99430000D03*
X57300000Y-99430000D03*
X54760000Y-101970000D03*
X57300000Y-101970000D03*
X54760000Y-104510000D03*
X57300000Y-104510000D03*
X54760000Y-107050000D03*
X57300000Y-107050000D03*
X54760000Y-109590000D03*
X57300000Y-109590000D03*
X54760000Y-112130000D03*
X57300000Y-112130000D03*
X54760000Y-114670000D03*
X57300000Y-114670000D03*
D23*
X115720000Y-68950000D03*
D24*
X118260000Y-68950000D03*
X115720000Y-71490000D03*
X118260000Y-71490000D03*
X115720000Y-74030000D03*
X118260000Y-74030000D03*
X115720000Y-76570000D03*
X118260000Y-76570000D03*
X115720000Y-79110000D03*
X118260000Y-79110000D03*
X115720000Y-81650000D03*
X118260000Y-81650000D03*
X115720000Y-84190000D03*
X118260000Y-84190000D03*
X115720000Y-86730000D03*
X118260000Y-86730000D03*
X115720000Y-89270000D03*
X118260000Y-89270000D03*
X115720000Y-91810000D03*
X118260000Y-91810000D03*
X115720000Y-94350000D03*
X118260000Y-94350000D03*
X115720000Y-96890000D03*
X118260000Y-96890000D03*
X115720000Y-99430000D03*
X118260000Y-99430000D03*
X115720000Y-101970000D03*
X118260000Y-101970000D03*
X115720000Y-104510000D03*
X118260000Y-104510000D03*
X115720000Y-107050000D03*
X118260000Y-107050000D03*
X115720000Y-109590000D03*
X118260000Y-109590000D03*
X115720000Y-112130000D03*
X118260000Y-112130000D03*
X115720000Y-114670000D03*
X118260000Y-114670000D03*
D25*
X127889000Y-60452000D03*
D26*
X127889000Y-57912000D03*
X127889000Y-55372000D03*
X127889000Y-52832000D03*
X120269000Y-52832000D03*
X120269000Y-55372000D03*
X120269000Y-57912000D03*
X120269000Y-60452000D03*
D20*
X110744000Y-39159000D03*
D21*
X109244000Y-43479000D03*
D22*
X112244000Y-43479000D03*
X109244000Y-46479000D03*
X112244000Y-46479000D03*
M02*
