G04 #@! TF.GenerationSoftware,KiCad,Pcbnew,6.0.4-6f826c9f35~116~ubuntu18.04.1*
G04 #@! TF.CreationDate,2022-04-20T12:00:40+08:00*
G04 #@! TF.ProjectId,Nucleo_F446Shield_v2,4e75636c-656f-45f4-9634-343653686965,rev?*
G04 #@! TF.SameCoordinates,Original*
G04 #@! TF.FileFunction,Legend,Bot*
G04 #@! TF.FilePolarity,Positive*
%FSLAX46Y46*%
G04 Gerber Fmt 4.6, Leading zero omitted, Abs format (unit mm)*
G04 Created by KiCad (PCBNEW 6.0.4-6f826c9f35~116~ubuntu18.04.1) date 2022-04-20 12:00:40*
%MOMM*%
%LPD*%
G01*
G04 APERTURE LIST*
G04 Aperture macros list*
%AMRoundRect*
0 Rectangle with rounded corners*
0 $1 Rounding radius*
0 $2 $3 $4 $5 $6 $7 $8 $9 X,Y pos of 4 corners*
0 Add a 4 corners polygon primitive as box body*
4,1,4,$2,$3,$4,$5,$6,$7,$8,$9,$2,$3,0*
0 Add four circle primitives for the rounded corners*
1,1,$1+$1,$2,$3*
1,1,$1+$1,$4,$5*
1,1,$1+$1,$6,$7*
1,1,$1+$1,$8,$9*
0 Add four rect primitives between the rounded corners*
20,1,$1+$1,$2,$3,$4,$5,0*
20,1,$1+$1,$4,$5,$6,$7,0*
20,1,$1+$1,$6,$7,$8,$9,0*
20,1,$1+$1,$8,$9,$2,$3,0*%
G04 Aperture macros list end*
%ADD10C,0.150000*%
%ADD11R,0.900000X1.800000*%
%ADD12C,4.500000*%
%ADD13R,3.500000X3.500000*%
%ADD14RoundRect,0.750000X-1.000000X0.750000X-1.000000X-0.750000X1.000000X-0.750000X1.000000X0.750000X0*%
%ADD15RoundRect,0.875000X-0.875000X0.875000X-0.875000X-0.875000X0.875000X-0.875000X0.875000X0.875000X0*%
%ADD16RoundRect,0.250000X-0.600000X0.600000X-0.600000X-0.600000X0.600000X-0.600000X0.600000X0.600000X0*%
%ADD17C,1.700000*%
%ADD18C,1.300000*%
%ADD19RoundRect,0.250000X0.600000X-0.850000X0.600000X0.850000X-0.600000X0.850000X-0.600000X-0.850000X0*%
%ADD20O,1.700000X2.200000*%
%ADD21C,3.000000*%
%ADD22RoundRect,0.250001X-0.499999X-0.499999X0.499999X-0.499999X0.499999X0.499999X-0.499999X0.499999X0*%
%ADD23C,1.500000*%
%ADD24R,1.530000X1.530000*%
%ADD25C,1.530000*%
%ADD26R,1.600000X1.600000*%
%ADD27O,1.600000X1.600000*%
G04 APERTURE END LIST*
D10*
X48451380Y-87175859D02*
X48451380Y-86985383D01*
X48403761Y-86890145D01*
X48356142Y-86842526D01*
X48213285Y-86747288D01*
X48022809Y-86699669D01*
X47641857Y-86699669D01*
X47546619Y-86747288D01*
X47499000Y-86794907D01*
X47451380Y-86890145D01*
X47451380Y-87080621D01*
X47499000Y-87175859D01*
X47546619Y-87223478D01*
X47641857Y-87271097D01*
X47879952Y-87271097D01*
X47975190Y-87223478D01*
X48022809Y-87175859D01*
X48070428Y-87080621D01*
X48070428Y-86890145D01*
X48022809Y-86794907D01*
X47975190Y-86747288D01*
X47879952Y-86699669D01*
X48451380Y-85747288D02*
X48451380Y-86318716D01*
X48451380Y-86033002D02*
X47451380Y-86033002D01*
X47594238Y-86128240D01*
X47689476Y-86223478D01*
X47737095Y-86318716D01*
X48356142Y-85318716D02*
X48403761Y-85271097D01*
X48451380Y-85318716D01*
X48403761Y-85366335D01*
X48356142Y-85318716D01*
X48451380Y-85318716D01*
X47451380Y-84937764D02*
X47451380Y-84318716D01*
X47832333Y-84652050D01*
X47832333Y-84509192D01*
X47879952Y-84413954D01*
X47927571Y-84366335D01*
X48022809Y-84318716D01*
X48260904Y-84318716D01*
X48356142Y-84366335D01*
X48403761Y-84413954D01*
X48451380Y-84509192D01*
X48451380Y-84794907D01*
X48403761Y-84890145D01*
X48356142Y-84937764D01*
X48451380Y-83842526D02*
X48451380Y-83652050D01*
X48403761Y-83556811D01*
X48356142Y-83509192D01*
X48213285Y-83413954D01*
X48022809Y-83366335D01*
X47641857Y-83366335D01*
X47546619Y-83413954D01*
X47499000Y-83461573D01*
X47451380Y-83556811D01*
X47451380Y-83747288D01*
X47499000Y-83842526D01*
X47546619Y-83890145D01*
X47641857Y-83937764D01*
X47879952Y-83937764D01*
X47975190Y-83890145D01*
X48022809Y-83842526D01*
X48070428Y-83747288D01*
X48070428Y-83556811D01*
X48022809Y-83461573D01*
X47975190Y-83413954D01*
X47879952Y-83366335D01*
X47451380Y-82747288D02*
X47451380Y-82652050D01*
X47499000Y-82556811D01*
X47546619Y-82509192D01*
X47641857Y-82461573D01*
X47832333Y-82413954D01*
X48070428Y-82413954D01*
X48260904Y-82461573D01*
X48356142Y-82509192D01*
X48403761Y-82556811D01*
X48451380Y-82652050D01*
X48451380Y-82747288D01*
X48403761Y-82842526D01*
X48356142Y-82890145D01*
X48260904Y-82937764D01*
X48070428Y-82985383D01*
X47832333Y-82985383D01*
X47641857Y-82937764D01*
X47546619Y-82890145D01*
X47499000Y-82842526D01*
X47451380Y-82747288D01*
X48451380Y-81461573D02*
X48451380Y-82033002D01*
X48451380Y-81747288D02*
X47451380Y-81747288D01*
X47594238Y-81842526D01*
X47689476Y-81937764D01*
X47737095Y-82033002D01*
X48451380Y-80271097D02*
X47784714Y-80271097D01*
X47879952Y-80271097D02*
X47832333Y-80223478D01*
X47784714Y-80128240D01*
X47784714Y-79985383D01*
X47832333Y-79890145D01*
X47927571Y-79842526D01*
X48451380Y-79842526D01*
X47927571Y-79842526D02*
X47832333Y-79794907D01*
X47784714Y-79699669D01*
X47784714Y-79556811D01*
X47832333Y-79461573D01*
X47927571Y-79413954D01*
X48451380Y-79413954D01*
X48451380Y-78937764D02*
X47784714Y-78937764D01*
X47879952Y-78937764D02*
X47832333Y-78890145D01*
X47784714Y-78794907D01*
X47784714Y-78652050D01*
X47832333Y-78556811D01*
X47927571Y-78509192D01*
X48451380Y-78509192D01*
X47927571Y-78509192D02*
X47832333Y-78461573D01*
X47784714Y-78366335D01*
X47784714Y-78223478D01*
X47832333Y-78128240D01*
X47927571Y-78080621D01*
X48451380Y-78080621D01*
X47871000Y-36957000D02*
X49735420Y-36957000D01*
X47871000Y-128347100D02*
X49735420Y-128347100D01*
X49149000Y-36957000D02*
X49149000Y-128347100D01*
X49149000Y-36957000D02*
X49149000Y-128347100D01*
X49149000Y-36957000D02*
X48562579Y-38083504D01*
X49149000Y-36957000D02*
X49735421Y-38083504D01*
X49149000Y-128347100D02*
X49735421Y-127220596D01*
X49149000Y-128347100D02*
X48562579Y-127220596D01*
X82264833Y-35513380D02*
X82931500Y-35513380D01*
X82502928Y-36513380D01*
X83360071Y-36513380D02*
X83550547Y-36513380D01*
X83645785Y-36465761D01*
X83693404Y-36418142D01*
X83788642Y-36275285D01*
X83836261Y-36084809D01*
X83836261Y-35703857D01*
X83788642Y-35608619D01*
X83741023Y-35561000D01*
X83645785Y-35513380D01*
X83455309Y-35513380D01*
X83360071Y-35561000D01*
X83312452Y-35608619D01*
X83264833Y-35703857D01*
X83264833Y-35941952D01*
X83312452Y-36037190D01*
X83360071Y-36084809D01*
X83455309Y-36132428D01*
X83645785Y-36132428D01*
X83741023Y-36084809D01*
X83788642Y-36037190D01*
X83836261Y-35941952D01*
X84264833Y-36418142D02*
X84312452Y-36465761D01*
X84264833Y-36513380D01*
X84217214Y-36465761D01*
X84264833Y-36418142D01*
X84264833Y-36513380D01*
X85264833Y-36513380D02*
X84693404Y-36513380D01*
X84979119Y-36513380D02*
X84979119Y-35513380D01*
X84883880Y-35656238D01*
X84788642Y-35751476D01*
X84693404Y-35799095D01*
X85645785Y-35608619D02*
X85693404Y-35561000D01*
X85788642Y-35513380D01*
X86026738Y-35513380D01*
X86121976Y-35561000D01*
X86169595Y-35608619D01*
X86217214Y-35703857D01*
X86217214Y-35799095D01*
X86169595Y-35941952D01*
X85598166Y-36513380D01*
X86217214Y-36513380D01*
X87169595Y-36513380D02*
X86598166Y-36513380D01*
X86883880Y-36513380D02*
X86883880Y-35513380D01*
X86788642Y-35656238D01*
X86693404Y-35751476D01*
X86598166Y-35799095D01*
X87788642Y-35513380D02*
X87883880Y-35513380D01*
X87979119Y-35561000D01*
X88026738Y-35608619D01*
X88074357Y-35703857D01*
X88121976Y-35894333D01*
X88121976Y-36132428D01*
X88074357Y-36322904D01*
X88026738Y-36418142D01*
X87979119Y-36465761D01*
X87883880Y-36513380D01*
X87788642Y-36513380D01*
X87693404Y-36465761D01*
X87645785Y-36418142D01*
X87598166Y-36322904D01*
X87550547Y-36132428D01*
X87550547Y-35894333D01*
X87598166Y-35703857D01*
X87645785Y-35608619D01*
X87693404Y-35561000D01*
X87788642Y-35513380D01*
X89312452Y-36513380D02*
X89312452Y-35846714D01*
X89312452Y-35941952D02*
X89360071Y-35894333D01*
X89455309Y-35846714D01*
X89598166Y-35846714D01*
X89693404Y-35894333D01*
X89741023Y-35989571D01*
X89741023Y-36513380D01*
X89741023Y-35989571D02*
X89788642Y-35894333D01*
X89883880Y-35846714D01*
X90026738Y-35846714D01*
X90121976Y-35894333D01*
X90169595Y-35989571D01*
X90169595Y-36513380D01*
X90645785Y-36513380D02*
X90645785Y-35846714D01*
X90645785Y-35941952D02*
X90693404Y-35894333D01*
X90788642Y-35846714D01*
X90931500Y-35846714D01*
X91026738Y-35894333D01*
X91074357Y-35989571D01*
X91074357Y-36513380D01*
X91074357Y-35989571D02*
X91121976Y-35894333D01*
X91217214Y-35846714D01*
X91360071Y-35846714D01*
X91455309Y-35894333D01*
X91502928Y-35989571D01*
X91502928Y-36513380D01*
X126492000Y-37457000D02*
X126492000Y-37797420D01*
X47371000Y-37457000D02*
X47371000Y-37797420D01*
X126492000Y-37211000D02*
X47371000Y-37211000D01*
X126492000Y-37211000D02*
X47371000Y-37211000D01*
X126492000Y-37211000D02*
X125365496Y-36624579D01*
X126492000Y-37211000D02*
X125365496Y-37797421D01*
X47371000Y-37211000D02*
X48497504Y-37797421D01*
X47371000Y-37211000D02*
X48497504Y-36624579D01*
X99591761Y-127841523D02*
X99639380Y-127984380D01*
X99639380Y-128222476D01*
X99591761Y-128317714D01*
X99544142Y-128365333D01*
X99448904Y-128412952D01*
X99353666Y-128412952D01*
X99258428Y-128365333D01*
X99210809Y-128317714D01*
X99163190Y-128222476D01*
X99115571Y-128032000D01*
X99067952Y-127936761D01*
X99020333Y-127889142D01*
X98925095Y-127841523D01*
X98829857Y-127841523D01*
X98734619Y-127889142D01*
X98687000Y-127936761D01*
X98639380Y-128032000D01*
X98639380Y-128270095D01*
X98687000Y-128412952D01*
X99544142Y-129412952D02*
X99591761Y-129365333D01*
X99639380Y-129222476D01*
X99639380Y-129127238D01*
X99591761Y-128984380D01*
X99496523Y-128889142D01*
X99401285Y-128841523D01*
X99210809Y-128793904D01*
X99067952Y-128793904D01*
X98877476Y-128841523D01*
X98782238Y-128889142D01*
X98687000Y-128984380D01*
X98639380Y-129127238D01*
X98639380Y-129222476D01*
X98687000Y-129365333D01*
X98734619Y-129412952D01*
X99639380Y-130317714D02*
X99639380Y-129841523D01*
X98639380Y-129841523D01*
X89479380Y-127643142D02*
X88479380Y-127643142D01*
X88479380Y-128024095D01*
X88527000Y-128119333D01*
X88574619Y-128166952D01*
X88669857Y-128214571D01*
X88812714Y-128214571D01*
X88907952Y-128166952D01*
X88955571Y-128119333D01*
X89003190Y-128024095D01*
X89003190Y-127643142D01*
X89193666Y-128595523D02*
X89193666Y-129071714D01*
X89479380Y-128500285D02*
X88479380Y-128833619D01*
X89479380Y-129166952D01*
X89479380Y-130024095D02*
X89479380Y-129452666D01*
X89479380Y-129738380D02*
X88479380Y-129738380D01*
X88622238Y-129643142D01*
X88717476Y-129547904D01*
X88765095Y-129452666D01*
X88479380Y-130928857D02*
X88479380Y-130452666D01*
X88955571Y-130405047D01*
X88907952Y-130452666D01*
X88860333Y-130547904D01*
X88860333Y-130786000D01*
X88907952Y-130881238D01*
X88955571Y-130928857D01*
X89050809Y-130976476D01*
X89288904Y-130976476D01*
X89384142Y-130928857D01*
X89431761Y-130881238D01*
X89479380Y-130786000D01*
X89479380Y-130547904D01*
X89431761Y-130452666D01*
X89384142Y-130405047D01*
X117855571Y-53316142D02*
X117903190Y-53363761D01*
X118046047Y-53411380D01*
X118141285Y-53411380D01*
X118284142Y-53363761D01*
X118379380Y-53268523D01*
X118427000Y-53173285D01*
X118474619Y-52982809D01*
X118474619Y-52839952D01*
X118427000Y-52649476D01*
X118379380Y-52554238D01*
X118284142Y-52459000D01*
X118141285Y-52411380D01*
X118046047Y-52411380D01*
X117903190Y-52459000D01*
X117855571Y-52506619D01*
X117474619Y-53125666D02*
X116998428Y-53125666D01*
X117569857Y-53411380D02*
X117236523Y-52411380D01*
X116903190Y-53411380D01*
X116569857Y-53411380D02*
X116569857Y-52411380D01*
X115998428Y-53411380D01*
X115998428Y-52411380D01*
X115569857Y-52506619D02*
X115522238Y-52459000D01*
X115427000Y-52411380D01*
X115188904Y-52411380D01*
X115093666Y-52459000D01*
X115046047Y-52506619D01*
X114998428Y-52601857D01*
X114998428Y-52697095D01*
X115046047Y-52839952D01*
X115617476Y-53411380D01*
X114998428Y-53411380D01*
X113284142Y-53411380D02*
X113855571Y-53411380D01*
X113569857Y-53411380D02*
X113569857Y-52411380D01*
X113665095Y-52554238D01*
X113760333Y-52649476D01*
X113855571Y-52697095D01*
X112903190Y-52506619D02*
X112855571Y-52459000D01*
X112760333Y-52411380D01*
X112522238Y-52411380D01*
X112427000Y-52459000D01*
X112379380Y-52506619D01*
X112331761Y-52601857D01*
X112331761Y-52697095D01*
X112379380Y-52839952D01*
X112950809Y-53411380D01*
X112331761Y-53411380D01*
X111712714Y-52411380D02*
X111617476Y-52411380D01*
X111522238Y-52459000D01*
X111474619Y-52506619D01*
X111427000Y-52601857D01*
X111379380Y-52792333D01*
X111379380Y-53030428D01*
X111427000Y-53220904D01*
X111474619Y-53316142D01*
X111522238Y-53363761D01*
X111617476Y-53411380D01*
X111712714Y-53411380D01*
X111807952Y-53363761D01*
X111855571Y-53316142D01*
X111903190Y-53220904D01*
X111950809Y-53030428D01*
X111950809Y-52792333D01*
X111903190Y-52601857D01*
X111855571Y-52506619D01*
X111807952Y-52459000D01*
X111712714Y-52411380D01*
X110379380Y-53411380D02*
X110712714Y-52935190D01*
X110950809Y-53411380D02*
X110950809Y-52411380D01*
X110569857Y-52411380D01*
X110474619Y-52459000D01*
X110427000Y-52506619D01*
X110379380Y-52601857D01*
X110379380Y-52744714D01*
X110427000Y-52839952D01*
X110474619Y-52887571D01*
X110569857Y-52935190D01*
X110950809Y-52935190D01*
X81859380Y-127571714D02*
X80859380Y-127571714D01*
X80859380Y-127952666D01*
X80907000Y-128047904D01*
X80954619Y-128095523D01*
X81049857Y-128143142D01*
X81192714Y-128143142D01*
X81287952Y-128095523D01*
X81335571Y-128047904D01*
X81383190Y-127952666D01*
X81383190Y-127571714D01*
X81764142Y-129143142D02*
X81811761Y-129095523D01*
X81859380Y-128952666D01*
X81859380Y-128857428D01*
X81811761Y-128714571D01*
X81716523Y-128619333D01*
X81621285Y-128571714D01*
X81430809Y-128524095D01*
X81287952Y-128524095D01*
X81097476Y-128571714D01*
X81002238Y-128619333D01*
X80907000Y-128714571D01*
X80859380Y-128857428D01*
X80859380Y-128952666D01*
X80907000Y-129095523D01*
X80954619Y-129143142D01*
X81859380Y-130095523D02*
X81859380Y-129524095D01*
X81859380Y-129809809D02*
X80859380Y-129809809D01*
X81002238Y-129714571D01*
X81097476Y-129619333D01*
X81145095Y-129524095D01*
X81192714Y-130952666D02*
X81859380Y-130952666D01*
X80811761Y-130714571D02*
X81526047Y-130476476D01*
X81526047Y-131095523D01*
X125801380Y-83502714D02*
X124801380Y-83502714D01*
X124801380Y-83883666D01*
X124849000Y-83978904D01*
X124896619Y-84026523D01*
X124991857Y-84074142D01*
X125134714Y-84074142D01*
X125229952Y-84026523D01*
X125277571Y-83978904D01*
X125325190Y-83883666D01*
X125325190Y-83502714D01*
X125277571Y-84836047D02*
X125325190Y-84978904D01*
X125372809Y-85026523D01*
X125468047Y-85074142D01*
X125610904Y-85074142D01*
X125706142Y-85026523D01*
X125753761Y-84978904D01*
X125801380Y-84883666D01*
X125801380Y-84502714D01*
X124801380Y-84502714D01*
X124801380Y-84836047D01*
X124849000Y-84931285D01*
X124896619Y-84978904D01*
X124991857Y-85026523D01*
X125087095Y-85026523D01*
X125182333Y-84978904D01*
X125229952Y-84931285D01*
X125277571Y-84836047D01*
X125277571Y-84502714D01*
X125801380Y-86026523D02*
X125801380Y-85455095D01*
X125801380Y-85740809D02*
X124801380Y-85740809D01*
X124944238Y-85645571D01*
X125039476Y-85550333D01*
X125087095Y-85455095D01*
X125134714Y-86883666D02*
X125801380Y-86883666D01*
X124753761Y-86645571D02*
X125468047Y-86407476D01*
X125468047Y-87026523D01*
X83240619Y-122110285D02*
X84240619Y-122110285D01*
X84240619Y-121729333D01*
X84193000Y-121634095D01*
X84145380Y-121586476D01*
X84050142Y-121538857D01*
X83907285Y-121538857D01*
X83812047Y-121586476D01*
X83764428Y-121634095D01*
X83716809Y-121729333D01*
X83716809Y-122110285D01*
X83335857Y-120538857D02*
X83288238Y-120586476D01*
X83240619Y-120729333D01*
X83240619Y-120824571D01*
X83288238Y-120967428D01*
X83383476Y-121062666D01*
X83478714Y-121110285D01*
X83669190Y-121157904D01*
X83812047Y-121157904D01*
X84002523Y-121110285D01*
X84097761Y-121062666D01*
X84193000Y-120967428D01*
X84240619Y-120824571D01*
X84240619Y-120729333D01*
X84193000Y-120586476D01*
X84145380Y-120538857D01*
X83240619Y-119586476D02*
X83240619Y-120157904D01*
X83240619Y-119872190D02*
X84240619Y-119872190D01*
X84097761Y-119967428D01*
X84002523Y-120062666D01*
X83954904Y-120157904D01*
X83240619Y-118634095D02*
X83240619Y-119205523D01*
X83240619Y-118919809D02*
X84240619Y-118919809D01*
X84097761Y-119015047D01*
X84002523Y-119110285D01*
X83954904Y-119205523D01*
X60206000Y-116840095D02*
X60158380Y-116744857D01*
X60158380Y-116602000D01*
X60206000Y-116459142D01*
X60301238Y-116363904D01*
X60396476Y-116316285D01*
X60586952Y-116268666D01*
X60729809Y-116268666D01*
X60920285Y-116316285D01*
X61015523Y-116363904D01*
X61110761Y-116459142D01*
X61158380Y-116602000D01*
X61158380Y-116697238D01*
X61110761Y-116840095D01*
X61063142Y-116887714D01*
X60729809Y-116887714D01*
X60729809Y-116697238D01*
X61158380Y-117316285D02*
X60158380Y-117316285D01*
X61158380Y-117887714D01*
X60158380Y-117887714D01*
X61158380Y-118363904D02*
X60158380Y-118363904D01*
X60158380Y-118602000D01*
X60206000Y-118744857D01*
X60301238Y-118840095D01*
X60396476Y-118887714D01*
X60586952Y-118935333D01*
X60729809Y-118935333D01*
X60920285Y-118887714D01*
X61015523Y-118840095D01*
X61110761Y-118744857D01*
X61158380Y-118602000D01*
X61158380Y-118363904D01*
X93480000Y-128778095D02*
X93432380Y-128682857D01*
X93432380Y-128540000D01*
X93480000Y-128397142D01*
X93575238Y-128301904D01*
X93670476Y-128254285D01*
X93860952Y-128206666D01*
X94003809Y-128206666D01*
X94194285Y-128254285D01*
X94289523Y-128301904D01*
X94384761Y-128397142D01*
X94432380Y-128540000D01*
X94432380Y-128635238D01*
X94384761Y-128778095D01*
X94337142Y-128825714D01*
X94003809Y-128825714D01*
X94003809Y-128635238D01*
X94432380Y-129254285D02*
X93432380Y-129254285D01*
X94432380Y-129825714D01*
X93432380Y-129825714D01*
X94432380Y-130301904D02*
X93432380Y-130301904D01*
X93432380Y-130540000D01*
X93480000Y-130682857D01*
X93575238Y-130778095D01*
X93670476Y-130825714D01*
X93860952Y-130873333D01*
X94003809Y-130873333D01*
X94194285Y-130825714D01*
X94289523Y-130778095D01*
X94384761Y-130682857D01*
X94432380Y-130540000D01*
X94432380Y-130301904D01*
X90940000Y-128778095D02*
X90892380Y-128682857D01*
X90892380Y-128540000D01*
X90940000Y-128397142D01*
X91035238Y-128301904D01*
X91130476Y-128254285D01*
X91320952Y-128206666D01*
X91463809Y-128206666D01*
X91654285Y-128254285D01*
X91749523Y-128301904D01*
X91844761Y-128397142D01*
X91892380Y-128540000D01*
X91892380Y-128635238D01*
X91844761Y-128778095D01*
X91797142Y-128825714D01*
X91463809Y-128825714D01*
X91463809Y-128635238D01*
X91892380Y-129254285D02*
X90892380Y-129254285D01*
X91892380Y-129825714D01*
X90892380Y-129825714D01*
X91892380Y-130301904D02*
X90892380Y-130301904D01*
X90892380Y-130540000D01*
X90940000Y-130682857D01*
X91035238Y-130778095D01*
X91130476Y-130825714D01*
X91320952Y-130873333D01*
X91463809Y-130873333D01*
X91654285Y-130825714D01*
X91749523Y-130778095D01*
X91844761Y-130682857D01*
X91892380Y-130540000D01*
X91892380Y-130301904D01*
X90860619Y-122197666D02*
X91860619Y-122197666D01*
X91860619Y-121816714D01*
X91813000Y-121721476D01*
X91765380Y-121673857D01*
X91670142Y-121626238D01*
X91527285Y-121626238D01*
X91432047Y-121673857D01*
X91384428Y-121721476D01*
X91336809Y-121816714D01*
X91336809Y-122197666D01*
X91146333Y-121245285D02*
X91146333Y-120769095D01*
X90860619Y-121340523D02*
X91860619Y-121007190D01*
X90860619Y-120673857D01*
X91860619Y-119911952D02*
X91860619Y-120102428D01*
X91813000Y-120197666D01*
X91765380Y-120245285D01*
X91622523Y-120340523D01*
X91432047Y-120388142D01*
X91051095Y-120388142D01*
X90955857Y-120340523D01*
X90908238Y-120292904D01*
X90860619Y-120197666D01*
X90860619Y-120007190D01*
X90908238Y-119911952D01*
X90955857Y-119864333D01*
X91051095Y-119816714D01*
X91289190Y-119816714D01*
X91384428Y-119864333D01*
X91432047Y-119911952D01*
X91479666Y-120007190D01*
X91479666Y-120197666D01*
X91432047Y-120292904D01*
X91384428Y-120340523D01*
X91289190Y-120388142D01*
X74239380Y-127666904D02*
X73239380Y-127666904D01*
X73239380Y-128047857D01*
X73287000Y-128143095D01*
X73334619Y-128190714D01*
X73429857Y-128238333D01*
X73572714Y-128238333D01*
X73667952Y-128190714D01*
X73715571Y-128143095D01*
X73763190Y-128047857D01*
X73763190Y-127666904D01*
X74144142Y-129238333D02*
X74191761Y-129190714D01*
X74239380Y-129047857D01*
X74239380Y-128952619D01*
X74191761Y-128809761D01*
X74096523Y-128714523D01*
X74001285Y-128666904D01*
X73810809Y-128619285D01*
X73667952Y-128619285D01*
X73477476Y-128666904D01*
X73382238Y-128714523D01*
X73287000Y-128809761D01*
X73239380Y-128952619D01*
X73239380Y-129047857D01*
X73287000Y-129190714D01*
X73334619Y-129238333D01*
X73239380Y-129571666D02*
X73239380Y-130190714D01*
X73620333Y-129857380D01*
X73620333Y-130000238D01*
X73667952Y-130095476D01*
X73715571Y-130143095D01*
X73810809Y-130190714D01*
X74048904Y-130190714D01*
X74144142Y-130143095D01*
X74191761Y-130095476D01*
X74239380Y-130000238D01*
X74239380Y-129714523D01*
X74191761Y-129619285D01*
X74144142Y-129571666D01*
X79319380Y-127571714D02*
X78319380Y-127571714D01*
X78319380Y-127952666D01*
X78367000Y-128047904D01*
X78414619Y-128095523D01*
X78509857Y-128143142D01*
X78652714Y-128143142D01*
X78747952Y-128095523D01*
X78795571Y-128047904D01*
X78843190Y-127952666D01*
X78843190Y-127571714D01*
X79224142Y-129143142D02*
X79271761Y-129095523D01*
X79319380Y-128952666D01*
X79319380Y-128857428D01*
X79271761Y-128714571D01*
X79176523Y-128619333D01*
X79081285Y-128571714D01*
X78890809Y-128524095D01*
X78747952Y-128524095D01*
X78557476Y-128571714D01*
X78462238Y-128619333D01*
X78367000Y-128714571D01*
X78319380Y-128857428D01*
X78319380Y-128952666D01*
X78367000Y-129095523D01*
X78414619Y-129143142D01*
X79319380Y-130095523D02*
X79319380Y-129524095D01*
X79319380Y-129809809D02*
X78319380Y-129809809D01*
X78462238Y-129714571D01*
X78557476Y-129619333D01*
X78605095Y-129524095D01*
X78319380Y-131000285D02*
X78319380Y-130524095D01*
X78795571Y-130476476D01*
X78747952Y-130524095D01*
X78700333Y-130619333D01*
X78700333Y-130857428D01*
X78747952Y-130952666D01*
X78795571Y-131000285D01*
X78890809Y-131047904D01*
X79128904Y-131047904D01*
X79224142Y-131000285D01*
X79271761Y-130952666D01*
X79319380Y-130857428D01*
X79319380Y-130619333D01*
X79271761Y-130524095D01*
X79224142Y-130476476D01*
X80573619Y-122110285D02*
X81573619Y-122110285D01*
X81573619Y-121729333D01*
X81526000Y-121634095D01*
X81478380Y-121586476D01*
X81383142Y-121538857D01*
X81240285Y-121538857D01*
X81145047Y-121586476D01*
X81097428Y-121634095D01*
X81049809Y-121729333D01*
X81049809Y-122110285D01*
X80668857Y-120538857D02*
X80621238Y-120586476D01*
X80573619Y-120729333D01*
X80573619Y-120824571D01*
X80621238Y-120967428D01*
X80716476Y-121062666D01*
X80811714Y-121110285D01*
X81002190Y-121157904D01*
X81145047Y-121157904D01*
X81335523Y-121110285D01*
X81430761Y-121062666D01*
X81526000Y-120967428D01*
X81573619Y-120824571D01*
X81573619Y-120729333D01*
X81526000Y-120586476D01*
X81478380Y-120538857D01*
X80573619Y-119586476D02*
X80573619Y-120157904D01*
X80573619Y-119872190D02*
X81573619Y-119872190D01*
X81430761Y-119967428D01*
X81335523Y-120062666D01*
X81287904Y-120157904D01*
X81573619Y-118967428D02*
X81573619Y-118872190D01*
X81526000Y-118776952D01*
X81478380Y-118729333D01*
X81383142Y-118681714D01*
X81192666Y-118634095D01*
X80954571Y-118634095D01*
X80764095Y-118681714D01*
X80668857Y-118729333D01*
X80621238Y-118776952D01*
X80573619Y-118872190D01*
X80573619Y-118967428D01*
X80621238Y-119062666D01*
X80668857Y-119110285D01*
X80764095Y-119157904D01*
X80954571Y-119205523D01*
X81192666Y-119205523D01*
X81383142Y-119157904D01*
X81478380Y-119110285D01*
X81526000Y-119062666D01*
X81573619Y-118967428D01*
X96924761Y-127817714D02*
X96972380Y-127960571D01*
X96972380Y-128198666D01*
X96924761Y-128293904D01*
X96877142Y-128341523D01*
X96781904Y-128389142D01*
X96686666Y-128389142D01*
X96591428Y-128341523D01*
X96543809Y-128293904D01*
X96496190Y-128198666D01*
X96448571Y-128008190D01*
X96400952Y-127912952D01*
X96353333Y-127865333D01*
X96258095Y-127817714D01*
X96162857Y-127817714D01*
X96067619Y-127865333D01*
X96020000Y-127912952D01*
X95972380Y-128008190D01*
X95972380Y-128246285D01*
X96020000Y-128389142D01*
X96972380Y-128817714D02*
X95972380Y-128817714D01*
X95972380Y-129055809D01*
X96020000Y-129198666D01*
X96115238Y-129293904D01*
X96210476Y-129341523D01*
X96400952Y-129389142D01*
X96543809Y-129389142D01*
X96734285Y-129341523D01*
X96829523Y-129293904D01*
X96924761Y-129198666D01*
X96972380Y-129055809D01*
X96972380Y-128817714D01*
X96686666Y-129770095D02*
X96686666Y-130246285D01*
X96972380Y-129674857D02*
X95972380Y-130008190D01*
X96972380Y-130341523D01*
X78033619Y-122110285D02*
X79033619Y-122110285D01*
X79033619Y-121729333D01*
X78986000Y-121634095D01*
X78938380Y-121586476D01*
X78843142Y-121538857D01*
X78700285Y-121538857D01*
X78605047Y-121586476D01*
X78557428Y-121634095D01*
X78509809Y-121729333D01*
X78509809Y-122110285D01*
X78128857Y-120538857D02*
X78081238Y-120586476D01*
X78033619Y-120729333D01*
X78033619Y-120824571D01*
X78081238Y-120967428D01*
X78176476Y-121062666D01*
X78271714Y-121110285D01*
X78462190Y-121157904D01*
X78605047Y-121157904D01*
X78795523Y-121110285D01*
X78890761Y-121062666D01*
X78986000Y-120967428D01*
X79033619Y-120824571D01*
X79033619Y-120729333D01*
X78986000Y-120586476D01*
X78938380Y-120538857D01*
X78033619Y-119586476D02*
X78033619Y-120157904D01*
X78033619Y-119872190D02*
X79033619Y-119872190D01*
X78890761Y-119967428D01*
X78795523Y-120062666D01*
X78747904Y-120157904D01*
X78938380Y-119205523D02*
X78986000Y-119157904D01*
X79033619Y-119062666D01*
X79033619Y-118824571D01*
X78986000Y-118729333D01*
X78938380Y-118681714D01*
X78843142Y-118634095D01*
X78747904Y-118634095D01*
X78605047Y-118681714D01*
X78033619Y-119253142D01*
X78033619Y-118634095D01*
X117919000Y-58396142D02*
X117966619Y-58443761D01*
X118109476Y-58491380D01*
X118204714Y-58491380D01*
X118347571Y-58443761D01*
X118442809Y-58348523D01*
X118490428Y-58253285D01*
X118538047Y-58062809D01*
X118538047Y-57919952D01*
X118490428Y-57729476D01*
X118442809Y-57634238D01*
X118347571Y-57539000D01*
X118204714Y-57491380D01*
X118109476Y-57491380D01*
X117966619Y-57539000D01*
X117919000Y-57586619D01*
X117538047Y-58205666D02*
X117061857Y-58205666D01*
X117633285Y-58491380D02*
X117299952Y-57491380D01*
X116966619Y-58491380D01*
X116633285Y-58491380D02*
X116633285Y-57491380D01*
X116061857Y-58491380D01*
X116061857Y-57491380D01*
X115061857Y-58491380D02*
X115633285Y-58491380D01*
X115347571Y-58491380D02*
X115347571Y-57491380D01*
X115442809Y-57634238D01*
X115538047Y-57729476D01*
X115633285Y-57777095D01*
X113871380Y-57967571D02*
X113538047Y-57967571D01*
X113395190Y-58491380D02*
X113871380Y-58491380D01*
X113871380Y-57491380D01*
X113395190Y-57491380D01*
X112966619Y-57824714D02*
X112966619Y-58491380D01*
X112966619Y-57919952D02*
X112919000Y-57872333D01*
X112823761Y-57824714D01*
X112680904Y-57824714D01*
X112585666Y-57872333D01*
X112538047Y-57967571D01*
X112538047Y-58491380D01*
X111633285Y-58491380D02*
X111633285Y-57967571D01*
X111680904Y-57872333D01*
X111776142Y-57824714D01*
X111966619Y-57824714D01*
X112061857Y-57872333D01*
X111633285Y-58443761D02*
X111728523Y-58491380D01*
X111966619Y-58491380D01*
X112061857Y-58443761D01*
X112109476Y-58348523D01*
X112109476Y-58253285D01*
X112061857Y-58158047D01*
X111966619Y-58110428D01*
X111728523Y-58110428D01*
X111633285Y-58062809D01*
X111157095Y-58491380D02*
X111157095Y-57491380D01*
X111157095Y-57872333D02*
X111061857Y-57824714D01*
X110871380Y-57824714D01*
X110776142Y-57872333D01*
X110728523Y-57919952D01*
X110680904Y-58015190D01*
X110680904Y-58300904D01*
X110728523Y-58396142D01*
X110776142Y-58443761D01*
X110871380Y-58491380D01*
X111061857Y-58491380D01*
X111157095Y-58443761D01*
X110109476Y-58491380D02*
X110204714Y-58443761D01*
X110252333Y-58348523D01*
X110252333Y-57491380D01*
X109347571Y-58443761D02*
X109442809Y-58491380D01*
X109633285Y-58491380D01*
X109728523Y-58443761D01*
X109776142Y-58348523D01*
X109776142Y-57967571D01*
X109728523Y-57872333D01*
X109633285Y-57824714D01*
X109442809Y-57824714D01*
X109347571Y-57872333D01*
X109299952Y-57967571D01*
X109299952Y-58062809D01*
X109776142Y-58158047D01*
X125674380Y-112807904D02*
X124674380Y-112807904D01*
X124674380Y-113188857D01*
X124722000Y-113284095D01*
X124769619Y-113331714D01*
X124864857Y-113379333D01*
X125007714Y-113379333D01*
X125102952Y-113331714D01*
X125150571Y-113284095D01*
X125198190Y-113188857D01*
X125198190Y-112807904D01*
X125579142Y-114379333D02*
X125626761Y-114331714D01*
X125674380Y-114188857D01*
X125674380Y-114093619D01*
X125626761Y-113950761D01*
X125531523Y-113855523D01*
X125436285Y-113807904D01*
X125245809Y-113760285D01*
X125102952Y-113760285D01*
X124912476Y-113807904D01*
X124817238Y-113855523D01*
X124722000Y-113950761D01*
X124674380Y-114093619D01*
X124674380Y-114188857D01*
X124722000Y-114331714D01*
X124769619Y-114379333D01*
X125007714Y-115236476D02*
X125674380Y-115236476D01*
X124626761Y-114998380D02*
X125341047Y-114760285D01*
X125341047Y-115379333D01*
X75493619Y-122197666D02*
X76493619Y-122197666D01*
X76493619Y-121816714D01*
X76446000Y-121721476D01*
X76398380Y-121673857D01*
X76303142Y-121626238D01*
X76160285Y-121626238D01*
X76065047Y-121673857D01*
X76017428Y-121721476D01*
X75969809Y-121816714D01*
X75969809Y-122197666D01*
X75779333Y-121245285D02*
X75779333Y-120769095D01*
X75493619Y-121340523D02*
X76493619Y-121007190D01*
X75493619Y-120673857D01*
X76160285Y-119911952D02*
X75493619Y-119911952D01*
X76541238Y-120150047D02*
X75826952Y-120388142D01*
X75826952Y-119769095D01*
X96067619Y-122197666D02*
X97067619Y-122197666D01*
X97067619Y-121816714D01*
X97020000Y-121721476D01*
X96972380Y-121673857D01*
X96877142Y-121626238D01*
X96734285Y-121626238D01*
X96639047Y-121673857D01*
X96591428Y-121721476D01*
X96543809Y-121816714D01*
X96543809Y-122197666D01*
X96353333Y-121245285D02*
X96353333Y-120769095D01*
X96067619Y-121340523D02*
X97067619Y-121007190D01*
X96067619Y-120673857D01*
X96067619Y-120292904D02*
X96067619Y-120102428D01*
X96115238Y-120007190D01*
X96162857Y-119959571D01*
X96305714Y-119864333D01*
X96496190Y-119816714D01*
X96877142Y-119816714D01*
X96972380Y-119864333D01*
X97020000Y-119911952D01*
X97067619Y-120007190D01*
X97067619Y-120197666D01*
X97020000Y-120292904D01*
X96972380Y-120340523D01*
X96877142Y-120388142D01*
X96639047Y-120388142D01*
X96543809Y-120340523D01*
X96496190Y-120292904D01*
X96448571Y-120197666D01*
X96448571Y-120007190D01*
X96496190Y-119911952D01*
X96543809Y-119864333D01*
X96639047Y-119816714D01*
X109434380Y-116427380D02*
X109434380Y-117046428D01*
X109815333Y-116713095D01*
X109815333Y-116855952D01*
X109862952Y-116951190D01*
X109910571Y-116998809D01*
X110005809Y-117046428D01*
X110243904Y-117046428D01*
X110339142Y-116998809D01*
X110386761Y-116951190D01*
X110434380Y-116855952D01*
X110434380Y-116570238D01*
X110386761Y-116475000D01*
X110339142Y-116427380D01*
X110339142Y-117475000D02*
X110386761Y-117522619D01*
X110434380Y-117475000D01*
X110386761Y-117427380D01*
X110339142Y-117475000D01*
X110434380Y-117475000D01*
X109434380Y-117855952D02*
X109434380Y-118475000D01*
X109815333Y-118141666D01*
X109815333Y-118284523D01*
X109862952Y-118379761D01*
X109910571Y-118427380D01*
X110005809Y-118475000D01*
X110243904Y-118475000D01*
X110339142Y-118427380D01*
X110386761Y-118379761D01*
X110434380Y-118284523D01*
X110434380Y-117998809D01*
X110386761Y-117903571D01*
X110339142Y-117855952D01*
X84399380Y-127666904D02*
X83399380Y-127666904D01*
X83399380Y-128047857D01*
X83447000Y-128143095D01*
X83494619Y-128190714D01*
X83589857Y-128238333D01*
X83732714Y-128238333D01*
X83827952Y-128190714D01*
X83875571Y-128143095D01*
X83923190Y-128047857D01*
X83923190Y-127666904D01*
X83875571Y-129000238D02*
X83923190Y-129143095D01*
X83970809Y-129190714D01*
X84066047Y-129238333D01*
X84208904Y-129238333D01*
X84304142Y-129190714D01*
X84351761Y-129143095D01*
X84399380Y-129047857D01*
X84399380Y-128666904D01*
X83399380Y-128666904D01*
X83399380Y-129000238D01*
X83447000Y-129095476D01*
X83494619Y-129143095D01*
X83589857Y-129190714D01*
X83685095Y-129190714D01*
X83780333Y-129143095D01*
X83827952Y-129095476D01*
X83875571Y-129000238D01*
X83875571Y-128666904D01*
X83399380Y-129571666D02*
X83399380Y-130238333D01*
X84399380Y-129809761D01*
X93527619Y-122197666D02*
X94527619Y-122197666D01*
X94527619Y-121816714D01*
X94480000Y-121721476D01*
X94432380Y-121673857D01*
X94337142Y-121626238D01*
X94194285Y-121626238D01*
X94099047Y-121673857D01*
X94051428Y-121721476D01*
X94003809Y-121816714D01*
X94003809Y-122197666D01*
X93813333Y-121245285D02*
X93813333Y-120769095D01*
X93527619Y-121340523D02*
X94527619Y-121007190D01*
X93527619Y-120673857D01*
X94527619Y-120435761D02*
X94527619Y-119769095D01*
X93527619Y-120197666D01*
X85812380Y-128333523D02*
X85812380Y-127857333D01*
X86288571Y-127809714D01*
X86240952Y-127857333D01*
X86193333Y-127952571D01*
X86193333Y-128190666D01*
X86240952Y-128285904D01*
X86288571Y-128333523D01*
X86383809Y-128381142D01*
X86621904Y-128381142D01*
X86717142Y-128333523D01*
X86764761Y-128285904D01*
X86812380Y-128190666D01*
X86812380Y-127952571D01*
X86764761Y-127857333D01*
X86717142Y-127809714D01*
X85812380Y-128666857D02*
X86812380Y-129000190D01*
X85812380Y-129333523D01*
X119610000Y-46712142D02*
X119657619Y-46759761D01*
X119800476Y-46807380D01*
X119895714Y-46807380D01*
X120038571Y-46759761D01*
X120133809Y-46664523D01*
X120181428Y-46569285D01*
X120229047Y-46378809D01*
X120229047Y-46235952D01*
X120181428Y-46045476D01*
X120133809Y-45950238D01*
X120038571Y-45855000D01*
X119895714Y-45807380D01*
X119800476Y-45807380D01*
X119657619Y-45855000D01*
X119610000Y-45902619D01*
X119229047Y-46521666D02*
X118752857Y-46521666D01*
X119324285Y-46807380D02*
X118990952Y-45807380D01*
X118657619Y-46807380D01*
X118324285Y-46807380D02*
X118324285Y-45807380D01*
X117752857Y-46807380D01*
X117752857Y-45807380D01*
X115990952Y-46807380D02*
X116562380Y-46807380D01*
X116276666Y-46807380D02*
X116276666Y-45807380D01*
X116371904Y-45950238D01*
X116467142Y-46045476D01*
X116562380Y-46093095D01*
X56078380Y-116689333D02*
X55078380Y-116689333D01*
X55078380Y-117070285D01*
X55126000Y-117165523D01*
X55173619Y-117213142D01*
X55268857Y-117260761D01*
X55411714Y-117260761D01*
X55506952Y-117213142D01*
X55554571Y-117165523D01*
X55602190Y-117070285D01*
X55602190Y-116689333D01*
X55792666Y-117641714D02*
X55792666Y-118117904D01*
X56078380Y-117546476D02*
X55078380Y-117879809D01*
X56078380Y-118213142D01*
X55078380Y-118736952D02*
X55078380Y-118832190D01*
X55126000Y-118927428D01*
X55173619Y-118975047D01*
X55268857Y-119022666D01*
X55459333Y-119070285D01*
X55697428Y-119070285D01*
X55887904Y-119022666D01*
X55983142Y-118975047D01*
X56030761Y-118927428D01*
X56078380Y-118832190D01*
X56078380Y-118736952D01*
X56030761Y-118641714D01*
X55983142Y-118594095D01*
X55887904Y-118546476D01*
X55697428Y-118498857D01*
X55459333Y-118498857D01*
X55268857Y-118546476D01*
X55173619Y-118594095D01*
X55126000Y-118641714D01*
X55078380Y-118736952D01*
X88320619Y-122197666D02*
X89320619Y-122197666D01*
X89320619Y-121816714D01*
X89273000Y-121721476D01*
X89225380Y-121673857D01*
X89130142Y-121626238D01*
X88987285Y-121626238D01*
X88892047Y-121673857D01*
X88844428Y-121721476D01*
X88796809Y-121816714D01*
X88796809Y-122197666D01*
X88606333Y-121245285D02*
X88606333Y-120769095D01*
X88320619Y-121340523D02*
X89320619Y-121007190D01*
X88320619Y-120673857D01*
X89320619Y-119864333D02*
X89320619Y-120340523D01*
X88844428Y-120388142D01*
X88892047Y-120340523D01*
X88939666Y-120245285D01*
X88939666Y-120007190D01*
X88892047Y-119911952D01*
X88844428Y-119864333D01*
X88749190Y-119816714D01*
X88511095Y-119816714D01*
X88415857Y-119864333D01*
X88368238Y-119911952D01*
X88320619Y-120007190D01*
X88320619Y-120245285D01*
X88368238Y-120340523D01*
X88415857Y-120388142D01*
X125547380Y-98234714D02*
X124547380Y-98234714D01*
X124547380Y-98615666D01*
X124595000Y-98710904D01*
X124642619Y-98758523D01*
X124737857Y-98806142D01*
X124880714Y-98806142D01*
X124975952Y-98758523D01*
X125023571Y-98710904D01*
X125071190Y-98615666D01*
X125071190Y-98234714D01*
X125023571Y-99568047D02*
X125071190Y-99710904D01*
X125118809Y-99758523D01*
X125214047Y-99806142D01*
X125356904Y-99806142D01*
X125452142Y-99758523D01*
X125499761Y-99710904D01*
X125547380Y-99615666D01*
X125547380Y-99234714D01*
X124547380Y-99234714D01*
X124547380Y-99568047D01*
X124595000Y-99663285D01*
X124642619Y-99710904D01*
X124737857Y-99758523D01*
X124833095Y-99758523D01*
X124928333Y-99710904D01*
X124975952Y-99663285D01*
X125023571Y-99568047D01*
X125023571Y-99234714D01*
X125547380Y-100758523D02*
X125547380Y-100187095D01*
X125547380Y-100472809D02*
X124547380Y-100472809D01*
X124690238Y-100377571D01*
X124785476Y-100282333D01*
X124833095Y-100187095D01*
X124547380Y-101091857D02*
X124547380Y-101710904D01*
X124928333Y-101377571D01*
X124928333Y-101520428D01*
X124975952Y-101615666D01*
X125023571Y-101663285D01*
X125118809Y-101710904D01*
X125356904Y-101710904D01*
X125452142Y-101663285D01*
X125499761Y-101615666D01*
X125547380Y-101520428D01*
X125547380Y-101234714D01*
X125499761Y-101139476D01*
X125452142Y-101091857D01*
X76779380Y-127666904D02*
X75779380Y-127666904D01*
X75779380Y-128047857D01*
X75827000Y-128143095D01*
X75874619Y-128190714D01*
X75969857Y-128238333D01*
X76112714Y-128238333D01*
X76207952Y-128190714D01*
X76255571Y-128143095D01*
X76303190Y-128047857D01*
X76303190Y-127666904D01*
X76684142Y-129238333D02*
X76731761Y-129190714D01*
X76779380Y-129047857D01*
X76779380Y-128952619D01*
X76731761Y-128809761D01*
X76636523Y-128714523D01*
X76541285Y-128666904D01*
X76350809Y-128619285D01*
X76207952Y-128619285D01*
X76017476Y-128666904D01*
X75922238Y-128714523D01*
X75827000Y-128809761D01*
X75779380Y-128952619D01*
X75779380Y-129047857D01*
X75827000Y-129190714D01*
X75874619Y-129238333D01*
X75874619Y-129619285D02*
X75827000Y-129666904D01*
X75779380Y-129762142D01*
X75779380Y-130000238D01*
X75827000Y-130095476D01*
X75874619Y-130143095D01*
X75969857Y-130190714D01*
X76065095Y-130190714D01*
X76207952Y-130143095D01*
X76779380Y-129571666D01*
X76779380Y-130190714D01*
X70667619Y-122142095D02*
X71667619Y-122142095D01*
X71667619Y-121761142D01*
X71620000Y-121665904D01*
X71572380Y-121618285D01*
X71477142Y-121570666D01*
X71334285Y-121570666D01*
X71239047Y-121618285D01*
X71191428Y-121665904D01*
X71143809Y-121761142D01*
X71143809Y-122142095D01*
X70762857Y-120570666D02*
X70715238Y-120618285D01*
X70667619Y-120761142D01*
X70667619Y-120856380D01*
X70715238Y-120999238D01*
X70810476Y-121094476D01*
X70905714Y-121142095D01*
X71096190Y-121189714D01*
X71239047Y-121189714D01*
X71429523Y-121142095D01*
X71524761Y-121094476D01*
X71620000Y-120999238D01*
X71667619Y-120856380D01*
X71667619Y-120761142D01*
X71620000Y-120618285D01*
X71572380Y-120570666D01*
X70667619Y-119618285D02*
X70667619Y-120189714D01*
X70667619Y-119904000D02*
X71667619Y-119904000D01*
X71524761Y-119999238D01*
X71429523Y-120094476D01*
X71381904Y-120189714D01*
X115471380Y-116236904D02*
X114471380Y-116236904D01*
X114471380Y-116617857D01*
X114519000Y-116713095D01*
X114566619Y-116760714D01*
X114661857Y-116808333D01*
X114804714Y-116808333D01*
X114899952Y-116760714D01*
X114947571Y-116713095D01*
X114995190Y-116617857D01*
X114995190Y-116236904D01*
X114947571Y-117570238D02*
X114995190Y-117713095D01*
X115042809Y-117760714D01*
X115138047Y-117808333D01*
X115280904Y-117808333D01*
X115376142Y-117760714D01*
X115423761Y-117713095D01*
X115471380Y-117617857D01*
X115471380Y-117236904D01*
X114471380Y-117236904D01*
X114471380Y-117570238D01*
X114519000Y-117665476D01*
X114566619Y-117713095D01*
X114661857Y-117760714D01*
X114757095Y-117760714D01*
X114852333Y-117713095D01*
X114899952Y-117665476D01*
X114947571Y-117570238D01*
X114947571Y-117236904D01*
X114804714Y-118665476D02*
X115471380Y-118665476D01*
X114423761Y-118427380D02*
X115138047Y-118189285D01*
X115138047Y-118808333D01*
X105505095Y-48542380D02*
X105505095Y-47542380D01*
X105124142Y-47542380D01*
X105028904Y-47590000D01*
X104981285Y-47637619D01*
X104933666Y-47732857D01*
X104933666Y-47875714D01*
X104981285Y-47970952D01*
X105028904Y-48018571D01*
X105124142Y-48066190D01*
X105505095Y-48066190D01*
X104171761Y-48018571D02*
X104028904Y-48066190D01*
X103981285Y-48113809D01*
X103933666Y-48209047D01*
X103933666Y-48351904D01*
X103981285Y-48447142D01*
X104028904Y-48494761D01*
X104124142Y-48542380D01*
X104505095Y-48542380D01*
X104505095Y-47542380D01*
X104171761Y-47542380D01*
X104076523Y-47590000D01*
X104028904Y-47637619D01*
X103981285Y-47732857D01*
X103981285Y-47828095D01*
X104028904Y-47923333D01*
X104076523Y-47970952D01*
X104171761Y-48018571D01*
X104505095Y-48018571D01*
X103028904Y-47542380D02*
X103505095Y-47542380D01*
X103552714Y-48018571D01*
X103505095Y-47970952D01*
X103409857Y-47923333D01*
X103171761Y-47923333D01*
X103076523Y-47970952D01*
X103028904Y-48018571D01*
X102981285Y-48113809D01*
X102981285Y-48351904D01*
X103028904Y-48447142D01*
X103076523Y-48494761D01*
X103171761Y-48542380D01*
X103409857Y-48542380D01*
X103505095Y-48494761D01*
X103552714Y-48447142D01*
X105505095Y-50152380D02*
X105505095Y-49152380D01*
X105124142Y-49152380D01*
X105028904Y-49200000D01*
X104981285Y-49247619D01*
X104933666Y-49342857D01*
X104933666Y-49485714D01*
X104981285Y-49580952D01*
X105028904Y-49628571D01*
X105124142Y-49676190D01*
X105505095Y-49676190D01*
X104171761Y-49628571D02*
X104028904Y-49676190D01*
X103981285Y-49723809D01*
X103933666Y-49819047D01*
X103933666Y-49961904D01*
X103981285Y-50057142D01*
X104028904Y-50104761D01*
X104124142Y-50152380D01*
X104505095Y-50152380D01*
X104505095Y-49152380D01*
X104171761Y-49152380D01*
X104076523Y-49200000D01*
X104028904Y-49247619D01*
X103981285Y-49342857D01*
X103981285Y-49438095D01*
X104028904Y-49533333D01*
X104076523Y-49580952D01*
X104171761Y-49628571D01*
X104505095Y-49628571D01*
X103076523Y-49152380D02*
X103267000Y-49152380D01*
X103362238Y-49200000D01*
X103409857Y-49247619D01*
X103505095Y-49390476D01*
X103552714Y-49580952D01*
X103552714Y-49961904D01*
X103505095Y-50057142D01*
X103457476Y-50104761D01*
X103362238Y-50152380D01*
X103171761Y-50152380D01*
X103076523Y-50104761D01*
X103028904Y-50057142D01*
X102981285Y-49961904D01*
X102981285Y-49723809D01*
X103028904Y-49628571D01*
X103076523Y-49580952D01*
X103171761Y-49533333D01*
X103362238Y-49533333D01*
X103457476Y-49580952D01*
X103505095Y-49628571D01*
X103552714Y-49723809D01*
X100893619Y-122142095D02*
X101893619Y-122142095D01*
X101893619Y-121761142D01*
X101846000Y-121665904D01*
X101798380Y-121618285D01*
X101703142Y-121570666D01*
X101560285Y-121570666D01*
X101465047Y-121618285D01*
X101417428Y-121665904D01*
X101369809Y-121761142D01*
X101369809Y-122142095D01*
X101417428Y-120808761D02*
X101369809Y-120665904D01*
X101322190Y-120618285D01*
X101226952Y-120570666D01*
X101084095Y-120570666D01*
X100988857Y-120618285D01*
X100941238Y-120665904D01*
X100893619Y-120761142D01*
X100893619Y-121142095D01*
X101893619Y-121142095D01*
X101893619Y-120808761D01*
X101846000Y-120713523D01*
X101798380Y-120665904D01*
X101703142Y-120618285D01*
X101607904Y-120618285D01*
X101512666Y-120665904D01*
X101465047Y-120713523D01*
X101417428Y-120808761D01*
X101417428Y-121142095D01*
X100893619Y-119618285D02*
X100893619Y-120189714D01*
X100893619Y-119904000D02*
X101893619Y-119904000D01*
X101750761Y-119999238D01*
X101655523Y-120094476D01*
X101607904Y-120189714D01*
X113101380Y-116308333D02*
X112101380Y-116308333D01*
X112101380Y-116689285D01*
X112149000Y-116784523D01*
X112196619Y-116832142D01*
X112291857Y-116879761D01*
X112434714Y-116879761D01*
X112529952Y-116832142D01*
X112577571Y-116784523D01*
X112625190Y-116689285D01*
X112625190Y-116308333D01*
X112815666Y-117260714D02*
X112815666Y-117736904D01*
X113101380Y-117165476D02*
X112101380Y-117498809D01*
X113101380Y-117832142D01*
X112529952Y-118308333D02*
X112482333Y-118213095D01*
X112434714Y-118165476D01*
X112339476Y-118117857D01*
X112291857Y-118117857D01*
X112196619Y-118165476D01*
X112149000Y-118213095D01*
X112101380Y-118308333D01*
X112101380Y-118498809D01*
X112149000Y-118594047D01*
X112196619Y-118641666D01*
X112291857Y-118689285D01*
X112339476Y-118689285D01*
X112434714Y-118641666D01*
X112482333Y-118594047D01*
X112529952Y-118498809D01*
X112529952Y-118308333D01*
X112577571Y-118213095D01*
X112625190Y-118165476D01*
X112720428Y-118117857D01*
X112910904Y-118117857D01*
X113006142Y-118165476D01*
X113053761Y-118213095D01*
X113101380Y-118308333D01*
X113101380Y-118498809D01*
X113053761Y-118594047D01*
X113006142Y-118641666D01*
X112910904Y-118689285D01*
X112720428Y-118689285D01*
X112625190Y-118641666D01*
X112577571Y-118594047D01*
X112529952Y-118498809D01*
X120260857Y-48288380D02*
X120260857Y-47288380D01*
X119879904Y-47288380D01*
X119784666Y-47336000D01*
X119737047Y-47383619D01*
X119689428Y-47478857D01*
X119689428Y-47621714D01*
X119737047Y-47716952D01*
X119784666Y-47764571D01*
X119879904Y-47812190D01*
X120260857Y-47812190D01*
X119308476Y-48002666D02*
X118832285Y-48002666D01*
X119403714Y-48288380D02*
X119070380Y-47288380D01*
X118737047Y-48288380D01*
X117879904Y-48288380D02*
X118451333Y-48288380D01*
X118165619Y-48288380D02*
X118165619Y-47288380D01*
X118260857Y-47431238D01*
X118356095Y-47526476D01*
X118451333Y-47574095D01*
X116927523Y-48288380D02*
X117498952Y-48288380D01*
X117213238Y-48288380D02*
X117213238Y-47288380D01*
X117308476Y-47431238D01*
X117403714Y-47526476D01*
X117498952Y-47574095D01*
X120260857Y-49898380D02*
X120260857Y-48898380D01*
X119879904Y-48898380D01*
X119784666Y-48946000D01*
X119737047Y-48993619D01*
X119689428Y-49088857D01*
X119689428Y-49231714D01*
X119737047Y-49326952D01*
X119784666Y-49374571D01*
X119879904Y-49422190D01*
X120260857Y-49422190D01*
X119308476Y-49612666D02*
X118832285Y-49612666D01*
X119403714Y-49898380D02*
X119070380Y-48898380D01*
X118737047Y-49898380D01*
X117879904Y-49898380D02*
X118451333Y-49898380D01*
X118165619Y-49898380D02*
X118165619Y-48898380D01*
X118260857Y-49041238D01*
X118356095Y-49136476D01*
X118451333Y-49184095D01*
X117498952Y-48993619D02*
X117451333Y-48946000D01*
X117356095Y-48898380D01*
X117118000Y-48898380D01*
X117022761Y-48946000D01*
X116975142Y-48993619D01*
X116927523Y-49088857D01*
X116927523Y-49184095D01*
X116975142Y-49326952D01*
X117546571Y-49898380D01*
X116927523Y-49898380D01*
X86907619Y-121602476D02*
X86907619Y-122078666D01*
X86431428Y-122126285D01*
X86479047Y-122078666D01*
X86526666Y-121983428D01*
X86526666Y-121745333D01*
X86479047Y-121650095D01*
X86431428Y-121602476D01*
X86336190Y-121554857D01*
X86098095Y-121554857D01*
X86002857Y-121602476D01*
X85955238Y-121650095D01*
X85907619Y-121745333D01*
X85907619Y-121983428D01*
X85955238Y-122078666D01*
X86002857Y-122126285D01*
X86907619Y-121269142D02*
X85907619Y-120935809D01*
X86907619Y-120602476D01*
X117792000Y-55856142D02*
X117839619Y-55903761D01*
X117982476Y-55951380D01*
X118077714Y-55951380D01*
X118220571Y-55903761D01*
X118315809Y-55808523D01*
X118363428Y-55713285D01*
X118411047Y-55522809D01*
X118411047Y-55379952D01*
X118363428Y-55189476D01*
X118315809Y-55094238D01*
X118220571Y-54999000D01*
X118077714Y-54951380D01*
X117982476Y-54951380D01*
X117839619Y-54999000D01*
X117792000Y-55046619D01*
X117411047Y-55665666D02*
X116934857Y-55665666D01*
X117506285Y-55951380D02*
X117172952Y-54951380D01*
X116839619Y-55951380D01*
X116506285Y-55951380D02*
X116506285Y-54951380D01*
X115934857Y-55951380D01*
X115934857Y-54951380D01*
X115506285Y-55046619D02*
X115458666Y-54999000D01*
X115363428Y-54951380D01*
X115125333Y-54951380D01*
X115030095Y-54999000D01*
X114982476Y-55046619D01*
X114934857Y-55141857D01*
X114934857Y-55237095D01*
X114982476Y-55379952D01*
X115553904Y-55951380D01*
X114934857Y-55951380D01*
X113744380Y-55427571D02*
X113411047Y-55427571D01*
X113268190Y-55951380D02*
X113744380Y-55951380D01*
X113744380Y-54951380D01*
X113268190Y-54951380D01*
X112839619Y-55284714D02*
X112839619Y-55951380D01*
X112839619Y-55379952D02*
X112792000Y-55332333D01*
X112696761Y-55284714D01*
X112553904Y-55284714D01*
X112458666Y-55332333D01*
X112411047Y-55427571D01*
X112411047Y-55951380D01*
X111506285Y-55951380D02*
X111506285Y-55427571D01*
X111553904Y-55332333D01*
X111649142Y-55284714D01*
X111839619Y-55284714D01*
X111934857Y-55332333D01*
X111506285Y-55903761D02*
X111601523Y-55951380D01*
X111839619Y-55951380D01*
X111934857Y-55903761D01*
X111982476Y-55808523D01*
X111982476Y-55713285D01*
X111934857Y-55618047D01*
X111839619Y-55570428D01*
X111601523Y-55570428D01*
X111506285Y-55522809D01*
X111030095Y-55951380D02*
X111030095Y-54951380D01*
X111030095Y-55332333D02*
X110934857Y-55284714D01*
X110744380Y-55284714D01*
X110649142Y-55332333D01*
X110601523Y-55379952D01*
X110553904Y-55475190D01*
X110553904Y-55760904D01*
X110601523Y-55856142D01*
X110649142Y-55903761D01*
X110744380Y-55951380D01*
X110934857Y-55951380D01*
X111030095Y-55903761D01*
X109982476Y-55951380D02*
X110077714Y-55903761D01*
X110125333Y-55808523D01*
X110125333Y-54951380D01*
X109220571Y-55903761D02*
X109315809Y-55951380D01*
X109506285Y-55951380D01*
X109601523Y-55903761D01*
X109649142Y-55808523D01*
X109649142Y-55427571D01*
X109601523Y-55332333D01*
X109506285Y-55284714D01*
X109315809Y-55284714D01*
X109220571Y-55332333D01*
X109172952Y-55427571D01*
X109172952Y-55522809D01*
X109649142Y-55618047D01*
X127857095Y-70003380D02*
X127857095Y-69003380D01*
X127476142Y-69003380D01*
X127380904Y-69051000D01*
X127333285Y-69098619D01*
X127285666Y-69193857D01*
X127285666Y-69336714D01*
X127333285Y-69431952D01*
X127380904Y-69479571D01*
X127476142Y-69527190D01*
X127857095Y-69527190D01*
X126285666Y-69908142D02*
X126333285Y-69955761D01*
X126476142Y-70003380D01*
X126571380Y-70003380D01*
X126714238Y-69955761D01*
X126809476Y-69860523D01*
X126857095Y-69765285D01*
X126904714Y-69574809D01*
X126904714Y-69431952D01*
X126857095Y-69241476D01*
X126809476Y-69146238D01*
X126714238Y-69051000D01*
X126571380Y-69003380D01*
X126476142Y-69003380D01*
X126333285Y-69051000D01*
X126285666Y-69098619D01*
X125714238Y-69431952D02*
X125809476Y-69384333D01*
X125857095Y-69336714D01*
X125904714Y-69241476D01*
X125904714Y-69193857D01*
X125857095Y-69098619D01*
X125809476Y-69051000D01*
X125714238Y-69003380D01*
X125523761Y-69003380D01*
X125428523Y-69051000D01*
X125380904Y-69098619D01*
X125333285Y-69193857D01*
X125333285Y-69241476D01*
X125380904Y-69336714D01*
X125428523Y-69384333D01*
X125523761Y-69431952D01*
X125714238Y-69431952D01*
X125809476Y-69479571D01*
X125857095Y-69527190D01*
X125904714Y-69622428D01*
X125904714Y-69812904D01*
X125857095Y-69908142D01*
X125809476Y-69955761D01*
X125714238Y-70003380D01*
X125523761Y-70003380D01*
X125428523Y-69955761D01*
X125380904Y-69908142D01*
X125333285Y-69812904D01*
X125333285Y-69622428D01*
X125380904Y-69527190D01*
X125428523Y-69479571D01*
X125523761Y-69431952D01*
X127857095Y-73223380D02*
X127857095Y-72223380D01*
X127476142Y-72223380D01*
X127380904Y-72271000D01*
X127333285Y-72318619D01*
X127285666Y-72413857D01*
X127285666Y-72556714D01*
X127333285Y-72651952D01*
X127380904Y-72699571D01*
X127476142Y-72747190D01*
X127857095Y-72747190D01*
X126285666Y-73128142D02*
X126333285Y-73175761D01*
X126476142Y-73223380D01*
X126571380Y-73223380D01*
X126714238Y-73175761D01*
X126809476Y-73080523D01*
X126857095Y-72985285D01*
X126904714Y-72794809D01*
X126904714Y-72651952D01*
X126857095Y-72461476D01*
X126809476Y-72366238D01*
X126714238Y-72271000D01*
X126571380Y-72223380D01*
X126476142Y-72223380D01*
X126333285Y-72271000D01*
X126285666Y-72318619D01*
X125428523Y-72223380D02*
X125619000Y-72223380D01*
X125714238Y-72271000D01*
X125761857Y-72318619D01*
X125857095Y-72461476D01*
X125904714Y-72651952D01*
X125904714Y-73032904D01*
X125857095Y-73128142D01*
X125809476Y-73175761D01*
X125714238Y-73223380D01*
X125523761Y-73223380D01*
X125428523Y-73175761D01*
X125380904Y-73128142D01*
X125333285Y-73032904D01*
X125333285Y-72794809D01*
X125380904Y-72699571D01*
X125428523Y-72651952D01*
X125523761Y-72604333D01*
X125714238Y-72604333D01*
X125809476Y-72651952D01*
X125857095Y-72699571D01*
X125904714Y-72794809D01*
X127857095Y-76443380D02*
X127857095Y-75443380D01*
X127476142Y-75443380D01*
X127380904Y-75491000D01*
X127333285Y-75538619D01*
X127285666Y-75633857D01*
X127285666Y-75776714D01*
X127333285Y-75871952D01*
X127380904Y-75919571D01*
X127476142Y-75967190D01*
X127857095Y-75967190D01*
X126285666Y-76348142D02*
X126333285Y-76395761D01*
X126476142Y-76443380D01*
X126571380Y-76443380D01*
X126714238Y-76395761D01*
X126809476Y-76300523D01*
X126857095Y-76205285D01*
X126904714Y-76014809D01*
X126904714Y-75871952D01*
X126857095Y-75681476D01*
X126809476Y-75586238D01*
X126714238Y-75491000D01*
X126571380Y-75443380D01*
X126476142Y-75443380D01*
X126333285Y-75491000D01*
X126285666Y-75538619D01*
X125380904Y-75443380D02*
X125857095Y-75443380D01*
X125904714Y-75919571D01*
X125857095Y-75871952D01*
X125761857Y-75824333D01*
X125523761Y-75824333D01*
X125428523Y-75871952D01*
X125380904Y-75919571D01*
X125333285Y-76014809D01*
X125333285Y-76252904D01*
X125380904Y-76348142D01*
X125428523Y-76395761D01*
X125523761Y-76443380D01*
X125761857Y-76443380D01*
X125857095Y-76395761D01*
X125904714Y-76348142D01*
X71572380Y-127666904D02*
X70572380Y-127666904D01*
X70572380Y-128047857D01*
X70620000Y-128143095D01*
X70667619Y-128190714D01*
X70762857Y-128238333D01*
X70905714Y-128238333D01*
X71000952Y-128190714D01*
X71048571Y-128143095D01*
X71096190Y-128047857D01*
X71096190Y-127666904D01*
X71477142Y-129238333D02*
X71524761Y-129190714D01*
X71572380Y-129047857D01*
X71572380Y-128952619D01*
X71524761Y-128809761D01*
X71429523Y-128714523D01*
X71334285Y-128666904D01*
X71143809Y-128619285D01*
X71000952Y-128619285D01*
X70810476Y-128666904D01*
X70715238Y-128714523D01*
X70620000Y-128809761D01*
X70572380Y-128952619D01*
X70572380Y-129047857D01*
X70620000Y-129190714D01*
X70667619Y-129238333D01*
X70572380Y-129857380D02*
X70572380Y-129952619D01*
X70620000Y-130047857D01*
X70667619Y-130095476D01*
X70762857Y-130143095D01*
X70953333Y-130190714D01*
X71191428Y-130190714D01*
X71381904Y-130143095D01*
X71477142Y-130095476D01*
X71524761Y-130047857D01*
X71572380Y-129952619D01*
X71572380Y-129857380D01*
X71524761Y-129762142D01*
X71477142Y-129714523D01*
X71381904Y-129666904D01*
X71191428Y-129619285D01*
X70953333Y-129619285D01*
X70762857Y-129666904D01*
X70667619Y-129714523D01*
X70620000Y-129762142D01*
X70572380Y-129857380D01*
X52538380Y-116300428D02*
X52538380Y-116919476D01*
X52919333Y-116586142D01*
X52919333Y-116729000D01*
X52966952Y-116824238D01*
X53014571Y-116871857D01*
X53109809Y-116919476D01*
X53347904Y-116919476D01*
X53443142Y-116871857D01*
X53490761Y-116824238D01*
X53538380Y-116729000D01*
X53538380Y-116443285D01*
X53490761Y-116348047D01*
X53443142Y-116300428D01*
X53443142Y-117348047D02*
X53490761Y-117395666D01*
X53538380Y-117348047D01*
X53490761Y-117300428D01*
X53443142Y-117348047D01*
X53538380Y-117348047D01*
X52538380Y-117729000D02*
X52538380Y-118348047D01*
X52919333Y-118014714D01*
X52919333Y-118157571D01*
X52966952Y-118252809D01*
X53014571Y-118300428D01*
X53109809Y-118348047D01*
X53347904Y-118348047D01*
X53443142Y-118300428D01*
X53490761Y-118252809D01*
X53538380Y-118157571D01*
X53538380Y-117871857D01*
X53490761Y-117776619D01*
X53443142Y-117729000D01*
X52871714Y-118681380D02*
X53538380Y-118919476D01*
X52871714Y-119157571D01*
X71548333Y-38282619D02*
X71500714Y-38235000D01*
X71405476Y-38187380D01*
X71167380Y-38187380D01*
X71072142Y-38235000D01*
X71024523Y-38282619D01*
X70976904Y-38377857D01*
X70976904Y-38473095D01*
X71024523Y-38615952D01*
X71595952Y-39187380D01*
X70976904Y-39187380D01*
X70119761Y-38520714D02*
X70119761Y-39187380D01*
X70357857Y-38139761D02*
X70595952Y-38854047D01*
X69976904Y-38854047D01*
X69738809Y-38187380D02*
X69405476Y-39187380D01*
X69072142Y-38187380D01*
X67976904Y-39187380D02*
X67976904Y-38187380D01*
X67500714Y-39187380D02*
X67500714Y-38187380D01*
X66929285Y-39187380D01*
X66929285Y-38187380D01*
X117855571Y-60936142D02*
X117903190Y-60983761D01*
X118046047Y-61031380D01*
X118141285Y-61031380D01*
X118284142Y-60983761D01*
X118379380Y-60888523D01*
X118427000Y-60793285D01*
X118474619Y-60602809D01*
X118474619Y-60459952D01*
X118427000Y-60269476D01*
X118379380Y-60174238D01*
X118284142Y-60079000D01*
X118141285Y-60031380D01*
X118046047Y-60031380D01*
X117903190Y-60079000D01*
X117855571Y-60126619D01*
X117474619Y-60745666D02*
X116998428Y-60745666D01*
X117569857Y-61031380D02*
X117236523Y-60031380D01*
X116903190Y-61031380D01*
X116569857Y-61031380D02*
X116569857Y-60031380D01*
X115998428Y-61031380D01*
X115998428Y-60031380D01*
X114998428Y-61031380D02*
X115569857Y-61031380D01*
X115284142Y-61031380D02*
X115284142Y-60031380D01*
X115379380Y-60174238D01*
X115474619Y-60269476D01*
X115569857Y-60317095D01*
X113284142Y-61031380D02*
X113855571Y-61031380D01*
X113569857Y-61031380D02*
X113569857Y-60031380D01*
X113665095Y-60174238D01*
X113760333Y-60269476D01*
X113855571Y-60317095D01*
X112903190Y-60126619D02*
X112855571Y-60079000D01*
X112760333Y-60031380D01*
X112522238Y-60031380D01*
X112427000Y-60079000D01*
X112379380Y-60126619D01*
X112331761Y-60221857D01*
X112331761Y-60317095D01*
X112379380Y-60459952D01*
X112950809Y-61031380D01*
X112331761Y-61031380D01*
X111712714Y-60031380D02*
X111617476Y-60031380D01*
X111522238Y-60079000D01*
X111474619Y-60126619D01*
X111427000Y-60221857D01*
X111379380Y-60412333D01*
X111379380Y-60650428D01*
X111427000Y-60840904D01*
X111474619Y-60936142D01*
X111522238Y-60983761D01*
X111617476Y-61031380D01*
X111712714Y-61031380D01*
X111807952Y-60983761D01*
X111855571Y-60936142D01*
X111903190Y-60840904D01*
X111950809Y-60650428D01*
X111950809Y-60412333D01*
X111903190Y-60221857D01*
X111855571Y-60126619D01*
X111807952Y-60079000D01*
X111712714Y-60031380D01*
X110379380Y-61031380D02*
X110712714Y-60555190D01*
X110950809Y-61031380D02*
X110950809Y-60031380D01*
X110569857Y-60031380D01*
X110474619Y-60079000D01*
X110427000Y-60126619D01*
X110379380Y-60221857D01*
X110379380Y-60364714D01*
X110427000Y-60459952D01*
X110474619Y-60507571D01*
X110569857Y-60555190D01*
X110950809Y-60555190D01*
X104878047Y-46839142D02*
X104925666Y-46886761D01*
X105068523Y-46934380D01*
X105163761Y-46934380D01*
X105306619Y-46886761D01*
X105401857Y-46791523D01*
X105449476Y-46696285D01*
X105497095Y-46505809D01*
X105497095Y-46362952D01*
X105449476Y-46172476D01*
X105401857Y-46077238D01*
X105306619Y-45982000D01*
X105163761Y-45934380D01*
X105068523Y-45934380D01*
X104925666Y-45982000D01*
X104878047Y-46029619D01*
X104497095Y-46648666D02*
X104020904Y-46648666D01*
X104592333Y-46934380D02*
X104259000Y-45934380D01*
X103925666Y-46934380D01*
X103592333Y-46934380D02*
X103592333Y-45934380D01*
X103020904Y-46934380D01*
X103020904Y-45934380D01*
X102592333Y-46029619D02*
X102544714Y-45982000D01*
X102449476Y-45934380D01*
X102211380Y-45934380D01*
X102116142Y-45982000D01*
X102068523Y-46029619D01*
X102020904Y-46124857D01*
X102020904Y-46220095D01*
X102068523Y-46362952D01*
X102639952Y-46934380D01*
X102020904Y-46934380D01*
X87486904Y-39187380D02*
X87296428Y-39187380D01*
X87201190Y-39139761D01*
X87153571Y-39092142D01*
X87058333Y-38949285D01*
X87010714Y-38758809D01*
X87010714Y-38377857D01*
X87058333Y-38282619D01*
X87105952Y-38235000D01*
X87201190Y-38187380D01*
X87391666Y-38187380D01*
X87486904Y-38235000D01*
X87534523Y-38282619D01*
X87582142Y-38377857D01*
X87582142Y-38615952D01*
X87534523Y-38711190D01*
X87486904Y-38758809D01*
X87391666Y-38806428D01*
X87201190Y-38806428D01*
X87105952Y-38758809D01*
X87058333Y-38711190D01*
X87010714Y-38615952D01*
X86725000Y-38187380D02*
X86391666Y-39187380D01*
X86058333Y-38187380D01*
X84963095Y-39187380D02*
X84963095Y-38187380D01*
X84486904Y-39187380D02*
X84486904Y-38187380D01*
X83915476Y-39187380D01*
X83915476Y-38187380D01*
X102306380Y-127793904D02*
X101306380Y-127793904D01*
X101306380Y-128174857D01*
X101354000Y-128270095D01*
X101401619Y-128317714D01*
X101496857Y-128365333D01*
X101639714Y-128365333D01*
X101734952Y-128317714D01*
X101782571Y-128270095D01*
X101830190Y-128174857D01*
X101830190Y-127793904D01*
X101782571Y-129127238D02*
X101830190Y-129270095D01*
X101877809Y-129317714D01*
X101973047Y-129365333D01*
X102115904Y-129365333D01*
X102211142Y-129317714D01*
X102258761Y-129270095D01*
X102306380Y-129174857D01*
X102306380Y-128793904D01*
X101306380Y-128793904D01*
X101306380Y-129127238D01*
X101354000Y-129222476D01*
X101401619Y-129270095D01*
X101496857Y-129317714D01*
X101592095Y-129317714D01*
X101687333Y-129270095D01*
X101734952Y-129222476D01*
X101782571Y-129127238D01*
X101782571Y-128793904D01*
X101306380Y-129698666D02*
X101306380Y-130317714D01*
X101687333Y-129984380D01*
X101687333Y-130127238D01*
X101734952Y-130222476D01*
X101782571Y-130270095D01*
X101877809Y-130317714D01*
X102115904Y-130317714D01*
X102211142Y-130270095D01*
X102258761Y-130222476D01*
X102306380Y-130127238D01*
X102306380Y-129841523D01*
X102258761Y-129746285D01*
X102211142Y-129698666D01*
X72953619Y-122142095D02*
X73953619Y-122142095D01*
X73953619Y-121761142D01*
X73906000Y-121665904D01*
X73858380Y-121618285D01*
X73763142Y-121570666D01*
X73620285Y-121570666D01*
X73525047Y-121618285D01*
X73477428Y-121665904D01*
X73429809Y-121761142D01*
X73429809Y-122142095D01*
X73477428Y-120808761D02*
X73429809Y-120665904D01*
X73382190Y-120618285D01*
X73286952Y-120570666D01*
X73144095Y-120570666D01*
X73048857Y-120618285D01*
X73001238Y-120665904D01*
X72953619Y-120761142D01*
X72953619Y-121142095D01*
X73953619Y-121142095D01*
X73953619Y-120808761D01*
X73906000Y-120713523D01*
X73858380Y-120665904D01*
X73763142Y-120618285D01*
X73667904Y-120618285D01*
X73572666Y-120665904D01*
X73525047Y-120713523D01*
X73477428Y-120808761D01*
X73477428Y-121142095D01*
X73953619Y-119951619D02*
X73953619Y-119856380D01*
X73906000Y-119761142D01*
X73858380Y-119713523D01*
X73763142Y-119665904D01*
X73572666Y-119618285D01*
X73334571Y-119618285D01*
X73144095Y-119665904D01*
X73048857Y-119713523D01*
X73001238Y-119761142D01*
X72953619Y-119856380D01*
X72953619Y-119951619D01*
X73001238Y-120046857D01*
X73048857Y-120094476D01*
X73144095Y-120142095D01*
X73334571Y-120189714D01*
X73572666Y-120189714D01*
X73763142Y-120142095D01*
X73858380Y-120094476D01*
X73906000Y-120046857D01*
X73953619Y-119951619D01*
X58618380Y-116689333D02*
X57618380Y-116689333D01*
X57618380Y-117070285D01*
X57666000Y-117165523D01*
X57713619Y-117213142D01*
X57808857Y-117260761D01*
X57951714Y-117260761D01*
X58046952Y-117213142D01*
X58094571Y-117165523D01*
X58142190Y-117070285D01*
X58142190Y-116689333D01*
X58332666Y-117641714D02*
X58332666Y-118117904D01*
X58618380Y-117546476D02*
X57618380Y-117879809D01*
X58618380Y-118213142D01*
X58618380Y-119070285D02*
X58618380Y-118498857D01*
X58618380Y-118784571D02*
X57618380Y-118784571D01*
X57761238Y-118689333D01*
X57856476Y-118594095D01*
X57904095Y-118498857D01*
X98353619Y-122142095D02*
X99353619Y-122142095D01*
X99353619Y-121761142D01*
X99306000Y-121665904D01*
X99258380Y-121618285D01*
X99163142Y-121570666D01*
X99020285Y-121570666D01*
X98925047Y-121618285D01*
X98877428Y-121665904D01*
X98829809Y-121761142D01*
X98829809Y-122142095D01*
X98877428Y-120808761D02*
X98829809Y-120665904D01*
X98782190Y-120618285D01*
X98686952Y-120570666D01*
X98544095Y-120570666D01*
X98448857Y-120618285D01*
X98401238Y-120665904D01*
X98353619Y-120761142D01*
X98353619Y-121142095D01*
X99353619Y-121142095D01*
X99353619Y-120808761D01*
X99306000Y-120713523D01*
X99258380Y-120665904D01*
X99163142Y-120618285D01*
X99067904Y-120618285D01*
X98972666Y-120665904D01*
X98925047Y-120713523D01*
X98877428Y-120808761D01*
X98877428Y-121142095D01*
X99258380Y-120189714D02*
X99306000Y-120142095D01*
X99353619Y-120046857D01*
X99353619Y-119808761D01*
X99306000Y-119713523D01*
X99258380Y-119665904D01*
X99163142Y-119618285D01*
X99067904Y-119618285D01*
X98925047Y-119665904D01*
X98353619Y-120237333D01*
X98353619Y-119618285D01*
X117356000Y-116586095D02*
X117308380Y-116490857D01*
X117308380Y-116348000D01*
X117356000Y-116205142D01*
X117451238Y-116109904D01*
X117546476Y-116062285D01*
X117736952Y-116014666D01*
X117879809Y-116014666D01*
X118070285Y-116062285D01*
X118165523Y-116109904D01*
X118260761Y-116205142D01*
X118308380Y-116348000D01*
X118308380Y-116443238D01*
X118260761Y-116586095D01*
X118213142Y-116633714D01*
X117879809Y-116633714D01*
X117879809Y-116443238D01*
X118308380Y-117062285D02*
X117308380Y-117062285D01*
X118308380Y-117633714D01*
X117308380Y-117633714D01*
X118308380Y-118109904D02*
X117308380Y-118109904D01*
X117308380Y-118348000D01*
X117356000Y-118490857D01*
X117451238Y-118586095D01*
X117546476Y-118633714D01*
X117736952Y-118681333D01*
X117879809Y-118681333D01*
X118070285Y-118633714D01*
X118165523Y-118586095D01*
X118260761Y-118490857D01*
X118308380Y-118348000D01*
X118308380Y-118109904D01*
G36*
X99471188Y-92012458D02*
G01*
X99222399Y-92294283D01*
X98859169Y-92671972D01*
X98374783Y-93153096D01*
X98259337Y-93265832D01*
X97879821Y-93633379D01*
X97541054Y-93956943D01*
X97262967Y-94217771D01*
X97065491Y-94397108D01*
X96968557Y-94476203D01*
X96880375Y-94504867D01*
X96772145Y-94488754D01*
X96630923Y-94416153D01*
X96443032Y-94275772D01*
X96194795Y-94056319D01*
X95872535Y-93746500D01*
X95462574Y-93335024D01*
X94951237Y-92810598D01*
X94808092Y-92663056D01*
X94376988Y-92222086D01*
X94043228Y-91888355D01*
X93792428Y-91649209D01*
X93610203Y-91491995D01*
X93482168Y-91404060D01*
X93393941Y-91372748D01*
X93331135Y-91385408D01*
X93310921Y-91399646D01*
X93177275Y-91516661D01*
X92946230Y-91733217D01*
X92633965Y-92033658D01*
X92256658Y-92402327D01*
X91830487Y-92823568D01*
X91371631Y-93281723D01*
X89567595Y-95091857D01*
X91223464Y-96711870D01*
X91249921Y-96737765D01*
X91682652Y-97164751D01*
X92071765Y-97554933D01*
X92401624Y-97892145D01*
X92656595Y-98160217D01*
X92821043Y-98342981D01*
X92879334Y-98424268D01*
X92864266Y-98454064D01*
X92754506Y-98594924D01*
X92552362Y-98829589D01*
X92274406Y-99139433D01*
X91937209Y-99505832D01*
X91557340Y-99910160D01*
X91180252Y-100304964D01*
X90794625Y-100697515D01*
X90494277Y-100983325D01*
X90263775Y-101173213D01*
X90087684Y-101277997D01*
X89950572Y-101308493D01*
X89837004Y-101275521D01*
X89731548Y-101189897D01*
X89721451Y-101179650D01*
X89613592Y-101070302D01*
X89396072Y-100849830D01*
X89075963Y-100525399D01*
X88660334Y-100104176D01*
X88156257Y-99593325D01*
X87570802Y-99000012D01*
X86911041Y-98331403D01*
X86184044Y-97594664D01*
X85396881Y-96796961D01*
X84556625Y-95945458D01*
X83670346Y-95047323D01*
X82745114Y-94109719D01*
X81788000Y-93139814D01*
X81448964Y-92796183D01*
X80255979Y-91585864D01*
X79178346Y-90490551D01*
X78212536Y-89506584D01*
X77355020Y-88630301D01*
X76602269Y-87858039D01*
X75950753Y-87186139D01*
X75396943Y-86610937D01*
X74937309Y-86128773D01*
X74568323Y-85735984D01*
X74286455Y-85428909D01*
X74088176Y-85203887D01*
X73969956Y-85057256D01*
X73928267Y-84985353D01*
X73927061Y-84947747D01*
X74480417Y-84947747D01*
X74768709Y-85281331D01*
X74843465Y-85361500D01*
X75034932Y-85560286D01*
X75331500Y-85865136D01*
X75725614Y-86268367D01*
X76209720Y-86762300D01*
X76776263Y-87339250D01*
X77417687Y-87991537D01*
X78126439Y-88711478D01*
X78894963Y-89491391D01*
X79715705Y-90323594D01*
X80581110Y-91200405D01*
X81483624Y-92114142D01*
X82415690Y-93057124D01*
X83246581Y-93897162D01*
X84147190Y-94807030D01*
X85009725Y-95677754D01*
X85826834Y-96501938D01*
X86591159Y-97272188D01*
X87295347Y-97981108D01*
X87932041Y-98621304D01*
X88493888Y-99185380D01*
X88973531Y-99665941D01*
X89363615Y-100055594D01*
X89656786Y-100346941D01*
X89845689Y-100532588D01*
X89922967Y-100605141D01*
X89961781Y-100626988D01*
X90041718Y-100630993D01*
X90151444Y-100574959D01*
X90312206Y-100442772D01*
X90545251Y-100218315D01*
X90871827Y-99885475D01*
X90903208Y-99853079D01*
X91228540Y-99514247D01*
X91534813Y-99190438D01*
X91788874Y-98916959D01*
X91957571Y-98729117D01*
X92243041Y-98398235D01*
X90560203Y-96773405D01*
X90515385Y-96730094D01*
X90081140Y-96306359D01*
X89693186Y-95920600D01*
X89366802Y-95588565D01*
X89117265Y-95326002D01*
X88959855Y-95148661D01*
X88909849Y-95072287D01*
X88969355Y-95003904D01*
X89136862Y-94829197D01*
X89398357Y-94562831D01*
X89740065Y-94218676D01*
X90148212Y-93810600D01*
X90609025Y-93352474D01*
X91108730Y-92858166D01*
X91398374Y-92573419D01*
X91942225Y-92045320D01*
X92417676Y-91592723D01*
X92814764Y-91224776D01*
X93123530Y-90950629D01*
X93334012Y-90779432D01*
X93436249Y-90720333D01*
X93486442Y-90741198D01*
X93657191Y-90867464D01*
X93924697Y-91098209D01*
X94276360Y-91422008D01*
X94699580Y-91827438D01*
X95181759Y-92303075D01*
X95510270Y-92630959D01*
X95916310Y-93033806D01*
X96228236Y-93337386D01*
X96461286Y-93554178D01*
X96630698Y-93696663D01*
X96751710Y-93777321D01*
X96839560Y-93808629D01*
X96909485Y-93803069D01*
X96976724Y-93773119D01*
X97037209Y-93731740D01*
X97222480Y-93575967D01*
X97485054Y-93335458D01*
X97799206Y-93034056D01*
X98139208Y-92695610D01*
X99091114Y-91730798D01*
X97466891Y-90098788D01*
X97114518Y-89741575D01*
X96689038Y-89300237D01*
X96336969Y-88922763D01*
X96070453Y-88622545D01*
X95901638Y-88412978D01*
X95842667Y-88307458D01*
X95868279Y-88250376D01*
X96000400Y-88074878D01*
X96233897Y-87804788D01*
X96556304Y-87453898D01*
X96955155Y-87035995D01*
X97417983Y-86564872D01*
X98993300Y-84981606D01*
X96687586Y-82653114D01*
X95156633Y-84231390D01*
X94752193Y-84646226D01*
X94348129Y-85053419D01*
X94033959Y-85358754D01*
X93795872Y-85574639D01*
X93620061Y-85713481D01*
X93492715Y-85787688D01*
X93400025Y-85809666D01*
X93329507Y-85794126D01*
X93214268Y-85731098D01*
X93051869Y-85609648D01*
X92830578Y-85419197D01*
X92538662Y-85149170D01*
X92164391Y-84788990D01*
X91696032Y-84328080D01*
X91121852Y-83755864D01*
X91038744Y-83672615D01*
X90465168Y-83092523D01*
X89980708Y-82592295D01*
X89592130Y-82179247D01*
X89306198Y-81860696D01*
X89129677Y-81643957D01*
X89069334Y-81536344D01*
X89074405Y-81515012D01*
X89168105Y-81369906D01*
X89372454Y-81122921D01*
X89677613Y-80785051D01*
X90073742Y-80367292D01*
X90551000Y-79880641D01*
X90865894Y-79561369D01*
X91242596Y-79171883D01*
X91563875Y-78831064D01*
X91813481Y-78556505D01*
X91975162Y-78365801D01*
X92032667Y-78276544D01*
X92031858Y-78271451D01*
X91963630Y-78168812D01*
X91801908Y-77977176D01*
X91569777Y-77720318D01*
X91290320Y-77422012D01*
X90986623Y-77106031D01*
X90681771Y-76796148D01*
X90398847Y-76516138D01*
X90160936Y-76289774D01*
X89991123Y-76140829D01*
X89912493Y-76093079D01*
X89865840Y-76134654D01*
X89714654Y-76284054D01*
X89475850Y-76525976D01*
X89165838Y-76843664D01*
X88801029Y-77220368D01*
X88397834Y-77639333D01*
X88083198Y-77964130D01*
X87696943Y-78353974D01*
X87355739Y-78688454D01*
X87077323Y-78950571D01*
X86879436Y-79123327D01*
X86779815Y-79189727D01*
X86720250Y-79175499D01*
X86535678Y-79056114D01*
X86243340Y-78815692D01*
X85841364Y-78452655D01*
X85327879Y-77965423D01*
X85239013Y-77879702D01*
X84834482Y-77490090D01*
X84456581Y-77127043D01*
X84129087Y-76813343D01*
X83875776Y-76571776D01*
X83720428Y-76425126D01*
X83409188Y-76135527D01*
X83189659Y-76308208D01*
X83142824Y-76347094D01*
X82960567Y-76509236D01*
X82696537Y-76752188D01*
X82378520Y-77050228D01*
X82034302Y-77377637D01*
X81098474Y-78274384D01*
X82670904Y-79858318D01*
X83066785Y-80261333D01*
X83448284Y-80658651D01*
X83772461Y-81005721D01*
X84023542Y-81285340D01*
X84185757Y-81480306D01*
X84243334Y-81573415D01*
X84231794Y-81598991D01*
X84125397Y-81734369D01*
X83921109Y-81963512D01*
X83635475Y-82269804D01*
X83285039Y-82636632D01*
X82886346Y-83047378D01*
X82455941Y-83485430D01*
X82010368Y-83934171D01*
X81566172Y-84376986D01*
X81139898Y-84797261D01*
X80748089Y-85178380D01*
X80407292Y-85503728D01*
X80134051Y-85756691D01*
X79944909Y-85920653D01*
X79856413Y-85979000D01*
X79778751Y-85928060D01*
X79597286Y-85770568D01*
X79330557Y-85522212D01*
X78995346Y-85198946D01*
X78608433Y-84816724D01*
X78186600Y-84391500D01*
X76626819Y-82804000D01*
X75553618Y-83875873D01*
X74480417Y-84947747D01*
X73927061Y-84947747D01*
X73926919Y-84943311D01*
X73954213Y-84842241D01*
X74033735Y-84708581D01*
X74179524Y-84525450D01*
X74405618Y-84275970D01*
X74726055Y-83943259D01*
X75154875Y-83510436D01*
X75511114Y-83158442D01*
X75912977Y-82776255D01*
X76231807Y-82491995D01*
X76457288Y-82314765D01*
X76579106Y-82253666D01*
X76597541Y-82257391D01*
X76741849Y-82347886D01*
X76991435Y-82554142D01*
X77338585Y-82869214D01*
X77775588Y-83286162D01*
X78294733Y-83798043D01*
X79840804Y-85342420D01*
X81703402Y-83481265D01*
X81920409Y-83263839D01*
X82362855Y-82816706D01*
X82757348Y-82412893D01*
X83089399Y-82067550D01*
X83344518Y-81795827D01*
X83508215Y-81612874D01*
X83566000Y-81533839D01*
X83524851Y-81472847D01*
X83378168Y-81304860D01*
X83140492Y-81049175D01*
X82827871Y-80722731D01*
X82456357Y-80342470D01*
X82042000Y-79925333D01*
X81694564Y-79574609D01*
X81314055Y-79181136D01*
X80989999Y-78835659D01*
X80738541Y-78555784D01*
X80575826Y-78359120D01*
X80518000Y-78263274D01*
X80528078Y-78237650D01*
X80631785Y-78103069D01*
X80830632Y-77883359D01*
X81103329Y-77599155D01*
X81428586Y-77271098D01*
X81785115Y-76919823D01*
X82151626Y-76565969D01*
X82506831Y-76230174D01*
X82829439Y-75933075D01*
X83098163Y-75695310D01*
X83291711Y-75537517D01*
X83388796Y-75480333D01*
X83471050Y-75534736D01*
X83658374Y-75692335D01*
X83933306Y-75937767D01*
X84278901Y-76255645D01*
X84678215Y-76630585D01*
X85114306Y-77047198D01*
X86741000Y-78614064D01*
X88318251Y-76983698D01*
X89895501Y-75353333D01*
X90096251Y-75522666D01*
X90100664Y-75526431D01*
X90228499Y-75645345D01*
X90451346Y-75861801D01*
X90747019Y-76153891D01*
X91093329Y-76499704D01*
X91468091Y-76877333D01*
X91538887Y-76949119D01*
X91963763Y-77387631D01*
X92275877Y-77726615D01*
X92485994Y-77978863D01*
X92604876Y-78157171D01*
X92643286Y-78274333D01*
X92640690Y-78303210D01*
X92594653Y-78413826D01*
X92482394Y-78574943D01*
X92292451Y-78799627D01*
X92013365Y-79100940D01*
X91633675Y-79491947D01*
X91141918Y-79985713D01*
X89636444Y-81485426D01*
X90909967Y-82822046D01*
X91022333Y-82939857D01*
X91690094Y-83633885D01*
X92248439Y-84202677D01*
X92696932Y-84645807D01*
X93035135Y-84962854D01*
X93262613Y-85153392D01*
X93378928Y-85217000D01*
X93447106Y-85170026D01*
X93620142Y-85016465D01*
X93879361Y-84771706D01*
X94208085Y-84451791D01*
X94589636Y-84072764D01*
X95007337Y-83650666D01*
X95381422Y-83273613D01*
X95772668Y-82888452D01*
X96115322Y-82560826D01*
X96392175Y-82306853D01*
X96586019Y-82142649D01*
X96679647Y-82084333D01*
X96712036Y-82095435D01*
X96860393Y-82201170D01*
X97093521Y-82401641D01*
X97390580Y-82675819D01*
X97730733Y-83002674D01*
X98093141Y-83361179D01*
X98456966Y-83730302D01*
X98801370Y-84089014D01*
X99105513Y-84416287D01*
X99348558Y-84691090D01*
X99509667Y-84892394D01*
X99568000Y-84999170D01*
X99559365Y-85028479D01*
X99455643Y-85181907D01*
X99242366Y-85436413D01*
X98929413Y-85780994D01*
X98526665Y-86204648D01*
X98044000Y-86696372D01*
X97689115Y-87055422D01*
X97310811Y-87443718D01*
X96988782Y-87780350D01*
X96738992Y-88048402D01*
X96577410Y-88230957D01*
X96520000Y-88311097D01*
X96569368Y-88380962D01*
X96724274Y-88555817D01*
X96969245Y-88817620D01*
X97288459Y-89149733D01*
X97666096Y-89535517D01*
X98086334Y-89958333D01*
X98383135Y-90256352D01*
X98856514Y-90740985D01*
X99214026Y-91122089D01*
X99461802Y-91406533D01*
X99605973Y-91601183D01*
X99652667Y-91712905D01*
X99645847Y-91730798D01*
X99612253Y-91818929D01*
X99471188Y-92012458D01*
G37*
G36*
X58774855Y-87937066D02*
G01*
X58793543Y-88074780D01*
X58810036Y-88356511D01*
X58823799Y-88763630D01*
X58834294Y-89277505D01*
X58840984Y-89879505D01*
X58843334Y-90551000D01*
X58840874Y-91295007D01*
X58833530Y-91941882D01*
X58821649Y-92464696D01*
X58805581Y-92852139D01*
X58785674Y-93092899D01*
X58762280Y-93175666D01*
X58759337Y-93173248D01*
X58741730Y-93066510D01*
X58724015Y-92819756D01*
X58706680Y-92458047D01*
X58690216Y-92006447D01*
X58675110Y-91490016D01*
X58661853Y-90933818D01*
X58650933Y-90362914D01*
X58642840Y-89802368D01*
X58638062Y-89277240D01*
X58637090Y-88812594D01*
X58640411Y-88433491D01*
X58648515Y-88164995D01*
X58661892Y-88032166D01*
X58678116Y-87993630D01*
X58767726Y-87926333D01*
X58774855Y-87937066D01*
G37*
G36*
X71895415Y-105032320D02*
G01*
X71970556Y-105120933D01*
X72032129Y-105261288D01*
X72019729Y-105378942D01*
X71885870Y-105456656D01*
X71606834Y-105520484D01*
X71433671Y-105552064D01*
X71215399Y-105591867D01*
X71107116Y-105611608D01*
X71104164Y-105611791D01*
X71039654Y-105539892D01*
X70963354Y-105367666D01*
X70943983Y-105309274D01*
X70917845Y-105155757D01*
X70976238Y-105108619D01*
X71027959Y-105103729D01*
X71223795Y-105077269D01*
X71483723Y-105036785D01*
X71532529Y-105028945D01*
X71766467Y-105004606D01*
X71895415Y-105032320D01*
G37*
G36*
X64706008Y-94625661D02*
G01*
X64822259Y-94809784D01*
X64906721Y-95070533D01*
X64939334Y-95367070D01*
X64936644Y-95452064D01*
X64919000Y-95552539D01*
X64873832Y-95659263D01*
X64788653Y-95785394D01*
X64650974Y-95944090D01*
X64448307Y-96148510D01*
X64168164Y-96411813D01*
X63798057Y-96747157D01*
X63325499Y-97167700D01*
X62738000Y-97686601D01*
X62475492Y-97916561D01*
X62235281Y-98123627D01*
X62070240Y-98261943D01*
X62006065Y-98309636D01*
X62000172Y-98299366D01*
X61948034Y-98183554D01*
X61863468Y-97983489D01*
X61733140Y-97668979D01*
X62426070Y-97103443D01*
X62498494Y-97044441D01*
X62871852Y-96741093D01*
X63115777Y-96531659D01*
X63227824Y-96400178D01*
X63205551Y-96330686D01*
X63046514Y-96307221D01*
X62748271Y-96313820D01*
X62308377Y-96334521D01*
X61243753Y-96381205D01*
X61144210Y-96105924D01*
X61135209Y-96080806D01*
X61070973Y-95885371D01*
X61044667Y-95775109D01*
X61107234Y-95758265D01*
X61314152Y-95739216D01*
X61639655Y-95721617D01*
X62056756Y-95706889D01*
X62538471Y-95696453D01*
X64032275Y-95673333D01*
X64204354Y-95442707D01*
X64291255Y-95310776D01*
X64332865Y-95140496D01*
X64284808Y-94913540D01*
X64246385Y-94774228D01*
X64239806Y-94648333D01*
X64305334Y-94615000D01*
X64361291Y-94610826D01*
X64545686Y-94565804D01*
X64578033Y-94559000D01*
X64706008Y-94625661D01*
G37*
G36*
X111904373Y-90546608D02*
G01*
X111662555Y-90933618D01*
X111597026Y-91002470D01*
X111361342Y-91193606D01*
X111137565Y-91309879D01*
X110983581Y-91344086D01*
X110577442Y-91359975D01*
X110142851Y-91301196D01*
X109760385Y-91175604D01*
X109681959Y-91135166D01*
X109375030Y-90878211D01*
X109194833Y-90517420D01*
X109135967Y-90043000D01*
X109136319Y-90003788D01*
X109209183Y-89527538D01*
X109405500Y-89157748D01*
X109720387Y-88903936D01*
X109974262Y-88772653D01*
X110032420Y-89082657D01*
X110056184Y-89273018D01*
X110013792Y-89422279D01*
X109866955Y-89555559D01*
X109732230Y-89691865D01*
X109636677Y-89951597D01*
X109681396Y-90224352D01*
X109866419Y-90460188D01*
X109943946Y-90519029D01*
X110124176Y-90619596D01*
X110239913Y-90593926D01*
X110311073Y-90427675D01*
X110322332Y-90349916D01*
X110744000Y-90349916D01*
X110751246Y-90496588D01*
X110804841Y-90609058D01*
X110939485Y-90635666D01*
X111065599Y-90622826D01*
X111305250Y-90502807D01*
X111443009Y-90291238D01*
X111459490Y-90030798D01*
X111335308Y-89764168D01*
X111142009Y-89577015D01*
X110976307Y-89542065D01*
X110850993Y-89662942D01*
X110771685Y-89934081D01*
X110744000Y-90349916D01*
X110322332Y-90349916D01*
X110357577Y-90106500D01*
X110384679Y-89835744D01*
X110430199Y-89395604D01*
X110471700Y-89091555D01*
X110520543Y-88902133D01*
X110588087Y-88805871D01*
X110685694Y-88781303D01*
X110824725Y-88806966D01*
X111016538Y-88861392D01*
X111042838Y-88868943D01*
X111459355Y-89067916D01*
X111763329Y-89365841D01*
X111945198Y-89732047D01*
X111982339Y-90030798D01*
X111995400Y-90135860D01*
X111904373Y-90546608D01*
G37*
G36*
X78783836Y-92355692D02*
G01*
X78544215Y-92632638D01*
X78239335Y-92950743D01*
X77892154Y-93287783D01*
X77525625Y-93621536D01*
X77162705Y-93929781D01*
X76826350Y-94190295D01*
X76539515Y-94380857D01*
X76533948Y-94384090D01*
X76113544Y-94596503D01*
X75589660Y-94815688D01*
X75024548Y-95019199D01*
X74480458Y-95184592D01*
X74019640Y-95289421D01*
X73277558Y-95368827D01*
X72252651Y-95334589D01*
X71229954Y-95138227D01*
X70224456Y-94782938D01*
X69251146Y-94271921D01*
X69116701Y-94186627D01*
X68630022Y-93840127D01*
X68174628Y-93460737D01*
X67769113Y-93069095D01*
X67432069Y-92685840D01*
X67182089Y-92331608D01*
X67037766Y-92027040D01*
X67029394Y-91929333D01*
X67670587Y-91929333D01*
X67728345Y-92113582D01*
X67885076Y-92321841D01*
X68138485Y-92581930D01*
X68486279Y-92921666D01*
X68943689Y-93339242D01*
X69685581Y-93873979D01*
X70485758Y-94275577D01*
X71383166Y-94566144D01*
X71858107Y-94668067D01*
X72885704Y-94766287D01*
X73901552Y-94698944D01*
X74892824Y-94468518D01*
X75846693Y-94077490D01*
X76750334Y-93528339D01*
X76844636Y-93457827D01*
X77133419Y-93222914D01*
X77464604Y-92934392D01*
X77783659Y-92639188D01*
X78393651Y-92053832D01*
X77364970Y-90966468D01*
X77075624Y-90663604D01*
X76763175Y-90343785D01*
X76502899Y-90085280D01*
X76315871Y-89908959D01*
X76223166Y-89835693D01*
X76159360Y-89850376D01*
X75986750Y-89960100D01*
X75743201Y-90155275D01*
X75456521Y-90414892D01*
X75081689Y-90749425D01*
X74446770Y-91203656D01*
X73824140Y-91497510D01*
X73201088Y-91634704D01*
X72564906Y-91618952D01*
X71902885Y-91453972D01*
X71492571Y-91291060D01*
X70962328Y-90991980D01*
X70530443Y-90610442D01*
X70155292Y-90114543D01*
X69788483Y-89541216D01*
X68671348Y-90677530D01*
X68475169Y-90876054D01*
X68114093Y-91242454D01*
X67861167Y-91521588D01*
X67714097Y-91741275D01*
X67670587Y-91929333D01*
X67029394Y-91929333D01*
X67017692Y-91792772D01*
X67043756Y-91738723D01*
X67173500Y-91564316D01*
X67391349Y-91312411D01*
X67676955Y-91003150D01*
X68009966Y-90656677D01*
X68370034Y-90293133D01*
X68736808Y-89932662D01*
X69089938Y-89595406D01*
X69409076Y-89301508D01*
X69673869Y-89071110D01*
X69863970Y-88924356D01*
X69959028Y-88881387D01*
X70054026Y-88965159D01*
X70201410Y-89158799D01*
X70362614Y-89416062D01*
X70698108Y-89915972D01*
X71200164Y-90426886D01*
X71784806Y-90792472D01*
X71961172Y-90870275D01*
X72240292Y-90960659D01*
X72542484Y-91003991D01*
X72940334Y-91014198D01*
X73029175Y-91013196D01*
X73393210Y-90988059D01*
X73718441Y-90917828D01*
X74036169Y-90787173D01*
X74377692Y-90580763D01*
X74774311Y-90283268D01*
X75257324Y-89879359D01*
X75269072Y-89869254D01*
X75585248Y-89607571D01*
X75865745Y-89393648D01*
X76080478Y-89249297D01*
X76199361Y-89196333D01*
X76205777Y-89197008D01*
X76325403Y-89268076D01*
X76535115Y-89440993D01*
X76813706Y-89694188D01*
X77139966Y-90006091D01*
X77492686Y-90355131D01*
X77850657Y-90719738D01*
X78192671Y-91078341D01*
X78497518Y-91409370D01*
X78743990Y-91691254D01*
X78910878Y-91902423D01*
X78976972Y-92021305D01*
X78965738Y-92053832D01*
X78935243Y-92142125D01*
X78783836Y-92355692D01*
G37*
G36*
X108010078Y-74476729D02*
G01*
X107837010Y-74758385D01*
X107545208Y-75065863D01*
X107201342Y-75325328D01*
X106862764Y-75486312D01*
X106820719Y-75498361D01*
X106379244Y-75548154D01*
X105994739Y-75439006D01*
X105662866Y-75169772D01*
X105661620Y-75168353D01*
X105493003Y-74948258D01*
X105423839Y-74752051D01*
X105424175Y-74495061D01*
X105430643Y-74390681D01*
X105430086Y-74268267D01*
X105834630Y-74268267D01*
X105846742Y-74437837D01*
X105935364Y-74638941D01*
X106145268Y-74790325D01*
X106231098Y-74833710D01*
X106368768Y-74876042D01*
X106515390Y-74853164D01*
X106743089Y-74761613D01*
X106807265Y-74732096D01*
X107141509Y-74512117D01*
X107362281Y-74244270D01*
X107442000Y-73960181D01*
X107384296Y-73688658D01*
X107208639Y-73482177D01*
X106946098Y-73381016D01*
X106628270Y-73396654D01*
X106286756Y-73540567D01*
X106055240Y-73713069D01*
X105884327Y-73958440D01*
X105834630Y-74268267D01*
X105430086Y-74268267D01*
X105429780Y-74200888D01*
X105408735Y-74125666D01*
X105296746Y-74178302D01*
X105122505Y-74318134D01*
X104938229Y-74497956D01*
X104792271Y-74670374D01*
X104732984Y-74787997D01*
X104734214Y-74813448D01*
X104797368Y-75019023D01*
X104926954Y-75237001D01*
X105082320Y-75409923D01*
X105222814Y-75480333D01*
X105280074Y-75492954D01*
X105457668Y-75595650D01*
X105655516Y-75767912D01*
X105753540Y-75870788D01*
X105858881Y-76003400D01*
X105862544Y-76081415D01*
X105777958Y-76146338D01*
X105663634Y-76198379D01*
X105355962Y-76218266D01*
X105034482Y-76085294D01*
X104715461Y-75808413D01*
X104415167Y-75396573D01*
X104314535Y-75216618D01*
X104171080Y-74842080D01*
X104160741Y-74518081D01*
X104279741Y-74211564D01*
X104365552Y-74114915D01*
X104579270Y-73929810D01*
X104889392Y-73688681D01*
X105270683Y-73411017D01*
X105697908Y-73116309D01*
X106976334Y-72257615D01*
X107167838Y-72493141D01*
X107206515Y-72540908D01*
X107303382Y-72679969D01*
X107297793Y-72766921D01*
X107194239Y-72864999D01*
X107146260Y-72905621D01*
X107091621Y-72979035D01*
X107154748Y-73032991D01*
X107358315Y-73099957D01*
X107517405Y-73163698D01*
X107818062Y-73399178D01*
X108013786Y-73724802D01*
X108058363Y-73960181D01*
X108084488Y-74098132D01*
X108010078Y-74476729D01*
G37*
G36*
X98533051Y-108568448D02*
G01*
X98725769Y-108716073D01*
X98463192Y-109200870D01*
X98330289Y-109438610D01*
X98221961Y-109617333D01*
X98168625Y-109685666D01*
X98091068Y-109660183D01*
X97925421Y-109589430D01*
X97714206Y-109493195D01*
X97914683Y-109102597D01*
X97986112Y-108967466D01*
X98123678Y-108725999D01*
X98227747Y-108566411D01*
X98301074Y-108483712D01*
X98388389Y-108471747D01*
X98533051Y-108568448D01*
G37*
G36*
X62021867Y-88114999D02*
G01*
X62221686Y-88259213D01*
X62406790Y-88447928D01*
X62531429Y-88645134D01*
X62570901Y-88752318D01*
X62648090Y-89144398D01*
X62647676Y-89556705D01*
X62576695Y-89943695D01*
X62442181Y-90259825D01*
X62251169Y-90459550D01*
X62101008Y-90518488D01*
X61809108Y-90548319D01*
X61519610Y-90504662D01*
X61309996Y-90392995D01*
X61251127Y-90320199D01*
X61119495Y-90094528D01*
X60999943Y-89821495D01*
X60897525Y-89544792D01*
X60773545Y-89223539D01*
X60683197Y-89020876D01*
X60612564Y-88911670D01*
X60547726Y-88870782D01*
X60474765Y-88873079D01*
X60403368Y-88905542D01*
X60333796Y-89036842D01*
X60299339Y-89299403D01*
X60295738Y-89544233D01*
X60338969Y-89704033D01*
X60447505Y-89805841D01*
X60583201Y-89978873D01*
X60617404Y-90222634D01*
X60539444Y-90464739D01*
X60484883Y-90526933D01*
X60390693Y-90523336D01*
X60223241Y-90414475D01*
X60047921Y-90236232D01*
X59880354Y-89912611D01*
X59793826Y-89532836D01*
X59787851Y-89138134D01*
X59861945Y-88769732D01*
X60015622Y-88468855D01*
X60248398Y-88276731D01*
X60547825Y-88181790D01*
X60821307Y-88205042D01*
X61055957Y-88368460D01*
X61265216Y-88681763D01*
X61462527Y-89154672D01*
X61561014Y-89421368D01*
X61674217Y-89671973D01*
X61775044Y-89808029D01*
X61880628Y-89858370D01*
X62037221Y-89823900D01*
X62145973Y-89675162D01*
X62190554Y-89453975D01*
X62169230Y-89204754D01*
X62080269Y-88971911D01*
X61921937Y-88799861D01*
X61772520Y-88643105D01*
X61722000Y-88387259D01*
X61722153Y-88368488D01*
X61743965Y-88168698D01*
X61791482Y-88062717D01*
X61853082Y-88051297D01*
X62021867Y-88114999D01*
G37*
G36*
X96986619Y-64010501D02*
G01*
X97278011Y-64227039D01*
X97465730Y-64523930D01*
X97494300Y-64602362D01*
X97557990Y-64742942D01*
X97616683Y-64748429D01*
X97709787Y-64637096D01*
X97725111Y-64616905D01*
X97823855Y-64513874D01*
X97930451Y-64508589D01*
X98114858Y-64593525D01*
X98382619Y-64731990D01*
X98074555Y-65343661D01*
X97892376Y-65712578D01*
X97675412Y-66164439D01*
X97486730Y-66569166D01*
X97448996Y-66650956D01*
X97316568Y-66921921D01*
X97212134Y-67111576D01*
X97155613Y-67183000D01*
X97150965Y-67182619D01*
X97036873Y-67141013D01*
X96850154Y-67051597D01*
X96780973Y-67013906D01*
X96680387Y-66933392D01*
X96645092Y-66826548D01*
X96678624Y-66662570D01*
X96784521Y-66410655D01*
X96966320Y-66040000D01*
X96983845Y-66004898D01*
X97194682Y-65534160D01*
X97298315Y-65174010D01*
X97294737Y-64905214D01*
X97183944Y-64708538D01*
X96965931Y-64564746D01*
X96951212Y-64558251D01*
X96761731Y-64520695D01*
X96581296Y-64587370D01*
X96395125Y-64772658D01*
X96188437Y-65090941D01*
X95946448Y-65556600D01*
X95813028Y-65830990D01*
X95672013Y-66120941D01*
X95573495Y-66323444D01*
X95533245Y-66406076D01*
X95511118Y-66404472D01*
X95386287Y-66356768D01*
X95205780Y-66274486D01*
X95032001Y-66186794D01*
X94927354Y-66122863D01*
X94942999Y-66038848D01*
X95027298Y-65840255D01*
X95163375Y-65559840D01*
X95333779Y-65229927D01*
X95521060Y-64882841D01*
X95707768Y-64550907D01*
X95876453Y-64266449D01*
X96009664Y-64061792D01*
X96089952Y-63969260D01*
X96289436Y-63897762D01*
X96640709Y-63894136D01*
X96986619Y-64010501D01*
G37*
G36*
X64010382Y-73897228D02*
G01*
X64232390Y-73998297D01*
X64552306Y-74171288D01*
X64995323Y-74421115D01*
X65247513Y-74563789D01*
X65616363Y-74773088D01*
X65914536Y-74943066D01*
X66116423Y-75059107D01*
X66196417Y-75106596D01*
X66198236Y-75142635D01*
X66139622Y-75274259D01*
X66036535Y-75442728D01*
X65927304Y-75587909D01*
X65850260Y-75649666D01*
X65772633Y-75621318D01*
X65571961Y-75527379D01*
X65283857Y-75383275D01*
X64941360Y-75205166D01*
X64728766Y-75093201D01*
X64427313Y-74940285D01*
X64223993Y-74853089D01*
X64085761Y-74821797D01*
X63979571Y-74836594D01*
X63872376Y-74887666D01*
X63737677Y-74970536D01*
X63535914Y-75165749D01*
X63489409Y-75371516D01*
X63600589Y-75594747D01*
X63871883Y-75842354D01*
X64305718Y-76121248D01*
X64681495Y-76336881D01*
X64966512Y-76504327D01*
X65143488Y-76622366D01*
X65231635Y-76710782D01*
X65250166Y-76789363D01*
X65218291Y-76877895D01*
X65155224Y-76996166D01*
X65124325Y-77053008D01*
X64998659Y-77206616D01*
X64870111Y-77218518D01*
X64830830Y-77202841D01*
X64593253Y-77088878D01*
X64284090Y-76920708D01*
X63940128Y-76720732D01*
X63598156Y-76511348D01*
X63294962Y-76314954D01*
X63067336Y-76153949D01*
X62952066Y-76050730D01*
X62848132Y-75818583D01*
X62838828Y-75486533D01*
X62954073Y-75153203D01*
X63178166Y-74859204D01*
X63495410Y-74645150D01*
X63585648Y-74604133D01*
X63732529Y-74523574D01*
X63750777Y-74464009D01*
X63661049Y-74394141D01*
X63549976Y-74284131D01*
X63579887Y-74144901D01*
X63597606Y-74113838D01*
X63679894Y-73976384D01*
X63759325Y-73891187D01*
X63861091Y-73863163D01*
X64010382Y-73897228D01*
G37*
G36*
X86992116Y-61785499D02*
G01*
X87026718Y-61957519D01*
X87114089Y-62377407D01*
X87191371Y-62729200D01*
X87251225Y-62980173D01*
X87286316Y-63097606D01*
X87308896Y-63089046D01*
X87379216Y-62958014D01*
X87483914Y-62705510D01*
X87613148Y-62355871D01*
X87757075Y-61933439D01*
X88174006Y-60663666D01*
X89343061Y-60663666D01*
X89292622Y-61192833D01*
X89290006Y-61221140D01*
X89266823Y-61526647D01*
X89241040Y-61943652D01*
X89215616Y-62420950D01*
X89193513Y-62907333D01*
X89188281Y-63030646D01*
X89167022Y-63467768D01*
X89144552Y-63846962D01*
X89123245Y-64131129D01*
X89105475Y-64283166D01*
X89063537Y-64393594D01*
X88951563Y-64457930D01*
X88723349Y-64473666D01*
X88520959Y-64464354D01*
X88422746Y-64421101D01*
X88422258Y-64325500D01*
X88433980Y-64255608D01*
X88454361Y-64039396D01*
X88476032Y-63722239D01*
X88497551Y-63337883D01*
X88517475Y-62920073D01*
X88534359Y-62502556D01*
X88546762Y-62119077D01*
X88553239Y-61803383D01*
X88552348Y-61589220D01*
X88542646Y-61510333D01*
X88511171Y-61577284D01*
X88437989Y-61782149D01*
X88332313Y-62099740D01*
X88202636Y-62504490D01*
X88057451Y-62970833D01*
X87608772Y-64431333D01*
X87244768Y-64402148D01*
X86880764Y-64372964D01*
X86602905Y-62899315D01*
X86520648Y-62475960D01*
X86433535Y-62056250D01*
X86358291Y-61723611D01*
X86300951Y-61504574D01*
X86267554Y-61425666D01*
X86250258Y-61476470D01*
X86225020Y-61671052D01*
X86198103Y-61985646D01*
X86171783Y-62392785D01*
X86148334Y-62864999D01*
X86086606Y-64304333D01*
X85404039Y-64304333D01*
X85460212Y-63140166D01*
X85460510Y-63133998D01*
X85486433Y-62627984D01*
X85515482Y-62109541D01*
X85544126Y-61639202D01*
X85568836Y-61277500D01*
X85621287Y-60579000D01*
X86751745Y-60579000D01*
X86992116Y-61785499D01*
G37*
G36*
X71667697Y-69287541D02*
G01*
X71256829Y-69561022D01*
X71196338Y-69587747D01*
X70836053Y-69699521D01*
X70507933Y-69690612D01*
X70136505Y-69561022D01*
X70057699Y-69522452D01*
X69669984Y-69229298D01*
X69402068Y-68833417D01*
X69276218Y-68365744D01*
X69268115Y-68254270D01*
X69284052Y-68071077D01*
X69867256Y-68071077D01*
X69947544Y-68387911D01*
X70190016Y-68737934D01*
X70195488Y-68744139D01*
X70481340Y-68988516D01*
X70774928Y-69071390D01*
X71100180Y-68999640D01*
X71148928Y-68976732D01*
X71362098Y-68785586D01*
X71458078Y-68522442D01*
X71443725Y-68223155D01*
X71325890Y-67923581D01*
X71111430Y-67659575D01*
X70807198Y-67466995D01*
X70786928Y-67458809D01*
X70459364Y-67408642D01*
X70172060Y-67518758D01*
X69945891Y-67781533D01*
X69867256Y-68071077D01*
X69284052Y-68071077D01*
X69304809Y-67832474D01*
X69471946Y-67476162D01*
X69788143Y-67140785D01*
X69879674Y-67067699D01*
X70300879Y-66847018D01*
X70737714Y-66783720D01*
X71164648Y-66873496D01*
X71556152Y-67112035D01*
X71886693Y-67495029D01*
X71941340Y-67581814D01*
X72070501Y-67829509D01*
X72120745Y-68054635D01*
X72114672Y-68341059D01*
X72103233Y-68444199D01*
X72078270Y-68522442D01*
X71955528Y-68907165D01*
X71667697Y-69287541D01*
G37*
G36*
X95678965Y-88576624D02*
G01*
X95721863Y-88647507D01*
X95875588Y-88840769D01*
X96120381Y-89120059D01*
X96438369Y-89465684D01*
X96811679Y-89857953D01*
X97222437Y-90277173D01*
X98675335Y-91739014D01*
X96861184Y-93553165D01*
X95309559Y-92009749D01*
X95158465Y-91859532D01*
X94716173Y-91421786D01*
X94371777Y-91086589D01*
X94108735Y-90840324D01*
X93910506Y-90669372D01*
X93760551Y-90560115D01*
X93642328Y-90498935D01*
X93539297Y-90472214D01*
X93434918Y-90466333D01*
X93346518Y-90471070D01*
X93256153Y-90492925D01*
X93151226Y-90543253D01*
X93018535Y-90633407D01*
X92844880Y-90774741D01*
X92617060Y-90978609D01*
X92321875Y-91256365D01*
X91946123Y-91619363D01*
X91476604Y-92078957D01*
X90900118Y-92646500D01*
X90348423Y-93192239D01*
X89847188Y-93693530D01*
X89449495Y-94099057D01*
X89145246Y-94419760D01*
X88924348Y-94666580D01*
X88776702Y-94850457D01*
X88692213Y-94982334D01*
X88660785Y-95073150D01*
X88660254Y-95142915D01*
X88686662Y-95236519D01*
X88755441Y-95354066D01*
X88880049Y-95510940D01*
X89073945Y-95722528D01*
X89350589Y-96004212D01*
X89723438Y-96371379D01*
X90205951Y-96839412D01*
X90585471Y-97208297D01*
X90971925Y-97588810D01*
X91300633Y-97917738D01*
X91555433Y-98178722D01*
X91720165Y-98355402D01*
X91778667Y-98431420D01*
X91765554Y-98457954D01*
X91661679Y-98592678D01*
X91471095Y-98815506D01*
X91214061Y-99103082D01*
X90910834Y-99432046D01*
X90043000Y-100360445D01*
X89154000Y-99457067D01*
X89135260Y-99438029D01*
X88939916Y-99239905D01*
X88635689Y-98931692D01*
X88231476Y-98522397D01*
X87736178Y-98021024D01*
X87158694Y-97436577D01*
X86507924Y-96778061D01*
X85792766Y-96054482D01*
X85022121Y-95274844D01*
X84204887Y-94448151D01*
X83349964Y-93583410D01*
X82466252Y-92689624D01*
X81562649Y-91775798D01*
X78133281Y-88307779D01*
X82042000Y-88307779D01*
X82045042Y-88389004D01*
X82062790Y-88479635D01*
X82106963Y-88581262D01*
X82189254Y-88707450D01*
X82321353Y-88871766D01*
X82514951Y-89087775D01*
X82781738Y-89369042D01*
X83133405Y-89729133D01*
X83581644Y-90181613D01*
X84138145Y-90740048D01*
X84469856Y-91072164D01*
X85009639Y-91608946D01*
X85451411Y-92039257D01*
X85808693Y-92372408D01*
X86095005Y-92617716D01*
X86323868Y-92784494D01*
X86508802Y-92882056D01*
X86663329Y-92919717D01*
X86800968Y-92906791D01*
X86935240Y-92852593D01*
X87079667Y-92766435D01*
X87110216Y-92744335D01*
X87272799Y-92603954D01*
X87526372Y-92367427D01*
X87853261Y-92052628D01*
X88235791Y-91677433D01*
X88656290Y-91259718D01*
X89097081Y-90817356D01*
X89540491Y-90368225D01*
X89968846Y-89930199D01*
X90364471Y-89521153D01*
X90709693Y-89158963D01*
X90986837Y-88861504D01*
X91178228Y-88646651D01*
X91266193Y-88532280D01*
X91320933Y-88366608D01*
X91323400Y-88151280D01*
X91322881Y-88149410D01*
X91245394Y-88031917D01*
X91061976Y-87816172D01*
X90789793Y-87519120D01*
X90446012Y-87157709D01*
X90047798Y-86748885D01*
X89612318Y-86309593D01*
X89156738Y-85856781D01*
X88698224Y-85407395D01*
X88253942Y-84978381D01*
X87841059Y-84586686D01*
X87476741Y-84249256D01*
X87178153Y-83983037D01*
X86962462Y-83804977D01*
X86846834Y-83732021D01*
X86652659Y-83706529D01*
X86423500Y-83722955D01*
X86345024Y-83773597D01*
X86154575Y-83933544D01*
X85873104Y-84188380D01*
X85515636Y-84523966D01*
X85097196Y-84926165D01*
X84632809Y-85380842D01*
X84137500Y-85873857D01*
X83643618Y-86369892D01*
X83182857Y-86835019D01*
X82820057Y-87206032D01*
X82543536Y-87496499D01*
X82341609Y-87719992D01*
X82202595Y-87890080D01*
X82114811Y-88020333D01*
X82066572Y-88124320D01*
X82046196Y-88215612D01*
X82042000Y-88307779D01*
X78133281Y-88307779D01*
X74860298Y-84997908D01*
X75726527Y-84084257D01*
X76592755Y-83170606D01*
X78071895Y-84694000D01*
X78397801Y-85027010D01*
X78783006Y-85413402D01*
X79120650Y-85744108D01*
X79393381Y-86002439D01*
X79583843Y-86171708D01*
X79674685Y-86235228D01*
X79757859Y-86242740D01*
X79963700Y-86243031D01*
X80059151Y-86183773D01*
X80256223Y-86019303D01*
X80537632Y-85766245D01*
X80886539Y-85441204D01*
X81286106Y-85060783D01*
X81719493Y-84641589D01*
X82169863Y-84200225D01*
X82620376Y-83753296D01*
X83054194Y-83317407D01*
X83454477Y-82909162D01*
X83804387Y-82545165D01*
X84087085Y-82242022D01*
X84285732Y-82016337D01*
X84383490Y-81884714D01*
X84452010Y-81696996D01*
X84456318Y-81419047D01*
X84445263Y-81391119D01*
X84333139Y-81227330D01*
X84114930Y-80965441D01*
X83803407Y-80619750D01*
X83411341Y-80204556D01*
X82951502Y-79734159D01*
X82674251Y-79452190D01*
X82300245Y-79062436D01*
X81989537Y-78727037D01*
X81756532Y-78462042D01*
X81615632Y-78283499D01*
X81581241Y-78207456D01*
X81596766Y-78193826D01*
X81717239Y-78081425D01*
X81927131Y-77881863D01*
X82201979Y-77618476D01*
X82517317Y-77314597D01*
X83373634Y-76487266D01*
X84922577Y-77975223D01*
X85269580Y-78305188D01*
X85677745Y-78684358D01*
X86039971Y-79011098D01*
X86337520Y-79268874D01*
X86551652Y-79441151D01*
X86663628Y-79511396D01*
X86802230Y-79526027D01*
X86978629Y-79488472D01*
X87020202Y-79454892D01*
X87172588Y-79311080D01*
X87412858Y-79073374D01*
X87723002Y-78759885D01*
X88085007Y-78388724D01*
X88480861Y-77978000D01*
X88727808Y-77720807D01*
X89096708Y-77338573D01*
X89416310Y-77009825D01*
X89669722Y-76751825D01*
X89840050Y-76581836D01*
X89910402Y-76517121D01*
X89931428Y-76526134D01*
X90053029Y-76624518D01*
X90260734Y-76813952D01*
X90532462Y-77073974D01*
X90846129Y-77384124D01*
X91731654Y-78272673D01*
X90273494Y-79739487D01*
X90211214Y-79802148D01*
X89769605Y-80248015D01*
X89432345Y-80593908D01*
X89185421Y-80857109D01*
X89014818Y-81054901D01*
X88906522Y-81204564D01*
X88846519Y-81323380D01*
X88820794Y-81428631D01*
X88815334Y-81537598D01*
X88818371Y-81618932D01*
X88836099Y-81709484D01*
X88880255Y-81810970D01*
X88962545Y-81936947D01*
X89094677Y-82100971D01*
X89288358Y-82316599D01*
X89555295Y-82597387D01*
X89907196Y-82956893D01*
X90355769Y-83408671D01*
X90912720Y-83966280D01*
X93010106Y-86063666D01*
X93389220Y-86066116D01*
X93768334Y-86068567D01*
X95233569Y-84568488D01*
X96698803Y-83068410D01*
X97644747Y-84014353D01*
X98590690Y-84960297D01*
X97143354Y-86422148D01*
X97059766Y-86506776D01*
X96593062Y-86987832D01*
X96207343Y-87400716D01*
X95913218Y-87733491D01*
X95721302Y-87974217D01*
X95642204Y-88110957D01*
X95639737Y-88151280D01*
X95629370Y-88320696D01*
X95678965Y-88576624D01*
G37*
G36*
X82474258Y-109870982D02*
G01*
X82586059Y-109929512D01*
X82592766Y-109991672D01*
X82577867Y-110195229D01*
X82538270Y-110499143D01*
X82478427Y-110864731D01*
X82433562Y-111130648D01*
X82388727Y-111443839D01*
X82367415Y-111662745D01*
X82373872Y-111751369D01*
X82455108Y-111771064D01*
X82673057Y-111812620D01*
X82990925Y-111868582D01*
X83373175Y-111932509D01*
X83724592Y-111990584D01*
X84014917Y-112044397D01*
X84187715Y-112091519D01*
X84270034Y-112143162D01*
X84288924Y-112210537D01*
X84271431Y-112304858D01*
X84230316Y-112456473D01*
X84192576Y-112553792D01*
X84182815Y-112556073D01*
X84055768Y-112546478D01*
X83815710Y-112514833D01*
X83504176Y-112467839D01*
X83162699Y-112412197D01*
X82832814Y-112354607D01*
X82556055Y-112301770D01*
X82373956Y-112260387D01*
X82362671Y-112258029D01*
X82304959Y-112280053D01*
X82251304Y-112378372D01*
X82194902Y-112575850D01*
X82128943Y-112895345D01*
X82046621Y-113359721D01*
X82027752Y-113472274D01*
X81964486Y-113882341D01*
X81919973Y-114225170D01*
X81898125Y-114467653D01*
X81902854Y-114576680D01*
X81940158Y-114605372D01*
X82109927Y-114664376D01*
X82357189Y-114711979D01*
X82413255Y-114719825D01*
X82720687Y-114767402D01*
X83106949Y-114831946D01*
X83501932Y-114901829D01*
X83554321Y-114911405D01*
X83887344Y-114974904D01*
X84087364Y-115025975D01*
X84184292Y-115080277D01*
X84208041Y-115153463D01*
X84188522Y-115261191D01*
X84149652Y-115416603D01*
X84125590Y-115498108D01*
X84120801Y-115498473D01*
X84006546Y-115482932D01*
X83763602Y-115443075D01*
X83422974Y-115384120D01*
X83015667Y-115311287D01*
X82536861Y-115225063D01*
X82166854Y-115161727D01*
X81927434Y-115128077D01*
X81799998Y-115123587D01*
X81765946Y-115147730D01*
X81806675Y-115199981D01*
X81903582Y-115279811D01*
X81915509Y-115289365D01*
X82065042Y-115444485D01*
X82126667Y-115576145D01*
X82127729Y-115580045D01*
X82154138Y-115594536D01*
X82221088Y-115607810D01*
X82335359Y-115619917D01*
X82503728Y-115630909D01*
X82732975Y-115640837D01*
X83029878Y-115649752D01*
X83401215Y-115657707D01*
X83853765Y-115664751D01*
X84394306Y-115670937D01*
X85029617Y-115676316D01*
X85766476Y-115680939D01*
X86611662Y-115684857D01*
X87571954Y-115688122D01*
X88654129Y-115690785D01*
X89864966Y-115692898D01*
X91211244Y-115694511D01*
X92699742Y-115695677D01*
X94337237Y-115696446D01*
X96130508Y-115696870D01*
X98086334Y-115697000D01*
X99447034Y-115697005D01*
X101263309Y-115697070D01*
X102922327Y-115697269D01*
X104431209Y-115697679D01*
X105797075Y-115698374D01*
X107027047Y-115699430D01*
X108128244Y-115700923D01*
X109107787Y-115702929D01*
X109972797Y-115705522D01*
X110730395Y-115708778D01*
X111387700Y-115712774D01*
X111951835Y-115717584D01*
X112429919Y-115723284D01*
X112829073Y-115729949D01*
X113156418Y-115737656D01*
X113419073Y-115746479D01*
X113624161Y-115756495D01*
X113778801Y-115767778D01*
X113890115Y-115780405D01*
X113965222Y-115794450D01*
X114011244Y-115809991D01*
X114035300Y-115827101D01*
X114044512Y-115845856D01*
X114046000Y-115866333D01*
X114045967Y-115870846D01*
X114043824Y-115886257D01*
X114034415Y-115900675D01*
X114012337Y-115914135D01*
X113972189Y-115926670D01*
X113908567Y-115938311D01*
X113816070Y-115949092D01*
X113689296Y-115959047D01*
X113522842Y-115968207D01*
X113311307Y-115976607D01*
X113049287Y-115984279D01*
X112731380Y-115991256D01*
X112352185Y-115997571D01*
X111906299Y-116003257D01*
X111388320Y-116008347D01*
X110792846Y-116012874D01*
X110114474Y-116016871D01*
X109347803Y-116020371D01*
X108487429Y-116023407D01*
X107527951Y-116026013D01*
X106463966Y-116028220D01*
X105290073Y-116030062D01*
X104000869Y-116031572D01*
X102590951Y-116032783D01*
X101054918Y-116033728D01*
X99387368Y-116034440D01*
X97582897Y-116034952D01*
X95636104Y-116035297D01*
X93541587Y-116035508D01*
X91293943Y-116035618D01*
X88887771Y-116035660D01*
X86317667Y-116035666D01*
X85578635Y-116035666D01*
X83055139Y-116035653D01*
X80694057Y-116035595D01*
X78489985Y-116035461D01*
X76437522Y-116035215D01*
X74531265Y-116034827D01*
X72765812Y-116034262D01*
X71135762Y-116033488D01*
X69635711Y-116032471D01*
X68260258Y-116031179D01*
X67004000Y-116029579D01*
X65861535Y-116027638D01*
X64827461Y-116025322D01*
X63896376Y-116022599D01*
X63062876Y-116019436D01*
X62321561Y-116015800D01*
X61667028Y-116011657D01*
X61093874Y-116006975D01*
X60596698Y-116001721D01*
X60170097Y-115995861D01*
X59808669Y-115989364D01*
X59507012Y-115982195D01*
X59259723Y-115974322D01*
X59061400Y-115965712D01*
X58906641Y-115956331D01*
X58790044Y-115946148D01*
X58706207Y-115935128D01*
X58649727Y-115923239D01*
X58615201Y-115910448D01*
X58597229Y-115896722D01*
X58590407Y-115882028D01*
X58589334Y-115866333D01*
X58590100Y-115848471D01*
X58597909Y-115825905D01*
X58621307Y-115805699D01*
X58668834Y-115787723D01*
X58749032Y-115771847D01*
X58870442Y-115757940D01*
X59041606Y-115745872D01*
X59271065Y-115735513D01*
X59567361Y-115726731D01*
X59939035Y-115719398D01*
X60394628Y-115713382D01*
X60942682Y-115708553D01*
X61591738Y-115704780D01*
X62350337Y-115701933D01*
X63227022Y-115699882D01*
X64230333Y-115698497D01*
X65368811Y-115697646D01*
X66650999Y-115697200D01*
X68085437Y-115697028D01*
X69680667Y-115697000D01*
X70060579Y-115696986D01*
X71678107Y-115696559D01*
X73135162Y-115695486D01*
X74438997Y-115693696D01*
X75596868Y-115691121D01*
X76616029Y-115687692D01*
X77503736Y-115683338D01*
X78267244Y-115677992D01*
X78913806Y-115671583D01*
X79450678Y-115664043D01*
X79885115Y-115655302D01*
X80224372Y-115645291D01*
X80475704Y-115633942D01*
X80646364Y-115621184D01*
X80743609Y-115606948D01*
X80774693Y-115591166D01*
X80838368Y-115407375D01*
X81025957Y-115224063D01*
X81287710Y-115114087D01*
X81320614Y-115106087D01*
X81355267Y-115076841D01*
X81276438Y-115038322D01*
X81070582Y-114986926D01*
X80724150Y-114919050D01*
X80223596Y-114831093D01*
X79930956Y-114780503D01*
X79512162Y-114705319D01*
X79173478Y-114641061D01*
X78943889Y-114593299D01*
X78852380Y-114567601D01*
X78841610Y-114493748D01*
X78868522Y-114324079D01*
X78920619Y-114116511D01*
X80111174Y-114317335D01*
X80279883Y-114345519D01*
X80684340Y-114410661D01*
X81012299Y-114460013D01*
X81233647Y-114489175D01*
X81318273Y-114493746D01*
X81328553Y-114454663D01*
X81363067Y-114279742D01*
X81414164Y-113999746D01*
X81475315Y-113652774D01*
X81539989Y-113276930D01*
X81601658Y-112910314D01*
X81653792Y-112591028D01*
X81689860Y-112357173D01*
X81703334Y-112246851D01*
X81669753Y-112216818D01*
X81502482Y-112155961D01*
X81226610Y-112086217D01*
X80877834Y-112017502D01*
X80732751Y-111992249D01*
X80324822Y-111919235D01*
X80049981Y-111862282D01*
X79881953Y-111811590D01*
X79794463Y-111757357D01*
X79761237Y-111689784D01*
X79756000Y-111599072D01*
X79765165Y-111473637D01*
X79800499Y-111362723D01*
X79865266Y-111357195D01*
X80067928Y-111375784D01*
X80371911Y-111418613D01*
X80741057Y-111481131D01*
X81033960Y-111531386D01*
X81369268Y-111580626D01*
X81616562Y-111607061D01*
X81736766Y-111605797D01*
X81750151Y-111595726D01*
X81813297Y-111464114D01*
X81882715Y-111218462D01*
X81945642Y-110901779D01*
X82018117Y-110468345D01*
X82074280Y-110174829D01*
X82124464Y-109994003D01*
X82179006Y-109898601D01*
X82248244Y-109861355D01*
X82342516Y-109855000D01*
X82474258Y-109870982D01*
G37*
G36*
X97748823Y-107195855D02*
G01*
X97769702Y-107201325D01*
X97910309Y-107273465D01*
X97908383Y-107388945D01*
X97882626Y-107451934D01*
X97804216Y-107663851D01*
X97712833Y-107927700D01*
X97667908Y-108050060D01*
X97543029Y-108263728D01*
X97393751Y-108325884D01*
X97199469Y-108249444D01*
X97154207Y-108212754D01*
X97123661Y-108125781D01*
X97149941Y-107967937D01*
X97235894Y-107695974D01*
X97280865Y-107565502D01*
X97378072Y-107320893D01*
X97468202Y-107197507D01*
X97581653Y-107165708D01*
X97748823Y-107195855D01*
G37*
G36*
X90813625Y-109784737D02*
G01*
X90928248Y-109804868D01*
X91022074Y-109867085D01*
X91077000Y-110010304D01*
X91120240Y-110278333D01*
X91146377Y-110473323D01*
X91198297Y-110845387D01*
X91243272Y-111086535D01*
X91294366Y-111222715D01*
X91364647Y-111279873D01*
X91467180Y-111283956D01*
X91615030Y-111260909D01*
X91714059Y-111245640D01*
X91876110Y-111238283D01*
X91938049Y-111300904D01*
X91948000Y-111462666D01*
X91944518Y-111555227D01*
X91894782Y-111685479D01*
X91757500Y-111718963D01*
X91726588Y-111719356D01*
X91544219Y-111739435D01*
X91434173Y-111810358D01*
X91386026Y-111961049D01*
X91389357Y-112220433D01*
X91433743Y-112617432D01*
X91442683Y-112686739D01*
X91503461Y-113154988D01*
X91552500Y-113485444D01*
X91600783Y-113704620D01*
X91659298Y-113839030D01*
X91739028Y-113915187D01*
X91850960Y-113959605D01*
X92006078Y-113998798D01*
X92193127Y-114053946D01*
X92326314Y-114131050D01*
X92336834Y-114225449D01*
X92316293Y-114289334D01*
X92286667Y-114473600D01*
X92274970Y-114523316D01*
X92180834Y-114556816D01*
X92141859Y-114544660D01*
X91957873Y-114488927D01*
X91674255Y-114403974D01*
X91334167Y-114302751D01*
X91322099Y-114299169D01*
X90976763Y-114193639D01*
X90762336Y-114114031D01*
X90647701Y-114040644D01*
X90601739Y-113953776D01*
X90593334Y-113833728D01*
X90604668Y-113674670D01*
X90675060Y-113614635D01*
X90856801Y-113637260D01*
X91034936Y-113662396D01*
X91093094Y-113611148D01*
X91071675Y-113444643D01*
X91055909Y-113358308D01*
X91012765Y-113081436D01*
X90972094Y-112776000D01*
X90941986Y-112529713D01*
X90897188Y-112218707D01*
X90849388Y-112028793D01*
X90784215Y-111930112D01*
X90687301Y-111892801D01*
X90544273Y-111887000D01*
X90378058Y-111877665D01*
X90277138Y-111818914D01*
X90254667Y-111673216D01*
X90259100Y-111599609D01*
X90328196Y-111473534D01*
X90518456Y-111406675D01*
X90596620Y-111390041D01*
X90720162Y-111337862D01*
X90756464Y-111228338D01*
X90735246Y-111006625D01*
X90718924Y-110885432D01*
X90673925Y-110548148D01*
X90628985Y-110208070D01*
X90569724Y-109756807D01*
X90813625Y-109784737D01*
G37*
G36*
X105574166Y-106449617D02*
G01*
X105798309Y-106705895D01*
X105887997Y-106814538D01*
X105948099Y-106887343D01*
X106002667Y-106969738D01*
X105967600Y-107042712D01*
X105849111Y-107173721D01*
X105712874Y-107259879D01*
X105599964Y-107217096D01*
X105599346Y-107216491D01*
X105526734Y-107212997D01*
X105387014Y-107291952D01*
X105167558Y-107463197D01*
X104855738Y-107736574D01*
X104438926Y-108121925D01*
X104283347Y-108268911D01*
X103888304Y-108654204D01*
X103621240Y-108937184D01*
X103479346Y-109120970D01*
X103459814Y-109208679D01*
X103483452Y-109312747D01*
X103366721Y-109486006D01*
X103187294Y-109676997D01*
X102577476Y-109025165D01*
X102410035Y-108845617D01*
X102126708Y-108539479D01*
X102083901Y-108492755D01*
X102833733Y-108492755D01*
X102861802Y-108569680D01*
X102944130Y-108687977D01*
X103042014Y-108754333D01*
X103098753Y-108720527D01*
X103260060Y-108591119D01*
X103497406Y-108386641D01*
X103785378Y-108130440D01*
X104098566Y-107845865D01*
X104411556Y-107556263D01*
X104698937Y-107284981D01*
X104935298Y-107055368D01*
X105095225Y-106890771D01*
X105153308Y-106814538D01*
X105148941Y-106791772D01*
X105072751Y-106660670D01*
X104951610Y-106529733D01*
X104850333Y-106472199D01*
X104805173Y-106499325D01*
X104651028Y-106624950D01*
X104412187Y-106835112D01*
X104110793Y-107110186D01*
X103768990Y-107430547D01*
X103597917Y-107593199D01*
X103272171Y-107907446D01*
X103048571Y-108134822D01*
X102911426Y-108295029D01*
X102845044Y-108407773D01*
X102833733Y-108492755D01*
X102083901Y-108492755D01*
X101880519Y-108270760D01*
X101710932Y-108082399D01*
X101454207Y-107791465D01*
X101350122Y-108106844D01*
X101277869Y-108291009D01*
X101191310Y-108378173D01*
X101063186Y-108366093D01*
X100945486Y-108325928D01*
X100847083Y-108280176D01*
X100844152Y-108275851D01*
X100858184Y-108162961D01*
X100929449Y-107934440D01*
X100995528Y-107756665D01*
X102156248Y-107756665D01*
X102172904Y-107830006D01*
X102233315Y-107905804D01*
X102350921Y-108020623D01*
X102438623Y-108075037D01*
X102474884Y-108056839D01*
X102588113Y-107967427D01*
X102782859Y-107795316D01*
X103068964Y-107531534D01*
X103456267Y-107167112D01*
X103954611Y-106693078D01*
X104109266Y-106545193D01*
X104332352Y-106325734D01*
X104457247Y-106182113D01*
X104500118Y-106087018D01*
X104477133Y-106013138D01*
X104404459Y-105933161D01*
X104374196Y-105902526D01*
X104316618Y-105852112D01*
X104254857Y-105832380D01*
X104171725Y-105855345D01*
X104050039Y-105933024D01*
X103872611Y-106077433D01*
X103622257Y-106300587D01*
X103313481Y-106585284D01*
X103281791Y-106614503D01*
X102834026Y-107031197D01*
X102531664Y-107314270D01*
X102319342Y-107522508D01*
X102199632Y-107662070D01*
X102156248Y-107756665D01*
X100995528Y-107756665D01*
X101044925Y-107623771D01*
X101048752Y-107614395D01*
X101534711Y-107614395D01*
X101537500Y-107615582D01*
X101620687Y-107566153D01*
X101783876Y-107430486D01*
X101993242Y-107240771D01*
X102214963Y-107029201D01*
X102415212Y-106827969D01*
X102560166Y-106669266D01*
X102616000Y-106585284D01*
X102615450Y-106578422D01*
X102549280Y-106458780D01*
X102406366Y-106300909D01*
X102196731Y-106103967D01*
X101854243Y-106848805D01*
X101762995Y-107049861D01*
X101638679Y-107334406D01*
X101557833Y-107533966D01*
X101534711Y-107614395D01*
X101048752Y-107614395D01*
X101191588Y-107264438D01*
X101356414Y-106889924D01*
X101526380Y-106533712D01*
X101584479Y-106416146D01*
X101722235Y-106123203D01*
X101818065Y-105898233D01*
X101854000Y-105782436D01*
X101842714Y-105777523D01*
X101738308Y-105841997D01*
X101542028Y-105997860D01*
X101275405Y-106227507D01*
X100959970Y-106513336D01*
X100889506Y-106578542D01*
X100557822Y-106882394D01*
X100323445Y-107086739D01*
X100164564Y-107205938D01*
X100059370Y-107254352D01*
X99986053Y-107246342D01*
X99922804Y-107196268D01*
X99911715Y-107184756D01*
X99869512Y-107121310D01*
X99873799Y-107046069D01*
X99940218Y-106938478D01*
X100084409Y-106777985D01*
X100322012Y-106544034D01*
X100668667Y-106216071D01*
X101391444Y-105537000D01*
X102438688Y-105537000D01*
X102710848Y-105875666D01*
X102813728Y-105999409D01*
X102955783Y-106153883D01*
X103032337Y-106214180D01*
X103034699Y-106213924D01*
X103122383Y-106157312D01*
X103285189Y-106023288D01*
X103489183Y-105843135D01*
X103700428Y-105648136D01*
X103884986Y-105469574D01*
X104008922Y-105338730D01*
X104038298Y-105286888D01*
X103962607Y-105298119D01*
X103761608Y-105342631D01*
X103491343Y-105410000D01*
X103281644Y-105458911D01*
X102963333Y-105515113D01*
X102721222Y-105537000D01*
X102438688Y-105537000D01*
X101391444Y-105537000D01*
X101557667Y-105380829D01*
X101380443Y-105199376D01*
X101203220Y-105017923D01*
X100443184Y-105531461D01*
X100187964Y-105701697D01*
X99913005Y-105879342D01*
X99715130Y-106000315D01*
X99625574Y-106045000D01*
X99587970Y-105993914D01*
X99568000Y-105835913D01*
X99591036Y-105725744D01*
X99687846Y-105591426D01*
X99883395Y-105424018D01*
X100202260Y-105198832D01*
X100696744Y-104854003D01*
X101553488Y-104188550D01*
X102337186Y-103478960D01*
X102862705Y-102966788D01*
X102956574Y-103213683D01*
X102993248Y-103322384D01*
X102995873Y-103469957D01*
X102892780Y-103588622D01*
X102860265Y-103615096D01*
X102498507Y-103918847D01*
X102177022Y-104204581D01*
X101918856Y-104450430D01*
X101747055Y-104634525D01*
X101684667Y-104734996D01*
X101703578Y-104805467D01*
X101809767Y-104942756D01*
X101826661Y-104954571D01*
X101903192Y-104964588D01*
X102018866Y-104912208D01*
X102193842Y-104783107D01*
X102448280Y-104562960D01*
X102802338Y-104237442D01*
X102860631Y-104183098D01*
X103188871Y-103879993D01*
X103420222Y-103676776D01*
X103577150Y-103558791D01*
X103682120Y-103511385D01*
X103757597Y-103519906D01*
X103826047Y-103569698D01*
X103875026Y-103619878D01*
X103899514Y-103686958D01*
X103863966Y-103776617D01*
X103752237Y-103911871D01*
X103548178Y-104115736D01*
X103235643Y-104411226D01*
X102489000Y-105111360D01*
X102870000Y-105060782D01*
X102943509Y-105049007D01*
X103241036Y-104983100D01*
X103613189Y-104883101D01*
X103996651Y-104765601D01*
X104174625Y-104707480D01*
X104471996Y-104611703D01*
X104682804Y-104545631D01*
X104769948Y-104521000D01*
X104799535Y-104578526D01*
X104839653Y-104741019D01*
X104850938Y-104827374D01*
X104807979Y-104963096D01*
X104637335Y-105063791D01*
X104392958Y-105166543D01*
X104504408Y-105286888D01*
X105197813Y-106035632D01*
X105245183Y-106087018D01*
X105296541Y-106142730D01*
X105574166Y-106449617D01*
G37*
G36*
X110913881Y-81275577D02*
G01*
X110659710Y-81586303D01*
X110327522Y-81837552D01*
X109962946Y-81986016D01*
X109690398Y-82026488D01*
X109213899Y-81987093D01*
X108805903Y-81810039D01*
X108487656Y-81511861D01*
X108280404Y-81109092D01*
X108218351Y-80703059D01*
X108742272Y-80703059D01*
X108819782Y-80984551D01*
X108991543Y-81195228D01*
X109225006Y-81293956D01*
X109559910Y-81317215D01*
X109906180Y-81251882D01*
X110206413Y-81109841D01*
X110403205Y-80902977D01*
X110475176Y-80705833D01*
X110466553Y-80400777D01*
X110327714Y-80137533D01*
X110082066Y-79952810D01*
X109753016Y-79883316D01*
X109650055Y-79889447D01*
X109306434Y-79982863D01*
X108999990Y-80161827D01*
X108796434Y-80391435D01*
X108778275Y-80430098D01*
X108742272Y-80703059D01*
X108218351Y-80703059D01*
X108205393Y-80618267D01*
X108249482Y-80230636D01*
X108430740Y-79805612D01*
X108735925Y-79479403D01*
X109147523Y-79269314D01*
X109648019Y-79192655D01*
X109922224Y-79215938D01*
X110350540Y-79369420D01*
X110696054Y-79645320D01*
X110939397Y-80019059D01*
X111061200Y-80466056D01*
X111051957Y-80705833D01*
X111042093Y-80961732D01*
X110913881Y-81275577D01*
G37*
G36*
X62464727Y-79489741D02*
G01*
X62699895Y-79683258D01*
X63041077Y-79969759D01*
X63322987Y-80213517D01*
X63521381Y-80393427D01*
X63612012Y-80488386D01*
X63644658Y-80608749D01*
X63574257Y-80863317D01*
X63561588Y-80889678D01*
X63508456Y-80983242D01*
X63436085Y-81049160D01*
X63314574Y-81095778D01*
X63114020Y-81131443D01*
X62804522Y-81164500D01*
X62356179Y-81203294D01*
X62335745Y-81205012D01*
X61886581Y-81241488D01*
X61468330Y-81273237D01*
X61126916Y-81296902D01*
X60908263Y-81309127D01*
X60560193Y-81322333D01*
X60648101Y-80992984D01*
X60736009Y-80663636D01*
X62811225Y-80543942D01*
X62012613Y-79945963D01*
X61710823Y-79712471D01*
X61452790Y-79497682D01*
X61278193Y-79334701D01*
X61214000Y-79247126D01*
X61214027Y-79244643D01*
X61241743Y-79095522D01*
X61305960Y-78882473D01*
X61397919Y-78618679D01*
X62464727Y-79489741D01*
G37*
G36*
X107232176Y-89730806D02*
G01*
X107168144Y-89978374D01*
X107013615Y-90440393D01*
X106810654Y-90957359D01*
X106582447Y-91474734D01*
X106352181Y-91937980D01*
X106143043Y-92292559D01*
X106087616Y-92361223D01*
X105910463Y-92556527D01*
X105627927Y-92855444D01*
X105248988Y-93249016D01*
X104782624Y-93728283D01*
X104237817Y-94284287D01*
X103623545Y-94908068D01*
X102948789Y-95590668D01*
X102222527Y-96323127D01*
X101453741Y-97096488D01*
X100651409Y-97901790D01*
X99824512Y-98730075D01*
X98982028Y-99572384D01*
X98132938Y-100419758D01*
X97286222Y-101263238D01*
X96450859Y-102093865D01*
X95635829Y-102902680D01*
X94850112Y-103680725D01*
X94102687Y-104419039D01*
X93402534Y-105108665D01*
X92758633Y-105740643D01*
X92179963Y-106306015D01*
X91675505Y-106795821D01*
X91254238Y-107201102D01*
X90925142Y-107512900D01*
X90697196Y-107722256D01*
X90579380Y-107820210D01*
X90297537Y-107991064D01*
X89765980Y-108265649D01*
X89183629Y-108522481D01*
X88613318Y-108734630D01*
X88117881Y-108875167D01*
X88010093Y-108896581D01*
X87503946Y-108960067D01*
X86911226Y-108990956D01*
X86295071Y-108989015D01*
X85718621Y-108954013D01*
X85245013Y-108885717D01*
X85078247Y-108846039D01*
X84592868Y-108697958D01*
X84053893Y-108498246D01*
X83515928Y-108269521D01*
X83033574Y-108034402D01*
X82661435Y-107815508D01*
X82591034Y-107764285D01*
X82347325Y-107563570D01*
X82032648Y-107282588D01*
X81679989Y-106951290D01*
X81322334Y-106599626D01*
X81319620Y-106596891D01*
X81106111Y-106382570D01*
X80784405Y-106060752D01*
X80366204Y-105643100D01*
X79863213Y-105141279D01*
X79287133Y-104566953D01*
X78649668Y-103931786D01*
X77962521Y-103247441D01*
X77237395Y-102525584D01*
X76485993Y-101777878D01*
X75720018Y-101015987D01*
X75611381Y-100907947D01*
X74763644Y-100064421D01*
X74027730Y-99330962D01*
X73395997Y-98699503D01*
X72860801Y-98161974D01*
X72414499Y-97710307D01*
X72049450Y-97336436D01*
X71758009Y-97032290D01*
X71532535Y-96789803D01*
X71365384Y-96600906D01*
X71248913Y-96457530D01*
X71175480Y-96351608D01*
X71137442Y-96275071D01*
X71127155Y-96219852D01*
X71136978Y-96177881D01*
X71139923Y-96171438D01*
X71177244Y-96103117D01*
X71233449Y-96054184D01*
X71333610Y-96021696D01*
X71502802Y-96002711D01*
X71766097Y-95994286D01*
X72148570Y-95993480D01*
X72675294Y-95997348D01*
X72738523Y-95997873D01*
X73279625Y-95999503D01*
X73693655Y-95992336D01*
X74018928Y-95973052D01*
X74293756Y-95938330D01*
X74556454Y-95884850D01*
X74845334Y-95809293D01*
X74909947Y-95791089D01*
X75224400Y-95698567D01*
X75478801Y-95626949D01*
X75691523Y-95585711D01*
X75880941Y-95584327D01*
X76065428Y-95632271D01*
X76263359Y-95739020D01*
X76493108Y-95914046D01*
X76773048Y-96166825D01*
X77121553Y-96506832D01*
X77556997Y-96943540D01*
X78097755Y-97486426D01*
X80060056Y-99447394D01*
X80437195Y-98712964D01*
X80563196Y-98478754D01*
X80766906Y-98150287D01*
X81010528Y-97822226D01*
X81322867Y-97456849D01*
X81732729Y-97016434D01*
X81863539Y-96879948D01*
X82199154Y-96538211D01*
X82449503Y-96301474D01*
X82634659Y-96153044D01*
X82774698Y-96076228D01*
X82889693Y-96054333D01*
X82923369Y-96056527D01*
X83030547Y-96090804D01*
X83168699Y-96177947D01*
X83354379Y-96332473D01*
X83604141Y-96568896D01*
X83934538Y-96901733D01*
X84362123Y-97345500D01*
X84736810Y-97742275D01*
X85120391Y-98164347D01*
X85388246Y-98482534D01*
X85545429Y-98702919D01*
X85596992Y-98831584D01*
X85596906Y-98836768D01*
X85526967Y-99014865D01*
X85332415Y-99285151D01*
X85021628Y-99635917D01*
X84632222Y-100077280D01*
X84309569Y-100537745D01*
X84096249Y-100995723D01*
X83972465Y-101495067D01*
X83918418Y-102079634D01*
X83911191Y-102283519D01*
X83909037Y-102628855D01*
X83930709Y-102877966D01*
X83982478Y-103080556D01*
X84070612Y-103286332D01*
X84238976Y-103556851D01*
X84591024Y-103937499D01*
X85042152Y-104287644D01*
X85552715Y-104572872D01*
X85789042Y-104672992D01*
X86039218Y-104744012D01*
X86313179Y-104769145D01*
X86682982Y-104760344D01*
X86786728Y-104755971D01*
X86953012Y-104750296D01*
X87105074Y-104741919D01*
X87249985Y-104724699D01*
X87394816Y-104692499D01*
X87546639Y-104639179D01*
X87712524Y-104558599D01*
X87899543Y-104444622D01*
X88114766Y-104291109D01*
X88365265Y-104091919D01*
X88658111Y-103840914D01*
X89000374Y-103531956D01*
X89399126Y-103158904D01*
X89861438Y-102715621D01*
X90394381Y-102195967D01*
X91005026Y-101593803D01*
X91700444Y-100902990D01*
X92487706Y-100117389D01*
X93373883Y-99230862D01*
X94366047Y-98237268D01*
X95471267Y-97130470D01*
X95946461Y-96654783D01*
X97003878Y-95596434D01*
X97950729Y-94648282D01*
X98793172Y-93803278D01*
X99537362Y-93054377D01*
X100189456Y-92394531D01*
X100755610Y-91816692D01*
X101241980Y-91313815D01*
X101654722Y-90878851D01*
X101999994Y-90504753D01*
X102283950Y-90184475D01*
X102512748Y-89910969D01*
X102692543Y-89677188D01*
X102829491Y-89476085D01*
X102929750Y-89300612D01*
X102999474Y-89143724D01*
X103044821Y-88998372D01*
X103071946Y-88857509D01*
X103087007Y-88714089D01*
X103096158Y-88561063D01*
X103105557Y-88391386D01*
X103119465Y-88043631D01*
X103097913Y-87782637D01*
X103026317Y-87535180D01*
X102890376Y-87223648D01*
X102842526Y-87129954D01*
X102746347Y-86971571D01*
X102614927Y-86784640D01*
X102442528Y-86563189D01*
X102223411Y-86301245D01*
X101951839Y-85992835D01*
X101622073Y-85631986D01*
X101228376Y-85212726D01*
X100765009Y-84729082D01*
X100226234Y-84175080D01*
X99606312Y-83544749D01*
X98899507Y-82832114D01*
X98100079Y-82031204D01*
X97202291Y-81136046D01*
X96200405Y-80140667D01*
X95088682Y-79039093D01*
X93861384Y-77825353D01*
X93507189Y-77475400D01*
X92580129Y-76560233D01*
X91762731Y-75754840D01*
X91047382Y-75052018D01*
X90426468Y-74444562D01*
X89892376Y-73925271D01*
X89437492Y-73486941D01*
X89054202Y-73122369D01*
X88734894Y-72824352D01*
X88471952Y-72585687D01*
X88257765Y-72399171D01*
X88084717Y-72257601D01*
X87945196Y-72153774D01*
X87831588Y-72080487D01*
X87736280Y-72030536D01*
X87704413Y-72016156D01*
X87088770Y-71829559D01*
X86463830Y-71811845D01*
X85830236Y-71962863D01*
X85188634Y-72282465D01*
X84539667Y-72770501D01*
X84453074Y-72851056D01*
X84242796Y-73053700D01*
X83925754Y-73363061D01*
X83509196Y-73771960D01*
X83000370Y-74273221D01*
X82406526Y-74859665D01*
X81734912Y-75524114D01*
X80992776Y-76259393D01*
X80187366Y-77058322D01*
X79325931Y-77913724D01*
X78415720Y-78818422D01*
X77463980Y-79765239D01*
X76477961Y-80746996D01*
X75464910Y-81756516D01*
X74631598Y-82587325D01*
X73511675Y-83703848D01*
X72501803Y-84710161D01*
X71596024Y-85611711D01*
X70788379Y-86413942D01*
X70072909Y-87122299D01*
X69443654Y-87742227D01*
X68894657Y-88279172D01*
X68419958Y-88738579D01*
X68013599Y-89125892D01*
X67669620Y-89446557D01*
X67382062Y-89706019D01*
X67144968Y-89909723D01*
X66952377Y-90063114D01*
X66798331Y-90171637D01*
X66676871Y-90240737D01*
X66582039Y-90275860D01*
X66507874Y-90282450D01*
X66448420Y-90265953D01*
X66397715Y-90231814D01*
X66349803Y-90185477D01*
X66298723Y-90132389D01*
X66231117Y-90052833D01*
X66137245Y-89872665D01*
X66070651Y-89619232D01*
X66027647Y-89268633D01*
X66004548Y-88796967D01*
X66002271Y-88592924D01*
X66559710Y-88592924D01*
X66578831Y-88997303D01*
X66617379Y-89323140D01*
X66675445Y-89540555D01*
X66753121Y-89619666D01*
X66753969Y-89619494D01*
X66831627Y-89554596D01*
X67022127Y-89377136D01*
X67318731Y-89093729D01*
X67714703Y-88710990D01*
X68203305Y-88235534D01*
X68777802Y-87673977D01*
X69431456Y-87032934D01*
X70157531Y-86319021D01*
X70949289Y-85538852D01*
X71799994Y-84699044D01*
X72702909Y-83806211D01*
X73651298Y-82866969D01*
X74638424Y-81887934D01*
X75657549Y-80875720D01*
X75665164Y-80868151D01*
X76689082Y-79850981D01*
X77683900Y-78863720D01*
X78642628Y-77913258D01*
X79558275Y-77006486D01*
X80423849Y-76150294D01*
X81232359Y-75351574D01*
X81976814Y-74617215D01*
X82650222Y-73954110D01*
X83245593Y-73369147D01*
X83755934Y-72869219D01*
X84174256Y-72461216D01*
X84493566Y-72152028D01*
X84706873Y-71948547D01*
X84807186Y-71857662D01*
X85141884Y-71632335D01*
X85768389Y-71360387D01*
X86434350Y-71235071D01*
X87110378Y-71257291D01*
X87767085Y-71427951D01*
X88375080Y-71747955D01*
X88377190Y-71749426D01*
X88503827Y-71856597D01*
X88739533Y-72074518D01*
X89075127Y-72393997D01*
X89501428Y-72805844D01*
X90009255Y-73300869D01*
X90589426Y-73869882D01*
X91232762Y-74503692D01*
X91930080Y-75193108D01*
X92672199Y-75928941D01*
X93449939Y-76702000D01*
X94254117Y-77503094D01*
X95075554Y-78323033D01*
X95905069Y-79152627D01*
X96733479Y-79982686D01*
X97551604Y-80804018D01*
X98350262Y-81607434D01*
X99120274Y-82383742D01*
X99852457Y-83123754D01*
X100537630Y-83818278D01*
X101166613Y-84458124D01*
X101730224Y-85034102D01*
X102219282Y-85537020D01*
X102624607Y-85957690D01*
X102937016Y-86286920D01*
X103147329Y-86515519D01*
X103246365Y-86634299D01*
X103368557Y-86852012D01*
X103545859Y-87309570D01*
X103668538Y-87815402D01*
X103715345Y-88294302D01*
X103700290Y-88528452D01*
X103593879Y-89029098D01*
X103402952Y-89555203D01*
X103148190Y-90043000D01*
X103082553Y-90127720D01*
X102895760Y-90338344D01*
X102604393Y-90651473D01*
X102217734Y-91057825D01*
X101745066Y-91548118D01*
X101195675Y-92113072D01*
X100578841Y-92743403D01*
X99903850Y-93429830D01*
X99179984Y-94163072D01*
X98416527Y-94933846D01*
X97622761Y-95732871D01*
X96807971Y-96550865D01*
X95981440Y-97378546D01*
X95152451Y-98206632D01*
X94330287Y-99025842D01*
X93524232Y-99826894D01*
X92743569Y-100600506D01*
X91997582Y-101337396D01*
X91295553Y-102028282D01*
X90646766Y-102663883D01*
X90060505Y-103234917D01*
X89546053Y-103732101D01*
X89112693Y-104146155D01*
X88769709Y-104467797D01*
X88526384Y-104687744D01*
X88392000Y-104796714D01*
X88333955Y-104834126D01*
X87684521Y-105160609D01*
X87011729Y-105325638D01*
X86287875Y-105336318D01*
X85791970Y-105259752D01*
X85250809Y-105071863D01*
X84733138Y-104761389D01*
X84200339Y-104309333D01*
X84126654Y-104237863D01*
X83782397Y-103857567D01*
X83555427Y-103490914D01*
X83418133Y-103082061D01*
X83342906Y-102575168D01*
X83325396Y-102274892D01*
X83388066Y-101475479D01*
X83613978Y-100720583D01*
X84003290Y-100009783D01*
X84556160Y-99342660D01*
X85027536Y-98863320D01*
X84853068Y-98622993D01*
X84821168Y-98582234D01*
X84661551Y-98401042D01*
X84417486Y-98140550D01*
X84115974Y-97829231D01*
X83784014Y-97495559D01*
X82889429Y-96608451D01*
X82286340Y-97199225D01*
X81798265Y-97727265D01*
X81179553Y-98563931D01*
X80602667Y-99551410D01*
X80454152Y-99812697D01*
X80286593Y-100038891D01*
X80161106Y-100117619D01*
X80119335Y-100097192D01*
X79962778Y-99975116D01*
X79711525Y-99755288D01*
X79380936Y-99451901D01*
X78986373Y-99079149D01*
X78543195Y-98651226D01*
X78066763Y-98182326D01*
X77787765Y-97905397D01*
X77329789Y-97451679D01*
X76915696Y-97042501D01*
X76560710Y-96692848D01*
X76280057Y-96417705D01*
X76088963Y-96232055D01*
X76002654Y-96150884D01*
X75969262Y-96130258D01*
X75836486Y-96115384D01*
X75612822Y-96161019D01*
X75266825Y-96272356D01*
X75141070Y-96312363D01*
X74709542Y-96415450D01*
X74192119Y-96503902D01*
X73638786Y-96572239D01*
X73099528Y-96614979D01*
X72624330Y-96626641D01*
X72263179Y-96601742D01*
X72261410Y-96601467D01*
X72206044Y-96596789D01*
X72172528Y-96607412D01*
X72167910Y-96640738D01*
X72199238Y-96704172D01*
X72273558Y-96805118D01*
X72397918Y-96950980D01*
X72579364Y-97149162D01*
X72824946Y-97407067D01*
X73141708Y-97732101D01*
X73536700Y-98131666D01*
X74016968Y-98613167D01*
X74589560Y-99184008D01*
X75261522Y-99851593D01*
X76039903Y-100623325D01*
X76931749Y-101506609D01*
X77315992Y-101886863D01*
X78083273Y-102645026D01*
X78820501Y-103371997D01*
X79517663Y-104057985D01*
X80164750Y-104693196D01*
X80751750Y-105267839D01*
X81268653Y-105772121D01*
X81705449Y-106196251D01*
X82052126Y-106530436D01*
X82298674Y-106764884D01*
X82435082Y-106889803D01*
X82708475Y-107107945D01*
X83432990Y-107571424D01*
X84235274Y-107951744D01*
X85063480Y-108226486D01*
X85865761Y-108373231D01*
X86124308Y-108399297D01*
X86399469Y-108429041D01*
X86571667Y-108450096D01*
X86610166Y-108454291D01*
X86884162Y-108450195D01*
X87261556Y-108410478D01*
X87692537Y-108342738D01*
X88127294Y-108254571D01*
X88516017Y-108153573D01*
X88907124Y-108023383D01*
X89751781Y-107640280D01*
X90565336Y-107117670D01*
X90632019Y-107062677D01*
X90832682Y-106880196D01*
X91137370Y-106592114D01*
X91536766Y-106207751D01*
X92021552Y-105736427D01*
X92582409Y-105187462D01*
X93210020Y-104570174D01*
X93895067Y-103893883D01*
X94628232Y-103167908D01*
X95400198Y-102401570D01*
X96201646Y-101604187D01*
X97023259Y-100785079D01*
X97855719Y-99953565D01*
X98689707Y-99118965D01*
X99515906Y-98290599D01*
X100324999Y-97477785D01*
X101107667Y-96689844D01*
X101854592Y-95936094D01*
X102556457Y-95225855D01*
X103203944Y-94568448D01*
X103787734Y-93973190D01*
X104298510Y-93449402D01*
X104726955Y-93006402D01*
X105063750Y-92653512D01*
X105299577Y-92400049D01*
X105425119Y-92255334D01*
X105811078Y-91700124D01*
X106286038Y-90781298D01*
X106601918Y-89808681D01*
X106756001Y-88791567D01*
X106745568Y-87739252D01*
X106663660Y-87115231D01*
X106462523Y-86315007D01*
X106145844Y-85548644D01*
X105699647Y-84784100D01*
X105109956Y-83989333D01*
X105088780Y-83963888D01*
X104919634Y-83775560D01*
X104644134Y-83482673D01*
X104271669Y-83094604D01*
X103811630Y-82620728D01*
X103273406Y-82070421D01*
X102666389Y-81453060D01*
X101999967Y-80778019D01*
X101283531Y-80054675D01*
X100526471Y-79292403D01*
X99738178Y-78500580D01*
X98928041Y-77688581D01*
X98105450Y-76865781D01*
X97279796Y-76041557D01*
X96460469Y-75225285D01*
X95656858Y-74426340D01*
X94878355Y-73654097D01*
X94134348Y-72917934D01*
X93434228Y-72227225D01*
X92787386Y-71591347D01*
X92203211Y-71019675D01*
X91691094Y-70521586D01*
X91260424Y-70106454D01*
X90920591Y-69783655D01*
X90680987Y-69562566D01*
X90551000Y-69452563D01*
X90185141Y-69205876D01*
X89415277Y-68784523D01*
X88617771Y-68488470D01*
X87753377Y-68304890D01*
X86782846Y-68220956D01*
X86396545Y-68212771D01*
X85590891Y-68249408D01*
X84876911Y-68374580D01*
X84210759Y-68601578D01*
X83548593Y-68943692D01*
X82846569Y-69414214D01*
X82776765Y-69470726D01*
X82566761Y-69658733D01*
X82252477Y-69952525D01*
X81843268Y-70342775D01*
X81348488Y-70820156D01*
X80777495Y-71375342D01*
X80139642Y-71999005D01*
X79444285Y-72681820D01*
X78700779Y-73414460D01*
X77918480Y-74187598D01*
X77106742Y-74991907D01*
X76274921Y-75818060D01*
X75432372Y-76656732D01*
X74588451Y-77498596D01*
X73752512Y-78334324D01*
X72933911Y-79154591D01*
X72142003Y-79950069D01*
X71386144Y-80711432D01*
X70675688Y-81429353D01*
X70019992Y-82094506D01*
X69428409Y-82697565D01*
X68910296Y-83229201D01*
X68475007Y-83680090D01*
X68131898Y-84040903D01*
X67890324Y-84302315D01*
X67759641Y-84455000D01*
X67432505Y-84938223D01*
X67045725Y-85666650D01*
X66762980Y-86402333D01*
X66752301Y-86438715D01*
X66675662Y-86787597D01*
X66617992Y-87207340D01*
X66579382Y-87668062D01*
X66559924Y-88139884D01*
X66559710Y-88592924D01*
X66002271Y-88592924D01*
X65997667Y-88180333D01*
X65997668Y-88175259D01*
X66005498Y-87610300D01*
X66031224Y-87174102D01*
X66078531Y-86827001D01*
X66151106Y-86529333D01*
X66306239Y-86054151D01*
X66637125Y-85252969D01*
X67024186Y-84568634D01*
X67115453Y-84457174D01*
X67315172Y-84235559D01*
X67611380Y-83916724D01*
X67993385Y-83511636D01*
X68450498Y-83031260D01*
X68972027Y-82486562D01*
X69547283Y-81888510D01*
X70165575Y-81248069D01*
X70816213Y-80576206D01*
X71488507Y-79883887D01*
X72171766Y-79182079D01*
X72855299Y-78481747D01*
X73528417Y-77793859D01*
X74180430Y-77129380D01*
X74800646Y-76499277D01*
X75378375Y-75914516D01*
X75902928Y-75386064D01*
X76363613Y-74924887D01*
X76749741Y-74541951D01*
X77050621Y-74248223D01*
X77255563Y-74054669D01*
X77353876Y-73972255D01*
X77380723Y-73950913D01*
X77518072Y-73824760D01*
X77755680Y-73598164D01*
X78080409Y-73283924D01*
X78479122Y-72894837D01*
X78938682Y-72443700D01*
X79445950Y-71943312D01*
X79987790Y-71406470D01*
X80216682Y-71179731D01*
X80764248Y-70641545D01*
X81283117Y-70137281D01*
X81758163Y-69681286D01*
X82174261Y-69287912D01*
X82516283Y-68971507D01*
X82769105Y-68746423D01*
X82917599Y-68627008D01*
X83059283Y-68540088D01*
X83386214Y-68367764D01*
X83781223Y-68182414D01*
X84187599Y-68011520D01*
X84456082Y-67908321D01*
X84824490Y-67782920D01*
X85148412Y-67704816D01*
X85496315Y-67659110D01*
X85936667Y-67630903D01*
X86098481Y-67624488D01*
X86869277Y-67628199D01*
X87619153Y-67684205D01*
X88300032Y-67787540D01*
X88863836Y-67933238D01*
X88996354Y-67982315D01*
X89344357Y-68132403D01*
X89744439Y-68325033D01*
X90133861Y-68530692D01*
X90236281Y-68588595D01*
X90349375Y-68656216D01*
X90466058Y-68732364D01*
X90593152Y-68823590D01*
X90737482Y-68936444D01*
X90905870Y-69077477D01*
X91105140Y-69253240D01*
X91342115Y-69470283D01*
X91623618Y-69735157D01*
X91956474Y-70054413D01*
X92347504Y-70434601D01*
X92803534Y-70882272D01*
X93331385Y-71403976D01*
X93937881Y-72006264D01*
X94629846Y-72695687D01*
X95414104Y-73478795D01*
X96297476Y-74362139D01*
X97286788Y-75352270D01*
X98388861Y-76455738D01*
X99262485Y-77331551D01*
X100178903Y-78252444D01*
X101058742Y-79138797D01*
X101894426Y-79982883D01*
X102678380Y-80776973D01*
X103403026Y-81513337D01*
X104060789Y-82184247D01*
X104644092Y-82781974D01*
X105145359Y-83298790D01*
X105557014Y-83726964D01*
X105871480Y-84058770D01*
X106081182Y-84286476D01*
X106178543Y-84402356D01*
X106347164Y-84685948D01*
X106573034Y-85141611D01*
X106799465Y-85665618D01*
X107005116Y-86204837D01*
X107168644Y-86706136D01*
X107268707Y-87116383D01*
X107302801Y-87350666D01*
X107346124Y-87940610D01*
X107348121Y-88582045D01*
X107335188Y-88791567D01*
X107309803Y-89202825D01*
X107232176Y-89730806D01*
G37*
G36*
X59627739Y-92032550D02*
G01*
X59721303Y-92180833D01*
X59739719Y-92253250D01*
X59770864Y-92496785D01*
X59708860Y-92631667D01*
X59541834Y-92691690D01*
X59370047Y-92718663D01*
X59249337Y-92739647D01*
X59218576Y-92722080D01*
X59166103Y-92594989D01*
X59127319Y-92401524D01*
X59113587Y-92207942D01*
X59136272Y-92080493D01*
X59237981Y-92019304D01*
X59431122Y-91990333D01*
X59627739Y-92032550D01*
G37*
G36*
X70855686Y-103920235D02*
G01*
X70934788Y-104054294D01*
X70980490Y-104170098D01*
X70958542Y-104263807D01*
X70800212Y-104317083D01*
X70587466Y-104367008D01*
X70315667Y-104434036D01*
X70314848Y-104434245D01*
X70094568Y-104454731D01*
X69955834Y-104366732D01*
X69903170Y-104293543D01*
X69861113Y-104141560D01*
X69964857Y-104029383D01*
X70226159Y-103938384D01*
X70274850Y-103926217D01*
X70568025Y-103863117D01*
X70747534Y-103858816D01*
X70855686Y-103920235D01*
G37*
G36*
X90944548Y-88433461D02*
G01*
X90790578Y-88619901D01*
X90541041Y-88897836D01*
X90210242Y-89252001D01*
X89812487Y-89667132D01*
X89362081Y-90127966D01*
X88873330Y-90619237D01*
X88758216Y-90733916D01*
X88223016Y-91265594D01*
X87791467Y-91690354D01*
X87450628Y-92019521D01*
X87187559Y-92264423D01*
X86989321Y-92436383D01*
X86842972Y-92546728D01*
X86735574Y-92606784D01*
X86654185Y-92627877D01*
X86585866Y-92621331D01*
X86575539Y-92617842D01*
X86437041Y-92524779D01*
X86192972Y-92318777D01*
X85852828Y-92008672D01*
X85426106Y-91603299D01*
X84922304Y-91111494D01*
X84350919Y-90542092D01*
X84237731Y-90428199D01*
X83678415Y-89861676D01*
X83230477Y-89400220D01*
X82884686Y-89033596D01*
X82631808Y-88751568D01*
X82462612Y-88543900D01*
X82367865Y-88400355D01*
X82355221Y-88361967D01*
X82868378Y-88361967D01*
X84550689Y-90055668D01*
X84592709Y-90097953D01*
X85037844Y-90543561D01*
X85452453Y-90954562D01*
X85818875Y-91313752D01*
X86119449Y-91603924D01*
X86336515Y-91807872D01*
X86452410Y-91908391D01*
X86529583Y-91963235D01*
X86648701Y-92018813D01*
X86758459Y-91980512D01*
X86926236Y-91838373D01*
X87048022Y-91721955D01*
X87271730Y-91500774D01*
X87577184Y-91194931D01*
X87945939Y-90822971D01*
X88359550Y-90403437D01*
X88799573Y-89954875D01*
X90418491Y-88300417D01*
X88518348Y-86401681D01*
X86618205Y-84502946D01*
X84916252Y-86193473D01*
X84869983Y-86239455D01*
X84422466Y-86686758D01*
X84008925Y-87104502D01*
X83646700Y-87474842D01*
X83353134Y-87779933D01*
X83145566Y-88001928D01*
X83041338Y-88122983D01*
X82868378Y-88361967D01*
X82355221Y-88361967D01*
X82338334Y-88310697D01*
X82338419Y-88308426D01*
X82401372Y-88190515D01*
X82569780Y-87974239D01*
X82826702Y-87676742D01*
X83155199Y-87315170D01*
X83538331Y-86906665D01*
X83959158Y-86468373D01*
X84400740Y-86017438D01*
X84846137Y-85571004D01*
X85278410Y-85146215D01*
X85680618Y-84760215D01*
X86035821Y-84430150D01*
X86327081Y-84173163D01*
X86537456Y-84006398D01*
X86650006Y-83947000D01*
X86741629Y-83990989D01*
X86953582Y-84156417D01*
X87278302Y-84445103D01*
X87716209Y-84857436D01*
X88267722Y-85393802D01*
X88933260Y-86054587D01*
X89375375Y-86497829D01*
X89856212Y-86983383D01*
X90235374Y-87372171D01*
X90523820Y-87676495D01*
X90732515Y-87908658D01*
X90872419Y-88080963D01*
X90954494Y-88205712D01*
X90989703Y-88295208D01*
X90989648Y-88300417D01*
X90989006Y-88361753D01*
X90944548Y-88433461D01*
G37*
G36*
X101056159Y-67832829D02*
G01*
X100781346Y-68222607D01*
X100375942Y-68549272D01*
X100153746Y-68645132D01*
X99758866Y-68687960D01*
X99344072Y-68613221D01*
X98958464Y-68432113D01*
X98651143Y-68155839D01*
X98553978Y-68019785D01*
X98362684Y-67582796D01*
X98344178Y-67261068D01*
X99008529Y-67261068D01*
X99016730Y-67568116D01*
X99135051Y-67833812D01*
X99369620Y-68020314D01*
X99406397Y-68036755D01*
X99618414Y-68103657D01*
X99803406Y-68078877D01*
X100040443Y-67954679D01*
X100139368Y-67881272D01*
X100357684Y-67629310D01*
X100520246Y-67325051D01*
X100584000Y-67040876D01*
X100573432Y-66930245D01*
X100449641Y-66666375D01*
X100221124Y-66481030D01*
X99931302Y-66400815D01*
X99623590Y-66452337D01*
X99583346Y-66470229D01*
X99297966Y-66674283D01*
X99104318Y-66950510D01*
X99008529Y-67261068D01*
X98344178Y-67261068D01*
X98336804Y-67132877D01*
X98475457Y-66683268D01*
X98777766Y-66247209D01*
X99097515Y-65976579D01*
X99512753Y-65805904D01*
X99950679Y-65789508D01*
X100385245Y-65927730D01*
X100790404Y-66220911D01*
X101048733Y-66556333D01*
X101194686Y-66972541D01*
X101194822Y-67040876D01*
X101195551Y-67407090D01*
X101056159Y-67832829D01*
G37*
G36*
X103550056Y-66973991D02*
G01*
X103886000Y-67302032D01*
X103886000Y-69723510D01*
X104492180Y-69085361D01*
X105098360Y-68447211D01*
X105340192Y-68678902D01*
X105389246Y-68727629D01*
X105518676Y-68879771D01*
X105559513Y-68970562D01*
X105546348Y-68989274D01*
X105440413Y-69113177D01*
X105242958Y-69334101D01*
X104970927Y-69633354D01*
X104641265Y-69992244D01*
X104270916Y-70392079D01*
X103004832Y-71753625D01*
X102768083Y-71526805D01*
X102724165Y-71483876D01*
X102586717Y-71335412D01*
X102531334Y-71250872D01*
X102531348Y-71250424D01*
X102584608Y-71165000D01*
X102721324Y-70991232D01*
X102912334Y-70766218D01*
X103109904Y-70529182D01*
X103229595Y-70336949D01*
X103281845Y-70147390D01*
X103293334Y-69899838D01*
X103291246Y-69785877D01*
X103259104Y-69548471D01*
X103187500Y-69471551D01*
X103082609Y-69492325D01*
X102846555Y-69553563D01*
X102518968Y-69645364D01*
X102136462Y-69757759D01*
X101191258Y-70041415D01*
X100870446Y-69712874D01*
X100742569Y-69577729D01*
X100619912Y-69434845D01*
X100587984Y-69376056D01*
X100619755Y-69368503D01*
X100789150Y-69327441D01*
X101077817Y-69257150D01*
X101456598Y-69164735D01*
X101896334Y-69057299D01*
X103166334Y-68746819D01*
X103214112Y-66645951D01*
X103550056Y-66973991D01*
G37*
G36*
X112665127Y-82637056D02*
G01*
X112691598Y-82765970D01*
X112729669Y-82984035D01*
X112787349Y-83333404D01*
X112379508Y-83389376D01*
X112288639Y-83401836D01*
X111929953Y-83450888D01*
X111603425Y-83495381D01*
X111479540Y-83513334D01*
X111317406Y-83556389D01*
X111265296Y-83635224D01*
X111283314Y-83786067D01*
X111311646Y-83958056D01*
X111351365Y-84255766D01*
X111388909Y-84587606D01*
X111405371Y-84745523D01*
X111437442Y-84976683D01*
X111481521Y-85089948D01*
X111557527Y-85119792D01*
X111685380Y-85100690D01*
X111845726Y-85074029D01*
X112139497Y-85034492D01*
X112467283Y-84997268D01*
X113010178Y-84941646D01*
X113043273Y-85288674D01*
X113076367Y-85635701D01*
X112735684Y-85686458D01*
X112631028Y-85701787D01*
X112347175Y-85742620D01*
X111955593Y-85798442D01*
X111493472Y-85863959D01*
X110998000Y-85933875D01*
X110668587Y-85979256D01*
X110220325Y-86037652D01*
X109843365Y-86082804D01*
X109569786Y-86110934D01*
X109431667Y-86118267D01*
X109345348Y-86096008D01*
X109271423Y-85990775D01*
X109236990Y-85760314D01*
X109211647Y-85414628D01*
X109988808Y-85318941D01*
X110169889Y-85295534D01*
X110485593Y-85248719D01*
X110713186Y-85206781D01*
X110812576Y-85176646D01*
X110813615Y-85175275D01*
X110819205Y-85072642D01*
X110805732Y-84852554D01*
X110778540Y-84562283D01*
X110742972Y-84249107D01*
X110704372Y-83960299D01*
X110668082Y-83743135D01*
X110639446Y-83644890D01*
X110605384Y-83642429D01*
X110436041Y-83655426D01*
X110158935Y-83686678D01*
X109811753Y-83732207D01*
X109601359Y-83760822D01*
X109292451Y-83800242D01*
X109076584Y-83824336D01*
X108991044Y-83828721D01*
X108984646Y-83812716D01*
X108955330Y-83678766D01*
X108916723Y-83456988D01*
X108895183Y-83288117D01*
X108906399Y-83140631D01*
X108976346Y-83097665D01*
X108995538Y-83096315D01*
X109157887Y-83078069D01*
X109453178Y-83041250D01*
X109854841Y-82989282D01*
X110336305Y-82925586D01*
X110871000Y-82853587D01*
X111058321Y-82828224D01*
X111566661Y-82760157D01*
X112005650Y-82702478D01*
X112350686Y-82658353D01*
X112577168Y-82630946D01*
X112660495Y-82623421D01*
X112665127Y-82637056D01*
G37*
G36*
X107889907Y-96159607D02*
G01*
X108106673Y-96234639D01*
X108429924Y-96354812D01*
X108832033Y-96509814D01*
X109285373Y-96689333D01*
X109663521Y-96839895D01*
X110070820Y-96999435D01*
X110401643Y-97126070D01*
X110629175Y-97209560D01*
X110726597Y-97239666D01*
X110760977Y-97212730D01*
X110845309Y-97067140D01*
X110940821Y-96837500D01*
X111035514Y-96581904D01*
X111129895Y-96372685D01*
X111217395Y-96277849D01*
X111325368Y-96271615D01*
X111481169Y-96328199D01*
X111740016Y-96437036D01*
X111180599Y-97843297D01*
X110621181Y-99249557D01*
X110386102Y-99167608D01*
X110213979Y-99095449D01*
X110116728Y-99030169D01*
X110125188Y-98942717D01*
X110185807Y-98740854D01*
X110286138Y-98473983D01*
X110381904Y-98230266D01*
X110450441Y-98037806D01*
X110468755Y-97958610D01*
X110393129Y-97926646D01*
X110184053Y-97841853D01*
X109866810Y-97714464D01*
X109466528Y-97554568D01*
X109008334Y-97372253D01*
X108568600Y-97196786D01*
X108163735Y-97033579D01*
X107840348Y-96901438D01*
X107623787Y-96810722D01*
X107539396Y-96771793D01*
X107528128Y-96725397D01*
X107562415Y-96569380D01*
X107640155Y-96374961D01*
X107732588Y-96209160D01*
X107810951Y-96139000D01*
X107889907Y-96159607D01*
G37*
G36*
X80742122Y-62142246D02*
G01*
X80784101Y-62290100D01*
X80845772Y-62557095D01*
X80920225Y-62907644D01*
X81000547Y-63306162D01*
X81079829Y-63717060D01*
X81151158Y-64104755D01*
X81207626Y-64433658D01*
X81242319Y-64668184D01*
X81248328Y-64772747D01*
X81155293Y-64858509D01*
X80967501Y-64920541D01*
X80793345Y-64948367D01*
X80685726Y-64968980D01*
X80679902Y-64965779D01*
X80646945Y-64881485D01*
X80592322Y-64676667D01*
X80513948Y-64342178D01*
X80409734Y-63868869D01*
X80277594Y-63247593D01*
X80115442Y-62469202D01*
X80111013Y-62361061D01*
X80190035Y-62270895D01*
X80398754Y-62196330D01*
X80466182Y-62178216D01*
X80652570Y-62134640D01*
X80734415Y-62126461D01*
X80742122Y-62142246D01*
G37*
G36*
X65636885Y-69607134D02*
G01*
X65779983Y-69690373D01*
X66011492Y-69854372D01*
X66305842Y-70078336D01*
X66637465Y-70341467D01*
X66980792Y-70622966D01*
X67310254Y-70902037D01*
X67600283Y-71157882D01*
X67825309Y-71369704D01*
X67959765Y-71516705D01*
X67962236Y-71520009D01*
X68090784Y-71727835D01*
X68142033Y-71939593D01*
X68135689Y-72235839D01*
X68131795Y-72281028D01*
X68079736Y-72566923D01*
X67964609Y-72826692D01*
X67756295Y-73131428D01*
X67566744Y-73356183D01*
X67328886Y-73585824D01*
X67127763Y-73728161D01*
X66994580Y-73788195D01*
X66768819Y-73853960D01*
X66541010Y-73859041D01*
X66290578Y-73794605D01*
X65996947Y-73651822D01*
X65639540Y-73421857D01*
X65197781Y-73095880D01*
X64651095Y-72665058D01*
X64595767Y-72620673D01*
X64280422Y-72367862D01*
X64019970Y-72159324D01*
X63840129Y-72015637D01*
X63766617Y-71957377D01*
X63767942Y-71937862D01*
X63834501Y-71819714D01*
X63965527Y-71635709D01*
X64194155Y-71335963D01*
X65053578Y-72037461D01*
X65382007Y-72304343D01*
X65763412Y-72608043D01*
X66051477Y-72825510D01*
X66267355Y-72970574D01*
X66432199Y-73057068D01*
X66567162Y-73098822D01*
X66693397Y-73109666D01*
X66854589Y-73078922D01*
X67109910Y-72922744D01*
X67321737Y-72674914D01*
X67442998Y-72381181D01*
X67452933Y-72310525D01*
X67438230Y-72155524D01*
X67360661Y-71988640D01*
X67205236Y-71792570D01*
X66956966Y-71550013D01*
X66600862Y-71243666D01*
X66121936Y-70856226D01*
X65199023Y-70122151D01*
X65369454Y-69882802D01*
X65383578Y-69863140D01*
X65515702Y-69694199D01*
X65606292Y-69602412D01*
X65636885Y-69607134D01*
G37*
G36*
X108903670Y-75755031D02*
G01*
X109065042Y-75835717D01*
X109270148Y-76021547D01*
X109279954Y-76031360D01*
X109447610Y-76211032D01*
X109532438Y-76360581D01*
X109556619Y-76546232D01*
X109542331Y-76834207D01*
X109540946Y-76853418D01*
X109525736Y-77123578D01*
X109537673Y-77262879D01*
X109588224Y-77307170D01*
X109688856Y-77292300D01*
X109767605Y-77280947D01*
X109884265Y-77335583D01*
X109985982Y-77521944D01*
X109996074Y-77547080D01*
X110046238Y-77736733D01*
X110019897Y-77827291D01*
X109991017Y-77839574D01*
X109829601Y-77912975D01*
X109557365Y-78039103D01*
X109203367Y-78204460D01*
X108796667Y-78395547D01*
X108600006Y-78487361D01*
X108219554Y-78659862D01*
X107907593Y-78794440D01*
X107692134Y-78879221D01*
X107601191Y-78902329D01*
X107584717Y-78887404D01*
X107510649Y-78764274D01*
X107430990Y-78582878D01*
X107373791Y-78412640D01*
X107367104Y-78322984D01*
X107421045Y-78292487D01*
X107601793Y-78201286D01*
X107877016Y-78066870D01*
X108213560Y-77905589D01*
X108389889Y-77820703D01*
X108716815Y-77651417D01*
X108930112Y-77514387D01*
X109060527Y-77387824D01*
X109138811Y-77249937D01*
X109184189Y-77127949D01*
X109202834Y-76946935D01*
X109126581Y-76759881D01*
X109104889Y-76723310D01*
X108976072Y-76585094D01*
X108799333Y-76529015D01*
X108550786Y-76557029D01*
X108206548Y-76671091D01*
X107742732Y-76873154D01*
X107466357Y-76999859D01*
X107165605Y-77133581D01*
X106949521Y-77224676D01*
X106852344Y-77258333D01*
X106798345Y-77215690D01*
X106708838Y-77070429D01*
X106629529Y-76888567D01*
X106595334Y-76740458D01*
X106596141Y-76735865D01*
X106682877Y-76659313D01*
X106888416Y-76537123D01*
X107178149Y-76385604D01*
X107517471Y-76221063D01*
X107871774Y-76059808D01*
X108206450Y-75918146D01*
X108486892Y-75812385D01*
X108678493Y-75758833D01*
X108724361Y-75752105D01*
X108903670Y-75755031D01*
G37*
G36*
X69101788Y-105254431D02*
G01*
X69325903Y-105478449D01*
X69687078Y-105842558D01*
X69947751Y-106113280D01*
X70121307Y-106307543D01*
X70221132Y-106442274D01*
X70260613Y-106534404D01*
X70253134Y-106600860D01*
X70212083Y-106658570D01*
X70193675Y-106678204D01*
X70132868Y-106721895D01*
X70058281Y-106719104D01*
X69948884Y-106655020D01*
X69783646Y-106514832D01*
X69541537Y-106283730D01*
X69201525Y-105946903D01*
X69065717Y-105812528D01*
X68771280Y-105528369D01*
X68529413Y-105304846D01*
X68362162Y-105162000D01*
X68291576Y-105119868D01*
X68295356Y-105193005D01*
X68350671Y-105382923D01*
X68447324Y-105641416D01*
X68475123Y-105709951D01*
X68566617Y-105949581D01*
X68596393Y-106090839D01*
X68567019Y-106181559D01*
X68481067Y-106269578D01*
X68454193Y-106294798D01*
X68410220Y-106356161D01*
X68412853Y-106430591D01*
X68476810Y-106539331D01*
X68616807Y-106703624D01*
X68847564Y-106944710D01*
X69183796Y-107283833D01*
X69397107Y-107499150D01*
X69672912Y-107786014D01*
X69849899Y-107987907D01*
X69943162Y-108124810D01*
X69967794Y-108216707D01*
X69938887Y-108283582D01*
X69867040Y-108358456D01*
X69774545Y-108415666D01*
X69760346Y-108408536D01*
X69648260Y-108314836D01*
X69448434Y-108129431D01*
X69183806Y-107873940D01*
X68877311Y-107569980D01*
X68034798Y-106724294D01*
X67714733Y-107036830D01*
X67594122Y-107159771D01*
X67450628Y-107325173D01*
X67394667Y-107419077D01*
X67437393Y-107494094D01*
X67572492Y-107656227D01*
X67767873Y-107861995D01*
X68141080Y-108235202D01*
X67880892Y-108325903D01*
X67783447Y-108356314D01*
X67607278Y-108364517D01*
X67452958Y-108267969D01*
X67325556Y-108138051D01*
X67149152Y-107926059D01*
X66979691Y-107697516D01*
X66852273Y-107500202D01*
X66802000Y-107381895D01*
X66803528Y-107373850D01*
X66874410Y-107263092D01*
X67030031Y-107073305D01*
X67241205Y-106840469D01*
X67680410Y-106376075D01*
X66817084Y-105509801D01*
X66727557Y-105419890D01*
X66417649Y-105105289D01*
X66209899Y-104883261D01*
X66089307Y-104732603D01*
X66040872Y-104632111D01*
X66049595Y-104560581D01*
X66100477Y-104496809D01*
X66116156Y-104481605D01*
X66179827Y-104439468D01*
X66256335Y-104443047D01*
X66366868Y-104507339D01*
X66532612Y-104647337D01*
X66774757Y-104878037D01*
X67114488Y-105214432D01*
X67248064Y-105346410D01*
X67543259Y-105629401D01*
X67786880Y-105850956D01*
X67956636Y-105991215D01*
X68030237Y-106030318D01*
X68032311Y-105981004D01*
X67993603Y-105798376D01*
X67913664Y-105517139D01*
X67802134Y-105173495D01*
X67740596Y-104993152D01*
X67639779Y-104685716D01*
X67588245Y-104486885D01*
X67581885Y-104360994D01*
X67616587Y-104272380D01*
X67688241Y-104185382D01*
X67850908Y-104005637D01*
X69101788Y-105254431D01*
G37*
G36*
X70014143Y-90429432D02*
G01*
X70335916Y-90794628D01*
X70777386Y-91169153D01*
X71263990Y-91489027D01*
X71733963Y-91708320D01*
X71981762Y-91778418D01*
X72421605Y-91842056D01*
X72982667Y-91860893D01*
X73291122Y-91852931D01*
X73747194Y-91800090D01*
X74152937Y-91683016D01*
X74547287Y-91484637D01*
X74969176Y-91187880D01*
X75457541Y-90775672D01*
X76179654Y-90133199D01*
X77974208Y-92055303D01*
X77273785Y-92721318D01*
X77254331Y-92739765D01*
X76492444Y-93379658D01*
X75713546Y-93866303D01*
X74888568Y-94214914D01*
X73988442Y-94440703D01*
X73535545Y-94489871D01*
X72947262Y-94497532D01*
X72325365Y-94461189D01*
X71736421Y-94384916D01*
X71247000Y-94272793D01*
X70992611Y-94189779D01*
X70109175Y-93813849D01*
X69324466Y-93323884D01*
X68601167Y-92697670D01*
X68341098Y-92433682D01*
X68113492Y-92191983D01*
X67959365Y-92015810D01*
X67902667Y-91931437D01*
X67918448Y-91902580D01*
X68029988Y-91768493D01*
X68230871Y-91549880D01*
X68500276Y-91269114D01*
X68817382Y-90948567D01*
X69732096Y-90036689D01*
X70014143Y-90429432D01*
G37*
G36*
X74838314Y-67190011D02*
G01*
X74552140Y-67369077D01*
X74220953Y-67484480D01*
X73918334Y-67504242D01*
X73790478Y-67490382D01*
X73697555Y-67516268D01*
X73706345Y-67618969D01*
X73713778Y-67651190D01*
X73668042Y-67790965D01*
X73477254Y-67940779D01*
X73199614Y-68109621D01*
X73069974Y-67788415D01*
X73030241Y-67697144D01*
X72899671Y-67427480D01*
X72724532Y-67088599D01*
X72531403Y-66732607D01*
X72490727Y-66658856D01*
X72457648Y-66592316D01*
X73236667Y-66592316D01*
X73236742Y-66594205D01*
X73287478Y-66699768D01*
X73403958Y-66864839D01*
X73556251Y-67021822D01*
X73801414Y-67123578D01*
X74104673Y-67077440D01*
X74115449Y-67073696D01*
X74307597Y-66940471D01*
X74395409Y-66750537D01*
X74381763Y-66553480D01*
X74269541Y-66398884D01*
X74061623Y-66336333D01*
X73951794Y-66345261D01*
X73725635Y-66390796D01*
X73492523Y-66459108D01*
X73310265Y-66532260D01*
X73236667Y-66592316D01*
X72457648Y-66592316D01*
X72284577Y-66244171D01*
X72183281Y-65928579D01*
X72186264Y-65683146D01*
X72292954Y-65478934D01*
X72502778Y-65287007D01*
X72913646Y-65021371D01*
X73356724Y-64845328D01*
X73745651Y-64821128D01*
X74073298Y-64950300D01*
X74270273Y-65088267D01*
X74028880Y-65280747D01*
X73979249Y-65318855D01*
X73790367Y-65417241D01*
X73638093Y-65393275D01*
X73467730Y-65364083D01*
X73199899Y-65450367D01*
X72952677Y-65607236D01*
X72850109Y-65789854D01*
X72901691Y-66004563D01*
X72937325Y-66059470D01*
X73026794Y-66118409D01*
X73174629Y-66120100D01*
X73413600Y-66062216D01*
X73776479Y-65942430D01*
X73845386Y-65919394D01*
X74269445Y-65832072D01*
X74606270Y-65875452D01*
X74876122Y-66051545D01*
X74905297Y-66082465D01*
X75068645Y-66381622D01*
X75092135Y-66721743D01*
X75081363Y-66750537D01*
X74970471Y-67046960D01*
X74838314Y-67190011D01*
G37*
G36*
X80455017Y-61146738D02*
G01*
X80569805Y-61266576D01*
X80582267Y-61509931D01*
X80578589Y-61538536D01*
X80502039Y-61693506D01*
X80306334Y-61770236D01*
X80225604Y-61784517D01*
X80048747Y-61784336D01*
X79952273Y-61687705D01*
X79887774Y-61458584D01*
X79877318Y-61407278D01*
X79867909Y-61258883D01*
X79945464Y-61187179D01*
X80150540Y-61143537D01*
X80218533Y-61133979D01*
X80455017Y-61146738D01*
G37*
G36*
X98144442Y-110760990D02*
G01*
X98054540Y-110832180D01*
X97867572Y-110814547D01*
X97608537Y-110762740D01*
X97732457Y-111049703D01*
X97806687Y-111217881D01*
X97904646Y-111434378D01*
X97942023Y-111516984D01*
X98087096Y-111831583D01*
X98126449Y-111917169D01*
X98220262Y-112150538D01*
X98258510Y-112343415D01*
X98226888Y-112511091D01*
X98111088Y-112668858D01*
X97896806Y-112832008D01*
X97569735Y-113015834D01*
X97115568Y-113235627D01*
X96520000Y-113506679D01*
X96353044Y-113580574D01*
X96047718Y-113709165D01*
X95815180Y-113798406D01*
X95695836Y-113832330D01*
X95660004Y-113824571D01*
X95506795Y-113737721D01*
X95314836Y-113585103D01*
X95038334Y-113335874D01*
X95238745Y-113140603D01*
X95264074Y-113116439D01*
X95408001Y-113014977D01*
X95478958Y-113052136D01*
X95501588Y-113105018D01*
X95594497Y-113216723D01*
X95742277Y-113254611D01*
X95967819Y-113215879D01*
X96294016Y-113097727D01*
X96743762Y-112897352D01*
X97096545Y-112727451D01*
X97403762Y-112569368D01*
X97621909Y-112445702D01*
X97718315Y-112373996D01*
X97724811Y-112237827D01*
X97657055Y-112044836D01*
X97536474Y-111811658D01*
X96668404Y-112229112D01*
X96352837Y-112379056D01*
X96051806Y-112518084D01*
X95837073Y-112612620D01*
X95741582Y-112647782D01*
X95682147Y-112580838D01*
X95578274Y-112397600D01*
X95453808Y-112138671D01*
X95224786Y-111628343D01*
X94981336Y-112054608D01*
X94964935Y-112083305D01*
X94830984Y-112307132D01*
X94739261Y-112409700D01*
X94652907Y-112415238D01*
X94535063Y-112347979D01*
X94332240Y-112215084D01*
X94574769Y-111818208D01*
X94585360Y-111800632D01*
X94693873Y-111587627D01*
X95758000Y-111587627D01*
X95784468Y-111671189D01*
X95856257Y-111840682D01*
X95937466Y-111986805D01*
X96004424Y-112049056D01*
X96013236Y-112046616D01*
X96135248Y-111995430D01*
X96360071Y-111892440D01*
X96647000Y-111756197D01*
X96706337Y-111727643D01*
X96989764Y-111592332D01*
X97206761Y-111490460D01*
X97314358Y-111442243D01*
X97324380Y-111434378D01*
X97321998Y-111326158D01*
X97248745Y-111142554D01*
X97108440Y-110871235D01*
X96433220Y-111210729D01*
X96288479Y-111284374D01*
X96016533Y-111428260D01*
X95828325Y-111535697D01*
X95758000Y-111587627D01*
X94693873Y-111587627D01*
X94712756Y-111550561D01*
X94818060Y-111280942D01*
X94849755Y-111170544D01*
X95348449Y-111170544D01*
X95396692Y-111189506D01*
X95526925Y-111150740D01*
X95762253Y-111048142D01*
X96125779Y-110875612D01*
X96789890Y-110555964D01*
X96163278Y-110168696D01*
X95791306Y-110349414D01*
X95601472Y-110452929D01*
X95458985Y-110583830D01*
X95419334Y-110735974D01*
X95409205Y-110884710D01*
X95367942Y-111075741D01*
X95359091Y-111099953D01*
X95348449Y-111170544D01*
X94849755Y-111170544D01*
X94888691Y-111034928D01*
X94912068Y-110855674D01*
X94875608Y-110786333D01*
X94821685Y-110802864D01*
X94649273Y-110878095D01*
X94412088Y-110993563D01*
X94003139Y-111200794D01*
X93906608Y-110988933D01*
X93869806Y-110898774D01*
X93869751Y-110798694D01*
X93966976Y-110715219D01*
X94191373Y-110608407D01*
X94413840Y-110502304D01*
X94539351Y-110398755D01*
X94551561Y-110270033D01*
X94474410Y-110070650D01*
X94398434Y-109929668D01*
X94304825Y-109869272D01*
X94155048Y-109900760D01*
X93903624Y-110020103D01*
X93579994Y-110185207D01*
X93486677Y-109980399D01*
X93453196Y-109898005D01*
X93453252Y-109798132D01*
X93550517Y-109714047D01*
X93687151Y-109648756D01*
X94826667Y-109648756D01*
X94826946Y-109652277D01*
X94867478Y-109760656D01*
X94955841Y-109943871D01*
X94967307Y-109965880D01*
X95056934Y-110125805D01*
X95104008Y-110188515D01*
X95175546Y-110156143D01*
X95352646Y-110071418D01*
X95583652Y-109959284D01*
X95817621Y-109844602D01*
X96003609Y-109752230D01*
X96090675Y-109707028D01*
X96095087Y-109696239D01*
X96067043Y-109580609D01*
X95985477Y-109386730D01*
X95843938Y-109089920D01*
X95335303Y-109346679D01*
X95334667Y-109347000D01*
X95078759Y-109482410D01*
X94896268Y-109590809D01*
X94826667Y-109648756D01*
X93687151Y-109648756D01*
X93775120Y-109606720D01*
X94156880Y-109437850D01*
X94018902Y-109171030D01*
X94008903Y-109151442D01*
X93935762Y-108940975D01*
X93994325Y-108811010D01*
X94201667Y-108719354D01*
X94274396Y-108704368D01*
X94390379Y-108748757D01*
X94488934Y-108925920D01*
X94499670Y-108950629D01*
X94599105Y-109105248D01*
X94690601Y-109147226D01*
X94764309Y-109116189D01*
X94964331Y-109031701D01*
X95223198Y-108922199D01*
X95662062Y-108736441D01*
X95522631Y-108444050D01*
X95443489Y-108258981D01*
X95435166Y-108145679D01*
X95507100Y-108073292D01*
X95667942Y-108002964D01*
X95826736Y-108046632D01*
X95969917Y-108246817D01*
X96101516Y-108501301D01*
X96453085Y-108321943D01*
X96592567Y-108252224D01*
X96748052Y-108192230D01*
X96838224Y-108207612D01*
X96916327Y-108295309D01*
X96987902Y-108402198D01*
X97009763Y-108509672D01*
X96917468Y-108599671D01*
X96689334Y-108712000D01*
X96513185Y-108795853D01*
X96384409Y-108894571D01*
X96371095Y-109017630D01*
X96448924Y-109216016D01*
X96452285Y-109223372D01*
X96532233Y-109366477D01*
X96627306Y-109417672D01*
X96781692Y-109379981D01*
X97039578Y-109256426D01*
X97251423Y-109151264D01*
X97373778Y-109118197D01*
X97436815Y-109173488D01*
X97488395Y-109324385D01*
X97499231Y-109364964D01*
X97491356Y-109478129D01*
X97389008Y-109577949D01*
X97169256Y-109696239D01*
X97160246Y-109701089D01*
X97020994Y-109772632D01*
X96843440Y-109879723D01*
X96774000Y-109946266D01*
X96832085Y-110012890D01*
X97027151Y-110103307D01*
X97327288Y-110195928D01*
X97698876Y-110278669D01*
X97886542Y-110316227D01*
X98098165Y-110366810D01*
X98195878Y-110401988D01*
X98207422Y-110480308D01*
X98195474Y-110555964D01*
X98180139Y-110653067D01*
X98144442Y-110760990D01*
G37*
G36*
X69153003Y-102396982D02*
G01*
X69179605Y-102404358D01*
X69283622Y-102450923D01*
X69341131Y-102541765D01*
X69366982Y-102718565D01*
X69376023Y-103023006D01*
X69377009Y-103163258D01*
X69366508Y-103414606D01*
X69333116Y-103534142D01*
X69271576Y-103548304D01*
X69230006Y-103534532D01*
X69049326Y-103505000D01*
X68975528Y-103465346D01*
X68902374Y-103293564D01*
X68872003Y-103020968D01*
X68891820Y-102686057D01*
X68902403Y-102610448D01*
X68943213Y-102433295D01*
X69015016Y-102375123D01*
X69153003Y-102396982D01*
G37*
G36*
X61620544Y-76962000D02*
G01*
X61494790Y-77274720D01*
X61369035Y-77587441D01*
X61079851Y-77449539D01*
X60911108Y-77365849D01*
X60817701Y-77280970D01*
X60833401Y-77160949D01*
X60942383Y-76948069D01*
X61087000Y-76680138D01*
X61620544Y-76962000D01*
G37*
G36*
X109331043Y-92030397D02*
G01*
X109662979Y-92102023D01*
X110132744Y-92217371D01*
X110672488Y-92371596D01*
X111063789Y-92532773D01*
X111321302Y-92712541D01*
X111462786Y-92923320D01*
X111506000Y-93177524D01*
X111505986Y-93182806D01*
X111440743Y-93551498D01*
X111270883Y-93884909D01*
X111029221Y-94118287D01*
X110807399Y-94252880D01*
X111431867Y-94398593D01*
X111477774Y-94409324D01*
X111786691Y-94482493D01*
X112028628Y-94541380D01*
X112154578Y-94574084D01*
X112183057Y-94589958D01*
X112211338Y-94701017D01*
X112168618Y-94935600D01*
X112084414Y-95267339D01*
X110885040Y-94980471D01*
X110805632Y-94961484D01*
X110306420Y-94842342D01*
X109811993Y-94724676D01*
X109375644Y-94621152D01*
X109050667Y-94544440D01*
X108821117Y-94489427D01*
X108593139Y-94423925D01*
X108474819Y-94359861D01*
X108432801Y-94275960D01*
X108433732Y-94150949D01*
X108446484Y-94001992D01*
X108479988Y-93855158D01*
X108558324Y-93779998D01*
X108711420Y-93768590D01*
X108969204Y-93813013D01*
X109361605Y-93905345D01*
X109783202Y-94005545D01*
X110089113Y-94068969D01*
X110298428Y-94092602D01*
X110445491Y-94077120D01*
X110564650Y-94023201D01*
X110690249Y-93931521D01*
X110806126Y-93813578D01*
X110910505Y-93571610D01*
X110883430Y-93330822D01*
X110722834Y-93141341D01*
X110654742Y-93106952D01*
X110422948Y-93022702D01*
X110098098Y-92926698D01*
X109728000Y-92833723D01*
X109515338Y-92783324D01*
X109196833Y-92701272D01*
X108964946Y-92632984D01*
X108859109Y-92589541D01*
X108856185Y-92586509D01*
X108829227Y-92463201D01*
X108848525Y-92260208D01*
X108861787Y-92198464D01*
X108902309Y-92086528D01*
X108976698Y-92021783D01*
X109110946Y-92003361D01*
X109331043Y-92030397D01*
G37*
G36*
X84390899Y-64263115D02*
G01*
X84112238Y-64438501D01*
X83855417Y-64524675D01*
X83519956Y-64542273D01*
X83187337Y-64426063D01*
X83057880Y-64364150D01*
X82932867Y-64343258D01*
X82848670Y-64412849D01*
X82798026Y-64469202D01*
X82634667Y-64580247D01*
X82531713Y-64608909D01*
X82319284Y-64636315D01*
X82226937Y-64632387D01*
X82162538Y-64570344D01*
X82180169Y-64396657D01*
X82190177Y-64281103D01*
X82186860Y-64006093D01*
X82164870Y-63644463D01*
X82134382Y-63326774D01*
X82804000Y-63326774D01*
X82811685Y-63407346D01*
X82876186Y-63633649D01*
X82978423Y-63852301D01*
X83084464Y-63983813D01*
X83170101Y-64019832D01*
X83399629Y-64047302D01*
X83639608Y-64022187D01*
X83803067Y-63948733D01*
X83820944Y-63929057D01*
X83898105Y-63737413D01*
X83874404Y-63530213D01*
X83756500Y-63387709D01*
X83698421Y-63364195D01*
X83479045Y-63306475D01*
X83206167Y-63259350D01*
X82976634Y-63237942D01*
X82841282Y-63256703D01*
X82804000Y-63326774D01*
X82134382Y-63326774D01*
X82126434Y-63243951D01*
X82109849Y-63096666D01*
X82073370Y-62738231D01*
X82060969Y-62498239D01*
X82074720Y-62339243D01*
X82116695Y-62223799D01*
X82188969Y-62114460D01*
X82259748Y-62032983D01*
X82570107Y-61829751D01*
X82986605Y-61715745D01*
X83474390Y-61702145D01*
X83537310Y-61707495D01*
X83811298Y-61752231D01*
X84002940Y-61845779D01*
X84185841Y-62021142D01*
X84438570Y-62303994D01*
X84108118Y-62398563D01*
X83891450Y-62449154D01*
X83761528Y-62433563D01*
X83667033Y-62340399D01*
X83647631Y-62316428D01*
X83459750Y-62211904D01*
X83218116Y-62204460D01*
X82977591Y-62278544D01*
X82793042Y-62418599D01*
X82719334Y-62609073D01*
X82719482Y-62619319D01*
X82741785Y-62702835D01*
X82821445Y-62764931D01*
X82986324Y-62814295D01*
X83264286Y-62859612D01*
X83683194Y-62909569D01*
X83987189Y-62963819D01*
X84322531Y-63111971D01*
X84518356Y-63345643D01*
X84582000Y-63671050D01*
X84573858Y-63737413D01*
X84540731Y-64007428D01*
X84390899Y-64263115D01*
G37*
G36*
X76062220Y-107748826D02*
G01*
X76275795Y-107846138D01*
X76064458Y-108263191D01*
X75902698Y-108578694D01*
X75799245Y-108808931D01*
X75771989Y-108975984D01*
X75835096Y-109109291D01*
X76002732Y-109238291D01*
X76289061Y-109392422D01*
X76708249Y-109601124D01*
X76812608Y-109653467D01*
X77188705Y-109844367D01*
X77439640Y-109980737D01*
X77587026Y-110079554D01*
X77652476Y-110157795D01*
X77657605Y-110232437D01*
X77624024Y-110320457D01*
X77538967Y-110463939D01*
X77453448Y-110532333D01*
X77354989Y-110495029D01*
X77139293Y-110392455D01*
X76838540Y-110240373D01*
X76484692Y-110054546D01*
X76316742Y-109964974D01*
X75962967Y-109783434D01*
X75723566Y-109688171D01*
X75572890Y-109684332D01*
X75485292Y-109777063D01*
X75435121Y-109971510D01*
X75396730Y-110272818D01*
X75380352Y-110494795D01*
X75416962Y-111159936D01*
X75566248Y-111890635D01*
X75821438Y-112649000D01*
X75931646Y-112927142D01*
X76018692Y-113172145D01*
X76050015Y-113322256D01*
X76031770Y-113411649D01*
X75970112Y-113474500D01*
X75891102Y-113527698D01*
X75758739Y-113565597D01*
X75642111Y-113496996D01*
X75519376Y-113303447D01*
X75368691Y-112966500D01*
X75274955Y-112729458D01*
X75062685Y-112033756D01*
X74956832Y-111335677D01*
X74944468Y-110561939D01*
X74972334Y-109787212D01*
X74676000Y-110037164D01*
X74573328Y-110122069D01*
X73741238Y-110695953D01*
X72856008Y-111114053D01*
X71928603Y-111371045D01*
X71701806Y-111410273D01*
X71496262Y-111439200D01*
X71408880Y-111442101D01*
X71380713Y-111371936D01*
X71332997Y-111202775D01*
X71313856Y-111103895D01*
X71335376Y-111027894D01*
X71431537Y-110971297D01*
X71632909Y-110917092D01*
X71970063Y-110848267D01*
X72171841Y-110804460D01*
X72994791Y-110538267D01*
X73742087Y-110154264D01*
X74377606Y-109670128D01*
X74875639Y-109206560D01*
X73847167Y-108682213D01*
X73725850Y-108620316D01*
X73351385Y-108426814D01*
X73101117Y-108288338D01*
X72953658Y-108188058D01*
X72887622Y-108109145D01*
X72881622Y-108034769D01*
X72914271Y-107948100D01*
X72995201Y-107806421D01*
X73071835Y-107738333D01*
X73087817Y-107742635D01*
X73224910Y-107803057D01*
X73473268Y-107923702D01*
X73804065Y-108090361D01*
X74188477Y-108288822D01*
X75243131Y-108839312D01*
X75477606Y-108287614D01*
X75484464Y-108271527D01*
X75609380Y-107994907D01*
X75715452Y-107787710D01*
X75780363Y-107693716D01*
X75882945Y-107690928D01*
X76062220Y-107748826D01*
G37*
G36*
X62124385Y-77183067D02*
G01*
X62301474Y-77246777D01*
X62588882Y-77360720D01*
X62957466Y-77513200D01*
X63378081Y-77692524D01*
X64578515Y-78211381D01*
X64450678Y-78536824D01*
X64417306Y-78616704D01*
X64330456Y-78780972D01*
X64271254Y-78832070D01*
X64249346Y-78821495D01*
X64099367Y-78755197D01*
X63834627Y-78640843D01*
X63484077Y-78490896D01*
X63076667Y-78317817D01*
X62901748Y-78243356D01*
X62512234Y-78074601D01*
X62190645Y-77931196D01*
X61966434Y-77826415D01*
X61869056Y-77773536D01*
X61854487Y-77749908D01*
X61855720Y-77605542D01*
X61911814Y-77413495D01*
X61996899Y-77245594D01*
X62085106Y-77173666D01*
X62124385Y-77183067D01*
G37*
G36*
X86666501Y-68499630D02*
G01*
X87169795Y-68503992D01*
X87547455Y-68516059D01*
X87839577Y-68540620D01*
X88086256Y-68582466D01*
X88327588Y-68646388D01*
X88603667Y-68737176D01*
X88689993Y-68766870D01*
X88896145Y-68838368D01*
X89086567Y-68908574D01*
X89268803Y-68984192D01*
X89450397Y-69071928D01*
X89638895Y-69178487D01*
X89841842Y-69310575D01*
X90066781Y-69474895D01*
X90321257Y-69678154D01*
X90612816Y-69927056D01*
X90949001Y-70228307D01*
X91337357Y-70588611D01*
X91785430Y-71014674D01*
X92300763Y-71513201D01*
X92890901Y-72090897D01*
X93563389Y-72754466D01*
X94325772Y-73510615D01*
X95185594Y-74366048D01*
X96150400Y-75327470D01*
X97227734Y-76401587D01*
X97387311Y-76560709D01*
X98292194Y-77463954D01*
X99173250Y-78344963D01*
X100021725Y-79194905D01*
X100828867Y-80004950D01*
X101585926Y-80766267D01*
X102284148Y-81470026D01*
X102914783Y-82107395D01*
X103469077Y-82669545D01*
X103938280Y-83147644D01*
X104313639Y-83532862D01*
X104586403Y-83816369D01*
X104747819Y-83989333D01*
X105265386Y-84615451D01*
X105736946Y-85329213D01*
X106088420Y-86064300D01*
X106341829Y-86860376D01*
X106461670Y-87492535D01*
X106508531Y-88446895D01*
X106408298Y-89407883D01*
X106167316Y-90344408D01*
X105791935Y-91225380D01*
X105288501Y-92019707D01*
X105273046Y-92038926D01*
X105135731Y-92191566D01*
X104890414Y-92450753D01*
X104546185Y-92807417D01*
X104112133Y-93252484D01*
X103597346Y-93776883D01*
X103010913Y-94371541D01*
X102361922Y-95027387D01*
X101659462Y-95735347D01*
X100912622Y-96486350D01*
X100130490Y-97271324D01*
X99322155Y-98081196D01*
X98496705Y-98906894D01*
X97663230Y-99739347D01*
X96830817Y-100569481D01*
X96008555Y-101388225D01*
X95205533Y-102186506D01*
X94430840Y-102955252D01*
X93693564Y-103685392D01*
X93002793Y-104367853D01*
X92367617Y-104993562D01*
X91797124Y-105553448D01*
X91300402Y-106038438D01*
X90886541Y-106439460D01*
X90564628Y-106747442D01*
X90343753Y-106953312D01*
X90233004Y-107047998D01*
X89744106Y-107345353D01*
X89164854Y-107633995D01*
X88578809Y-107872416D01*
X88053334Y-108030259D01*
X87724555Y-108086656D01*
X87157741Y-108128153D01*
X86444667Y-108128201D01*
X86148438Y-108118834D01*
X85715315Y-108092880D01*
X85367180Y-108048495D01*
X85049814Y-107977691D01*
X84709000Y-107872479D01*
X84599527Y-107835403D01*
X84369599Y-107754915D01*
X84156134Y-107672527D01*
X83950010Y-107580428D01*
X83742105Y-107470802D01*
X83523296Y-107335837D01*
X83284462Y-107167718D01*
X83016480Y-106958633D01*
X82710229Y-106700767D01*
X82356587Y-106386307D01*
X81946431Y-106007440D01*
X81470640Y-105556352D01*
X80920091Y-105025229D01*
X80285662Y-104406258D01*
X79558232Y-103691625D01*
X78728678Y-102873517D01*
X77787879Y-101944120D01*
X72727258Y-96943333D01*
X73481798Y-96879150D01*
X73592312Y-96868470D01*
X74066208Y-96804226D01*
X74582960Y-96712298D01*
X75048915Y-96608840D01*
X75861492Y-96402713D01*
X77860364Y-98387523D01*
X78307555Y-98830706D01*
X78772855Y-99288336D01*
X79143403Y-99646687D01*
X79432704Y-99917550D01*
X79654263Y-100112721D01*
X79821584Y-100243991D01*
X79948171Y-100323154D01*
X80047529Y-100362004D01*
X80133162Y-100372333D01*
X80248113Y-100366121D01*
X80391098Y-100323660D01*
X80522734Y-100220619D01*
X80663360Y-100033596D01*
X80833314Y-99739190D01*
X81052933Y-99314000D01*
X81442563Y-98638116D01*
X81982222Y-97916973D01*
X82576973Y-97318748D01*
X82900278Y-97042597D01*
X84665280Y-98801591D01*
X84292917Y-99184795D01*
X84095174Y-99398967D01*
X83607294Y-100065933D01*
X83279011Y-100775904D01*
X83103965Y-101545639D01*
X83075796Y-102391899D01*
X83105497Y-102800396D01*
X83176414Y-103251091D01*
X83286647Y-103589666D01*
X83385889Y-103768460D01*
X83647228Y-104112477D01*
X83993423Y-104479713D01*
X84385068Y-104832920D01*
X84782753Y-105134846D01*
X85147071Y-105348240D01*
X85377931Y-105449258D01*
X85593574Y-105518058D01*
X85831827Y-105557385D01*
X86141566Y-105575167D01*
X86571667Y-105579333D01*
X86716254Y-105579625D01*
X86983635Y-105579135D01*
X87222418Y-105570661D01*
X87443322Y-105546345D01*
X87657061Y-105498326D01*
X87874354Y-105418746D01*
X88105917Y-105299746D01*
X88362465Y-105133466D01*
X88654716Y-104912047D01*
X88993387Y-104627629D01*
X89389193Y-104272354D01*
X89852852Y-103838361D01*
X90395080Y-103317793D01*
X91026594Y-102702788D01*
X91758110Y-101985488D01*
X92600345Y-101158034D01*
X92801407Y-100960438D01*
X93703511Y-100071345D01*
X94613546Y-99170527D01*
X95522943Y-98266688D01*
X96423129Y-97368532D01*
X97305536Y-96484764D01*
X98161591Y-95624088D01*
X98982726Y-94795208D01*
X99760369Y-94006830D01*
X100485950Y-93267657D01*
X101150899Y-92586395D01*
X101746644Y-91971746D01*
X102264617Y-91432417D01*
X102696245Y-90977111D01*
X103032959Y-90614533D01*
X103266189Y-90353387D01*
X103387363Y-90202377D01*
X103692856Y-89629619D01*
X103900238Y-88927731D01*
X103960798Y-88197131D01*
X103872171Y-87470916D01*
X103631989Y-86782184D01*
X103600677Y-86719292D01*
X103546763Y-86622113D01*
X103478679Y-86515450D01*
X103389829Y-86392408D01*
X103273617Y-86246096D01*
X103123447Y-86069620D01*
X102932725Y-85856087D01*
X102694855Y-85598603D01*
X102403241Y-85290276D01*
X102051288Y-84924213D01*
X101632400Y-84493519D01*
X101139982Y-83991303D01*
X100567439Y-83410671D01*
X99908174Y-82744729D01*
X99155593Y-81986585D01*
X98303100Y-81129346D01*
X97344099Y-80166117D01*
X96271996Y-79090007D01*
X95756403Y-78572920D01*
X94851208Y-77666699D01*
X93977090Y-76793587D01*
X93142067Y-75961499D01*
X92354161Y-75178352D01*
X91621389Y-74452062D01*
X90951770Y-73790543D01*
X90353325Y-73201713D01*
X89834072Y-72693486D01*
X89402031Y-72273779D01*
X89065221Y-71950508D01*
X88831661Y-71731588D01*
X88709371Y-71624935D01*
X88564849Y-71521089D01*
X87988865Y-71199764D01*
X87383512Y-71020253D01*
X86698667Y-70966132D01*
X86088772Y-71017682D01*
X85371894Y-71224023D01*
X84694789Y-71592894D01*
X84603663Y-71670060D01*
X84394742Y-71863344D01*
X84079445Y-72163036D01*
X83664869Y-72562175D01*
X83158112Y-73053801D01*
X82566274Y-73630952D01*
X81896452Y-74286667D01*
X81155744Y-75013985D01*
X80351250Y-75805945D01*
X79490066Y-76655587D01*
X78579292Y-77555949D01*
X77626026Y-78500070D01*
X76637366Y-79480990D01*
X75620410Y-80491746D01*
X74657093Y-81449484D01*
X73676774Y-82422988D01*
X72735159Y-83356911D01*
X71839014Y-84244590D01*
X70995107Y-85079360D01*
X70210206Y-85854555D01*
X69491078Y-86563511D01*
X68844492Y-87199564D01*
X68277215Y-87756047D01*
X67796015Y-88226297D01*
X67407660Y-88603649D01*
X67118917Y-88881438D01*
X66936554Y-89052998D01*
X66867339Y-89111666D01*
X66841706Y-89081192D01*
X66814991Y-88896752D01*
X66808087Y-88546570D01*
X66821059Y-88032166D01*
X66836449Y-87733703D01*
X66926264Y-86950699D01*
X67093287Y-86265638D01*
X67350837Y-85633324D01*
X67712235Y-85008561D01*
X67722054Y-84993943D01*
X67827172Y-84856269D01*
X67996337Y-84657842D01*
X68234264Y-84393821D01*
X68545669Y-84059364D01*
X68935264Y-83649630D01*
X69407765Y-83159778D01*
X69967887Y-82584968D01*
X70620342Y-81920358D01*
X71369847Y-81161108D01*
X72221115Y-80302375D01*
X73178862Y-79339320D01*
X74247800Y-78267102D01*
X75432645Y-77080878D01*
X76308770Y-76204508D01*
X77359691Y-75153900D01*
X78303239Y-74211981D01*
X79146388Y-73372428D01*
X79896107Y-72628919D01*
X80559369Y-71975129D01*
X81143144Y-71404738D01*
X81654404Y-70911420D01*
X82100121Y-70488855D01*
X82487265Y-70130718D01*
X82822808Y-69830687D01*
X83113722Y-69582439D01*
X83366977Y-69379650D01*
X83589545Y-69215999D01*
X83788398Y-69085162D01*
X83970506Y-68980816D01*
X84142842Y-68896639D01*
X84312375Y-68826307D01*
X84486079Y-68763497D01*
X84670923Y-68701888D01*
X84892094Y-68633130D01*
X85136056Y-68572468D01*
X85390541Y-68532903D01*
X85695235Y-68510303D01*
X86089825Y-68500531D01*
X86614000Y-68499452D01*
X86666501Y-68499630D01*
G37*
G36*
X61233677Y-85845065D02*
G01*
X61551813Y-85859566D01*
X61974396Y-85880632D01*
X62313731Y-85899746D01*
X62541171Y-85915257D01*
X62628067Y-85925511D01*
X62630739Y-85933497D01*
X62625378Y-86051387D01*
X62597313Y-86258612D01*
X62546511Y-86571666D01*
X61611756Y-86571666D01*
X61297501Y-86574887D01*
X60898842Y-86598953D01*
X60630421Y-86655675D01*
X60468312Y-86755767D01*
X60388591Y-86909942D01*
X60367334Y-87128914D01*
X60334003Y-87344272D01*
X60219167Y-87444637D01*
X59966419Y-87488994D01*
X59821689Y-87446622D01*
X59756520Y-87304801D01*
X59744563Y-87172079D01*
X59825217Y-86846804D01*
X60049950Y-86566794D01*
X60240334Y-86407966D01*
X60049834Y-86405150D01*
X59942371Y-86388862D01*
X59875190Y-86301073D01*
X59859334Y-86093500D01*
X59859334Y-85784668D01*
X61233677Y-85845065D01*
G37*
G36*
X62992009Y-93285921D02*
G01*
X63191849Y-93435585D01*
X63361269Y-93685537D01*
X63465605Y-93992537D01*
X63486888Y-94112515D01*
X63490006Y-94276738D01*
X63404758Y-94357057D01*
X63194862Y-94409327D01*
X63076468Y-94427786D01*
X62965113Y-94400330D01*
X62930410Y-94273639D01*
X62927445Y-94238462D01*
X62895694Y-94097643D01*
X62810689Y-94033581D01*
X62635574Y-94034967D01*
X62333489Y-94090492D01*
X61913866Y-94180345D01*
X61587787Y-94260004D01*
X61382630Y-94329887D01*
X61274485Y-94401095D01*
X61239443Y-94484730D01*
X61253594Y-94591893D01*
X61269583Y-94740478D01*
X61197744Y-94880838D01*
X61034563Y-94948157D01*
X60848952Y-94912084D01*
X60739145Y-94735532D01*
X60718659Y-94664869D01*
X60637127Y-94559156D01*
X60473655Y-94570291D01*
X60351103Y-94601035D01*
X60043126Y-94672714D01*
X59866574Y-94688276D01*
X59795955Y-94635126D01*
X59805775Y-94500669D01*
X59870542Y-94272309D01*
X59929007Y-94110644D01*
X60043286Y-93968099D01*
X60236980Y-93901548D01*
X60307555Y-93886244D01*
X60462635Y-93809068D01*
X60500938Y-93668958D01*
X60545378Y-93520215D01*
X60727167Y-93423385D01*
X60750597Y-93417177D01*
X60912695Y-93401030D01*
X60960000Y-93474325D01*
X60960036Y-93480178D01*
X60981108Y-93574858D01*
X61058969Y-93621219D01*
X61219949Y-93619109D01*
X61490377Y-93568372D01*
X61896584Y-93468857D01*
X62096243Y-93418973D01*
X62443292Y-93338845D01*
X62720089Y-93283263D01*
X62880022Y-93262030D01*
X62992009Y-93285921D01*
G37*
G36*
X62761995Y-91457254D02*
G01*
X62853708Y-91541796D01*
X62911457Y-91757500D01*
X62921461Y-91817320D01*
X62949962Y-92002073D01*
X62957506Y-92077979D01*
X62918612Y-92085110D01*
X62739698Y-92116678D01*
X62440839Y-92168979D01*
X62049963Y-92237128D01*
X61595000Y-92316241D01*
X60240334Y-92551524D01*
X60184804Y-92249762D01*
X60177855Y-92208811D01*
X60162054Y-92005953D01*
X60184804Y-91896373D01*
X60216472Y-91884087D01*
X60385512Y-91843870D01*
X60666796Y-91786959D01*
X61024257Y-91719739D01*
X61421832Y-91648595D01*
X61823454Y-91579912D01*
X62193059Y-91520076D01*
X62494579Y-91475473D01*
X62691952Y-91452487D01*
X62761995Y-91457254D01*
G37*
G36*
X99185443Y-110774884D02*
G01*
X99244677Y-110831013D01*
X99507069Y-111072383D01*
X99736406Y-111272785D01*
X99888682Y-111393508D01*
X99979892Y-111463094D01*
X100036741Y-111576169D01*
X99980925Y-111749033D01*
X99898565Y-111903781D01*
X99837569Y-111971666D01*
X99759452Y-111934305D01*
X99578719Y-111806999D01*
X99334684Y-111614960D01*
X99061101Y-111384916D01*
X98791723Y-111143589D01*
X98396445Y-110776049D01*
X98536165Y-110532600D01*
X98675886Y-110289152D01*
X99185443Y-110774884D01*
G37*
G36*
X90115269Y-112793270D02*
G01*
X90118036Y-112811904D01*
X90113381Y-112905394D01*
X90044599Y-112963451D01*
X89876756Y-113001771D01*
X89574916Y-113036051D01*
X89253756Y-113072055D01*
X89010844Y-113120891D01*
X88884517Y-113194080D01*
X88846458Y-113309638D01*
X88868350Y-113485580D01*
X88880331Y-113552071D01*
X88900608Y-113648237D01*
X88941856Y-113705293D01*
X89033501Y-113726973D01*
X89204968Y-113717008D01*
X89485679Y-113679131D01*
X89905061Y-113617072D01*
X89937433Y-113612425D01*
X90136394Y-113597975D01*
X90230366Y-113646533D01*
X90273559Y-113782424D01*
X90282983Y-113837558D01*
X90279596Y-113928921D01*
X90220705Y-113992521D01*
X90078127Y-114040096D01*
X89823676Y-114083386D01*
X89429167Y-114134130D01*
X89240168Y-114160130D01*
X89070376Y-114205146D01*
X88999598Y-114280889D01*
X88985964Y-114413778D01*
X88996515Y-114598882D01*
X89051018Y-114741728D01*
X89179925Y-114809050D01*
X89413699Y-114814539D01*
X89782801Y-114771886D01*
X90047397Y-114735470D01*
X90353413Y-114698702D01*
X90539857Y-114692041D01*
X90636353Y-114719483D01*
X90672526Y-114785026D01*
X90678000Y-114892666D01*
X90662329Y-115032379D01*
X90614500Y-115107818D01*
X90607105Y-115108521D01*
X90477011Y-115125441D01*
X90210795Y-115162027D01*
X89834682Y-115214616D01*
X89374898Y-115279546D01*
X88857667Y-115353155D01*
X88750526Y-115368457D01*
X88242697Y-115440962D01*
X87797584Y-115504475D01*
X87441417Y-115555258D01*
X87200424Y-115589569D01*
X87100834Y-115603670D01*
X87056697Y-115542234D01*
X87037334Y-115373744D01*
X87037337Y-115366714D01*
X87044827Y-115253793D01*
X87088892Y-115179491D01*
X87202371Y-115128705D01*
X87418101Y-115086332D01*
X87768919Y-115037271D01*
X87910328Y-115017694D01*
X88220312Y-114969648D01*
X88444230Y-114927568D01*
X88541082Y-114898807D01*
X88546688Y-114888743D01*
X88551636Y-114760720D01*
X88523750Y-114549540D01*
X88516071Y-114509302D01*
X88465156Y-114330005D01*
X88376038Y-114270049D01*
X88196087Y-114287319D01*
X87819486Y-114350845D01*
X87504308Y-114396463D01*
X87303466Y-114408688D01*
X87188677Y-114386040D01*
X87131657Y-114327040D01*
X87104122Y-114230209D01*
X87090495Y-114147255D01*
X87101305Y-114072055D01*
X87168931Y-114018092D01*
X87321085Y-113974136D01*
X87585482Y-113928957D01*
X87989834Y-113871326D01*
X88167121Y-113844089D01*
X88321612Y-113794975D01*
X88381793Y-113702343D01*
X88392000Y-113528386D01*
X88378351Y-113337003D01*
X88303391Y-113258330D01*
X88116834Y-113246713D01*
X88047604Y-113249358D01*
X87758140Y-113274572D01*
X87450727Y-113316254D01*
X87059786Y-113380747D01*
X86880334Y-112045133D01*
X87380198Y-112045133D01*
X87385176Y-112198328D01*
X87413322Y-112433422D01*
X87436428Y-112576494D01*
X87485457Y-112740029D01*
X87574175Y-112802702D01*
X87741022Y-112808511D01*
X87791656Y-112806568D01*
X88060750Y-112783208D01*
X88199892Y-112718679D01*
X88243564Y-112578989D01*
X88226246Y-112330145D01*
X88180334Y-111932265D01*
X87799334Y-111959652D01*
X87688379Y-111968836D01*
X87482796Y-111993770D01*
X87386967Y-112017774D01*
X87380198Y-112045133D01*
X86880334Y-112045133D01*
X86868038Y-111953617D01*
X86857011Y-111868525D01*
X88662886Y-111868525D01*
X88671892Y-112018917D01*
X88699566Y-112254165D01*
X88722800Y-112409787D01*
X88769718Y-112571502D01*
X88780136Y-112578989D01*
X88855916Y-112633448D01*
X89017342Y-112639178D01*
X89312116Y-112617846D01*
X89489569Y-112565726D01*
X89556778Y-112463698D01*
X89543996Y-112291809D01*
X89509037Y-112077049D01*
X89492667Y-111886816D01*
X89491921Y-111864368D01*
X89455910Y-111788192D01*
X89335852Y-111764219D01*
X89090500Y-111781665D01*
X88958131Y-111796704D01*
X88755939Y-111823798D01*
X88666891Y-111842097D01*
X88662886Y-111868525D01*
X86857011Y-111868525D01*
X86819937Y-111582431D01*
X86769454Y-111154867D01*
X86753805Y-111000789D01*
X87228063Y-111000789D01*
X87252518Y-111240972D01*
X87305590Y-111443054D01*
X87396107Y-111527154D01*
X87575923Y-111538511D01*
X87602583Y-111537496D01*
X87881779Y-111515092D01*
X88028185Y-111455411D01*
X88075796Y-111327637D01*
X88058608Y-111100952D01*
X88013756Y-110765166D01*
X88527467Y-110765166D01*
X88536688Y-110906224D01*
X88548634Y-111125000D01*
X88567632Y-111276884D01*
X88616210Y-111327637D01*
X88645888Y-111358643D01*
X88836500Y-111369178D01*
X88926499Y-111365576D01*
X89198568Y-111339597D01*
X89340772Y-111275602D01*
X89384762Y-111146975D01*
X89362187Y-110927099D01*
X89347085Y-110837577D01*
X89311946Y-110645654D01*
X89292495Y-110564271D01*
X89271375Y-110563594D01*
X89129257Y-110577251D01*
X88900000Y-110606604D01*
X88805397Y-110622381D01*
X88599677Y-110686393D01*
X88527467Y-110765166D01*
X88013756Y-110765166D01*
X88011000Y-110744532D01*
X87672334Y-110772377D01*
X87467220Y-110796706D01*
X87289285Y-110864248D01*
X87228063Y-111000789D01*
X86753805Y-111000789D01*
X86734411Y-110809841D01*
X86717623Y-110575721D01*
X86721904Y-110480874D01*
X86726640Y-110478235D01*
X86843343Y-110451570D01*
X87088266Y-110409099D01*
X87428571Y-110355462D01*
X87831418Y-110295297D01*
X88263968Y-110233243D01*
X88693381Y-110173938D01*
X89086818Y-110122021D01*
X89411438Y-110082131D01*
X89634404Y-110058906D01*
X89722874Y-110056985D01*
X89729116Y-110081172D01*
X89756070Y-110240535D01*
X89798739Y-110523359D01*
X89852736Y-110900124D01*
X89886833Y-111146975D01*
X89913676Y-111341310D01*
X89941454Y-111545442D01*
X90001932Y-111986988D01*
X90054290Y-112365404D01*
X90068100Y-112463698D01*
X90093684Y-112645795D01*
X90115269Y-112793270D01*
G37*
G36*
X76852361Y-62253169D02*
G01*
X76917520Y-62441666D01*
X76918620Y-62446164D01*
X76931697Y-62564578D01*
X76880447Y-62653328D01*
X76733089Y-62741099D01*
X76457844Y-62856575D01*
X76206009Y-62957804D01*
X76017902Y-63035898D01*
X75946000Y-63069258D01*
X75946117Y-63069717D01*
X75981029Y-63155266D01*
X76071179Y-63371164D01*
X76206424Y-63693251D01*
X76376620Y-64097366D01*
X76571623Y-64559349D01*
X77197246Y-66040000D01*
X76889123Y-66177995D01*
X76823576Y-66205620D01*
X76630197Y-66265100D01*
X76524909Y-66262661D01*
X76489040Y-66198521D01*
X76395699Y-65998734D01*
X76259069Y-65690475D01*
X76090870Y-65300275D01*
X75902826Y-64854666D01*
X75749458Y-64490564D01*
X75575657Y-64085664D01*
X75430806Y-63756799D01*
X75326764Y-63530810D01*
X75275388Y-63434538D01*
X75190182Y-63428890D01*
X74991797Y-63480996D01*
X74730891Y-63582704D01*
X74501319Y-63682597D01*
X74304038Y-63764783D01*
X74216202Y-63796333D01*
X74201369Y-63783852D01*
X74144503Y-63668540D01*
X74079076Y-63490772D01*
X74030051Y-63322676D01*
X74022395Y-63236383D01*
X74111811Y-63183439D01*
X74328605Y-63083103D01*
X74638506Y-62951160D01*
X75010343Y-62799714D01*
X75412945Y-62640868D01*
X75815138Y-62486727D01*
X76185751Y-62349394D01*
X76493612Y-62240972D01*
X76707548Y-62173566D01*
X76796388Y-62159279D01*
X76852361Y-62253169D01*
G37*
G36*
X62945487Y-83641359D02*
G01*
X62943365Y-83716349D01*
X62853773Y-84186043D01*
X62640076Y-84558190D01*
X62311787Y-84815172D01*
X62018334Y-84963677D01*
X61991854Y-84663605D01*
X61988784Y-84511546D01*
X62050498Y-84318485D01*
X62224687Y-84121297D01*
X62338872Y-84009644D01*
X62457204Y-83841555D01*
X62459266Y-83673850D01*
X62357929Y-83440795D01*
X62271423Y-83311793D01*
X62100102Y-83167571D01*
X61929337Y-83117553D01*
X61807199Y-83184139D01*
X61791701Y-83222034D01*
X61745393Y-83408131D01*
X61690230Y-83698104D01*
X61635041Y-84047664D01*
X61631962Y-84068965D01*
X61559802Y-84477190D01*
X61484232Y-84743447D01*
X61409080Y-84854080D01*
X61310816Y-84865205D01*
X61074230Y-84812973D01*
X60794692Y-84694113D01*
X60527364Y-84533936D01*
X60327408Y-84357754D01*
X60313872Y-84341110D01*
X60160849Y-84028255D01*
X60103648Y-83640354D01*
X60118212Y-83495885D01*
X60625028Y-83495885D01*
X60644070Y-83756916D01*
X60769500Y-83963341D01*
X60836968Y-84019690D01*
X61018564Y-84136660D01*
X61139521Y-84124467D01*
X61222699Y-83969783D01*
X61290954Y-83659280D01*
X61334512Y-83402428D01*
X61369797Y-83179350D01*
X61383334Y-83072231D01*
X61333779Y-83023759D01*
X61181463Y-83018588D01*
X60986133Y-83062521D01*
X60809506Y-83147467D01*
X60708745Y-83254260D01*
X60625028Y-83495885D01*
X60118212Y-83495885D01*
X60144091Y-83239181D01*
X60284002Y-82886507D01*
X60521697Y-82623007D01*
X60886050Y-82425842D01*
X61317108Y-82339793D01*
X61777104Y-82371808D01*
X62228271Y-82528833D01*
X62423751Y-82639878D01*
X62730050Y-82903534D01*
X62817261Y-83072231D01*
X62897218Y-83226898D01*
X62945487Y-83641359D01*
G37*
G36*
X69848904Y-104562236D02*
G01*
X71666395Y-106381202D01*
X71247802Y-106806186D01*
X71106609Y-106948791D01*
X70939628Y-107104843D01*
X70833851Y-107165316D01*
X70753044Y-107146063D01*
X70660975Y-107062937D01*
X70595445Y-106995474D01*
X70543711Y-106903363D01*
X70588299Y-106802787D01*
X70739709Y-106636927D01*
X70986675Y-106379150D01*
X69510615Y-104901280D01*
X68034555Y-103423409D01*
X67771942Y-103677943D01*
X67509329Y-103932478D01*
X67350867Y-103757378D01*
X67302871Y-103702552D01*
X67256547Y-103616774D01*
X67281778Y-103522899D01*
X67394814Y-103383906D01*
X67611909Y-103162774D01*
X68031413Y-102743269D01*
X69848904Y-104562236D01*
G37*
G36*
X94577692Y-64587171D02*
G01*
X94378527Y-64967390D01*
X94118359Y-65281618D01*
X93816795Y-65495414D01*
X93493442Y-65574333D01*
X93315796Y-65552096D01*
X93020432Y-65444849D01*
X92760973Y-65280651D01*
X92603820Y-65095259D01*
X92529293Y-64964830D01*
X92452709Y-64897000D01*
X92398665Y-64958327D01*
X92335045Y-65131715D01*
X92281302Y-65356490D01*
X92251842Y-65571207D01*
X92261070Y-65714417D01*
X92382095Y-65862963D01*
X92591200Y-65983275D01*
X92831290Y-66056159D01*
X93046098Y-66064628D01*
X93179359Y-65991692D01*
X93213094Y-65969513D01*
X93374205Y-65948937D01*
X93603148Y-65959683D01*
X93834140Y-65996692D01*
X94001396Y-66054904D01*
X94030390Y-66111528D01*
X93978955Y-66248452D01*
X93845061Y-66409118D01*
X93660372Y-66547769D01*
X93574390Y-66587536D01*
X93223159Y-66641533D01*
X92783330Y-66581605D01*
X92280583Y-66410309D01*
X92029453Y-66287189D01*
X91777116Y-66087658D01*
X91647149Y-65835365D01*
X91611638Y-65491994D01*
X91620009Y-65393480D01*
X91668355Y-65130140D01*
X91751493Y-64777228D01*
X91851388Y-64398969D01*
X92666671Y-64398969D01*
X92778486Y-64693279D01*
X93016040Y-64886017D01*
X93171444Y-64948384D01*
X93285484Y-64975936D01*
X93410803Y-64946457D01*
X93650582Y-64784897D01*
X93840952Y-64524656D01*
X93967521Y-64209087D01*
X94015901Y-63881545D01*
X93971701Y-63585385D01*
X93820530Y-63363961D01*
X93647796Y-63258822D01*
X93363791Y-63216845D01*
X93095899Y-63321460D01*
X92869806Y-63559816D01*
X92711197Y-63919060D01*
X92686194Y-64020848D01*
X92666671Y-64398969D01*
X91851388Y-64398969D01*
X91859967Y-64366485D01*
X91984323Y-63929646D01*
X92115106Y-63498450D01*
X92242862Y-63104636D01*
X92358135Y-62779941D01*
X92451472Y-62556103D01*
X92513417Y-62464861D01*
X92634749Y-62468953D01*
X92829860Y-62523618D01*
X92897330Y-62551746D01*
X93011668Y-62647090D01*
X93002248Y-62793206D01*
X92985146Y-62851584D01*
X92990831Y-62934071D01*
X93102397Y-62900563D01*
X93179589Y-62875711D01*
X93413160Y-62839277D01*
X93698057Y-62824255D01*
X93819379Y-62828227D01*
X94199199Y-62922898D01*
X94476511Y-63150158D01*
X94663538Y-63518798D01*
X94714591Y-63766537D01*
X94709432Y-63881545D01*
X94696249Y-64175406D01*
X94577692Y-64587171D01*
G37*
%LPC*%
D11*
X75765000Y-44801000D03*
X62265000Y-44801000D03*
D12*
X65415000Y-50801000D03*
X72615000Y-50801000D03*
D13*
X85793500Y-48021000D03*
D14*
X85793500Y-42021000D03*
D15*
X81093500Y-45021000D03*
D16*
X101600000Y-123825000D03*
D17*
X101600000Y-126365000D03*
X99060000Y-123825000D03*
X99060000Y-126365000D03*
X96520000Y-123825000D03*
X96520000Y-126365000D03*
X93980000Y-123825000D03*
X93980000Y-126365000D03*
X91440000Y-123825000D03*
X91440000Y-126365000D03*
X88900000Y-123825000D03*
X88900000Y-126365000D03*
X86360000Y-123825000D03*
X86360000Y-126365000D03*
X83820000Y-123825000D03*
X83820000Y-126365000D03*
X81280000Y-123825000D03*
X81280000Y-126365000D03*
X78740000Y-123825000D03*
X78740000Y-126365000D03*
X76200000Y-123825000D03*
X76200000Y-126365000D03*
X73660000Y-123825000D03*
X73660000Y-126365000D03*
X71120000Y-123825000D03*
X71120000Y-126365000D03*
D18*
X56836000Y-122244000D03*
D19*
X53086000Y-120904000D03*
D20*
X55586000Y-120904000D03*
X58086000Y-120904000D03*
X60586000Y-120904000D03*
D21*
X99036000Y-39241000D03*
D22*
X97536000Y-43561000D03*
D23*
X100536000Y-43561000D03*
X97536000Y-46561000D03*
X100536000Y-46561000D03*
D18*
X113792000Y-122338000D03*
D19*
X110042000Y-120998000D03*
D20*
X112542000Y-120998000D03*
X115042000Y-120998000D03*
X117542000Y-120998000D03*
D24*
X54760000Y-68950000D03*
D25*
X57300000Y-68950000D03*
X54760000Y-71490000D03*
X57300000Y-71490000D03*
X54760000Y-74030000D03*
X57300000Y-74030000D03*
X54760000Y-76570000D03*
X57300000Y-76570000D03*
X54760000Y-79110000D03*
X57300000Y-79110000D03*
X54760000Y-81650000D03*
X57300000Y-81650000D03*
X54760000Y-84190000D03*
X57300000Y-84190000D03*
X54760000Y-86730000D03*
X57300000Y-86730000D03*
X54760000Y-89270000D03*
X57300000Y-89270000D03*
X54760000Y-91810000D03*
X57300000Y-91810000D03*
X54760000Y-94350000D03*
X57300000Y-94350000D03*
X54760000Y-96890000D03*
X57300000Y-96890000D03*
X54760000Y-99430000D03*
X57300000Y-99430000D03*
X54760000Y-101970000D03*
X57300000Y-101970000D03*
X54760000Y-104510000D03*
X57300000Y-104510000D03*
X54760000Y-107050000D03*
X57300000Y-107050000D03*
X54760000Y-109590000D03*
X57300000Y-109590000D03*
X54760000Y-112130000D03*
X57300000Y-112130000D03*
X54760000Y-114670000D03*
X57300000Y-114670000D03*
D24*
X115720000Y-68950000D03*
D25*
X118260000Y-68950000D03*
X115720000Y-71490000D03*
X118260000Y-71490000D03*
X115720000Y-74030000D03*
X118260000Y-74030000D03*
X115720000Y-76570000D03*
X118260000Y-76570000D03*
X115720000Y-79110000D03*
X118260000Y-79110000D03*
X115720000Y-81650000D03*
X118260000Y-81650000D03*
X115720000Y-84190000D03*
X118260000Y-84190000D03*
X115720000Y-86730000D03*
X118260000Y-86730000D03*
X115720000Y-89270000D03*
X118260000Y-89270000D03*
X115720000Y-91810000D03*
X118260000Y-91810000D03*
X115720000Y-94350000D03*
X118260000Y-94350000D03*
X115720000Y-96890000D03*
X118260000Y-96890000D03*
X115720000Y-99430000D03*
X118260000Y-99430000D03*
X115720000Y-101970000D03*
X118260000Y-101970000D03*
X115720000Y-104510000D03*
X118260000Y-104510000D03*
X115720000Y-107050000D03*
X118260000Y-107050000D03*
X115720000Y-109590000D03*
X118260000Y-109590000D03*
X115720000Y-112130000D03*
X118260000Y-112130000D03*
X115720000Y-114670000D03*
X118260000Y-114670000D03*
D26*
X127889000Y-60452000D03*
D27*
X127889000Y-57912000D03*
X127889000Y-55372000D03*
X127889000Y-52832000D03*
X120269000Y-52832000D03*
X120269000Y-55372000D03*
X120269000Y-57912000D03*
X120269000Y-60452000D03*
D21*
X110744000Y-39159000D03*
D22*
X109244000Y-43479000D03*
D23*
X112244000Y-43479000D03*
X109244000Y-46479000D03*
X112244000Y-46479000D03*
M02*
