G04 #@! TF.GenerationSoftware,KiCad,Pcbnew,6.0.4-6f826c9f35~116~ubuntu18.04.1*
G04 #@! TF.CreationDate,2022-04-20T12:00:40+08:00*
G04 #@! TF.ProjectId,Nucleo_F446Shield_v2,4e75636c-656f-45f4-9634-343653686965,rev?*
G04 #@! TF.SameCoordinates,Original*
G04 #@! TF.FileFunction,Legend,Top*
G04 #@! TF.FilePolarity,Positive*
%FSLAX46Y46*%
G04 Gerber Fmt 4.6, Leading zero omitted, Abs format (unit mm)*
G04 Created by KiCad (PCBNEW 6.0.4-6f826c9f35~116~ubuntu18.04.1) date 2022-04-20 12:00:40*
%MOMM*%
%LPD*%
G01*
G04 APERTURE LIST*
G04 Aperture macros list*
%AMRoundRect*
0 Rectangle with rounded corners*
0 $1 Rounding radius*
0 $2 $3 $4 $5 $6 $7 $8 $9 X,Y pos of 4 corners*
0 Add a 4 corners polygon primitive as box body*
4,1,4,$2,$3,$4,$5,$6,$7,$8,$9,$2,$3,0*
0 Add four circle primitives for the rounded corners*
1,1,$1+$1,$2,$3*
1,1,$1+$1,$4,$5*
1,1,$1+$1,$6,$7*
1,1,$1+$1,$8,$9*
0 Add four rect primitives between the rounded corners*
20,1,$1+$1,$2,$3,$4,$5,0*
20,1,$1+$1,$4,$5,$6,$7,0*
20,1,$1+$1,$6,$7,$8,$9,0*
20,1,$1+$1,$8,$9,$2,$3,0*%
G04 Aperture macros list end*
%ADD10C,0.150000*%
%ADD11C,0.120000*%
%ADD12C,0.500000*%
%ADD13C,0.127000*%
%ADD14C,0.200000*%
%ADD15RoundRect,0.250000X-1.450000X0.400000X-1.450000X-0.400000X1.450000X-0.400000X1.450000X0.400000X0*%
%ADD16RoundRect,0.250000X0.350000X0.450000X-0.350000X0.450000X-0.350000X-0.450000X0.350000X-0.450000X0*%
%ADD17R,0.900000X1.800000*%
%ADD18C,4.500000*%
%ADD19RoundRect,0.250000X0.325000X0.450000X-0.325000X0.450000X-0.325000X-0.450000X0.325000X-0.450000X0*%
%ADD20RoundRect,0.250000X-0.350000X-0.450000X0.350000X-0.450000X0.350000X0.450000X-0.350000X0.450000X0*%
%ADD21R,2.940000X5.020000*%
%ADD22R,3.048000X4.826000*%
%ADD23R,3.070000X5.118000*%
%ADD24RoundRect,0.250000X-0.550000X1.412500X-0.550000X-1.412500X0.550000X-1.412500X0.550000X1.412500X0*%
%ADD25RoundRect,0.250000X-0.337500X-0.475000X0.337500X-0.475000X0.337500X0.475000X-0.337500X0.475000X0*%
%ADD26R,3.500000X3.500000*%
%ADD27RoundRect,0.750000X-1.000000X0.750000X-1.000000X-0.750000X1.000000X-0.750000X1.000000X0.750000X0*%
%ADD28RoundRect,0.875000X-0.875000X0.875000X-0.875000X-0.875000X0.875000X-0.875000X0.875000X0.875000X0*%
%ADD29RoundRect,0.150000X0.150000X-0.825000X0.150000X0.825000X-0.150000X0.825000X-0.150000X-0.825000X0*%
%ADD30RoundRect,0.250000X-0.600000X0.600000X-0.600000X-0.600000X0.600000X-0.600000X0.600000X0.600000X0*%
%ADD31C,1.700000*%
%ADD32R,3.500000X2.300000*%
%ADD33R,1.100000X1.800000*%
%ADD34RoundRect,0.250000X-0.325000X-0.450000X0.325000X-0.450000X0.325000X0.450000X-0.325000X0.450000X0*%
%ADD35RoundRect,0.250000X-0.475000X0.337500X-0.475000X-0.337500X0.475000X-0.337500X0.475000X0.337500X0*%
%ADD36C,1.300000*%
%ADD37RoundRect,0.250000X0.600000X-0.850000X0.600000X0.850000X-0.600000X0.850000X-0.600000X-0.850000X0*%
%ADD38O,1.700000X2.200000*%
%ADD39C,3.000000*%
%ADD40RoundRect,0.250001X-0.499999X-0.499999X0.499999X-0.499999X0.499999X0.499999X-0.499999X0.499999X0*%
%ADD41C,1.500000*%
%ADD42R,1.530000X1.530000*%
%ADD43C,1.530000*%
%ADD44R,1.600000X1.600000*%
%ADD45O,1.600000X1.600000*%
G04 APERTURE END LIST*
D10*
X117475095Y-117610000D02*
X117379857Y-117562380D01*
X117237000Y-117562380D01*
X117094142Y-117610000D01*
X116998904Y-117705238D01*
X116951285Y-117800476D01*
X116903666Y-117990952D01*
X116903666Y-118133809D01*
X116951285Y-118324285D01*
X116998904Y-118419523D01*
X117094142Y-118514761D01*
X117237000Y-118562380D01*
X117332238Y-118562380D01*
X117475095Y-118514761D01*
X117522714Y-118467142D01*
X117522714Y-118133809D01*
X117332238Y-118133809D01*
X117951285Y-118562380D02*
X117951285Y-117562380D01*
X118522714Y-118562380D01*
X118522714Y-117562380D01*
X118998904Y-118562380D02*
X118998904Y-117562380D01*
X119237000Y-117562380D01*
X119379857Y-117610000D01*
X119475095Y-117705238D01*
X119522714Y-117800476D01*
X119570333Y-117990952D01*
X119570333Y-118133809D01*
X119522714Y-118324285D01*
X119475095Y-118419523D01*
X119379857Y-118514761D01*
X119237000Y-118562380D01*
X118998904Y-118562380D01*
X92860952Y-46077142D02*
X92813333Y-46124761D01*
X92670476Y-46172380D01*
X92575238Y-46172380D01*
X92432380Y-46124761D01*
X92337142Y-46029523D01*
X92289523Y-45934285D01*
X92241904Y-45743809D01*
X92241904Y-45600952D01*
X92289523Y-45410476D01*
X92337142Y-45315238D01*
X92432380Y-45220000D01*
X92575238Y-45172380D01*
X92670476Y-45172380D01*
X92813333Y-45220000D01*
X92860952Y-45267619D01*
X93241904Y-45886666D02*
X93718095Y-45886666D01*
X93146666Y-46172380D02*
X93480000Y-45172380D01*
X93813333Y-46172380D01*
X94146666Y-46172380D02*
X94146666Y-45172380D01*
X94718095Y-46172380D01*
X94718095Y-45172380D01*
X95146666Y-45267619D02*
X95194285Y-45220000D01*
X95289523Y-45172380D01*
X95527619Y-45172380D01*
X95622857Y-45220000D01*
X95670476Y-45267619D01*
X95718095Y-45362857D01*
X95718095Y-45458095D01*
X95670476Y-45600952D01*
X95099047Y-46172380D01*
X95718095Y-46172380D01*
X54808523Y-117562380D02*
X55379952Y-117562380D01*
X55094238Y-118562380D02*
X55094238Y-117562380D01*
X55618047Y-118562380D02*
X56141857Y-117895714D01*
X55618047Y-117895714D02*
X56141857Y-118562380D01*
X74327142Y-87399761D02*
X74470000Y-87447380D01*
X74708095Y-87447380D01*
X74803333Y-87399761D01*
X74850952Y-87352142D01*
X74898571Y-87256904D01*
X74898571Y-87161666D01*
X74850952Y-87066428D01*
X74803333Y-87018809D01*
X74708095Y-86971190D01*
X74517619Y-86923571D01*
X74422380Y-86875952D01*
X74374761Y-86828333D01*
X74327142Y-86733095D01*
X74327142Y-86637857D01*
X74374761Y-86542619D01*
X74422380Y-86495000D01*
X74517619Y-86447380D01*
X74755714Y-86447380D01*
X74898571Y-86495000D01*
X75327142Y-87447380D02*
X75327142Y-86447380D01*
X75660476Y-87161666D01*
X75993809Y-86447380D01*
X75993809Y-87447380D01*
X76803333Y-86923571D02*
X76946190Y-86971190D01*
X76993809Y-87018809D01*
X77041428Y-87114047D01*
X77041428Y-87256904D01*
X76993809Y-87352142D01*
X76946190Y-87399761D01*
X76850952Y-87447380D01*
X76470000Y-87447380D01*
X76470000Y-86447380D01*
X76803333Y-86447380D01*
X76898571Y-86495000D01*
X76946190Y-86542619D01*
X76993809Y-86637857D01*
X76993809Y-86733095D01*
X76946190Y-86828333D01*
X76898571Y-86875952D01*
X76803333Y-86923571D01*
X76470000Y-86923571D01*
X77755714Y-86447380D02*
X77755714Y-87161666D01*
X77708095Y-87304523D01*
X77612857Y-87399761D01*
X77470000Y-87447380D01*
X77374761Y-87447380D01*
X78279523Y-87447380D02*
X78470000Y-87447380D01*
X78565238Y-87399761D01*
X78612857Y-87352142D01*
X78708095Y-87209285D01*
X78755714Y-87018809D01*
X78755714Y-86637857D01*
X78708095Y-86542619D01*
X78660476Y-86495000D01*
X78565238Y-86447380D01*
X78374761Y-86447380D01*
X78279523Y-86495000D01*
X78231904Y-86542619D01*
X78184285Y-86637857D01*
X78184285Y-86875952D01*
X78231904Y-86971190D01*
X78279523Y-87018809D01*
X78374761Y-87066428D01*
X78565238Y-87066428D01*
X78660476Y-87018809D01*
X78708095Y-86971190D01*
X78755714Y-86875952D01*
X79755714Y-87352142D02*
X79708095Y-87399761D01*
X79565238Y-87447380D01*
X79470000Y-87447380D01*
X79327142Y-87399761D01*
X79231904Y-87304523D01*
X79184285Y-87209285D01*
X79136666Y-87018809D01*
X79136666Y-86875952D01*
X79184285Y-86685476D01*
X79231904Y-86590238D01*
X79327142Y-86495000D01*
X79470000Y-86447380D01*
X79565238Y-86447380D01*
X79708095Y-86495000D01*
X79755714Y-86542619D01*
X80136666Y-87161666D02*
X80612857Y-87161666D01*
X80041428Y-87447380D02*
X80374761Y-86447380D01*
X80708095Y-87447380D01*
X125341142Y-67889380D02*
X124864952Y-67889380D01*
X124864952Y-66889380D01*
X125674476Y-67365571D02*
X126007809Y-67365571D01*
X126150666Y-67889380D02*
X125674476Y-67889380D01*
X125674476Y-66889380D01*
X126150666Y-66889380D01*
X126579238Y-67889380D02*
X126579238Y-66889380D01*
X126817333Y-66889380D01*
X126960190Y-66937000D01*
X127055428Y-67032238D01*
X127103047Y-67127476D01*
X127150666Y-67317952D01*
X127150666Y-67460809D01*
X127103047Y-67651285D01*
X127055428Y-67746523D01*
X126960190Y-67841761D01*
X126817333Y-67889380D01*
X126579238Y-67889380D01*
X120515142Y-66365380D02*
X120038952Y-66365380D01*
X120038952Y-65365380D01*
X120848476Y-65841571D02*
X121181809Y-65841571D01*
X121324666Y-66365380D02*
X120848476Y-66365380D01*
X120848476Y-65365380D01*
X121324666Y-65365380D01*
X121753238Y-66365380D02*
X121753238Y-65365380D01*
X121991333Y-65365380D01*
X122134190Y-65413000D01*
X122229428Y-65508238D01*
X122277047Y-65603476D01*
X122324666Y-65793952D01*
X122324666Y-65936809D01*
X122277047Y-66127285D01*
X122229428Y-66222523D01*
X122134190Y-66317761D01*
X121991333Y-66365380D01*
X121753238Y-66365380D01*
X47299761Y-120102380D02*
X47299761Y-120911904D01*
X47347380Y-121007142D01*
X47395000Y-121054761D01*
X47490238Y-121102380D01*
X47680714Y-121102380D01*
X47775952Y-121054761D01*
X47823571Y-121007142D01*
X47871190Y-120911904D01*
X47871190Y-120102380D01*
X48299761Y-120816666D02*
X48775952Y-120816666D01*
X48204523Y-121102380D02*
X48537857Y-120102380D01*
X48871190Y-121102380D01*
X49775952Y-121102380D02*
X49442619Y-120626190D01*
X49204523Y-121102380D02*
X49204523Y-120102380D01*
X49585476Y-120102380D01*
X49680714Y-120150000D01*
X49728333Y-120197619D01*
X49775952Y-120292857D01*
X49775952Y-120435714D01*
X49728333Y-120530952D01*
X49680714Y-120578571D01*
X49585476Y-120626190D01*
X49204523Y-120626190D01*
X50061666Y-120102380D02*
X50633095Y-120102380D01*
X50347380Y-121102380D02*
X50347380Y-120102380D01*
X121293095Y-67222714D02*
X121293095Y-67889380D01*
X121055000Y-66841761D02*
X120816904Y-67556047D01*
X121435952Y-67556047D01*
X121721666Y-66889380D02*
X122388333Y-66889380D01*
X121959761Y-67889380D01*
X122959761Y-66889380D02*
X123055000Y-66889380D01*
X123150238Y-66937000D01*
X123197857Y-66984619D01*
X123245476Y-67079857D01*
X123293095Y-67270333D01*
X123293095Y-67508428D01*
X123245476Y-67698904D01*
X123197857Y-67794142D01*
X123150238Y-67841761D01*
X123055000Y-67889380D01*
X122959761Y-67889380D01*
X122864523Y-67841761D01*
X122816904Y-67794142D01*
X122769285Y-67698904D01*
X122721666Y-67508428D01*
X122721666Y-67270333D01*
X122769285Y-67079857D01*
X122816904Y-66984619D01*
X122864523Y-66937000D01*
X122959761Y-66889380D01*
X124293095Y-67889380D02*
X123959761Y-67413190D01*
X123721666Y-67889380D02*
X123721666Y-66889380D01*
X124102619Y-66889380D01*
X124197857Y-66937000D01*
X124245476Y-66984619D01*
X124293095Y-67079857D01*
X124293095Y-67222714D01*
X124245476Y-67317952D01*
X124197857Y-67365571D01*
X124102619Y-67413190D01*
X123721666Y-67413190D01*
X64714523Y-102687380D02*
X64905000Y-102687380D01*
X65000238Y-102639761D01*
X65047857Y-102592142D01*
X65143095Y-102449285D01*
X65190714Y-102258809D01*
X65190714Y-101877857D01*
X65143095Y-101782619D01*
X65095476Y-101735000D01*
X65000238Y-101687380D01*
X64809761Y-101687380D01*
X64714523Y-101735000D01*
X64666904Y-101782619D01*
X64619285Y-101877857D01*
X64619285Y-102115952D01*
X64666904Y-102211190D01*
X64714523Y-102258809D01*
X64809761Y-102306428D01*
X65000238Y-102306428D01*
X65095476Y-102258809D01*
X65143095Y-102211190D01*
X65190714Y-102115952D01*
X65619285Y-102687380D02*
X65619285Y-101687380D01*
X66190714Y-102687380D02*
X65762142Y-102115952D01*
X66190714Y-101687380D02*
X65619285Y-102258809D01*
X115038333Y-62682380D02*
X114466904Y-62682380D01*
X114752619Y-62682380D02*
X114752619Y-61682380D01*
X114657380Y-61825238D01*
X114562142Y-61920476D01*
X114466904Y-61968095D01*
X115419285Y-61777619D02*
X115466904Y-61730000D01*
X115562142Y-61682380D01*
X115800238Y-61682380D01*
X115895476Y-61730000D01*
X115943095Y-61777619D01*
X115990714Y-61872857D01*
X115990714Y-61968095D01*
X115943095Y-62110952D01*
X115371666Y-62682380D01*
X115990714Y-62682380D01*
X116609761Y-61682380D02*
X116705000Y-61682380D01*
X116800238Y-61730000D01*
X116847857Y-61777619D01*
X116895476Y-61872857D01*
X116943095Y-62063333D01*
X116943095Y-62301428D01*
X116895476Y-62491904D01*
X116847857Y-62587142D01*
X116800238Y-62634761D01*
X116705000Y-62682380D01*
X116609761Y-62682380D01*
X116514523Y-62634761D01*
X116466904Y-62587142D01*
X116419285Y-62491904D01*
X116371666Y-62301428D01*
X116371666Y-62063333D01*
X116419285Y-61872857D01*
X116466904Y-61777619D01*
X116514523Y-61730000D01*
X116609761Y-61682380D01*
X117943095Y-62682380D02*
X117609761Y-62206190D01*
X117371666Y-62682380D02*
X117371666Y-61682380D01*
X117752619Y-61682380D01*
X117847857Y-61730000D01*
X117895476Y-61777619D01*
X117943095Y-61872857D01*
X117943095Y-62015714D01*
X117895476Y-62110952D01*
X117847857Y-62158571D01*
X117752619Y-62206190D01*
X117371666Y-62206190D01*
X58070761Y-118562380D02*
X57737428Y-118086190D01*
X57499333Y-118562380D02*
X57499333Y-117562380D01*
X57880285Y-117562380D01*
X57975523Y-117610000D01*
X58023142Y-117657619D01*
X58070761Y-117752857D01*
X58070761Y-117895714D01*
X58023142Y-117990952D01*
X57975523Y-118038571D01*
X57880285Y-118086190D01*
X57499333Y-118086190D01*
X58404095Y-118562380D02*
X58927904Y-117895714D01*
X58404095Y-117895714D02*
X58927904Y-118562380D01*
X127404761Y-65785857D02*
X127452380Y-65881095D01*
X127452380Y-66071571D01*
X127404761Y-66166809D01*
X127357142Y-66214428D01*
X127261904Y-66262047D01*
X126976190Y-66262047D01*
X126880952Y-66214428D01*
X126833333Y-66166809D01*
X126785714Y-66071571D01*
X126785714Y-65881095D01*
X126833333Y-65785857D01*
X127452380Y-64928714D02*
X126928571Y-64928714D01*
X126833333Y-64976333D01*
X126785714Y-65071571D01*
X126785714Y-65262047D01*
X126833333Y-65357285D01*
X127404761Y-64928714D02*
X127452380Y-65023952D01*
X127452380Y-65262047D01*
X127404761Y-65357285D01*
X127309523Y-65404904D01*
X127214285Y-65404904D01*
X127119047Y-65357285D01*
X127071428Y-65262047D01*
X127071428Y-65023952D01*
X127023809Y-64928714D01*
X126785714Y-64452523D02*
X127452380Y-64452523D01*
X126880952Y-64452523D02*
X126833333Y-64404904D01*
X126785714Y-64309666D01*
X126785714Y-64166809D01*
X126833333Y-64071571D01*
X126928571Y-64023952D01*
X127452380Y-64023952D01*
X127452380Y-63023952D02*
X127452380Y-63595380D01*
X127452380Y-63309666D02*
X126452380Y-63309666D01*
X126595238Y-63404904D01*
X126690476Y-63500142D01*
X126738095Y-63595380D01*
X116355952Y-46077142D02*
X116308333Y-46124761D01*
X116165476Y-46172380D01*
X116070238Y-46172380D01*
X115927380Y-46124761D01*
X115832142Y-46029523D01*
X115784523Y-45934285D01*
X115736904Y-45743809D01*
X115736904Y-45600952D01*
X115784523Y-45410476D01*
X115832142Y-45315238D01*
X115927380Y-45220000D01*
X116070238Y-45172380D01*
X116165476Y-45172380D01*
X116308333Y-45220000D01*
X116355952Y-45267619D01*
X116736904Y-45886666D02*
X117213095Y-45886666D01*
X116641666Y-46172380D02*
X116975000Y-45172380D01*
X117308333Y-46172380D01*
X117641666Y-46172380D02*
X117641666Y-45172380D01*
X118213095Y-46172380D01*
X118213095Y-45172380D01*
X119213095Y-46172380D02*
X118641666Y-46172380D01*
X118927380Y-46172380D02*
X118927380Y-45172380D01*
X118832142Y-45315238D01*
X118736904Y-45410476D01*
X118641666Y-45458095D01*
X52887619Y-55816190D02*
X52840000Y-55768571D01*
X52792380Y-55673333D01*
X52792380Y-55435238D01*
X52840000Y-55340000D01*
X52887619Y-55292380D01*
X52982857Y-55244761D01*
X53078095Y-55244761D01*
X53220952Y-55292380D01*
X53792380Y-55863809D01*
X53792380Y-55244761D01*
X53125714Y-54387619D02*
X53792380Y-54387619D01*
X52744761Y-54625714D02*
X53459047Y-54863809D01*
X53459047Y-54244761D01*
X52792380Y-54006666D02*
X53792380Y-53673333D01*
X52792380Y-53340000D01*
X52792380Y-52340000D02*
X52792380Y-51720952D01*
X53173333Y-52054285D01*
X53173333Y-51911428D01*
X53220952Y-51816190D01*
X53268571Y-51768571D01*
X53363809Y-51720952D01*
X53601904Y-51720952D01*
X53697142Y-51768571D01*
X53744761Y-51816190D01*
X53792380Y-51911428D01*
X53792380Y-52197142D01*
X53744761Y-52292380D01*
X53697142Y-52340000D01*
X53506666Y-51340000D02*
X53506666Y-50863809D01*
X53792380Y-51435238D02*
X52792380Y-51101904D01*
X53792380Y-50768571D01*
X60325095Y-117610000D02*
X60229857Y-117562380D01*
X60087000Y-117562380D01*
X59944142Y-117610000D01*
X59848904Y-117705238D01*
X59801285Y-117800476D01*
X59753666Y-117990952D01*
X59753666Y-118133809D01*
X59801285Y-118324285D01*
X59848904Y-118419523D01*
X59944142Y-118514761D01*
X60087000Y-118562380D01*
X60182238Y-118562380D01*
X60325095Y-118514761D01*
X60372714Y-118467142D01*
X60372714Y-118133809D01*
X60182238Y-118133809D01*
X60801285Y-118562380D02*
X60801285Y-117562380D01*
X61372714Y-118562380D01*
X61372714Y-117562380D01*
X61848904Y-118562380D02*
X61848904Y-117562380D01*
X62087000Y-117562380D01*
X62229857Y-117610000D01*
X62325095Y-117705238D01*
X62372714Y-117800476D01*
X62420333Y-117990952D01*
X62420333Y-118133809D01*
X62372714Y-118324285D01*
X62325095Y-118419523D01*
X62229857Y-118514761D01*
X62087000Y-118562380D01*
X61848904Y-118562380D01*
X117768809Y-124912380D02*
X117768809Y-123912380D01*
X118197380Y-124007619D02*
X118245000Y-123960000D01*
X118340238Y-123912380D01*
X118578333Y-123912380D01*
X118673571Y-123960000D01*
X118721190Y-124007619D01*
X118768809Y-124102857D01*
X118768809Y-124198095D01*
X118721190Y-124340952D01*
X118149761Y-124912380D01*
X118768809Y-124912380D01*
X119768809Y-124817142D02*
X119721190Y-124864761D01*
X119578333Y-124912380D01*
X119483095Y-124912380D01*
X119340238Y-124864761D01*
X119245000Y-124769523D01*
X119197380Y-124674285D01*
X119149761Y-124483809D01*
X119149761Y-124340952D01*
X119197380Y-124150476D01*
X119245000Y-124055238D01*
X119340238Y-123960000D01*
X119483095Y-123912380D01*
X119578333Y-123912380D01*
X119721190Y-123960000D01*
X119768809Y-124007619D01*
X48331380Y-103082285D02*
X47331380Y-103082285D01*
X47331380Y-102701333D01*
X47379000Y-102606095D01*
X47426619Y-102558476D01*
X47521857Y-102510857D01*
X47664714Y-102510857D01*
X47759952Y-102558476D01*
X47807571Y-102606095D01*
X47855190Y-102701333D01*
X47855190Y-103082285D01*
X48331380Y-101939428D02*
X48283761Y-102034666D01*
X48236142Y-102082285D01*
X48140904Y-102129904D01*
X47855190Y-102129904D01*
X47759952Y-102082285D01*
X47712333Y-102034666D01*
X47664714Y-101939428D01*
X47664714Y-101796571D01*
X47712333Y-101701333D01*
X47759952Y-101653714D01*
X47855190Y-101606095D01*
X48140904Y-101606095D01*
X48236142Y-101653714D01*
X48283761Y-101701333D01*
X48331380Y-101796571D01*
X48331380Y-101939428D01*
X48331380Y-101034666D02*
X48283761Y-101129904D01*
X48188523Y-101177523D01*
X47331380Y-101177523D01*
X47664714Y-100748952D02*
X48331380Y-100510857D01*
X47664714Y-100272761D02*
X48331380Y-100510857D01*
X48569476Y-100606095D01*
X48617095Y-100653714D01*
X48664714Y-100748952D01*
X47331380Y-99891809D02*
X48140904Y-99891809D01*
X48236142Y-99844190D01*
X48283761Y-99796571D01*
X48331380Y-99701333D01*
X48331380Y-99510857D01*
X48283761Y-99415619D01*
X48236142Y-99368000D01*
X48140904Y-99320380D01*
X47331380Y-99320380D01*
X48331380Y-97510857D02*
X47855190Y-97844190D01*
X48331380Y-98082285D02*
X47331380Y-98082285D01*
X47331380Y-97701333D01*
X47379000Y-97606095D01*
X47426619Y-97558476D01*
X47521857Y-97510857D01*
X47664714Y-97510857D01*
X47759952Y-97558476D01*
X47807571Y-97606095D01*
X47855190Y-97701333D01*
X47855190Y-98082285D01*
X48331380Y-96939428D02*
X48283761Y-97034666D01*
X48236142Y-97082285D01*
X48140904Y-97129904D01*
X47855190Y-97129904D01*
X47759952Y-97082285D01*
X47712333Y-97034666D01*
X47664714Y-96939428D01*
X47664714Y-96796571D01*
X47712333Y-96701333D01*
X47759952Y-96653714D01*
X47855190Y-96606095D01*
X48140904Y-96606095D01*
X48236142Y-96653714D01*
X48283761Y-96701333D01*
X48331380Y-96796571D01*
X48331380Y-96939428D01*
X48331380Y-96177523D02*
X47331380Y-96177523D01*
X47712333Y-96177523D02*
X47664714Y-96082285D01*
X47664714Y-95891809D01*
X47712333Y-95796571D01*
X47759952Y-95748952D01*
X47855190Y-95701333D01*
X48140904Y-95701333D01*
X48236142Y-95748952D01*
X48283761Y-95796571D01*
X48331380Y-95891809D01*
X48331380Y-96082285D01*
X48283761Y-96177523D01*
X48331380Y-95129904D02*
X48283761Y-95225142D01*
X48236142Y-95272761D01*
X48140904Y-95320380D01*
X47855190Y-95320380D01*
X47759952Y-95272761D01*
X47712333Y-95225142D01*
X47664714Y-95129904D01*
X47664714Y-94987047D01*
X47712333Y-94891809D01*
X47759952Y-94844190D01*
X47855190Y-94796571D01*
X48140904Y-94796571D01*
X48236142Y-94844190D01*
X48283761Y-94891809D01*
X48331380Y-94987047D01*
X48331380Y-95129904D01*
X47664714Y-94510857D02*
X47664714Y-94129904D01*
X47331380Y-94368000D02*
X48188523Y-94368000D01*
X48283761Y-94320380D01*
X48331380Y-94225142D01*
X48331380Y-94129904D01*
X48331380Y-93796571D02*
X47664714Y-93796571D01*
X47331380Y-93796571D02*
X47379000Y-93844190D01*
X47426619Y-93796571D01*
X47379000Y-93748952D01*
X47331380Y-93796571D01*
X47426619Y-93796571D01*
X48283761Y-92891809D02*
X48331380Y-92987047D01*
X48331380Y-93177523D01*
X48283761Y-93272761D01*
X48236142Y-93320380D01*
X48140904Y-93368000D01*
X47855190Y-93368000D01*
X47759952Y-93320380D01*
X47712333Y-93272761D01*
X47664714Y-93177523D01*
X47664714Y-92987047D01*
X47712333Y-92891809D01*
X48283761Y-92510857D02*
X48331380Y-92415619D01*
X48331380Y-92225142D01*
X48283761Y-92129904D01*
X48188523Y-92082285D01*
X48140904Y-92082285D01*
X48045666Y-92129904D01*
X47998047Y-92225142D01*
X47998047Y-92368000D01*
X47950428Y-92463238D01*
X47855190Y-92510857D01*
X47807571Y-92510857D01*
X47712333Y-92463238D01*
X47664714Y-92368000D01*
X47664714Y-92225142D01*
X47712333Y-92129904D01*
X48236142Y-90320380D02*
X48283761Y-90368000D01*
X48331380Y-90510857D01*
X48331380Y-90606095D01*
X48283761Y-90748952D01*
X48188523Y-90844190D01*
X48093285Y-90891809D01*
X47902809Y-90939428D01*
X47759952Y-90939428D01*
X47569476Y-90891809D01*
X47474238Y-90844190D01*
X47379000Y-90748952D01*
X47331380Y-90606095D01*
X47331380Y-90510857D01*
X47379000Y-90368000D01*
X47426619Y-90320380D01*
X48331380Y-89748952D02*
X48283761Y-89844190D01*
X48188523Y-89891809D01*
X47331380Y-89891809D01*
X47664714Y-88939428D02*
X48331380Y-88939428D01*
X47664714Y-89368000D02*
X48188523Y-89368000D01*
X48283761Y-89320380D01*
X48331380Y-89225142D01*
X48331380Y-89082285D01*
X48283761Y-88987047D01*
X48236142Y-88939428D01*
X48331380Y-88463238D02*
X47331380Y-88463238D01*
X47712333Y-88463238D02*
X47664714Y-88368000D01*
X47664714Y-88177523D01*
X47712333Y-88082285D01*
X47759952Y-88034666D01*
X47855190Y-87987047D01*
X48140904Y-87987047D01*
X48236142Y-88034666D01*
X48283761Y-88082285D01*
X48331380Y-88177523D01*
X48331380Y-88368000D01*
X48283761Y-88463238D01*
X48236142Y-86225142D02*
X48283761Y-86272761D01*
X48331380Y-86415619D01*
X48331380Y-86510857D01*
X48283761Y-86653714D01*
X48188523Y-86748952D01*
X48093285Y-86796571D01*
X47902809Y-86844190D01*
X47759952Y-86844190D01*
X47569476Y-86796571D01*
X47474238Y-86748952D01*
X47379000Y-86653714D01*
X47331380Y-86510857D01*
X47331380Y-86415619D01*
X47379000Y-86272761D01*
X47426619Y-86225142D01*
X48045666Y-85844190D02*
X48045666Y-85368000D01*
X48331380Y-85939428D02*
X47331380Y-85606095D01*
X48331380Y-85272761D01*
X48331380Y-84939428D02*
X47331380Y-84939428D01*
X48331380Y-84368000D01*
X47331380Y-84368000D01*
X47950428Y-83891809D02*
X47950428Y-83129904D01*
X47807571Y-82320380D02*
X47855190Y-82177523D01*
X47902809Y-82129904D01*
X47998047Y-82082285D01*
X48140904Y-82082285D01*
X48236142Y-82129904D01*
X48283761Y-82177523D01*
X48331380Y-82272761D01*
X48331380Y-82653714D01*
X47331380Y-82653714D01*
X47331380Y-82320380D01*
X47379000Y-82225142D01*
X47426619Y-82177523D01*
X47521857Y-82129904D01*
X47617095Y-82129904D01*
X47712333Y-82177523D01*
X47759952Y-82225142D01*
X47807571Y-82320380D01*
X47807571Y-82653714D01*
X47331380Y-81653714D02*
X48140904Y-81653714D01*
X48236142Y-81606095D01*
X48283761Y-81558476D01*
X48331380Y-81463238D01*
X48331380Y-81272761D01*
X48283761Y-81177523D01*
X48236142Y-81129904D01*
X48140904Y-81082285D01*
X47331380Y-81082285D01*
X48283761Y-80653714D02*
X48331380Y-80510857D01*
X48331380Y-80272761D01*
X48283761Y-80177523D01*
X48236142Y-80129904D01*
X48140904Y-80082285D01*
X48045666Y-80082285D01*
X47950428Y-80129904D01*
X47902809Y-80177523D01*
X47855190Y-80272761D01*
X47807571Y-80463238D01*
X47759952Y-80558476D01*
X47712333Y-80606095D01*
X47617095Y-80653714D01*
X47521857Y-80653714D01*
X47426619Y-80606095D01*
X47379000Y-80558476D01*
X47331380Y-80463238D01*
X47331380Y-80225142D01*
X47379000Y-80082285D01*
X47950428Y-79653714D02*
X47950428Y-78891809D01*
X47807571Y-78082285D02*
X47855190Y-77939428D01*
X47902809Y-77891809D01*
X47998047Y-77844190D01*
X48140904Y-77844190D01*
X48236142Y-77891809D01*
X48283761Y-77939428D01*
X48331380Y-78034666D01*
X48331380Y-78415619D01*
X47331380Y-78415619D01*
X47331380Y-78082285D01*
X47379000Y-77987047D01*
X47426619Y-77939428D01*
X47521857Y-77891809D01*
X47617095Y-77891809D01*
X47712333Y-77939428D01*
X47759952Y-77987047D01*
X47807571Y-78082285D01*
X47807571Y-78415619D01*
X48331380Y-77272761D02*
X48283761Y-77368000D01*
X48236142Y-77415619D01*
X48140904Y-77463238D01*
X47855190Y-77463238D01*
X47759952Y-77415619D01*
X47712333Y-77368000D01*
X47664714Y-77272761D01*
X47664714Y-77129904D01*
X47712333Y-77034666D01*
X47759952Y-76987047D01*
X47855190Y-76939428D01*
X48140904Y-76939428D01*
X48236142Y-76987047D01*
X48283761Y-77034666D01*
X48331380Y-77129904D01*
X48331380Y-77272761D01*
X48331380Y-76082285D02*
X47807571Y-76082285D01*
X47712333Y-76129904D01*
X47664714Y-76225142D01*
X47664714Y-76415619D01*
X47712333Y-76510857D01*
X48283761Y-76082285D02*
X48331380Y-76177523D01*
X48331380Y-76415619D01*
X48283761Y-76510857D01*
X48188523Y-76558476D01*
X48093285Y-76558476D01*
X47998047Y-76510857D01*
X47950428Y-76415619D01*
X47950428Y-76177523D01*
X47902809Y-76082285D01*
X48331380Y-75606095D02*
X47664714Y-75606095D01*
X47855190Y-75606095D02*
X47759952Y-75558476D01*
X47712333Y-75510857D01*
X47664714Y-75415619D01*
X47664714Y-75320380D01*
X48331380Y-74558476D02*
X47331380Y-74558476D01*
X48283761Y-74558476D02*
X48331380Y-74653714D01*
X48331380Y-74844190D01*
X48283761Y-74939428D01*
X48236142Y-74987047D01*
X48140904Y-75034666D01*
X47855190Y-75034666D01*
X47759952Y-74987047D01*
X47712333Y-74939428D01*
X47664714Y-74844190D01*
X47664714Y-74653714D01*
X47712333Y-74558476D01*
X47664714Y-73415619D02*
X48331380Y-73177523D01*
X47664714Y-72939428D01*
X47426619Y-72606095D02*
X47379000Y-72558476D01*
X47331380Y-72463238D01*
X47331380Y-72225142D01*
X47379000Y-72129904D01*
X47426619Y-72082285D01*
X47521857Y-72034666D01*
X47617095Y-72034666D01*
X47759952Y-72082285D01*
X48331380Y-72653714D01*
X48331380Y-72034666D01*
X48236142Y-71606095D02*
X48283761Y-71558476D01*
X48331380Y-71606095D01*
X48283761Y-71653714D01*
X48236142Y-71606095D01*
X48331380Y-71606095D01*
X47331380Y-70939428D02*
X47331380Y-70844190D01*
X47379000Y-70748952D01*
X47426619Y-70701333D01*
X47521857Y-70653714D01*
X47712333Y-70606095D01*
X47950428Y-70606095D01*
X48140904Y-70653714D01*
X48236142Y-70701333D01*
X48283761Y-70748952D01*
X48331380Y-70844190D01*
X48331380Y-70939428D01*
X48283761Y-71034666D01*
X48236142Y-71082285D01*
X48140904Y-71129904D01*
X47950428Y-71177523D01*
X47712333Y-71177523D01*
X47521857Y-71129904D01*
X47426619Y-71082285D01*
X47379000Y-71034666D01*
X47331380Y-70939428D01*
X98147380Y-63317380D02*
X97575952Y-63317380D01*
X97861666Y-63317380D02*
X97861666Y-62317380D01*
X97766428Y-62460238D01*
X97671190Y-62555476D01*
X97575952Y-62603095D01*
X98766428Y-62317380D02*
X98861666Y-62317380D01*
X98956904Y-62365000D01*
X99004523Y-62412619D01*
X99052142Y-62507857D01*
X99099761Y-62698333D01*
X99099761Y-62936428D01*
X99052142Y-63126904D01*
X99004523Y-63222142D01*
X98956904Y-63269761D01*
X98861666Y-63317380D01*
X98766428Y-63317380D01*
X98671190Y-63269761D01*
X98623571Y-63222142D01*
X98575952Y-63126904D01*
X98528333Y-62936428D01*
X98528333Y-62698333D01*
X98575952Y-62507857D01*
X98623571Y-62412619D01*
X98671190Y-62365000D01*
X98766428Y-62317380D01*
X99718809Y-62317380D02*
X99814047Y-62317380D01*
X99909285Y-62365000D01*
X99956904Y-62412619D01*
X100004523Y-62507857D01*
X100052142Y-62698333D01*
X100052142Y-62936428D01*
X100004523Y-63126904D01*
X99956904Y-63222142D01*
X99909285Y-63269761D01*
X99814047Y-63317380D01*
X99718809Y-63317380D01*
X99623571Y-63269761D01*
X99575952Y-63222142D01*
X99528333Y-63126904D01*
X99480714Y-62936428D01*
X99480714Y-62698333D01*
X99528333Y-62507857D01*
X99575952Y-62412619D01*
X99623571Y-62365000D01*
X99718809Y-62317380D01*
X100480714Y-62650714D02*
X100480714Y-63317380D01*
X100480714Y-62745952D02*
X100528333Y-62698333D01*
X100623571Y-62650714D01*
X100766428Y-62650714D01*
X100861666Y-62698333D01*
X100909285Y-62793571D01*
X100909285Y-63317380D01*
X101718809Y-62793571D02*
X101385476Y-62793571D01*
X101385476Y-63317380D02*
X101385476Y-62317380D01*
X101861666Y-62317380D01*
X113847714Y-118514761D02*
X113990571Y-118562380D01*
X114228666Y-118562380D01*
X114323904Y-118514761D01*
X114371523Y-118467142D01*
X114419142Y-118371904D01*
X114419142Y-118276666D01*
X114371523Y-118181428D01*
X114323904Y-118133809D01*
X114228666Y-118086190D01*
X114038190Y-118038571D01*
X113942952Y-117990952D01*
X113895333Y-117943333D01*
X113847714Y-117848095D01*
X113847714Y-117752857D01*
X113895333Y-117657619D01*
X113942952Y-117610000D01*
X114038190Y-117562380D01*
X114276285Y-117562380D01*
X114419142Y-117610000D01*
X114847714Y-118562380D02*
X114847714Y-117562380D01*
X115085809Y-117562380D01*
X115228666Y-117610000D01*
X115323904Y-117705238D01*
X115371523Y-117800476D01*
X115419142Y-117990952D01*
X115419142Y-118133809D01*
X115371523Y-118324285D01*
X115323904Y-118419523D01*
X115228666Y-118514761D01*
X115085809Y-118562380D01*
X114847714Y-118562380D01*
X115800095Y-118276666D02*
X116276285Y-118276666D01*
X115704857Y-118562380D02*
X116038190Y-117562380D01*
X116371523Y-118562380D01*
X51276428Y-117562380D02*
X51895476Y-117562380D01*
X51562142Y-117943333D01*
X51705000Y-117943333D01*
X51800238Y-117990952D01*
X51847857Y-118038571D01*
X51895476Y-118133809D01*
X51895476Y-118371904D01*
X51847857Y-118467142D01*
X51800238Y-118514761D01*
X51705000Y-118562380D01*
X51419285Y-118562380D01*
X51324047Y-118514761D01*
X51276428Y-118467142D01*
X52324047Y-118467142D02*
X52371666Y-118514761D01*
X52324047Y-118562380D01*
X52276428Y-118514761D01*
X52324047Y-118467142D01*
X52324047Y-118562380D01*
X52705000Y-117562380D02*
X53324047Y-117562380D01*
X52990714Y-117943333D01*
X53133571Y-117943333D01*
X53228809Y-117990952D01*
X53276428Y-118038571D01*
X53324047Y-118133809D01*
X53324047Y-118371904D01*
X53276428Y-118467142D01*
X53228809Y-118514761D01*
X53133571Y-118562380D01*
X52847857Y-118562380D01*
X52752619Y-118514761D01*
X52705000Y-118467142D01*
X53657380Y-117895714D02*
X53895476Y-118562380D01*
X54133571Y-117895714D01*
X105497380Y-56975000D02*
X105497380Y-56403571D01*
X106497380Y-56689285D02*
X105497380Y-56689285D01*
X105497380Y-55784523D02*
X106211666Y-55784523D01*
X106354523Y-55832142D01*
X106449761Y-55927380D01*
X106497380Y-56070238D01*
X106497380Y-56165476D01*
X106211666Y-55355952D02*
X106211666Y-54879761D01*
X106497380Y-55451190D02*
X105497380Y-55117857D01*
X106497380Y-54784523D01*
X106497380Y-53927380D02*
X106497380Y-54498809D01*
X106497380Y-54213095D02*
X105497380Y-54213095D01*
X105640238Y-54308333D01*
X105735476Y-54403571D01*
X105783095Y-54498809D01*
X105497380Y-53308333D02*
X105497380Y-53213095D01*
X105545000Y-53117857D01*
X105592619Y-53070238D01*
X105687857Y-53022619D01*
X105878333Y-52975000D01*
X106116428Y-52975000D01*
X106306904Y-53022619D01*
X106402142Y-53070238D01*
X106449761Y-53117857D01*
X106497380Y-53213095D01*
X106497380Y-53308333D01*
X106449761Y-53403571D01*
X106402142Y-53451190D01*
X106306904Y-53498809D01*
X106116428Y-53546428D01*
X105878333Y-53546428D01*
X105687857Y-53498809D01*
X105592619Y-53451190D01*
X105545000Y-53403571D01*
X105497380Y-53308333D01*
X105497380Y-52070238D02*
X105497380Y-52546428D01*
X105973571Y-52594047D01*
X105925952Y-52546428D01*
X105878333Y-52451190D01*
X105878333Y-52213095D01*
X105925952Y-52117857D01*
X105973571Y-52070238D01*
X106068809Y-52022619D01*
X106306904Y-52022619D01*
X106402142Y-52070238D01*
X106449761Y-52117857D01*
X106497380Y-52213095D01*
X106497380Y-52451190D01*
X106449761Y-52546428D01*
X106402142Y-52594047D01*
X105497380Y-51403571D02*
X105497380Y-51308333D01*
X105545000Y-51213095D01*
X105592619Y-51165476D01*
X105687857Y-51117857D01*
X105878333Y-51070238D01*
X106116428Y-51070238D01*
X106306904Y-51117857D01*
X106402142Y-51165476D01*
X106449761Y-51213095D01*
X106497380Y-51308333D01*
X106497380Y-51403571D01*
X106449761Y-51498809D01*
X106402142Y-51546428D01*
X106306904Y-51594047D01*
X106116428Y-51641666D01*
X105878333Y-51641666D01*
X105687857Y-51594047D01*
X105592619Y-51546428D01*
X105545000Y-51498809D01*
X105497380Y-51403571D01*
X115038333Y-51633380D02*
X114466904Y-51633380D01*
X114752619Y-51633380D02*
X114752619Y-50633380D01*
X114657380Y-50776238D01*
X114562142Y-50871476D01*
X114466904Y-50919095D01*
X115419285Y-50728619D02*
X115466904Y-50681000D01*
X115562142Y-50633380D01*
X115800238Y-50633380D01*
X115895476Y-50681000D01*
X115943095Y-50728619D01*
X115990714Y-50823857D01*
X115990714Y-50919095D01*
X115943095Y-51061952D01*
X115371666Y-51633380D01*
X115990714Y-51633380D01*
X116609761Y-50633380D02*
X116705000Y-50633380D01*
X116800238Y-50681000D01*
X116847857Y-50728619D01*
X116895476Y-50823857D01*
X116943095Y-51014333D01*
X116943095Y-51252428D01*
X116895476Y-51442904D01*
X116847857Y-51538142D01*
X116800238Y-51585761D01*
X116705000Y-51633380D01*
X116609761Y-51633380D01*
X116514523Y-51585761D01*
X116466904Y-51538142D01*
X116419285Y-51442904D01*
X116371666Y-51252428D01*
X116371666Y-51014333D01*
X116419285Y-50823857D01*
X116466904Y-50728619D01*
X116514523Y-50681000D01*
X116609761Y-50633380D01*
X117943095Y-51633380D02*
X117609761Y-51157190D01*
X117371666Y-51633380D02*
X117371666Y-50633380D01*
X117752619Y-50633380D01*
X117847857Y-50681000D01*
X117895476Y-50728619D01*
X117943095Y-50823857D01*
X117943095Y-50966714D01*
X117895476Y-51061952D01*
X117847857Y-51109571D01*
X117752619Y-51157190D01*
X117371666Y-51157190D01*
X61610952Y-129357380D02*
X61801428Y-129357380D01*
X61896666Y-129309761D01*
X61944285Y-129262142D01*
X62039523Y-129119285D01*
X62087142Y-128928809D01*
X62087142Y-128547857D01*
X62039523Y-128452619D01*
X61991904Y-128405000D01*
X61896666Y-128357380D01*
X61706190Y-128357380D01*
X61610952Y-128405000D01*
X61563333Y-128452619D01*
X61515714Y-128547857D01*
X61515714Y-128785952D01*
X61563333Y-128881190D01*
X61610952Y-128928809D01*
X61706190Y-128976428D01*
X61896666Y-128976428D01*
X61991904Y-128928809D01*
X62039523Y-128881190D01*
X62087142Y-128785952D01*
X62372857Y-128357380D02*
X62706190Y-129357380D01*
X63039523Y-128357380D01*
X108045380Y-117562380D02*
X108664428Y-117562380D01*
X108331095Y-117943333D01*
X108473952Y-117943333D01*
X108569190Y-117990952D01*
X108616809Y-118038571D01*
X108664428Y-118133809D01*
X108664428Y-118371904D01*
X108616809Y-118467142D01*
X108569190Y-118514761D01*
X108473952Y-118562380D01*
X108188238Y-118562380D01*
X108093000Y-118514761D01*
X108045380Y-118467142D01*
X109093000Y-118467142D02*
X109140619Y-118514761D01*
X109093000Y-118562380D01*
X109045380Y-118514761D01*
X109093000Y-118467142D01*
X109093000Y-118562380D01*
X109473952Y-117562380D02*
X110093000Y-117562380D01*
X109759666Y-117943333D01*
X109902523Y-117943333D01*
X109997761Y-117990952D01*
X110045380Y-118038571D01*
X110093000Y-118133809D01*
X110093000Y-118371904D01*
X110045380Y-118467142D01*
X109997761Y-118514761D01*
X109902523Y-118562380D01*
X109616809Y-118562380D01*
X109521571Y-118514761D01*
X109473952Y-118467142D01*
X95337380Y-56340000D02*
X95337380Y-55768571D01*
X96337380Y-56054285D02*
X95337380Y-56054285D01*
X95337380Y-55149523D02*
X96051666Y-55149523D01*
X96194523Y-55197142D01*
X96289761Y-55292380D01*
X96337380Y-55435238D01*
X96337380Y-55530476D01*
X96051666Y-54720952D02*
X96051666Y-54244761D01*
X96337380Y-54816190D02*
X95337380Y-54482857D01*
X96337380Y-54149523D01*
X96337380Y-53292380D02*
X96337380Y-53863809D01*
X96337380Y-53578095D02*
X95337380Y-53578095D01*
X95480238Y-53673333D01*
X95575476Y-53768571D01*
X95623095Y-53863809D01*
X95337380Y-52673333D02*
X95337380Y-52578095D01*
X95385000Y-52482857D01*
X95432619Y-52435238D01*
X95527857Y-52387619D01*
X95718333Y-52340000D01*
X95956428Y-52340000D01*
X96146904Y-52387619D01*
X96242142Y-52435238D01*
X96289761Y-52482857D01*
X96337380Y-52578095D01*
X96337380Y-52673333D01*
X96289761Y-52768571D01*
X96242142Y-52816190D01*
X96146904Y-52863809D01*
X95956428Y-52911428D01*
X95718333Y-52911428D01*
X95527857Y-52863809D01*
X95432619Y-52816190D01*
X95385000Y-52768571D01*
X95337380Y-52673333D01*
X95337380Y-51435238D02*
X95337380Y-51911428D01*
X95813571Y-51959047D01*
X95765952Y-51911428D01*
X95718333Y-51816190D01*
X95718333Y-51578095D01*
X95765952Y-51482857D01*
X95813571Y-51435238D01*
X95908809Y-51387619D01*
X96146904Y-51387619D01*
X96242142Y-51435238D01*
X96289761Y-51482857D01*
X96337380Y-51578095D01*
X96337380Y-51816190D01*
X96289761Y-51911428D01*
X96242142Y-51959047D01*
X95337380Y-50768571D02*
X95337380Y-50673333D01*
X95385000Y-50578095D01*
X95432619Y-50530476D01*
X95527857Y-50482857D01*
X95718333Y-50435238D01*
X95956428Y-50435238D01*
X96146904Y-50482857D01*
X96242142Y-50530476D01*
X96289761Y-50578095D01*
X96337380Y-50673333D01*
X96337380Y-50768571D01*
X96289761Y-50863809D01*
X96242142Y-50911428D01*
X96146904Y-50959047D01*
X95956428Y-51006666D01*
X95718333Y-51006666D01*
X95527857Y-50959047D01*
X95432619Y-50911428D01*
X95385000Y-50863809D01*
X95337380Y-50768571D01*
X127404761Y-49402857D02*
X127452380Y-49498095D01*
X127452380Y-49688571D01*
X127404761Y-49783809D01*
X127357142Y-49831428D01*
X127261904Y-49879047D01*
X126976190Y-49879047D01*
X126880952Y-49831428D01*
X126833333Y-49783809D01*
X126785714Y-49688571D01*
X126785714Y-49498095D01*
X126833333Y-49402857D01*
X127452380Y-48545714D02*
X126928571Y-48545714D01*
X126833333Y-48593333D01*
X126785714Y-48688571D01*
X126785714Y-48879047D01*
X126833333Y-48974285D01*
X127404761Y-48545714D02*
X127452380Y-48640952D01*
X127452380Y-48879047D01*
X127404761Y-48974285D01*
X127309523Y-49021904D01*
X127214285Y-49021904D01*
X127119047Y-48974285D01*
X127071428Y-48879047D01*
X127071428Y-48640952D01*
X127023809Y-48545714D01*
X126785714Y-48069523D02*
X127452380Y-48069523D01*
X126880952Y-48069523D02*
X126833333Y-48021904D01*
X126785714Y-47926666D01*
X126785714Y-47783809D01*
X126833333Y-47688571D01*
X126928571Y-47640952D01*
X127452380Y-47640952D01*
X126547619Y-47212380D02*
X126500000Y-47164761D01*
X126452380Y-47069523D01*
X126452380Y-46831428D01*
X126500000Y-46736190D01*
X126547619Y-46688571D01*
X126642857Y-46640952D01*
X126738095Y-46640952D01*
X126880952Y-46688571D01*
X127452380Y-47260000D01*
X127452380Y-46640952D01*
X110950523Y-118514761D02*
X111093380Y-118562380D01*
X111331476Y-118562380D01*
X111426714Y-118514761D01*
X111474333Y-118467142D01*
X111521952Y-118371904D01*
X111521952Y-118276666D01*
X111474333Y-118181428D01*
X111426714Y-118133809D01*
X111331476Y-118086190D01*
X111141000Y-118038571D01*
X111045761Y-117990952D01*
X110998142Y-117943333D01*
X110950523Y-117848095D01*
X110950523Y-117752857D01*
X110998142Y-117657619D01*
X111045761Y-117610000D01*
X111141000Y-117562380D01*
X111379095Y-117562380D01*
X111521952Y-117610000D01*
X112521952Y-118467142D02*
X112474333Y-118514761D01*
X112331476Y-118562380D01*
X112236238Y-118562380D01*
X112093380Y-118514761D01*
X111998142Y-118419523D01*
X111950523Y-118324285D01*
X111902904Y-118133809D01*
X111902904Y-117990952D01*
X111950523Y-117800476D01*
X111998142Y-117705238D01*
X112093380Y-117610000D01*
X112236238Y-117562380D01*
X112331476Y-117562380D01*
X112474333Y-117610000D01*
X112521952Y-117657619D01*
X113426714Y-118562380D02*
X112950523Y-118562380D01*
X112950523Y-117562380D01*
X123563142Y-47442380D02*
X123086952Y-47442380D01*
X123086952Y-46442380D01*
X123896476Y-46918571D02*
X124229809Y-46918571D01*
X124372666Y-47442380D02*
X123896476Y-47442380D01*
X123896476Y-46442380D01*
X124372666Y-46442380D01*
X124801238Y-47442380D02*
X124801238Y-46442380D01*
X125039333Y-46442380D01*
X125182190Y-46490000D01*
X125277428Y-46585238D01*
X125325047Y-46680476D01*
X125372666Y-46870952D01*
X125372666Y-47013809D01*
X125325047Y-47204285D01*
X125277428Y-47299523D01*
X125182190Y-47394761D01*
X125039333Y-47442380D01*
X124801238Y-47442380D01*
X78922619Y-75731190D02*
X78875000Y-75683571D01*
X78827380Y-75588333D01*
X78827380Y-75350238D01*
X78875000Y-75255000D01*
X78922619Y-75207380D01*
X79017857Y-75159761D01*
X79113095Y-75159761D01*
X79255952Y-75207380D01*
X79827380Y-75778809D01*
X79827380Y-75159761D01*
X79160714Y-74302619D02*
X79827380Y-74302619D01*
X78779761Y-74540714D02*
X79494047Y-74778809D01*
X79494047Y-74159761D01*
X78827380Y-73921666D02*
X79827380Y-73588333D01*
X78827380Y-73255000D01*
X79160714Y-72302619D02*
X79160714Y-71921666D01*
X78827380Y-72159761D02*
X79684523Y-72159761D01*
X79779761Y-72112142D01*
X79827380Y-72016904D01*
X79827380Y-71921666D01*
X79827380Y-71445476D02*
X79779761Y-71540714D01*
X79732142Y-71588333D01*
X79636904Y-71635952D01*
X79351190Y-71635952D01*
X79255952Y-71588333D01*
X79208333Y-71540714D01*
X79160714Y-71445476D01*
X79160714Y-71302619D01*
X79208333Y-71207380D01*
X79255952Y-71159761D01*
X79351190Y-71112142D01*
X79636904Y-71112142D01*
X79732142Y-71159761D01*
X79779761Y-71207380D01*
X79827380Y-71302619D01*
X79827380Y-71445476D01*
X79827380Y-69874047D02*
X79827380Y-69683571D01*
X79779761Y-69588333D01*
X79732142Y-69540714D01*
X79589285Y-69445476D01*
X79398809Y-69397857D01*
X79017857Y-69397857D01*
X78922619Y-69445476D01*
X78875000Y-69493095D01*
X78827380Y-69588333D01*
X78827380Y-69778809D01*
X78875000Y-69874047D01*
X78922619Y-69921666D01*
X79017857Y-69969285D01*
X79255952Y-69969285D01*
X79351190Y-69921666D01*
X79398809Y-69874047D01*
X79446428Y-69778809D01*
X79446428Y-69588333D01*
X79398809Y-69493095D01*
X79351190Y-69445476D01*
X79255952Y-69397857D01*
X78827380Y-69112142D02*
X79827380Y-68778809D01*
X78827380Y-68445476D01*
X74485952Y-57554761D02*
X74628809Y-57602380D01*
X74866904Y-57602380D01*
X74962142Y-57554761D01*
X75009761Y-57507142D01*
X75057380Y-57411904D01*
X75057380Y-57316666D01*
X75009761Y-57221428D01*
X74962142Y-57173809D01*
X74866904Y-57126190D01*
X74676428Y-57078571D01*
X74581190Y-57030952D01*
X74533571Y-56983333D01*
X74485952Y-56888095D01*
X74485952Y-56792857D01*
X74533571Y-56697619D01*
X74581190Y-56650000D01*
X74676428Y-56602380D01*
X74914523Y-56602380D01*
X75057380Y-56650000D01*
X75485952Y-57602380D02*
X75485952Y-56602380D01*
X75819285Y-57316666D01*
X76152619Y-56602380D01*
X76152619Y-57602380D01*
X76962142Y-57078571D02*
X77105000Y-57126190D01*
X77152619Y-57173809D01*
X77200238Y-57269047D01*
X77200238Y-57411904D01*
X77152619Y-57507142D01*
X77105000Y-57554761D01*
X77009761Y-57602380D01*
X76628809Y-57602380D01*
X76628809Y-56602380D01*
X76962142Y-56602380D01*
X77057380Y-56650000D01*
X77105000Y-56697619D01*
X77152619Y-56792857D01*
X77152619Y-56888095D01*
X77105000Y-56983333D01*
X77057380Y-57030952D01*
X76962142Y-57078571D01*
X76628809Y-57078571D01*
X77914523Y-56602380D02*
X77914523Y-57316666D01*
X77866904Y-57459523D01*
X77771666Y-57554761D01*
X77628809Y-57602380D01*
X77533571Y-57602380D01*
X78343095Y-56697619D02*
X78390714Y-56650000D01*
X78485952Y-56602380D01*
X78724047Y-56602380D01*
X78819285Y-56650000D01*
X78866904Y-56697619D01*
X78914523Y-56792857D01*
X78914523Y-56888095D01*
X78866904Y-57030952D01*
X78295476Y-57602380D01*
X78914523Y-57602380D01*
X79771666Y-56935714D02*
X79771666Y-57602380D01*
X79533571Y-56554761D02*
X79295476Y-57269047D01*
X79914523Y-57269047D01*
X80866904Y-57507142D02*
X80819285Y-57554761D01*
X80676428Y-57602380D01*
X80581190Y-57602380D01*
X80438333Y-57554761D01*
X80343095Y-57459523D01*
X80295476Y-57364285D01*
X80247857Y-57173809D01*
X80247857Y-57030952D01*
X80295476Y-56840476D01*
X80343095Y-56745238D01*
X80438333Y-56650000D01*
X80581190Y-56602380D01*
X80676428Y-56602380D01*
X80819285Y-56650000D01*
X80866904Y-56697619D01*
X81247857Y-57316666D02*
X81724047Y-57316666D01*
X81152619Y-57602380D02*
X81485952Y-56602380D01*
X81819285Y-57602380D01*
X108307380Y-63317380D02*
X107735952Y-63317380D01*
X108021666Y-63317380D02*
X108021666Y-62317380D01*
X107926428Y-62460238D01*
X107831190Y-62555476D01*
X107735952Y-62603095D01*
X108926428Y-62317380D02*
X109021666Y-62317380D01*
X109116904Y-62365000D01*
X109164523Y-62412619D01*
X109212142Y-62507857D01*
X109259761Y-62698333D01*
X109259761Y-62936428D01*
X109212142Y-63126904D01*
X109164523Y-63222142D01*
X109116904Y-63269761D01*
X109021666Y-63317380D01*
X108926428Y-63317380D01*
X108831190Y-63269761D01*
X108783571Y-63222142D01*
X108735952Y-63126904D01*
X108688333Y-62936428D01*
X108688333Y-62698333D01*
X108735952Y-62507857D01*
X108783571Y-62412619D01*
X108831190Y-62365000D01*
X108926428Y-62317380D01*
X109878809Y-62317380D02*
X109974047Y-62317380D01*
X110069285Y-62365000D01*
X110116904Y-62412619D01*
X110164523Y-62507857D01*
X110212142Y-62698333D01*
X110212142Y-62936428D01*
X110164523Y-63126904D01*
X110116904Y-63222142D01*
X110069285Y-63269761D01*
X109974047Y-63317380D01*
X109878809Y-63317380D01*
X109783571Y-63269761D01*
X109735952Y-63222142D01*
X109688333Y-63126904D01*
X109640714Y-62936428D01*
X109640714Y-62698333D01*
X109688333Y-62507857D01*
X109735952Y-62412619D01*
X109783571Y-62365000D01*
X109878809Y-62317380D01*
X110640714Y-62650714D02*
X110640714Y-63317380D01*
X110640714Y-62745952D02*
X110688333Y-62698333D01*
X110783571Y-62650714D01*
X110926428Y-62650714D01*
X111021666Y-62698333D01*
X111069285Y-62793571D01*
X111069285Y-63317380D01*
X111878809Y-62793571D02*
X111545476Y-62793571D01*
X111545476Y-63317380D02*
X111545476Y-62317380D01*
X112021666Y-62317380D01*
X75246630Y-78614047D02*
X75246630Y-78423571D01*
X75294250Y-78328333D01*
X75389488Y-78233095D01*
X75579964Y-78185476D01*
X75913297Y-78185476D01*
X76103773Y-78233095D01*
X76199011Y-78328333D01*
X76246630Y-78423571D01*
X76246630Y-78614047D01*
X76199011Y-78709285D01*
X76103773Y-78804523D01*
X75913297Y-78852142D01*
X75579964Y-78852142D01*
X75389488Y-78804523D01*
X75294250Y-78709285D01*
X75246630Y-78614047D01*
X75246630Y-77756904D02*
X76056154Y-77756904D01*
X76151392Y-77709285D01*
X76199011Y-77661666D01*
X76246630Y-77566428D01*
X76246630Y-77375952D01*
X76199011Y-77280714D01*
X76151392Y-77233095D01*
X76056154Y-77185476D01*
X75246630Y-77185476D01*
X75246630Y-76852142D02*
X75246630Y-76280714D01*
X76246630Y-76566428D02*
X75246630Y-76566428D01*
X75865678Y-75947380D02*
X75865678Y-75185476D01*
X63054630Y-78868047D02*
X63054630Y-78677571D01*
X63102250Y-78582333D01*
X63197488Y-78487095D01*
X63387964Y-78439476D01*
X63721297Y-78439476D01*
X63911773Y-78487095D01*
X64007011Y-78582333D01*
X64054630Y-78677571D01*
X64054630Y-78868047D01*
X64007011Y-78963285D01*
X63911773Y-79058523D01*
X63721297Y-79106142D01*
X63387964Y-79106142D01*
X63197488Y-79058523D01*
X63102250Y-78963285D01*
X63054630Y-78868047D01*
X63054630Y-78010904D02*
X63864154Y-78010904D01*
X63959392Y-77963285D01*
X64007011Y-77915666D01*
X64054630Y-77820428D01*
X64054630Y-77629952D01*
X64007011Y-77534714D01*
X63959392Y-77487095D01*
X63864154Y-77439476D01*
X63054630Y-77439476D01*
X63054630Y-77106142D02*
X63054630Y-76534714D01*
X64054630Y-76820428D02*
X63054630Y-76820428D01*
X63673678Y-76201380D02*
X63673678Y-75439476D01*
X64054630Y-75820428D02*
X63292726Y-75820428D01*
X64054630Y-68485857D02*
X63054630Y-68485857D01*
X64054630Y-68009666D02*
X63054630Y-68009666D01*
X64054630Y-67438238D01*
X63054630Y-67438238D01*
X63673678Y-66962047D02*
X63673678Y-66200142D01*
X64054630Y-66581095D02*
X63292726Y-66581095D01*
X76246630Y-68485857D02*
X75246630Y-68485857D01*
X76246630Y-68009666D02*
X75246630Y-68009666D01*
X76246630Y-67438238D01*
X75246630Y-67438238D01*
X75865678Y-66962047D02*
X75865678Y-66200142D01*
X80517904Y-78912380D02*
X80517904Y-77912380D01*
X81089333Y-78912380D01*
X81089333Y-77912380D01*
X81994095Y-78245714D02*
X81994095Y-78912380D01*
X81565523Y-78245714D02*
X81565523Y-78769523D01*
X81613142Y-78864761D01*
X81708380Y-78912380D01*
X81851238Y-78912380D01*
X81946476Y-78864761D01*
X81994095Y-78817142D01*
X82898857Y-78864761D02*
X82803619Y-78912380D01*
X82613142Y-78912380D01*
X82517904Y-78864761D01*
X82470285Y-78817142D01*
X82422666Y-78721904D01*
X82422666Y-78436190D01*
X82470285Y-78340952D01*
X82517904Y-78293333D01*
X82613142Y-78245714D01*
X82803619Y-78245714D01*
X82898857Y-78293333D01*
X83470285Y-78912380D02*
X83375047Y-78864761D01*
X83327428Y-78769523D01*
X83327428Y-77912380D01*
X84232190Y-78864761D02*
X84136952Y-78912380D01*
X83946476Y-78912380D01*
X83851238Y-78864761D01*
X83803619Y-78769523D01*
X83803619Y-78388571D01*
X83851238Y-78293333D01*
X83946476Y-78245714D01*
X84136952Y-78245714D01*
X84232190Y-78293333D01*
X84279809Y-78388571D01*
X84279809Y-78483809D01*
X83803619Y-78579047D01*
X84851238Y-78912380D02*
X84756000Y-78864761D01*
X84708380Y-78817142D01*
X84660761Y-78721904D01*
X84660761Y-78436190D01*
X84708380Y-78340952D01*
X84756000Y-78293333D01*
X84851238Y-78245714D01*
X84994095Y-78245714D01*
X85089333Y-78293333D01*
X85136952Y-78340952D01*
X85184571Y-78436190D01*
X85184571Y-78721904D01*
X85136952Y-78817142D01*
X85089333Y-78864761D01*
X84994095Y-78912380D01*
X84851238Y-78912380D01*
X85613142Y-78531428D02*
X86375047Y-78531428D01*
X87184571Y-78388571D02*
X86851238Y-78388571D01*
X86851238Y-78912380D02*
X86851238Y-77912380D01*
X87327428Y-77912380D01*
X88136952Y-78245714D02*
X88136952Y-78912380D01*
X87898857Y-77864761D02*
X87660761Y-78579047D01*
X88279809Y-78579047D01*
X89089333Y-78245714D02*
X89089333Y-78912380D01*
X88851238Y-77864761D02*
X88613142Y-78579047D01*
X89232190Y-78579047D01*
X90041714Y-77912380D02*
X89851238Y-77912380D01*
X89756000Y-77960000D01*
X89708380Y-78007619D01*
X89613142Y-78150476D01*
X89565523Y-78340952D01*
X89565523Y-78721904D01*
X89613142Y-78817142D01*
X89660761Y-78864761D01*
X89756000Y-78912380D01*
X89946476Y-78912380D01*
X90041714Y-78864761D01*
X90089333Y-78817142D01*
X90136952Y-78721904D01*
X90136952Y-78483809D01*
X90089333Y-78388571D01*
X90041714Y-78340952D01*
X89946476Y-78293333D01*
X89756000Y-78293333D01*
X89660761Y-78340952D01*
X89613142Y-78388571D01*
X89565523Y-78483809D01*
X91136952Y-78912380D02*
X90803619Y-78436190D01*
X90565523Y-78912380D02*
X90565523Y-77912380D01*
X90946476Y-77912380D01*
X91041714Y-77960000D01*
X91089333Y-78007619D01*
X91136952Y-78102857D01*
X91136952Y-78245714D01*
X91089333Y-78340952D01*
X91041714Y-78388571D01*
X90946476Y-78436190D01*
X90565523Y-78436190D01*
X91565523Y-78388571D02*
X91898857Y-78388571D01*
X92041714Y-78912380D02*
X91565523Y-78912380D01*
X91565523Y-77912380D01*
X92041714Y-77912380D01*
D11*
X81856000Y-53858748D02*
X81856000Y-56631252D01*
X85276000Y-53858748D02*
X85276000Y-56631252D01*
X116289064Y-128751000D02*
X115834936Y-128751000D01*
X116289064Y-127281000D02*
X115834936Y-127281000D01*
X61015000Y-34401000D02*
X61015000Y-35401000D01*
X61015000Y-34201000D02*
X61215000Y-34201000D01*
X76815000Y-34201000D02*
X77015000Y-34201000D01*
X77415000Y-52801000D02*
X78415000Y-52801000D01*
X77915000Y-53301000D02*
X77915000Y-52301000D01*
X61015000Y-53401000D02*
X61215000Y-53401000D01*
X77015000Y-35401000D02*
X77015000Y-36201000D01*
X61215000Y-34201000D02*
X76815000Y-34201000D01*
X69015000Y-53401000D02*
X61215000Y-53401000D01*
X77015000Y-36201000D02*
X77015000Y-53401000D01*
X76815000Y-53401000D02*
X69015000Y-53401000D01*
X60015000Y-53301000D02*
X60015000Y-52301000D01*
X61015000Y-35401000D02*
X61015000Y-36201000D01*
X61015000Y-34201000D02*
X61015000Y-34401000D01*
X77015000Y-34201000D02*
X77015000Y-34401000D01*
X61015000Y-53401000D02*
X61015000Y-36201000D01*
X76815000Y-53401000D02*
X77015000Y-53401000D01*
X77015000Y-34401000D02*
X77015000Y-35401000D01*
X125492000Y-70048000D02*
X128352000Y-70048000D01*
X128352000Y-70048000D02*
X128352000Y-68128000D01*
X128352000Y-68128000D02*
X125492000Y-68128000D01*
X124105936Y-120369000D02*
X124560064Y-120369000D01*
X124105936Y-118899000D02*
X124560064Y-118899000D01*
X77191250Y-83599000D02*
X78062250Y-83599000D01*
D12*
X69952250Y-69121000D02*
X69952250Y-75471000D01*
D11*
X78062250Y-83599000D02*
X78062250Y-83501000D01*
D12*
X69952250Y-75471000D02*
X68682250Y-74201000D01*
D11*
X74270250Y-61501000D02*
X65380250Y-61501000D01*
X62078250Y-61501000D02*
X61062250Y-61501000D01*
D13*
X78062250Y-61501000D02*
X78062250Y-83501000D01*
D11*
X78062250Y-83599000D02*
X77191250Y-83599000D01*
X73762250Y-83599000D02*
X65634250Y-83599000D01*
D13*
X61062250Y-61501000D02*
X61062250Y-83501000D01*
D11*
X78062250Y-61501000D02*
X77318250Y-61501000D01*
X62205250Y-83599000D02*
X61062250Y-83599000D01*
X61062250Y-83599000D02*
X61062250Y-83501000D01*
D12*
X69952250Y-75471000D02*
X71222250Y-74201000D01*
D11*
X111278936Y-127281000D02*
X111733064Y-127281000D01*
X111278936Y-128751000D02*
X111733064Y-128751000D01*
G36*
X102474468Y-98857106D02*
G01*
X102447331Y-98884243D01*
X102420195Y-98857106D01*
X102447331Y-98829969D01*
X102474468Y-98857106D01*
G37*
G36*
X106254957Y-110043561D02*
G01*
X106246477Y-110064585D01*
X106197706Y-110116361D01*
X106189000Y-110118858D01*
X106165689Y-110076867D01*
X106165066Y-110064585D01*
X106206789Y-110012397D01*
X106222543Y-110010311D01*
X106254957Y-110043561D01*
G37*
G36*
X106906804Y-113339086D02*
G01*
X106899354Y-113371352D01*
X106870622Y-113375268D01*
X106825949Y-113355411D01*
X106834440Y-113339086D01*
X106898850Y-113332591D01*
X106906804Y-113339086D01*
G37*
G36*
X106979169Y-105315653D02*
G01*
X107030945Y-105364424D01*
X107033442Y-105373130D01*
X106991452Y-105396441D01*
X106979169Y-105397063D01*
X106926981Y-105355340D01*
X106924895Y-105339587D01*
X106958145Y-105307173D01*
X106979169Y-105315653D01*
G37*
G36*
X110669767Y-98911379D02*
G01*
X110642631Y-98938516D01*
X110615494Y-98911379D01*
X110642631Y-98884243D01*
X110669767Y-98911379D01*
G37*
G36*
X107793272Y-113076764D02*
G01*
X107766135Y-113103901D01*
X107738998Y-113076764D01*
X107766135Y-113049627D01*
X107793272Y-113076764D01*
G37*
G36*
X109150109Y-112316935D02*
G01*
X109122972Y-112344072D01*
X109095836Y-112316935D01*
X109122972Y-112289798D01*
X109150109Y-112316935D01*
G37*
G36*
X106110793Y-113510952D02*
G01*
X106083656Y-113538089D01*
X106056519Y-113510952D01*
X106083656Y-113483815D01*
X106110793Y-113510952D01*
G37*
G36*
X99436091Y-104939852D02*
G01*
X99481093Y-104704126D01*
X99499506Y-104637234D01*
X99569541Y-104468069D01*
X99658154Y-104332536D01*
X99743815Y-104261469D01*
X99764780Y-104257320D01*
X99800300Y-104305033D01*
X99854935Y-104430637D01*
X99917365Y-104607832D01*
X99922427Y-104623666D01*
X99993025Y-104831689D01*
X100063937Y-105017245D01*
X100116809Y-105134070D01*
X100166591Y-105281120D01*
X100193456Y-105468145D01*
X100194981Y-105518092D01*
X100156235Y-105750173D01*
X100040514Y-105905776D01*
X99848593Y-105984118D01*
X99723174Y-105994072D01*
X99574622Y-105983462D01*
X99492070Y-105935938D01*
X99435322Y-105831661D01*
X99405013Y-105683638D01*
X99396243Y-105463240D01*
X99397608Y-105430980D01*
X99516511Y-105430980D01*
X99547743Y-105664397D01*
X99635498Y-105816645D01*
X99669210Y-105842884D01*
X99743426Y-105878991D01*
X99813131Y-105864419D01*
X99911537Y-105801037D01*
X100003273Y-105686235D01*
X100029346Y-105510137D01*
X99989890Y-105263358D01*
X99922377Y-105040690D01*
X99832338Y-104805268D01*
X99757320Y-104674167D01*
X99693442Y-104648264D01*
X99636824Y-104728439D01*
X99583585Y-104915570D01*
X99543569Y-105126468D01*
X99516511Y-105430980D01*
X99397608Y-105430980D01*
X99407205Y-105204101D01*
X99436091Y-104939852D01*
G37*
G36*
X111683765Y-100285178D02*
G01*
X111690236Y-100370000D01*
X111679481Y-100389202D01*
X111654813Y-100373015D01*
X111650975Y-100317968D01*
X111664230Y-100260056D01*
X111683765Y-100285178D01*
G37*
G36*
X99362787Y-101507462D02*
G01*
X99369283Y-101571872D01*
X99362787Y-101579827D01*
X99330522Y-101572377D01*
X99326605Y-101543644D01*
X99346463Y-101498971D01*
X99362787Y-101507462D01*
G37*
G36*
X107069625Y-109160026D02*
G01*
X107076120Y-109224436D01*
X107069625Y-109232391D01*
X107037359Y-109224941D01*
X107033442Y-109196209D01*
X107053300Y-109151535D01*
X107069625Y-109160026D01*
G37*
G36*
X106816348Y-102547704D02*
G01*
X106789212Y-102574841D01*
X106762075Y-102547704D01*
X106789212Y-102520568D01*
X106816348Y-102547704D01*
G37*
G36*
X104085475Y-107069366D02*
G01*
X104091945Y-107154189D01*
X104081190Y-107173390D01*
X104056522Y-107157203D01*
X104052684Y-107102156D01*
X104065939Y-107044244D01*
X104085475Y-107069366D01*
G37*
G36*
X99815066Y-98368644D02*
G01*
X99787930Y-98395781D01*
X99760793Y-98368644D01*
X99787930Y-98341508D01*
X99815066Y-98368644D01*
G37*
G36*
X107793272Y-109114798D02*
G01*
X107766135Y-109141935D01*
X107738998Y-109114798D01*
X107766135Y-109087662D01*
X107793272Y-109114798D01*
G37*
G36*
X101891695Y-108112703D02*
G01*
X101931733Y-108170819D01*
X101890572Y-108212703D01*
X101806749Y-108213315D01*
X101752297Y-108184579D01*
X101740685Y-108113940D01*
X101744989Y-108105539D01*
X101808942Y-108083374D01*
X101891695Y-108112703D01*
G37*
G36*
X95692953Y-113718101D02*
G01*
X96069336Y-113358460D01*
X96431677Y-113099560D01*
X96597682Y-113012112D01*
X96863553Y-112915675D01*
X97229838Y-112825263D01*
X97688515Y-112742078D01*
X98231557Y-112667325D01*
X98850941Y-112602208D01*
X99538642Y-112547929D01*
X99804300Y-112531101D01*
X100097270Y-112509362D01*
X100288782Y-112484467D01*
X100385907Y-112455225D01*
X100401309Y-112430597D01*
X100356485Y-112371671D01*
X100246080Y-112257434D01*
X100086319Y-112103921D01*
X99893425Y-111927169D01*
X99877582Y-111912982D01*
X99333210Y-111371094D01*
X98827586Y-110759735D01*
X98380226Y-110105930D01*
X98010643Y-109436706D01*
X97876684Y-109141935D01*
X97699142Y-108702514D01*
X97565253Y-108318255D01*
X97464348Y-107950342D01*
X97385756Y-107559962D01*
X97319858Y-107116320D01*
X97265859Y-106388056D01*
X97283794Y-105614698D01*
X97364369Y-104864205D01*
X98255361Y-104864205D01*
X98263529Y-105478473D01*
X98277151Y-105778461D01*
X98291519Y-106051848D01*
X98305226Y-106274559D01*
X98316865Y-106422515D01*
X98320630Y-106455397D01*
X98370900Y-106803001D01*
X98411162Y-107060514D01*
X98444637Y-107245582D01*
X98474545Y-107375852D01*
X98504109Y-107468971D01*
X98507029Y-107476558D01*
X98552416Y-107647482D01*
X98566776Y-107785428D01*
X98583870Y-107909443D01*
X98621049Y-107975055D01*
X98666084Y-108051339D01*
X98675323Y-108117818D01*
X98712424Y-108246426D01*
X98756733Y-108308449D01*
X98823478Y-108427913D01*
X98838143Y-108512696D01*
X98861182Y-108613389D01*
X98922404Y-108782854D01*
X99009971Y-108993530D01*
X99112043Y-109217854D01*
X99216782Y-109428266D01*
X99283283Y-109548986D01*
X99355912Y-109680233D01*
X99421436Y-109805706D01*
X99490217Y-109921201D01*
X99546207Y-109984724D01*
X99595410Y-110040266D01*
X99686566Y-110162627D01*
X99802868Y-110327360D01*
X99927511Y-110510015D01*
X100043688Y-110686146D01*
X100134592Y-110831303D01*
X100167146Y-110887999D01*
X100227120Y-110968700D01*
X100259798Y-110987234D01*
X100311325Y-111023446D01*
X100422312Y-111121935D01*
X100576216Y-111267480D01*
X100748977Y-111437335D01*
X101126482Y-111789147D01*
X101518129Y-112107963D01*
X101893364Y-112369598D01*
X102031658Y-112452619D01*
X102161725Y-112544522D01*
X102246419Y-112629008D01*
X102334369Y-112706009D01*
X102390045Y-112723986D01*
X102471300Y-112753050D01*
X102606841Y-112828242D01*
X102727445Y-112906382D01*
X102894697Y-113013647D01*
X103045124Y-113097070D01*
X103118450Y-113128721D01*
X103232966Y-113173669D01*
X103403637Y-113250195D01*
X103561895Y-113326239D01*
X103742876Y-113408441D01*
X103897641Y-113465452D01*
X103982999Y-113483815D01*
X104089418Y-113508464D01*
X104244831Y-113571239D01*
X104334639Y-113615749D01*
X104518902Y-113699427D01*
X104698678Y-113758862D01*
X104763342Y-113772013D01*
X104988111Y-113785978D01*
X105285784Y-113781847D01*
X105622698Y-113762171D01*
X105965191Y-113729502D01*
X106279601Y-113686392D01*
X106517844Y-113639029D01*
X106966935Y-113523904D01*
X107312608Y-113426491D01*
X107558360Y-113345750D01*
X107684725Y-113292787D01*
X107909541Y-113183885D01*
X108128007Y-113083855D01*
X108315676Y-113003303D01*
X108448102Y-112952835D01*
X108495411Y-112941080D01*
X108550867Y-112903584D01*
X108553101Y-112889353D01*
X108597397Y-112834497D01*
X108706667Y-112765339D01*
X108733778Y-112751889D01*
X108853377Y-112681275D01*
X109028602Y-112560831D01*
X109231656Y-112410177D01*
X109357833Y-112311406D01*
X109919755Y-111807432D01*
X110440567Y-111233880D01*
X110895579Y-110619941D01*
X111166472Y-110173132D01*
X111263982Y-109984626D01*
X111375466Y-109752133D01*
X111491319Y-109497883D01*
X111601934Y-109244106D01*
X111697703Y-109013031D01*
X111769021Y-108826887D01*
X111806280Y-108707906D01*
X111809511Y-108685160D01*
X111831044Y-108569719D01*
X111883126Y-108423474D01*
X111885789Y-108417445D01*
X111932976Y-108277478D01*
X111990964Y-108053643D01*
X112055054Y-107769508D01*
X112120546Y-107448639D01*
X112182743Y-107114604D01*
X112236943Y-106790970D01*
X112278449Y-106501304D01*
X112293242Y-106373986D01*
X112322978Y-105788019D01*
X112301453Y-105147739D01*
X112232298Y-104492479D01*
X112119141Y-103861573D01*
X112027797Y-103497491D01*
X111933823Y-103196324D01*
X111830847Y-102915997D01*
X111727224Y-102675097D01*
X111631312Y-102492211D01*
X111551469Y-102385925D01*
X111519574Y-102367192D01*
X111435364Y-102397313D01*
X111297690Y-102500400D01*
X111121394Y-102665057D01*
X111089641Y-102697333D01*
X110910836Y-102873507D01*
X110734558Y-103034514D01*
X110591939Y-103152251D01*
X110561220Y-103174357D01*
X110386636Y-103307538D01*
X110284427Y-103434750D01*
X110228352Y-103595388D01*
X110209033Y-103703089D01*
X110153411Y-103965466D01*
X110069860Y-104232692D01*
X109971192Y-104470711D01*
X109870221Y-104645468D01*
X109841242Y-104680633D01*
X109592306Y-104872246D01*
X109263157Y-105006107D01*
X108905878Y-105072380D01*
X108668927Y-105083937D01*
X108413618Y-105077188D01*
X108170007Y-105055081D01*
X107968146Y-105020564D01*
X107838091Y-104976587D01*
X107822270Y-104966072D01*
X107733612Y-104924559D01*
X107593899Y-104884333D01*
X107581897Y-104881696D01*
X107428189Y-104830681D01*
X107238329Y-104743772D01*
X107131752Y-104685471D01*
X106979194Y-104599796D01*
X106863895Y-104542849D01*
X106821521Y-104528687D01*
X106756713Y-104500810D01*
X106629923Y-104427816D01*
X106472773Y-104328208D01*
X106265464Y-104170584D01*
X106138533Y-104009115D01*
X106074590Y-103810483D01*
X106056247Y-103541372D01*
X106056217Y-103530097D01*
X106044938Y-103329869D01*
X106015855Y-103133265D01*
X105975466Y-102969158D01*
X105930267Y-102866423D01*
X105902312Y-102846209D01*
X105851357Y-102885911D01*
X105754914Y-102990530D01*
X105632875Y-103138329D01*
X105619927Y-103154778D01*
X105454260Y-103354124D01*
X105253366Y-103578904D01*
X105062807Y-103778339D01*
X104876949Y-103952700D01*
X104716349Y-104068392D01*
X104538579Y-104151607D01*
X104363750Y-104209896D01*
X104156165Y-104266321D01*
X103968906Y-104297707D01*
X103761970Y-104307788D01*
X103495354Y-104300299D01*
X103430753Y-104296990D01*
X103111134Y-104267236D01*
X102765262Y-104214255D01*
X102426740Y-104144936D01*
X102129169Y-104066168D01*
X101906154Y-103984839D01*
X101904596Y-103984121D01*
X101768270Y-103926388D01*
X101651580Y-103881687D01*
X101538320Y-103807477D01*
X101408250Y-103675496D01*
X101339507Y-103585852D01*
X101253007Y-103449619D01*
X101202691Y-103328757D01*
X101178988Y-103185058D01*
X101172331Y-102980314D01*
X101172207Y-102917840D01*
X101172762Y-102897876D01*
X101750750Y-102897876D01*
X101754540Y-103015704D01*
X101770192Y-103093071D01*
X101798590Y-103146918D01*
X101840621Y-103194188D01*
X101858104Y-103211702D01*
X101974330Y-103299879D01*
X102078518Y-103337733D01*
X102193539Y-103358541D01*
X102346252Y-103405398D01*
X102365921Y-103412668D01*
X102510398Y-103460493D01*
X102615945Y-103483787D01*
X102663450Y-103481137D01*
X102633798Y-103451127D01*
X102592533Y-103429443D01*
X102464175Y-103318843D01*
X102352895Y-103138264D01*
X102278038Y-102926253D01*
X102257374Y-102761594D01*
X102296791Y-102518750D01*
X102402479Y-102295403D01*
X102555589Y-102115613D01*
X102737276Y-102003440D01*
X102871154Y-101978035D01*
X102957302Y-101967387D01*
X102954337Y-101941151D01*
X102906994Y-101919671D01*
X103152887Y-101919671D01*
X103369981Y-102021963D01*
X103583615Y-102178646D01*
X103741156Y-102406040D01*
X103823606Y-102672843D01*
X103831306Y-102781993D01*
X103789798Y-103015241D01*
X103679862Y-103232576D01*
X103523378Y-103397044D01*
X103437823Y-103446504D01*
X103317321Y-103512913D01*
X103303118Y-103562018D01*
X103394224Y-103592994D01*
X103589649Y-103605011D01*
X103627780Y-103605128D01*
X103892699Y-103586024D01*
X104123075Y-103519408D01*
X104263432Y-103454959D01*
X104546911Y-103266749D01*
X104743029Y-103062386D01*
X104866813Y-102900744D01*
X104981247Y-102755878D01*
X105014164Y-102715839D01*
X106424008Y-102715839D01*
X106509942Y-103011686D01*
X106564808Y-103216903D01*
X106609618Y-103412831D01*
X106625223Y-103497491D01*
X106643809Y-103582704D01*
X106681049Y-103651173D01*
X106754710Y-103716940D01*
X106882558Y-103794044D01*
X107082361Y-103896529D01*
X107208951Y-103958815D01*
X107478931Y-104090770D01*
X107663959Y-104179679D01*
X107776626Y-104230111D01*
X107829525Y-104246639D01*
X107835246Y-104233833D01*
X107806383Y-104196265D01*
X107779703Y-104165997D01*
X107707963Y-104067917D01*
X107684390Y-104008815D01*
X107660989Y-103928259D01*
X107609671Y-103816256D01*
X107567572Y-103702234D01*
X107567741Y-103573147D01*
X107601211Y-103414055D01*
X107716219Y-103143349D01*
X107895920Y-102955879D01*
X108128702Y-102857679D01*
X108402954Y-102854785D01*
X108585707Y-102902418D01*
X108746830Y-103012976D01*
X108870160Y-103198233D01*
X108946237Y-103428104D01*
X108965604Y-103672503D01*
X108918800Y-103901346D01*
X108907905Y-103927185D01*
X108835863Y-104059407D01*
X108740431Y-104163700D01*
X108593187Y-104266001D01*
X108444554Y-104350055D01*
X108377712Y-104390355D01*
X108381731Y-104407391D01*
X108469781Y-104404393D01*
X108607374Y-104389989D01*
X108812628Y-104360761D01*
X109002143Y-104323772D01*
X109077926Y-104304103D01*
X109190798Y-104262949D01*
X109272975Y-104206296D01*
X109336920Y-104113560D01*
X109395096Y-103964154D01*
X109459964Y-103737492D01*
X109489723Y-103623881D01*
X109617387Y-103131050D01*
X109499691Y-102983445D01*
X109415468Y-102905359D01*
X109288539Y-102837503D01*
X109105453Y-102776081D01*
X108852761Y-102717293D01*
X108517012Y-102657341D01*
X108146049Y-102601160D01*
X107874227Y-102557964D01*
X107605276Y-102508141D01*
X107401077Y-102464007D01*
X110044226Y-102464007D01*
X110044685Y-102464778D01*
X110095024Y-102513960D01*
X110163407Y-102494545D01*
X110272786Y-102402560D01*
X110375284Y-102286238D01*
X110390170Y-102215596D01*
X110330558Y-102196732D01*
X110235795Y-102230881D01*
X110133948Y-102307942D01*
X110058824Y-102396216D01*
X110044226Y-102464007D01*
X107401077Y-102464007D01*
X107381867Y-102459855D01*
X107306551Y-102440523D01*
X107082370Y-102383544D01*
X106927846Y-102366328D01*
X106809931Y-102393505D01*
X106695576Y-102469705D01*
X106619381Y-102536793D01*
X106424008Y-102715839D01*
X105014164Y-102715839D01*
X105030027Y-102696544D01*
X105121578Y-102534723D01*
X105106293Y-102384802D01*
X105011754Y-102262276D01*
X104938462Y-102197245D01*
X104864297Y-102145927D01*
X104774332Y-102105249D01*
X104653636Y-102072138D01*
X104487282Y-102043521D01*
X104260339Y-102016326D01*
X103957879Y-101987481D01*
X103564972Y-101953913D01*
X103478528Y-101946719D01*
X103152887Y-101919671D01*
X102906994Y-101919671D01*
X102879165Y-101907045D01*
X102748687Y-101872790D01*
X102583030Y-101846466D01*
X102362939Y-101812918D01*
X102151312Y-101766781D01*
X102046780Y-101735895D01*
X101838586Y-101662440D01*
X101801699Y-102132209D01*
X101775215Y-102473070D01*
X101757937Y-102722645D01*
X101750750Y-102897876D01*
X101172762Y-102897876D01*
X101178691Y-102684519D01*
X101195478Y-102468035D01*
X101219058Y-102312377D01*
X101221234Y-102303473D01*
X101262103Y-102118327D01*
X101298376Y-101913646D01*
X101302295Y-101887156D01*
X101317241Y-101743331D01*
X101296259Y-101671519D01*
X101222659Y-101636907D01*
X101177207Y-101626219D01*
X101007473Y-101545022D01*
X100817468Y-101381757D01*
X100625572Y-101155792D01*
X100450161Y-100886492D01*
X100429189Y-100848185D01*
X101139378Y-100848185D01*
X101158374Y-100902305D01*
X101171904Y-100919499D01*
X101279221Y-100986208D01*
X101354938Y-100998986D01*
X101428421Y-100993078D01*
X101419656Y-100976934D01*
X101924838Y-100976934D01*
X101939817Y-101017283D01*
X101941458Y-101017957D01*
X102081923Y-101050089D01*
X102199366Y-101038192D01*
X102256351Y-100987123D01*
X102257374Y-100976976D01*
X102223051Y-100882115D01*
X102122468Y-100871280D01*
X102014948Y-100913983D01*
X101924838Y-100976934D01*
X101419656Y-100976934D01*
X101414539Y-100967509D01*
X101334725Y-100919499D01*
X101200955Y-100853917D01*
X101139378Y-100848185D01*
X100429189Y-100848185D01*
X100415971Y-100824041D01*
X100295599Y-100620197D01*
X100161852Y-100429059D01*
X100059565Y-100309047D01*
X99882342Y-100132783D01*
X99548709Y-100470577D01*
X99382329Y-100652242D01*
X99237415Y-100834034D01*
X99139542Y-100983225D01*
X99124712Y-101013188D01*
X99058801Y-101140797D01*
X99003177Y-101212389D01*
X98990519Y-101218003D01*
X98955935Y-101263942D01*
X98946690Y-101336552D01*
X98923489Y-101455667D01*
X98864886Y-101619013D01*
X98831665Y-101692710D01*
X98748738Y-101885038D01*
X98680710Y-102078131D01*
X98665997Y-102130465D01*
X98489766Y-102889500D01*
X98364679Y-103580696D01*
X98287592Y-104230212D01*
X98255361Y-104864205D01*
X97364369Y-104864205D01*
X97369140Y-104819762D01*
X97517376Y-104026763D01*
X97723983Y-103259216D01*
X97984438Y-102540637D01*
X98294220Y-101894542D01*
X98339080Y-101815012D01*
X98482079Y-101586375D01*
X98668997Y-101315072D01*
X98875906Y-101033484D01*
X99078882Y-100773993D01*
X99253998Y-100568981D01*
X99281455Y-100539585D01*
X99417637Y-100385282D01*
X99477072Y-100278531D01*
X99466167Y-100197113D01*
X99400600Y-100126379D01*
X99282131Y-99972663D01*
X99182167Y-99735343D01*
X99108773Y-99438858D01*
X99071244Y-99128473D01*
X99072804Y-99037691D01*
X99196051Y-99037691D01*
X99201660Y-99274076D01*
X99218340Y-99437879D01*
X99255121Y-99565045D01*
X99321035Y-99691520D01*
X99386008Y-99793795D01*
X99489123Y-99941678D01*
X99572842Y-100044307D01*
X99614310Y-100077285D01*
X99661000Y-100032858D01*
X99722570Y-99921383D01*
X99738251Y-99885676D01*
X99775463Y-99751238D01*
X100394883Y-99751238D01*
X100405677Y-99807807D01*
X100482278Y-99891897D01*
X100570777Y-99999963D01*
X100687389Y-100168052D01*
X100807881Y-100361096D01*
X100815658Y-100374335D01*
X100921878Y-100549786D01*
X101011132Y-100686070D01*
X101066630Y-100757772D01*
X101071626Y-100761789D01*
X101100078Y-100732472D01*
X101116237Y-100624899D01*
X101117631Y-100572686D01*
X101134132Y-100412279D01*
X101202332Y-100301077D01*
X101294019Y-100224201D01*
X101616733Y-100045880D01*
X101996180Y-99939865D01*
X102040280Y-99933142D01*
X102215716Y-99898115D01*
X102417408Y-99843827D01*
X102469221Y-99827406D01*
X102618813Y-99782644D01*
X102710973Y-99780969D01*
X102790600Y-99829268D01*
X102852106Y-99886121D01*
X102961400Y-99977232D01*
X103043857Y-100022791D01*
X103052540Y-100023986D01*
X103137860Y-100046589D01*
X103279161Y-100102961D01*
X103436560Y-100175949D01*
X103559938Y-100242216D01*
X103639892Y-100287710D01*
X103790862Y-100371863D01*
X103988642Y-100481224D01*
X104140336Y-100564674D01*
X104350365Y-100683211D01*
X104523611Y-100787056D01*
X104638397Y-100862856D01*
X104672705Y-100892622D01*
X104744757Y-100929148D01*
X104876211Y-100946425D01*
X104892842Y-100946636D01*
X105006060Y-100955938D01*
X105067332Y-100999865D01*
X105089825Y-101102450D01*
X105086704Y-101287722D01*
X105086121Y-101299414D01*
X105131316Y-101409195D01*
X105269165Y-101536830D01*
X105298061Y-101557305D01*
X105456058Y-101688108D01*
X105590430Y-101836216D01*
X105622521Y-101882946D01*
X105755828Y-102042341D01*
X105895673Y-102094121D01*
X106040020Y-102037915D01*
X106110793Y-101971933D01*
X106249749Y-101848338D01*
X106346084Y-101783401D01*
X107928955Y-101783401D01*
X108390280Y-101875451D01*
X108618474Y-101918012D01*
X108820309Y-101950378D01*
X108961258Y-101967176D01*
X108987289Y-101968383D01*
X109071103Y-101965970D01*
X109061818Y-101950062D01*
X108960152Y-101912192D01*
X108814882Y-101847318D01*
X108711510Y-101780668D01*
X108627129Y-101739722D01*
X108487599Y-101728847D01*
X108277321Y-101744808D01*
X107928955Y-101783401D01*
X106346084Y-101783401D01*
X106423101Y-101731486D01*
X106462767Y-101709755D01*
X106632704Y-101639320D01*
X106791813Y-101600534D01*
X106829113Y-101597918D01*
X106937802Y-101581619D01*
X106979169Y-101545728D01*
X107018645Y-101467877D01*
X107120066Y-101349668D01*
X107257918Y-101215040D01*
X107406691Y-101087929D01*
X107540872Y-100992272D01*
X107603314Y-100960107D01*
X107738809Y-100924414D01*
X107940081Y-100890373D01*
X108164502Y-100865142D01*
X108173186Y-100864431D01*
X108392135Y-100845644D01*
X108584535Y-100827134D01*
X108710851Y-100812721D01*
X108715921Y-100812004D01*
X109044328Y-100768096D01*
X109283518Y-100745913D01*
X109450624Y-100745449D01*
X109562777Y-100766700D01*
X109637111Y-100809659D01*
X109639403Y-100811705D01*
X109783178Y-100879066D01*
X109867497Y-100873916D01*
X110013484Y-100868522D01*
X110116356Y-100948653D01*
X110176567Y-101069856D01*
X110240690Y-101176428D01*
X110309753Y-101218003D01*
X110375370Y-101264048D01*
X110448752Y-101379685D01*
X110473478Y-101435097D01*
X110543626Y-101568432D01*
X110616450Y-101645004D01*
X110639494Y-101652191D01*
X110729543Y-101694693D01*
X110770953Y-101745657D01*
X110816751Y-101803942D01*
X110882369Y-101805308D01*
X110993185Y-101758648D01*
X111163111Y-101678172D01*
X110986159Y-101407383D01*
X110817344Y-101183389D01*
X110582248Y-100918184D01*
X110303207Y-100633241D01*
X110002556Y-100350037D01*
X109702630Y-100090047D01*
X109425763Y-99874745D01*
X109327844Y-99807465D01*
X109692844Y-99807465D01*
X109730585Y-99870010D01*
X109826767Y-99972534D01*
X109896114Y-100036239D01*
X110026415Y-100156130D01*
X110190995Y-100316166D01*
X110373697Y-100499545D01*
X110558360Y-100689467D01*
X110728825Y-100869134D01*
X110868934Y-101021746D01*
X110962528Y-101130502D01*
X110993657Y-101177298D01*
X111039479Y-101213644D01*
X111075716Y-101218003D01*
X111146176Y-101173383D01*
X111232602Y-101060375D01*
X111271693Y-100991270D01*
X111344288Y-100801114D01*
X111399427Y-100571228D01*
X111415430Y-100455024D01*
X111402981Y-100150345D01*
X111318446Y-99867235D01*
X111175652Y-99619011D01*
X110988423Y-99418989D01*
X110770585Y-99280488D01*
X110535964Y-99216825D01*
X110298387Y-99241316D01*
X110198195Y-99282560D01*
X110075916Y-99365883D01*
X109937887Y-99488325D01*
X109810576Y-99622396D01*
X109720450Y-99740603D01*
X109692844Y-99807465D01*
X109327844Y-99807465D01*
X109307972Y-99793811D01*
X108992039Y-99589434D01*
X108754176Y-99437725D01*
X108581999Y-99331345D01*
X108547017Y-99311219D01*
X109095836Y-99311219D01*
X109137369Y-99365991D01*
X109243168Y-99452989D01*
X109318534Y-99505655D01*
X109541233Y-99653030D01*
X109766290Y-99414703D01*
X110039055Y-99184943D01*
X110318062Y-99062123D01*
X110596905Y-99046093D01*
X110869178Y-99136701D01*
X111128475Y-99333798D01*
X111232599Y-99449067D01*
X111434829Y-99758144D01*
X111537212Y-100080742D01*
X111546755Y-100441622D01*
X111537418Y-100526134D01*
X111493449Y-100788206D01*
X111438818Y-101003855D01*
X111379840Y-101153375D01*
X111322827Y-101217057D01*
X111315740Y-101218003D01*
X111272050Y-101259673D01*
X111277948Y-101360729D01*
X111331089Y-101485238D01*
X111333435Y-101489034D01*
X111382449Y-101554585D01*
X111428503Y-101550229D01*
X111503953Y-101468832D01*
X111521398Y-101447593D01*
X111611727Y-101306398D01*
X111701713Y-101118313D01*
X111736205Y-101028046D01*
X111799788Y-100753879D01*
X111828655Y-100428094D01*
X111823482Y-100089068D01*
X111784948Y-99775179D01*
X111713729Y-99524806D01*
X111709510Y-99515068D01*
X111580850Y-99262392D01*
X111431534Y-99061426D01*
X111229213Y-98872100D01*
X111122186Y-98787587D01*
X110850727Y-98620444D01*
X110572554Y-98519702D01*
X110316200Y-98494045D01*
X110211441Y-98510375D01*
X110036012Y-98553564D01*
X109894989Y-98584842D01*
X109801246Y-98631830D01*
X109662677Y-98732875D01*
X109502179Y-98867167D01*
X109342647Y-99013894D01*
X109206977Y-99152247D01*
X109118065Y-99261415D01*
X109095836Y-99311219D01*
X108547017Y-99311219D01*
X108463126Y-99262954D01*
X108385173Y-99225214D01*
X108335759Y-99210785D01*
X108322713Y-99209884D01*
X108233209Y-99185690D01*
X108096963Y-99125519D01*
X108056734Y-99104697D01*
X107881262Y-99025666D01*
X107626614Y-98930329D01*
X107319322Y-98827052D01*
X106985917Y-98724202D01*
X106652928Y-98630145D01*
X106346888Y-98553247D01*
X106219340Y-98525296D01*
X105977479Y-98488716D01*
X105660124Y-98459940D01*
X105290093Y-98439186D01*
X104890206Y-98426669D01*
X104483281Y-98422606D01*
X104092135Y-98427214D01*
X103739588Y-98440709D01*
X103448459Y-98463309D01*
X103241565Y-98495229D01*
X103234297Y-98496962D01*
X102628724Y-98664128D01*
X102046700Y-98862168D01*
X101506918Y-99083048D01*
X101028074Y-99318737D01*
X100628864Y-99561201D01*
X100453311Y-99691855D01*
X100394883Y-99751238D01*
X99775463Y-99751238D01*
X99789228Y-99701509D01*
X99769703Y-99517681D01*
X99762921Y-99492193D01*
X99707246Y-99132378D01*
X99714344Y-99079858D01*
X99853250Y-99079858D01*
X99861458Y-99286163D01*
X99907161Y-99476053D01*
X99982807Y-99621542D01*
X100080839Y-99694647D01*
X100109618Y-99698345D01*
X100182410Y-99668835D01*
X100315885Y-99590862D01*
X100483273Y-99480264D01*
X100511029Y-99460870D01*
X100706619Y-99335904D01*
X100963038Y-99189732D01*
X101241350Y-99043927D01*
X101417118Y-98958840D01*
X101690505Y-98824310D01*
X101878671Y-98715329D01*
X101974674Y-98636147D01*
X101985985Y-98610322D01*
X101946289Y-98526034D01*
X101844295Y-98403770D01*
X101705684Y-98269127D01*
X101556139Y-98147703D01*
X101457576Y-98083648D01*
X101283377Y-98030550D01*
X101049290Y-98015940D01*
X100796221Y-98038013D01*
X100565077Y-98094966D01*
X100489542Y-98126322D01*
X100254745Y-98294640D01*
X100051618Y-98547304D01*
X99898644Y-98860914D01*
X99890093Y-98885121D01*
X99853250Y-99079858D01*
X99714344Y-99079858D01*
X99752067Y-98800728D01*
X99900333Y-98485415D01*
X100068781Y-98266364D01*
X100292497Y-98055666D01*
X100526440Y-97929096D01*
X100799252Y-97876219D01*
X101117287Y-97884436D01*
X101334454Y-97913981D01*
X101523061Y-97955857D01*
X101644628Y-98001377D01*
X101649953Y-98004684D01*
X101797896Y-98114871D01*
X101938416Y-98240956D01*
X102045705Y-98357396D01*
X102093956Y-98438649D01*
X102094554Y-98444693D01*
X102137687Y-98492622D01*
X102239037Y-98501665D01*
X102356530Y-98474459D01*
X102439422Y-98423074D01*
X102539234Y-98369842D01*
X102600629Y-98372500D01*
X102689340Y-98375474D01*
X102715342Y-98299927D01*
X102677305Y-98156864D01*
X102637193Y-98069953D01*
X102466272Y-97845085D01*
X102229340Y-97660173D01*
X101983689Y-97511317D01*
X101782242Y-97414188D01*
X101584203Y-97353005D01*
X101348772Y-97311989D01*
X101318962Y-97308046D01*
X100988970Y-97303844D01*
X100623676Y-97361162D01*
X100267440Y-97469303D01*
X99964619Y-97617565D01*
X99923613Y-97644623D01*
X99766091Y-97772789D01*
X99606254Y-97933815D01*
X99465477Y-98102130D01*
X99365135Y-98252163D01*
X99326606Y-98358343D01*
X99326605Y-98358794D01*
X99291283Y-98455118D01*
X99258763Y-98496223D01*
X99219739Y-98597396D01*
X99199111Y-98802725D01*
X99196051Y-99037691D01*
X99072804Y-99037691D01*
X99078322Y-98716593D01*
X99162622Y-98363822D01*
X99333899Y-98044235D01*
X99593631Y-97740157D01*
X99916363Y-97475246D01*
X100278149Y-97294452D01*
X100698827Y-97189230D01*
X100934527Y-97162510D01*
X101333533Y-97173623D01*
X101730757Y-97260153D01*
X102102917Y-97411638D01*
X102426733Y-97617616D01*
X102678922Y-97867625D01*
X102756796Y-97981411D01*
X102900386Y-98201197D01*
X103019605Y-98329913D01*
X103126936Y-98378589D01*
X103198610Y-98371857D01*
X103294735Y-98354932D01*
X103474994Y-98332629D01*
X103715270Y-98307615D01*
X103991450Y-98282561D01*
X104048400Y-98277819D01*
X104594209Y-98254654D01*
X105173732Y-98268269D01*
X105757150Y-98315653D01*
X106314646Y-98393795D01*
X106816402Y-98499684D01*
X107114853Y-98587462D01*
X107564409Y-98745899D01*
X107918556Y-98883647D01*
X108171766Y-98996902D01*
X108377486Y-99094305D01*
X108592870Y-99191698D01*
X108648256Y-99215776D01*
X108791771Y-99274101D01*
X108872980Y-99287439D01*
X108929185Y-99253931D01*
X108975317Y-99199501D01*
X109238235Y-98891621D01*
X109471829Y-98668709D01*
X109695820Y-98518900D01*
X109929930Y-98430327D01*
X110193879Y-98391124D01*
X110326618Y-98386438D01*
X110669564Y-98409904D01*
X110954612Y-98497157D01*
X111217472Y-98662678D01*
X111393149Y-98818903D01*
X111641700Y-99100988D01*
X111813971Y-99398783D01*
X111919024Y-99736313D01*
X111965918Y-100137604D01*
X111970456Y-100349627D01*
X111962199Y-100622087D01*
X111932941Y-100832991D01*
X111874496Y-101028570D01*
X111831118Y-101136593D01*
X111737049Y-101360493D01*
X111683660Y-101505710D01*
X111668969Y-101593374D01*
X111690995Y-101644615D01*
X111747755Y-101680561D01*
X111778754Y-101694940D01*
X111883358Y-101773301D01*
X111917453Y-101901922D01*
X111918058Y-101931690D01*
X111890173Y-102087412D01*
X111827717Y-102204794D01*
X111791404Y-102244787D01*
X111769504Y-102282816D01*
X111765501Y-102336372D01*
X111782879Y-102422947D01*
X111825120Y-102560035D01*
X111895707Y-102765127D01*
X111995913Y-103049438D01*
X112258453Y-103950045D01*
X112412926Y-104856306D01*
X112459463Y-105770515D01*
X112398192Y-106694965D01*
X112250251Y-107540867D01*
X112212502Y-107708502D01*
X112162410Y-107931053D01*
X112115873Y-108137875D01*
X111877526Y-108962942D01*
X111542898Y-109764419D01*
X111120968Y-110528266D01*
X110620715Y-111240443D01*
X110051118Y-111886908D01*
X109421158Y-112453622D01*
X109291712Y-112553896D01*
X108999828Y-112767910D01*
X108745580Y-112936534D01*
X108492127Y-113081122D01*
X108202623Y-113223032D01*
X107919266Y-113349435D01*
X107748008Y-113433942D01*
X107637532Y-113508872D01*
X107608105Y-113558140D01*
X107668143Y-113606055D01*
X107803273Y-113672705D01*
X107985066Y-113744190D01*
X107997709Y-113748634D01*
X108165453Y-113814019D01*
X108406969Y-113917321D01*
X108698860Y-114048078D01*
X109017727Y-114195830D01*
X109308376Y-114334662D01*
X109648387Y-114501372D01*
X109908722Y-114634798D01*
X110108384Y-114746874D01*
X110266375Y-114849539D01*
X110401698Y-114954726D01*
X110533356Y-115074374D01*
X110617207Y-115156779D01*
X110848475Y-115413116D01*
X111045514Y-115678828D01*
X111151709Y-115858934D01*
X111322612Y-116197491D01*
X94550537Y-116197491D01*
X94551023Y-115722597D01*
X94551509Y-115247704D01*
X94890232Y-114747559D01*
X95111934Y-114441166D01*
X102501605Y-114441166D01*
X102678534Y-114534036D01*
X103141627Y-114726998D01*
X103667252Y-114860401D01*
X104224384Y-114929730D01*
X104781998Y-114930468D01*
X105133870Y-114891406D01*
X105345596Y-114849078D01*
X105536489Y-114797136D01*
X105644238Y-114756132D01*
X105767201Y-114701606D01*
X105846929Y-114677867D01*
X105848378Y-114677832D01*
X105913507Y-114649205D01*
X106040347Y-114574008D01*
X106201927Y-114468269D01*
X106208320Y-114463912D01*
X106374178Y-114338574D01*
X106533937Y-114197399D01*
X106672371Y-114057155D01*
X106774254Y-113934611D01*
X106824357Y-113846532D01*
X106807456Y-113809689D01*
X106802624Y-113809456D01*
X106697789Y-113842917D01*
X106677951Y-113858171D01*
X106621344Y-113889553D01*
X106516151Y-113916768D01*
X106351976Y-113940840D01*
X106118421Y-113962794D01*
X105805087Y-113983653D01*
X105401576Y-114004442D01*
X105025323Y-114020945D01*
X104638099Y-114040103D01*
X104300969Y-114062809D01*
X104029124Y-114087705D01*
X103837756Y-114113435D01*
X103749895Y-114134871D01*
X103627185Y-114175523D01*
X103430270Y-114229552D01*
X103191263Y-114288447D01*
X103044340Y-114321850D01*
X102501605Y-114441166D01*
X95111934Y-114441166D01*
X95300570Y-114180471D01*
X95692953Y-113718101D01*
G37*
G36*
X99049114Y-101750424D02*
G01*
X99055237Y-101787875D01*
X99025931Y-101860101D01*
X99000964Y-101869285D01*
X98952814Y-101825326D01*
X98946690Y-101787875D01*
X98975996Y-101715650D01*
X99000964Y-101706465D01*
X99049114Y-101750424D01*
G37*
G36*
X102578939Y-108602795D02*
G01*
X102609666Y-108473221D01*
X102612222Y-108395400D01*
X102609224Y-108390223D01*
X102583686Y-108402104D01*
X102583015Y-108412273D01*
X102557516Y-108410335D01*
X102498527Y-108339909D01*
X102410635Y-108249796D01*
X102340531Y-108219285D01*
X102246940Y-108174920D01*
X102139428Y-108065445D01*
X102044981Y-107926295D01*
X101990588Y-107792904D01*
X101986007Y-107753797D01*
X102012181Y-107647811D01*
X102082570Y-107633125D01*
X102184971Y-107708304D01*
X102248467Y-107784657D01*
X102344195Y-107901548D01*
X102446470Y-107990256D01*
X102570919Y-108054133D01*
X102733172Y-108096529D01*
X102948856Y-108120794D01*
X103233600Y-108130277D01*
X103603033Y-108128331D01*
X103831306Y-108123967D01*
X104157324Y-108116445D01*
X104443253Y-108109056D01*
X104672516Y-108102293D01*
X104828532Y-108096650D01*
X104894723Y-108092622D01*
X104895862Y-108092249D01*
X104903412Y-108038234D01*
X104916764Y-107906549D01*
X104930296Y-107756796D01*
X104958507Y-107429991D01*
X104734116Y-107324648D01*
X104537668Y-107202402D01*
X104332640Y-107026556D01*
X104145827Y-106825398D01*
X104004025Y-106627215D01*
X103940014Y-106486349D01*
X103878321Y-106108677D01*
X103915093Y-105758401D01*
X103918096Y-105751129D01*
X104432104Y-105751129D01*
X104441617Y-105983401D01*
X104472385Y-106186801D01*
X104502295Y-106283166D01*
X104641536Y-106507544D01*
X104860650Y-106731067D01*
X105133468Y-106929696D01*
X105311810Y-107026809D01*
X105489627Y-107107333D01*
X105612260Y-107143621D01*
X105720811Y-107141558D01*
X105856380Y-107107024D01*
X105861511Y-107105483D01*
X106035234Y-107044904D01*
X106181998Y-106980011D01*
X106214035Y-106962009D01*
X106323124Y-106857883D01*
X106396706Y-106740332D01*
X106455486Y-106634683D01*
X106503228Y-106591080D01*
X106563767Y-106542395D01*
X106621242Y-106418317D01*
X106666223Y-106251815D01*
X106689281Y-106075856D01*
X106685876Y-105952431D01*
X106591948Y-105602852D01*
X106411288Y-105318301D01*
X106144579Y-105099454D01*
X105792501Y-104946983D01*
X105626323Y-104904387D01*
X105424301Y-104874681D01*
X105240698Y-104887232D01*
X105053739Y-104933032D01*
X104891974Y-104988454D01*
X104783128Y-105041823D01*
X104753955Y-105072938D01*
X104710613Y-105121119D01*
X104680957Y-105125696D01*
X104589867Y-105163178D01*
X104524119Y-105220674D01*
X104474053Y-105335807D01*
X104443148Y-105523945D01*
X104432104Y-105751129D01*
X103918096Y-105751129D01*
X104053520Y-105423198D01*
X104296791Y-105090741D01*
X104302992Y-105083761D01*
X104560698Y-104870023D01*
X104875178Y-104726116D01*
X105223208Y-104652359D01*
X105581569Y-104649074D01*
X105927038Y-104716580D01*
X106236395Y-104855200D01*
X106476316Y-105053755D01*
X106723619Y-105396888D01*
X106867681Y-105750752D01*
X106908323Y-106106404D01*
X106845366Y-106454899D01*
X106678628Y-106787295D01*
X106515186Y-106989769D01*
X106278213Y-107185206D01*
X105989320Y-107340489D01*
X105689325Y-107436935D01*
X105488962Y-107459456D01*
X105327950Y-107468400D01*
X105237711Y-107506097D01*
X105181187Y-107588848D01*
X105177708Y-107596369D01*
X105143306Y-107791656D01*
X105165303Y-107927696D01*
X105221544Y-108068707D01*
X105322449Y-108152418D01*
X105421629Y-108192410D01*
X105605504Y-108271506D01*
X105795717Y-108376911D01*
X105828680Y-108398388D01*
X105986238Y-108492957D01*
X106132221Y-108561885D01*
X106165066Y-108573053D01*
X106310852Y-108637313D01*
X106396394Y-108696044D01*
X106508712Y-108746542D01*
X106694713Y-108784180D01*
X106920076Y-108806897D01*
X107150474Y-108812632D01*
X107351584Y-108799324D01*
X107489083Y-108764912D01*
X107494812Y-108761997D01*
X107625956Y-108722922D01*
X107737889Y-108738335D01*
X107792396Y-108801661D01*
X107793272Y-108813339D01*
X107742906Y-108901317D01*
X107607414Y-108978137D01*
X107410207Y-109034289D01*
X107186585Y-109059843D01*
X106852678Y-109072889D01*
X106830546Y-109310937D01*
X106799674Y-109478416D01*
X106749306Y-109608691D01*
X106730972Y-109634670D01*
X106666650Y-109739540D01*
X106652995Y-109797491D01*
X106603557Y-109839578D01*
X106475328Y-109868853D01*
X106297442Y-109884122D01*
X106099031Y-109884189D01*
X105909230Y-109867856D01*
X105758015Y-109834224D01*
X105590000Y-109760918D01*
X105459511Y-109686407D01*
X105297958Y-109591443D01*
X105119922Y-109518597D01*
X104908751Y-109465137D01*
X104647795Y-109428330D01*
X104320401Y-109405443D01*
X103909917Y-109393743D01*
X103660612Y-109391189D01*
X103333460Y-109387976D01*
X103096864Y-109381464D01*
X102932840Y-109369630D01*
X102823402Y-109350450D01*
X102750568Y-109321900D01*
X102697257Y-109282775D01*
X102613059Y-109182785D01*
X102583015Y-109106387D01*
X102550197Y-109039743D01*
X102527680Y-109033388D01*
X102495669Y-109001694D01*
X102501562Y-108898660D01*
X102505310Y-108883220D01*
X102701653Y-108883220D01*
X102711160Y-108998028D01*
X102787649Y-109088717D01*
X102864473Y-109140415D01*
X102943363Y-109182232D01*
X103033670Y-109211985D01*
X103154625Y-109231701D01*
X103325461Y-109243408D01*
X103565407Y-109249132D01*
X103893696Y-109250902D01*
X103912716Y-109250923D01*
X104344103Y-109256795D01*
X104687280Y-109275713D01*
X104962151Y-109311042D01*
X105188619Y-109366149D01*
X105386588Y-109444398D01*
X105537325Y-109525627D01*
X105782653Y-109636731D01*
X106037600Y-109693565D01*
X106271411Y-109693174D01*
X106453332Y-109632604D01*
X106477139Y-109615912D01*
X106526959Y-109565470D01*
X106532510Y-109508302D01*
X106484862Y-109423736D01*
X106375088Y-109291099D01*
X106300886Y-109207823D01*
X105922028Y-108864984D01*
X105485772Y-108610639D01*
X105000357Y-108446830D01*
X104474019Y-108375595D01*
X103914997Y-108398976D01*
X103420908Y-108494601D01*
X103131639Y-108574203D01*
X102932109Y-108641631D01*
X102805601Y-108705917D01*
X102735398Y-108776092D01*
X102704783Y-108861190D01*
X102701653Y-108883220D01*
X102505310Y-108883220D01*
X102546782Y-108712361D01*
X102578939Y-108602795D01*
G37*
G36*
X99272331Y-101353687D02*
G01*
X99245195Y-101380824D01*
X99218058Y-101353687D01*
X99245195Y-101326550D01*
X99272331Y-101353687D01*
G37*
G36*
X104048400Y-105207106D02*
G01*
X104021263Y-105234243D01*
X103994126Y-105207106D01*
X104021263Y-105179969D01*
X104048400Y-105207106D01*
G37*
G36*
X108064639Y-102710525D02*
G01*
X108037502Y-102737662D01*
X108010366Y-102710525D01*
X108037502Y-102683388D01*
X108064639Y-102710525D01*
G37*
G36*
X107956092Y-109006251D02*
G01*
X107928955Y-109033388D01*
X107901819Y-109006251D01*
X107928955Y-108979115D01*
X107956092Y-109006251D01*
G37*
G36*
X109855665Y-100756679D02*
G01*
X109828528Y-100783815D01*
X109801391Y-100756679D01*
X109828528Y-100729542D01*
X109855665Y-100756679D01*
G37*
G36*
X108480736Y-102701479D02*
G01*
X108473286Y-102733745D01*
X108444554Y-102737662D01*
X108399880Y-102717804D01*
X108408371Y-102701479D01*
X108472781Y-102694984D01*
X108480736Y-102701479D01*
G37*
G36*
X99652246Y-98368644D02*
G01*
X99625109Y-98395781D01*
X99597972Y-98368644D01*
X99625109Y-98341508D01*
X99652246Y-98368644D01*
G37*
G36*
X106555099Y-101280261D02*
G01*
X106599244Y-101376547D01*
X106599254Y-101378219D01*
X106561332Y-101486571D01*
X106500002Y-101562369D01*
X106404145Y-101637854D01*
X106344293Y-101643007D01*
X106309796Y-101616009D01*
X106274755Y-101517899D01*
X106287902Y-101386767D01*
X106342370Y-101283141D01*
X106348145Y-101277986D01*
X106456100Y-101241301D01*
X106555099Y-101280261D01*
G37*
X70044437Y-91189000D02*
X71330000Y-91189000D01*
X68980000Y-92253437D02*
X68980000Y-98009000D01*
X74735563Y-91189000D02*
X73450000Y-91189000D01*
X75800000Y-92253437D02*
X75800000Y-98009000D01*
X75800000Y-98009000D02*
X73450000Y-98009000D01*
X70044437Y-91189000D02*
X68980000Y-92253437D01*
X74735563Y-91189000D02*
X75800000Y-92253437D01*
X68980000Y-98009000D02*
X71330000Y-98009000D01*
X116432064Y-54637000D02*
X115977936Y-54637000D01*
X116432064Y-56107000D02*
X115977936Y-56107000D01*
X124071748Y-107215000D02*
X124594252Y-107215000D01*
X124071748Y-108685000D02*
X124594252Y-108685000D01*
X128352000Y-77414000D02*
X128352000Y-75494000D01*
X125492000Y-77414000D02*
X128352000Y-77414000D01*
X128352000Y-75494000D02*
X125492000Y-75494000D01*
X125087748Y-79021000D02*
X125610252Y-79021000D01*
X125087748Y-80491000D02*
X125610252Y-80491000D01*
X81193500Y-43021000D02*
X81193500Y-34221000D01*
X83893500Y-48921000D02*
X81193500Y-48921000D01*
X89543500Y-49121000D02*
X90593500Y-49121000D01*
X90393500Y-34221000D02*
X90393500Y-48921000D01*
X81193500Y-48921000D02*
X81193500Y-47021000D01*
X90593500Y-48071000D02*
X90593500Y-49121000D01*
X90393500Y-48921000D02*
X87793500Y-48921000D01*
X81193500Y-34221000D02*
X90393500Y-34221000D01*
X77791437Y-91332000D02*
X76727000Y-92396437D01*
X77791437Y-91332000D02*
X79077000Y-91332000D01*
X83547000Y-92396437D02*
X83547000Y-98152000D01*
X76727000Y-98152000D02*
X79077000Y-98152000D01*
X82482563Y-91332000D02*
X83547000Y-92396437D01*
X76727000Y-92396437D02*
X76727000Y-98152000D01*
X82482563Y-91332000D02*
X81197000Y-91332000D01*
X83547000Y-98152000D02*
X81197000Y-98152000D01*
X124071748Y-93118000D02*
X124594252Y-93118000D01*
X124071748Y-94588000D02*
X124594252Y-94588000D01*
G36*
X49317846Y-51341193D02*
G01*
X49412307Y-51346047D01*
X49484086Y-51362541D01*
X49536380Y-51397550D01*
X49572390Y-51457951D01*
X49595313Y-51550619D01*
X49608349Y-51682429D01*
X49614696Y-51860258D01*
X49617554Y-52090982D01*
X49618829Y-52246743D01*
X49619450Y-52461725D01*
X49617725Y-52659779D01*
X49613927Y-52830527D01*
X49608329Y-52963592D01*
X49601205Y-53048596D01*
X49597138Y-53069892D01*
X49567568Y-53149989D01*
X49530085Y-53202237D01*
X49471582Y-53232524D01*
X49378955Y-53246739D01*
X49239096Y-53250770D01*
X49194336Y-53250877D01*
X48895478Y-53250877D01*
X48895478Y-52837093D01*
X49046858Y-52836605D01*
X49140773Y-52834502D01*
X49207302Y-52822597D01*
X49251443Y-52791442D01*
X49278191Y-52731587D01*
X49292544Y-52633583D01*
X49299497Y-52487983D01*
X49302633Y-52352914D01*
X49305056Y-52147658D01*
X49300162Y-51997191D01*
X49284391Y-51892752D01*
X49254179Y-51825581D01*
X49205965Y-51786919D01*
X49136186Y-51768005D01*
X49062018Y-51761181D01*
X48895478Y-51751560D01*
X48895478Y-51341103D01*
X49197504Y-51341103D01*
X49317846Y-51341193D01*
G37*
G36*
X48999054Y-57458322D02*
G01*
X49079424Y-57480016D01*
X49135773Y-57537995D01*
X49159183Y-57579699D01*
X49203731Y-57648064D01*
X49244771Y-57680651D01*
X49253597Y-57680890D01*
X49298652Y-57657467D01*
X49375142Y-57607762D01*
X49439405Y-57562212D01*
X49522274Y-57507091D01*
X49584405Y-57476127D01*
X49607914Y-57474283D01*
X49619929Y-57517210D01*
X49626315Y-57601665D01*
X49627263Y-57705782D01*
X49622962Y-57807698D01*
X49613603Y-57885547D01*
X49604087Y-57914091D01*
X49568178Y-57948016D01*
X49495936Y-58006911D01*
X49402619Y-58078361D01*
X49397423Y-58082227D01*
X49214173Y-58218353D01*
X49214173Y-58693734D01*
X49401980Y-58693734D01*
X49517170Y-58698527D01*
X49582167Y-58715006D01*
X49609132Y-58744082D01*
X49622284Y-58810008D01*
X49627743Y-58902370D01*
X49625647Y-58996134D01*
X49616136Y-59066268D01*
X49607230Y-59086299D01*
X49568475Y-59094940D01*
X49480033Y-59101886D01*
X49355951Y-59106322D01*
X49240731Y-59107519D01*
X48895478Y-59107519D01*
X48895478Y-57448347D01*
X48999054Y-57458322D01*
G37*
G36*
X50297736Y-49208521D02*
G01*
X49923642Y-49208521D01*
X49905000Y-49093790D01*
X49897259Y-48987232D01*
X49904403Y-48889006D01*
X49904814Y-48886898D01*
X49918802Y-48835382D01*
X49945483Y-48807848D01*
X50001590Y-48796799D01*
X50103855Y-48794738D01*
X50110503Y-48794737D01*
X50297736Y-48794737D01*
X50297736Y-49208521D01*
G37*
G36*
X49339208Y-55323931D02*
G01*
X49450738Y-55340257D01*
X49522764Y-55374674D01*
X49567246Y-55433079D01*
X49596146Y-55521369D01*
X49597599Y-55527544D01*
X49607176Y-55602200D01*
X49614622Y-55726310D01*
X49619950Y-55887683D01*
X49623172Y-56074126D01*
X49624299Y-56273445D01*
X49623344Y-56473447D01*
X49620319Y-56661940D01*
X49615237Y-56826732D01*
X49608109Y-56955628D01*
X49598948Y-57036436D01*
X49596079Y-57048589D01*
X49567387Y-57128599D01*
X49530260Y-57180837D01*
X49471698Y-57211157D01*
X49378703Y-57225415D01*
X49238276Y-57229469D01*
X49194336Y-57229574D01*
X48895478Y-57229574D01*
X48895478Y-56815789D01*
X49071549Y-56815789D01*
X49174088Y-56813038D01*
X49231818Y-56799531D01*
X49263600Y-56767383D01*
X49281013Y-56728258D01*
X49293840Y-56660032D01*
X49302313Y-56542148D01*
X49305785Y-56388499D01*
X49304126Y-56232266D01*
X49297394Y-56043852D01*
X49284863Y-55909877D01*
X49261519Y-55821126D01*
X49222349Y-55768385D01*
X49162339Y-55742439D01*
X49076475Y-55734072D01*
X49032800Y-55733584D01*
X48895478Y-55733584D01*
X48895478Y-55319799D01*
X49176212Y-55319799D01*
X49339208Y-55323931D01*
G37*
G36*
X48050115Y-42758313D02*
G01*
X48085352Y-42793637D01*
X48137681Y-42871626D01*
X48197284Y-42977239D01*
X48213223Y-43008283D01*
X48279793Y-43136809D01*
X48330478Y-43218337D01*
X48376381Y-43263545D01*
X48428603Y-43283106D01*
X48498244Y-43287697D01*
X48503822Y-43287733D01*
X48556740Y-43282403D01*
X48604341Y-43259322D01*
X48658092Y-43208698D01*
X48729464Y-43120741D01*
X48782908Y-43049499D01*
X48864084Y-42945399D01*
X48934906Y-42864581D01*
X48984948Y-42818486D01*
X48999282Y-42812037D01*
X49046659Y-42823728D01*
X49135074Y-42853413D01*
X49246559Y-42895006D01*
X49261977Y-42901036D01*
X49485064Y-42988774D01*
X49466260Y-43603716D01*
X49590862Y-43686071D01*
X49715465Y-43768426D01*
X49959626Y-43671556D01*
X50078554Y-43626445D01*
X50177911Y-43592531D01*
X50240428Y-43575597D01*
X50248899Y-43574687D01*
X50289360Y-43598900D01*
X50352114Y-43661303D01*
X50424982Y-43746540D01*
X50495787Y-43839254D01*
X50552348Y-43924091D01*
X50582487Y-43985694D01*
X50584562Y-43997911D01*
X50565670Y-44043224D01*
X50515574Y-44122026D01*
X50444146Y-44219129D01*
X50425214Y-44243108D01*
X50337164Y-44358330D01*
X50287515Y-44443636D01*
X50271735Y-44516158D01*
X50285288Y-44593028D01*
X50313130Y-44666603D01*
X50339893Y-44724422D01*
X50371271Y-44764012D01*
X50420722Y-44792120D01*
X50501702Y-44815493D01*
X50627671Y-44840879D01*
X50680171Y-44850619D01*
X50817079Y-44879561D01*
X50902357Y-44910608D01*
X50947785Y-44952303D01*
X50965144Y-45013194D01*
X50966996Y-45058659D01*
X50966996Y-45166165D01*
X49887956Y-45166165D01*
X49835079Y-44984505D01*
X49739170Y-44724716D01*
X49609321Y-44502925D01*
X49432465Y-44296977D01*
X49425172Y-44289693D01*
X49181690Y-44089709D01*
X48914715Y-43947016D01*
X48630587Y-43862650D01*
X48335646Y-43837646D01*
X48036230Y-43873038D01*
X47738681Y-43969862D01*
X47667523Y-44002712D01*
X47403505Y-44165644D01*
X47184110Y-44371493D01*
X47012923Y-44614467D01*
X46893532Y-44888771D01*
X46829523Y-45188612D01*
X46819186Y-45373057D01*
X46844966Y-45679189D01*
X46924480Y-45954531D01*
X47060671Y-46205905D01*
X47256486Y-46440132D01*
X47296821Y-46479599D01*
X47405530Y-46571447D01*
X47534775Y-46663166D01*
X47669277Y-46745745D01*
X47793754Y-46810175D01*
X47892925Y-46847446D01*
X47930304Y-46853108D01*
X47974817Y-46878148D01*
X48002010Y-46914699D01*
X48013217Y-46966824D01*
X48022332Y-47067990D01*
X48029158Y-47203603D01*
X48033494Y-47359075D01*
X48035143Y-47519814D01*
X48033906Y-47671227D01*
X48029584Y-47798726D01*
X48021978Y-47887717D01*
X48015657Y-47916820D01*
X47969982Y-47955733D01*
X47903325Y-47967168D01*
X47849961Y-47961207D01*
X47810693Y-47936461D01*
X47780433Y-47882638D01*
X47754094Y-47789444D01*
X47726585Y-47646585D01*
X47716945Y-47590130D01*
X47694830Y-47469167D01*
X47673190Y-47395123D01*
X47643553Y-47351889D01*
X47597452Y-47323356D01*
X47570524Y-47311621D01*
X47486309Y-47281082D01*
X47416883Y-47273314D01*
X47346182Y-47292700D01*
X47258141Y-47343627D01*
X47137667Y-47429758D01*
X46917731Y-47592599D01*
X46799139Y-47508886D01*
X46693772Y-47431057D01*
X46586765Y-47347020D01*
X46569914Y-47333155D01*
X46459281Y-47241137D01*
X46562204Y-46991433D01*
X46620855Y-46841437D01*
X46652419Y-46734301D01*
X46658131Y-46655855D01*
X46639224Y-46591929D01*
X46601979Y-46534837D01*
X46569694Y-46498040D01*
X46531876Y-46474762D01*
X46474197Y-46461925D01*
X46382326Y-46456451D01*
X46241934Y-46455265D01*
X46231406Y-46455263D01*
X45922049Y-46455263D01*
X45847157Y-46234213D01*
X45810219Y-46118426D01*
X45783466Y-46021673D01*
X45772321Y-45963702D01*
X45772266Y-45961547D01*
X45796992Y-45921511D01*
X45863195Y-45857698D01*
X45958917Y-45781031D01*
X46011287Y-45743256D01*
X46125404Y-45661586D01*
X46196190Y-45602902D01*
X46233796Y-45555557D01*
X46248372Y-45507906D01*
X46250309Y-45469029D01*
X46241726Y-45402172D01*
X46209774Y-45344456D01*
X46145142Y-45287289D01*
X46038522Y-45222080D01*
X45909967Y-45154938D01*
X45817083Y-45104786D01*
X45749204Y-45061808D01*
X45725968Y-45041282D01*
X45724730Y-44998379D01*
X45737690Y-44910153D01*
X45762241Y-44792686D01*
X45774518Y-44741927D01*
X45842007Y-44473178D01*
X46146539Y-44445674D01*
X46290451Y-44431228D01*
X46385326Y-44416225D01*
X46445747Y-44396212D01*
X46486296Y-44366739D01*
X46514155Y-44333455D01*
X46577239Y-44248739D01*
X46427990Y-43975281D01*
X46278741Y-43701824D01*
X46447021Y-43524116D01*
X46555021Y-43412089D01*
X46634794Y-43343174D01*
X46702198Y-43314508D01*
X46773092Y-43323226D01*
X46863336Y-43366464D01*
X46969611Y-43429741D01*
X47082049Y-43495159D01*
X47176768Y-43545225D01*
X47238651Y-43572145D01*
X47250675Y-43574687D01*
X47300609Y-43554500D01*
X47367675Y-43505058D01*
X47377023Y-43496632D01*
X47424917Y-43443614D01*
X47451046Y-43383139D01*
X47462207Y-43293572D01*
X47464527Y-43218124D01*
X47469112Y-43064520D01*
X47483298Y-42961216D01*
X47516438Y-42894854D01*
X47577887Y-42852075D01*
X47676999Y-42819521D01*
X47757644Y-42799529D01*
X47879764Y-42773723D01*
X47981239Y-42758587D01*
X48043593Y-42756726D01*
X48050115Y-42758313D01*
G37*
G36*
X46235822Y-53047334D02*
G01*
X46330202Y-53071933D01*
X46465239Y-53106232D01*
X46630301Y-53147529D01*
X46803644Y-53190390D01*
X47031911Y-53246115D01*
X47206278Y-53292118D01*
X47333978Y-53336708D01*
X47422242Y-53388191D01*
X47478300Y-53454872D01*
X47509384Y-53545059D01*
X47522725Y-53667058D01*
X47525554Y-53829176D01*
X47525089Y-54019127D01*
X47523494Y-54195938D01*
X47519077Y-54348228D01*
X47512386Y-54465620D01*
X47503972Y-54537738D01*
X47496650Y-54555890D01*
X47458037Y-54548741D01*
X47367667Y-54528852D01*
X47235708Y-54498557D01*
X47072330Y-54460192D01*
X46887702Y-54416092D01*
X46883632Y-54415112D01*
X46672746Y-54363406D01*
X46515027Y-54322045D01*
X46401346Y-54287908D01*
X46322571Y-54257873D01*
X46269574Y-54228817D01*
X46233225Y-54197619D01*
X46226876Y-54190530D01*
X46179858Y-54115143D01*
X46155902Y-54035508D01*
X46156091Y-53968726D01*
X46181509Y-53931896D01*
X46210472Y-53931620D01*
X46260513Y-53944904D01*
X46358024Y-53969586D01*
X46488522Y-54002101D01*
X46637523Y-54038885D01*
X46790545Y-54076374D01*
X46933103Y-54111004D01*
X47050714Y-54139211D01*
X47118753Y-54155132D01*
X47206394Y-54175148D01*
X47206394Y-53607216D01*
X46688514Y-53480579D01*
X46170635Y-53353942D01*
X46160860Y-53186908D01*
X46158857Y-53087150D01*
X46169408Y-53040153D01*
X46192729Y-53035136D01*
X46235822Y-53047334D01*
G37*
G36*
X51251802Y-51746930D02*
G01*
X51250241Y-51976777D01*
X51246877Y-52188351D01*
X51242010Y-52372493D01*
X51235938Y-52520041D01*
X51228961Y-52621835D01*
X51221730Y-52667907D01*
X51179921Y-52733416D01*
X51110705Y-52775034D01*
X51003314Y-52796091D01*
X50846980Y-52799919D01*
X50799377Y-52798588D01*
X50536758Y-52789348D01*
X50527389Y-52595011D01*
X50518021Y-52400674D01*
X50699685Y-52381948D01*
X50803343Y-52364897D01*
X50880488Y-52340520D01*
X50907750Y-52321648D01*
X50915532Y-52278723D01*
X50922451Y-52182023D01*
X50928144Y-52041431D01*
X50932250Y-51866830D01*
X50934406Y-51668104D01*
X50934639Y-51587782D01*
X50935127Y-50895489D01*
X51253822Y-50895489D01*
X51251802Y-51746930D01*
G37*
G36*
X48672391Y-45639712D02*
G01*
X48666762Y-45777680D01*
X48648684Y-45862540D01*
X48624587Y-45898245D01*
X48602022Y-45932139D01*
X48587430Y-45996198D01*
X48579473Y-46101124D01*
X48576810Y-46257619D01*
X48576783Y-46280200D01*
X48578904Y-46443551D01*
X48586160Y-46554058D01*
X48599892Y-46622423D01*
X48621437Y-46659349D01*
X48624587Y-46662155D01*
X48655070Y-46716151D01*
X48670109Y-46819404D01*
X48672391Y-46906438D01*
X48672391Y-47111096D01*
X48505851Y-47101475D01*
X48431627Y-47095347D01*
X48374005Y-47081725D01*
X48330877Y-47053336D01*
X48300137Y-47002901D01*
X48279678Y-46923145D01*
X48267393Y-46806792D01*
X48261174Y-46646565D01*
X48258915Y-46435189D01*
X48258558Y-46247496D01*
X48258961Y-45997108D01*
X48262046Y-45803171D01*
X48270047Y-45658477D01*
X48285199Y-45555820D01*
X48309735Y-45487992D01*
X48345891Y-45447786D01*
X48395900Y-45427995D01*
X48461996Y-45421412D01*
X48514851Y-45420802D01*
X48672391Y-45420802D01*
X48672391Y-45639712D01*
G37*
G36*
X51253822Y-50672682D02*
G01*
X50517782Y-50672682D01*
X50536758Y-50274812D01*
X50735942Y-50265336D01*
X50935127Y-50255859D01*
X50935127Y-49399499D01*
X51253822Y-49399499D01*
X51253822Y-50672682D01*
G37*
G36*
X46210472Y-55682281D02*
G01*
X46280973Y-55701686D01*
X46392087Y-55730417D01*
X46530701Y-55765279D01*
X46683703Y-55803076D01*
X46837981Y-55840615D01*
X46980422Y-55874699D01*
X47097914Y-55902134D01*
X47177344Y-55919724D01*
X47204773Y-55924561D01*
X47226907Y-55896586D01*
X47237973Y-55827795D01*
X47238263Y-55813158D01*
X47243446Y-55742867D01*
X47268507Y-55709165D01*
X47327719Y-55705077D01*
X47425497Y-55721648D01*
X47483940Y-55737245D01*
X47513432Y-55765749D01*
X47523851Y-55825394D01*
X47525089Y-55905543D01*
X47513428Y-56033197D01*
X47482125Y-56129241D01*
X47474069Y-56142295D01*
X47431244Y-56195206D01*
X47382990Y-56230899D01*
X47320211Y-56249371D01*
X47233809Y-56250622D01*
X47114685Y-56234647D01*
X46953742Y-56201446D01*
X46741882Y-56151014D01*
X46705692Y-56142098D01*
X46154700Y-56005977D01*
X46154700Y-55835806D01*
X46157397Y-55737575D01*
X46168703Y-55689609D01*
X46193444Y-55678628D01*
X46210472Y-55682281D01*
G37*
G36*
X48672391Y-49623305D02*
G01*
X48666234Y-49747564D01*
X48646872Y-49815637D01*
X48628505Y-49832101D01*
X48572199Y-49840130D01*
X48479576Y-49841282D01*
X48429321Y-49839059D01*
X48274022Y-49829198D01*
X48255046Y-49431328D01*
X48672391Y-49431328D01*
X48672391Y-49623305D01*
G37*
G36*
X49250247Y-45420802D02*
G01*
X49353766Y-45421328D01*
X49435340Y-45427438D01*
X49497691Y-45445927D01*
X49543542Y-45483590D01*
X49575615Y-45547221D01*
X49596631Y-45643618D01*
X49609313Y-45779574D01*
X49616383Y-45961886D01*
X49620563Y-46197348D01*
X49622594Y-46350316D01*
X49632647Y-47107769D01*
X49314844Y-47107769D01*
X49304345Y-46521509D01*
X49299772Y-46334221D01*
X49293427Y-46169073D01*
X49285899Y-46036537D01*
X49277780Y-45947088D01*
X49269945Y-45911442D01*
X49245408Y-45898376D01*
X49226176Y-45918081D01*
X49211264Y-45976684D01*
X49199688Y-46080316D01*
X49190461Y-46235106D01*
X49182600Y-46447183D01*
X49182304Y-46456815D01*
X49174973Y-46665107D01*
X49165659Y-46818915D01*
X49151510Y-46927409D01*
X49129674Y-46999757D01*
X49097300Y-47045129D01*
X49051537Y-47072695D01*
X48989532Y-47091623D01*
X48984506Y-47092863D01*
X48946343Y-47099038D01*
X48916728Y-47092163D01*
X48894736Y-47065530D01*
X48879441Y-47012428D01*
X48869918Y-46926147D01*
X48865240Y-46799979D01*
X48864482Y-46627213D01*
X48866719Y-46401140D01*
X48868846Y-46254543D01*
X48872860Y-46002961D01*
X48878463Y-45807846D01*
X48888934Y-45662027D01*
X48907554Y-45558334D01*
X48937602Y-45489596D01*
X48982359Y-45448644D01*
X49045105Y-45428306D01*
X49129120Y-45421413D01*
X49237684Y-45420795D01*
X49250247Y-45420802D01*
G37*
G36*
X46545102Y-54476668D02*
G01*
X46599291Y-54489580D01*
X46703507Y-54514162D01*
X46845712Y-54547583D01*
X47013868Y-54587013D01*
X47140898Y-54616751D01*
X47333392Y-54662225D01*
X47474599Y-54697726D01*
X47575360Y-54727493D01*
X47646517Y-54755767D01*
X47698911Y-54786790D01*
X47743385Y-54824802D01*
X47786256Y-54869196D01*
X47854486Y-54947555D01*
X47890800Y-55012987D01*
X47905153Y-55092108D01*
X47907523Y-55193393D01*
X47905332Y-55300424D01*
X47896083Y-55356737D01*
X47875763Y-55375204D01*
X47851751Y-55372214D01*
X47774784Y-55350511D01*
X47724273Y-55336095D01*
X47664351Y-55292775D01*
X47652567Y-55240684D01*
X47638824Y-55134785D01*
X47600649Y-55074950D01*
X47569484Y-55065163D01*
X47541846Y-55085011D01*
X47527963Y-55150957D01*
X47525089Y-55237396D01*
X47520741Y-55343463D01*
X47501255Y-55411200D01*
X47456968Y-55465698D01*
X47427035Y-55492033D01*
X47351374Y-55544747D01*
X47286799Y-55572063D01*
X47275655Y-55573171D01*
X47224822Y-55565341D01*
X47126654Y-55545006D01*
X46995603Y-55515312D01*
X46855829Y-55481796D01*
X46489330Y-55391686D01*
X46479697Y-55228424D01*
X46477396Y-55136399D01*
X46481925Y-55077190D01*
X46487927Y-55065163D01*
X46524411Y-55072061D01*
X46609402Y-55090740D01*
X46729414Y-55118179D01*
X46842982Y-55144737D01*
X46982901Y-55177158D01*
X47100163Y-55203211D01*
X47180711Y-55219842D01*
X47209220Y-55224311D01*
X47227528Y-55196095D01*
X47237593Y-55125739D01*
X47238263Y-55098998D01*
X47238263Y-54973685D01*
X46473395Y-54798691D01*
X46473395Y-54628939D01*
X46475364Y-54531312D01*
X46485678Y-54483279D01*
X46510949Y-54470800D01*
X46545102Y-54476668D01*
G37*
G36*
X49596607Y-49845113D02*
G01*
X48902572Y-49845113D01*
X48881145Y-49731041D01*
X48872017Y-49624770D01*
X48879670Y-49526293D01*
X48880130Y-49524148D01*
X48900542Y-49431328D01*
X49596607Y-49431328D01*
X49596607Y-49845113D01*
G37*
G36*
X49400220Y-50419533D02*
G01*
X49505054Y-50425000D01*
X49568071Y-50435948D01*
X49600207Y-50453879D01*
X49609132Y-50468393D01*
X49622456Y-50545470D01*
X49623111Y-50651904D01*
X49611379Y-50754720D01*
X49606508Y-50776128D01*
X49592908Y-50800869D01*
X49560072Y-50817078D01*
X49496725Y-50826487D01*
X49391590Y-50830826D01*
X49243706Y-50831829D01*
X48895478Y-50831829D01*
X48895478Y-50418045D01*
X49242633Y-50418045D01*
X49400220Y-50419533D01*
G37*
G36*
X50296723Y-45619737D02*
G01*
X50287243Y-45759660D01*
X50262177Y-45857242D01*
X50248919Y-45880457D01*
X50226270Y-45940798D01*
X50210260Y-46043063D01*
X50200867Y-46172002D01*
X50198073Y-46312369D01*
X50201859Y-46448915D01*
X50212205Y-46566391D01*
X50229092Y-46649550D01*
X50249932Y-46682474D01*
X50280512Y-46724209D01*
X50297437Y-46805919D01*
X50300849Y-46905434D01*
X50290892Y-47000579D01*
X50267706Y-47069182D01*
X50247326Y-47088449D01*
X50168857Y-47103673D01*
X50067382Y-47106229D01*
X49973055Y-47096879D01*
X49921108Y-47080197D01*
X49907395Y-47058907D01*
X49897325Y-47010335D01*
X49890620Y-46927740D01*
X49887004Y-46804381D01*
X49886200Y-46633518D01*
X49887932Y-46408409D01*
X49889238Y-46304134D01*
X49892848Y-46064570D01*
X49896853Y-45880426D01*
X49901968Y-45743467D01*
X49908909Y-45645453D01*
X49918391Y-45578147D01*
X49931127Y-45533312D01*
X49947834Y-45502711D01*
X49960079Y-45487735D01*
X50032214Y-45438348D01*
X50139546Y-45421059D01*
X50159263Y-45420802D01*
X50297736Y-45420802D01*
X50296723Y-45619737D01*
G37*
G36*
X48672391Y-57229574D02*
G01*
X48514851Y-57229574D01*
X48441129Y-57228297D01*
X48383070Y-57219941D01*
X48338803Y-57197714D01*
X48306459Y-57154824D01*
X48284166Y-57084481D01*
X48270055Y-56979894D01*
X48262254Y-56834271D01*
X48258894Y-56640821D01*
X48258103Y-56392754D01*
X48258088Y-56297341D01*
X48258666Y-56022654D01*
X48261664Y-55804989D01*
X48268974Y-55637708D01*
X48282492Y-55514178D01*
X48304110Y-55427761D01*
X48335724Y-55371823D01*
X48379226Y-55339728D01*
X48436510Y-55324839D01*
X48509471Y-55320521D01*
X48536946Y-55320287D01*
X48672391Y-55319799D01*
X48672391Y-57229574D01*
G37*
G36*
X46539264Y-58799679D02*
G01*
X46407852Y-58762586D01*
X46318157Y-58734004D01*
X46285287Y-58720116D01*
X46234499Y-58677507D01*
X46198300Y-58616324D01*
X46174488Y-58526479D01*
X46160863Y-58397882D01*
X46155221Y-58220445D01*
X46154700Y-58121746D01*
X46155310Y-57952495D01*
X46158532Y-57834055D01*
X46158624Y-57833123D01*
X46473395Y-57833123D01*
X46473395Y-58460202D01*
X46616808Y-58492978D01*
X46760221Y-58525755D01*
X46760221Y-58214020D01*
X46758829Y-58068475D01*
X46753301Y-57974650D01*
X46741605Y-57920641D01*
X46721709Y-57894544D01*
X46704449Y-57887183D01*
X46630850Y-57868762D01*
X46561036Y-57852602D01*
X46473395Y-57833123D01*
X46158624Y-57833123D01*
X46166452Y-57753583D01*
X46181158Y-57698233D01*
X46204736Y-57655160D01*
X46237207Y-57613971D01*
X46303487Y-57553758D01*
X46384430Y-57522080D01*
X46492525Y-57517651D01*
X46640258Y-57539188D01*
X46743835Y-57561848D01*
X46866708Y-57595405D01*
X46955402Y-57636270D01*
X47015413Y-57694663D01*
X47052236Y-57780807D01*
X47071368Y-57904919D01*
X47078304Y-58077222D01*
X47078916Y-58185009D01*
X47078916Y-58595792D01*
X47200163Y-58628399D01*
X47310802Y-58656237D01*
X47416248Y-58679932D01*
X47423249Y-58681349D01*
X47481766Y-58696416D01*
X47512051Y-58723138D01*
X47523394Y-58779173D01*
X47525089Y-58874920D01*
X47522496Y-58974223D01*
X47511574Y-59023152D01*
X47487611Y-59034891D01*
X47469317Y-59030949D01*
X47420892Y-59018097D01*
X47321912Y-58993340D01*
X47183835Y-58959492D01*
X47018117Y-58919367D01*
X46880573Y-58886365D01*
X46760221Y-58856693D01*
X46700726Y-58842025D01*
X46539264Y-58799679D01*
G37*
G36*
X46878708Y-57472216D02*
G01*
X46739325Y-57385500D01*
X46629820Y-57264086D01*
X46550935Y-57118547D01*
X46503413Y-56959456D01*
X46497836Y-56900825D01*
X46722211Y-56900825D01*
X46764752Y-57011645D01*
X46844069Y-57106555D01*
X46953347Y-57170904D01*
X47004965Y-57185002D01*
X47119590Y-57181869D01*
X47215063Y-57135061D01*
X47273044Y-57054840D01*
X47279408Y-57031423D01*
X47291931Y-56971409D01*
X47297662Y-56950043D01*
X47289502Y-56917935D01*
X47263822Y-56850044D01*
X47256709Y-56832796D01*
X47188221Y-56732850D01*
X47089029Y-56663176D01*
X46976224Y-56628834D01*
X46866895Y-56634885D01*
X46778134Y-56686392D01*
X46774721Y-56690054D01*
X46723263Y-56788744D01*
X46722211Y-56900825D01*
X46497836Y-56900825D01*
X46487997Y-56797389D01*
X46505430Y-56642918D01*
X46556455Y-56506618D01*
X46641816Y-56399062D01*
X46762255Y-56330826D01*
X46797830Y-56321172D01*
X46943093Y-56319194D01*
X47097493Y-56366175D01*
X47245860Y-56452226D01*
X47373022Y-56567459D01*
X47463810Y-56701983D01*
X47490652Y-56772778D01*
X47518720Y-56936137D01*
X47518833Y-57103996D01*
X47491579Y-57248844D01*
X47479789Y-57280018D01*
X47393559Y-57405034D01*
X47269795Y-57485669D01*
X47119960Y-57518259D01*
X47004965Y-57504887D01*
X46955518Y-57499137D01*
X46878708Y-57472216D01*
G37*
G36*
X48665085Y-50581491D02*
G01*
X48667547Y-50798298D01*
X48667739Y-50959780D01*
X48665114Y-51074250D01*
X48659126Y-51150019D01*
X48649226Y-51195399D01*
X48634867Y-51218702D01*
X48622642Y-51226040D01*
X48544804Y-51241256D01*
X48443909Y-51244170D01*
X48349928Y-51235437D01*
X48297217Y-51218939D01*
X48282601Y-51194150D01*
X48272296Y-51136633D01*
X48265963Y-51039549D01*
X48263265Y-50896064D01*
X48263862Y-50699340D01*
X48265347Y-50574877D01*
X48274022Y-49956516D01*
X48656457Y-49956516D01*
X48665085Y-50581491D01*
G37*
G36*
X51205199Y-47392655D02*
G01*
X51221015Y-47433949D01*
X51233142Y-47494279D01*
X51242018Y-47581489D01*
X51248080Y-47703426D01*
X51251766Y-47867934D01*
X51253516Y-48082858D01*
X51253822Y-48263676D01*
X51253564Y-48506843D01*
X51252365Y-48694630D01*
X51249592Y-48835316D01*
X51244609Y-48937179D01*
X51236781Y-49008496D01*
X51225473Y-49057548D01*
X51210049Y-49092612D01*
X51189874Y-49121966D01*
X51187770Y-49124655D01*
X51153240Y-49163853D01*
X51114803Y-49188450D01*
X51057647Y-49201834D01*
X50966963Y-49207394D01*
X50827939Y-49208520D01*
X50821270Y-49208521D01*
X50520823Y-49208521D01*
X50520823Y-48794737D01*
X50666331Y-48794737D01*
X50764582Y-48793192D01*
X50835393Y-48782584D01*
X50883259Y-48753958D01*
X50912672Y-48698354D01*
X50928125Y-48606815D01*
X50934112Y-48470385D01*
X50935126Y-48280104D01*
X50935127Y-48258880D01*
X50932778Y-48044106D01*
X50925575Y-47889712D01*
X50913285Y-47792587D01*
X50896883Y-47750727D01*
X50844953Y-47729004D01*
X50753881Y-47715168D01*
X50689731Y-47712531D01*
X50520823Y-47712531D01*
X50520823Y-47298747D01*
X51156576Y-47298747D01*
X51205199Y-47392655D01*
G37*
G36*
X48879543Y-55112907D02*
G01*
X48879543Y-54360240D01*
X48879550Y-54334961D01*
X49182304Y-54334961D01*
X49183888Y-54503309D01*
X49189277Y-54616603D01*
X49199427Y-54683382D01*
X49215291Y-54712187D01*
X49224796Y-54715037D01*
X49278998Y-54700899D01*
X49288535Y-54693818D01*
X49300172Y-54650814D01*
X49307131Y-54561038D01*
X49309700Y-54441183D01*
X49308163Y-54307941D01*
X49302807Y-54178006D01*
X49293917Y-54068071D01*
X49281780Y-53994828D01*
X49276313Y-53979973D01*
X49241386Y-53933747D01*
X49215017Y-53943269D01*
X49196713Y-54010411D01*
X49185976Y-54137046D01*
X49182310Y-54325046D01*
X49182304Y-54334961D01*
X48879550Y-54334961D01*
X48879617Y-54099816D01*
X48881756Y-53896093D01*
X48888833Y-53742117D01*
X48903724Y-53630936D01*
X48929302Y-53555597D01*
X48968442Y-53509146D01*
X49024019Y-53484631D01*
X49098906Y-53475098D01*
X49195979Y-53473594D01*
X49246043Y-53473684D01*
X49353590Y-53473909D01*
X49437691Y-53479239D01*
X49501331Y-53496655D01*
X49547498Y-53533138D01*
X49579180Y-53595671D01*
X49599364Y-53691234D01*
X49611038Y-53826809D01*
X49617189Y-54009377D01*
X49620803Y-54245921D01*
X49622149Y-54352641D01*
X49624678Y-54596635D01*
X49624976Y-54783985D01*
X49622730Y-54921678D01*
X49617628Y-55016701D01*
X49609359Y-55076040D01*
X49597609Y-55106681D01*
X49588125Y-55114455D01*
X49539420Y-55120594D01*
X49442630Y-55123882D01*
X49313357Y-55124005D01*
X49224796Y-55122290D01*
X49212019Y-55122042D01*
X48879543Y-55112907D01*
G37*
G36*
X48672391Y-49208521D02*
G01*
X48514851Y-49208521D01*
X48441129Y-49207245D01*
X48383070Y-49198888D01*
X48338803Y-49176661D01*
X48306459Y-49133771D01*
X48284166Y-49063428D01*
X48270055Y-48958841D01*
X48262254Y-48813218D01*
X48258894Y-48619769D01*
X48258103Y-48371701D01*
X48258088Y-48276289D01*
X48258666Y-48001602D01*
X48261664Y-47783936D01*
X48268974Y-47616656D01*
X48282492Y-47493125D01*
X48304110Y-47406709D01*
X48335724Y-47350771D01*
X48379226Y-47318675D01*
X48436510Y-47303786D01*
X48509471Y-47299469D01*
X48536946Y-47299234D01*
X48672391Y-47298747D01*
X48672391Y-49208521D01*
G37*
G36*
X50297736Y-47712531D02*
G01*
X49923642Y-47712531D01*
X49905000Y-47597800D01*
X49897259Y-47491242D01*
X49904403Y-47393016D01*
X49904814Y-47390908D01*
X49918802Y-47339392D01*
X49945483Y-47311858D01*
X50001590Y-47300809D01*
X50103855Y-47298748D01*
X50110503Y-47298747D01*
X50297736Y-47298747D01*
X50297736Y-47712531D01*
G37*
G36*
X48672391Y-53677171D02*
G01*
X48667915Y-53798909D01*
X48652835Y-53869002D01*
X48624674Y-53898946D01*
X48624587Y-53898979D01*
X48604093Y-53917850D01*
X48590198Y-53962510D01*
X48581773Y-54042816D01*
X48577687Y-54168627D01*
X48576783Y-54316169D01*
X48577907Y-54484950D01*
X48582044Y-54599662D01*
X48590340Y-54669871D01*
X48603941Y-54705140D01*
X48623993Y-54715033D01*
X48624587Y-54715037D01*
X48651401Y-54728850D01*
X48666305Y-54778204D01*
X48672041Y-54874975D01*
X48672391Y-54921930D01*
X48672391Y-55128822D01*
X48258088Y-55128822D01*
X48258088Y-54371994D01*
X48258501Y-54109780D01*
X48261058Y-53904306D01*
X48267736Y-53748657D01*
X48280513Y-53635915D01*
X48301366Y-53559161D01*
X48332271Y-53511479D01*
X48375207Y-53485952D01*
X48432149Y-53475661D01*
X48505077Y-53473690D01*
X48514851Y-53473684D01*
X48672391Y-53473684D01*
X48672391Y-53677171D01*
G37*
G36*
X50536758Y-47091854D02*
G01*
X50529636Y-46461184D01*
X50813060Y-46461184D01*
X50820176Y-46587278D01*
X50837098Y-46661461D01*
X50865051Y-46689395D01*
X50901470Y-46679173D01*
X50918805Y-46635069D01*
X50928154Y-46528813D01*
X50929545Y-46359973D01*
X50928149Y-46285668D01*
X50922876Y-46122902D01*
X50915376Y-46014108D01*
X50904169Y-45949602D01*
X50887776Y-45919702D01*
X50871388Y-45914160D01*
X50849973Y-45924784D01*
X50834957Y-45963162D01*
X50824811Y-46039056D01*
X50818008Y-46162228D01*
X50814523Y-46277517D01*
X50813060Y-46461184D01*
X50529636Y-46461184D01*
X50528212Y-46335033D01*
X50519665Y-45578212D01*
X50598469Y-45499507D01*
X50651498Y-45455625D01*
X50712832Y-45431715D01*
X50803335Y-45422090D01*
X50887322Y-45420802D01*
X51007972Y-45424234D01*
X51085889Y-45438291D01*
X51141884Y-45468613D01*
X51175597Y-45498929D01*
X51253822Y-45577056D01*
X51253822Y-46327497D01*
X51253108Y-46575558D01*
X51250728Y-46766518D01*
X51246321Y-46906919D01*
X51239529Y-47003305D01*
X51229992Y-47062221D01*
X51217350Y-47090209D01*
X51211716Y-47094075D01*
X51163291Y-47100079D01*
X51067211Y-47103124D01*
X50939503Y-47102900D01*
X50865051Y-47101290D01*
X50853184Y-47101033D01*
X50536758Y-47091854D01*
G37*
G36*
X48672391Y-57655868D02*
G01*
X48667915Y-57777606D01*
X48652835Y-57847699D01*
X48624674Y-57877642D01*
X48624587Y-57877676D01*
X48604013Y-57896636D01*
X48590093Y-57941501D01*
X48581683Y-58022166D01*
X48577641Y-58148524D01*
X48576783Y-58291460D01*
X48578122Y-58462170D01*
X48582900Y-58579158D01*
X48592261Y-58652316D01*
X48607349Y-58691541D01*
X48624587Y-58705245D01*
X48653655Y-58736710D01*
X48668708Y-58810289D01*
X48672391Y-58915542D01*
X48672391Y-59107519D01*
X48258088Y-59107519D01*
X48258088Y-58350691D01*
X48258501Y-58088476D01*
X48261058Y-57883003D01*
X48267736Y-57727354D01*
X48280513Y-57614611D01*
X48301366Y-57537858D01*
X48332271Y-57490176D01*
X48375207Y-57464649D01*
X48432149Y-57454358D01*
X48505077Y-57452387D01*
X48514851Y-57452381D01*
X48672391Y-57452381D01*
X48672391Y-57655868D01*
G37*
G36*
X49462869Y-47305030D02*
G01*
X49612542Y-47314661D01*
X49618040Y-48126316D01*
X49618502Y-48352138D01*
X49616915Y-48560936D01*
X49613511Y-48742986D01*
X49608525Y-48888565D01*
X49602192Y-48987947D01*
X49596349Y-49027536D01*
X49567433Y-49107569D01*
X49530215Y-49159809D01*
X49471668Y-49190120D01*
X49378767Y-49204368D01*
X49238484Y-49208416D01*
X49194336Y-49208521D01*
X48895478Y-49208521D01*
X48895478Y-48794737D01*
X49046858Y-48794249D01*
X49123430Y-48793911D01*
X49182302Y-48788507D01*
X49225917Y-48770618D01*
X49256714Y-48732826D01*
X49277137Y-48667714D01*
X49289627Y-48567862D01*
X49296625Y-48425854D01*
X49300573Y-48234270D01*
X49303521Y-48014443D01*
X49313196Y-47295398D01*
X49462869Y-47305030D01*
G37*
G36*
X50297736Y-50672682D02*
G01*
X50110503Y-50672682D01*
X50005559Y-50670957D01*
X49947567Y-50660608D01*
X49919745Y-50633868D01*
X49905313Y-50582973D01*
X49904148Y-50577193D01*
X49896340Y-50471261D01*
X49904148Y-50386215D01*
X49918211Y-50332870D01*
X49944215Y-50304351D01*
X49998941Y-50292893D01*
X50099169Y-50290731D01*
X50110503Y-50290727D01*
X50297736Y-50290727D01*
X50297736Y-50672682D01*
G37*
G36*
X50297736Y-51829156D02*
G01*
X50297039Y-52066851D01*
X50295065Y-52283675D01*
X50291996Y-52471518D01*
X50288013Y-52622273D01*
X50283296Y-52727831D01*
X50278024Y-52780085D01*
X50276490Y-52784043D01*
X50217545Y-52805529D01*
X50129323Y-52802564D01*
X50039654Y-52778975D01*
X49980819Y-52743379D01*
X49949807Y-52706339D01*
X49925811Y-52659498D01*
X49908117Y-52595131D01*
X49896014Y-52505518D01*
X49888790Y-52382935D01*
X49885733Y-52219661D01*
X49886130Y-52007973D01*
X49889143Y-51749109D01*
X49892873Y-51514713D01*
X49897048Y-51335543D01*
X49902428Y-51203165D01*
X49909772Y-51109146D01*
X49919842Y-51045052D01*
X49933398Y-51002451D01*
X49951200Y-50972910D01*
X49960079Y-50962420D01*
X50032218Y-50913033D01*
X50139557Y-50895745D01*
X50159263Y-50895489D01*
X50297736Y-50895489D01*
X50297736Y-51829156D01*
G37*
G36*
X48672391Y-53250877D02*
G01*
X48514851Y-53250877D01*
X48441913Y-53249706D01*
X48384289Y-53241719D01*
X48340173Y-53220205D01*
X48307762Y-53178455D01*
X48285251Y-53109758D01*
X48270836Y-53007405D01*
X48262712Y-52864684D01*
X48259076Y-52674886D01*
X48258122Y-52431300D01*
X48258088Y-52295990D01*
X48258403Y-52024739D01*
X48260550Y-51810437D01*
X48266335Y-51646373D01*
X48277562Y-51525838D01*
X48296034Y-51442121D01*
X48323556Y-51388512D01*
X48361933Y-51358301D01*
X48412968Y-51344778D01*
X48478467Y-51341231D01*
X48514851Y-51341103D01*
X48672391Y-51341103D01*
X48672391Y-53250877D01*
G37*
X66988563Y-91189000D02*
X68053000Y-92253437D01*
X68053000Y-98009000D02*
X65703000Y-98009000D01*
X66988563Y-91189000D02*
X65703000Y-91189000D01*
X68053000Y-92253437D02*
X68053000Y-98009000D01*
X61233000Y-92253437D02*
X61233000Y-98009000D01*
X62297437Y-91189000D02*
X63583000Y-91189000D01*
X62297437Y-91189000D02*
X61233000Y-92253437D01*
X61233000Y-98009000D02*
X63583000Y-98009000D01*
X111907000Y-53213000D02*
X111907000Y-55163000D01*
X106787000Y-53213000D02*
X106787000Y-51263000D01*
X111907000Y-53213000D02*
X111907000Y-51263000D01*
X106787000Y-53213000D02*
X106787000Y-56663000D01*
X101747000Y-53213000D02*
X101747000Y-51263000D01*
X101747000Y-53213000D02*
X101747000Y-55163000D01*
X96627000Y-53213000D02*
X96627000Y-51263000D01*
X96627000Y-53213000D02*
X96627000Y-56663000D01*
X67210000Y-128345000D02*
X67210000Y-121845000D01*
X105510000Y-128345000D02*
X67210000Y-128345000D01*
X105510000Y-121845000D02*
X105510000Y-128345000D01*
X101600000Y-120145000D02*
X102100000Y-119145000D01*
X84310000Y-121845000D02*
X84310000Y-121845000D01*
X84310000Y-121845000D02*
X84310000Y-120535000D01*
X88410000Y-120535000D02*
X88410000Y-121845000D01*
X65910000Y-120535000D02*
X106810000Y-120535000D01*
X102100000Y-119145000D02*
X101100000Y-119145000D01*
X106810000Y-120535000D02*
X106810000Y-129655000D01*
X65910000Y-129655000D02*
X65910000Y-120535000D01*
X67210000Y-121845000D02*
X84310000Y-121845000D01*
X101100000Y-119145000D02*
X101600000Y-120145000D01*
X88410000Y-121845000D02*
X105510000Y-121845000D01*
X106810000Y-129655000D02*
X65910000Y-129655000D01*
X64107000Y-84956000D02*
X64107000Y-89256000D01*
X64107000Y-89256000D02*
X71407000Y-89256000D01*
X64107000Y-84956000D02*
X71407000Y-84956000D01*
X128069000Y-83640000D02*
X128069000Y-86540000D01*
X124309000Y-82370000D02*
X126389000Y-82370000D01*
X122629000Y-83640000D02*
X122629000Y-86540000D01*
X124309000Y-87810000D02*
X126389000Y-87810000D01*
X128069000Y-83640000D02*
X127579000Y-83150000D01*
X122629000Y-86540000D02*
X123119000Y-87030000D01*
X128069000Y-86540000D02*
X127579000Y-87030000D01*
X122629000Y-83640000D02*
X123119000Y-83150000D01*
X116559064Y-57177000D02*
X116104936Y-57177000D01*
X116559064Y-58647000D02*
X116104936Y-58647000D01*
X60370000Y-125659000D02*
X60370000Y-127579000D01*
X63230000Y-125659000D02*
X60370000Y-125659000D01*
X60370000Y-127579000D02*
X63230000Y-127579000D01*
X122327936Y-75719000D02*
X122782064Y-75719000D01*
X122327936Y-77189000D02*
X122782064Y-77189000D01*
X128352000Y-71811000D02*
X125492000Y-71811000D01*
X128352000Y-73731000D02*
X128352000Y-71811000D01*
X125492000Y-73731000D02*
X128352000Y-73731000D01*
X98706000Y-59555748D02*
X98706000Y-60078252D01*
X100176000Y-59555748D02*
X100176000Y-60078252D01*
X58225000Y-51871748D02*
X58225000Y-54644252D01*
X54805000Y-51871748D02*
X54805000Y-54644252D01*
X116559064Y-61187000D02*
X116104936Y-61187000D01*
X116559064Y-59717000D02*
X116104936Y-59717000D01*
X124105936Y-90070000D02*
X124560064Y-90070000D01*
X124105936Y-91540000D02*
X124560064Y-91540000D01*
X59546000Y-122754000D02*
X59546000Y-125614000D01*
X51256000Y-119054000D02*
X51256000Y-122754000D01*
X56836000Y-119054000D02*
X62416000Y-119054000D01*
X59546000Y-125614000D02*
X56836000Y-125614000D01*
X54126000Y-122754000D02*
X54126000Y-125614000D01*
X62416000Y-122754000D02*
X59546000Y-122754000D01*
X56836000Y-119054000D02*
X51256000Y-119054000D01*
X51256000Y-122754000D02*
X54126000Y-122754000D01*
X50956000Y-120904000D02*
X50956000Y-123054000D01*
X54126000Y-125614000D02*
X56836000Y-125614000D01*
X50956000Y-123054000D02*
X53086000Y-123054000D01*
X62416000Y-119054000D02*
X62416000Y-122754000D01*
X122502000Y-112469000D02*
X122992000Y-111979000D01*
X122502000Y-112469000D02*
X122502000Y-115369000D01*
X127942000Y-112469000D02*
X127452000Y-111979000D01*
X127942000Y-115369000D02*
X127452000Y-115859000D01*
X124182000Y-111199000D02*
X126262000Y-111199000D01*
X124182000Y-116639000D02*
X126262000Y-116639000D01*
X127942000Y-112469000D02*
X127942000Y-115369000D01*
X122502000Y-115369000D02*
X122992000Y-115859000D01*
X93851000Y-44661000D02*
X93851000Y-35531000D01*
X104221000Y-44661000D02*
X93851000Y-44661000D01*
X103221000Y-34531000D02*
X104221000Y-35531000D01*
X93851000Y-35531000D02*
X94851000Y-34531000D01*
X104221000Y-35531000D02*
X104221000Y-44661000D01*
X94851000Y-34531000D02*
X103221000Y-34531000D01*
X124089936Y-106272000D02*
X124544064Y-106272000D01*
X124089936Y-104802000D02*
X124544064Y-104802000D01*
X68807064Y-103097000D02*
X68352936Y-103097000D01*
X68807064Y-101627000D02*
X68352936Y-101627000D01*
X52978000Y-65751000D02*
X55328000Y-65751000D01*
X59798000Y-65751000D02*
X57448000Y-65751000D01*
X58733563Y-58931000D02*
X57448000Y-58931000D01*
X52978000Y-59995437D02*
X52978000Y-65751000D01*
X59798000Y-59995437D02*
X59798000Y-65751000D01*
X54042437Y-58931000D02*
X55328000Y-58931000D01*
X54042437Y-58931000D02*
X52978000Y-59995437D01*
X58733563Y-58931000D02*
X59798000Y-59995437D01*
X116432064Y-52097000D02*
X115977936Y-52097000D01*
X116432064Y-53567000D02*
X115977936Y-53567000D01*
X113792000Y-119148000D02*
X119372000Y-119148000D01*
X116502000Y-125708000D02*
X113792000Y-125708000D01*
X107912000Y-123148000D02*
X110042000Y-123148000D01*
X111082000Y-125708000D02*
X113792000Y-125708000D01*
X119372000Y-122848000D02*
X116502000Y-122848000D01*
X111082000Y-122848000D02*
X111082000Y-125708000D01*
X119372000Y-119148000D02*
X119372000Y-122848000D01*
X113792000Y-119148000D02*
X108212000Y-119148000D01*
X108212000Y-119148000D02*
X108212000Y-122848000D01*
X116502000Y-122848000D02*
X116502000Y-125708000D01*
X107912000Y-120998000D02*
X107912000Y-123148000D01*
X108212000Y-122848000D02*
X111082000Y-122848000D01*
X64521000Y-55111000D02*
X64521000Y-59411000D01*
X64521000Y-55111000D02*
X71821000Y-55111000D01*
X64521000Y-59411000D02*
X71821000Y-59411000D01*
X108739000Y-59936748D02*
X108739000Y-60459252D01*
X110209000Y-59936748D02*
X110209000Y-60459252D01*
X126193000Y-47808000D02*
X123333000Y-47808000D01*
X126193000Y-49728000D02*
X126193000Y-47808000D01*
X123333000Y-49728000D02*
X126193000Y-49728000D01*
X122327936Y-68353000D02*
X122782064Y-68353000D01*
X122327936Y-69823000D02*
X122782064Y-69823000D01*
D13*
X58530000Y-115940000D02*
X58530000Y-67680000D01*
X62510000Y-117710000D02*
X53010000Y-117710000D01*
X97510000Y-119710000D02*
X64510000Y-119710000D01*
X64510000Y-119710000D02*
X62510000Y-117710000D01*
X121510000Y-38710000D02*
X121510000Y-116210000D01*
X114490000Y-115940000D02*
X119490000Y-115940000D01*
X58530000Y-67680000D02*
X53530000Y-67680000D01*
X53530000Y-67680000D02*
X53530000Y-115940000D01*
X119490000Y-115940000D02*
X119490000Y-67680000D01*
X53530000Y-115940000D02*
X58530000Y-115940000D01*
X53010000Y-37210000D02*
X120010000Y-37210000D01*
X51510000Y-116210000D02*
X51510000Y-38710000D01*
X119490000Y-67680000D02*
X114490000Y-67680000D01*
X120010000Y-117710000D02*
X99510000Y-117710000D01*
X114490000Y-67680000D02*
X114490000Y-115940000D01*
X99510000Y-117710000D02*
X97510000Y-119710000D01*
X51510000Y-116210000D02*
G75*
G03*
X53010000Y-117710000I1500001J1D01*
G01*
X120010000Y-117710000D02*
G75*
G03*
X121510000Y-116210000I0J1500000D01*
G01*
X53010000Y-37210000D02*
G75*
G03*
X51510000Y-38710000I1J-1500001D01*
G01*
X121510000Y-38710000D02*
G75*
G03*
X120010000Y-37210000I-1500000J0D01*
G01*
D14*
X114070000Y-68950000D02*
G75*
G03*
X114070000Y-68950000I-100000J0D01*
G01*
X53110000Y-68950000D02*
G75*
G03*
X53110000Y-68950000I-100000J0D01*
G01*
D11*
X127942000Y-98372000D02*
X127942000Y-101272000D01*
X124182000Y-97102000D02*
X126262000Y-97102000D01*
X122502000Y-98372000D02*
X122502000Y-101272000D01*
X127942000Y-98372000D02*
X127452000Y-97882000D01*
X122502000Y-101272000D02*
X122992000Y-101762000D01*
X122502000Y-98372000D02*
X122992000Y-97882000D01*
X124182000Y-102542000D02*
X126262000Y-102542000D01*
X127942000Y-101272000D02*
X127452000Y-101762000D01*
X122327936Y-73506000D02*
X122782064Y-73506000D01*
X122327936Y-72036000D02*
X122782064Y-72036000D01*
X126109000Y-53467000D02*
X126109000Y-52197000D01*
X124755667Y-58547000D02*
X124755667Y-57277000D01*
X126109000Y-55167000D02*
X124755667Y-55167000D01*
X126109000Y-60007000D02*
X124755667Y-60007000D01*
X126109000Y-60247000D02*
X124755667Y-60247000D01*
X126109000Y-55887000D02*
X124755667Y-55887000D01*
X126109000Y-55047000D02*
X124755667Y-55047000D01*
X126109000Y-52867000D02*
X124755667Y-52867000D01*
X124755667Y-56007000D02*
X124755667Y-54737000D01*
X126109000Y-60847000D02*
X124755667Y-60847000D01*
X126109000Y-60487000D02*
X124755667Y-60487000D01*
X122049000Y-61087000D02*
X126109000Y-61087000D01*
X126109000Y-55287000D02*
X124755667Y-55287000D01*
X126109000Y-52987000D02*
X124755667Y-52987000D01*
X126109000Y-53107000D02*
X124755667Y-53107000D01*
X122049000Y-53467000D02*
X126109000Y-53467000D01*
X124755667Y-53467000D02*
X124755667Y-52197000D01*
X126109000Y-60127000D02*
X124755667Y-60127000D01*
X126109000Y-58427000D02*
X124755667Y-58427000D01*
X122049000Y-58547000D02*
X126109000Y-58547000D01*
X126109000Y-55527000D02*
X124755667Y-55527000D01*
X122049000Y-54737000D02*
X122049000Y-56007000D01*
X126109000Y-60727000D02*
X124755667Y-60727000D01*
X126109000Y-53227000D02*
X124755667Y-53227000D01*
X126109000Y-52627000D02*
X124755667Y-52627000D01*
X126109000Y-52507000D02*
X124755667Y-52507000D01*
X126109000Y-57947000D02*
X124755667Y-57947000D01*
X126109000Y-59817000D02*
X122049000Y-59817000D01*
X126109000Y-60607000D02*
X124755667Y-60607000D01*
X124755667Y-61087000D02*
X124755667Y-59817000D01*
X122049000Y-57277000D02*
X122049000Y-58547000D01*
X126109000Y-56007000D02*
X126109000Y-54737000D01*
X126109000Y-60367000D02*
X124755667Y-60367000D01*
X126109000Y-60967000D02*
X124755667Y-60967000D01*
X126109000Y-52267000D02*
X124755667Y-52267000D01*
X126109000Y-61087000D02*
X126109000Y-59817000D01*
X126109000Y-57277000D02*
X122049000Y-57277000D01*
X126109000Y-55767000D02*
X124755667Y-55767000D01*
X126109000Y-57587000D02*
X124755667Y-57587000D01*
X126109000Y-54807000D02*
X124755667Y-54807000D01*
X129269000Y-63112000D02*
X129269000Y-61729000D01*
X122049000Y-52197000D02*
X122049000Y-53467000D01*
X126109000Y-53347000D02*
X124755667Y-53347000D01*
X126109000Y-52387000D02*
X124755667Y-52387000D01*
X126109000Y-57347000D02*
X124755667Y-57347000D01*
X129029000Y-62872000D02*
X119129000Y-62872000D01*
X126109000Y-58547000D02*
X126109000Y-57277000D01*
X126109000Y-55407000D02*
X124755667Y-55407000D01*
X126109000Y-58067000D02*
X124755667Y-58067000D01*
X126109000Y-57707000D02*
X124755667Y-57707000D01*
X126109000Y-55647000D02*
X124755667Y-55647000D01*
X129029000Y-50412000D02*
X119129000Y-50412000D01*
X126109000Y-54737000D02*
X122049000Y-54737000D01*
X129269000Y-63112000D02*
X127885000Y-63112000D01*
X119129000Y-62872000D02*
X119129000Y-50412000D01*
X126109000Y-59887000D02*
X124755667Y-59887000D01*
X126109000Y-52747000D02*
X124755667Y-52747000D01*
X126109000Y-58187000D02*
X124755667Y-58187000D01*
X122049000Y-59817000D02*
X122049000Y-61087000D01*
X126109000Y-57467000D02*
X124755667Y-57467000D01*
X122049000Y-56007000D02*
X126109000Y-56007000D01*
X126109000Y-54927000D02*
X124755667Y-54927000D01*
X126109000Y-52197000D02*
X122049000Y-52197000D01*
X126109000Y-58307000D02*
X124755667Y-58307000D01*
X129029000Y-62872000D02*
X129029000Y-50412000D01*
X126109000Y-57827000D02*
X124755667Y-57827000D01*
X106559000Y-34449000D02*
X114929000Y-34449000D01*
X115929000Y-44579000D02*
X105559000Y-44579000D01*
X114929000Y-34449000D02*
X115929000Y-35449000D01*
X105559000Y-35449000D02*
X106559000Y-34449000D01*
X105559000Y-44579000D02*
X105559000Y-35449000D01*
X115929000Y-35449000D02*
X115929000Y-44579000D01*
X123333000Y-65603000D02*
X126193000Y-65603000D01*
X126193000Y-65603000D02*
X126193000Y-63683000D01*
X126193000Y-63683000D02*
X123333000Y-63683000D01*
%LPC*%
D15*
X83566000Y-53020000D03*
X83566000Y-57470000D03*
D16*
X117062000Y-128016000D03*
X115062000Y-128016000D03*
D17*
X75765000Y-44801000D03*
X62265000Y-44801000D03*
D18*
X65415000Y-50801000D03*
X72615000Y-50801000D03*
D19*
X127517000Y-69088000D03*
X125467000Y-69088000D03*
D20*
X123333000Y-119634000D03*
X125333000Y-119634000D03*
D21*
X63656250Y-62741000D03*
X75740250Y-62741000D03*
D22*
X63856250Y-82456000D03*
D23*
X75551250Y-82310000D03*
D20*
X110506000Y-128016000D03*
X112506000Y-128016000D03*
D24*
X72390000Y-92061500D03*
X72390000Y-97136500D03*
D16*
X117205000Y-55372000D03*
X115205000Y-55372000D03*
D25*
X123295500Y-107950000D03*
X125370500Y-107950000D03*
D19*
X127517000Y-76454000D03*
X125467000Y-76454000D03*
D25*
X124311500Y-79756000D03*
X126386500Y-79756000D03*
D26*
X85793500Y-48021000D03*
D27*
X85793500Y-42021000D03*
D28*
X81093500Y-45021000D03*
D24*
X80137000Y-92204500D03*
X80137000Y-97279500D03*
D25*
X123295500Y-93853000D03*
X125370500Y-93853000D03*
D24*
X64643000Y-92061500D03*
X64643000Y-97136500D03*
D29*
X107442000Y-55688000D03*
X108712000Y-55688000D03*
X109982000Y-55688000D03*
X111252000Y-55688000D03*
X111252000Y-50738000D03*
X109982000Y-50738000D03*
X108712000Y-50738000D03*
X107442000Y-50738000D03*
X97282000Y-55688000D03*
X98552000Y-55688000D03*
X99822000Y-55688000D03*
X101092000Y-55688000D03*
X101092000Y-50738000D03*
X99822000Y-50738000D03*
X98552000Y-50738000D03*
X97282000Y-50738000D03*
D30*
X101600000Y-123825000D03*
D31*
X101600000Y-126365000D03*
X99060000Y-123825000D03*
X99060000Y-126365000D03*
X96520000Y-123825000D03*
X96520000Y-126365000D03*
X93980000Y-123825000D03*
X93980000Y-126365000D03*
X91440000Y-123825000D03*
X91440000Y-126365000D03*
X88900000Y-123825000D03*
X88900000Y-126365000D03*
X86360000Y-123825000D03*
X86360000Y-126365000D03*
X83820000Y-123825000D03*
X83820000Y-126365000D03*
X81280000Y-123825000D03*
X81280000Y-126365000D03*
X78740000Y-123825000D03*
X78740000Y-126365000D03*
X76200000Y-123825000D03*
X76200000Y-126365000D03*
X73660000Y-123825000D03*
X73660000Y-126365000D03*
X71120000Y-123825000D03*
X71120000Y-126365000D03*
D32*
X66007000Y-87106000D03*
X71407000Y-87106000D03*
D33*
X127199000Y-81990000D03*
X127199000Y-88190000D03*
X123499000Y-81990000D03*
X123499000Y-88190000D03*
D16*
X117332000Y-57912000D03*
X115332000Y-57912000D03*
D34*
X61205000Y-126619000D03*
X63255000Y-126619000D03*
D20*
X121555000Y-76454000D03*
X123555000Y-76454000D03*
D19*
X127517000Y-72771000D03*
X125467000Y-72771000D03*
D35*
X99441000Y-58779500D03*
X99441000Y-60854500D03*
D15*
X56515000Y-51033000D03*
X56515000Y-55483000D03*
D16*
X117332000Y-60452000D03*
X115332000Y-60452000D03*
D20*
X123333000Y-90805000D03*
X125333000Y-90805000D03*
D36*
X56836000Y-122244000D03*
D37*
X53086000Y-120904000D03*
D38*
X55586000Y-120904000D03*
X58086000Y-120904000D03*
X60586000Y-120904000D03*
D33*
X127072000Y-117019000D03*
X127072000Y-110819000D03*
X123372000Y-110819000D03*
X123372000Y-117019000D03*
D39*
X99036000Y-39241000D03*
D40*
X97536000Y-43561000D03*
D41*
X100536000Y-43561000D03*
X97536000Y-46561000D03*
X100536000Y-46561000D03*
D20*
X123317000Y-105537000D03*
X125317000Y-105537000D03*
D16*
X69580000Y-102362000D03*
X67580000Y-102362000D03*
D24*
X56388000Y-59803500D03*
X56388000Y-64878500D03*
D16*
X117205000Y-52832000D03*
X115205000Y-52832000D03*
D36*
X113792000Y-122338000D03*
D37*
X110042000Y-120998000D03*
D38*
X112542000Y-120998000D03*
X115042000Y-120998000D03*
X117542000Y-120998000D03*
D32*
X66421000Y-57261000D03*
X71821000Y-57261000D03*
D35*
X109474000Y-59160500D03*
X109474000Y-61235500D03*
D19*
X125358000Y-48768000D03*
X123308000Y-48768000D03*
D20*
X121555000Y-69088000D03*
X123555000Y-69088000D03*
D42*
X54760000Y-68950000D03*
D43*
X57300000Y-68950000D03*
X54760000Y-71490000D03*
X57300000Y-71490000D03*
X54760000Y-74030000D03*
X57300000Y-74030000D03*
X54760000Y-76570000D03*
X57300000Y-76570000D03*
X54760000Y-79110000D03*
X57300000Y-79110000D03*
X54760000Y-81650000D03*
X57300000Y-81650000D03*
X54760000Y-84190000D03*
X57300000Y-84190000D03*
X54760000Y-86730000D03*
X57300000Y-86730000D03*
X54760000Y-89270000D03*
X57300000Y-89270000D03*
X54760000Y-91810000D03*
X57300000Y-91810000D03*
X54760000Y-94350000D03*
X57300000Y-94350000D03*
X54760000Y-96890000D03*
X57300000Y-96890000D03*
X54760000Y-99430000D03*
X57300000Y-99430000D03*
X54760000Y-101970000D03*
X57300000Y-101970000D03*
X54760000Y-104510000D03*
X57300000Y-104510000D03*
X54760000Y-107050000D03*
X57300000Y-107050000D03*
X54760000Y-109590000D03*
X57300000Y-109590000D03*
X54760000Y-112130000D03*
X57300000Y-112130000D03*
X54760000Y-114670000D03*
X57300000Y-114670000D03*
D42*
X115720000Y-68950000D03*
D43*
X118260000Y-68950000D03*
X115720000Y-71490000D03*
X118260000Y-71490000D03*
X115720000Y-74030000D03*
X118260000Y-74030000D03*
X115720000Y-76570000D03*
X118260000Y-76570000D03*
X115720000Y-79110000D03*
X118260000Y-79110000D03*
X115720000Y-81650000D03*
X118260000Y-81650000D03*
X115720000Y-84190000D03*
X118260000Y-84190000D03*
X115720000Y-86730000D03*
X118260000Y-86730000D03*
X115720000Y-89270000D03*
X118260000Y-89270000D03*
X115720000Y-91810000D03*
X118260000Y-91810000D03*
X115720000Y-94350000D03*
X118260000Y-94350000D03*
X115720000Y-96890000D03*
X118260000Y-96890000D03*
X115720000Y-99430000D03*
X118260000Y-99430000D03*
X115720000Y-101970000D03*
X118260000Y-101970000D03*
X115720000Y-104510000D03*
X118260000Y-104510000D03*
X115720000Y-107050000D03*
X118260000Y-107050000D03*
X115720000Y-109590000D03*
X118260000Y-109590000D03*
X115720000Y-112130000D03*
X118260000Y-112130000D03*
X115720000Y-114670000D03*
X118260000Y-114670000D03*
D33*
X127072000Y-102922000D03*
X127072000Y-96722000D03*
X123372000Y-96722000D03*
X123372000Y-102922000D03*
D20*
X121555000Y-72771000D03*
X123555000Y-72771000D03*
D44*
X127889000Y-60452000D03*
D45*
X127889000Y-57912000D03*
X127889000Y-55372000D03*
X127889000Y-52832000D03*
X120269000Y-52832000D03*
X120269000Y-55372000D03*
X120269000Y-57912000D03*
X120269000Y-60452000D03*
D39*
X110744000Y-39159000D03*
D40*
X109244000Y-43479000D03*
D41*
X112244000Y-43479000D03*
X109244000Y-46479000D03*
X112244000Y-46479000D03*
D19*
X125358000Y-64643000D03*
X123308000Y-64643000D03*
M02*
