M48
; DRILL file {KiCad 6.0.4-6f826c9f35~116~ubuntu18.04.1} date Wed Apr 20 12:01:07 2022
; FORMAT={-:-/ absolute / metric / decimal}
; #@! TF.CreationDate,2022-04-20T12:01:07+08:00
; #@! TF.GenerationSoftware,Kicad,Pcbnew,6.0.4-6f826c9f35~116~ubuntu18.04.1
; #@! TF.FileFunction,Plated,1,2,PTH
FMAT,2
METRIC
; #@! TA.AperFunction,Plated,PTH,ViaDrill
T1C0.400
; #@! TA.AperFunction,Plated,PTH,ViaDrill
T2C0.500
; #@! TA.AperFunction,Plated,PTH,ComponentDrill
T3C0.800
; #@! TA.AperFunction,Plated,PTH,ComponentDrill
T4C1.000
; #@! TA.AperFunction,Plated,PTH,ComponentDrill
T5C1.020
; #@! TA.AperFunction,Plated,PTH,ComponentDrill
T6C1.200
; #@! TA.AperFunction,Plated,PTH,ViaDrill
T7C2.600
; #@! TA.AperFunction,Plated,PTH,ComponentDrill
T8C2.750
%
G90
G05
T1
X46.99Y-105.41
X46.99Y-109.22
X46.99Y-113.03
X46.99Y-116.84
X46.99Y-120.65
X58.42Y-127.0
X59.69Y-46.99
X59.69Y-50.8
X60.96Y-58.42
X60.96Y-74.93
X60.96Y-78.74
X60.96Y-86.36
X63.5Y-74.93
X63.5Y-78.74
X63.5Y-78.74
X64.77Y-100.33
X64.77Y-124.46
X67.31Y-66.04
X69.85Y-81.28
X71.12Y-66.04
X71.12Y-105.41
X72.39Y-76.2
X72.39Y-78.74
X76.2Y-57.15
X76.2Y-57.15
X76.2Y-105.41
X77.343Y-122.047
X86.36Y-90.17
X86.36Y-93.98
X86.995Y-50.8
X86.995Y-54.61
X91.186Y-38.1
X91.186Y-41.91
X91.186Y-46.99
X91.186Y-50.8
X91.186Y-54.61
X92.71Y-38.1
X92.71Y-41.91
X95.25Y-46.99
X97.79Y-78.74
X102.87Y-50.8
X102.87Y-54.61
X104.14Y-59.69
X104.14Y-64.77
X105.283Y-116.967
X105.41Y-50.8
X105.41Y-54.61
X106.68Y-71.12
X106.68Y-76.2
X107.95Y-124.079
X108.966Y-128.016
X109.347Y-129.159
X111.76Y-66.294
X111.76Y-71.12
X111.76Y-76.2
X112.522Y-57.289
X113.157Y-109.728
X113.157Y-113.919
X113.665Y-52.832
X113.792Y-59.944
X116.84Y-38.1
X116.84Y-41.91
X117.094Y-48.133
X119.253Y-125.984
X119.38Y-38.1
X119.38Y-41.91
X120.269Y-116.84
X121.285Y-113.284
X121.412Y-102.997
X121.666Y-123.444
X123.19Y-58.42
X123.19Y-60.96
X124.46Y-70.866
X124.587Y-74.676
X125.476Y-121.285
X127.0Y-91.313
X127.0Y-105.537
X127.508Y-93.726
X127.762Y-107.95
X127.762Y-123.317
X127.889Y-78.994
X128.016Y-48.895
X128.27Y-67.31
X128.27Y-67.31
X128.27Y-70.866
X128.27Y-74.676
T2
X75.946Y-89.027
X97.282Y-59.563
X98.425Y-57.531
X101.092Y-64.77
X107.442Y-58.166
X108.712Y-52.832
X108.712Y-57.658
X111.252Y-57.785
T3
X120.269Y-52.832
X120.269Y-55.372
X120.269Y-57.912
X120.269Y-60.452
X127.889Y-52.832
X127.889Y-55.372
X127.889Y-57.912
X127.889Y-60.452
T4
X71.12Y-123.825
X71.12Y-126.365
X73.66Y-123.825
X73.66Y-126.365
X76.2Y-123.825
X76.2Y-126.365
X78.74Y-123.825
X78.74Y-126.365
X81.28Y-123.825
X81.28Y-126.365
X83.82Y-123.825
X83.82Y-126.365
X86.36Y-123.825
X86.36Y-126.365
X88.9Y-123.825
X88.9Y-126.365
X91.44Y-123.825
X91.44Y-126.365
X93.98Y-123.825
X93.98Y-126.365
X96.52Y-123.825
X96.52Y-126.365
X99.06Y-123.825
X99.06Y-126.365
X101.6Y-123.825
X101.6Y-126.365
T5
X54.76Y-68.95
X54.76Y-71.49
X54.76Y-74.03
X54.76Y-76.57
X54.76Y-79.11
X54.76Y-81.65
X54.76Y-84.19
X54.76Y-86.73
X54.76Y-89.27
X54.76Y-91.81
X54.76Y-94.35
X54.76Y-96.89
X54.76Y-99.43
X54.76Y-101.97
X54.76Y-104.51
X54.76Y-107.05
X54.76Y-109.59
X54.76Y-112.13
X54.76Y-114.67
X57.3Y-68.95
X57.3Y-71.49
X57.3Y-74.03
X57.3Y-76.57
X57.3Y-79.11
X57.3Y-81.65
X57.3Y-84.19
X57.3Y-86.73
X57.3Y-89.27
X57.3Y-91.81
X57.3Y-94.35
X57.3Y-96.89
X57.3Y-99.43
X57.3Y-101.97
X57.3Y-104.51
X57.3Y-107.05
X57.3Y-109.59
X57.3Y-112.13
X57.3Y-114.67
X97.536Y-43.561
X97.536Y-46.561
X100.536Y-43.561
X100.536Y-46.561
X109.244Y-43.479
X109.244Y-46.479
X112.244Y-43.479
X112.244Y-46.479
X115.72Y-68.95
X115.72Y-71.49
X115.72Y-74.03
X115.72Y-76.57
X115.72Y-79.11
X115.72Y-81.65
X115.72Y-84.19
X115.72Y-86.73
X115.72Y-89.27
X115.72Y-91.81
X115.72Y-94.35
X115.72Y-96.89
X115.72Y-99.43
X115.72Y-101.97
X115.72Y-104.51
X115.72Y-107.05
X115.72Y-109.59
X115.72Y-112.13
X115.72Y-114.67
X118.26Y-68.95
X118.26Y-71.49
X118.26Y-74.03
X118.26Y-76.57
X118.26Y-79.11
X118.26Y-81.65
X118.26Y-84.19
X118.26Y-86.73
X118.26Y-89.27
X118.26Y-91.81
X118.26Y-94.35
X118.26Y-96.89
X118.26Y-99.43
X118.26Y-101.97
X118.26Y-104.51
X118.26Y-107.05
X118.26Y-109.59
X118.26Y-112.13
X118.26Y-114.67
T6
X53.086Y-120.904
X55.586Y-120.904
X58.086Y-120.904
X60.586Y-120.904
X110.042Y-120.998
X112.542Y-120.998
X115.042Y-120.998
X117.542Y-120.998
T7
X47.244Y-128.143
X47.371Y-36.941
X126.492Y-36.957
X126.492Y-128.143
T8
X65.415Y-50.801
X72.615Y-50.801
T4
X81.093Y-44.021G85X81.093Y-46.021
G05
X86.793Y-42.021G85X84.793Y-42.021
G05
X86.793Y-48.021G85X84.793Y-48.021
G05
T0
M30
