G04 #@! TF.GenerationSoftware,KiCad,Pcbnew,6.0.2-378541a8eb~116~ubuntu18.04.1*
G04 #@! TF.CreationDate,2022-02-21T15:42:04+08:00*
G04 #@! TF.ProjectId,XT60_CAN,58543630-5f43-4414-9e2e-6b696361645f,rev?*
G04 #@! TF.SameCoordinates,Original*
G04 #@! TF.FileFunction,Legend,Top*
G04 #@! TF.FilePolarity,Positive*
%FSLAX46Y46*%
G04 Gerber Fmt 4.6, Leading zero omitted, Abs format (unit mm)*
G04 Created by KiCad (PCBNEW 6.0.2-378541a8eb~116~ubuntu18.04.1) date 2022-02-21 15:42:04*
%MOMM*%
%LPD*%
G01*
G04 APERTURE LIST*
G04 Aperture macros list*
%AMRoundRect*
0 Rectangle with rounded corners*
0 $1 Rounding radius*
0 $2 $3 $4 $5 $6 $7 $8 $9 X,Y pos of 4 corners*
0 Add a 4 corners polygon primitive as box body*
4,1,4,$2,$3,$4,$5,$6,$7,$8,$9,$2,$3,0*
0 Add four circle primitives for the rounded corners*
1,1,$1+$1,$2,$3*
1,1,$1+$1,$4,$5*
1,1,$1+$1,$6,$7*
1,1,$1+$1,$8,$9*
0 Add four rect primitives between the rounded corners*
20,1,$1+$1,$2,$3,$4,$5,0*
20,1,$1+$1,$4,$5,$6,$7,0*
20,1,$1+$1,$6,$7,$8,$9,0*
20,1,$1+$1,$8,$9,$2,$3,0*%
G04 Aperture macros list end*
%ADD10C,0.150000*%
%ADD11C,0.120000*%
%ADD12C,0.127000*%
%ADD13C,0.500000*%
%ADD14RoundRect,0.250000X-0.550000X1.412500X-0.550000X-1.412500X0.550000X-1.412500X0.550000X1.412500X0*%
%ADD15RoundRect,0.250000X0.550000X-1.412500X0.550000X1.412500X-0.550000X1.412500X-0.550000X-1.412500X0*%
%ADD16RoundRect,0.250000X-1.412500X-0.550000X1.412500X-0.550000X1.412500X0.550000X-1.412500X0.550000X0*%
%ADD17R,1.308000X4.500000*%
%ADD18R,2.500000X2.300000*%
%ADD19R,2.300000X2.500000*%
%ADD20R,1.980000X3.960000*%
%ADD21O,1.980000X3.960000*%
%ADD22RoundRect,0.250000X-0.450000X0.325000X-0.450000X-0.325000X0.450000X-0.325000X0.450000X0.325000X0*%
%ADD23RoundRect,1.500000X1.500000X-1.500000X1.500000X1.500000X-1.500000X1.500000X-1.500000X-1.500000X0*%
%ADD24C,6.000000*%
%ADD25C,2.400000*%
%ADD26RoundRect,0.250000X0.450000X-0.350000X0.450000X0.350000X-0.450000X0.350000X-0.450000X-0.350000X0*%
%ADD27RoundRect,0.250000X-1.137500X-0.550000X1.137500X-0.550000X1.137500X0.550000X-1.137500X0.550000X0*%
G04 APERTURE END LIST*
D10*
X173752285Y-74366380D02*
X173180857Y-74366380D01*
X173466571Y-74366380D02*
X173466571Y-73366380D01*
X173371333Y-73509238D01*
X173276095Y-73604476D01*
X173180857Y-73652095D01*
X174133238Y-73461619D02*
X174180857Y-73414000D01*
X174276095Y-73366380D01*
X174514190Y-73366380D01*
X174609428Y-73414000D01*
X174657047Y-73461619D01*
X174704666Y-73556857D01*
X174704666Y-73652095D01*
X174657047Y-73794952D01*
X174085619Y-74366380D01*
X174704666Y-74366380D01*
X174990380Y-73366380D02*
X175323714Y-74366380D01*
X175657047Y-73366380D01*
X178799904Y-73414000D02*
X178704666Y-73366380D01*
X178561809Y-73366380D01*
X178418952Y-73414000D01*
X178323714Y-73509238D01*
X178276095Y-73604476D01*
X178228476Y-73794952D01*
X178228476Y-73937809D01*
X178276095Y-74128285D01*
X178323714Y-74223523D01*
X178418952Y-74318761D01*
X178561809Y-74366380D01*
X178657047Y-74366380D01*
X178799904Y-74318761D01*
X178847523Y-74271142D01*
X178847523Y-73937809D01*
X178657047Y-73937809D01*
X179276095Y-74366380D02*
X179276095Y-73366380D01*
X179847523Y-74366380D01*
X179847523Y-73366380D01*
X180323714Y-74366380D02*
X180323714Y-73366380D01*
X180561809Y-73366380D01*
X180704666Y-73414000D01*
X180799904Y-73509238D01*
X180847523Y-73604476D01*
X180895142Y-73794952D01*
X180895142Y-73937809D01*
X180847523Y-74128285D01*
X180799904Y-74223523D01*
X180704666Y-74318761D01*
X180561809Y-74366380D01*
X180323714Y-74366380D01*
X161560285Y-74366380D02*
X161750761Y-74366380D01*
X161846000Y-74318761D01*
X161893619Y-74271142D01*
X161988857Y-74128285D01*
X162036476Y-73937809D01*
X162036476Y-73556857D01*
X161988857Y-73461619D01*
X161941238Y-73414000D01*
X161846000Y-73366380D01*
X161655523Y-73366380D01*
X161560285Y-73414000D01*
X161512666Y-73461619D01*
X161465047Y-73556857D01*
X161465047Y-73794952D01*
X161512666Y-73890190D01*
X161560285Y-73937809D01*
X161655523Y-73985428D01*
X161846000Y-73985428D01*
X161941238Y-73937809D01*
X161988857Y-73890190D01*
X162036476Y-73794952D01*
X162322190Y-73366380D02*
X162655523Y-74366380D01*
X162988857Y-73366380D01*
X166131714Y-73414000D02*
X166036476Y-73366380D01*
X165893619Y-73366380D01*
X165750761Y-73414000D01*
X165655523Y-73509238D01*
X165607904Y-73604476D01*
X165560285Y-73794952D01*
X165560285Y-73937809D01*
X165607904Y-74128285D01*
X165655523Y-74223523D01*
X165750761Y-74318761D01*
X165893619Y-74366380D01*
X165988857Y-74366380D01*
X166131714Y-74318761D01*
X166179333Y-74271142D01*
X166179333Y-73937809D01*
X165988857Y-73937809D01*
X166607904Y-74366380D02*
X166607904Y-73366380D01*
X167179333Y-74366380D01*
X167179333Y-73366380D01*
X167655523Y-74366380D02*
X167655523Y-73366380D01*
X167893619Y-73366380D01*
X168036476Y-73414000D01*
X168131714Y-73509238D01*
X168179333Y-73604476D01*
X168226952Y-73794952D01*
X168226952Y-73937809D01*
X168179333Y-74128285D01*
X168131714Y-74223523D01*
X168036476Y-74318761D01*
X167893619Y-74366380D01*
X167655523Y-74366380D01*
X141506261Y-67753630D02*
X140934833Y-67753630D01*
X141220547Y-67753630D02*
X141220547Y-66753630D01*
X141125309Y-66896488D01*
X141030071Y-66991726D01*
X140934833Y-67039345D01*
X142125309Y-66753630D02*
X142220547Y-66753630D01*
X142315785Y-66801250D01*
X142363404Y-66848869D01*
X142411023Y-66944107D01*
X142458642Y-67134583D01*
X142458642Y-67372678D01*
X142411023Y-67563154D01*
X142363404Y-67658392D01*
X142315785Y-67706011D01*
X142220547Y-67753630D01*
X142125309Y-67753630D01*
X142030071Y-67706011D01*
X141982452Y-67658392D01*
X141934833Y-67563154D01*
X141887214Y-67372678D01*
X141887214Y-67134583D01*
X141934833Y-66944107D01*
X141982452Y-66848869D01*
X142030071Y-66801250D01*
X142125309Y-66753630D01*
X142887214Y-67753630D02*
X142887214Y-66753630D01*
X142982452Y-67372678D02*
X143268166Y-67753630D01*
X143268166Y-67086964D02*
X142887214Y-67467916D01*
X175996166Y-63809619D02*
X176043785Y-63762000D01*
X176139023Y-63714380D01*
X176377119Y-63714380D01*
X176472357Y-63762000D01*
X176519976Y-63809619D01*
X176567595Y-63904857D01*
X176567595Y-64000095D01*
X176519976Y-64142952D01*
X175948547Y-64714380D01*
X176567595Y-64714380D01*
X177472357Y-63714380D02*
X176996166Y-63714380D01*
X176948547Y-64190571D01*
X176996166Y-64142952D01*
X177091404Y-64095333D01*
X177329500Y-64095333D01*
X177424738Y-64142952D01*
X177472357Y-64190571D01*
X177519976Y-64285809D01*
X177519976Y-64523904D01*
X177472357Y-64619142D01*
X177424738Y-64666761D01*
X177329500Y-64714380D01*
X177091404Y-64714380D01*
X176996166Y-64666761D01*
X176948547Y-64619142D01*
X177853309Y-64047714D02*
X178091404Y-64714380D01*
X178329500Y-64047714D01*
X179996166Y-64714380D02*
X179424738Y-64714380D01*
X179710452Y-64714380D02*
X179710452Y-63714380D01*
X179615214Y-63857238D01*
X179519976Y-63952476D01*
X179424738Y-64000095D01*
X180615214Y-63714380D02*
X180710452Y-63714380D01*
X180805690Y-63762000D01*
X180853309Y-63809619D01*
X180900928Y-63904857D01*
X180948547Y-64095333D01*
X180948547Y-64333428D01*
X180900928Y-64523904D01*
X180853309Y-64619142D01*
X180805690Y-64666761D01*
X180710452Y-64714380D01*
X180615214Y-64714380D01*
X180519976Y-64666761D01*
X180472357Y-64619142D01*
X180424738Y-64523904D01*
X180377119Y-64333428D01*
X180377119Y-64095333D01*
X180424738Y-63904857D01*
X180472357Y-63809619D01*
X180519976Y-63762000D01*
X180615214Y-63714380D01*
X181567595Y-63714380D02*
X181662833Y-63714380D01*
X181758071Y-63762000D01*
X181805690Y-63809619D01*
X181853309Y-63904857D01*
X181900928Y-64095333D01*
X181900928Y-64333428D01*
X181853309Y-64523904D01*
X181805690Y-64619142D01*
X181758071Y-64666761D01*
X181662833Y-64714380D01*
X181567595Y-64714380D01*
X181472357Y-64666761D01*
X181424738Y-64619142D01*
X181377119Y-64523904D01*
X181329500Y-64333428D01*
X181329500Y-64095333D01*
X181377119Y-63904857D01*
X181424738Y-63809619D01*
X181472357Y-63762000D01*
X181567595Y-63714380D01*
X182758071Y-64047714D02*
X182758071Y-64714380D01*
X182329500Y-64047714D02*
X182329500Y-64571523D01*
X182377119Y-64666761D01*
X182472357Y-64714380D01*
X182615214Y-64714380D01*
X182710452Y-64666761D01*
X182758071Y-64619142D01*
X183567595Y-64190571D02*
X183234261Y-64190571D01*
X183234261Y-64714380D02*
X183234261Y-63714380D01*
X183710452Y-63714380D01*
X113530380Y-45426380D02*
X113054190Y-45426380D01*
X113006571Y-45902571D01*
X113054190Y-45854952D01*
X113149428Y-45807333D01*
X113387523Y-45807333D01*
X113482761Y-45854952D01*
X113530380Y-45902571D01*
X113578000Y-45997809D01*
X113578000Y-46235904D01*
X113530380Y-46331142D01*
X113482761Y-46378761D01*
X113387523Y-46426380D01*
X113149428Y-46426380D01*
X113054190Y-46378761D01*
X113006571Y-46331142D01*
X113863714Y-45426380D02*
X114197047Y-46426380D01*
X114530380Y-45426380D01*
X115958952Y-45902571D02*
X115625619Y-45902571D01*
X115625619Y-46426380D02*
X115625619Y-45426380D01*
X116101809Y-45426380D01*
X116911333Y-45759714D02*
X116911333Y-46426380D01*
X116482761Y-45759714D02*
X116482761Y-46283523D01*
X116530380Y-46378761D01*
X116625619Y-46426380D01*
X116768476Y-46426380D01*
X116863714Y-46378761D01*
X116911333Y-46331142D01*
X117530380Y-46426380D02*
X117435142Y-46378761D01*
X117387523Y-46283523D01*
X117387523Y-45426380D01*
X117863714Y-46378761D02*
X117958952Y-46426380D01*
X118149428Y-46426380D01*
X118244666Y-46378761D01*
X118292285Y-46283523D01*
X118292285Y-46235904D01*
X118244666Y-46140666D01*
X118149428Y-46093047D01*
X118006571Y-46093047D01*
X117911333Y-46045428D01*
X117863714Y-45950190D01*
X117863714Y-45902571D01*
X117911333Y-45807333D01*
X118006571Y-45759714D01*
X118149428Y-45759714D01*
X118244666Y-45807333D01*
X119101809Y-46378761D02*
X119006571Y-46426380D01*
X118816095Y-46426380D01*
X118720857Y-46378761D01*
X118673238Y-46283523D01*
X118673238Y-45902571D01*
X118720857Y-45807333D01*
X118816095Y-45759714D01*
X119006571Y-45759714D01*
X119101809Y-45807333D01*
X119149428Y-45902571D01*
X119149428Y-45997809D01*
X118673238Y-46093047D01*
X62153547Y-42854571D02*
X62296404Y-42902190D01*
X62344023Y-42949809D01*
X62391642Y-43045047D01*
X62391642Y-43187904D01*
X62344023Y-43283142D01*
X62296404Y-43330761D01*
X62201166Y-43378380D01*
X61820214Y-43378380D01*
X61820214Y-42378380D01*
X62153547Y-42378380D01*
X62248785Y-42426000D01*
X62296404Y-42473619D01*
X62344023Y-42568857D01*
X62344023Y-42664095D01*
X62296404Y-42759333D01*
X62248785Y-42806952D01*
X62153547Y-42854571D01*
X61820214Y-42854571D01*
X62772595Y-43092666D02*
X63248785Y-43092666D01*
X62677357Y-43378380D02*
X63010690Y-42378380D01*
X63344023Y-43378380D01*
X63534500Y-42378380D02*
X64105928Y-42378380D01*
X63820214Y-43378380D02*
X63820214Y-42378380D01*
X64296404Y-42378380D02*
X64867833Y-42378380D01*
X64582119Y-43378380D02*
X64582119Y-42378380D01*
X65963071Y-43378380D02*
X65963071Y-42711714D01*
X65963071Y-42378380D02*
X65915452Y-42426000D01*
X65963071Y-42473619D01*
X66010690Y-42426000D01*
X65963071Y-42378380D01*
X65963071Y-42473619D01*
X66439261Y-42711714D02*
X66439261Y-43378380D01*
X66439261Y-42806952D02*
X66486880Y-42759333D01*
X66582119Y-42711714D01*
X66724976Y-42711714D01*
X66820214Y-42759333D01*
X66867833Y-42854571D01*
X66867833Y-43378380D01*
X67344023Y-42711714D02*
X67344023Y-43711714D01*
X67344023Y-42759333D02*
X67439261Y-42711714D01*
X67629738Y-42711714D01*
X67724976Y-42759333D01*
X67772595Y-42806952D01*
X67820214Y-42902190D01*
X67820214Y-43187904D01*
X67772595Y-43283142D01*
X67724976Y-43330761D01*
X67629738Y-43378380D01*
X67439261Y-43378380D01*
X67344023Y-43330761D01*
X68677357Y-42711714D02*
X68677357Y-43378380D01*
X68248785Y-42711714D02*
X68248785Y-43235523D01*
X68296404Y-43330761D01*
X68391642Y-43378380D01*
X68534500Y-43378380D01*
X68629738Y-43330761D01*
X68677357Y-43283142D01*
X69010690Y-42711714D02*
X69391642Y-42711714D01*
X69153547Y-42378380D02*
X69153547Y-43235523D01*
X69201166Y-43330761D01*
X69296404Y-43378380D01*
X69391642Y-43378380D01*
X83018380Y-43012952D02*
X83018380Y-43489142D01*
X83494571Y-43536761D01*
X83446952Y-43489142D01*
X83399333Y-43393904D01*
X83399333Y-43155809D01*
X83446952Y-43060571D01*
X83494571Y-43012952D01*
X83589809Y-42965333D01*
X83827904Y-42965333D01*
X83923142Y-43012952D01*
X83970761Y-43060571D01*
X84018380Y-43155809D01*
X84018380Y-43393904D01*
X83970761Y-43489142D01*
X83923142Y-43536761D01*
X83018380Y-42346285D02*
X83018380Y-42251047D01*
X83066000Y-42155809D01*
X83113619Y-42108190D01*
X83208857Y-42060571D01*
X83399333Y-42012952D01*
X83637428Y-42012952D01*
X83827904Y-42060571D01*
X83923142Y-42108190D01*
X83970761Y-42155809D01*
X84018380Y-42251047D01*
X84018380Y-42346285D01*
X83970761Y-42441523D01*
X83923142Y-42489142D01*
X83827904Y-42536761D01*
X83637428Y-42584380D01*
X83399333Y-42584380D01*
X83208857Y-42536761D01*
X83113619Y-42489142D01*
X83066000Y-42441523D01*
X83018380Y-42346285D01*
X83018380Y-41727238D02*
X84018380Y-41393904D01*
X83018380Y-41060571D01*
X83351714Y-39536761D02*
X84018380Y-39536761D01*
X82970761Y-39774857D02*
X83685047Y-40012952D01*
X83685047Y-39393904D01*
X83018380Y-39108190D02*
X83018380Y-38441523D01*
X84018380Y-38870095D01*
X83351714Y-37632000D02*
X84018380Y-37632000D01*
X83351714Y-38060571D02*
X83875523Y-38060571D01*
X83970761Y-38012952D01*
X84018380Y-37917714D01*
X84018380Y-37774857D01*
X83970761Y-37679619D01*
X83923142Y-37632000D01*
X83494571Y-36822476D02*
X83494571Y-37155809D01*
X84018380Y-37155809D02*
X83018380Y-37155809D01*
X83018380Y-36679619D01*
X152827595Y-64968380D02*
X152256166Y-64968380D01*
X152541880Y-64968380D02*
X152541880Y-63968380D01*
X152446642Y-64111238D01*
X152351404Y-64206476D01*
X152256166Y-64254095D01*
X153684738Y-63968380D02*
X153494261Y-63968380D01*
X153399023Y-64016000D01*
X153351404Y-64063619D01*
X153256166Y-64206476D01*
X153208547Y-64396952D01*
X153208547Y-64777904D01*
X153256166Y-64873142D01*
X153303785Y-64920761D01*
X153399023Y-64968380D01*
X153589500Y-64968380D01*
X153684738Y-64920761D01*
X153732357Y-64873142D01*
X153779976Y-64777904D01*
X153779976Y-64539809D01*
X153732357Y-64444571D01*
X153684738Y-64396952D01*
X153589500Y-64349333D01*
X153399023Y-64349333D01*
X153303785Y-64396952D01*
X153256166Y-64444571D01*
X153208547Y-64539809D01*
X154113309Y-64301714D02*
X154351404Y-64968380D01*
X154589500Y-64301714D01*
X155684738Y-64063619D02*
X155732357Y-64016000D01*
X155827595Y-63968380D01*
X156065690Y-63968380D01*
X156160928Y-64016000D01*
X156208547Y-64063619D01*
X156256166Y-64158857D01*
X156256166Y-64254095D01*
X156208547Y-64396952D01*
X155637119Y-64968380D01*
X156256166Y-64968380D01*
X156637119Y-64063619D02*
X156684738Y-64016000D01*
X156779976Y-63968380D01*
X157018071Y-63968380D01*
X157113309Y-64016000D01*
X157160928Y-64063619D01*
X157208547Y-64158857D01*
X157208547Y-64254095D01*
X157160928Y-64396952D01*
X156589500Y-64968380D01*
X157208547Y-64968380D01*
X157827595Y-63968380D02*
X157922833Y-63968380D01*
X158018071Y-64016000D01*
X158065690Y-64063619D01*
X158113309Y-64158857D01*
X158160928Y-64349333D01*
X158160928Y-64587428D01*
X158113309Y-64777904D01*
X158065690Y-64873142D01*
X158018071Y-64920761D01*
X157922833Y-64968380D01*
X157827595Y-64968380D01*
X157732357Y-64920761D01*
X157684738Y-64873142D01*
X157637119Y-64777904D01*
X157589500Y-64587428D01*
X157589500Y-64349333D01*
X157637119Y-64158857D01*
X157684738Y-64063619D01*
X157732357Y-64016000D01*
X157827595Y-63968380D01*
X159018071Y-64301714D02*
X159018071Y-64968380D01*
X158589500Y-64301714D02*
X158589500Y-64825523D01*
X158637119Y-64920761D01*
X158732357Y-64968380D01*
X158875214Y-64968380D01*
X158970452Y-64920761D01*
X159018071Y-64873142D01*
X159827595Y-64444571D02*
X159494261Y-64444571D01*
X159494261Y-64968380D02*
X159494261Y-63968380D01*
X159970452Y-63968380D01*
X150336666Y-30144619D02*
X150384285Y-30097000D01*
X150479523Y-30049380D01*
X150717619Y-30049380D01*
X150812857Y-30097000D01*
X150860476Y-30144619D01*
X150908095Y-30239857D01*
X150908095Y-30335095D01*
X150860476Y-30477952D01*
X150289047Y-31049380D01*
X150908095Y-31049380D01*
X151765238Y-30382714D02*
X151765238Y-31049380D01*
X151527142Y-30001761D02*
X151289047Y-30716047D01*
X151908095Y-30716047D01*
X152146190Y-30049380D02*
X152479523Y-31049380D01*
X152812857Y-30049380D01*
X153146190Y-30668428D02*
X153908095Y-30668428D01*
X154384285Y-30382714D02*
X155146190Y-30668428D01*
X154384285Y-30954142D01*
X155670000Y-31049380D02*
X155860476Y-31049380D01*
X155955714Y-31001761D01*
X156003333Y-30954142D01*
X156098571Y-30811285D01*
X156146190Y-30620809D01*
X156146190Y-30239857D01*
X156098571Y-30144619D01*
X156050952Y-30097000D01*
X155955714Y-30049380D01*
X155765238Y-30049380D01*
X155670000Y-30097000D01*
X155622380Y-30144619D01*
X155574761Y-30239857D01*
X155574761Y-30477952D01*
X155622380Y-30573190D01*
X155670000Y-30620809D01*
X155765238Y-30668428D01*
X155955714Y-30668428D01*
X156050952Y-30620809D01*
X156098571Y-30573190D01*
X156146190Y-30477952D01*
X156431904Y-30049380D02*
X156765238Y-31049380D01*
X157098571Y-30049380D01*
X176210452Y-58062761D02*
X176353309Y-58110380D01*
X176591404Y-58110380D01*
X176686642Y-58062761D01*
X176734261Y-58015142D01*
X176781880Y-57919904D01*
X176781880Y-57824666D01*
X176734261Y-57729428D01*
X176686642Y-57681809D01*
X176591404Y-57634190D01*
X176400928Y-57586571D01*
X176305690Y-57538952D01*
X176258071Y-57491333D01*
X176210452Y-57396095D01*
X176210452Y-57300857D01*
X176258071Y-57205619D01*
X176305690Y-57158000D01*
X176400928Y-57110380D01*
X176639023Y-57110380D01*
X176781880Y-57158000D01*
X177210452Y-58110380D02*
X177210452Y-57110380D01*
X177543785Y-57824666D01*
X177877119Y-57110380D01*
X177877119Y-58110380D01*
X178686642Y-57586571D02*
X178829500Y-57634190D01*
X178877119Y-57681809D01*
X178924738Y-57777047D01*
X178924738Y-57919904D01*
X178877119Y-58015142D01*
X178829500Y-58062761D01*
X178734261Y-58110380D01*
X178353309Y-58110380D01*
X178353309Y-57110380D01*
X178686642Y-57110380D01*
X178781880Y-57158000D01*
X178829500Y-57205619D01*
X178877119Y-57300857D01*
X178877119Y-57396095D01*
X178829500Y-57491333D01*
X178781880Y-57538952D01*
X178686642Y-57586571D01*
X178353309Y-57586571D01*
X179639023Y-57110380D02*
X179639023Y-57824666D01*
X179591404Y-57967523D01*
X179496166Y-58062761D01*
X179353309Y-58110380D01*
X179258071Y-58110380D01*
X180639023Y-58110380D02*
X180067595Y-58110380D01*
X180353309Y-58110380D02*
X180353309Y-57110380D01*
X180258071Y-57253238D01*
X180162833Y-57348476D01*
X180067595Y-57396095D01*
X181019976Y-57205619D02*
X181067595Y-57158000D01*
X181162833Y-57110380D01*
X181400928Y-57110380D01*
X181496166Y-57158000D01*
X181543785Y-57205619D01*
X181591404Y-57300857D01*
X181591404Y-57396095D01*
X181543785Y-57538952D01*
X180972357Y-58110380D01*
X181591404Y-58110380D01*
X182591404Y-58015142D02*
X182543785Y-58062761D01*
X182400928Y-58110380D01*
X182305690Y-58110380D01*
X182162833Y-58062761D01*
X182067595Y-57967523D01*
X182019976Y-57872285D01*
X181972357Y-57681809D01*
X181972357Y-57538952D01*
X182019976Y-57348476D01*
X182067595Y-57253238D01*
X182162833Y-57158000D01*
X182305690Y-57110380D01*
X182400928Y-57110380D01*
X182543785Y-57158000D01*
X182591404Y-57205619D01*
X182972357Y-57824666D02*
X183448547Y-57824666D01*
X182877119Y-58110380D02*
X183210452Y-57110380D01*
X183543785Y-58110380D01*
X104465809Y-46172380D02*
X104656285Y-46172380D01*
X104751523Y-46124761D01*
X104799142Y-46077142D01*
X104894380Y-45934285D01*
X104942000Y-45743809D01*
X104942000Y-45362857D01*
X104894380Y-45267619D01*
X104846761Y-45220000D01*
X104751523Y-45172380D01*
X104561047Y-45172380D01*
X104465809Y-45220000D01*
X104418190Y-45267619D01*
X104370571Y-45362857D01*
X104370571Y-45600952D01*
X104418190Y-45696190D01*
X104465809Y-45743809D01*
X104561047Y-45791428D01*
X104751523Y-45791428D01*
X104846761Y-45743809D01*
X104894380Y-45696190D01*
X104942000Y-45600952D01*
X105227714Y-45172380D02*
X105561047Y-46172380D01*
X105894380Y-45172380D01*
X107322952Y-45648571D02*
X106989619Y-45648571D01*
X106989619Y-46172380D02*
X106989619Y-45172380D01*
X107465809Y-45172380D01*
X108275333Y-45505714D02*
X108275333Y-46172380D01*
X107846761Y-45505714D02*
X107846761Y-46029523D01*
X107894380Y-46124761D01*
X107989619Y-46172380D01*
X108132476Y-46172380D01*
X108227714Y-46124761D01*
X108275333Y-46077142D01*
X108894380Y-46172380D02*
X108799142Y-46124761D01*
X108751523Y-46029523D01*
X108751523Y-45172380D01*
X109227714Y-46124761D02*
X109322952Y-46172380D01*
X109513428Y-46172380D01*
X109608666Y-46124761D01*
X109656285Y-46029523D01*
X109656285Y-45981904D01*
X109608666Y-45886666D01*
X109513428Y-45839047D01*
X109370571Y-45839047D01*
X109275333Y-45791428D01*
X109227714Y-45696190D01*
X109227714Y-45648571D01*
X109275333Y-45553333D01*
X109370571Y-45505714D01*
X109513428Y-45505714D01*
X109608666Y-45553333D01*
X110465809Y-46124761D02*
X110370571Y-46172380D01*
X110180095Y-46172380D01*
X110084857Y-46124761D01*
X110037238Y-46029523D01*
X110037238Y-45648571D01*
X110084857Y-45553333D01*
X110180095Y-45505714D01*
X110370571Y-45505714D01*
X110465809Y-45553333D01*
X110513428Y-45648571D01*
X110513428Y-45743809D01*
X110037238Y-45839047D01*
X130894166Y-29510869D02*
X130941785Y-29463250D01*
X131037023Y-29415630D01*
X131275119Y-29415630D01*
X131370357Y-29463250D01*
X131417976Y-29510869D01*
X131465595Y-29606107D01*
X131465595Y-29701345D01*
X131417976Y-29844202D01*
X130846547Y-30415630D01*
X131465595Y-30415630D01*
X132322738Y-29748964D02*
X132322738Y-30415630D01*
X132084642Y-29368011D02*
X131846547Y-30082297D01*
X132465595Y-30082297D01*
X132703690Y-29415630D02*
X133037023Y-30415630D01*
X133370357Y-29415630D01*
X133703690Y-30034678D02*
X134465595Y-30034678D01*
X134941785Y-29748964D02*
X135703690Y-30034678D01*
X134941785Y-30320392D01*
X136656071Y-29415630D02*
X136179880Y-29415630D01*
X136132261Y-29891821D01*
X136179880Y-29844202D01*
X136275119Y-29796583D01*
X136513214Y-29796583D01*
X136608452Y-29844202D01*
X136656071Y-29891821D01*
X136703690Y-29987059D01*
X136703690Y-30225154D01*
X136656071Y-30320392D01*
X136608452Y-30368011D01*
X136513214Y-30415630D01*
X136275119Y-30415630D01*
X136179880Y-30368011D01*
X136132261Y-30320392D01*
X136989404Y-29415630D02*
X137322738Y-30415630D01*
X137656071Y-29415630D01*
X94813809Y-46172380D02*
X94242380Y-46172380D01*
X94528095Y-46172380D02*
X94528095Y-45172380D01*
X94432857Y-45315238D01*
X94337619Y-45410476D01*
X94242380Y-45458095D01*
X95194761Y-45267619D02*
X95242380Y-45220000D01*
X95337619Y-45172380D01*
X95575714Y-45172380D01*
X95670952Y-45220000D01*
X95718571Y-45267619D01*
X95766190Y-45362857D01*
X95766190Y-45458095D01*
X95718571Y-45600952D01*
X95147142Y-46172380D01*
X95766190Y-46172380D01*
X96051904Y-45172380D02*
X96385238Y-46172380D01*
X96718571Y-45172380D01*
X98147142Y-45648571D02*
X97813809Y-45648571D01*
X97813809Y-46172380D02*
X97813809Y-45172380D01*
X98290000Y-45172380D01*
X99099523Y-45505714D02*
X99099523Y-46172380D01*
X98670952Y-45505714D02*
X98670952Y-46029523D01*
X98718571Y-46124761D01*
X98813809Y-46172380D01*
X98956666Y-46172380D01*
X99051904Y-46124761D01*
X99099523Y-46077142D01*
X99718571Y-46172380D02*
X99623333Y-46124761D01*
X99575714Y-46029523D01*
X99575714Y-45172380D01*
X100051904Y-46124761D02*
X100147142Y-46172380D01*
X100337619Y-46172380D01*
X100432857Y-46124761D01*
X100480476Y-46029523D01*
X100480476Y-45981904D01*
X100432857Y-45886666D01*
X100337619Y-45839047D01*
X100194761Y-45839047D01*
X100099523Y-45791428D01*
X100051904Y-45696190D01*
X100051904Y-45648571D01*
X100099523Y-45553333D01*
X100194761Y-45505714D01*
X100337619Y-45505714D01*
X100432857Y-45553333D01*
X101290000Y-46124761D02*
X101194761Y-46172380D01*
X101004285Y-46172380D01*
X100909047Y-46124761D01*
X100861428Y-46029523D01*
X100861428Y-45648571D01*
X100909047Y-45553333D01*
X101004285Y-45505714D01*
X101194761Y-45505714D01*
X101290000Y-45553333D01*
X101337619Y-45648571D01*
X101337619Y-45743809D01*
X100861428Y-45839047D01*
X149368285Y-74366380D02*
X149558761Y-74366380D01*
X149654000Y-74318761D01*
X149701619Y-74271142D01*
X149796857Y-74128285D01*
X149844476Y-73937809D01*
X149844476Y-73556857D01*
X149796857Y-73461619D01*
X149749238Y-73414000D01*
X149654000Y-73366380D01*
X149463523Y-73366380D01*
X149368285Y-73414000D01*
X149320666Y-73461619D01*
X149273047Y-73556857D01*
X149273047Y-73794952D01*
X149320666Y-73890190D01*
X149368285Y-73937809D01*
X149463523Y-73985428D01*
X149654000Y-73985428D01*
X149749238Y-73937809D01*
X149796857Y-73890190D01*
X149844476Y-73794952D01*
X150130190Y-73366380D02*
X150463523Y-74366380D01*
X150796857Y-73366380D01*
X153939714Y-73414000D02*
X153844476Y-73366380D01*
X153701619Y-73366380D01*
X153558761Y-73414000D01*
X153463523Y-73509238D01*
X153415904Y-73604476D01*
X153368285Y-73794952D01*
X153368285Y-73937809D01*
X153415904Y-74128285D01*
X153463523Y-74223523D01*
X153558761Y-74318761D01*
X153701619Y-74366380D01*
X153796857Y-74366380D01*
X153939714Y-74318761D01*
X153987333Y-74271142D01*
X153987333Y-73937809D01*
X153796857Y-73937809D01*
X154415904Y-74366380D02*
X154415904Y-73366380D01*
X154987333Y-74366380D01*
X154987333Y-73366380D01*
X155463523Y-74366380D02*
X155463523Y-73366380D01*
X155701619Y-73366380D01*
X155844476Y-73414000D01*
X155939714Y-73509238D01*
X155987333Y-73604476D01*
X156034952Y-73794952D01*
X156034952Y-73937809D01*
X155987333Y-74128285D01*
X155939714Y-74223523D01*
X155844476Y-74318761D01*
X155701619Y-74366380D01*
X155463523Y-74366380D01*
X189793714Y-69259380D02*
X190412761Y-69259380D01*
X190079428Y-69640333D01*
X190222285Y-69640333D01*
X190317523Y-69687952D01*
X190365142Y-69735571D01*
X190412761Y-69830809D01*
X190412761Y-70068904D01*
X190365142Y-70164142D01*
X190317523Y-70211761D01*
X190222285Y-70259380D01*
X189936571Y-70259380D01*
X189841333Y-70211761D01*
X189793714Y-70164142D01*
X190746095Y-69259380D02*
X191365142Y-69259380D01*
X191031809Y-69640333D01*
X191174666Y-69640333D01*
X191269904Y-69687952D01*
X191317523Y-69735571D01*
X191365142Y-69830809D01*
X191365142Y-70068904D01*
X191317523Y-70164142D01*
X191269904Y-70211761D01*
X191174666Y-70259380D01*
X190888952Y-70259380D01*
X190793714Y-70211761D01*
X190746095Y-70164142D01*
X191793714Y-70259380D02*
X191793714Y-69259380D01*
X191888952Y-69878428D02*
X192174666Y-70259380D01*
X192174666Y-69592714D02*
X191793714Y-69973666D01*
X136842857Y-73366380D02*
X136366666Y-73366380D01*
X136319047Y-73842571D01*
X136366666Y-73794952D01*
X136461904Y-73747333D01*
X136700000Y-73747333D01*
X136795238Y-73794952D01*
X136842857Y-73842571D01*
X136890476Y-73937809D01*
X136890476Y-74175904D01*
X136842857Y-74271142D01*
X136795238Y-74318761D01*
X136700000Y-74366380D01*
X136461904Y-74366380D01*
X136366666Y-74318761D01*
X136319047Y-74271142D01*
X137176190Y-73366380D02*
X137509523Y-74366380D01*
X137842857Y-73366380D01*
X140985714Y-73414000D02*
X140890476Y-73366380D01*
X140747619Y-73366380D01*
X140604761Y-73414000D01*
X140509523Y-73509238D01*
X140461904Y-73604476D01*
X140414285Y-73794952D01*
X140414285Y-73937809D01*
X140461904Y-74128285D01*
X140509523Y-74223523D01*
X140604761Y-74318761D01*
X140747619Y-74366380D01*
X140842857Y-74366380D01*
X140985714Y-74318761D01*
X141033333Y-74271142D01*
X141033333Y-73937809D01*
X140842857Y-73937809D01*
X141461904Y-74366380D02*
X141461904Y-73366380D01*
X142033333Y-74366380D01*
X142033333Y-73366380D01*
X142509523Y-74366380D02*
X142509523Y-73366380D01*
X142747619Y-73366380D01*
X142890476Y-73414000D01*
X142985714Y-73509238D01*
X143033333Y-73604476D01*
X143080952Y-73794952D01*
X143080952Y-73937809D01*
X143033333Y-74128285D01*
X142985714Y-74223523D01*
X142890476Y-74318761D01*
X142747619Y-74366380D01*
X142509523Y-74366380D01*
X128679595Y-65467630D02*
X128108166Y-65467630D01*
X128393880Y-65467630D02*
X128393880Y-64467630D01*
X128298642Y-64610488D01*
X128203404Y-64705726D01*
X128108166Y-64753345D01*
X129298642Y-64467630D02*
X129393880Y-64467630D01*
X129489119Y-64515250D01*
X129536738Y-64562869D01*
X129584357Y-64658107D01*
X129631976Y-64848583D01*
X129631976Y-65086678D01*
X129584357Y-65277154D01*
X129536738Y-65372392D01*
X129489119Y-65420011D01*
X129393880Y-65467630D01*
X129298642Y-65467630D01*
X129203404Y-65420011D01*
X129155785Y-65372392D01*
X129108166Y-65277154D01*
X129060547Y-65086678D01*
X129060547Y-64848583D01*
X129108166Y-64658107D01*
X129155785Y-64562869D01*
X129203404Y-64515250D01*
X129298642Y-64467630D01*
X129965309Y-64800964D02*
X130203404Y-65467630D01*
X130441500Y-64800964D01*
X132108166Y-65467630D02*
X131536738Y-65467630D01*
X131822452Y-65467630D02*
X131822452Y-64467630D01*
X131727214Y-64610488D01*
X131631976Y-64705726D01*
X131536738Y-64753345D01*
X132727214Y-64467630D02*
X132822452Y-64467630D01*
X132917690Y-64515250D01*
X132965309Y-64562869D01*
X133012928Y-64658107D01*
X133060547Y-64848583D01*
X133060547Y-65086678D01*
X133012928Y-65277154D01*
X132965309Y-65372392D01*
X132917690Y-65420011D01*
X132822452Y-65467630D01*
X132727214Y-65467630D01*
X132631976Y-65420011D01*
X132584357Y-65372392D01*
X132536738Y-65277154D01*
X132489119Y-65086678D01*
X132489119Y-64848583D01*
X132536738Y-64658107D01*
X132584357Y-64562869D01*
X132631976Y-64515250D01*
X132727214Y-64467630D01*
X133679595Y-64467630D02*
X133774833Y-64467630D01*
X133870071Y-64515250D01*
X133917690Y-64562869D01*
X133965309Y-64658107D01*
X134012928Y-64848583D01*
X134012928Y-65086678D01*
X133965309Y-65277154D01*
X133917690Y-65372392D01*
X133870071Y-65420011D01*
X133774833Y-65467630D01*
X133679595Y-65467630D01*
X133584357Y-65420011D01*
X133536738Y-65372392D01*
X133489119Y-65277154D01*
X133441500Y-65086678D01*
X133441500Y-64848583D01*
X133489119Y-64658107D01*
X133536738Y-64562869D01*
X133584357Y-64515250D01*
X133679595Y-64467630D01*
X134870071Y-64800964D02*
X134870071Y-65467630D01*
X134441500Y-64800964D02*
X134441500Y-65324773D01*
X134489119Y-65420011D01*
X134584357Y-65467630D01*
X134727214Y-65467630D01*
X134822452Y-65420011D01*
X134870071Y-65372392D01*
X135679595Y-64943821D02*
X135346261Y-64943821D01*
X135346261Y-65467630D02*
X135346261Y-64467630D01*
X135822452Y-64467630D01*
X125158857Y-73366380D02*
X124682666Y-73366380D01*
X124635047Y-73842571D01*
X124682666Y-73794952D01*
X124777904Y-73747333D01*
X125016000Y-73747333D01*
X125111238Y-73794952D01*
X125158857Y-73842571D01*
X125206476Y-73937809D01*
X125206476Y-74175904D01*
X125158857Y-74271142D01*
X125111238Y-74318761D01*
X125016000Y-74366380D01*
X124777904Y-74366380D01*
X124682666Y-74318761D01*
X124635047Y-74271142D01*
X125492190Y-73366380D02*
X125825523Y-74366380D01*
X126158857Y-73366380D01*
X129301714Y-73414000D02*
X129206476Y-73366380D01*
X129063619Y-73366380D01*
X128920761Y-73414000D01*
X128825523Y-73509238D01*
X128777904Y-73604476D01*
X128730285Y-73794952D01*
X128730285Y-73937809D01*
X128777904Y-74128285D01*
X128825523Y-74223523D01*
X128920761Y-74318761D01*
X129063619Y-74366380D01*
X129158857Y-74366380D01*
X129301714Y-74318761D01*
X129349333Y-74271142D01*
X129349333Y-73937809D01*
X129158857Y-73937809D01*
X129777904Y-74366380D02*
X129777904Y-73366380D01*
X130349333Y-74366380D01*
X130349333Y-73366380D01*
X130825523Y-74366380D02*
X130825523Y-73366380D01*
X131063619Y-73366380D01*
X131206476Y-73414000D01*
X131301714Y-73509238D01*
X131349333Y-73604476D01*
X131396952Y-73794952D01*
X131396952Y-73937809D01*
X131349333Y-74128285D01*
X131301714Y-74223523D01*
X131206476Y-74318761D01*
X131063619Y-74366380D01*
X130825523Y-74366380D01*
X128544642Y-58360011D02*
X128687500Y-58407630D01*
X128925595Y-58407630D01*
X129020833Y-58360011D01*
X129068452Y-58312392D01*
X129116071Y-58217154D01*
X129116071Y-58121916D01*
X129068452Y-58026678D01*
X129020833Y-57979059D01*
X128925595Y-57931440D01*
X128735119Y-57883821D01*
X128639880Y-57836202D01*
X128592261Y-57788583D01*
X128544642Y-57693345D01*
X128544642Y-57598107D01*
X128592261Y-57502869D01*
X128639880Y-57455250D01*
X128735119Y-57407630D01*
X128973214Y-57407630D01*
X129116071Y-57455250D01*
X129544642Y-58407630D02*
X129544642Y-57407630D01*
X129877976Y-58121916D01*
X130211309Y-57407630D01*
X130211309Y-58407630D01*
X131020833Y-57883821D02*
X131163690Y-57931440D01*
X131211309Y-57979059D01*
X131258928Y-58074297D01*
X131258928Y-58217154D01*
X131211309Y-58312392D01*
X131163690Y-58360011D01*
X131068452Y-58407630D01*
X130687500Y-58407630D01*
X130687500Y-57407630D01*
X131020833Y-57407630D01*
X131116071Y-57455250D01*
X131163690Y-57502869D01*
X131211309Y-57598107D01*
X131211309Y-57693345D01*
X131163690Y-57788583D01*
X131116071Y-57836202D01*
X131020833Y-57883821D01*
X130687500Y-57883821D01*
X131973214Y-57407630D02*
X131973214Y-58121916D01*
X131925595Y-58264773D01*
X131830357Y-58360011D01*
X131687500Y-58407630D01*
X131592261Y-58407630D01*
X132925595Y-57407630D02*
X132449404Y-57407630D01*
X132401785Y-57883821D01*
X132449404Y-57836202D01*
X132544642Y-57788583D01*
X132782738Y-57788583D01*
X132877976Y-57836202D01*
X132925595Y-57883821D01*
X132973214Y-57979059D01*
X132973214Y-58217154D01*
X132925595Y-58312392D01*
X132877976Y-58360011D01*
X132782738Y-58407630D01*
X132544642Y-58407630D01*
X132449404Y-58360011D01*
X132401785Y-58312392D01*
X133973214Y-58312392D02*
X133925595Y-58360011D01*
X133782738Y-58407630D01*
X133687500Y-58407630D01*
X133544642Y-58360011D01*
X133449404Y-58264773D01*
X133401785Y-58169535D01*
X133354166Y-57979059D01*
X133354166Y-57836202D01*
X133401785Y-57645726D01*
X133449404Y-57550488D01*
X133544642Y-57455250D01*
X133687500Y-57407630D01*
X133782738Y-57407630D01*
X133925595Y-57455250D01*
X133973214Y-57502869D01*
X134354166Y-58121916D02*
X134830357Y-58121916D01*
X134258928Y-58407630D02*
X134592261Y-57407630D01*
X134925595Y-58407630D01*
X75080761Y-32321047D02*
X75128380Y-32178190D01*
X75128380Y-31940095D01*
X75080761Y-31844857D01*
X75033142Y-31797238D01*
X74937904Y-31749619D01*
X74842666Y-31749619D01*
X74747428Y-31797238D01*
X74699809Y-31844857D01*
X74652190Y-31940095D01*
X74604571Y-32130571D01*
X74556952Y-32225809D01*
X74509333Y-32273428D01*
X74414095Y-32321047D01*
X74318857Y-32321047D01*
X74223619Y-32273428D01*
X74176000Y-32225809D01*
X74128380Y-32130571D01*
X74128380Y-31892476D01*
X74176000Y-31749619D01*
X75128380Y-31321047D02*
X74128380Y-31321047D01*
X74842666Y-30987714D01*
X74128380Y-30654380D01*
X75128380Y-30654380D01*
X74604571Y-29844857D02*
X74652190Y-29702000D01*
X74699809Y-29654380D01*
X74795047Y-29606761D01*
X74937904Y-29606761D01*
X75033142Y-29654380D01*
X75080761Y-29702000D01*
X75128380Y-29797238D01*
X75128380Y-30178190D01*
X74128380Y-30178190D01*
X74128380Y-29844857D01*
X74176000Y-29749619D01*
X74223619Y-29702000D01*
X74318857Y-29654380D01*
X74414095Y-29654380D01*
X74509333Y-29702000D01*
X74556952Y-29749619D01*
X74604571Y-29844857D01*
X74604571Y-30178190D01*
X74128380Y-28892476D02*
X74842666Y-28892476D01*
X74985523Y-28940095D01*
X75080761Y-29035333D01*
X75128380Y-29178190D01*
X75128380Y-29273428D01*
X74223619Y-28463904D02*
X74176000Y-28416285D01*
X74128380Y-28321047D01*
X74128380Y-28082952D01*
X74176000Y-27987714D01*
X74223619Y-27940095D01*
X74318857Y-27892476D01*
X74414095Y-27892476D01*
X74556952Y-27940095D01*
X75128380Y-28511523D01*
X75128380Y-27892476D01*
X74461714Y-27035333D02*
X75128380Y-27035333D01*
X74080761Y-27273428D02*
X74795047Y-27511523D01*
X74795047Y-26892476D01*
X75033142Y-25940095D02*
X75080761Y-25987714D01*
X75128380Y-26130571D01*
X75128380Y-26225809D01*
X75080761Y-26368666D01*
X74985523Y-26463904D01*
X74890285Y-26511523D01*
X74699809Y-26559142D01*
X74556952Y-26559142D01*
X74366476Y-26511523D01*
X74271238Y-26463904D01*
X74176000Y-26368666D01*
X74128380Y-26225809D01*
X74128380Y-26130571D01*
X74176000Y-25987714D01*
X74223619Y-25940095D01*
X74842666Y-25559142D02*
X74842666Y-25082952D01*
X75128380Y-25654380D02*
X74128380Y-25321047D01*
X75128380Y-24987714D01*
X72858380Y-43012952D02*
X72858380Y-43489142D01*
X73334571Y-43536761D01*
X73286952Y-43489142D01*
X73239333Y-43393904D01*
X73239333Y-43155809D01*
X73286952Y-43060571D01*
X73334571Y-43012952D01*
X73429809Y-42965333D01*
X73667904Y-42965333D01*
X73763142Y-43012952D01*
X73810761Y-43060571D01*
X73858380Y-43155809D01*
X73858380Y-43393904D01*
X73810761Y-43489142D01*
X73763142Y-43536761D01*
X72858380Y-42346285D02*
X72858380Y-42251047D01*
X72906000Y-42155809D01*
X72953619Y-42108190D01*
X73048857Y-42060571D01*
X73239333Y-42012952D01*
X73477428Y-42012952D01*
X73667904Y-42060571D01*
X73763142Y-42108190D01*
X73810761Y-42155809D01*
X73858380Y-42251047D01*
X73858380Y-42346285D01*
X73810761Y-42441523D01*
X73763142Y-42489142D01*
X73667904Y-42536761D01*
X73477428Y-42584380D01*
X73239333Y-42584380D01*
X73048857Y-42536761D01*
X72953619Y-42489142D01*
X72906000Y-42441523D01*
X72858380Y-42346285D01*
X72858380Y-41727238D02*
X73858380Y-41393904D01*
X72858380Y-41060571D01*
X73191714Y-39536761D02*
X73858380Y-39536761D01*
X72810761Y-39774857D02*
X73525047Y-40012952D01*
X73525047Y-39393904D01*
X72858380Y-39108190D02*
X72858380Y-38441523D01*
X73858380Y-38870095D01*
X73191714Y-37632000D02*
X73858380Y-37632000D01*
X73191714Y-38060571D02*
X73715523Y-38060571D01*
X73810761Y-38012952D01*
X73858380Y-37917714D01*
X73858380Y-37774857D01*
X73810761Y-37679619D01*
X73763142Y-37632000D01*
X73334571Y-36822476D02*
X73334571Y-37155809D01*
X73858380Y-37155809D02*
X72858380Y-37155809D01*
X72858380Y-36679619D01*
X165336833Y-68889619D02*
X165384452Y-68842000D01*
X165479690Y-68794380D01*
X165717785Y-68794380D01*
X165813023Y-68842000D01*
X165860642Y-68889619D01*
X165908261Y-68984857D01*
X165908261Y-69080095D01*
X165860642Y-69222952D01*
X165289214Y-69794380D01*
X165908261Y-69794380D01*
X166289214Y-68889619D02*
X166336833Y-68842000D01*
X166432071Y-68794380D01*
X166670166Y-68794380D01*
X166765404Y-68842000D01*
X166813023Y-68889619D01*
X166860642Y-68984857D01*
X166860642Y-69080095D01*
X166813023Y-69222952D01*
X166241595Y-69794380D01*
X166860642Y-69794380D01*
X167289214Y-69794380D02*
X167289214Y-68794380D01*
X167384452Y-69413428D02*
X167670166Y-69794380D01*
X167670166Y-69127714D02*
X167289214Y-69508666D01*
X152438642Y-58316761D02*
X152581500Y-58364380D01*
X152819595Y-58364380D01*
X152914833Y-58316761D01*
X152962452Y-58269142D01*
X153010071Y-58173904D01*
X153010071Y-58078666D01*
X152962452Y-57983428D01*
X152914833Y-57935809D01*
X152819595Y-57888190D01*
X152629119Y-57840571D01*
X152533880Y-57792952D01*
X152486261Y-57745333D01*
X152438642Y-57650095D01*
X152438642Y-57554857D01*
X152486261Y-57459619D01*
X152533880Y-57412000D01*
X152629119Y-57364380D01*
X152867214Y-57364380D01*
X153010071Y-57412000D01*
X153438642Y-58364380D02*
X153438642Y-57364380D01*
X153771976Y-58078666D01*
X154105309Y-57364380D01*
X154105309Y-58364380D01*
X154914833Y-57840571D02*
X155057690Y-57888190D01*
X155105309Y-57935809D01*
X155152928Y-58031047D01*
X155152928Y-58173904D01*
X155105309Y-58269142D01*
X155057690Y-58316761D01*
X154962452Y-58364380D01*
X154581500Y-58364380D01*
X154581500Y-57364380D01*
X154914833Y-57364380D01*
X155010071Y-57412000D01*
X155057690Y-57459619D01*
X155105309Y-57554857D01*
X155105309Y-57650095D01*
X155057690Y-57745333D01*
X155010071Y-57792952D01*
X154914833Y-57840571D01*
X154581500Y-57840571D01*
X155867214Y-57364380D02*
X155867214Y-58078666D01*
X155819595Y-58221523D01*
X155724357Y-58316761D01*
X155581500Y-58364380D01*
X155486261Y-58364380D01*
X156391023Y-58364380D02*
X156581500Y-58364380D01*
X156676738Y-58316761D01*
X156724357Y-58269142D01*
X156819595Y-58126285D01*
X156867214Y-57935809D01*
X156867214Y-57554857D01*
X156819595Y-57459619D01*
X156771976Y-57412000D01*
X156676738Y-57364380D01*
X156486261Y-57364380D01*
X156391023Y-57412000D01*
X156343404Y-57459619D01*
X156295785Y-57554857D01*
X156295785Y-57792952D01*
X156343404Y-57888190D01*
X156391023Y-57935809D01*
X156486261Y-57983428D01*
X156676738Y-57983428D01*
X156771976Y-57935809D01*
X156819595Y-57888190D01*
X156867214Y-57792952D01*
X157867214Y-58269142D02*
X157819595Y-58316761D01*
X157676738Y-58364380D01*
X157581500Y-58364380D01*
X157438642Y-58316761D01*
X157343404Y-58221523D01*
X157295785Y-58126285D01*
X157248166Y-57935809D01*
X157248166Y-57792952D01*
X157295785Y-57602476D01*
X157343404Y-57507238D01*
X157438642Y-57412000D01*
X157581500Y-57364380D01*
X157676738Y-57364380D01*
X157819595Y-57412000D01*
X157867214Y-57459619D01*
X158248166Y-58078666D02*
X158724357Y-58078666D01*
X158152928Y-58364380D02*
X158486261Y-57364380D01*
X158819595Y-58364380D01*
X178051976Y-29011619D02*
X178099595Y-28964000D01*
X178194833Y-28916380D01*
X178432928Y-28916380D01*
X178528166Y-28964000D01*
X178575785Y-29011619D01*
X178623404Y-29106857D01*
X178623404Y-29202095D01*
X178575785Y-29344952D01*
X178004357Y-29916380D01*
X178623404Y-29916380D01*
X179480547Y-29249714D02*
X179480547Y-29916380D01*
X179242452Y-28868761D02*
X179004357Y-29583047D01*
X179623404Y-29583047D01*
X179861500Y-28916380D02*
X180194833Y-29916380D01*
X180528166Y-28916380D01*
X180861500Y-29535428D02*
X181623404Y-29535428D01*
X182099595Y-29249714D02*
X182861500Y-29535428D01*
X182099595Y-29821142D01*
X183861500Y-29916380D02*
X183290071Y-29916380D01*
X183575785Y-29916380D02*
X183575785Y-28916380D01*
X183480547Y-29059238D01*
X183385309Y-29154476D01*
X183290071Y-29202095D01*
X184242452Y-29011619D02*
X184290071Y-28964000D01*
X184385309Y-28916380D01*
X184623404Y-28916380D01*
X184718642Y-28964000D01*
X184766261Y-29011619D01*
X184813880Y-29106857D01*
X184813880Y-29202095D01*
X184766261Y-29344952D01*
X184194833Y-29916380D01*
X184813880Y-29916380D01*
X185099595Y-28916380D02*
X185432928Y-29916380D01*
X185766261Y-28916380D01*
X185944285Y-74249380D02*
X185372857Y-74249380D01*
X185658571Y-74249380D02*
X185658571Y-73249380D01*
X185563333Y-73392238D01*
X185468095Y-73487476D01*
X185372857Y-73535095D01*
X186325238Y-73344619D02*
X186372857Y-73297000D01*
X186468095Y-73249380D01*
X186706190Y-73249380D01*
X186801428Y-73297000D01*
X186849047Y-73344619D01*
X186896666Y-73439857D01*
X186896666Y-73535095D01*
X186849047Y-73677952D01*
X186277619Y-74249380D01*
X186896666Y-74249380D01*
X187182380Y-73249380D02*
X187515714Y-74249380D01*
X187849047Y-73249380D01*
X190991904Y-73297000D02*
X190896666Y-73249380D01*
X190753809Y-73249380D01*
X190610952Y-73297000D01*
X190515714Y-73392238D01*
X190468095Y-73487476D01*
X190420476Y-73677952D01*
X190420476Y-73820809D01*
X190468095Y-74011285D01*
X190515714Y-74106523D01*
X190610952Y-74201761D01*
X190753809Y-74249380D01*
X190849047Y-74249380D01*
X190991904Y-74201761D01*
X191039523Y-74154142D01*
X191039523Y-73820809D01*
X190849047Y-73820809D01*
X191468095Y-74249380D02*
X191468095Y-73249380D01*
X192039523Y-74249380D01*
X192039523Y-73249380D01*
X192515714Y-74249380D02*
X192515714Y-73249380D01*
X192753809Y-73249380D01*
X192896666Y-73297000D01*
X192991904Y-73392238D01*
X193039523Y-73487476D01*
X193087142Y-73677952D01*
X193087142Y-73820809D01*
X193039523Y-74011285D01*
X192991904Y-74106523D01*
X192896666Y-74201761D01*
X192753809Y-74249380D01*
X192515714Y-74249380D01*
X82764380Y-31582952D02*
X82764380Y-32059142D01*
X83240571Y-32106761D01*
X83192952Y-32059142D01*
X83145333Y-31963904D01*
X83145333Y-31725809D01*
X83192952Y-31630571D01*
X83240571Y-31582952D01*
X83335809Y-31535333D01*
X83573904Y-31535333D01*
X83669142Y-31582952D01*
X83716761Y-31630571D01*
X83764380Y-31725809D01*
X83764380Y-31963904D01*
X83716761Y-32059142D01*
X83669142Y-32106761D01*
X82764380Y-30916285D02*
X82764380Y-30821047D01*
X82812000Y-30725809D01*
X82859619Y-30678190D01*
X82954857Y-30630571D01*
X83145333Y-30582952D01*
X83383428Y-30582952D01*
X83573904Y-30630571D01*
X83669142Y-30678190D01*
X83716761Y-30725809D01*
X83764380Y-30821047D01*
X83764380Y-30916285D01*
X83716761Y-31011523D01*
X83669142Y-31059142D01*
X83573904Y-31106761D01*
X83383428Y-31154380D01*
X83145333Y-31154380D01*
X82954857Y-31106761D01*
X82859619Y-31059142D01*
X82812000Y-31011523D01*
X82764380Y-30916285D01*
X82764380Y-30297238D02*
X83764380Y-29963904D01*
X82764380Y-29630571D01*
X83097714Y-28106761D02*
X83764380Y-28106761D01*
X82716761Y-28344857D02*
X83431047Y-28582952D01*
X83431047Y-27963904D01*
X82764380Y-27678190D02*
X82764380Y-27011523D01*
X83764380Y-27440095D01*
X83097714Y-26202000D02*
X83764380Y-26202000D01*
X83097714Y-26630571D02*
X83621523Y-26630571D01*
X83716761Y-26582952D01*
X83764380Y-26487714D01*
X83764380Y-26344857D01*
X83716761Y-26249619D01*
X83669142Y-26202000D01*
X83240571Y-25392476D02*
X83240571Y-25725809D01*
X83764380Y-25725809D02*
X82764380Y-25725809D01*
X82764380Y-25249619D01*
X92593642Y-40298666D02*
X92641261Y-40346285D01*
X92688880Y-40489142D01*
X92688880Y-40584380D01*
X92641261Y-40727238D01*
X92546023Y-40822476D01*
X92450785Y-40870095D01*
X92260309Y-40917714D01*
X92117452Y-40917714D01*
X91926976Y-40870095D01*
X91831738Y-40822476D01*
X91736500Y-40727238D01*
X91688880Y-40584380D01*
X91688880Y-40489142D01*
X91736500Y-40346285D01*
X91784119Y-40298666D01*
X91688880Y-39441523D02*
X91688880Y-39632000D01*
X91736500Y-39727238D01*
X91784119Y-39774857D01*
X91926976Y-39870095D01*
X92117452Y-39917714D01*
X92498404Y-39917714D01*
X92593642Y-39870095D01*
X92641261Y-39822476D01*
X92688880Y-39727238D01*
X92688880Y-39536761D01*
X92641261Y-39441523D01*
X92593642Y-39393904D01*
X92498404Y-39346285D01*
X92260309Y-39346285D01*
X92165071Y-39393904D01*
X92117452Y-39441523D01*
X92069833Y-39536761D01*
X92069833Y-39727238D01*
X92117452Y-39822476D01*
X92165071Y-39870095D01*
X92260309Y-39917714D01*
X92815642Y-29122666D02*
X92863261Y-29170285D01*
X92910880Y-29313142D01*
X92910880Y-29408380D01*
X92863261Y-29551238D01*
X92768023Y-29646476D01*
X92672785Y-29694095D01*
X92482309Y-29741714D01*
X92339452Y-29741714D01*
X92148976Y-29694095D01*
X92053738Y-29646476D01*
X91958500Y-29551238D01*
X91910880Y-29408380D01*
X91910880Y-29313142D01*
X91958500Y-29170285D01*
X92006119Y-29122666D01*
X92244214Y-28265523D02*
X92910880Y-28265523D01*
X91863261Y-28503619D02*
X92577547Y-28741714D01*
X92577547Y-28122666D01*
X160107333Y-66651142D02*
X160059714Y-66698761D01*
X159916857Y-66746380D01*
X159821619Y-66746380D01*
X159678761Y-66698761D01*
X159583523Y-66603523D01*
X159535904Y-66508285D01*
X159488285Y-66317809D01*
X159488285Y-66174952D01*
X159535904Y-65984476D01*
X159583523Y-65889238D01*
X159678761Y-65794000D01*
X159821619Y-65746380D01*
X159916857Y-65746380D01*
X160059714Y-65794000D01*
X160107333Y-65841619D01*
X160488285Y-65841619D02*
X160535904Y-65794000D01*
X160631142Y-65746380D01*
X160869238Y-65746380D01*
X160964476Y-65794000D01*
X161012095Y-65841619D01*
X161059714Y-65936857D01*
X161059714Y-66032095D01*
X161012095Y-66174952D01*
X160440666Y-66746380D01*
X161059714Y-66746380D01*
X173026053Y-32779925D02*
X173663474Y-32779925D01*
X173738465Y-32742430D01*
X173775960Y-32704934D01*
X173813455Y-32629944D01*
X173813455Y-32479962D01*
X173775960Y-32404972D01*
X173738465Y-32367476D01*
X173663474Y-32329981D01*
X173026053Y-32329981D01*
X173101044Y-31992523D02*
X173063549Y-31955028D01*
X173026053Y-31880037D01*
X173026053Y-31692560D01*
X173063549Y-31617570D01*
X173101044Y-31580074D01*
X173176035Y-31542579D01*
X173251025Y-31542579D01*
X173363511Y-31580074D01*
X173813455Y-32030018D01*
X173813455Y-31542579D01*
X176449630Y-39164857D02*
X175449630Y-39164857D01*
X176449630Y-38688666D02*
X175449630Y-38688666D01*
X176449630Y-38117238D01*
X175449630Y-38117238D01*
X176068678Y-37641047D02*
X176068678Y-36879142D01*
X176449630Y-37260095D02*
X175687726Y-37260095D01*
X188641630Y-39164857D02*
X187641630Y-39164857D01*
X188641630Y-38688666D02*
X187641630Y-38688666D01*
X188641630Y-38117238D01*
X187641630Y-38117238D01*
X188260678Y-37641047D02*
X188260678Y-36879142D01*
X187641630Y-49293047D02*
X187641630Y-49102571D01*
X187689250Y-49007333D01*
X187784488Y-48912095D01*
X187974964Y-48864476D01*
X188308297Y-48864476D01*
X188498773Y-48912095D01*
X188594011Y-49007333D01*
X188641630Y-49102571D01*
X188641630Y-49293047D01*
X188594011Y-49388285D01*
X188498773Y-49483523D01*
X188308297Y-49531142D01*
X187974964Y-49531142D01*
X187784488Y-49483523D01*
X187689250Y-49388285D01*
X187641630Y-49293047D01*
X187641630Y-48435904D02*
X188451154Y-48435904D01*
X188546392Y-48388285D01*
X188594011Y-48340666D01*
X188641630Y-48245428D01*
X188641630Y-48054952D01*
X188594011Y-47959714D01*
X188546392Y-47912095D01*
X188451154Y-47864476D01*
X187641630Y-47864476D01*
X187641630Y-47531142D02*
X187641630Y-46959714D01*
X188641630Y-47245428D02*
X187641630Y-47245428D01*
X188260678Y-46626380D02*
X188260678Y-45864476D01*
X175449630Y-49547047D02*
X175449630Y-49356571D01*
X175497250Y-49261333D01*
X175592488Y-49166095D01*
X175782964Y-49118476D01*
X176116297Y-49118476D01*
X176306773Y-49166095D01*
X176402011Y-49261333D01*
X176449630Y-49356571D01*
X176449630Y-49547047D01*
X176402011Y-49642285D01*
X176306773Y-49737523D01*
X176116297Y-49785142D01*
X175782964Y-49785142D01*
X175592488Y-49737523D01*
X175497250Y-49642285D01*
X175449630Y-49547047D01*
X175449630Y-48689904D02*
X176259154Y-48689904D01*
X176354392Y-48642285D01*
X176402011Y-48594666D01*
X176449630Y-48499428D01*
X176449630Y-48308952D01*
X176402011Y-48213714D01*
X176354392Y-48166095D01*
X176259154Y-48118476D01*
X175449630Y-48118476D01*
X175449630Y-47785142D02*
X175449630Y-47213714D01*
X176449630Y-47499428D02*
X175449630Y-47499428D01*
X176068678Y-46880380D02*
X176068678Y-46118476D01*
X176449630Y-46499428D02*
X175687726Y-46499428D01*
X183917404Y-61666380D02*
X183917404Y-60666380D01*
X184155500Y-60666380D01*
X184298357Y-60714000D01*
X184393595Y-60809238D01*
X184441214Y-60904476D01*
X184488833Y-61094952D01*
X184488833Y-61237809D01*
X184441214Y-61428285D01*
X184393595Y-61523523D01*
X184298357Y-61618761D01*
X184155500Y-61666380D01*
X183917404Y-61666380D01*
X184822166Y-60666380D02*
X185441214Y-60666380D01*
X185107880Y-61047333D01*
X185250738Y-61047333D01*
X185345976Y-61094952D01*
X185393595Y-61142571D01*
X185441214Y-61237809D01*
X185441214Y-61475904D01*
X185393595Y-61571142D01*
X185345976Y-61618761D01*
X185250738Y-61666380D01*
X184965023Y-61666380D01*
X184869785Y-61618761D01*
X184822166Y-61571142D01*
X148896053Y-33033925D02*
X149533474Y-33033925D01*
X149608465Y-32996430D01*
X149645960Y-32958934D01*
X149683455Y-32883944D01*
X149683455Y-32733962D01*
X149645960Y-32658972D01*
X149608465Y-32621476D01*
X149533474Y-32583981D01*
X148896053Y-32583981D01*
X149683455Y-31796579D02*
X149683455Y-32246523D01*
X149683455Y-32021551D02*
X148896053Y-32021551D01*
X149008539Y-32096542D01*
X149083530Y-32171532D01*
X149121025Y-32246523D01*
X163511630Y-49547047D02*
X163511630Y-49356571D01*
X163559250Y-49261333D01*
X163654488Y-49166095D01*
X163844964Y-49118476D01*
X164178297Y-49118476D01*
X164368773Y-49166095D01*
X164464011Y-49261333D01*
X164511630Y-49356571D01*
X164511630Y-49547047D01*
X164464011Y-49642285D01*
X164368773Y-49737523D01*
X164178297Y-49785142D01*
X163844964Y-49785142D01*
X163654488Y-49737523D01*
X163559250Y-49642285D01*
X163511630Y-49547047D01*
X163511630Y-48689904D02*
X164321154Y-48689904D01*
X164416392Y-48642285D01*
X164464011Y-48594666D01*
X164511630Y-48499428D01*
X164511630Y-48308952D01*
X164464011Y-48213714D01*
X164416392Y-48166095D01*
X164321154Y-48118476D01*
X163511630Y-48118476D01*
X163511630Y-47785142D02*
X163511630Y-47213714D01*
X164511630Y-47499428D02*
X163511630Y-47499428D01*
X164130678Y-46880380D02*
X164130678Y-46118476D01*
X164511630Y-39418857D02*
X163511630Y-39418857D01*
X164511630Y-38942666D02*
X163511630Y-38942666D01*
X164511630Y-38371238D01*
X163511630Y-38371238D01*
X164130678Y-37895047D02*
X164130678Y-37133142D01*
X151319630Y-49801047D02*
X151319630Y-49610571D01*
X151367250Y-49515333D01*
X151462488Y-49420095D01*
X151652964Y-49372476D01*
X151986297Y-49372476D01*
X152176773Y-49420095D01*
X152272011Y-49515333D01*
X152319630Y-49610571D01*
X152319630Y-49801047D01*
X152272011Y-49896285D01*
X152176773Y-49991523D01*
X151986297Y-50039142D01*
X151652964Y-50039142D01*
X151462488Y-49991523D01*
X151367250Y-49896285D01*
X151319630Y-49801047D01*
X151319630Y-48943904D02*
X152129154Y-48943904D01*
X152224392Y-48896285D01*
X152272011Y-48848666D01*
X152319630Y-48753428D01*
X152319630Y-48562952D01*
X152272011Y-48467714D01*
X152224392Y-48420095D01*
X152129154Y-48372476D01*
X151319630Y-48372476D01*
X151319630Y-48039142D02*
X151319630Y-47467714D01*
X152319630Y-47753428D02*
X151319630Y-47753428D01*
X151938678Y-47134380D02*
X151938678Y-46372476D01*
X152319630Y-46753428D02*
X151557726Y-46753428D01*
X152319630Y-39418857D02*
X151319630Y-39418857D01*
X152319630Y-38942666D02*
X151319630Y-38942666D01*
X152319630Y-38371238D01*
X151319630Y-38371238D01*
X151938678Y-37895047D02*
X151938678Y-37133142D01*
X152319630Y-37514095D02*
X151557726Y-37514095D01*
X81178880Y-29440095D02*
X80178880Y-29440095D01*
X80178880Y-29202000D01*
X80226500Y-29059142D01*
X80321738Y-28963904D01*
X80416976Y-28916285D01*
X80607452Y-28868666D01*
X80750309Y-28868666D01*
X80940785Y-28916285D01*
X81036023Y-28963904D01*
X81131261Y-29059142D01*
X81178880Y-29202000D01*
X81178880Y-29440095D01*
X80512214Y-28011523D02*
X81178880Y-28011523D01*
X80131261Y-28249619D02*
X80845547Y-28487714D01*
X80845547Y-27868666D01*
X159925904Y-61666380D02*
X159925904Y-60666380D01*
X160164000Y-60666380D01*
X160306857Y-60714000D01*
X160402095Y-60809238D01*
X160449714Y-60904476D01*
X160497333Y-61094952D01*
X160497333Y-61237809D01*
X160449714Y-61428285D01*
X160402095Y-61523523D01*
X160306857Y-61618761D01*
X160164000Y-61666380D01*
X159925904Y-61666380D01*
X160878285Y-60761619D02*
X160925904Y-60714000D01*
X161021142Y-60666380D01*
X161259238Y-60666380D01*
X161354476Y-60714000D01*
X161402095Y-60761619D01*
X161449714Y-60856857D01*
X161449714Y-60952095D01*
X161402095Y-61094952D01*
X160830666Y-61666380D01*
X161449714Y-61666380D01*
X122348666Y-73620380D02*
X122348666Y-74334666D01*
X122301047Y-74477523D01*
X122205809Y-74572761D01*
X122062952Y-74620380D01*
X121967714Y-74620380D01*
X122729619Y-73620380D02*
X123348666Y-73620380D01*
X123015333Y-74001333D01*
X123158190Y-74001333D01*
X123253428Y-74048952D01*
X123301047Y-74096571D01*
X123348666Y-74191809D01*
X123348666Y-74429904D01*
X123301047Y-74525142D01*
X123253428Y-74572761D01*
X123158190Y-74620380D01*
X122872476Y-74620380D01*
X122777238Y-74572761D01*
X122729619Y-74525142D01*
X138569404Y-58863630D02*
X138569404Y-57863630D01*
X138807500Y-57863630D01*
X138950357Y-57911250D01*
X139045595Y-58006488D01*
X139093214Y-58101726D01*
X139140833Y-58292202D01*
X139140833Y-58435059D01*
X139093214Y-58625535D01*
X139045595Y-58720773D01*
X138950357Y-58816011D01*
X138807500Y-58863630D01*
X138569404Y-58863630D01*
X140045595Y-57863630D02*
X139569404Y-57863630D01*
X139521785Y-58339821D01*
X139569404Y-58292202D01*
X139664642Y-58244583D01*
X139902738Y-58244583D01*
X139997976Y-58292202D01*
X140045595Y-58339821D01*
X140093214Y-58435059D01*
X140093214Y-58673154D01*
X140045595Y-58768392D01*
X139997976Y-58816011D01*
X139902738Y-58863630D01*
X139664642Y-58863630D01*
X139569404Y-58816011D01*
X139521785Y-58768392D01*
X135775404Y-61657630D02*
X135775404Y-60657630D01*
X136013500Y-60657630D01*
X136156357Y-60705250D01*
X136251595Y-60800488D01*
X136299214Y-60895726D01*
X136346833Y-61086202D01*
X136346833Y-61229059D01*
X136299214Y-61419535D01*
X136251595Y-61514773D01*
X136156357Y-61610011D01*
X136013500Y-61657630D01*
X135775404Y-61657630D01*
X137299214Y-61657630D02*
X136727785Y-61657630D01*
X137013500Y-61657630D02*
X137013500Y-60657630D01*
X136918261Y-60800488D01*
X136823023Y-60895726D01*
X136727785Y-60943345D01*
X158924666Y-73742380D02*
X158924666Y-74456666D01*
X158877047Y-74599523D01*
X158781809Y-74694761D01*
X158638952Y-74742380D01*
X158543714Y-74742380D01*
X159829428Y-74075714D02*
X159829428Y-74742380D01*
X159591333Y-73694761D02*
X159353238Y-74409047D01*
X159972285Y-74409047D01*
X183980833Y-66397142D02*
X183933214Y-66444761D01*
X183790357Y-66492380D01*
X183695119Y-66492380D01*
X183552261Y-66444761D01*
X183457023Y-66349523D01*
X183409404Y-66254285D01*
X183361785Y-66063809D01*
X183361785Y-65920952D01*
X183409404Y-65730476D01*
X183457023Y-65635238D01*
X183552261Y-65540000D01*
X183695119Y-65492380D01*
X183790357Y-65492380D01*
X183933214Y-65540000D01*
X183980833Y-65587619D01*
X184314166Y-65492380D02*
X184933214Y-65492380D01*
X184599880Y-65873333D01*
X184742738Y-65873333D01*
X184837976Y-65920952D01*
X184885595Y-65968571D01*
X184933214Y-66063809D01*
X184933214Y-66301904D01*
X184885595Y-66397142D01*
X184837976Y-66444761D01*
X184742738Y-66492380D01*
X184457023Y-66492380D01*
X184361785Y-66444761D01*
X184314166Y-66397142D01*
X98294880Y-81073523D02*
X99009166Y-81073523D01*
X99152023Y-81121142D01*
X99247261Y-81216380D01*
X99294880Y-81359238D01*
X99294880Y-81454476D01*
X99294880Y-80073523D02*
X99294880Y-80644952D01*
X99294880Y-80359238D02*
X98294880Y-80359238D01*
X98437738Y-80454476D01*
X98532976Y-80549714D01*
X98580595Y-80644952D01*
X98294880Y-79168761D02*
X98294880Y-79644952D01*
X98771071Y-79692571D01*
X98723452Y-79644952D01*
X98675833Y-79549714D01*
X98675833Y-79311619D01*
X98723452Y-79216380D01*
X98771071Y-79168761D01*
X98866309Y-79121142D01*
X99104404Y-79121142D01*
X99199642Y-79168761D01*
X99247261Y-79216380D01*
X99294880Y-79311619D01*
X99294880Y-79549714D01*
X99247261Y-79644952D01*
X99199642Y-79692571D01*
X82433642Y-40298666D02*
X82481261Y-40346285D01*
X82528880Y-40489142D01*
X82528880Y-40584380D01*
X82481261Y-40727238D01*
X82386023Y-40822476D01*
X82290785Y-40870095D01*
X82100309Y-40917714D01*
X81957452Y-40917714D01*
X81766976Y-40870095D01*
X81671738Y-40822476D01*
X81576500Y-40727238D01*
X81528880Y-40584380D01*
X81528880Y-40489142D01*
X81576500Y-40346285D01*
X81624119Y-40298666D01*
X81528880Y-39393904D02*
X81528880Y-39870095D01*
X82005071Y-39917714D01*
X81957452Y-39870095D01*
X81909833Y-39774857D01*
X81909833Y-39536761D01*
X81957452Y-39441523D01*
X82005071Y-39393904D01*
X82100309Y-39346285D01*
X82338404Y-39346285D01*
X82433642Y-39393904D01*
X82481261Y-39441523D01*
X82528880Y-39536761D01*
X82528880Y-39774857D01*
X82481261Y-39870095D01*
X82433642Y-39917714D01*
X187216904Y-61428380D02*
X187216904Y-60428380D01*
X187455000Y-60428380D01*
X187597857Y-60476000D01*
X187693095Y-60571238D01*
X187740714Y-60666476D01*
X187788333Y-60856952D01*
X187788333Y-60999809D01*
X187740714Y-61190285D01*
X187693095Y-61285523D01*
X187597857Y-61380761D01*
X187455000Y-61428380D01*
X187216904Y-61428380D01*
X188121666Y-60428380D02*
X188788333Y-60428380D01*
X188359761Y-61428380D01*
X85594880Y-80597333D02*
X86309166Y-80597333D01*
X86452023Y-80644952D01*
X86547261Y-80740190D01*
X86594880Y-80883047D01*
X86594880Y-80978285D01*
X86594880Y-80073523D02*
X86594880Y-79883047D01*
X86547261Y-79787809D01*
X86499642Y-79740190D01*
X86356785Y-79644952D01*
X86166309Y-79597333D01*
X85785357Y-79597333D01*
X85690119Y-79644952D01*
X85642500Y-79692571D01*
X85594880Y-79787809D01*
X85594880Y-79978285D01*
X85642500Y-80073523D01*
X85690119Y-80121142D01*
X85785357Y-80168761D01*
X86023452Y-80168761D01*
X86118690Y-80121142D01*
X86166309Y-80073523D01*
X86213928Y-79978285D01*
X86213928Y-79787809D01*
X86166309Y-79692571D01*
X86118690Y-79644952D01*
X86023452Y-79597333D01*
X162717404Y-61158380D02*
X162717404Y-60158380D01*
X162955500Y-60158380D01*
X163098357Y-60206000D01*
X163193595Y-60301238D01*
X163241214Y-60396476D01*
X163288833Y-60586952D01*
X163288833Y-60729809D01*
X163241214Y-60920285D01*
X163193595Y-61015523D01*
X163098357Y-61110761D01*
X162955500Y-61158380D01*
X162717404Y-61158380D01*
X164145976Y-60158380D02*
X163955500Y-60158380D01*
X163860261Y-60206000D01*
X163812642Y-60253619D01*
X163717404Y-60396476D01*
X163669785Y-60586952D01*
X163669785Y-60967904D01*
X163717404Y-61063142D01*
X163765023Y-61110761D01*
X163860261Y-61158380D01*
X164050738Y-61158380D01*
X164145976Y-61110761D01*
X164193595Y-61063142D01*
X164241214Y-60967904D01*
X164241214Y-60729809D01*
X164193595Y-60634571D01*
X164145976Y-60586952D01*
X164050738Y-60539333D01*
X163860261Y-60539333D01*
X163765023Y-60586952D01*
X163717404Y-60634571D01*
X163669785Y-60729809D01*
X101780995Y-28009969D02*
X101780995Y-28343749D01*
X102305506Y-28343749D02*
X101304167Y-28343749D01*
X101304167Y-27866921D01*
X101304167Y-27580824D02*
X101304167Y-26960947D01*
X101685630Y-27294727D01*
X101685630Y-27151679D01*
X101733312Y-27056313D01*
X101780995Y-27008630D01*
X101876361Y-26960947D01*
X102114775Y-26960947D01*
X102210141Y-27008630D01*
X102257823Y-27056313D01*
X102305506Y-27151679D01*
X102305506Y-27437775D01*
X102257823Y-27533141D01*
X102210141Y-27580824D01*
X112630455Y-64351589D02*
X112630455Y-64685369D01*
X113154966Y-64685369D02*
X112153627Y-64685369D01*
X112153627Y-64208541D01*
X112582772Y-63684030D02*
X112535090Y-63779395D01*
X112487407Y-63827078D01*
X112392041Y-63874761D01*
X112344358Y-63874761D01*
X112248993Y-63827078D01*
X112201310Y-63779395D01*
X112153627Y-63684030D01*
X112153627Y-63493299D01*
X112201310Y-63397933D01*
X112248993Y-63350250D01*
X112344358Y-63302567D01*
X112392041Y-63302567D01*
X112487407Y-63350250D01*
X112535090Y-63397933D01*
X112582772Y-63493299D01*
X112582772Y-63684030D01*
X112630455Y-63779395D01*
X112678138Y-63827078D01*
X112773504Y-63874761D01*
X112964235Y-63874761D01*
X113059601Y-63827078D01*
X113107283Y-63779395D01*
X113154966Y-63684030D01*
X113154966Y-63493299D01*
X113107283Y-63397933D01*
X113059601Y-63350250D01*
X112964235Y-63302567D01*
X112773504Y-63302567D01*
X112678138Y-63350250D01*
X112630455Y-63397933D01*
X112582772Y-63493299D01*
X190330833Y-68778380D02*
X189997500Y-68302190D01*
X189759404Y-68778380D02*
X189759404Y-67778380D01*
X190140357Y-67778380D01*
X190235595Y-67826000D01*
X190283214Y-67873619D01*
X190330833Y-67968857D01*
X190330833Y-68111714D01*
X190283214Y-68206952D01*
X190235595Y-68254571D01*
X190140357Y-68302190D01*
X189759404Y-68302190D01*
X190664166Y-67778380D02*
X191283214Y-67778380D01*
X190949880Y-68159333D01*
X191092738Y-68159333D01*
X191187976Y-68206952D01*
X191235595Y-68254571D01*
X191283214Y-68349809D01*
X191283214Y-68587904D01*
X191235595Y-68683142D01*
X191187976Y-68730761D01*
X191092738Y-68778380D01*
X190807023Y-68778380D01*
X190711785Y-68730761D01*
X190664166Y-68683142D01*
X140664833Y-69531630D02*
X140331500Y-69055440D01*
X140093404Y-69531630D02*
X140093404Y-68531630D01*
X140474357Y-68531630D01*
X140569595Y-68579250D01*
X140617214Y-68626869D01*
X140664833Y-68722107D01*
X140664833Y-68864964D01*
X140617214Y-68960202D01*
X140569595Y-69007821D01*
X140474357Y-69055440D01*
X140093404Y-69055440D01*
X141617214Y-69531630D02*
X141045785Y-69531630D01*
X141331500Y-69531630D02*
X141331500Y-68531630D01*
X141236261Y-68674488D01*
X141141023Y-68769726D01*
X141045785Y-68817345D01*
X171116666Y-73620380D02*
X171116666Y-74334666D01*
X171069047Y-74477523D01*
X170973809Y-74572761D01*
X170830952Y-74620380D01*
X170735714Y-74620380D01*
X172069047Y-73620380D02*
X171592857Y-73620380D01*
X171545238Y-74096571D01*
X171592857Y-74048952D01*
X171688095Y-74001333D01*
X171926190Y-74001333D01*
X172021428Y-74048952D01*
X172069047Y-74096571D01*
X172116666Y-74191809D01*
X172116666Y-74429904D01*
X172069047Y-74525142D01*
X172021428Y-74572761D01*
X171926190Y-74620380D01*
X171688095Y-74620380D01*
X171592857Y-74572761D01*
X171545238Y-74525142D01*
X165828833Y-68297316D02*
X165495500Y-67821126D01*
X165257404Y-68297316D02*
X165257404Y-67297316D01*
X165638357Y-67297316D01*
X165733595Y-67344936D01*
X165781214Y-67392555D01*
X165828833Y-67487793D01*
X165828833Y-67630650D01*
X165781214Y-67725888D01*
X165733595Y-67773507D01*
X165638357Y-67821126D01*
X165257404Y-67821126D01*
X166209785Y-67392555D02*
X166257404Y-67344936D01*
X166352642Y-67297316D01*
X166590738Y-67297316D01*
X166685976Y-67344936D01*
X166733595Y-67392555D01*
X166781214Y-67487793D01*
X166781214Y-67583031D01*
X166733595Y-67725888D01*
X166162166Y-68297316D01*
X166781214Y-68297316D01*
X125392053Y-33025175D02*
X126029474Y-33025175D01*
X126104465Y-32987680D01*
X126141960Y-32950184D01*
X126179455Y-32875194D01*
X126179455Y-32725212D01*
X126141960Y-32650222D01*
X126104465Y-32612726D01*
X126029474Y-32575231D01*
X125392053Y-32575231D01*
X125392053Y-32275268D02*
X125392053Y-31787829D01*
X125692016Y-32050296D01*
X125692016Y-31937810D01*
X125729511Y-31862820D01*
X125767007Y-31825324D01*
X125841997Y-31787829D01*
X126029474Y-31787829D01*
X126104465Y-31825324D01*
X126141960Y-31862820D01*
X126179455Y-31937810D01*
X126179455Y-32162782D01*
X126141960Y-32237773D01*
X126104465Y-32275268D01*
X128815630Y-39410107D02*
X127815630Y-39410107D01*
X128815630Y-38933916D02*
X127815630Y-38933916D01*
X128815630Y-38362488D01*
X127815630Y-38362488D01*
X128434678Y-37886297D02*
X128434678Y-37124392D01*
X128815630Y-37505345D02*
X128053726Y-37505345D01*
X141007630Y-39410107D02*
X140007630Y-39410107D01*
X141007630Y-38933916D02*
X140007630Y-38933916D01*
X141007630Y-38362488D01*
X140007630Y-38362488D01*
X140626678Y-37886297D02*
X140626678Y-37124392D01*
X140007630Y-49538297D02*
X140007630Y-49347821D01*
X140055250Y-49252583D01*
X140150488Y-49157345D01*
X140340964Y-49109726D01*
X140674297Y-49109726D01*
X140864773Y-49157345D01*
X140960011Y-49252583D01*
X141007630Y-49347821D01*
X141007630Y-49538297D01*
X140960011Y-49633535D01*
X140864773Y-49728773D01*
X140674297Y-49776392D01*
X140340964Y-49776392D01*
X140150488Y-49728773D01*
X140055250Y-49633535D01*
X140007630Y-49538297D01*
X140007630Y-48681154D02*
X140817154Y-48681154D01*
X140912392Y-48633535D01*
X140960011Y-48585916D01*
X141007630Y-48490678D01*
X141007630Y-48300202D01*
X140960011Y-48204964D01*
X140912392Y-48157345D01*
X140817154Y-48109726D01*
X140007630Y-48109726D01*
X140007630Y-47776392D02*
X140007630Y-47204964D01*
X141007630Y-47490678D02*
X140007630Y-47490678D01*
X140626678Y-46871630D02*
X140626678Y-46109726D01*
X127815630Y-49792297D02*
X127815630Y-49601821D01*
X127863250Y-49506583D01*
X127958488Y-49411345D01*
X128148964Y-49363726D01*
X128482297Y-49363726D01*
X128672773Y-49411345D01*
X128768011Y-49506583D01*
X128815630Y-49601821D01*
X128815630Y-49792297D01*
X128768011Y-49887535D01*
X128672773Y-49982773D01*
X128482297Y-50030392D01*
X128148964Y-50030392D01*
X127958488Y-49982773D01*
X127863250Y-49887535D01*
X127815630Y-49792297D01*
X127815630Y-48935154D02*
X128625154Y-48935154D01*
X128720392Y-48887535D01*
X128768011Y-48839916D01*
X128815630Y-48744678D01*
X128815630Y-48554202D01*
X128768011Y-48458964D01*
X128720392Y-48411345D01*
X128625154Y-48363726D01*
X127815630Y-48363726D01*
X127815630Y-48030392D02*
X127815630Y-47458964D01*
X128815630Y-47744678D02*
X127815630Y-47744678D01*
X128434678Y-47125630D02*
X128434678Y-46363726D01*
X128815630Y-46744678D02*
X128053726Y-46744678D01*
X182578476Y-73620380D02*
X182578476Y-74334666D01*
X182530857Y-74477523D01*
X182435619Y-74572761D01*
X182292761Y-74620380D01*
X182197523Y-74620380D01*
X183578476Y-74620380D02*
X183007047Y-74620380D01*
X183292761Y-74620380D02*
X183292761Y-73620380D01*
X183197523Y-73763238D01*
X183102285Y-73858476D01*
X183007047Y-73906095D01*
X184197523Y-73620380D02*
X184292761Y-73620380D01*
X184388000Y-73668000D01*
X184435619Y-73715619D01*
X184483238Y-73810857D01*
X184530857Y-74001333D01*
X184530857Y-74239428D01*
X184483238Y-74429904D01*
X184435619Y-74525142D01*
X184388000Y-74572761D01*
X184292761Y-74620380D01*
X184197523Y-74620380D01*
X184102285Y-74572761D01*
X184054666Y-74525142D01*
X184007047Y-74429904D01*
X183959428Y-74239428D01*
X183959428Y-74001333D01*
X184007047Y-73810857D01*
X184054666Y-73715619D01*
X184102285Y-73668000D01*
X184197523Y-73620380D01*
X111178995Y-28009969D02*
X111178995Y-28343749D01*
X111703506Y-28343749D02*
X110702167Y-28343749D01*
X110702167Y-27866921D01*
X110797533Y-27533141D02*
X110749850Y-27485458D01*
X110702167Y-27390093D01*
X110702167Y-27151679D01*
X110749850Y-27056313D01*
X110797533Y-27008630D01*
X110892898Y-26960947D01*
X110988264Y-26960947D01*
X111131312Y-27008630D01*
X111703506Y-27580824D01*
X111703506Y-26960947D01*
X99930455Y-64351589D02*
X99930455Y-64685369D01*
X100454966Y-64685369D02*
X99453627Y-64685369D01*
X99453627Y-64208541D01*
X99453627Y-63922444D02*
X99453627Y-63254885D01*
X100454966Y-63684030D01*
X74530455Y-64351589D02*
X74530455Y-64685369D01*
X75054966Y-64685369D02*
X74053627Y-64685369D01*
X74053627Y-64208541D01*
X74053627Y-63350250D02*
X74053627Y-63827078D01*
X74530455Y-63874761D01*
X74482772Y-63827078D01*
X74435090Y-63731713D01*
X74435090Y-63493299D01*
X74482772Y-63397933D01*
X74530455Y-63350250D01*
X74625821Y-63302567D01*
X74864235Y-63302567D01*
X74959601Y-63350250D01*
X75007283Y-63397933D01*
X75054966Y-63493299D01*
X75054966Y-63731713D01*
X75007283Y-63827078D01*
X74959601Y-63874761D01*
X136600833Y-69182392D02*
X136553214Y-69230011D01*
X136410357Y-69277630D01*
X136315119Y-69277630D01*
X136172261Y-69230011D01*
X136077023Y-69134773D01*
X136029404Y-69039535D01*
X135981785Y-68849059D01*
X135981785Y-68706202D01*
X136029404Y-68515726D01*
X136077023Y-68420488D01*
X136172261Y-68325250D01*
X136315119Y-68277630D01*
X136410357Y-68277630D01*
X136553214Y-68325250D01*
X136600833Y-68372869D01*
X137553214Y-69277630D02*
X136981785Y-69277630D01*
X137267500Y-69277630D02*
X137267500Y-68277630D01*
X137172261Y-68420488D01*
X137077023Y-68515726D01*
X136981785Y-68563345D01*
X60194880Y-37373333D02*
X60909166Y-37373333D01*
X61052023Y-37420952D01*
X61147261Y-37516190D01*
X61194880Y-37659047D01*
X61194880Y-37754285D01*
X61194880Y-36373333D02*
X61194880Y-36944761D01*
X61194880Y-36659047D02*
X60194880Y-36659047D01*
X60337738Y-36754285D01*
X60432976Y-36849523D01*
X60480595Y-36944761D01*
X61830455Y-64351589D02*
X61830455Y-64685369D01*
X62354966Y-64685369D02*
X61353627Y-64685369D01*
X61353627Y-64208541D01*
X61687407Y-63397933D02*
X62354966Y-63397933D01*
X61305944Y-63636347D02*
X62021187Y-63874761D01*
X62021187Y-63254885D01*
X110994880Y-81073523D02*
X111709166Y-81073523D01*
X111852023Y-81121142D01*
X111947261Y-81216380D01*
X111994880Y-81359238D01*
X111994880Y-81454476D01*
X111994880Y-80073523D02*
X111994880Y-80644952D01*
X111994880Y-80359238D02*
X110994880Y-80359238D01*
X111137738Y-80454476D01*
X111232976Y-80549714D01*
X111280595Y-80644952D01*
X110994880Y-79216380D02*
X110994880Y-79406857D01*
X111042500Y-79502095D01*
X111090119Y-79549714D01*
X111232976Y-79644952D01*
X111423452Y-79692571D01*
X111804404Y-79692571D01*
X111899642Y-79644952D01*
X111947261Y-79597333D01*
X111994880Y-79502095D01*
X111994880Y-79311619D01*
X111947261Y-79216380D01*
X111899642Y-79168761D01*
X111804404Y-79121142D01*
X111566309Y-79121142D01*
X111471071Y-79168761D01*
X111423452Y-79216380D01*
X111375833Y-79311619D01*
X111375833Y-79502095D01*
X111423452Y-79597333D01*
X111471071Y-79644952D01*
X111566309Y-79692571D01*
X60194880Y-80597333D02*
X60909166Y-80597333D01*
X61052023Y-80644952D01*
X61147261Y-80740190D01*
X61194880Y-80883047D01*
X61194880Y-80978285D01*
X60290119Y-80168761D02*
X60242500Y-80121142D01*
X60194880Y-80025904D01*
X60194880Y-79787809D01*
X60242500Y-79692571D01*
X60290119Y-79644952D01*
X60385357Y-79597333D01*
X60480595Y-79597333D01*
X60623452Y-79644952D01*
X61194880Y-80216380D01*
X61194880Y-79597333D01*
X146986666Y-73620380D02*
X146986666Y-74334666D01*
X146939047Y-74477523D01*
X146843809Y-74572761D01*
X146700952Y-74620380D01*
X146605714Y-74620380D01*
X147367619Y-73620380D02*
X148034285Y-73620380D01*
X147605714Y-74620380D01*
X134286666Y-73620380D02*
X134286666Y-74334666D01*
X134239047Y-74477523D01*
X134143809Y-74572761D01*
X134000952Y-74620380D01*
X133905714Y-74620380D01*
X135191428Y-73620380D02*
X135000952Y-73620380D01*
X134905714Y-73668000D01*
X134858095Y-73715619D01*
X134762857Y-73858476D01*
X134715238Y-74048952D01*
X134715238Y-74429904D01*
X134762857Y-74525142D01*
X134810476Y-74572761D01*
X134905714Y-74620380D01*
X135096190Y-74620380D01*
X135191428Y-74572761D01*
X135239047Y-74525142D01*
X135286666Y-74429904D01*
X135286666Y-74191809D01*
X135239047Y-74096571D01*
X135191428Y-74048952D01*
X135096190Y-74001333D01*
X134905714Y-74001333D01*
X134810476Y-74048952D01*
X134762857Y-74096571D01*
X134715238Y-74191809D01*
X72894880Y-80597333D02*
X73609166Y-80597333D01*
X73752023Y-80644952D01*
X73847261Y-80740190D01*
X73894880Y-80883047D01*
X73894880Y-80978285D01*
X73323452Y-79978285D02*
X73275833Y-80073523D01*
X73228214Y-80121142D01*
X73132976Y-80168761D01*
X73085357Y-80168761D01*
X72990119Y-80121142D01*
X72942500Y-80073523D01*
X72894880Y-79978285D01*
X72894880Y-79787809D01*
X72942500Y-79692571D01*
X72990119Y-79644952D01*
X73085357Y-79597333D01*
X73132976Y-79597333D01*
X73228214Y-79644952D01*
X73275833Y-79692571D01*
X73323452Y-79787809D01*
X73323452Y-79978285D01*
X73371071Y-80073523D01*
X73418690Y-80121142D01*
X73513928Y-80168761D01*
X73704404Y-80168761D01*
X73799642Y-80121142D01*
X73847261Y-80073523D01*
X73894880Y-79978285D01*
X73894880Y-79787809D01*
X73847261Y-79692571D01*
X73799642Y-79644952D01*
X73704404Y-79597333D01*
X73513928Y-79597333D01*
X73418690Y-79644952D01*
X73371071Y-79692571D01*
X73323452Y-79787809D01*
X87230455Y-64351589D02*
X87230455Y-64685369D01*
X87754966Y-64685369D02*
X86753627Y-64685369D01*
X86753627Y-64208541D01*
X86753627Y-63397933D02*
X86753627Y-63588664D01*
X86801310Y-63684030D01*
X86848993Y-63731713D01*
X86992041Y-63827078D01*
X87182772Y-63874761D01*
X87564235Y-63874761D01*
X87659601Y-63827078D01*
X87707283Y-63779395D01*
X87754966Y-63684030D01*
X87754966Y-63493299D01*
X87707283Y-63397933D01*
X87659601Y-63350250D01*
X87564235Y-63302567D01*
X87325821Y-63302567D01*
X87230455Y-63350250D01*
X87182772Y-63397933D01*
X87135090Y-63493299D01*
X87135090Y-63684030D01*
X87182772Y-63779395D01*
X87230455Y-63827078D01*
X87325821Y-63874761D01*
X120068995Y-28009969D02*
X120068995Y-28343749D01*
X120593506Y-28343749D02*
X119592167Y-28343749D01*
X119592167Y-27866921D01*
X120593506Y-26960947D02*
X120593506Y-27533141D01*
X120593506Y-27247044D02*
X119592167Y-27247044D01*
X119735216Y-27342410D01*
X119830581Y-27437775D01*
X119878264Y-27533141D01*
D11*
X91296500Y-43542000D02*
X88946500Y-43542000D01*
X84476500Y-37786437D02*
X84476500Y-43542000D01*
X84476500Y-43542000D02*
X86826500Y-43542000D01*
X85540937Y-36722000D02*
X86826500Y-36722000D01*
X90232063Y-36722000D02*
X88946500Y-36722000D01*
X90232063Y-36722000D02*
X91296500Y-37786437D01*
X91296500Y-37786437D02*
X91296500Y-43542000D01*
X85540937Y-36722000D02*
X84476500Y-37786437D01*
X85540937Y-32112000D02*
X86826500Y-32112000D01*
X90232063Y-32112000D02*
X91296500Y-31047563D01*
X84476500Y-31047563D02*
X84476500Y-25292000D01*
X91296500Y-25292000D02*
X88946500Y-25292000D01*
X84476500Y-25292000D02*
X86826500Y-25292000D01*
X85540937Y-32112000D02*
X84476500Y-31047563D01*
X90232063Y-32112000D02*
X88946500Y-32112000D01*
X91296500Y-31047563D02*
X91296500Y-25292000D01*
X152848437Y-72244000D02*
X158604000Y-72244000D01*
X151784000Y-66488437D02*
X152848437Y-65424000D01*
X151784000Y-71179563D02*
X151784000Y-69894000D01*
X158604000Y-72244000D02*
X158604000Y-69894000D01*
X151784000Y-71179563D02*
X152848437Y-72244000D01*
X151784000Y-66488437D02*
X151784000Y-67774000D01*
X158604000Y-65424000D02*
X158604000Y-67774000D01*
X152848437Y-65424000D02*
X158604000Y-65424000D01*
X190457250Y-54278000D02*
X189586250Y-54278000D01*
X186665250Y-54278000D02*
X177521250Y-54278000D01*
D12*
X173457250Y-32180000D02*
X173457250Y-54180000D01*
D13*
X182347250Y-46150000D02*
X183617250Y-44880000D01*
D11*
X186792250Y-32180000D02*
X177394250Y-32180000D01*
X173457250Y-54278000D02*
X173457250Y-54180000D01*
X190457250Y-54278000D02*
X190457250Y-54180000D01*
D12*
X190457250Y-32180000D02*
X190457250Y-54180000D01*
D13*
X182347250Y-39800000D02*
X182347250Y-46150000D01*
D11*
X174473250Y-32180000D02*
X173457250Y-32180000D01*
X174600250Y-54278000D02*
X173457250Y-54278000D01*
X189586250Y-54278000D02*
X190457250Y-54278000D01*
D13*
X182347250Y-46150000D02*
X181077250Y-44880000D01*
D11*
X190457250Y-32180000D02*
X189713250Y-32180000D01*
X183382000Y-63110000D02*
X183382000Y-58810000D01*
X183382000Y-58810000D02*
X177682000Y-58810000D01*
X183382000Y-63110000D02*
X177682000Y-63110000D01*
D12*
X166327250Y-32434000D02*
X166327250Y-54434000D01*
D11*
X166327250Y-54532000D02*
X166327250Y-54434000D01*
X162662250Y-32434000D02*
X153264250Y-32434000D01*
D12*
X149327250Y-32434000D02*
X149327250Y-54434000D01*
D13*
X158217250Y-46404000D02*
X159487250Y-45134000D01*
D11*
X165456250Y-54532000D02*
X166327250Y-54532000D01*
X166327250Y-32434000D02*
X165583250Y-32434000D01*
D13*
X158217250Y-40054000D02*
X158217250Y-46404000D01*
D11*
X150343250Y-32434000D02*
X149327250Y-32434000D01*
X150470250Y-54532000D02*
X149327250Y-54532000D01*
D13*
X158217250Y-46404000D02*
X156947250Y-45134000D01*
D11*
X166327250Y-54532000D02*
X165456250Y-54532000D01*
X149327250Y-54532000D02*
X149327250Y-54434000D01*
X162535250Y-54532000D02*
X153391250Y-54532000D01*
X75576500Y-25152000D02*
X75576500Y-30852000D01*
X79876500Y-25152000D02*
X79876500Y-30852000D01*
X79876500Y-25152000D02*
X75576500Y-25152000D01*
X159134000Y-59064000D02*
X153434000Y-59064000D01*
X159134000Y-63364000D02*
X153434000Y-63364000D01*
X159134000Y-63364000D02*
X159134000Y-59064000D01*
X133451000Y-84930000D02*
X132951000Y-85180000D01*
X133451000Y-86880000D02*
X133451000Y-84980000D01*
X132951000Y-86630000D02*
X133451000Y-86880000D01*
X122601000Y-74980000D02*
X122601000Y-87580000D01*
X132951000Y-85180000D02*
X132951000Y-79780000D01*
X133451000Y-74980000D02*
X122601000Y-74980000D01*
X132951000Y-87580000D02*
X132951000Y-86630000D01*
X133451000Y-84980000D02*
X133451000Y-84930000D01*
X132951000Y-79780000D02*
X133451000Y-80080000D01*
X122601000Y-87580000D02*
X132951000Y-87580000D01*
X133451000Y-80080000D02*
X133451000Y-74980000D01*
X140270000Y-62205250D02*
X140270000Y-59345250D01*
X138350000Y-59345250D02*
X138350000Y-62205250D01*
X140270000Y-59345250D02*
X138350000Y-59345250D01*
X135240000Y-59055250D02*
X129540000Y-59055250D01*
X135240000Y-63355250D02*
X135240000Y-59055250D01*
X135240000Y-63355250D02*
X129540000Y-63355250D01*
X169781000Y-79780000D02*
X170281000Y-80080000D01*
X170281000Y-86880000D02*
X170281000Y-84980000D01*
X170281000Y-84930000D02*
X169781000Y-85180000D01*
X169781000Y-86630000D02*
X170281000Y-86880000D01*
X169781000Y-87580000D02*
X169781000Y-86630000D01*
X159431000Y-74980000D02*
X159431000Y-87580000D01*
X159431000Y-87580000D02*
X169781000Y-87580000D01*
X170281000Y-84980000D02*
X170281000Y-84930000D01*
X169781000Y-85180000D02*
X169781000Y-79780000D01*
X170281000Y-80080000D02*
X170281000Y-74980000D01*
X170281000Y-74980000D02*
X159431000Y-74980000D01*
X175914000Y-66234437D02*
X176978437Y-65170000D01*
X175914000Y-70925563D02*
X175914000Y-69640000D01*
X182734000Y-65170000D02*
X182734000Y-67520000D01*
X176978437Y-65170000D02*
X182734000Y-65170000D01*
X182734000Y-71990000D02*
X182734000Y-69640000D01*
X175914000Y-66234437D02*
X175914000Y-67520000D01*
X176978437Y-71990000D02*
X182734000Y-71990000D01*
X175914000Y-70925563D02*
X176978437Y-71990000D01*
X108292500Y-85264000D02*
X108292500Y-72414000D01*
X102542500Y-88114000D02*
X105692500Y-88114000D01*
X99992500Y-72414000D02*
X99992500Y-85264000D01*
X105692500Y-88114000D02*
X108292500Y-85264000D01*
X108292500Y-72414000D02*
X99992500Y-72414000D01*
X99992500Y-85264000D02*
X102542500Y-88114000D01*
X80072063Y-36722000D02*
X81136500Y-37786437D01*
X75380937Y-36722000D02*
X76666500Y-36722000D01*
X81136500Y-43542000D02*
X78786500Y-43542000D01*
X74316500Y-37786437D02*
X74316500Y-43542000D01*
X81136500Y-37786437D02*
X81136500Y-43542000D01*
X74316500Y-43542000D02*
X76666500Y-43542000D01*
X80072063Y-36722000D02*
X78786500Y-36722000D01*
X75380937Y-36722000D02*
X74316500Y-37786437D01*
X186997500Y-61910000D02*
X186997500Y-64770000D01*
X188917500Y-64770000D02*
X188917500Y-61910000D01*
X188917500Y-61910000D02*
X186997500Y-61910000D01*
X87292500Y-72414000D02*
X87292500Y-85264000D01*
X95592500Y-85264000D02*
X95592500Y-72414000D01*
X95592500Y-72414000D02*
X87292500Y-72414000D01*
X89842500Y-88114000D02*
X92992500Y-88114000D01*
X92992500Y-88114000D02*
X95592500Y-85264000D01*
X87292500Y-85264000D02*
X89842500Y-88114000D01*
X164415500Y-64500000D02*
X164415500Y-61640000D01*
X162495500Y-61640000D02*
X162495500Y-64500000D01*
X164415500Y-61640000D02*
X162495500Y-61640000D01*
D12*
X94347000Y-44195000D02*
X101077000Y-44195000D01*
X101077000Y-24385000D02*
X94347000Y-24385000D01*
X101077000Y-44195000D02*
X101077000Y-24385000D01*
X94347000Y-24385000D02*
X94347000Y-44195000D01*
X113477500Y-67309000D02*
X120207500Y-67309000D01*
X120207500Y-47499000D02*
X113477500Y-47499000D01*
X113477500Y-47499000D02*
X113477500Y-67309000D01*
X120207500Y-67309000D02*
X120207500Y-47499000D01*
D11*
X188692500Y-69077064D02*
X188692500Y-68622936D01*
X187222500Y-69077064D02*
X187222500Y-68622936D01*
X140045000Y-66512314D02*
X140045000Y-66058186D01*
X138575000Y-66512314D02*
X138575000Y-66058186D01*
X182444000Y-84930000D02*
X181944000Y-85180000D01*
X182444000Y-84980000D02*
X182444000Y-84930000D01*
X181944000Y-79780000D02*
X182444000Y-80080000D01*
X181944000Y-86630000D02*
X182444000Y-86880000D01*
X182444000Y-74980000D02*
X171594000Y-74980000D01*
X181944000Y-85180000D02*
X181944000Y-79780000D01*
X182444000Y-80080000D02*
X182444000Y-74980000D01*
X171594000Y-87580000D02*
X181944000Y-87580000D01*
X181944000Y-87580000D02*
X181944000Y-86630000D01*
X171594000Y-74980000D02*
X171594000Y-87580000D01*
X182444000Y-86880000D02*
X182444000Y-84980000D01*
X162720500Y-68807064D02*
X162720500Y-68352936D01*
X164190500Y-68807064D02*
X164190500Y-68352936D01*
D13*
X134713250Y-46395250D02*
X135983250Y-45125250D01*
X134713250Y-46395250D02*
X133443250Y-45125250D01*
D11*
X141952250Y-54523250D02*
X142823250Y-54523250D01*
X139031250Y-54523250D02*
X129887250Y-54523250D01*
D13*
X134713250Y-40045250D02*
X134713250Y-46395250D01*
D11*
X142823250Y-54523250D02*
X142823250Y-54425250D01*
X142823250Y-54523250D02*
X141952250Y-54523250D01*
X126966250Y-54523250D02*
X125823250Y-54523250D01*
D12*
X142823250Y-32425250D02*
X142823250Y-54425250D01*
D11*
X139158250Y-32425250D02*
X129760250Y-32425250D01*
X142823250Y-32425250D02*
X142079250Y-32425250D01*
D12*
X125823250Y-32425250D02*
X125823250Y-54425250D01*
D11*
X125823250Y-54523250D02*
X125823250Y-54425250D01*
X126839250Y-32425250D02*
X125823250Y-32425250D01*
X184069000Y-74980000D02*
X184069000Y-87580000D01*
X194919000Y-84930000D02*
X194419000Y-85180000D01*
X194419000Y-86630000D02*
X194919000Y-86880000D01*
X194919000Y-74980000D02*
X184069000Y-74980000D01*
X194419000Y-87580000D02*
X194419000Y-86630000D01*
X194419000Y-85180000D02*
X194419000Y-79780000D01*
X194919000Y-80080000D02*
X194919000Y-74980000D01*
X194919000Y-86880000D02*
X194919000Y-84980000D01*
X194419000Y-79780000D02*
X194919000Y-80080000D01*
X194919000Y-84980000D02*
X194919000Y-84930000D01*
X184069000Y-87580000D02*
X194419000Y-87580000D01*
D12*
X103745000Y-24385000D02*
X103745000Y-44195000D01*
X103745000Y-44195000D02*
X110475000Y-44195000D01*
X110475000Y-44195000D02*
X110475000Y-24385000D01*
X110475000Y-24385000D02*
X103745000Y-24385000D01*
X100777500Y-67309000D02*
X107507500Y-67309000D01*
X100777500Y-47499000D02*
X100777500Y-67309000D01*
X107507500Y-67309000D02*
X107507500Y-47499000D01*
X107507500Y-47499000D02*
X100777500Y-47499000D01*
X75377500Y-47499000D02*
X75377500Y-67309000D01*
X75377500Y-67309000D02*
X82107500Y-67309000D01*
X82107500Y-47499000D02*
X75377500Y-47499000D01*
X82107500Y-67309000D02*
X82107500Y-47499000D01*
D11*
X134450000Y-66065250D02*
X134450000Y-67765250D01*
X128930000Y-67129687D02*
X129994437Y-66065250D01*
X128930000Y-70520813D02*
X129994437Y-71585250D01*
X134450000Y-71585250D02*
X134450000Y-69885250D01*
X128930000Y-67129687D02*
X128930000Y-67765250D01*
X129994437Y-66065250D02*
X134450000Y-66065250D01*
X128930000Y-70520813D02*
X128930000Y-69885250D01*
X129994437Y-71585250D02*
X134450000Y-71585250D01*
X61892500Y-29190000D02*
X61892500Y-42040000D01*
X61892500Y-42040000D02*
X64442500Y-44890000D01*
X70192500Y-29190000D02*
X61892500Y-29190000D01*
X70192500Y-42040000D02*
X70192500Y-29190000D01*
X67592500Y-44890000D02*
X70192500Y-42040000D01*
X64442500Y-44890000D02*
X67592500Y-44890000D01*
D12*
X62677500Y-67309000D02*
X69407500Y-67309000D01*
X69407500Y-47499000D02*
X62677500Y-47499000D01*
X69407500Y-67309000D02*
X69407500Y-47499000D01*
X62677500Y-47499000D02*
X62677500Y-67309000D01*
D11*
X120992500Y-72414000D02*
X112692500Y-72414000D01*
X120992500Y-85264000D02*
X120992500Y-72414000D01*
X112692500Y-85264000D02*
X115242500Y-88114000D01*
X118392500Y-88114000D02*
X120992500Y-85264000D01*
X112692500Y-72414000D02*
X112692500Y-85264000D01*
X115242500Y-88114000D02*
X118392500Y-88114000D01*
X61892500Y-85264000D02*
X64442500Y-88114000D01*
X67592500Y-88114000D02*
X70192500Y-85264000D01*
X61892500Y-72414000D02*
X61892500Y-85264000D01*
X70192500Y-72414000D02*
X61892500Y-72414000D01*
X70192500Y-85264000D02*
X70192500Y-72414000D01*
X64442500Y-88114000D02*
X67592500Y-88114000D01*
X157589000Y-87580000D02*
X157589000Y-86630000D01*
X158089000Y-84930000D02*
X157589000Y-85180000D01*
X158089000Y-84980000D02*
X158089000Y-84930000D01*
X147239000Y-87580000D02*
X157589000Y-87580000D01*
X158089000Y-86880000D02*
X158089000Y-84980000D01*
X158089000Y-80080000D02*
X158089000Y-74980000D01*
X157589000Y-85180000D02*
X157589000Y-79780000D01*
X158089000Y-74980000D02*
X147239000Y-74980000D01*
X147239000Y-74980000D02*
X147239000Y-87580000D01*
X157589000Y-86630000D02*
X158089000Y-86880000D01*
X157589000Y-79780000D02*
X158089000Y-80080000D01*
X145389000Y-84980000D02*
X145389000Y-84930000D01*
X144889000Y-79780000D02*
X145389000Y-80080000D01*
X134539000Y-87580000D02*
X144889000Y-87580000D01*
X144889000Y-86630000D02*
X145389000Y-86880000D01*
X134539000Y-74980000D02*
X134539000Y-87580000D01*
X144889000Y-85180000D02*
X144889000Y-79780000D01*
X144889000Y-87580000D02*
X144889000Y-86630000D01*
X145389000Y-86880000D02*
X145389000Y-84980000D01*
X145389000Y-84930000D02*
X144889000Y-85180000D01*
X145389000Y-80080000D02*
X145389000Y-74980000D01*
X145389000Y-74980000D02*
X134539000Y-74980000D01*
X74592500Y-72414000D02*
X74592500Y-85264000D01*
X82892500Y-85264000D02*
X82892500Y-72414000D01*
X77142500Y-88114000D02*
X80292500Y-88114000D01*
X80292500Y-88114000D02*
X82892500Y-85264000D01*
X74592500Y-85264000D02*
X77142500Y-88114000D01*
X82892500Y-72414000D02*
X74592500Y-72414000D01*
D12*
X88077500Y-47499000D02*
X88077500Y-67309000D01*
X88077500Y-67309000D02*
X94807500Y-67309000D01*
X94807500Y-47499000D02*
X88077500Y-47499000D01*
X94807500Y-67309000D02*
X94807500Y-47499000D01*
X112635000Y-44195000D02*
X119365000Y-44195000D01*
X112635000Y-24385000D02*
X112635000Y-44195000D01*
X119365000Y-24385000D02*
X112635000Y-24385000D01*
X119365000Y-44195000D02*
X119365000Y-24385000D01*
G36*
X182599263Y-30737331D02*
G01*
X182600808Y-30835582D01*
X182611416Y-30906393D01*
X182640042Y-30954259D01*
X182695646Y-30983672D01*
X182787185Y-30999125D01*
X182923615Y-31005112D01*
X183113896Y-31006126D01*
X183135120Y-31006127D01*
X183349894Y-31003778D01*
X183504288Y-30996575D01*
X183601413Y-30984285D01*
X183643273Y-30967883D01*
X183664996Y-30915953D01*
X183678832Y-30824881D01*
X183681469Y-30760731D01*
X183681469Y-30591823D01*
X184095253Y-30591823D01*
X184095253Y-31227576D01*
X184001345Y-31276199D01*
X183960051Y-31292015D01*
X183899721Y-31304142D01*
X183812511Y-31313018D01*
X183690574Y-31319080D01*
X183526066Y-31322766D01*
X183311142Y-31324516D01*
X183130324Y-31324822D01*
X182887157Y-31324564D01*
X182699370Y-31323365D01*
X182558684Y-31320592D01*
X182456821Y-31315609D01*
X182385504Y-31307781D01*
X182336452Y-31296473D01*
X182301388Y-31281049D01*
X182272034Y-31260874D01*
X182269345Y-31258770D01*
X182230147Y-31224240D01*
X182205550Y-31185803D01*
X182192166Y-31128647D01*
X182186606Y-31037963D01*
X182185480Y-30898939D01*
X182185479Y-30892270D01*
X182185479Y-30591823D01*
X182599263Y-30591823D01*
X182599263Y-30737331D01*
G37*
G36*
X181867707Y-28950670D02*
G01*
X181869852Y-28951130D01*
X181962672Y-28971542D01*
X181962672Y-29667607D01*
X181548887Y-29667607D01*
X181548887Y-28973572D01*
X181662959Y-28952145D01*
X181769230Y-28943017D01*
X181867707Y-28950670D01*
G37*
G36*
X173305524Y-28329501D02*
G01*
X173510997Y-28332058D01*
X173666646Y-28338736D01*
X173779389Y-28351513D01*
X173856142Y-28372366D01*
X173903824Y-28403271D01*
X173929351Y-28446207D01*
X173939642Y-28503149D01*
X173941613Y-28576077D01*
X173941619Y-28585851D01*
X173941619Y-28743391D01*
X173738132Y-28743391D01*
X173616394Y-28738915D01*
X173546301Y-28723835D01*
X173516358Y-28695674D01*
X173516324Y-28695587D01*
X173497364Y-28675013D01*
X173452499Y-28661093D01*
X173371834Y-28652683D01*
X173245476Y-28648641D01*
X173102540Y-28647783D01*
X172931830Y-28649122D01*
X172814842Y-28653900D01*
X172741684Y-28663261D01*
X172702459Y-28678349D01*
X172688755Y-28695587D01*
X172657290Y-28724655D01*
X172583711Y-28739708D01*
X172478458Y-28743391D01*
X172286481Y-28743391D01*
X172286481Y-28329088D01*
X173043309Y-28329088D01*
X173305524Y-28329501D01*
G37*
G36*
X181007785Y-29975148D02*
G01*
X181061130Y-29989211D01*
X181089649Y-30015215D01*
X181101107Y-30069941D01*
X181103269Y-30170169D01*
X181103273Y-30181503D01*
X181103273Y-30368736D01*
X180721318Y-30368736D01*
X180721318Y-30181503D01*
X180723043Y-30076559D01*
X180733392Y-30018567D01*
X180760132Y-29990745D01*
X180811027Y-29976313D01*
X180816807Y-29975148D01*
X180922739Y-29967340D01*
X181007785Y-29975148D01*
G37*
G36*
X186483847Y-25808690D02*
G01*
X186601314Y-25833241D01*
X186652073Y-25845518D01*
X186920822Y-25913007D01*
X186948326Y-26217539D01*
X186962772Y-26361451D01*
X186977775Y-26456326D01*
X186997788Y-26516747D01*
X187027261Y-26557296D01*
X187060545Y-26585155D01*
X187145261Y-26648239D01*
X187418719Y-26498990D01*
X187692176Y-26349741D01*
X187869884Y-26518021D01*
X187981911Y-26626021D01*
X188050826Y-26705794D01*
X188079492Y-26773198D01*
X188070774Y-26844092D01*
X188027536Y-26934336D01*
X187964259Y-27040611D01*
X187898841Y-27153049D01*
X187848775Y-27247768D01*
X187821855Y-27309651D01*
X187819313Y-27321675D01*
X187839500Y-27371609D01*
X187888942Y-27438675D01*
X187897368Y-27448023D01*
X187950386Y-27495917D01*
X188010861Y-27522046D01*
X188100428Y-27533207D01*
X188175876Y-27535527D01*
X188329480Y-27540112D01*
X188432784Y-27554298D01*
X188499146Y-27587438D01*
X188541925Y-27648887D01*
X188574479Y-27747999D01*
X188594471Y-27828644D01*
X188620277Y-27950764D01*
X188635413Y-28052239D01*
X188637274Y-28114593D01*
X188635687Y-28121115D01*
X188600363Y-28156352D01*
X188522374Y-28208681D01*
X188416761Y-28268284D01*
X188385717Y-28284223D01*
X188257191Y-28350793D01*
X188175663Y-28401478D01*
X188130455Y-28447381D01*
X188110894Y-28499603D01*
X188106303Y-28569244D01*
X188106267Y-28574822D01*
X188111597Y-28627740D01*
X188134678Y-28675341D01*
X188185302Y-28729092D01*
X188273259Y-28800464D01*
X188344501Y-28853908D01*
X188448601Y-28935084D01*
X188529419Y-29005906D01*
X188575514Y-29055948D01*
X188581963Y-29070282D01*
X188570272Y-29117659D01*
X188540587Y-29206074D01*
X188498994Y-29317559D01*
X188492964Y-29332977D01*
X188405226Y-29556064D01*
X187790284Y-29537260D01*
X187707929Y-29661862D01*
X187625574Y-29786465D01*
X187722444Y-30030626D01*
X187767555Y-30149554D01*
X187801469Y-30248911D01*
X187818403Y-30311428D01*
X187819313Y-30319899D01*
X187795100Y-30360360D01*
X187732697Y-30423114D01*
X187647460Y-30495982D01*
X187554746Y-30566787D01*
X187469909Y-30623348D01*
X187408306Y-30653487D01*
X187396089Y-30655562D01*
X187350776Y-30636670D01*
X187271974Y-30586574D01*
X187174871Y-30515146D01*
X187150892Y-30496214D01*
X187035670Y-30408164D01*
X186950364Y-30358515D01*
X186877842Y-30342735D01*
X186800972Y-30356288D01*
X186727397Y-30384130D01*
X186669578Y-30410893D01*
X186629988Y-30442271D01*
X186601880Y-30491722D01*
X186578507Y-30572702D01*
X186553121Y-30698671D01*
X186543381Y-30751171D01*
X186514439Y-30888079D01*
X186483392Y-30973357D01*
X186441697Y-31018785D01*
X186380806Y-31036144D01*
X186335341Y-31037996D01*
X186227835Y-31037996D01*
X186227835Y-29958956D01*
X186409495Y-29906079D01*
X186669284Y-29810170D01*
X186891075Y-29680321D01*
X187097023Y-29503465D01*
X187104307Y-29496172D01*
X187304291Y-29252690D01*
X187446984Y-28985715D01*
X187531350Y-28701587D01*
X187556354Y-28406646D01*
X187520962Y-28107230D01*
X187424138Y-27809681D01*
X187391288Y-27738523D01*
X187228356Y-27474505D01*
X187022507Y-27255110D01*
X186779533Y-27083923D01*
X186505229Y-26964532D01*
X186205388Y-26900523D01*
X186020943Y-26890186D01*
X185714811Y-26915966D01*
X185439469Y-26995480D01*
X185188095Y-27131671D01*
X184953868Y-27327486D01*
X184914401Y-27367821D01*
X184822553Y-27476530D01*
X184730834Y-27605775D01*
X184648255Y-27740277D01*
X184583825Y-27864754D01*
X184546554Y-27963925D01*
X184540892Y-28001304D01*
X184515852Y-28045817D01*
X184479301Y-28073010D01*
X184427176Y-28084217D01*
X184326010Y-28093332D01*
X184190397Y-28100158D01*
X184034925Y-28104494D01*
X183874186Y-28106143D01*
X183722773Y-28104906D01*
X183595274Y-28100584D01*
X183506283Y-28092978D01*
X183477180Y-28086657D01*
X183438267Y-28040982D01*
X183426832Y-27974325D01*
X183432793Y-27920961D01*
X183457539Y-27881693D01*
X183511362Y-27851433D01*
X183604556Y-27825094D01*
X183747415Y-27797585D01*
X183803870Y-27787945D01*
X183924833Y-27765830D01*
X183998877Y-27744190D01*
X184042111Y-27714553D01*
X184070644Y-27668452D01*
X184082379Y-27641524D01*
X184112918Y-27557309D01*
X184120686Y-27487883D01*
X184101300Y-27417182D01*
X184050373Y-27329141D01*
X183964242Y-27208667D01*
X183801401Y-26988731D01*
X183885114Y-26870139D01*
X183962943Y-26764772D01*
X184046980Y-26657765D01*
X184060845Y-26640914D01*
X184152863Y-26530281D01*
X184402567Y-26633204D01*
X184552563Y-26691855D01*
X184659699Y-26723419D01*
X184738145Y-26729131D01*
X184802071Y-26710224D01*
X184859163Y-26672979D01*
X184895960Y-26640694D01*
X184919238Y-26602876D01*
X184932075Y-26545197D01*
X184937549Y-26453326D01*
X184938735Y-26312934D01*
X184938737Y-26302406D01*
X184938737Y-25993049D01*
X185159787Y-25918157D01*
X185275574Y-25881219D01*
X185372327Y-25854466D01*
X185430298Y-25843321D01*
X185432453Y-25843266D01*
X185472489Y-25867992D01*
X185536302Y-25934195D01*
X185612969Y-26029917D01*
X185650744Y-26082287D01*
X185732414Y-26196404D01*
X185791098Y-26267190D01*
X185838443Y-26304796D01*
X185886094Y-26319372D01*
X185924971Y-26321309D01*
X185991828Y-26312726D01*
X186049544Y-26280774D01*
X186106711Y-26216142D01*
X186171920Y-26109522D01*
X186239062Y-25980967D01*
X186289214Y-25888083D01*
X186332192Y-25820204D01*
X186352718Y-25796968D01*
X186395621Y-25795730D01*
X186483847Y-25808690D01*
G37*
G36*
X175656425Y-26228397D02*
G01*
X175704391Y-26239703D01*
X175715372Y-26264444D01*
X175711719Y-26281472D01*
X175692314Y-26351973D01*
X175663583Y-26463087D01*
X175628721Y-26601701D01*
X175590924Y-26754703D01*
X175553385Y-26908981D01*
X175519301Y-27051422D01*
X175491866Y-27168914D01*
X175474276Y-27248344D01*
X175469439Y-27275773D01*
X175497414Y-27297907D01*
X175566205Y-27308973D01*
X175580842Y-27309263D01*
X175651133Y-27314446D01*
X175684835Y-27339507D01*
X175688923Y-27398719D01*
X175672352Y-27496497D01*
X175656755Y-27554940D01*
X175628251Y-27584432D01*
X175568606Y-27594851D01*
X175488457Y-27596089D01*
X175360803Y-27584428D01*
X175264759Y-27553125D01*
X175251705Y-27545069D01*
X175198794Y-27502244D01*
X175163101Y-27453990D01*
X175144629Y-27391211D01*
X175143378Y-27304809D01*
X175159353Y-27185685D01*
X175192554Y-27024742D01*
X175242986Y-26812882D01*
X175251902Y-26776692D01*
X175388023Y-26225700D01*
X175558194Y-26225700D01*
X175656425Y-26228397D01*
G37*
G36*
X173935678Y-29070054D02*
G01*
X173913984Y-29150424D01*
X173856005Y-29206773D01*
X173814301Y-29230183D01*
X173745936Y-29274731D01*
X173713349Y-29315771D01*
X173713110Y-29324597D01*
X173736533Y-29369652D01*
X173786238Y-29446142D01*
X173831788Y-29510405D01*
X173886909Y-29593274D01*
X173917873Y-29655405D01*
X173919717Y-29678914D01*
X173876790Y-29690929D01*
X173792335Y-29697315D01*
X173688218Y-29698263D01*
X173586302Y-29693962D01*
X173508453Y-29684603D01*
X173479909Y-29675087D01*
X173445984Y-29639178D01*
X173387089Y-29566936D01*
X173315639Y-29473619D01*
X173311773Y-29468423D01*
X173175647Y-29285173D01*
X172700266Y-29285173D01*
X172700266Y-29472980D01*
X172695473Y-29588170D01*
X172678994Y-29653167D01*
X172649918Y-29680132D01*
X172583992Y-29693284D01*
X172491630Y-29698743D01*
X172397866Y-29696647D01*
X172327732Y-29687136D01*
X172307701Y-29678230D01*
X172299060Y-29639475D01*
X172292114Y-29551033D01*
X172287678Y-29426951D01*
X172286481Y-29311731D01*
X172286481Y-28966478D01*
X173945653Y-28966478D01*
X173935678Y-29070054D01*
G37*
G36*
X179386027Y-29957130D02*
G01*
X179644891Y-29960143D01*
X179879287Y-29963873D01*
X180058457Y-29968048D01*
X180190835Y-29973428D01*
X180284854Y-29980772D01*
X180348948Y-29990842D01*
X180391549Y-30004398D01*
X180421090Y-30022200D01*
X180431580Y-30031079D01*
X180480967Y-30103218D01*
X180498255Y-30210557D01*
X180498511Y-30230263D01*
X180498511Y-30368736D01*
X179564844Y-30368736D01*
X179327149Y-30368039D01*
X179110325Y-30366065D01*
X178922482Y-30362996D01*
X178771727Y-30359013D01*
X178666169Y-30354296D01*
X178613915Y-30349024D01*
X178609957Y-30347490D01*
X178588471Y-30288545D01*
X178591436Y-30200323D01*
X178615025Y-30110654D01*
X178650621Y-30051819D01*
X178687661Y-30020807D01*
X178734502Y-29996811D01*
X178798869Y-29979117D01*
X178888482Y-29967014D01*
X179011065Y-29959790D01*
X179174339Y-29956733D01*
X179386027Y-29957130D01*
G37*
G36*
X174578211Y-29142549D02*
G01*
X174580962Y-29245088D01*
X174594469Y-29302818D01*
X174626617Y-29334600D01*
X174665742Y-29352013D01*
X174733968Y-29364840D01*
X174851852Y-29373313D01*
X175005501Y-29376785D01*
X175161734Y-29375126D01*
X175350148Y-29368394D01*
X175484123Y-29355863D01*
X175572874Y-29332519D01*
X175625615Y-29293349D01*
X175651561Y-29233339D01*
X175659928Y-29147475D01*
X175660416Y-29103800D01*
X175660416Y-28966478D01*
X176074201Y-28966478D01*
X176074201Y-29247212D01*
X176070069Y-29410208D01*
X176053743Y-29521738D01*
X176019326Y-29593764D01*
X175960921Y-29638246D01*
X175872631Y-29667146D01*
X175866456Y-29668599D01*
X175791800Y-29678176D01*
X175667690Y-29685622D01*
X175506317Y-29690950D01*
X175319874Y-29694172D01*
X175120555Y-29695299D01*
X174920553Y-29694344D01*
X174732060Y-29691319D01*
X174567268Y-29686237D01*
X174438372Y-29679109D01*
X174357564Y-29669948D01*
X174345411Y-29667079D01*
X174265401Y-29638387D01*
X174213163Y-29601260D01*
X174182843Y-29542698D01*
X174168585Y-29449703D01*
X174164531Y-29309276D01*
X174164426Y-29265336D01*
X174164426Y-28966478D01*
X174578211Y-28966478D01*
X174578211Y-29142549D01*
G37*
G36*
X183392398Y-28329666D02*
G01*
X183610064Y-28332664D01*
X183777344Y-28339974D01*
X183900875Y-28353492D01*
X183987291Y-28375110D01*
X184043229Y-28406724D01*
X184075325Y-28450226D01*
X184090214Y-28507510D01*
X184094531Y-28580471D01*
X184094766Y-28607946D01*
X184095253Y-28743391D01*
X182185479Y-28743391D01*
X182185479Y-28585851D01*
X182186755Y-28512129D01*
X182195112Y-28454070D01*
X182217339Y-28409803D01*
X182260229Y-28377459D01*
X182330572Y-28355166D01*
X182435159Y-28341055D01*
X182580782Y-28333254D01*
X182774231Y-28329894D01*
X183022299Y-28329103D01*
X183117711Y-28329088D01*
X183392398Y-28329666D01*
G37*
G36*
X172594321Y-26610264D02*
G01*
X172631414Y-26478852D01*
X172659996Y-26389157D01*
X172673884Y-26356287D01*
X172716493Y-26305499D01*
X172777676Y-26269300D01*
X172867521Y-26245488D01*
X172996118Y-26231863D01*
X173173555Y-26226221D01*
X173272254Y-26225700D01*
X173441505Y-26226310D01*
X173559945Y-26229532D01*
X173640417Y-26237452D01*
X173695767Y-26252158D01*
X173738840Y-26275736D01*
X173780029Y-26308207D01*
X173840242Y-26374487D01*
X173871920Y-26455430D01*
X173876349Y-26563525D01*
X173854812Y-26711258D01*
X173832152Y-26814835D01*
X173798595Y-26937708D01*
X173757730Y-27026402D01*
X173699337Y-27086413D01*
X173613193Y-27123236D01*
X173489081Y-27142368D01*
X173316778Y-27149304D01*
X173208991Y-27149916D01*
X172798208Y-27149916D01*
X172765601Y-27271163D01*
X172737763Y-27381802D01*
X172714068Y-27487248D01*
X172712651Y-27494249D01*
X172697584Y-27552766D01*
X172670862Y-27583051D01*
X172614827Y-27594394D01*
X172519080Y-27596089D01*
X172419777Y-27593496D01*
X172370848Y-27582574D01*
X172359109Y-27558611D01*
X172363051Y-27540317D01*
X172375903Y-27491892D01*
X172400660Y-27392912D01*
X172434508Y-27254835D01*
X172474633Y-27089117D01*
X172507635Y-26951573D01*
X172537307Y-26831221D01*
X172868245Y-26831221D01*
X173179980Y-26831221D01*
X173325525Y-26829829D01*
X173419350Y-26824301D01*
X173473359Y-26812605D01*
X173499456Y-26792709D01*
X173506817Y-26775449D01*
X173525238Y-26701850D01*
X173541398Y-26632036D01*
X173560877Y-26544395D01*
X172933798Y-26544395D01*
X172901022Y-26687808D01*
X172868245Y-26831221D01*
X172537307Y-26831221D01*
X172551975Y-26771726D01*
X172594321Y-26610264D01*
G37*
G36*
X185396892Y-28329961D02*
G01*
X185590829Y-28333046D01*
X185735523Y-28341047D01*
X185838180Y-28356199D01*
X185906008Y-28380735D01*
X185946214Y-28416891D01*
X185966005Y-28466900D01*
X185972588Y-28532996D01*
X185973198Y-28585851D01*
X185973198Y-28743391D01*
X185754288Y-28743391D01*
X185616320Y-28737762D01*
X185531460Y-28719684D01*
X185495755Y-28695587D01*
X185461861Y-28673022D01*
X185397802Y-28658430D01*
X185292876Y-28650473D01*
X185136381Y-28647810D01*
X185113800Y-28647783D01*
X184950449Y-28649904D01*
X184839942Y-28657160D01*
X184771577Y-28670892D01*
X184734651Y-28692437D01*
X184731845Y-28695587D01*
X184677849Y-28726070D01*
X184574596Y-28741109D01*
X184487562Y-28743391D01*
X184282904Y-28743391D01*
X184292525Y-28576851D01*
X184298653Y-28502627D01*
X184312275Y-28445005D01*
X184340664Y-28401877D01*
X184391099Y-28371137D01*
X184470855Y-28350678D01*
X184587208Y-28338393D01*
X184747435Y-28332174D01*
X184958811Y-28329915D01*
X185146504Y-28329558D01*
X185396892Y-28329961D01*
G37*
G36*
X184985591Y-29958932D02*
G01*
X185089866Y-29960238D01*
X185329430Y-29963848D01*
X185513574Y-29967853D01*
X185650533Y-29972968D01*
X185748547Y-29979909D01*
X185815853Y-29989391D01*
X185860688Y-30002127D01*
X185891289Y-30018834D01*
X185906265Y-30031079D01*
X185955652Y-30103214D01*
X185972941Y-30210546D01*
X185973198Y-30230263D01*
X185973198Y-30368736D01*
X185774263Y-30367723D01*
X185634340Y-30358243D01*
X185536758Y-30333177D01*
X185513543Y-30319919D01*
X185453202Y-30297270D01*
X185350937Y-30281260D01*
X185221998Y-30271867D01*
X185081631Y-30269073D01*
X184945085Y-30272859D01*
X184827609Y-30283205D01*
X184744450Y-30300092D01*
X184711526Y-30320932D01*
X184669791Y-30351512D01*
X184588081Y-30368437D01*
X184488566Y-30371849D01*
X184393421Y-30361892D01*
X184324818Y-30338706D01*
X184305551Y-30318326D01*
X184290327Y-30239857D01*
X184287771Y-30138382D01*
X184297121Y-30044055D01*
X184313803Y-29992108D01*
X184335093Y-29978395D01*
X184383665Y-29968325D01*
X184466260Y-29961620D01*
X184589619Y-29958004D01*
X184760482Y-29957200D01*
X184985591Y-29958932D01*
G37*
G36*
X177425274Y-26227091D02*
G01*
X177462104Y-26252509D01*
X177462380Y-26281472D01*
X177449096Y-26331513D01*
X177424414Y-26429024D01*
X177391899Y-26559522D01*
X177355115Y-26708523D01*
X177317626Y-26861545D01*
X177282996Y-27004103D01*
X177254789Y-27121714D01*
X177238868Y-27189753D01*
X177218852Y-27277394D01*
X177786784Y-27277394D01*
X177913421Y-26759514D01*
X178040058Y-26241635D01*
X178207092Y-26231860D01*
X178306850Y-26229857D01*
X178353847Y-26240408D01*
X178358864Y-26263729D01*
X178346666Y-26306822D01*
X178322067Y-26401202D01*
X178287768Y-26536239D01*
X178246471Y-26701301D01*
X178203610Y-26874644D01*
X178147885Y-27102911D01*
X178101882Y-27277278D01*
X178057292Y-27404978D01*
X178005809Y-27493242D01*
X177939128Y-27549300D01*
X177848941Y-27580384D01*
X177726942Y-27593725D01*
X177564824Y-27596554D01*
X177374873Y-27596089D01*
X177198062Y-27594494D01*
X177045772Y-27590077D01*
X176928380Y-27583386D01*
X176856262Y-27574972D01*
X176838110Y-27567650D01*
X176845259Y-27529037D01*
X176865148Y-27438667D01*
X176895443Y-27306708D01*
X176933808Y-27143330D01*
X176977908Y-26958702D01*
X176978888Y-26954632D01*
X177030594Y-26743746D01*
X177071955Y-26586027D01*
X177106092Y-26472346D01*
X177136127Y-26393571D01*
X177165183Y-26340574D01*
X177196381Y-26304225D01*
X177203470Y-26297876D01*
X177278857Y-26250858D01*
X177358492Y-26226902D01*
X177425274Y-26227091D01*
G37*
G36*
X179012052Y-30770685D02*
G01*
X179029103Y-30874343D01*
X179053480Y-30951488D01*
X179072352Y-30978750D01*
X179115277Y-30986532D01*
X179211977Y-30993451D01*
X179352569Y-30999144D01*
X179527170Y-31003250D01*
X179725896Y-31005406D01*
X179806218Y-31005639D01*
X180498511Y-31006127D01*
X180498511Y-31324822D01*
X179647070Y-31322802D01*
X179417223Y-31321241D01*
X179205649Y-31317877D01*
X179021507Y-31313010D01*
X178873959Y-31306938D01*
X178772165Y-31299961D01*
X178726093Y-31292730D01*
X178660584Y-31250921D01*
X178618966Y-31181705D01*
X178597909Y-31074314D01*
X178594081Y-30917980D01*
X178595412Y-30870377D01*
X178604652Y-30607758D01*
X178798989Y-30598389D01*
X178993326Y-30589021D01*
X179012052Y-30770685D01*
G37*
G36*
X179369261Y-28329403D02*
G01*
X179583563Y-28331550D01*
X179747627Y-28337335D01*
X179868162Y-28348562D01*
X179951879Y-28367034D01*
X180005488Y-28394556D01*
X180035699Y-28432933D01*
X180049222Y-28483968D01*
X180052769Y-28549467D01*
X180052897Y-28585851D01*
X180052897Y-28743391D01*
X178143123Y-28743391D01*
X178143123Y-28585851D01*
X178144294Y-28512913D01*
X178152281Y-28455289D01*
X178173795Y-28411173D01*
X178215545Y-28378762D01*
X178284242Y-28356251D01*
X178386595Y-28341836D01*
X178529316Y-28333712D01*
X178719114Y-28330076D01*
X178962700Y-28329122D01*
X179098010Y-28329088D01*
X179369261Y-28329403D01*
G37*
G36*
X182504994Y-29975403D02*
G01*
X182507102Y-29975814D01*
X182558618Y-29989802D01*
X182586152Y-30016483D01*
X182597201Y-30072590D01*
X182599262Y-30174855D01*
X182599263Y-30181503D01*
X182599263Y-30368736D01*
X182185479Y-30368736D01*
X182185479Y-29994642D01*
X182300210Y-29976000D01*
X182406768Y-29968259D01*
X182504994Y-29975403D01*
G37*
G36*
X184302146Y-30607758D02*
G01*
X185058967Y-30599212D01*
X185815788Y-30590665D01*
X185894493Y-30669469D01*
X185938375Y-30722498D01*
X185962285Y-30783832D01*
X185971910Y-30874335D01*
X185973198Y-30958322D01*
X185969766Y-31078972D01*
X185955709Y-31156889D01*
X185925387Y-31212884D01*
X185895071Y-31246597D01*
X185816944Y-31324822D01*
X185066503Y-31324822D01*
X184818442Y-31324108D01*
X184627482Y-31321728D01*
X184487081Y-31317321D01*
X184390695Y-31310529D01*
X184331779Y-31300992D01*
X184303791Y-31288350D01*
X184299925Y-31282716D01*
X184293921Y-31234291D01*
X184290876Y-31138211D01*
X184291100Y-31010503D01*
X184292710Y-30936051D01*
X184704605Y-30936051D01*
X184714827Y-30972470D01*
X184758931Y-30989805D01*
X184865187Y-30999154D01*
X185034027Y-31000545D01*
X185108332Y-30999149D01*
X185271098Y-30993876D01*
X185379892Y-30986376D01*
X185444398Y-30975169D01*
X185474298Y-30958776D01*
X185479840Y-30942388D01*
X185469216Y-30920973D01*
X185430838Y-30905957D01*
X185354944Y-30895811D01*
X185231772Y-30889008D01*
X185116483Y-30885523D01*
X184932816Y-30884060D01*
X184806722Y-30891176D01*
X184732539Y-30908098D01*
X184704605Y-30936051D01*
X184292710Y-30936051D01*
X184292967Y-30924184D01*
X184302146Y-30607758D01*
G37*
G36*
X181962672Y-28743391D02*
G01*
X181770695Y-28743391D01*
X181646436Y-28737234D01*
X181578363Y-28717872D01*
X181561899Y-28699505D01*
X181553870Y-28643199D01*
X181552718Y-28550576D01*
X181554941Y-28500321D01*
X181564802Y-28345022D01*
X181962672Y-28326046D01*
X181962672Y-28743391D01*
G37*
G36*
X178557395Y-29117858D02*
G01*
X178559498Y-29211773D01*
X178571403Y-29278302D01*
X178602558Y-29322443D01*
X178662413Y-29349191D01*
X178760417Y-29363544D01*
X178906017Y-29370497D01*
X179041086Y-29373633D01*
X179246342Y-29376056D01*
X179396809Y-29371162D01*
X179501248Y-29355391D01*
X179568419Y-29325179D01*
X179607081Y-29276965D01*
X179625995Y-29207186D01*
X179632819Y-29133018D01*
X179642440Y-28966478D01*
X180052897Y-28966478D01*
X180052897Y-29268504D01*
X180052807Y-29388846D01*
X180047953Y-29483307D01*
X180031459Y-29555086D01*
X179996450Y-29607380D01*
X179936049Y-29643390D01*
X179843381Y-29666313D01*
X179711571Y-29679349D01*
X179533742Y-29685696D01*
X179303018Y-29688554D01*
X179147257Y-29689829D01*
X178932275Y-29690450D01*
X178734221Y-29688725D01*
X178563473Y-29684927D01*
X178430408Y-29679329D01*
X178345404Y-29672205D01*
X178324108Y-29668138D01*
X178244011Y-29638568D01*
X178191763Y-29601085D01*
X178161476Y-29542582D01*
X178147261Y-29449955D01*
X178143230Y-29310096D01*
X178143123Y-29265336D01*
X178143123Y-28966478D01*
X178556907Y-28966478D01*
X178557395Y-29117858D01*
G37*
G36*
X175371346Y-28329666D02*
G01*
X175589011Y-28332664D01*
X175756292Y-28339974D01*
X175879822Y-28353492D01*
X175966239Y-28375110D01*
X176022177Y-28406724D01*
X176054272Y-28450226D01*
X176069161Y-28507510D01*
X176073479Y-28580471D01*
X176073713Y-28607946D01*
X176074201Y-28743391D01*
X174164426Y-28743391D01*
X174164426Y-28585851D01*
X174165703Y-28512129D01*
X174174059Y-28454070D01*
X174196286Y-28409803D01*
X174239176Y-28377459D01*
X174309519Y-28355166D01*
X174414106Y-28341055D01*
X174559729Y-28333254D01*
X174753179Y-28329894D01*
X175001246Y-28329103D01*
X175096659Y-28329088D01*
X175371346Y-28329666D01*
G37*
G36*
X182599751Y-29117858D02*
G01*
X182600089Y-29194430D01*
X182605493Y-29253302D01*
X182623382Y-29296917D01*
X182661174Y-29327714D01*
X182726286Y-29348137D01*
X182826138Y-29360627D01*
X182968146Y-29367625D01*
X183159730Y-29371573D01*
X183379557Y-29374521D01*
X184098602Y-29384196D01*
X184088970Y-29533869D01*
X184079339Y-29683542D01*
X183267684Y-29689040D01*
X183041862Y-29689502D01*
X182833064Y-29687915D01*
X182651014Y-29684511D01*
X182505435Y-29679525D01*
X182406053Y-29673192D01*
X182366464Y-29667349D01*
X182286431Y-29638433D01*
X182234191Y-29601215D01*
X182203880Y-29542668D01*
X182189632Y-29449767D01*
X182185584Y-29309484D01*
X182185479Y-29265336D01*
X182185479Y-28966478D01*
X182599263Y-28966478D01*
X182599751Y-29117858D01*
G37*
G36*
X184000984Y-29975403D02*
G01*
X184003092Y-29975814D01*
X184054608Y-29989802D01*
X184082142Y-30016483D01*
X184093191Y-30072590D01*
X184095252Y-30174855D01*
X184095253Y-30181503D01*
X184095253Y-30368736D01*
X183681469Y-30368736D01*
X183681469Y-29994642D01*
X183796200Y-29976000D01*
X183902758Y-29968259D01*
X184000984Y-29975403D01*
G37*
G36*
X180694660Y-28334862D02*
G01*
X180819123Y-28336347D01*
X181437484Y-28345022D01*
X181437484Y-28727457D01*
X180812509Y-28736085D01*
X180595702Y-28738547D01*
X180434220Y-28738739D01*
X180319750Y-28736114D01*
X180243981Y-28730126D01*
X180198601Y-28720226D01*
X180175298Y-28705867D01*
X180167960Y-28693642D01*
X180152744Y-28615804D01*
X180149830Y-28514909D01*
X180158563Y-28420928D01*
X180175061Y-28368217D01*
X180199850Y-28353601D01*
X180257367Y-28343296D01*
X180354451Y-28336963D01*
X180497936Y-28334265D01*
X180694660Y-28334862D01*
G37*
G36*
X184992860Y-28937719D02*
G01*
X185139457Y-28939846D01*
X185391039Y-28943860D01*
X185586154Y-28949463D01*
X185731973Y-28959934D01*
X185835666Y-28978554D01*
X185904404Y-29008602D01*
X185945356Y-29053359D01*
X185965694Y-29116105D01*
X185972587Y-29200120D01*
X185973205Y-29308684D01*
X185973198Y-29321247D01*
X185972672Y-29424766D01*
X185966562Y-29506340D01*
X185948073Y-29568691D01*
X185910410Y-29614542D01*
X185846779Y-29646615D01*
X185750382Y-29667631D01*
X185614426Y-29680313D01*
X185432114Y-29687383D01*
X185196652Y-29691563D01*
X185043684Y-29693594D01*
X184286231Y-29703647D01*
X184286231Y-29385844D01*
X184872491Y-29375345D01*
X185059779Y-29370772D01*
X185224927Y-29364427D01*
X185357463Y-29356899D01*
X185446912Y-29348780D01*
X185482558Y-29340945D01*
X185495624Y-29316408D01*
X185475919Y-29297176D01*
X185417316Y-29282264D01*
X185313684Y-29270688D01*
X185158894Y-29261461D01*
X184946817Y-29253600D01*
X184937185Y-29253304D01*
X184728893Y-29245973D01*
X184575085Y-29236659D01*
X184466591Y-29222510D01*
X184394243Y-29200674D01*
X184348871Y-29168300D01*
X184321305Y-29122537D01*
X184302377Y-29060532D01*
X184301137Y-29055506D01*
X184294962Y-29017343D01*
X184301837Y-28987728D01*
X184328470Y-28965736D01*
X184381572Y-28950441D01*
X184467853Y-28940918D01*
X184594021Y-28936240D01*
X184766787Y-28935482D01*
X184992860Y-28937719D01*
G37*
G36*
X176281093Y-28950543D02*
G01*
X177033760Y-28950543D01*
X177294184Y-28950617D01*
X177497907Y-28952756D01*
X177651883Y-28959833D01*
X177763064Y-28974724D01*
X177838403Y-29000302D01*
X177884854Y-29039442D01*
X177909369Y-29095019D01*
X177918902Y-29169906D01*
X177920406Y-29266979D01*
X177920316Y-29317043D01*
X177920091Y-29424590D01*
X177914761Y-29508691D01*
X177897345Y-29572331D01*
X177860862Y-29618498D01*
X177798329Y-29650180D01*
X177702766Y-29670364D01*
X177567191Y-29682038D01*
X177384623Y-29688189D01*
X177148079Y-29691803D01*
X177041359Y-29693149D01*
X176797365Y-29695678D01*
X176610015Y-29695976D01*
X176472322Y-29693730D01*
X176377299Y-29688628D01*
X176317960Y-29680359D01*
X176287319Y-29668609D01*
X176279545Y-29659125D01*
X176273406Y-29610420D01*
X176270118Y-29513630D01*
X176269995Y-29384357D01*
X176271710Y-29295796D01*
X176678963Y-29295796D01*
X176693101Y-29349998D01*
X176700182Y-29359535D01*
X176743186Y-29371172D01*
X176832962Y-29378131D01*
X176952817Y-29380700D01*
X177086059Y-29379163D01*
X177215994Y-29373807D01*
X177325929Y-29364917D01*
X177399172Y-29352780D01*
X177414027Y-29347313D01*
X177460253Y-29312386D01*
X177450731Y-29286017D01*
X177383589Y-29267713D01*
X177256954Y-29256976D01*
X177068954Y-29253310D01*
X177059039Y-29253304D01*
X176890691Y-29254888D01*
X176777397Y-29260277D01*
X176710618Y-29270427D01*
X176681813Y-29286291D01*
X176678963Y-29295796D01*
X176271710Y-29295796D01*
X176271958Y-29283019D01*
X176281093Y-28950543D01*
G37*
G36*
X180975955Y-29313633D02*
G01*
X180974467Y-29471220D01*
X180969000Y-29576054D01*
X180958052Y-29639071D01*
X180940121Y-29671207D01*
X180925607Y-29680132D01*
X180848530Y-29693456D01*
X180742096Y-29694111D01*
X180639280Y-29682379D01*
X180617872Y-29677508D01*
X180593131Y-29663908D01*
X180576922Y-29631072D01*
X180567513Y-29567725D01*
X180563174Y-29462590D01*
X180562171Y-29314706D01*
X180562171Y-28966478D01*
X180975955Y-28966478D01*
X180975955Y-29313633D01*
G37*
G36*
X176862688Y-26546364D02*
G01*
X176910721Y-26556678D01*
X176923200Y-26581949D01*
X176917332Y-26616102D01*
X176904420Y-26670291D01*
X176879838Y-26774507D01*
X176846417Y-26916712D01*
X176806987Y-27084868D01*
X176777249Y-27211898D01*
X176731775Y-27404392D01*
X176696274Y-27545599D01*
X176666507Y-27646360D01*
X176638233Y-27717517D01*
X176607210Y-27769911D01*
X176569198Y-27814385D01*
X176524804Y-27857256D01*
X176446445Y-27925486D01*
X176381013Y-27961800D01*
X176301892Y-27976153D01*
X176200607Y-27978523D01*
X176093576Y-27976332D01*
X176037263Y-27967083D01*
X176018796Y-27946763D01*
X176021786Y-27922751D01*
X176043489Y-27845784D01*
X176057905Y-27795273D01*
X176101225Y-27735351D01*
X176153316Y-27723567D01*
X176259215Y-27709824D01*
X176319050Y-27671649D01*
X176328837Y-27640484D01*
X176308989Y-27612846D01*
X176243043Y-27598963D01*
X176156604Y-27596089D01*
X176050537Y-27591741D01*
X175982800Y-27572255D01*
X175928302Y-27527968D01*
X175901967Y-27498035D01*
X175849253Y-27422374D01*
X175821937Y-27357799D01*
X175820829Y-27346655D01*
X175828659Y-27295822D01*
X175848994Y-27197654D01*
X175878688Y-27066603D01*
X175912204Y-26926829D01*
X176002314Y-26560330D01*
X176165576Y-26550697D01*
X176257601Y-26548396D01*
X176316810Y-26552925D01*
X176328837Y-26558927D01*
X176321939Y-26595411D01*
X176303260Y-26680402D01*
X176275821Y-26800414D01*
X176249263Y-26913982D01*
X176216842Y-27053901D01*
X176190789Y-27171163D01*
X176174158Y-27251711D01*
X176169689Y-27280220D01*
X176197905Y-27298528D01*
X176268261Y-27308593D01*
X176295002Y-27309263D01*
X176420315Y-27309263D01*
X176595309Y-26544395D01*
X176765061Y-26544395D01*
X176862688Y-26546364D01*
G37*
G36*
X173921784Y-26949708D02*
G01*
X174008500Y-26810325D01*
X174129914Y-26700820D01*
X174275453Y-26621935D01*
X174434544Y-26574413D01*
X174596611Y-26558997D01*
X174751082Y-26576430D01*
X174887382Y-26627455D01*
X174994938Y-26712816D01*
X175063174Y-26833255D01*
X175072828Y-26868830D01*
X175074806Y-27014093D01*
X175027825Y-27168493D01*
X174941774Y-27316860D01*
X174826541Y-27444022D01*
X174692017Y-27534810D01*
X174621222Y-27561652D01*
X174457863Y-27589720D01*
X174290004Y-27589833D01*
X174145156Y-27562579D01*
X174113982Y-27550789D01*
X173988966Y-27464559D01*
X173908331Y-27340795D01*
X173875741Y-27190960D01*
X173889113Y-27075965D01*
X174208998Y-27075965D01*
X174212131Y-27190590D01*
X174258939Y-27286063D01*
X174339160Y-27344044D01*
X174362577Y-27350408D01*
X174422591Y-27362931D01*
X174443957Y-27368662D01*
X174476065Y-27360502D01*
X174543956Y-27334822D01*
X174561204Y-27327709D01*
X174661150Y-27259221D01*
X174730824Y-27160029D01*
X174765166Y-27047224D01*
X174759115Y-26937895D01*
X174707608Y-26849134D01*
X174703946Y-26845721D01*
X174605256Y-26794263D01*
X174493175Y-26793211D01*
X174382355Y-26835752D01*
X174287445Y-26915069D01*
X174223096Y-27024347D01*
X174208998Y-27075965D01*
X173889113Y-27075965D01*
X173894863Y-27026518D01*
X173921784Y-26949708D01*
G37*
G36*
X181119188Y-30607758D02*
G01*
X181128664Y-30806942D01*
X181138141Y-31006127D01*
X181994501Y-31006127D01*
X181994501Y-31324822D01*
X180721318Y-31324822D01*
X180721318Y-30588782D01*
X181119188Y-30607758D01*
G37*
G36*
X177284220Y-28329501D02*
G01*
X177489694Y-28332058D01*
X177645343Y-28338736D01*
X177758085Y-28351513D01*
X177834839Y-28372366D01*
X177882521Y-28403271D01*
X177908048Y-28446207D01*
X177918339Y-28503149D01*
X177920310Y-28576077D01*
X177920316Y-28585851D01*
X177920316Y-28743391D01*
X177716829Y-28743391D01*
X177595091Y-28738915D01*
X177524998Y-28723835D01*
X177495054Y-28695674D01*
X177495021Y-28695587D01*
X177476150Y-28675093D01*
X177431490Y-28661198D01*
X177351184Y-28652773D01*
X177225373Y-28648687D01*
X177077831Y-28647783D01*
X176909050Y-28648907D01*
X176794338Y-28653044D01*
X176724129Y-28661340D01*
X176688860Y-28674941D01*
X176678967Y-28694993D01*
X176678963Y-28695587D01*
X176665150Y-28722401D01*
X176615796Y-28737305D01*
X176519025Y-28743041D01*
X176472070Y-28743391D01*
X176265178Y-28743391D01*
X176265178Y-28329088D01*
X177022006Y-28329088D01*
X177284220Y-28329501D01*
G37*
%LPC*%
D14*
X87886500Y-37594500D03*
X87886500Y-42669500D03*
D15*
X87886500Y-31239500D03*
X87886500Y-26164500D03*
D16*
X152656500Y-68834000D03*
X157731500Y-68834000D03*
D17*
X175235250Y-33680000D03*
X187551250Y-33680000D03*
X176635250Y-33680000D03*
X188951250Y-33680000D03*
X175359250Y-52680000D03*
X187427250Y-52680000D03*
X176759250Y-52680000D03*
X188827250Y-52680000D03*
D18*
X181982000Y-60960000D03*
X177682000Y-60960000D03*
D17*
X151105250Y-33934000D03*
X163421250Y-33934000D03*
X152505250Y-33934000D03*
X164821250Y-33934000D03*
X151229250Y-52934000D03*
X163297250Y-52934000D03*
X152629250Y-52934000D03*
X164697250Y-52934000D03*
D19*
X77726500Y-26552000D03*
X77726500Y-30852000D03*
D18*
X157734000Y-61214000D03*
X153434000Y-61214000D03*
D20*
X125251000Y-81280000D03*
D21*
X130251000Y-81280000D03*
D22*
X139310000Y-60180250D03*
X139310000Y-62230250D03*
D18*
X133840000Y-61205250D03*
X129540000Y-61205250D03*
D20*
X162081000Y-81280000D03*
D21*
X167081000Y-81280000D03*
D16*
X176786500Y-68580000D03*
X181861500Y-68580000D03*
D23*
X104142500Y-83864000D03*
D24*
X104142500Y-76664000D03*
D14*
X77726500Y-37594500D03*
X77726500Y-42669500D03*
D22*
X187957500Y-62745000D03*
X187957500Y-64795000D03*
D23*
X91442500Y-83864000D03*
D24*
X91442500Y-76664000D03*
D22*
X163455500Y-62475000D03*
X163455500Y-64525000D03*
D25*
X99412000Y-27555000D03*
X96012000Y-27555000D03*
X96012000Y-41025000D03*
X99412000Y-41025000D03*
X115142500Y-64139000D03*
X118542500Y-64139000D03*
X115142500Y-50669000D03*
X118542500Y-50669000D03*
D26*
X187957500Y-69850000D03*
X187957500Y-67850000D03*
X139310000Y-67285250D03*
X139310000Y-65285250D03*
D20*
X174244000Y-81280000D03*
D21*
X179244000Y-81280000D03*
D26*
X163455500Y-69580000D03*
X163455500Y-67580000D03*
D17*
X127601250Y-33925250D03*
X139917250Y-33925250D03*
X129001250Y-33925250D03*
X141317250Y-33925250D03*
X127725250Y-52925250D03*
X139793250Y-52925250D03*
X129125250Y-52925250D03*
X141193250Y-52925250D03*
D20*
X186719000Y-81280000D03*
D21*
X191719000Y-81280000D03*
D25*
X108810000Y-27555000D03*
X105410000Y-27555000D03*
X108810000Y-41025000D03*
X105410000Y-41025000D03*
X105842500Y-64139000D03*
X102442500Y-64139000D03*
X105842500Y-50669000D03*
X102442500Y-50669000D03*
X77042500Y-64139000D03*
X80442500Y-64139000D03*
X80442500Y-50669000D03*
X77042500Y-50669000D03*
D27*
X129627500Y-68825250D03*
X133752500Y-68825250D03*
D23*
X66042500Y-40640000D03*
D24*
X66042500Y-33440000D03*
D25*
X64342500Y-64139000D03*
X67742500Y-64139000D03*
X64342500Y-50669000D03*
X67742500Y-50669000D03*
D23*
X116842500Y-83864000D03*
D24*
X116842500Y-76664000D03*
D23*
X66042500Y-83864000D03*
D24*
X66042500Y-76664000D03*
D20*
X149889000Y-81280000D03*
D21*
X154889000Y-81280000D03*
D20*
X137189000Y-81280000D03*
D21*
X142189000Y-81280000D03*
D23*
X78742500Y-83864000D03*
D24*
X78742500Y-76664000D03*
D25*
X89742500Y-64139000D03*
X93142500Y-64139000D03*
X89742500Y-50669000D03*
X93142500Y-50669000D03*
X114300000Y-27555000D03*
X117700000Y-27555000D03*
X114300000Y-41025000D03*
X117700000Y-41025000D03*
M02*
