M48
; DRILL file {KiCad 6.0.2-378541a8eb~116~ubuntu18.04.1} date Mon Feb 21 15:42:35 2022
; FORMAT={-:-/ absolute / metric / decimal}
; #@! TF.CreationDate,2022-02-21T15:42:35+08:00
; #@! TF.GenerationSoftware,Kicad,Pcbnew,6.0.2-378541a8eb~116~ubuntu18.04.1
; #@! TF.FileFunction,Plated,1,2,PTH
FMAT,2
METRIC
; #@! TA.AperFunction,Plated,PTH,ViaDrill
T1C0.400
; #@! TA.AperFunction,Plated,PTH,ComponentDrill
T2C0.800
; #@! TA.AperFunction,Plated,PTH,ComponentDrill
T3C1.320
; #@! TA.AperFunction,Plated,PTH,ComponentDrill
T4C1.600
; #@! TA.AperFunction,Plated,PTH,ViaDrill
T5C3.100
; #@! TA.AperFunction,Plated,PTH,ComponentDrill
T6C4.500
%
G90
G05
T1
X60.96Y-55.88
X60.96Y-60.96
X71.12Y-38.1
X71.12Y-45.72
X71.12Y-55.88
X71.12Y-60.96
X71.12Y-66.04
X71.12Y-71.12
X73.66Y-55.88
X73.66Y-60.96
X73.66Y-66.04
X73.66Y-71.12
X83.82Y-45.72
X83.82Y-55.88
X83.82Y-60.96
X83.82Y-66.04
X83.82Y-71.12
X86.36Y-55.88
X86.36Y-60.96
X86.36Y-66.04
X86.36Y-71.12
X93.98Y-45.72
X96.52Y-55.88
X96.52Y-60.96
X96.52Y-66.04
X96.52Y-71.12
X99.06Y-55.88
X99.06Y-60.96
X99.06Y-66.04
X99.06Y-71.12
X104.14Y-45.72
X109.22Y-55.88
X109.22Y-60.96
X109.22Y-66.04
X109.22Y-71.12
X111.76Y-45.72
X124.46Y-35.56
X124.46Y-48.26
X124.46Y-55.88
X124.46Y-63.5
X124.46Y-71.12
X134.62Y-48.26
X134.62Y-55.88
X144.78Y-35.56
X144.78Y-48.26
X144.78Y-55.88
X144.78Y-63.5
X144.78Y-71.12
X167.64Y-35.56
X167.64Y-48.26
X167.64Y-55.88
X167.64Y-63.5
X167.64Y-71.12
X190.5Y-48.26
X190.5Y-55.88
X190.5Y-63.5
T2
X127.601Y-33.925
X127.725Y-52.925
X129.001Y-33.925
X129.125Y-52.925
X139.793Y-52.925
X139.917Y-33.925
X141.193Y-52.925
X141.317Y-33.925
X151.105Y-33.934
X151.229Y-52.934
X152.505Y-33.934
X152.629Y-52.934
X163.297Y-52.934
X163.421Y-33.934
X164.697Y-52.934
X164.821Y-33.934
X175.235Y-33.68
X175.359Y-52.68
X176.635Y-33.68
X176.759Y-52.68
X187.427Y-52.68
X187.551Y-33.68
X188.827Y-52.68
X188.951Y-33.68
T3
X125.251Y-81.28
X130.251Y-81.28
X137.189Y-81.28
X142.189Y-81.28
X149.889Y-81.28
X154.889Y-81.28
X162.081Y-81.28
X167.081Y-81.28
X174.244Y-81.28
X179.244Y-81.28
X186.719Y-81.28
X191.719Y-81.28
T4
X64.343Y-50.669
X64.343Y-64.139
X67.742Y-50.669
X67.742Y-64.139
X77.042Y-50.669
X77.042Y-64.139
X80.442Y-50.669
X80.442Y-64.139
X89.742Y-50.669
X89.742Y-64.139
X93.142Y-50.669
X93.142Y-64.139
X96.012Y-27.555
X96.012Y-41.025
X99.412Y-27.555
X99.412Y-41.025
X102.442Y-50.669
X102.442Y-64.139
X105.41Y-27.555
X105.41Y-41.025
X105.843Y-50.669
X105.843Y-64.139
X108.81Y-27.555
X108.81Y-41.025
X114.3Y-27.555
X114.3Y-41.025
X115.142Y-50.669
X115.142Y-64.139
X117.7Y-27.555
X117.7Y-41.025
X118.542Y-50.669
X118.542Y-64.139
T5
X59.944Y-25.908
X59.944Y-69.342
X195.072Y-25.908
X195.072Y-69.342
T6
X66.043Y-33.44
X66.043Y-40.64
X66.043Y-76.664
X66.043Y-83.864
X78.742Y-76.664
X78.742Y-83.864
X91.442Y-76.664
X91.442Y-83.864
X104.142Y-76.664
X104.142Y-83.864
X116.843Y-76.664
X116.843Y-83.864
T0
M30
