G04 #@! TF.GenerationSoftware,KiCad,Pcbnew,6.0.2-378541a8eb~116~ubuntu18.04.1*
G04 #@! TF.CreationDate,2022-02-21T15:42:04+08:00*
G04 #@! TF.ProjectId,XT60_CAN,58543630-5f43-4414-9e2e-6b696361645f,rev?*
G04 #@! TF.SameCoordinates,Original*
G04 #@! TF.FileFunction,Legend,Bot*
G04 #@! TF.FilePolarity,Positive*
%FSLAX46Y46*%
G04 Gerber Fmt 4.6, Leading zero omitted, Abs format (unit mm)*
G04 Created by KiCad (PCBNEW 6.0.2-378541a8eb~116~ubuntu18.04.1) date 2022-02-21 15:42:04*
%MOMM*%
%LPD*%
G01*
G04 APERTURE LIST*
G04 Aperture macros list*
%AMRoundRect*
0 Rectangle with rounded corners*
0 $1 Rounding radius*
0 $2 $3 $4 $5 $6 $7 $8 $9 X,Y pos of 4 corners*
0 Add a 4 corners polygon primitive as box body*
4,1,4,$2,$3,$4,$5,$6,$7,$8,$9,$2,$3,0*
0 Add four circle primitives for the rounded corners*
1,1,$1+$1,$2,$3*
1,1,$1+$1,$4,$5*
1,1,$1+$1,$6,$7*
1,1,$1+$1,$8,$9*
0 Add four rect primitives between the rounded corners*
20,1,$1+$1,$2,$3,$4,$5,0*
20,1,$1+$1,$4,$5,$6,$7,0*
20,1,$1+$1,$6,$7,$8,$9,0*
20,1,$1+$1,$8,$9,$2,$3,0*%
G04 Aperture macros list end*
%ADD10C,0.150000*%
%ADD11C,0.300000*%
%ADD12C,0.200000*%
%ADD13R,1.308000X4.500000*%
%ADD14R,1.980000X3.960000*%
%ADD15O,1.980000X3.960000*%
%ADD16RoundRect,1.500000X1.500000X-1.500000X1.500000X1.500000X-1.500000X1.500000X-1.500000X-1.500000X0*%
%ADD17C,6.000000*%
%ADD18C,2.400000*%
G04 APERTURE END LIST*
D10*
X167305333Y-66914380D02*
X167305333Y-65914380D01*
X166305333Y-65962000D02*
X166400571Y-65914380D01*
X166543428Y-65914380D01*
X166686285Y-65962000D01*
X166781523Y-66057238D01*
X166829142Y-66152476D01*
X166876761Y-66342952D01*
X166876761Y-66485809D01*
X166829142Y-66676285D01*
X166781523Y-66771523D01*
X166686285Y-66866761D01*
X166543428Y-66914380D01*
X166448190Y-66914380D01*
X166305333Y-66866761D01*
X166257714Y-66819142D01*
X166257714Y-66485809D01*
X166448190Y-66485809D01*
X165305333Y-65962000D02*
X165400571Y-65914380D01*
X165543428Y-65914380D01*
X165686285Y-65962000D01*
X165781523Y-66057238D01*
X165829142Y-66152476D01*
X165876761Y-66342952D01*
X165876761Y-66485809D01*
X165829142Y-66676285D01*
X165781523Y-66771523D01*
X165686285Y-66866761D01*
X165543428Y-66914380D01*
X165448190Y-66914380D01*
X165305333Y-66866761D01*
X165257714Y-66819142D01*
X165257714Y-66485809D01*
X165448190Y-66485809D01*
X164305333Y-65962000D02*
X164400571Y-65914380D01*
X164543428Y-65914380D01*
X164686285Y-65962000D01*
X164781523Y-66057238D01*
X164829142Y-66152476D01*
X164876761Y-66342952D01*
X164876761Y-66485809D01*
X164829142Y-66676285D01*
X164781523Y-66771523D01*
X164686285Y-66866761D01*
X164543428Y-66914380D01*
X164448190Y-66914380D01*
X164305333Y-66866761D01*
X164257714Y-66819142D01*
X164257714Y-66485809D01*
X164448190Y-66485809D01*
X162638666Y-66866761D02*
X162733904Y-66914380D01*
X162924380Y-66914380D01*
X163019619Y-66866761D01*
X163067238Y-66819142D01*
X163114857Y-66723904D01*
X163114857Y-66438190D01*
X163067238Y-66342952D01*
X163019619Y-66295333D01*
X162924380Y-66247714D01*
X162733904Y-66247714D01*
X162638666Y-66295333D01*
X161781523Y-66914380D02*
X161781523Y-66390571D01*
X161829142Y-66295333D01*
X161924380Y-66247714D01*
X162114857Y-66247714D01*
X162210095Y-66295333D01*
X161781523Y-66866761D02*
X161876761Y-66914380D01*
X162114857Y-66914380D01*
X162210095Y-66866761D01*
X162257714Y-66771523D01*
X162257714Y-66676285D01*
X162210095Y-66581047D01*
X162114857Y-66533428D01*
X161876761Y-66533428D01*
X161781523Y-66485809D01*
X161305333Y-66247714D02*
X161305333Y-66914380D01*
X161305333Y-66342952D02*
X161257714Y-66295333D01*
X161162476Y-66247714D01*
X161019619Y-66247714D01*
X160924380Y-66295333D01*
X160876761Y-66390571D01*
X160876761Y-66914380D01*
X159638666Y-66914380D02*
X159638666Y-65914380D01*
X159638666Y-66295333D02*
X159543428Y-66247714D01*
X159352952Y-66247714D01*
X159257714Y-66295333D01*
X159210095Y-66342952D01*
X159162476Y-66438190D01*
X159162476Y-66723904D01*
X159210095Y-66819142D01*
X159257714Y-66866761D01*
X159352952Y-66914380D01*
X159543428Y-66914380D01*
X159638666Y-66866761D01*
X158305333Y-66247714D02*
X158305333Y-66914380D01*
X158733904Y-66247714D02*
X158733904Y-66771523D01*
X158686285Y-66866761D01*
X158591047Y-66914380D01*
X158448190Y-66914380D01*
X158352952Y-66866761D01*
X158305333Y-66819142D01*
X157876761Y-66866761D02*
X157781523Y-66914380D01*
X157591047Y-66914380D01*
X157495809Y-66866761D01*
X157448190Y-66771523D01*
X157448190Y-66723904D01*
X157495809Y-66628666D01*
X157591047Y-66581047D01*
X157733904Y-66581047D01*
X157829142Y-66533428D01*
X157876761Y-66438190D01*
X157876761Y-66390571D01*
X157829142Y-66295333D01*
X157733904Y-66247714D01*
X157591047Y-66247714D01*
X157495809Y-66295333D01*
X156257714Y-66247714D02*
X156257714Y-67247714D01*
X156257714Y-66295333D02*
X156162476Y-66247714D01*
X155972000Y-66247714D01*
X155876761Y-66295333D01*
X155829142Y-66342952D01*
X155781523Y-66438190D01*
X155781523Y-66723904D01*
X155829142Y-66819142D01*
X155876761Y-66866761D01*
X155972000Y-66914380D01*
X156162476Y-66914380D01*
X156257714Y-66866761D01*
X155210095Y-66914380D02*
X155305333Y-66866761D01*
X155352952Y-66819142D01*
X155400571Y-66723904D01*
X155400571Y-66438190D01*
X155352952Y-66342952D01*
X155305333Y-66295333D01*
X155210095Y-66247714D01*
X155067238Y-66247714D01*
X154972000Y-66295333D01*
X154924380Y-66342952D01*
X154876761Y-66438190D01*
X154876761Y-66723904D01*
X154924380Y-66819142D01*
X154972000Y-66866761D01*
X155067238Y-66914380D01*
X155210095Y-66914380D01*
X154543428Y-66247714D02*
X154352952Y-66914380D01*
X154162476Y-66438190D01*
X153972000Y-66914380D01*
X153781523Y-66247714D01*
X153019619Y-66866761D02*
X153114857Y-66914380D01*
X153305333Y-66914380D01*
X153400571Y-66866761D01*
X153448190Y-66771523D01*
X153448190Y-66390571D01*
X153400571Y-66295333D01*
X153305333Y-66247714D01*
X153114857Y-66247714D01*
X153019619Y-66295333D01*
X152972000Y-66390571D01*
X152972000Y-66485809D01*
X153448190Y-66581047D01*
X152543428Y-66914380D02*
X152543428Y-66247714D01*
X152543428Y-66438190D02*
X152495809Y-66342952D01*
X152448190Y-66295333D01*
X152352952Y-66247714D01*
X152257714Y-66247714D01*
X150733904Y-66914380D02*
X150733904Y-65914380D01*
X150733904Y-66866761D02*
X150829142Y-66914380D01*
X151019619Y-66914380D01*
X151114857Y-66866761D01*
X151162476Y-66819142D01*
X151210095Y-66723904D01*
X151210095Y-66438190D01*
X151162476Y-66342952D01*
X151114857Y-66295333D01*
X151019619Y-66247714D01*
X150829142Y-66247714D01*
X150733904Y-66295333D01*
X150257714Y-66914380D02*
X150257714Y-66247714D01*
X150257714Y-65914380D02*
X150305333Y-65962000D01*
X150257714Y-66009619D01*
X150210095Y-65962000D01*
X150257714Y-65914380D01*
X150257714Y-66009619D01*
X149876761Y-66247714D02*
X149638666Y-66914380D01*
X149400571Y-66247714D01*
X149019619Y-66914380D02*
X149019619Y-66247714D01*
X149019619Y-65914380D02*
X149067238Y-65962000D01*
X149019619Y-66009619D01*
X148972000Y-65962000D01*
X149019619Y-65914380D01*
X149019619Y-66009619D01*
X148114857Y-66914380D02*
X148114857Y-65914380D01*
X148114857Y-66866761D02*
X148210095Y-66914380D01*
X148400571Y-66914380D01*
X148495809Y-66866761D01*
X148543428Y-66819142D01*
X148591047Y-66723904D01*
X148591047Y-66438190D01*
X148543428Y-66342952D01*
X148495809Y-66295333D01*
X148400571Y-66247714D01*
X148210095Y-66247714D01*
X148114857Y-66295333D01*
X147257714Y-66866761D02*
X147352952Y-66914380D01*
X147543428Y-66914380D01*
X147638666Y-66866761D01*
X147686285Y-66771523D01*
X147686285Y-66390571D01*
X147638666Y-66295333D01*
X147543428Y-66247714D01*
X147352952Y-66247714D01*
X147257714Y-66295333D01*
X147210095Y-66390571D01*
X147210095Y-66485809D01*
X147686285Y-66581047D01*
X146781523Y-66914380D02*
X146781523Y-66247714D01*
X146781523Y-66438190D02*
X146733904Y-66342952D01*
X146686285Y-66295333D01*
X146591047Y-66247714D01*
X146495809Y-66247714D01*
X162710095Y-68524380D02*
X162710095Y-67524380D01*
X162710095Y-67905333D02*
X162614857Y-67857714D01*
X162424380Y-67857714D01*
X162329142Y-67905333D01*
X162281523Y-67952952D01*
X162233904Y-68048190D01*
X162233904Y-68333904D01*
X162281523Y-68429142D01*
X162329142Y-68476761D01*
X162424380Y-68524380D01*
X162614857Y-68524380D01*
X162710095Y-68476761D01*
X161900571Y-67857714D02*
X161662476Y-68524380D01*
X161424380Y-67857714D02*
X161662476Y-68524380D01*
X161757714Y-68762476D01*
X161805333Y-68810095D01*
X161900571Y-68857714D01*
X160329142Y-68476761D02*
X160186285Y-68524380D01*
X159948190Y-68524380D01*
X159852952Y-68476761D01*
X159805333Y-68429142D01*
X159757714Y-68333904D01*
X159757714Y-68238666D01*
X159805333Y-68143428D01*
X159852952Y-68095809D01*
X159948190Y-68048190D01*
X160138666Y-68000571D01*
X160233904Y-67952952D01*
X160281523Y-67905333D01*
X160329142Y-67810095D01*
X160329142Y-67714857D01*
X160281523Y-67619619D01*
X160233904Y-67572000D01*
X160138666Y-67524380D01*
X159900571Y-67524380D01*
X159757714Y-67572000D01*
X158900571Y-68524380D02*
X158900571Y-68000571D01*
X158948190Y-67905333D01*
X159043428Y-67857714D01*
X159233904Y-67857714D01*
X159329142Y-67905333D01*
X158900571Y-68476761D02*
X158995809Y-68524380D01*
X159233904Y-68524380D01*
X159329142Y-68476761D01*
X159376761Y-68381523D01*
X159376761Y-68286285D01*
X159329142Y-68191047D01*
X159233904Y-68143428D01*
X158995809Y-68143428D01*
X158900571Y-68095809D01*
X158424380Y-68524380D02*
X158424380Y-67857714D01*
X158424380Y-67952952D02*
X158376761Y-67905333D01*
X158281523Y-67857714D01*
X158138666Y-67857714D01*
X158043428Y-67905333D01*
X157995809Y-68000571D01*
X157995809Y-68524380D01*
X157995809Y-68000571D02*
X157948190Y-67905333D01*
X157852952Y-67857714D01*
X157710095Y-67857714D01*
X157614857Y-67905333D01*
X157567238Y-68000571D01*
X157567238Y-68524380D01*
X157138666Y-68476761D02*
X157043428Y-68524380D01*
X156852952Y-68524380D01*
X156757714Y-68476761D01*
X156710095Y-68381523D01*
X156710095Y-68333904D01*
X156757714Y-68238666D01*
X156852952Y-68191047D01*
X156995809Y-68191047D01*
X157091047Y-68143428D01*
X157138666Y-68048190D01*
X157138666Y-68000571D01*
X157091047Y-67905333D01*
X156995809Y-67857714D01*
X156852952Y-67857714D01*
X156757714Y-67905333D01*
X156138666Y-68524380D02*
X156233904Y-68476761D01*
X156281523Y-68429142D01*
X156329142Y-68333904D01*
X156329142Y-68048190D01*
X156281523Y-67952952D01*
X156233904Y-67905333D01*
X156138666Y-67857714D01*
X155995809Y-67857714D01*
X155900571Y-67905333D01*
X155852952Y-67952952D01*
X155805333Y-68048190D01*
X155805333Y-68333904D01*
X155852952Y-68429142D01*
X155900571Y-68476761D01*
X155995809Y-68524380D01*
X156138666Y-68524380D01*
X155376761Y-67857714D02*
X155376761Y-68524380D01*
X155376761Y-67952952D02*
X155329142Y-67905333D01*
X155233904Y-67857714D01*
X155091047Y-67857714D01*
X154995809Y-67905333D01*
X154948190Y-68000571D01*
X154948190Y-68524380D01*
X153900571Y-68429142D02*
X153948190Y-68476761D01*
X154091047Y-68524380D01*
X154186285Y-68524380D01*
X154329142Y-68476761D01*
X154424380Y-68381523D01*
X154472000Y-68286285D01*
X154519619Y-68095809D01*
X154519619Y-67952952D01*
X154472000Y-67762476D01*
X154424380Y-67667238D01*
X154329142Y-67572000D01*
X154186285Y-67524380D01*
X154091047Y-67524380D01*
X153948190Y-67572000D01*
X153900571Y-67619619D01*
X153472000Y-68524380D02*
X153472000Y-67524380D01*
X153043428Y-68524380D02*
X153043428Y-68000571D01*
X153091047Y-67905333D01*
X153186285Y-67857714D01*
X153329142Y-67857714D01*
X153424380Y-67905333D01*
X153472000Y-67952952D01*
X152138666Y-68524380D02*
X152138666Y-68000571D01*
X152186285Y-67905333D01*
X152281523Y-67857714D01*
X152472000Y-67857714D01*
X152567238Y-67905333D01*
X152138666Y-68476761D02*
X152233904Y-68524380D01*
X152472000Y-68524380D01*
X152567238Y-68476761D01*
X152614857Y-68381523D01*
X152614857Y-68286285D01*
X152567238Y-68191047D01*
X152472000Y-68143428D01*
X152233904Y-68143428D01*
X152138666Y-68095809D01*
X151233904Y-67857714D02*
X151233904Y-68524380D01*
X151662476Y-67857714D02*
X151662476Y-68381523D01*
X151614857Y-68476761D01*
X151519619Y-68524380D01*
X151376761Y-68524380D01*
X151281523Y-68476761D01*
X151233904Y-68429142D01*
X160876761Y-69229619D02*
X160829142Y-69182000D01*
X160733904Y-69134380D01*
X160495809Y-69134380D01*
X160400571Y-69182000D01*
X160352952Y-69229619D01*
X160305333Y-69324857D01*
X160305333Y-69420095D01*
X160352952Y-69562952D01*
X160924380Y-70134380D01*
X160305333Y-70134380D01*
X159686285Y-69134380D02*
X159591047Y-69134380D01*
X159495809Y-69182000D01*
X159448190Y-69229619D01*
X159400571Y-69324857D01*
X159352952Y-69515333D01*
X159352952Y-69753428D01*
X159400571Y-69943904D01*
X159448190Y-70039142D01*
X159495809Y-70086761D01*
X159591047Y-70134380D01*
X159686285Y-70134380D01*
X159781523Y-70086761D01*
X159829142Y-70039142D01*
X159876761Y-69943904D01*
X159924380Y-69753428D01*
X159924380Y-69515333D01*
X159876761Y-69324857D01*
X159829142Y-69229619D01*
X159781523Y-69182000D01*
X159686285Y-69134380D01*
X158972000Y-69229619D02*
X158924380Y-69182000D01*
X158829142Y-69134380D01*
X158591047Y-69134380D01*
X158495809Y-69182000D01*
X158448190Y-69229619D01*
X158400571Y-69324857D01*
X158400571Y-69420095D01*
X158448190Y-69562952D01*
X159019619Y-70134380D01*
X158400571Y-70134380D01*
X158019619Y-69229619D02*
X157972000Y-69182000D01*
X157876761Y-69134380D01*
X157638666Y-69134380D01*
X157543428Y-69182000D01*
X157495809Y-69229619D01*
X157448190Y-69324857D01*
X157448190Y-69420095D01*
X157495809Y-69562952D01*
X158067238Y-70134380D01*
X157448190Y-70134380D01*
X157019619Y-69753428D02*
X156257714Y-69753428D01*
X155829142Y-69229619D02*
X155781523Y-69182000D01*
X155686285Y-69134380D01*
X155448190Y-69134380D01*
X155352952Y-69182000D01*
X155305333Y-69229619D01*
X155257714Y-69324857D01*
X155257714Y-69420095D01*
X155305333Y-69562952D01*
X155876761Y-70134380D01*
X155257714Y-70134380D01*
X154829142Y-69753428D02*
X154067238Y-69753428D01*
X153638666Y-69229619D02*
X153591047Y-69182000D01*
X153495809Y-69134380D01*
X153257714Y-69134380D01*
X153162476Y-69182000D01*
X153114857Y-69229619D01*
X153067238Y-69324857D01*
X153067238Y-69420095D01*
X153114857Y-69562952D01*
X153686285Y-70134380D01*
X153067238Y-70134380D01*
D11*
X134293714Y-88286571D02*
X135150857Y-88286571D01*
X134722285Y-88286571D02*
X134722285Y-86786571D01*
X134865142Y-87000857D01*
X135008000Y-87143714D01*
X135150857Y-87215142D01*
X133793714Y-86786571D02*
X132865142Y-86786571D01*
X133365142Y-87358000D01*
X133150857Y-87358000D01*
X133008000Y-87429428D01*
X132936571Y-87500857D01*
X132865142Y-87643714D01*
X132865142Y-88000857D01*
X132936571Y-88143714D01*
X133008000Y-88215142D01*
X133150857Y-88286571D01*
X133579428Y-88286571D01*
X133722285Y-88215142D01*
X133793714Y-88143714D01*
X131508000Y-86786571D02*
X132222285Y-86786571D01*
X132293714Y-87500857D01*
X132222285Y-87429428D01*
X132079428Y-87358000D01*
X131722285Y-87358000D01*
X131579428Y-87429428D01*
X131508000Y-87500857D01*
X131436571Y-87643714D01*
X131436571Y-88000857D01*
X131508000Y-88143714D01*
X131579428Y-88215142D01*
X131722285Y-88286571D01*
X132079428Y-88286571D01*
X132222285Y-88215142D01*
X132293714Y-88143714D01*
X130793714Y-88143714D02*
X130722285Y-88215142D01*
X130793714Y-88286571D01*
X130865142Y-88215142D01*
X130793714Y-88143714D01*
X130793714Y-88286571D01*
X129293714Y-88286571D02*
X130150857Y-88286571D01*
X129722285Y-88286571D02*
X129722285Y-86786571D01*
X129865142Y-87000857D01*
X130008000Y-87143714D01*
X130150857Y-87215142D01*
X128722285Y-86929428D02*
X128650857Y-86858000D01*
X128508000Y-86786571D01*
X128150857Y-86786571D01*
X128008000Y-86858000D01*
X127936571Y-86929428D01*
X127865142Y-87072285D01*
X127865142Y-87215142D01*
X127936571Y-87429428D01*
X128793714Y-88286571D01*
X127865142Y-88286571D01*
X127008000Y-87429428D02*
X127150857Y-87358000D01*
X127222285Y-87286571D01*
X127293714Y-87143714D01*
X127293714Y-87072285D01*
X127222285Y-86929428D01*
X127150857Y-86858000D01*
X127008000Y-86786571D01*
X126722285Y-86786571D01*
X126579428Y-86858000D01*
X126508000Y-86929428D01*
X126436571Y-87072285D01*
X126436571Y-87143714D01*
X126508000Y-87286571D01*
X126579428Y-87358000D01*
X126722285Y-87429428D01*
X127008000Y-87429428D01*
X127150857Y-87500857D01*
X127222285Y-87572285D01*
X127293714Y-87715142D01*
X127293714Y-88000857D01*
X127222285Y-88143714D01*
X127150857Y-88215142D01*
X127008000Y-88286571D01*
X126722285Y-88286571D01*
X126579428Y-88215142D01*
X126508000Y-88143714D01*
X126436571Y-88000857D01*
X126436571Y-87715142D01*
X126508000Y-87572285D01*
X126579428Y-87500857D01*
X126722285Y-87429428D01*
X125508000Y-86786571D02*
X125365142Y-86786571D01*
X125222285Y-86858000D01*
X125150857Y-86929428D01*
X125079428Y-87072285D01*
X125008000Y-87358000D01*
X125008000Y-87715142D01*
X125079428Y-88000857D01*
X125150857Y-88143714D01*
X125222285Y-88215142D01*
X125365142Y-88286571D01*
X125508000Y-88286571D01*
X125650857Y-88215142D01*
X125722285Y-88143714D01*
X125793714Y-88000857D01*
X125865142Y-87715142D01*
X125865142Y-87358000D01*
X125793714Y-87072285D01*
X125722285Y-86929428D01*
X125650857Y-86858000D01*
X125508000Y-86786571D01*
X123222285Y-88286571D02*
X123222285Y-87286571D01*
X123222285Y-87429428D02*
X123150857Y-87358000D01*
X123008000Y-87286571D01*
X122793714Y-87286571D01*
X122650857Y-87358000D01*
X122579428Y-87500857D01*
X122579428Y-88286571D01*
X122579428Y-87500857D02*
X122508000Y-87358000D01*
X122365142Y-87286571D01*
X122150857Y-87286571D01*
X122008000Y-87358000D01*
X121936571Y-87500857D01*
X121936571Y-88286571D01*
X121222285Y-88286571D02*
X121222285Y-87286571D01*
X121222285Y-87429428D02*
X121150857Y-87358000D01*
X121008000Y-87286571D01*
X120793714Y-87286571D01*
X120650857Y-87358000D01*
X120579428Y-87500857D01*
X120579428Y-88286571D01*
X120579428Y-87500857D02*
X120508000Y-87358000D01*
X120365142Y-87286571D01*
X120150857Y-87286571D01*
X120008000Y-87358000D01*
X119936571Y-87500857D01*
X119936571Y-88286571D01*
D12*
X59944000Y-69842000D02*
X59944000Y-89994420D01*
X195072000Y-69842000D02*
X195072000Y-89994420D01*
X59944000Y-89408000D02*
X195072000Y-89408000D01*
X59944000Y-89408000D02*
X195072000Y-89408000D01*
X59944000Y-89408000D02*
X61070504Y-89994421D01*
X59944000Y-89408000D02*
X61070504Y-88821579D01*
X195072000Y-89408000D02*
X193945496Y-88821579D01*
X195072000Y-89408000D02*
X193945496Y-89994421D01*
D10*
X190659714Y-43609142D02*
X191326380Y-43609142D01*
X190278761Y-43371047D02*
X190993047Y-43132952D01*
X190993047Y-43752000D01*
X190326380Y-44037714D02*
X190326380Y-44656761D01*
X190707333Y-44323428D01*
X190707333Y-44466285D01*
X190754952Y-44561523D01*
X190802571Y-44609142D01*
X190897809Y-44656761D01*
X191135904Y-44656761D01*
X191231142Y-44609142D01*
X191278761Y-44561523D01*
X191326380Y-44466285D01*
X191326380Y-44180571D01*
X191278761Y-44085333D01*
X191231142Y-44037714D01*
X191231142Y-45085333D02*
X191278761Y-45132952D01*
X191326380Y-45085333D01*
X191278761Y-45037714D01*
X191231142Y-45085333D01*
X191326380Y-45085333D01*
X190326380Y-45990095D02*
X190326380Y-45799619D01*
X190374000Y-45704380D01*
X190421619Y-45656761D01*
X190564476Y-45561523D01*
X190754952Y-45513904D01*
X191135904Y-45513904D01*
X191231142Y-45561523D01*
X191278761Y-45609142D01*
X191326380Y-45704380D01*
X191326380Y-45894857D01*
X191278761Y-45990095D01*
X191231142Y-46037714D01*
X191135904Y-46085333D01*
X190897809Y-46085333D01*
X190802571Y-46037714D01*
X190754952Y-45990095D01*
X190707333Y-45894857D01*
X190707333Y-45704380D01*
X190754952Y-45609142D01*
X190802571Y-45561523D01*
X190897809Y-45513904D01*
X190754952Y-46656761D02*
X190707333Y-46561523D01*
X190659714Y-46513904D01*
X190564476Y-46466285D01*
X190516857Y-46466285D01*
X190421619Y-46513904D01*
X190374000Y-46561523D01*
X190326380Y-46656761D01*
X190326380Y-46847238D01*
X190374000Y-46942476D01*
X190421619Y-46990095D01*
X190516857Y-47037714D01*
X190564476Y-47037714D01*
X190659714Y-46990095D01*
X190707333Y-46942476D01*
X190754952Y-46847238D01*
X190754952Y-46656761D01*
X190802571Y-46561523D01*
X190850190Y-46513904D01*
X190945428Y-46466285D01*
X191135904Y-46466285D01*
X191231142Y-46513904D01*
X191278761Y-46561523D01*
X191326380Y-46656761D01*
X191326380Y-46847238D01*
X191278761Y-46942476D01*
X191231142Y-46990095D01*
X191135904Y-47037714D01*
X190945428Y-47037714D01*
X190850190Y-46990095D01*
X190802571Y-46942476D01*
X190754952Y-46847238D01*
X190754952Y-47609142D02*
X190707333Y-47513904D01*
X190659714Y-47466285D01*
X190564476Y-47418666D01*
X190516857Y-47418666D01*
X190421619Y-47466285D01*
X190374000Y-47513904D01*
X190326380Y-47609142D01*
X190326380Y-47799619D01*
X190374000Y-47894857D01*
X190421619Y-47942476D01*
X190516857Y-47990095D01*
X190564476Y-47990095D01*
X190659714Y-47942476D01*
X190707333Y-47894857D01*
X190754952Y-47799619D01*
X190754952Y-47609142D01*
X190802571Y-47513904D01*
X190850190Y-47466285D01*
X190945428Y-47418666D01*
X191135904Y-47418666D01*
X191231142Y-47466285D01*
X191278761Y-47513904D01*
X191326380Y-47609142D01*
X191326380Y-47799619D01*
X191278761Y-47894857D01*
X191231142Y-47942476D01*
X191135904Y-47990095D01*
X190945428Y-47990095D01*
X190850190Y-47942476D01*
X190802571Y-47894857D01*
X190754952Y-47799619D01*
X190326380Y-48609142D02*
X190326380Y-48704380D01*
X190374000Y-48799619D01*
X190421619Y-48847238D01*
X190516857Y-48894857D01*
X190707333Y-48942476D01*
X190945428Y-48942476D01*
X191135904Y-48894857D01*
X191231142Y-48847238D01*
X191278761Y-48799619D01*
X191326380Y-48704380D01*
X191326380Y-48609142D01*
X191278761Y-48513904D01*
X191231142Y-48466285D01*
X191135904Y-48418666D01*
X190945428Y-48371047D01*
X190707333Y-48371047D01*
X190516857Y-48418666D01*
X190421619Y-48466285D01*
X190374000Y-48513904D01*
X190326380Y-48609142D01*
X191326380Y-50132952D02*
X190659714Y-50132952D01*
X190754952Y-50132952D02*
X190707333Y-50180571D01*
X190659714Y-50275809D01*
X190659714Y-50418666D01*
X190707333Y-50513904D01*
X190802571Y-50561523D01*
X191326380Y-50561523D01*
X190802571Y-50561523D02*
X190707333Y-50609142D01*
X190659714Y-50704380D01*
X190659714Y-50847238D01*
X190707333Y-50942476D01*
X190802571Y-50990095D01*
X191326380Y-50990095D01*
X191326380Y-51466285D02*
X190659714Y-51466285D01*
X190754952Y-51466285D02*
X190707333Y-51513904D01*
X190659714Y-51609142D01*
X190659714Y-51752000D01*
X190707333Y-51847238D01*
X190802571Y-51894857D01*
X191326380Y-51894857D01*
X190802571Y-51894857D02*
X190707333Y-51942476D01*
X190659714Y-52037714D01*
X190659714Y-52180571D01*
X190707333Y-52275809D01*
X190802571Y-52323428D01*
X191326380Y-52323428D01*
X194572000Y-25908000D02*
X191437580Y-25908000D01*
X194572000Y-69596000D02*
X191437580Y-69596000D01*
X192024000Y-25908000D02*
X192024000Y-69596000D01*
X192024000Y-25908000D02*
X192024000Y-69596000D01*
X192024000Y-25908000D02*
X191437579Y-27034504D01*
X192024000Y-25908000D02*
X192610421Y-27034504D01*
X192024000Y-69596000D02*
X192610421Y-68469496D01*
X192024000Y-69596000D02*
X191437579Y-68469496D01*
G36*
X155662531Y-64151731D02*
G01*
X155665168Y-64215881D01*
X155679004Y-64306953D01*
X155700727Y-64358883D01*
X155742587Y-64375285D01*
X155839712Y-64387575D01*
X155994106Y-64394778D01*
X156208880Y-64397127D01*
X156230104Y-64397126D01*
X156420385Y-64396112D01*
X156556815Y-64390125D01*
X156648354Y-64374672D01*
X156703958Y-64345259D01*
X156732584Y-64297393D01*
X156743192Y-64226582D01*
X156744737Y-64128331D01*
X156744737Y-63982823D01*
X157158521Y-63982823D01*
X157158521Y-64283270D01*
X157158520Y-64289939D01*
X157157394Y-64428963D01*
X157151834Y-64519647D01*
X157138450Y-64576803D01*
X157113853Y-64615240D01*
X157074655Y-64649770D01*
X157071966Y-64651874D01*
X157042612Y-64672049D01*
X157007548Y-64687473D01*
X156958496Y-64698781D01*
X156887179Y-64706609D01*
X156785316Y-64711592D01*
X156644630Y-64714365D01*
X156456843Y-64715564D01*
X156213676Y-64715822D01*
X156032858Y-64715516D01*
X155817934Y-64713766D01*
X155653426Y-64710080D01*
X155531489Y-64704018D01*
X155444279Y-64695142D01*
X155383949Y-64683015D01*
X155342655Y-64667199D01*
X155248747Y-64618576D01*
X155248747Y-63982823D01*
X155662531Y-63982823D01*
X155662531Y-64151731D01*
G37*
G36*
X157681041Y-62343145D02*
G01*
X157795113Y-62364572D01*
X157795113Y-63058607D01*
X157381328Y-63058607D01*
X157381328Y-62362542D01*
X157474148Y-62342130D01*
X157476293Y-62341670D01*
X157574770Y-62334017D01*
X157681041Y-62343145D01*
G37*
G36*
X167057519Y-62134391D02*
G01*
X166865542Y-62134391D01*
X166760289Y-62130708D01*
X166686710Y-62115655D01*
X166655245Y-62086587D01*
X166641541Y-62069349D01*
X166602316Y-62054261D01*
X166529158Y-62044900D01*
X166412170Y-62040122D01*
X166241460Y-62038783D01*
X166098524Y-62039641D01*
X165972166Y-62043683D01*
X165891501Y-62052093D01*
X165846636Y-62066013D01*
X165827676Y-62086587D01*
X165827642Y-62086674D01*
X165797699Y-62114835D01*
X165727606Y-62129915D01*
X165605868Y-62134391D01*
X165402381Y-62134391D01*
X165402381Y-61976851D01*
X165402387Y-61967077D01*
X165404358Y-61894149D01*
X165414649Y-61837207D01*
X165440176Y-61794271D01*
X165487858Y-61763366D01*
X165564611Y-61742513D01*
X165677354Y-61729736D01*
X165833003Y-61723058D01*
X166038476Y-61720501D01*
X166300691Y-61720088D01*
X167057519Y-61720088D01*
X167057519Y-62134391D01*
G37*
G36*
X158527193Y-63366148D02*
G01*
X158532973Y-63367313D01*
X158583868Y-63381745D01*
X158610608Y-63409567D01*
X158620957Y-63467559D01*
X158622682Y-63572503D01*
X158622682Y-63759736D01*
X158240727Y-63759736D01*
X158240727Y-63572503D01*
X158240731Y-63561169D01*
X158242893Y-63460941D01*
X158254351Y-63406215D01*
X158282870Y-63380211D01*
X158336215Y-63366148D01*
X158421261Y-63358340D01*
X158527193Y-63366148D01*
G37*
G36*
X152991282Y-59187968D02*
G01*
X153011808Y-59211204D01*
X153054786Y-59279083D01*
X153104938Y-59371967D01*
X153172080Y-59500522D01*
X153237289Y-59607142D01*
X153294456Y-59671774D01*
X153352172Y-59703726D01*
X153419029Y-59712309D01*
X153457906Y-59710372D01*
X153505557Y-59695796D01*
X153552902Y-59658190D01*
X153611586Y-59587404D01*
X153693256Y-59473287D01*
X153731031Y-59420917D01*
X153807698Y-59325195D01*
X153871511Y-59258992D01*
X153911547Y-59234266D01*
X153913702Y-59234321D01*
X153971673Y-59245466D01*
X154068426Y-59272219D01*
X154184213Y-59309157D01*
X154405263Y-59384049D01*
X154405263Y-59693406D01*
X154405265Y-59703934D01*
X154406451Y-59844326D01*
X154411925Y-59936197D01*
X154424762Y-59993876D01*
X154448040Y-60031694D01*
X154484837Y-60063979D01*
X154541929Y-60101224D01*
X154605855Y-60120131D01*
X154684301Y-60114419D01*
X154791437Y-60082855D01*
X154941433Y-60024204D01*
X155191137Y-59921281D01*
X155283155Y-60031914D01*
X155297020Y-60048765D01*
X155381057Y-60155772D01*
X155458886Y-60261139D01*
X155542599Y-60379731D01*
X155379758Y-60599667D01*
X155293627Y-60720141D01*
X155242700Y-60808182D01*
X155223314Y-60878883D01*
X155231082Y-60948309D01*
X155261621Y-61032524D01*
X155273356Y-61059452D01*
X155301889Y-61105553D01*
X155345123Y-61135190D01*
X155419167Y-61156830D01*
X155540130Y-61178945D01*
X155596585Y-61188585D01*
X155739444Y-61216094D01*
X155832638Y-61242433D01*
X155886461Y-61272693D01*
X155911207Y-61311961D01*
X155917168Y-61365325D01*
X155905733Y-61431982D01*
X155866820Y-61477657D01*
X155837717Y-61483978D01*
X155748726Y-61491584D01*
X155621227Y-61495906D01*
X155469814Y-61497143D01*
X155309075Y-61495494D01*
X155153603Y-61491158D01*
X155017990Y-61484332D01*
X154916824Y-61475217D01*
X154864699Y-61464010D01*
X154828148Y-61436817D01*
X154803108Y-61392304D01*
X154797446Y-61354925D01*
X154760175Y-61255754D01*
X154695745Y-61131277D01*
X154613166Y-60996775D01*
X154521447Y-60867530D01*
X154429599Y-60758821D01*
X154390132Y-60718486D01*
X154155905Y-60522671D01*
X153904531Y-60386480D01*
X153629189Y-60306966D01*
X153323057Y-60281186D01*
X153138612Y-60291523D01*
X152838771Y-60355532D01*
X152564467Y-60474923D01*
X152321493Y-60646110D01*
X152115644Y-60865505D01*
X151952712Y-61129523D01*
X151919862Y-61200681D01*
X151823038Y-61498230D01*
X151787646Y-61797646D01*
X151812650Y-62092587D01*
X151897016Y-62376715D01*
X152039709Y-62643690D01*
X152239693Y-62887172D01*
X152246977Y-62894465D01*
X152452925Y-63071321D01*
X152674716Y-63201170D01*
X152934505Y-63297079D01*
X153116165Y-63349956D01*
X153116165Y-64428996D01*
X153008659Y-64428996D01*
X152963194Y-64427144D01*
X152902303Y-64409785D01*
X152860608Y-64364357D01*
X152829561Y-64279079D01*
X152800619Y-64142171D01*
X152790879Y-64089671D01*
X152765493Y-63963702D01*
X152742120Y-63882722D01*
X152714012Y-63833271D01*
X152674422Y-63801893D01*
X152616603Y-63775130D01*
X152543028Y-63747288D01*
X152466158Y-63733735D01*
X152393636Y-63749515D01*
X152308330Y-63799164D01*
X152193108Y-63887214D01*
X152169129Y-63906146D01*
X152072026Y-63977574D01*
X151993224Y-64027670D01*
X151947911Y-64046562D01*
X151935694Y-64044487D01*
X151874091Y-64014348D01*
X151789254Y-63957787D01*
X151696540Y-63886982D01*
X151611303Y-63814114D01*
X151548900Y-63751360D01*
X151524687Y-63710899D01*
X151525597Y-63702428D01*
X151542531Y-63639911D01*
X151576445Y-63540554D01*
X151621556Y-63421626D01*
X151718426Y-63177465D01*
X151636071Y-63052862D01*
X151553716Y-62928260D01*
X150938774Y-62947064D01*
X150851036Y-62723977D01*
X150845006Y-62708559D01*
X150803413Y-62597074D01*
X150773728Y-62508659D01*
X150762037Y-62461282D01*
X150768486Y-62446948D01*
X150814581Y-62396906D01*
X150895399Y-62326084D01*
X150999499Y-62244908D01*
X151070741Y-62191464D01*
X151158698Y-62120092D01*
X151209322Y-62066341D01*
X151232403Y-62018740D01*
X151237733Y-61965822D01*
X151237697Y-61960244D01*
X151233106Y-61890603D01*
X151213545Y-61838381D01*
X151168337Y-61792478D01*
X151086809Y-61741793D01*
X150958283Y-61675223D01*
X150927239Y-61659284D01*
X150821626Y-61599681D01*
X150743637Y-61547352D01*
X150708313Y-61512115D01*
X150706726Y-61505593D01*
X150708587Y-61443239D01*
X150723723Y-61341764D01*
X150749529Y-61219644D01*
X150769521Y-61138999D01*
X150802075Y-61039887D01*
X150844854Y-60978438D01*
X150911216Y-60945298D01*
X151014520Y-60931112D01*
X151168124Y-60926527D01*
X151243572Y-60924207D01*
X151333139Y-60913046D01*
X151393614Y-60886917D01*
X151446632Y-60839023D01*
X151455058Y-60829675D01*
X151504500Y-60762609D01*
X151524687Y-60712675D01*
X151522145Y-60700651D01*
X151495225Y-60638768D01*
X151445159Y-60544049D01*
X151379741Y-60431611D01*
X151316464Y-60325336D01*
X151273226Y-60235092D01*
X151264508Y-60164198D01*
X151293174Y-60096794D01*
X151362089Y-60017021D01*
X151474116Y-59909021D01*
X151651824Y-59740741D01*
X151925281Y-59889990D01*
X152198739Y-60039239D01*
X152283455Y-59976155D01*
X152316739Y-59948296D01*
X152346212Y-59907747D01*
X152366225Y-59847326D01*
X152381228Y-59752451D01*
X152395674Y-59608539D01*
X152423178Y-59304007D01*
X152691927Y-59236518D01*
X152742686Y-59224241D01*
X152860153Y-59199690D01*
X152948379Y-59186730D01*
X152991282Y-59187968D01*
G37*
G36*
X164092098Y-60167692D02*
G01*
X164101014Y-60203882D01*
X164151446Y-60415742D01*
X164184647Y-60576685D01*
X164200622Y-60695809D01*
X164199371Y-60782211D01*
X164180899Y-60844990D01*
X164145206Y-60893244D01*
X164092295Y-60936069D01*
X164079241Y-60944125D01*
X163983197Y-60975428D01*
X163855543Y-60987089D01*
X163775394Y-60985851D01*
X163715749Y-60975432D01*
X163687245Y-60945940D01*
X163671648Y-60887497D01*
X163655077Y-60789719D01*
X163659165Y-60730507D01*
X163692867Y-60705446D01*
X163763158Y-60700263D01*
X163777795Y-60699973D01*
X163846586Y-60688907D01*
X163874561Y-60666773D01*
X163869724Y-60639344D01*
X163852134Y-60559914D01*
X163824699Y-60442422D01*
X163790615Y-60299981D01*
X163753076Y-60145703D01*
X163715279Y-59992701D01*
X163680417Y-59854087D01*
X163651686Y-59742973D01*
X163632281Y-59672472D01*
X163628628Y-59655444D01*
X163639609Y-59630703D01*
X163687575Y-59619397D01*
X163785806Y-59616700D01*
X163955977Y-59616700D01*
X164092098Y-60167692D01*
G37*
G36*
X167057519Y-62702731D02*
G01*
X167056322Y-62817951D01*
X167051886Y-62942033D01*
X167044940Y-63030475D01*
X167036299Y-63069230D01*
X167016268Y-63078136D01*
X166946134Y-63087647D01*
X166852370Y-63089743D01*
X166760008Y-63084284D01*
X166694082Y-63071132D01*
X166665006Y-63044167D01*
X166648527Y-62979170D01*
X166643734Y-62863980D01*
X166643734Y-62676173D01*
X166168353Y-62676173D01*
X166032227Y-62859423D01*
X166028361Y-62864619D01*
X165956911Y-62957936D01*
X165898016Y-63030178D01*
X165864091Y-63066087D01*
X165835547Y-63075603D01*
X165757698Y-63084962D01*
X165655782Y-63089263D01*
X165551665Y-63088315D01*
X165467210Y-63081929D01*
X165424283Y-63069914D01*
X165426127Y-63046405D01*
X165457091Y-62984274D01*
X165512212Y-62901405D01*
X165557762Y-62837142D01*
X165607467Y-62760652D01*
X165630890Y-62715597D01*
X165630651Y-62706771D01*
X165598064Y-62665731D01*
X165529699Y-62621183D01*
X165487995Y-62597773D01*
X165430016Y-62541424D01*
X165408322Y-62461054D01*
X165398347Y-62357478D01*
X167057519Y-62357478D01*
X167057519Y-62702731D01*
G37*
G36*
X160332935Y-63350790D02*
G01*
X160455518Y-63358014D01*
X160545131Y-63370117D01*
X160609498Y-63387811D01*
X160656339Y-63411807D01*
X160693379Y-63442819D01*
X160728975Y-63501654D01*
X160752564Y-63591323D01*
X160755529Y-63679545D01*
X160734043Y-63738490D01*
X160730085Y-63740024D01*
X160677831Y-63745296D01*
X160572273Y-63750013D01*
X160421518Y-63753996D01*
X160233675Y-63757065D01*
X160016851Y-63759039D01*
X159779156Y-63759736D01*
X158845489Y-63759736D01*
X158845489Y-63621263D01*
X158845745Y-63601557D01*
X158863033Y-63494218D01*
X158912420Y-63422079D01*
X158922910Y-63413200D01*
X158952451Y-63395398D01*
X158995052Y-63381842D01*
X159059146Y-63371772D01*
X159153165Y-63364428D01*
X159285543Y-63359048D01*
X159464713Y-63354873D01*
X159699109Y-63351143D01*
X159957973Y-63348130D01*
X160169661Y-63347733D01*
X160332935Y-63350790D01*
G37*
G36*
X163683584Y-62494800D02*
G01*
X163684072Y-62538475D01*
X163692439Y-62624339D01*
X163718385Y-62684349D01*
X163771126Y-62723519D01*
X163859877Y-62746863D01*
X163993852Y-62759394D01*
X164182266Y-62766126D01*
X164338499Y-62767785D01*
X164492148Y-62764313D01*
X164610032Y-62755840D01*
X164678258Y-62743013D01*
X164717383Y-62725600D01*
X164749531Y-62693818D01*
X164763038Y-62636088D01*
X164765789Y-62533549D01*
X164765789Y-62357478D01*
X165179574Y-62357478D01*
X165179574Y-62656336D01*
X165179469Y-62700276D01*
X165175415Y-62840703D01*
X165161157Y-62933698D01*
X165130837Y-62992260D01*
X165078599Y-63029387D01*
X164998589Y-63058079D01*
X164986436Y-63060948D01*
X164905628Y-63070109D01*
X164776732Y-63077237D01*
X164611940Y-63082319D01*
X164423447Y-63085344D01*
X164223445Y-63086299D01*
X164024126Y-63085172D01*
X163837683Y-63081950D01*
X163676310Y-63076622D01*
X163552200Y-63069176D01*
X163477544Y-63059599D01*
X163471369Y-63058146D01*
X163383079Y-63029246D01*
X163324674Y-62984764D01*
X163290257Y-62912738D01*
X163273931Y-62801208D01*
X163269799Y-62638212D01*
X163269799Y-62357478D01*
X163683584Y-62357478D01*
X163683584Y-62494800D01*
G37*
G36*
X156321701Y-61720103D02*
G01*
X156569769Y-61720894D01*
X156763218Y-61724254D01*
X156908841Y-61732055D01*
X157013428Y-61746166D01*
X157083771Y-61768459D01*
X157126661Y-61800803D01*
X157148888Y-61845070D01*
X157157245Y-61903129D01*
X157158521Y-61976851D01*
X157158521Y-62134391D01*
X155248747Y-62134391D01*
X155249234Y-61998946D01*
X155249469Y-61971471D01*
X155253786Y-61898510D01*
X155268675Y-61841226D01*
X155300771Y-61797724D01*
X155356709Y-61766110D01*
X155443125Y-61744492D01*
X155566656Y-61730974D01*
X155733936Y-61723664D01*
X155951602Y-61720666D01*
X156226289Y-61720088D01*
X156321701Y-61720103D01*
G37*
G36*
X166869367Y-60480117D02*
G01*
X166909492Y-60645835D01*
X166943340Y-60783912D01*
X166968097Y-60882892D01*
X166980949Y-60931317D01*
X166984891Y-60949611D01*
X166973152Y-60973574D01*
X166924223Y-60984496D01*
X166824920Y-60987089D01*
X166729173Y-60985394D01*
X166673138Y-60974051D01*
X166646416Y-60943766D01*
X166631349Y-60885249D01*
X166629932Y-60878248D01*
X166606237Y-60772802D01*
X166578399Y-60662163D01*
X166545792Y-60540916D01*
X166135009Y-60540916D01*
X166027222Y-60540304D01*
X165854919Y-60533368D01*
X165730807Y-60514236D01*
X165644663Y-60477413D01*
X165586270Y-60417402D01*
X165545405Y-60328708D01*
X165511848Y-60205835D01*
X165489188Y-60102258D01*
X165467651Y-59954525D01*
X165468435Y-59935395D01*
X165783123Y-59935395D01*
X165802602Y-60023036D01*
X165818762Y-60092850D01*
X165837183Y-60166449D01*
X165844544Y-60183709D01*
X165870641Y-60203605D01*
X165924650Y-60215301D01*
X166018475Y-60220829D01*
X166164020Y-60222221D01*
X166475755Y-60222221D01*
X166442978Y-60078808D01*
X166410202Y-59935395D01*
X165783123Y-59935395D01*
X165468435Y-59935395D01*
X165472080Y-59846430D01*
X165503758Y-59765487D01*
X165563971Y-59699207D01*
X165605160Y-59666736D01*
X165648233Y-59643158D01*
X165703583Y-59628452D01*
X165784055Y-59620532D01*
X165902495Y-59617310D01*
X166071746Y-59616700D01*
X166170445Y-59617221D01*
X166347882Y-59622863D01*
X166476479Y-59636488D01*
X166566324Y-59660300D01*
X166627507Y-59696499D01*
X166670116Y-59747287D01*
X166684004Y-59780157D01*
X166712586Y-59869852D01*
X166749679Y-60001264D01*
X166792025Y-60162726D01*
X166806693Y-60222221D01*
X166836365Y-60342573D01*
X166869367Y-60480117D01*
G37*
G36*
X154385189Y-61720915D02*
G01*
X154596565Y-61723174D01*
X154756792Y-61729393D01*
X154873145Y-61741678D01*
X154952901Y-61762137D01*
X155003336Y-61792877D01*
X155031725Y-61836005D01*
X155045347Y-61893627D01*
X155051475Y-61967851D01*
X155061096Y-62134391D01*
X154856438Y-62134391D01*
X154769404Y-62132109D01*
X154666151Y-62117070D01*
X154612155Y-62086587D01*
X154609349Y-62083437D01*
X154572423Y-62061892D01*
X154504058Y-62048160D01*
X154393551Y-62040904D01*
X154230200Y-62038783D01*
X154207619Y-62038810D01*
X154051124Y-62041473D01*
X153946198Y-62049430D01*
X153882139Y-62064022D01*
X153848245Y-62086587D01*
X153812540Y-62110684D01*
X153727680Y-62128762D01*
X153589712Y-62134391D01*
X153370802Y-62134391D01*
X153370802Y-61976851D01*
X153371412Y-61923996D01*
X153377995Y-61857900D01*
X153397786Y-61807891D01*
X153437992Y-61771735D01*
X153505820Y-61747199D01*
X153608477Y-61732047D01*
X153753171Y-61724046D01*
X153947108Y-61720961D01*
X154197496Y-61720558D01*
X154385189Y-61720915D01*
G37*
G36*
X154754381Y-63349004D02*
G01*
X154877740Y-63352620D01*
X154960335Y-63359325D01*
X155008907Y-63369395D01*
X155030197Y-63383108D01*
X155046879Y-63435055D01*
X155056229Y-63529382D01*
X155053673Y-63630857D01*
X155038449Y-63709326D01*
X155019182Y-63729706D01*
X154950579Y-63752892D01*
X154855434Y-63762849D01*
X154755919Y-63759437D01*
X154674209Y-63742512D01*
X154632474Y-63711932D01*
X154599550Y-63691092D01*
X154516391Y-63674205D01*
X154398915Y-63663859D01*
X154262369Y-63660073D01*
X154122002Y-63662867D01*
X153993063Y-63672260D01*
X153890798Y-63688270D01*
X153830457Y-63710919D01*
X153807242Y-63724177D01*
X153709660Y-63749243D01*
X153569737Y-63758723D01*
X153370802Y-63759736D01*
X153370802Y-63621263D01*
X153371059Y-63601546D01*
X153388348Y-63494214D01*
X153437735Y-63422079D01*
X153452711Y-63409834D01*
X153483312Y-63393127D01*
X153528147Y-63380391D01*
X153595453Y-63370909D01*
X153693467Y-63363968D01*
X153830426Y-63358853D01*
X154014570Y-63354848D01*
X154254134Y-63351238D01*
X154358409Y-63349932D01*
X154583518Y-63348200D01*
X154754381Y-63349004D01*
G37*
G36*
X162065143Y-59641858D02*
G01*
X162140530Y-59688876D01*
X162147619Y-59695225D01*
X162178817Y-59731574D01*
X162207873Y-59784571D01*
X162237908Y-59863346D01*
X162272045Y-59977027D01*
X162313406Y-60134746D01*
X162365112Y-60345632D01*
X162366092Y-60349702D01*
X162410192Y-60534330D01*
X162448557Y-60697708D01*
X162478852Y-60829667D01*
X162498741Y-60920037D01*
X162505890Y-60958650D01*
X162487738Y-60965972D01*
X162415620Y-60974386D01*
X162298228Y-60981077D01*
X162145938Y-60985494D01*
X161969127Y-60987089D01*
X161779176Y-60987554D01*
X161617058Y-60984725D01*
X161495059Y-60971384D01*
X161404872Y-60940300D01*
X161338191Y-60884242D01*
X161286708Y-60795978D01*
X161242118Y-60668278D01*
X161196115Y-60493911D01*
X161140390Y-60265644D01*
X161097529Y-60092301D01*
X161056232Y-59927239D01*
X161021933Y-59792202D01*
X160997334Y-59697822D01*
X160985136Y-59654729D01*
X160990153Y-59631408D01*
X161037150Y-59620857D01*
X161136908Y-59622860D01*
X161303942Y-59632635D01*
X161430579Y-60150514D01*
X161557216Y-60668394D01*
X162125148Y-60668394D01*
X162105132Y-60580753D01*
X162089211Y-60512714D01*
X162061004Y-60395103D01*
X162026374Y-60252545D01*
X161988885Y-60099523D01*
X161952101Y-59950522D01*
X161919586Y-59820024D01*
X161894904Y-59722513D01*
X161881620Y-59672472D01*
X161881896Y-59643509D01*
X161918726Y-59618091D01*
X161985508Y-59617902D01*
X162065143Y-59641858D01*
G37*
G36*
X160545011Y-63989389D02*
G01*
X160739348Y-63998758D01*
X160748588Y-64261377D01*
X160749919Y-64308980D01*
X160746091Y-64465314D01*
X160725034Y-64572705D01*
X160683416Y-64641921D01*
X160617907Y-64683730D01*
X160571835Y-64690961D01*
X160470041Y-64697938D01*
X160322493Y-64704010D01*
X160138351Y-64708877D01*
X159926777Y-64712241D01*
X159696930Y-64713802D01*
X158845489Y-64715822D01*
X158845489Y-64397127D01*
X159537782Y-64396639D01*
X159618104Y-64396406D01*
X159816830Y-64394250D01*
X159991431Y-64390144D01*
X160132023Y-64384451D01*
X160228723Y-64377532D01*
X160271648Y-64369750D01*
X160290520Y-64342488D01*
X160314897Y-64265343D01*
X160331948Y-64161685D01*
X160350674Y-63980021D01*
X160545011Y-63989389D01*
G37*
G36*
X160381300Y-61720122D02*
G01*
X160624886Y-61721076D01*
X160814684Y-61724712D01*
X160957405Y-61732836D01*
X161059758Y-61747251D01*
X161128455Y-61769762D01*
X161170205Y-61802173D01*
X161191719Y-61846289D01*
X161199706Y-61903913D01*
X161200877Y-61976851D01*
X161200877Y-62134391D01*
X159291103Y-62134391D01*
X159291103Y-61976851D01*
X159291231Y-61940467D01*
X159294778Y-61874968D01*
X159308301Y-61823933D01*
X159338512Y-61785556D01*
X159392121Y-61758034D01*
X159475838Y-61739562D01*
X159596373Y-61728335D01*
X159760437Y-61722550D01*
X159974739Y-61720403D01*
X160245990Y-61720088D01*
X160381300Y-61720122D01*
G37*
G36*
X157043790Y-63367000D02*
G01*
X157158521Y-63385642D01*
X157158521Y-63759736D01*
X156744737Y-63759736D01*
X156744737Y-63572503D01*
X156744738Y-63565855D01*
X156746799Y-63463590D01*
X156757848Y-63407483D01*
X156785382Y-63380802D01*
X156836898Y-63366814D01*
X156839006Y-63366403D01*
X156937232Y-63359259D01*
X157043790Y-63367000D01*
G37*
G36*
X155053124Y-64529211D02*
G01*
X155050079Y-64625291D01*
X155044075Y-64673716D01*
X155040209Y-64679350D01*
X155012221Y-64691992D01*
X154953305Y-64701529D01*
X154856919Y-64708321D01*
X154716518Y-64712728D01*
X154525558Y-64715108D01*
X154277497Y-64715822D01*
X153527056Y-64715822D01*
X153448929Y-64637597D01*
X153418613Y-64603884D01*
X153388291Y-64547889D01*
X153374234Y-64469972D01*
X153370802Y-64349322D01*
X153371046Y-64333388D01*
X153864160Y-64333388D01*
X153869702Y-64349776D01*
X153899602Y-64366169D01*
X153964108Y-64377376D01*
X154072902Y-64384876D01*
X154235668Y-64390149D01*
X154309973Y-64391545D01*
X154478813Y-64390154D01*
X154585069Y-64380805D01*
X154629173Y-64363470D01*
X154639395Y-64327051D01*
X154611461Y-64299098D01*
X154537278Y-64282176D01*
X154411184Y-64275060D01*
X154227517Y-64276523D01*
X154112228Y-64280008D01*
X153989056Y-64286811D01*
X153913162Y-64296957D01*
X153874784Y-64311973D01*
X153864160Y-64333388D01*
X153371046Y-64333388D01*
X153372090Y-64265335D01*
X153381715Y-64174832D01*
X153405625Y-64113498D01*
X153449507Y-64060469D01*
X153528212Y-63981665D01*
X154285033Y-63990212D01*
X155041854Y-63998758D01*
X155051033Y-64315184D01*
X155051290Y-64327051D01*
X155052900Y-64401503D01*
X155053124Y-64529211D01*
G37*
G36*
X157779198Y-61736022D02*
G01*
X157789059Y-61891321D01*
X157791282Y-61941576D01*
X157790130Y-62034199D01*
X157782101Y-62090505D01*
X157765637Y-62108872D01*
X157697564Y-62128234D01*
X157573305Y-62134391D01*
X157381328Y-62134391D01*
X157381328Y-61717046D01*
X157779198Y-61736022D01*
G37*
G36*
X159711181Y-62524018D02*
G01*
X159718005Y-62598186D01*
X159736919Y-62667965D01*
X159775581Y-62716179D01*
X159842752Y-62746391D01*
X159947191Y-62762162D01*
X160097658Y-62767056D01*
X160302914Y-62764633D01*
X160437983Y-62761497D01*
X160583583Y-62754544D01*
X160681587Y-62740191D01*
X160741442Y-62713443D01*
X160772597Y-62669302D01*
X160784502Y-62602773D01*
X160786605Y-62508858D01*
X160787093Y-62357478D01*
X161200877Y-62357478D01*
X161200877Y-62656336D01*
X161200770Y-62701096D01*
X161196739Y-62840955D01*
X161182524Y-62933582D01*
X161152237Y-62992085D01*
X161099989Y-63029568D01*
X161019892Y-63059138D01*
X160998596Y-63063205D01*
X160913592Y-63070329D01*
X160780527Y-63075927D01*
X160609779Y-63079725D01*
X160411725Y-63081450D01*
X160196743Y-63080829D01*
X160040982Y-63079554D01*
X159810258Y-63076696D01*
X159632429Y-63070349D01*
X159500619Y-63057313D01*
X159407951Y-63034390D01*
X159347550Y-62998380D01*
X159312541Y-62946086D01*
X159296047Y-62874307D01*
X159291193Y-62779846D01*
X159291103Y-62659504D01*
X159291103Y-62357478D01*
X159701560Y-62357478D01*
X159711181Y-62524018D01*
G37*
G36*
X164342754Y-61720103D02*
G01*
X164590821Y-61720894D01*
X164784271Y-61724254D01*
X164929894Y-61732055D01*
X165034481Y-61746166D01*
X165104824Y-61768459D01*
X165147714Y-61800803D01*
X165169941Y-61845070D01*
X165178297Y-61903129D01*
X165179574Y-61976851D01*
X165179574Y-62134391D01*
X163269799Y-62134391D01*
X163270287Y-61998946D01*
X163270521Y-61971471D01*
X163274839Y-61898510D01*
X163289728Y-61841226D01*
X163321823Y-61797724D01*
X163377761Y-61766110D01*
X163464178Y-61744492D01*
X163587708Y-61730974D01*
X163754989Y-61723664D01*
X163972654Y-61720666D01*
X164247341Y-61720088D01*
X164342754Y-61720103D01*
G37*
G36*
X157158521Y-62656336D02*
G01*
X157158416Y-62700484D01*
X157154368Y-62840767D01*
X157140120Y-62933668D01*
X157109809Y-62992215D01*
X157057569Y-63029433D01*
X156977536Y-63058349D01*
X156937947Y-63064192D01*
X156838565Y-63070525D01*
X156692986Y-63075511D01*
X156510936Y-63078915D01*
X156302138Y-63080502D01*
X156076316Y-63080040D01*
X155264661Y-63074542D01*
X155255030Y-62924869D01*
X155245398Y-62775196D01*
X155964443Y-62765521D01*
X156184270Y-62762573D01*
X156375854Y-62758625D01*
X156517862Y-62751627D01*
X156617714Y-62739137D01*
X156682826Y-62718714D01*
X156720618Y-62687917D01*
X156738507Y-62644302D01*
X156743911Y-62585430D01*
X156744249Y-62508858D01*
X156744737Y-62357478D01*
X157158521Y-62357478D01*
X157158521Y-62656336D01*
G37*
G36*
X155547800Y-63367000D02*
G01*
X155662531Y-63385642D01*
X155662531Y-63759736D01*
X155248747Y-63759736D01*
X155248747Y-63572503D01*
X155248748Y-63565855D01*
X155250809Y-63463590D01*
X155261858Y-63407483D01*
X155289392Y-63380802D01*
X155340908Y-63366814D01*
X155343016Y-63366403D01*
X155441242Y-63359259D01*
X155547800Y-63367000D01*
G37*
G36*
X158989549Y-61727963D02*
G01*
X159086633Y-61734296D01*
X159144150Y-61744601D01*
X159168939Y-61759217D01*
X159185437Y-61811928D01*
X159194170Y-61905909D01*
X159191256Y-62006804D01*
X159176040Y-62084642D01*
X159168702Y-62096867D01*
X159145399Y-62111226D01*
X159100019Y-62121126D01*
X159024250Y-62127114D01*
X158909780Y-62129739D01*
X158748298Y-62129547D01*
X158531491Y-62127085D01*
X157906516Y-62118457D01*
X157906516Y-61736022D01*
X158524877Y-61727347D01*
X158649340Y-61725862D01*
X158846064Y-61725265D01*
X158989549Y-61727963D01*
G37*
G36*
X154749979Y-62327240D02*
G01*
X154876147Y-62331918D01*
X154962428Y-62341441D01*
X155015530Y-62356736D01*
X155042163Y-62378728D01*
X155049038Y-62408343D01*
X155042863Y-62446506D01*
X155041623Y-62451532D01*
X155022695Y-62513537D01*
X154995129Y-62559300D01*
X154949757Y-62591674D01*
X154877409Y-62613510D01*
X154768915Y-62627659D01*
X154615107Y-62636973D01*
X154406815Y-62644304D01*
X154397183Y-62644600D01*
X154185106Y-62652461D01*
X154030316Y-62661688D01*
X153926684Y-62673264D01*
X153868081Y-62688176D01*
X153848376Y-62707408D01*
X153861442Y-62731945D01*
X153897088Y-62739780D01*
X153986537Y-62747899D01*
X154119073Y-62755427D01*
X154284221Y-62761772D01*
X154471509Y-62766345D01*
X155057769Y-62776844D01*
X155057769Y-63094647D01*
X154300316Y-63084594D01*
X154147348Y-63082563D01*
X153911886Y-63078383D01*
X153729574Y-63071313D01*
X153593618Y-63058631D01*
X153497221Y-63037615D01*
X153433590Y-63005542D01*
X153395927Y-62959691D01*
X153377438Y-62897340D01*
X153371328Y-62815766D01*
X153370802Y-62712247D01*
X153370795Y-62699684D01*
X153371413Y-62591120D01*
X153378306Y-62507105D01*
X153398644Y-62444359D01*
X153439596Y-62399602D01*
X153508334Y-62369554D01*
X153612027Y-62350934D01*
X153757846Y-62340463D01*
X153952961Y-62334860D01*
X154204543Y-62330846D01*
X154351140Y-62328719D01*
X154577213Y-62326482D01*
X154749979Y-62327240D01*
G37*
G36*
X163073882Y-62904630D02*
G01*
X163070594Y-63001420D01*
X163064455Y-63050125D01*
X163056681Y-63059609D01*
X163026040Y-63071359D01*
X162966701Y-63079628D01*
X162871678Y-63084730D01*
X162733985Y-63086976D01*
X162546635Y-63086678D01*
X162302641Y-63084149D01*
X162195921Y-63082803D01*
X161959377Y-63079189D01*
X161776809Y-63073038D01*
X161641234Y-63061364D01*
X161545671Y-63041180D01*
X161483138Y-63009498D01*
X161446655Y-62963331D01*
X161429239Y-62899691D01*
X161423909Y-62815590D01*
X161423684Y-62708043D01*
X161423676Y-62703386D01*
X161883747Y-62703386D01*
X161929973Y-62738313D01*
X161944828Y-62743780D01*
X162018071Y-62755917D01*
X162128006Y-62764807D01*
X162257941Y-62770163D01*
X162391183Y-62771700D01*
X162511038Y-62769131D01*
X162600814Y-62762172D01*
X162643818Y-62750535D01*
X162650899Y-62740998D01*
X162665037Y-62686796D01*
X162662187Y-62677291D01*
X162633382Y-62661427D01*
X162566603Y-62651277D01*
X162453309Y-62645888D01*
X162284961Y-62644304D01*
X162275046Y-62644310D01*
X162087046Y-62647976D01*
X161960411Y-62658713D01*
X161893269Y-62677017D01*
X161883747Y-62703386D01*
X161423676Y-62703386D01*
X161423594Y-62657979D01*
X161425098Y-62560906D01*
X161434631Y-62486019D01*
X161459146Y-62430442D01*
X161505597Y-62391302D01*
X161580936Y-62365724D01*
X161692117Y-62350833D01*
X161846093Y-62343756D01*
X162049816Y-62341617D01*
X162310240Y-62341543D01*
X163062907Y-62341543D01*
X163072042Y-62674019D01*
X163072290Y-62686796D01*
X163074005Y-62775357D01*
X163073882Y-62904630D01*
G37*
G36*
X158781829Y-62705706D02*
G01*
X158780826Y-62853590D01*
X158776487Y-62958725D01*
X158767078Y-63022072D01*
X158750869Y-63054908D01*
X158726128Y-63068508D01*
X158704720Y-63073379D01*
X158601904Y-63085111D01*
X158495470Y-63084456D01*
X158418393Y-63071132D01*
X158403879Y-63062207D01*
X158385948Y-63030071D01*
X158375000Y-62967054D01*
X158369533Y-62862220D01*
X158368045Y-62704633D01*
X158368045Y-62357478D01*
X158781829Y-62357478D01*
X158781829Y-62705706D01*
G37*
G36*
X162923685Y-60700263D02*
G01*
X163048998Y-60700263D01*
X163075739Y-60699593D01*
X163146095Y-60689528D01*
X163174311Y-60671220D01*
X163169842Y-60642711D01*
X163153211Y-60562163D01*
X163127158Y-60444901D01*
X163094737Y-60304982D01*
X163068179Y-60191414D01*
X163040740Y-60071402D01*
X163022061Y-59986411D01*
X163015163Y-59949927D01*
X163027190Y-59943925D01*
X163086399Y-59939396D01*
X163178424Y-59941697D01*
X163341686Y-59951330D01*
X163431796Y-60317829D01*
X163465312Y-60457603D01*
X163495006Y-60588654D01*
X163515341Y-60686822D01*
X163523171Y-60737655D01*
X163522063Y-60748799D01*
X163494747Y-60813374D01*
X163442033Y-60889035D01*
X163415698Y-60918968D01*
X163361200Y-60963255D01*
X163293463Y-60982741D01*
X163187396Y-60987089D01*
X163100957Y-60989963D01*
X163035011Y-61003846D01*
X163015163Y-61031484D01*
X163024950Y-61062649D01*
X163084785Y-61100824D01*
X163190684Y-61114567D01*
X163242775Y-61126351D01*
X163286095Y-61186273D01*
X163300511Y-61236784D01*
X163322214Y-61313751D01*
X163325204Y-61337763D01*
X163306737Y-61358083D01*
X163250424Y-61367332D01*
X163143393Y-61369523D01*
X163042108Y-61367153D01*
X162962987Y-61352800D01*
X162897555Y-61316486D01*
X162819196Y-61248256D01*
X162774802Y-61205385D01*
X162736790Y-61160911D01*
X162705767Y-61108517D01*
X162677493Y-61037360D01*
X162647726Y-60936599D01*
X162612225Y-60795392D01*
X162566751Y-60602898D01*
X162537013Y-60475868D01*
X162497583Y-60307712D01*
X162464162Y-60165507D01*
X162439580Y-60061291D01*
X162426668Y-60007102D01*
X162420800Y-59972949D01*
X162433279Y-59947678D01*
X162481312Y-59937364D01*
X162578939Y-59935395D01*
X162748691Y-59935395D01*
X162923685Y-60700263D01*
G37*
G36*
X165435669Y-60731795D02*
G01*
X165355034Y-60855559D01*
X165230018Y-60941789D01*
X165198844Y-60953579D01*
X165053996Y-60980833D01*
X164886137Y-60980720D01*
X164722778Y-60952652D01*
X164651983Y-60925810D01*
X164517459Y-60835022D01*
X164402226Y-60707860D01*
X164316175Y-60559493D01*
X164279275Y-60438224D01*
X164578834Y-60438224D01*
X164613176Y-60551029D01*
X164682850Y-60650221D01*
X164782796Y-60718709D01*
X164800044Y-60725822D01*
X164867935Y-60751502D01*
X164900043Y-60759662D01*
X164921409Y-60753931D01*
X164981423Y-60741408D01*
X165004840Y-60735044D01*
X165085061Y-60677063D01*
X165131869Y-60581590D01*
X165135002Y-60466965D01*
X165120904Y-60415347D01*
X165056555Y-60306069D01*
X164961645Y-60226752D01*
X164850825Y-60184211D01*
X164738744Y-60185263D01*
X164640054Y-60236721D01*
X164636392Y-60240134D01*
X164584885Y-60328895D01*
X164578834Y-60438224D01*
X164279275Y-60438224D01*
X164269194Y-60405093D01*
X164271172Y-60259830D01*
X164280826Y-60224255D01*
X164349062Y-60103816D01*
X164456618Y-60018455D01*
X164592918Y-59967430D01*
X164747389Y-59949997D01*
X164909456Y-59965413D01*
X165068547Y-60012935D01*
X165214086Y-60091820D01*
X165335500Y-60201325D01*
X165422216Y-60340708D01*
X165449137Y-60417518D01*
X165454887Y-60466965D01*
X165468259Y-60581960D01*
X165435669Y-60731795D01*
G37*
G36*
X158622682Y-64715822D02*
G01*
X157349499Y-64715822D01*
X157349499Y-64397127D01*
X158205859Y-64397127D01*
X158215336Y-64197942D01*
X158224812Y-63998758D01*
X158622682Y-63979782D01*
X158622682Y-64715822D01*
G37*
G36*
X163078822Y-62134391D02*
G01*
X162871930Y-62134391D01*
X162824975Y-62134041D01*
X162728204Y-62128305D01*
X162678850Y-62113401D01*
X162665037Y-62086587D01*
X162665033Y-62085993D01*
X162655140Y-62065941D01*
X162619871Y-62052340D01*
X162549662Y-62044044D01*
X162434950Y-62039907D01*
X162266169Y-62038783D01*
X162118627Y-62039687D01*
X161992816Y-62043773D01*
X161912510Y-62052198D01*
X161867850Y-62066093D01*
X161848979Y-62086587D01*
X161848946Y-62086674D01*
X161819002Y-62114835D01*
X161748909Y-62129915D01*
X161627171Y-62134391D01*
X161423684Y-62134391D01*
X161423684Y-61976851D01*
X161423690Y-61967077D01*
X161425661Y-61894149D01*
X161435952Y-61837207D01*
X161461479Y-61794271D01*
X161509161Y-61763366D01*
X161585915Y-61742513D01*
X161698657Y-61729736D01*
X161854306Y-61723058D01*
X162059780Y-61720501D01*
X162321994Y-61720088D01*
X163078822Y-61720088D01*
X163078822Y-62134391D01*
G37*
%LPC*%
D13*
X175235250Y-33680000D03*
X187551250Y-33680000D03*
X176635250Y-33680000D03*
X188951250Y-33680000D03*
X175359250Y-52680000D03*
X187427250Y-52680000D03*
X176759250Y-52680000D03*
X188827250Y-52680000D03*
X151105250Y-33934000D03*
X163421250Y-33934000D03*
X152505250Y-33934000D03*
X164821250Y-33934000D03*
X151229250Y-52934000D03*
X163297250Y-52934000D03*
X152629250Y-52934000D03*
X164697250Y-52934000D03*
D14*
X125251000Y-81280000D03*
D15*
X130251000Y-81280000D03*
D14*
X162081000Y-81280000D03*
D15*
X167081000Y-81280000D03*
D16*
X104142500Y-83864000D03*
D17*
X104142500Y-76664000D03*
D16*
X91442500Y-83864000D03*
D17*
X91442500Y-76664000D03*
D18*
X99412000Y-27555000D03*
X96012000Y-27555000D03*
X96012000Y-41025000D03*
X99412000Y-41025000D03*
X115142500Y-64139000D03*
X118542500Y-64139000D03*
X115142500Y-50669000D03*
X118542500Y-50669000D03*
D14*
X174244000Y-81280000D03*
D15*
X179244000Y-81280000D03*
D13*
X127601250Y-33925250D03*
X139917250Y-33925250D03*
X129001250Y-33925250D03*
X141317250Y-33925250D03*
X127725250Y-52925250D03*
X139793250Y-52925250D03*
X129125250Y-52925250D03*
X141193250Y-52925250D03*
D14*
X186719000Y-81280000D03*
D15*
X191719000Y-81280000D03*
D18*
X108810000Y-27555000D03*
X105410000Y-27555000D03*
X108810000Y-41025000D03*
X105410000Y-41025000D03*
X105842500Y-64139000D03*
X102442500Y-64139000D03*
X105842500Y-50669000D03*
X102442500Y-50669000D03*
X77042500Y-64139000D03*
X80442500Y-64139000D03*
X80442500Y-50669000D03*
X77042500Y-50669000D03*
D16*
X66042500Y-40640000D03*
D17*
X66042500Y-33440000D03*
D18*
X64342500Y-64139000D03*
X67742500Y-64139000D03*
X64342500Y-50669000D03*
X67742500Y-50669000D03*
D16*
X116842500Y-83864000D03*
D17*
X116842500Y-76664000D03*
D16*
X66042500Y-83864000D03*
D17*
X66042500Y-76664000D03*
D14*
X149889000Y-81280000D03*
D15*
X154889000Y-81280000D03*
D14*
X137189000Y-81280000D03*
D15*
X142189000Y-81280000D03*
D16*
X78742500Y-83864000D03*
D17*
X78742500Y-76664000D03*
D18*
X89742500Y-64139000D03*
X93142500Y-64139000D03*
X89742500Y-50669000D03*
X93142500Y-50669000D03*
X114300000Y-27555000D03*
X117700000Y-27555000D03*
X114300000Y-41025000D03*
X117700000Y-41025000D03*
M02*
