G04 #@! TF.GenerationSoftware,KiCad,Pcbnew,6.0.2-378541a8eb~116~ubuntu18.04.1*
G04 #@! TF.CreationDate,2022-02-21T15:42:04+08:00*
G04 #@! TF.ProjectId,XT60_CAN,58543630-5f43-4414-9e2e-6b696361645f,rev?*
G04 #@! TF.SameCoordinates,Original*
G04 #@! TF.FileFunction,Soldermask,Bot*
G04 #@! TF.FilePolarity,Negative*
%FSLAX46Y46*%
G04 Gerber Fmt 4.6, Leading zero omitted, Abs format (unit mm)*
G04 Created by KiCad (PCBNEW 6.0.2-378541a8eb~116~ubuntu18.04.1) date 2022-02-21 15:42:04*
%MOMM*%
%LPD*%
G01*
G04 APERTURE LIST*
G04 Aperture macros list*
%AMRoundRect*
0 Rectangle with rounded corners*
0 $1 Rounding radius*
0 $2 $3 $4 $5 $6 $7 $8 $9 X,Y pos of 4 corners*
0 Add a 4 corners polygon primitive as box body*
4,1,4,$2,$3,$4,$5,$6,$7,$8,$9,$2,$3,0*
0 Add four circle primitives for the rounded corners*
1,1,$1+$1,$2,$3*
1,1,$1+$1,$4,$5*
1,1,$1+$1,$6,$7*
1,1,$1+$1,$8,$9*
0 Add four rect primitives between the rounded corners*
20,1,$1+$1,$2,$3,$4,$5,0*
20,1,$1+$1,$4,$5,$6,$7,0*
20,1,$1+$1,$6,$7,$8,$9,0*
20,1,$1+$1,$8,$9,$2,$3,0*%
G04 Aperture macros list end*
%ADD10R,1.308000X4.500000*%
%ADD11R,1.980000X3.960000*%
%ADD12O,1.980000X3.960000*%
%ADD13RoundRect,1.500000X1.500000X-1.500000X1.500000X1.500000X-1.500000X1.500000X-1.500000X-1.500000X0*%
%ADD14C,6.000000*%
%ADD15C,2.400000*%
G04 APERTURE END LIST*
D10*
X175235250Y-33680000D03*
X187551250Y-33680000D03*
X176635250Y-33680000D03*
X188951250Y-33680000D03*
X175359250Y-52680000D03*
X187427250Y-52680000D03*
X176759250Y-52680000D03*
X188827250Y-52680000D03*
X151105250Y-33934000D03*
X163421250Y-33934000D03*
X152505250Y-33934000D03*
X164821250Y-33934000D03*
X151229250Y-52934000D03*
X163297250Y-52934000D03*
X152629250Y-52934000D03*
X164697250Y-52934000D03*
D11*
X125251000Y-81280000D03*
D12*
X130251000Y-81280000D03*
D11*
X162081000Y-81280000D03*
D12*
X167081000Y-81280000D03*
D13*
X104142500Y-83864000D03*
D14*
X104142500Y-76664000D03*
D13*
X91442500Y-83864000D03*
D14*
X91442500Y-76664000D03*
D15*
X99412000Y-27555000D03*
X96012000Y-27555000D03*
X96012000Y-41025000D03*
X99412000Y-41025000D03*
X115142500Y-64139000D03*
X118542500Y-64139000D03*
X115142500Y-50669000D03*
X118542500Y-50669000D03*
D11*
X174244000Y-81280000D03*
D12*
X179244000Y-81280000D03*
D10*
X127601250Y-33925250D03*
X139917250Y-33925250D03*
X129001250Y-33925250D03*
X141317250Y-33925250D03*
X127725250Y-52925250D03*
X139793250Y-52925250D03*
X129125250Y-52925250D03*
X141193250Y-52925250D03*
D11*
X186719000Y-81280000D03*
D12*
X191719000Y-81280000D03*
D15*
X108810000Y-27555000D03*
X105410000Y-27555000D03*
X108810000Y-41025000D03*
X105410000Y-41025000D03*
X105842500Y-64139000D03*
X102442500Y-64139000D03*
X105842500Y-50669000D03*
X102442500Y-50669000D03*
X77042500Y-64139000D03*
X80442500Y-64139000D03*
X80442500Y-50669000D03*
X77042500Y-50669000D03*
D13*
X66042500Y-40640000D03*
D14*
X66042500Y-33440000D03*
D15*
X64342500Y-64139000D03*
X67742500Y-64139000D03*
X64342500Y-50669000D03*
X67742500Y-50669000D03*
D13*
X116842500Y-83864000D03*
D14*
X116842500Y-76664000D03*
D13*
X66042500Y-83864000D03*
D14*
X66042500Y-76664000D03*
D11*
X149889000Y-81280000D03*
D12*
X154889000Y-81280000D03*
D11*
X137189000Y-81280000D03*
D12*
X142189000Y-81280000D03*
D13*
X78742500Y-83864000D03*
D14*
X78742500Y-76664000D03*
D15*
X89742500Y-64139000D03*
X93142500Y-64139000D03*
X89742500Y-50669000D03*
X93142500Y-50669000D03*
X114300000Y-27555000D03*
X117700000Y-27555000D03*
X114300000Y-41025000D03*
X117700000Y-41025000D03*
M02*
