G04 #@! TF.GenerationSoftware,KiCad,Pcbnew,5.1.9-73d0e3b20d~88~ubuntu20.04.1*
G04 #@! TF.CreationDate,2021-04-08T00:26:52+08:00*
G04 #@! TF.ProjectId,AbsoluteEncoderBoard,4162736f-6c75-4746-9545-6e636f646572,rev?*
G04 #@! TF.SameCoordinates,Original*
G04 #@! TF.FileFunction,Soldermask,Top*
G04 #@! TF.FilePolarity,Negative*
%FSLAX46Y46*%
G04 Gerber Fmt 4.6, Leading zero omitted, Abs format (unit mm)*
G04 Created by KiCad (PCBNEW 5.1.9-73d0e3b20d~88~ubuntu20.04.1) date 2021-04-08 00:26:52*
%MOMM*%
%LPD*%
G01*
G04 APERTURE LIST*
%ADD10C,3.200000*%
%ADD11R,1.600000X0.760000*%
%ADD12C,4.000000*%
%ADD13R,3.800000X3.800000*%
%ADD14C,1.700000*%
%ADD15R,0.600000X0.450000*%
%ADD16R,1.000000X1.000000*%
%ADD17R,1.560000X0.650000*%
%ADD18R,1.800000X2.900000*%
%ADD19R,2.300000X3.500000*%
%ADD20R,1.100000X1.300000*%
%ADD21R,0.300000X1.200000*%
%ADD22R,1.200000X0.300000*%
%ADD23R,1.500000X1.000000*%
%ADD24R,2.000000X2.000000*%
%ADD25R,1.700000X1.000000*%
%ADD26C,0.100000*%
%ADD27R,0.850000X0.500000*%
%ADD28O,1.200000X1.750000*%
%ADD29O,1.700000X1.700000*%
%ADD30R,1.700000X1.700000*%
%ADD31C,1.800000*%
%ADD32C,3.700000*%
%ADD33R,1.450000X0.600000*%
%ADD34R,1.450000X0.300000*%
%ADD35O,2.100000X1.000000*%
%ADD36C,0.650000*%
%ADD37O,1.600000X1.000000*%
%ADD38O,1.750000X1.200000*%
%ADD39C,0.254000*%
G04 APERTURE END LIST*
D10*
X170000000Y-90000000D03*
X130000000Y-90000000D03*
X170000000Y-40000000D03*
X130000000Y-40000000D03*
D11*
X146340000Y-90000000D03*
X153960000Y-90000000D03*
D12*
X169926000Y-47832000D03*
D13*
X169926000Y-52832000D03*
G36*
G01*
X147415240Y-84624600D02*
X148615240Y-84624600D01*
G75*
G02*
X148865240Y-84874600I0J-250000D01*
G01*
X148865240Y-86074600D01*
G75*
G02*
X148615240Y-86324600I-250000J0D01*
G01*
X147415240Y-86324600D01*
G75*
G02*
X147165240Y-86074600I0J250000D01*
G01*
X147165240Y-84874600D01*
G75*
G02*
X147415240Y-84624600I250000J0D01*
G01*
G37*
D14*
X150555240Y-85474600D03*
X153095240Y-85474600D03*
X148015240Y-88014600D03*
X150555240Y-88014600D03*
X153095240Y-88014600D03*
D15*
X134400000Y-73000000D03*
X136500000Y-73000000D03*
G36*
G01*
X155395000Y-77275000D02*
X155055000Y-77275000D01*
G75*
G02*
X154915000Y-77135000I0J140000D01*
G01*
X154915000Y-76855000D01*
G75*
G02*
X155055000Y-76715000I140000J0D01*
G01*
X155395000Y-76715000D01*
G75*
G02*
X155535000Y-76855000I0J-140000D01*
G01*
X155535000Y-77135000D01*
G75*
G02*
X155395000Y-77275000I-140000J0D01*
G01*
G37*
G36*
G01*
X155395000Y-78235000D02*
X155055000Y-78235000D01*
G75*
G02*
X154915000Y-78095000I0J140000D01*
G01*
X154915000Y-77815000D01*
G75*
G02*
X155055000Y-77675000I140000J0D01*
G01*
X155395000Y-77675000D01*
G75*
G02*
X155535000Y-77815000I0J-140000D01*
G01*
X155535000Y-78095000D01*
G75*
G02*
X155395000Y-78235000I-140000J0D01*
G01*
G37*
G36*
G01*
X159000000Y-54645000D02*
X159000000Y-54305000D01*
G75*
G02*
X159140000Y-54165000I140000J0D01*
G01*
X159420000Y-54165000D01*
G75*
G02*
X159560000Y-54305000I0J-140000D01*
G01*
X159560000Y-54645000D01*
G75*
G02*
X159420000Y-54785000I-140000J0D01*
G01*
X159140000Y-54785000D01*
G75*
G02*
X159000000Y-54645000I0J140000D01*
G01*
G37*
G36*
G01*
X158040000Y-54645000D02*
X158040000Y-54305000D01*
G75*
G02*
X158180000Y-54165000I140000J0D01*
G01*
X158460000Y-54165000D01*
G75*
G02*
X158600000Y-54305000I0J-140000D01*
G01*
X158600000Y-54645000D01*
G75*
G02*
X158460000Y-54785000I-140000J0D01*
G01*
X158180000Y-54785000D01*
G75*
G02*
X158040000Y-54645000I0J140000D01*
G01*
G37*
G36*
G01*
X154580000Y-86150000D02*
X154920000Y-86150000D01*
G75*
G02*
X155060000Y-86290000I0J-140000D01*
G01*
X155060000Y-86570000D01*
G75*
G02*
X154920000Y-86710000I-140000J0D01*
G01*
X154580000Y-86710000D01*
G75*
G02*
X154440000Y-86570000I0J140000D01*
G01*
X154440000Y-86290000D01*
G75*
G02*
X154580000Y-86150000I140000J0D01*
G01*
G37*
G36*
G01*
X154580000Y-85190000D02*
X154920000Y-85190000D01*
G75*
G02*
X155060000Y-85330000I0J-140000D01*
G01*
X155060000Y-85610000D01*
G75*
G02*
X154920000Y-85750000I-140000J0D01*
G01*
X154580000Y-85750000D01*
G75*
G02*
X154440000Y-85610000I0J140000D01*
G01*
X154440000Y-85330000D01*
G75*
G02*
X154580000Y-85190000I140000J0D01*
G01*
G37*
D16*
X159800000Y-59200000D03*
X159800000Y-61700000D03*
X150000000Y-54350000D03*
X152500000Y-54350000D03*
G36*
G01*
X172550000Y-57625000D02*
X170350000Y-57625000D01*
G75*
G02*
X170100000Y-57375000I0J250000D01*
G01*
X170100000Y-56875000D01*
G75*
G02*
X170350000Y-56625000I250000J0D01*
G01*
X172550000Y-56625000D01*
G75*
G02*
X172800000Y-56875000I0J-250000D01*
G01*
X172800000Y-57375000D01*
G75*
G02*
X172550000Y-57625000I-250000J0D01*
G01*
G37*
G36*
G01*
X172550000Y-62575000D02*
X170350000Y-62575000D01*
G75*
G02*
X170100000Y-62325000I0J250000D01*
G01*
X170100000Y-61825000D01*
G75*
G02*
X170350000Y-61575000I250000J0D01*
G01*
X172550000Y-61575000D01*
G75*
G02*
X172800000Y-61825000I0J-250000D01*
G01*
X172800000Y-62325000D01*
G75*
G02*
X172550000Y-62575000I-250000J0D01*
G01*
G37*
G36*
G01*
X168950000Y-59275000D02*
X167550000Y-59275000D01*
G75*
G02*
X167400000Y-59125000I0J150000D01*
G01*
X167400000Y-58825000D01*
G75*
G02*
X167550000Y-58675000I150000J0D01*
G01*
X168950000Y-58675000D01*
G75*
G02*
X169100000Y-58825000I0J-150000D01*
G01*
X169100000Y-59125000D01*
G75*
G02*
X168950000Y-59275000I-150000J0D01*
G01*
G37*
G36*
G01*
X168950000Y-60525000D02*
X167550000Y-60525000D01*
G75*
G02*
X167400000Y-60375000I0J150000D01*
G01*
X167400000Y-60075000D01*
G75*
G02*
X167550000Y-59925000I150000J0D01*
G01*
X168950000Y-59925000D01*
G75*
G02*
X169100000Y-60075000I0J-150000D01*
G01*
X169100000Y-60375000D01*
G75*
G02*
X168950000Y-60525000I-150000J0D01*
G01*
G37*
G36*
G01*
X164775000Y-63025000D02*
X164775000Y-63575000D01*
G75*
G02*
X164575000Y-63775000I-200000J0D01*
G01*
X164175000Y-63775000D01*
G75*
G02*
X163975000Y-63575000I0J200000D01*
G01*
X163975000Y-63025000D01*
G75*
G02*
X164175000Y-62825000I200000J0D01*
G01*
X164575000Y-62825000D01*
G75*
G02*
X164775000Y-63025000I0J-200000D01*
G01*
G37*
G36*
G01*
X166425000Y-63025000D02*
X166425000Y-63575000D01*
G75*
G02*
X166225000Y-63775000I-200000J0D01*
G01*
X165825000Y-63775000D01*
G75*
G02*
X165625000Y-63575000I0J200000D01*
G01*
X165625000Y-63025000D01*
G75*
G02*
X165825000Y-62825000I200000J0D01*
G01*
X166225000Y-62825000D01*
G75*
G02*
X166425000Y-63025000I0J-200000D01*
G01*
G37*
G36*
G01*
X166200001Y-60250000D02*
X165399999Y-60250000D01*
G75*
G02*
X165150000Y-60000001I0J249999D01*
G01*
X165150000Y-59174999D01*
G75*
G02*
X165399999Y-58925000I249999J0D01*
G01*
X166200001Y-58925000D01*
G75*
G02*
X166450000Y-59174999I0J-249999D01*
G01*
X166450000Y-60000001D01*
G75*
G02*
X166200001Y-60250000I-249999J0D01*
G01*
G37*
G36*
G01*
X166200001Y-62175000D02*
X165399999Y-62175000D01*
G75*
G02*
X165150000Y-61925001I0J249999D01*
G01*
X165150000Y-61099999D01*
G75*
G02*
X165399999Y-60850000I249999J0D01*
G01*
X166200001Y-60850000D01*
G75*
G02*
X166450000Y-61099999I0J-249999D01*
G01*
X166450000Y-61925001D01*
G75*
G02*
X166200001Y-62175000I-249999J0D01*
G01*
G37*
G36*
G01*
X162575000Y-63575000D02*
X162575000Y-63025000D01*
G75*
G02*
X162775000Y-62825000I200000J0D01*
G01*
X163175000Y-62825000D01*
G75*
G02*
X163375000Y-63025000I0J-200000D01*
G01*
X163375000Y-63575000D01*
G75*
G02*
X163175000Y-63775000I-200000J0D01*
G01*
X162775000Y-63775000D01*
G75*
G02*
X162575000Y-63575000I0J200000D01*
G01*
G37*
G36*
G01*
X160925000Y-63575000D02*
X160925000Y-63025000D01*
G75*
G02*
X161125000Y-62825000I200000J0D01*
G01*
X161525000Y-62825000D01*
G75*
G02*
X161725000Y-63025000I0J-200000D01*
G01*
X161725000Y-63575000D01*
G75*
G02*
X161525000Y-63775000I-200000J0D01*
G01*
X161125000Y-63775000D01*
G75*
G02*
X160925000Y-63575000I0J200000D01*
G01*
G37*
G36*
G01*
X164200001Y-60250000D02*
X163399999Y-60250000D01*
G75*
G02*
X163150000Y-60000001I0J249999D01*
G01*
X163150000Y-59174999D01*
G75*
G02*
X163399999Y-58925000I249999J0D01*
G01*
X164200001Y-58925000D01*
G75*
G02*
X164450000Y-59174999I0J-249999D01*
G01*
X164450000Y-60000001D01*
G75*
G02*
X164200001Y-60250000I-249999J0D01*
G01*
G37*
G36*
G01*
X164200001Y-62175000D02*
X163399999Y-62175000D01*
G75*
G02*
X163150000Y-61925001I0J249999D01*
G01*
X163150000Y-61099999D01*
G75*
G02*
X163399999Y-60850000I249999J0D01*
G01*
X164200001Y-60850000D01*
G75*
G02*
X164450000Y-61099999I0J-249999D01*
G01*
X164450000Y-61925001D01*
G75*
G02*
X164200001Y-62175000I-249999J0D01*
G01*
G37*
G36*
G01*
X133850000Y-67300000D02*
X133850000Y-65300000D01*
G75*
G02*
X134100000Y-65050000I250000J0D01*
G01*
X137600000Y-65050000D01*
G75*
G02*
X137850000Y-65300000I0J-250000D01*
G01*
X137850000Y-67300000D01*
G75*
G02*
X137600000Y-67550000I-250000J0D01*
G01*
X134100000Y-67550000D01*
G75*
G02*
X133850000Y-67300000I0J250000D01*
G01*
G37*
G36*
G01*
X125850000Y-67300000D02*
X125850000Y-65300000D01*
G75*
G02*
X126100000Y-65050000I250000J0D01*
G01*
X129600000Y-65050000D01*
G75*
G02*
X129850000Y-65300000I0J-250000D01*
G01*
X129850000Y-67300000D01*
G75*
G02*
X129600000Y-67550000I-250000J0D01*
G01*
X126100000Y-67550000D01*
G75*
G02*
X125850000Y-67300000I0J250000D01*
G01*
G37*
D17*
X154765840Y-56865480D03*
X154765840Y-57815480D03*
X154765840Y-55915480D03*
X157465840Y-55915480D03*
X157465840Y-56865480D03*
X157465840Y-57815480D03*
G36*
G01*
X159649660Y-56130600D02*
X159099660Y-56130600D01*
G75*
G02*
X158899660Y-55930600I0J200000D01*
G01*
X158899660Y-55530600D01*
G75*
G02*
X159099660Y-55330600I200000J0D01*
G01*
X159649660Y-55330600D01*
G75*
G02*
X159849660Y-55530600I0J-200000D01*
G01*
X159849660Y-55930600D01*
G75*
G02*
X159649660Y-56130600I-200000J0D01*
G01*
G37*
G36*
G01*
X159649660Y-57780600D02*
X159099660Y-57780600D01*
G75*
G02*
X158899660Y-57580600I0J200000D01*
G01*
X158899660Y-57180600D01*
G75*
G02*
X159099660Y-56980600I200000J0D01*
G01*
X159649660Y-56980600D01*
G75*
G02*
X159849660Y-57180600I0J-200000D01*
G01*
X159849660Y-57580600D01*
G75*
G02*
X159649660Y-57780600I-200000J0D01*
G01*
G37*
G36*
G01*
X160675000Y-56975000D02*
X161225000Y-56975000D01*
G75*
G02*
X161425000Y-57175000I0J-200000D01*
G01*
X161425000Y-57575000D01*
G75*
G02*
X161225000Y-57775000I-200000J0D01*
G01*
X160675000Y-57775000D01*
G75*
G02*
X160475000Y-57575000I0J200000D01*
G01*
X160475000Y-57175000D01*
G75*
G02*
X160675000Y-56975000I200000J0D01*
G01*
G37*
G36*
G01*
X160675000Y-55325000D02*
X161225000Y-55325000D01*
G75*
G02*
X161425000Y-55525000I0J-200000D01*
G01*
X161425000Y-55925000D01*
G75*
G02*
X161225000Y-56125000I-200000J0D01*
G01*
X160675000Y-56125000D01*
G75*
G02*
X160475000Y-55925000I0J200000D01*
G01*
X160475000Y-55525000D01*
G75*
G02*
X160675000Y-55325000I200000J0D01*
G01*
G37*
G36*
G01*
X165365800Y-57819600D02*
X165365800Y-57269600D01*
G75*
G02*
X165565800Y-57069600I200000J0D01*
G01*
X165965800Y-57069600D01*
G75*
G02*
X166165800Y-57269600I0J-200000D01*
G01*
X166165800Y-57819600D01*
G75*
G02*
X165965800Y-58019600I-200000J0D01*
G01*
X165565800Y-58019600D01*
G75*
G02*
X165365800Y-57819600I0J200000D01*
G01*
G37*
G36*
G01*
X163715800Y-57819600D02*
X163715800Y-57269600D01*
G75*
G02*
X163915800Y-57069600I200000J0D01*
G01*
X164315800Y-57069600D01*
G75*
G02*
X164515800Y-57269600I0J-200000D01*
G01*
X164515800Y-57819600D01*
G75*
G02*
X164315800Y-58019600I-200000J0D01*
G01*
X163915800Y-58019600D01*
G75*
G02*
X163715800Y-57819600I0J200000D01*
G01*
G37*
G36*
G01*
X165365800Y-56244800D02*
X165365800Y-55694800D01*
G75*
G02*
X165565800Y-55494800I200000J0D01*
G01*
X165965800Y-55494800D01*
G75*
G02*
X166165800Y-55694800I0J-200000D01*
G01*
X166165800Y-56244800D01*
G75*
G02*
X165965800Y-56444800I-200000J0D01*
G01*
X165565800Y-56444800D01*
G75*
G02*
X165365800Y-56244800I0J200000D01*
G01*
G37*
G36*
G01*
X163715800Y-56244800D02*
X163715800Y-55694800D01*
G75*
G02*
X163915800Y-55494800I200000J0D01*
G01*
X164315800Y-55494800D01*
G75*
G02*
X164515800Y-55694800I0J-200000D01*
G01*
X164515800Y-56244800D01*
G75*
G02*
X164315800Y-56444800I-200000J0D01*
G01*
X163915800Y-56444800D01*
G75*
G02*
X163715800Y-56244800I0J200000D01*
G01*
G37*
D18*
X148904700Y-57239860D03*
X152104700Y-57239860D03*
D19*
X164000000Y-52900000D03*
X164000000Y-47500000D03*
G36*
G01*
X146703780Y-57247360D02*
X147203780Y-57247360D01*
G75*
G02*
X147428780Y-57472360I0J-225000D01*
G01*
X147428780Y-57922360D01*
G75*
G02*
X147203780Y-58147360I-225000J0D01*
G01*
X146703780Y-58147360D01*
G75*
G02*
X146478780Y-57922360I0J225000D01*
G01*
X146478780Y-57472360D01*
G75*
G02*
X146703780Y-57247360I225000J0D01*
G01*
G37*
G36*
G01*
X146703780Y-55697360D02*
X147203780Y-55697360D01*
G75*
G02*
X147428780Y-55922360I0J-225000D01*
G01*
X147428780Y-56372360D01*
G75*
G02*
X147203780Y-56597360I-225000J0D01*
G01*
X146703780Y-56597360D01*
G75*
G02*
X146478780Y-56372360I0J225000D01*
G01*
X146478780Y-55922360D01*
G75*
G02*
X146703780Y-55697360I225000J0D01*
G01*
G37*
G36*
G01*
X156440840Y-54456100D02*
X156440840Y-53956100D01*
G75*
G02*
X156665840Y-53731100I225000J0D01*
G01*
X157115840Y-53731100D01*
G75*
G02*
X157340840Y-53956100I0J-225000D01*
G01*
X157340840Y-54456100D01*
G75*
G02*
X157115840Y-54681100I-225000J0D01*
G01*
X156665840Y-54681100D01*
G75*
G02*
X156440840Y-54456100I0J225000D01*
G01*
G37*
G36*
G01*
X154890840Y-54456100D02*
X154890840Y-53956100D01*
G75*
G02*
X155115840Y-53731100I225000J0D01*
G01*
X155565840Y-53731100D01*
G75*
G02*
X155790840Y-53956100I0J-225000D01*
G01*
X155790840Y-54456100D01*
G75*
G02*
X155565840Y-54681100I-225000J0D01*
G01*
X155115840Y-54681100D01*
G75*
G02*
X154890840Y-54456100I0J225000D01*
G01*
G37*
G36*
G01*
X158699999Y-51900000D02*
X160900001Y-51900000D01*
G75*
G02*
X161150000Y-52149999I0J-249999D01*
G01*
X161150000Y-52800001D01*
G75*
G02*
X160900001Y-53050000I-249999J0D01*
G01*
X158699999Y-53050000D01*
G75*
G02*
X158450000Y-52800001I0J249999D01*
G01*
X158450000Y-52149999D01*
G75*
G02*
X158699999Y-51900000I249999J0D01*
G01*
G37*
G36*
G01*
X158699999Y-48950000D02*
X160900001Y-48950000D01*
G75*
G02*
X161150000Y-49199999I0J-249999D01*
G01*
X161150000Y-49850001D01*
G75*
G02*
X160900001Y-50100000I-249999J0D01*
G01*
X158699999Y-50100000D01*
G75*
G02*
X158450000Y-49850001I0J249999D01*
G01*
X158450000Y-49199999D01*
G75*
G02*
X158699999Y-48950000I249999J0D01*
G01*
G37*
G36*
G01*
X154812499Y-51900000D02*
X157012501Y-51900000D01*
G75*
G02*
X157262500Y-52149999I0J-249999D01*
G01*
X157262500Y-52800001D01*
G75*
G02*
X157012501Y-53050000I-249999J0D01*
G01*
X154812499Y-53050000D01*
G75*
G02*
X154562500Y-52800001I0J249999D01*
G01*
X154562500Y-52149999D01*
G75*
G02*
X154812499Y-51900000I249999J0D01*
G01*
G37*
G36*
G01*
X154812499Y-48950000D02*
X157012501Y-48950000D01*
G75*
G02*
X157262500Y-49199999I0J-249999D01*
G01*
X157262500Y-49850001D01*
G75*
G02*
X157012501Y-50100000I-249999J0D01*
G01*
X154812499Y-50100000D01*
G75*
G02*
X154562500Y-49850001I0J249999D01*
G01*
X154562500Y-49199999D01*
G75*
G02*
X154812499Y-48950000I249999J0D01*
G01*
G37*
G36*
G01*
X150924999Y-51900000D02*
X153125001Y-51900000D01*
G75*
G02*
X153375000Y-52149999I0J-249999D01*
G01*
X153375000Y-52800001D01*
G75*
G02*
X153125001Y-53050000I-249999J0D01*
G01*
X150924999Y-53050000D01*
G75*
G02*
X150675000Y-52800001I0J249999D01*
G01*
X150675000Y-52149999D01*
G75*
G02*
X150924999Y-51900000I249999J0D01*
G01*
G37*
G36*
G01*
X150924999Y-48950000D02*
X153125001Y-48950000D01*
G75*
G02*
X153375000Y-49199999I0J-249999D01*
G01*
X153375000Y-49850001D01*
G75*
G02*
X153125001Y-50100000I-249999J0D01*
G01*
X150924999Y-50100000D01*
G75*
G02*
X150675000Y-49850001I0J249999D01*
G01*
X150675000Y-49199999D01*
G75*
G02*
X150924999Y-48950000I249999J0D01*
G01*
G37*
D20*
X151825000Y-78475000D03*
X151825000Y-76375000D03*
X153475000Y-76375000D03*
X153475000Y-78475000D03*
D21*
X147850000Y-80375000D03*
X147350000Y-80375000D03*
X146850000Y-80375000D03*
X146350000Y-80375000D03*
X145850000Y-80375000D03*
X145350000Y-80375000D03*
X144850000Y-80375000D03*
X144350000Y-80375000D03*
X143850000Y-80375000D03*
X143350000Y-80375000D03*
X142850000Y-80375000D03*
X142350000Y-80375000D03*
X141850000Y-80375000D03*
X141350000Y-80375000D03*
X140850000Y-80375000D03*
X140350000Y-80375000D03*
D22*
X138350000Y-78375000D03*
X138350000Y-77875000D03*
X138350000Y-77375000D03*
X138350000Y-76875000D03*
X138350000Y-76375000D03*
X138350000Y-75875000D03*
X138350000Y-75375000D03*
X138350000Y-74875000D03*
X138350000Y-74375000D03*
X138350000Y-73875000D03*
X138350000Y-73375000D03*
X138350000Y-72875000D03*
X138350000Y-72375000D03*
X138350000Y-71875000D03*
X138350000Y-71375000D03*
X138350000Y-70875000D03*
D21*
X140350000Y-68875000D03*
X140850000Y-68875000D03*
X141350000Y-68875000D03*
X141850000Y-68875000D03*
X142350000Y-68875000D03*
X142850000Y-68875000D03*
X143350000Y-68875000D03*
X143850000Y-68875000D03*
X144350000Y-68875000D03*
X144850000Y-68875000D03*
X145350000Y-68875000D03*
X145850000Y-68875000D03*
X146350000Y-68875000D03*
X146850000Y-68875000D03*
X147350000Y-68875000D03*
D22*
X149850000Y-70875000D03*
X149850000Y-71375000D03*
X149850000Y-71875000D03*
X149850000Y-72375000D03*
X149850000Y-72875000D03*
X149850000Y-73375000D03*
X149850000Y-73875000D03*
X149850000Y-74375000D03*
X149850000Y-74875000D03*
X149850000Y-75375000D03*
X149850000Y-75875000D03*
X149850000Y-76375000D03*
X149850000Y-76875000D03*
X149850000Y-77375000D03*
X149850000Y-77875000D03*
X149850000Y-78375000D03*
D21*
X147850000Y-68875000D03*
D23*
X164375000Y-74625000D03*
X164375000Y-77475000D03*
X157225000Y-77475000D03*
X157225000Y-74625000D03*
X164375000Y-76050000D03*
X157225000Y-76050000D03*
D24*
X160800000Y-80100000D03*
X160800000Y-72000000D03*
D25*
X167110000Y-70590000D03*
X173410000Y-70590000D03*
X167110000Y-74390000D03*
X173410000Y-74390000D03*
G36*
G01*
X159025000Y-89677500D02*
X158475000Y-89677500D01*
G75*
G02*
X158275000Y-89477500I0J200000D01*
G01*
X158275000Y-89077500D01*
G75*
G02*
X158475000Y-88877500I200000J0D01*
G01*
X159025000Y-88877500D01*
G75*
G02*
X159225000Y-89077500I0J-200000D01*
G01*
X159225000Y-89477500D01*
G75*
G02*
X159025000Y-89677500I-200000J0D01*
G01*
G37*
G36*
G01*
X159025000Y-91327500D02*
X158475000Y-91327500D01*
G75*
G02*
X158275000Y-91127500I0J200000D01*
G01*
X158275000Y-90727500D01*
G75*
G02*
X158475000Y-90527500I200000J0D01*
G01*
X159025000Y-90527500D01*
G75*
G02*
X159225000Y-90727500I0J-200000D01*
G01*
X159225000Y-91127500D01*
G75*
G02*
X159025000Y-91327500I-200000J0D01*
G01*
G37*
G36*
G01*
X159025000Y-83725000D02*
X158475000Y-83725000D01*
G75*
G02*
X158275000Y-83525000I0J200000D01*
G01*
X158275000Y-83125000D01*
G75*
G02*
X158475000Y-82925000I200000J0D01*
G01*
X159025000Y-82925000D01*
G75*
G02*
X159225000Y-83125000I0J-200000D01*
G01*
X159225000Y-83525000D01*
G75*
G02*
X159025000Y-83725000I-200000J0D01*
G01*
G37*
G36*
G01*
X159025000Y-85375000D02*
X158475000Y-85375000D01*
G75*
G02*
X158275000Y-85175000I0J200000D01*
G01*
X158275000Y-84775000D01*
G75*
G02*
X158475000Y-84575000I200000J0D01*
G01*
X159025000Y-84575000D01*
G75*
G02*
X159225000Y-84775000I0J-200000D01*
G01*
X159225000Y-85175000D01*
G75*
G02*
X159025000Y-85375000I-200000J0D01*
G01*
G37*
G36*
G01*
X148125000Y-60195000D02*
X148125000Y-59645000D01*
G75*
G02*
X148325000Y-59445000I200000J0D01*
G01*
X148725000Y-59445000D01*
G75*
G02*
X148925000Y-59645000I0J-200000D01*
G01*
X148925000Y-60195000D01*
G75*
G02*
X148725000Y-60395000I-200000J0D01*
G01*
X148325000Y-60395000D01*
G75*
G02*
X148125000Y-60195000I0J200000D01*
G01*
G37*
G36*
G01*
X146475000Y-60195000D02*
X146475000Y-59645000D01*
G75*
G02*
X146675000Y-59445000I200000J0D01*
G01*
X147075000Y-59445000D01*
G75*
G02*
X147275000Y-59645000I0J-200000D01*
G01*
X147275000Y-60195000D01*
G75*
G02*
X147075000Y-60395000I-200000J0D01*
G01*
X146675000Y-60395000D01*
G75*
G02*
X146475000Y-60195000I0J200000D01*
G01*
G37*
G36*
G01*
X150475000Y-59645000D02*
X150475000Y-60195000D01*
G75*
G02*
X150275000Y-60395000I-200000J0D01*
G01*
X149875000Y-60395000D01*
G75*
G02*
X149675000Y-60195000I0J200000D01*
G01*
X149675000Y-59645000D01*
G75*
G02*
X149875000Y-59445000I200000J0D01*
G01*
X150275000Y-59445000D01*
G75*
G02*
X150475000Y-59645000I0J-200000D01*
G01*
G37*
G36*
G01*
X152125000Y-59645000D02*
X152125000Y-60195000D01*
G75*
G02*
X151925000Y-60395000I-200000J0D01*
G01*
X151525000Y-60395000D01*
G75*
G02*
X151325000Y-60195000I0J200000D01*
G01*
X151325000Y-59645000D01*
G75*
G02*
X151525000Y-59445000I200000J0D01*
G01*
X151925000Y-59445000D01*
G75*
G02*
X152125000Y-59645000I0J-200000D01*
G01*
G37*
G36*
G01*
X134825000Y-77125000D02*
X134825000Y-77675000D01*
G75*
G02*
X134625000Y-77875000I-200000J0D01*
G01*
X134225000Y-77875000D01*
G75*
G02*
X134025000Y-77675000I0J200000D01*
G01*
X134025000Y-77125000D01*
G75*
G02*
X134225000Y-76925000I200000J0D01*
G01*
X134625000Y-76925000D01*
G75*
G02*
X134825000Y-77125000I0J-200000D01*
G01*
G37*
G36*
G01*
X136475000Y-77125000D02*
X136475000Y-77675000D01*
G75*
G02*
X136275000Y-77875000I-200000J0D01*
G01*
X135875000Y-77875000D01*
G75*
G02*
X135675000Y-77675000I0J200000D01*
G01*
X135675000Y-77125000D01*
G75*
G02*
X135875000Y-76925000I200000J0D01*
G01*
X136275000Y-76925000D01*
G75*
G02*
X136475000Y-77125000I0J-200000D01*
G01*
G37*
G36*
G01*
X134825000Y-75600000D02*
X134825000Y-76150000D01*
G75*
G02*
X134625000Y-76350000I-200000J0D01*
G01*
X134225000Y-76350000D01*
G75*
G02*
X134025000Y-76150000I0J200000D01*
G01*
X134025000Y-75600000D01*
G75*
G02*
X134225000Y-75400000I200000J0D01*
G01*
X134625000Y-75400000D01*
G75*
G02*
X134825000Y-75600000I0J-200000D01*
G01*
G37*
G36*
G01*
X136475000Y-75600000D02*
X136475000Y-76150000D01*
G75*
G02*
X136275000Y-76350000I-200000J0D01*
G01*
X135875000Y-76350000D01*
G75*
G02*
X135675000Y-76150000I0J200000D01*
G01*
X135675000Y-75600000D01*
G75*
G02*
X135875000Y-75400000I200000J0D01*
G01*
X136275000Y-75400000D01*
G75*
G02*
X136475000Y-75600000I0J-200000D01*
G01*
G37*
G36*
G01*
X167825000Y-63725000D02*
X167825000Y-64275000D01*
G75*
G02*
X167625000Y-64475000I-200000J0D01*
G01*
X167225000Y-64475000D01*
G75*
G02*
X167025000Y-64275000I0J200000D01*
G01*
X167025000Y-63725000D01*
G75*
G02*
X167225000Y-63525000I200000J0D01*
G01*
X167625000Y-63525000D01*
G75*
G02*
X167825000Y-63725000I0J-200000D01*
G01*
G37*
G36*
G01*
X169475000Y-63725000D02*
X169475000Y-64275000D01*
G75*
G02*
X169275000Y-64475000I-200000J0D01*
G01*
X168875000Y-64475000D01*
G75*
G02*
X168675000Y-64275000I0J200000D01*
G01*
X168675000Y-63725000D01*
G75*
G02*
X168875000Y-63525000I200000J0D01*
G01*
X169275000Y-63525000D01*
G75*
G02*
X169475000Y-63725000I0J-200000D01*
G01*
G37*
G36*
G01*
X145700000Y-87250000D02*
X146250000Y-87250000D01*
G75*
G02*
X146450000Y-87450000I0J-200000D01*
G01*
X146450000Y-87850000D01*
G75*
G02*
X146250000Y-88050000I-200000J0D01*
G01*
X145700000Y-88050000D01*
G75*
G02*
X145500000Y-87850000I0J200000D01*
G01*
X145500000Y-87450000D01*
G75*
G02*
X145700000Y-87250000I200000J0D01*
G01*
G37*
G36*
G01*
X145700000Y-85600000D02*
X146250000Y-85600000D01*
G75*
G02*
X146450000Y-85800000I0J-200000D01*
G01*
X146450000Y-86200000D01*
G75*
G02*
X146250000Y-86400000I-200000J0D01*
G01*
X145700000Y-86400000D01*
G75*
G02*
X145500000Y-86200000I0J200000D01*
G01*
X145500000Y-85800000D01*
G75*
G02*
X145700000Y-85600000I200000J0D01*
G01*
G37*
G36*
G01*
X130279201Y-51142400D02*
X127429199Y-51142400D01*
G75*
G02*
X127179200Y-50892401I0J249999D01*
G01*
X127179200Y-50167399D01*
G75*
G02*
X127429199Y-49917400I249999J0D01*
G01*
X130279201Y-49917400D01*
G75*
G02*
X130529200Y-50167399I0J-249999D01*
G01*
X130529200Y-50892401D01*
G75*
G02*
X130279201Y-51142400I-249999J0D01*
G01*
G37*
G36*
G01*
X130279201Y-57067400D02*
X127429199Y-57067400D01*
G75*
G02*
X127179200Y-56817401I0J249999D01*
G01*
X127179200Y-56092399D01*
G75*
G02*
X127429199Y-55842400I249999J0D01*
G01*
X130279201Y-55842400D01*
G75*
G02*
X130529200Y-56092399I0J-249999D01*
G01*
X130529200Y-56817401D01*
G75*
G02*
X130279201Y-57067400I-249999J0D01*
G01*
G37*
D26*
G36*
X127175000Y-48105000D02*
G01*
X127975000Y-48105000D01*
X127975000Y-47435000D01*
X127175000Y-47435000D01*
X127175000Y-46835000D01*
X127975000Y-46835000D01*
X127975000Y-46165000D01*
X127175000Y-46165000D01*
X127175000Y-45565000D01*
X127975000Y-45565000D01*
X127975000Y-44895000D01*
X127175000Y-44895000D01*
X127175000Y-44295000D01*
X131725000Y-44295000D01*
X131725000Y-48705000D01*
X127175000Y-48705000D01*
X127175000Y-48105000D01*
G37*
D27*
X133400000Y-44595000D03*
X133400000Y-45865000D03*
X133400000Y-47135000D03*
X133400000Y-48405000D03*
D28*
X162025000Y-90437400D03*
G36*
G01*
X164625000Y-89812399D02*
X164625000Y-91062401D01*
G75*
G02*
X164375001Y-91312400I-249999J0D01*
G01*
X163674999Y-91312400D01*
G75*
G02*
X163425000Y-91062401I0J249999D01*
G01*
X163425000Y-89812399D01*
G75*
G02*
X163674999Y-89562400I249999J0D01*
G01*
X164375001Y-89562400D01*
G75*
G02*
X164625000Y-89812399I0J-249999D01*
G01*
G37*
X162025000Y-84700000D03*
G36*
G01*
X164625000Y-84074999D02*
X164625000Y-85325001D01*
G75*
G02*
X164375001Y-85575000I-249999J0D01*
G01*
X163674999Y-85575000D01*
G75*
G02*
X163425000Y-85325001I0J249999D01*
G01*
X163425000Y-84074999D01*
G75*
G02*
X163674999Y-83825000I249999J0D01*
G01*
X164375001Y-83825000D01*
G75*
G02*
X164625000Y-84074999I0J-249999D01*
G01*
G37*
X135975000Y-90400000D03*
X137975000Y-90400000D03*
G36*
G01*
X140575000Y-89774999D02*
X140575000Y-91025001D01*
G75*
G02*
X140325001Y-91275000I-249999J0D01*
G01*
X139624999Y-91275000D01*
G75*
G02*
X139375000Y-91025001I0J249999D01*
G01*
X139375000Y-89774999D01*
G75*
G02*
X139624999Y-89525000I249999J0D01*
G01*
X140325001Y-89525000D01*
G75*
G02*
X140575000Y-89774999I0J-249999D01*
G01*
G37*
X135975000Y-84700000D03*
X137975000Y-84700000D03*
G36*
G01*
X140575000Y-84074999D02*
X140575000Y-85325001D01*
G75*
G02*
X140325001Y-85575000I-249999J0D01*
G01*
X139624999Y-85575000D01*
G75*
G02*
X139375000Y-85325001I0J249999D01*
G01*
X139375000Y-84074999D01*
G75*
G02*
X139624999Y-83825000I249999J0D01*
G01*
X140325001Y-83825000D01*
G75*
G02*
X140575000Y-84074999I0J-249999D01*
G01*
G37*
D29*
X131840000Y-73850000D03*
X129300000Y-73850000D03*
D30*
X126760000Y-73850000D03*
D31*
X143344000Y-52400000D03*
D32*
X140574000Y-55880000D03*
G36*
G01*
X136474000Y-57730000D02*
X133274000Y-57730000D01*
G75*
G02*
X133024000Y-57480000I0J250000D01*
G01*
X133024000Y-54280000D01*
G75*
G02*
X133274000Y-54030000I250000J0D01*
G01*
X136474000Y-54030000D01*
G75*
G02*
X136724000Y-54280000I0J-250000D01*
G01*
X136724000Y-57480000D01*
G75*
G02*
X136474000Y-57730000I-250000J0D01*
G01*
G37*
D33*
X131845000Y-84475000D03*
X131845000Y-83675000D03*
X131845000Y-78775000D03*
X131845000Y-77975000D03*
X131845000Y-77975000D03*
X131845000Y-78775000D03*
X131845000Y-83675000D03*
X131845000Y-84475000D03*
D34*
X131845000Y-79475000D03*
X131845000Y-79975000D03*
X131845000Y-80475000D03*
X131845000Y-81475000D03*
X131845000Y-81975000D03*
X131845000Y-82475000D03*
X131845000Y-82975000D03*
X131845000Y-80975000D03*
D35*
X130930000Y-85545000D03*
X130930000Y-76905000D03*
D36*
X130400000Y-78335000D03*
D37*
X126750000Y-76905000D03*
D36*
X130400000Y-84115000D03*
D37*
X126750000Y-85545000D03*
D38*
X169250000Y-78050000D03*
X169250000Y-80050000D03*
X169250000Y-82050000D03*
G36*
G01*
X169875001Y-84650000D02*
X168624999Y-84650000D01*
G75*
G02*
X168375000Y-84400001I0J249999D01*
G01*
X168375000Y-83699999D01*
G75*
G02*
X168624999Y-83450000I249999J0D01*
G01*
X169875001Y-83450000D01*
G75*
G02*
X170125000Y-83699999I0J-249999D01*
G01*
X170125000Y-84400001D01*
G75*
G02*
X169875001Y-84650000I-249999J0D01*
G01*
G37*
D29*
X146690000Y-62530000D03*
X149230000Y-62530000D03*
X151770000Y-62530000D03*
D30*
X154310000Y-62530000D03*
G36*
G01*
X161372050Y-61199140D02*
X162284550Y-61199140D01*
G75*
G02*
X162528300Y-61442890I0J-243750D01*
G01*
X162528300Y-61930390D01*
G75*
G02*
X162284550Y-62174140I-243750J0D01*
G01*
X161372050Y-62174140D01*
G75*
G02*
X161128300Y-61930390I0J243750D01*
G01*
X161128300Y-61442890D01*
G75*
G02*
X161372050Y-61199140I243750J0D01*
G01*
G37*
G36*
G01*
X161372050Y-59324140D02*
X162284550Y-59324140D01*
G75*
G02*
X162528300Y-59567890I0J-243750D01*
G01*
X162528300Y-60055390D01*
G75*
G02*
X162284550Y-60299140I-243750J0D01*
G01*
X161372050Y-60299140D01*
G75*
G02*
X161128300Y-60055390I0J243750D01*
G01*
X161128300Y-59567890D01*
G75*
G02*
X161372050Y-59324140I243750J0D01*
G01*
G37*
G36*
G01*
X157390001Y-89630000D02*
X156489999Y-89630000D01*
G75*
G02*
X156240000Y-89380001I0J249999D01*
G01*
X156240000Y-88729999D01*
G75*
G02*
X156489999Y-88480000I249999J0D01*
G01*
X157390001Y-88480000D01*
G75*
G02*
X157640000Y-88729999I0J-249999D01*
G01*
X157640000Y-89380001D01*
G75*
G02*
X157390001Y-89630000I-249999J0D01*
G01*
G37*
G36*
G01*
X157390001Y-91680000D02*
X156489999Y-91680000D01*
G75*
G02*
X156240000Y-91430001I0J249999D01*
G01*
X156240000Y-90779999D01*
G75*
G02*
X156489999Y-90530000I249999J0D01*
G01*
X157390001Y-90530000D01*
G75*
G02*
X157640000Y-90779999I0J-249999D01*
G01*
X157640000Y-91430001D01*
G75*
G02*
X157390001Y-91680000I-249999J0D01*
G01*
G37*
G36*
G01*
X157390001Y-83677500D02*
X156489999Y-83677500D01*
G75*
G02*
X156240000Y-83427501I0J249999D01*
G01*
X156240000Y-82777499D01*
G75*
G02*
X156489999Y-82527500I249999J0D01*
G01*
X157390001Y-82527500D01*
G75*
G02*
X157640000Y-82777499I0J-249999D01*
G01*
X157640000Y-83427501D01*
G75*
G02*
X157390001Y-83677500I-249999J0D01*
G01*
G37*
G36*
G01*
X157390001Y-85727500D02*
X156489999Y-85727500D01*
G75*
G02*
X156240000Y-85477501I0J249999D01*
G01*
X156240000Y-84827499D01*
G75*
G02*
X156489999Y-84577500I249999J0D01*
G01*
X157390001Y-84577500D01*
G75*
G02*
X157640000Y-84827499I0J-249999D01*
G01*
X157640000Y-85477501D01*
G75*
G02*
X157390001Y-85727500I-249999J0D01*
G01*
G37*
G36*
G01*
X143900001Y-89630000D02*
X142999999Y-89630000D01*
G75*
G02*
X142750000Y-89380001I0J249999D01*
G01*
X142750000Y-88729999D01*
G75*
G02*
X142999999Y-88480000I249999J0D01*
G01*
X143900001Y-88480000D01*
G75*
G02*
X144150000Y-88729999I0J-249999D01*
G01*
X144150000Y-89380001D01*
G75*
G02*
X143900001Y-89630000I-249999J0D01*
G01*
G37*
G36*
G01*
X143900001Y-91680000D02*
X142999999Y-91680000D01*
G75*
G02*
X142750000Y-91430001I0J249999D01*
G01*
X142750000Y-90779999D01*
G75*
G02*
X142999999Y-90530000I249999J0D01*
G01*
X143900001Y-90530000D01*
G75*
G02*
X144150000Y-90779999I0J-249999D01*
G01*
X144150000Y-91430001D01*
G75*
G02*
X143900001Y-91680000I-249999J0D01*
G01*
G37*
G36*
G01*
X143900001Y-83675000D02*
X142999999Y-83675000D01*
G75*
G02*
X142750000Y-83425001I0J249999D01*
G01*
X142750000Y-82774999D01*
G75*
G02*
X142999999Y-82525000I249999J0D01*
G01*
X143900001Y-82525000D01*
G75*
G02*
X144150000Y-82774999I0J-249999D01*
G01*
X144150000Y-83425001D01*
G75*
G02*
X143900001Y-83675000I-249999J0D01*
G01*
G37*
G36*
G01*
X143900001Y-85725000D02*
X142999999Y-85725000D01*
G75*
G02*
X142750000Y-85475001I0J249999D01*
G01*
X142750000Y-84824999D01*
G75*
G02*
X142999999Y-84575000I249999J0D01*
G01*
X143900001Y-84575000D01*
G75*
G02*
X144150000Y-84824999I0J-249999D01*
G01*
X144150000Y-85475001D01*
G75*
G02*
X143900001Y-85725000I-249999J0D01*
G01*
G37*
G36*
G01*
X162150001Y-65700000D02*
X161249999Y-65700000D01*
G75*
G02*
X161000000Y-65450001I0J249999D01*
G01*
X161000000Y-64799999D01*
G75*
G02*
X161249999Y-64550000I249999J0D01*
G01*
X162150001Y-64550000D01*
G75*
G02*
X162400000Y-64799999I0J-249999D01*
G01*
X162400000Y-65450001D01*
G75*
G02*
X162150001Y-65700000I-249999J0D01*
G01*
G37*
G36*
G01*
X162150001Y-67750000D02*
X161249999Y-67750000D01*
G75*
G02*
X161000000Y-67500001I0J249999D01*
G01*
X161000000Y-66849999D01*
G75*
G02*
X161249999Y-66600000I249999J0D01*
G01*
X162150001Y-66600000D01*
G75*
G02*
X162400000Y-66849999I0J-249999D01*
G01*
X162400000Y-67500001D01*
G75*
G02*
X162150001Y-67750000I-249999J0D01*
G01*
G37*
G36*
G01*
X159916667Y-65700000D02*
X159016665Y-65700000D01*
G75*
G02*
X158766666Y-65450001I0J249999D01*
G01*
X158766666Y-64799999D01*
G75*
G02*
X159016665Y-64550000I249999J0D01*
G01*
X159916667Y-64550000D01*
G75*
G02*
X160166666Y-64799999I0J-249999D01*
G01*
X160166666Y-65450001D01*
G75*
G02*
X159916667Y-65700000I-249999J0D01*
G01*
G37*
G36*
G01*
X159916667Y-67750000D02*
X159016665Y-67750000D01*
G75*
G02*
X158766666Y-67500001I0J249999D01*
G01*
X158766666Y-66849999D01*
G75*
G02*
X159016665Y-66600000I249999J0D01*
G01*
X159916667Y-66600000D01*
G75*
G02*
X160166666Y-66849999I0J-249999D01*
G01*
X160166666Y-67500001D01*
G75*
G02*
X159916667Y-67750000I-249999J0D01*
G01*
G37*
G36*
G01*
X157683334Y-65700000D02*
X156783332Y-65700000D01*
G75*
G02*
X156533333Y-65450001I0J249999D01*
G01*
X156533333Y-64799999D01*
G75*
G02*
X156783332Y-64550000I249999J0D01*
G01*
X157683334Y-64550000D01*
G75*
G02*
X157933333Y-64799999I0J-249999D01*
G01*
X157933333Y-65450001D01*
G75*
G02*
X157683334Y-65700000I-249999J0D01*
G01*
G37*
G36*
G01*
X157683334Y-67750000D02*
X156783332Y-67750000D01*
G75*
G02*
X156533333Y-67500001I0J249999D01*
G01*
X156533333Y-66849999D01*
G75*
G02*
X156783332Y-66600000I249999J0D01*
G01*
X157683334Y-66600000D01*
G75*
G02*
X157933333Y-66849999I0J-249999D01*
G01*
X157933333Y-67500001D01*
G75*
G02*
X157683334Y-67750000I-249999J0D01*
G01*
G37*
G36*
G01*
X155610001Y-65700000D02*
X154709999Y-65700000D01*
G75*
G02*
X154460000Y-65450001I0J249999D01*
G01*
X154460000Y-64799999D01*
G75*
G02*
X154709999Y-64550000I249999J0D01*
G01*
X155610001Y-64550000D01*
G75*
G02*
X155860000Y-64799999I0J-249999D01*
G01*
X155860000Y-65450001D01*
G75*
G02*
X155610001Y-65700000I-249999J0D01*
G01*
G37*
G36*
G01*
X155610001Y-67750000D02*
X154709999Y-67750000D01*
G75*
G02*
X154460000Y-67500001I0J249999D01*
G01*
X154460000Y-66849999D01*
G75*
G02*
X154709999Y-66600000I249999J0D01*
G01*
X155610001Y-66600000D01*
G75*
G02*
X155860000Y-66849999I0J-249999D01*
G01*
X155860000Y-67500001D01*
G75*
G02*
X155610001Y-67750000I-249999J0D01*
G01*
G37*
G36*
G01*
X154550000Y-80780000D02*
X155150000Y-80780000D01*
G75*
G02*
X155220000Y-80850000I0J-70000D01*
G01*
X155220000Y-82150000D01*
G75*
G02*
X155150000Y-82220000I-70000J0D01*
G01*
X154550000Y-82220000D01*
G75*
G02*
X154480000Y-82150000I0J70000D01*
G01*
X154480000Y-80850000D01*
G75*
G02*
X154550000Y-80780000I70000J0D01*
G01*
G37*
G36*
G01*
X152650000Y-80780000D02*
X153250000Y-80780000D01*
G75*
G02*
X153320000Y-80850000I0J-70000D01*
G01*
X153320000Y-82150000D01*
G75*
G02*
X153250000Y-82220000I-70000J0D01*
G01*
X152650000Y-82220000D01*
G75*
G02*
X152580000Y-82150000I0J70000D01*
G01*
X152580000Y-80850000D01*
G75*
G02*
X152650000Y-80780000I70000J0D01*
G01*
G37*
G36*
G01*
X153600000Y-82880000D02*
X154200000Y-82880000D01*
G75*
G02*
X154270000Y-82950000I0J-70000D01*
G01*
X154270000Y-84250000D01*
G75*
G02*
X154200000Y-84320000I-70000J0D01*
G01*
X153600000Y-84320000D01*
G75*
G02*
X153530000Y-84250000I0J70000D01*
G01*
X153530000Y-82950000D01*
G75*
G02*
X153600000Y-82880000I70000J0D01*
G01*
G37*
G36*
G01*
X147037499Y-51900000D02*
X149237501Y-51900000D01*
G75*
G02*
X149487500Y-52149999I0J-249999D01*
G01*
X149487500Y-52800001D01*
G75*
G02*
X149237501Y-53050000I-249999J0D01*
G01*
X147037499Y-53050000D01*
G75*
G02*
X146787500Y-52800001I0J249999D01*
G01*
X146787500Y-52149999D01*
G75*
G02*
X147037499Y-51900000I249999J0D01*
G01*
G37*
G36*
G01*
X147037499Y-48950000D02*
X149237501Y-48950000D01*
G75*
G02*
X149487500Y-49199999I0J-249999D01*
G01*
X149487500Y-49850001D01*
G75*
G02*
X149237501Y-50100000I-249999J0D01*
G01*
X147037499Y-50100000D01*
G75*
G02*
X146787500Y-49850001I0J249999D01*
G01*
X146787500Y-49199999D01*
G75*
G02*
X147037499Y-48950000I249999J0D01*
G01*
G37*
G36*
G01*
X128350000Y-59375000D02*
X128350000Y-60325000D01*
G75*
G02*
X128100000Y-60575000I-250000J0D01*
G01*
X127600000Y-60575000D01*
G75*
G02*
X127350000Y-60325000I0J250000D01*
G01*
X127350000Y-59375000D01*
G75*
G02*
X127600000Y-59125000I250000J0D01*
G01*
X128100000Y-59125000D01*
G75*
G02*
X128350000Y-59375000I0J-250000D01*
G01*
G37*
G36*
G01*
X130250000Y-59375000D02*
X130250000Y-60325000D01*
G75*
G02*
X130000000Y-60575000I-250000J0D01*
G01*
X129500000Y-60575000D01*
G75*
G02*
X129250000Y-60325000I0J250000D01*
G01*
X129250000Y-59375000D01*
G75*
G02*
X129500000Y-59125000I250000J0D01*
G01*
X130000000Y-59125000D01*
G75*
G02*
X130250000Y-59375000I0J-250000D01*
G01*
G37*
D39*
X166624000Y-50165000D02*
X134620000Y-50165000D01*
X134620000Y-45466000D01*
X166624000Y-45466000D01*
X166624000Y-50165000D01*
D26*
G36*
X166624000Y-50165000D02*
G01*
X134620000Y-50165000D01*
X134620000Y-45466000D01*
X166624000Y-45466000D01*
X166624000Y-50165000D01*
G37*
D39*
X137373000Y-54552512D02*
X137373000Y-57947394D01*
X136447394Y-58873000D01*
X127552606Y-58873000D01*
X126627000Y-57947394D01*
X126627000Y-54559738D01*
X127119556Y-54152000D01*
X136973492Y-54152000D01*
X137373000Y-54552512D01*
D26*
G36*
X137373000Y-54552512D02*
G01*
X137373000Y-57947394D01*
X136447394Y-58873000D01*
X127552606Y-58873000D01*
X126627000Y-57947394D01*
X126627000Y-54559738D01*
X127119556Y-54152000D01*
X136973492Y-54152000D01*
X137373000Y-54552512D01*
G37*
D39*
X131873000Y-51447394D02*
X130947394Y-52373000D01*
X127052606Y-52373000D01*
X126127000Y-51447394D01*
X126127000Y-45052606D01*
X127052606Y-44127000D01*
X131873000Y-44127000D01*
X131873000Y-51447394D01*
D26*
G36*
X131873000Y-51447394D02*
G01*
X130947394Y-52373000D01*
X127052606Y-52373000D01*
X126127000Y-51447394D01*
X126127000Y-45052606D01*
X127052606Y-44127000D01*
X131873000Y-44127000D01*
X131873000Y-51447394D01*
G37*
D39*
X134498000Y-46098000D02*
X133027000Y-46098000D01*
X133027000Y-45652000D01*
X134498000Y-45652000D01*
X134498000Y-46098000D01*
D26*
G36*
X134498000Y-46098000D02*
G01*
X133027000Y-46098000D01*
X133027000Y-45652000D01*
X134498000Y-45652000D01*
X134498000Y-46098000D01*
G37*
D39*
X134523000Y-47348000D02*
X133052000Y-47348000D01*
X133052000Y-46927000D01*
X134523000Y-46927000D01*
X134523000Y-47348000D01*
D26*
G36*
X134523000Y-47348000D02*
G01*
X133052000Y-47348000D01*
X133052000Y-46927000D01*
X134523000Y-46927000D01*
X134523000Y-47348000D01*
G37*
D39*
X134623000Y-48648000D02*
X133052000Y-48648000D01*
X133052000Y-48177000D01*
X134623000Y-48177000D01*
X134623000Y-48648000D01*
D26*
G36*
X134623000Y-48648000D02*
G01*
X133052000Y-48648000D01*
X133052000Y-48177000D01*
X134623000Y-48177000D01*
X134623000Y-48648000D01*
G37*
M02*
