G04 #@! TF.GenerationSoftware,KiCad,Pcbnew,6.0.4-6f826c9f35~116~ubuntu18.04.1*
G04 #@! TF.CreationDate,2022-05-26T09:15:53+08:00*
G04 #@! TF.ProjectId,Power_connector,506f7765-725f-4636-9f6e-6e6563746f72,rev?*
G04 #@! TF.SameCoordinates,Original*
G04 #@! TF.FileFunction,Copper,L2,Bot*
G04 #@! TF.FilePolarity,Positive*
%FSLAX46Y46*%
G04 Gerber Fmt 4.6, Leading zero omitted, Abs format (unit mm)*
G04 Created by KiCad (PCBNEW 6.0.4-6f826c9f35~116~ubuntu18.04.1) date 2022-05-26 09:15:53*
%MOMM*%
%LPD*%
G01*
G04 APERTURE LIST*
G04 Aperture macros list*
%AMRoundRect*
0 Rectangle with rounded corners*
0 $1 Rounding radius*
0 $2 $3 $4 $5 $6 $7 $8 $9 X,Y pos of 4 corners*
0 Add a 4 corners polygon primitive as box body*
4,1,4,$2,$3,$4,$5,$6,$7,$8,$9,$2,$3,0*
0 Add four circle primitives for the rounded corners*
1,1,$1+$1,$2,$3*
1,1,$1+$1,$4,$5*
1,1,$1+$1,$6,$7*
1,1,$1+$1,$8,$9*
0 Add four rect primitives between the rounded corners*
20,1,$1+$1,$2,$3,$4,$5,0*
20,1,$1+$1,$4,$5,$6,$7,0*
20,1,$1+$1,$6,$7,$8,$9,0*
20,1,$1+$1,$8,$9,$2,$3,0*%
G04 Aperture macros list end*
G04 #@! TA.AperFunction,ComponentPad*
%ADD10RoundRect,1.500000X1.500000X1.500000X-1.500000X1.500000X-1.500000X-1.500000X1.500000X-1.500000X0*%
G04 #@! TD*
G04 #@! TA.AperFunction,ComponentPad*
%ADD11C,6.000000*%
G04 #@! TD*
G04 #@! TA.AperFunction,ComponentPad*
%ADD12C,3.051988*%
G04 #@! TD*
G04 #@! TA.AperFunction,ComponentPad*
%ADD13C,3.048000*%
G04 #@! TD*
G04 #@! TA.AperFunction,ComponentPad*
%ADD14C,3.068258*%
G04 #@! TD*
G04 #@! TA.AperFunction,ComponentPad*
%ADD15RoundRect,1.500000X-1.500000X-1.500000X1.500000X-1.500000X1.500000X1.500000X-1.500000X1.500000X0*%
G04 #@! TD*
G04 #@! TA.AperFunction,ComponentPad*
%ADD16R,2.600000X2.600000*%
G04 #@! TD*
G04 #@! TA.AperFunction,ComponentPad*
%ADD17C,2.600000*%
G04 #@! TD*
G04 #@! TA.AperFunction,ComponentPad*
%ADD18R,3.200000X3.200000*%
G04 #@! TD*
G04 #@! TA.AperFunction,ComponentPad*
%ADD19O,3.200000X3.200000*%
G04 #@! TD*
G04 #@! TA.AperFunction,WasherPad*
%ADD20R,0.900000X1.800000*%
G04 #@! TD*
G04 #@! TA.AperFunction,ComponentPad*
%ADD21C,4.500000*%
G04 #@! TD*
G04 #@! TA.AperFunction,SMDPad,CuDef*
%ADD22R,10.800080X8.150860*%
G04 #@! TD*
G04 #@! TA.AperFunction,SMDPad,CuDef*
%ADD23R,0.899160X3.200400*%
G04 #@! TD*
G04 #@! TA.AperFunction,ViaPad*
%ADD24C,5.000000*%
G04 #@! TD*
G04 #@! TA.AperFunction,ViaPad*
%ADD25C,1.000000*%
G04 #@! TD*
G04 #@! TA.AperFunction,ViaPad*
%ADD26C,0.800000*%
G04 #@! TD*
G04 #@! TA.AperFunction,Conductor*
%ADD27C,0.500000*%
G04 #@! TD*
G04 #@! TA.AperFunction,Conductor*
%ADD28C,6.000000*%
G04 #@! TD*
G04 APERTURE END LIST*
D10*
X165303200Y-136269200D03*
D11*
X158103200Y-136269200D03*
D12*
X148082000Y-99744000D03*
D13*
X148082000Y-96344000D03*
D12*
X134366000Y-99744000D03*
D14*
X134366000Y-96344000D03*
D12*
X112268000Y-83820000D03*
D13*
X112268000Y-87220000D03*
D14*
X125984000Y-87220000D03*
D12*
X125984000Y-83820000D03*
D15*
X95028200Y-123569200D03*
D11*
X102228200Y-123569200D03*
D10*
X165303200Y-85469200D03*
D11*
X158103200Y-85469200D03*
D10*
X165303200Y-110869200D03*
D11*
X158103200Y-110869200D03*
D15*
X95028200Y-98169200D03*
D11*
X102228200Y-98169200D03*
D10*
X165144000Y-98298000D03*
D11*
X157944000Y-98298000D03*
D15*
X95028200Y-72769200D03*
D11*
X102228200Y-72769200D03*
D13*
X112090200Y-74344000D03*
D12*
X112090200Y-70944000D03*
X125806200Y-70944000D03*
D14*
X125806200Y-74344000D03*
D12*
X112141000Y-109376000D03*
D13*
X112141000Y-112776000D03*
D14*
X125857000Y-112776000D03*
D12*
X125857000Y-109376000D03*
D13*
X147828000Y-122076000D03*
D12*
X147828000Y-125476000D03*
X134112000Y-125476000D03*
D14*
X134112000Y-122076000D03*
D16*
X163576000Y-59944000D03*
D17*
X163576000Y-54864000D03*
D13*
X112090200Y-125269200D03*
D12*
X112090200Y-121869200D03*
X125806200Y-121869200D03*
D14*
X125806200Y-125269200D03*
D18*
X133096000Y-144272000D03*
D19*
X148336000Y-144272000D03*
D13*
X112014000Y-137844000D03*
D12*
X112014000Y-134444000D03*
X125730000Y-134444000D03*
D14*
X125730000Y-137844000D03*
D15*
X94996000Y-85598000D03*
D11*
X102196000Y-85598000D03*
D12*
X148082000Y-74344000D03*
D13*
X148082000Y-70944000D03*
D12*
X134366000Y-74344000D03*
D14*
X134366000Y-70944000D03*
D10*
X165144000Y-123698000D03*
D11*
X157944000Y-123698000D03*
D20*
X136598000Y-51675000D03*
X123098000Y-51675000D03*
D21*
X126248000Y-57675000D03*
X133448000Y-57675000D03*
D12*
X148031200Y-137969200D03*
D13*
X148031200Y-134569200D03*
D14*
X134315200Y-134569200D03*
D12*
X134315200Y-137969200D03*
X112090200Y-96344000D03*
D13*
X112090200Y-99744000D03*
D12*
X125806200Y-96344000D03*
D14*
X125806200Y-99744000D03*
D15*
X95206000Y-136398000D03*
D11*
X102406000Y-136398000D03*
D13*
X148403700Y-83769200D03*
D12*
X148403700Y-87169200D03*
D14*
X134687700Y-83769200D03*
D12*
X134687700Y-87169200D03*
D10*
X165100000Y-72644000D03*
D11*
X157900000Y-72644000D03*
D15*
X94952000Y-110744000D03*
D11*
X102152000Y-110744000D03*
D18*
X127000000Y-144272000D03*
D19*
X111760000Y-144272000D03*
D12*
X148031200Y-112569200D03*
D13*
X148031200Y-109169200D03*
D12*
X134315200Y-112569200D03*
D14*
X134315200Y-109169200D03*
D22*
X146304000Y-53535580D03*
D23*
X150114000Y-64137540D03*
X145034000Y-64137540D03*
X143764000Y-64137540D03*
X142494000Y-64137540D03*
X148844000Y-64137540D03*
X147574000Y-64137540D03*
D22*
X113284000Y-53347620D03*
D23*
X117094000Y-63949580D03*
X109474000Y-63949580D03*
X112014000Y-63949580D03*
X115824000Y-63949580D03*
X114554000Y-63949580D03*
X110744000Y-63949580D03*
D24*
X92456000Y-145288000D03*
X92416000Y-43180000D03*
X168148000Y-43180000D03*
X168148000Y-145288000D03*
D25*
X107696000Y-60960000D03*
X159004000Y-45720000D03*
X154432000Y-45720000D03*
X154432000Y-42164000D03*
X164084000Y-45720000D03*
X164084000Y-49276000D03*
X105664000Y-45720000D03*
D26*
X96012000Y-58928000D03*
D25*
X101600000Y-45720000D03*
X159004000Y-49276000D03*
X105664000Y-42164000D03*
D26*
X93472000Y-58928000D03*
D25*
X101600000Y-42164000D03*
D26*
X93472000Y-55118000D03*
X96012000Y-55118000D03*
D25*
X159004000Y-42164000D03*
X164084000Y-42164000D03*
X154432000Y-49276000D03*
D27*
X120396000Y-62992000D02*
X117856000Y-60452000D01*
X150114000Y-61214000D02*
X149860000Y-60960000D01*
X141224000Y-60452000D02*
X139700000Y-61976000D01*
X108204000Y-60452000D02*
X107696000Y-60960000D01*
X138684000Y-62992000D02*
X120396000Y-62992000D01*
X139700000Y-61976000D02*
X138684000Y-62992000D01*
X163576000Y-54864000D02*
X161544000Y-54864000D01*
X150114000Y-64137540D02*
X150114000Y-61214000D01*
X117856000Y-60452000D02*
X115824000Y-60452000D01*
X161544000Y-54864000D02*
X155448000Y-60960000D01*
X149860000Y-60960000D02*
X149352000Y-60452000D01*
X117094000Y-61722000D02*
X115824000Y-60452000D01*
X117094000Y-63949580D02*
X117094000Y-61722000D01*
X108712000Y-60452000D02*
X108204000Y-60452000D01*
X115824000Y-60452000D02*
X108712000Y-60452000D01*
X155448000Y-60960000D02*
X149860000Y-60960000D01*
X149352000Y-60452000D02*
X141224000Y-60452000D01*
X149575658Y-66548000D02*
X148844000Y-65816342D01*
X148844000Y-65816342D02*
X148844000Y-64137540D01*
X155956000Y-66548000D02*
X149575658Y-66548000D01*
X162560000Y-59944000D02*
X155956000Y-66548000D01*
X163576000Y-59944000D02*
X162560000Y-59944000D01*
D28*
X158103200Y-110869200D02*
X149731200Y-110869200D01*
X149731200Y-110869200D02*
X148031200Y-109169200D01*
X150103700Y-85469200D02*
X148403700Y-83769200D01*
X158103200Y-85469200D02*
X150103700Y-85469200D01*
X157893200Y-72769200D02*
X149731200Y-72769200D01*
X149731200Y-72769200D02*
X148031200Y-74469200D01*
G04 #@! TA.AperFunction,Conductor*
G36*
X116127616Y-61996002D02*
G01*
X116174109Y-62049658D01*
X116184213Y-62119932D01*
X116177477Y-62146230D01*
X116142675Y-62239064D01*
X116135920Y-62301246D01*
X116135920Y-65597914D01*
X116142675Y-65660096D01*
X116193805Y-65796485D01*
X116281159Y-65913041D01*
X116397715Y-66000395D01*
X116534104Y-66051525D01*
X116596286Y-66058280D01*
X117591714Y-66058280D01*
X117653896Y-66051525D01*
X117790285Y-66000395D01*
X117906841Y-65913041D01*
X117994195Y-65796485D01*
X118045325Y-65660096D01*
X118052080Y-65597914D01*
X118052080Y-62301246D01*
X118045325Y-62239064D01*
X118010523Y-62146230D01*
X118005340Y-62075422D01*
X118039261Y-62013053D01*
X118101516Y-61978924D01*
X118128505Y-61976000D01*
X118255129Y-61976000D01*
X118323250Y-61996002D01*
X118344224Y-62012905D01*
X119812230Y-63480911D01*
X119824616Y-63495323D01*
X119833149Y-63506918D01*
X119833154Y-63506923D01*
X119837492Y-63512818D01*
X119843070Y-63517557D01*
X119843073Y-63517560D01*
X119877768Y-63547035D01*
X119885284Y-63553965D01*
X119890979Y-63559660D01*
X119893861Y-63561940D01*
X119913251Y-63577281D01*
X119916655Y-63580072D01*
X119966703Y-63622591D01*
X119972285Y-63627333D01*
X119978801Y-63630661D01*
X119983838Y-63634020D01*
X119988977Y-63637194D01*
X119994716Y-63641734D01*
X120001349Y-63644834D01*
X120060837Y-63672636D01*
X120064791Y-63674569D01*
X120129808Y-63707769D01*
X120136924Y-63709510D01*
X120142554Y-63711604D01*
X120148321Y-63713523D01*
X120154950Y-63716621D01*
X120162110Y-63718110D01*
X120162112Y-63718111D01*
X120226396Y-63731482D01*
X120230680Y-63732452D01*
X120301610Y-63749808D01*
X120307212Y-63750156D01*
X120307215Y-63750156D01*
X120312764Y-63750500D01*
X120312762Y-63750536D01*
X120316752Y-63750775D01*
X120320950Y-63751150D01*
X120328115Y-63752640D01*
X120405520Y-63750546D01*
X120408928Y-63750500D01*
X138616930Y-63750500D01*
X138635880Y-63751933D01*
X138650115Y-63754099D01*
X138650119Y-63754099D01*
X138657349Y-63755199D01*
X138664641Y-63754606D01*
X138664644Y-63754606D01*
X138710018Y-63750915D01*
X138720233Y-63750500D01*
X138728293Y-63750500D01*
X138745680Y-63748473D01*
X138756507Y-63747211D01*
X138760882Y-63746778D01*
X138826339Y-63741454D01*
X138826342Y-63741453D01*
X138833637Y-63740860D01*
X138840601Y-63738604D01*
X138846560Y-63737413D01*
X138852415Y-63736029D01*
X138859681Y-63735182D01*
X138928327Y-63710265D01*
X138932455Y-63708848D01*
X138994936Y-63688607D01*
X138994938Y-63688606D01*
X139001899Y-63686351D01*
X139008154Y-63682555D01*
X139013628Y-63680049D01*
X139019058Y-63677330D01*
X139025937Y-63674833D01*
X139086976Y-63634814D01*
X139090680Y-63632477D01*
X139153107Y-63594595D01*
X139161484Y-63587197D01*
X139161508Y-63587224D01*
X139164500Y-63584571D01*
X139167733Y-63581868D01*
X139173852Y-63577856D01*
X139227128Y-63521617D01*
X139229506Y-63519175D01*
X140735776Y-62012905D01*
X140798088Y-61978879D01*
X140824871Y-61976000D01*
X149197720Y-61976000D01*
X149265841Y-61996002D01*
X149312334Y-62049658D01*
X149322438Y-62119932D01*
X149298546Y-62177565D01*
X149219191Y-62283448D01*
X149213805Y-62290635D01*
X149162675Y-62427024D01*
X149155920Y-62489206D01*
X149155920Y-65785874D01*
X149162675Y-65848056D01*
X149213805Y-65984445D01*
X149301159Y-66101001D01*
X149417715Y-66188355D01*
X149554104Y-66239485D01*
X149616286Y-66246240D01*
X150365570Y-66246240D01*
X150433691Y-66266242D01*
X150480184Y-66319898D01*
X150490288Y-66390172D01*
X150460794Y-66454752D01*
X150454665Y-66461335D01*
X150404905Y-66511095D01*
X150342593Y-66545121D01*
X150315810Y-66548000D01*
X139192000Y-66548000D01*
X137668000Y-68580000D01*
X137668000Y-146759810D01*
X137647998Y-146827931D01*
X137631095Y-146848905D01*
X137197405Y-147282595D01*
X137135093Y-147316621D01*
X137108310Y-147319500D01*
X122987690Y-147319500D01*
X122919569Y-147299498D01*
X122898595Y-147282595D01*
X122464905Y-146848905D01*
X122430879Y-146786593D01*
X122428000Y-146759810D01*
X122428000Y-69596000D01*
X121920000Y-69088000D01*
X116384190Y-69088000D01*
X116316069Y-69067998D01*
X116295095Y-69051095D01*
X114300000Y-67056000D01*
X109272190Y-67056000D01*
X109204069Y-67035998D01*
X109183095Y-67019095D01*
X108748905Y-66584905D01*
X108714879Y-66522593D01*
X108712000Y-66495810D01*
X108712000Y-62536190D01*
X108732002Y-62468069D01*
X108748905Y-62447095D01*
X109183095Y-62012905D01*
X109245407Y-61978879D01*
X109272190Y-61976000D01*
X116059495Y-61976000D01*
X116127616Y-61996002D01*
G37*
G04 #@! TD.AperFunction*
G04 #@! TA.AperFunction,Conductor*
G36*
X151399931Y-49296002D02*
G01*
X151420905Y-49312905D01*
X151855095Y-49747095D01*
X151889121Y-49809407D01*
X151892000Y-49836190D01*
X151892000Y-57351810D01*
X151871998Y-57419931D01*
X151855095Y-57440905D01*
X151420905Y-57875095D01*
X151358593Y-57909121D01*
X151331810Y-57912000D01*
X136398000Y-57912000D01*
X135890000Y-58420000D01*
X135890000Y-59383810D01*
X135869998Y-59451931D01*
X135853095Y-59472905D01*
X135164905Y-60161095D01*
X135102593Y-60195121D01*
X135075810Y-60198000D01*
X131639433Y-60198000D01*
X131571312Y-60177998D01*
X131534595Y-60141892D01*
X131085162Y-59467743D01*
X131064000Y-59397851D01*
X131064000Y-55880000D01*
X130048000Y-54864000D01*
X119380000Y-54864000D01*
X118872000Y-55372000D01*
X118872000Y-57351810D01*
X118851998Y-57419931D01*
X118835095Y-57440905D01*
X118400905Y-57875095D01*
X118338593Y-57909121D01*
X118311810Y-57912000D01*
X108256190Y-57912000D01*
X108188069Y-57891998D01*
X108167095Y-57875095D01*
X107732905Y-57440905D01*
X107698879Y-57378593D01*
X107696000Y-57351810D01*
X107696000Y-52623134D01*
X122139500Y-52623134D01*
X122146255Y-52685316D01*
X122197385Y-52821705D01*
X122284739Y-52938261D01*
X122401295Y-53025615D01*
X122537684Y-53076745D01*
X122599866Y-53083500D01*
X123596134Y-53083500D01*
X123658316Y-53076745D01*
X123794705Y-53025615D01*
X123911261Y-52938261D01*
X123998615Y-52821705D01*
X124049745Y-52685316D01*
X124056500Y-52623134D01*
X135639500Y-52623134D01*
X135646255Y-52685316D01*
X135697385Y-52821705D01*
X135784739Y-52938261D01*
X135901295Y-53025615D01*
X136037684Y-53076745D01*
X136099866Y-53083500D01*
X137096134Y-53083500D01*
X137158316Y-53076745D01*
X137294705Y-53025615D01*
X137411261Y-52938261D01*
X137498615Y-52821705D01*
X137549745Y-52685316D01*
X137556500Y-52623134D01*
X137556500Y-50726866D01*
X137549745Y-50664684D01*
X137498615Y-50528295D01*
X137411261Y-50411739D01*
X137294705Y-50324385D01*
X137158316Y-50273255D01*
X137096134Y-50266500D01*
X136099866Y-50266500D01*
X136037684Y-50273255D01*
X135901295Y-50324385D01*
X135784739Y-50411739D01*
X135697385Y-50528295D01*
X135646255Y-50664684D01*
X135639500Y-50726866D01*
X135639500Y-52623134D01*
X124056500Y-52623134D01*
X124056500Y-50726866D01*
X124049745Y-50664684D01*
X123998615Y-50528295D01*
X123911261Y-50411739D01*
X123794705Y-50324385D01*
X123658316Y-50273255D01*
X123596134Y-50266500D01*
X122599866Y-50266500D01*
X122537684Y-50273255D01*
X122401295Y-50324385D01*
X122284739Y-50411739D01*
X122197385Y-50528295D01*
X122146255Y-50664684D01*
X122139500Y-50726866D01*
X122139500Y-52623134D01*
X107696000Y-52623134D01*
X107696000Y-49836190D01*
X107716002Y-49768069D01*
X107732905Y-49747095D01*
X108167095Y-49312905D01*
X108229407Y-49278879D01*
X108256190Y-49276000D01*
X151331810Y-49276000D01*
X151399931Y-49296002D01*
G37*
G04 #@! TD.AperFunction*
G04 #@! TA.AperFunction,Conductor*
G36*
X106622121Y-41168502D02*
G01*
X106668614Y-41222158D01*
X106680000Y-41274500D01*
X106680000Y-57404000D01*
X107696000Y-58420000D01*
X118364000Y-58420000D01*
X118878790Y-57905210D01*
X118914915Y-57881950D01*
X118914465Y-57881127D01*
X118922337Y-57876817D01*
X118930745Y-57873665D01*
X119047301Y-57786311D01*
X119134655Y-57669755D01*
X119137807Y-57661347D01*
X119142117Y-57653475D01*
X119142940Y-57653925D01*
X119166200Y-57617800D01*
X119380000Y-57404000D01*
X119380000Y-55932190D01*
X119400002Y-55864069D01*
X119416905Y-55843095D01*
X119851095Y-55408905D01*
X119913407Y-55374879D01*
X119940190Y-55372000D01*
X129487810Y-55372000D01*
X129555931Y-55392002D01*
X129576905Y-55408905D01*
X130519095Y-56351095D01*
X130553121Y-56413407D01*
X130556000Y-56440190D01*
X130556000Y-59436000D01*
X131572000Y-60452000D01*
X135128000Y-60452000D01*
X136144000Y-59436000D01*
X136144000Y-58980190D01*
X136164002Y-58912069D01*
X136180905Y-58891095D01*
X136615095Y-58456905D01*
X136677407Y-58422879D01*
X136704190Y-58420000D01*
X151892000Y-58420000D01*
X152400000Y-57912000D01*
X152400000Y-41708190D01*
X152420002Y-41640069D01*
X152436905Y-41619095D01*
X152870595Y-41185405D01*
X152932907Y-41151379D01*
X152959690Y-41148500D01*
X165658799Y-41148500D01*
X165726920Y-41168502D01*
X165773413Y-41222158D01*
X165783517Y-41292432D01*
X165757954Y-41352244D01*
X165673386Y-41460098D01*
X165671493Y-41463187D01*
X165671491Y-41463190D01*
X165625233Y-41538676D01*
X165492105Y-41755921D01*
X165490580Y-41759206D01*
X165490578Y-41759210D01*
X165451505Y-41843386D01*
X165346027Y-42070620D01*
X165237087Y-42400023D01*
X165166730Y-42739764D01*
X165135888Y-43085341D01*
X165135983Y-43088971D01*
X165135983Y-43088972D01*
X165138367Y-43180000D01*
X165144970Y-43432171D01*
X165193856Y-43775660D01*
X165281897Y-44111253D01*
X165407927Y-44434503D01*
X165409624Y-44437708D01*
X165543113Y-44689825D01*
X165570275Y-44741126D01*
X165572325Y-44744109D01*
X165572327Y-44744112D01*
X165764733Y-45024064D01*
X165764739Y-45024071D01*
X165766790Y-45027056D01*
X165994866Y-45288505D01*
X165997551Y-45290948D01*
X166207268Y-45481775D01*
X166251481Y-45522006D01*
X166533233Y-45724466D01*
X166836388Y-45893200D01*
X167156928Y-46025972D01*
X167160422Y-46026967D01*
X167160424Y-46026968D01*
X167487103Y-46120025D01*
X167487108Y-46120026D01*
X167490604Y-46121022D01*
X167687304Y-46153233D01*
X167829412Y-46176504D01*
X167829419Y-46176505D01*
X167832993Y-46177090D01*
X168006276Y-46185262D01*
X168175931Y-46193263D01*
X168175932Y-46193263D01*
X168179558Y-46193434D01*
X168188415Y-46192830D01*
X168522073Y-46170084D01*
X168522081Y-46170083D01*
X168525704Y-46169836D01*
X168529279Y-46169173D01*
X168529282Y-46169173D01*
X168863279Y-46107270D01*
X168863283Y-46107269D01*
X168866844Y-46106609D01*
X169198456Y-46004592D01*
X169516145Y-45865136D01*
X169760511Y-45722341D01*
X169812560Y-45691926D01*
X169812562Y-45691925D01*
X169815700Y-45690091D01*
X169843647Y-45669108D01*
X169977847Y-45568348D01*
X170044332Y-45543442D01*
X170113728Y-45558434D01*
X170164001Y-45608565D01*
X170179500Y-45669108D01*
X170179500Y-142793176D01*
X170159498Y-142861297D01*
X170105842Y-142907790D01*
X170035568Y-142917894D01*
X169976420Y-142891139D01*
X169975669Y-142892129D01*
X169972775Y-142889932D01*
X169970019Y-142887578D01*
X169967016Y-142885560D01*
X169967008Y-142885554D01*
X169787753Y-142765100D01*
X169682047Y-142694069D01*
X169373741Y-142534940D01*
X169049189Y-142412302D01*
X169045668Y-142411418D01*
X169045663Y-142411416D01*
X168884378Y-142370904D01*
X168712692Y-142327780D01*
X168690476Y-142324855D01*
X168372315Y-142282968D01*
X168372307Y-142282967D01*
X168368711Y-142282494D01*
X168224045Y-142280221D01*
X168025446Y-142277101D01*
X168025442Y-142277101D01*
X168021804Y-142277044D01*
X168018190Y-142277405D01*
X168018184Y-142277405D01*
X167774843Y-142301694D01*
X167676569Y-142311503D01*
X167337583Y-142385414D01*
X167334156Y-142386587D01*
X167334150Y-142386589D01*
X167012765Y-142496624D01*
X167009339Y-142497797D01*
X166696188Y-142647163D01*
X166402279Y-142831532D01*
X166399443Y-142833804D01*
X166399436Y-142833809D01*
X166326641Y-142892129D01*
X166131509Y-143048459D01*
X165887466Y-143295071D01*
X165885225Y-143297929D01*
X165828732Y-143369978D01*
X165673386Y-143568098D01*
X165671493Y-143571187D01*
X165671491Y-143571190D01*
X165625233Y-143646676D01*
X165492105Y-143863921D01*
X165490580Y-143867206D01*
X165490578Y-143867210D01*
X165451505Y-143951386D01*
X165346027Y-144178620D01*
X165237087Y-144508023D01*
X165166730Y-144847764D01*
X165135888Y-145193341D01*
X165135983Y-145196971D01*
X165135983Y-145196972D01*
X165138367Y-145288000D01*
X165144970Y-145540171D01*
X165193856Y-145883660D01*
X165281897Y-146219253D01*
X165407927Y-146542503D01*
X165409624Y-146545708D01*
X165543113Y-146797825D01*
X165570275Y-146849126D01*
X165572325Y-146852109D01*
X165572327Y-146852112D01*
X165757908Y-147122133D01*
X165780008Y-147189602D01*
X165762123Y-147258309D01*
X165709931Y-147306440D01*
X165654068Y-147319500D01*
X138920433Y-147319500D01*
X138852312Y-147299498D01*
X138815595Y-147263392D01*
X138197162Y-146335743D01*
X138176000Y-146265851D01*
X138176000Y-137947845D01*
X145992064Y-137947845D01*
X146008032Y-138224786D01*
X146061438Y-138496996D01*
X146062825Y-138501047D01*
X146148475Y-138751211D01*
X146151292Y-138759440D01*
X146275934Y-139007262D01*
X146278360Y-139010791D01*
X146278363Y-139010797D01*
X146346154Y-139109433D01*
X146433055Y-139235874D01*
X146435942Y-139239047D01*
X146435943Y-139239048D01*
X146616868Y-139437883D01*
X146619748Y-139441048D01*
X146677597Y-139489417D01*
X146829268Y-139616234D01*
X146829273Y-139616238D01*
X146832560Y-139618986D01*
X146950056Y-139692691D01*
X147063912Y-139764113D01*
X147063916Y-139764115D01*
X147067552Y-139766396D01*
X147071462Y-139768161D01*
X147071463Y-139768162D01*
X147316463Y-139878784D01*
X147316467Y-139878786D01*
X147320375Y-139880550D01*
X147359843Y-139892241D01*
X147582239Y-139958118D01*
X147582243Y-139958119D01*
X147586352Y-139959336D01*
X147590586Y-139959984D01*
X147590591Y-139959985D01*
X147833650Y-139997178D01*
X147860560Y-140001296D01*
X148001799Y-140003515D01*
X148133635Y-140005586D01*
X148133641Y-140005586D01*
X148137926Y-140005653D01*
X148413317Y-139972327D01*
X148681637Y-139901935D01*
X148937921Y-139795778D01*
X148957285Y-139784463D01*
X149173719Y-139657989D01*
X149173721Y-139657987D01*
X149177427Y-139655822D01*
X149395723Y-139484657D01*
X149588770Y-139285448D01*
X149591303Y-139282000D01*
X149591307Y-139281995D01*
X149750456Y-139065339D01*
X149752994Y-139061884D01*
X149781761Y-139008902D01*
X149883308Y-138821876D01*
X149883309Y-138821874D01*
X149885358Y-138818100D01*
X149953679Y-138637295D01*
X149981894Y-138562626D01*
X149981895Y-138562622D01*
X149983412Y-138558608D01*
X150045341Y-138288209D01*
X150057014Y-138157426D01*
X150069781Y-138014371D01*
X150070001Y-138011907D01*
X150070448Y-137969200D01*
X150051581Y-137692442D01*
X149995327Y-137420806D01*
X149902729Y-137159317D01*
X149892637Y-137139763D01*
X149777465Y-136916621D01*
X149777465Y-136916620D01*
X149775500Y-136912814D01*
X149760251Y-136891116D01*
X149618460Y-136689370D01*
X149618459Y-136689369D01*
X149615993Y-136685860D01*
X149427161Y-136482652D01*
X149283558Y-136365114D01*
X149243512Y-136306489D01*
X149242465Y-136269200D01*
X154589885Y-136269200D01*
X154609131Y-136636441D01*
X154609644Y-136639681D01*
X154609645Y-136639689D01*
X154633841Y-136792457D01*
X154666659Y-136999659D01*
X154761839Y-137354874D01*
X154763024Y-137357962D01*
X154763025Y-137357964D01*
X154787148Y-137420806D01*
X154893627Y-137698194D01*
X154895125Y-137701134D01*
X155054728Y-138014371D01*
X155060580Y-138025857D01*
X155062376Y-138028623D01*
X155062378Y-138028626D01*
X155111032Y-138103547D01*
X155260868Y-138334275D01*
X155492298Y-138620067D01*
X155752333Y-138880102D01*
X156038125Y-139111532D01*
X156121246Y-139165511D01*
X156305933Y-139285448D01*
X156346542Y-139311820D01*
X156349476Y-139313315D01*
X156349483Y-139313319D01*
X156599326Y-139440620D01*
X156674206Y-139478773D01*
X156804971Y-139528969D01*
X157005840Y-139606075D01*
X157017526Y-139610561D01*
X157372741Y-139705741D01*
X157565758Y-139736312D01*
X157732711Y-139762755D01*
X157732719Y-139762756D01*
X157735959Y-139763269D01*
X158103200Y-139782515D01*
X158470441Y-139763269D01*
X158473681Y-139762756D01*
X158473689Y-139762755D01*
X158640642Y-139736312D01*
X158833659Y-139705741D01*
X159188874Y-139610561D01*
X159200561Y-139606075D01*
X159401429Y-139528969D01*
X159532194Y-139478773D01*
X159607074Y-139440620D01*
X159856917Y-139313319D01*
X159856924Y-139313315D01*
X159859858Y-139311820D01*
X159900468Y-139285448D01*
X160085154Y-139165511D01*
X160168275Y-139111532D01*
X160454067Y-138880102D01*
X160714102Y-138620067D01*
X160945532Y-138334275D01*
X161095368Y-138103547D01*
X161144022Y-138028626D01*
X161144024Y-138028623D01*
X161145820Y-138025857D01*
X161151673Y-138014371D01*
X161311275Y-137701134D01*
X161312773Y-137698194D01*
X161419252Y-137420806D01*
X161443375Y-137357964D01*
X161443376Y-137357962D01*
X161444561Y-137354874D01*
X161539741Y-136999659D01*
X161572559Y-136792457D01*
X161596755Y-136639689D01*
X161596756Y-136639681D01*
X161597269Y-136636441D01*
X161616515Y-136269200D01*
X161597269Y-135901959D01*
X161595488Y-135890711D01*
X161550432Y-135606244D01*
X161539741Y-135538741D01*
X161444561Y-135183526D01*
X161312773Y-134840206D01*
X161243270Y-134703798D01*
X161147319Y-134515484D01*
X161147315Y-134515477D01*
X161145820Y-134512543D01*
X160945532Y-134204125D01*
X160714102Y-133918333D01*
X160454067Y-133658298D01*
X160168275Y-133426868D01*
X160055885Y-133353881D01*
X159862627Y-133228378D01*
X159862624Y-133228376D01*
X159859858Y-133226580D01*
X159856924Y-133225085D01*
X159856917Y-133225081D01*
X159535134Y-133061125D01*
X159532194Y-133059627D01*
X159236240Y-132946021D01*
X159191964Y-132929025D01*
X159191962Y-132929024D01*
X159188874Y-132927839D01*
X158833659Y-132832659D01*
X158640642Y-132802088D01*
X158473689Y-132775645D01*
X158473681Y-132775644D01*
X158470441Y-132775131D01*
X158103200Y-132755885D01*
X157735959Y-132775131D01*
X157732719Y-132775644D01*
X157732711Y-132775645D01*
X157565758Y-132802088D01*
X157372741Y-132832659D01*
X157017526Y-132927839D01*
X157014438Y-132929024D01*
X157014436Y-132929025D01*
X156970160Y-132946021D01*
X156674206Y-133059627D01*
X156671266Y-133061125D01*
X156349484Y-133225081D01*
X156349477Y-133225085D01*
X156346543Y-133226580D01*
X156343777Y-133228376D01*
X156343774Y-133228378D01*
X156278744Y-133270609D01*
X156038125Y-133426868D01*
X155752333Y-133658298D01*
X155492298Y-133918333D01*
X155260868Y-134204125D01*
X155060580Y-134512543D01*
X155059085Y-134515477D01*
X155059081Y-134515484D01*
X154963130Y-134703798D01*
X154893627Y-134840206D01*
X154761839Y-135183526D01*
X154666659Y-135538741D01*
X154655968Y-135606244D01*
X154610913Y-135890711D01*
X154609131Y-135901959D01*
X154589885Y-136269200D01*
X149242465Y-136269200D01*
X149241519Y-136235520D01*
X149278210Y-136174740D01*
X149285606Y-136168466D01*
X149394386Y-136083171D01*
X149427267Y-136049241D01*
X149566804Y-135905249D01*
X149587243Y-135884158D01*
X149589776Y-135880710D01*
X149589780Y-135880705D01*
X149748768Y-135664268D01*
X149751306Y-135660813D01*
X149817586Y-135538741D01*
X149881490Y-135421044D01*
X149881491Y-135421042D01*
X149883540Y-135417268D01*
X149981498Y-135158030D01*
X150010040Y-135033408D01*
X150042410Y-134892076D01*
X150042411Y-134892071D01*
X150043367Y-134887896D01*
X150068002Y-134611865D01*
X150068449Y-134569200D01*
X150066987Y-134547760D01*
X150049892Y-134296991D01*
X150049891Y-134296985D01*
X150049600Y-134292714D01*
X149993402Y-134021343D01*
X149900895Y-133760111D01*
X149773790Y-133513850D01*
X149770094Y-133508590D01*
X149616907Y-133290628D01*
X149616906Y-133290627D01*
X149614440Y-133287118D01*
X149425793Y-133084109D01*
X149404772Y-133066903D01*
X149250016Y-132940238D01*
X149211340Y-132908582D01*
X148975049Y-132763783D01*
X148971132Y-132762064D01*
X148971129Y-132762062D01*
X148859546Y-132713081D01*
X148721293Y-132652392D01*
X148717165Y-132651216D01*
X148717162Y-132651215D01*
X148626295Y-132625331D01*
X148454768Y-132576470D01*
X148450526Y-132575866D01*
X148450520Y-132575865D01*
X148184655Y-132538027D01*
X148180404Y-132537422D01*
X148034315Y-132536657D01*
X147907566Y-132535993D01*
X147907560Y-132535993D01*
X147903280Y-132535971D01*
X147899035Y-132536530D01*
X147899033Y-132536530D01*
X147887663Y-132538027D01*
X147628523Y-132572144D01*
X147361217Y-132645270D01*
X147357269Y-132646954D01*
X147110260Y-132752312D01*
X147110256Y-132752314D01*
X147106308Y-132753998D01*
X146986228Y-132825865D01*
X146872196Y-132894111D01*
X146872192Y-132894114D01*
X146868514Y-132896315D01*
X146652235Y-133069587D01*
X146461473Y-133270609D01*
X146299757Y-133495660D01*
X146170080Y-133740576D01*
X146153819Y-133785013D01*
X146104089Y-133920908D01*
X146074843Y-134000826D01*
X146015806Y-134271592D01*
X145994063Y-134547866D01*
X146010015Y-134824535D01*
X146010840Y-134828742D01*
X146010841Y-134828747D01*
X146023266Y-134892076D01*
X146063369Y-135096479D01*
X146064756Y-135100530D01*
X146138363Y-135315519D01*
X146153135Y-135358666D01*
X146155061Y-135362495D01*
X146245344Y-135542002D01*
X146277654Y-135606244D01*
X146346996Y-135707137D01*
X146381125Y-135756795D01*
X146434621Y-135834633D01*
X146621132Y-136039605D01*
X146624421Y-136042355D01*
X146779311Y-136171863D01*
X146818740Y-136230904D01*
X146819991Y-136301890D01*
X146777269Y-136366860D01*
X146650882Y-136468115D01*
X146647938Y-136471217D01*
X146647934Y-136471221D01*
X146561866Y-136561918D01*
X146459932Y-136669334D01*
X146298058Y-136894606D01*
X146168254Y-137139763D01*
X146072923Y-137400268D01*
X146013828Y-137671300D01*
X146013492Y-137675570D01*
X145997074Y-137884191D01*
X145992064Y-137947845D01*
X138176000Y-137947845D01*
X138176000Y-125454645D01*
X145788864Y-125454645D01*
X145804832Y-125731586D01*
X145805657Y-125735793D01*
X145805658Y-125735798D01*
X145830215Y-125860964D01*
X145858238Y-126003796D01*
X145859625Y-126007847D01*
X145918601Y-126180102D01*
X145948092Y-126266240D01*
X146072734Y-126514062D01*
X146075160Y-126517591D01*
X146075163Y-126517597D01*
X146225565Y-126736432D01*
X146229855Y-126742674D01*
X146232742Y-126745847D01*
X146232743Y-126745848D01*
X146413668Y-126944683D01*
X146416548Y-126947848D01*
X146484765Y-127004886D01*
X146626068Y-127123034D01*
X146626073Y-127123038D01*
X146629360Y-127125786D01*
X146745117Y-127198400D01*
X146860712Y-127270913D01*
X146860716Y-127270915D01*
X146864352Y-127273196D01*
X146868262Y-127274961D01*
X146868263Y-127274962D01*
X147113263Y-127385584D01*
X147113267Y-127385586D01*
X147117175Y-127387350D01*
X147121294Y-127388570D01*
X147379039Y-127464918D01*
X147379043Y-127464919D01*
X147383152Y-127466136D01*
X147387386Y-127466784D01*
X147387391Y-127466785D01*
X147630450Y-127503978D01*
X147657360Y-127508096D01*
X147798599Y-127510315D01*
X147930435Y-127512386D01*
X147930441Y-127512386D01*
X147934726Y-127512453D01*
X148210117Y-127479127D01*
X148478437Y-127408735D01*
X148734721Y-127302578D01*
X148740210Y-127299371D01*
X148970519Y-127164789D01*
X148970521Y-127164787D01*
X148974227Y-127162622D01*
X149192523Y-126991457D01*
X149220521Y-126962566D01*
X149382587Y-126795326D01*
X149385570Y-126792248D01*
X149388103Y-126788800D01*
X149388107Y-126788795D01*
X149547256Y-126572139D01*
X149549794Y-126568684D01*
X149551840Y-126564916D01*
X149680108Y-126328676D01*
X149680109Y-126328674D01*
X149682158Y-126324900D01*
X149780212Y-126065408D01*
X149826789Y-125862042D01*
X149841183Y-125799193D01*
X149841184Y-125799189D01*
X149842141Y-125795009D01*
X149866801Y-125518707D01*
X149867248Y-125476000D01*
X149848381Y-125199242D01*
X149792127Y-124927606D01*
X149699529Y-124666117D01*
X149693727Y-124654874D01*
X149574265Y-124423421D01*
X149574265Y-124423420D01*
X149572300Y-124419614D01*
X149557051Y-124397916D01*
X149415260Y-124196170D01*
X149415259Y-124196169D01*
X149412793Y-124192660D01*
X149223961Y-123989452D01*
X149080358Y-123871914D01*
X149040312Y-123813289D01*
X149038319Y-123742320D01*
X149065074Y-123698000D01*
X154430685Y-123698000D01*
X154449931Y-124065241D01*
X154450444Y-124068481D01*
X154450445Y-124068489D01*
X154472635Y-124208590D01*
X154507459Y-124428459D01*
X154602639Y-124783674D01*
X154734427Y-125126994D01*
X154735925Y-125129934D01*
X154899198Y-125450374D01*
X154901380Y-125454657D01*
X154903176Y-125457423D01*
X154903178Y-125457426D01*
X155016223Y-125631500D01*
X155101668Y-125763075D01*
X155333098Y-126048867D01*
X155593133Y-126308902D01*
X155878925Y-126540332D01*
X156187342Y-126740620D01*
X156190276Y-126742115D01*
X156190283Y-126742119D01*
X156512066Y-126906075D01*
X156515006Y-126907573D01*
X156858326Y-127039361D01*
X157213541Y-127134541D01*
X157390838Y-127162622D01*
X157573511Y-127191555D01*
X157573519Y-127191556D01*
X157576759Y-127192069D01*
X157944000Y-127211315D01*
X158311241Y-127192069D01*
X158314481Y-127191556D01*
X158314489Y-127191555D01*
X158497162Y-127162622D01*
X158674459Y-127134541D01*
X159029674Y-127039361D01*
X159372994Y-126907573D01*
X159375934Y-126906075D01*
X159697717Y-126742119D01*
X159697724Y-126742115D01*
X159700658Y-126740620D01*
X160009075Y-126540332D01*
X160294867Y-126308902D01*
X160554902Y-126048867D01*
X160786332Y-125763075D01*
X160871777Y-125631500D01*
X160984822Y-125457426D01*
X160984824Y-125457423D01*
X160986620Y-125454657D01*
X160988803Y-125450374D01*
X161152075Y-125129934D01*
X161153573Y-125126994D01*
X161285361Y-124783674D01*
X161380541Y-124428459D01*
X161415365Y-124208590D01*
X161437555Y-124068489D01*
X161437556Y-124068481D01*
X161438069Y-124065241D01*
X161457315Y-123698000D01*
X161438069Y-123330759D01*
X161380541Y-122967541D01*
X161285361Y-122612326D01*
X161153573Y-122269006D01*
X161056497Y-122078484D01*
X160988119Y-121944284D01*
X160988115Y-121944277D01*
X160986620Y-121941343D01*
X160928682Y-121852125D01*
X160788134Y-121635700D01*
X160786332Y-121632925D01*
X160554902Y-121347133D01*
X160294867Y-121087098D01*
X160009075Y-120855668D01*
X159883756Y-120774285D01*
X159703427Y-120657178D01*
X159703424Y-120657176D01*
X159700658Y-120655380D01*
X159697724Y-120653885D01*
X159697717Y-120653881D01*
X159375934Y-120489925D01*
X159372994Y-120488427D01*
X159090365Y-120379936D01*
X159032764Y-120357825D01*
X159032762Y-120357824D01*
X159029674Y-120356639D01*
X158674459Y-120261459D01*
X158481442Y-120230888D01*
X158314489Y-120204445D01*
X158314481Y-120204444D01*
X158311241Y-120203931D01*
X157944000Y-120184685D01*
X157576759Y-120203931D01*
X157573519Y-120204444D01*
X157573511Y-120204445D01*
X157406558Y-120230888D01*
X157213541Y-120261459D01*
X156858326Y-120356639D01*
X156855238Y-120357824D01*
X156855236Y-120357825D01*
X156797635Y-120379936D01*
X156515006Y-120488427D01*
X156512066Y-120489925D01*
X156190284Y-120653881D01*
X156190277Y-120653885D01*
X156187343Y-120655380D01*
X156184577Y-120657176D01*
X156184574Y-120657178D01*
X156074048Y-120728954D01*
X155878925Y-120855668D01*
X155593133Y-121087098D01*
X155333098Y-121347133D01*
X155101668Y-121632925D01*
X155099866Y-121635700D01*
X154959319Y-121852125D01*
X154901380Y-121941343D01*
X154899885Y-121944277D01*
X154899881Y-121944284D01*
X154831503Y-122078484D01*
X154734427Y-122269006D01*
X154602639Y-122612326D01*
X154507459Y-122967541D01*
X154449931Y-123330759D01*
X154430685Y-123698000D01*
X149065074Y-123698000D01*
X149075010Y-123681540D01*
X149082406Y-123675266D01*
X149191186Y-123589971D01*
X149211315Y-123569200D01*
X149381060Y-123394036D01*
X149384043Y-123390958D01*
X149386576Y-123387510D01*
X149386580Y-123387505D01*
X149545568Y-123171068D01*
X149548106Y-123167613D01*
X149659808Y-122961884D01*
X149678290Y-122927844D01*
X149678291Y-122927842D01*
X149680340Y-122924068D01*
X149778298Y-122664830D01*
X149825529Y-122458608D01*
X149839210Y-122398876D01*
X149839211Y-122398871D01*
X149840167Y-122394696D01*
X149864802Y-122118665D01*
X149865249Y-122076000D01*
X149863787Y-122054560D01*
X149846692Y-121803791D01*
X149846691Y-121803785D01*
X149846400Y-121799514D01*
X149790202Y-121528143D01*
X149697695Y-121266911D01*
X149570590Y-121020650D01*
X149566894Y-121015390D01*
X149413707Y-120797428D01*
X149413706Y-120797427D01*
X149411240Y-120793918D01*
X149222593Y-120590909D01*
X149216425Y-120585860D01*
X149011458Y-120418098D01*
X149008140Y-120415382D01*
X148771849Y-120270583D01*
X148767932Y-120268864D01*
X148767929Y-120268862D01*
X148620011Y-120203931D01*
X148518093Y-120159192D01*
X148513965Y-120158016D01*
X148513962Y-120158015D01*
X148423137Y-120132143D01*
X148251568Y-120083270D01*
X148247326Y-120082666D01*
X148247320Y-120082665D01*
X147981455Y-120044827D01*
X147977204Y-120044222D01*
X147831115Y-120043457D01*
X147704366Y-120042793D01*
X147704360Y-120042793D01*
X147700080Y-120042771D01*
X147695835Y-120043330D01*
X147695833Y-120043330D01*
X147684463Y-120044827D01*
X147425323Y-120078944D01*
X147158017Y-120152070D01*
X147154069Y-120153754D01*
X146907060Y-120259112D01*
X146907056Y-120259114D01*
X146903108Y-120260798D01*
X146883021Y-120272820D01*
X146668996Y-120400911D01*
X146668992Y-120400914D01*
X146665314Y-120403115D01*
X146513075Y-120525081D01*
X146457839Y-120569334D01*
X146449035Y-120576387D01*
X146258273Y-120777409D01*
X146096557Y-121002460D01*
X145966880Y-121247376D01*
X145871643Y-121507626D01*
X145812606Y-121778392D01*
X145812270Y-121782662D01*
X145800000Y-121938574D01*
X145790863Y-122054666D01*
X145806815Y-122331335D01*
X145807640Y-122335542D01*
X145807641Y-122335547D01*
X145840459Y-122502818D01*
X145860169Y-122603279D01*
X145861556Y-122607330D01*
X145941902Y-122842002D01*
X145949935Y-122865466D01*
X146074454Y-123113044D01*
X146137825Y-123205249D01*
X146221853Y-123327511D01*
X146231421Y-123341433D01*
X146417932Y-123546405D01*
X146492848Y-123609044D01*
X146576111Y-123678663D01*
X146615540Y-123737704D01*
X146616791Y-123808690D01*
X146574069Y-123873660D01*
X146447682Y-123974915D01*
X146444738Y-123978017D01*
X146444734Y-123978021D01*
X146358883Y-124068489D01*
X146256732Y-124176134D01*
X146094858Y-124401406D01*
X145965054Y-124646563D01*
X145869723Y-124907068D01*
X145810628Y-125178100D01*
X145788864Y-125454645D01*
X138176000Y-125454645D01*
X138176000Y-109120144D01*
X144518062Y-109120144D01*
X144521674Y-109212078D01*
X144532574Y-109489484D01*
X144532741Y-109493742D01*
X144533229Y-109497066D01*
X144561655Y-109690732D01*
X144587037Y-109863665D01*
X144587871Y-109866903D01*
X144587873Y-109866911D01*
X144679497Y-110222478D01*
X144679500Y-110222488D01*
X144680334Y-110225724D01*
X144811578Y-110575819D01*
X144813086Y-110578823D01*
X144813086Y-110578824D01*
X144971313Y-110894108D01*
X144979280Y-110909984D01*
X144981092Y-110912801D01*
X145165971Y-111200228D01*
X145181543Y-111224438D01*
X145416076Y-111515616D01*
X145420169Y-111519938D01*
X145993380Y-112093149D01*
X146027406Y-112155461D01*
X146027393Y-112209086D01*
X146013828Y-112271300D01*
X146013492Y-112275570D01*
X146001084Y-112433238D01*
X145992064Y-112547845D01*
X146008032Y-112824786D01*
X146008857Y-112828993D01*
X146008858Y-112828998D01*
X146025225Y-112912420D01*
X146061438Y-113096996D01*
X146062825Y-113101047D01*
X146148936Y-113352558D01*
X146151292Y-113359440D01*
X146153218Y-113363269D01*
X146266314Y-113588134D01*
X146275934Y-113607262D01*
X146278360Y-113610791D01*
X146278363Y-113610797D01*
X146400234Y-113788119D01*
X146433055Y-113835874D01*
X146435942Y-113839047D01*
X146435943Y-113839048D01*
X146489639Y-113898059D01*
X146619748Y-114041048D01*
X146675310Y-114087505D01*
X146829268Y-114216234D01*
X146829273Y-114216238D01*
X146832560Y-114218986D01*
X146891757Y-114256120D01*
X147063912Y-114364113D01*
X147063916Y-114364115D01*
X147067552Y-114366396D01*
X147071462Y-114368161D01*
X147071463Y-114368162D01*
X147316463Y-114478784D01*
X147316467Y-114478786D01*
X147320375Y-114480550D01*
X147324494Y-114481770D01*
X147582239Y-114558118D01*
X147582243Y-114558119D01*
X147586352Y-114559336D01*
X147590586Y-114559984D01*
X147590591Y-114559985D01*
X147833650Y-114597178D01*
X147860560Y-114601296D01*
X148001799Y-114603515D01*
X148133635Y-114605586D01*
X148133641Y-114605586D01*
X148137926Y-114605653D01*
X148413317Y-114572327D01*
X148681637Y-114501935D01*
X148937921Y-114395778D01*
X148941623Y-114393615D01*
X149031020Y-114341376D01*
X149099927Y-114324277D01*
X149121323Y-114327033D01*
X149166179Y-114336772D01*
X149166189Y-114336774D01*
X149169461Y-114337484D01*
X149172781Y-114337842D01*
X149172807Y-114337846D01*
X149188092Y-114339493D01*
X149199598Y-114341274D01*
X149214640Y-114344320D01*
X149214646Y-114344321D01*
X149217940Y-114344988D01*
X149378763Y-114360049D01*
X149380425Y-114360216D01*
X149471068Y-114369983D01*
X149538677Y-114377268D01*
X149538685Y-114377269D01*
X149541195Y-114377539D01*
X149543718Y-114377607D01*
X149543729Y-114377608D01*
X149545664Y-114377660D01*
X149547145Y-114377700D01*
X149561363Y-114377700D01*
X149573112Y-114378249D01*
X149590197Y-114379849D01*
X149593562Y-114379805D01*
X149593563Y-114379805D01*
X149753520Y-114377711D01*
X149755169Y-114377700D01*
X158008030Y-114377700D01*
X158014624Y-114377873D01*
X158103200Y-114382515D01*
X158193533Y-114377781D01*
X158195572Y-114377700D01*
X158196661Y-114377700D01*
X158198327Y-114377611D01*
X158198336Y-114377611D01*
X158291306Y-114372657D01*
X158291307Y-114372678D01*
X158291415Y-114372651D01*
X158384417Y-114367777D01*
X158467392Y-114363429D01*
X158467400Y-114363428D01*
X158470441Y-114363269D01*
X158471463Y-114363107D01*
X158473056Y-114362981D01*
X158473217Y-114362964D01*
X158476557Y-114362786D01*
X158479856Y-114362255D01*
X158479862Y-114362254D01*
X158657335Y-114333668D01*
X158657661Y-114333616D01*
X158830401Y-114306257D01*
X158833659Y-114305741D01*
X158836689Y-114304929D01*
X158842244Y-114303892D01*
X158842369Y-114303865D01*
X158845685Y-114303331D01*
X159018890Y-114256109D01*
X159019382Y-114255976D01*
X159027753Y-114253733D01*
X159188874Y-114210561D01*
X159191964Y-114209375D01*
X159195090Y-114208359D01*
X159195119Y-114208447D01*
X159202113Y-114206157D01*
X159206406Y-114204987D01*
X159370626Y-114140795D01*
X159371344Y-114140517D01*
X159529112Y-114079956D01*
X159529111Y-114079956D01*
X159532194Y-114078773D01*
X159536207Y-114076728D01*
X159547521Y-114071650D01*
X159551503Y-114070094D01*
X159551521Y-114070086D01*
X159554634Y-114068869D01*
X159708279Y-113989056D01*
X159709056Y-113988657D01*
X159856913Y-113913321D01*
X159856920Y-113913317D01*
X159859858Y-113911820D01*
X159862627Y-113910022D01*
X159862632Y-113910019D01*
X159866294Y-113907641D01*
X159876824Y-113901505D01*
X159886426Y-113896517D01*
X159889214Y-113894668D01*
X159889221Y-113894664D01*
X160027921Y-113802685D01*
X160028933Y-113802021D01*
X160050341Y-113788119D01*
X160168275Y-113711532D01*
X160176719Y-113704694D01*
X160186369Y-113697612D01*
X160195232Y-113691735D01*
X160195238Y-113691730D01*
X160198024Y-113689883D01*
X160200600Y-113687748D01*
X160200611Y-113687740D01*
X160326306Y-113583571D01*
X160327412Y-113582665D01*
X160451492Y-113482187D01*
X160454067Y-113480102D01*
X160463985Y-113470184D01*
X160472680Y-113462265D01*
X160483314Y-113453452D01*
X160483323Y-113453443D01*
X160485900Y-113451308D01*
X160599931Y-113334252D01*
X160601090Y-113333079D01*
X160714102Y-113220067D01*
X160724932Y-113206693D01*
X160732596Y-113198069D01*
X160744447Y-113185903D01*
X160744454Y-113185895D01*
X160746795Y-113183492D01*
X160811556Y-113101047D01*
X160845724Y-113057550D01*
X160846890Y-113056089D01*
X160943447Y-112936851D01*
X160943456Y-112936839D01*
X160945532Y-112934275D01*
X160956643Y-112917166D01*
X160963218Y-112907973D01*
X160977753Y-112889469D01*
X160979532Y-112886628D01*
X160979538Y-112886619D01*
X161061073Y-112756387D01*
X161062170Y-112754666D01*
X161145820Y-112625857D01*
X161156520Y-112604857D01*
X161161979Y-112595217D01*
X161176159Y-112572569D01*
X161243439Y-112434317D01*
X161244468Y-112432250D01*
X161311275Y-112301134D01*
X161312773Y-112298194D01*
X161322362Y-112273214D01*
X161326692Y-112263245D01*
X161338300Y-112239392D01*
X161338302Y-112239388D01*
X161339766Y-112236379D01*
X161340899Y-112233240D01*
X161340903Y-112233231D01*
X161390904Y-112094725D01*
X161391787Y-112092354D01*
X161443376Y-111957962D01*
X161443378Y-111957956D01*
X161444561Y-111954874D01*
X161452310Y-111925955D01*
X161455489Y-111915826D01*
X161466723Y-111884707D01*
X161480190Y-111829674D01*
X161501757Y-111741535D01*
X161502439Y-111738872D01*
X161511178Y-111706256D01*
X161539741Y-111599659D01*
X161544922Y-111566951D01*
X161546976Y-111556738D01*
X161555590Y-111521536D01*
X161574791Y-111378584D01*
X161575221Y-111375646D01*
X161596755Y-111239689D01*
X161596756Y-111239681D01*
X161597269Y-111236441D01*
X161599167Y-111200228D01*
X161600115Y-111190050D01*
X161604918Y-111154289D01*
X161605363Y-111150977D01*
X161609180Y-111009914D01*
X161609306Y-111006754D01*
X161614537Y-110906952D01*
X161616515Y-110869200D01*
X161614451Y-110829807D01*
X161614324Y-110819811D01*
X161615385Y-110780583D01*
X161615476Y-110777228D01*
X161613095Y-110747301D01*
X161604537Y-110639766D01*
X161604313Y-110636365D01*
X161597441Y-110505249D01*
X161597269Y-110501959D01*
X161596755Y-110498714D01*
X161596754Y-110498704D01*
X161590601Y-110459853D01*
X161589447Y-110450141D01*
X161586081Y-110407850D01*
X161585816Y-110404520D01*
X161560923Y-110272142D01*
X161560304Y-110268567D01*
X161540258Y-110142002D01*
X161540256Y-110141993D01*
X161539741Y-110138741D01*
X161538885Y-110135546D01*
X161527883Y-110094483D01*
X161525761Y-110085161D01*
X161517338Y-110040372D01*
X161516718Y-110037074D01*
X161478810Y-109911117D01*
X161477767Y-109907451D01*
X161445416Y-109786717D01*
X161444561Y-109783526D01*
X161443378Y-109780444D01*
X161443374Y-109780432D01*
X161427011Y-109737807D01*
X161423995Y-109728989D01*
X161408966Y-109679051D01*
X161359107Y-109560732D01*
X161357603Y-109556993D01*
X161334599Y-109497066D01*
X161312773Y-109440206D01*
X161289090Y-109393725D01*
X161285253Y-109385468D01*
X161282311Y-109378485D01*
X161263778Y-109334506D01*
X161203195Y-109224986D01*
X161201183Y-109221199D01*
X161147319Y-109115484D01*
X161147315Y-109115477D01*
X161145820Y-109112543D01*
X161137183Y-109099242D01*
X161125283Y-109080919D01*
X161115685Y-109066139D01*
X161111117Y-109058529D01*
X161082800Y-109007339D01*
X161012742Y-108907472D01*
X161010219Y-108903735D01*
X160947329Y-108806892D01*
X160947328Y-108806891D01*
X160945532Y-108804125D01*
X160908709Y-108758652D01*
X160903480Y-108751719D01*
X160870003Y-108703998D01*
X160870002Y-108703996D01*
X160868080Y-108701257D01*
X160789882Y-108611775D01*
X160786880Y-108608207D01*
X160714102Y-108518333D01*
X160670498Y-108474729D01*
X160664716Y-108468546D01*
X160624260Y-108422252D01*
X160622051Y-108419724D01*
X160581388Y-108382135D01*
X160537116Y-108341211D01*
X160533550Y-108337781D01*
X160454067Y-108258298D01*
X160403668Y-108217485D01*
X160397437Y-108212093D01*
X160349960Y-108168205D01*
X160349951Y-108168198D01*
X160347498Y-108165930D01*
X160257252Y-108098785D01*
X160253209Y-108095647D01*
X160168275Y-108026868D01*
X160111207Y-107989807D01*
X160104636Y-107985236D01*
X160047530Y-107942748D01*
X159953415Y-107887199D01*
X159948841Y-107884366D01*
X159943239Y-107880728D01*
X159859858Y-107826580D01*
X159796418Y-107794256D01*
X159789606Y-107790516D01*
X159725545Y-107752705D01*
X159693051Y-107737931D01*
X159628941Y-107708782D01*
X159623889Y-107706348D01*
X159535129Y-107661122D01*
X159535122Y-107661119D01*
X159532194Y-107659627D01*
X159529122Y-107658448D01*
X159529118Y-107658446D01*
X159498489Y-107646689D01*
X159462754Y-107632971D01*
X159455784Y-107630052D01*
X159385187Y-107597954D01*
X159287463Y-107565540D01*
X159282019Y-107563594D01*
X159188874Y-107527839D01*
X159113940Y-107507760D01*
X159106951Y-107505666D01*
X159030313Y-107480247D01*
X158932805Y-107459076D01*
X158926950Y-107457657D01*
X158833659Y-107432659D01*
X158830414Y-107432145D01*
X158830409Y-107432144D01*
X158753939Y-107420033D01*
X158746914Y-107418715D01*
X158668219Y-107401628D01*
X158668216Y-107401627D01*
X158664939Y-107400916D01*
X158568902Y-107390568D01*
X158562691Y-107389742D01*
X158473689Y-107375645D01*
X158473681Y-107375644D01*
X158470441Y-107375131D01*
X158386679Y-107370742D01*
X158379785Y-107370190D01*
X158347338Y-107366694D01*
X158295722Y-107361132D01*
X158295717Y-107361132D01*
X158293205Y-107360861D01*
X158290685Y-107360793D01*
X158290673Y-107360792D01*
X158288685Y-107360739D01*
X158287255Y-107360700D01*
X158198370Y-107360700D01*
X158191776Y-107360527D01*
X158106501Y-107356058D01*
X158103200Y-107355885D01*
X158099899Y-107356058D01*
X158014624Y-107360527D01*
X158008030Y-107360700D01*
X151236658Y-107360700D01*
X151168537Y-107340698D01*
X151147563Y-107323795D01*
X150445997Y-106622229D01*
X150237535Y-106434858D01*
X149934481Y-106215887D01*
X149609873Y-106030358D01*
X149267389Y-105880374D01*
X148910905Y-105767632D01*
X148741226Y-105733265D01*
X148547759Y-105694080D01*
X148547756Y-105694080D01*
X148544460Y-105693412D01*
X148541121Y-105693099D01*
X148541112Y-105693098D01*
X148279848Y-105668632D01*
X148172203Y-105658551D01*
X148168837Y-105658595D01*
X148168836Y-105658595D01*
X147801697Y-105663400D01*
X147801694Y-105663400D01*
X147798348Y-105663444D01*
X147427130Y-105708038D01*
X147423860Y-105708790D01*
X147423854Y-105708791D01*
X147066037Y-105791071D01*
X147062754Y-105791826D01*
X146709344Y-105913861D01*
X146370902Y-106072758D01*
X146368043Y-106074493D01*
X146368039Y-106074495D01*
X146137775Y-106214223D01*
X146051263Y-106266720D01*
X145754043Y-106493550D01*
X145482612Y-106750680D01*
X145240040Y-107035197D01*
X145029076Y-107343880D01*
X145027483Y-107346845D01*
X145027481Y-107346848D01*
X144996866Y-107403825D01*
X144852108Y-107673233D01*
X144850843Y-107676341D01*
X144850840Y-107676347D01*
X144790293Y-107825085D01*
X144711141Y-108019526D01*
X144709029Y-108026868D01*
X144619074Y-108339548D01*
X144607770Y-108378839D01*
X144604811Y-108395708D01*
X144550729Y-108703998D01*
X144543167Y-108747102D01*
X144542943Y-108750433D01*
X144542942Y-108750440D01*
X144518287Y-109116798D01*
X144518062Y-109120144D01*
X138176000Y-109120144D01*
X138176000Y-99722645D01*
X146042864Y-99722645D01*
X146058832Y-99999586D01*
X146059657Y-100003793D01*
X146059658Y-100003798D01*
X146070180Y-100057426D01*
X146112238Y-100271796D01*
X146113625Y-100275847D01*
X146197240Y-100520067D01*
X146202092Y-100534240D01*
X146326734Y-100782062D01*
X146329160Y-100785591D01*
X146329163Y-100785597D01*
X146481424Y-101007137D01*
X146483855Y-101010674D01*
X146486742Y-101013847D01*
X146486743Y-101013848D01*
X146599936Y-101138246D01*
X146670548Y-101215848D01*
X146753473Y-101285184D01*
X146880068Y-101391034D01*
X146880073Y-101391038D01*
X146883360Y-101393786D01*
X146945536Y-101432789D01*
X147114712Y-101538913D01*
X147114716Y-101538915D01*
X147118352Y-101541196D01*
X147122262Y-101542961D01*
X147122263Y-101542962D01*
X147367263Y-101653584D01*
X147367267Y-101653586D01*
X147371175Y-101655350D01*
X147397909Y-101663269D01*
X147633039Y-101732918D01*
X147633043Y-101732919D01*
X147637152Y-101734136D01*
X147641386Y-101734784D01*
X147641391Y-101734785D01*
X147884450Y-101771978D01*
X147911360Y-101776096D01*
X148052599Y-101778315D01*
X148184435Y-101780386D01*
X148184441Y-101780386D01*
X148188726Y-101780453D01*
X148464117Y-101747127D01*
X148732437Y-101676735D01*
X148988721Y-101570578D01*
X148995488Y-101566624D01*
X149224519Y-101432789D01*
X149224521Y-101432787D01*
X149228227Y-101430622D01*
X149446523Y-101259457D01*
X149490182Y-101214405D01*
X149636587Y-101063326D01*
X149639570Y-101060248D01*
X149642103Y-101056800D01*
X149642107Y-101056795D01*
X149801256Y-100840139D01*
X149803794Y-100836684D01*
X149805840Y-100832916D01*
X149934108Y-100596676D01*
X149934109Y-100596674D01*
X149936158Y-100592900D01*
X149985185Y-100463154D01*
X150032694Y-100337426D01*
X150032695Y-100337422D01*
X150034212Y-100333408D01*
X150096141Y-100063009D01*
X150096551Y-100058422D01*
X150120581Y-99789171D01*
X150120801Y-99786707D01*
X150121248Y-99744000D01*
X150120086Y-99726946D01*
X150116150Y-99669224D01*
X150102381Y-99467242D01*
X150098948Y-99450662D01*
X150046997Y-99199808D01*
X150046127Y-99195606D01*
X149988067Y-99031648D01*
X149954960Y-98938158D01*
X149953529Y-98934117D01*
X149943857Y-98915376D01*
X149828265Y-98691421D01*
X149828265Y-98691420D01*
X149826300Y-98687614D01*
X149823332Y-98683390D01*
X149669260Y-98464170D01*
X149669259Y-98464169D01*
X149666793Y-98460660D01*
X149515640Y-98298000D01*
X154430685Y-98298000D01*
X154449931Y-98665241D01*
X154450444Y-98668481D01*
X154450445Y-98668489D01*
X154476888Y-98835442D01*
X154507459Y-99028459D01*
X154602639Y-99383674D01*
X154734427Y-99726994D01*
X154735925Y-99729934D01*
X154873841Y-100000608D01*
X154901380Y-100054657D01*
X154903176Y-100057423D01*
X154903178Y-100057426D01*
X154906804Y-100063009D01*
X155101668Y-100363075D01*
X155333098Y-100648867D01*
X155593133Y-100908902D01*
X155878925Y-101140332D01*
X155881700Y-101142134D01*
X156055325Y-101254887D01*
X156187342Y-101340620D01*
X156190276Y-101342115D01*
X156190283Y-101342119D01*
X156512066Y-101506075D01*
X156515006Y-101507573D01*
X156858326Y-101639361D01*
X157213541Y-101734541D01*
X157406558Y-101765112D01*
X157573511Y-101791555D01*
X157573519Y-101791556D01*
X157576759Y-101792069D01*
X157944000Y-101811315D01*
X158311241Y-101792069D01*
X158314481Y-101791556D01*
X158314489Y-101791555D01*
X158481442Y-101765112D01*
X158674459Y-101734541D01*
X159029674Y-101639361D01*
X159372994Y-101507573D01*
X159375934Y-101506075D01*
X159697717Y-101342119D01*
X159697724Y-101342115D01*
X159700658Y-101340620D01*
X159832676Y-101254887D01*
X160006300Y-101142134D01*
X160009075Y-101140332D01*
X160294867Y-100908902D01*
X160554902Y-100648867D01*
X160786332Y-100363075D01*
X160981196Y-100063009D01*
X160984822Y-100057426D01*
X160984824Y-100057423D01*
X160986620Y-100054657D01*
X161014160Y-100000608D01*
X161152075Y-99729934D01*
X161153573Y-99726994D01*
X161285361Y-99383674D01*
X161380541Y-99028459D01*
X161411112Y-98835442D01*
X161437555Y-98668489D01*
X161437556Y-98668481D01*
X161438069Y-98665241D01*
X161457315Y-98298000D01*
X161438069Y-97930759D01*
X161426960Y-97860616D01*
X161395712Y-97663326D01*
X161380541Y-97567541D01*
X161285361Y-97212326D01*
X161256857Y-97138069D01*
X161179199Y-96935764D01*
X161153573Y-96869006D01*
X161050744Y-96667193D01*
X160988119Y-96544284D01*
X160988115Y-96544277D01*
X160986620Y-96541343D01*
X160786332Y-96232925D01*
X160554902Y-95947133D01*
X160294867Y-95687098D01*
X160009075Y-95455668D01*
X159757752Y-95292457D01*
X159703427Y-95257178D01*
X159703424Y-95257176D01*
X159700658Y-95255380D01*
X159697724Y-95253885D01*
X159697717Y-95253881D01*
X159375934Y-95089925D01*
X159372994Y-95088427D01*
X159163218Y-95007902D01*
X159032764Y-94957825D01*
X159032762Y-94957824D01*
X159029674Y-94956639D01*
X158674459Y-94861459D01*
X158481442Y-94830888D01*
X158314489Y-94804445D01*
X158314481Y-94804444D01*
X158311241Y-94803931D01*
X157944000Y-94784685D01*
X157576759Y-94803931D01*
X157573519Y-94804444D01*
X157573511Y-94804445D01*
X157406558Y-94830888D01*
X157213541Y-94861459D01*
X156858326Y-94956639D01*
X156855238Y-94957824D01*
X156855236Y-94957825D01*
X156724782Y-95007902D01*
X156515006Y-95088427D01*
X156512066Y-95089925D01*
X156190284Y-95253881D01*
X156190277Y-95253885D01*
X156187343Y-95255380D01*
X156184577Y-95257176D01*
X156184574Y-95257178D01*
X156074048Y-95328954D01*
X155878925Y-95455668D01*
X155593133Y-95687098D01*
X155333098Y-95947133D01*
X155101668Y-96232925D01*
X154901380Y-96541343D01*
X154899885Y-96544277D01*
X154899881Y-96544284D01*
X154837256Y-96667193D01*
X154734427Y-96869006D01*
X154708801Y-96935764D01*
X154631144Y-97138069D01*
X154602639Y-97212326D01*
X154507459Y-97567541D01*
X154492288Y-97663326D01*
X154461041Y-97860616D01*
X154449931Y-97930759D01*
X154430685Y-98298000D01*
X149515640Y-98298000D01*
X149477961Y-98257452D01*
X149334358Y-98139914D01*
X149294312Y-98081289D01*
X149292319Y-98010320D01*
X149329010Y-97949540D01*
X149336406Y-97943266D01*
X149445186Y-97857971D01*
X149484740Y-97817155D01*
X149635060Y-97662036D01*
X149638043Y-97658958D01*
X149640576Y-97655510D01*
X149640580Y-97655505D01*
X149799568Y-97439068D01*
X149802106Y-97435613D01*
X149828929Y-97386212D01*
X149932290Y-97195844D01*
X149932291Y-97195842D01*
X149934340Y-97192068D01*
X150032298Y-96932830D01*
X150094167Y-96662696D01*
X150118802Y-96386665D01*
X150119249Y-96344000D01*
X150117787Y-96322560D01*
X150100692Y-96071791D01*
X150100691Y-96071785D01*
X150100400Y-96067514D01*
X150095966Y-96046100D01*
X150072301Y-95931829D01*
X150044202Y-95796143D01*
X149951695Y-95534911D01*
X149909864Y-95453866D01*
X149826555Y-95292457D01*
X149826555Y-95292456D01*
X149824590Y-95288650D01*
X149820894Y-95283390D01*
X149667707Y-95065428D01*
X149667706Y-95065427D01*
X149665240Y-95061918D01*
X149476593Y-94858909D01*
X149455572Y-94841703D01*
X149369367Y-94771146D01*
X149262140Y-94683382D01*
X149025849Y-94538583D01*
X149021932Y-94536864D01*
X149021929Y-94536862D01*
X148910346Y-94487881D01*
X148772093Y-94427192D01*
X148767965Y-94426016D01*
X148767962Y-94426015D01*
X148685917Y-94402644D01*
X148505568Y-94351270D01*
X148501326Y-94350666D01*
X148501320Y-94350665D01*
X148235455Y-94312827D01*
X148231204Y-94312222D01*
X148085115Y-94311457D01*
X147958366Y-94310793D01*
X147958360Y-94310793D01*
X147954080Y-94310771D01*
X147949835Y-94311330D01*
X147949833Y-94311330D01*
X147938463Y-94312827D01*
X147679323Y-94346944D01*
X147412017Y-94420070D01*
X147408069Y-94421754D01*
X147161060Y-94527112D01*
X147161056Y-94527114D01*
X147157108Y-94528798D01*
X147139982Y-94539048D01*
X146922996Y-94668911D01*
X146922992Y-94668914D01*
X146919314Y-94671115D01*
X146753747Y-94803759D01*
X146724758Y-94826984D01*
X146703035Y-94844387D01*
X146512273Y-95045409D01*
X146350557Y-95270460D01*
X146220880Y-95515376D01*
X146205936Y-95556213D01*
X146157182Y-95689442D01*
X146125643Y-95775626D01*
X146066606Y-96046392D01*
X146044863Y-96322666D01*
X146060815Y-96599335D01*
X146061640Y-96603542D01*
X146061641Y-96603547D01*
X146074066Y-96666876D01*
X146114169Y-96871279D01*
X146203935Y-97133466D01*
X146328454Y-97381044D01*
X146364105Y-97432916D01*
X146458871Y-97570802D01*
X146485421Y-97609433D01*
X146671932Y-97814405D01*
X146815025Y-97934049D01*
X146830111Y-97946663D01*
X146869540Y-98005704D01*
X146870791Y-98076690D01*
X146828069Y-98141660D01*
X146701682Y-98242915D01*
X146698738Y-98246017D01*
X146698734Y-98246021D01*
X146513682Y-98441025D01*
X146510732Y-98444134D01*
X146348858Y-98669406D01*
X146219054Y-98914563D01*
X146123723Y-99175068D01*
X146064628Y-99446100D01*
X146042864Y-99722645D01*
X138176000Y-99722645D01*
X138176000Y-83720144D01*
X144890562Y-83720144D01*
X144894533Y-83821199D01*
X144905074Y-84089484D01*
X144905241Y-84093742D01*
X144916288Y-84169006D01*
X144941914Y-84343595D01*
X144959537Y-84463665D01*
X144960371Y-84466903D01*
X144960373Y-84466911D01*
X145051997Y-84822478D01*
X145052000Y-84822488D01*
X145052834Y-84825724D01*
X145184078Y-85175819D01*
X145185586Y-85178823D01*
X145185586Y-85178824D01*
X145350093Y-85506622D01*
X145351780Y-85509984D01*
X145358461Y-85520371D01*
X145538471Y-85800228D01*
X145554043Y-85824438D01*
X145788576Y-86115616D01*
X145792669Y-86119938D01*
X146365880Y-86693149D01*
X146399906Y-86755461D01*
X146399893Y-86809086D01*
X146386328Y-86871300D01*
X146385992Y-86875570D01*
X146373584Y-87033238D01*
X146364564Y-87147845D01*
X146380532Y-87424786D01*
X146381357Y-87428993D01*
X146381358Y-87428998D01*
X146414278Y-87596791D01*
X146433938Y-87696996D01*
X146435325Y-87701047D01*
X146520975Y-87951211D01*
X146523792Y-87959440D01*
X146525718Y-87963269D01*
X146636519Y-88183571D01*
X146648434Y-88207262D01*
X146650860Y-88210791D01*
X146650863Y-88210797D01*
X146721335Y-88313334D01*
X146805555Y-88435874D01*
X146808442Y-88439047D01*
X146808443Y-88439048D01*
X146862139Y-88498059D01*
X146992248Y-88641048D01*
X147060043Y-88697733D01*
X147201768Y-88816234D01*
X147201773Y-88816238D01*
X147205060Y-88818986D01*
X147283465Y-88868169D01*
X147436412Y-88964113D01*
X147436416Y-88964115D01*
X147440052Y-88966396D01*
X147443962Y-88968161D01*
X147443963Y-88968162D01*
X147688963Y-89078784D01*
X147688967Y-89078786D01*
X147692875Y-89080550D01*
X147732343Y-89092241D01*
X147954739Y-89158118D01*
X147954743Y-89158119D01*
X147958852Y-89159336D01*
X147963086Y-89159984D01*
X147963091Y-89159985D01*
X148206150Y-89197178D01*
X148233060Y-89201296D01*
X148374299Y-89203515D01*
X148506135Y-89205586D01*
X148506141Y-89205586D01*
X148510426Y-89205653D01*
X148785817Y-89172327D01*
X149054137Y-89101935D01*
X149310421Y-88995778D01*
X149314123Y-88993615D01*
X149403520Y-88941376D01*
X149472427Y-88924277D01*
X149493823Y-88927033D01*
X149538679Y-88936772D01*
X149538689Y-88936774D01*
X149541961Y-88937484D01*
X149545281Y-88937842D01*
X149545307Y-88937846D01*
X149560592Y-88939493D01*
X149572098Y-88941274D01*
X149587140Y-88944320D01*
X149587146Y-88944321D01*
X149590440Y-88944988D01*
X149751263Y-88960049D01*
X149752925Y-88960216D01*
X149843568Y-88969983D01*
X149911177Y-88977268D01*
X149911185Y-88977269D01*
X149913695Y-88977539D01*
X149916218Y-88977607D01*
X149916229Y-88977608D01*
X149918164Y-88977660D01*
X149919645Y-88977700D01*
X149933863Y-88977700D01*
X149945612Y-88978249D01*
X149962697Y-88979849D01*
X149966062Y-88979805D01*
X149966063Y-88979805D01*
X150126020Y-88977711D01*
X150127669Y-88977700D01*
X158008030Y-88977700D01*
X158014624Y-88977873D01*
X158103200Y-88982515D01*
X158193533Y-88977781D01*
X158195572Y-88977700D01*
X158196661Y-88977700D01*
X158198327Y-88977611D01*
X158198336Y-88977611D01*
X158291306Y-88972657D01*
X158291307Y-88972678D01*
X158291415Y-88972651D01*
X158384417Y-88967777D01*
X158467392Y-88963429D01*
X158467400Y-88963428D01*
X158470441Y-88963269D01*
X158471463Y-88963107D01*
X158473056Y-88962981D01*
X158473217Y-88962964D01*
X158476557Y-88962786D01*
X158479856Y-88962255D01*
X158479862Y-88962254D01*
X158657335Y-88933668D01*
X158657661Y-88933616D01*
X158830401Y-88906257D01*
X158833659Y-88905741D01*
X158836689Y-88904929D01*
X158842244Y-88903892D01*
X158842369Y-88903865D01*
X158845685Y-88903331D01*
X159018890Y-88856109D01*
X159019382Y-88855976D01*
X159019957Y-88855822D01*
X159188874Y-88810561D01*
X159191964Y-88809375D01*
X159195090Y-88808359D01*
X159195119Y-88808447D01*
X159202113Y-88806157D01*
X159206406Y-88804987D01*
X159370626Y-88740795D01*
X159371344Y-88740517D01*
X159529112Y-88679956D01*
X159529111Y-88679956D01*
X159532194Y-88678773D01*
X159536207Y-88676728D01*
X159547521Y-88671650D01*
X159551503Y-88670094D01*
X159551521Y-88670086D01*
X159554634Y-88668869D01*
X159708279Y-88589056D01*
X159709056Y-88588657D01*
X159856913Y-88513321D01*
X159856920Y-88513317D01*
X159859858Y-88511820D01*
X159862627Y-88510022D01*
X159862632Y-88510019D01*
X159866294Y-88507641D01*
X159876824Y-88501505D01*
X159886426Y-88496517D01*
X159889214Y-88494668D01*
X159889221Y-88494664D01*
X160027921Y-88402685D01*
X160028933Y-88402021D01*
X160165500Y-88313334D01*
X160168275Y-88311532D01*
X160176719Y-88304694D01*
X160186369Y-88297612D01*
X160195232Y-88291735D01*
X160195238Y-88291730D01*
X160198024Y-88289883D01*
X160200600Y-88287748D01*
X160200611Y-88287740D01*
X160326306Y-88183571D01*
X160327412Y-88182665D01*
X160451492Y-88082187D01*
X160454067Y-88080102D01*
X160463985Y-88070184D01*
X160472680Y-88062265D01*
X160483314Y-88053452D01*
X160483323Y-88053443D01*
X160485900Y-88051308D01*
X160599931Y-87934252D01*
X160601090Y-87933079D01*
X160714102Y-87820067D01*
X160724932Y-87806693D01*
X160732596Y-87798069D01*
X160744447Y-87785903D01*
X160744454Y-87785895D01*
X160746795Y-87783492D01*
X160811556Y-87701047D01*
X160845724Y-87657550D01*
X160846890Y-87656089D01*
X160943447Y-87536851D01*
X160943456Y-87536839D01*
X160945532Y-87534275D01*
X160956643Y-87517166D01*
X160963218Y-87507973D01*
X160977753Y-87489469D01*
X160979532Y-87486628D01*
X160979538Y-87486619D01*
X161061073Y-87356387D01*
X161062176Y-87354657D01*
X161145820Y-87225857D01*
X161156520Y-87204857D01*
X161161979Y-87195217D01*
X161176159Y-87172569D01*
X161243439Y-87034317D01*
X161244468Y-87032250D01*
X161311275Y-86901134D01*
X161312773Y-86898194D01*
X161322362Y-86873214D01*
X161326692Y-86863245D01*
X161338300Y-86839392D01*
X161338302Y-86839388D01*
X161339766Y-86836379D01*
X161340899Y-86833240D01*
X161340903Y-86833231D01*
X161390904Y-86694725D01*
X161391787Y-86692354D01*
X161443376Y-86557962D01*
X161443378Y-86557956D01*
X161444561Y-86554874D01*
X161452310Y-86525955D01*
X161455489Y-86515826D01*
X161466723Y-86484707D01*
X161501757Y-86341535D01*
X161502439Y-86338872D01*
X161506163Y-86324975D01*
X161539741Y-86199659D01*
X161544922Y-86166951D01*
X161546976Y-86156738D01*
X161555590Y-86121536D01*
X161574791Y-85978584D01*
X161575221Y-85975646D01*
X161596755Y-85839689D01*
X161596756Y-85839681D01*
X161597269Y-85836441D01*
X161599167Y-85800228D01*
X161600115Y-85790050D01*
X161604918Y-85754289D01*
X161605363Y-85750977D01*
X161609180Y-85609914D01*
X161609306Y-85606754D01*
X161611765Y-85559844D01*
X161616515Y-85469200D01*
X161614451Y-85429807D01*
X161614324Y-85419811D01*
X161615385Y-85380583D01*
X161615476Y-85377228D01*
X161604537Y-85239765D01*
X161604313Y-85236365D01*
X161597441Y-85105249D01*
X161597269Y-85101959D01*
X161596755Y-85098714D01*
X161596754Y-85098704D01*
X161590601Y-85059853D01*
X161589447Y-85050141D01*
X161586081Y-85007850D01*
X161585816Y-85004520D01*
X161569196Y-84916139D01*
X161560923Y-84872142D01*
X161560304Y-84868567D01*
X161540258Y-84742002D01*
X161540256Y-84741993D01*
X161539741Y-84738741D01*
X161538885Y-84735546D01*
X161527883Y-84694483D01*
X161525761Y-84685161D01*
X161517338Y-84640372D01*
X161516718Y-84637074D01*
X161478810Y-84511117D01*
X161477767Y-84507451D01*
X161445416Y-84386717D01*
X161444561Y-84383526D01*
X161443378Y-84380444D01*
X161443374Y-84380432D01*
X161427011Y-84337807D01*
X161423995Y-84328989D01*
X161408966Y-84279051D01*
X161359107Y-84160732D01*
X161357603Y-84156993D01*
X161334599Y-84097066D01*
X161312773Y-84040206D01*
X161289090Y-83993725D01*
X161285253Y-83985468D01*
X161265078Y-83937590D01*
X161265075Y-83937584D01*
X161263778Y-83934506D01*
X161203195Y-83824986D01*
X161201183Y-83821199D01*
X161147319Y-83715484D01*
X161147315Y-83715477D01*
X161145820Y-83712543D01*
X161115685Y-83666139D01*
X161111117Y-83658529D01*
X161082800Y-83607339D01*
X161012742Y-83507472D01*
X161010219Y-83503735D01*
X160947329Y-83406892D01*
X160947328Y-83406891D01*
X160945532Y-83404125D01*
X160908709Y-83358652D01*
X160903480Y-83351719D01*
X160870003Y-83303998D01*
X160870002Y-83303996D01*
X160868080Y-83301257D01*
X160789882Y-83211775D01*
X160786880Y-83208207D01*
X160714102Y-83118333D01*
X160670498Y-83074729D01*
X160664716Y-83068546D01*
X160624260Y-83022252D01*
X160622051Y-83019724D01*
X160594866Y-82994594D01*
X160537116Y-82941211D01*
X160533550Y-82937781D01*
X160454067Y-82858298D01*
X160403668Y-82817485D01*
X160397437Y-82812093D01*
X160349960Y-82768205D01*
X160349951Y-82768198D01*
X160347498Y-82765930D01*
X160257252Y-82698785D01*
X160253209Y-82695647D01*
X160168275Y-82626868D01*
X160111207Y-82589807D01*
X160104636Y-82585236D01*
X160047530Y-82542748D01*
X159953415Y-82487199D01*
X159948841Y-82484366D01*
X159862617Y-82428372D01*
X159859858Y-82426580D01*
X159796418Y-82394256D01*
X159789606Y-82390516D01*
X159725545Y-82352705D01*
X159677226Y-82330736D01*
X159628941Y-82308782D01*
X159623889Y-82306348D01*
X159535129Y-82261122D01*
X159535122Y-82261119D01*
X159532194Y-82259627D01*
X159529122Y-82258448D01*
X159529118Y-82258446D01*
X159498489Y-82246689D01*
X159462754Y-82232971D01*
X159455784Y-82230052D01*
X159385187Y-82197954D01*
X159287463Y-82165540D01*
X159282019Y-82163594D01*
X159188874Y-82127839D01*
X159113940Y-82107760D01*
X159106951Y-82105666D01*
X159030313Y-82080247D01*
X158932805Y-82059076D01*
X158926950Y-82057657D01*
X158833659Y-82032659D01*
X158830414Y-82032145D01*
X158830409Y-82032144D01*
X158753939Y-82020033D01*
X158746914Y-82018715D01*
X158730026Y-82015048D01*
X158711797Y-82011090D01*
X158668219Y-82001628D01*
X158668216Y-82001627D01*
X158664939Y-82000916D01*
X158568902Y-81990568D01*
X158562691Y-81989742D01*
X158473689Y-81975645D01*
X158473681Y-81975644D01*
X158470441Y-81975131D01*
X158386679Y-81970742D01*
X158379785Y-81970190D01*
X158347338Y-81966694D01*
X158295722Y-81961132D01*
X158295717Y-81961132D01*
X158293205Y-81960861D01*
X158290685Y-81960793D01*
X158290673Y-81960792D01*
X158288685Y-81960739D01*
X158287255Y-81960700D01*
X158198370Y-81960700D01*
X158191776Y-81960527D01*
X158106501Y-81956058D01*
X158103200Y-81955885D01*
X158099899Y-81956058D01*
X158014624Y-81960527D01*
X158008030Y-81960700D01*
X151609158Y-81960700D01*
X151541037Y-81940698D01*
X151520063Y-81923795D01*
X150818497Y-81222229D01*
X150610035Y-81034858D01*
X150306981Y-80815887D01*
X149982373Y-80630358D01*
X149639889Y-80480374D01*
X149283405Y-80367632D01*
X149113726Y-80333265D01*
X148920259Y-80294080D01*
X148920256Y-80294080D01*
X148916960Y-80293412D01*
X148913621Y-80293099D01*
X148913612Y-80293098D01*
X148652348Y-80268632D01*
X148544703Y-80258551D01*
X148541337Y-80258595D01*
X148541336Y-80258595D01*
X148174197Y-80263400D01*
X148174194Y-80263400D01*
X148170848Y-80263444D01*
X147799630Y-80308038D01*
X147796360Y-80308790D01*
X147796354Y-80308791D01*
X147438537Y-80391071D01*
X147435254Y-80391826D01*
X147081844Y-80513861D01*
X146743402Y-80672758D01*
X146740543Y-80674493D01*
X146740539Y-80674495D01*
X146510275Y-80814223D01*
X146423763Y-80866720D01*
X146126543Y-81093550D01*
X145855112Y-81350680D01*
X145612540Y-81635197D01*
X145401576Y-81943880D01*
X145399983Y-81946845D01*
X145399981Y-81946848D01*
X145371122Y-82000557D01*
X145224608Y-82273233D01*
X145223343Y-82276341D01*
X145223340Y-82276347D01*
X145162793Y-82425085D01*
X145083641Y-82619526D01*
X145081529Y-82626868D01*
X144991574Y-82939548D01*
X144980270Y-82978839D01*
X144974783Y-83010117D01*
X144923229Y-83303998D01*
X144915667Y-83347102D01*
X144915443Y-83350433D01*
X144915442Y-83350440D01*
X144890787Y-83716798D01*
X144890562Y-83720144D01*
X138176000Y-83720144D01*
X138176000Y-74328197D01*
X144520551Y-74328197D01*
X144520595Y-74331563D01*
X144520595Y-74331564D01*
X144524984Y-74666876D01*
X144525444Y-74702052D01*
X144570038Y-75073270D01*
X144570790Y-75076540D01*
X144570791Y-75076546D01*
X144597547Y-75192900D01*
X144653826Y-75437646D01*
X144775861Y-75791056D01*
X144859918Y-75970093D01*
X144926269Y-76111416D01*
X144934758Y-76129498D01*
X144936493Y-76132357D01*
X144936495Y-76132361D01*
X145065940Y-76345679D01*
X145128720Y-76449137D01*
X145355550Y-76746357D01*
X145612680Y-77017788D01*
X145615237Y-77019968D01*
X145615238Y-77019969D01*
X145685921Y-77080231D01*
X145897197Y-77260360D01*
X146205880Y-77471324D01*
X146535233Y-77648292D01*
X146538341Y-77649557D01*
X146538347Y-77649560D01*
X146708379Y-77718775D01*
X146881526Y-77789259D01*
X146884752Y-77790187D01*
X147237626Y-77891706D01*
X147237632Y-77891707D01*
X147240839Y-77892630D01*
X147361802Y-77913850D01*
X147605805Y-77956655D01*
X147605812Y-77956656D01*
X147609102Y-77957233D01*
X147612433Y-77957457D01*
X147612440Y-77957458D01*
X147978798Y-77982113D01*
X147978801Y-77982113D01*
X147982144Y-77982338D01*
X148168943Y-77974998D01*
X148352389Y-77967791D01*
X148352394Y-77967791D01*
X148355742Y-77967659D01*
X148521341Y-77943353D01*
X148722348Y-77913850D01*
X148722351Y-77913849D01*
X148725665Y-77913363D01*
X148728903Y-77912529D01*
X148728911Y-77912527D01*
X149084478Y-77820903D01*
X149084488Y-77820900D01*
X149087724Y-77820066D01*
X149437819Y-77688822D01*
X149521752Y-77646700D01*
X149768988Y-77522624D01*
X149768994Y-77522620D01*
X149771984Y-77521120D01*
X149852358Y-77469422D01*
X150083617Y-77320672D01*
X150083623Y-77320668D01*
X150086438Y-77318857D01*
X150377616Y-77084324D01*
X150381938Y-77080231D01*
X151147564Y-76314605D01*
X151209876Y-76280579D01*
X151236659Y-76277700D01*
X157986661Y-76277700D01*
X157988327Y-76277611D01*
X157988336Y-76277611D01*
X158263222Y-76262964D01*
X158263228Y-76262963D01*
X158266557Y-76262786D01*
X158269849Y-76262256D01*
X158269856Y-76262255D01*
X158632370Y-76203865D01*
X158632371Y-76203865D01*
X158635685Y-76203331D01*
X158638925Y-76202448D01*
X158638928Y-76202447D01*
X158993160Y-76105872D01*
X158993161Y-76105872D01*
X158996406Y-76104987D01*
X159285026Y-75992169D01*
X159341503Y-75970093D01*
X159341505Y-75970092D01*
X159344634Y-75968869D01*
X159553019Y-75860622D01*
X159673456Y-75798060D01*
X159673459Y-75798058D01*
X159676426Y-75796517D01*
X159952661Y-75613334D01*
X159985236Y-75591732D01*
X159985238Y-75591731D01*
X159988024Y-75589883D01*
X160275900Y-75351308D01*
X160536795Y-75083492D01*
X160542252Y-75076546D01*
X160765681Y-74792107D01*
X160765682Y-74792105D01*
X160767753Y-74789469D01*
X160966159Y-74472569D01*
X161036418Y-74328197D01*
X161128299Y-74139394D01*
X161128301Y-74139390D01*
X161129766Y-74136379D01*
X161256723Y-73784707D01*
X161345590Y-73421536D01*
X161364146Y-73283390D01*
X161394919Y-73054286D01*
X161394920Y-73054277D01*
X161395363Y-73050977D01*
X161398925Y-72919328D01*
X161399051Y-72916168D01*
X161400235Y-72893589D01*
X161413315Y-72644000D01*
X161394069Y-72276759D01*
X161392299Y-72265579D01*
X161356045Y-72036684D01*
X161336541Y-71913541D01*
X161241361Y-71558326D01*
X161109573Y-71215006D01*
X161099404Y-71195048D01*
X160944119Y-70890284D01*
X160944115Y-70890277D01*
X160942620Y-70887343D01*
X160742332Y-70578925D01*
X160510902Y-70293133D01*
X160250867Y-70033098D01*
X159965075Y-69801668D01*
X159753346Y-69664170D01*
X159659427Y-69603178D01*
X159659424Y-69603176D01*
X159656658Y-69601380D01*
X159653724Y-69599885D01*
X159653717Y-69599881D01*
X159331934Y-69435925D01*
X159328994Y-69434427D01*
X158985674Y-69302639D01*
X158630459Y-69207459D01*
X158437442Y-69176888D01*
X158270489Y-69150445D01*
X158270481Y-69150444D01*
X158267241Y-69149931D01*
X157900000Y-69130685D01*
X157532759Y-69149931D01*
X157529519Y-69150444D01*
X157529511Y-69150445D01*
X157362558Y-69176888D01*
X157169541Y-69207459D01*
X156986866Y-69256407D01*
X156954255Y-69260700D01*
X149853412Y-69260700D01*
X149844952Y-69260416D01*
X149783601Y-69256287D01*
X149783598Y-69256287D01*
X149780255Y-69256062D01*
X149664682Y-69260603D01*
X149659735Y-69260700D01*
X149637739Y-69260700D01*
X149569908Y-69264315D01*
X149568211Y-69264394D01*
X149511104Y-69266637D01*
X149410009Y-69270609D01*
X149410003Y-69270610D01*
X149406658Y-69270741D01*
X149403344Y-69271227D01*
X149403338Y-69271228D01*
X149388134Y-69273460D01*
X149376538Y-69274618D01*
X149361177Y-69275436D01*
X149361170Y-69275437D01*
X149357843Y-69275614D01*
X149354542Y-69276146D01*
X149354539Y-69276146D01*
X149318096Y-69282015D01*
X149247662Y-69273099D01*
X149232227Y-69265051D01*
X149044367Y-69149931D01*
X149025849Y-69138583D01*
X149021932Y-69136864D01*
X149021929Y-69136862D01*
X148851112Y-69061879D01*
X148772093Y-69027192D01*
X148767965Y-69026016D01*
X148767962Y-69026015D01*
X148685917Y-69002644D01*
X148505568Y-68951270D01*
X148501326Y-68950666D01*
X148501320Y-68950665D01*
X148235455Y-68912827D01*
X148231204Y-68912222D01*
X148085115Y-68911457D01*
X147958366Y-68910793D01*
X147958360Y-68910793D01*
X147954080Y-68910771D01*
X147949835Y-68911330D01*
X147949833Y-68911330D01*
X147938463Y-68912827D01*
X147679323Y-68946944D01*
X147412017Y-69020070D01*
X147408069Y-69021754D01*
X147161060Y-69127112D01*
X147161056Y-69127114D01*
X147157108Y-69128798D01*
X147120939Y-69150445D01*
X146922996Y-69268911D01*
X146922992Y-69268914D01*
X146919314Y-69271115D01*
X146750432Y-69406415D01*
X146724758Y-69426984D01*
X146703035Y-69444387D01*
X146512273Y-69645409D01*
X146350557Y-69870460D01*
X146220880Y-70115376D01*
X146219405Y-70119407D01*
X146154889Y-70295708D01*
X146125643Y-70375626D01*
X146066606Y-70646392D01*
X146044863Y-70922666D01*
X146060815Y-71199335D01*
X146061640Y-71203542D01*
X146061641Y-71203547D01*
X146074128Y-71267193D01*
X146089059Y-71343291D01*
X146093565Y-71366260D01*
X146087052Y-71436957D01*
X146059018Y-71479613D01*
X145484229Y-72054403D01*
X145296858Y-72262865D01*
X145077887Y-72565919D01*
X144892358Y-72890527D01*
X144742374Y-73233011D01*
X144629632Y-73589495D01*
X144628966Y-73592784D01*
X144590754Y-73781449D01*
X144555412Y-73955940D01*
X144555099Y-73959279D01*
X144555098Y-73959288D01*
X144545356Y-74063317D01*
X144520551Y-74328197D01*
X138176000Y-74328197D01*
X138176000Y-69130000D01*
X138196002Y-69061879D01*
X138201200Y-69054400D01*
X139662200Y-67106400D01*
X139719074Y-67063905D01*
X139763000Y-67056000D01*
X148955766Y-67056000D01*
X149023887Y-67076002D01*
X149037345Y-67085975D01*
X149057426Y-67103035D01*
X149064942Y-67109965D01*
X149070638Y-67115661D01*
X149073499Y-67117924D01*
X149073504Y-67117929D01*
X149092924Y-67133293D01*
X149096325Y-67136082D01*
X149151943Y-67183333D01*
X149158456Y-67186659D01*
X149163495Y-67190020D01*
X149168637Y-67193196D01*
X149174374Y-67197734D01*
X149240533Y-67228655D01*
X149244427Y-67230558D01*
X149309466Y-67263769D01*
X149316575Y-67265508D01*
X149322209Y-67267604D01*
X149327979Y-67269523D01*
X149334608Y-67272622D01*
X149341771Y-67274112D01*
X149341774Y-67274113D01*
X149392488Y-67284661D01*
X149406093Y-67287491D01*
X149410359Y-67288457D01*
X149481268Y-67305808D01*
X149486870Y-67306156D01*
X149486873Y-67306156D01*
X149492422Y-67306500D01*
X149492420Y-67306535D01*
X149496392Y-67306775D01*
X149500613Y-67307152D01*
X149507773Y-67308641D01*
X149585200Y-67306546D01*
X149588608Y-67306500D01*
X155888930Y-67306500D01*
X155907880Y-67307933D01*
X155922115Y-67310099D01*
X155922119Y-67310099D01*
X155929349Y-67311199D01*
X155936641Y-67310606D01*
X155936644Y-67310606D01*
X155982018Y-67306915D01*
X155992233Y-67306500D01*
X156000293Y-67306500D01*
X156017680Y-67304473D01*
X156028507Y-67303211D01*
X156032882Y-67302778D01*
X156098339Y-67297454D01*
X156098342Y-67297453D01*
X156105637Y-67296860D01*
X156112601Y-67294604D01*
X156118560Y-67293413D01*
X156124415Y-67292029D01*
X156131681Y-67291182D01*
X156200327Y-67266265D01*
X156204455Y-67264848D01*
X156266936Y-67244607D01*
X156266938Y-67244606D01*
X156273899Y-67242351D01*
X156280154Y-67238555D01*
X156285628Y-67236049D01*
X156291058Y-67233330D01*
X156297937Y-67230833D01*
X156304058Y-67226820D01*
X156358976Y-67190814D01*
X156362680Y-67188477D01*
X156425107Y-67150595D01*
X156433484Y-67143197D01*
X156433508Y-67143224D01*
X156436500Y-67140571D01*
X156439733Y-67137868D01*
X156445852Y-67133856D01*
X156499128Y-67077617D01*
X156501506Y-67075175D01*
X161868318Y-61708363D01*
X161930630Y-61674337D01*
X162001445Y-61679402D01*
X162017921Y-61686938D01*
X162022116Y-61689234D01*
X162029295Y-61694615D01*
X162165684Y-61745745D01*
X162227866Y-61752500D01*
X164924134Y-61752500D01*
X164986316Y-61745745D01*
X165122705Y-61694615D01*
X165239261Y-61607261D01*
X165326615Y-61490705D01*
X165377745Y-61354316D01*
X165384500Y-61292134D01*
X165384500Y-58595866D01*
X165377745Y-58533684D01*
X165326615Y-58397295D01*
X165239261Y-58280739D01*
X165122705Y-58193385D01*
X164986316Y-58142255D01*
X164924134Y-58135500D01*
X162227866Y-58135500D01*
X162165684Y-58142255D01*
X162029295Y-58193385D01*
X161912739Y-58280739D01*
X161825385Y-58397295D01*
X161774255Y-58533684D01*
X161767500Y-58595866D01*
X161767500Y-59611629D01*
X161747498Y-59679750D01*
X161730595Y-59700724D01*
X155678724Y-65752595D01*
X155616412Y-65786621D01*
X155589629Y-65789500D01*
X151510000Y-65789500D01*
X151441879Y-65769498D01*
X151395386Y-65715842D01*
X151384000Y-65663500D01*
X151384000Y-62484000D01*
X150909405Y-62009405D01*
X150875379Y-61947093D01*
X150872500Y-61920310D01*
X150872500Y-61844500D01*
X150892502Y-61776379D01*
X150946158Y-61729886D01*
X150998500Y-61718500D01*
X155380930Y-61718500D01*
X155399880Y-61719933D01*
X155414115Y-61722099D01*
X155414119Y-61722099D01*
X155421349Y-61723199D01*
X155428641Y-61722606D01*
X155428644Y-61722606D01*
X155474018Y-61718915D01*
X155484233Y-61718500D01*
X155492293Y-61718500D01*
X155505583Y-61716951D01*
X155520507Y-61715211D01*
X155524882Y-61714778D01*
X155590339Y-61709454D01*
X155590342Y-61709453D01*
X155597637Y-61708860D01*
X155604601Y-61706604D01*
X155610560Y-61705413D01*
X155616415Y-61704029D01*
X155623681Y-61703182D01*
X155692327Y-61678265D01*
X155696455Y-61676848D01*
X155758936Y-61656607D01*
X155758938Y-61656606D01*
X155765899Y-61654351D01*
X155772154Y-61650555D01*
X155777628Y-61648049D01*
X155783058Y-61645330D01*
X155789937Y-61642833D01*
X155850976Y-61602814D01*
X155854680Y-61600477D01*
X155917107Y-61562595D01*
X155925484Y-61555197D01*
X155925508Y-61555224D01*
X155928500Y-61552571D01*
X155931733Y-61549868D01*
X155937852Y-61545856D01*
X155991128Y-61489617D01*
X155993506Y-61487175D01*
X161785317Y-55695364D01*
X161847629Y-55661338D01*
X161918444Y-55666403D01*
X161975280Y-55708950D01*
X161985404Y-55724820D01*
X162046450Y-55838431D01*
X162049241Y-55842168D01*
X162049245Y-55842175D01*
X162116463Y-55932190D01*
X162207281Y-56053810D01*
X162210590Y-56057090D01*
X162210595Y-56057096D01*
X162394863Y-56239762D01*
X162398180Y-56243050D01*
X162401942Y-56245808D01*
X162401945Y-56245811D01*
X162514299Y-56328192D01*
X162614954Y-56401995D01*
X162619089Y-56404171D01*
X162619093Y-56404173D01*
X162848698Y-56524975D01*
X162852840Y-56527154D01*
X163106613Y-56615775D01*
X163111206Y-56616647D01*
X163366109Y-56665042D01*
X163366112Y-56665042D01*
X163370698Y-56665913D01*
X163498370Y-56670929D01*
X163634625Y-56676283D01*
X163634630Y-56676283D01*
X163639293Y-56676466D01*
X163743607Y-56665042D01*
X163901844Y-56647713D01*
X163901850Y-56647712D01*
X163906497Y-56647203D01*
X163911021Y-56646012D01*
X164161918Y-56579956D01*
X164161920Y-56579955D01*
X164166441Y-56578765D01*
X164170738Y-56576919D01*
X164409120Y-56474502D01*
X164409122Y-56474501D01*
X164413414Y-56472657D01*
X164580783Y-56369086D01*
X164638017Y-56333669D01*
X164638021Y-56333666D01*
X164641990Y-56331210D01*
X164847149Y-56157530D01*
X165024382Y-55955434D01*
X165169797Y-55729361D01*
X165280199Y-55484278D01*
X165281469Y-55479775D01*
X165351893Y-55230072D01*
X165351894Y-55230069D01*
X165353163Y-55225568D01*
X165369772Y-55095011D01*
X165386688Y-54962045D01*
X165386688Y-54962041D01*
X165387086Y-54958915D01*
X165388328Y-54911496D01*
X165389488Y-54867160D01*
X165389571Y-54864000D01*
X165369650Y-54595937D01*
X165310327Y-54333763D01*
X165212902Y-54083238D01*
X165079518Y-53849864D01*
X164913105Y-53638769D01*
X164717317Y-53454591D01*
X164496457Y-53301374D01*
X164492264Y-53299306D01*
X164259564Y-53184551D01*
X164259561Y-53184550D01*
X164255376Y-53182486D01*
X164207745Y-53167239D01*
X164153621Y-53149914D01*
X163999370Y-53100538D01*
X163994763Y-53099788D01*
X163994760Y-53099787D01*
X163738674Y-53058081D01*
X163738675Y-53058081D01*
X163734063Y-53057330D01*
X163603719Y-53055624D01*
X163469961Y-53053873D01*
X163469958Y-53053873D01*
X163465284Y-53053812D01*
X163198937Y-53090060D01*
X162940874Y-53165278D01*
X162696763Y-53277815D01*
X162692854Y-53280378D01*
X162475881Y-53422631D01*
X162475876Y-53422635D01*
X162471968Y-53425197D01*
X162271426Y-53604188D01*
X162099544Y-53810854D01*
X161960096Y-54040656D01*
X161959250Y-54040143D01*
X161913753Y-54088317D01*
X161850232Y-54105500D01*
X161611070Y-54105500D01*
X161592120Y-54104067D01*
X161577885Y-54101901D01*
X161577881Y-54101901D01*
X161570651Y-54100801D01*
X161563359Y-54101394D01*
X161563356Y-54101394D01*
X161517982Y-54105085D01*
X161507767Y-54105500D01*
X161499707Y-54105500D01*
X161496073Y-54105924D01*
X161496067Y-54105924D01*
X161483042Y-54107443D01*
X161471480Y-54108791D01*
X161467132Y-54109221D01*
X161394364Y-54115140D01*
X161387403Y-54117395D01*
X161381463Y-54118582D01*
X161375588Y-54119971D01*
X161368319Y-54120818D01*
X161299670Y-54145736D01*
X161295542Y-54147153D01*
X161233064Y-54167393D01*
X161233062Y-54167394D01*
X161226101Y-54169649D01*
X161219846Y-54173445D01*
X161214372Y-54175951D01*
X161208942Y-54178670D01*
X161202063Y-54181167D01*
X161195943Y-54185180D01*
X161195942Y-54185180D01*
X161141024Y-54221186D01*
X161137320Y-54223523D01*
X161074893Y-54261405D01*
X161066516Y-54268803D01*
X161066492Y-54268776D01*
X161063500Y-54271429D01*
X161060267Y-54274132D01*
X161054148Y-54278144D01*
X161049116Y-54283456D01*
X161000872Y-54334383D01*
X160998494Y-54336825D01*
X155170724Y-60164595D01*
X155108412Y-60198621D01*
X155081629Y-60201500D01*
X150226371Y-60201500D01*
X150158250Y-60181498D01*
X150137276Y-60164595D01*
X149935770Y-59963089D01*
X149923384Y-59948677D01*
X149914851Y-59937082D01*
X149914846Y-59937077D01*
X149910508Y-59931182D01*
X149904930Y-59926443D01*
X149904927Y-59926440D01*
X149870232Y-59896965D01*
X149862716Y-59890035D01*
X149857021Y-59884340D01*
X149850880Y-59879482D01*
X149834749Y-59866719D01*
X149831345Y-59863928D01*
X149781297Y-59821409D01*
X149781295Y-59821408D01*
X149775715Y-59816667D01*
X149769199Y-59813339D01*
X149764150Y-59809972D01*
X149759021Y-59806805D01*
X149753284Y-59802266D01*
X149687125Y-59771345D01*
X149683225Y-59769439D01*
X149618192Y-59736231D01*
X149611084Y-59734492D01*
X149605441Y-59732393D01*
X149599678Y-59730476D01*
X149593050Y-59727378D01*
X149521583Y-59712513D01*
X149517299Y-59711543D01*
X149482958Y-59703140D01*
X149446390Y-59694192D01*
X149440788Y-59693844D01*
X149440785Y-59693844D01*
X149435236Y-59693500D01*
X149435238Y-59693464D01*
X149431245Y-59693225D01*
X149427053Y-59692851D01*
X149419885Y-59691360D01*
X149359225Y-59693001D01*
X149342479Y-59693454D01*
X149339072Y-59693500D01*
X141291063Y-59693500D01*
X141272114Y-59692067D01*
X141271907Y-59692036D01*
X141250651Y-59688802D01*
X141243359Y-59689395D01*
X141243356Y-59689395D01*
X141202920Y-59692684D01*
X141199024Y-59693001D01*
X141197991Y-59693085D01*
X141187777Y-59693500D01*
X141179707Y-59693500D01*
X141176087Y-59693922D01*
X141176069Y-59693923D01*
X141151461Y-59696792D01*
X141147100Y-59697224D01*
X141121981Y-59699267D01*
X141081661Y-59702546D01*
X141081658Y-59702547D01*
X141074363Y-59703140D01*
X141067399Y-59705396D01*
X141061440Y-59706587D01*
X141055585Y-59707971D01*
X141048319Y-59708818D01*
X140979673Y-59733735D01*
X140975545Y-59735152D01*
X140913064Y-59755393D01*
X140913062Y-59755394D01*
X140906101Y-59757649D01*
X140899846Y-59761445D01*
X140894372Y-59763951D01*
X140888942Y-59766670D01*
X140882063Y-59769167D01*
X140821016Y-59809191D01*
X140817327Y-59811518D01*
X140808843Y-59816667D01*
X140759693Y-59846491D01*
X140759688Y-59846495D01*
X140754892Y-59849405D01*
X140746516Y-59856803D01*
X140746493Y-59856777D01*
X140743503Y-59859426D01*
X140740264Y-59862134D01*
X140734148Y-59866144D01*
X140729121Y-59871451D01*
X140729117Y-59871454D01*
X140680872Y-59922383D01*
X140678494Y-59924825D01*
X139172224Y-61431095D01*
X139109912Y-61465121D01*
X139083129Y-61468000D01*
X119996871Y-61468000D01*
X119928750Y-61447998D01*
X119907776Y-61431095D01*
X118439770Y-59963089D01*
X118427384Y-59948677D01*
X118418851Y-59937082D01*
X118418846Y-59937077D01*
X118414508Y-59931182D01*
X118408930Y-59926443D01*
X118408927Y-59926440D01*
X118374232Y-59896965D01*
X118366716Y-59890035D01*
X118361021Y-59884340D01*
X118354880Y-59879482D01*
X118338749Y-59866719D01*
X118335345Y-59863928D01*
X118285297Y-59821409D01*
X118285295Y-59821408D01*
X118279715Y-59816667D01*
X118273199Y-59813339D01*
X118268150Y-59809972D01*
X118263021Y-59806805D01*
X118257284Y-59802266D01*
X118191125Y-59771345D01*
X118187225Y-59769439D01*
X118122192Y-59736231D01*
X118115084Y-59734492D01*
X118109441Y-59732393D01*
X118103678Y-59730476D01*
X118097050Y-59727378D01*
X118025583Y-59712513D01*
X118021299Y-59711543D01*
X117986958Y-59703140D01*
X117950390Y-59694192D01*
X117944788Y-59693844D01*
X117944785Y-59693844D01*
X117939236Y-59693500D01*
X117939238Y-59693464D01*
X117935245Y-59693225D01*
X117931053Y-59692851D01*
X117923885Y-59691360D01*
X117863225Y-59693001D01*
X117846479Y-59693454D01*
X117843072Y-59693500D01*
X115911941Y-59693500D01*
X115900740Y-59693001D01*
X115899050Y-59692850D01*
X115891885Y-59691360D01*
X115820767Y-59693284D01*
X115814479Y-59693454D01*
X115811072Y-59693500D01*
X108271063Y-59693500D01*
X108252114Y-59692067D01*
X108251907Y-59692036D01*
X108230651Y-59688802D01*
X108223359Y-59689395D01*
X108223356Y-59689395D01*
X108182920Y-59692684D01*
X108179024Y-59693001D01*
X108177991Y-59693085D01*
X108167777Y-59693500D01*
X108159707Y-59693500D01*
X108156087Y-59693922D01*
X108156069Y-59693923D01*
X108131461Y-59696792D01*
X108127100Y-59697224D01*
X108101981Y-59699267D01*
X108061661Y-59702546D01*
X108061658Y-59702547D01*
X108054363Y-59703140D01*
X108047399Y-59705396D01*
X108041440Y-59706587D01*
X108035585Y-59707971D01*
X108028319Y-59708818D01*
X107959673Y-59733735D01*
X107955545Y-59735152D01*
X107893064Y-59755393D01*
X107893062Y-59755394D01*
X107886101Y-59757649D01*
X107879846Y-59761445D01*
X107874372Y-59763951D01*
X107868942Y-59766670D01*
X107862063Y-59769167D01*
X107801016Y-59809191D01*
X107797327Y-59811518D01*
X107788843Y-59816667D01*
X107739693Y-59846491D01*
X107739688Y-59846495D01*
X107734892Y-59849405D01*
X107726516Y-59856803D01*
X107726493Y-59856777D01*
X107723503Y-59859426D01*
X107720265Y-59862134D01*
X107714148Y-59866144D01*
X107688086Y-59893656D01*
X107664438Y-59918619D01*
X107603069Y-59954317D01*
X107584388Y-59957446D01*
X107544316Y-59961093D01*
X107512252Y-59964011D01*
X107512250Y-59964011D01*
X107506112Y-59964570D01*
X107500206Y-59966308D01*
X107500202Y-59966309D01*
X107395076Y-59997249D01*
X107316381Y-60020410D01*
X107310923Y-60023263D01*
X107310919Y-60023265D01*
X107220147Y-60070720D01*
X107141110Y-60112040D01*
X106986975Y-60235968D01*
X106859846Y-60387474D01*
X106856879Y-60392872D01*
X106856875Y-60392877D01*
X106778095Y-60536180D01*
X106764567Y-60560787D01*
X106704765Y-60749306D01*
X106682719Y-60945851D01*
X106699268Y-61142934D01*
X106700967Y-61148858D01*
X106743368Y-61296728D01*
X106753783Y-61333050D01*
X106756602Y-61338535D01*
X106833624Y-61488402D01*
X106844187Y-61508956D01*
X106967035Y-61663953D01*
X106971728Y-61667947D01*
X106971729Y-61667948D01*
X107102849Y-61779539D01*
X107117650Y-61792136D01*
X107290294Y-61888624D01*
X107478392Y-61949740D01*
X107674777Y-61973158D01*
X107680912Y-61972686D01*
X107680914Y-61972686D01*
X107865830Y-61958457D01*
X107865834Y-61958456D01*
X107871972Y-61957984D01*
X108062463Y-61904798D01*
X108067967Y-61902018D01*
X108067969Y-61902017D01*
X108233495Y-61818404D01*
X108233497Y-61818403D01*
X108238996Y-61815625D01*
X108380061Y-61705413D01*
X108389991Y-61697655D01*
X108394847Y-61693861D01*
X108505641Y-61565505D01*
X108520049Y-61548813D01*
X108520050Y-61548811D01*
X108524078Y-61544145D01*
X108621769Y-61372179D01*
X108646868Y-61296728D01*
X108687349Y-61238404D01*
X108752938Y-61211224D01*
X108766426Y-61210500D01*
X115457629Y-61210500D01*
X115525750Y-61230502D01*
X115546724Y-61247405D01*
X115552224Y-61252905D01*
X115586250Y-61315217D01*
X115581185Y-61386032D01*
X115538638Y-61442868D01*
X115472118Y-61467679D01*
X115463129Y-61468000D01*
X109220000Y-61468000D01*
X108812727Y-61875273D01*
X108785055Y-61896014D01*
X108777715Y-61898765D01*
X108770530Y-61904150D01*
X108770528Y-61904151D01*
X108715499Y-61945393D01*
X108661159Y-61986119D01*
X108655778Y-61993299D01*
X108602978Y-62063750D01*
X108573805Y-62102675D01*
X108571054Y-62110015D01*
X108550313Y-62137687D01*
X108204000Y-62484000D01*
X108204000Y-67056000D01*
X109220000Y-68072000D01*
X113739810Y-68072000D01*
X113807931Y-68092002D01*
X113828905Y-68108905D01*
X115824000Y-70104000D01*
X120851810Y-70104000D01*
X120919931Y-70124002D01*
X120940905Y-70140905D01*
X121375095Y-70575095D01*
X121409121Y-70637407D01*
X121412000Y-70664190D01*
X121412000Y-146759810D01*
X121391998Y-146827931D01*
X121375095Y-146848905D01*
X120941405Y-147282595D01*
X120879093Y-147316621D01*
X120852310Y-147319500D01*
X94948710Y-147319500D01*
X94880589Y-147299498D01*
X94834096Y-147245842D01*
X94823992Y-147175568D01*
X94852047Y-147112677D01*
X94873048Y-147087560D01*
X94875370Y-147084783D01*
X95065853Y-146794799D01*
X95194446Y-146539121D01*
X95220117Y-146488080D01*
X95220120Y-146488072D01*
X95221744Y-146484844D01*
X95262401Y-146373745D01*
X95339729Y-146162437D01*
X95339730Y-146162433D01*
X95340977Y-146159026D01*
X95341822Y-146155504D01*
X95341825Y-146155496D01*
X95421124Y-145825191D01*
X95421125Y-145825187D01*
X95421971Y-145821662D01*
X95456035Y-145540171D01*
X95463316Y-145480004D01*
X95463316Y-145479997D01*
X95463652Y-145477225D01*
X95469599Y-145288000D01*
X95469438Y-145285204D01*
X95449836Y-144945246D01*
X95449835Y-144945241D01*
X95449627Y-144941626D01*
X95389976Y-144599842D01*
X95291437Y-144267180D01*
X95155316Y-143948048D01*
X95105569Y-143860831D01*
X94985208Y-143649816D01*
X94983417Y-143646676D01*
X94778018Y-143367060D01*
X94541842Y-143112904D01*
X94278019Y-142887578D01*
X93990047Y-142694069D01*
X93681741Y-142534940D01*
X93357189Y-142412302D01*
X93353668Y-142411418D01*
X93353663Y-142411416D01*
X93192378Y-142370904D01*
X93020692Y-142327780D01*
X92998476Y-142324855D01*
X92680315Y-142282968D01*
X92680307Y-142282967D01*
X92676711Y-142282494D01*
X92532045Y-142280221D01*
X92333446Y-142277101D01*
X92333442Y-142277101D01*
X92329804Y-142277044D01*
X92326190Y-142277405D01*
X92326184Y-142277405D01*
X92082843Y-142301694D01*
X91984569Y-142311503D01*
X91645583Y-142385414D01*
X91642156Y-142386587D01*
X91642150Y-142386589D01*
X91320765Y-142496624D01*
X91317339Y-142497797D01*
X91004188Y-142647163D01*
X90710279Y-142831532D01*
X90707437Y-142833809D01*
X90707436Y-142833810D01*
X90629280Y-142896424D01*
X90563611Y-142923406D01*
X90493778Y-142910601D01*
X90441955Y-142862074D01*
X90424500Y-142798090D01*
X90424500Y-136398000D01*
X98892685Y-136398000D01*
X98911931Y-136765241D01*
X98912444Y-136768481D01*
X98912445Y-136768489D01*
X98932420Y-136894606D01*
X98969459Y-137128459D01*
X99064639Y-137483674D01*
X99196427Y-137826994D01*
X99197925Y-137829934D01*
X99335841Y-138100608D01*
X99363380Y-138154657D01*
X99365176Y-138157423D01*
X99365178Y-138157426D01*
X99369632Y-138164284D01*
X99563668Y-138463075D01*
X99795098Y-138748867D01*
X100055133Y-139008902D01*
X100340925Y-139240332D01*
X100343700Y-139242134D01*
X100517325Y-139354887D01*
X100649342Y-139440620D01*
X100652276Y-139442115D01*
X100652283Y-139442119D01*
X100974066Y-139606075D01*
X100977006Y-139607573D01*
X101320326Y-139739361D01*
X101675541Y-139834541D01*
X101868558Y-139865112D01*
X102035511Y-139891555D01*
X102035519Y-139891556D01*
X102038759Y-139892069D01*
X102406000Y-139911315D01*
X102773241Y-139892069D01*
X102776481Y-139891556D01*
X102776489Y-139891555D01*
X102943442Y-139865112D01*
X103136459Y-139834541D01*
X103491674Y-139739361D01*
X103834994Y-139607573D01*
X103837934Y-139606075D01*
X104159717Y-139442119D01*
X104159724Y-139442115D01*
X104162658Y-139440620D01*
X104294676Y-139354887D01*
X104468300Y-139242134D01*
X104471075Y-139240332D01*
X104756867Y-139008902D01*
X105016902Y-138748867D01*
X105248332Y-138463075D01*
X105442368Y-138164284D01*
X105446822Y-138157426D01*
X105446824Y-138157423D01*
X105448620Y-138154657D01*
X105476160Y-138100608D01*
X105614075Y-137829934D01*
X105615573Y-137826994D01*
X105747361Y-137483674D01*
X105842541Y-137128459D01*
X105879580Y-136894606D01*
X105899555Y-136768489D01*
X105899556Y-136768481D01*
X105900069Y-136765241D01*
X105919315Y-136398000D01*
X105900069Y-136030759D01*
X105888288Y-135956373D01*
X105873112Y-135860558D01*
X105842541Y-135667541D01*
X105747361Y-135312326D01*
X105718857Y-135238069D01*
X105641837Y-135037426D01*
X105615573Y-134969006D01*
X105576375Y-134892076D01*
X105450119Y-134644284D01*
X105450115Y-134644277D01*
X105448620Y-134641343D01*
X105400160Y-134566720D01*
X105306597Y-134422645D01*
X109974864Y-134422645D01*
X109990832Y-134699586D01*
X110044238Y-134971796D01*
X110045625Y-134975847D01*
X110108000Y-135158030D01*
X110134092Y-135234240D01*
X110258734Y-135482062D01*
X110261160Y-135485591D01*
X110261163Y-135485597D01*
X110347634Y-135611412D01*
X110415855Y-135710674D01*
X110602548Y-135915848D01*
X110665821Y-135968752D01*
X110762084Y-136049241D01*
X110801513Y-136108282D01*
X110802764Y-136179268D01*
X110760041Y-136244238D01*
X110638391Y-136341697D01*
X110638380Y-136341707D01*
X110635035Y-136344387D01*
X110444273Y-136545409D01*
X110282557Y-136770460D01*
X110152880Y-137015376D01*
X110057643Y-137275626D01*
X109998606Y-137546392D01*
X109976863Y-137822666D01*
X109992815Y-138099335D01*
X109993640Y-138103542D01*
X109993641Y-138103547D01*
X110006066Y-138166876D01*
X110046169Y-138371279D01*
X110047556Y-138375330D01*
X110131348Y-138620067D01*
X110135935Y-138633466D01*
X110137861Y-138637295D01*
X110230696Y-138821876D01*
X110260454Y-138881044D01*
X110297958Y-138935613D01*
X110384742Y-139061884D01*
X110417421Y-139109433D01*
X110603932Y-139314405D01*
X110607221Y-139317155D01*
X110813243Y-139489417D01*
X110813248Y-139489421D01*
X110816535Y-139492169D01*
X110870976Y-139526320D01*
X111047656Y-139637152D01*
X111047660Y-139637154D01*
X111051296Y-139639435D01*
X111303872Y-139753477D01*
X111307992Y-139754697D01*
X111307991Y-139754697D01*
X111565475Y-139830967D01*
X111565479Y-139830968D01*
X111569588Y-139832185D01*
X111573825Y-139832833D01*
X111573828Y-139832834D01*
X111719578Y-139855137D01*
X111843527Y-139874104D01*
X111984602Y-139876320D01*
X112116330Y-139878390D01*
X112116336Y-139878390D01*
X112120621Y-139878457D01*
X112395742Y-139845164D01*
X112577738Y-139797418D01*
X112659657Y-139775927D01*
X112659658Y-139775927D01*
X112663800Y-139774840D01*
X112919833Y-139668788D01*
X113039468Y-139598879D01*
X113155401Y-139531133D01*
X113155402Y-139531132D01*
X113159104Y-139528969D01*
X113377186Y-139357971D01*
X113416740Y-139317155D01*
X113567060Y-139162036D01*
X113570043Y-139158958D01*
X113572576Y-139155510D01*
X113572580Y-139155505D01*
X113731568Y-138939068D01*
X113734106Y-138935613D01*
X113836899Y-138746292D01*
X113864290Y-138695844D01*
X113864291Y-138695842D01*
X113866340Y-138692068D01*
X113964298Y-138432830D01*
X113987506Y-138331500D01*
X114025210Y-138166876D01*
X114025211Y-138166871D01*
X114026167Y-138162696D01*
X114050802Y-137886665D01*
X114051249Y-137844000D01*
X114049787Y-137822560D01*
X114032692Y-137571791D01*
X114032691Y-137571785D01*
X114032400Y-137567514D01*
X113976202Y-137296143D01*
X113883695Y-137034911D01*
X113756590Y-136788650D01*
X113752894Y-136783390D01*
X113599707Y-136565428D01*
X113599706Y-136565427D01*
X113597240Y-136561918D01*
X113447986Y-136401301D01*
X113411510Y-136362048D01*
X113411509Y-136362047D01*
X113408593Y-136358909D01*
X113298876Y-136269107D01*
X113266331Y-136242469D01*
X113226285Y-136183844D01*
X113224292Y-136112876D01*
X113260983Y-136052095D01*
X113268391Y-136045811D01*
X113375142Y-135962108D01*
X113378523Y-135959457D01*
X113434243Y-135901959D01*
X113568587Y-135763326D01*
X113571570Y-135760248D01*
X113574103Y-135756800D01*
X113574107Y-135756795D01*
X113718932Y-135559639D01*
X113735794Y-135536684D01*
X113763532Y-135485597D01*
X113866108Y-135296676D01*
X113866109Y-135296674D01*
X113868158Y-135292900D01*
X113940849Y-135100530D01*
X113964694Y-135037426D01*
X113964695Y-135037422D01*
X113966212Y-135033408D01*
X114028141Y-134763009D01*
X114041852Y-134609391D01*
X114052581Y-134489171D01*
X114052801Y-134486707D01*
X114053248Y-134444000D01*
X114034381Y-134167242D01*
X114010041Y-134049708D01*
X113983367Y-133920908D01*
X113978127Y-133895606D01*
X113921884Y-133736779D01*
X113886960Y-133638158D01*
X113885529Y-133634117D01*
X113875437Y-133614563D01*
X113760265Y-133391421D01*
X113760265Y-133391420D01*
X113758300Y-133387614D01*
X113743051Y-133365916D01*
X113601260Y-133164170D01*
X113601259Y-133164169D01*
X113598793Y-133160660D01*
X113409961Y-132957452D01*
X113392201Y-132942915D01*
X113198616Y-132784468D01*
X113195298Y-132781752D01*
X112958776Y-132636811D01*
X112954859Y-132635092D01*
X112954856Y-132635090D01*
X112788786Y-132562191D01*
X112704771Y-132525311D01*
X112700643Y-132524135D01*
X112700640Y-132524134D01*
X112618666Y-132500783D01*
X112437983Y-132449314D01*
X112433741Y-132448710D01*
X112433735Y-132448709D01*
X112167602Y-132410833D01*
X112163351Y-132410228D01*
X112017817Y-132409466D01*
X111890242Y-132408798D01*
X111890236Y-132408798D01*
X111885955Y-132408776D01*
X111881711Y-132409335D01*
X111881707Y-132409335D01*
X111760821Y-132425250D01*
X111610928Y-132444984D01*
X111606788Y-132446117D01*
X111606786Y-132446117D01*
X111534280Y-132465952D01*
X111343359Y-132518182D01*
X111088201Y-132627017D01*
X111042920Y-132654117D01*
X110853855Y-132767269D01*
X110853851Y-132767272D01*
X110850173Y-132769473D01*
X110633682Y-132942915D01*
X110630738Y-132946017D01*
X110630734Y-132946021D01*
X110445682Y-133141025D01*
X110442732Y-133144134D01*
X110280858Y-133369406D01*
X110151054Y-133614563D01*
X110055723Y-133875068D01*
X109996628Y-134146100D01*
X109996292Y-134150370D01*
X109981707Y-134335700D01*
X109974864Y-134422645D01*
X105306597Y-134422645D01*
X105250134Y-134335700D01*
X105248332Y-134332925D01*
X105016902Y-134047133D01*
X104756867Y-133787098D01*
X104471075Y-133555668D01*
X104269965Y-133425066D01*
X104165427Y-133357178D01*
X104165424Y-133357176D01*
X104162658Y-133355380D01*
X104159724Y-133353885D01*
X104159717Y-133353881D01*
X103837934Y-133189925D01*
X103834994Y-133188427D01*
X103563236Y-133084109D01*
X103494764Y-133057825D01*
X103494762Y-133057824D01*
X103491674Y-133056639D01*
X103136459Y-132961459D01*
X102943442Y-132930888D01*
X102776489Y-132904445D01*
X102776481Y-132904444D01*
X102773241Y-132903931D01*
X102406000Y-132884685D01*
X102038759Y-132903931D01*
X102035519Y-132904444D01*
X102035511Y-132904445D01*
X101868558Y-132930888D01*
X101675541Y-132961459D01*
X101320326Y-133056639D01*
X101317238Y-133057824D01*
X101317236Y-133057825D01*
X101248764Y-133084109D01*
X100977006Y-133188427D01*
X100974066Y-133189925D01*
X100652284Y-133353881D01*
X100652277Y-133353885D01*
X100649343Y-133355380D01*
X100646577Y-133357176D01*
X100646574Y-133357178D01*
X100536048Y-133428954D01*
X100340925Y-133555668D01*
X100055133Y-133787098D01*
X99795098Y-134047133D01*
X99563668Y-134332925D01*
X99561866Y-134335700D01*
X99411841Y-134566720D01*
X99363380Y-134641343D01*
X99361885Y-134644277D01*
X99361881Y-134644284D01*
X99235625Y-134892076D01*
X99196427Y-134969006D01*
X99170163Y-135037426D01*
X99093144Y-135238069D01*
X99064639Y-135312326D01*
X98969459Y-135667541D01*
X98938888Y-135860558D01*
X98923713Y-135956373D01*
X98911931Y-136030759D01*
X98892685Y-136398000D01*
X90424500Y-136398000D01*
X90424500Y-123569200D01*
X98714885Y-123569200D01*
X98734131Y-123936441D01*
X98734644Y-123939681D01*
X98734645Y-123939689D01*
X98741145Y-123980728D01*
X98791659Y-124299659D01*
X98886839Y-124654874D01*
X99018627Y-124998194D01*
X99020125Y-125001134D01*
X99179707Y-125314330D01*
X99185580Y-125325857D01*
X99187376Y-125328623D01*
X99187378Y-125328626D01*
X99284697Y-125478485D01*
X99385868Y-125634275D01*
X99617298Y-125920067D01*
X99877333Y-126180102D01*
X100163125Y-126411532D01*
X100165900Y-126413334D01*
X100410439Y-126572139D01*
X100471542Y-126611820D01*
X100474476Y-126613315D01*
X100474483Y-126613319D01*
X100734587Y-126745848D01*
X100799206Y-126778773D01*
X101008982Y-126859298D01*
X101130840Y-126906075D01*
X101142526Y-126910561D01*
X101497741Y-127005741D01*
X101690758Y-127036312D01*
X101857711Y-127062755D01*
X101857719Y-127062756D01*
X101860959Y-127063269D01*
X102228200Y-127082515D01*
X102595441Y-127063269D01*
X102598681Y-127062756D01*
X102598689Y-127062755D01*
X102765642Y-127036312D01*
X102958659Y-127005741D01*
X103313874Y-126910561D01*
X103325561Y-126906075D01*
X103447418Y-126859298D01*
X103657194Y-126778773D01*
X103721813Y-126745848D01*
X103981917Y-126613319D01*
X103981924Y-126613315D01*
X103984858Y-126611820D01*
X104045962Y-126572139D01*
X104290500Y-126413334D01*
X104293275Y-126411532D01*
X104579067Y-126180102D01*
X104839102Y-125920067D01*
X105070532Y-125634275D01*
X105171703Y-125478485D01*
X105269022Y-125328626D01*
X105269024Y-125328623D01*
X105270820Y-125325857D01*
X105276694Y-125314330D01*
X105436275Y-125001134D01*
X105437773Y-124998194D01*
X105569561Y-124654874D01*
X105664741Y-124299659D01*
X105715255Y-123980728D01*
X105721755Y-123939689D01*
X105721756Y-123939681D01*
X105722269Y-123936441D01*
X105741515Y-123569200D01*
X105722269Y-123201959D01*
X105720142Y-123188526D01*
X105678925Y-122928294D01*
X105664741Y-122838741D01*
X105569561Y-122483526D01*
X105437773Y-122140206D01*
X105320189Y-121909434D01*
X105288808Y-121847845D01*
X110051064Y-121847845D01*
X110067032Y-122124786D01*
X110067857Y-122128993D01*
X110067858Y-122128998D01*
X110078636Y-122183932D01*
X110120438Y-122396996D01*
X110121825Y-122401047D01*
X110195255Y-122615519D01*
X110210292Y-122659440D01*
X110212218Y-122663269D01*
X110315839Y-122869295D01*
X110334934Y-122907262D01*
X110337360Y-122910791D01*
X110337363Y-122910797D01*
X110378604Y-122970802D01*
X110492055Y-123135874D01*
X110494942Y-123139047D01*
X110494943Y-123139048D01*
X110520935Y-123167613D01*
X110678748Y-123341048D01*
X110734310Y-123387505D01*
X110838284Y-123474441D01*
X110877713Y-123533482D01*
X110878964Y-123604468D01*
X110836241Y-123669438D01*
X110714591Y-123766897D01*
X110714580Y-123766907D01*
X110711235Y-123769587D01*
X110708278Y-123772703D01*
X110708277Y-123772704D01*
X110704477Y-123776708D01*
X110520473Y-123970609D01*
X110358757Y-124195660D01*
X110229080Y-124440576D01*
X110181461Y-124570701D01*
X110146545Y-124666117D01*
X110133843Y-124700826D01*
X110074806Y-124971592D01*
X110074470Y-124975862D01*
X110062819Y-125123909D01*
X110053063Y-125247866D01*
X110069015Y-125524535D01*
X110069840Y-125528742D01*
X110069841Y-125528747D01*
X110082266Y-125592076D01*
X110122369Y-125796479D01*
X110123756Y-125800530D01*
X110209583Y-126051211D01*
X110212135Y-126058666D01*
X110336654Y-126306244D01*
X110374158Y-126360813D01*
X110481913Y-126517597D01*
X110493621Y-126534633D01*
X110680132Y-126739605D01*
X110687599Y-126745848D01*
X110889443Y-126914617D01*
X110889448Y-126914621D01*
X110892735Y-126917369D01*
X110945695Y-126950591D01*
X111123856Y-127062352D01*
X111123860Y-127062354D01*
X111127496Y-127064635D01*
X111380072Y-127178677D01*
X111384192Y-127179897D01*
X111384191Y-127179897D01*
X111641675Y-127256167D01*
X111641679Y-127256168D01*
X111645788Y-127257385D01*
X111650025Y-127258033D01*
X111650028Y-127258034D01*
X111795778Y-127280337D01*
X111919727Y-127299304D01*
X112060802Y-127301520D01*
X112192530Y-127303590D01*
X112192536Y-127303590D01*
X112196821Y-127303657D01*
X112471942Y-127270364D01*
X112605971Y-127235202D01*
X112735857Y-127201127D01*
X112735858Y-127201127D01*
X112740000Y-127200040D01*
X112996033Y-127093988D01*
X113147049Y-127005741D01*
X113231601Y-126956333D01*
X113231602Y-126956332D01*
X113235304Y-126954169D01*
X113453386Y-126783171D01*
X113492631Y-126742674D01*
X113643260Y-126587236D01*
X113646243Y-126584158D01*
X113648776Y-126580710D01*
X113648780Y-126580705D01*
X113807768Y-126364268D01*
X113810306Y-126360813D01*
X113909697Y-126177758D01*
X113940490Y-126121044D01*
X113940491Y-126121042D01*
X113942540Y-126117268D01*
X114040498Y-125858030D01*
X114069458Y-125731586D01*
X114101410Y-125592076D01*
X114101411Y-125592071D01*
X114102367Y-125587896D01*
X114127002Y-125311865D01*
X114127449Y-125269200D01*
X114125987Y-125247760D01*
X114108892Y-124996991D01*
X114108891Y-124996985D01*
X114108600Y-124992714D01*
X114052402Y-124721343D01*
X113959895Y-124460111D01*
X113832790Y-124213850D01*
X113829094Y-124208590D01*
X113675907Y-123990628D01*
X113675906Y-123990627D01*
X113673440Y-123987118D01*
X113484793Y-123784109D01*
X113474772Y-123775907D01*
X113342531Y-123667669D01*
X113302485Y-123609044D01*
X113300492Y-123538076D01*
X113337183Y-123477295D01*
X113344591Y-123471011D01*
X113451342Y-123387308D01*
X113454723Y-123384657D01*
X113510102Y-123327511D01*
X113644787Y-123188526D01*
X113647770Y-123185448D01*
X113650303Y-123182000D01*
X113650307Y-123181995D01*
X113805443Y-122970802D01*
X113811994Y-122961884D01*
X113830476Y-122927844D01*
X113942308Y-122721876D01*
X113942309Y-122721874D01*
X113944358Y-122718100D01*
X114042412Y-122458608D01*
X114104341Y-122188209D01*
X114129001Y-121911907D01*
X114129448Y-121869200D01*
X114110581Y-121592442D01*
X114098135Y-121532340D01*
X114055197Y-121325008D01*
X114054327Y-121320806D01*
X113961729Y-121059317D01*
X113951637Y-121039763D01*
X113836465Y-120816621D01*
X113836465Y-120816620D01*
X113834500Y-120812814D01*
X113823687Y-120797428D01*
X113677460Y-120589370D01*
X113677459Y-120589369D01*
X113674993Y-120585860D01*
X113486161Y-120382652D01*
X113468401Y-120368115D01*
X113335225Y-120259112D01*
X113271498Y-120206952D01*
X113034976Y-120062011D01*
X113031059Y-120060292D01*
X113031056Y-120060290D01*
X112919166Y-120011174D01*
X112780971Y-119950511D01*
X112776843Y-119949335D01*
X112776840Y-119949334D01*
X112694866Y-119925983D01*
X112514183Y-119874514D01*
X112509941Y-119873910D01*
X112509935Y-119873909D01*
X112243802Y-119836033D01*
X112239551Y-119835428D01*
X112094017Y-119834666D01*
X111966442Y-119833998D01*
X111966436Y-119833998D01*
X111962155Y-119833976D01*
X111957911Y-119834535D01*
X111957907Y-119834535D01*
X111837021Y-119850450D01*
X111687128Y-119870184D01*
X111682988Y-119871317D01*
X111682986Y-119871317D01*
X111610480Y-119891152D01*
X111419559Y-119943382D01*
X111164401Y-120052217D01*
X111044249Y-120124126D01*
X110930055Y-120192469D01*
X110930051Y-120192472D01*
X110926373Y-120194673D01*
X110709882Y-120368115D01*
X110706938Y-120371217D01*
X110706934Y-120371221D01*
X110521882Y-120566225D01*
X110518932Y-120569334D01*
X110357058Y-120794606D01*
X110227254Y-121039763D01*
X110210695Y-121085013D01*
X110149804Y-121251407D01*
X110131923Y-121300268D01*
X110072828Y-121571300D01*
X110051064Y-121847845D01*
X105288808Y-121847845D01*
X105272319Y-121815484D01*
X105272315Y-121815477D01*
X105270820Y-121812543D01*
X105265137Y-121803791D01*
X105086129Y-121528143D01*
X105070532Y-121504125D01*
X104839102Y-121218333D01*
X104579067Y-120958298D01*
X104293275Y-120726868D01*
X104079734Y-120588193D01*
X103987627Y-120528378D01*
X103987624Y-120528376D01*
X103984858Y-120526580D01*
X103981924Y-120525085D01*
X103981917Y-120525081D01*
X103660134Y-120361125D01*
X103657194Y-120359627D01*
X103403685Y-120262314D01*
X103316964Y-120229025D01*
X103316962Y-120229024D01*
X103313874Y-120227839D01*
X102958659Y-120132659D01*
X102765642Y-120102088D01*
X102598689Y-120075645D01*
X102598681Y-120075644D01*
X102595441Y-120075131D01*
X102228200Y-120055885D01*
X101860959Y-120075131D01*
X101857719Y-120075644D01*
X101857711Y-120075645D01*
X101690758Y-120102088D01*
X101497741Y-120132659D01*
X101142526Y-120227839D01*
X101139438Y-120229024D01*
X101139436Y-120229025D01*
X101052715Y-120262314D01*
X100799206Y-120359627D01*
X100796266Y-120361125D01*
X100474484Y-120525081D01*
X100474477Y-120525085D01*
X100471543Y-120526580D01*
X100468777Y-120528376D01*
X100468774Y-120528378D01*
X100367651Y-120594048D01*
X100163125Y-120726868D01*
X99877333Y-120958298D01*
X99617298Y-121218333D01*
X99385868Y-121504125D01*
X99370271Y-121528143D01*
X99191264Y-121803791D01*
X99185580Y-121812543D01*
X99184085Y-121815477D01*
X99184081Y-121815484D01*
X99136211Y-121909434D01*
X99018627Y-122140206D01*
X98886839Y-122483526D01*
X98791659Y-122838741D01*
X98777475Y-122928294D01*
X98736259Y-123188526D01*
X98734131Y-123201959D01*
X98714885Y-123569200D01*
X90424500Y-123569200D01*
X90424500Y-110744000D01*
X98638685Y-110744000D01*
X98657931Y-111111241D01*
X98658444Y-111114481D01*
X98658445Y-111114489D01*
X98676274Y-111227055D01*
X98715459Y-111474459D01*
X98810639Y-111829674D01*
X98942427Y-112172994D01*
X98943925Y-112175934D01*
X99097280Y-112476909D01*
X99109380Y-112500657D01*
X99111176Y-112503423D01*
X99111178Y-112503426D01*
X99190685Y-112625857D01*
X99309668Y-112809075D01*
X99541098Y-113094867D01*
X99801133Y-113354902D01*
X100086925Y-113586332D01*
X100395342Y-113786620D01*
X100398276Y-113788115D01*
X100398283Y-113788119D01*
X100632859Y-113907641D01*
X100723006Y-113953573D01*
X100932782Y-114034098D01*
X101049164Y-114078773D01*
X101066326Y-114085361D01*
X101421541Y-114180541D01*
X101581456Y-114205869D01*
X101781511Y-114237555D01*
X101781519Y-114237556D01*
X101784759Y-114238069D01*
X102152000Y-114257315D01*
X102519241Y-114238069D01*
X102522481Y-114237556D01*
X102522489Y-114237555D01*
X102722544Y-114205869D01*
X102882459Y-114180541D01*
X103237674Y-114085361D01*
X103254837Y-114078773D01*
X103371218Y-114034098D01*
X103580994Y-113953573D01*
X103671141Y-113907641D01*
X103905717Y-113788119D01*
X103905724Y-113788115D01*
X103908658Y-113786620D01*
X104217075Y-113586332D01*
X104502867Y-113354902D01*
X104762902Y-113094867D01*
X104994332Y-112809075D01*
X105113315Y-112625857D01*
X105192822Y-112503426D01*
X105192824Y-112503423D01*
X105194620Y-112500657D01*
X105206721Y-112476909D01*
X105360075Y-112175934D01*
X105361573Y-112172994D01*
X105493361Y-111829674D01*
X105588541Y-111474459D01*
X105627726Y-111227055D01*
X105645555Y-111114489D01*
X105645556Y-111114481D01*
X105646069Y-111111241D01*
X105665315Y-110744000D01*
X105646069Y-110376759D01*
X105588541Y-110013541D01*
X105493361Y-109658326D01*
X105483097Y-109631586D01*
X105376789Y-109354645D01*
X110101864Y-109354645D01*
X110117832Y-109631586D01*
X110118657Y-109635793D01*
X110118658Y-109635798D01*
X110137816Y-109733444D01*
X110171238Y-109903796D01*
X110172625Y-109907847D01*
X110252794Y-110142002D01*
X110261092Y-110166240D01*
X110292494Y-110228676D01*
X110382610Y-110407850D01*
X110385734Y-110414062D01*
X110388160Y-110417591D01*
X110388163Y-110417597D01*
X110443907Y-110498704D01*
X110542855Y-110642674D01*
X110545742Y-110645847D01*
X110545743Y-110645848D01*
X110713136Y-110829811D01*
X110729548Y-110847848D01*
X110785550Y-110894673D01*
X110889084Y-110981241D01*
X110928513Y-111040282D01*
X110929764Y-111111268D01*
X110887041Y-111176238D01*
X110765391Y-111273697D01*
X110765380Y-111273707D01*
X110762035Y-111276387D01*
X110571273Y-111477409D01*
X110409557Y-111702460D01*
X110279880Y-111947376D01*
X110253009Y-112020806D01*
X110196241Y-112175934D01*
X110184643Y-112207626D01*
X110125606Y-112478392D01*
X110103863Y-112754666D01*
X110119815Y-113031335D01*
X110120640Y-113035542D01*
X110120641Y-113035547D01*
X110133066Y-113098876D01*
X110173169Y-113303279D01*
X110174556Y-113307330D01*
X110233709Y-113480102D01*
X110262935Y-113565466D01*
X110387454Y-113813044D01*
X110544421Y-114041433D01*
X110730932Y-114246405D01*
X110734221Y-114249155D01*
X110940243Y-114421417D01*
X110940248Y-114421421D01*
X110943535Y-114424169D01*
X111060916Y-114497802D01*
X111174656Y-114569152D01*
X111174660Y-114569154D01*
X111178296Y-114571435D01*
X111430872Y-114685477D01*
X111434992Y-114686697D01*
X111434991Y-114686697D01*
X111692475Y-114762967D01*
X111692479Y-114762968D01*
X111696588Y-114764185D01*
X111700825Y-114764833D01*
X111700828Y-114764834D01*
X111846578Y-114787137D01*
X111970527Y-114806104D01*
X112111602Y-114808320D01*
X112243330Y-114810390D01*
X112243336Y-114810390D01*
X112247621Y-114810457D01*
X112522742Y-114777164D01*
X112656771Y-114742002D01*
X112786657Y-114707927D01*
X112786658Y-114707927D01*
X112790800Y-114706840D01*
X113046833Y-114600788D01*
X113218809Y-114500293D01*
X113282401Y-114463133D01*
X113282402Y-114463132D01*
X113286104Y-114460969D01*
X113504186Y-114289971D01*
X113537130Y-114255976D01*
X113694060Y-114094036D01*
X113697043Y-114090958D01*
X113699576Y-114087510D01*
X113699580Y-114087505D01*
X113858568Y-113871068D01*
X113861106Y-113867613D01*
X113945851Y-113711532D01*
X113991290Y-113627844D01*
X113991291Y-113627842D01*
X113993340Y-113624068D01*
X114091298Y-113364830D01*
X114128545Y-113202200D01*
X114152210Y-113098876D01*
X114152211Y-113098871D01*
X114153167Y-113094696D01*
X114177802Y-112818665D01*
X114177876Y-112811651D01*
X114178223Y-112778484D01*
X114178223Y-112778483D01*
X114178249Y-112776000D01*
X114176787Y-112754560D01*
X114159692Y-112503791D01*
X114159691Y-112503785D01*
X114159400Y-112499514D01*
X114103202Y-112228143D01*
X114010695Y-111966911D01*
X113883590Y-111720650D01*
X113879894Y-111715390D01*
X113726707Y-111497428D01*
X113726706Y-111497427D01*
X113724240Y-111493918D01*
X113535593Y-111290909D01*
X113532275Y-111288193D01*
X113393331Y-111174469D01*
X113353285Y-111115844D01*
X113351292Y-111044876D01*
X113387983Y-110984095D01*
X113395391Y-110977811D01*
X113481895Y-110909984D01*
X113505523Y-110891457D01*
X113521363Y-110875112D01*
X113695587Y-110695326D01*
X113698570Y-110692248D01*
X113701103Y-110688800D01*
X113701107Y-110688795D01*
X113860256Y-110472139D01*
X113862794Y-110468684D01*
X113890532Y-110417597D01*
X113993108Y-110228676D01*
X113993109Y-110228674D01*
X113995158Y-110224900D01*
X114047961Y-110085161D01*
X114091694Y-109969426D01*
X114091695Y-109969422D01*
X114093212Y-109965408D01*
X114135577Y-109780432D01*
X114154183Y-109699193D01*
X114154184Y-109699189D01*
X114155141Y-109695009D01*
X114156280Y-109682255D01*
X114179581Y-109421171D01*
X114179801Y-109418707D01*
X114180248Y-109376000D01*
X114161381Y-109099242D01*
X114152946Y-109058508D01*
X114105997Y-108831808D01*
X114105127Y-108827606D01*
X114012529Y-108566117D01*
X114002437Y-108546563D01*
X113887265Y-108323421D01*
X113887265Y-108323420D01*
X113885300Y-108319614D01*
X113870051Y-108297916D01*
X113728260Y-108096170D01*
X113728259Y-108096169D01*
X113725793Y-108092660D01*
X113536961Y-107889452D01*
X113526303Y-107880728D01*
X113325616Y-107716468D01*
X113322298Y-107713752D01*
X113085776Y-107568811D01*
X113081859Y-107567092D01*
X113081856Y-107567090D01*
X112941909Y-107505658D01*
X112831771Y-107457311D01*
X112827643Y-107456135D01*
X112827640Y-107456134D01*
X112700906Y-107420033D01*
X112564983Y-107381314D01*
X112560741Y-107380710D01*
X112560735Y-107380709D01*
X112294602Y-107342833D01*
X112290351Y-107342228D01*
X112144817Y-107341466D01*
X112017242Y-107340798D01*
X112017236Y-107340798D01*
X112012955Y-107340776D01*
X112008711Y-107341335D01*
X112008707Y-107341335D01*
X111906546Y-107354785D01*
X111737928Y-107376984D01*
X111733788Y-107378117D01*
X111733786Y-107378117D01*
X111691292Y-107389742D01*
X111470359Y-107450182D01*
X111215201Y-107559017D01*
X111195099Y-107571048D01*
X110980855Y-107699269D01*
X110980851Y-107699272D01*
X110977173Y-107701473D01*
X110760682Y-107874915D01*
X110757738Y-107878017D01*
X110757734Y-107878021D01*
X110572682Y-108073025D01*
X110569732Y-108076134D01*
X110407858Y-108301406D01*
X110278054Y-108546563D01*
X110182723Y-108807068D01*
X110123628Y-109078100D01*
X110120319Y-109120144D01*
X110104984Y-109315006D01*
X110101864Y-109354645D01*
X105376789Y-109354645D01*
X105362757Y-109318091D01*
X105361573Y-109315006D01*
X105360075Y-109312066D01*
X105196119Y-108990284D01*
X105196115Y-108990277D01*
X105194620Y-108987343D01*
X105142752Y-108907472D01*
X105036465Y-108743805D01*
X104994332Y-108678925D01*
X104762902Y-108393133D01*
X104502867Y-108133098D01*
X104217075Y-107901668D01*
X104099147Y-107825085D01*
X103911427Y-107703178D01*
X103911424Y-107703176D01*
X103908658Y-107701380D01*
X103905724Y-107699885D01*
X103905717Y-107699881D01*
X103583934Y-107535925D01*
X103580994Y-107534427D01*
X103281531Y-107419474D01*
X103240764Y-107403825D01*
X103240762Y-107403824D01*
X103237674Y-107402639D01*
X102882459Y-107307459D01*
X102689442Y-107276888D01*
X102522489Y-107250445D01*
X102522481Y-107250444D01*
X102519241Y-107249931D01*
X102152000Y-107230685D01*
X101784759Y-107249931D01*
X101781519Y-107250444D01*
X101781511Y-107250445D01*
X101614558Y-107276888D01*
X101421541Y-107307459D01*
X101066326Y-107402639D01*
X101063238Y-107403824D01*
X101063236Y-107403825D01*
X101022469Y-107419474D01*
X100723006Y-107534427D01*
X100720066Y-107535925D01*
X100398284Y-107699881D01*
X100398277Y-107699885D01*
X100395343Y-107701380D01*
X100392577Y-107703176D01*
X100392574Y-107703178D01*
X100188482Y-107835716D01*
X100086925Y-107901668D01*
X99801133Y-108133098D01*
X99541098Y-108393133D01*
X99309668Y-108678925D01*
X99267535Y-108743805D01*
X99161249Y-108907472D01*
X99109380Y-108987343D01*
X99107885Y-108990277D01*
X99107881Y-108990284D01*
X98943925Y-109312066D01*
X98942427Y-109315006D01*
X98941243Y-109318091D01*
X98820904Y-109631586D01*
X98810639Y-109658326D01*
X98715459Y-110013541D01*
X98657931Y-110376759D01*
X98638685Y-110744000D01*
X90424500Y-110744000D01*
X90424500Y-98169200D01*
X98714885Y-98169200D01*
X98734131Y-98536441D01*
X98734644Y-98539681D01*
X98734645Y-98539689D01*
X98758677Y-98691421D01*
X98791659Y-98899659D01*
X98886839Y-99254874D01*
X99018627Y-99598194D01*
X99020125Y-99601134D01*
X99114767Y-99786878D01*
X99185580Y-99925857D01*
X99187376Y-99928623D01*
X99187378Y-99928626D01*
X99236032Y-100003547D01*
X99385868Y-100234275D01*
X99617298Y-100520067D01*
X99877333Y-100780102D01*
X100163125Y-101011532D01*
X100471542Y-101211820D01*
X100474476Y-101213315D01*
X100474483Y-101213319D01*
X100724326Y-101340620D01*
X100799206Y-101378773D01*
X100935609Y-101431133D01*
X101130840Y-101506075D01*
X101142526Y-101510561D01*
X101497741Y-101605741D01*
X101690758Y-101636312D01*
X101857711Y-101662755D01*
X101857719Y-101662756D01*
X101860959Y-101663269D01*
X102228200Y-101682515D01*
X102595441Y-101663269D01*
X102598681Y-101662756D01*
X102598689Y-101662755D01*
X102765642Y-101636312D01*
X102958659Y-101605741D01*
X103313874Y-101510561D01*
X103325561Y-101506075D01*
X103520791Y-101431133D01*
X103657194Y-101378773D01*
X103732074Y-101340620D01*
X103981917Y-101213319D01*
X103981924Y-101213315D01*
X103984858Y-101211820D01*
X104293275Y-101011532D01*
X104579067Y-100780102D01*
X104839102Y-100520067D01*
X105070532Y-100234275D01*
X105220368Y-100003547D01*
X105269022Y-99928626D01*
X105269024Y-99928623D01*
X105270820Y-99925857D01*
X105341634Y-99786878D01*
X105436275Y-99601134D01*
X105437773Y-99598194D01*
X105569561Y-99254874D01*
X105664741Y-98899659D01*
X105697723Y-98691421D01*
X105721755Y-98539689D01*
X105721756Y-98539681D01*
X105722269Y-98536441D01*
X105741515Y-98169200D01*
X105722269Y-97801959D01*
X105664741Y-97438741D01*
X105569561Y-97083526D01*
X105437773Y-96740206D01*
X105400571Y-96667193D01*
X105272319Y-96415484D01*
X105272315Y-96415477D01*
X105270820Y-96412543D01*
X105255616Y-96389130D01*
X105212440Y-96322645D01*
X110051064Y-96322645D01*
X110067032Y-96599586D01*
X110120438Y-96871796D01*
X110210292Y-97134240D01*
X110334934Y-97382062D01*
X110337360Y-97385591D01*
X110337363Y-97385597D01*
X110489624Y-97607137D01*
X110492055Y-97610674D01*
X110494942Y-97613847D01*
X110494943Y-97613848D01*
X110663155Y-97798711D01*
X110678748Y-97815848D01*
X110738150Y-97865516D01*
X110838284Y-97949241D01*
X110877713Y-98008282D01*
X110878964Y-98079268D01*
X110836241Y-98144238D01*
X110714591Y-98241697D01*
X110714580Y-98241707D01*
X110711235Y-98244387D01*
X110520473Y-98445409D01*
X110358757Y-98670460D01*
X110229080Y-98915376D01*
X110133843Y-99175626D01*
X110074806Y-99446392D01*
X110053063Y-99722666D01*
X110069015Y-99999335D01*
X110069840Y-100003542D01*
X110069841Y-100003547D01*
X110082266Y-100066876D01*
X110122369Y-100271279D01*
X110123756Y-100275330D01*
X110207548Y-100520067D01*
X110212135Y-100533466D01*
X110336654Y-100781044D01*
X110493621Y-101009433D01*
X110680132Y-101214405D01*
X110683421Y-101217155D01*
X110889443Y-101389417D01*
X110889448Y-101389421D01*
X110892735Y-101392169D01*
X110947176Y-101426320D01*
X111123856Y-101537152D01*
X111123860Y-101537154D01*
X111127496Y-101539435D01*
X111380072Y-101653477D01*
X111384192Y-101654697D01*
X111384191Y-101654697D01*
X111641675Y-101730967D01*
X111641679Y-101730968D01*
X111645788Y-101732185D01*
X111650025Y-101732833D01*
X111650028Y-101732834D01*
X111743433Y-101747127D01*
X111919727Y-101774104D01*
X112060802Y-101776320D01*
X112192530Y-101778390D01*
X112192536Y-101778390D01*
X112196821Y-101778457D01*
X112471942Y-101745164D01*
X112605971Y-101710002D01*
X112735857Y-101675927D01*
X112735858Y-101675927D01*
X112740000Y-101674840D01*
X112996033Y-101568788D01*
X113115669Y-101498878D01*
X113231601Y-101431133D01*
X113231602Y-101431132D01*
X113235304Y-101428969D01*
X113453386Y-101257971D01*
X113492940Y-101217155D01*
X113643260Y-101062036D01*
X113646243Y-101058958D01*
X113648776Y-101055510D01*
X113648780Y-101055505D01*
X113807768Y-100839068D01*
X113810306Y-100835613D01*
X113837129Y-100786212D01*
X113940490Y-100595844D01*
X113940491Y-100595842D01*
X113942540Y-100592068D01*
X114040498Y-100332830D01*
X114102367Y-100062696D01*
X114127002Y-99786665D01*
X114127449Y-99744000D01*
X114125987Y-99722560D01*
X114108892Y-99471791D01*
X114108891Y-99471785D01*
X114108600Y-99467514D01*
X114104166Y-99446100D01*
X114065204Y-99257964D01*
X114052402Y-99196143D01*
X113959895Y-98934911D01*
X113832790Y-98688650D01*
X113829094Y-98683390D01*
X113675907Y-98465428D01*
X113675906Y-98465427D01*
X113673440Y-98461918D01*
X113524186Y-98301301D01*
X113487710Y-98262048D01*
X113487709Y-98262047D01*
X113484793Y-98258909D01*
X113463764Y-98241697D01*
X113342531Y-98142469D01*
X113302485Y-98083844D01*
X113300492Y-98012876D01*
X113337183Y-97952095D01*
X113344591Y-97945811D01*
X113451342Y-97862108D01*
X113454723Y-97859457D01*
X113498382Y-97814405D01*
X113644787Y-97663326D01*
X113647770Y-97660248D01*
X113650303Y-97656800D01*
X113650307Y-97656795D01*
X113795132Y-97459639D01*
X113811994Y-97436684D01*
X113814040Y-97432916D01*
X113942308Y-97196676D01*
X113942309Y-97196674D01*
X113944358Y-97192900D01*
X114042412Y-96933408D01*
X114104341Y-96663009D01*
X114104751Y-96658422D01*
X114128781Y-96389171D01*
X114129001Y-96386707D01*
X114129448Y-96344000D01*
X114128286Y-96326946D01*
X114121700Y-96230349D01*
X114110581Y-96067242D01*
X114107148Y-96050662D01*
X114059567Y-95820908D01*
X114054327Y-95795606D01*
X113961729Y-95534117D01*
X113952057Y-95515376D01*
X113836465Y-95291421D01*
X113836465Y-95291420D01*
X113834500Y-95287614D01*
X113831532Y-95283390D01*
X113677460Y-95064170D01*
X113677459Y-95064169D01*
X113674993Y-95060660D01*
X113486161Y-94857452D01*
X113468401Y-94842915D01*
X113333064Y-94732143D01*
X113271498Y-94681752D01*
X113034976Y-94536811D01*
X113031059Y-94535092D01*
X113031056Y-94535090D01*
X112919166Y-94485974D01*
X112780971Y-94425311D01*
X112776843Y-94424135D01*
X112776840Y-94424134D01*
X112694866Y-94400783D01*
X112514183Y-94349314D01*
X112509941Y-94348710D01*
X112509935Y-94348709D01*
X112243802Y-94310833D01*
X112239551Y-94310228D01*
X112094017Y-94309466D01*
X111966442Y-94308798D01*
X111966436Y-94308798D01*
X111962155Y-94308776D01*
X111957911Y-94309335D01*
X111957907Y-94309335D01*
X111837021Y-94325250D01*
X111687128Y-94344984D01*
X111682988Y-94346117D01*
X111682986Y-94346117D01*
X111610480Y-94365952D01*
X111419559Y-94418182D01*
X111164401Y-94527017D01*
X111145076Y-94538583D01*
X110930055Y-94667269D01*
X110930051Y-94667272D01*
X110926373Y-94669473D01*
X110709882Y-94842915D01*
X110706938Y-94846017D01*
X110706934Y-94846021D01*
X110521882Y-95041025D01*
X110518932Y-95044134D01*
X110357058Y-95269406D01*
X110227254Y-95514563D01*
X110131923Y-95775068D01*
X110072828Y-96046100D01*
X110072492Y-96050370D01*
X110057907Y-96235700D01*
X110051064Y-96322645D01*
X105212440Y-96322645D01*
X105072334Y-96106900D01*
X105070532Y-96104125D01*
X104839102Y-95818333D01*
X104579067Y-95558298D01*
X104293275Y-95326868D01*
X103984858Y-95126580D01*
X103981924Y-95125085D01*
X103981917Y-95125081D01*
X103660134Y-94961125D01*
X103657194Y-94959627D01*
X103356983Y-94844387D01*
X103316964Y-94829025D01*
X103316962Y-94829024D01*
X103313874Y-94827839D01*
X102958659Y-94732659D01*
X102765642Y-94702088D01*
X102598689Y-94675645D01*
X102598681Y-94675644D01*
X102595441Y-94675131D01*
X102228200Y-94655885D01*
X101860959Y-94675131D01*
X101857719Y-94675644D01*
X101857711Y-94675645D01*
X101690758Y-94702088D01*
X101497741Y-94732659D01*
X101142526Y-94827839D01*
X101139438Y-94829024D01*
X101139436Y-94829025D01*
X101099417Y-94844387D01*
X100799206Y-94959627D01*
X100796266Y-94961125D01*
X100474484Y-95125081D01*
X100474477Y-95125085D01*
X100471543Y-95126580D01*
X100163125Y-95326868D01*
X99877333Y-95558298D01*
X99617298Y-95818333D01*
X99385868Y-96104125D01*
X99384066Y-96106900D01*
X99200785Y-96389130D01*
X99185580Y-96412543D01*
X99184085Y-96415477D01*
X99184081Y-96415484D01*
X99055829Y-96667193D01*
X99018627Y-96740206D01*
X98886839Y-97083526D01*
X98791659Y-97438741D01*
X98734131Y-97801959D01*
X98714885Y-98169200D01*
X90424500Y-98169200D01*
X90424500Y-85598000D01*
X98682685Y-85598000D01*
X98701931Y-85965241D01*
X98702444Y-85968481D01*
X98702445Y-85968489D01*
X98704044Y-85978584D01*
X98759459Y-86328459D01*
X98819273Y-86551686D01*
X98850818Y-86669413D01*
X98854639Y-86683674D01*
X98986427Y-87026994D01*
X98987925Y-87029934D01*
X99107764Y-87265130D01*
X99153380Y-87354657D01*
X99155176Y-87357423D01*
X99155178Y-87357426D01*
X99242634Y-87492097D01*
X99353668Y-87663075D01*
X99585098Y-87948867D01*
X99845133Y-88208902D01*
X100130925Y-88440332D01*
X100133700Y-88442134D01*
X100276637Y-88534958D01*
X100439342Y-88640620D01*
X100442276Y-88642115D01*
X100442283Y-88642119D01*
X100759528Y-88803763D01*
X100767006Y-88807573D01*
X100976782Y-88888098D01*
X101095360Y-88933616D01*
X101110326Y-88939361D01*
X101465541Y-89034541D01*
X101658558Y-89065112D01*
X101825511Y-89091555D01*
X101825519Y-89091556D01*
X101828759Y-89092069D01*
X102196000Y-89111315D01*
X102563241Y-89092069D01*
X102566481Y-89091556D01*
X102566489Y-89091555D01*
X102733442Y-89065112D01*
X102926459Y-89034541D01*
X103281674Y-88939361D01*
X103296641Y-88933616D01*
X103415218Y-88888098D01*
X103624994Y-88807573D01*
X103632472Y-88803763D01*
X103949717Y-88642119D01*
X103949724Y-88642115D01*
X103952658Y-88640620D01*
X104115364Y-88534958D01*
X104258300Y-88442134D01*
X104261075Y-88440332D01*
X104546867Y-88208902D01*
X104806902Y-87948867D01*
X105038332Y-87663075D01*
X105149366Y-87492097D01*
X105236822Y-87357426D01*
X105236824Y-87357423D01*
X105238620Y-87354657D01*
X105284237Y-87265130D01*
X105404075Y-87029934D01*
X105405573Y-87026994D01*
X105537361Y-86683674D01*
X105541183Y-86669413D01*
X105572727Y-86551686D01*
X105632541Y-86328459D01*
X105687956Y-85978584D01*
X105689555Y-85968489D01*
X105689556Y-85968481D01*
X105690069Y-85965241D01*
X105709315Y-85598000D01*
X105690069Y-85230759D01*
X105681844Y-85178824D01*
X105661462Y-85050141D01*
X105632541Y-84867541D01*
X105537361Y-84512326D01*
X105405573Y-84169006D01*
X105390289Y-84139009D01*
X105240119Y-83844284D01*
X105240115Y-83844277D01*
X105238620Y-83841343D01*
X105225539Y-83821199D01*
X105210892Y-83798645D01*
X110228864Y-83798645D01*
X110244832Y-84075586D01*
X110245657Y-84079793D01*
X110245658Y-84079798D01*
X110263160Y-84169006D01*
X110298238Y-84347796D01*
X110299625Y-84351847D01*
X110337909Y-84463665D01*
X110388092Y-84610240D01*
X110428143Y-84689873D01*
X110496470Y-84825724D01*
X110512734Y-84858062D01*
X110515160Y-84861591D01*
X110515163Y-84861597D01*
X110648101Y-85055022D01*
X110669855Y-85086674D01*
X110672742Y-85089847D01*
X110672743Y-85089848D01*
X110803955Y-85234049D01*
X110856548Y-85291848D01*
X110919821Y-85344752D01*
X111016084Y-85425241D01*
X111055513Y-85484282D01*
X111056764Y-85555268D01*
X111014041Y-85620238D01*
X110892391Y-85717697D01*
X110892380Y-85717707D01*
X110889035Y-85720387D01*
X110698273Y-85921409D01*
X110536557Y-86146460D01*
X110534548Y-86150255D01*
X110534547Y-86150256D01*
X110529711Y-86159390D01*
X110406880Y-86391376D01*
X110311643Y-86651626D01*
X110252606Y-86922392D01*
X110230863Y-87198666D01*
X110246815Y-87475335D01*
X110247640Y-87479542D01*
X110247641Y-87479547D01*
X110260066Y-87542876D01*
X110300169Y-87747279D01*
X110301556Y-87751330D01*
X110371419Y-87955384D01*
X110389935Y-88009466D01*
X110514454Y-88257044D01*
X110551958Y-88311613D01*
X110639542Y-88439048D01*
X110671421Y-88485433D01*
X110857932Y-88690405D01*
X110861221Y-88693155D01*
X111067243Y-88865417D01*
X111067248Y-88865421D01*
X111070535Y-88868169D01*
X111164372Y-88927033D01*
X111301656Y-89013152D01*
X111301660Y-89013154D01*
X111305296Y-89015435D01*
X111557872Y-89129477D01*
X111561992Y-89130697D01*
X111561991Y-89130697D01*
X111819475Y-89206967D01*
X111819479Y-89206968D01*
X111823588Y-89208185D01*
X111827825Y-89208833D01*
X111827828Y-89208834D01*
X111973578Y-89231137D01*
X112097527Y-89250104D01*
X112238602Y-89252320D01*
X112370330Y-89254390D01*
X112370336Y-89254390D01*
X112374621Y-89254457D01*
X112649742Y-89221164D01*
X112840048Y-89171238D01*
X112913657Y-89151927D01*
X112913658Y-89151927D01*
X112917800Y-89150840D01*
X113173833Y-89044788D01*
X113352957Y-88940116D01*
X113409401Y-88907133D01*
X113409402Y-88907132D01*
X113413104Y-88904969D01*
X113631186Y-88733971D01*
X113670740Y-88693155D01*
X113821060Y-88538036D01*
X113824043Y-88534958D01*
X113826576Y-88531510D01*
X113826580Y-88531505D01*
X113985568Y-88315068D01*
X113988106Y-88311613D01*
X113998899Y-88291735D01*
X114118290Y-88071844D01*
X114118291Y-88071842D01*
X114120340Y-88068068D01*
X114218298Y-87808830D01*
X114242984Y-87701047D01*
X114279210Y-87542876D01*
X114279211Y-87542871D01*
X114280167Y-87538696D01*
X114304802Y-87262665D01*
X114305249Y-87220000D01*
X114303559Y-87195207D01*
X114286692Y-86947791D01*
X114286691Y-86947785D01*
X114286400Y-86943514D01*
X114271844Y-86873223D01*
X114231071Y-86676340D01*
X114230202Y-86672143D01*
X114137695Y-86410911D01*
X114093455Y-86325198D01*
X114012555Y-86168457D01*
X114012555Y-86168456D01*
X114010590Y-86164650D01*
X114006894Y-86159390D01*
X113853707Y-85941428D01*
X113853706Y-85941427D01*
X113851240Y-85937918D01*
X113662593Y-85734909D01*
X113635719Y-85712913D01*
X113520331Y-85618469D01*
X113480285Y-85559844D01*
X113478292Y-85488876D01*
X113514983Y-85428095D01*
X113522391Y-85421811D01*
X113583518Y-85373882D01*
X113632523Y-85335457D01*
X113733983Y-85230759D01*
X113822587Y-85139326D01*
X113825570Y-85136248D01*
X113828103Y-85132800D01*
X113828107Y-85132795D01*
X113987256Y-84916139D01*
X113989794Y-84912684D01*
X114012534Y-84870802D01*
X114120108Y-84672676D01*
X114120109Y-84672674D01*
X114122158Y-84668900D01*
X114180116Y-84515519D01*
X114218694Y-84413426D01*
X114218695Y-84413422D01*
X114220212Y-84409408D01*
X114282141Y-84139009D01*
X114285885Y-84097066D01*
X114306581Y-83865171D01*
X114306801Y-83862707D01*
X114307248Y-83820000D01*
X114288381Y-83543242D01*
X114286245Y-83532925D01*
X114238835Y-83303998D01*
X114232127Y-83271606D01*
X114139529Y-83010117D01*
X114129437Y-82990563D01*
X114014265Y-82767421D01*
X114014265Y-82767420D01*
X114012300Y-82763614D01*
X114008182Y-82757754D01*
X113855260Y-82540170D01*
X113855259Y-82540169D01*
X113852793Y-82536660D01*
X113663961Y-82333452D01*
X113646201Y-82318915D01*
X113497124Y-82196897D01*
X113449298Y-82157752D01*
X113212776Y-82012811D01*
X113208859Y-82011092D01*
X113208856Y-82011090D01*
X113080589Y-81954785D01*
X112958771Y-81901311D01*
X112954643Y-81900135D01*
X112954640Y-81900134D01*
X112872666Y-81876783D01*
X112691983Y-81825314D01*
X112687741Y-81824710D01*
X112687735Y-81824709D01*
X112421602Y-81786833D01*
X112417351Y-81786228D01*
X112271817Y-81785466D01*
X112144242Y-81784798D01*
X112144236Y-81784798D01*
X112139955Y-81784776D01*
X112135711Y-81785335D01*
X112135707Y-81785335D01*
X112014821Y-81801250D01*
X111864928Y-81820984D01*
X111860788Y-81822117D01*
X111860786Y-81822117D01*
X111811201Y-81835682D01*
X111597359Y-81894182D01*
X111342201Y-82003017D01*
X111250909Y-82057654D01*
X111107855Y-82143269D01*
X111107851Y-82143272D01*
X111104173Y-82145473D01*
X110887682Y-82318915D01*
X110884738Y-82322017D01*
X110884734Y-82322021D01*
X110729286Y-82485829D01*
X110696732Y-82520134D01*
X110534858Y-82745406D01*
X110405054Y-82990563D01*
X110309723Y-83251068D01*
X110250628Y-83522100D01*
X110250292Y-83526370D01*
X110235859Y-83709769D01*
X110228864Y-83798645D01*
X105210892Y-83798645D01*
X105040134Y-83535700D01*
X105038332Y-83532925D01*
X104806902Y-83247133D01*
X104546867Y-82987098D01*
X104261075Y-82755668D01*
X104062740Y-82626868D01*
X103955427Y-82557178D01*
X103955424Y-82557176D01*
X103952658Y-82555380D01*
X103949724Y-82553885D01*
X103949717Y-82553881D01*
X103627934Y-82389925D01*
X103624994Y-82388427D01*
X103317187Y-82270271D01*
X103284764Y-82257825D01*
X103284762Y-82257824D01*
X103281674Y-82256639D01*
X102926459Y-82161459D01*
X102721672Y-82129024D01*
X102566489Y-82104445D01*
X102566481Y-82104444D01*
X102563241Y-82103931D01*
X102196000Y-82084685D01*
X101828759Y-82103931D01*
X101825519Y-82104444D01*
X101825511Y-82104445D01*
X101670328Y-82129024D01*
X101465541Y-82161459D01*
X101110326Y-82256639D01*
X101107238Y-82257824D01*
X101107236Y-82257825D01*
X101074813Y-82270271D01*
X100767006Y-82388427D01*
X100764066Y-82389925D01*
X100442284Y-82553881D01*
X100442277Y-82553885D01*
X100439343Y-82555380D01*
X100436577Y-82557176D01*
X100436574Y-82557178D01*
X100326061Y-82628946D01*
X100130925Y-82755668D01*
X99845133Y-82987098D01*
X99585098Y-83247133D01*
X99353668Y-83532925D01*
X99351866Y-83535700D01*
X99166462Y-83821199D01*
X99153380Y-83841343D01*
X99151885Y-83844277D01*
X99151881Y-83844284D01*
X99001711Y-84139009D01*
X98986427Y-84169006D01*
X98854639Y-84512326D01*
X98759459Y-84867541D01*
X98730538Y-85050141D01*
X98710157Y-85178824D01*
X98701931Y-85230759D01*
X98682685Y-85598000D01*
X90424500Y-85598000D01*
X90424500Y-72769200D01*
X98714885Y-72769200D01*
X98734131Y-73136441D01*
X98734644Y-73139681D01*
X98734645Y-73139689D01*
X98758841Y-73292457D01*
X98791659Y-73499659D01*
X98886839Y-73854874D01*
X99018627Y-74198194D01*
X99020125Y-74201134D01*
X99114767Y-74386878D01*
X99185580Y-74525857D01*
X99187376Y-74528623D01*
X99187378Y-74528626D01*
X99236032Y-74603547D01*
X99385868Y-74834275D01*
X99617298Y-75120067D01*
X99877333Y-75380102D01*
X100163125Y-75611532D01*
X100471542Y-75811820D01*
X100474476Y-75813315D01*
X100474483Y-75813319D01*
X100796266Y-75977275D01*
X100799206Y-75978773D01*
X100935609Y-76031133D01*
X101130311Y-76105872D01*
X101142526Y-76110561D01*
X101497741Y-76205741D01*
X101690758Y-76236312D01*
X101857711Y-76262755D01*
X101857719Y-76262756D01*
X101860959Y-76263269D01*
X102228200Y-76282515D01*
X102595441Y-76263269D01*
X102598681Y-76262756D01*
X102598689Y-76262755D01*
X102765642Y-76236312D01*
X102958659Y-76205741D01*
X103313874Y-76110561D01*
X103326090Y-76105872D01*
X103520791Y-76031133D01*
X103657194Y-75978773D01*
X103660134Y-75977275D01*
X103981917Y-75813319D01*
X103981924Y-75813315D01*
X103984858Y-75811820D01*
X104293275Y-75611532D01*
X104579067Y-75380102D01*
X104839102Y-75120067D01*
X105070532Y-74834275D01*
X105220368Y-74603547D01*
X105269022Y-74528626D01*
X105269024Y-74528623D01*
X105270820Y-74525857D01*
X105341634Y-74386878D01*
X105436275Y-74201134D01*
X105437773Y-74198194D01*
X105569561Y-73854874D01*
X105664741Y-73499659D01*
X105697559Y-73292457D01*
X105721755Y-73139689D01*
X105721756Y-73139681D01*
X105722269Y-73136441D01*
X105741515Y-72769200D01*
X105722269Y-72401959D01*
X105702961Y-72280049D01*
X105667418Y-72055643D01*
X105664741Y-72038741D01*
X105569561Y-71683526D01*
X105437773Y-71340206D01*
X105366644Y-71200608D01*
X105272319Y-71015484D01*
X105272315Y-71015477D01*
X105270820Y-71012543D01*
X105212454Y-70922666D01*
X105212440Y-70922645D01*
X110051064Y-70922645D01*
X110067032Y-71199586D01*
X110067857Y-71203793D01*
X110067858Y-71203798D01*
X110078636Y-71258732D01*
X110120438Y-71471796D01*
X110210292Y-71734240D01*
X110212218Y-71738069D01*
X110302112Y-71916802D01*
X110334934Y-71982062D01*
X110337360Y-71985591D01*
X110337363Y-71985597D01*
X110385505Y-72055643D01*
X110492055Y-72210674D01*
X110494942Y-72213847D01*
X110494943Y-72213848D01*
X110542014Y-72265579D01*
X110678748Y-72415848D01*
X110738150Y-72465516D01*
X110838284Y-72549241D01*
X110877713Y-72608282D01*
X110878964Y-72679268D01*
X110836241Y-72744238D01*
X110714591Y-72841697D01*
X110714580Y-72841707D01*
X110711235Y-72844387D01*
X110520473Y-73045409D01*
X110358757Y-73270460D01*
X110229080Y-73515376D01*
X110133843Y-73775626D01*
X110074806Y-74046392D01*
X110053063Y-74322666D01*
X110069015Y-74599335D01*
X110069840Y-74603542D01*
X110069841Y-74603547D01*
X110089819Y-74705371D01*
X110122369Y-74871279D01*
X110123756Y-74875330D01*
X110207548Y-75120067D01*
X110212135Y-75133466D01*
X110214061Y-75137295D01*
X110322772Y-75353442D01*
X110336654Y-75381044D01*
X110377897Y-75441053D01*
X110480185Y-75589883D01*
X110493621Y-75609433D01*
X110680132Y-75814405D01*
X110683421Y-75817155D01*
X110889443Y-75989417D01*
X110889448Y-75989421D01*
X110892735Y-75992169D01*
X110947176Y-76026320D01*
X111123856Y-76137152D01*
X111123860Y-76137154D01*
X111127496Y-76139435D01*
X111380072Y-76253477D01*
X111384192Y-76254697D01*
X111384191Y-76254697D01*
X111641675Y-76330967D01*
X111641679Y-76330968D01*
X111645788Y-76332185D01*
X111650025Y-76332833D01*
X111650028Y-76332834D01*
X111743433Y-76347127D01*
X111919727Y-76374104D01*
X112060802Y-76376320D01*
X112192530Y-76378390D01*
X112192536Y-76378390D01*
X112196821Y-76378457D01*
X112471942Y-76345164D01*
X112605971Y-76310002D01*
X112735857Y-76275927D01*
X112735858Y-76275927D01*
X112740000Y-76274840D01*
X112996033Y-76168788D01*
X113115668Y-76098879D01*
X113231601Y-76031133D01*
X113231602Y-76031132D01*
X113235304Y-76028969D01*
X113453386Y-75857971D01*
X113492940Y-75817155D01*
X113643260Y-75662036D01*
X113646243Y-75658958D01*
X113648776Y-75655510D01*
X113648780Y-75655505D01*
X113807768Y-75439068D01*
X113810306Y-75435613D01*
X113857381Y-75348912D01*
X113940490Y-75195844D01*
X113940491Y-75195842D01*
X113942540Y-75192068D01*
X114040498Y-74932830D01*
X114092593Y-74705371D01*
X114101410Y-74666876D01*
X114101411Y-74666871D01*
X114102367Y-74662696D01*
X114127002Y-74386665D01*
X114127449Y-74344000D01*
X114125987Y-74322560D01*
X114108892Y-74071791D01*
X114108891Y-74071785D01*
X114108600Y-74067514D01*
X114104166Y-74046100D01*
X114065204Y-73857964D01*
X114052402Y-73796143D01*
X113959895Y-73534911D01*
X113832790Y-73288650D01*
X113829094Y-73283390D01*
X113675907Y-73065428D01*
X113675906Y-73065427D01*
X113673440Y-73061918D01*
X113484793Y-72858909D01*
X113342531Y-72742469D01*
X113302485Y-72683844D01*
X113300492Y-72612876D01*
X113337183Y-72552095D01*
X113344591Y-72545811D01*
X113451342Y-72462108D01*
X113454723Y-72459457D01*
X113510443Y-72401959D01*
X113644787Y-72263326D01*
X113647770Y-72260248D01*
X113650303Y-72256800D01*
X113650307Y-72256795D01*
X113799847Y-72053220D01*
X113811994Y-72036684D01*
X113839732Y-71985597D01*
X113942308Y-71796676D01*
X113942309Y-71796674D01*
X113944358Y-71792900D01*
X114042412Y-71533408D01*
X114104341Y-71263009D01*
X114129001Y-70986707D01*
X114129448Y-70944000D01*
X114128286Y-70926946D01*
X114124350Y-70869224D01*
X114110581Y-70667242D01*
X114107148Y-70650662D01*
X114059567Y-70420908D01*
X114054327Y-70395606D01*
X113961729Y-70134117D01*
X113956509Y-70124002D01*
X113836465Y-69891421D01*
X113836465Y-69891420D01*
X113834500Y-69887614D01*
X113831532Y-69883390D01*
X113677460Y-69664170D01*
X113677459Y-69664169D01*
X113674993Y-69660660D01*
X113486161Y-69457452D01*
X113468401Y-69442915D01*
X113274816Y-69284468D01*
X113271498Y-69281752D01*
X113034976Y-69136811D01*
X113031059Y-69135092D01*
X113031056Y-69135090D01*
X112919166Y-69085974D01*
X112780971Y-69025311D01*
X112776843Y-69024135D01*
X112776840Y-69024134D01*
X112694866Y-69000783D01*
X112514183Y-68949314D01*
X112509941Y-68948710D01*
X112509935Y-68948709D01*
X112243802Y-68910833D01*
X112239551Y-68910228D01*
X112094017Y-68909466D01*
X111966442Y-68908798D01*
X111966436Y-68908798D01*
X111962155Y-68908776D01*
X111957911Y-68909335D01*
X111957907Y-68909335D01*
X111837021Y-68925250D01*
X111687128Y-68944984D01*
X111682988Y-68946117D01*
X111682986Y-68946117D01*
X111610480Y-68965952D01*
X111419559Y-69018182D01*
X111164401Y-69127017D01*
X111044249Y-69198926D01*
X110930055Y-69267269D01*
X110930051Y-69267272D01*
X110926373Y-69269473D01*
X110709882Y-69442915D01*
X110706938Y-69446017D01*
X110706934Y-69446021D01*
X110521882Y-69641025D01*
X110518932Y-69644134D01*
X110357058Y-69869406D01*
X110227254Y-70114563D01*
X110217614Y-70140905D01*
X110160965Y-70295708D01*
X110131923Y-70375068D01*
X110072828Y-70646100D01*
X110051064Y-70922645D01*
X105212440Y-70922645D01*
X105072334Y-70706900D01*
X105070532Y-70704125D01*
X104839102Y-70418333D01*
X104579067Y-70158298D01*
X104293275Y-69926868D01*
X103984858Y-69726580D01*
X103981924Y-69725085D01*
X103981917Y-69725081D01*
X103660134Y-69561125D01*
X103657194Y-69559627D01*
X103356983Y-69444387D01*
X103316964Y-69429025D01*
X103316962Y-69429024D01*
X103313874Y-69427839D01*
X102958659Y-69332659D01*
X102763722Y-69301784D01*
X102598689Y-69275645D01*
X102598681Y-69275644D01*
X102595441Y-69275131D01*
X102228200Y-69255885D01*
X101860959Y-69275131D01*
X101857719Y-69275644D01*
X101857711Y-69275645D01*
X101692678Y-69301784D01*
X101497741Y-69332659D01*
X101142526Y-69427839D01*
X101139438Y-69429024D01*
X101139436Y-69429025D01*
X101099417Y-69444387D01*
X100799206Y-69559627D01*
X100796266Y-69561125D01*
X100474484Y-69725081D01*
X100474477Y-69725085D01*
X100471543Y-69726580D01*
X100163125Y-69926868D01*
X99877333Y-70158298D01*
X99617298Y-70418333D01*
X99385868Y-70704125D01*
X99384066Y-70706900D01*
X99243947Y-70922666D01*
X99185580Y-71012543D01*
X99184085Y-71015477D01*
X99184081Y-71015484D01*
X99089756Y-71200608D01*
X99018627Y-71340206D01*
X98886839Y-71683526D01*
X98791659Y-72038741D01*
X98788982Y-72055643D01*
X98753440Y-72280049D01*
X98734131Y-72401959D01*
X98714885Y-72769200D01*
X90424500Y-72769200D01*
X90424500Y-45699451D01*
X90444502Y-45631330D01*
X90498158Y-45584837D01*
X90568432Y-45574733D01*
X90624023Y-45597128D01*
X90801233Y-45724466D01*
X91104388Y-45893200D01*
X91424928Y-46025972D01*
X91428422Y-46026967D01*
X91428424Y-46026968D01*
X91755103Y-46120025D01*
X91755108Y-46120026D01*
X91758604Y-46121022D01*
X91955304Y-46153233D01*
X92097412Y-46176504D01*
X92097419Y-46176505D01*
X92100993Y-46177090D01*
X92274276Y-46185262D01*
X92443931Y-46193263D01*
X92443932Y-46193263D01*
X92447558Y-46193434D01*
X92456415Y-46192830D01*
X92790073Y-46170084D01*
X92790081Y-46170083D01*
X92793704Y-46169836D01*
X92797279Y-46169173D01*
X92797282Y-46169173D01*
X93131279Y-46107270D01*
X93131283Y-46107269D01*
X93134844Y-46106609D01*
X93466456Y-46004592D01*
X93784145Y-45865136D01*
X94028511Y-45722341D01*
X94080560Y-45691926D01*
X94080562Y-45691925D01*
X94083700Y-45690091D01*
X94111647Y-45669108D01*
X94358244Y-45483958D01*
X94358248Y-45483955D01*
X94361151Y-45481775D01*
X94612819Y-45242950D01*
X94835370Y-44976783D01*
X95025853Y-44686799D01*
X95154446Y-44431121D01*
X95180117Y-44380080D01*
X95180120Y-44380072D01*
X95181744Y-44376844D01*
X95300977Y-44051026D01*
X95301822Y-44047504D01*
X95301825Y-44047496D01*
X95381124Y-43717191D01*
X95381125Y-43717187D01*
X95381971Y-43713662D01*
X95416035Y-43432171D01*
X95423316Y-43372004D01*
X95423316Y-43371997D01*
X95423652Y-43369225D01*
X95429599Y-43180000D01*
X95429438Y-43177204D01*
X95409836Y-42837246D01*
X95409835Y-42837241D01*
X95409627Y-42833626D01*
X95349976Y-42491842D01*
X95251437Y-42159180D01*
X95115316Y-41840048D01*
X95065569Y-41752831D01*
X94945208Y-41541816D01*
X94943417Y-41538676D01*
X94883604Y-41457250D01*
X94804155Y-41349094D01*
X94779947Y-41282352D01*
X94795665Y-41213117D01*
X94846319Y-41163371D01*
X94905702Y-41148500D01*
X106554000Y-41148500D01*
X106622121Y-41168502D01*
G37*
G04 #@! TD.AperFunction*
M02*
