G04 #@! TF.GenerationSoftware,KiCad,Pcbnew,6.0.4-6f826c9f35~116~ubuntu18.04.1*
G04 #@! TF.CreationDate,2022-06-24T10:24:20+08:00*
G04 #@! TF.ProjectId,Power_connector,506f7765-725f-4636-9f6e-6e6563746f72,rev?*
G04 #@! TF.SameCoordinates,Original*
G04 #@! TF.FileFunction,Soldermask,Top*
G04 #@! TF.FilePolarity,Negative*
%FSLAX46Y46*%
G04 Gerber Fmt 4.6, Leading zero omitted, Abs format (unit mm)*
G04 Created by KiCad (PCBNEW 6.0.4-6f826c9f35~116~ubuntu18.04.1) date 2022-06-24 10:24:20*
%MOMM*%
%LPD*%
G01*
G04 APERTURE LIST*
G04 Aperture macros list*
%AMRoundRect*
0 Rectangle with rounded corners*
0 $1 Rounding radius*
0 $2 $3 $4 $5 $6 $7 $8 $9 X,Y pos of 4 corners*
0 Add a 4 corners polygon primitive as box body*
4,1,4,$2,$3,$4,$5,$6,$7,$8,$9,$2,$3,0*
0 Add four circle primitives for the rounded corners*
1,1,$1+$1,$2,$3*
1,1,$1+$1,$4,$5*
1,1,$1+$1,$6,$7*
1,1,$1+$1,$8,$9*
0 Add four rect primitives between the rounded corners*
20,1,$1+$1,$2,$3,$4,$5,0*
20,1,$1+$1,$4,$5,$6,$7,0*
20,1,$1+$1,$6,$7,$8,$9,0*
20,1,$1+$1,$8,$9,$2,$3,0*%
G04 Aperture macros list end*
%ADD10RoundRect,0.250000X-0.325000X-0.450000X0.325000X-0.450000X0.325000X0.450000X-0.325000X0.450000X0*%
%ADD11RoundRect,0.250000X0.350000X0.450000X-0.350000X0.450000X-0.350000X-0.450000X0.350000X-0.450000X0*%
%ADD12RoundRect,1.500000X1.500000X1.500000X-1.500000X1.500000X-1.500000X-1.500000X1.500000X-1.500000X0*%
%ADD13C,6.000000*%
%ADD14RoundRect,0.243750X0.243750X0.456250X-0.243750X0.456250X-0.243750X-0.456250X0.243750X-0.456250X0*%
%ADD15RoundRect,0.250000X-0.350000X-0.450000X0.350000X-0.450000X0.350000X0.450000X-0.350000X0.450000X0*%
%ADD16C,3.051988*%
%ADD17C,3.048000*%
%ADD18C,3.068258*%
%ADD19RoundRect,0.250000X0.262500X0.450000X-0.262500X0.450000X-0.262500X-0.450000X0.262500X-0.450000X0*%
%ADD20RoundRect,1.500000X-1.500000X-1.500000X1.500000X-1.500000X1.500000X1.500000X-1.500000X1.500000X0*%
%ADD21RoundRect,0.243750X-0.243750X-0.456250X0.243750X-0.456250X0.243750X0.456250X-0.243750X0.456250X0*%
%ADD22RoundRect,0.250000X-0.262500X-0.450000X0.262500X-0.450000X0.262500X0.450000X-0.262500X0.450000X0*%
%ADD23R,2.600000X2.600000*%
%ADD24C,2.600000*%
%ADD25RoundRect,0.250000X0.400000X0.625000X-0.400000X0.625000X-0.400000X-0.625000X0.400000X-0.625000X0*%
%ADD26R,3.200000X3.200000*%
%ADD27O,3.200000X3.200000*%
%ADD28RoundRect,0.250000X-0.475000X0.337500X-0.475000X-0.337500X0.475000X-0.337500X0.475000X0.337500X0*%
%ADD29R,0.900000X1.800000*%
%ADD30C,4.500000*%
%ADD31RoundRect,0.250000X0.450000X-0.325000X0.450000X0.325000X-0.450000X0.325000X-0.450000X-0.325000X0*%
%ADD32R,1.100000X1.100000*%
G04 APERTURE END LIST*
D10*
X100067000Y-48238500D03*
X102117000Y-48238500D03*
D11*
X106172000Y-53318500D03*
X104172000Y-53318500D03*
D12*
X165303200Y-136269200D03*
D13*
X158103200Y-136269200D03*
D11*
X106156000Y-50778500D03*
X104156000Y-50778500D03*
D14*
X159941500Y-78994000D03*
X158066500Y-78994000D03*
D15*
X103648000Y-59944000D03*
X105648000Y-59944000D03*
D16*
X148082000Y-99744000D03*
D17*
X148082000Y-96344000D03*
D16*
X134366000Y-99744000D03*
D18*
X134366000Y-96344000D03*
D19*
X106244000Y-129794000D03*
X104419000Y-129794000D03*
X106322500Y-104140000D03*
X104497500Y-104140000D03*
D14*
X159687500Y-117348000D03*
X157812500Y-117348000D03*
D16*
X112268000Y-83820000D03*
D17*
X112268000Y-87220000D03*
D18*
X125984000Y-87220000D03*
D16*
X125984000Y-83820000D03*
D20*
X95028200Y-123569200D03*
D13*
X102228200Y-123569200D03*
D21*
X100330000Y-79248000D03*
X102205000Y-79248000D03*
D14*
X160195500Y-91948000D03*
X158320500Y-91948000D03*
D12*
X165303200Y-85469200D03*
D13*
X158103200Y-85469200D03*
D21*
X100305000Y-142748000D03*
X102180000Y-142748000D03*
D12*
X165303200Y-110869200D03*
D13*
X158103200Y-110869200D03*
D19*
X106188500Y-116621000D03*
X104363500Y-116621000D03*
D22*
X154281500Y-91948000D03*
X156106500Y-91948000D03*
D20*
X95028200Y-98169200D03*
D13*
X102228200Y-98169200D03*
D12*
X165144000Y-98298000D03*
D13*
X157944000Y-98298000D03*
D20*
X95028200Y-72769200D03*
D13*
X102228200Y-72769200D03*
D17*
X112090200Y-74344000D03*
D16*
X112090200Y-70944000D03*
X125806200Y-70944000D03*
D18*
X125806200Y-74344000D03*
D19*
X106147000Y-91694000D03*
X104322000Y-91694000D03*
D16*
X112141000Y-109376000D03*
D17*
X112141000Y-112776000D03*
D18*
X125857000Y-112776000D03*
D16*
X125857000Y-109376000D03*
D17*
X147828000Y-122076000D03*
D16*
X147828000Y-125476000D03*
X134112000Y-125476000D03*
D18*
X134112000Y-122076000D03*
D23*
X163576000Y-59944000D03*
D24*
X163576000Y-54864000D03*
D25*
X105690000Y-65024000D03*
X102590000Y-65024000D03*
D17*
X112090200Y-125269200D03*
D16*
X112090200Y-121869200D03*
X125806200Y-121869200D03*
D18*
X125806200Y-125269200D03*
D22*
X153877000Y-130048000D03*
X155702000Y-130048000D03*
D21*
X100408500Y-91694000D03*
X102283500Y-91694000D03*
D22*
X154131000Y-142748000D03*
X155956000Y-142748000D03*
D26*
X133096000Y-144272000D03*
D27*
X148336000Y-144272000D03*
D28*
X100330000Y-50757000D03*
X100330000Y-52832000D03*
D14*
X159894500Y-130048000D03*
X158019500Y-130048000D03*
D22*
X154131000Y-104648000D03*
X155956000Y-104648000D03*
D21*
X100330000Y-129794000D03*
X102205000Y-129794000D03*
X100766500Y-104187000D03*
X102641500Y-104187000D03*
D17*
X112014000Y-137844000D03*
D16*
X112014000Y-134444000D03*
X125730000Y-134444000D03*
D18*
X125730000Y-137844000D03*
D20*
X94996000Y-85598000D03*
D13*
X102196000Y-85598000D03*
D16*
X148082000Y-74344000D03*
D17*
X148082000Y-70944000D03*
D16*
X134366000Y-74344000D03*
D18*
X134366000Y-70944000D03*
D12*
X165144000Y-123698000D03*
D13*
X157944000Y-123698000D03*
D29*
X136598000Y-51675000D03*
X123098000Y-51675000D03*
D30*
X126248000Y-57675000D03*
X133448000Y-57675000D03*
D16*
X148031200Y-137969200D03*
D17*
X148031200Y-134569200D03*
D18*
X134315200Y-134569200D03*
D16*
X134315200Y-137969200D03*
D14*
X160045000Y-142748000D03*
X158170000Y-142748000D03*
D16*
X112090200Y-96344000D03*
D17*
X112090200Y-99744000D03*
D16*
X125806200Y-96344000D03*
D18*
X125806200Y-99744000D03*
D22*
X154027500Y-78994000D03*
X155852500Y-78994000D03*
D20*
X95206000Y-136398000D03*
D13*
X102406000Y-136398000D03*
D17*
X148403700Y-83769200D03*
D16*
X148403700Y-87169200D03*
D18*
X134687700Y-83769200D03*
D16*
X134687700Y-87169200D03*
D12*
X165100000Y-72644000D03*
D13*
X157900000Y-72644000D03*
D19*
X106244000Y-79248000D03*
X104419000Y-79248000D03*
D31*
X99568000Y-64017000D03*
X99568000Y-61967000D03*
D32*
X102740000Y-57404000D03*
X105540000Y-57404000D03*
D21*
X100408500Y-116586000D03*
X102283500Y-116586000D03*
D25*
X105690000Y-62484000D03*
X102590000Y-62484000D03*
D22*
X154027500Y-117348000D03*
X155852500Y-117348000D03*
D14*
X160026500Y-104640000D03*
X158151500Y-104640000D03*
D19*
X106068500Y-48238500D03*
X104243500Y-48238500D03*
D20*
X94952000Y-110744000D03*
D13*
X102152000Y-110744000D03*
D26*
X127000000Y-144272000D03*
D27*
X111760000Y-144272000D03*
D16*
X148031200Y-112569200D03*
D17*
X148031200Y-109169200D03*
D16*
X134315200Y-112569200D03*
D18*
X134315200Y-109169200D03*
D19*
X106322500Y-142748000D03*
X104497500Y-142748000D03*
M02*
