M48
; DRILL file {KiCad 6.0.4-6f826c9f35~116~ubuntu18.04.1} date Mon May 23 11:49:11 2022
; FORMAT={-:-/ absolute / metric / decimal}
; #@! TF.CreationDate,2022-05-23T11:49:11+08:00
; #@! TF.GenerationSoftware,Kicad,Pcbnew,6.0.4-6f826c9f35~116~ubuntu18.04.1
; #@! TF.FileFunction,Plated,1,2,PTH
FMAT,2
METRIC
; #@! TA.AperFunction,Plated,PTH,ViaDrill
T1C0.500
; #@! TA.AperFunction,Plated,PTH,ComponentDrill
T2C1.300
; #@! TA.AperFunction,Plated,PTH,ComponentDrill
T3C1.600
; #@! TA.AperFunction,Plated,PTH,ComponentDrill
T4C2.000
; #@! TA.AperFunction,Plated,PTH,ComponentDrill
T5C2.750
; #@! TA.AperFunction,Plated,PTH,ViaDrill
T6C3.000
; #@! TA.AperFunction,Plated,PTH,ComponentDrill
T7C4.500
%
G90
G05
T1
X77.724Y-60.96
X77.724Y-66.04
X77.724Y-70.612
X77.724Y-119.38
X77.724Y-123.444
X81.28Y-60.96
X81.28Y-66.04
X81.28Y-70.612
X81.28Y-119.38
X81.28Y-123.444
X84.836Y-60.96
X84.836Y-66.04
X84.836Y-70.612
X96.52Y-117.348
T2
X90.424Y-61.468
X95.504Y-61.468
T3
X179.832Y-76.708
X179.832Y-91.948
X179.832Y-98.044
X179.832Y-113.284
T4
X106.504Y-76.962
X106.504Y-90.678
X106.504Y-99.238
X106.504Y-112.954
X109.904Y-76.962
X109.904Y-90.678
X109.904Y-99.238
X109.904Y-112.954
X119.329Y-76.64
X119.329Y-90.356
X119.38Y-99.06
X119.38Y-112.776
X122.729Y-76.64
X122.729Y-90.356
X122.78Y-99.06
X122.78Y-112.776
X131.904Y-76.962
X131.904Y-90.678
X131.904Y-99.238
X131.904Y-112.954
X135.304Y-76.962
X135.304Y-90.678
X135.304Y-99.238
X135.304Y-112.954
X144.729Y-77.013
X144.729Y-90.729
X144.936Y-99.187
X144.936Y-112.903
X148.129Y-77.013
X148.129Y-90.729
X148.336Y-99.187
X148.336Y-112.903
X157.429Y-99.238
X157.429Y-112.954
X157.636Y-77.216
X157.636Y-90.932
X160.829Y-99.238
X160.829Y-112.954
X161.036Y-77.216
X161.036Y-90.932
X170.004Y-99.314
X170.004Y-113.03
X170.129Y-77.013
X170.129Y-90.729
X173.404Y-99.314
X173.404Y-113.03
X173.529Y-77.013
X173.529Y-90.729
T5
X93.235Y-91.596
X93.235Y-98.796
T6
X78.74Y-56.896
X78.74Y-132.628
X180.848Y-56.896
X180.848Y-132.588
T7
X108.204Y-59.944
X108.204Y-67.144
X108.329Y-122.816
X108.329Y-130.016
X121.029Y-59.741
X121.029Y-66.941
X121.158Y-122.848
X121.158Y-130.048
X133.729Y-122.816
X133.729Y-130.016
X133.858Y-59.9
X133.858Y-67.1
X146.304Y-122.892
X146.304Y-130.092
X146.429Y-59.741
X146.429Y-66.941
X159.129Y-122.816
X159.129Y-130.016
X159.258Y-59.9
X159.258Y-67.1
X171.829Y-59.741
X171.829Y-66.941
X171.958Y-122.638
X171.958Y-129.838
T0
M30
