G04 #@! TF.GenerationSoftware,KiCad,Pcbnew,6.0.4-6f826c9f35~116~ubuntu18.04.1*
G04 #@! TF.CreationDate,2022-05-23T11:49:55+08:00*
G04 #@! TF.ProjectId,Power_connector,506f7765-725f-4636-9f6e-6e6563746f72,rev?*
G04 #@! TF.SameCoordinates,Original*
G04 #@! TF.FileFunction,Paste,Top*
G04 #@! TF.FilePolarity,Positive*
%FSLAX46Y46*%
G04 Gerber Fmt 4.6, Leading zero omitted, Abs format (unit mm)*
G04 Created by KiCad (PCBNEW 6.0.4-6f826c9f35~116~ubuntu18.04.1) date 2022-05-23 11:49:55*
%MOMM*%
%LPD*%
G01*
G04 APERTURE LIST*
G04 Aperture macros list*
%AMRoundRect*
0 Rectangle with rounded corners*
0 $1 Rounding radius*
0 $2 $3 $4 $5 $6 $7 $8 $9 X,Y pos of 4 corners*
0 Add a 4 corners polygon primitive as box body*
4,1,4,$2,$3,$4,$5,$6,$7,$8,$9,$2,$3,0*
0 Add four circle primitives for the rounded corners*
1,1,$1+$1,$2,$3*
1,1,$1+$1,$4,$5*
1,1,$1+$1,$6,$7*
1,1,$1+$1,$8,$9*
0 Add four rect primitives between the rounded corners*
20,1,$1+$1,$2,$3,$4,$5,0*
20,1,$1+$1,$4,$5,$6,$7,0*
20,1,$1+$1,$6,$7,$8,$9,0*
20,1,$1+$1,$8,$9,$2,$3,0*%
G04 Aperture macros list end*
%ADD10RoundRect,0.250000X0.450000X-0.325000X0.450000X0.325000X-0.450000X0.325000X-0.450000X-0.325000X0*%
%ADD11RoundRect,0.250000X-0.450000X0.350000X-0.450000X-0.350000X0.450000X-0.350000X0.450000X0.350000X0*%
%ADD12RoundRect,0.243750X-0.456250X0.243750X-0.456250X-0.243750X0.456250X-0.243750X0.456250X0.243750X0*%
%ADD13RoundRect,0.250000X0.450000X-0.350000X0.450000X0.350000X-0.450000X0.350000X-0.450000X-0.350000X0*%
%ADD14RoundRect,0.250000X-0.450000X0.262500X-0.450000X-0.262500X0.450000X-0.262500X0.450000X0.262500X0*%
%ADD15RoundRect,0.243750X0.456250X-0.243750X0.456250X0.243750X-0.456250X0.243750X-0.456250X-0.243750X0*%
%ADD16RoundRect,0.250000X0.450000X-0.262500X0.450000X0.262500X-0.450000X0.262500X-0.450000X-0.262500X0*%
%ADD17RoundRect,0.250000X-0.625000X0.400000X-0.625000X-0.400000X0.625000X-0.400000X0.625000X0.400000X0*%
%ADD18RoundRect,0.250000X-0.337500X-0.475000X0.337500X-0.475000X0.337500X0.475000X-0.337500X0.475000X0*%
%ADD19RoundRect,0.250000X0.325000X0.450000X-0.325000X0.450000X-0.325000X-0.450000X0.325000X-0.450000X0*%
%ADD20R,1.100000X1.100000*%
G04 APERTURE END LIST*
D10*
X83798500Y-124977000D03*
X83798500Y-122927000D03*
D11*
X88878500Y-118872000D03*
X88878500Y-120872000D03*
X86338500Y-118888000D03*
X86338500Y-120888000D03*
D12*
X114554000Y-65102500D03*
X114554000Y-66977500D03*
D13*
X95504000Y-121396000D03*
X95504000Y-119396000D03*
D14*
X165354000Y-118800000D03*
X165354000Y-120625000D03*
X139700000Y-118721500D03*
X139700000Y-120546500D03*
D12*
X152908000Y-65356500D03*
X152908000Y-67231500D03*
D15*
X114808000Y-124714000D03*
X114808000Y-122839000D03*
D12*
X127508000Y-64848500D03*
X127508000Y-66723500D03*
D15*
X178308000Y-124739000D03*
X178308000Y-122864000D03*
D14*
X152181000Y-118855500D03*
X152181000Y-120680500D03*
D16*
X127508000Y-70762500D03*
X127508000Y-68937500D03*
D14*
X127254000Y-118897000D03*
X127254000Y-120722000D03*
D17*
X100584000Y-119354000D03*
X100584000Y-122454000D03*
D16*
X165608000Y-71167000D03*
X165608000Y-69342000D03*
D15*
X127254000Y-124635500D03*
X127254000Y-122760500D03*
D16*
X178308000Y-70913000D03*
X178308000Y-69088000D03*
D18*
X86317000Y-124714000D03*
X88392000Y-124714000D03*
D12*
X165608000Y-65149500D03*
X165608000Y-67024500D03*
D16*
X140208000Y-70913000D03*
X140208000Y-69088000D03*
D15*
X165354000Y-124714000D03*
X165354000Y-122839000D03*
X139747000Y-124277500D03*
X139747000Y-122402500D03*
D12*
X178308000Y-64999000D03*
X178308000Y-66874000D03*
D16*
X114554000Y-71016500D03*
X114554000Y-69191500D03*
D14*
X114808000Y-118800000D03*
X114808000Y-120625000D03*
D19*
X99577000Y-125476000D03*
X97527000Y-125476000D03*
D20*
X92964000Y-122304000D03*
X92964000Y-119504000D03*
D15*
X152146000Y-124635500D03*
X152146000Y-122760500D03*
D17*
X98044000Y-119354000D03*
X98044000Y-122454000D03*
D16*
X152908000Y-71016500D03*
X152908000Y-69191500D03*
D12*
X140200000Y-65017500D03*
X140200000Y-66892500D03*
D14*
X83798500Y-118975500D03*
X83798500Y-120800500D03*
X178308000Y-118721500D03*
X178308000Y-120546500D03*
M02*
