G04 #@! TF.GenerationSoftware,KiCad,Pcbnew,6.0.4-6f826c9f35~116~ubuntu18.04.1*
G04 #@! TF.CreationDate,2022-04-20T11:51:17+08:00*
G04 #@! TF.ProjectId,Power_connector,506f7765-725f-4636-9f6e-6e6563746f72,rev?*
G04 #@! TF.SameCoordinates,Original*
G04 #@! TF.FileFunction,Copper,L1,Top*
G04 #@! TF.FilePolarity,Positive*
%FSLAX46Y46*%
G04 Gerber Fmt 4.6, Leading zero omitted, Abs format (unit mm)*
G04 Created by KiCad (PCBNEW 6.0.4-6f826c9f35~116~ubuntu18.04.1) date 2022-04-20 11:51:17*
%MOMM*%
%LPD*%
G01*
G04 APERTURE LIST*
G04 Aperture macros list*
%AMRoundRect*
0 Rectangle with rounded corners*
0 $1 Rounding radius*
0 $2 $3 $4 $5 $6 $7 $8 $9 X,Y pos of 4 corners*
0 Add a 4 corners polygon primitive as box body*
4,1,4,$2,$3,$4,$5,$6,$7,$8,$9,$2,$3,0*
0 Add four circle primitives for the rounded corners*
1,1,$1+$1,$2,$3*
1,1,$1+$1,$4,$5*
1,1,$1+$1,$6,$7*
1,1,$1+$1,$8,$9*
0 Add four rect primitives between the rounded corners*
20,1,$1+$1,$2,$3,$4,$5,0*
20,1,$1+$1,$4,$5,$6,$7,0*
20,1,$1+$1,$6,$7,$8,$9,0*
20,1,$1+$1,$8,$9,$2,$3,0*%
G04 Aperture macros list end*
G04 #@! TA.AperFunction,SMDPad,CuDef*
%ADD10RoundRect,0.250000X0.337500X0.475000X-0.337500X0.475000X-0.337500X-0.475000X0.337500X-0.475000X0*%
G04 #@! TD*
G04 #@! TA.AperFunction,SMDPad,CuDef*
%ADD11R,0.899160X3.200400*%
G04 #@! TD*
G04 #@! TA.AperFunction,ComponentPad*
%ADD12O,3.200000X3.200000*%
G04 #@! TD*
G04 #@! TA.AperFunction,ComponentPad*
%ADD13R,3.200000X3.200000*%
G04 #@! TD*
G04 #@! TA.AperFunction,SMDPad,CuDef*
%ADD14RoundRect,0.250000X0.625000X-0.400000X0.625000X0.400000X-0.625000X0.400000X-0.625000X-0.400000X0*%
G04 #@! TD*
G04 #@! TA.AperFunction,SMDPad,CuDef*
%ADD15RoundRect,0.250000X0.325000X0.450000X-0.325000X0.450000X-0.325000X-0.450000X0.325000X-0.450000X0*%
G04 #@! TD*
G04 #@! TA.AperFunction,ComponentPad*
%ADD16R,2.200000X2.200000*%
G04 #@! TD*
G04 #@! TA.AperFunction,ComponentPad*
%ADD17O,2.200000X2.200000*%
G04 #@! TD*
G04 #@! TA.AperFunction,ComponentPad*
%ADD18RoundRect,1.500000X1.500000X-1.500000X1.500000X1.500000X-1.500000X1.500000X-1.500000X-1.500000X0*%
G04 #@! TD*
G04 #@! TA.AperFunction,ComponentPad*
%ADD19C,6.000000*%
G04 #@! TD*
G04 #@! TA.AperFunction,ComponentPad*
%ADD20RoundRect,1.500000X-1.500000X1.500000X-1.500000X-1.500000X1.500000X-1.500000X1.500000X1.500000X0*%
G04 #@! TD*
G04 #@! TA.AperFunction,ComponentPad*
%ADD21C,2.400000*%
G04 #@! TD*
G04 #@! TA.AperFunction,SMDPad,CuDef*
%ADD22RoundRect,0.250000X0.350000X0.450000X-0.350000X0.450000X-0.350000X-0.450000X0.350000X-0.450000X0*%
G04 #@! TD*
G04 #@! TA.AperFunction,SMDPad,CuDef*
%ADD23R,1.100000X1.100000*%
G04 #@! TD*
G04 #@! TA.AperFunction,SMDPad,CuDef*
%ADD24R,10.800080X8.150860*%
G04 #@! TD*
G04 #@! TA.AperFunction,ComponentPad*
%ADD25R,1.800000X1.200000*%
G04 #@! TD*
G04 #@! TA.AperFunction,ComponentPad*
%ADD26C,4.500000*%
G04 #@! TD*
G04 #@! TA.AperFunction,SMDPad,CuDef*
%ADD27RoundRect,0.250000X-0.450000X0.350000X-0.450000X-0.350000X0.450000X-0.350000X0.450000X0.350000X0*%
G04 #@! TD*
G04 #@! TA.AperFunction,ComponentPad*
%ADD28R,2.600000X2.600000*%
G04 #@! TD*
G04 #@! TA.AperFunction,ComponentPad*
%ADD29C,2.600000*%
G04 #@! TD*
G04 #@! TA.AperFunction,ViaPad*
%ADD30C,5.000000*%
G04 #@! TD*
G04 #@! TA.AperFunction,ViaPad*
%ADD31C,0.800000*%
G04 #@! TD*
G04 #@! TA.AperFunction,Conductor*
%ADD32C,6.000000*%
G04 #@! TD*
G04 #@! TA.AperFunction,Conductor*
%ADD33C,1.000000*%
G04 #@! TD*
G04 #@! TA.AperFunction,Conductor*
%ADD34C,2.000000*%
G04 #@! TD*
G04 APERTURE END LIST*
D10*
X98192500Y-78740000D03*
X96117500Y-78740000D03*
D11*
X95250000Y-66931540D03*
X100330000Y-66931540D03*
X101600000Y-66931540D03*
X102870000Y-66931540D03*
X96520000Y-66931540D03*
X97790000Y-66931540D03*
D12*
X90805000Y-104140000D03*
D13*
X90805000Y-88900000D03*
X89535000Y-70485000D03*
D12*
X89535000Y-55245000D03*
D14*
X97790000Y-75210000D03*
X97790000Y-72110000D03*
D15*
X102625000Y-75565000D03*
X100575000Y-75565000D03*
D16*
X171450000Y-93980000D03*
D17*
X171450000Y-104140000D03*
D18*
X182880000Y-61810000D03*
D19*
X182880000Y-54610000D03*
D20*
X158750000Y-96520000D03*
D19*
X158750000Y-103720000D03*
D21*
X158365000Y-72820000D03*
X158365000Y-69420000D03*
X171835000Y-72820000D03*
X171835000Y-69420000D03*
D16*
X219710000Y-93980000D03*
D17*
X219710000Y-104140000D03*
D22*
X102600000Y-78740000D03*
X100600000Y-78740000D03*
D23*
X96520000Y-81150000D03*
X96520000Y-83950000D03*
D20*
X231140000Y-96730000D03*
D19*
X231140000Y-103930000D03*
D21*
X182495000Y-89330000D03*
X182495000Y-85930000D03*
X195965000Y-85930000D03*
X195965000Y-89330000D03*
D18*
X134620000Y-61766000D03*
D19*
X134620000Y-54566000D03*
D16*
X123190000Y-93980000D03*
D17*
X123190000Y-104140000D03*
D16*
X147320000Y-93980000D03*
D17*
X147320000Y-104140000D03*
D21*
X158365000Y-85930000D03*
X158365000Y-89330000D03*
X171835000Y-89330000D03*
X171835000Y-85930000D03*
D20*
X111760000Y-96940000D03*
D19*
X111760000Y-104140000D03*
D16*
X171450000Y-63290000D03*
D17*
X171450000Y-53130000D03*
D21*
X134235000Y-69420000D03*
X134235000Y-72820000D03*
X147705000Y-69420000D03*
X147705000Y-72820000D03*
X134235000Y-89330000D03*
X134235000Y-85930000D03*
X147705000Y-89330000D03*
X147705000Y-85930000D03*
D24*
X99695000Y-102481380D03*
D11*
X103505000Y-91879420D03*
X102235000Y-91879420D03*
X98425000Y-91879420D03*
X100965000Y-91879420D03*
X97155000Y-91879420D03*
X95885000Y-91879420D03*
D18*
X110490000Y-61810000D03*
D19*
X110490000Y-54610000D03*
D16*
X239522000Y-65151000D03*
D17*
X239522000Y-54991000D03*
D21*
X110105000Y-69420000D03*
X110105000Y-72820000D03*
X123575000Y-72820000D03*
X123575000Y-69420000D03*
D18*
X159004000Y-61810000D03*
D19*
X159004000Y-54610000D03*
D21*
X110490000Y-89330000D03*
X110490000Y-85930000D03*
X123960000Y-89330000D03*
X123960000Y-85930000D03*
D25*
X76200000Y-85490000D03*
X76200000Y-71990000D03*
D26*
X82200000Y-82340000D03*
X82200000Y-75140000D03*
D21*
X206625000Y-85930000D03*
X206625000Y-89330000D03*
X220095000Y-89330000D03*
X220095000Y-85930000D03*
D18*
X207010000Y-61810000D03*
D19*
X207010000Y-54610000D03*
D16*
X239649000Y-93472000D03*
D17*
X239649000Y-103632000D03*
D20*
X134620000Y-96730000D03*
D19*
X134620000Y-103930000D03*
D21*
X182495000Y-69420000D03*
X182495000Y-72820000D03*
X195965000Y-72820000D03*
X195965000Y-69420000D03*
D18*
X231140000Y-61810000D03*
D19*
X231140000Y-54610000D03*
D21*
X230755000Y-69420000D03*
X230755000Y-72820000D03*
X244225000Y-72820000D03*
X244225000Y-69420000D03*
D16*
X195580000Y-93980000D03*
D17*
X195580000Y-104140000D03*
D24*
X81915000Y-102420420D03*
D11*
X85725000Y-91818460D03*
X84455000Y-91818460D03*
X78105000Y-91818460D03*
X80645000Y-91818460D03*
X79375000Y-91818460D03*
X83185000Y-91818460D03*
D16*
X147320000Y-63290000D03*
D17*
X147320000Y-53130000D03*
D14*
X93980000Y-75210000D03*
X93980000Y-72110000D03*
D16*
X194310000Y-63290000D03*
D17*
X194310000Y-53130000D03*
D21*
X230755000Y-89330000D03*
X230755000Y-85930000D03*
X244225000Y-85930000D03*
X244225000Y-89330000D03*
D20*
X207010000Y-96730000D03*
D19*
X207010000Y-103930000D03*
D27*
X93345000Y-81550000D03*
X93345000Y-83550000D03*
X93345000Y-77105000D03*
X93345000Y-79105000D03*
D21*
X206625000Y-69420000D03*
X206625000Y-72820000D03*
X220095000Y-72820000D03*
X220095000Y-69420000D03*
D24*
X80010000Y-56268620D03*
D11*
X76200000Y-66870580D03*
X81280000Y-66870580D03*
X78740000Y-66870580D03*
X83820000Y-66870580D03*
X82550000Y-66870580D03*
X77470000Y-66870580D03*
D28*
X70815000Y-91435000D03*
D29*
X70815000Y-96515000D03*
D16*
X219710000Y-63290000D03*
D17*
X219710000Y-53130000D03*
D16*
X121920000Y-63246000D03*
D17*
X121920000Y-53086000D03*
D20*
X182880000Y-96730000D03*
D19*
X182880000Y-103930000D03*
D30*
X247269000Y-51943000D03*
X247269000Y-106299000D03*
D31*
X217170000Y-93980000D03*
X174625000Y-65405000D03*
X201295000Y-98425000D03*
X198120000Y-93345000D03*
X217170000Y-99060000D03*
X129540000Y-60325000D03*
X153670000Y-65405000D03*
X164465000Y-97790000D03*
X80645000Y-69850000D03*
X120015000Y-97790000D03*
X174625000Y-93345000D03*
X75565000Y-69850000D03*
X177165000Y-99060000D03*
X226060000Y-60325000D03*
X168275000Y-65405000D03*
X105410000Y-74930000D03*
X236855000Y-60325000D03*
X222250000Y-60325000D03*
X103505000Y-86360000D03*
X212090000Y-93980000D03*
X222250000Y-93980000D03*
X129540000Y-97790000D03*
X226060000Y-65405000D03*
X168275000Y-60325000D03*
X150495000Y-60325000D03*
X236855000Y-64770000D03*
X188595000Y-98425000D03*
X144780000Y-65405000D03*
X98425000Y-86360000D03*
X226060000Y-99060000D03*
D30*
X68326000Y-106172000D03*
D31*
X168275000Y-92710000D03*
X144780000Y-97790000D03*
X140335000Y-97790000D03*
X100965000Y-69850000D03*
X165100000Y-60325000D03*
X74295000Y-103505000D03*
X107315000Y-99060000D03*
X98425000Y-69850000D03*
X174625000Y-60325000D03*
X78105000Y-69850000D03*
X150495000Y-65405000D03*
X236220000Y-93980000D03*
X236220000Y-99060000D03*
X177165000Y-60325000D03*
X247650000Y-60325000D03*
X187960000Y-65405000D03*
X192405000Y-93345000D03*
X216535000Y-60325000D03*
X191770000Y-60325000D03*
X222885000Y-65405000D03*
X73025000Y-59055000D03*
X198755000Y-98425000D03*
X153670000Y-60325000D03*
X116840000Y-97790000D03*
X201930000Y-93345000D03*
X75565000Y-88900000D03*
X116840000Y-92710000D03*
X164465000Y-92710000D03*
X177800000Y-93345000D03*
X100965000Y-88900000D03*
D30*
X68326000Y-51816000D03*
D31*
X98425000Y-88900000D03*
X222250000Y-99060000D03*
X201295000Y-64770000D03*
X144780000Y-60325000D03*
X212725000Y-60325000D03*
X83185000Y-69850000D03*
X120015000Y-92710000D03*
X150495000Y-92710000D03*
X140335000Y-92710000D03*
X165100000Y-65405000D03*
X192405000Y-98425000D03*
X125730000Y-97790000D03*
X140335000Y-65405000D03*
X191770000Y-65405000D03*
X126365000Y-92710000D03*
X78740000Y-88900000D03*
X102235000Y-71755000D03*
X73660000Y-66675000D03*
X201295000Y-60325000D03*
X247650000Y-64135000D03*
X120015000Y-66040000D03*
X74295000Y-106680000D03*
X125730000Y-60325000D03*
X188595000Y-93345000D03*
X103505000Y-88900000D03*
X197485000Y-60325000D03*
X116205000Y-66040000D03*
X140335000Y-60325000D03*
X150495000Y-97790000D03*
X153670000Y-97790000D03*
X82550000Y-88900000D03*
X144145000Y-92710000D03*
X174625000Y-99060000D03*
X73025000Y-55880000D03*
X119380000Y-60325000D03*
X177165000Y-65405000D03*
X216535000Y-64770000D03*
X212725000Y-64770000D03*
X100965000Y-86360000D03*
X187960000Y-60325000D03*
X212090000Y-99060000D03*
X153670000Y-92710000D03*
X106045000Y-65405000D03*
X73025000Y-52705000D03*
X126365000Y-65405000D03*
X226060000Y-93980000D03*
X168275000Y-97790000D03*
X95885000Y-69850000D03*
X116205000Y-60325000D03*
X129540000Y-92710000D03*
X73025000Y-62230000D03*
X129540000Y-65405000D03*
X95250000Y-58420000D03*
X95885000Y-102870000D03*
X78105000Y-105410000D03*
X83820000Y-58420000D03*
X103505000Y-100330000D03*
X83820000Y-53340000D03*
X99695000Y-105410000D03*
X85725000Y-102870000D03*
X78105000Y-100330000D03*
X83820000Y-55880000D03*
X99695000Y-100330000D03*
X80010000Y-53340000D03*
X80010000Y-55880000D03*
X99060000Y-53340000D03*
X99695000Y-102870000D03*
X81915000Y-105410000D03*
X81915000Y-102870000D03*
X76200000Y-58420000D03*
X76200000Y-55880000D03*
X102870000Y-58420000D03*
X95885000Y-105410000D03*
X102870000Y-55880000D03*
X95885000Y-100330000D03*
X95250000Y-53340000D03*
X81915000Y-100330000D03*
X95250000Y-55880000D03*
X85725000Y-100330000D03*
X80010000Y-58420000D03*
X99060000Y-58420000D03*
X76200000Y-53340000D03*
X99060000Y-55880000D03*
X102870000Y-53340000D03*
X103505000Y-105410000D03*
X103505000Y-102870000D03*
X85725000Y-105410000D03*
X78105000Y-102870000D03*
D32*
X230755000Y-69420000D02*
X230755000Y-62195000D01*
X230755000Y-62195000D02*
X231140000Y-61810000D01*
X230755000Y-72820000D02*
X230755000Y-69420000D01*
X230755000Y-89330000D02*
X230755000Y-96345000D01*
X230755000Y-96345000D02*
X231140000Y-96730000D01*
X230755000Y-85930000D02*
X230755000Y-89330000D01*
D33*
X84455000Y-95885000D02*
X83825000Y-96515000D01*
X83825000Y-96515000D02*
X70815000Y-96515000D01*
X71120000Y-81280000D02*
X71120000Y-83185000D01*
X71120000Y-83185000D02*
X67310000Y-86995000D01*
X67310000Y-86995000D02*
X67310000Y-93010000D01*
X67310000Y-93010000D02*
X70815000Y-96515000D01*
X93910000Y-75140000D02*
X82200000Y-75140000D01*
X93345000Y-79105000D02*
X93345000Y-81550000D01*
D32*
X100779580Y-54610000D02*
X99060000Y-56329580D01*
D33*
X74490580Y-68580000D02*
X72390000Y-68580000D01*
X76200000Y-66870580D02*
X74490580Y-68580000D01*
X72390000Y-68580000D02*
X71120000Y-69850000D01*
X71120000Y-81280000D02*
X71120000Y-69850000D01*
X71120000Y-69850000D02*
X71120000Y-66675000D01*
X93980000Y-63500000D02*
X95250000Y-64770000D01*
X76835000Y-63500000D02*
X93980000Y-63500000D01*
X95250000Y-64770000D02*
X95250000Y-66931540D01*
X102870000Y-58420000D02*
X102870000Y-61976000D01*
X102625000Y-74540000D02*
X102625000Y-75565000D01*
X102870000Y-61976000D02*
X104775000Y-63881000D01*
X104775000Y-72390000D02*
X102625000Y-74540000D01*
X104775000Y-63881000D02*
X104775000Y-72390000D01*
X86163660Y-95885000D02*
X84455000Y-95885000D01*
X85725000Y-91818460D02*
X85725000Y-94615000D01*
X85725000Y-94615000D02*
X84455000Y-95885000D01*
X86163660Y-95885000D02*
X102235000Y-95885000D01*
X102235000Y-95885000D02*
X103505000Y-94615000D01*
X103505000Y-94615000D02*
X103505000Y-91879420D01*
X103505000Y-100330000D02*
X103505000Y-98425000D01*
X105410000Y-81550000D02*
X102600000Y-78740000D01*
X103505000Y-98425000D02*
X105410000Y-96520000D01*
X105410000Y-96520000D02*
X105410000Y-81550000D01*
X93980000Y-75210000D02*
X93910000Y-75140000D01*
X100600000Y-78740000D02*
X98192500Y-78740000D01*
X90535000Y-78740000D02*
X73660000Y-78740000D01*
X93345000Y-81550000D02*
X90535000Y-78740000D01*
X93745000Y-81150000D02*
X93345000Y-81550000D01*
X74295000Y-63500000D02*
X76835000Y-63500000D01*
X96117500Y-78740000D02*
X96117500Y-80747500D01*
X96117500Y-80747500D02*
X96520000Y-81150000D01*
X96520000Y-81150000D02*
X93745000Y-81150000D01*
X71120000Y-66675000D02*
X74295000Y-63500000D01*
X93345000Y-79105000D02*
X95752500Y-79105000D01*
X76835000Y-63500000D02*
X77470000Y-63500000D01*
X73660000Y-78740000D02*
X71120000Y-81280000D01*
X95752500Y-79105000D02*
X96117500Y-78740000D01*
D32*
X110105000Y-72820000D02*
X110105000Y-62195000D01*
X110105000Y-62195000D02*
X110490000Y-61810000D01*
X244225000Y-69420000D02*
X244225000Y-89330000D01*
D33*
X97790000Y-75210000D02*
X93980000Y-75210000D01*
D32*
X123575000Y-88945000D02*
X123960000Y-89330000D01*
D33*
X93345000Y-77105000D02*
X93345000Y-75845000D01*
D32*
X195965000Y-69420000D02*
X195965000Y-89330000D01*
D34*
X123575000Y-69420000D02*
X123575000Y-72820000D01*
D32*
X171835000Y-69420000D02*
X171835000Y-89330000D01*
D33*
X93345000Y-75845000D02*
X93980000Y-75210000D01*
D34*
X171835000Y-85975000D02*
X171835000Y-93595000D01*
D32*
X123575000Y-69420000D02*
X123575000Y-88945000D01*
X220095000Y-69420000D02*
X220095000Y-89330000D01*
X147705000Y-69420000D02*
X147705000Y-89330000D01*
D34*
X171835000Y-93595000D02*
X171450000Y-93980000D01*
D32*
X134235000Y-72820000D02*
X134235000Y-62151000D01*
X134235000Y-62151000D02*
X134620000Y-61766000D01*
X158365000Y-72820000D02*
X158365000Y-62449000D01*
X158365000Y-62449000D02*
X159004000Y-61810000D01*
X182495000Y-72820000D02*
X182495000Y-62195000D01*
X182495000Y-62195000D02*
X182880000Y-61810000D01*
X206625000Y-62195000D02*
X207010000Y-61810000D01*
X206625000Y-72820000D02*
X206625000Y-62195000D01*
X110490000Y-95670000D02*
X111760000Y-96940000D01*
X110490000Y-85930000D02*
X110490000Y-95670000D01*
X134235000Y-96345000D02*
X134620000Y-96730000D01*
X134235000Y-85930000D02*
X134235000Y-96345000D01*
X158365000Y-96135000D02*
X158750000Y-96520000D01*
X158365000Y-85930000D02*
X158365000Y-96135000D01*
X182495000Y-96345000D02*
X182880000Y-96730000D01*
X182495000Y-85930000D02*
X182495000Y-96345000D01*
D33*
X102625000Y-78715000D02*
X102600000Y-78740000D01*
D32*
X239141000Y-104140000D02*
X239649000Y-103632000D01*
D33*
X102625000Y-75565000D02*
X102625000Y-78715000D01*
D32*
X239141000Y-54610000D02*
X239522000Y-54991000D01*
X111760000Y-104140000D02*
X239141000Y-104140000D01*
X110490000Y-54610000D02*
X239141000Y-54610000D01*
D33*
X99415000Y-72110000D02*
X100575000Y-73270000D01*
X97790000Y-72110000D02*
X99415000Y-72110000D01*
X100575000Y-73270000D02*
X100575000Y-75565000D01*
X93980000Y-72110000D02*
X97790000Y-72110000D01*
D32*
X206625000Y-96345000D02*
X207010000Y-96730000D01*
X206625000Y-85930000D02*
X206625000Y-96345000D01*
G04 #@! TA.AperFunction,Conductor*
G36*
X245336246Y-49423502D02*
G01*
X245382739Y-49477158D01*
X245392843Y-49547432D01*
X245363349Y-49612012D01*
X245346906Y-49627833D01*
X245252509Y-49703459D01*
X245249958Y-49706037D01*
X245044801Y-49913354D01*
X245008466Y-49950071D01*
X245006225Y-49952929D01*
X244829892Y-50177816D01*
X244794386Y-50223098D01*
X244613105Y-50518921D01*
X244467027Y-50833620D01*
X244465891Y-50837056D01*
X244365134Y-51141716D01*
X244358087Y-51163023D01*
X244357351Y-51166578D01*
X244357350Y-51166581D01*
X244289936Y-51492111D01*
X244287730Y-51502764D01*
X244256888Y-51848341D01*
X244256983Y-51851971D01*
X244256983Y-51851972D01*
X244260923Y-52002434D01*
X244265970Y-52195171D01*
X244266481Y-52198761D01*
X244266481Y-52198762D01*
X244274873Y-52257727D01*
X244314856Y-52538660D01*
X244402897Y-52874253D01*
X244528927Y-53197503D01*
X244691275Y-53504126D01*
X244693325Y-53507109D01*
X244693327Y-53507112D01*
X244885733Y-53787064D01*
X244885739Y-53787071D01*
X244887790Y-53790056D01*
X244979491Y-53895175D01*
X245084521Y-54015573D01*
X245115866Y-54051505D01*
X245188696Y-54117775D01*
X245328268Y-54244775D01*
X245372481Y-54285006D01*
X245654233Y-54487466D01*
X245957388Y-54656200D01*
X246277928Y-54788972D01*
X246281422Y-54789967D01*
X246281424Y-54789968D01*
X246608103Y-54883025D01*
X246608108Y-54883026D01*
X246611604Y-54884022D01*
X246808304Y-54916233D01*
X246950412Y-54939504D01*
X246950419Y-54939505D01*
X246953993Y-54940090D01*
X247127275Y-54948262D01*
X247296931Y-54956263D01*
X247296932Y-54956263D01*
X247300558Y-54956434D01*
X247309415Y-54955830D01*
X247643073Y-54933084D01*
X247643081Y-54933083D01*
X247646704Y-54932836D01*
X247650279Y-54932173D01*
X247650282Y-54932173D01*
X247984279Y-54870270D01*
X247984283Y-54870269D01*
X247987844Y-54869609D01*
X248319456Y-54767592D01*
X248637145Y-54628136D01*
X248806455Y-54529200D01*
X248933560Y-54454926D01*
X248933562Y-54454925D01*
X248936700Y-54453091D01*
X249060065Y-54360466D01*
X249211244Y-54246958D01*
X249211248Y-54246955D01*
X249214151Y-54244775D01*
X249465819Y-54005950D01*
X249466263Y-54006418D01*
X249524869Y-53971988D01*
X249595808Y-53974829D01*
X249653950Y-54015573D01*
X249680835Y-54081282D01*
X249681500Y-54094208D01*
X249681500Y-104154740D01*
X249661498Y-104222861D01*
X249607842Y-104269354D01*
X249537568Y-104279458D01*
X249472988Y-104249964D01*
X249463200Y-104240511D01*
X249401925Y-104174572D01*
X249354842Y-104123904D01*
X249091019Y-103898578D01*
X248803047Y-103705069D01*
X248494741Y-103545940D01*
X248170189Y-103423302D01*
X248166668Y-103422418D01*
X248166663Y-103422416D01*
X248000280Y-103380624D01*
X247833692Y-103338780D01*
X247811476Y-103335855D01*
X247493315Y-103293968D01*
X247493307Y-103293967D01*
X247489711Y-103293494D01*
X247345045Y-103291221D01*
X247146446Y-103288101D01*
X247146442Y-103288101D01*
X247142804Y-103288044D01*
X247139190Y-103288405D01*
X247139184Y-103288405D01*
X246895843Y-103312694D01*
X246797569Y-103322503D01*
X246559465Y-103374418D01*
X246525623Y-103381797D01*
X246458583Y-103396414D01*
X246455156Y-103397587D01*
X246455150Y-103397589D01*
X246376296Y-103424587D01*
X246130339Y-103508797D01*
X245817188Y-103658163D01*
X245523279Y-103842532D01*
X245520443Y-103844804D01*
X245520436Y-103844809D01*
X245294049Y-104026179D01*
X245252509Y-104059459D01*
X245249958Y-104062037D01*
X245044801Y-104269354D01*
X245008466Y-104306071D01*
X245006225Y-104308929D01*
X244829892Y-104533816D01*
X244794386Y-104579098D01*
X244613105Y-104874921D01*
X244467027Y-105189620D01*
X244465891Y-105193056D01*
X244370874Y-105480360D01*
X244358087Y-105519023D01*
X244357351Y-105522578D01*
X244357350Y-105522581D01*
X244291443Y-105840833D01*
X244287730Y-105858764D01*
X244256888Y-106204341D01*
X244265970Y-106551171D01*
X244266481Y-106554761D01*
X244266481Y-106554762D01*
X244273561Y-106604510D01*
X244314856Y-106894660D01*
X244402897Y-107230253D01*
X244528927Y-107553503D01*
X244557551Y-107607565D01*
X244580750Y-107651379D01*
X244691275Y-107860126D01*
X244693325Y-107863109D01*
X244693327Y-107863112D01*
X244885733Y-108143064D01*
X244885739Y-108143071D01*
X244887790Y-108146056D01*
X244979491Y-108251175D01*
X245084521Y-108371573D01*
X245115866Y-108407505D01*
X245118552Y-108409949D01*
X245209062Y-108492307D01*
X245245984Y-108552947D01*
X245244261Y-108623922D01*
X245204439Y-108682699D01*
X245139161Y-108710616D01*
X245124262Y-108711500D01*
X70332200Y-108711500D01*
X70264079Y-108691498D01*
X70217586Y-108637842D01*
X70207482Y-108567568D01*
X70236976Y-108502988D01*
X70256547Y-108484740D01*
X70268244Y-108475958D01*
X70268248Y-108475955D01*
X70271151Y-108473775D01*
X70522819Y-108234950D01*
X70745370Y-107968783D01*
X70935853Y-107678799D01*
X71037957Y-107475787D01*
X71090117Y-107372080D01*
X71090120Y-107372072D01*
X71091744Y-107368844D01*
X71102985Y-107338126D01*
X71209729Y-107046437D01*
X71209730Y-107046433D01*
X71210977Y-107043026D01*
X71211822Y-107039504D01*
X71211825Y-107039496D01*
X71291124Y-106709191D01*
X71291125Y-106709187D01*
X71291971Y-106705662D01*
X71311536Y-106543984D01*
X71333316Y-106364004D01*
X71333316Y-106363997D01*
X71333652Y-106361225D01*
X71335328Y-106307915D01*
X71339511Y-106174797D01*
X71339599Y-106172000D01*
X71338327Y-106149938D01*
X71319836Y-105829246D01*
X71319835Y-105829241D01*
X71319627Y-105825626D01*
X71306805Y-105752160D01*
X71260600Y-105487415D01*
X71260598Y-105487408D01*
X71259976Y-105483842D01*
X71161437Y-105151180D01*
X71042037Y-104871250D01*
X71026740Y-104835386D01*
X71026738Y-104835383D01*
X71025316Y-104832048D01*
X70853417Y-104530676D01*
X70648018Y-104251060D01*
X70411842Y-103996904D01*
X70148019Y-103771578D01*
X69860047Y-103578069D01*
X69801019Y-103547602D01*
X69554961Y-103420602D01*
X69551741Y-103418940D01*
X69227189Y-103296302D01*
X69223668Y-103295418D01*
X69223663Y-103295416D01*
X69062378Y-103254904D01*
X68890692Y-103211780D01*
X68868476Y-103208855D01*
X68550315Y-103166968D01*
X68550307Y-103166967D01*
X68546711Y-103166494D01*
X68402045Y-103164221D01*
X68203446Y-103161101D01*
X68203442Y-103161101D01*
X68199804Y-103161044D01*
X68196190Y-103161405D01*
X68196184Y-103161405D01*
X67952843Y-103185694D01*
X67854569Y-103195503D01*
X67515583Y-103269414D01*
X67512156Y-103270587D01*
X67512150Y-103270589D01*
X67312981Y-103338780D01*
X67187339Y-103381797D01*
X66874188Y-103531163D01*
X66871109Y-103533094D01*
X66871108Y-103533095D01*
X66850631Y-103545940D01*
X66580279Y-103715532D01*
X66577443Y-103717804D01*
X66577436Y-103717809D01*
X66348861Y-103900932D01*
X66309509Y-103932459D01*
X66141522Y-104102215D01*
X66129061Y-104114807D01*
X66066928Y-104149158D01*
X65996086Y-104144464D01*
X65939029Y-104102215D01*
X65913870Y-104035826D01*
X65913500Y-104026179D01*
X65913500Y-86991462D01*
X66296626Y-86991462D01*
X66297206Y-86997593D01*
X66300941Y-87037109D01*
X66301500Y-87048967D01*
X66301500Y-92948157D01*
X66300763Y-92961764D01*
X66296676Y-92999388D01*
X66297213Y-93005523D01*
X66301050Y-93049388D01*
X66301379Y-93054214D01*
X66301500Y-93056686D01*
X66301500Y-93059769D01*
X66301801Y-93062837D01*
X66305690Y-93102506D01*
X66305812Y-93103819D01*
X66313913Y-93196413D01*
X66315400Y-93201532D01*
X66315920Y-93206833D01*
X66342791Y-93295834D01*
X66343126Y-93296967D01*
X66369091Y-93386336D01*
X66371544Y-93391068D01*
X66373084Y-93396169D01*
X66375978Y-93401612D01*
X66416731Y-93478260D01*
X66417343Y-93479426D01*
X66438831Y-93520880D01*
X66460108Y-93561926D01*
X66463431Y-93566089D01*
X66465934Y-93570796D01*
X66524755Y-93642918D01*
X66525446Y-93643774D01*
X66556738Y-93682973D01*
X66559242Y-93685477D01*
X66559884Y-93686195D01*
X66563585Y-93690528D01*
X66590935Y-93724062D01*
X66595682Y-93727989D01*
X66595684Y-93727991D01*
X66626262Y-93753287D01*
X66635042Y-93761277D01*
X68990827Y-96117062D01*
X69024853Y-96179374D01*
X69027098Y-96218778D01*
X69002050Y-96467526D01*
X69002274Y-96472192D01*
X69002274Y-96472197D01*
X69008609Y-96604065D01*
X69014947Y-96736019D01*
X69067388Y-96999656D01*
X69158220Y-97252646D01*
X69160432Y-97256762D01*
X69160433Y-97256765D01*
X69218532Y-97364892D01*
X69285450Y-97489431D01*
X69288241Y-97493168D01*
X69288245Y-97493175D01*
X69367004Y-97598645D01*
X69446281Y-97704810D01*
X69449590Y-97708090D01*
X69449595Y-97708096D01*
X69632229Y-97889142D01*
X69637180Y-97894050D01*
X69640942Y-97896808D01*
X69640945Y-97896811D01*
X69835522Y-98039480D01*
X69853954Y-98052995D01*
X69858089Y-98055171D01*
X69858093Y-98055173D01*
X70071881Y-98167653D01*
X70091840Y-98178154D01*
X70151540Y-98199002D01*
X70336238Y-98263501D01*
X70345613Y-98266775D01*
X70350206Y-98267647D01*
X70605109Y-98316042D01*
X70605112Y-98316042D01*
X70609698Y-98316913D01*
X70737370Y-98321929D01*
X70873625Y-98327283D01*
X70873630Y-98327283D01*
X70878293Y-98327466D01*
X70982607Y-98316042D01*
X71140844Y-98298713D01*
X71140850Y-98298712D01*
X71145497Y-98298203D01*
X71150021Y-98297012D01*
X71400918Y-98230956D01*
X71400920Y-98230955D01*
X71405441Y-98229765D01*
X71411237Y-98227275D01*
X71648120Y-98125502D01*
X71648122Y-98125501D01*
X71652414Y-98123657D01*
X71802494Y-98030785D01*
X71877017Y-97984669D01*
X71877021Y-97984666D01*
X71880990Y-97982210D01*
X72086149Y-97808530D01*
X72263382Y-97606434D01*
X72267336Y-97600288D01*
X72279525Y-97581337D01*
X72333199Y-97534866D01*
X72385496Y-97523500D01*
X77156557Y-97523500D01*
X77224678Y-97543502D01*
X77271171Y-97597158D01*
X77281275Y-97667432D01*
X77251781Y-97732012D01*
X77217042Y-97760033D01*
X77105586Y-97821023D01*
X77045101Y-97836490D01*
X76466826Y-97836490D01*
X76404644Y-97843245D01*
X76268255Y-97894375D01*
X76151699Y-97981729D01*
X76064345Y-98098285D01*
X76013215Y-98234674D01*
X76006460Y-98296856D01*
X76006460Y-98632080D01*
X75986458Y-98700201D01*
X75980906Y-98708149D01*
X75956976Y-98739737D01*
X75893029Y-98884291D01*
X75873027Y-98952412D01*
X75848500Y-99123000D01*
X75848500Y-106084682D01*
X75848866Y-106105737D01*
X75849171Y-106114503D01*
X75851446Y-106149938D01*
X75886608Y-106304044D01*
X75911301Y-106370608D01*
X75921965Y-106397381D01*
X75924443Y-106401574D01*
X75992131Y-106516119D01*
X76008918Y-106566613D01*
X76013215Y-106606166D01*
X76064345Y-106742555D01*
X76151699Y-106859111D01*
X76268255Y-106946465D01*
X76404644Y-106997595D01*
X76466826Y-107004350D01*
X76926290Y-107004350D01*
X76970532Y-107012373D01*
X77233072Y-107110826D01*
X77233077Y-107110828D01*
X77235758Y-107111833D01*
X77290620Y-107126904D01*
X77338751Y-107140126D01*
X77338756Y-107140127D01*
X77341504Y-107140882D01*
X77386246Y-107148904D01*
X77495508Y-107158403D01*
X77498348Y-107158392D01*
X77498354Y-107158392D01*
X100954839Y-107065311D01*
X100955339Y-107065310D01*
X105143174Y-107065310D01*
X105205356Y-107058555D01*
X105212755Y-107055781D01*
X105220436Y-107053955D01*
X105220587Y-107054592D01*
X105255195Y-107048246D01*
X105873658Y-107045792D01*
X109171708Y-107032704D01*
X109239907Y-107052436D01*
X109261302Y-107069608D01*
X109643942Y-107452248D01*
X109692148Y-107495551D01*
X109713122Y-107512454D01*
X109777927Y-107558024D01*
X109922481Y-107621971D01*
X109990602Y-107641973D01*
X109995058Y-107642614D01*
X109995064Y-107642615D01*
X110090970Y-107656404D01*
X110161190Y-107666500D01*
X113158000Y-107666500D01*
X113163972Y-107665858D01*
X113283352Y-107653024D01*
X113283362Y-107653022D01*
X113286705Y-107652663D01*
X113289996Y-107651947D01*
X113290003Y-107651946D01*
X113292609Y-107651379D01*
X113319390Y-107648500D01*
X239018787Y-107648500D01*
X239027247Y-107648784D01*
X239088598Y-107652913D01*
X239088601Y-107652913D01*
X239091944Y-107653138D01*
X239207518Y-107648597D01*
X239212465Y-107648500D01*
X239234461Y-107648500D01*
X239302294Y-107644885D01*
X239303991Y-107644806D01*
X239361194Y-107642559D01*
X239462191Y-107638591D01*
X239462197Y-107638590D01*
X239465542Y-107638459D01*
X239468856Y-107637973D01*
X239468862Y-107637972D01*
X239484066Y-107635740D01*
X239495662Y-107634582D01*
X239496016Y-107634563D01*
X239514357Y-107633586D01*
X239517660Y-107633054D01*
X239517669Y-107633053D01*
X239596818Y-107620304D01*
X239673967Y-107607878D01*
X239675572Y-107607631D01*
X239774399Y-107593126D01*
X239832135Y-107584652D01*
X239832139Y-107584651D01*
X239835465Y-107584163D01*
X239845099Y-107581680D01*
X239853600Y-107579490D01*
X239865001Y-107577109D01*
X239880165Y-107574666D01*
X239880170Y-107574665D01*
X239883485Y-107574131D01*
X239886717Y-107573250D01*
X239886721Y-107573249D01*
X239971553Y-107550121D01*
X240039347Y-107531638D01*
X240040997Y-107531201D01*
X240197524Y-107490866D01*
X240200650Y-107489694D01*
X240200660Y-107489691D01*
X240215066Y-107484290D01*
X240226155Y-107480709D01*
X240240961Y-107476672D01*
X240240966Y-107476671D01*
X240244206Y-107475787D01*
X240394697Y-107416962D01*
X240396252Y-107416367D01*
X240547619Y-107359622D01*
X240550616Y-107358118D01*
X240564358Y-107351222D01*
X240574996Y-107346486D01*
X240589314Y-107340889D01*
X240589320Y-107340886D01*
X240592434Y-107339669D01*
X240595400Y-107338128D01*
X240595405Y-107338126D01*
X240735809Y-107265192D01*
X240737376Y-107264392D01*
X240881784Y-107191920D01*
X240897530Y-107181792D01*
X240907602Y-107175953D01*
X240924226Y-107167317D01*
X241058895Y-107078012D01*
X241060349Y-107077063D01*
X241071940Y-107069608D01*
X241196238Y-106989657D01*
X241198846Y-106987556D01*
X241198859Y-106987547D01*
X241210831Y-106977904D01*
X241220231Y-106971024D01*
X241233022Y-106962542D01*
X241233033Y-106962534D01*
X241235824Y-106960683D01*
X241238409Y-106958541D01*
X241238414Y-106958537D01*
X241360142Y-106857655D01*
X241361504Y-106856541D01*
X241367228Y-106851931D01*
X241487416Y-106755124D01*
X241491738Y-106751031D01*
X241501785Y-106740984D01*
X241510480Y-106733065D01*
X241521114Y-106724252D01*
X241521123Y-106724243D01*
X241523700Y-106722108D01*
X241637731Y-106605052D01*
X241638890Y-106603879D01*
X242195971Y-106046798D01*
X242361734Y-105862375D01*
X242381096Y-105840833D01*
X242381098Y-105840830D01*
X242383341Y-105838335D01*
X242602313Y-105535281D01*
X242787842Y-105210674D01*
X242937826Y-104868189D01*
X243044568Y-104530676D01*
X243049556Y-104514903D01*
X243049556Y-104514902D01*
X243050567Y-104511706D01*
X243105496Y-104240511D01*
X243124120Y-104148559D01*
X243124121Y-104148556D01*
X243124788Y-104145260D01*
X243126540Y-104126559D01*
X243149568Y-103880648D01*
X243159649Y-103773003D01*
X243159604Y-103769560D01*
X243154799Y-103402497D01*
X243154799Y-103402494D01*
X243154755Y-103399148D01*
X243110161Y-103027930D01*
X243026374Y-102663554D01*
X242904339Y-102310144D01*
X242745441Y-101971702D01*
X242551479Y-101652063D01*
X242324649Y-101354844D01*
X242067520Y-101083412D01*
X242064978Y-101081245D01*
X242064973Y-101081240D01*
X241785554Y-100843016D01*
X241783003Y-100840841D01*
X241780235Y-100838949D01*
X241477079Y-100631763D01*
X241477075Y-100631761D01*
X241474319Y-100629877D01*
X241471379Y-100628297D01*
X241471372Y-100628293D01*
X241147911Y-100454490D01*
X241144967Y-100452908D01*
X240798673Y-100311942D01*
X240691587Y-100281134D01*
X240442573Y-100209494D01*
X240442567Y-100209493D01*
X240439360Y-100208570D01*
X240310829Y-100186023D01*
X240074395Y-100144546D01*
X240074388Y-100144545D01*
X240071098Y-100143968D01*
X240067767Y-100143744D01*
X240067760Y-100143743D01*
X239701401Y-100119088D01*
X239701398Y-100119088D01*
X239698055Y-100118863D01*
X239523845Y-100125707D01*
X239327809Y-100133409D01*
X239327803Y-100133410D01*
X239324457Y-100133541D01*
X239085499Y-100168615D01*
X238957852Y-100187350D01*
X238957849Y-100187351D01*
X238954535Y-100187837D01*
X238951297Y-100188671D01*
X238951289Y-100188673D01*
X238595722Y-100280297D01*
X238595712Y-100280300D01*
X238592476Y-100281134D01*
X238242381Y-100412378D01*
X238239377Y-100413885D01*
X238239376Y-100413886D01*
X237911212Y-100578577D01*
X237911206Y-100578581D01*
X237908216Y-100580081D01*
X237905398Y-100581893D01*
X237905399Y-100581893D01*
X237859415Y-100611471D01*
X237791252Y-100631500D01*
X232360683Y-100631500D01*
X232315529Y-100623131D01*
X232228764Y-100589825D01*
X232228762Y-100589824D01*
X232225674Y-100588639D01*
X231870459Y-100493459D01*
X231841978Y-100488948D01*
X231777825Y-100458535D01*
X231740298Y-100398267D01*
X231741312Y-100327278D01*
X231780545Y-100268106D01*
X231845540Y-100239538D01*
X231861689Y-100238499D01*
X232752336Y-100238499D01*
X232753705Y-100238439D01*
X232753716Y-100238439D01*
X232811914Y-100235899D01*
X232811920Y-100235898D01*
X232815480Y-100235743D01*
X232888955Y-100224106D01*
X233088571Y-100192491D01*
X233088578Y-100192489D01*
X233092918Y-100191802D01*
X233281883Y-100134029D01*
X233357322Y-100110965D01*
X233357327Y-100110963D01*
X233361540Y-100109675D01*
X233365529Y-100107815D01*
X233365534Y-100107813D01*
X233612126Y-99992826D01*
X233612132Y-99992823D01*
X233616118Y-99990964D01*
X233807665Y-99866572D01*
X233848002Y-99840377D01*
X233848006Y-99840374D01*
X233851697Y-99837977D01*
X234063692Y-99653692D01*
X234247977Y-99441697D01*
X234262188Y-99419815D01*
X234398563Y-99209815D01*
X234400964Y-99206118D01*
X234402823Y-99202132D01*
X234402826Y-99202126D01*
X234517813Y-98955534D01*
X234517815Y-98955529D01*
X234519675Y-98951540D01*
X234529688Y-98918792D01*
X234600514Y-98687130D01*
X234601802Y-98682918D01*
X234602489Y-98678578D01*
X234602491Y-98678571D01*
X234645185Y-98409003D01*
X234645185Y-98409002D01*
X234645743Y-98405480D01*
X234647888Y-98356365D01*
X234648440Y-98343713D01*
X234648440Y-98343709D01*
X234648500Y-98342337D01*
X234648500Y-96852217D01*
X234648784Y-96843757D01*
X234652913Y-96782401D01*
X234652913Y-96782398D01*
X234653138Y-96779055D01*
X234648596Y-96663467D01*
X234648499Y-96658521D01*
X234648499Y-95117664D01*
X234646757Y-95077756D01*
X234645899Y-95058086D01*
X234645898Y-95058080D01*
X234645743Y-95054520D01*
X234629565Y-94952374D01*
X234602491Y-94781429D01*
X234602489Y-94781422D01*
X234601802Y-94777082D01*
X234553818Y-94620134D01*
X238040500Y-94620134D01*
X238047255Y-94682316D01*
X238098385Y-94818705D01*
X238185739Y-94935261D01*
X238302295Y-95022615D01*
X238438684Y-95073745D01*
X238500866Y-95080500D01*
X240797134Y-95080500D01*
X240859316Y-95073745D01*
X240995705Y-95022615D01*
X241112261Y-94935261D01*
X241199615Y-94818705D01*
X241250745Y-94682316D01*
X241257500Y-94620134D01*
X241257500Y-92323866D01*
X241250745Y-92261684D01*
X241199615Y-92125295D01*
X241112261Y-92008739D01*
X240995705Y-91921385D01*
X240859316Y-91870255D01*
X240797134Y-91863500D01*
X238500866Y-91863500D01*
X238438684Y-91870255D01*
X238302295Y-91921385D01*
X238185739Y-92008739D01*
X238098385Y-92125295D01*
X238047255Y-92261684D01*
X238040500Y-92323866D01*
X238040500Y-94620134D01*
X234553818Y-94620134D01*
X234536310Y-94562870D01*
X234520965Y-94512678D01*
X234520963Y-94512673D01*
X234519675Y-94508460D01*
X234498888Y-94463882D01*
X234402826Y-94257874D01*
X234402823Y-94257868D01*
X234400964Y-94253882D01*
X234283827Y-94073507D01*
X234263500Y-94004883D01*
X234263500Y-89423461D01*
X240716500Y-89423461D01*
X240716589Y-89425127D01*
X240716589Y-89425136D01*
X240730741Y-89690721D01*
X240731414Y-89703357D01*
X240731944Y-89706649D01*
X240731945Y-89706656D01*
X240782265Y-90019066D01*
X240790869Y-90072485D01*
X240791752Y-90075725D01*
X240791753Y-90075728D01*
X240834109Y-90231086D01*
X240889213Y-90433206D01*
X240932801Y-90544717D01*
X240994098Y-90701530D01*
X241025331Y-90781434D01*
X241026880Y-90784416D01*
X241143091Y-91008131D01*
X241197683Y-91113226D01*
X241404317Y-91424824D01*
X241642892Y-91712700D01*
X241910708Y-91973595D01*
X241913340Y-91975662D01*
X241913344Y-91975666D01*
X242103831Y-92125295D01*
X242204731Y-92204553D01*
X242308530Y-92269540D01*
X242454543Y-92360956D01*
X242521631Y-92402959D01*
X242572816Y-92427868D01*
X242854806Y-92565099D01*
X242854810Y-92565101D01*
X242857821Y-92566566D01*
X243209493Y-92693523D01*
X243572664Y-92782390D01*
X243575983Y-92782836D01*
X243575984Y-92782836D01*
X243939914Y-92831719D01*
X243939923Y-92831720D01*
X243943223Y-92832163D01*
X244316972Y-92842276D01*
X244320313Y-92842010D01*
X244320318Y-92842010D01*
X244686331Y-92812883D01*
X244686340Y-92812882D01*
X244689680Y-92812616D01*
X244692975Y-92811996D01*
X244692978Y-92811996D01*
X245053842Y-92744136D01*
X245053850Y-92744134D01*
X245057126Y-92743518D01*
X245415149Y-92635766D01*
X245680573Y-92523919D01*
X245756610Y-92491878D01*
X245756617Y-92491875D01*
X245759694Y-92490578D01*
X246086861Y-92309600D01*
X246089599Y-92307679D01*
X246089609Y-92307673D01*
X246390202Y-92096803D01*
X246390204Y-92096802D01*
X246392943Y-92094880D01*
X246674476Y-91848851D01*
X246751407Y-91765628D01*
X246878849Y-91627761D01*
X246928270Y-91574298D01*
X247151452Y-91274330D01*
X247216488Y-91164142D01*
X247339789Y-90955236D01*
X247339792Y-90955231D01*
X247341495Y-90952345D01*
X247496246Y-90611987D01*
X247582607Y-90351619D01*
X247612895Y-90260304D01*
X247612897Y-90260297D01*
X247613953Y-90257113D01*
X247646341Y-90107944D01*
X247692572Y-89895019D01*
X247692572Y-89895016D01*
X247693284Y-89891739D01*
X247733339Y-89520005D01*
X247733500Y-89514055D01*
X247733500Y-69326539D01*
X247718586Y-69046643D01*
X247717496Y-69039871D01*
X247659665Y-68680830D01*
X247659665Y-68680829D01*
X247659131Y-68677515D01*
X247648439Y-68638295D01*
X247561672Y-68320040D01*
X247561672Y-68320039D01*
X247560787Y-68316794D01*
X247424669Y-67968566D01*
X247252317Y-67636774D01*
X247045683Y-67325176D01*
X246807108Y-67037300D01*
X246539292Y-66776405D01*
X246536660Y-66774338D01*
X246536656Y-66774334D01*
X246247907Y-66547519D01*
X246247905Y-66547518D01*
X246245269Y-66545447D01*
X246016830Y-66402425D01*
X245931214Y-66348822D01*
X245931211Y-66348820D01*
X245928369Y-66347041D01*
X245745653Y-66258122D01*
X245595194Y-66184901D01*
X245595190Y-66184899D01*
X245592179Y-66183434D01*
X245240507Y-66056477D01*
X244877336Y-65967610D01*
X244874016Y-65967164D01*
X244510086Y-65918281D01*
X244510077Y-65918280D01*
X244506777Y-65917837D01*
X244133028Y-65907724D01*
X244129687Y-65907990D01*
X244129682Y-65907990D01*
X243763669Y-65937117D01*
X243763660Y-65937118D01*
X243760320Y-65937384D01*
X243757025Y-65938004D01*
X243757022Y-65938004D01*
X243396158Y-66005864D01*
X243396150Y-66005866D01*
X243392874Y-66006482D01*
X243034851Y-66114234D01*
X242886503Y-66176747D01*
X242693390Y-66258122D01*
X242693383Y-66258125D01*
X242690306Y-66259422D01*
X242363139Y-66440400D01*
X242360401Y-66442321D01*
X242360391Y-66442327D01*
X242103216Y-66622739D01*
X242057057Y-66655120D01*
X241775524Y-66901149D01*
X241773249Y-66903610D01*
X241773246Y-66903613D01*
X241698208Y-66984789D01*
X241521730Y-67175702D01*
X241298548Y-67475670D01*
X241296844Y-67478557D01*
X241237857Y-67578498D01*
X241108505Y-67797655D01*
X240953754Y-68138013D01*
X240952700Y-68141192D01*
X240874529Y-68376869D01*
X240836047Y-68492887D01*
X240835334Y-68496171D01*
X240772486Y-68785631D01*
X240756716Y-68858261D01*
X240716661Y-69229995D01*
X240716500Y-69235945D01*
X240716500Y-89423461D01*
X234263500Y-89423461D01*
X234263500Y-85836539D01*
X234248586Y-85556643D01*
X234189131Y-85187515D01*
X234090787Y-84826794D01*
X233954669Y-84478566D01*
X233782317Y-84146774D01*
X233643223Y-83937024D01*
X233577532Y-83837964D01*
X233577531Y-83837962D01*
X233575683Y-83835176D01*
X233337108Y-83547300D01*
X233069292Y-83286405D01*
X233066660Y-83284338D01*
X233066656Y-83284334D01*
X232777907Y-83057519D01*
X232777905Y-83057518D01*
X232775269Y-83055447D01*
X232458369Y-82857041D01*
X232273894Y-82767266D01*
X232125194Y-82694901D01*
X232125190Y-82694899D01*
X232122179Y-82693434D01*
X231770507Y-82566477D01*
X231407336Y-82477610D01*
X231404016Y-82477164D01*
X231040086Y-82428281D01*
X231040077Y-82428280D01*
X231036777Y-82427837D01*
X230663028Y-82417724D01*
X230659687Y-82417990D01*
X230659682Y-82417990D01*
X230293669Y-82447117D01*
X230293660Y-82447118D01*
X230290320Y-82447384D01*
X230287025Y-82448004D01*
X230287022Y-82448004D01*
X229926158Y-82515864D01*
X229926150Y-82515866D01*
X229922874Y-82516482D01*
X229564851Y-82624234D01*
X229484313Y-82658172D01*
X229223390Y-82768122D01*
X229223383Y-82768125D01*
X229220306Y-82769422D01*
X228893139Y-82950400D01*
X228890401Y-82952321D01*
X228890391Y-82952327D01*
X228589798Y-83163197D01*
X228587057Y-83165120D01*
X228305524Y-83411149D01*
X228051730Y-83685702D01*
X227828548Y-83985670D01*
X227638505Y-84307655D01*
X227483754Y-84648013D01*
X227366047Y-85002887D01*
X227286716Y-85368261D01*
X227246661Y-85739995D01*
X227246500Y-85745945D01*
X227246500Y-96222787D01*
X227246216Y-96231247D01*
X227241862Y-96295944D01*
X227244554Y-96364465D01*
X227246403Y-96411518D01*
X227246500Y-96416465D01*
X227246500Y-96438461D01*
X227250046Y-96505007D01*
X227250113Y-96506258D01*
X227250194Y-96507991D01*
X227256541Y-96669542D01*
X227257027Y-96672856D01*
X227257028Y-96672862D01*
X227259260Y-96688066D01*
X227260418Y-96699662D01*
X227261414Y-96718357D01*
X227261946Y-96721660D01*
X227261947Y-96721669D01*
X227273335Y-96792369D01*
X227287122Y-96877967D01*
X227287369Y-96879572D01*
X227310837Y-97039465D01*
X227311675Y-97042716D01*
X227315510Y-97057600D01*
X227317891Y-97069001D01*
X227320334Y-97084165D01*
X227320869Y-97087485D01*
X227321750Y-97090717D01*
X227321751Y-97090721D01*
X227330934Y-97124405D01*
X227362260Y-97239304D01*
X227363355Y-97243322D01*
X227363799Y-97244997D01*
X227404134Y-97401524D01*
X227405306Y-97404650D01*
X227405309Y-97404660D01*
X227410710Y-97419066D01*
X227414291Y-97430155D01*
X227418328Y-97444961D01*
X227419213Y-97448206D01*
X227477437Y-97597158D01*
X227478018Y-97598645D01*
X227478630Y-97600244D01*
X227535378Y-97751619D01*
X227536882Y-97754616D01*
X227543778Y-97768358D01*
X227548514Y-97778996D01*
X227554111Y-97793314D01*
X227555331Y-97796434D01*
X227556875Y-97799406D01*
X227556878Y-97799413D01*
X227617315Y-97915760D01*
X227631501Y-97973842D01*
X227631501Y-98342336D01*
X227634257Y-98405480D01*
X227634815Y-98409002D01*
X227677509Y-98678571D01*
X227677511Y-98678578D01*
X227678198Y-98682918D01*
X227679486Y-98687130D01*
X227750313Y-98918792D01*
X227760325Y-98951540D01*
X227762185Y-98955529D01*
X227762187Y-98955534D01*
X227877174Y-99202126D01*
X227877177Y-99202132D01*
X227879036Y-99206118D01*
X227881437Y-99209815D01*
X228017813Y-99419815D01*
X228032023Y-99441697D01*
X228216308Y-99653692D01*
X228428303Y-99837977D01*
X228431994Y-99840374D01*
X228431998Y-99840377D01*
X228472335Y-99866572D01*
X228663882Y-99990964D01*
X228667868Y-99992823D01*
X228667874Y-99992826D01*
X228914466Y-100107813D01*
X228914471Y-100107815D01*
X228918460Y-100109675D01*
X228922673Y-100110963D01*
X228922678Y-100110965D01*
X228998117Y-100134029D01*
X229187082Y-100191802D01*
X229191422Y-100192489D01*
X229191429Y-100192491D01*
X229402568Y-100225931D01*
X229464520Y-100235743D01*
X229468081Y-100235898D01*
X229468086Y-100235899D01*
X229526287Y-100238440D01*
X229526291Y-100238440D01*
X229527663Y-100238500D01*
X230418305Y-100238500D01*
X230486426Y-100258502D01*
X230532919Y-100312158D01*
X230543023Y-100382432D01*
X230513529Y-100447012D01*
X230453803Y-100485396D01*
X230438016Y-100488949D01*
X230409541Y-100493459D01*
X230054326Y-100588639D01*
X230051238Y-100589824D01*
X230051236Y-100589825D01*
X229964471Y-100623131D01*
X229919317Y-100631500D01*
X208230683Y-100631500D01*
X208185529Y-100623131D01*
X208098764Y-100589825D01*
X208098762Y-100589824D01*
X208095674Y-100588639D01*
X207740459Y-100493459D01*
X207711978Y-100488948D01*
X207647825Y-100458535D01*
X207610298Y-100398267D01*
X207611312Y-100327278D01*
X207650545Y-100268106D01*
X207715540Y-100239538D01*
X207731689Y-100238499D01*
X208622336Y-100238499D01*
X208623705Y-100238439D01*
X208623716Y-100238439D01*
X208681914Y-100235899D01*
X208681920Y-100235898D01*
X208685480Y-100235743D01*
X208758955Y-100224106D01*
X208958571Y-100192491D01*
X208958578Y-100192489D01*
X208962918Y-100191802D01*
X209151883Y-100134029D01*
X209227322Y-100110965D01*
X209227327Y-100110963D01*
X209231540Y-100109675D01*
X209235529Y-100107815D01*
X209235534Y-100107813D01*
X209482126Y-99992826D01*
X209482132Y-99992823D01*
X209486118Y-99990964D01*
X209677665Y-99866572D01*
X209718002Y-99840377D01*
X209718006Y-99840374D01*
X209721697Y-99837977D01*
X209933692Y-99653692D01*
X210117977Y-99441697D01*
X210132188Y-99419815D01*
X210268563Y-99209815D01*
X210270964Y-99206118D01*
X210272823Y-99202132D01*
X210272826Y-99202126D01*
X210387813Y-98955534D01*
X210387815Y-98955529D01*
X210389675Y-98951540D01*
X210399688Y-98918792D01*
X210470514Y-98687130D01*
X210471802Y-98682918D01*
X210472489Y-98678578D01*
X210472491Y-98678571D01*
X210515185Y-98409003D01*
X210515185Y-98409002D01*
X210515743Y-98405480D01*
X210517888Y-98356365D01*
X210518440Y-98343713D01*
X210518440Y-98343709D01*
X210518500Y-98342337D01*
X210518500Y-96852217D01*
X210518784Y-96843757D01*
X210522913Y-96782401D01*
X210522913Y-96782398D01*
X210523138Y-96779055D01*
X210518596Y-96663467D01*
X210518499Y-96658521D01*
X210518499Y-95117664D01*
X210516757Y-95077756D01*
X210515899Y-95058086D01*
X210515898Y-95058080D01*
X210515743Y-95054520D01*
X210499565Y-94952374D01*
X210472491Y-94781429D01*
X210472489Y-94781422D01*
X210471802Y-94777082D01*
X210406310Y-94562870D01*
X210390965Y-94512678D01*
X210390963Y-94512673D01*
X210389675Y-94508460D01*
X210368888Y-94463882D01*
X210272826Y-94257874D01*
X210272823Y-94257868D01*
X210270964Y-94253882D01*
X210153827Y-94073507D01*
X210133500Y-94004883D01*
X210133500Y-89423461D01*
X216586500Y-89423461D01*
X216586589Y-89425127D01*
X216586589Y-89425136D01*
X216600741Y-89690721D01*
X216601414Y-89703357D01*
X216601944Y-89706649D01*
X216601945Y-89706656D01*
X216652265Y-90019066D01*
X216660869Y-90072485D01*
X216661752Y-90075725D01*
X216661753Y-90075728D01*
X216704109Y-90231086D01*
X216759213Y-90433206D01*
X216802801Y-90544717D01*
X216864098Y-90701530D01*
X216895331Y-90781434D01*
X216896880Y-90784416D01*
X217013091Y-91008131D01*
X217067683Y-91113226D01*
X217274317Y-91424824D01*
X217512892Y-91712700D01*
X217780708Y-91973595D01*
X217783340Y-91975662D01*
X217783344Y-91975666D01*
X217973831Y-92125295D01*
X218074731Y-92204553D01*
X218119335Y-92232479D01*
X218239724Y-92307853D01*
X218286848Y-92360956D01*
X218297782Y-92431106D01*
X218269054Y-92496030D01*
X218259910Y-92504649D01*
X218260269Y-92505008D01*
X218253919Y-92511358D01*
X218246739Y-92516739D01*
X218159385Y-92633295D01*
X218108255Y-92769684D01*
X218101500Y-92831866D01*
X218101500Y-95128134D01*
X218101869Y-95131531D01*
X218102185Y-95134440D01*
X218108255Y-95190316D01*
X218159385Y-95326705D01*
X218246739Y-95443261D01*
X218363295Y-95530615D01*
X218499684Y-95581745D01*
X218561866Y-95588500D01*
X220858134Y-95588500D01*
X220920316Y-95581745D01*
X221056705Y-95530615D01*
X221173261Y-95443261D01*
X221260615Y-95326705D01*
X221311745Y-95190316D01*
X221317815Y-95134440D01*
X221318131Y-95131531D01*
X221318500Y-95128134D01*
X221318500Y-92831866D01*
X221316409Y-92812616D01*
X221312598Y-92777534D01*
X221312598Y-92777532D01*
X221311745Y-92769684D01*
X221307249Y-92757691D01*
X221302069Y-92686884D01*
X221335992Y-92624516D01*
X221376305Y-92597354D01*
X221626603Y-92491881D01*
X221626611Y-92491877D01*
X221629694Y-92490578D01*
X221956861Y-92309600D01*
X221959599Y-92307679D01*
X221959609Y-92307673D01*
X222260202Y-92096803D01*
X222260204Y-92096802D01*
X222262943Y-92094880D01*
X222544476Y-91848851D01*
X222621407Y-91765628D01*
X222748849Y-91627761D01*
X222798270Y-91574298D01*
X223021452Y-91274330D01*
X223086488Y-91164142D01*
X223209789Y-90955236D01*
X223209792Y-90955231D01*
X223211495Y-90952345D01*
X223366246Y-90611987D01*
X223452607Y-90351619D01*
X223482895Y-90260304D01*
X223482897Y-90260297D01*
X223483953Y-90257113D01*
X223516341Y-90107944D01*
X223562572Y-89895019D01*
X223562572Y-89895016D01*
X223563284Y-89891739D01*
X223603339Y-89520005D01*
X223603500Y-89514055D01*
X223603500Y-69326539D01*
X223588586Y-69046643D01*
X223587496Y-69039871D01*
X223529665Y-68680830D01*
X223529665Y-68680829D01*
X223529131Y-68677515D01*
X223518439Y-68638295D01*
X223431672Y-68320040D01*
X223431672Y-68320039D01*
X223430787Y-68316794D01*
X223294669Y-67968566D01*
X223122317Y-67636774D01*
X222915683Y-67325176D01*
X222677108Y-67037300D01*
X222409292Y-66776405D01*
X222406660Y-66774338D01*
X222406656Y-66774334D01*
X222117907Y-66547519D01*
X222117905Y-66547518D01*
X222115269Y-66545447D01*
X221886830Y-66402425D01*
X221801214Y-66348822D01*
X221801211Y-66348820D01*
X221798369Y-66347041D01*
X221615653Y-66258122D01*
X221465194Y-66184901D01*
X221465190Y-66184899D01*
X221462179Y-66183434D01*
X221110507Y-66056477D01*
X220747336Y-65967610D01*
X220744016Y-65967164D01*
X220380086Y-65918281D01*
X220380077Y-65918280D01*
X220376777Y-65917837D01*
X220003028Y-65907724D01*
X219999687Y-65907990D01*
X219999682Y-65907990D01*
X219633669Y-65937117D01*
X219633660Y-65937118D01*
X219630320Y-65937384D01*
X219627025Y-65938004D01*
X219627022Y-65938004D01*
X219266158Y-66005864D01*
X219266150Y-66005866D01*
X219262874Y-66006482D01*
X218904851Y-66114234D01*
X218756503Y-66176747D01*
X218563390Y-66258122D01*
X218563383Y-66258125D01*
X218560306Y-66259422D01*
X218233139Y-66440400D01*
X218230401Y-66442321D01*
X218230391Y-66442327D01*
X217973216Y-66622739D01*
X217927057Y-66655120D01*
X217645524Y-66901149D01*
X217643249Y-66903610D01*
X217643246Y-66903613D01*
X217568208Y-66984789D01*
X217391730Y-67175702D01*
X217168548Y-67475670D01*
X217166844Y-67478557D01*
X217107857Y-67578498D01*
X216978505Y-67797655D01*
X216823754Y-68138013D01*
X216822700Y-68141192D01*
X216744529Y-68376869D01*
X216706047Y-68492887D01*
X216705334Y-68496171D01*
X216642486Y-68785631D01*
X216626716Y-68858261D01*
X216586661Y-69229995D01*
X216586500Y-69235945D01*
X216586500Y-89423461D01*
X210133500Y-89423461D01*
X210133500Y-85836539D01*
X210118586Y-85556643D01*
X210059131Y-85187515D01*
X209960787Y-84826794D01*
X209824669Y-84478566D01*
X209652317Y-84146774D01*
X209513223Y-83937024D01*
X209447532Y-83837964D01*
X209447531Y-83837962D01*
X209445683Y-83835176D01*
X209207108Y-83547300D01*
X208939292Y-83286405D01*
X208936660Y-83284338D01*
X208936656Y-83284334D01*
X208647907Y-83057519D01*
X208647905Y-83057518D01*
X208645269Y-83055447D01*
X208328369Y-82857041D01*
X208143894Y-82767266D01*
X207995194Y-82694901D01*
X207995190Y-82694899D01*
X207992179Y-82693434D01*
X207640507Y-82566477D01*
X207277336Y-82477610D01*
X207274016Y-82477164D01*
X206910086Y-82428281D01*
X206910077Y-82428280D01*
X206906777Y-82427837D01*
X206533028Y-82417724D01*
X206529687Y-82417990D01*
X206529682Y-82417990D01*
X206163669Y-82447117D01*
X206163660Y-82447118D01*
X206160320Y-82447384D01*
X206157025Y-82448004D01*
X206157022Y-82448004D01*
X205796158Y-82515864D01*
X205796150Y-82515866D01*
X205792874Y-82516482D01*
X205434851Y-82624234D01*
X205354313Y-82658172D01*
X205093390Y-82768122D01*
X205093383Y-82768125D01*
X205090306Y-82769422D01*
X204763139Y-82950400D01*
X204760401Y-82952321D01*
X204760391Y-82952327D01*
X204459798Y-83163197D01*
X204457057Y-83165120D01*
X204175524Y-83411149D01*
X203921730Y-83685702D01*
X203698548Y-83985670D01*
X203508505Y-84307655D01*
X203353754Y-84648013D01*
X203236047Y-85002887D01*
X203156716Y-85368261D01*
X203116661Y-85739995D01*
X203116500Y-85745945D01*
X203116500Y-96222787D01*
X203116216Y-96231247D01*
X203111862Y-96295944D01*
X203114554Y-96364465D01*
X203116403Y-96411518D01*
X203116500Y-96416465D01*
X203116500Y-96438461D01*
X203120046Y-96505007D01*
X203120113Y-96506258D01*
X203120194Y-96507991D01*
X203126541Y-96669542D01*
X203127027Y-96672856D01*
X203127028Y-96672862D01*
X203129260Y-96688066D01*
X203130418Y-96699662D01*
X203131414Y-96718357D01*
X203131946Y-96721660D01*
X203131947Y-96721669D01*
X203143335Y-96792369D01*
X203157122Y-96877967D01*
X203157369Y-96879572D01*
X203180837Y-97039465D01*
X203181675Y-97042716D01*
X203185510Y-97057600D01*
X203187891Y-97069001D01*
X203190334Y-97084165D01*
X203190869Y-97087485D01*
X203191750Y-97090717D01*
X203191751Y-97090721D01*
X203200934Y-97124405D01*
X203232260Y-97239304D01*
X203233355Y-97243322D01*
X203233799Y-97244997D01*
X203274134Y-97401524D01*
X203275306Y-97404650D01*
X203275309Y-97404660D01*
X203280710Y-97419066D01*
X203284291Y-97430155D01*
X203288328Y-97444961D01*
X203289213Y-97448206D01*
X203347437Y-97597158D01*
X203348018Y-97598645D01*
X203348630Y-97600244D01*
X203405378Y-97751619D01*
X203406882Y-97754616D01*
X203413778Y-97768358D01*
X203418514Y-97778996D01*
X203424111Y-97793314D01*
X203425331Y-97796434D01*
X203426875Y-97799406D01*
X203426878Y-97799413D01*
X203487315Y-97915760D01*
X203501501Y-97973842D01*
X203501501Y-98342336D01*
X203504257Y-98405480D01*
X203504815Y-98409002D01*
X203547509Y-98678571D01*
X203547511Y-98678578D01*
X203548198Y-98682918D01*
X203549486Y-98687130D01*
X203620313Y-98918792D01*
X203630325Y-98951540D01*
X203632185Y-98955529D01*
X203632187Y-98955534D01*
X203747174Y-99202126D01*
X203747177Y-99202132D01*
X203749036Y-99206118D01*
X203751437Y-99209815D01*
X203887813Y-99419815D01*
X203902023Y-99441697D01*
X204086308Y-99653692D01*
X204298303Y-99837977D01*
X204301994Y-99840374D01*
X204301998Y-99840377D01*
X204342335Y-99866572D01*
X204533882Y-99990964D01*
X204537868Y-99992823D01*
X204537874Y-99992826D01*
X204784466Y-100107813D01*
X204784471Y-100107815D01*
X204788460Y-100109675D01*
X204792673Y-100110963D01*
X204792678Y-100110965D01*
X204868117Y-100134029D01*
X205057082Y-100191802D01*
X205061422Y-100192489D01*
X205061429Y-100192491D01*
X205272568Y-100225931D01*
X205334520Y-100235743D01*
X205338081Y-100235898D01*
X205338086Y-100235899D01*
X205396287Y-100238440D01*
X205396291Y-100238440D01*
X205397663Y-100238500D01*
X206288305Y-100238500D01*
X206356426Y-100258502D01*
X206402919Y-100312158D01*
X206413023Y-100382432D01*
X206383529Y-100447012D01*
X206323803Y-100485396D01*
X206308016Y-100488949D01*
X206279541Y-100493459D01*
X205924326Y-100588639D01*
X205921238Y-100589824D01*
X205921236Y-100589825D01*
X205834471Y-100623131D01*
X205789317Y-100631500D01*
X184100683Y-100631500D01*
X184055529Y-100623131D01*
X183968764Y-100589825D01*
X183968762Y-100589824D01*
X183965674Y-100588639D01*
X183610459Y-100493459D01*
X183581978Y-100488948D01*
X183517825Y-100458535D01*
X183480298Y-100398267D01*
X183481312Y-100327278D01*
X183520545Y-100268106D01*
X183585540Y-100239538D01*
X183601689Y-100238499D01*
X184492336Y-100238499D01*
X184493705Y-100238439D01*
X184493716Y-100238439D01*
X184551914Y-100235899D01*
X184551920Y-100235898D01*
X184555480Y-100235743D01*
X184628955Y-100224106D01*
X184828571Y-100192491D01*
X184828578Y-100192489D01*
X184832918Y-100191802D01*
X185021883Y-100134029D01*
X185097322Y-100110965D01*
X185097327Y-100110963D01*
X185101540Y-100109675D01*
X185105529Y-100107815D01*
X185105534Y-100107813D01*
X185352126Y-99992826D01*
X185352132Y-99992823D01*
X185356118Y-99990964D01*
X185547665Y-99866572D01*
X185588002Y-99840377D01*
X185588006Y-99840374D01*
X185591697Y-99837977D01*
X185803692Y-99653692D01*
X185987977Y-99441697D01*
X186002188Y-99419815D01*
X186138563Y-99209815D01*
X186140964Y-99206118D01*
X186142823Y-99202132D01*
X186142826Y-99202126D01*
X186257813Y-98955534D01*
X186257815Y-98955529D01*
X186259675Y-98951540D01*
X186269688Y-98918792D01*
X186340514Y-98687130D01*
X186341802Y-98682918D01*
X186342489Y-98678578D01*
X186342491Y-98678571D01*
X186385185Y-98409003D01*
X186385185Y-98409002D01*
X186385743Y-98405480D01*
X186387888Y-98356365D01*
X186388440Y-98343713D01*
X186388440Y-98343709D01*
X186388500Y-98342337D01*
X186388500Y-96852217D01*
X186388784Y-96843757D01*
X186392913Y-96782401D01*
X186392913Y-96782398D01*
X186393138Y-96779055D01*
X186388596Y-96663467D01*
X186388499Y-96658521D01*
X186388499Y-95117664D01*
X186386757Y-95077756D01*
X186385899Y-95058086D01*
X186385898Y-95058080D01*
X186385743Y-95054520D01*
X186369565Y-94952374D01*
X186342491Y-94781429D01*
X186342489Y-94781422D01*
X186341802Y-94777082D01*
X186276310Y-94562870D01*
X186260965Y-94512678D01*
X186260963Y-94512673D01*
X186259675Y-94508460D01*
X186238888Y-94463882D01*
X186142826Y-94257874D01*
X186142823Y-94257868D01*
X186140964Y-94253882D01*
X186023827Y-94073507D01*
X186003500Y-94004883D01*
X186003500Y-89423461D01*
X192456500Y-89423461D01*
X192456589Y-89425127D01*
X192456589Y-89425136D01*
X192470741Y-89690721D01*
X192471414Y-89703357D01*
X192471944Y-89706649D01*
X192471945Y-89706656D01*
X192522265Y-90019066D01*
X192530869Y-90072485D01*
X192531752Y-90075725D01*
X192531753Y-90075728D01*
X192574109Y-90231086D01*
X192629213Y-90433206D01*
X192672801Y-90544717D01*
X192734098Y-90701530D01*
X192765331Y-90781434D01*
X192766880Y-90784416D01*
X192883091Y-91008131D01*
X192937683Y-91113226D01*
X193144317Y-91424824D01*
X193382892Y-91712700D01*
X193650708Y-91973595D01*
X193653340Y-91975662D01*
X193653344Y-91975666D01*
X193843831Y-92125295D01*
X193944731Y-92204553D01*
X193989335Y-92232479D01*
X194109724Y-92307853D01*
X194156848Y-92360956D01*
X194167782Y-92431106D01*
X194139054Y-92496030D01*
X194129910Y-92504649D01*
X194130269Y-92505008D01*
X194123919Y-92511358D01*
X194116739Y-92516739D01*
X194029385Y-92633295D01*
X193978255Y-92769684D01*
X193971500Y-92831866D01*
X193971500Y-95128134D01*
X193971869Y-95131531D01*
X193972185Y-95134440D01*
X193978255Y-95190316D01*
X194029385Y-95326705D01*
X194116739Y-95443261D01*
X194233295Y-95530615D01*
X194369684Y-95581745D01*
X194431866Y-95588500D01*
X196728134Y-95588500D01*
X196790316Y-95581745D01*
X196926705Y-95530615D01*
X197043261Y-95443261D01*
X197130615Y-95326705D01*
X197181745Y-95190316D01*
X197187815Y-95134440D01*
X197188131Y-95131531D01*
X197188500Y-95128134D01*
X197188500Y-92831866D01*
X197186409Y-92812616D01*
X197182598Y-92777534D01*
X197182598Y-92777532D01*
X197181745Y-92769684D01*
X197177249Y-92757691D01*
X197172069Y-92686884D01*
X197205992Y-92624516D01*
X197246305Y-92597354D01*
X197496603Y-92491881D01*
X197496611Y-92491877D01*
X197499694Y-92490578D01*
X197826861Y-92309600D01*
X197829599Y-92307679D01*
X197829609Y-92307673D01*
X198130202Y-92096803D01*
X198130204Y-92096802D01*
X198132943Y-92094880D01*
X198414476Y-91848851D01*
X198491407Y-91765628D01*
X198618849Y-91627761D01*
X198668270Y-91574298D01*
X198891452Y-91274330D01*
X198956488Y-91164142D01*
X199079789Y-90955236D01*
X199079792Y-90955231D01*
X199081495Y-90952345D01*
X199236246Y-90611987D01*
X199322607Y-90351619D01*
X199352895Y-90260304D01*
X199352897Y-90260297D01*
X199353953Y-90257113D01*
X199386341Y-90107944D01*
X199432572Y-89895019D01*
X199432572Y-89895016D01*
X199433284Y-89891739D01*
X199473339Y-89520005D01*
X199473500Y-89514055D01*
X199473500Y-69326539D01*
X199458586Y-69046643D01*
X199457496Y-69039871D01*
X199399665Y-68680830D01*
X199399665Y-68680829D01*
X199399131Y-68677515D01*
X199388439Y-68638295D01*
X199301672Y-68320040D01*
X199301672Y-68320039D01*
X199300787Y-68316794D01*
X199164669Y-67968566D01*
X198992317Y-67636774D01*
X198785683Y-67325176D01*
X198547108Y-67037300D01*
X198279292Y-66776405D01*
X198276660Y-66774338D01*
X198276656Y-66774334D01*
X197987907Y-66547519D01*
X197987905Y-66547518D01*
X197985269Y-66545447D01*
X197756830Y-66402425D01*
X197671214Y-66348822D01*
X197671211Y-66348820D01*
X197668369Y-66347041D01*
X197485653Y-66258122D01*
X197335194Y-66184901D01*
X197335190Y-66184899D01*
X197332179Y-66183434D01*
X196980507Y-66056477D01*
X196617336Y-65967610D01*
X196614016Y-65967164D01*
X196250086Y-65918281D01*
X196250077Y-65918280D01*
X196246777Y-65917837D01*
X195873028Y-65907724D01*
X195869687Y-65907990D01*
X195869682Y-65907990D01*
X195503669Y-65937117D01*
X195503660Y-65937118D01*
X195500320Y-65937384D01*
X195497025Y-65938004D01*
X195497022Y-65938004D01*
X195136158Y-66005864D01*
X195136150Y-66005866D01*
X195132874Y-66006482D01*
X194774851Y-66114234D01*
X194626503Y-66176747D01*
X194433390Y-66258122D01*
X194433383Y-66258125D01*
X194430306Y-66259422D01*
X194103139Y-66440400D01*
X194100401Y-66442321D01*
X194100391Y-66442327D01*
X193843216Y-66622739D01*
X193797057Y-66655120D01*
X193515524Y-66901149D01*
X193513249Y-66903610D01*
X193513246Y-66903613D01*
X193438208Y-66984789D01*
X193261730Y-67175702D01*
X193038548Y-67475670D01*
X193036844Y-67478557D01*
X192977857Y-67578498D01*
X192848505Y-67797655D01*
X192693754Y-68138013D01*
X192692700Y-68141192D01*
X192614529Y-68376869D01*
X192576047Y-68492887D01*
X192575334Y-68496171D01*
X192512486Y-68785631D01*
X192496716Y-68858261D01*
X192456661Y-69229995D01*
X192456500Y-69235945D01*
X192456500Y-89423461D01*
X186003500Y-89423461D01*
X186003500Y-85836539D01*
X185988586Y-85556643D01*
X185929131Y-85187515D01*
X185830787Y-84826794D01*
X185694669Y-84478566D01*
X185522317Y-84146774D01*
X185383223Y-83937024D01*
X185317532Y-83837964D01*
X185317531Y-83837962D01*
X185315683Y-83835176D01*
X185077108Y-83547300D01*
X184809292Y-83286405D01*
X184806660Y-83284338D01*
X184806656Y-83284334D01*
X184517907Y-83057519D01*
X184517905Y-83057518D01*
X184515269Y-83055447D01*
X184198369Y-82857041D01*
X184013894Y-82767266D01*
X183865194Y-82694901D01*
X183865190Y-82694899D01*
X183862179Y-82693434D01*
X183510507Y-82566477D01*
X183147336Y-82477610D01*
X183144016Y-82477164D01*
X182780086Y-82428281D01*
X182780077Y-82428280D01*
X182776777Y-82427837D01*
X182403028Y-82417724D01*
X182399687Y-82417990D01*
X182399682Y-82417990D01*
X182033669Y-82447117D01*
X182033660Y-82447118D01*
X182030320Y-82447384D01*
X182027025Y-82448004D01*
X182027022Y-82448004D01*
X181666158Y-82515864D01*
X181666150Y-82515866D01*
X181662874Y-82516482D01*
X181304851Y-82624234D01*
X181224313Y-82658172D01*
X180963390Y-82768122D01*
X180963383Y-82768125D01*
X180960306Y-82769422D01*
X180633139Y-82950400D01*
X180630401Y-82952321D01*
X180630391Y-82952327D01*
X180329798Y-83163197D01*
X180327057Y-83165120D01*
X180045524Y-83411149D01*
X179791730Y-83685702D01*
X179568548Y-83985670D01*
X179378505Y-84307655D01*
X179223754Y-84648013D01*
X179106047Y-85002887D01*
X179026716Y-85368261D01*
X178986661Y-85739995D01*
X178986500Y-85745945D01*
X178986500Y-96222787D01*
X178986216Y-96231247D01*
X178981862Y-96295944D01*
X178984554Y-96364465D01*
X178986403Y-96411518D01*
X178986500Y-96416465D01*
X178986500Y-96438461D01*
X178990046Y-96505007D01*
X178990113Y-96506258D01*
X178990194Y-96507991D01*
X178996541Y-96669542D01*
X178997027Y-96672856D01*
X178997028Y-96672862D01*
X178999260Y-96688066D01*
X179000418Y-96699662D01*
X179001414Y-96718357D01*
X179001946Y-96721660D01*
X179001947Y-96721669D01*
X179013335Y-96792369D01*
X179027122Y-96877967D01*
X179027369Y-96879572D01*
X179050837Y-97039465D01*
X179051675Y-97042716D01*
X179055510Y-97057600D01*
X179057891Y-97069001D01*
X179060334Y-97084165D01*
X179060869Y-97087485D01*
X179061750Y-97090717D01*
X179061751Y-97090721D01*
X179070934Y-97124405D01*
X179102260Y-97239304D01*
X179103355Y-97243322D01*
X179103799Y-97244997D01*
X179144134Y-97401524D01*
X179145306Y-97404650D01*
X179145309Y-97404660D01*
X179150710Y-97419066D01*
X179154291Y-97430155D01*
X179158328Y-97444961D01*
X179159213Y-97448206D01*
X179217437Y-97597158D01*
X179218018Y-97598645D01*
X179218630Y-97600244D01*
X179275378Y-97751619D01*
X179276882Y-97754616D01*
X179283778Y-97768358D01*
X179288514Y-97778996D01*
X179294111Y-97793314D01*
X179295331Y-97796434D01*
X179296875Y-97799406D01*
X179296878Y-97799413D01*
X179357315Y-97915760D01*
X179371501Y-97973842D01*
X179371501Y-98342336D01*
X179374257Y-98405480D01*
X179374815Y-98409002D01*
X179417509Y-98678571D01*
X179417511Y-98678578D01*
X179418198Y-98682918D01*
X179419486Y-98687130D01*
X179490313Y-98918792D01*
X179500325Y-98951540D01*
X179502185Y-98955529D01*
X179502187Y-98955534D01*
X179617174Y-99202126D01*
X179617177Y-99202132D01*
X179619036Y-99206118D01*
X179621437Y-99209815D01*
X179757813Y-99419815D01*
X179772023Y-99441697D01*
X179956308Y-99653692D01*
X180168303Y-99837977D01*
X180171994Y-99840374D01*
X180171998Y-99840377D01*
X180212335Y-99866572D01*
X180403882Y-99990964D01*
X180407868Y-99992823D01*
X180407874Y-99992826D01*
X180654466Y-100107813D01*
X180654471Y-100107815D01*
X180658460Y-100109675D01*
X180662673Y-100110963D01*
X180662678Y-100110965D01*
X180738117Y-100134029D01*
X180927082Y-100191802D01*
X180931422Y-100192489D01*
X180931429Y-100192491D01*
X181142568Y-100225931D01*
X181204520Y-100235743D01*
X181208081Y-100235898D01*
X181208086Y-100235899D01*
X181266287Y-100238440D01*
X181266291Y-100238440D01*
X181267663Y-100238500D01*
X182158305Y-100238500D01*
X182226426Y-100258502D01*
X182272919Y-100312158D01*
X182283023Y-100382432D01*
X182253529Y-100447012D01*
X182193803Y-100485396D01*
X182178016Y-100488949D01*
X182149541Y-100493459D01*
X181794326Y-100588639D01*
X181791238Y-100589824D01*
X181791236Y-100589825D01*
X181704471Y-100623131D01*
X181659317Y-100631500D01*
X160446863Y-100631500D01*
X160389660Y-100617767D01*
X160380839Y-100613272D01*
X160178994Y-100510427D01*
X159835674Y-100378639D01*
X159480459Y-100283459D01*
X159451978Y-100278948D01*
X159387825Y-100248535D01*
X159350298Y-100188267D01*
X159351312Y-100117278D01*
X159390545Y-100058106D01*
X159455540Y-100029538D01*
X159471689Y-100028499D01*
X160362336Y-100028499D01*
X160363705Y-100028439D01*
X160363716Y-100028439D01*
X160421914Y-100025899D01*
X160421920Y-100025898D01*
X160425480Y-100025743D01*
X160498955Y-100014106D01*
X160698571Y-99982491D01*
X160698578Y-99982489D01*
X160702918Y-99981802D01*
X160804514Y-99950741D01*
X160967322Y-99900965D01*
X160967327Y-99900963D01*
X160971540Y-99899675D01*
X160975529Y-99897815D01*
X160975534Y-99897813D01*
X161222126Y-99782826D01*
X161222132Y-99782823D01*
X161226118Y-99780964D01*
X161420053Y-99655021D01*
X161458002Y-99630377D01*
X161458006Y-99630374D01*
X161461697Y-99627977D01*
X161673692Y-99443692D01*
X161857977Y-99231697D01*
X161872188Y-99209815D01*
X162008563Y-98999815D01*
X162010964Y-98996118D01*
X162012823Y-98992132D01*
X162012826Y-98992126D01*
X162127813Y-98745534D01*
X162127815Y-98745529D01*
X162129675Y-98741540D01*
X162132008Y-98733911D01*
X162210514Y-98477130D01*
X162211802Y-98472918D01*
X162212489Y-98468578D01*
X162212491Y-98468571D01*
X162255185Y-98199003D01*
X162255185Y-98199002D01*
X162255743Y-98195480D01*
X162258500Y-98132337D01*
X162258500Y-96642217D01*
X162258784Y-96633757D01*
X162262913Y-96572401D01*
X162262913Y-96572398D01*
X162263138Y-96569055D01*
X162258596Y-96453467D01*
X162258499Y-96448521D01*
X162258499Y-94907664D01*
X162255743Y-94844520D01*
X162238800Y-94737543D01*
X162212491Y-94571429D01*
X162212489Y-94571422D01*
X162211802Y-94567082D01*
X162179120Y-94460185D01*
X162130965Y-94302678D01*
X162130963Y-94302673D01*
X162129675Y-94298460D01*
X162127813Y-94294466D01*
X162012826Y-94047874D01*
X162012823Y-94047868D01*
X162010964Y-94043882D01*
X161893827Y-93863507D01*
X161873500Y-93794883D01*
X161873500Y-89423461D01*
X168326500Y-89423461D01*
X168326589Y-89425127D01*
X168326589Y-89425136D01*
X168340741Y-89690721D01*
X168341414Y-89703357D01*
X168341944Y-89706649D01*
X168341945Y-89706656D01*
X168392265Y-90019066D01*
X168400869Y-90072485D01*
X168401752Y-90075725D01*
X168401753Y-90075728D01*
X168444109Y-90231086D01*
X168499213Y-90433206D01*
X168542801Y-90544717D01*
X168604098Y-90701530D01*
X168635331Y-90781434D01*
X168636880Y-90784416D01*
X168753091Y-91008131D01*
X168807683Y-91113226D01*
X169014317Y-91424824D01*
X169252892Y-91712700D01*
X169520708Y-91973595D01*
X169523340Y-91975662D01*
X169523344Y-91975666D01*
X169713831Y-92125295D01*
X169814731Y-92204553D01*
X169859335Y-92232479D01*
X169979724Y-92307853D01*
X170026848Y-92360956D01*
X170037782Y-92431106D01*
X170009054Y-92496030D01*
X169999910Y-92504649D01*
X170000269Y-92505008D01*
X169993919Y-92511358D01*
X169986739Y-92516739D01*
X169899385Y-92633295D01*
X169848255Y-92769684D01*
X169841500Y-92831866D01*
X169841500Y-95128134D01*
X169841869Y-95131531D01*
X169842185Y-95134440D01*
X169848255Y-95190316D01*
X169899385Y-95326705D01*
X169986739Y-95443261D01*
X170103295Y-95530615D01*
X170239684Y-95581745D01*
X170301866Y-95588500D01*
X172598134Y-95588500D01*
X172660316Y-95581745D01*
X172796705Y-95530615D01*
X172913261Y-95443261D01*
X173000615Y-95326705D01*
X173051745Y-95190316D01*
X173057815Y-95134440D01*
X173058131Y-95131531D01*
X173058500Y-95128134D01*
X173058500Y-94522016D01*
X173076723Y-94456746D01*
X173079490Y-94452177D01*
X173087163Y-94440929D01*
X173107120Y-94414826D01*
X173144247Y-94345584D01*
X173147510Y-94339863D01*
X173185602Y-94276966D01*
X173185603Y-94276965D01*
X173188220Y-94272643D01*
X173200534Y-94242166D01*
X173206303Y-94229850D01*
X173221831Y-94200891D01*
X173247423Y-94126567D01*
X173249718Y-94120429D01*
X173277258Y-94052267D01*
X173277259Y-94052263D01*
X173279155Y-94047571D01*
X173280833Y-94040188D01*
X173286432Y-94015540D01*
X173290163Y-94002441D01*
X173300862Y-93971369D01*
X173314243Y-93893900D01*
X173315526Y-93887482D01*
X173328085Y-93832206D01*
X173332935Y-93810856D01*
X173334999Y-93778047D01*
X173336585Y-93764547D01*
X173342179Y-93732164D01*
X173343500Y-93703075D01*
X173343500Y-93646893D01*
X173343749Y-93638981D01*
X173347860Y-93573642D01*
X173348178Y-93568588D01*
X173344101Y-93527009D01*
X173343500Y-93514713D01*
X173343500Y-92579361D01*
X173363502Y-92511240D01*
X173408510Y-92469106D01*
X173470580Y-92434771D01*
X173696861Y-92309600D01*
X173699599Y-92307679D01*
X173699609Y-92307673D01*
X174000202Y-92096803D01*
X174000204Y-92096802D01*
X174002943Y-92094880D01*
X174284476Y-91848851D01*
X174361407Y-91765628D01*
X174488849Y-91627761D01*
X174538270Y-91574298D01*
X174761452Y-91274330D01*
X174826488Y-91164142D01*
X174949789Y-90955236D01*
X174949792Y-90955231D01*
X174951495Y-90952345D01*
X175106246Y-90611987D01*
X175192607Y-90351619D01*
X175222895Y-90260304D01*
X175222897Y-90260297D01*
X175223953Y-90257113D01*
X175256341Y-90107944D01*
X175302572Y-89895019D01*
X175302572Y-89895016D01*
X175303284Y-89891739D01*
X175343339Y-89520005D01*
X175343500Y-89514055D01*
X175343500Y-69326539D01*
X175328586Y-69046643D01*
X175327496Y-69039871D01*
X175269665Y-68680830D01*
X175269665Y-68680829D01*
X175269131Y-68677515D01*
X175258439Y-68638295D01*
X175171672Y-68320040D01*
X175171672Y-68320039D01*
X175170787Y-68316794D01*
X175034669Y-67968566D01*
X174862317Y-67636774D01*
X174655683Y-67325176D01*
X174417108Y-67037300D01*
X174149292Y-66776405D01*
X174146660Y-66774338D01*
X174146656Y-66774334D01*
X173857907Y-66547519D01*
X173857905Y-66547518D01*
X173855269Y-66545447D01*
X173626830Y-66402425D01*
X173541214Y-66348822D01*
X173541211Y-66348820D01*
X173538369Y-66347041D01*
X173355653Y-66258122D01*
X173205194Y-66184901D01*
X173205190Y-66184899D01*
X173202179Y-66183434D01*
X172850507Y-66056477D01*
X172487336Y-65967610D01*
X172484016Y-65967164D01*
X172120086Y-65918281D01*
X172120077Y-65918280D01*
X172116777Y-65917837D01*
X171743028Y-65907724D01*
X171739687Y-65907990D01*
X171739682Y-65907990D01*
X171373669Y-65937117D01*
X171373660Y-65937118D01*
X171370320Y-65937384D01*
X171367025Y-65938004D01*
X171367022Y-65938004D01*
X171006158Y-66005864D01*
X171006150Y-66005866D01*
X171002874Y-66006482D01*
X170644851Y-66114234D01*
X170496503Y-66176747D01*
X170303390Y-66258122D01*
X170303383Y-66258125D01*
X170300306Y-66259422D01*
X169973139Y-66440400D01*
X169970401Y-66442321D01*
X169970391Y-66442327D01*
X169713216Y-66622739D01*
X169667057Y-66655120D01*
X169385524Y-66901149D01*
X169383249Y-66903610D01*
X169383246Y-66903613D01*
X169308208Y-66984789D01*
X169131730Y-67175702D01*
X168908548Y-67475670D01*
X168906844Y-67478557D01*
X168847857Y-67578498D01*
X168718505Y-67797655D01*
X168563754Y-68138013D01*
X168562700Y-68141192D01*
X168484529Y-68376869D01*
X168446047Y-68492887D01*
X168445334Y-68496171D01*
X168382486Y-68785631D01*
X168366716Y-68858261D01*
X168326661Y-69229995D01*
X168326500Y-69235945D01*
X168326500Y-89423461D01*
X161873500Y-89423461D01*
X161873500Y-85836539D01*
X161858586Y-85556643D01*
X161799131Y-85187515D01*
X161700787Y-84826794D01*
X161564669Y-84478566D01*
X161392317Y-84146774D01*
X161253223Y-83937024D01*
X161187532Y-83837964D01*
X161187531Y-83837962D01*
X161185683Y-83835176D01*
X160947108Y-83547300D01*
X160679292Y-83286405D01*
X160676660Y-83284338D01*
X160676656Y-83284334D01*
X160387907Y-83057519D01*
X160387905Y-83057518D01*
X160385269Y-83055447D01*
X160068369Y-82857041D01*
X159883894Y-82767266D01*
X159735194Y-82694901D01*
X159735190Y-82694899D01*
X159732179Y-82693434D01*
X159380507Y-82566477D01*
X159017336Y-82477610D01*
X159014016Y-82477164D01*
X158650086Y-82428281D01*
X158650077Y-82428280D01*
X158646777Y-82427837D01*
X158273028Y-82417724D01*
X158269687Y-82417990D01*
X158269682Y-82417990D01*
X157903669Y-82447117D01*
X157903660Y-82447118D01*
X157900320Y-82447384D01*
X157897025Y-82448004D01*
X157897022Y-82448004D01*
X157536158Y-82515864D01*
X157536150Y-82515866D01*
X157532874Y-82516482D01*
X157174851Y-82624234D01*
X157094313Y-82658172D01*
X156833390Y-82768122D01*
X156833383Y-82768125D01*
X156830306Y-82769422D01*
X156503139Y-82950400D01*
X156500401Y-82952321D01*
X156500391Y-82952327D01*
X156199798Y-83163197D01*
X156197057Y-83165120D01*
X155915524Y-83411149D01*
X155661730Y-83685702D01*
X155438548Y-83985670D01*
X155248505Y-84307655D01*
X155093754Y-84648013D01*
X154976047Y-85002887D01*
X154896716Y-85368261D01*
X154856661Y-85739995D01*
X154856500Y-85745945D01*
X154856500Y-96012787D01*
X154856216Y-96021247D01*
X154851862Y-96085944D01*
X154853085Y-96117062D01*
X154856403Y-96201518D01*
X154856500Y-96206465D01*
X154856500Y-96228461D01*
X154859918Y-96292598D01*
X154860113Y-96296258D01*
X154860195Y-96298017D01*
X154865713Y-96438461D01*
X154866541Y-96459542D01*
X154867027Y-96462856D01*
X154867028Y-96462862D01*
X154869260Y-96478066D01*
X154870418Y-96489662D01*
X154871414Y-96508357D01*
X154871946Y-96511660D01*
X154871947Y-96511669D01*
X154882434Y-96576773D01*
X154897122Y-96667967D01*
X154897364Y-96669542D01*
X154908303Y-96744066D01*
X154919525Y-96820523D01*
X154920837Y-96829465D01*
X154921675Y-96832716D01*
X154925510Y-96847600D01*
X154927891Y-96859001D01*
X154929425Y-96868521D01*
X154930869Y-96877485D01*
X154931750Y-96880717D01*
X154931751Y-96880721D01*
X154954532Y-96964279D01*
X154964177Y-96999656D01*
X154973355Y-97033322D01*
X154973799Y-97034997D01*
X155014134Y-97191524D01*
X155015306Y-97194650D01*
X155015309Y-97194660D01*
X155020710Y-97209066D01*
X155024291Y-97220155D01*
X155029213Y-97238206D01*
X155030433Y-97241328D01*
X155030434Y-97241330D01*
X155040961Y-97268262D01*
X155078776Y-97365001D01*
X155088021Y-97388653D01*
X155088633Y-97390252D01*
X155145378Y-97541619D01*
X155146882Y-97544616D01*
X155153778Y-97558358D01*
X155158514Y-97568996D01*
X155164111Y-97583314D01*
X155165331Y-97586434D01*
X155166875Y-97589406D01*
X155166878Y-97589413D01*
X155227315Y-97705760D01*
X155241501Y-97763842D01*
X155241501Y-98132336D01*
X155241561Y-98133705D01*
X155241561Y-98133716D01*
X155243501Y-98178154D01*
X155244257Y-98195480D01*
X155249293Y-98227275D01*
X155287509Y-98468571D01*
X155287511Y-98468578D01*
X155288198Y-98472918D01*
X155289486Y-98477130D01*
X155367993Y-98733911D01*
X155370325Y-98741540D01*
X155372185Y-98745529D01*
X155372187Y-98745534D01*
X155487174Y-98992126D01*
X155487177Y-98992132D01*
X155489036Y-98996118D01*
X155491437Y-98999815D01*
X155627813Y-99209815D01*
X155642023Y-99231697D01*
X155826308Y-99443692D01*
X156038303Y-99627977D01*
X156041994Y-99630374D01*
X156041998Y-99630377D01*
X156079947Y-99655021D01*
X156273882Y-99780964D01*
X156277868Y-99782823D01*
X156277874Y-99782826D01*
X156524466Y-99897813D01*
X156524471Y-99897815D01*
X156528460Y-99899675D01*
X156532673Y-99900963D01*
X156532678Y-99900965D01*
X156695486Y-99950741D01*
X156797082Y-99981802D01*
X156801422Y-99982489D01*
X156801429Y-99982491D01*
X157059709Y-100023397D01*
X157074520Y-100025743D01*
X157078081Y-100025898D01*
X157078086Y-100025899D01*
X157136287Y-100028440D01*
X157136291Y-100028440D01*
X157137663Y-100028500D01*
X158028305Y-100028500D01*
X158096426Y-100048502D01*
X158142919Y-100102158D01*
X158153023Y-100172432D01*
X158123529Y-100237012D01*
X158063803Y-100275396D01*
X158048016Y-100278949D01*
X158019541Y-100283459D01*
X157664326Y-100378639D01*
X157321006Y-100510427D01*
X157119162Y-100613272D01*
X157110340Y-100617767D01*
X157053137Y-100631500D01*
X135840683Y-100631500D01*
X135795529Y-100623131D01*
X135708764Y-100589825D01*
X135708762Y-100589824D01*
X135705674Y-100588639D01*
X135350459Y-100493459D01*
X135321978Y-100488948D01*
X135257825Y-100458535D01*
X135220298Y-100398267D01*
X135221312Y-100327278D01*
X135260545Y-100268106D01*
X135325540Y-100239538D01*
X135341689Y-100238499D01*
X136232336Y-100238499D01*
X136233705Y-100238439D01*
X136233716Y-100238439D01*
X136291914Y-100235899D01*
X136291920Y-100235898D01*
X136295480Y-100235743D01*
X136368955Y-100224106D01*
X136568571Y-100192491D01*
X136568578Y-100192489D01*
X136572918Y-100191802D01*
X136761883Y-100134029D01*
X136837322Y-100110965D01*
X136837327Y-100110963D01*
X136841540Y-100109675D01*
X136845529Y-100107815D01*
X136845534Y-100107813D01*
X137092126Y-99992826D01*
X137092132Y-99992823D01*
X137096118Y-99990964D01*
X137287665Y-99866572D01*
X137328002Y-99840377D01*
X137328006Y-99840374D01*
X137331697Y-99837977D01*
X137543692Y-99653692D01*
X137727977Y-99441697D01*
X137742188Y-99419815D01*
X137878563Y-99209815D01*
X137880964Y-99206118D01*
X137882823Y-99202132D01*
X137882826Y-99202126D01*
X137997813Y-98955534D01*
X137997815Y-98955529D01*
X137999675Y-98951540D01*
X138009688Y-98918792D01*
X138080514Y-98687130D01*
X138081802Y-98682918D01*
X138082489Y-98678578D01*
X138082491Y-98678571D01*
X138125185Y-98409003D01*
X138125185Y-98409002D01*
X138125743Y-98405480D01*
X138127888Y-98356365D01*
X138128440Y-98343713D01*
X138128440Y-98343709D01*
X138128500Y-98342337D01*
X138128500Y-96852217D01*
X138128784Y-96843757D01*
X138132913Y-96782401D01*
X138132913Y-96782398D01*
X138133138Y-96779055D01*
X138128596Y-96663467D01*
X138128499Y-96658521D01*
X138128499Y-95117664D01*
X138126757Y-95077756D01*
X138125899Y-95058086D01*
X138125898Y-95058080D01*
X138125743Y-95054520D01*
X138109565Y-94952374D01*
X138082491Y-94781429D01*
X138082489Y-94781422D01*
X138081802Y-94777082D01*
X138016310Y-94562870D01*
X138000965Y-94512678D01*
X138000963Y-94512673D01*
X137999675Y-94508460D01*
X137978888Y-94463882D01*
X137882826Y-94257874D01*
X137882823Y-94257868D01*
X137880964Y-94253882D01*
X137763827Y-94073507D01*
X137743500Y-94004883D01*
X137743500Y-89423461D01*
X144196500Y-89423461D01*
X144196589Y-89425127D01*
X144196589Y-89425136D01*
X144210741Y-89690721D01*
X144211414Y-89703357D01*
X144211944Y-89706649D01*
X144211945Y-89706656D01*
X144262265Y-90019066D01*
X144270869Y-90072485D01*
X144271752Y-90075725D01*
X144271753Y-90075728D01*
X144314109Y-90231086D01*
X144369213Y-90433206D01*
X144412801Y-90544717D01*
X144474098Y-90701530D01*
X144505331Y-90781434D01*
X144506880Y-90784416D01*
X144623091Y-91008131D01*
X144677683Y-91113226D01*
X144884317Y-91424824D01*
X145122892Y-91712700D01*
X145390708Y-91973595D01*
X145393340Y-91975662D01*
X145393344Y-91975666D01*
X145583831Y-92125295D01*
X145684731Y-92204553D01*
X145729335Y-92232479D01*
X145849724Y-92307853D01*
X145896848Y-92360956D01*
X145907782Y-92431106D01*
X145879054Y-92496030D01*
X145869910Y-92504649D01*
X145870269Y-92505008D01*
X145863919Y-92511358D01*
X145856739Y-92516739D01*
X145769385Y-92633295D01*
X145718255Y-92769684D01*
X145711500Y-92831866D01*
X145711500Y-95128134D01*
X145711869Y-95131531D01*
X145712185Y-95134440D01*
X145718255Y-95190316D01*
X145769385Y-95326705D01*
X145856739Y-95443261D01*
X145973295Y-95530615D01*
X146109684Y-95581745D01*
X146171866Y-95588500D01*
X148468134Y-95588500D01*
X148530316Y-95581745D01*
X148666705Y-95530615D01*
X148783261Y-95443261D01*
X148870615Y-95326705D01*
X148921745Y-95190316D01*
X148927815Y-95134440D01*
X148928131Y-95131531D01*
X148928500Y-95128134D01*
X148928500Y-92831866D01*
X148926409Y-92812616D01*
X148922598Y-92777534D01*
X148922598Y-92777532D01*
X148921745Y-92769684D01*
X148917249Y-92757691D01*
X148912069Y-92686884D01*
X148945992Y-92624516D01*
X148986305Y-92597354D01*
X149236603Y-92491881D01*
X149236611Y-92491877D01*
X149239694Y-92490578D01*
X149566861Y-92309600D01*
X149569599Y-92307679D01*
X149569609Y-92307673D01*
X149870202Y-92096803D01*
X149870204Y-92096802D01*
X149872943Y-92094880D01*
X150154476Y-91848851D01*
X150231407Y-91765628D01*
X150358849Y-91627761D01*
X150408270Y-91574298D01*
X150631452Y-91274330D01*
X150696488Y-91164142D01*
X150819789Y-90955236D01*
X150819792Y-90955231D01*
X150821495Y-90952345D01*
X150976246Y-90611987D01*
X151062607Y-90351619D01*
X151092895Y-90260304D01*
X151092897Y-90260297D01*
X151093953Y-90257113D01*
X151126341Y-90107944D01*
X151172572Y-89895019D01*
X151172572Y-89895016D01*
X151173284Y-89891739D01*
X151213339Y-89520005D01*
X151213500Y-89514055D01*
X151213500Y-69326539D01*
X151198586Y-69046643D01*
X151197496Y-69039871D01*
X151139665Y-68680830D01*
X151139665Y-68680829D01*
X151139131Y-68677515D01*
X151128439Y-68638295D01*
X151041672Y-68320040D01*
X151041672Y-68320039D01*
X151040787Y-68316794D01*
X150904669Y-67968566D01*
X150732317Y-67636774D01*
X150525683Y-67325176D01*
X150287108Y-67037300D01*
X150019292Y-66776405D01*
X150016660Y-66774338D01*
X150016656Y-66774334D01*
X149727907Y-66547519D01*
X149727905Y-66547518D01*
X149725269Y-66545447D01*
X149496830Y-66402425D01*
X149411214Y-66348822D01*
X149411211Y-66348820D01*
X149408369Y-66347041D01*
X149225653Y-66258122D01*
X149075194Y-66184901D01*
X149075190Y-66184899D01*
X149072179Y-66183434D01*
X148720507Y-66056477D01*
X148357336Y-65967610D01*
X148354016Y-65967164D01*
X147990086Y-65918281D01*
X147990077Y-65918280D01*
X147986777Y-65917837D01*
X147613028Y-65907724D01*
X147609687Y-65907990D01*
X147609682Y-65907990D01*
X147243669Y-65937117D01*
X147243660Y-65937118D01*
X147240320Y-65937384D01*
X147237025Y-65938004D01*
X147237022Y-65938004D01*
X146876158Y-66005864D01*
X146876150Y-66005866D01*
X146872874Y-66006482D01*
X146514851Y-66114234D01*
X146366503Y-66176747D01*
X146173390Y-66258122D01*
X146173383Y-66258125D01*
X146170306Y-66259422D01*
X145843139Y-66440400D01*
X145840401Y-66442321D01*
X145840391Y-66442327D01*
X145583216Y-66622739D01*
X145537057Y-66655120D01*
X145255524Y-66901149D01*
X145253249Y-66903610D01*
X145253246Y-66903613D01*
X145178208Y-66984789D01*
X145001730Y-67175702D01*
X144778548Y-67475670D01*
X144776844Y-67478557D01*
X144717857Y-67578498D01*
X144588505Y-67797655D01*
X144433754Y-68138013D01*
X144432700Y-68141192D01*
X144354529Y-68376869D01*
X144316047Y-68492887D01*
X144315334Y-68496171D01*
X144252486Y-68785631D01*
X144236716Y-68858261D01*
X144196661Y-69229995D01*
X144196500Y-69235945D01*
X144196500Y-89423461D01*
X137743500Y-89423461D01*
X137743500Y-85836539D01*
X137728586Y-85556643D01*
X137669131Y-85187515D01*
X137570787Y-84826794D01*
X137434669Y-84478566D01*
X137262317Y-84146774D01*
X137123223Y-83937024D01*
X137057532Y-83837964D01*
X137057531Y-83837962D01*
X137055683Y-83835176D01*
X136817108Y-83547300D01*
X136549292Y-83286405D01*
X136546660Y-83284338D01*
X136546656Y-83284334D01*
X136257907Y-83057519D01*
X136257905Y-83057518D01*
X136255269Y-83055447D01*
X135938369Y-82857041D01*
X135753894Y-82767266D01*
X135605194Y-82694901D01*
X135605190Y-82694899D01*
X135602179Y-82693434D01*
X135250507Y-82566477D01*
X134887336Y-82477610D01*
X134884016Y-82477164D01*
X134520086Y-82428281D01*
X134520077Y-82428280D01*
X134516777Y-82427837D01*
X134143028Y-82417724D01*
X134139687Y-82417990D01*
X134139682Y-82417990D01*
X133773669Y-82447117D01*
X133773660Y-82447118D01*
X133770320Y-82447384D01*
X133767025Y-82448004D01*
X133767022Y-82448004D01*
X133406158Y-82515864D01*
X133406150Y-82515866D01*
X133402874Y-82516482D01*
X133044851Y-82624234D01*
X132964313Y-82658172D01*
X132703390Y-82768122D01*
X132703383Y-82768125D01*
X132700306Y-82769422D01*
X132373139Y-82950400D01*
X132370401Y-82952321D01*
X132370391Y-82952327D01*
X132069798Y-83163197D01*
X132067057Y-83165120D01*
X131785524Y-83411149D01*
X131531730Y-83685702D01*
X131308548Y-83985670D01*
X131118505Y-84307655D01*
X130963754Y-84648013D01*
X130846047Y-85002887D01*
X130766716Y-85368261D01*
X130726661Y-85739995D01*
X130726500Y-85745945D01*
X130726500Y-96222787D01*
X130726216Y-96231247D01*
X130721862Y-96295944D01*
X130724554Y-96364465D01*
X130726403Y-96411518D01*
X130726500Y-96416465D01*
X130726500Y-96438461D01*
X130730046Y-96505007D01*
X130730113Y-96506258D01*
X130730194Y-96507991D01*
X130736541Y-96669542D01*
X130737027Y-96672856D01*
X130737028Y-96672862D01*
X130739260Y-96688066D01*
X130740418Y-96699662D01*
X130741414Y-96718357D01*
X130741946Y-96721660D01*
X130741947Y-96721669D01*
X130753335Y-96792369D01*
X130767122Y-96877967D01*
X130767369Y-96879572D01*
X130790837Y-97039465D01*
X130791675Y-97042716D01*
X130795510Y-97057600D01*
X130797891Y-97069001D01*
X130800334Y-97084165D01*
X130800869Y-97087485D01*
X130801750Y-97090717D01*
X130801751Y-97090721D01*
X130810934Y-97124405D01*
X130842260Y-97239304D01*
X130843355Y-97243322D01*
X130843799Y-97244997D01*
X130884134Y-97401524D01*
X130885306Y-97404650D01*
X130885309Y-97404660D01*
X130890710Y-97419066D01*
X130894291Y-97430155D01*
X130898328Y-97444961D01*
X130899213Y-97448206D01*
X130957437Y-97597158D01*
X130958018Y-97598645D01*
X130958630Y-97600244D01*
X131015378Y-97751619D01*
X131016882Y-97754616D01*
X131023778Y-97768358D01*
X131028514Y-97778996D01*
X131034111Y-97793314D01*
X131035331Y-97796434D01*
X131036875Y-97799406D01*
X131036878Y-97799413D01*
X131097315Y-97915760D01*
X131111501Y-97973842D01*
X131111501Y-98342336D01*
X131114257Y-98405480D01*
X131114815Y-98409002D01*
X131157509Y-98678571D01*
X131157511Y-98678578D01*
X131158198Y-98682918D01*
X131159486Y-98687130D01*
X131230313Y-98918792D01*
X131240325Y-98951540D01*
X131242185Y-98955529D01*
X131242187Y-98955534D01*
X131357174Y-99202126D01*
X131357177Y-99202132D01*
X131359036Y-99206118D01*
X131361437Y-99209815D01*
X131497813Y-99419815D01*
X131512023Y-99441697D01*
X131696308Y-99653692D01*
X131908303Y-99837977D01*
X131911994Y-99840374D01*
X131911998Y-99840377D01*
X131952335Y-99866572D01*
X132143882Y-99990964D01*
X132147868Y-99992823D01*
X132147874Y-99992826D01*
X132394466Y-100107813D01*
X132394471Y-100107815D01*
X132398460Y-100109675D01*
X132402673Y-100110963D01*
X132402678Y-100110965D01*
X132478117Y-100134029D01*
X132667082Y-100191802D01*
X132671422Y-100192489D01*
X132671429Y-100192491D01*
X132882568Y-100225931D01*
X132944520Y-100235743D01*
X132948081Y-100235898D01*
X132948086Y-100235899D01*
X133006287Y-100238440D01*
X133006291Y-100238440D01*
X133007663Y-100238500D01*
X133898305Y-100238500D01*
X133966426Y-100258502D01*
X134012919Y-100312158D01*
X134023023Y-100382432D01*
X133993529Y-100447012D01*
X133933803Y-100485396D01*
X133918016Y-100488949D01*
X133889541Y-100493459D01*
X133534326Y-100588639D01*
X133531238Y-100589824D01*
X133531236Y-100589825D01*
X133444471Y-100623131D01*
X133399317Y-100631500D01*
X113804694Y-100631500D01*
X113736573Y-100611498D01*
X113690080Y-100557842D01*
X113679976Y-100487568D01*
X113709470Y-100422988D01*
X113767855Y-100385006D01*
X113977322Y-100320965D01*
X113977327Y-100320963D01*
X113981540Y-100319675D01*
X113985529Y-100317815D01*
X113985534Y-100317813D01*
X114232126Y-100202826D01*
X114232132Y-100202823D01*
X114236118Y-100200964D01*
X114323884Y-100143968D01*
X114468002Y-100050377D01*
X114468006Y-100050374D01*
X114471697Y-100047977D01*
X114683692Y-99863692D01*
X114867977Y-99651697D01*
X114881823Y-99630377D01*
X115018563Y-99419815D01*
X115020964Y-99416118D01*
X115022823Y-99412132D01*
X115022826Y-99412126D01*
X115137813Y-99165534D01*
X115137815Y-99165529D01*
X115139675Y-99161540D01*
X115150081Y-99127506D01*
X115220514Y-98897130D01*
X115221802Y-98892918D01*
X115222489Y-98888578D01*
X115222491Y-98888571D01*
X115265185Y-98619003D01*
X115265185Y-98619002D01*
X115265743Y-98615480D01*
X115266319Y-98602303D01*
X115268440Y-98553713D01*
X115268440Y-98553709D01*
X115268500Y-98552337D01*
X115268500Y-97062217D01*
X115268784Y-97053757D01*
X115272913Y-96992401D01*
X115272913Y-96992398D01*
X115273138Y-96989055D01*
X115268596Y-96873467D01*
X115268499Y-96868521D01*
X115268499Y-95327664D01*
X115268090Y-95318297D01*
X115265899Y-95268086D01*
X115265898Y-95268080D01*
X115265743Y-95264520D01*
X115242265Y-95116284D01*
X115222491Y-94991429D01*
X115222489Y-94991422D01*
X115221802Y-94987082D01*
X115175474Y-94835551D01*
X115140965Y-94722678D01*
X115140963Y-94722673D01*
X115139675Y-94718460D01*
X115135302Y-94709081D01*
X115022826Y-94467874D01*
X115022823Y-94467868D01*
X115020964Y-94463882D01*
X114887181Y-94257874D01*
X114870377Y-94231998D01*
X114870374Y-94231994D01*
X114867977Y-94228303D01*
X114683692Y-94016308D01*
X114471697Y-93832023D01*
X114468006Y-93829626D01*
X114468002Y-93829623D01*
X114239810Y-93681433D01*
X114239804Y-93681429D01*
X114236118Y-93679036D01*
X114071251Y-93602158D01*
X114017965Y-93555241D01*
X113998500Y-93487963D01*
X113998500Y-88895944D01*
X120061862Y-88895944D01*
X120061994Y-88899297D01*
X120066403Y-89011518D01*
X120066500Y-89016465D01*
X120066500Y-89038461D01*
X120066590Y-89040145D01*
X120070113Y-89106258D01*
X120070194Y-89107991D01*
X120076541Y-89269542D01*
X120077027Y-89272856D01*
X120077028Y-89272862D01*
X120079260Y-89288066D01*
X120080418Y-89299662D01*
X120081414Y-89318357D01*
X120081946Y-89321660D01*
X120081947Y-89321669D01*
X120093335Y-89392369D01*
X120107122Y-89477967D01*
X120107369Y-89479572D01*
X120130837Y-89639465D01*
X120131675Y-89642716D01*
X120135510Y-89657600D01*
X120137891Y-89669001D01*
X120140334Y-89684165D01*
X120140869Y-89687485D01*
X120141750Y-89690717D01*
X120141751Y-89690721D01*
X120183355Y-89843322D01*
X120183799Y-89844997D01*
X120224134Y-90001524D01*
X120225306Y-90004650D01*
X120225309Y-90004660D01*
X120230710Y-90019066D01*
X120234291Y-90030155D01*
X120237227Y-90040923D01*
X120239213Y-90048206D01*
X120240433Y-90051328D01*
X120240434Y-90051330D01*
X120248703Y-90072485D01*
X120288206Y-90173543D01*
X120298021Y-90198653D01*
X120298633Y-90200252D01*
X120355378Y-90351619D01*
X120356882Y-90354616D01*
X120363778Y-90368358D01*
X120368514Y-90378996D01*
X120374111Y-90393314D01*
X120375331Y-90396434D01*
X120376872Y-90399400D01*
X120376874Y-90399405D01*
X120449808Y-90539809D01*
X120450607Y-90541373D01*
X120523080Y-90685784D01*
X120532145Y-90699876D01*
X120533208Y-90701530D01*
X120539047Y-90711602D01*
X120547683Y-90728226D01*
X120632470Y-90856081D01*
X120636975Y-90862875D01*
X120637922Y-90864326D01*
X120725343Y-91000238D01*
X120727444Y-91002846D01*
X120727453Y-91002859D01*
X120737096Y-91014831D01*
X120743976Y-91024231D01*
X120752458Y-91037022D01*
X120752466Y-91037033D01*
X120754317Y-91039824D01*
X120756459Y-91042409D01*
X120756463Y-91042414D01*
X120857345Y-91164142D01*
X120858450Y-91165492D01*
X120959876Y-91291416D01*
X120963969Y-91295738D01*
X120974016Y-91305785D01*
X120981935Y-91314480D01*
X120990748Y-91325114D01*
X120990757Y-91325123D01*
X120992892Y-91327700D01*
X120995288Y-91330034D01*
X121109919Y-91441703D01*
X121111092Y-91442861D01*
X121545203Y-91876971D01*
X121546431Y-91878074D01*
X121546446Y-91878089D01*
X121685799Y-92003342D01*
X121753665Y-92064341D01*
X121849661Y-92133703D01*
X121926446Y-92189184D01*
X121969947Y-92245293D01*
X121976207Y-92316013D01*
X121943240Y-92378891D01*
X121896882Y-92409296D01*
X121843295Y-92429385D01*
X121726739Y-92516739D01*
X121639385Y-92633295D01*
X121588255Y-92769684D01*
X121581500Y-92831866D01*
X121581500Y-95128134D01*
X121581869Y-95131531D01*
X121582185Y-95134440D01*
X121588255Y-95190316D01*
X121639385Y-95326705D01*
X121726739Y-95443261D01*
X121843295Y-95530615D01*
X121979684Y-95581745D01*
X122041866Y-95588500D01*
X124338134Y-95588500D01*
X124400316Y-95581745D01*
X124536705Y-95530615D01*
X124653261Y-95443261D01*
X124740615Y-95326705D01*
X124791745Y-95190316D01*
X124797815Y-95134440D01*
X124798131Y-95131531D01*
X124798500Y-95128134D01*
X124798500Y-92837570D01*
X124818502Y-92769449D01*
X124872158Y-92722956D01*
X124896261Y-92714775D01*
X124896522Y-92714715D01*
X124928446Y-92707374D01*
X125281856Y-92585339D01*
X125620298Y-92426442D01*
X125623156Y-92424707D01*
X125623161Y-92424705D01*
X125937081Y-92234212D01*
X125939937Y-92232479D01*
X126237157Y-92005649D01*
X126400345Y-91851060D01*
X126506151Y-91750829D01*
X126506155Y-91750825D01*
X126508588Y-91748520D01*
X126541323Y-91710125D01*
X126748975Y-91466566D01*
X126748976Y-91466564D01*
X126751160Y-91464003D01*
X126962124Y-91155320D01*
X127139092Y-90825967D01*
X127156007Y-90784416D01*
X127223866Y-90617715D01*
X127280059Y-90479673D01*
X127344088Y-90257113D01*
X127382506Y-90123574D01*
X127382507Y-90123568D01*
X127383430Y-90120361D01*
X127448032Y-89752098D01*
X127449719Y-89727040D01*
X127472913Y-89382401D01*
X127472913Y-89382397D01*
X127473138Y-89379055D01*
X127459690Y-89036784D01*
X127458591Y-89008811D01*
X127458591Y-89008806D01*
X127458459Y-89005458D01*
X127404163Y-88635535D01*
X127403327Y-88632289D01*
X127311703Y-88276722D01*
X127311700Y-88276712D01*
X127310866Y-88273476D01*
X127179622Y-87923381D01*
X127096886Y-87758521D01*
X127083500Y-87702005D01*
X127083500Y-69326539D01*
X127068586Y-69046643D01*
X127067496Y-69039871D01*
X127009665Y-68680830D01*
X127009665Y-68680829D01*
X127009131Y-68677515D01*
X126998439Y-68638295D01*
X126911672Y-68320040D01*
X126911672Y-68320039D01*
X126910787Y-68316794D01*
X126774669Y-67968566D01*
X126602317Y-67636774D01*
X126395683Y-67325176D01*
X126157108Y-67037300D01*
X125889292Y-66776405D01*
X125886660Y-66774338D01*
X125886656Y-66774334D01*
X125597907Y-66547519D01*
X125597905Y-66547518D01*
X125595269Y-66545447D01*
X125366830Y-66402425D01*
X125281214Y-66348822D01*
X125281211Y-66348820D01*
X125278369Y-66347041D01*
X125095653Y-66258122D01*
X124945194Y-66184901D01*
X124945190Y-66184899D01*
X124942179Y-66183434D01*
X124590507Y-66056477D01*
X124227336Y-65967610D01*
X124224016Y-65967164D01*
X123860086Y-65918281D01*
X123860077Y-65918280D01*
X123856777Y-65917837D01*
X123483028Y-65907724D01*
X123479687Y-65907990D01*
X123479682Y-65907990D01*
X123113669Y-65937117D01*
X123113660Y-65937118D01*
X123110320Y-65937384D01*
X123107025Y-65938004D01*
X123107022Y-65938004D01*
X122746158Y-66005864D01*
X122746150Y-66005866D01*
X122742874Y-66006482D01*
X122384851Y-66114234D01*
X122236503Y-66176747D01*
X122043390Y-66258122D01*
X122043383Y-66258125D01*
X122040306Y-66259422D01*
X121713139Y-66440400D01*
X121710401Y-66442321D01*
X121710391Y-66442327D01*
X121453216Y-66622739D01*
X121407057Y-66655120D01*
X121125524Y-66901149D01*
X121123249Y-66903610D01*
X121123246Y-66903613D01*
X121048208Y-66984789D01*
X120871730Y-67175702D01*
X120648548Y-67475670D01*
X120646844Y-67478557D01*
X120587857Y-67578498D01*
X120458505Y-67797655D01*
X120303754Y-68138013D01*
X120302700Y-68141192D01*
X120224529Y-68376869D01*
X120186047Y-68492887D01*
X120185334Y-68496171D01*
X120122486Y-68785631D01*
X120106716Y-68858261D01*
X120066661Y-69229995D01*
X120066500Y-69235945D01*
X120066500Y-88822787D01*
X120066216Y-88831247D01*
X120061862Y-88895944D01*
X113998500Y-88895944D01*
X113998500Y-85836539D01*
X113983586Y-85556643D01*
X113924131Y-85187515D01*
X113825787Y-84826794D01*
X113689669Y-84478566D01*
X113517317Y-84146774D01*
X113378223Y-83937024D01*
X113312532Y-83837964D01*
X113312531Y-83837962D01*
X113310683Y-83835176D01*
X113072108Y-83547300D01*
X112804292Y-83286405D01*
X112801660Y-83284338D01*
X112801656Y-83284334D01*
X112512907Y-83057519D01*
X112512905Y-83057518D01*
X112510269Y-83055447D01*
X112193369Y-82857041D01*
X112008894Y-82767266D01*
X111860194Y-82694901D01*
X111860190Y-82694899D01*
X111857179Y-82693434D01*
X111505507Y-82566477D01*
X111142336Y-82477610D01*
X111139016Y-82477164D01*
X110775086Y-82428281D01*
X110775077Y-82428280D01*
X110771777Y-82427837D01*
X110398028Y-82417724D01*
X110394687Y-82417990D01*
X110394682Y-82417990D01*
X110028669Y-82447117D01*
X110028660Y-82447118D01*
X110025320Y-82447384D01*
X110022025Y-82448004D01*
X110022022Y-82448004D01*
X109661158Y-82515864D01*
X109661150Y-82515866D01*
X109657874Y-82516482D01*
X109299851Y-82624234D01*
X109219313Y-82658172D01*
X108958390Y-82768122D01*
X108958383Y-82768125D01*
X108955306Y-82769422D01*
X108628139Y-82950400D01*
X108625401Y-82952321D01*
X108625391Y-82952327D01*
X108324798Y-83163197D01*
X108322057Y-83165120D01*
X108040524Y-83411149D01*
X107786730Y-83685702D01*
X107563548Y-83985670D01*
X107373505Y-84307655D01*
X107218754Y-84648013D01*
X107101047Y-85002887D01*
X107021716Y-85368261D01*
X106981661Y-85739995D01*
X106981500Y-85745945D01*
X106981500Y-95547787D01*
X106981216Y-95556247D01*
X106976862Y-95620944D01*
X106976994Y-95624297D01*
X106981403Y-95736518D01*
X106981500Y-95741465D01*
X106981500Y-95763461D01*
X106981590Y-95765145D01*
X106985113Y-95831258D01*
X106985194Y-95832991D01*
X106991541Y-95994542D01*
X106992027Y-95997856D01*
X106992028Y-95997862D01*
X106994260Y-96013066D01*
X106995418Y-96024662D01*
X106996414Y-96043357D01*
X106996946Y-96046660D01*
X106996947Y-96046669D01*
X107005902Y-96102266D01*
X107022122Y-96202967D01*
X107022369Y-96204572D01*
X107045837Y-96364465D01*
X107046675Y-96367716D01*
X107050510Y-96382600D01*
X107052891Y-96394001D01*
X107055334Y-96409165D01*
X107055869Y-96412485D01*
X107056750Y-96415717D01*
X107056751Y-96415721D01*
X107098355Y-96568322D01*
X107098799Y-96569997D01*
X107139134Y-96726524D01*
X107140306Y-96729650D01*
X107140309Y-96729660D01*
X107145710Y-96744066D01*
X107149291Y-96755155D01*
X107154213Y-96773206D01*
X107155433Y-96776328D01*
X107155434Y-96776330D01*
X107156192Y-96778269D01*
X107201523Y-96894237D01*
X107213021Y-96923653D01*
X107213633Y-96925252D01*
X107270378Y-97076619D01*
X107271882Y-97079616D01*
X107278778Y-97093358D01*
X107283514Y-97103996D01*
X107289111Y-97118314D01*
X107290331Y-97121434D01*
X107291872Y-97124400D01*
X107291874Y-97124405D01*
X107364808Y-97264809D01*
X107365607Y-97266373D01*
X107438080Y-97410784D01*
X107443407Y-97419066D01*
X107448208Y-97426530D01*
X107454047Y-97436602D01*
X107462683Y-97453226D01*
X107535855Y-97563566D01*
X107551975Y-97587875D01*
X107552937Y-97589349D01*
X107617434Y-97689621D01*
X107640343Y-97725238D01*
X107642444Y-97727846D01*
X107642453Y-97727859D01*
X107652096Y-97739831D01*
X107658976Y-97749231D01*
X107667458Y-97762022D01*
X107667466Y-97762033D01*
X107669317Y-97764824D01*
X107671459Y-97767409D01*
X107671463Y-97767414D01*
X107772345Y-97889142D01*
X107773450Y-97890492D01*
X107874876Y-98016416D01*
X107878969Y-98020738D01*
X107889016Y-98030785D01*
X107896935Y-98039480D01*
X107905748Y-98050114D01*
X107905757Y-98050123D01*
X107907892Y-98052700D01*
X107910288Y-98055034D01*
X108024951Y-98166734D01*
X108026124Y-98167893D01*
X108214596Y-98356365D01*
X108248622Y-98418677D01*
X108251501Y-98445460D01*
X108251501Y-98552336D01*
X108254257Y-98615480D01*
X108254815Y-98619002D01*
X108297509Y-98888571D01*
X108297511Y-98888578D01*
X108298198Y-98892918D01*
X108299486Y-98897130D01*
X108369920Y-99127506D01*
X108380325Y-99161540D01*
X108382185Y-99165529D01*
X108382187Y-99165534D01*
X108497174Y-99412126D01*
X108497177Y-99412132D01*
X108499036Y-99416118D01*
X108501437Y-99419815D01*
X108638178Y-99630377D01*
X108652023Y-99651697D01*
X108836308Y-99863692D01*
X109048303Y-100047977D01*
X109051994Y-100050374D01*
X109051998Y-100050377D01*
X109196116Y-100143968D01*
X109283882Y-100200964D01*
X109287868Y-100202823D01*
X109287874Y-100202826D01*
X109534466Y-100317813D01*
X109534471Y-100317815D01*
X109538460Y-100319675D01*
X109692779Y-100366856D01*
X109752074Y-100405899D01*
X109780848Y-100470804D01*
X109769964Y-100540961D01*
X109722878Y-100594097D01*
X109660357Y-100613272D01*
X106341707Y-100729716D01*
X106272927Y-100712114D01*
X106248194Y-100692888D01*
X106052405Y-100497099D01*
X106018379Y-100434787D01*
X106015500Y-100408004D01*
X106015500Y-98985190D01*
X106012032Y-98920475D01*
X106009153Y-98893692D01*
X105995551Y-98815647D01*
X105968789Y-98746424D01*
X105940036Y-98672053D01*
X105940035Y-98672051D01*
X105938552Y-98668215D01*
X105909756Y-98615480D01*
X105906682Y-98609851D01*
X105906681Y-98609849D01*
X105904526Y-98605903D01*
X105865459Y-98553716D01*
X105803945Y-98471544D01*
X105803941Y-98471539D01*
X105801248Y-98467942D01*
X105596807Y-98263501D01*
X105567920Y-98218636D01*
X105548807Y-98167653D01*
X105545655Y-98159245D01*
X105461802Y-98047360D01*
X105436954Y-97980855D01*
X105452007Y-97911472D01*
X105473533Y-97882701D01*
X106079379Y-97276855D01*
X106089522Y-97267753D01*
X106114218Y-97247897D01*
X106119025Y-97244032D01*
X106151292Y-97205578D01*
X106154472Y-97201931D01*
X106156115Y-97200119D01*
X106158309Y-97197925D01*
X106185642Y-97164651D01*
X106186348Y-97163800D01*
X106219405Y-97124405D01*
X106246154Y-97092526D01*
X106248722Y-97087856D01*
X106252103Y-97083739D01*
X106295977Y-97001914D01*
X106296606Y-97000755D01*
X106338462Y-96924619D01*
X106338465Y-96924611D01*
X106341433Y-96919213D01*
X106343045Y-96914131D01*
X106345562Y-96909437D01*
X106372747Y-96820523D01*
X106373139Y-96819265D01*
X106399372Y-96736567D01*
X106401235Y-96730694D01*
X106401829Y-96725403D01*
X106403388Y-96720302D01*
X106412790Y-96627737D01*
X106412925Y-96626470D01*
X106418108Y-96580270D01*
X106418108Y-96580265D01*
X106418500Y-96576773D01*
X106418500Y-96573248D01*
X106418555Y-96572263D01*
X106419004Y-96566559D01*
X106422752Y-96529666D01*
X106422752Y-96529661D01*
X106423374Y-96523538D01*
X106419059Y-96477891D01*
X106418500Y-96466033D01*
X106418500Y-81611842D01*
X106419237Y-81598235D01*
X106422659Y-81566737D01*
X106422659Y-81566732D01*
X106423324Y-81560611D01*
X106418950Y-81510609D01*
X106418621Y-81505784D01*
X106418500Y-81503313D01*
X106418500Y-81500231D01*
X106414309Y-81457489D01*
X106414187Y-81456174D01*
X106406623Y-81369719D01*
X106406087Y-81363587D01*
X106404600Y-81358468D01*
X106404080Y-81353167D01*
X106377209Y-81264166D01*
X106376874Y-81263033D01*
X106352630Y-81179586D01*
X106352628Y-81179582D01*
X106350909Y-81173664D01*
X106348456Y-81168932D01*
X106346916Y-81163831D01*
X106303269Y-81081740D01*
X106302657Y-81080574D01*
X106262729Y-81003547D01*
X106259892Y-80998074D01*
X106256569Y-80993911D01*
X106254066Y-80989204D01*
X106195245Y-80917082D01*
X106194554Y-80916226D01*
X106163262Y-80877027D01*
X106160758Y-80874523D01*
X106160116Y-80873805D01*
X106156415Y-80869472D01*
X106129065Y-80835938D01*
X106093737Y-80806712D01*
X106084958Y-80798723D01*
X103745405Y-78459171D01*
X103711380Y-78396859D01*
X103708500Y-78370076D01*
X103708500Y-78239600D01*
X103697526Y-78133834D01*
X103685071Y-78096500D01*
X103641550Y-77966054D01*
X103643016Y-77965565D01*
X103633500Y-77922818D01*
X103633500Y-76382140D01*
X103643260Y-76338118D01*
X103642115Y-76337738D01*
X103695632Y-76176389D01*
X103695632Y-76176387D01*
X103697797Y-76169861D01*
X103708500Y-76065400D01*
X103708500Y-75064600D01*
X103697662Y-74960139D01*
X103697596Y-74959505D01*
X103710461Y-74889684D01*
X103733828Y-74857407D01*
X105444379Y-73146855D01*
X105454522Y-73137753D01*
X105479218Y-73117897D01*
X105484025Y-73114032D01*
X105516292Y-73075578D01*
X105519472Y-73071931D01*
X105521115Y-73070119D01*
X105523309Y-73067925D01*
X105550642Y-73034651D01*
X105551348Y-73033800D01*
X105569202Y-73012523D01*
X105611154Y-72962526D01*
X105613722Y-72957856D01*
X105617103Y-72953739D01*
X105655026Y-72883013D01*
X105660977Y-72871914D01*
X105661606Y-72870755D01*
X105703462Y-72794619D01*
X105703465Y-72794611D01*
X105706433Y-72789213D01*
X105708045Y-72784131D01*
X105710562Y-72779437D01*
X105737762Y-72690469D01*
X105738108Y-72689358D01*
X105739108Y-72686208D01*
X105766235Y-72600694D01*
X105766829Y-72595398D01*
X105768387Y-72590302D01*
X105777790Y-72497743D01*
X105777911Y-72496607D01*
X105782730Y-72453642D01*
X105783108Y-72450270D01*
X105783108Y-72450266D01*
X105783500Y-72446773D01*
X105783500Y-72443246D01*
X105783555Y-72442261D01*
X105784002Y-72436581D01*
X105788374Y-72393538D01*
X105784059Y-72347891D01*
X105783500Y-72336033D01*
X105783500Y-63942843D01*
X105784237Y-63929236D01*
X105787659Y-63897738D01*
X105787659Y-63897733D01*
X105788324Y-63891612D01*
X105783950Y-63841612D01*
X105783621Y-63836786D01*
X105783500Y-63834314D01*
X105783500Y-63831231D01*
X105780859Y-63804295D01*
X105779310Y-63788494D01*
X105779188Y-63787181D01*
X105773584Y-63723130D01*
X105771087Y-63694587D01*
X105769600Y-63689468D01*
X105769080Y-63684167D01*
X105742209Y-63595166D01*
X105741874Y-63594033D01*
X105717630Y-63510586D01*
X105717628Y-63510582D01*
X105715909Y-63504664D01*
X105713456Y-63499932D01*
X105711916Y-63494831D01*
X105685423Y-63445003D01*
X105668269Y-63412740D01*
X105667657Y-63411574D01*
X105627729Y-63334547D01*
X105624892Y-63329074D01*
X105621569Y-63324911D01*
X105619066Y-63320204D01*
X105560261Y-63248102D01*
X105559433Y-63247075D01*
X105530469Y-63210792D01*
X105530464Y-63210787D01*
X105528262Y-63208028D01*
X105525761Y-63205527D01*
X105525119Y-63204809D01*
X105521406Y-63200461D01*
X105513642Y-63190941D01*
X105494065Y-63166938D01*
X105489323Y-63163015D01*
X105489321Y-63163013D01*
X105458727Y-63137703D01*
X105449947Y-63129713D01*
X103915405Y-61595171D01*
X103881379Y-61532859D01*
X103878500Y-61506076D01*
X103878500Y-61183500D01*
X103898502Y-61115379D01*
X103952158Y-61068886D01*
X104004500Y-61057500D01*
X104746580Y-61057500D01*
X104835602Y-61047585D01*
X104876327Y-61043050D01*
X104876331Y-61043049D01*
X104879800Y-61042663D01*
X104933887Y-61030464D01*
X104937198Y-61029320D01*
X104937204Y-61029318D01*
X105057274Y-60987821D01*
X105057275Y-60987821D01*
X105060584Y-60986677D01*
X105764646Y-60652054D01*
X105904731Y-60559742D01*
X105943446Y-60525674D01*
X105956158Y-60514488D01*
X105956163Y-60514483D01*
X105956642Y-60514062D01*
X105974484Y-60497718D01*
X105982290Y-60488031D01*
X106068485Y-60381070D01*
X106068487Y-60381067D01*
X106073666Y-60374640D01*
X106137613Y-60230086D01*
X106157615Y-60161965D01*
X106158611Y-60155042D01*
X106172046Y-60061597D01*
X106182142Y-59991377D01*
X106182142Y-58406585D01*
X106202144Y-58338464D01*
X106206740Y-58331794D01*
X106258922Y-58261045D01*
X106304696Y-58198985D01*
X106361227Y-58156037D01*
X106409911Y-58147835D01*
X108193918Y-58201896D01*
X108261401Y-58223952D01*
X108306247Y-58278991D01*
X108314218Y-58349539D01*
X108282783Y-58413197D01*
X108243351Y-58442033D01*
X108017875Y-58547174D01*
X108013882Y-58549036D01*
X108010185Y-58551437D01*
X107781998Y-58699623D01*
X107781994Y-58699626D01*
X107778303Y-58702023D01*
X107566308Y-58886308D01*
X107382023Y-59098303D01*
X107229036Y-59333882D01*
X107227177Y-59337868D01*
X107227174Y-59337874D01*
X107112187Y-59584466D01*
X107110325Y-59588460D01*
X107028198Y-59857082D01*
X107027511Y-59861422D01*
X107027509Y-59861429D01*
X107006221Y-59995840D01*
X106984257Y-60134520D01*
X106984102Y-60138081D01*
X106984101Y-60138086D01*
X106982870Y-60166289D01*
X106981500Y-60197663D01*
X106981500Y-60556317D01*
X106968067Y-60612927D01*
X106967817Y-60613425D01*
X106966158Y-60616327D01*
X106964817Y-60619389D01*
X106964808Y-60619407D01*
X106901351Y-60764308D01*
X106900635Y-60765914D01*
X106835139Y-60909966D01*
X106833754Y-60913013D01*
X106832702Y-60916186D01*
X106832698Y-60916195D01*
X106827860Y-60930782D01*
X106823684Y-60941660D01*
X106817521Y-60955734D01*
X106817518Y-60955742D01*
X106816174Y-60958811D01*
X106781102Y-61069709D01*
X106767458Y-61112850D01*
X106766929Y-61114483D01*
X106716047Y-61267887D01*
X106715335Y-61271164D01*
X106715333Y-61271173D01*
X106712074Y-61286184D01*
X106709083Y-61297427D01*
X106703432Y-61315295D01*
X106702764Y-61318595D01*
X106671364Y-61473623D01*
X106671003Y-61475345D01*
X106636716Y-61633261D01*
X106636358Y-61636581D01*
X106636354Y-61636607D01*
X106634707Y-61651892D01*
X106632926Y-61663398D01*
X106629880Y-61678440D01*
X106629212Y-61681740D01*
X106614154Y-61842532D01*
X106613984Y-61844225D01*
X106605378Y-61924092D01*
X106598595Y-61987049D01*
X106596661Y-62004995D01*
X106596593Y-62007518D01*
X106596592Y-62007529D01*
X106596524Y-62010047D01*
X106596500Y-62010945D01*
X106596500Y-62025163D01*
X106595951Y-62036911D01*
X106594351Y-62053997D01*
X106594395Y-62057363D01*
X106594395Y-62057364D01*
X106596489Y-62217354D01*
X106596500Y-62219003D01*
X106596500Y-72913461D01*
X106596589Y-72915127D01*
X106596589Y-72915136D01*
X106610571Y-73177529D01*
X106611414Y-73193357D01*
X106611944Y-73196649D01*
X106611945Y-73196656D01*
X106630594Y-73312437D01*
X106670869Y-73562485D01*
X106671752Y-73565725D01*
X106671753Y-73565728D01*
X106744036Y-73830857D01*
X106769213Y-73923206D01*
X106905331Y-74271434D01*
X106906880Y-74274416D01*
X107015349Y-74483227D01*
X107077683Y-74603226D01*
X107079532Y-74606014D01*
X107267646Y-74889684D01*
X107284317Y-74914824D01*
X107522892Y-75202700D01*
X107790708Y-75463595D01*
X107793340Y-75465662D01*
X107793344Y-75465666D01*
X107942306Y-75582677D01*
X108084731Y-75694553D01*
X108401631Y-75892959D01*
X108496173Y-75938968D01*
X108734806Y-76055099D01*
X108734810Y-76055101D01*
X108737821Y-76056566D01*
X109089493Y-76183523D01*
X109452664Y-76272390D01*
X109455983Y-76272836D01*
X109455984Y-76272836D01*
X109819914Y-76321719D01*
X109819923Y-76321720D01*
X109823223Y-76322163D01*
X110196972Y-76332276D01*
X110200313Y-76332010D01*
X110200318Y-76332010D01*
X110566331Y-76302883D01*
X110566340Y-76302882D01*
X110569680Y-76302616D01*
X110572975Y-76301996D01*
X110572978Y-76301996D01*
X110933842Y-76234136D01*
X110933850Y-76234134D01*
X110937126Y-76233518D01*
X111295149Y-76125766D01*
X111462849Y-76055099D01*
X111636610Y-75981878D01*
X111636617Y-75981875D01*
X111639694Y-75980578D01*
X111966861Y-75799600D01*
X111969599Y-75797679D01*
X111969609Y-75797673D01*
X112270202Y-75586803D01*
X112270204Y-75586802D01*
X112272943Y-75584880D01*
X112554476Y-75338851D01*
X112808270Y-75064298D01*
X113031452Y-74764330D01*
X113195697Y-74486054D01*
X113219789Y-74445236D01*
X113219792Y-74445231D01*
X113221495Y-74442345D01*
X113376246Y-74101987D01*
X113436622Y-73919960D01*
X113492895Y-73750304D01*
X113492897Y-73750297D01*
X113493953Y-73747113D01*
X113573284Y-73381739D01*
X113599629Y-73137240D01*
X113613068Y-73012523D01*
X113613069Y-73012515D01*
X113613339Y-73010005D01*
X113613500Y-73004055D01*
X113613500Y-64535117D01*
X113633827Y-64466493D01*
X113678612Y-64397531D01*
X113680818Y-64394134D01*
X120311500Y-64394134D01*
X120318255Y-64456316D01*
X120369385Y-64592705D01*
X120456739Y-64709261D01*
X120573295Y-64796615D01*
X120709684Y-64847745D01*
X120771866Y-64854500D01*
X123068134Y-64854500D01*
X123130316Y-64847745D01*
X123266705Y-64796615D01*
X123383261Y-64709261D01*
X123470615Y-64592705D01*
X123521745Y-64456316D01*
X123528500Y-64394134D01*
X123528500Y-62097866D01*
X123521745Y-62035684D01*
X123470615Y-61899295D01*
X123383261Y-61782739D01*
X123266705Y-61695385D01*
X123130316Y-61644255D01*
X123068134Y-61637500D01*
X120771866Y-61637500D01*
X120709684Y-61644255D01*
X120573295Y-61695385D01*
X120456739Y-61782739D01*
X120369385Y-61899295D01*
X120318255Y-62035684D01*
X120311500Y-62097866D01*
X120311500Y-64394134D01*
X113680818Y-64394134D01*
X113750964Y-64286118D01*
X113752823Y-64282132D01*
X113752826Y-64282126D01*
X113867813Y-64035534D01*
X113867815Y-64035529D01*
X113869675Y-64031540D01*
X113879481Y-63999469D01*
X113920741Y-63864514D01*
X113951802Y-63762918D01*
X113952489Y-63758578D01*
X113952491Y-63758571D01*
X113995185Y-63489003D01*
X113995743Y-63485480D01*
X113998500Y-63422337D01*
X113998500Y-61979838D01*
X113999049Y-61968092D01*
X114000335Y-61954357D01*
X114000649Y-61951003D01*
X114000451Y-61935838D01*
X113998510Y-61787641D01*
X113998499Y-61785991D01*
X113998499Y-60197664D01*
X113996579Y-60153663D01*
X113995899Y-60138086D01*
X113995898Y-60138080D01*
X113995743Y-60134520D01*
X113973779Y-59995840D01*
X113952491Y-59861429D01*
X113952489Y-59861422D01*
X113951802Y-59857082D01*
X113869675Y-59588460D01*
X113867813Y-59584466D01*
X113752826Y-59337874D01*
X113752823Y-59337868D01*
X113750964Y-59333882D01*
X113597977Y-59098303D01*
X113413692Y-58886308D01*
X113201697Y-58702023D01*
X113198006Y-58699626D01*
X113198002Y-58699623D01*
X112969815Y-58551437D01*
X112966118Y-58549036D01*
X112962132Y-58547177D01*
X112962126Y-58547174D01*
X112715534Y-58432187D01*
X112715529Y-58432185D01*
X112711540Y-58430325D01*
X112707327Y-58429037D01*
X112707322Y-58429035D01*
X112497855Y-58364994D01*
X112438559Y-58325949D01*
X112409785Y-58261045D01*
X112420669Y-58190888D01*
X112467755Y-58137752D01*
X112534694Y-58118500D01*
X132431391Y-58118500D01*
X132499512Y-58138502D01*
X132546005Y-58192158D01*
X132556109Y-58262432D01*
X132526615Y-58327012D01*
X132468230Y-58364994D01*
X132398460Y-58386325D01*
X132394471Y-58388185D01*
X132394466Y-58388187D01*
X132147874Y-58503174D01*
X132147868Y-58503177D01*
X132143882Y-58505036D01*
X132140185Y-58507437D01*
X131911998Y-58655623D01*
X131911994Y-58655626D01*
X131908303Y-58658023D01*
X131696308Y-58842308D01*
X131512023Y-59054303D01*
X131509626Y-59057994D01*
X131509623Y-59057998D01*
X131483449Y-59098303D01*
X131359036Y-59289882D01*
X131357177Y-59293868D01*
X131357174Y-59293874D01*
X131336657Y-59337874D01*
X131240325Y-59544460D01*
X131239037Y-59548673D01*
X131239035Y-59548678D01*
X131225583Y-59592678D01*
X131158198Y-59813082D01*
X131157511Y-59817422D01*
X131157509Y-59817429D01*
X131128747Y-59999030D01*
X131114257Y-60090520D01*
X131114102Y-60094081D01*
X131114101Y-60094086D01*
X131112336Y-60134520D01*
X131111500Y-60153663D01*
X131111500Y-60512317D01*
X131098067Y-60568927D01*
X131097817Y-60569425D01*
X131096158Y-60572327D01*
X131094817Y-60575389D01*
X131094808Y-60575407D01*
X131031351Y-60720308D01*
X131030635Y-60721914D01*
X130970545Y-60854076D01*
X130963754Y-60869013D01*
X130962702Y-60872186D01*
X130962698Y-60872195D01*
X130957860Y-60886782D01*
X130953684Y-60897660D01*
X130947521Y-60911734D01*
X130947518Y-60911742D01*
X130946174Y-60914811D01*
X130901048Y-61057500D01*
X130897458Y-61068850D01*
X130896929Y-61070483D01*
X130846047Y-61223887D01*
X130845335Y-61227164D01*
X130845333Y-61227173D01*
X130842074Y-61242184D01*
X130839083Y-61253427D01*
X130833432Y-61271295D01*
X130828136Y-61297445D01*
X130801364Y-61429623D01*
X130801003Y-61431345D01*
X130766716Y-61589261D01*
X130766358Y-61592581D01*
X130766354Y-61592607D01*
X130764707Y-61607892D01*
X130762926Y-61619398D01*
X130760119Y-61633261D01*
X130759212Y-61637740D01*
X130744154Y-61798532D01*
X130743984Y-61800225D01*
X130739330Y-61843416D01*
X130727738Y-61951003D01*
X130726661Y-61960995D01*
X130726500Y-61966945D01*
X130726500Y-61981163D01*
X130725951Y-61992911D01*
X130724351Y-62009997D01*
X130724395Y-62013363D01*
X130724395Y-62013364D01*
X130726489Y-62173354D01*
X130726500Y-62175003D01*
X130726500Y-72913461D01*
X130726589Y-72915127D01*
X130726589Y-72915136D01*
X130740571Y-73177529D01*
X130741414Y-73193357D01*
X130741944Y-73196649D01*
X130741945Y-73196656D01*
X130760594Y-73312437D01*
X130800869Y-73562485D01*
X130801752Y-73565725D01*
X130801753Y-73565728D01*
X130874036Y-73830857D01*
X130899213Y-73923206D01*
X131035331Y-74271434D01*
X131036880Y-74274416D01*
X131145349Y-74483227D01*
X131207683Y-74603226D01*
X131209532Y-74606014D01*
X131397646Y-74889684D01*
X131414317Y-74914824D01*
X131652892Y-75202700D01*
X131920708Y-75463595D01*
X131923340Y-75465662D01*
X131923344Y-75465666D01*
X132072306Y-75582677D01*
X132214731Y-75694553D01*
X132531631Y-75892959D01*
X132626173Y-75938968D01*
X132864806Y-76055099D01*
X132864810Y-76055101D01*
X132867821Y-76056566D01*
X133219493Y-76183523D01*
X133582664Y-76272390D01*
X133585983Y-76272836D01*
X133585984Y-76272836D01*
X133949914Y-76321719D01*
X133949923Y-76321720D01*
X133953223Y-76322163D01*
X134326972Y-76332276D01*
X134330313Y-76332010D01*
X134330318Y-76332010D01*
X134696331Y-76302883D01*
X134696340Y-76302882D01*
X134699680Y-76302616D01*
X134702975Y-76301996D01*
X134702978Y-76301996D01*
X135063842Y-76234136D01*
X135063850Y-76234134D01*
X135067126Y-76233518D01*
X135425149Y-76125766D01*
X135592849Y-76055099D01*
X135766610Y-75981878D01*
X135766617Y-75981875D01*
X135769694Y-75980578D01*
X136096861Y-75799600D01*
X136099599Y-75797679D01*
X136099609Y-75797673D01*
X136400202Y-75586803D01*
X136400204Y-75586802D01*
X136402943Y-75584880D01*
X136684476Y-75338851D01*
X136938270Y-75064298D01*
X137161452Y-74764330D01*
X137325697Y-74486054D01*
X137349789Y-74445236D01*
X137349792Y-74445231D01*
X137351495Y-74442345D01*
X137506246Y-74101987D01*
X137566622Y-73919960D01*
X137622895Y-73750304D01*
X137622897Y-73750297D01*
X137623953Y-73747113D01*
X137703284Y-73381739D01*
X137729629Y-73137240D01*
X137743068Y-73012523D01*
X137743069Y-73012515D01*
X137743339Y-73010005D01*
X137743500Y-73004055D01*
X137743500Y-64491117D01*
X137759194Y-64438134D01*
X145711500Y-64438134D01*
X145718255Y-64500316D01*
X145769385Y-64636705D01*
X145856739Y-64753261D01*
X145973295Y-64840615D01*
X146109684Y-64891745D01*
X146171866Y-64898500D01*
X148468134Y-64898500D01*
X148530316Y-64891745D01*
X148666705Y-64840615D01*
X148783261Y-64753261D01*
X148870615Y-64636705D01*
X148921745Y-64500316D01*
X148928500Y-64438134D01*
X148928500Y-62141866D01*
X148921745Y-62079684D01*
X148870615Y-61943295D01*
X148783261Y-61826739D01*
X148666705Y-61739385D01*
X148530316Y-61688255D01*
X148468134Y-61681500D01*
X146171866Y-61681500D01*
X146109684Y-61688255D01*
X145973295Y-61739385D01*
X145856739Y-61826739D01*
X145769385Y-61943295D01*
X145718255Y-62079684D01*
X145711500Y-62141866D01*
X145711500Y-64438134D01*
X137759194Y-64438134D01*
X137763827Y-64422493D01*
X137782550Y-64393663D01*
X137880964Y-64242118D01*
X137882823Y-64238132D01*
X137882826Y-64238126D01*
X137997813Y-63991534D01*
X137997815Y-63991529D01*
X137999675Y-63987540D01*
X138013341Y-63942843D01*
X138080514Y-63723130D01*
X138081802Y-63718918D01*
X138082489Y-63714578D01*
X138082491Y-63714571D01*
X138125185Y-63445003D01*
X138125743Y-63441480D01*
X138128500Y-63378337D01*
X138128500Y-61935838D01*
X138129049Y-61924092D01*
X138130335Y-61910357D01*
X138130649Y-61907003D01*
X138128510Y-61743641D01*
X138128499Y-61741991D01*
X138128499Y-60153664D01*
X138127819Y-60138086D01*
X138125899Y-60094086D01*
X138125898Y-60094080D01*
X138125743Y-60090520D01*
X138111253Y-59999030D01*
X138082491Y-59817429D01*
X138082489Y-59817422D01*
X138081802Y-59813082D01*
X138014417Y-59592678D01*
X138000965Y-59548678D01*
X138000963Y-59548673D01*
X137999675Y-59544460D01*
X137903343Y-59337874D01*
X137882826Y-59293874D01*
X137882823Y-59293868D01*
X137880964Y-59289882D01*
X137756551Y-59098303D01*
X137730377Y-59057998D01*
X137730374Y-59057994D01*
X137727977Y-59054303D01*
X137543692Y-58842308D01*
X137331697Y-58658023D01*
X137328006Y-58655626D01*
X137328002Y-58655623D01*
X137099815Y-58507437D01*
X137096118Y-58505036D01*
X137092132Y-58503177D01*
X137092126Y-58503174D01*
X136845534Y-58388187D01*
X136845529Y-58388185D01*
X136841540Y-58386325D01*
X136771770Y-58364994D01*
X136712474Y-58325950D01*
X136683700Y-58261045D01*
X136694584Y-58190888D01*
X136741670Y-58137752D01*
X136808609Y-58118500D01*
X156959306Y-58118500D01*
X157027427Y-58138502D01*
X157073920Y-58192158D01*
X157084024Y-58262432D01*
X157054530Y-58327012D01*
X156996145Y-58364994D01*
X156786678Y-58429035D01*
X156786673Y-58429037D01*
X156782460Y-58430325D01*
X156778471Y-58432185D01*
X156778466Y-58432187D01*
X156531874Y-58547174D01*
X156531868Y-58547177D01*
X156527882Y-58549036D01*
X156524185Y-58551437D01*
X156295998Y-58699623D01*
X156295994Y-58699626D01*
X156292303Y-58702023D01*
X156080308Y-58886308D01*
X155896023Y-59098303D01*
X155743036Y-59333882D01*
X155741177Y-59337868D01*
X155741174Y-59337874D01*
X155626187Y-59584466D01*
X155624325Y-59588460D01*
X155542198Y-59857082D01*
X155541511Y-59861422D01*
X155541509Y-59861429D01*
X155520221Y-59995840D01*
X155498257Y-60134520D01*
X155498102Y-60138081D01*
X155498101Y-60138086D01*
X155496870Y-60166289D01*
X155495500Y-60197663D01*
X155495500Y-60386392D01*
X155475498Y-60454513D01*
X155470590Y-60461604D01*
X155438548Y-60504670D01*
X155436847Y-60507552D01*
X155436841Y-60507561D01*
X155429025Y-60520803D01*
X155422650Y-60530545D01*
X155413651Y-60543000D01*
X155413646Y-60543007D01*
X155411687Y-60545719D01*
X155410025Y-60548627D01*
X155331546Y-60685937D01*
X155330662Y-60687459D01*
X155248505Y-60826655D01*
X155247117Y-60829707D01*
X155247111Y-60829719D01*
X155240749Y-60843710D01*
X155235445Y-60854076D01*
X155227822Y-60867414D01*
X155227816Y-60867426D01*
X155226158Y-60870327D01*
X155224814Y-60873397D01*
X155224808Y-60873408D01*
X155161351Y-61018308D01*
X155160635Y-61019914D01*
X155117619Y-61114524D01*
X155093754Y-61167013D01*
X155092702Y-61170186D01*
X155092698Y-61170195D01*
X155087860Y-61184782D01*
X155083684Y-61195660D01*
X155077521Y-61209734D01*
X155077518Y-61209742D01*
X155076174Y-61212811D01*
X155043763Y-61315295D01*
X155027458Y-61366850D01*
X155026929Y-61368483D01*
X154976047Y-61521887D01*
X154975335Y-61525164D01*
X154975333Y-61525173D01*
X154972074Y-61540184D01*
X154969083Y-61551427D01*
X154963432Y-61569295D01*
X154939338Y-61688255D01*
X154931364Y-61727623D01*
X154931003Y-61729345D01*
X154928823Y-61739385D01*
X154896716Y-61887261D01*
X154896358Y-61890581D01*
X154896354Y-61890607D01*
X154894707Y-61905892D01*
X154892926Y-61917398D01*
X154890827Y-61927764D01*
X154889212Y-61935740D01*
X154876425Y-62072285D01*
X154874154Y-62096532D01*
X154873984Y-62098225D01*
X154856661Y-62258995D01*
X154856593Y-62261518D01*
X154856592Y-62261529D01*
X154856524Y-62264047D01*
X154856500Y-62264945D01*
X154856500Y-62279163D01*
X154855951Y-62290911D01*
X154854351Y-62307997D01*
X154854395Y-62311363D01*
X154854395Y-62311364D01*
X154856489Y-62471354D01*
X154856500Y-62473003D01*
X154856500Y-72913461D01*
X154856589Y-72915127D01*
X154856589Y-72915136D01*
X154870571Y-73177529D01*
X154871414Y-73193357D01*
X154871944Y-73196649D01*
X154871945Y-73196656D01*
X154890594Y-73312437D01*
X154930869Y-73562485D01*
X154931752Y-73565725D01*
X154931753Y-73565728D01*
X155004036Y-73830857D01*
X155029213Y-73923206D01*
X155165331Y-74271434D01*
X155166880Y-74274416D01*
X155275349Y-74483227D01*
X155337683Y-74603226D01*
X155339532Y-74606014D01*
X155527646Y-74889684D01*
X155544317Y-74914824D01*
X155782892Y-75202700D01*
X156050708Y-75463595D01*
X156053340Y-75465662D01*
X156053344Y-75465666D01*
X156202306Y-75582677D01*
X156344731Y-75694553D01*
X156661631Y-75892959D01*
X156756173Y-75938968D01*
X156994806Y-76055099D01*
X156994810Y-76055101D01*
X156997821Y-76056566D01*
X157349493Y-76183523D01*
X157712664Y-76272390D01*
X157715983Y-76272836D01*
X157715984Y-76272836D01*
X158079914Y-76321719D01*
X158079923Y-76321720D01*
X158083223Y-76322163D01*
X158456972Y-76332276D01*
X158460313Y-76332010D01*
X158460318Y-76332010D01*
X158826331Y-76302883D01*
X158826340Y-76302882D01*
X158829680Y-76302616D01*
X158832975Y-76301996D01*
X158832978Y-76301996D01*
X159193842Y-76234136D01*
X159193850Y-76234134D01*
X159197126Y-76233518D01*
X159555149Y-76125766D01*
X159722849Y-76055099D01*
X159896610Y-75981878D01*
X159896617Y-75981875D01*
X159899694Y-75980578D01*
X160226861Y-75799600D01*
X160229599Y-75797679D01*
X160229609Y-75797673D01*
X160530202Y-75586803D01*
X160530204Y-75586802D01*
X160532943Y-75584880D01*
X160814476Y-75338851D01*
X161068270Y-75064298D01*
X161291452Y-74764330D01*
X161455697Y-74486054D01*
X161479789Y-74445236D01*
X161479792Y-74445231D01*
X161481495Y-74442345D01*
X161636246Y-74101987D01*
X161696622Y-73919960D01*
X161752895Y-73750304D01*
X161752897Y-73750297D01*
X161753953Y-73747113D01*
X161833284Y-73381739D01*
X161859629Y-73137240D01*
X161873068Y-73012523D01*
X161873069Y-73012515D01*
X161873339Y-73010005D01*
X161873500Y-73004055D01*
X161873500Y-64838222D01*
X161893502Y-64770101D01*
X161916836Y-64743129D01*
X161924379Y-64736572D01*
X161927692Y-64733692D01*
X162111977Y-64521697D01*
X162120548Y-64508500D01*
X162166244Y-64438134D01*
X169841500Y-64438134D01*
X169848255Y-64500316D01*
X169899385Y-64636705D01*
X169986739Y-64753261D01*
X170103295Y-64840615D01*
X170239684Y-64891745D01*
X170301866Y-64898500D01*
X172598134Y-64898500D01*
X172660316Y-64891745D01*
X172796705Y-64840615D01*
X172913261Y-64753261D01*
X173000615Y-64636705D01*
X173051745Y-64500316D01*
X173058500Y-64438134D01*
X173058500Y-62141866D01*
X173051745Y-62079684D01*
X173000615Y-61943295D01*
X172913261Y-61826739D01*
X172796705Y-61739385D01*
X172660316Y-61688255D01*
X172598134Y-61681500D01*
X170301866Y-61681500D01*
X170239684Y-61688255D01*
X170103295Y-61739385D01*
X169986739Y-61826739D01*
X169899385Y-61943295D01*
X169848255Y-62079684D01*
X169841500Y-62141866D01*
X169841500Y-64438134D01*
X162166244Y-64438134D01*
X162227141Y-64344360D01*
X162264964Y-64286118D01*
X162266823Y-64282132D01*
X162266826Y-64282126D01*
X162381813Y-64035534D01*
X162381815Y-64035529D01*
X162383675Y-64031540D01*
X162393481Y-63999469D01*
X162434741Y-63864514D01*
X162465802Y-63762918D01*
X162466489Y-63758578D01*
X162466491Y-63758571D01*
X162509185Y-63489003D01*
X162509743Y-63485480D01*
X162512500Y-63422337D01*
X162512500Y-61979838D01*
X162513049Y-61968092D01*
X162514335Y-61954357D01*
X162514649Y-61951003D01*
X162514451Y-61935838D01*
X162512510Y-61787641D01*
X162512499Y-61785991D01*
X162512499Y-60197664D01*
X162510579Y-60153663D01*
X162509899Y-60138086D01*
X162509898Y-60138080D01*
X162509743Y-60134520D01*
X162487779Y-59995840D01*
X162466491Y-59861429D01*
X162466489Y-59861422D01*
X162465802Y-59857082D01*
X162383675Y-59588460D01*
X162381813Y-59584466D01*
X162266826Y-59337874D01*
X162266823Y-59337868D01*
X162264964Y-59333882D01*
X162111977Y-59098303D01*
X161927692Y-58886308D01*
X161715697Y-58702023D01*
X161712006Y-58699626D01*
X161712002Y-58699623D01*
X161483815Y-58551437D01*
X161480118Y-58549036D01*
X161476132Y-58547177D01*
X161476126Y-58547174D01*
X161229534Y-58432187D01*
X161229529Y-58432185D01*
X161225540Y-58430325D01*
X161221327Y-58429037D01*
X161221322Y-58429035D01*
X161011855Y-58364994D01*
X160952559Y-58325949D01*
X160923785Y-58261045D01*
X160934669Y-58190888D01*
X160981755Y-58137752D01*
X161048694Y-58118500D01*
X180835306Y-58118500D01*
X180903427Y-58138502D01*
X180949920Y-58192158D01*
X180960024Y-58262432D01*
X180930530Y-58327012D01*
X180872145Y-58364994D01*
X180662678Y-58429035D01*
X180662673Y-58429037D01*
X180658460Y-58430325D01*
X180654471Y-58432185D01*
X180654466Y-58432187D01*
X180407874Y-58547174D01*
X180407868Y-58547177D01*
X180403882Y-58549036D01*
X180400185Y-58551437D01*
X180171998Y-58699623D01*
X180171994Y-58699626D01*
X180168303Y-58702023D01*
X179956308Y-58886308D01*
X179772023Y-59098303D01*
X179619036Y-59333882D01*
X179617177Y-59337868D01*
X179617174Y-59337874D01*
X179502187Y-59584466D01*
X179500325Y-59588460D01*
X179418198Y-59857082D01*
X179417511Y-59861422D01*
X179417509Y-59861429D01*
X179396221Y-59995840D01*
X179374257Y-60134520D01*
X179374102Y-60138081D01*
X179374101Y-60138086D01*
X179372870Y-60166289D01*
X179371500Y-60197663D01*
X179371500Y-60556317D01*
X179358067Y-60612927D01*
X179357817Y-60613425D01*
X179356158Y-60616327D01*
X179354817Y-60619389D01*
X179354808Y-60619407D01*
X179291351Y-60764308D01*
X179290635Y-60765914D01*
X179225139Y-60909966D01*
X179223754Y-60913013D01*
X179222702Y-60916186D01*
X179222698Y-60916195D01*
X179217860Y-60930782D01*
X179213684Y-60941660D01*
X179207521Y-60955734D01*
X179207518Y-60955742D01*
X179206174Y-60958811D01*
X179171102Y-61069709D01*
X179157458Y-61112850D01*
X179156929Y-61114483D01*
X179106047Y-61267887D01*
X179105335Y-61271164D01*
X179105333Y-61271173D01*
X179102074Y-61286184D01*
X179099083Y-61297427D01*
X179093432Y-61315295D01*
X179092764Y-61318595D01*
X179061364Y-61473623D01*
X179061003Y-61475345D01*
X179026716Y-61633261D01*
X179026358Y-61636581D01*
X179026354Y-61636607D01*
X179024707Y-61651892D01*
X179022926Y-61663398D01*
X179019880Y-61678440D01*
X179019212Y-61681740D01*
X179004154Y-61842532D01*
X179003984Y-61844225D01*
X178995378Y-61924092D01*
X178988595Y-61987049D01*
X178986661Y-62004995D01*
X178986593Y-62007518D01*
X178986592Y-62007529D01*
X178986524Y-62010047D01*
X178986500Y-62010945D01*
X178986500Y-62025163D01*
X178985951Y-62036911D01*
X178984351Y-62053997D01*
X178984395Y-62057363D01*
X178984395Y-62057364D01*
X178986489Y-62217354D01*
X178986500Y-62219003D01*
X178986500Y-72913461D01*
X178986589Y-72915127D01*
X178986589Y-72915136D01*
X179000571Y-73177529D01*
X179001414Y-73193357D01*
X179001944Y-73196649D01*
X179001945Y-73196656D01*
X179020594Y-73312437D01*
X179060869Y-73562485D01*
X179061752Y-73565725D01*
X179061753Y-73565728D01*
X179134036Y-73830857D01*
X179159213Y-73923206D01*
X179295331Y-74271434D01*
X179296880Y-74274416D01*
X179405349Y-74483227D01*
X179467683Y-74603226D01*
X179469532Y-74606014D01*
X179657646Y-74889684D01*
X179674317Y-74914824D01*
X179912892Y-75202700D01*
X180180708Y-75463595D01*
X180183340Y-75465662D01*
X180183344Y-75465666D01*
X180332306Y-75582677D01*
X180474731Y-75694553D01*
X180791631Y-75892959D01*
X180886173Y-75938968D01*
X181124806Y-76055099D01*
X181124810Y-76055101D01*
X181127821Y-76056566D01*
X181479493Y-76183523D01*
X181842664Y-76272390D01*
X181845983Y-76272836D01*
X181845984Y-76272836D01*
X182209914Y-76321719D01*
X182209923Y-76321720D01*
X182213223Y-76322163D01*
X182586972Y-76332276D01*
X182590313Y-76332010D01*
X182590318Y-76332010D01*
X182956331Y-76302883D01*
X182956340Y-76302882D01*
X182959680Y-76302616D01*
X182962975Y-76301996D01*
X182962978Y-76301996D01*
X183323842Y-76234136D01*
X183323850Y-76234134D01*
X183327126Y-76233518D01*
X183685149Y-76125766D01*
X183852849Y-76055099D01*
X184026610Y-75981878D01*
X184026617Y-75981875D01*
X184029694Y-75980578D01*
X184356861Y-75799600D01*
X184359599Y-75797679D01*
X184359609Y-75797673D01*
X184660202Y-75586803D01*
X184660204Y-75586802D01*
X184662943Y-75584880D01*
X184944476Y-75338851D01*
X185198270Y-75064298D01*
X185421452Y-74764330D01*
X185585697Y-74486054D01*
X185609789Y-74445236D01*
X185609792Y-74445231D01*
X185611495Y-74442345D01*
X185766246Y-74101987D01*
X185826622Y-73919960D01*
X185882895Y-73750304D01*
X185882897Y-73750297D01*
X185883953Y-73747113D01*
X185963284Y-73381739D01*
X185989629Y-73137240D01*
X186003068Y-73012523D01*
X186003069Y-73012515D01*
X186003339Y-73010005D01*
X186003500Y-73004055D01*
X186003500Y-64535117D01*
X186023827Y-64466493D01*
X186042244Y-64438134D01*
X192701500Y-64438134D01*
X192708255Y-64500316D01*
X192759385Y-64636705D01*
X192846739Y-64753261D01*
X192963295Y-64840615D01*
X193099684Y-64891745D01*
X193161866Y-64898500D01*
X195458134Y-64898500D01*
X195520316Y-64891745D01*
X195656705Y-64840615D01*
X195773261Y-64753261D01*
X195860615Y-64636705D01*
X195911745Y-64500316D01*
X195918500Y-64438134D01*
X195918500Y-62141866D01*
X195911745Y-62079684D01*
X195860615Y-61943295D01*
X195773261Y-61826739D01*
X195656705Y-61739385D01*
X195520316Y-61688255D01*
X195458134Y-61681500D01*
X193161866Y-61681500D01*
X193099684Y-61688255D01*
X192963295Y-61739385D01*
X192846739Y-61826739D01*
X192759385Y-61943295D01*
X192708255Y-62079684D01*
X192701500Y-62141866D01*
X192701500Y-64438134D01*
X186042244Y-64438134D01*
X186068612Y-64397531D01*
X186140964Y-64286118D01*
X186142823Y-64282132D01*
X186142826Y-64282126D01*
X186257813Y-64035534D01*
X186257815Y-64035529D01*
X186259675Y-64031540D01*
X186269481Y-63999469D01*
X186310741Y-63864514D01*
X186341802Y-63762918D01*
X186342489Y-63758578D01*
X186342491Y-63758571D01*
X186385185Y-63489003D01*
X186385743Y-63485480D01*
X186388500Y-63422337D01*
X186388500Y-61979838D01*
X186389049Y-61968092D01*
X186390335Y-61954357D01*
X186390649Y-61951003D01*
X186390451Y-61935838D01*
X186388510Y-61787641D01*
X186388499Y-61785991D01*
X186388499Y-60197664D01*
X186386579Y-60153663D01*
X186385899Y-60138086D01*
X186385898Y-60138080D01*
X186385743Y-60134520D01*
X186363779Y-59995840D01*
X186342491Y-59861429D01*
X186342489Y-59861422D01*
X186341802Y-59857082D01*
X186259675Y-59588460D01*
X186257813Y-59584466D01*
X186142826Y-59337874D01*
X186142823Y-59337868D01*
X186140964Y-59333882D01*
X185987977Y-59098303D01*
X185803692Y-58886308D01*
X185591697Y-58702023D01*
X185588006Y-58699626D01*
X185588002Y-58699623D01*
X185359815Y-58551437D01*
X185356118Y-58549036D01*
X185352132Y-58547177D01*
X185352126Y-58547174D01*
X185105534Y-58432187D01*
X185105529Y-58432185D01*
X185101540Y-58430325D01*
X185097327Y-58429037D01*
X185097322Y-58429035D01*
X184887855Y-58364994D01*
X184828559Y-58325949D01*
X184799785Y-58261045D01*
X184810669Y-58190888D01*
X184857755Y-58137752D01*
X184924694Y-58118500D01*
X204965306Y-58118500D01*
X205033427Y-58138502D01*
X205079920Y-58192158D01*
X205090024Y-58262432D01*
X205060530Y-58327012D01*
X205002145Y-58364994D01*
X204792678Y-58429035D01*
X204792673Y-58429037D01*
X204788460Y-58430325D01*
X204784471Y-58432185D01*
X204784466Y-58432187D01*
X204537874Y-58547174D01*
X204537868Y-58547177D01*
X204533882Y-58549036D01*
X204530185Y-58551437D01*
X204301998Y-58699623D01*
X204301994Y-58699626D01*
X204298303Y-58702023D01*
X204086308Y-58886308D01*
X203902023Y-59098303D01*
X203749036Y-59333882D01*
X203747177Y-59337868D01*
X203747174Y-59337874D01*
X203632187Y-59584466D01*
X203630325Y-59588460D01*
X203548198Y-59857082D01*
X203547511Y-59861422D01*
X203547509Y-59861429D01*
X203526221Y-59995840D01*
X203504257Y-60134520D01*
X203504102Y-60138081D01*
X203504101Y-60138086D01*
X203502870Y-60166289D01*
X203501500Y-60197663D01*
X203501500Y-60556317D01*
X203488067Y-60612927D01*
X203487817Y-60613425D01*
X203486158Y-60616327D01*
X203484817Y-60619389D01*
X203484808Y-60619407D01*
X203421351Y-60764308D01*
X203420635Y-60765914D01*
X203355139Y-60909966D01*
X203353754Y-60913013D01*
X203352702Y-60916186D01*
X203352698Y-60916195D01*
X203347860Y-60930782D01*
X203343684Y-60941660D01*
X203337521Y-60955734D01*
X203337518Y-60955742D01*
X203336174Y-60958811D01*
X203301102Y-61069709D01*
X203287458Y-61112850D01*
X203286929Y-61114483D01*
X203236047Y-61267887D01*
X203235335Y-61271164D01*
X203235333Y-61271173D01*
X203232074Y-61286184D01*
X203229083Y-61297427D01*
X203223432Y-61315295D01*
X203222764Y-61318595D01*
X203191364Y-61473623D01*
X203191003Y-61475345D01*
X203156716Y-61633261D01*
X203156358Y-61636581D01*
X203156354Y-61636607D01*
X203154707Y-61651892D01*
X203152926Y-61663398D01*
X203149880Y-61678440D01*
X203149212Y-61681740D01*
X203134154Y-61842532D01*
X203133984Y-61844225D01*
X203125378Y-61924092D01*
X203118595Y-61987049D01*
X203116661Y-62004995D01*
X203116593Y-62007518D01*
X203116592Y-62007529D01*
X203116524Y-62010047D01*
X203116500Y-62010945D01*
X203116500Y-62025163D01*
X203115951Y-62036911D01*
X203114351Y-62053997D01*
X203114395Y-62057363D01*
X203114395Y-62057364D01*
X203116489Y-62217354D01*
X203116500Y-62219003D01*
X203116500Y-72913461D01*
X203116589Y-72915127D01*
X203116589Y-72915136D01*
X203130571Y-73177529D01*
X203131414Y-73193357D01*
X203131944Y-73196649D01*
X203131945Y-73196656D01*
X203150594Y-73312437D01*
X203190869Y-73562485D01*
X203191752Y-73565725D01*
X203191753Y-73565728D01*
X203264036Y-73830857D01*
X203289213Y-73923206D01*
X203425331Y-74271434D01*
X203426880Y-74274416D01*
X203535349Y-74483227D01*
X203597683Y-74603226D01*
X203599532Y-74606014D01*
X203787646Y-74889684D01*
X203804317Y-74914824D01*
X204042892Y-75202700D01*
X204310708Y-75463595D01*
X204313340Y-75465662D01*
X204313344Y-75465666D01*
X204462306Y-75582677D01*
X204604731Y-75694553D01*
X204921631Y-75892959D01*
X205016173Y-75938968D01*
X205254806Y-76055099D01*
X205254810Y-76055101D01*
X205257821Y-76056566D01*
X205609493Y-76183523D01*
X205972664Y-76272390D01*
X205975983Y-76272836D01*
X205975984Y-76272836D01*
X206339914Y-76321719D01*
X206339923Y-76321720D01*
X206343223Y-76322163D01*
X206716972Y-76332276D01*
X206720313Y-76332010D01*
X206720318Y-76332010D01*
X207086331Y-76302883D01*
X207086340Y-76302882D01*
X207089680Y-76302616D01*
X207092975Y-76301996D01*
X207092978Y-76301996D01*
X207453842Y-76234136D01*
X207453850Y-76234134D01*
X207457126Y-76233518D01*
X207815149Y-76125766D01*
X207982849Y-76055099D01*
X208156610Y-75981878D01*
X208156617Y-75981875D01*
X208159694Y-75980578D01*
X208486861Y-75799600D01*
X208489599Y-75797679D01*
X208489609Y-75797673D01*
X208790202Y-75586803D01*
X208790204Y-75586802D01*
X208792943Y-75584880D01*
X209074476Y-75338851D01*
X209328270Y-75064298D01*
X209551452Y-74764330D01*
X209715697Y-74486054D01*
X209739789Y-74445236D01*
X209739792Y-74445231D01*
X209741495Y-74442345D01*
X209896246Y-74101987D01*
X209956622Y-73919960D01*
X210012895Y-73750304D01*
X210012897Y-73750297D01*
X210013953Y-73747113D01*
X210093284Y-73381739D01*
X210119629Y-73137240D01*
X210133068Y-73012523D01*
X210133069Y-73012515D01*
X210133339Y-73010005D01*
X210133500Y-73004055D01*
X210133500Y-64535117D01*
X210153827Y-64466493D01*
X210172244Y-64438134D01*
X218101500Y-64438134D01*
X218108255Y-64500316D01*
X218159385Y-64636705D01*
X218246739Y-64753261D01*
X218363295Y-64840615D01*
X218499684Y-64891745D01*
X218561866Y-64898500D01*
X220858134Y-64898500D01*
X220920316Y-64891745D01*
X221056705Y-64840615D01*
X221173261Y-64753261D01*
X221260615Y-64636705D01*
X221311745Y-64500316D01*
X221318500Y-64438134D01*
X221318500Y-62141866D01*
X221311745Y-62079684D01*
X221260615Y-61943295D01*
X221173261Y-61826739D01*
X221056705Y-61739385D01*
X220920316Y-61688255D01*
X220858134Y-61681500D01*
X218561866Y-61681500D01*
X218499684Y-61688255D01*
X218363295Y-61739385D01*
X218246739Y-61826739D01*
X218159385Y-61943295D01*
X218108255Y-62079684D01*
X218101500Y-62141866D01*
X218101500Y-64438134D01*
X210172244Y-64438134D01*
X210198612Y-64397531D01*
X210270964Y-64286118D01*
X210272823Y-64282132D01*
X210272826Y-64282126D01*
X210387813Y-64035534D01*
X210387815Y-64035529D01*
X210389675Y-64031540D01*
X210399481Y-63999469D01*
X210440741Y-63864514D01*
X210471802Y-63762918D01*
X210472489Y-63758578D01*
X210472491Y-63758571D01*
X210515185Y-63489003D01*
X210515743Y-63485480D01*
X210518500Y-63422337D01*
X210518500Y-61979838D01*
X210519049Y-61968092D01*
X210520335Y-61954357D01*
X210520649Y-61951003D01*
X210520451Y-61935838D01*
X210518510Y-61787641D01*
X210518499Y-61785991D01*
X210518499Y-60197664D01*
X210516579Y-60153663D01*
X210515899Y-60138086D01*
X210515898Y-60138080D01*
X210515743Y-60134520D01*
X210493779Y-59995840D01*
X210472491Y-59861429D01*
X210472489Y-59861422D01*
X210471802Y-59857082D01*
X210389675Y-59588460D01*
X210387813Y-59584466D01*
X210272826Y-59337874D01*
X210272823Y-59337868D01*
X210270964Y-59333882D01*
X210117977Y-59098303D01*
X209933692Y-58886308D01*
X209721697Y-58702023D01*
X209718006Y-58699626D01*
X209718002Y-58699623D01*
X209489815Y-58551437D01*
X209486118Y-58549036D01*
X209482132Y-58547177D01*
X209482126Y-58547174D01*
X209235534Y-58432187D01*
X209235529Y-58432185D01*
X209231540Y-58430325D01*
X209227327Y-58429037D01*
X209227322Y-58429035D01*
X209017855Y-58364994D01*
X208958559Y-58325949D01*
X208929785Y-58261045D01*
X208940669Y-58190888D01*
X208987755Y-58137752D01*
X209054694Y-58118500D01*
X229095306Y-58118500D01*
X229163427Y-58138502D01*
X229209920Y-58192158D01*
X229220024Y-58262432D01*
X229190530Y-58327012D01*
X229132145Y-58364994D01*
X228922678Y-58429035D01*
X228922673Y-58429037D01*
X228918460Y-58430325D01*
X228914471Y-58432185D01*
X228914466Y-58432187D01*
X228667874Y-58547174D01*
X228667868Y-58547177D01*
X228663882Y-58549036D01*
X228660185Y-58551437D01*
X228431998Y-58699623D01*
X228431994Y-58699626D01*
X228428303Y-58702023D01*
X228216308Y-58886308D01*
X228032023Y-59098303D01*
X227879036Y-59333882D01*
X227877177Y-59337868D01*
X227877174Y-59337874D01*
X227762187Y-59584466D01*
X227760325Y-59588460D01*
X227678198Y-59857082D01*
X227677511Y-59861422D01*
X227677509Y-59861429D01*
X227656221Y-59995840D01*
X227634257Y-60134520D01*
X227634102Y-60138081D01*
X227634101Y-60138086D01*
X227632870Y-60166289D01*
X227631500Y-60197663D01*
X227631500Y-60556317D01*
X227618067Y-60612927D01*
X227617817Y-60613425D01*
X227616158Y-60616327D01*
X227614817Y-60619389D01*
X227614808Y-60619407D01*
X227551351Y-60764308D01*
X227550635Y-60765914D01*
X227485139Y-60909966D01*
X227483754Y-60913013D01*
X227482702Y-60916186D01*
X227482698Y-60916195D01*
X227477860Y-60930782D01*
X227473684Y-60941660D01*
X227467521Y-60955734D01*
X227467518Y-60955742D01*
X227466174Y-60958811D01*
X227431102Y-61069709D01*
X227417458Y-61112850D01*
X227416929Y-61114483D01*
X227366047Y-61267887D01*
X227365335Y-61271164D01*
X227365333Y-61271173D01*
X227362074Y-61286184D01*
X227359083Y-61297427D01*
X227353432Y-61315295D01*
X227352764Y-61318595D01*
X227321364Y-61473623D01*
X227321003Y-61475345D01*
X227286716Y-61633261D01*
X227286358Y-61636581D01*
X227286354Y-61636607D01*
X227284707Y-61651892D01*
X227282926Y-61663398D01*
X227279880Y-61678440D01*
X227279212Y-61681740D01*
X227264154Y-61842532D01*
X227263984Y-61844225D01*
X227255378Y-61924092D01*
X227248595Y-61987049D01*
X227246661Y-62004995D01*
X227246593Y-62007518D01*
X227246592Y-62007529D01*
X227246524Y-62010047D01*
X227246500Y-62010945D01*
X227246500Y-62025163D01*
X227245951Y-62036911D01*
X227244351Y-62053997D01*
X227244395Y-62057363D01*
X227244395Y-62057364D01*
X227246489Y-62217354D01*
X227246500Y-62219003D01*
X227246500Y-72913461D01*
X227246589Y-72915127D01*
X227246589Y-72915136D01*
X227260571Y-73177529D01*
X227261414Y-73193357D01*
X227261944Y-73196649D01*
X227261945Y-73196656D01*
X227280594Y-73312437D01*
X227320869Y-73562485D01*
X227321752Y-73565725D01*
X227321753Y-73565728D01*
X227394036Y-73830857D01*
X227419213Y-73923206D01*
X227555331Y-74271434D01*
X227556880Y-74274416D01*
X227665349Y-74483227D01*
X227727683Y-74603226D01*
X227729532Y-74606014D01*
X227917646Y-74889684D01*
X227934317Y-74914824D01*
X228172892Y-75202700D01*
X228440708Y-75463595D01*
X228443340Y-75465662D01*
X228443344Y-75465666D01*
X228592306Y-75582677D01*
X228734731Y-75694553D01*
X229051631Y-75892959D01*
X229146173Y-75938968D01*
X229384806Y-76055099D01*
X229384810Y-76055101D01*
X229387821Y-76056566D01*
X229739493Y-76183523D01*
X230102664Y-76272390D01*
X230105983Y-76272836D01*
X230105984Y-76272836D01*
X230469914Y-76321719D01*
X230469923Y-76321720D01*
X230473223Y-76322163D01*
X230846972Y-76332276D01*
X230850313Y-76332010D01*
X230850318Y-76332010D01*
X231216331Y-76302883D01*
X231216340Y-76302882D01*
X231219680Y-76302616D01*
X231222975Y-76301996D01*
X231222978Y-76301996D01*
X231583842Y-76234136D01*
X231583850Y-76234134D01*
X231587126Y-76233518D01*
X231945149Y-76125766D01*
X232112849Y-76055099D01*
X232286610Y-75981878D01*
X232286617Y-75981875D01*
X232289694Y-75980578D01*
X232616861Y-75799600D01*
X232619599Y-75797679D01*
X232619609Y-75797673D01*
X232920202Y-75586803D01*
X232920204Y-75586802D01*
X232922943Y-75584880D01*
X233204476Y-75338851D01*
X233458270Y-75064298D01*
X233681452Y-74764330D01*
X233845697Y-74486054D01*
X233869789Y-74445236D01*
X233869792Y-74445231D01*
X233871495Y-74442345D01*
X234026246Y-74101987D01*
X234086622Y-73919960D01*
X234142895Y-73750304D01*
X234142897Y-73750297D01*
X234143953Y-73747113D01*
X234223284Y-73381739D01*
X234249629Y-73137240D01*
X234263068Y-73012523D01*
X234263069Y-73012515D01*
X234263339Y-73010005D01*
X234263500Y-73004055D01*
X234263500Y-66299134D01*
X237913500Y-66299134D01*
X237920255Y-66361316D01*
X237971385Y-66497705D01*
X238058739Y-66614261D01*
X238175295Y-66701615D01*
X238311684Y-66752745D01*
X238373866Y-66759500D01*
X240670134Y-66759500D01*
X240732316Y-66752745D01*
X240868705Y-66701615D01*
X240985261Y-66614261D01*
X241072615Y-66497705D01*
X241123745Y-66361316D01*
X241130500Y-66299134D01*
X241130500Y-64002866D01*
X241123745Y-63940684D01*
X241072615Y-63804295D01*
X240985261Y-63687739D01*
X240868705Y-63600385D01*
X240732316Y-63549255D01*
X240670134Y-63542500D01*
X238373866Y-63542500D01*
X238311684Y-63549255D01*
X238175295Y-63600385D01*
X238058739Y-63687739D01*
X237971385Y-63804295D01*
X237920255Y-63940684D01*
X237913500Y-64002866D01*
X237913500Y-66299134D01*
X234263500Y-66299134D01*
X234263500Y-64535117D01*
X234283827Y-64466493D01*
X234328612Y-64397531D01*
X234400964Y-64286118D01*
X234402823Y-64282132D01*
X234402826Y-64282126D01*
X234517813Y-64035534D01*
X234517815Y-64035529D01*
X234519675Y-64031540D01*
X234529481Y-63999469D01*
X234570741Y-63864514D01*
X234601802Y-63762918D01*
X234602489Y-63758578D01*
X234602491Y-63758571D01*
X234645185Y-63489003D01*
X234645743Y-63485480D01*
X234648500Y-63422337D01*
X234648500Y-61979838D01*
X234649049Y-61968092D01*
X234650335Y-61954357D01*
X234650649Y-61951003D01*
X234650451Y-61935838D01*
X234648510Y-61787641D01*
X234648499Y-61785991D01*
X234648499Y-60197664D01*
X234646579Y-60153663D01*
X234645899Y-60138086D01*
X234645898Y-60138080D01*
X234645743Y-60134520D01*
X234623779Y-59995840D01*
X234602491Y-59861429D01*
X234602489Y-59861422D01*
X234601802Y-59857082D01*
X234519675Y-59588460D01*
X234517813Y-59584466D01*
X234402826Y-59337874D01*
X234402823Y-59337868D01*
X234400964Y-59333882D01*
X234247977Y-59098303D01*
X234063692Y-58886308D01*
X233851697Y-58702023D01*
X233848006Y-58699626D01*
X233848002Y-58699623D01*
X233619815Y-58551437D01*
X233616118Y-58549036D01*
X233612132Y-58547177D01*
X233612126Y-58547174D01*
X233365534Y-58432187D01*
X233365529Y-58432185D01*
X233361540Y-58430325D01*
X233357327Y-58429037D01*
X233357322Y-58429035D01*
X233147855Y-58364994D01*
X233088559Y-58325949D01*
X233059785Y-58261045D01*
X233070669Y-58190888D01*
X233117755Y-58137752D01*
X233184694Y-58118500D01*
X237891271Y-58118500D01*
X237942925Y-58130759D01*
X237943327Y-58129842D01*
X238285811Y-58279826D01*
X238642295Y-58392567D01*
X239008740Y-58466788D01*
X239380997Y-58501649D01*
X239384362Y-58501605D01*
X239384363Y-58501605D01*
X239751503Y-58496799D01*
X239751506Y-58496799D01*
X239754852Y-58496755D01*
X240126070Y-58452162D01*
X240129340Y-58451410D01*
X240129346Y-58451409D01*
X240487163Y-58369129D01*
X240487164Y-58369129D01*
X240490446Y-58368374D01*
X240843856Y-58246339D01*
X241091988Y-58129842D01*
X241179261Y-58088868D01*
X241179263Y-58088867D01*
X241182298Y-58087442D01*
X241185156Y-58085707D01*
X241185161Y-58085705D01*
X241499081Y-57895212D01*
X241501937Y-57893479D01*
X241799157Y-57666649D01*
X242070588Y-57409520D01*
X242313160Y-57125003D01*
X242315045Y-57122245D01*
X242315051Y-57122237D01*
X242522237Y-56819080D01*
X242522239Y-56819076D01*
X242524123Y-56816320D01*
X242701092Y-56486967D01*
X242842058Y-56140673D01*
X242945430Y-55781361D01*
X243010032Y-55413098D01*
X243035137Y-55040055D01*
X243025218Y-54787582D01*
X243020591Y-54669810D01*
X243020590Y-54669804D01*
X243020459Y-54666458D01*
X242975235Y-54358341D01*
X242966650Y-54299852D01*
X242966649Y-54299849D01*
X242966163Y-54296535D01*
X242963739Y-54287127D01*
X242873703Y-53937722D01*
X242873700Y-53937712D01*
X242872866Y-53934476D01*
X242741622Y-53584381D01*
X242702844Y-53507112D01*
X242575423Y-53253212D01*
X242575419Y-53253206D01*
X242573919Y-53250216D01*
X242371656Y-52935762D01*
X242319285Y-52870741D01*
X242138704Y-52646545D01*
X242137124Y-52644583D01*
X242133030Y-52640262D01*
X241708305Y-52215537D01*
X241702523Y-52209354D01*
X241662060Y-52163052D01*
X241659851Y-52160524D01*
X241574901Y-52081997D01*
X241571336Y-52078568D01*
X241555797Y-52063029D01*
X241554560Y-52061917D01*
X241554544Y-52061902D01*
X241505264Y-52017608D01*
X241503963Y-52016423D01*
X241387760Y-51909006D01*
X241385298Y-51906730D01*
X241370273Y-51895551D01*
X241361264Y-51888177D01*
X241349834Y-51877904D01*
X241349832Y-51877902D01*
X241347335Y-51875658D01*
X241216373Y-51781033D01*
X241214984Y-51780014D01*
X241088019Y-51685549D01*
X241085330Y-51683548D01*
X241082448Y-51681847D01*
X241082439Y-51681841D01*
X241069197Y-51674025D01*
X241059455Y-51667650D01*
X241047000Y-51658651D01*
X241046993Y-51658646D01*
X241044281Y-51656687D01*
X241025954Y-51646212D01*
X240904063Y-51576546D01*
X240902541Y-51575662D01*
X240779032Y-51502764D01*
X240763345Y-51493505D01*
X240760293Y-51492117D01*
X240760281Y-51492111D01*
X240746290Y-51485749D01*
X240735924Y-51480445D01*
X240722586Y-51472822D01*
X240722574Y-51472816D01*
X240719673Y-51471158D01*
X240716603Y-51469814D01*
X240716592Y-51469808D01*
X240571692Y-51406351D01*
X240570086Y-51405635D01*
X240426034Y-51340139D01*
X240426028Y-51340137D01*
X240422987Y-51338754D01*
X240419814Y-51337702D01*
X240419805Y-51337698D01*
X240405218Y-51332860D01*
X240394340Y-51328684D01*
X240380266Y-51322521D01*
X240380258Y-51322518D01*
X240377189Y-51321174D01*
X240223106Y-51272444D01*
X240221517Y-51271929D01*
X240068113Y-51221047D01*
X240064836Y-51220335D01*
X240064827Y-51220333D01*
X240049816Y-51217074D01*
X240038573Y-51214083D01*
X240020705Y-51208432D01*
X239862377Y-51176364D01*
X239860655Y-51176003D01*
X239845924Y-51172805D01*
X239702739Y-51141716D01*
X239699419Y-51141358D01*
X239699393Y-51141354D01*
X239684108Y-51139707D01*
X239672602Y-51137926D01*
X239657560Y-51134880D01*
X239657554Y-51134879D01*
X239654260Y-51134212D01*
X239493437Y-51119151D01*
X239491775Y-51118984D01*
X239401132Y-51109217D01*
X239333523Y-51101932D01*
X239333515Y-51101931D01*
X239331005Y-51101661D01*
X239328482Y-51101593D01*
X239328471Y-51101592D01*
X239326536Y-51101540D01*
X239325055Y-51101500D01*
X239310837Y-51101500D01*
X239299089Y-51100951D01*
X239294788Y-51100548D01*
X239282003Y-51099351D01*
X239278637Y-51099395D01*
X239278636Y-51099395D01*
X239118646Y-51101489D01*
X239116997Y-51101500D01*
X231235170Y-51101500D01*
X231228576Y-51101327D01*
X231143301Y-51096858D01*
X231140000Y-51096685D01*
X231136699Y-51096858D01*
X231051424Y-51101327D01*
X231044830Y-51101500D01*
X207105170Y-51101500D01*
X207098576Y-51101327D01*
X207013301Y-51096858D01*
X207010000Y-51096685D01*
X207006699Y-51096858D01*
X206921424Y-51101327D01*
X206914830Y-51101500D01*
X182975170Y-51101500D01*
X182968576Y-51101327D01*
X182883301Y-51096858D01*
X182880000Y-51096685D01*
X182876699Y-51096858D01*
X182791424Y-51101327D01*
X182784830Y-51101500D01*
X159099170Y-51101500D01*
X159092576Y-51101327D01*
X159007301Y-51096858D01*
X159004000Y-51096685D01*
X159000699Y-51096858D01*
X158915424Y-51101327D01*
X158908830Y-51101500D01*
X135183851Y-51101500D01*
X135164140Y-51099949D01*
X135160643Y-51099395D01*
X135097240Y-51089353D01*
X134990489Y-51072445D01*
X134990481Y-51072444D01*
X134987241Y-51071931D01*
X134620000Y-51052685D01*
X134252759Y-51071931D01*
X134249519Y-51072444D01*
X134249511Y-51072445D01*
X134142760Y-51089353D01*
X134079358Y-51099395D01*
X134075860Y-51099949D01*
X134056149Y-51101500D01*
X110585170Y-51101500D01*
X110578576Y-51101327D01*
X110493301Y-51096858D01*
X110490000Y-51096685D01*
X110486699Y-51096858D01*
X110450749Y-51098742D01*
X110428458Y-51097933D01*
X110418518Y-51096685D01*
X110359118Y-51089227D01*
X110358146Y-51089137D01*
X110358132Y-51089135D01*
X110345432Y-51087953D01*
X110320405Y-51085624D01*
X110304258Y-51084643D01*
X110265363Y-51083533D01*
X101123367Y-51116381D01*
X101114458Y-51116098D01*
X101035439Y-51110780D01*
X100831981Y-51097088D01*
X100831978Y-51097088D01*
X100828635Y-51096863D01*
X100610082Y-51105450D01*
X100458393Y-51111409D01*
X100458389Y-51111409D01*
X100455038Y-51111541D01*
X100451717Y-51112028D01*
X100451711Y-51112029D01*
X100413339Y-51117661D01*
X100395495Y-51118996D01*
X74989988Y-51210281D01*
X74989985Y-51210281D01*
X74987516Y-51210290D01*
X74948432Y-51213502D01*
X74895437Y-51217858D01*
X74895429Y-51217859D01*
X74892971Y-51218061D01*
X74867986Y-51222104D01*
X74856923Y-51223894D01*
X74856921Y-51223894D01*
X74854118Y-51224348D01*
X74748319Y-51251446D01*
X74607530Y-51323305D01*
X74604135Y-51325642D01*
X74604128Y-51325646D01*
X74552758Y-51361005D01*
X74552755Y-51361008D01*
X74549048Y-51363559D01*
X74422432Y-51480489D01*
X74074240Y-51909006D01*
X73838799Y-52198762D01*
X73765929Y-52288442D01*
X73745443Y-52315136D01*
X73737233Y-52326473D01*
X73736568Y-52327473D01*
X73736551Y-52327497D01*
X73724206Y-52346052D01*
X73710618Y-52366475D01*
X73646671Y-52511029D01*
X73626669Y-52579150D01*
X73626028Y-52583606D01*
X73626027Y-52583612D01*
X73617882Y-52640262D01*
X73602142Y-52749738D01*
X73602142Y-59995005D01*
X73622047Y-60148982D01*
X73623077Y-60152900D01*
X73623078Y-60152904D01*
X73634485Y-60196287D01*
X73638343Y-60210958D01*
X73703986Y-60367272D01*
X73709294Y-60373987D01*
X73709295Y-60373988D01*
X73772953Y-60454513D01*
X73802013Y-60491273D01*
X73852935Y-60540745D01*
X73992379Y-60642023D01*
X73996353Y-60644119D01*
X73996361Y-60644124D01*
X74342432Y-60826655D01*
X74619929Y-60973018D01*
X74623495Y-60974376D01*
X74623498Y-60974378D01*
X74753330Y-61023843D01*
X74753336Y-61023845D01*
X74756906Y-61025205D01*
X74796011Y-61034886D01*
X74811979Y-61038839D01*
X74811982Y-61038840D01*
X74815688Y-61039757D01*
X74819478Y-61040219D01*
X74819477Y-61040219D01*
X74957409Y-61057039D01*
X74957414Y-61057039D01*
X74961192Y-61057500D01*
X101735500Y-61057500D01*
X101803621Y-61077502D01*
X101850114Y-61131158D01*
X101861500Y-61183500D01*
X101861500Y-61914157D01*
X101860763Y-61927764D01*
X101857427Y-61958477D01*
X101856676Y-61965388D01*
X101857213Y-61971523D01*
X101861050Y-62015388D01*
X101861379Y-62020214D01*
X101861500Y-62022686D01*
X101861500Y-62025769D01*
X101861801Y-62028837D01*
X101865690Y-62068506D01*
X101865812Y-62069819D01*
X101868565Y-62101283D01*
X101873913Y-62162413D01*
X101875400Y-62167532D01*
X101875920Y-62172833D01*
X101902791Y-62261834D01*
X101903126Y-62262967D01*
X101907832Y-62279163D01*
X101929091Y-62352336D01*
X101931544Y-62357068D01*
X101933084Y-62362169D01*
X101935978Y-62367612D01*
X101976731Y-62444260D01*
X101977343Y-62445426D01*
X102004190Y-62497218D01*
X102020108Y-62527926D01*
X102023431Y-62532089D01*
X102025934Y-62536796D01*
X102084755Y-62608918D01*
X102085446Y-62609774D01*
X102116738Y-62648973D01*
X102119242Y-62651477D01*
X102119884Y-62652195D01*
X102123585Y-62656528D01*
X102150935Y-62690062D01*
X102155682Y-62693989D01*
X102155684Y-62693991D01*
X102186262Y-62719287D01*
X102195042Y-62727277D01*
X102978352Y-63510586D01*
X103729595Y-64261829D01*
X103763620Y-64324141D01*
X103766500Y-64350924D01*
X103766500Y-71920075D01*
X103746498Y-71988196D01*
X103729595Y-72009170D01*
X101955621Y-73783145D01*
X101945478Y-73792247D01*
X101915975Y-73815968D01*
X101912008Y-73820696D01*
X101883709Y-73854421D01*
X101880528Y-73858069D01*
X101878885Y-73859881D01*
X101876691Y-73862075D01*
X101849361Y-73895346D01*
X101848651Y-73896201D01*
X101806021Y-73947005D01*
X101746911Y-73986331D01*
X101675924Y-73987457D01*
X101615596Y-73950025D01*
X101585083Y-73885921D01*
X101583500Y-73866013D01*
X101583500Y-73331850D01*
X101584237Y-73318242D01*
X101587659Y-73286739D01*
X101588325Y-73280612D01*
X101583947Y-73230570D01*
X101583621Y-73225788D01*
X101583500Y-73223310D01*
X101583500Y-73220231D01*
X101583201Y-73217177D01*
X101583200Y-73217166D01*
X101579313Y-73177529D01*
X101579191Y-73176215D01*
X101574089Y-73117897D01*
X101571087Y-73083587D01*
X101569600Y-73078468D01*
X101569080Y-73073167D01*
X101542209Y-72984166D01*
X101541874Y-72983033D01*
X101517630Y-72899586D01*
X101517628Y-72899582D01*
X101515909Y-72893664D01*
X101513456Y-72888932D01*
X101511916Y-72883831D01*
X101497462Y-72856646D01*
X101468269Y-72801740D01*
X101467657Y-72800574D01*
X101427729Y-72723547D01*
X101424892Y-72718074D01*
X101421569Y-72713911D01*
X101419066Y-72709204D01*
X101398730Y-72684269D01*
X101360261Y-72637102D01*
X101359433Y-72636075D01*
X101330469Y-72599792D01*
X101330464Y-72599787D01*
X101328262Y-72597028D01*
X101325761Y-72594527D01*
X101325119Y-72593809D01*
X101321406Y-72589461D01*
X101313642Y-72579941D01*
X101294065Y-72555938D01*
X101289323Y-72552015D01*
X101289321Y-72552013D01*
X101258727Y-72526703D01*
X101249947Y-72518713D01*
X100171855Y-71440621D01*
X100162753Y-71430478D01*
X100142897Y-71405782D01*
X100139032Y-71400975D01*
X100100578Y-71368708D01*
X100096931Y-71365528D01*
X100095119Y-71363885D01*
X100092925Y-71361691D01*
X100059651Y-71334358D01*
X100058853Y-71333696D01*
X99987526Y-71273846D01*
X99982856Y-71271278D01*
X99978739Y-71267897D01*
X99896914Y-71224023D01*
X99895755Y-71223394D01*
X99819619Y-71181538D01*
X99819611Y-71181535D01*
X99814213Y-71178567D01*
X99809131Y-71176955D01*
X99804437Y-71174438D01*
X99715469Y-71147238D01*
X99714441Y-71146918D01*
X99625694Y-71118765D01*
X99620398Y-71118171D01*
X99615302Y-71116613D01*
X99522743Y-71107210D01*
X99521607Y-71107089D01*
X99487992Y-71103319D01*
X99475270Y-71101892D01*
X99475266Y-71101892D01*
X99471773Y-71101500D01*
X99468246Y-71101500D01*
X99467261Y-71101445D01*
X99461581Y-71100998D01*
X99432175Y-71098011D01*
X99424663Y-71097248D01*
X99424661Y-71097248D01*
X99418538Y-71096626D01*
X99376259Y-71100623D01*
X99372891Y-71100941D01*
X99361033Y-71101500D01*
X98909100Y-71101500D01*
X98842984Y-71082760D01*
X98743968Y-71021725D01*
X98743966Y-71021724D01*
X98737738Y-71017885D01*
X98577254Y-70964655D01*
X98576389Y-70964368D01*
X98576387Y-70964368D01*
X98569861Y-70962203D01*
X98563025Y-70961503D01*
X98563022Y-70961502D01*
X98519969Y-70957091D01*
X98465400Y-70951500D01*
X97114600Y-70951500D01*
X97111354Y-70951837D01*
X97111350Y-70951837D01*
X97015692Y-70961762D01*
X97015688Y-70961763D01*
X97008834Y-70962474D01*
X97002298Y-70964655D01*
X97002296Y-70964655D01*
X96870194Y-71008728D01*
X96841054Y-71018450D01*
X96737318Y-71082644D01*
X96671015Y-71101500D01*
X95099100Y-71101500D01*
X95032984Y-71082760D01*
X94933968Y-71021725D01*
X94933966Y-71021724D01*
X94927738Y-71017885D01*
X94767254Y-70964655D01*
X94766389Y-70964368D01*
X94766387Y-70964368D01*
X94759861Y-70962203D01*
X94753025Y-70961503D01*
X94753022Y-70961502D01*
X94709969Y-70957091D01*
X94655400Y-70951500D01*
X93304600Y-70951500D01*
X93301354Y-70951837D01*
X93301350Y-70951837D01*
X93205692Y-70961762D01*
X93205688Y-70961763D01*
X93198834Y-70962474D01*
X93192298Y-70964655D01*
X93192296Y-70964655D01*
X93060194Y-71008728D01*
X93031054Y-71018450D01*
X92880652Y-71111522D01*
X92875479Y-71116704D01*
X92872601Y-71119587D01*
X92755695Y-71236697D01*
X92751855Y-71242927D01*
X92751854Y-71242928D01*
X92690868Y-71341866D01*
X92662885Y-71387262D01*
X92607203Y-71555139D01*
X92596500Y-71659600D01*
X92596500Y-72560400D01*
X92596837Y-72563646D01*
X92596837Y-72563650D01*
X92604352Y-72636075D01*
X92607474Y-72666166D01*
X92609655Y-72672702D01*
X92609655Y-72672704D01*
X92646830Y-72784131D01*
X92663450Y-72833946D01*
X92756522Y-72984348D01*
X92881697Y-73109305D01*
X92887927Y-73113145D01*
X92887928Y-73113146D01*
X93025090Y-73197694D01*
X93032262Y-73202115D01*
X93103634Y-73225788D01*
X93193611Y-73255632D01*
X93193613Y-73255632D01*
X93200139Y-73257797D01*
X93206975Y-73258497D01*
X93206978Y-73258498D01*
X93250031Y-73262909D01*
X93304600Y-73268500D01*
X94655400Y-73268500D01*
X94658646Y-73268163D01*
X94658650Y-73268163D01*
X94754308Y-73258238D01*
X94754312Y-73258237D01*
X94761166Y-73257526D01*
X94767702Y-73255345D01*
X94767704Y-73255345D01*
X94899806Y-73211272D01*
X94928946Y-73201550D01*
X95032682Y-73137356D01*
X95098985Y-73118500D01*
X96670900Y-73118500D01*
X96737016Y-73137240D01*
X96835090Y-73197694D01*
X96842262Y-73202115D01*
X96913634Y-73225788D01*
X97003611Y-73255632D01*
X97003613Y-73255632D01*
X97010139Y-73257797D01*
X97016975Y-73258497D01*
X97016978Y-73258498D01*
X97060031Y-73262909D01*
X97114600Y-73268500D01*
X98465400Y-73268500D01*
X98468646Y-73268163D01*
X98468650Y-73268163D01*
X98564308Y-73258238D01*
X98564312Y-73258237D01*
X98571166Y-73257526D01*
X98577702Y-73255345D01*
X98577704Y-73255345D01*
X98709806Y-73211272D01*
X98738946Y-73201550D01*
X98842682Y-73137356D01*
X98908985Y-73118500D01*
X98945074Y-73118500D01*
X99013195Y-73138502D01*
X99034169Y-73155404D01*
X99529595Y-73650829D01*
X99563620Y-73713142D01*
X99566500Y-73739925D01*
X99566500Y-74747860D01*
X99556740Y-74791882D01*
X99557885Y-74792262D01*
X99502203Y-74960139D01*
X99491500Y-75064600D01*
X99491500Y-76065400D01*
X99491837Y-76068646D01*
X99491837Y-76068650D01*
X99497864Y-76126732D01*
X99502474Y-76171166D01*
X99504655Y-76177702D01*
X99504655Y-76177704D01*
X99524518Y-76237240D01*
X99558450Y-76338946D01*
X99651522Y-76489348D01*
X99776697Y-76614305D01*
X99782927Y-76618145D01*
X99782928Y-76618146D01*
X99920090Y-76702694D01*
X99927262Y-76707115D01*
X100007005Y-76733564D01*
X100088611Y-76760632D01*
X100088613Y-76760632D01*
X100095139Y-76762797D01*
X100101975Y-76763497D01*
X100101978Y-76763498D01*
X100145031Y-76767909D01*
X100199600Y-76773500D01*
X100950400Y-76773500D01*
X100953646Y-76773163D01*
X100953650Y-76773163D01*
X101049308Y-76763238D01*
X101049312Y-76763237D01*
X101056166Y-76762526D01*
X101062702Y-76760345D01*
X101062704Y-76760345D01*
X101194806Y-76716272D01*
X101223946Y-76706550D01*
X101374348Y-76613478D01*
X101387929Y-76599873D01*
X101401327Y-76586452D01*
X101463610Y-76552373D01*
X101534430Y-76557376D01*
X101591302Y-76599873D01*
X101616171Y-76666372D01*
X101616500Y-76675470D01*
X101616500Y-77584289D01*
X101596498Y-77652410D01*
X101542842Y-77698903D01*
X101472568Y-77709007D01*
X101424692Y-77688442D01*
X101423303Y-77690695D01*
X101278968Y-77601725D01*
X101278966Y-77601724D01*
X101272738Y-77597885D01*
X101184591Y-77568648D01*
X101111389Y-77544368D01*
X101111387Y-77544368D01*
X101104861Y-77542203D01*
X101098025Y-77541503D01*
X101098022Y-77541502D01*
X101054969Y-77537091D01*
X101000400Y-77531500D01*
X100199600Y-77531500D01*
X100196354Y-77531837D01*
X100196350Y-77531837D01*
X100100692Y-77541762D01*
X100100688Y-77541763D01*
X100093834Y-77542474D01*
X100087298Y-77544655D01*
X100087296Y-77544655D01*
X99958671Y-77587568D01*
X99926054Y-77598450D01*
X99775652Y-77691522D01*
X99770479Y-77696704D01*
X99764745Y-77701249D01*
X99763419Y-77699576D01*
X99710375Y-77728598D01*
X99683489Y-77731500D01*
X99121350Y-77731500D01*
X99053229Y-77711498D01*
X99032333Y-77694674D01*
X99010809Y-77673188D01*
X99003303Y-77665695D01*
X98925448Y-77617704D01*
X98858968Y-77576725D01*
X98858966Y-77576724D01*
X98852738Y-77572885D01*
X98758121Y-77541502D01*
X98691389Y-77519368D01*
X98691387Y-77519368D01*
X98684861Y-77517203D01*
X98678025Y-77516503D01*
X98678022Y-77516502D01*
X98634969Y-77512091D01*
X98580400Y-77506500D01*
X97804600Y-77506500D01*
X97801354Y-77506837D01*
X97801350Y-77506837D01*
X97705692Y-77516762D01*
X97705688Y-77516763D01*
X97698834Y-77517474D01*
X97692298Y-77519655D01*
X97692296Y-77519655D01*
X97626034Y-77541762D01*
X97531054Y-77573450D01*
X97380652Y-77666522D01*
X97255695Y-77791697D01*
X97253094Y-77795916D01*
X97195970Y-77836417D01*
X97125047Y-77839649D01*
X97063635Y-77804024D01*
X97057078Y-77796470D01*
X97053478Y-77790652D01*
X96928303Y-77665695D01*
X96850448Y-77617704D01*
X96783968Y-77576725D01*
X96783966Y-77576724D01*
X96777738Y-77572885D01*
X96683121Y-77541502D01*
X96616389Y-77519368D01*
X96616387Y-77519368D01*
X96609861Y-77517203D01*
X96603025Y-77516503D01*
X96603022Y-77516502D01*
X96559969Y-77512091D01*
X96505400Y-77506500D01*
X95729600Y-77506500D01*
X95726354Y-77506837D01*
X95726350Y-77506837D01*
X95630692Y-77516762D01*
X95630688Y-77516763D01*
X95623834Y-77517474D01*
X95617298Y-77519655D01*
X95617296Y-77519655D01*
X95551034Y-77541762D01*
X95456054Y-77573450D01*
X95305652Y-77666522D01*
X95180695Y-77791697D01*
X95176855Y-77797927D01*
X95176854Y-77797928D01*
X95092657Y-77934521D01*
X95087885Y-77942262D01*
X95083747Y-77954737D01*
X95065362Y-78010167D01*
X95024931Y-78068527D01*
X94959367Y-78095764D01*
X94945769Y-78096500D01*
X94516309Y-78096500D01*
X94448188Y-78076498D01*
X94401695Y-78022842D01*
X94391591Y-77952568D01*
X94409049Y-77904384D01*
X94483275Y-77783968D01*
X94483276Y-77783966D01*
X94487115Y-77777738D01*
X94516989Y-77687669D01*
X94540632Y-77616389D01*
X94540632Y-77616387D01*
X94542797Y-77609861D01*
X94553500Y-77505400D01*
X94553500Y-76704600D01*
X94544530Y-76618146D01*
X94543238Y-76605692D01*
X94543237Y-76605688D01*
X94542526Y-76598834D01*
X94528695Y-76557376D01*
X94521021Y-76534376D01*
X94518437Y-76463427D01*
X94554620Y-76402343D01*
X94618084Y-76370518D01*
X94640545Y-76368500D01*
X94655400Y-76368500D01*
X94658646Y-76368163D01*
X94658650Y-76368163D01*
X94754308Y-76358238D01*
X94754312Y-76358237D01*
X94761166Y-76357526D01*
X94767702Y-76355345D01*
X94767704Y-76355345D01*
X94899806Y-76311272D01*
X94928946Y-76301550D01*
X95032682Y-76237356D01*
X95098985Y-76218500D01*
X96670900Y-76218500D01*
X96737016Y-76237240D01*
X96835090Y-76297694D01*
X96842262Y-76302115D01*
X96901367Y-76321719D01*
X97003611Y-76355632D01*
X97003613Y-76355632D01*
X97010139Y-76357797D01*
X97016975Y-76358497D01*
X97016978Y-76358498D01*
X97060031Y-76362909D01*
X97114600Y-76368500D01*
X98465400Y-76368500D01*
X98468646Y-76368163D01*
X98468650Y-76368163D01*
X98564308Y-76358238D01*
X98564312Y-76358237D01*
X98571166Y-76357526D01*
X98577702Y-76355345D01*
X98577704Y-76355345D01*
X98709806Y-76311272D01*
X98738946Y-76301550D01*
X98889348Y-76208478D01*
X99014305Y-76083303D01*
X99107115Y-75932738D01*
X99162797Y-75764861D01*
X99173500Y-75660400D01*
X99173500Y-74759600D01*
X99162526Y-74653834D01*
X99123368Y-74536462D01*
X99108868Y-74493002D01*
X99106550Y-74486054D01*
X99013478Y-74335652D01*
X98888303Y-74210695D01*
X98873386Y-74201500D01*
X98743968Y-74121725D01*
X98743966Y-74121724D01*
X98737738Y-74117885D01*
X98577254Y-74064655D01*
X98576389Y-74064368D01*
X98576387Y-74064368D01*
X98569861Y-74062203D01*
X98563025Y-74061503D01*
X98563022Y-74061502D01*
X98519568Y-74057050D01*
X98465400Y-74051500D01*
X97114600Y-74051500D01*
X97111354Y-74051837D01*
X97111350Y-74051837D01*
X97015692Y-74061762D01*
X97015688Y-74061763D01*
X97008834Y-74062474D01*
X97002298Y-74064655D01*
X97002296Y-74064655D01*
X96870194Y-74108728D01*
X96841054Y-74118450D01*
X96737318Y-74182644D01*
X96671015Y-74201500D01*
X95099100Y-74201500D01*
X95032984Y-74182760D01*
X94933968Y-74121725D01*
X94933966Y-74121724D01*
X94927738Y-74117885D01*
X94767254Y-74064655D01*
X94766389Y-74064368D01*
X94766387Y-74064368D01*
X94759861Y-74062203D01*
X94753025Y-74061503D01*
X94753022Y-74061502D01*
X94709568Y-74057050D01*
X94655400Y-74051500D01*
X93304600Y-74051500D01*
X93301354Y-74051837D01*
X93301350Y-74051837D01*
X93205692Y-74061762D01*
X93205688Y-74061763D01*
X93198834Y-74062474D01*
X93192298Y-74064655D01*
X93192296Y-74064655D01*
X93037998Y-74116133D01*
X93037996Y-74116134D01*
X93031054Y-74118450D01*
X93028406Y-74120089D01*
X92977144Y-74131500D01*
X84852536Y-74131500D01*
X84784415Y-74111498D01*
X84737564Y-74057050D01*
X84701340Y-73976261D01*
X84649061Y-73859662D01*
X84560848Y-73713142D01*
X84479466Y-73577966D01*
X84479462Y-73577960D01*
X84477507Y-73574713D01*
X84475180Y-73571729D01*
X84475175Y-73571722D01*
X84275294Y-73315425D01*
X84275288Y-73315418D01*
X84272963Y-73312437D01*
X84038392Y-73076634D01*
X83777191Y-72870720D01*
X83493144Y-72697677D01*
X83357658Y-72636075D01*
X83193817Y-72561580D01*
X83193809Y-72561577D01*
X83190365Y-72560011D01*
X82873240Y-72459718D01*
X82650896Y-72417906D01*
X82550087Y-72398949D01*
X82550085Y-72398949D01*
X82546364Y-72398249D01*
X82214470Y-72376496D01*
X82210690Y-72376704D01*
X82210689Y-72376704D01*
X82112918Y-72382085D01*
X81882366Y-72394773D01*
X81878639Y-72395434D01*
X81878635Y-72395434D01*
X81646622Y-72436553D01*
X81554864Y-72452815D01*
X81551239Y-72453920D01*
X81551234Y-72453921D01*
X81343683Y-72517178D01*
X81236707Y-72549782D01*
X81233243Y-72551313D01*
X81233236Y-72551316D01*
X81046051Y-72634070D01*
X80932503Y-72684269D01*
X80929249Y-72686205D01*
X80929243Y-72686208D01*
X80670446Y-72840176D01*
X80646659Y-72854328D01*
X80643658Y-72856643D01*
X80643654Y-72856646D01*
X80595672Y-72893664D01*
X80383316Y-73057496D01*
X80367397Y-73073167D01*
X80168971Y-73268500D01*
X80146288Y-73290829D01*
X79939009Y-73550949D01*
X79764481Y-73834086D01*
X79625232Y-74136140D01*
X79624073Y-74139740D01*
X79624070Y-74139747D01*
X79561322Y-74334602D01*
X79523280Y-74452735D01*
X79522561Y-74456451D01*
X79522559Y-74456459D01*
X79462993Y-74764330D01*
X79460100Y-74779285D01*
X79459833Y-74783061D01*
X79459832Y-74783066D01*
X79439668Y-75067866D01*
X79436610Y-75111061D01*
X79436799Y-75114853D01*
X79448060Y-75341060D01*
X79453147Y-75443255D01*
X79453788Y-75446986D01*
X79453789Y-75446994D01*
X79496634Y-75696332D01*
X79509474Y-75771057D01*
X79510562Y-75774696D01*
X79510563Y-75774699D01*
X79602856Y-76083303D01*
X79604774Y-76089718D01*
X79606287Y-76093189D01*
X79606289Y-76093195D01*
X79684391Y-76272390D01*
X79737666Y-76394622D01*
X79906226Y-76681352D01*
X79908527Y-76684367D01*
X80105712Y-76942742D01*
X80105717Y-76942748D01*
X80108012Y-76945755D01*
X80340102Y-77184002D01*
X80599132Y-77392640D01*
X80769016Y-77498589D01*
X80816231Y-77551608D01*
X80827287Y-77621738D01*
X80798673Y-77686713D01*
X80739473Y-77725903D01*
X80702338Y-77731500D01*
X73721840Y-77731500D01*
X73708232Y-77730763D01*
X73676736Y-77727341D01*
X73676732Y-77727341D01*
X73670611Y-77726676D01*
X73652611Y-77728251D01*
X73620609Y-77731050D01*
X73615784Y-77731379D01*
X73613313Y-77731500D01*
X73610231Y-77731500D01*
X73587763Y-77733703D01*
X73567489Y-77735691D01*
X73566174Y-77735813D01*
X73533913Y-77738636D01*
X73473587Y-77743913D01*
X73468468Y-77745400D01*
X73463167Y-77745920D01*
X73374133Y-77772801D01*
X73373000Y-77773136D01*
X73289578Y-77797373D01*
X73289574Y-77797375D01*
X73283663Y-77799092D01*
X73278934Y-77801543D01*
X73273831Y-77803084D01*
X73191669Y-77846770D01*
X73190627Y-77847317D01*
X73177690Y-77854023D01*
X73108074Y-77890108D01*
X73103911Y-77893431D01*
X73099204Y-77895934D01*
X73094430Y-77899828D01*
X73094428Y-77899829D01*
X73027105Y-77954737D01*
X73026160Y-77955500D01*
X72987027Y-77986739D01*
X72984536Y-77989230D01*
X72983809Y-77989880D01*
X72979463Y-77993592D01*
X72960588Y-78008987D01*
X72945938Y-78020935D01*
X72942015Y-78025677D01*
X72942013Y-78025679D01*
X72916703Y-78056273D01*
X72908713Y-78065053D01*
X72343595Y-78630171D01*
X72281283Y-78664197D01*
X72210468Y-78659132D01*
X72153632Y-78616585D01*
X72128821Y-78550065D01*
X72128500Y-78541076D01*
X72128500Y-72638134D01*
X74791500Y-72638134D01*
X74798255Y-72700316D01*
X74849385Y-72836705D01*
X74936739Y-72953261D01*
X75053295Y-73040615D01*
X75189684Y-73091745D01*
X75251866Y-73098500D01*
X77148134Y-73098500D01*
X77210316Y-73091745D01*
X77346705Y-73040615D01*
X77463261Y-72953261D01*
X77550615Y-72836705D01*
X77601745Y-72700316D01*
X77608500Y-72638134D01*
X77608500Y-72133134D01*
X87426500Y-72133134D01*
X87433255Y-72195316D01*
X87484385Y-72331705D01*
X87571739Y-72448261D01*
X87688295Y-72535615D01*
X87824684Y-72586745D01*
X87886866Y-72593500D01*
X91183134Y-72593500D01*
X91245316Y-72586745D01*
X91381705Y-72535615D01*
X91498261Y-72448261D01*
X91585615Y-72331705D01*
X91636745Y-72195316D01*
X91643500Y-72133134D01*
X91643500Y-68836866D01*
X91636745Y-68774684D01*
X91585615Y-68638295D01*
X91498261Y-68521739D01*
X91381705Y-68434385D01*
X91245316Y-68383255D01*
X91183134Y-68376500D01*
X87886866Y-68376500D01*
X87824684Y-68383255D01*
X87688295Y-68434385D01*
X87571739Y-68521739D01*
X87484385Y-68638295D01*
X87433255Y-68774684D01*
X87426500Y-68836866D01*
X87426500Y-72133134D01*
X77608500Y-72133134D01*
X77608500Y-71341866D01*
X77601745Y-71279684D01*
X77550615Y-71143295D01*
X77463261Y-71026739D01*
X77346705Y-70939385D01*
X77210316Y-70888255D01*
X77148134Y-70881500D01*
X75251866Y-70881500D01*
X75189684Y-70888255D01*
X75053295Y-70939385D01*
X74936739Y-71026739D01*
X74849385Y-71143295D01*
X74798255Y-71279684D01*
X74791500Y-71341866D01*
X74791500Y-72638134D01*
X72128500Y-72638134D01*
X72128500Y-70319926D01*
X72148502Y-70251805D01*
X72165404Y-70230831D01*
X72770829Y-69625405D01*
X72833142Y-69591380D01*
X72859925Y-69588500D01*
X74428737Y-69588500D01*
X74442344Y-69589237D01*
X74473842Y-69592659D01*
X74473847Y-69592659D01*
X74479968Y-69593324D01*
X74506218Y-69591027D01*
X74529968Y-69588950D01*
X74534794Y-69588621D01*
X74537266Y-69588500D01*
X74540349Y-69588500D01*
X74552318Y-69587326D01*
X74583086Y-69584310D01*
X74584399Y-69584188D01*
X74628664Y-69580315D01*
X74676993Y-69576087D01*
X74682112Y-69574600D01*
X74687413Y-69574080D01*
X74776414Y-69547209D01*
X74777547Y-69546874D01*
X74860994Y-69522630D01*
X74860998Y-69522628D01*
X74866916Y-69520909D01*
X74871648Y-69518456D01*
X74876749Y-69516916D01*
X74882192Y-69514022D01*
X74958840Y-69473269D01*
X74960006Y-69472657D01*
X75037033Y-69432729D01*
X75042506Y-69429892D01*
X75046669Y-69426569D01*
X75051376Y-69424066D01*
X75123498Y-69365245D01*
X75124354Y-69364554D01*
X75163553Y-69333262D01*
X75166057Y-69330758D01*
X75166775Y-69330116D01*
X75171108Y-69326415D01*
X75204642Y-69299065D01*
X75233871Y-69263733D01*
X75241852Y-69254963D01*
X75498504Y-68998310D01*
X75560817Y-68964285D01*
X75624785Y-68968914D01*
X75625020Y-68967924D01*
X75631108Y-68969372D01*
X75631832Y-68969424D01*
X75640104Y-68972525D01*
X75702286Y-68979280D01*
X76697714Y-68979280D01*
X76759896Y-68972525D01*
X76896285Y-68921395D01*
X77012841Y-68834041D01*
X77100195Y-68717485D01*
X77151325Y-68581096D01*
X77158080Y-68518914D01*
X77158080Y-67205195D01*
X77163586Y-67168356D01*
X77191584Y-67076780D01*
X77191584Y-67076778D01*
X77193387Y-67070882D01*
X77210378Y-66903613D01*
X77212752Y-66880246D01*
X77212752Y-66880241D01*
X77213374Y-66874118D01*
X77194761Y-66677218D01*
X77163331Y-66571787D01*
X77158080Y-66535791D01*
X77158080Y-65222246D01*
X77151325Y-65160064D01*
X77100195Y-65023675D01*
X77012841Y-64907119D01*
X76896285Y-64819765D01*
X76759896Y-64768635D01*
X76697714Y-64761880D01*
X75702286Y-64761880D01*
X75640104Y-64768635D01*
X75503715Y-64819765D01*
X75387159Y-64907119D01*
X75299805Y-65023675D01*
X75248675Y-65160064D01*
X75241920Y-65222246D01*
X75241920Y-66350235D01*
X75221918Y-66418356D01*
X75205015Y-66439330D01*
X74109751Y-67534595D01*
X74047439Y-67568620D01*
X74020656Y-67571500D01*
X72451842Y-67571500D01*
X72438235Y-67570763D01*
X72406737Y-67567341D01*
X72406732Y-67567341D01*
X72400611Y-67566676D01*
X72382611Y-67568251D01*
X72350609Y-67571050D01*
X72345784Y-67571379D01*
X72343313Y-67571500D01*
X72340231Y-67571500D01*
X72317763Y-67573703D01*
X72297489Y-67575691D01*
X72296173Y-67575813D01*
X72265480Y-67578498D01*
X72195876Y-67564508D01*
X72144884Y-67515108D01*
X72128500Y-67452977D01*
X72128500Y-67144925D01*
X72148502Y-67076804D01*
X72165405Y-67055830D01*
X74675829Y-64545405D01*
X74738141Y-64511380D01*
X74764924Y-64508500D01*
X93510074Y-64508500D01*
X93578195Y-64528502D01*
X93599169Y-64545404D01*
X94204595Y-65150829D01*
X94238620Y-65213142D01*
X94241500Y-65239925D01*
X94241500Y-66981309D01*
X94241800Y-66984365D01*
X94241800Y-66984372D01*
X94242530Y-66991813D01*
X94255920Y-67128373D01*
X94257702Y-67134274D01*
X94257702Y-67134276D01*
X94286542Y-67229798D01*
X94291920Y-67266216D01*
X94291920Y-68579874D01*
X94298675Y-68642056D01*
X94349805Y-68778445D01*
X94437159Y-68895001D01*
X94553715Y-68982355D01*
X94690104Y-69033485D01*
X94752286Y-69040240D01*
X95747714Y-69040240D01*
X95809896Y-69033485D01*
X95946285Y-68982355D01*
X96062841Y-68895001D01*
X96150195Y-68778445D01*
X96201325Y-68642056D01*
X96208080Y-68579874D01*
X96208080Y-67266257D01*
X96213978Y-67228158D01*
X96231400Y-67173238D01*
X96241235Y-67142234D01*
X96258500Y-66988313D01*
X96258500Y-64831842D01*
X96259237Y-64818235D01*
X96262659Y-64786737D01*
X96262659Y-64786732D01*
X96263324Y-64780611D01*
X96260045Y-64743129D01*
X96258950Y-64730609D01*
X96258621Y-64725784D01*
X96258500Y-64723313D01*
X96258500Y-64720231D01*
X96254309Y-64677489D01*
X96254187Y-64676174D01*
X96247513Y-64599891D01*
X96246087Y-64583587D01*
X96244600Y-64578468D01*
X96244080Y-64573167D01*
X96217218Y-64484194D01*
X96216862Y-64482994D01*
X96211261Y-64463715D01*
X96190909Y-64393663D01*
X96188455Y-64388929D01*
X96186916Y-64383831D01*
X96143316Y-64301831D01*
X96142702Y-64300663D01*
X96102726Y-64223541D01*
X96102725Y-64223540D01*
X96099892Y-64218074D01*
X96096569Y-64213911D01*
X96094066Y-64209204D01*
X96035245Y-64137082D01*
X96034554Y-64136226D01*
X96003262Y-64097027D01*
X96000758Y-64094523D01*
X96000116Y-64093805D01*
X95996415Y-64089472D01*
X95969065Y-64055938D01*
X95933737Y-64026712D01*
X95924958Y-64018723D01*
X94736855Y-62830621D01*
X94727753Y-62820478D01*
X94707897Y-62795782D01*
X94704032Y-62790975D01*
X94665578Y-62758708D01*
X94661931Y-62755528D01*
X94660119Y-62753885D01*
X94657925Y-62751691D01*
X94624651Y-62724358D01*
X94623853Y-62723696D01*
X94552526Y-62663846D01*
X94547856Y-62661278D01*
X94543739Y-62657897D01*
X94461914Y-62614023D01*
X94460755Y-62613394D01*
X94384619Y-62571538D01*
X94384611Y-62571535D01*
X94379213Y-62568567D01*
X94374131Y-62566955D01*
X94369437Y-62564438D01*
X94280469Y-62537238D01*
X94279441Y-62536918D01*
X94190694Y-62508765D01*
X94185398Y-62508171D01*
X94180302Y-62506613D01*
X94087743Y-62497210D01*
X94086607Y-62497089D01*
X94052992Y-62493319D01*
X94040270Y-62491892D01*
X94040266Y-62491892D01*
X94036773Y-62491500D01*
X94033246Y-62491500D01*
X94032261Y-62491445D01*
X94026581Y-62490998D01*
X93997175Y-62488011D01*
X93989663Y-62487248D01*
X93989661Y-62487248D01*
X93983538Y-62486626D01*
X93941259Y-62490623D01*
X93937891Y-62490941D01*
X93926033Y-62491500D01*
X74356843Y-62491500D01*
X74343236Y-62490763D01*
X74311738Y-62487341D01*
X74311733Y-62487341D01*
X74305612Y-62486676D01*
X74279362Y-62488973D01*
X74255612Y-62491050D01*
X74250786Y-62491379D01*
X74248314Y-62491500D01*
X74245231Y-62491500D01*
X74233262Y-62492674D01*
X74202494Y-62495690D01*
X74201181Y-62495812D01*
X74156916Y-62499685D01*
X74108587Y-62503913D01*
X74103468Y-62505400D01*
X74098167Y-62505920D01*
X74009166Y-62532791D01*
X74008033Y-62533126D01*
X73924586Y-62557370D01*
X73924582Y-62557372D01*
X73918664Y-62559091D01*
X73913932Y-62561544D01*
X73908831Y-62563084D01*
X73903388Y-62565978D01*
X73826740Y-62606731D01*
X73825574Y-62607343D01*
X73750582Y-62646216D01*
X73743074Y-62650108D01*
X73738911Y-62653431D01*
X73734204Y-62655934D01*
X73662082Y-62714755D01*
X73661226Y-62715446D01*
X73622027Y-62746738D01*
X73619523Y-62749242D01*
X73618805Y-62749884D01*
X73614472Y-62753585D01*
X73580938Y-62780935D01*
X73577011Y-62785682D01*
X73577009Y-62785684D01*
X73551713Y-62816262D01*
X73543723Y-62825042D01*
X70450621Y-65918145D01*
X70440478Y-65927247D01*
X70410975Y-65950968D01*
X70407008Y-65955696D01*
X70378709Y-65989421D01*
X70375528Y-65993069D01*
X70373885Y-65994881D01*
X70371691Y-65997075D01*
X70344358Y-66030349D01*
X70343696Y-66031147D01*
X70283846Y-66102474D01*
X70281278Y-66107144D01*
X70277897Y-66111261D01*
X70246860Y-66169145D01*
X70234023Y-66193086D01*
X70233394Y-66194245D01*
X70191538Y-66270381D01*
X70191535Y-66270389D01*
X70188567Y-66275787D01*
X70186955Y-66280869D01*
X70184438Y-66285563D01*
X70157238Y-66374531D01*
X70156918Y-66375559D01*
X70128765Y-66464306D01*
X70128171Y-66469602D01*
X70126613Y-66474698D01*
X70125990Y-66480834D01*
X70117218Y-66567187D01*
X70117089Y-66568393D01*
X70111500Y-66618227D01*
X70111500Y-66621754D01*
X70111445Y-66622739D01*
X70110998Y-66628419D01*
X70106626Y-66671462D01*
X70109774Y-66704767D01*
X70110941Y-66717109D01*
X70111500Y-66728967D01*
X70111500Y-69792096D01*
X70110855Y-69804829D01*
X70106626Y-69846462D01*
X70107206Y-69852593D01*
X70110941Y-69892109D01*
X70111500Y-69903967D01*
X70111500Y-81222096D01*
X70110855Y-81234829D01*
X70107862Y-81264296D01*
X70106626Y-81276462D01*
X70107206Y-81282593D01*
X70110941Y-81322109D01*
X70111500Y-81333967D01*
X70111500Y-82715076D01*
X70091498Y-82783197D01*
X70074595Y-82804171D01*
X66640621Y-86238145D01*
X66630478Y-86247247D01*
X66600975Y-86270968D01*
X66597008Y-86275696D01*
X66568709Y-86309421D01*
X66565528Y-86313069D01*
X66563885Y-86314881D01*
X66561691Y-86317075D01*
X66534358Y-86350349D01*
X66533696Y-86351147D01*
X66473846Y-86422474D01*
X66471278Y-86427144D01*
X66467897Y-86431261D01*
X66459951Y-86446081D01*
X66424023Y-86513086D01*
X66423394Y-86514245D01*
X66381538Y-86590381D01*
X66381535Y-86590389D01*
X66378567Y-86595787D01*
X66376955Y-86600869D01*
X66374438Y-86605563D01*
X66347238Y-86694531D01*
X66346918Y-86695559D01*
X66318765Y-86784306D01*
X66318171Y-86789602D01*
X66316613Y-86794698D01*
X66315990Y-86800834D01*
X66307218Y-86887187D01*
X66307089Y-86888393D01*
X66301500Y-86938227D01*
X66301500Y-86941754D01*
X66301445Y-86942739D01*
X66300998Y-86948419D01*
X66296626Y-86991462D01*
X65913500Y-86991462D01*
X65913500Y-53963296D01*
X65933502Y-53895175D01*
X65987158Y-53848682D01*
X66057432Y-53838578D01*
X66122012Y-53868072D01*
X66134445Y-53880462D01*
X66172866Y-53924505D01*
X66264477Y-54007864D01*
X66385268Y-54117775D01*
X66429481Y-54158006D01*
X66711233Y-54360466D01*
X67014388Y-54529200D01*
X67334928Y-54661972D01*
X67338422Y-54662967D01*
X67338424Y-54662968D01*
X67665103Y-54756025D01*
X67665108Y-54756026D01*
X67668604Y-54757022D01*
X67855224Y-54787582D01*
X68007412Y-54812504D01*
X68007419Y-54812505D01*
X68010993Y-54813090D01*
X68184276Y-54821262D01*
X68353931Y-54829263D01*
X68353932Y-54829263D01*
X68357558Y-54829434D01*
X68366415Y-54828830D01*
X68700073Y-54806084D01*
X68700081Y-54806083D01*
X68703704Y-54805836D01*
X68707279Y-54805173D01*
X68707282Y-54805173D01*
X69041279Y-54743270D01*
X69041283Y-54743269D01*
X69044844Y-54742609D01*
X69376456Y-54640592D01*
X69694145Y-54501136D01*
X69773225Y-54454926D01*
X69990560Y-54327926D01*
X69990562Y-54327925D01*
X69993700Y-54326091D01*
X70051674Y-54282563D01*
X70268244Y-54119958D01*
X70268248Y-54119955D01*
X70271151Y-54117775D01*
X70522819Y-53878950D01*
X70745370Y-53612783D01*
X70766001Y-53581376D01*
X70933865Y-53325825D01*
X70935853Y-53322799D01*
X71013798Y-53167822D01*
X71090117Y-53016080D01*
X71090120Y-53016072D01*
X71091744Y-53012844D01*
X71210977Y-52687026D01*
X71211822Y-52683504D01*
X71211825Y-52683496D01*
X71291124Y-52353191D01*
X71291125Y-52353187D01*
X71291971Y-52349662D01*
X71299295Y-52289143D01*
X71333316Y-52008004D01*
X71333316Y-52007997D01*
X71333652Y-52005225D01*
X71339599Y-51816000D01*
X71331962Y-51683548D01*
X71319836Y-51473246D01*
X71319835Y-51473241D01*
X71319627Y-51469626D01*
X71296602Y-51337698D01*
X71260600Y-51131415D01*
X71260598Y-51131408D01*
X71259976Y-51127842D01*
X71257403Y-51119154D01*
X71172823Y-50833620D01*
X71161437Y-50795180D01*
X71025316Y-50476048D01*
X70853417Y-50174676D01*
X70648018Y-49895060D01*
X70411842Y-49640904D01*
X70393583Y-49625309D01*
X70354775Y-49565860D01*
X70354269Y-49494866D01*
X70392225Y-49434867D01*
X70456594Y-49404914D01*
X70475415Y-49403500D01*
X245268125Y-49403500D01*
X245336246Y-49423502D01*
G37*
G04 #@! TD.AperFunction*
G04 #@! TA.AperFunction,Conductor*
G36*
X101643886Y-79672815D02*
G01*
X101688976Y-79701736D01*
X101776697Y-79789305D01*
X101782927Y-79793145D01*
X101782928Y-79793146D01*
X101920090Y-79877694D01*
X101927262Y-79882115D01*
X101989306Y-79902694D01*
X102088611Y-79935632D01*
X102088613Y-79935632D01*
X102095139Y-79937797D01*
X102101975Y-79938497D01*
X102101978Y-79938498D01*
X102145031Y-79942909D01*
X102199600Y-79948500D01*
X102330075Y-79948500D01*
X102398196Y-79968502D01*
X102419170Y-79985405D01*
X104364595Y-81930829D01*
X104398620Y-81993141D01*
X104401500Y-82019924D01*
X104401500Y-89727040D01*
X104381498Y-89795161D01*
X104327842Y-89841654D01*
X104257568Y-89851758D01*
X104214990Y-89837559D01*
X104208467Y-89833987D01*
X104201285Y-89828605D01*
X104192884Y-89825456D01*
X104192883Y-89825455D01*
X104112073Y-89795161D01*
X104064896Y-89777475D01*
X104002714Y-89770720D01*
X103007286Y-89770720D01*
X102945104Y-89777475D01*
X102808715Y-89828605D01*
X102692159Y-89915959D01*
X102604805Y-90032515D01*
X102553675Y-90168904D01*
X102546920Y-90231086D01*
X102546920Y-91544703D01*
X102541022Y-91582801D01*
X102513765Y-91668726D01*
X102496500Y-91822647D01*
X102496500Y-94145074D01*
X102476498Y-94213195D01*
X102459596Y-94234169D01*
X101854171Y-94839595D01*
X101791858Y-94873620D01*
X101765075Y-94876500D01*
X86851618Y-94876500D01*
X86783497Y-94856498D01*
X86737004Y-94802842D01*
X86726263Y-94737767D01*
X86727782Y-94722813D01*
X86727911Y-94721607D01*
X86733500Y-94671773D01*
X86733500Y-94668246D01*
X86733555Y-94667261D01*
X86734002Y-94661581D01*
X86738374Y-94618538D01*
X86734059Y-94572891D01*
X86733500Y-94561033D01*
X86733500Y-91768691D01*
X86732814Y-91761687D01*
X86723698Y-91668726D01*
X86719080Y-91621627D01*
X86705535Y-91576762D01*
X86688458Y-91520202D01*
X86683080Y-91483784D01*
X86683080Y-90548134D01*
X88696500Y-90548134D01*
X88703255Y-90610316D01*
X88754385Y-90746705D01*
X88841739Y-90863261D01*
X88958295Y-90950615D01*
X89094684Y-91001745D01*
X89156866Y-91008500D01*
X92453134Y-91008500D01*
X92515316Y-91001745D01*
X92651705Y-90950615D01*
X92768261Y-90863261D01*
X92855615Y-90746705D01*
X92906745Y-90610316D01*
X92913500Y-90548134D01*
X92913500Y-87251866D01*
X92906745Y-87189684D01*
X92855615Y-87053295D01*
X92768261Y-86936739D01*
X92651705Y-86849385D01*
X92515316Y-86798255D01*
X92453134Y-86791500D01*
X89156866Y-86791500D01*
X89094684Y-86798255D01*
X88958295Y-86849385D01*
X88841739Y-86936739D01*
X88754385Y-87053295D01*
X88703255Y-87189684D01*
X88696500Y-87251866D01*
X88696500Y-90548134D01*
X86683080Y-90548134D01*
X86683080Y-90170126D01*
X86676325Y-90107944D01*
X86625195Y-89971555D01*
X86537841Y-89854999D01*
X86421285Y-89767645D01*
X86284896Y-89716515D01*
X86222714Y-89709760D01*
X85227286Y-89709760D01*
X85165104Y-89716515D01*
X85028715Y-89767645D01*
X84912159Y-89854999D01*
X84824805Y-89971555D01*
X84773675Y-90107944D01*
X84766920Y-90170126D01*
X84766920Y-91483743D01*
X84761022Y-91521841D01*
X84733765Y-91607766D01*
X84716500Y-91761687D01*
X84716500Y-94145074D01*
X84696498Y-94213195D01*
X84679596Y-94234169D01*
X83782830Y-95130936D01*
X83773370Y-95139484D01*
X83740938Y-95165935D01*
X83737015Y-95170677D01*
X83737013Y-95170679D01*
X83711703Y-95201273D01*
X83703713Y-95210053D01*
X83444171Y-95469595D01*
X83381859Y-95503621D01*
X83355076Y-95506500D01*
X72384076Y-95506500D01*
X72315955Y-95486498D01*
X72285126Y-95458506D01*
X72216816Y-95371855D01*
X72152105Y-95289769D01*
X71956317Y-95105591D01*
X71735457Y-94952374D01*
X71711667Y-94940642D01*
X71498564Y-94835551D01*
X71498561Y-94835550D01*
X71494376Y-94833486D01*
X71470650Y-94825891D01*
X71392621Y-94800914D01*
X71238370Y-94751538D01*
X71233763Y-94750788D01*
X71233760Y-94750787D01*
X70977674Y-94709081D01*
X70977675Y-94709081D01*
X70973063Y-94708330D01*
X70842719Y-94706624D01*
X70708961Y-94704873D01*
X70708958Y-94704873D01*
X70704284Y-94704812D01*
X70525684Y-94729118D01*
X70455488Y-94718485D01*
X70419598Y-94693364D01*
X68355405Y-92629171D01*
X68321379Y-92566859D01*
X68318500Y-92540076D01*
X68318500Y-87464925D01*
X68338502Y-87396804D01*
X68355405Y-87375830D01*
X69593101Y-86138134D01*
X74791500Y-86138134D01*
X74798255Y-86200316D01*
X74849385Y-86336705D01*
X74936739Y-86453261D01*
X75053295Y-86540615D01*
X75189684Y-86591745D01*
X75251866Y-86598500D01*
X77148134Y-86598500D01*
X77210316Y-86591745D01*
X77346705Y-86540615D01*
X77463261Y-86453261D01*
X77550615Y-86336705D01*
X77601745Y-86200316D01*
X77608500Y-86138134D01*
X77608500Y-84841866D01*
X77601745Y-84779684D01*
X77550615Y-84643295D01*
X77463261Y-84526739D01*
X77346705Y-84439385D01*
X77210316Y-84388255D01*
X77148134Y-84381500D01*
X75251866Y-84381500D01*
X75189684Y-84388255D01*
X75053295Y-84439385D01*
X74936739Y-84526739D01*
X74849385Y-84643295D01*
X74798255Y-84779684D01*
X74791500Y-84841866D01*
X74791500Y-86138134D01*
X69593101Y-86138134D01*
X71789379Y-83941855D01*
X71799522Y-83932753D01*
X71824218Y-83912897D01*
X71829025Y-83909032D01*
X71861292Y-83870578D01*
X71864472Y-83866931D01*
X71866115Y-83865119D01*
X71868309Y-83862925D01*
X71895642Y-83829651D01*
X71896348Y-83828800D01*
X71952195Y-83762244D01*
X71956154Y-83757526D01*
X71958722Y-83752856D01*
X71962103Y-83748739D01*
X72006015Y-83666842D01*
X72006624Y-83665720D01*
X72048466Y-83589611D01*
X72048468Y-83589606D01*
X72051433Y-83584213D01*
X72053044Y-83579135D01*
X72055563Y-83574437D01*
X72082753Y-83485502D01*
X72083136Y-83484272D01*
X72109371Y-83401570D01*
X72111235Y-83395694D01*
X72111828Y-83390403D01*
X72113388Y-83385302D01*
X72122795Y-83292689D01*
X72122915Y-83291569D01*
X72128500Y-83241773D01*
X72128500Y-83238244D01*
X72128555Y-83237261D01*
X72129004Y-83231556D01*
X72132752Y-83194664D01*
X72132752Y-83194661D01*
X72133374Y-83188537D01*
X72129059Y-83142888D01*
X72128500Y-83131031D01*
X72128500Y-81749925D01*
X72148502Y-81681804D01*
X72165405Y-81660830D01*
X74040830Y-79785405D01*
X74103142Y-79751379D01*
X74129925Y-79748500D01*
X90065075Y-79748500D01*
X90133196Y-79768502D01*
X90154170Y-79785405D01*
X92099595Y-81730829D01*
X92133620Y-81793141D01*
X92136500Y-81819924D01*
X92136500Y-81950400D01*
X92136837Y-81953646D01*
X92136837Y-81953650D01*
X92143714Y-82019924D01*
X92147474Y-82056166D01*
X92203450Y-82223946D01*
X92296522Y-82374348D01*
X92421697Y-82499305D01*
X92427927Y-82503145D01*
X92427928Y-82503146D01*
X92565090Y-82587694D01*
X92572262Y-82592115D01*
X92652005Y-82618564D01*
X92733611Y-82645632D01*
X92733613Y-82645632D01*
X92740139Y-82647797D01*
X92746975Y-82648497D01*
X92746978Y-82648498D01*
X92790031Y-82652909D01*
X92844600Y-82658500D01*
X93845400Y-82658500D01*
X93848646Y-82658163D01*
X93848650Y-82658163D01*
X93944308Y-82648238D01*
X93944312Y-82648237D01*
X93951166Y-82647526D01*
X93957702Y-82645345D01*
X93957704Y-82645345D01*
X94089806Y-82601272D01*
X94118946Y-82591550D01*
X94269348Y-82498478D01*
X94394305Y-82373303D01*
X94487115Y-82222738D01*
X94488795Y-82223774D01*
X94529121Y-82177969D01*
X94596405Y-82158500D01*
X95721487Y-82158500D01*
X95765716Y-82166518D01*
X95852289Y-82198973D01*
X95852291Y-82198973D01*
X95859684Y-82201745D01*
X95867532Y-82202598D01*
X95867534Y-82202598D01*
X95918469Y-82208131D01*
X95921866Y-82208500D01*
X97118134Y-82208500D01*
X97180316Y-82201745D01*
X97316705Y-82150615D01*
X97433261Y-82063261D01*
X97520615Y-81946705D01*
X97571745Y-81810316D01*
X97578500Y-81748134D01*
X97578500Y-80551866D01*
X97571745Y-80489684D01*
X97520615Y-80353295D01*
X97433261Y-80236739D01*
X97316705Y-80149385D01*
X97207770Y-80108547D01*
X97151006Y-80065905D01*
X97126306Y-79999344D01*
X97126000Y-79990565D01*
X97126000Y-79862870D01*
X97146002Y-79794749D01*
X97199658Y-79748256D01*
X97269932Y-79738152D01*
X97334512Y-79767646D01*
X97341018Y-79773697D01*
X97352825Y-79785483D01*
X97381697Y-79814305D01*
X97387927Y-79818145D01*
X97387928Y-79818146D01*
X97525090Y-79902694D01*
X97532262Y-79907115D01*
X97612005Y-79933564D01*
X97693611Y-79960632D01*
X97693613Y-79960632D01*
X97700139Y-79962797D01*
X97706975Y-79963497D01*
X97706978Y-79963498D01*
X97750031Y-79967909D01*
X97804600Y-79973500D01*
X98580400Y-79973500D01*
X98583646Y-79973163D01*
X98583650Y-79973163D01*
X98679308Y-79963238D01*
X98679312Y-79963237D01*
X98686166Y-79962526D01*
X98692702Y-79960345D01*
X98692704Y-79960345D01*
X98824806Y-79916272D01*
X98853946Y-79906550D01*
X99004348Y-79813478D01*
X99009521Y-79808296D01*
X99009526Y-79808292D01*
X99032295Y-79785483D01*
X99094577Y-79751403D01*
X99121468Y-79748500D01*
X99683694Y-79748500D01*
X99751815Y-79768502D01*
X99765702Y-79779683D01*
X99765771Y-79779596D01*
X99771517Y-79784134D01*
X99776697Y-79789305D01*
X99782927Y-79793145D01*
X99782928Y-79793146D01*
X99920090Y-79877694D01*
X99927262Y-79882115D01*
X99989306Y-79902694D01*
X100088611Y-79935632D01*
X100088613Y-79935632D01*
X100095139Y-79937797D01*
X100101975Y-79938497D01*
X100101978Y-79938498D01*
X100145031Y-79942909D01*
X100199600Y-79948500D01*
X101000400Y-79948500D01*
X101003646Y-79948163D01*
X101003650Y-79948163D01*
X101099308Y-79938238D01*
X101099312Y-79938237D01*
X101106166Y-79937526D01*
X101112702Y-79935345D01*
X101112704Y-79935345D01*
X101244806Y-79891272D01*
X101273946Y-79881550D01*
X101424348Y-79788478D01*
X101510784Y-79701891D01*
X101573066Y-79667812D01*
X101643886Y-79672815D01*
G37*
G04 #@! TD.AperFunction*
G04 #@! TA.AperFunction,Conductor*
G36*
X110283686Y-51690010D02*
G01*
X111285444Y-51815786D01*
X113973675Y-52153308D01*
X114038773Y-52181640D01*
X114078219Y-52240670D01*
X114083914Y-52282356D01*
X113924558Y-57261675D01*
X113902387Y-57329121D01*
X113847271Y-57373874D01*
X113808284Y-57383274D01*
X113283014Y-57423670D01*
X110242719Y-57657483D01*
X110229261Y-57657796D01*
X106045000Y-57531000D01*
X105576642Y-58166000D01*
X105576642Y-59991377D01*
X105556640Y-60059498D01*
X105504729Y-60105178D01*
X104800667Y-60439801D01*
X104746580Y-60452000D01*
X74961192Y-60452000D01*
X74902410Y-60437448D01*
X74274860Y-60106453D01*
X74223938Y-60056981D01*
X74207642Y-59995005D01*
X74207642Y-52749738D01*
X74227644Y-52681617D01*
X74235854Y-52670280D01*
X74892357Y-51862327D01*
X74950839Y-51822073D01*
X74989692Y-51815786D01*
X103102646Y-51714773D01*
X110267539Y-51689029D01*
X110283686Y-51690010D01*
G37*
G04 #@! TD.AperFunction*
G04 #@! TA.AperFunction,Conductor*
G36*
X104790931Y-98318002D02*
G01*
X104811905Y-98334905D01*
X105373095Y-98896095D01*
X105407121Y-98958407D01*
X105410000Y-98985190D01*
X105410000Y-100711000D01*
X106045000Y-101346000D01*
X106055007Y-101345649D01*
X111170155Y-101166170D01*
X113153582Y-101096576D01*
X113222362Y-101114178D01*
X113270708Y-101166170D01*
X113284000Y-101222499D01*
X113284000Y-106935000D01*
X113263998Y-107003121D01*
X113210342Y-107049614D01*
X113158000Y-107061000D01*
X110161190Y-107061000D01*
X110093069Y-107040998D01*
X110072095Y-107024095D01*
X109474000Y-106426000D01*
X105871255Y-106440297D01*
X77493105Y-106552908D01*
X77448363Y-106544886D01*
X76535758Y-106202659D01*
X76478998Y-106160012D01*
X76454305Y-106093448D01*
X76454000Y-106084682D01*
X76454000Y-99123000D01*
X76474002Y-99054879D01*
X76504400Y-99022200D01*
X77436400Y-98323200D01*
X77502898Y-98298329D01*
X77512000Y-98298000D01*
X104722810Y-98298000D01*
X104790931Y-98318002D01*
G37*
G04 #@! TD.AperFunction*
M02*
