G04 #@! TF.GenerationSoftware,KiCad,Pcbnew,6.0.4-6f826c9f35~116~ubuntu18.04.1*
G04 #@! TF.CreationDate,2022-05-23T11:49:55+08:00*
G04 #@! TF.ProjectId,Power_connector,506f7765-725f-4636-9f6e-6e6563746f72,rev?*
G04 #@! TF.SameCoordinates,Original*
G04 #@! TF.FileFunction,Copper,L2,Bot*
G04 #@! TF.FilePolarity,Positive*
%FSLAX46Y46*%
G04 Gerber Fmt 4.6, Leading zero omitted, Abs format (unit mm)*
G04 Created by KiCad (PCBNEW 6.0.4-6f826c9f35~116~ubuntu18.04.1) date 2022-05-23 11:49:55*
%MOMM*%
%LPD*%
G01*
G04 APERTURE LIST*
G04 Aperture macros list*
%AMRoundRect*
0 Rectangle with rounded corners*
0 $1 Rounding radius*
0 $2 $3 $4 $5 $6 $7 $8 $9 X,Y pos of 4 corners*
0 Add a 4 corners polygon primitive as box body*
4,1,4,$2,$3,$4,$5,$6,$7,$8,$9,$2,$3,0*
0 Add four circle primitives for the rounded corners*
1,1,$1+$1,$2,$3*
1,1,$1+$1,$4,$5*
1,1,$1+$1,$6,$7*
1,1,$1+$1,$8,$9*
0 Add four rect primitives between the rounded corners*
20,1,$1+$1,$2,$3,$4,$5,0*
20,1,$1+$1,$4,$5,$6,$7,0*
20,1,$1+$1,$6,$7,$8,$9,0*
20,1,$1+$1,$8,$9,$2,$3,0*%
G04 Aperture macros list end*
G04 #@! TA.AperFunction,ComponentPad*
%ADD10RoundRect,1.500000X-1.500000X1.500000X-1.500000X-1.500000X1.500000X-1.500000X1.500000X1.500000X0*%
G04 #@! TD*
G04 #@! TA.AperFunction,ComponentPad*
%ADD11C,6.000000*%
G04 #@! TD*
G04 #@! TA.AperFunction,ComponentPad*
%ADD12C,3.051988*%
G04 #@! TD*
G04 #@! TA.AperFunction,ComponentPad*
%ADD13C,3.048000*%
G04 #@! TD*
G04 #@! TA.AperFunction,ComponentPad*
%ADD14C,3.068258*%
G04 #@! TD*
G04 #@! TA.AperFunction,ComponentPad*
%ADD15RoundRect,1.500000X1.500000X-1.500000X1.500000X1.500000X-1.500000X1.500000X-1.500000X-1.500000X0*%
G04 #@! TD*
G04 #@! TA.AperFunction,ComponentPad*
%ADD16R,2.600000X2.600000*%
G04 #@! TD*
G04 #@! TA.AperFunction,ComponentPad*
%ADD17C,2.600000*%
G04 #@! TD*
G04 #@! TA.AperFunction,ComponentPad*
%ADD18R,3.200000X3.200000*%
G04 #@! TD*
G04 #@! TA.AperFunction,ComponentPad*
%ADD19O,3.200000X3.200000*%
G04 #@! TD*
G04 #@! TA.AperFunction,WasherPad*
%ADD20R,1.800000X0.900000*%
G04 #@! TD*
G04 #@! TA.AperFunction,ComponentPad*
%ADD21C,4.500000*%
G04 #@! TD*
G04 #@! TA.AperFunction,SMDPad,CuDef*
%ADD22R,8.150860X10.800080*%
G04 #@! TD*
G04 #@! TA.AperFunction,SMDPad,CuDef*
%ADD23R,3.200400X0.899160*%
G04 #@! TD*
G04 #@! TA.AperFunction,ViaPad*
%ADD24C,5.000000*%
G04 #@! TD*
G04 #@! TA.AperFunction,ViaPad*
%ADD25C,1.000000*%
G04 #@! TD*
G04 #@! TA.AperFunction,Conductor*
%ADD26C,0.500000*%
G04 #@! TD*
G04 #@! TA.AperFunction,Conductor*
%ADD27C,6.000000*%
G04 #@! TD*
G04 APERTURE END LIST*
D10*
X171829200Y-59740800D03*
D11*
X171829200Y-66940800D03*
D12*
X135304000Y-76962000D03*
D13*
X131904000Y-76962000D03*
D12*
X135304000Y-90678000D03*
D14*
X131904000Y-90678000D03*
D12*
X119380000Y-112776000D03*
D13*
X122780000Y-112776000D03*
D14*
X122780000Y-99060000D03*
D12*
X119380000Y-99060000D03*
D15*
X159129200Y-130015800D03*
D11*
X159129200Y-122815800D03*
D10*
X121029200Y-59740800D03*
D11*
X121029200Y-66940800D03*
D10*
X146429200Y-59740800D03*
D11*
X146429200Y-66940800D03*
D15*
X133729200Y-130015800D03*
D11*
X133729200Y-122815800D03*
D10*
X133858000Y-59900000D03*
D11*
X133858000Y-67100000D03*
D15*
X108329200Y-130015800D03*
D11*
X108329200Y-122815800D03*
D13*
X109904000Y-112953800D03*
D12*
X106504000Y-112953800D03*
X106504000Y-99237800D03*
D14*
X109904000Y-99237800D03*
D12*
X144936000Y-112903000D03*
D13*
X148336000Y-112903000D03*
D14*
X148336000Y-99187000D03*
D12*
X144936000Y-99187000D03*
D13*
X157636000Y-77216000D03*
D12*
X161036000Y-77216000D03*
X161036000Y-90932000D03*
D14*
X157636000Y-90932000D03*
D16*
X95504000Y-61468000D03*
D17*
X90424000Y-61468000D03*
D13*
X160829200Y-112953800D03*
D12*
X157429200Y-112953800D03*
X157429200Y-99237800D03*
D14*
X160829200Y-99237800D03*
D18*
X179832000Y-91948000D03*
D19*
X179832000Y-76708000D03*
D13*
X173404000Y-113030000D03*
D12*
X170004000Y-113030000D03*
X170004000Y-99314000D03*
D14*
X173404000Y-99314000D03*
D15*
X121158000Y-130048000D03*
D11*
X121158000Y-122848000D03*
D12*
X109904000Y-76962000D03*
D13*
X106504000Y-76962000D03*
D12*
X109904000Y-90678000D03*
D14*
X106504000Y-90678000D03*
D10*
X159258000Y-59900000D03*
D11*
X159258000Y-67100000D03*
D20*
X87235000Y-88446000D03*
X87235000Y-101946000D03*
D21*
X93235000Y-98796000D03*
X93235000Y-91596000D03*
D12*
X173529200Y-77012800D03*
D13*
X170129200Y-77012800D03*
D14*
X170129200Y-90728800D03*
D12*
X173529200Y-90728800D03*
X131904000Y-112953800D03*
D13*
X135304000Y-112953800D03*
D12*
X131904000Y-99237800D03*
D14*
X135304000Y-99237800D03*
D15*
X171958000Y-129838000D03*
D11*
X171958000Y-122638000D03*
D13*
X119329200Y-76640300D03*
D12*
X122729200Y-76640300D03*
D14*
X119329200Y-90356300D03*
D12*
X122729200Y-90356300D03*
D10*
X108204000Y-59944000D03*
D11*
X108204000Y-67144000D03*
D15*
X146304000Y-130092000D03*
D11*
X146304000Y-122892000D03*
D18*
X179832000Y-98044000D03*
D19*
X179832000Y-113284000D03*
D12*
X148129200Y-77012800D03*
D13*
X144729200Y-77012800D03*
D12*
X148129200Y-90728800D03*
D14*
X144729200Y-90728800D03*
D22*
X89095580Y-78740000D03*
D23*
X99697540Y-74930000D03*
X99697540Y-80010000D03*
X99697540Y-81280000D03*
X99697540Y-82550000D03*
X99697540Y-76200000D03*
X99697540Y-77470000D03*
D22*
X88907620Y-111760000D03*
D23*
X99509580Y-107950000D03*
X99509580Y-115570000D03*
X99509580Y-113030000D03*
X99509580Y-109220000D03*
X99509580Y-110490000D03*
X99509580Y-114300000D03*
D24*
X180848000Y-132588000D03*
X78740000Y-132628000D03*
X78740000Y-56896000D03*
X180848000Y-56896000D03*
D25*
X96520000Y-117348000D03*
X81280000Y-66040000D03*
X81280000Y-70612000D03*
X77724000Y-70612000D03*
X81280000Y-60960000D03*
X84836000Y-60960000D03*
X81280000Y-119380000D03*
X81280000Y-123444000D03*
X84836000Y-66040000D03*
X77724000Y-119380000D03*
X77724000Y-123444000D03*
X77724000Y-66040000D03*
X77724000Y-60960000D03*
X84836000Y-70612000D03*
D26*
X98552000Y-104648000D02*
X96012000Y-107188000D01*
X96774000Y-74930000D02*
X96520000Y-75184000D01*
X96012000Y-83820000D02*
X97536000Y-85344000D01*
X96012000Y-116840000D02*
X96520000Y-117348000D01*
X98552000Y-86360000D02*
X98552000Y-104648000D01*
X97536000Y-85344000D02*
X98552000Y-86360000D01*
X90424000Y-61468000D02*
X90424000Y-63500000D01*
X99697540Y-74930000D02*
X96774000Y-74930000D01*
X96012000Y-107188000D02*
X96012000Y-109220000D01*
X90424000Y-63500000D02*
X96520000Y-69596000D01*
X96520000Y-75184000D02*
X96012000Y-75692000D01*
X97282000Y-107950000D02*
X96012000Y-109220000D01*
X99509580Y-107950000D02*
X97282000Y-107950000D01*
X96012000Y-116332000D02*
X96012000Y-116840000D01*
X96012000Y-109220000D02*
X96012000Y-116332000D01*
X96520000Y-69596000D02*
X96520000Y-75184000D01*
X96012000Y-75692000D02*
X96012000Y-83820000D01*
X102108000Y-75468342D02*
X101376342Y-76200000D01*
X101376342Y-76200000D02*
X99697540Y-76200000D01*
X102108000Y-69088000D02*
X102108000Y-75468342D01*
X95504000Y-62484000D02*
X102108000Y-69088000D01*
X95504000Y-61468000D02*
X95504000Y-62484000D01*
D27*
X146429200Y-66940800D02*
X146429200Y-75312800D01*
X146429200Y-75312800D02*
X144729200Y-77012800D01*
X121029200Y-74940300D02*
X119329200Y-76640300D01*
X121029200Y-66940800D02*
X121029200Y-74940300D01*
X108329200Y-67150800D02*
X108329200Y-75312800D01*
X108329200Y-75312800D02*
X110029200Y-77012800D01*
G04 #@! TA.AperFunction,Conductor*
G36*
X102014752Y-74583206D02*
G01*
X102021335Y-74589335D01*
X102071095Y-74639095D01*
X102105121Y-74701407D01*
X102108000Y-74728190D01*
X102108000Y-85852000D01*
X104140000Y-87376000D01*
X182319810Y-87376000D01*
X182387931Y-87396002D01*
X182408905Y-87412905D01*
X182842595Y-87846595D01*
X182876621Y-87908907D01*
X182879500Y-87935690D01*
X182879500Y-102056310D01*
X182859498Y-102124431D01*
X182842595Y-102145405D01*
X182408905Y-102579095D01*
X182346593Y-102613121D01*
X182319810Y-102616000D01*
X105156000Y-102616000D01*
X104648000Y-103124000D01*
X104648000Y-108659810D01*
X104627998Y-108727931D01*
X104611095Y-108748905D01*
X102616000Y-110744000D01*
X102616000Y-115771810D01*
X102595998Y-115839931D01*
X102579095Y-115860905D01*
X102144905Y-116295095D01*
X102082593Y-116329121D01*
X102055810Y-116332000D01*
X98096190Y-116332000D01*
X98028069Y-116311998D01*
X98007095Y-116295095D01*
X97572905Y-115860905D01*
X97538879Y-115798593D01*
X97536000Y-115771810D01*
X97536000Y-108984505D01*
X97556002Y-108916384D01*
X97609658Y-108869891D01*
X97679932Y-108859787D01*
X97706230Y-108866523D01*
X97799064Y-108901325D01*
X97861246Y-108908080D01*
X101157914Y-108908080D01*
X101220096Y-108901325D01*
X101356485Y-108850195D01*
X101473041Y-108762841D01*
X101560395Y-108646285D01*
X101611525Y-108509896D01*
X101618280Y-108447714D01*
X101618280Y-107452286D01*
X101611525Y-107390104D01*
X101560395Y-107253715D01*
X101473041Y-107137159D01*
X101356485Y-107049805D01*
X101220096Y-106998675D01*
X101157914Y-106991920D01*
X97861246Y-106991920D01*
X97799064Y-106998675D01*
X97706230Y-107033477D01*
X97635422Y-107038660D01*
X97573053Y-107004739D01*
X97538924Y-106942484D01*
X97536000Y-106915495D01*
X97536000Y-106788871D01*
X97556002Y-106720750D01*
X97572905Y-106699776D01*
X99040911Y-105231770D01*
X99055323Y-105219384D01*
X99066918Y-105210851D01*
X99066923Y-105210846D01*
X99072818Y-105206508D01*
X99077557Y-105200930D01*
X99077560Y-105200927D01*
X99107035Y-105166232D01*
X99113965Y-105158716D01*
X99119660Y-105153021D01*
X99137281Y-105130749D01*
X99140072Y-105127345D01*
X99182591Y-105077297D01*
X99182592Y-105077295D01*
X99187333Y-105071715D01*
X99190661Y-105065199D01*
X99194020Y-105060162D01*
X99197194Y-105055023D01*
X99201734Y-105049284D01*
X99232636Y-104983163D01*
X99234569Y-104979209D01*
X99238239Y-104972021D01*
X99267769Y-104914192D01*
X99269510Y-104907076D01*
X99271604Y-104901446D01*
X99273523Y-104895679D01*
X99276621Y-104889050D01*
X99291483Y-104817600D01*
X99292453Y-104813315D01*
X99308473Y-104747844D01*
X99309808Y-104742390D01*
X99310500Y-104731236D01*
X99310536Y-104731238D01*
X99310775Y-104727248D01*
X99311150Y-104723050D01*
X99312640Y-104715885D01*
X99310546Y-104638479D01*
X99310500Y-104635072D01*
X99310500Y-86427070D01*
X99311933Y-86408120D01*
X99314099Y-86393885D01*
X99314099Y-86393881D01*
X99315199Y-86386651D01*
X99310915Y-86333982D01*
X99310500Y-86323767D01*
X99310500Y-86315707D01*
X99307211Y-86287493D01*
X99306778Y-86283118D01*
X99301454Y-86217661D01*
X99301453Y-86217658D01*
X99300860Y-86210363D01*
X99298604Y-86203399D01*
X99297413Y-86197440D01*
X99296029Y-86191585D01*
X99295182Y-86184319D01*
X99270265Y-86115673D01*
X99268848Y-86111545D01*
X99248607Y-86049064D01*
X99248606Y-86049062D01*
X99246351Y-86042101D01*
X99242555Y-86035846D01*
X99240049Y-86030372D01*
X99237330Y-86024942D01*
X99234833Y-86018063D01*
X99194814Y-85957024D01*
X99192467Y-85953305D01*
X99154595Y-85890893D01*
X99147197Y-85882516D01*
X99147224Y-85882492D01*
X99144571Y-85879500D01*
X99141868Y-85876267D01*
X99137856Y-85870148D01*
X99081617Y-85816872D01*
X99079175Y-85814494D01*
X97572905Y-84308224D01*
X97538879Y-84245912D01*
X97536000Y-84219129D01*
X97536000Y-75846280D01*
X97556002Y-75778159D01*
X97609658Y-75731666D01*
X97679932Y-75721562D01*
X97737565Y-75745454D01*
X97783302Y-75779732D01*
X97850635Y-75830195D01*
X97987024Y-75881325D01*
X98049206Y-75888080D01*
X101345874Y-75888080D01*
X101408056Y-75881325D01*
X101544445Y-75830195D01*
X101661001Y-75742841D01*
X101748355Y-75626285D01*
X101799485Y-75489896D01*
X101806240Y-75427714D01*
X101806240Y-74678430D01*
X101826242Y-74610309D01*
X101879898Y-74563816D01*
X101950172Y-74553712D01*
X102014752Y-74583206D01*
G37*
G04 #@! TD.AperFunction*
G04 #@! TA.AperFunction,Conductor*
G36*
X92979931Y-73172002D02*
G01*
X93000905Y-73188905D01*
X93435095Y-73623095D01*
X93469121Y-73685407D01*
X93472000Y-73712190D01*
X93472000Y-88900000D01*
X93980000Y-89408000D01*
X94943810Y-89408000D01*
X95011931Y-89428002D01*
X95032905Y-89444905D01*
X95467095Y-89879095D01*
X95501121Y-89941407D01*
X95504000Y-89968190D01*
X95504000Y-93419810D01*
X95483998Y-93487931D01*
X95467095Y-93508905D01*
X95032905Y-93943095D01*
X94970593Y-93977121D01*
X94943810Y-93980000D01*
X91440000Y-93980000D01*
X90424000Y-94996000D01*
X90424000Y-105664000D01*
X90932000Y-106172000D01*
X92911810Y-106172000D01*
X92979931Y-106192002D01*
X93000905Y-106208905D01*
X93435095Y-106643095D01*
X93469121Y-106705407D01*
X93472000Y-106732190D01*
X93472000Y-116787810D01*
X93451998Y-116855931D01*
X93435095Y-116876905D01*
X93000905Y-117311095D01*
X92938593Y-117345121D01*
X92911810Y-117348000D01*
X85396190Y-117348000D01*
X85328069Y-117327998D01*
X85307095Y-117311095D01*
X84872905Y-116876905D01*
X84838879Y-116814593D01*
X84836000Y-116787810D01*
X84836000Y-102444134D01*
X85826500Y-102444134D01*
X85833255Y-102506316D01*
X85884385Y-102642705D01*
X85971739Y-102759261D01*
X86088295Y-102846615D01*
X86224684Y-102897745D01*
X86286866Y-102904500D01*
X88183134Y-102904500D01*
X88245316Y-102897745D01*
X88381705Y-102846615D01*
X88498261Y-102759261D01*
X88585615Y-102642705D01*
X88636745Y-102506316D01*
X88643500Y-102444134D01*
X88643500Y-101447866D01*
X88636745Y-101385684D01*
X88585615Y-101249295D01*
X88498261Y-101132739D01*
X88381705Y-101045385D01*
X88245316Y-100994255D01*
X88183134Y-100987500D01*
X86286866Y-100987500D01*
X86224684Y-100994255D01*
X86088295Y-101045385D01*
X85971739Y-101132739D01*
X85884385Y-101249295D01*
X85833255Y-101385684D01*
X85826500Y-101447866D01*
X85826500Y-102444134D01*
X84836000Y-102444134D01*
X84836000Y-88944134D01*
X85826500Y-88944134D01*
X85833255Y-89006316D01*
X85884385Y-89142705D01*
X85971739Y-89259261D01*
X86088295Y-89346615D01*
X86224684Y-89397745D01*
X86286866Y-89404500D01*
X88183134Y-89404500D01*
X88245316Y-89397745D01*
X88381705Y-89346615D01*
X88498261Y-89259261D01*
X88585615Y-89142705D01*
X88636745Y-89006316D01*
X88643500Y-88944134D01*
X88643500Y-87947866D01*
X88636745Y-87885684D01*
X88585615Y-87749295D01*
X88498261Y-87632739D01*
X88381705Y-87545385D01*
X88245316Y-87494255D01*
X88183134Y-87487500D01*
X86286866Y-87487500D01*
X86224684Y-87494255D01*
X86088295Y-87545385D01*
X85971739Y-87632739D01*
X85884385Y-87749295D01*
X85833255Y-87885684D01*
X85826500Y-87947866D01*
X85826500Y-88944134D01*
X84836000Y-88944134D01*
X84836000Y-73712190D01*
X84856002Y-73644069D01*
X84872905Y-73623095D01*
X85307095Y-73188905D01*
X85369407Y-73154879D01*
X85396190Y-73152000D01*
X92911810Y-73152000D01*
X92979931Y-73172002D01*
G37*
G04 #@! TD.AperFunction*
G04 #@! TA.AperFunction,Conductor*
G36*
X178426920Y-54884502D02*
G01*
X178473413Y-54938158D01*
X178483517Y-55008432D01*
X178457954Y-55068244D01*
X178373386Y-55176098D01*
X178371493Y-55179187D01*
X178371491Y-55179190D01*
X178325233Y-55254676D01*
X178192105Y-55471921D01*
X178190580Y-55475206D01*
X178190578Y-55475210D01*
X178151505Y-55559386D01*
X178046027Y-55786620D01*
X177937087Y-56116023D01*
X177866730Y-56455764D01*
X177835888Y-56801341D01*
X177835983Y-56804971D01*
X177835983Y-56804972D01*
X177838367Y-56896000D01*
X177844970Y-57148171D01*
X177893856Y-57491660D01*
X177981897Y-57827253D01*
X178107927Y-58150503D01*
X178109624Y-58153708D01*
X178243113Y-58405825D01*
X178270275Y-58457126D01*
X178272325Y-58460109D01*
X178272327Y-58460112D01*
X178464733Y-58740064D01*
X178464739Y-58740071D01*
X178466790Y-58743056D01*
X178694866Y-59004505D01*
X178697551Y-59006948D01*
X178907268Y-59197775D01*
X178951481Y-59238006D01*
X179233233Y-59440466D01*
X179536388Y-59609200D01*
X179856928Y-59741972D01*
X179860422Y-59742967D01*
X179860424Y-59742968D01*
X180187103Y-59836025D01*
X180187108Y-59836026D01*
X180190604Y-59837022D01*
X180387304Y-59869233D01*
X180529412Y-59892504D01*
X180529419Y-59892505D01*
X180532993Y-59893090D01*
X180706276Y-59901262D01*
X180875931Y-59909263D01*
X180875932Y-59909263D01*
X180879558Y-59909434D01*
X180888415Y-59908830D01*
X181222073Y-59886084D01*
X181222081Y-59886083D01*
X181225704Y-59885836D01*
X181229279Y-59885173D01*
X181229282Y-59885173D01*
X181563279Y-59823270D01*
X181563283Y-59823269D01*
X181566844Y-59822609D01*
X181898456Y-59720592D01*
X182216145Y-59581136D01*
X182460511Y-59438341D01*
X182512560Y-59407926D01*
X182512562Y-59407925D01*
X182515700Y-59406091D01*
X182543647Y-59385108D01*
X182677847Y-59284348D01*
X182744332Y-59259442D01*
X182813728Y-59274434D01*
X182864001Y-59324565D01*
X182879500Y-59385108D01*
X182879500Y-86123567D01*
X182859498Y-86191688D01*
X182823392Y-86228405D01*
X181895743Y-86846838D01*
X181825851Y-86868000D01*
X104690000Y-86868000D01*
X104621879Y-86847998D01*
X104614400Y-86842800D01*
X102666400Y-85381800D01*
X102623905Y-85324926D01*
X102616000Y-85281000D01*
X102616000Y-76940666D01*
X104466863Y-76940666D01*
X104482815Y-77217335D01*
X104483640Y-77221542D01*
X104483641Y-77221547D01*
X104496128Y-77285193D01*
X104536169Y-77489279D01*
X104537556Y-77493330D01*
X104621694Y-77739078D01*
X104625935Y-77751466D01*
X104655086Y-77809426D01*
X104741503Y-77981246D01*
X104750454Y-77999044D01*
X104798311Y-78068676D01*
X104904806Y-78223628D01*
X104907421Y-78227433D01*
X105093932Y-78432405D01*
X105097221Y-78435155D01*
X105303243Y-78607417D01*
X105303248Y-78607421D01*
X105306535Y-78610169D01*
X105414230Y-78677726D01*
X105537656Y-78755152D01*
X105537660Y-78755154D01*
X105541296Y-78757435D01*
X105793872Y-78871477D01*
X105797992Y-78872697D01*
X105797991Y-78872697D01*
X106055475Y-78948967D01*
X106055479Y-78948968D01*
X106059588Y-78950185D01*
X106063825Y-78950833D01*
X106063828Y-78950834D01*
X106157233Y-78965127D01*
X106333527Y-78992104D01*
X106474602Y-78994320D01*
X106606330Y-78996390D01*
X106606336Y-78996390D01*
X106610621Y-78996457D01*
X106885742Y-78963164D01*
X106889890Y-78962076D01*
X106889894Y-78962075D01*
X106920411Y-78954069D01*
X106991378Y-78956129D01*
X107041481Y-78986849D01*
X107614403Y-79559771D01*
X107822865Y-79747142D01*
X108125919Y-79966113D01*
X108450527Y-80151642D01*
X108793011Y-80301626D01*
X109149495Y-80414368D01*
X109252872Y-80435306D01*
X109512641Y-80487920D01*
X109512644Y-80487920D01*
X109515940Y-80488588D01*
X109519279Y-80488901D01*
X109519288Y-80488902D01*
X109780552Y-80513368D01*
X109888197Y-80523449D01*
X109891562Y-80523405D01*
X109891563Y-80523405D01*
X110258703Y-80518599D01*
X110258706Y-80518599D01*
X110262052Y-80518555D01*
X110633270Y-80473962D01*
X110636540Y-80473210D01*
X110636546Y-80473209D01*
X110994363Y-80390929D01*
X110994364Y-80390929D01*
X110997646Y-80390174D01*
X111351056Y-80268139D01*
X111689498Y-80109242D01*
X111692357Y-80107507D01*
X111692361Y-80107505D01*
X112006281Y-79917013D01*
X112009137Y-79915280D01*
X112306357Y-79688450D01*
X112442193Y-79559771D01*
X112575351Y-79433629D01*
X112575355Y-79433625D01*
X112577788Y-79431320D01*
X112678055Y-79313715D01*
X112818175Y-79149366D01*
X112818176Y-79149364D01*
X112820360Y-79146803D01*
X113031324Y-78838120D01*
X113058024Y-78788430D01*
X113112068Y-78687848D01*
X113208292Y-78508767D01*
X113217579Y-78485955D01*
X113289741Y-78308684D01*
X113349259Y-78162474D01*
X113382764Y-78046013D01*
X113451706Y-77806374D01*
X113451707Y-77806368D01*
X113452630Y-77803161D01*
X113486177Y-77611931D01*
X113516655Y-77438195D01*
X113516656Y-77438188D01*
X113517233Y-77434898D01*
X113527590Y-77281009D01*
X113542113Y-77065201D01*
X113542113Y-77065198D01*
X113542338Y-77061855D01*
X113533425Y-76835000D01*
X113527791Y-76691611D01*
X113527791Y-76691606D01*
X113527659Y-76688258D01*
X113499924Y-76499297D01*
X115818551Y-76499297D01*
X115818595Y-76502663D01*
X115818595Y-76502664D01*
X115822521Y-76802595D01*
X115823444Y-76873152D01*
X115868038Y-77244370D01*
X115868790Y-77247640D01*
X115868791Y-77247646D01*
X115950323Y-77602208D01*
X115951826Y-77608746D01*
X116073861Y-77962156D01*
X116176405Y-78180569D01*
X116224331Y-78282648D01*
X116232758Y-78300598D01*
X116234493Y-78303457D01*
X116234495Y-78303461D01*
X116346107Y-78487391D01*
X116426720Y-78620237D01*
X116653550Y-78917457D01*
X116744972Y-79013964D01*
X116872643Y-79148735D01*
X116910680Y-79188888D01*
X116913237Y-79191068D01*
X116913238Y-79191069D01*
X117029226Y-79289957D01*
X117195197Y-79431460D01*
X117503880Y-79642424D01*
X117833233Y-79819392D01*
X117836341Y-79820657D01*
X117836347Y-79820660D01*
X117939024Y-79862457D01*
X118179526Y-79960359D01*
X118199527Y-79966113D01*
X118535626Y-80062806D01*
X118535632Y-80062807D01*
X118538839Y-80063730D01*
X118659802Y-80084950D01*
X118903805Y-80127755D01*
X118903812Y-80127756D01*
X118907102Y-80128333D01*
X118910433Y-80128557D01*
X118910440Y-80128558D01*
X119276798Y-80153213D01*
X119276801Y-80153213D01*
X119280144Y-80153438D01*
X119466943Y-80146098D01*
X119650389Y-80138891D01*
X119650394Y-80138891D01*
X119653742Y-80138759D01*
X119866678Y-80107505D01*
X120020348Y-80084950D01*
X120020351Y-80084949D01*
X120023665Y-80084463D01*
X120026903Y-80083629D01*
X120026911Y-80083627D01*
X120382478Y-79992003D01*
X120382488Y-79992000D01*
X120385724Y-79991166D01*
X120735819Y-79859922D01*
X120847330Y-79803960D01*
X121066988Y-79693724D01*
X121066994Y-79693720D01*
X121069984Y-79692220D01*
X121275900Y-79559771D01*
X121381617Y-79491772D01*
X121381623Y-79491768D01*
X121384438Y-79489957D01*
X121675616Y-79255424D01*
X121679938Y-79251331D01*
X122253542Y-78677726D01*
X122315855Y-78643701D01*
X122361695Y-78642271D01*
X122558560Y-78672396D01*
X122699799Y-78674615D01*
X122831635Y-78676686D01*
X122831641Y-78676686D01*
X122835926Y-78676753D01*
X123111317Y-78643427D01*
X123379637Y-78573035D01*
X123635921Y-78466878D01*
X123690209Y-78435155D01*
X123871719Y-78329089D01*
X123871721Y-78329087D01*
X123875427Y-78326922D01*
X124093723Y-78155757D01*
X124146093Y-78101716D01*
X124243296Y-78001410D01*
X124286770Y-77956548D01*
X124289303Y-77953100D01*
X124289307Y-77953095D01*
X124443432Y-77743279D01*
X124450994Y-77732984D01*
X124514039Y-77616870D01*
X124581308Y-77492976D01*
X124581309Y-77492974D01*
X124583358Y-77489200D01*
X124674634Y-77247646D01*
X124679894Y-77233726D01*
X124679895Y-77233722D01*
X124681412Y-77229708D01*
X124735976Y-76991466D01*
X124742383Y-76963493D01*
X124742384Y-76963489D01*
X124743341Y-76959309D01*
X124745005Y-76940666D01*
X129866863Y-76940666D01*
X129882815Y-77217335D01*
X129883640Y-77221542D01*
X129883641Y-77221547D01*
X129896128Y-77285193D01*
X129936169Y-77489279D01*
X129937556Y-77493330D01*
X130021694Y-77739078D01*
X130025935Y-77751466D01*
X130055086Y-77809426D01*
X130141503Y-77981246D01*
X130150454Y-77999044D01*
X130198311Y-78068676D01*
X130304806Y-78223628D01*
X130307421Y-78227433D01*
X130493932Y-78432405D01*
X130497221Y-78435155D01*
X130703243Y-78607417D01*
X130703248Y-78607421D01*
X130706535Y-78610169D01*
X130814230Y-78677726D01*
X130937656Y-78755152D01*
X130937660Y-78755154D01*
X130941296Y-78757435D01*
X131193872Y-78871477D01*
X131197992Y-78872697D01*
X131197991Y-78872697D01*
X131455475Y-78948967D01*
X131455479Y-78948968D01*
X131459588Y-78950185D01*
X131463825Y-78950833D01*
X131463828Y-78950834D01*
X131557233Y-78965127D01*
X131733527Y-78992104D01*
X131874602Y-78994320D01*
X132006330Y-78996390D01*
X132006336Y-78996390D01*
X132010621Y-78996457D01*
X132285742Y-78963164D01*
X132436943Y-78923497D01*
X132549657Y-78893927D01*
X132549658Y-78893927D01*
X132553800Y-78892840D01*
X132809833Y-78786788D01*
X132974454Y-78690591D01*
X133045401Y-78649133D01*
X133045402Y-78649132D01*
X133049104Y-78646969D01*
X133267186Y-78475971D01*
X133274409Y-78468518D01*
X133407832Y-78330836D01*
X133460043Y-78276958D01*
X133493180Y-78231848D01*
X133499218Y-78223628D01*
X133555667Y-78180569D01*
X133626434Y-78174864D01*
X133689051Y-78208325D01*
X133700509Y-78221977D01*
X133700761Y-78221777D01*
X133703424Y-78225137D01*
X133705855Y-78228674D01*
X133708742Y-78231847D01*
X133708743Y-78231848D01*
X133888013Y-78428864D01*
X133892548Y-78433848D01*
X133956585Y-78487391D01*
X134102068Y-78609034D01*
X134102073Y-78609038D01*
X134105360Y-78611786D01*
X134200946Y-78671747D01*
X134336712Y-78756913D01*
X134336716Y-78756915D01*
X134340352Y-78759196D01*
X134344262Y-78760961D01*
X134344263Y-78760962D01*
X134589263Y-78871584D01*
X134589267Y-78871586D01*
X134593175Y-78873350D01*
X134597294Y-78874570D01*
X134855039Y-78950918D01*
X134855043Y-78950919D01*
X134859152Y-78952136D01*
X134863386Y-78952784D01*
X134863391Y-78952785D01*
X135086001Y-78986849D01*
X135133360Y-78994096D01*
X135274599Y-78996315D01*
X135406435Y-78998386D01*
X135406441Y-78998386D01*
X135410726Y-78998453D01*
X135686117Y-78965127D01*
X135954437Y-78894735D01*
X136210721Y-78788578D01*
X136217488Y-78784624D01*
X136446519Y-78650789D01*
X136446521Y-78650787D01*
X136450227Y-78648622D01*
X136668523Y-78477457D01*
X136677186Y-78468518D01*
X136814402Y-78326922D01*
X136861570Y-78278248D01*
X136864103Y-78274800D01*
X136864107Y-78274795D01*
X137023256Y-78058139D01*
X137025794Y-78054684D01*
X137054085Y-78002579D01*
X137156108Y-77814676D01*
X137156109Y-77814674D01*
X137158158Y-77810900D01*
X137256212Y-77551408D01*
X137305548Y-77335993D01*
X137317183Y-77285193D01*
X137317184Y-77285189D01*
X137318141Y-77281009D01*
X137320132Y-77258707D01*
X137342581Y-77007171D01*
X137342801Y-77004707D01*
X137343248Y-76962000D01*
X137342086Y-76944946D01*
X137337099Y-76871797D01*
X141218551Y-76871797D01*
X141218595Y-76875163D01*
X141218595Y-76875164D01*
X141223384Y-77241039D01*
X141223444Y-77245652D01*
X141268038Y-77616870D01*
X141268790Y-77620140D01*
X141268791Y-77620146D01*
X141324336Y-77861700D01*
X141351826Y-77981246D01*
X141473861Y-78334656D01*
X141566024Y-78530958D01*
X141628895Y-78664869D01*
X141632758Y-78673098D01*
X141634493Y-78675957D01*
X141634495Y-78675961D01*
X141783964Y-78922277D01*
X141826720Y-78992737D01*
X142053550Y-79289957D01*
X142055857Y-79292392D01*
X142308024Y-79558584D01*
X142310680Y-79561388D01*
X142313237Y-79563568D01*
X142313238Y-79563569D01*
X142405729Y-79642424D01*
X142595197Y-79803960D01*
X142903880Y-80014924D01*
X143233233Y-80191892D01*
X143236341Y-80193157D01*
X143236347Y-80193160D01*
X143406379Y-80262375D01*
X143579526Y-80332859D01*
X143582752Y-80333787D01*
X143935626Y-80435306D01*
X143935632Y-80435307D01*
X143938839Y-80436230D01*
X144059802Y-80457450D01*
X144303805Y-80500255D01*
X144303812Y-80500256D01*
X144307102Y-80500833D01*
X144310433Y-80501057D01*
X144310440Y-80501058D01*
X144676798Y-80525713D01*
X144676801Y-80525713D01*
X144680144Y-80525938D01*
X144868050Y-80518555D01*
X145050389Y-80511391D01*
X145050394Y-80511391D01*
X145053742Y-80511259D01*
X145219341Y-80486953D01*
X145420348Y-80457450D01*
X145420351Y-80457449D01*
X145423665Y-80456963D01*
X145426903Y-80456129D01*
X145426911Y-80456127D01*
X145782478Y-80364503D01*
X145782488Y-80364500D01*
X145785724Y-80363666D01*
X146135819Y-80232422D01*
X146219752Y-80190300D01*
X146466988Y-80066224D01*
X146466994Y-80066220D01*
X146469984Y-80064720D01*
X146586167Y-79989989D01*
X146781617Y-79864272D01*
X146781623Y-79864268D01*
X146784438Y-79862457D01*
X147075616Y-79627924D01*
X147079938Y-79623831D01*
X147653542Y-79050226D01*
X147715855Y-79016201D01*
X147761695Y-79014771D01*
X147958560Y-79044896D01*
X148099799Y-79047115D01*
X148231635Y-79049186D01*
X148231641Y-79049186D01*
X148235926Y-79049253D01*
X148511317Y-79015927D01*
X148779637Y-78945535D01*
X149035921Y-78839378D01*
X149042688Y-78835424D01*
X149271719Y-78701589D01*
X149271721Y-78701587D01*
X149275427Y-78699422D01*
X149493723Y-78528257D01*
X149537382Y-78483205D01*
X149646896Y-78370195D01*
X149686770Y-78329048D01*
X149689303Y-78325600D01*
X149689307Y-78325595D01*
X149848456Y-78108939D01*
X149850994Y-78105484D01*
X149892035Y-78029896D01*
X149981308Y-77865476D01*
X149981309Y-77865474D01*
X149983358Y-77861700D01*
X150075872Y-77616870D01*
X150079894Y-77606226D01*
X150079895Y-77606222D01*
X150081412Y-77602208D01*
X150143341Y-77331809D01*
X150147502Y-77285193D01*
X150155581Y-77194666D01*
X155598863Y-77194666D01*
X155614815Y-77471335D01*
X155615640Y-77475542D01*
X155615641Y-77475547D01*
X155627478Y-77535878D01*
X155668169Y-77743279D01*
X155669556Y-77747330D01*
X155754425Y-77995213D01*
X155757935Y-78005466D01*
X155787827Y-78064900D01*
X155871794Y-78231848D01*
X155882454Y-78253044D01*
X155938544Y-78334656D01*
X156036806Y-78477628D01*
X156039421Y-78481433D01*
X156225932Y-78686405D01*
X156229221Y-78689155D01*
X156435243Y-78861417D01*
X156435248Y-78861421D01*
X156438535Y-78864169D01*
X156536097Y-78925370D01*
X156669656Y-79009152D01*
X156669660Y-79009154D01*
X156673296Y-79011435D01*
X156677206Y-79013200D01*
X156677207Y-79013201D01*
X156715004Y-79030267D01*
X156925872Y-79125477D01*
X156929992Y-79126697D01*
X156929991Y-79126697D01*
X157187475Y-79202967D01*
X157187479Y-79202968D01*
X157191588Y-79204185D01*
X157195825Y-79204833D01*
X157195828Y-79204834D01*
X157289233Y-79219127D01*
X157465527Y-79246104D01*
X157606602Y-79248320D01*
X157738330Y-79250390D01*
X157738336Y-79250390D01*
X157742621Y-79250457D01*
X158017742Y-79217164D01*
X158285800Y-79146840D01*
X158541833Y-79040788D01*
X158686709Y-78956129D01*
X158777401Y-78903133D01*
X158777402Y-78903132D01*
X158781104Y-78900969D01*
X158999186Y-78729971D01*
X159038740Y-78689155D01*
X159150212Y-78574124D01*
X159192043Y-78530958D01*
X159230488Y-78478622D01*
X159231218Y-78477628D01*
X159287667Y-78434569D01*
X159358434Y-78428864D01*
X159421051Y-78462325D01*
X159432509Y-78475977D01*
X159432761Y-78475777D01*
X159435424Y-78479137D01*
X159437855Y-78482674D01*
X159440742Y-78485847D01*
X159440743Y-78485848D01*
X159584598Y-78643943D01*
X159624548Y-78687848D01*
X159705043Y-78755152D01*
X159834068Y-78863034D01*
X159834073Y-78863038D01*
X159837360Y-78865786D01*
X159927585Y-78922384D01*
X160068712Y-79010913D01*
X160068716Y-79010915D01*
X160072352Y-79013196D01*
X160076262Y-79014961D01*
X160076263Y-79014962D01*
X160321263Y-79125584D01*
X160321267Y-79125586D01*
X160325175Y-79127350D01*
X160329294Y-79128570D01*
X160587039Y-79204918D01*
X160587043Y-79204919D01*
X160591152Y-79206136D01*
X160595386Y-79206784D01*
X160595391Y-79206785D01*
X160838450Y-79243978D01*
X160865360Y-79248096D01*
X161006599Y-79250315D01*
X161138435Y-79252386D01*
X161138441Y-79252386D01*
X161142726Y-79252453D01*
X161418117Y-79219127D01*
X161686437Y-79148735D01*
X161942721Y-79042578D01*
X161949488Y-79038624D01*
X162178519Y-78904789D01*
X162178521Y-78904787D01*
X162182227Y-78902622D01*
X162400523Y-78731457D01*
X162444182Y-78686405D01*
X162590587Y-78535326D01*
X162593570Y-78532248D01*
X162596103Y-78528800D01*
X162596107Y-78528795D01*
X162755256Y-78312139D01*
X162757794Y-78308684D01*
X162771826Y-78282841D01*
X162888108Y-78068676D01*
X162888109Y-78068674D01*
X162890158Y-78064900D01*
X162988212Y-77805408D01*
X163031393Y-77616870D01*
X163049183Y-77539193D01*
X163049184Y-77539189D01*
X163050141Y-77535009D01*
X163053893Y-77492976D01*
X163072437Y-77285193D01*
X163074801Y-77258707D01*
X163075063Y-77233726D01*
X163075222Y-77218485D01*
X163075248Y-77216000D01*
X163074086Y-77198946D01*
X163061565Y-77015285D01*
X163059941Y-76991466D01*
X168092063Y-76991466D01*
X168108015Y-77268135D01*
X168108840Y-77272342D01*
X168108841Y-77272347D01*
X168121328Y-77335993D01*
X168161369Y-77540079D01*
X168162756Y-77544130D01*
X168232354Y-77747410D01*
X168251135Y-77802266D01*
X168281027Y-77861700D01*
X168339502Y-77977963D01*
X168375654Y-78049844D01*
X168386002Y-78064900D01*
X168530006Y-78274428D01*
X168532621Y-78278233D01*
X168719132Y-78483205D01*
X168722421Y-78485955D01*
X168928443Y-78658217D01*
X168928448Y-78658221D01*
X168931735Y-78660969D01*
X168986176Y-78695120D01*
X169162856Y-78805952D01*
X169162860Y-78805954D01*
X169166496Y-78808235D01*
X169419072Y-78922277D01*
X169423192Y-78923497D01*
X169423191Y-78923497D01*
X169680675Y-78999767D01*
X169680679Y-78999768D01*
X169684788Y-79000985D01*
X169689025Y-79001633D01*
X169689028Y-79001634D01*
X169785805Y-79016443D01*
X169958727Y-79042904D01*
X170099802Y-79045120D01*
X170231530Y-79047190D01*
X170231536Y-79047190D01*
X170235821Y-79047257D01*
X170510942Y-79013964D01*
X170739247Y-78954069D01*
X170774857Y-78944727D01*
X170774858Y-78944727D01*
X170779000Y-78943640D01*
X171035033Y-78837588D01*
X171176105Y-78755152D01*
X171270601Y-78699933D01*
X171270602Y-78699932D01*
X171274304Y-78697769D01*
X171492386Y-78526771D01*
X171531940Y-78485955D01*
X171644119Y-78370195D01*
X171685243Y-78327758D01*
X171721623Y-78278233D01*
X171724418Y-78274428D01*
X171780867Y-78231369D01*
X171851634Y-78225664D01*
X171914251Y-78259125D01*
X171925709Y-78272777D01*
X171925961Y-78272577D01*
X171928624Y-78275937D01*
X171931055Y-78279474D01*
X171933942Y-78282647D01*
X171933943Y-78282648D01*
X172109858Y-78475977D01*
X172117748Y-78484648D01*
X172173134Y-78530958D01*
X172327268Y-78659834D01*
X172327273Y-78659838D01*
X172330560Y-78662586D01*
X172392736Y-78701589D01*
X172561912Y-78807713D01*
X172561916Y-78807715D01*
X172565552Y-78809996D01*
X172569462Y-78811761D01*
X172569463Y-78811762D01*
X172814463Y-78922384D01*
X172814467Y-78922386D01*
X172818375Y-78924150D01*
X172822494Y-78925370D01*
X173080239Y-79001718D01*
X173080243Y-79001719D01*
X173084352Y-79002936D01*
X173088586Y-79003584D01*
X173088591Y-79003585D01*
X173329277Y-79040415D01*
X173358560Y-79044896D01*
X173499799Y-79047115D01*
X173631635Y-79049186D01*
X173631641Y-79049186D01*
X173635926Y-79049253D01*
X173911317Y-79015927D01*
X174179637Y-78945535D01*
X174435921Y-78839378D01*
X174442688Y-78835424D01*
X174671719Y-78701589D01*
X174671721Y-78701587D01*
X174675427Y-78699422D01*
X174893723Y-78528257D01*
X174937382Y-78483205D01*
X175046896Y-78370195D01*
X175086770Y-78329048D01*
X175089303Y-78325600D01*
X175089307Y-78325595D01*
X175248456Y-78108939D01*
X175250994Y-78105484D01*
X175292035Y-78029896D01*
X175381308Y-77865476D01*
X175381309Y-77865474D01*
X175383358Y-77861700D01*
X175475872Y-77616870D01*
X175479894Y-77606226D01*
X175479895Y-77606222D01*
X175481412Y-77602208D01*
X175543341Y-77331809D01*
X175547502Y-77285193D01*
X175567781Y-77057971D01*
X175568001Y-77055507D01*
X175568448Y-77012800D01*
X175567286Y-76995746D01*
X175558928Y-76873152D01*
X175549581Y-76736042D01*
X175546148Y-76719462D01*
X175494197Y-76468608D01*
X175493327Y-76464406D01*
X175400729Y-76202917D01*
X175391057Y-76184176D01*
X175275465Y-75960221D01*
X175275465Y-75960220D01*
X175273500Y-75956414D01*
X175270809Y-75952584D01*
X175116460Y-75732970D01*
X175116459Y-75732969D01*
X175113993Y-75729460D01*
X174964128Y-75568186D01*
X174928078Y-75529391D01*
X174928077Y-75529390D01*
X174925161Y-75526252D01*
X174920470Y-75522412D01*
X174786574Y-75412820D01*
X174710498Y-75350552D01*
X174473976Y-75205611D01*
X174470059Y-75203892D01*
X174470056Y-75203890D01*
X174336155Y-75145112D01*
X174219971Y-75094111D01*
X174215843Y-75092935D01*
X174215840Y-75092934D01*
X174116685Y-75064689D01*
X173953183Y-75018114D01*
X173948941Y-75017510D01*
X173948935Y-75017509D01*
X173682802Y-74979633D01*
X173678551Y-74979028D01*
X173533017Y-74978266D01*
X173405442Y-74977598D01*
X173405436Y-74977598D01*
X173401155Y-74977576D01*
X173396911Y-74978135D01*
X173396907Y-74978135D01*
X173276021Y-74994050D01*
X173126128Y-75013784D01*
X173121988Y-75014917D01*
X173121986Y-75014917D01*
X173049480Y-75034752D01*
X172858559Y-75086982D01*
X172603401Y-75195817D01*
X172495493Y-75260398D01*
X172369055Y-75336069D01*
X172369051Y-75336072D01*
X172365373Y-75338273D01*
X172148882Y-75511715D01*
X172145938Y-75514817D01*
X172145934Y-75514821D01*
X171967149Y-75703221D01*
X171957932Y-75712934D01*
X171955434Y-75716410D01*
X171955426Y-75716420D01*
X171930968Y-75750458D01*
X171874974Y-75794107D01*
X171804271Y-75800553D01*
X171741306Y-75767751D01*
X171725562Y-75749388D01*
X171712440Y-75730718D01*
X171708353Y-75726319D01*
X171526710Y-75530848D01*
X171526709Y-75530847D01*
X171523793Y-75527709D01*
X171517322Y-75522412D01*
X171383425Y-75412820D01*
X171309340Y-75352182D01*
X171073049Y-75207383D01*
X171069132Y-75205664D01*
X171069129Y-75205662D01*
X170935032Y-75146798D01*
X170819293Y-75095992D01*
X170815165Y-75094816D01*
X170815162Y-75094815D01*
X170688449Y-75058720D01*
X170552768Y-75020070D01*
X170548526Y-75019466D01*
X170548520Y-75019465D01*
X170282655Y-74981627D01*
X170278404Y-74981022D01*
X170132315Y-74980257D01*
X170005566Y-74979593D01*
X170005560Y-74979593D01*
X170001280Y-74979571D01*
X169997035Y-74980130D01*
X169997033Y-74980130D01*
X169985663Y-74981627D01*
X169726523Y-75015744D01*
X169459217Y-75088870D01*
X169455269Y-75090554D01*
X169208260Y-75195912D01*
X169208256Y-75195914D01*
X169204308Y-75197598D01*
X169159447Y-75224447D01*
X168970196Y-75337711D01*
X168970192Y-75337714D01*
X168966514Y-75339915D01*
X168818979Y-75458113D01*
X168760070Y-75505308D01*
X168750235Y-75513187D01*
X168559473Y-75714209D01*
X168465920Y-75844402D01*
X168402500Y-75932660D01*
X168397757Y-75939260D01*
X168268080Y-76184176D01*
X168266605Y-76188207D01*
X168189899Y-76397819D01*
X168172843Y-76444426D01*
X168113806Y-76715192D01*
X168092063Y-76991466D01*
X163059941Y-76991466D01*
X163056381Y-76939242D01*
X163052948Y-76922662D01*
X163003779Y-76685242D01*
X163000127Y-76667606D01*
X162907529Y-76406117D01*
X162903247Y-76397819D01*
X162782265Y-76163421D01*
X162782265Y-76163420D01*
X162780300Y-76159614D01*
X162772354Y-76148307D01*
X162623260Y-75936170D01*
X162623259Y-75936169D01*
X162620793Y-75932660D01*
X162442740Y-75741052D01*
X162434878Y-75732591D01*
X162434877Y-75732590D01*
X162431961Y-75729452D01*
X162428134Y-75726319D01*
X162284507Y-75608762D01*
X162217298Y-75553752D01*
X161980776Y-75408811D01*
X161976859Y-75407092D01*
X161976856Y-75407090D01*
X161818805Y-75337711D01*
X161726771Y-75297311D01*
X161722643Y-75296135D01*
X161722640Y-75296134D01*
X161637973Y-75272016D01*
X161459983Y-75221314D01*
X161455741Y-75220710D01*
X161455735Y-75220709D01*
X161189602Y-75182833D01*
X161185351Y-75182228D01*
X161039817Y-75181466D01*
X160912242Y-75180798D01*
X160912236Y-75180798D01*
X160907955Y-75180776D01*
X160903711Y-75181335D01*
X160903707Y-75181335D01*
X160801227Y-75194827D01*
X160632928Y-75216984D01*
X160628788Y-75218117D01*
X160628786Y-75218117D01*
X160556280Y-75237952D01*
X160365359Y-75290182D01*
X160110201Y-75399017D01*
X160006776Y-75460915D01*
X159875855Y-75539269D01*
X159875851Y-75539272D01*
X159872173Y-75541473D01*
X159655682Y-75714915D01*
X159652738Y-75718017D01*
X159652734Y-75718021D01*
X159478041Y-75902109D01*
X159464732Y-75916134D01*
X159462234Y-75919610D01*
X159462226Y-75919620D01*
X159437768Y-75953658D01*
X159381774Y-75997307D01*
X159311071Y-76003753D01*
X159248106Y-75970951D01*
X159232362Y-75952588D01*
X159219240Y-75933918D01*
X159215153Y-75929519D01*
X159033510Y-75734048D01*
X159033509Y-75734047D01*
X159030593Y-75730909D01*
X159014464Y-75717707D01*
X158881358Y-75608762D01*
X158816140Y-75555382D01*
X158579849Y-75410583D01*
X158575932Y-75408864D01*
X158575929Y-75408862D01*
X158421232Y-75340955D01*
X158326093Y-75299192D01*
X158321965Y-75298016D01*
X158321962Y-75298015D01*
X158220767Y-75269189D01*
X158059568Y-75223270D01*
X158055326Y-75222666D01*
X158055320Y-75222665D01*
X157789455Y-75184827D01*
X157785204Y-75184222D01*
X157639115Y-75183457D01*
X157512366Y-75182793D01*
X157512360Y-75182793D01*
X157508080Y-75182771D01*
X157503835Y-75183330D01*
X157503833Y-75183330D01*
X157454227Y-75189861D01*
X157233323Y-75218944D01*
X156966017Y-75292070D01*
X156962069Y-75293754D01*
X156715060Y-75399112D01*
X156715056Y-75399114D01*
X156711108Y-75400798D01*
X156605470Y-75464021D01*
X156476996Y-75540911D01*
X156476992Y-75540914D01*
X156473314Y-75543115D01*
X156257035Y-75716387D01*
X156254078Y-75719503D01*
X156254077Y-75719504D01*
X156245832Y-75728193D01*
X156066273Y-75917409D01*
X155964981Y-76058371D01*
X155911085Y-76133376D01*
X155904557Y-76142460D01*
X155774880Y-76387376D01*
X155748171Y-76460362D01*
X155681415Y-76642785D01*
X155679643Y-76647626D01*
X155620606Y-76918392D01*
X155598863Y-77194666D01*
X150155581Y-77194666D01*
X150167781Y-77057971D01*
X150168001Y-77055507D01*
X150168448Y-77012800D01*
X150167286Y-76995746D01*
X150158928Y-76873152D01*
X150149581Y-76736042D01*
X150146148Y-76719462D01*
X150094197Y-76468608D01*
X150093327Y-76464406D01*
X150000729Y-76202917D01*
X149898646Y-76005134D01*
X149885177Y-75935426D01*
X149887481Y-75920609D01*
X149895219Y-75884969D01*
X149897484Y-75874539D01*
X149897842Y-75871221D01*
X149897845Y-75871200D01*
X149899493Y-75855908D01*
X149901274Y-75844402D01*
X149904320Y-75829360D01*
X149904321Y-75829354D01*
X149904988Y-75826060D01*
X149920049Y-75665237D01*
X149920222Y-75663517D01*
X149920571Y-75660285D01*
X149933938Y-75536227D01*
X149937268Y-75505323D01*
X149937269Y-75505308D01*
X149937539Y-75502805D01*
X149937700Y-75496855D01*
X149937700Y-75482637D01*
X149938249Y-75470889D01*
X149939535Y-75457155D01*
X149939849Y-75453803D01*
X149939650Y-75438559D01*
X149937711Y-75290480D01*
X149937700Y-75288831D01*
X149937700Y-67100000D01*
X155744685Y-67100000D01*
X155763931Y-67467241D01*
X155764444Y-67470481D01*
X155764445Y-67470489D01*
X155770900Y-67511241D01*
X155821459Y-67830459D01*
X155916639Y-68185674D01*
X156048427Y-68528994D01*
X156049925Y-68531934D01*
X156165442Y-68758648D01*
X156215380Y-68856657D01*
X156217176Y-68859423D01*
X156217178Y-68859426D01*
X156310481Y-69003100D01*
X156415668Y-69165075D01*
X156647098Y-69450867D01*
X156907133Y-69710902D01*
X157192925Y-69942332D01*
X157501342Y-70142620D01*
X157504276Y-70144115D01*
X157504283Y-70144119D01*
X157772879Y-70280975D01*
X157829006Y-70309573D01*
X158003321Y-70376486D01*
X158155862Y-70435041D01*
X158172326Y-70441361D01*
X158527541Y-70536541D01*
X158720558Y-70567112D01*
X158887511Y-70593555D01*
X158887519Y-70593556D01*
X158890759Y-70594069D01*
X159258000Y-70613315D01*
X159625241Y-70594069D01*
X159628481Y-70593556D01*
X159628489Y-70593555D01*
X159795442Y-70567112D01*
X159988459Y-70536541D01*
X160343674Y-70441361D01*
X160360139Y-70435041D01*
X160512679Y-70376486D01*
X160686994Y-70309573D01*
X160743121Y-70280975D01*
X161011717Y-70144119D01*
X161011724Y-70144115D01*
X161014658Y-70142620D01*
X161323075Y-69942332D01*
X161608867Y-69710902D01*
X161868902Y-69450867D01*
X162100332Y-69165075D01*
X162205519Y-69003100D01*
X162298822Y-68859426D01*
X162298824Y-68859423D01*
X162300620Y-68856657D01*
X162350559Y-68758648D01*
X162466075Y-68531934D01*
X162467573Y-68528994D01*
X162599361Y-68185674D01*
X162694541Y-67830459D01*
X162745100Y-67511241D01*
X162751555Y-67470489D01*
X162751556Y-67470481D01*
X162752069Y-67467241D01*
X162771315Y-67100000D01*
X162762972Y-66940800D01*
X168315885Y-66940800D01*
X168335131Y-67308041D01*
X168392659Y-67671259D01*
X168487839Y-68026474D01*
X168489024Y-68029562D01*
X168489025Y-68029564D01*
X168512126Y-68089745D01*
X168619627Y-68369794D01*
X168621125Y-68372734D01*
X168778354Y-68681312D01*
X168786580Y-68697457D01*
X168986868Y-69005875D01*
X169218298Y-69291667D01*
X169478333Y-69551702D01*
X169764125Y-69783132D01*
X169766900Y-69784934D01*
X169959764Y-69910181D01*
X170072542Y-69983420D01*
X170075476Y-69984915D01*
X170075483Y-69984919D01*
X170381461Y-70140822D01*
X170400206Y-70150373D01*
X170743526Y-70282161D01*
X171098741Y-70377341D01*
X171291758Y-70407912D01*
X171458711Y-70434355D01*
X171458719Y-70434356D01*
X171461959Y-70434869D01*
X171829200Y-70454115D01*
X172196441Y-70434869D01*
X172199681Y-70434356D01*
X172199689Y-70434355D01*
X172366642Y-70407912D01*
X172559659Y-70377341D01*
X172914874Y-70282161D01*
X173258194Y-70150373D01*
X173276939Y-70140822D01*
X173582917Y-69984919D01*
X173582924Y-69984915D01*
X173585858Y-69983420D01*
X173698637Y-69910181D01*
X173891500Y-69784934D01*
X173894275Y-69783132D01*
X174180067Y-69551702D01*
X174440102Y-69291667D01*
X174671532Y-69005875D01*
X174871820Y-68697457D01*
X174880047Y-68681312D01*
X175037275Y-68372734D01*
X175038773Y-68369794D01*
X175146274Y-68089745D01*
X175169375Y-68029564D01*
X175169376Y-68029562D01*
X175170561Y-68026474D01*
X175265741Y-67671259D01*
X175323269Y-67308041D01*
X175342515Y-66940800D01*
X175323269Y-66573559D01*
X175322301Y-66567443D01*
X175266257Y-66213602D01*
X175265741Y-66210341D01*
X175170561Y-65855126D01*
X175165478Y-65841883D01*
X175100793Y-65673374D01*
X175038773Y-65511806D01*
X175033909Y-65502260D01*
X174873319Y-65187084D01*
X174873314Y-65187075D01*
X174871820Y-65184143D01*
X174856509Y-65160565D01*
X174673334Y-64878500D01*
X174673330Y-64878494D01*
X174671532Y-64875725D01*
X174440102Y-64589933D01*
X174180067Y-64329898D01*
X173894275Y-64098468D01*
X173727021Y-63989852D01*
X173588627Y-63899978D01*
X173588624Y-63899976D01*
X173585858Y-63898180D01*
X173582924Y-63896685D01*
X173582917Y-63896681D01*
X173261134Y-63732725D01*
X173258194Y-63731227D01*
X173033432Y-63644949D01*
X172917964Y-63600625D01*
X172917962Y-63600624D01*
X172914874Y-63599439D01*
X172559659Y-63504259D01*
X172335647Y-63468779D01*
X172199689Y-63447245D01*
X172199681Y-63447244D01*
X172196441Y-63446731D01*
X171829200Y-63427485D01*
X171461959Y-63446731D01*
X171458719Y-63447244D01*
X171458711Y-63447245D01*
X171322753Y-63468779D01*
X171098741Y-63504259D01*
X170743526Y-63599439D01*
X170740438Y-63600624D01*
X170740436Y-63600625D01*
X170624968Y-63644949D01*
X170400206Y-63731227D01*
X170397266Y-63732725D01*
X170075484Y-63896681D01*
X170075477Y-63896685D01*
X170072543Y-63898180D01*
X170069777Y-63899976D01*
X170069774Y-63899978D01*
X169977998Y-63959578D01*
X169764125Y-64098468D01*
X169478333Y-64329898D01*
X169218298Y-64589933D01*
X168986868Y-64875725D01*
X168985070Y-64878494D01*
X168985066Y-64878500D01*
X168801892Y-65160565D01*
X168786580Y-65184143D01*
X168785086Y-65187075D01*
X168785081Y-65187084D01*
X168624491Y-65502260D01*
X168619627Y-65511806D01*
X168557607Y-65673374D01*
X168492923Y-65841883D01*
X168487839Y-65855126D01*
X168392659Y-66210341D01*
X168392143Y-66213602D01*
X168336100Y-66567443D01*
X168335131Y-66573559D01*
X168315885Y-66940800D01*
X162762972Y-66940800D01*
X162752069Y-66732759D01*
X162740670Y-66660785D01*
X162701207Y-66411630D01*
X162694541Y-66369541D01*
X162599361Y-66014326D01*
X162467573Y-65671006D01*
X162388024Y-65514882D01*
X162302119Y-65346284D01*
X162302115Y-65346277D01*
X162300620Y-65343343D01*
X162100332Y-65034925D01*
X161868902Y-64749133D01*
X161608867Y-64489098D01*
X161323075Y-64257668D01*
X161081139Y-64100553D01*
X161017427Y-64059178D01*
X161017424Y-64059176D01*
X161014658Y-64057380D01*
X161011724Y-64055885D01*
X161011717Y-64055881D01*
X160689934Y-63891925D01*
X160686994Y-63890427D01*
X160452869Y-63800555D01*
X160346764Y-63759825D01*
X160346762Y-63759824D01*
X160343674Y-63758639D01*
X159988459Y-63663459D01*
X159781532Y-63630685D01*
X159628489Y-63606445D01*
X159628481Y-63606444D01*
X159625241Y-63605931D01*
X159258000Y-63586685D01*
X158890759Y-63605931D01*
X158887519Y-63606444D01*
X158887511Y-63606445D01*
X158734468Y-63630685D01*
X158527541Y-63663459D01*
X158172326Y-63758639D01*
X158169238Y-63759824D01*
X158169236Y-63759825D01*
X158063131Y-63800555D01*
X157829006Y-63890427D01*
X157826066Y-63891925D01*
X157504284Y-64055881D01*
X157504277Y-64055885D01*
X157501343Y-64057380D01*
X157498577Y-64059176D01*
X157498574Y-64059178D01*
X157315414Y-64178123D01*
X157192925Y-64257668D01*
X156907133Y-64489098D01*
X156647098Y-64749133D01*
X156415668Y-65034925D01*
X156215380Y-65343343D01*
X156213885Y-65346277D01*
X156213881Y-65346284D01*
X156127976Y-65514882D01*
X156048427Y-65671006D01*
X155916639Y-66014326D01*
X155821459Y-66369541D01*
X155814793Y-66411630D01*
X155775331Y-66660785D01*
X155763931Y-66732759D01*
X155744685Y-67100000D01*
X149937700Y-67100000D01*
X149937700Y-67035970D01*
X149937873Y-67029376D01*
X149942342Y-66944101D01*
X149942515Y-66940800D01*
X149937781Y-66850467D01*
X149937700Y-66848428D01*
X149937700Y-66847339D01*
X149932657Y-66752694D01*
X149932678Y-66752693D01*
X149932651Y-66752584D01*
X149932426Y-66748278D01*
X149927658Y-66657315D01*
X149923429Y-66576608D01*
X149923428Y-66576600D01*
X149923269Y-66573559D01*
X149923107Y-66572537D01*
X149922981Y-66570944D01*
X149922964Y-66570783D01*
X149922786Y-66567443D01*
X149908913Y-66481309D01*
X149893646Y-66386528D01*
X149893594Y-66386201D01*
X149892992Y-66382396D01*
X149878367Y-66290061D01*
X149866258Y-66213602D01*
X149866256Y-66213591D01*
X149865741Y-66210341D01*
X149864929Y-66207311D01*
X149863892Y-66201756D01*
X149863865Y-66201631D01*
X149863331Y-66198315D01*
X149815999Y-66024702D01*
X149770561Y-65855126D01*
X149769374Y-65852034D01*
X149768359Y-65848910D01*
X149768447Y-65848881D01*
X149766156Y-65841883D01*
X149765869Y-65840830D01*
X149764987Y-65837594D01*
X149718274Y-65718091D01*
X149700795Y-65673374D01*
X149700517Y-65672656D01*
X149639956Y-65514888D01*
X149638773Y-65511806D01*
X149636728Y-65507793D01*
X149631650Y-65496479D01*
X149630094Y-65492497D01*
X149630086Y-65492479D01*
X149628869Y-65489366D01*
X149549036Y-65335680D01*
X149548697Y-65335021D01*
X149471820Y-65184143D01*
X149467643Y-65177710D01*
X149461503Y-65167171D01*
X149458071Y-65160565D01*
X149458068Y-65160560D01*
X149456517Y-65157574D01*
X149362647Y-65016021D01*
X149362007Y-65015046D01*
X149351825Y-64999366D01*
X149271532Y-64875725D01*
X149264694Y-64867281D01*
X149257612Y-64857631D01*
X149251735Y-64848768D01*
X149251730Y-64848762D01*
X149249883Y-64845976D01*
X149247748Y-64843400D01*
X149247740Y-64843389D01*
X149143571Y-64717694D01*
X149142665Y-64716588D01*
X149083510Y-64643537D01*
X149040102Y-64589933D01*
X149030184Y-64580015D01*
X149022265Y-64571320D01*
X149013452Y-64560686D01*
X149013443Y-64560677D01*
X149011308Y-64558100D01*
X148894252Y-64444069D01*
X148893079Y-64442910D01*
X148780067Y-64329898D01*
X148766693Y-64319068D01*
X148758069Y-64311404D01*
X148745903Y-64299553D01*
X148745895Y-64299546D01*
X148743492Y-64297205D01*
X148697527Y-64261099D01*
X148617550Y-64198276D01*
X148616089Y-64197110D01*
X148496851Y-64100553D01*
X148496837Y-64100543D01*
X148494275Y-64098468D01*
X148477166Y-64087357D01*
X148467973Y-64080782D01*
X148449469Y-64066247D01*
X148316404Y-63982937D01*
X148314657Y-63981823D01*
X148312620Y-63980500D01*
X148185858Y-63898180D01*
X148164853Y-63887477D01*
X148155202Y-63882011D01*
X148132569Y-63867841D01*
X147994251Y-63800528D01*
X147992291Y-63799552D01*
X147858194Y-63731227D01*
X147833214Y-63721638D01*
X147823245Y-63717308D01*
X147799392Y-63705700D01*
X147799388Y-63705698D01*
X147796379Y-63704234D01*
X147793240Y-63703101D01*
X147793231Y-63703097D01*
X147654725Y-63653096D01*
X147652354Y-63652213D01*
X147647749Y-63650445D01*
X147621342Y-63640308D01*
X147517962Y-63600624D01*
X147517956Y-63600622D01*
X147514874Y-63599439D01*
X147485955Y-63591690D01*
X147475826Y-63588511D01*
X147444707Y-63577277D01*
X147397564Y-63565741D01*
X147301535Y-63542243D01*
X147298872Y-63541561D01*
X147259905Y-63531120D01*
X147159659Y-63504259D01*
X147156399Y-63503743D01*
X147156396Y-63503742D01*
X147146467Y-63502170D01*
X147126951Y-63499078D01*
X147116738Y-63497024D01*
X147081536Y-63488410D01*
X146995162Y-63476809D01*
X146938584Y-63469209D01*
X146935646Y-63468779D01*
X146799689Y-63447245D01*
X146799681Y-63447244D01*
X146796441Y-63446731D01*
X146770585Y-63445376D01*
X146760228Y-63444833D01*
X146750050Y-63443885D01*
X146718794Y-63439687D01*
X146710977Y-63438637D01*
X146569914Y-63434820D01*
X146566780Y-63434695D01*
X146429200Y-63427485D01*
X146389807Y-63429549D01*
X146379815Y-63429676D01*
X146337228Y-63428524D01*
X146333887Y-63428790D01*
X146333882Y-63428790D01*
X146199766Y-63439463D01*
X146196366Y-63439687D01*
X146061959Y-63446731D01*
X146058714Y-63447245D01*
X146058704Y-63447246D01*
X146019853Y-63453399D01*
X146010141Y-63454553D01*
X145968307Y-63457883D01*
X145964520Y-63458184D01*
X145961241Y-63458801D01*
X145961238Y-63458801D01*
X145832142Y-63483077D01*
X145828567Y-63483696D01*
X145702002Y-63503742D01*
X145701993Y-63503744D01*
X145698741Y-63504259D01*
X145695548Y-63505115D01*
X145695546Y-63505115D01*
X145654483Y-63516117D01*
X145645161Y-63518239D01*
X145629666Y-63521153D01*
X145597074Y-63527282D01*
X145471117Y-63565190D01*
X145467453Y-63566232D01*
X145343526Y-63599439D01*
X145340444Y-63600622D01*
X145340432Y-63600626D01*
X145297807Y-63616989D01*
X145288989Y-63620005D01*
X145239051Y-63635034D01*
X145120732Y-63684893D01*
X145117008Y-63686391D01*
X145000206Y-63731227D01*
X144953725Y-63754910D01*
X144945475Y-63758744D01*
X144925771Y-63767047D01*
X144897590Y-63778922D01*
X144897584Y-63778925D01*
X144894506Y-63780222D01*
X144891574Y-63781844D01*
X144784986Y-63840805D01*
X144781199Y-63842817D01*
X144675484Y-63896681D01*
X144675477Y-63896685D01*
X144672543Y-63898180D01*
X144669775Y-63899977D01*
X144669769Y-63899981D01*
X144626144Y-63928312D01*
X144618529Y-63932883D01*
X144567339Y-63961200D01*
X144564593Y-63963127D01*
X144564592Y-63963127D01*
X144467472Y-64031258D01*
X144463735Y-64033781D01*
X144381235Y-64087357D01*
X144364125Y-64098468D01*
X144361568Y-64100539D01*
X144361562Y-64100543D01*
X144318652Y-64135291D01*
X144311719Y-64140520D01*
X144261257Y-64175920D01*
X144258737Y-64178122D01*
X144258736Y-64178123D01*
X144171784Y-64254110D01*
X144168207Y-64257120D01*
X144078333Y-64329898D01*
X144034729Y-64373502D01*
X144028547Y-64379284D01*
X143979724Y-64421949D01*
X143977449Y-64424410D01*
X143977446Y-64424413D01*
X143901211Y-64506884D01*
X143897781Y-64510450D01*
X143818298Y-64589933D01*
X143816226Y-64592492D01*
X143816223Y-64592495D01*
X143777488Y-64640329D01*
X143772093Y-64646563D01*
X143728205Y-64694040D01*
X143728198Y-64694049D01*
X143725930Y-64696502D01*
X143658785Y-64786748D01*
X143655648Y-64790789D01*
X143651665Y-64795708D01*
X143588942Y-64873163D01*
X143588936Y-64873171D01*
X143586868Y-64875725D01*
X143585077Y-64878484D01*
X143585069Y-64878494D01*
X143549815Y-64932781D01*
X143545233Y-64939368D01*
X143502748Y-64996470D01*
X143465981Y-65058764D01*
X143447191Y-65090600D01*
X143444357Y-65095174D01*
X143386580Y-65184143D01*
X143385087Y-65187074D01*
X143385086Y-65187075D01*
X143354264Y-65247568D01*
X143350519Y-65254389D01*
X143312705Y-65318455D01*
X143311317Y-65321508D01*
X143268781Y-65415061D01*
X143266347Y-65420113D01*
X143227437Y-65496479D01*
X143219627Y-65511806D01*
X143218448Y-65514878D01*
X143218446Y-65514882D01*
X143192974Y-65581239D01*
X143190052Y-65588216D01*
X143157954Y-65658813D01*
X143139316Y-65715006D01*
X143125543Y-65756529D01*
X143123594Y-65761981D01*
X143087839Y-65855126D01*
X143067760Y-65930060D01*
X143065666Y-65937049D01*
X143040247Y-66013687D01*
X143031226Y-66055236D01*
X143019079Y-66111184D01*
X143017657Y-66117050D01*
X142992659Y-66210341D01*
X142992145Y-66213586D01*
X142992144Y-66213591D01*
X142980033Y-66290061D01*
X142978715Y-66297084D01*
X142960916Y-66379061D01*
X142950568Y-66475097D01*
X142949742Y-66481309D01*
X142936100Y-66567443D01*
X142935131Y-66573559D01*
X142934959Y-66576849D01*
X142930742Y-66657315D01*
X142930190Y-66664215D01*
X142920861Y-66750795D01*
X142920700Y-66756745D01*
X142920700Y-66845630D01*
X142920527Y-66852224D01*
X142915885Y-66940800D01*
X142916058Y-66944101D01*
X142920527Y-67029376D01*
X142920700Y-67035970D01*
X142920700Y-73807342D01*
X142900698Y-73875463D01*
X142883796Y-73896436D01*
X142182229Y-74598003D01*
X141994858Y-74806465D01*
X141775887Y-75109519D01*
X141590358Y-75434127D01*
X141589017Y-75437188D01*
X141589017Y-75437189D01*
X141578627Y-75460915D01*
X141440374Y-75776611D01*
X141327632Y-76133095D01*
X141324551Y-76148307D01*
X141263726Y-76448619D01*
X141253412Y-76499540D01*
X141253099Y-76502879D01*
X141253098Y-76502888D01*
X141236462Y-76680534D01*
X141218551Y-76871797D01*
X137337099Y-76871797D01*
X137326714Y-76719462D01*
X137324381Y-76685242D01*
X137320948Y-76668662D01*
X137285179Y-76495946D01*
X137268127Y-76413606D01*
X137258839Y-76387376D01*
X137176960Y-76156158D01*
X137175529Y-76152117D01*
X137165857Y-76133376D01*
X137050265Y-75909421D01*
X137050265Y-75909420D01*
X137048300Y-75905614D01*
X137040448Y-75894441D01*
X136891260Y-75682170D01*
X136891259Y-75682169D01*
X136888793Y-75678660D01*
X136699961Y-75475452D01*
X136682201Y-75460915D01*
X136531675Y-75337711D01*
X136485298Y-75299752D01*
X136248776Y-75154811D01*
X136244859Y-75153092D01*
X136244856Y-75153090D01*
X136102394Y-75090554D01*
X135994771Y-75043311D01*
X135990643Y-75042135D01*
X135990640Y-75042134D01*
X135889150Y-75013224D01*
X135727983Y-74967314D01*
X135723741Y-74966710D01*
X135723735Y-74966709D01*
X135457602Y-74928833D01*
X135453351Y-74928228D01*
X135307817Y-74927466D01*
X135180242Y-74926798D01*
X135180236Y-74926798D01*
X135175955Y-74926776D01*
X135171711Y-74927335D01*
X135171707Y-74927335D01*
X135050821Y-74943250D01*
X134900928Y-74962984D01*
X134896788Y-74964117D01*
X134896786Y-74964117D01*
X134840296Y-74979571D01*
X134633359Y-75036182D01*
X134378201Y-75145017D01*
X134258888Y-75216424D01*
X134143855Y-75285269D01*
X134143851Y-75285272D01*
X134140173Y-75287473D01*
X133923682Y-75460915D01*
X133920738Y-75464017D01*
X133920734Y-75464021D01*
X133755717Y-75637913D01*
X133732732Y-75662134D01*
X133730234Y-75665610D01*
X133730226Y-75665620D01*
X133705768Y-75699658D01*
X133649774Y-75743307D01*
X133579071Y-75749753D01*
X133516106Y-75716951D01*
X133500362Y-75698588D01*
X133487240Y-75679918D01*
X133483153Y-75675519D01*
X133301510Y-75480048D01*
X133301509Y-75480047D01*
X133298593Y-75476909D01*
X133277572Y-75459703D01*
X133149524Y-75354898D01*
X133084140Y-75301382D01*
X132847849Y-75156583D01*
X132843932Y-75154864D01*
X132843929Y-75154862D01*
X132702852Y-75092934D01*
X132594093Y-75045192D01*
X132589965Y-75044016D01*
X132589962Y-75044015D01*
X132499035Y-75018114D01*
X132327568Y-74969270D01*
X132323326Y-74968666D01*
X132323320Y-74968665D01*
X132057455Y-74930827D01*
X132053204Y-74930222D01*
X131907115Y-74929457D01*
X131780366Y-74928793D01*
X131780360Y-74928793D01*
X131776080Y-74928771D01*
X131771835Y-74929330D01*
X131771833Y-74929330D01*
X131760463Y-74930827D01*
X131501323Y-74964944D01*
X131234017Y-75038070D01*
X131230069Y-75039754D01*
X130983060Y-75145112D01*
X130983056Y-75145114D01*
X130979108Y-75146798D01*
X130880839Y-75205611D01*
X130744996Y-75286911D01*
X130744992Y-75286914D01*
X130741314Y-75289115D01*
X130597185Y-75404584D01*
X130531566Y-75457155D01*
X130525035Y-75462387D01*
X130334273Y-75663409D01*
X130204763Y-75843641D01*
X130175066Y-75884969D01*
X130172557Y-75888460D01*
X130042880Y-76133376D01*
X129947643Y-76393626D01*
X129888606Y-76664392D01*
X129866863Y-76940666D01*
X124745005Y-76940666D01*
X124747367Y-76914206D01*
X124767781Y-76685471D01*
X124768001Y-76683007D01*
X124768448Y-76640300D01*
X124749581Y-76363542D01*
X124693327Y-76091906D01*
X124670290Y-76026850D01*
X124602160Y-75834458D01*
X124600729Y-75830417D01*
X124498646Y-75632634D01*
X124485177Y-75562926D01*
X124487481Y-75548109D01*
X124487983Y-75545797D01*
X124497484Y-75502039D01*
X124497842Y-75498721D01*
X124497845Y-75498700D01*
X124499493Y-75483408D01*
X124501274Y-75471902D01*
X124504320Y-75456860D01*
X124504321Y-75456854D01*
X124504988Y-75453560D01*
X124520049Y-75292737D01*
X124520222Y-75291017D01*
X124520255Y-75290716D01*
X124531712Y-75184383D01*
X124537268Y-75132823D01*
X124537269Y-75132815D01*
X124537539Y-75130305D01*
X124537700Y-75124355D01*
X124537700Y-75110137D01*
X124538249Y-75098389D01*
X124539535Y-75084655D01*
X124539849Y-75081303D01*
X124538375Y-74968665D01*
X124537711Y-74917980D01*
X124537700Y-74916331D01*
X124537700Y-67100000D01*
X130344685Y-67100000D01*
X130363931Y-67467241D01*
X130364444Y-67470481D01*
X130364445Y-67470489D01*
X130370900Y-67511241D01*
X130421459Y-67830459D01*
X130516639Y-68185674D01*
X130648427Y-68528994D01*
X130649925Y-68531934D01*
X130765442Y-68758648D01*
X130815380Y-68856657D01*
X130817176Y-68859423D01*
X130817178Y-68859426D01*
X130910481Y-69003100D01*
X131015668Y-69165075D01*
X131247098Y-69450867D01*
X131507133Y-69710902D01*
X131792925Y-69942332D01*
X132101342Y-70142620D01*
X132104276Y-70144115D01*
X132104283Y-70144119D01*
X132372879Y-70280975D01*
X132429006Y-70309573D01*
X132603321Y-70376486D01*
X132755862Y-70435041D01*
X132772326Y-70441361D01*
X133127541Y-70536541D01*
X133320558Y-70567112D01*
X133487511Y-70593555D01*
X133487519Y-70593556D01*
X133490759Y-70594069D01*
X133858000Y-70613315D01*
X134225241Y-70594069D01*
X134228481Y-70593556D01*
X134228489Y-70593555D01*
X134395442Y-70567112D01*
X134588459Y-70536541D01*
X134943674Y-70441361D01*
X134960139Y-70435041D01*
X135112679Y-70376486D01*
X135286994Y-70309573D01*
X135343121Y-70280975D01*
X135611717Y-70144119D01*
X135611724Y-70144115D01*
X135614658Y-70142620D01*
X135923075Y-69942332D01*
X136208867Y-69710902D01*
X136468902Y-69450867D01*
X136700332Y-69165075D01*
X136805519Y-69003100D01*
X136898822Y-68859426D01*
X136898824Y-68859423D01*
X136900620Y-68856657D01*
X136950559Y-68758648D01*
X137066075Y-68531934D01*
X137067573Y-68528994D01*
X137199361Y-68185674D01*
X137294541Y-67830459D01*
X137345100Y-67511241D01*
X137351555Y-67470489D01*
X137351556Y-67470481D01*
X137352069Y-67467241D01*
X137371315Y-67100000D01*
X137352069Y-66732759D01*
X137340670Y-66660785D01*
X137301207Y-66411630D01*
X137294541Y-66369541D01*
X137199361Y-66014326D01*
X137067573Y-65671006D01*
X136988024Y-65514882D01*
X136902119Y-65346284D01*
X136902115Y-65346277D01*
X136900620Y-65343343D01*
X136700332Y-65034925D01*
X136468902Y-64749133D01*
X136208867Y-64489098D01*
X135923075Y-64257668D01*
X135681139Y-64100553D01*
X135617427Y-64059178D01*
X135617424Y-64059176D01*
X135614658Y-64057380D01*
X135611724Y-64055885D01*
X135611717Y-64055881D01*
X135289934Y-63891925D01*
X135286994Y-63890427D01*
X135052869Y-63800555D01*
X134946764Y-63759825D01*
X134946762Y-63759824D01*
X134943674Y-63758639D01*
X134588459Y-63663459D01*
X134381532Y-63630685D01*
X134228489Y-63606445D01*
X134228481Y-63606444D01*
X134225241Y-63605931D01*
X133858000Y-63586685D01*
X133490759Y-63605931D01*
X133487519Y-63606444D01*
X133487511Y-63606445D01*
X133334468Y-63630685D01*
X133127541Y-63663459D01*
X132772326Y-63758639D01*
X132769238Y-63759824D01*
X132769236Y-63759825D01*
X132663131Y-63800555D01*
X132429006Y-63890427D01*
X132426066Y-63891925D01*
X132104284Y-64055881D01*
X132104277Y-64055885D01*
X132101343Y-64057380D01*
X132098577Y-64059176D01*
X132098574Y-64059178D01*
X131915414Y-64178123D01*
X131792925Y-64257668D01*
X131507133Y-64489098D01*
X131247098Y-64749133D01*
X131015668Y-65034925D01*
X130815380Y-65343343D01*
X130813885Y-65346277D01*
X130813881Y-65346284D01*
X130727976Y-65514882D01*
X130648427Y-65671006D01*
X130516639Y-66014326D01*
X130421459Y-66369541D01*
X130414793Y-66411630D01*
X130375331Y-66660785D01*
X130363931Y-66732759D01*
X130344685Y-67100000D01*
X124537700Y-67100000D01*
X124537700Y-67035970D01*
X124537873Y-67029376D01*
X124542342Y-66944101D01*
X124542515Y-66940800D01*
X124537781Y-66850467D01*
X124537700Y-66848428D01*
X124537700Y-66847339D01*
X124532657Y-66752694D01*
X124532678Y-66752693D01*
X124532651Y-66752584D01*
X124532426Y-66748278D01*
X124527658Y-66657315D01*
X124523429Y-66576608D01*
X124523428Y-66576600D01*
X124523269Y-66573559D01*
X124523107Y-66572537D01*
X124522981Y-66570944D01*
X124522964Y-66570783D01*
X124522786Y-66567443D01*
X124508913Y-66481309D01*
X124493646Y-66386528D01*
X124493594Y-66386201D01*
X124492992Y-66382396D01*
X124478367Y-66290061D01*
X124466258Y-66213602D01*
X124466256Y-66213591D01*
X124465741Y-66210341D01*
X124464929Y-66207311D01*
X124463892Y-66201756D01*
X124463865Y-66201631D01*
X124463331Y-66198315D01*
X124415999Y-66024702D01*
X124370561Y-65855126D01*
X124369374Y-65852034D01*
X124368359Y-65848910D01*
X124368447Y-65848881D01*
X124366156Y-65841883D01*
X124365869Y-65840830D01*
X124364987Y-65837594D01*
X124318274Y-65718091D01*
X124300795Y-65673374D01*
X124300517Y-65672656D01*
X124239956Y-65514888D01*
X124238773Y-65511806D01*
X124236728Y-65507793D01*
X124231650Y-65496479D01*
X124230094Y-65492497D01*
X124230086Y-65492479D01*
X124228869Y-65489366D01*
X124149036Y-65335680D01*
X124148697Y-65335021D01*
X124071820Y-65184143D01*
X124067643Y-65177710D01*
X124061503Y-65167171D01*
X124058071Y-65160565D01*
X124058068Y-65160560D01*
X124056517Y-65157574D01*
X123962647Y-65016021D01*
X123962007Y-65015046D01*
X123951825Y-64999366D01*
X123871532Y-64875725D01*
X123864694Y-64867281D01*
X123857612Y-64857631D01*
X123851735Y-64848768D01*
X123851730Y-64848762D01*
X123849883Y-64845976D01*
X123847748Y-64843400D01*
X123847740Y-64843389D01*
X123743571Y-64717694D01*
X123742665Y-64716588D01*
X123683510Y-64643537D01*
X123640102Y-64589933D01*
X123630184Y-64580015D01*
X123622265Y-64571320D01*
X123613452Y-64560686D01*
X123613443Y-64560677D01*
X123611308Y-64558100D01*
X123494252Y-64444069D01*
X123493079Y-64442910D01*
X123380067Y-64329898D01*
X123366693Y-64319068D01*
X123358069Y-64311404D01*
X123345903Y-64299553D01*
X123345895Y-64299546D01*
X123343492Y-64297205D01*
X123297527Y-64261099D01*
X123217550Y-64198276D01*
X123216089Y-64197110D01*
X123096851Y-64100553D01*
X123096837Y-64100543D01*
X123094275Y-64098468D01*
X123077166Y-64087357D01*
X123067973Y-64080782D01*
X123049469Y-64066247D01*
X122916404Y-63982937D01*
X122914657Y-63981823D01*
X122912620Y-63980500D01*
X122785858Y-63898180D01*
X122764853Y-63887477D01*
X122755202Y-63882011D01*
X122732569Y-63867841D01*
X122594251Y-63800528D01*
X122592291Y-63799552D01*
X122458194Y-63731227D01*
X122433214Y-63721638D01*
X122423245Y-63717308D01*
X122399392Y-63705700D01*
X122399388Y-63705698D01*
X122396379Y-63704234D01*
X122393240Y-63703101D01*
X122393231Y-63703097D01*
X122254725Y-63653096D01*
X122252354Y-63652213D01*
X122247749Y-63650445D01*
X122221342Y-63640308D01*
X122117962Y-63600624D01*
X122117956Y-63600622D01*
X122114874Y-63599439D01*
X122085955Y-63591690D01*
X122075826Y-63588511D01*
X122044707Y-63577277D01*
X121997564Y-63565741D01*
X121901535Y-63542243D01*
X121898872Y-63541561D01*
X121859905Y-63531120D01*
X121759659Y-63504259D01*
X121756399Y-63503743D01*
X121756396Y-63503742D01*
X121746467Y-63502170D01*
X121726951Y-63499078D01*
X121716738Y-63497024D01*
X121681536Y-63488410D01*
X121595162Y-63476809D01*
X121538584Y-63469209D01*
X121535646Y-63468779D01*
X121399689Y-63447245D01*
X121399681Y-63447244D01*
X121396441Y-63446731D01*
X121370585Y-63445376D01*
X121360228Y-63444833D01*
X121350050Y-63443885D01*
X121318794Y-63439687D01*
X121310977Y-63438637D01*
X121169914Y-63434820D01*
X121166780Y-63434695D01*
X121029200Y-63427485D01*
X120989807Y-63429549D01*
X120979815Y-63429676D01*
X120937228Y-63428524D01*
X120933887Y-63428790D01*
X120933882Y-63428790D01*
X120799766Y-63439463D01*
X120796366Y-63439687D01*
X120661959Y-63446731D01*
X120658714Y-63447245D01*
X120658704Y-63447246D01*
X120619853Y-63453399D01*
X120610141Y-63454553D01*
X120568307Y-63457883D01*
X120564520Y-63458184D01*
X120561241Y-63458801D01*
X120561238Y-63458801D01*
X120432142Y-63483077D01*
X120428567Y-63483696D01*
X120302002Y-63503742D01*
X120301993Y-63503744D01*
X120298741Y-63504259D01*
X120295548Y-63505115D01*
X120295546Y-63505115D01*
X120254483Y-63516117D01*
X120245161Y-63518239D01*
X120229666Y-63521153D01*
X120197074Y-63527282D01*
X120071117Y-63565190D01*
X120067453Y-63566232D01*
X119943526Y-63599439D01*
X119940444Y-63600622D01*
X119940432Y-63600626D01*
X119897807Y-63616989D01*
X119888989Y-63620005D01*
X119839051Y-63635034D01*
X119720732Y-63684893D01*
X119717008Y-63686391D01*
X119600206Y-63731227D01*
X119553725Y-63754910D01*
X119545475Y-63758744D01*
X119525771Y-63767047D01*
X119497590Y-63778922D01*
X119497584Y-63778925D01*
X119494506Y-63780222D01*
X119491574Y-63781844D01*
X119384986Y-63840805D01*
X119381199Y-63842817D01*
X119275484Y-63896681D01*
X119275477Y-63896685D01*
X119272543Y-63898180D01*
X119269775Y-63899977D01*
X119269769Y-63899981D01*
X119226144Y-63928312D01*
X119218529Y-63932883D01*
X119167339Y-63961200D01*
X119164593Y-63963127D01*
X119164592Y-63963127D01*
X119067472Y-64031258D01*
X119063735Y-64033781D01*
X118981235Y-64087357D01*
X118964125Y-64098468D01*
X118961568Y-64100539D01*
X118961562Y-64100543D01*
X118918652Y-64135291D01*
X118911719Y-64140520D01*
X118861257Y-64175920D01*
X118858737Y-64178122D01*
X118858736Y-64178123D01*
X118771784Y-64254110D01*
X118768207Y-64257120D01*
X118678333Y-64329898D01*
X118634729Y-64373502D01*
X118628547Y-64379284D01*
X118579724Y-64421949D01*
X118577449Y-64424410D01*
X118577446Y-64424413D01*
X118501211Y-64506884D01*
X118497781Y-64510450D01*
X118418298Y-64589933D01*
X118416226Y-64592492D01*
X118416223Y-64592495D01*
X118377488Y-64640329D01*
X118372093Y-64646563D01*
X118328205Y-64694040D01*
X118328198Y-64694049D01*
X118325930Y-64696502D01*
X118258785Y-64786748D01*
X118255648Y-64790789D01*
X118251665Y-64795708D01*
X118188942Y-64873163D01*
X118188936Y-64873171D01*
X118186868Y-64875725D01*
X118185077Y-64878484D01*
X118185069Y-64878494D01*
X118149815Y-64932781D01*
X118145233Y-64939368D01*
X118102748Y-64996470D01*
X118065981Y-65058764D01*
X118047191Y-65090600D01*
X118044357Y-65095174D01*
X117986580Y-65184143D01*
X117985087Y-65187074D01*
X117985086Y-65187075D01*
X117954264Y-65247568D01*
X117950519Y-65254389D01*
X117912705Y-65318455D01*
X117911317Y-65321508D01*
X117868781Y-65415061D01*
X117866347Y-65420113D01*
X117827437Y-65496479D01*
X117819627Y-65511806D01*
X117818448Y-65514878D01*
X117818446Y-65514882D01*
X117792974Y-65581239D01*
X117790052Y-65588216D01*
X117757954Y-65658813D01*
X117739316Y-65715006D01*
X117725543Y-65756529D01*
X117723594Y-65761981D01*
X117687839Y-65855126D01*
X117667760Y-65930060D01*
X117665666Y-65937049D01*
X117640247Y-66013687D01*
X117631226Y-66055236D01*
X117619079Y-66111184D01*
X117617657Y-66117050D01*
X117592659Y-66210341D01*
X117592145Y-66213586D01*
X117592144Y-66213591D01*
X117580033Y-66290061D01*
X117578715Y-66297084D01*
X117560916Y-66379061D01*
X117550568Y-66475097D01*
X117549742Y-66481309D01*
X117536100Y-66567443D01*
X117535131Y-66573559D01*
X117534959Y-66576849D01*
X117530742Y-66657315D01*
X117530190Y-66664215D01*
X117520861Y-66750795D01*
X117520700Y-66756745D01*
X117520700Y-66845630D01*
X117520527Y-66852224D01*
X117515885Y-66940800D01*
X117516058Y-66944101D01*
X117520527Y-67029376D01*
X117520700Y-67035970D01*
X117520700Y-73434842D01*
X117500698Y-73502963D01*
X117483795Y-73523937D01*
X116782229Y-74225503D01*
X116594858Y-74433965D01*
X116375887Y-74737019D01*
X116190358Y-75061627D01*
X116040374Y-75404111D01*
X115966612Y-75637342D01*
X115933100Y-75743307D01*
X115927632Y-75760595D01*
X115915050Y-75822714D01*
X115873705Y-76026850D01*
X115853412Y-76127040D01*
X115853099Y-76130379D01*
X115853098Y-76130388D01*
X115846663Y-76199107D01*
X115818551Y-76499297D01*
X113499924Y-76499297D01*
X113487347Y-76413606D01*
X113473850Y-76321652D01*
X113473849Y-76321649D01*
X113473363Y-76318335D01*
X113443622Y-76202917D01*
X113380903Y-75959522D01*
X113380900Y-75959512D01*
X113380066Y-75956276D01*
X113248822Y-75606181D01*
X113221387Y-75551513D01*
X113149796Y-75408862D01*
X113081119Y-75272016D01*
X113078720Y-75268285D01*
X112880675Y-74960388D01*
X112880673Y-74960385D01*
X112878857Y-74957562D01*
X112766147Y-74817629D01*
X112645912Y-74668354D01*
X112645906Y-74668348D01*
X112644324Y-74666383D01*
X112640231Y-74662062D01*
X111874605Y-73896436D01*
X111840579Y-73834124D01*
X111837700Y-73807341D01*
X111837700Y-67057339D01*
X111837611Y-67055664D01*
X111822964Y-66780778D01*
X111822963Y-66780772D01*
X111822786Y-66777443D01*
X111819453Y-66756745D01*
X111763865Y-66411630D01*
X111763865Y-66411629D01*
X111763331Y-66408315D01*
X111755356Y-66379061D01*
X111665872Y-66050840D01*
X111665872Y-66050839D01*
X111664987Y-66047594D01*
X111566555Y-65795777D01*
X111530093Y-65702497D01*
X111530092Y-65702495D01*
X111528869Y-65699366D01*
X111433042Y-65514891D01*
X111358060Y-65370544D01*
X111358058Y-65370541D01*
X111356517Y-65367574D01*
X111223621Y-65167171D01*
X111151732Y-65058764D01*
X111151731Y-65058762D01*
X111149883Y-65055976D01*
X110911308Y-64768100D01*
X110643492Y-64507205D01*
X110640860Y-64505138D01*
X110640856Y-64505134D01*
X110352107Y-64278319D01*
X110352105Y-64278318D01*
X110349469Y-64276247D01*
X110068847Y-64100554D01*
X110035414Y-64079622D01*
X110035411Y-64079620D01*
X110032569Y-64077841D01*
X109837573Y-63982946D01*
X109699394Y-63915701D01*
X109699390Y-63915699D01*
X109696379Y-63914234D01*
X109344707Y-63787277D01*
X108981536Y-63698410D01*
X108978216Y-63697964D01*
X108614286Y-63649081D01*
X108614277Y-63649080D01*
X108610977Y-63648637D01*
X108479328Y-63645075D01*
X108476194Y-63644950D01*
X108204000Y-63630685D01*
X107836759Y-63649931D01*
X107833519Y-63650444D01*
X107833511Y-63650445D01*
X107674180Y-63675681D01*
X107473541Y-63707459D01*
X107118326Y-63802639D01*
X107115238Y-63803824D01*
X107115236Y-63803825D01*
X107000005Y-63848058D01*
X106775006Y-63934427D01*
X106772066Y-63935925D01*
X106450284Y-64099881D01*
X106450277Y-64099885D01*
X106447343Y-64101380D01*
X106444577Y-64103176D01*
X106444574Y-64103178D01*
X106240482Y-64235716D01*
X106138925Y-64301668D01*
X105853133Y-64533098D01*
X105593098Y-64793133D01*
X105361668Y-65078925D01*
X105351111Y-65095181D01*
X105176029Y-65364786D01*
X105161380Y-65387343D01*
X105159885Y-65390277D01*
X105159881Y-65390284D01*
X105059020Y-65588235D01*
X104994427Y-65715006D01*
X104993243Y-65718091D01*
X104865513Y-66050840D01*
X104862639Y-66058326D01*
X104767459Y-66413541D01*
X104742115Y-66573559D01*
X104712961Y-66757631D01*
X104709931Y-66776759D01*
X104690685Y-67144000D01*
X104709931Y-67511241D01*
X104767459Y-67874459D01*
X104816407Y-68057134D01*
X104820700Y-68089745D01*
X104820700Y-75190587D01*
X104820416Y-75199047D01*
X104818827Y-75222665D01*
X104816062Y-75263744D01*
X104819644Y-75354898D01*
X104820603Y-75379318D01*
X104820700Y-75384265D01*
X104820700Y-75406261D01*
X104824313Y-75474058D01*
X104824394Y-75475791D01*
X104826270Y-75523536D01*
X104830509Y-75631432D01*
X104830741Y-75637342D01*
X104831227Y-75640656D01*
X104831228Y-75640662D01*
X104833460Y-75655866D01*
X104834618Y-75667462D01*
X104835402Y-75682170D01*
X104835614Y-75686157D01*
X104836144Y-75689445D01*
X104836145Y-75689458D01*
X104842417Y-75728397D01*
X104833501Y-75798831D01*
X104820343Y-75821958D01*
X104775065Y-75884969D01*
X104775064Y-75884971D01*
X104772557Y-75888460D01*
X104642880Y-76133376D01*
X104547643Y-76393626D01*
X104488606Y-76664392D01*
X104466863Y-76940666D01*
X102616000Y-76940666D01*
X102616000Y-76088234D01*
X102636002Y-76020113D01*
X102645975Y-76006655D01*
X102663035Y-75986574D01*
X102669965Y-75979058D01*
X102675661Y-75973362D01*
X102677924Y-75970501D01*
X102677929Y-75970496D01*
X102693293Y-75951076D01*
X102696082Y-75947675D01*
X102711310Y-75929750D01*
X102743333Y-75892057D01*
X102746659Y-75885544D01*
X102750020Y-75880505D01*
X102753196Y-75875363D01*
X102757734Y-75869626D01*
X102788655Y-75803467D01*
X102790561Y-75799567D01*
X102800653Y-75779803D01*
X102823769Y-75734534D01*
X102825508Y-75727425D01*
X102827604Y-75721791D01*
X102829523Y-75716021D01*
X102832622Y-75709392D01*
X102834260Y-75701521D01*
X102847490Y-75637913D01*
X102848461Y-75633624D01*
X102865808Y-75562732D01*
X102866500Y-75551578D01*
X102866535Y-75551580D01*
X102866775Y-75547608D01*
X102867152Y-75543387D01*
X102868641Y-75536227D01*
X102866546Y-75458800D01*
X102866500Y-75455392D01*
X102866500Y-69155063D01*
X102867933Y-69136114D01*
X102868606Y-69131690D01*
X102871198Y-69114651D01*
X102870507Y-69106148D01*
X102866915Y-69061991D01*
X102866500Y-69051777D01*
X102866500Y-69043707D01*
X102866078Y-69040087D01*
X102866077Y-69040069D01*
X102863208Y-69015461D01*
X102862775Y-69011086D01*
X102857454Y-68945661D01*
X102857453Y-68945658D01*
X102856860Y-68938363D01*
X102854604Y-68931399D01*
X102853413Y-68925440D01*
X102852029Y-68919585D01*
X102851182Y-68912319D01*
X102826265Y-68843673D01*
X102824848Y-68839545D01*
X102804607Y-68777064D01*
X102804606Y-68777062D01*
X102802351Y-68770101D01*
X102798555Y-68763846D01*
X102796049Y-68758372D01*
X102793330Y-68752942D01*
X102790833Y-68746063D01*
X102750809Y-68685016D01*
X102748472Y-68681312D01*
X102713509Y-68623693D01*
X102713505Y-68623688D01*
X102710595Y-68618892D01*
X102703197Y-68610516D01*
X102703223Y-68610493D01*
X102700574Y-68607503D01*
X102697866Y-68604264D01*
X102693856Y-68598148D01*
X102688549Y-68593121D01*
X102688546Y-68593117D01*
X102637617Y-68544872D01*
X102635175Y-68542494D01*
X97268363Y-63175682D01*
X97234337Y-63113370D01*
X97239402Y-63042555D01*
X97246938Y-63026079D01*
X97249234Y-63021884D01*
X97254615Y-63014705D01*
X97305745Y-62878316D01*
X97312500Y-62816134D01*
X97312500Y-60119866D01*
X97305745Y-60057684D01*
X97254615Y-59921295D01*
X97167261Y-59804739D01*
X97050705Y-59717385D01*
X96914316Y-59666255D01*
X96852134Y-59659500D01*
X94155866Y-59659500D01*
X94093684Y-59666255D01*
X93957295Y-59717385D01*
X93840739Y-59804739D01*
X93753385Y-59921295D01*
X93702255Y-60057684D01*
X93695500Y-60119866D01*
X93695500Y-62816134D01*
X93702255Y-62878316D01*
X93753385Y-63014705D01*
X93840739Y-63131261D01*
X93957295Y-63218615D01*
X94093684Y-63269745D01*
X94155866Y-63276500D01*
X95171629Y-63276500D01*
X95239750Y-63296502D01*
X95260724Y-63313405D01*
X101312595Y-69365276D01*
X101346621Y-69427588D01*
X101349500Y-69454371D01*
X101349500Y-73534000D01*
X101329498Y-73602121D01*
X101275842Y-73648614D01*
X101223500Y-73660000D01*
X98044000Y-73660000D01*
X97569405Y-74134595D01*
X97507093Y-74168621D01*
X97480310Y-74171500D01*
X97404500Y-74171500D01*
X97336379Y-74151498D01*
X97289886Y-74097842D01*
X97278500Y-74045500D01*
X97278500Y-69663070D01*
X97279933Y-69644120D01*
X97282099Y-69629885D01*
X97282099Y-69629881D01*
X97283199Y-69622651D01*
X97278915Y-69569982D01*
X97278500Y-69559767D01*
X97278500Y-69551707D01*
X97275209Y-69523480D01*
X97274778Y-69519121D01*
X97269453Y-69453660D01*
X97268860Y-69446364D01*
X97266605Y-69439403D01*
X97265418Y-69433463D01*
X97264029Y-69427588D01*
X97263182Y-69420319D01*
X97238264Y-69351670D01*
X97236847Y-69347542D01*
X97216607Y-69285064D01*
X97216606Y-69285062D01*
X97214351Y-69278101D01*
X97210555Y-69271846D01*
X97208049Y-69266372D01*
X97205330Y-69260942D01*
X97202833Y-69254063D01*
X97162814Y-69193024D01*
X97160467Y-69189305D01*
X97144080Y-69162300D01*
X97122595Y-69126893D01*
X97115197Y-69118516D01*
X97115224Y-69118492D01*
X97112571Y-69115500D01*
X97109868Y-69112267D01*
X97105856Y-69106148D01*
X97049617Y-69052872D01*
X97047175Y-69050494D01*
X91257744Y-63261063D01*
X91223718Y-63198751D01*
X91228783Y-63127936D01*
X91271330Y-63071100D01*
X91280536Y-63064824D01*
X91486017Y-62937669D01*
X91486021Y-62937666D01*
X91489990Y-62935210D01*
X91695149Y-62761530D01*
X91872382Y-62559434D01*
X92017797Y-62333361D01*
X92128199Y-62088278D01*
X92165209Y-61957051D01*
X92199893Y-61834072D01*
X92199894Y-61834069D01*
X92201163Y-61829568D01*
X92219043Y-61689019D01*
X92234688Y-61566045D01*
X92234688Y-61566041D01*
X92235086Y-61562915D01*
X92237571Y-61468000D01*
X92217650Y-61199937D01*
X92158327Y-60937763D01*
X92060902Y-60687238D01*
X91927518Y-60453864D01*
X91761105Y-60242769D01*
X91565317Y-60058591D01*
X91367407Y-59921295D01*
X91348299Y-59908039D01*
X91348296Y-59908037D01*
X91344457Y-59905374D01*
X91340264Y-59903306D01*
X91107564Y-59788551D01*
X91107561Y-59788550D01*
X91103376Y-59786486D01*
X91055745Y-59771239D01*
X91001621Y-59753914D01*
X90847370Y-59704538D01*
X90842763Y-59703788D01*
X90842760Y-59703787D01*
X90629337Y-59669029D01*
X90582063Y-59661330D01*
X90451719Y-59659624D01*
X90317961Y-59657873D01*
X90317958Y-59657873D01*
X90313284Y-59657812D01*
X90046937Y-59694060D01*
X89788874Y-59769278D01*
X89544763Y-59881815D01*
X89540854Y-59884378D01*
X89323881Y-60026631D01*
X89323876Y-60026635D01*
X89319968Y-60029197D01*
X89119426Y-60208188D01*
X88947544Y-60414854D01*
X88808096Y-60644656D01*
X88704148Y-60892545D01*
X88637981Y-61153077D01*
X88611050Y-61420526D01*
X88623947Y-61689019D01*
X88676388Y-61952656D01*
X88767220Y-62205646D01*
X88894450Y-62442431D01*
X88897241Y-62446168D01*
X88897245Y-62446175D01*
X88978887Y-62555506D01*
X89055281Y-62657810D01*
X89058590Y-62661090D01*
X89058595Y-62661096D01*
X89242863Y-62843762D01*
X89246180Y-62847050D01*
X89249942Y-62849808D01*
X89249945Y-62849811D01*
X89298912Y-62885715D01*
X89462954Y-63005995D01*
X89467090Y-63008171D01*
X89467093Y-63008173D01*
X89493167Y-63021891D01*
X89598169Y-63077136D01*
X89649140Y-63126554D01*
X89665500Y-63188643D01*
X89665500Y-63432930D01*
X89664067Y-63451880D01*
X89660801Y-63473349D01*
X89661394Y-63480641D01*
X89661394Y-63480644D01*
X89665085Y-63526018D01*
X89665500Y-63536233D01*
X89665500Y-63544293D01*
X89665925Y-63547937D01*
X89668789Y-63572507D01*
X89669222Y-63576882D01*
X89673874Y-63634070D01*
X89675140Y-63649637D01*
X89677396Y-63656601D01*
X89678587Y-63662560D01*
X89679971Y-63668415D01*
X89680818Y-63675681D01*
X89705735Y-63744327D01*
X89707152Y-63748455D01*
X89725090Y-63803825D01*
X89729649Y-63817899D01*
X89733445Y-63824154D01*
X89735951Y-63829628D01*
X89738670Y-63835058D01*
X89741167Y-63841937D01*
X89745180Y-63848057D01*
X89745180Y-63848058D01*
X89781186Y-63902976D01*
X89783523Y-63906680D01*
X89821405Y-63969107D01*
X89825121Y-63973315D01*
X89825122Y-63973316D01*
X89828803Y-63977484D01*
X89828776Y-63977508D01*
X89831429Y-63980500D01*
X89834132Y-63983733D01*
X89838144Y-63989852D01*
X89843456Y-63994884D01*
X89894383Y-64043128D01*
X89896825Y-64045506D01*
X95724595Y-69873276D01*
X95758621Y-69935588D01*
X95761500Y-69962371D01*
X95761500Y-74817629D01*
X95741498Y-74885750D01*
X95724595Y-74906724D01*
X95523089Y-75108230D01*
X95508677Y-75120616D01*
X95497082Y-75129149D01*
X95497077Y-75129154D01*
X95491182Y-75133492D01*
X95486443Y-75139070D01*
X95486440Y-75139073D01*
X95456965Y-75173768D01*
X95450035Y-75181284D01*
X95444340Y-75186979D01*
X95442060Y-75189861D01*
X95426719Y-75209251D01*
X95423928Y-75212655D01*
X95381409Y-75262703D01*
X95376667Y-75268285D01*
X95373339Y-75274801D01*
X95369972Y-75279850D01*
X95366805Y-75284979D01*
X95362266Y-75290716D01*
X95331345Y-75356875D01*
X95329442Y-75360769D01*
X95296231Y-75425808D01*
X95294492Y-75432916D01*
X95292393Y-75438559D01*
X95290476Y-75444322D01*
X95287378Y-75450950D01*
X95285888Y-75458112D01*
X95285888Y-75458113D01*
X95281831Y-75477617D01*
X95276752Y-75502039D01*
X95272514Y-75522412D01*
X95271544Y-75526696D01*
X95254192Y-75597610D01*
X95253500Y-75608764D01*
X95253464Y-75608762D01*
X95253225Y-75612755D01*
X95252851Y-75616947D01*
X95251360Y-75624115D01*
X95252375Y-75661643D01*
X95253454Y-75701521D01*
X95253500Y-75704928D01*
X95253500Y-83752930D01*
X95252067Y-83771880D01*
X95248801Y-83793349D01*
X95249394Y-83800641D01*
X95249394Y-83800644D01*
X95253085Y-83846018D01*
X95253500Y-83856233D01*
X95253500Y-83864293D01*
X95253925Y-83867937D01*
X95256789Y-83892507D01*
X95257222Y-83896882D01*
X95263140Y-83969637D01*
X95265396Y-83976601D01*
X95266587Y-83982560D01*
X95267971Y-83988415D01*
X95268818Y-83995681D01*
X95293735Y-84064327D01*
X95295152Y-84068455D01*
X95317649Y-84137899D01*
X95321445Y-84144154D01*
X95323951Y-84149628D01*
X95326670Y-84155058D01*
X95329167Y-84161937D01*
X95333180Y-84168057D01*
X95333180Y-84168058D01*
X95369186Y-84222976D01*
X95371523Y-84226680D01*
X95409405Y-84289107D01*
X95413121Y-84293315D01*
X95413122Y-84293316D01*
X95416803Y-84297484D01*
X95416776Y-84297508D01*
X95419429Y-84300500D01*
X95422132Y-84303733D01*
X95426144Y-84309852D01*
X95431456Y-84314884D01*
X95482383Y-84363128D01*
X95484825Y-84365506D01*
X96991095Y-85871776D01*
X97025121Y-85934088D01*
X97028000Y-85960871D01*
X97028000Y-105047129D01*
X97007998Y-105115250D01*
X96991095Y-105136224D01*
X95523089Y-106604230D01*
X95508677Y-106616616D01*
X95497082Y-106625149D01*
X95497077Y-106625154D01*
X95491182Y-106629492D01*
X95486443Y-106635070D01*
X95486440Y-106635073D01*
X95456965Y-106669768D01*
X95450035Y-106677284D01*
X95444340Y-106682979D01*
X95442060Y-106685861D01*
X95426719Y-106705251D01*
X95423928Y-106708655D01*
X95381409Y-106758703D01*
X95376667Y-106764285D01*
X95373339Y-106770801D01*
X95369972Y-106775850D01*
X95366805Y-106780979D01*
X95362266Y-106786716D01*
X95331345Y-106852875D01*
X95329442Y-106856769D01*
X95296231Y-106921808D01*
X95294492Y-106928916D01*
X95292393Y-106934559D01*
X95290476Y-106940322D01*
X95287378Y-106946950D01*
X95285888Y-106954112D01*
X95285888Y-106954113D01*
X95272514Y-107018412D01*
X95271544Y-107022696D01*
X95254192Y-107093610D01*
X95253500Y-107104764D01*
X95253464Y-107104762D01*
X95253225Y-107108755D01*
X95252851Y-107112947D01*
X95251360Y-107120115D01*
X95251558Y-107127432D01*
X95253454Y-107197521D01*
X95253500Y-107200928D01*
X95253500Y-109132059D01*
X95253001Y-109143260D01*
X95252850Y-109144950D01*
X95251360Y-109152115D01*
X95251558Y-109159430D01*
X95253454Y-109229521D01*
X95253500Y-109232928D01*
X95253500Y-116772930D01*
X95252067Y-116791880D01*
X95248801Y-116813349D01*
X95249394Y-116820641D01*
X95249394Y-116820644D01*
X95253085Y-116866018D01*
X95253500Y-116876233D01*
X95253500Y-116884293D01*
X95253925Y-116887937D01*
X95256789Y-116912507D01*
X95257222Y-116916882D01*
X95263140Y-116989637D01*
X95265396Y-116996601D01*
X95266587Y-117002560D01*
X95267971Y-117008415D01*
X95268818Y-117015681D01*
X95293735Y-117084327D01*
X95295152Y-117088455D01*
X95317649Y-117157899D01*
X95321445Y-117164154D01*
X95323951Y-117169628D01*
X95326670Y-117175058D01*
X95329167Y-117181937D01*
X95333180Y-117188057D01*
X95333180Y-117188058D01*
X95369186Y-117242976D01*
X95371523Y-117246680D01*
X95409405Y-117309107D01*
X95413121Y-117313315D01*
X95413122Y-117313316D01*
X95416803Y-117317484D01*
X95416776Y-117317508D01*
X95419429Y-117320500D01*
X95422132Y-117323733D01*
X95426144Y-117329852D01*
X95445301Y-117348000D01*
X95478433Y-117379386D01*
X95514131Y-117440756D01*
X95517338Y-117460316D01*
X95523268Y-117530934D01*
X95577783Y-117721050D01*
X95668187Y-117896956D01*
X95791035Y-118051953D01*
X95941650Y-118180136D01*
X96114294Y-118276624D01*
X96302392Y-118337740D01*
X96498777Y-118361158D01*
X96504912Y-118360686D01*
X96504914Y-118360686D01*
X96689830Y-118346457D01*
X96689834Y-118346456D01*
X96695972Y-118345984D01*
X96886463Y-118292798D01*
X96891967Y-118290018D01*
X96891969Y-118290017D01*
X97057495Y-118206404D01*
X97057497Y-118206403D01*
X97062996Y-118203625D01*
X97218847Y-118081861D01*
X97348078Y-117932145D01*
X97445769Y-117760179D01*
X97508197Y-117572513D01*
X97532985Y-117376295D01*
X97533380Y-117348000D01*
X97514080Y-117151167D01*
X97456916Y-116961831D01*
X97364066Y-116787204D01*
X97293709Y-116700938D01*
X97242960Y-116638713D01*
X97242957Y-116638710D01*
X97239065Y-116633938D01*
X97111105Y-116528080D01*
X97091425Y-116511799D01*
X97091421Y-116511797D01*
X97086675Y-116507870D01*
X96912701Y-116413802D01*
X96859242Y-116397254D01*
X96800082Y-116358004D01*
X96771534Y-116293000D01*
X96770500Y-116276889D01*
X96770500Y-109586371D01*
X96790502Y-109518250D01*
X96807405Y-109497276D01*
X96812905Y-109491776D01*
X96875217Y-109457750D01*
X96946032Y-109462815D01*
X97002868Y-109505362D01*
X97027679Y-109571882D01*
X97028000Y-109580871D01*
X97028000Y-115824000D01*
X97435273Y-116231273D01*
X97456014Y-116258945D01*
X97458765Y-116266285D01*
X97546119Y-116382841D01*
X97662675Y-116470195D01*
X97670015Y-116472946D01*
X97697687Y-116493687D01*
X98044000Y-116840000D01*
X102616000Y-116840000D01*
X103632000Y-115824000D01*
X103632000Y-112932445D01*
X104464864Y-112932445D01*
X104480832Y-113209386D01*
X104481657Y-113213593D01*
X104481658Y-113213598D01*
X104483247Y-113221696D01*
X104534238Y-113481596D01*
X104535625Y-113485647D01*
X104605311Y-113689184D01*
X104624092Y-113744040D01*
X104748734Y-113991862D01*
X104751160Y-113995391D01*
X104751163Y-113995397D01*
X104903424Y-114216937D01*
X104905855Y-114220474D01*
X104908742Y-114223647D01*
X104908743Y-114223648D01*
X105086005Y-114418457D01*
X105092548Y-114425648D01*
X105175473Y-114494984D01*
X105302068Y-114600834D01*
X105302073Y-114600838D01*
X105305360Y-114603586D01*
X105367536Y-114642589D01*
X105536712Y-114748713D01*
X105536716Y-114748715D01*
X105540352Y-114750996D01*
X105544262Y-114752761D01*
X105544263Y-114752762D01*
X105789263Y-114863384D01*
X105789267Y-114863386D01*
X105793175Y-114865150D01*
X105797294Y-114866370D01*
X106055039Y-114942718D01*
X106055043Y-114942719D01*
X106059152Y-114943936D01*
X106063386Y-114944584D01*
X106063391Y-114944585D01*
X106306450Y-114981778D01*
X106333360Y-114985896D01*
X106474599Y-114988115D01*
X106606435Y-114990186D01*
X106606441Y-114990186D01*
X106610726Y-114990253D01*
X106886117Y-114956927D01*
X107154437Y-114886535D01*
X107410721Y-114780378D01*
X107414726Y-114778038D01*
X107646519Y-114642589D01*
X107646521Y-114642587D01*
X107650227Y-114640422D01*
X107868523Y-114469257D01*
X107910650Y-114425786D01*
X108033895Y-114298606D01*
X108061570Y-114270048D01*
X108097986Y-114220474D01*
X108101664Y-114215467D01*
X108158113Y-114172408D01*
X108228880Y-114166703D01*
X108291497Y-114200164D01*
X108301955Y-114212629D01*
X108302326Y-114212335D01*
X108304990Y-114215695D01*
X108307421Y-114219233D01*
X108493932Y-114424205D01*
X108497221Y-114426955D01*
X108703243Y-114599217D01*
X108703248Y-114599221D01*
X108706535Y-114601969D01*
X108760976Y-114636120D01*
X108937656Y-114746952D01*
X108937660Y-114746954D01*
X108941296Y-114749235D01*
X109193872Y-114863277D01*
X109197992Y-114864497D01*
X109197991Y-114864497D01*
X109455475Y-114940767D01*
X109455479Y-114940768D01*
X109459588Y-114941985D01*
X109463825Y-114942633D01*
X109463828Y-114942634D01*
X109589908Y-114961927D01*
X109733527Y-114983904D01*
X109874602Y-114986120D01*
X110006330Y-114988190D01*
X110006336Y-114988190D01*
X110010621Y-114988257D01*
X110285742Y-114954964D01*
X110483523Y-114903077D01*
X110549657Y-114885727D01*
X110549658Y-114885727D01*
X110553800Y-114884640D01*
X110809833Y-114778588D01*
X110981679Y-114678169D01*
X111045401Y-114640933D01*
X111045402Y-114640932D01*
X111049104Y-114638769D01*
X111267186Y-114467771D01*
X111306740Y-114426955D01*
X111431118Y-114298606D01*
X111460043Y-114268758D01*
X111462576Y-114265310D01*
X111462580Y-114265305D01*
X111621568Y-114048868D01*
X111624106Y-114045413D01*
X111649812Y-113998068D01*
X111754290Y-113805644D01*
X111754291Y-113805642D01*
X111756340Y-113801868D01*
X111854298Y-113542630D01*
X111878984Y-113434847D01*
X111915210Y-113276676D01*
X111915211Y-113276671D01*
X111916167Y-113272496D01*
X111940802Y-112996465D01*
X111941249Y-112953800D01*
X111941080Y-112951320D01*
X111927672Y-112754645D01*
X117340864Y-112754645D01*
X117356832Y-113031586D01*
X117357657Y-113035793D01*
X117357658Y-113035798D01*
X117381749Y-113158586D01*
X117410238Y-113303796D01*
X117411625Y-113307847D01*
X117495763Y-113553595D01*
X117500092Y-113566240D01*
X117624734Y-113814062D01*
X117627160Y-113817591D01*
X117627163Y-113817597D01*
X117749362Y-113995397D01*
X117781855Y-114042674D01*
X117784742Y-114045847D01*
X117784743Y-114045848D01*
X117899173Y-114171606D01*
X117968548Y-114247848D01*
X118051473Y-114317184D01*
X118178068Y-114423034D01*
X118178073Y-114423038D01*
X118181360Y-114425786D01*
X118248290Y-114467771D01*
X118412712Y-114570913D01*
X118412716Y-114570915D01*
X118416352Y-114573196D01*
X118420262Y-114574961D01*
X118420263Y-114574962D01*
X118665263Y-114685584D01*
X118665267Y-114685586D01*
X118669175Y-114687350D01*
X118673294Y-114688570D01*
X118931039Y-114764918D01*
X118931043Y-114764919D01*
X118935152Y-114766136D01*
X118939386Y-114766784D01*
X118939391Y-114766785D01*
X119182450Y-114803978D01*
X119209360Y-114808096D01*
X119350599Y-114810315D01*
X119482435Y-114812386D01*
X119482441Y-114812386D01*
X119486726Y-114812453D01*
X119762117Y-114779127D01*
X120030437Y-114708735D01*
X120286721Y-114602578D01*
X120293488Y-114598624D01*
X120522519Y-114464789D01*
X120522521Y-114464787D01*
X120526227Y-114462622D01*
X120744523Y-114291457D01*
X120788182Y-114246405D01*
X120934587Y-114095326D01*
X120937570Y-114092248D01*
X120974742Y-114041645D01*
X120977664Y-114037667D01*
X121034113Y-113994608D01*
X121104880Y-113988903D01*
X121167497Y-114022364D01*
X121177955Y-114034829D01*
X121178326Y-114034535D01*
X121180990Y-114037895D01*
X121183421Y-114041433D01*
X121369932Y-114246405D01*
X121373221Y-114249155D01*
X121579243Y-114421417D01*
X121579248Y-114421421D01*
X121582535Y-114424169D01*
X121636976Y-114458320D01*
X121813656Y-114569152D01*
X121813660Y-114569154D01*
X121817296Y-114571435D01*
X122069872Y-114685477D01*
X122073992Y-114686697D01*
X122073991Y-114686697D01*
X122331475Y-114762967D01*
X122331479Y-114762968D01*
X122335588Y-114764185D01*
X122339825Y-114764833D01*
X122339828Y-114764834D01*
X122554699Y-114797714D01*
X122609527Y-114806104D01*
X122750602Y-114808320D01*
X122882330Y-114810390D01*
X122882336Y-114810390D01*
X122886621Y-114810457D01*
X123161742Y-114777164D01*
X123343128Y-114729578D01*
X123425657Y-114707927D01*
X123425658Y-114707927D01*
X123429800Y-114706840D01*
X123685833Y-114600788D01*
X123850454Y-114504591D01*
X123921401Y-114463133D01*
X123921402Y-114463132D01*
X123925104Y-114460969D01*
X124143186Y-114289971D01*
X124182740Y-114249155D01*
X124309988Y-114117845D01*
X124336043Y-114090958D01*
X124338576Y-114087510D01*
X124338580Y-114087505D01*
X124497568Y-113871068D01*
X124500106Y-113867613D01*
X124502152Y-113863845D01*
X124630290Y-113627844D01*
X124630291Y-113627842D01*
X124632340Y-113624068D01*
X124730298Y-113364830D01*
X124764935Y-113213598D01*
X124791210Y-113098876D01*
X124791211Y-113098871D01*
X124792167Y-113094696D01*
X124806647Y-112932445D01*
X129864864Y-112932445D01*
X129880832Y-113209386D01*
X129881657Y-113213593D01*
X129881658Y-113213598D01*
X129883247Y-113221696D01*
X129934238Y-113481596D01*
X129935625Y-113485647D01*
X130005311Y-113689184D01*
X130024092Y-113744040D01*
X130148734Y-113991862D01*
X130151160Y-113995391D01*
X130151163Y-113995397D01*
X130303424Y-114216937D01*
X130305855Y-114220474D01*
X130308742Y-114223647D01*
X130308743Y-114223648D01*
X130486005Y-114418457D01*
X130492548Y-114425648D01*
X130575473Y-114494984D01*
X130702068Y-114600834D01*
X130702073Y-114600838D01*
X130705360Y-114603586D01*
X130767536Y-114642589D01*
X130936712Y-114748713D01*
X130936716Y-114748715D01*
X130940352Y-114750996D01*
X130944262Y-114752761D01*
X130944263Y-114752762D01*
X131189263Y-114863384D01*
X131189267Y-114863386D01*
X131193175Y-114865150D01*
X131197294Y-114866370D01*
X131455039Y-114942718D01*
X131455043Y-114942719D01*
X131459152Y-114943936D01*
X131463386Y-114944584D01*
X131463391Y-114944585D01*
X131706450Y-114981778D01*
X131733360Y-114985896D01*
X131874599Y-114988115D01*
X132006435Y-114990186D01*
X132006441Y-114990186D01*
X132010726Y-114990253D01*
X132286117Y-114956927D01*
X132554437Y-114886535D01*
X132810721Y-114780378D01*
X132814726Y-114778038D01*
X133046519Y-114642589D01*
X133046521Y-114642587D01*
X133050227Y-114640422D01*
X133268523Y-114469257D01*
X133310650Y-114425786D01*
X133433895Y-114298606D01*
X133461570Y-114270048D01*
X133497986Y-114220474D01*
X133501664Y-114215467D01*
X133558113Y-114172408D01*
X133628880Y-114166703D01*
X133691497Y-114200164D01*
X133701955Y-114212629D01*
X133702326Y-114212335D01*
X133704990Y-114215695D01*
X133707421Y-114219233D01*
X133893932Y-114424205D01*
X133897221Y-114426955D01*
X134103243Y-114599217D01*
X134103248Y-114599221D01*
X134106535Y-114601969D01*
X134160976Y-114636120D01*
X134337656Y-114746952D01*
X134337660Y-114746954D01*
X134341296Y-114749235D01*
X134593872Y-114863277D01*
X134597992Y-114864497D01*
X134597991Y-114864497D01*
X134855475Y-114940767D01*
X134855479Y-114940768D01*
X134859588Y-114941985D01*
X134863825Y-114942633D01*
X134863828Y-114942634D01*
X134989908Y-114961927D01*
X135133527Y-114983904D01*
X135274602Y-114986120D01*
X135406330Y-114988190D01*
X135406336Y-114988190D01*
X135410621Y-114988257D01*
X135685742Y-114954964D01*
X135883523Y-114903077D01*
X135949657Y-114885727D01*
X135949658Y-114885727D01*
X135953800Y-114884640D01*
X136209833Y-114778588D01*
X136381679Y-114678169D01*
X136445401Y-114640933D01*
X136445402Y-114640932D01*
X136449104Y-114638769D01*
X136667186Y-114467771D01*
X136706740Y-114426955D01*
X136831118Y-114298606D01*
X136860043Y-114268758D01*
X136862576Y-114265310D01*
X136862580Y-114265305D01*
X137021568Y-114048868D01*
X137024106Y-114045413D01*
X137049812Y-113998068D01*
X137154290Y-113805644D01*
X137154291Y-113805642D01*
X137156340Y-113801868D01*
X137254298Y-113542630D01*
X137278984Y-113434847D01*
X137315210Y-113276676D01*
X137315211Y-113276671D01*
X137316167Y-113272496D01*
X137340802Y-112996465D01*
X137341249Y-112953800D01*
X137341080Y-112951320D01*
X137336330Y-112881645D01*
X142896864Y-112881645D01*
X142912832Y-113158586D01*
X142913657Y-113162793D01*
X142913658Y-113162798D01*
X142937749Y-113285586D01*
X142966238Y-113430796D01*
X142967625Y-113434847D01*
X143031990Y-113622842D01*
X143056092Y-113693240D01*
X143058018Y-113697069D01*
X143145531Y-113871068D01*
X143180734Y-113941062D01*
X143183160Y-113944591D01*
X143183163Y-113944597D01*
X143307198Y-114125068D01*
X143337855Y-114169674D01*
X143340742Y-114172847D01*
X143340743Y-114172848D01*
X143455173Y-114298606D01*
X143524548Y-114374848D01*
X143588200Y-114428069D01*
X143734068Y-114550034D01*
X143734073Y-114550038D01*
X143737360Y-114552786D01*
X143818342Y-114603586D01*
X143968712Y-114697913D01*
X143968716Y-114697915D01*
X143972352Y-114700196D01*
X143976262Y-114701961D01*
X143976263Y-114701962D01*
X144221263Y-114812584D01*
X144221267Y-114812586D01*
X144225175Y-114814350D01*
X144229294Y-114815570D01*
X144487039Y-114891918D01*
X144487043Y-114891919D01*
X144491152Y-114893136D01*
X144495386Y-114893784D01*
X144495391Y-114893785D01*
X144738450Y-114930978D01*
X144765360Y-114935096D01*
X144906599Y-114937315D01*
X145038435Y-114939386D01*
X145038441Y-114939386D01*
X145042726Y-114939453D01*
X145318117Y-114906127D01*
X145586437Y-114835735D01*
X145842721Y-114729578D01*
X145849488Y-114725624D01*
X146078519Y-114591789D01*
X146078521Y-114591787D01*
X146082227Y-114589622D01*
X146300523Y-114418457D01*
X146344182Y-114373405D01*
X146445591Y-114268758D01*
X146493570Y-114219248D01*
X146527654Y-114172848D01*
X146533664Y-114164667D01*
X146590113Y-114121608D01*
X146660880Y-114115903D01*
X146723497Y-114149364D01*
X146733955Y-114161829D01*
X146734326Y-114161535D01*
X146736990Y-114164895D01*
X146739421Y-114168433D01*
X146925932Y-114373405D01*
X146929221Y-114376155D01*
X147135243Y-114548417D01*
X147135248Y-114548421D01*
X147138535Y-114551169D01*
X147223102Y-114604218D01*
X147369656Y-114696152D01*
X147369660Y-114696154D01*
X147373296Y-114698435D01*
X147377206Y-114700200D01*
X147377207Y-114700201D01*
X147396108Y-114708735D01*
X147625872Y-114812477D01*
X147629992Y-114813697D01*
X147629991Y-114813697D01*
X147887475Y-114889967D01*
X147887479Y-114889968D01*
X147891588Y-114891185D01*
X147895825Y-114891833D01*
X147895828Y-114891834D01*
X147989233Y-114906127D01*
X148165527Y-114933104D01*
X148306602Y-114935320D01*
X148438330Y-114937390D01*
X148438336Y-114937390D01*
X148442621Y-114937457D01*
X148717742Y-114904164D01*
X148868943Y-114864497D01*
X148981657Y-114834927D01*
X148981658Y-114834927D01*
X148985800Y-114833840D01*
X149241833Y-114727788D01*
X149459805Y-114600415D01*
X149477401Y-114590133D01*
X149477402Y-114590132D01*
X149481104Y-114587969D01*
X149699186Y-114416971D01*
X149738740Y-114376155D01*
X149844911Y-114266594D01*
X149892043Y-114217958D01*
X149894576Y-114214510D01*
X149894580Y-114214505D01*
X150053568Y-113998068D01*
X150056106Y-113994613D01*
X150059680Y-113988031D01*
X150186290Y-113754844D01*
X150186291Y-113754842D01*
X150188340Y-113751068D01*
X150286298Y-113491830D01*
X150335575Y-113276676D01*
X150347210Y-113225876D01*
X150347211Y-113225871D01*
X150348167Y-113221696D01*
X150372802Y-112945665D01*
X150372941Y-112932445D01*
X155390064Y-112932445D01*
X155406032Y-113209386D01*
X155406857Y-113213593D01*
X155406858Y-113213598D01*
X155408447Y-113221696D01*
X155459438Y-113481596D01*
X155460825Y-113485647D01*
X155530511Y-113689184D01*
X155549292Y-113744040D01*
X155673934Y-113991862D01*
X155676360Y-113995391D01*
X155676363Y-113995397D01*
X155828624Y-114216937D01*
X155831055Y-114220474D01*
X155833942Y-114223647D01*
X155833943Y-114223648D01*
X156011205Y-114418457D01*
X156017748Y-114425648D01*
X156100673Y-114494984D01*
X156227268Y-114600834D01*
X156227273Y-114600838D01*
X156230560Y-114603586D01*
X156292736Y-114642589D01*
X156461912Y-114748713D01*
X156461916Y-114748715D01*
X156465552Y-114750996D01*
X156469462Y-114752761D01*
X156469463Y-114752762D01*
X156714463Y-114863384D01*
X156714467Y-114863386D01*
X156718375Y-114865150D01*
X156722494Y-114866370D01*
X156980239Y-114942718D01*
X156980243Y-114942719D01*
X156984352Y-114943936D01*
X156988586Y-114944584D01*
X156988591Y-114944585D01*
X157231650Y-114981778D01*
X157258560Y-114985896D01*
X157399799Y-114988115D01*
X157531635Y-114990186D01*
X157531641Y-114990186D01*
X157535926Y-114990253D01*
X157811317Y-114956927D01*
X158079637Y-114886535D01*
X158335921Y-114780378D01*
X158339926Y-114778038D01*
X158571719Y-114642589D01*
X158571721Y-114642587D01*
X158575427Y-114640422D01*
X158793723Y-114469257D01*
X158835850Y-114425786D01*
X158959095Y-114298606D01*
X158986770Y-114270048D01*
X159023186Y-114220474D01*
X159026864Y-114215467D01*
X159083313Y-114172408D01*
X159154080Y-114166703D01*
X159216697Y-114200164D01*
X159227155Y-114212629D01*
X159227526Y-114212335D01*
X159230190Y-114215695D01*
X159232621Y-114219233D01*
X159419132Y-114424205D01*
X159422421Y-114426955D01*
X159628443Y-114599217D01*
X159628448Y-114599221D01*
X159631735Y-114601969D01*
X159686176Y-114636120D01*
X159862856Y-114746952D01*
X159862860Y-114746954D01*
X159866496Y-114749235D01*
X160119072Y-114863277D01*
X160123192Y-114864497D01*
X160123191Y-114864497D01*
X160380675Y-114940767D01*
X160380679Y-114940768D01*
X160384788Y-114941985D01*
X160389025Y-114942633D01*
X160389028Y-114942634D01*
X160515108Y-114961927D01*
X160658727Y-114983904D01*
X160799802Y-114986120D01*
X160931530Y-114988190D01*
X160931536Y-114988190D01*
X160935821Y-114988257D01*
X161210942Y-114954964D01*
X161408723Y-114903077D01*
X161474857Y-114885727D01*
X161474858Y-114885727D01*
X161479000Y-114884640D01*
X161735033Y-114778588D01*
X161906879Y-114678169D01*
X161970601Y-114640933D01*
X161970602Y-114640932D01*
X161974304Y-114638769D01*
X162192386Y-114467771D01*
X162231940Y-114426955D01*
X162356318Y-114298606D01*
X162385243Y-114268758D01*
X162387776Y-114265310D01*
X162387780Y-114265305D01*
X162546768Y-114048868D01*
X162549306Y-114045413D01*
X162575012Y-113998068D01*
X162679490Y-113805644D01*
X162679491Y-113805642D01*
X162681540Y-113801868D01*
X162779498Y-113542630D01*
X162804184Y-113434847D01*
X162840410Y-113276676D01*
X162840411Y-113276671D01*
X162841367Y-113272496D01*
X162864915Y-113008645D01*
X167964864Y-113008645D01*
X167980832Y-113285586D01*
X167981657Y-113289793D01*
X167981658Y-113289798D01*
X167985199Y-113307847D01*
X168034238Y-113557796D01*
X168035625Y-113561847D01*
X168121977Y-113814062D01*
X168124092Y-113820240D01*
X168126018Y-113824069D01*
X168235448Y-114041645D01*
X168248734Y-114068062D01*
X168251160Y-114071591D01*
X168251163Y-114071597D01*
X168400150Y-114288373D01*
X168405855Y-114296674D01*
X168408742Y-114299847D01*
X168408743Y-114299848D01*
X168475674Y-114373405D01*
X168592548Y-114501848D01*
X168653469Y-114552786D01*
X168802068Y-114677034D01*
X168802073Y-114677038D01*
X168805360Y-114679786D01*
X168887350Y-114731218D01*
X169036712Y-114824913D01*
X169036716Y-114824915D01*
X169040352Y-114827196D01*
X169044262Y-114828961D01*
X169044263Y-114828962D01*
X169289263Y-114939584D01*
X169289267Y-114939586D01*
X169293175Y-114941350D01*
X169339135Y-114954964D01*
X169555039Y-115018918D01*
X169555043Y-115018919D01*
X169559152Y-115020136D01*
X169563386Y-115020784D01*
X169563391Y-115020785D01*
X169806450Y-115057978D01*
X169833360Y-115062096D01*
X169974599Y-115064315D01*
X170106435Y-115066386D01*
X170106441Y-115066386D01*
X170110726Y-115066453D01*
X170386117Y-115033127D01*
X170654437Y-114962735D01*
X170910721Y-114856578D01*
X170917488Y-114852624D01*
X171146519Y-114718789D01*
X171146521Y-114718787D01*
X171150227Y-114716622D01*
X171368523Y-114545457D01*
X171412182Y-114500405D01*
X171496023Y-114413887D01*
X171561570Y-114346248D01*
X171597986Y-114296674D01*
X171601664Y-114291667D01*
X171658113Y-114248608D01*
X171728880Y-114242903D01*
X171791497Y-114276364D01*
X171801955Y-114288829D01*
X171802326Y-114288535D01*
X171804990Y-114291895D01*
X171807421Y-114295433D01*
X171993932Y-114500405D01*
X171997221Y-114503155D01*
X172203243Y-114675417D01*
X172203248Y-114675421D01*
X172206535Y-114678169D01*
X172285634Y-114727788D01*
X172437656Y-114823152D01*
X172437660Y-114823154D01*
X172441296Y-114825435D01*
X172445206Y-114827200D01*
X172445207Y-114827201D01*
X172464108Y-114835735D01*
X172693872Y-114939477D01*
X172742486Y-114953877D01*
X172955475Y-115016967D01*
X172955479Y-115016968D01*
X172959588Y-115018185D01*
X172963825Y-115018833D01*
X172963828Y-115018834D01*
X173057233Y-115033127D01*
X173233527Y-115060104D01*
X173374602Y-115062320D01*
X173506330Y-115064390D01*
X173506336Y-115064390D01*
X173510621Y-115064457D01*
X173785742Y-115031164D01*
X173949293Y-114988257D01*
X174049657Y-114961927D01*
X174049658Y-114961927D01*
X174053800Y-114960840D01*
X174309833Y-114854788D01*
X174463627Y-114764918D01*
X174545401Y-114717133D01*
X174545402Y-114717132D01*
X174549104Y-114714969D01*
X174767186Y-114543971D01*
X174806740Y-114503155D01*
X174929811Y-114376155D01*
X174960043Y-114344958D01*
X174962576Y-114341510D01*
X174962580Y-114341505D01*
X175121568Y-114125068D01*
X175124106Y-114121613D01*
X175142625Y-114087505D01*
X175254290Y-113881844D01*
X175254291Y-113881842D01*
X175256340Y-113878068D01*
X175354298Y-113618830D01*
X175416167Y-113348696D01*
X175440802Y-113072665D01*
X175441249Y-113030000D01*
X175434890Y-112936725D01*
X175422692Y-112757791D01*
X175422691Y-112757785D01*
X175422400Y-112753514D01*
X175417966Y-112732100D01*
X175367071Y-112486340D01*
X175366202Y-112482143D01*
X175273695Y-112220911D01*
X175146590Y-111974650D01*
X175130613Y-111951916D01*
X174989707Y-111751428D01*
X174989706Y-111751427D01*
X174987240Y-111747918D01*
X174798593Y-111544909D01*
X174777572Y-111527703D01*
X174680291Y-111448080D01*
X174584140Y-111369382D01*
X174347849Y-111224583D01*
X174343932Y-111222864D01*
X174343929Y-111222862D01*
X174179356Y-111150620D01*
X174094093Y-111113192D01*
X174089965Y-111112016D01*
X174089962Y-111112015D01*
X173992776Y-111084331D01*
X173827568Y-111037270D01*
X173823326Y-111036666D01*
X173823320Y-111036665D01*
X173557455Y-110998827D01*
X173553204Y-110998222D01*
X173407115Y-110997457D01*
X173280366Y-110996793D01*
X173280360Y-110996793D01*
X173276080Y-110996771D01*
X173271835Y-110997330D01*
X173271833Y-110997330D01*
X173260463Y-110998827D01*
X173001323Y-111032944D01*
X172734017Y-111106070D01*
X172730069Y-111107754D01*
X172483060Y-111213112D01*
X172483056Y-111213114D01*
X172479108Y-111214798D01*
X172375061Y-111277069D01*
X172244996Y-111354911D01*
X172244992Y-111354914D01*
X172241314Y-111357115D01*
X172102022Y-111468709D01*
X172045898Y-111513673D01*
X172025035Y-111530387D01*
X172022078Y-111533503D01*
X172022077Y-111533504D01*
X171837232Y-111728290D01*
X171837227Y-111728297D01*
X171834273Y-111731409D01*
X171826975Y-111741565D01*
X171808214Y-111767673D01*
X171752218Y-111811320D01*
X171681515Y-111817765D01*
X171618551Y-111784962D01*
X171602805Y-111766597D01*
X171591260Y-111750170D01*
X171591259Y-111750169D01*
X171588793Y-111746660D01*
X171399961Y-111543452D01*
X171382201Y-111528915D01*
X171289102Y-111452715D01*
X171185298Y-111367752D01*
X170948776Y-111222811D01*
X170944859Y-111221092D01*
X170944856Y-111221090D01*
X170832966Y-111171974D01*
X170694771Y-111111311D01*
X170690643Y-111110135D01*
X170690640Y-111110134D01*
X170605976Y-111086017D01*
X170427983Y-111035314D01*
X170423741Y-111034710D01*
X170423735Y-111034709D01*
X170157602Y-110996833D01*
X170153351Y-110996228D01*
X170007817Y-110995466D01*
X169880242Y-110994798D01*
X169880236Y-110994798D01*
X169875955Y-110994776D01*
X169871711Y-110995335D01*
X169871707Y-110995335D01*
X169750821Y-111011250D01*
X169600928Y-111030984D01*
X169596788Y-111032117D01*
X169596786Y-111032117D01*
X169531797Y-111049896D01*
X169333359Y-111104182D01*
X169078201Y-111213017D01*
X168974776Y-111274915D01*
X168843855Y-111353269D01*
X168843851Y-111353272D01*
X168840173Y-111355473D01*
X168623682Y-111528915D01*
X168620738Y-111532017D01*
X168620734Y-111532021D01*
X168459994Y-111701406D01*
X168432732Y-111730134D01*
X168270858Y-111955406D01*
X168141054Y-112200563D01*
X168139579Y-112204594D01*
X168067374Y-112401905D01*
X168045723Y-112461068D01*
X167986628Y-112732100D01*
X167986292Y-112736370D01*
X167965629Y-112998930D01*
X167964864Y-113008645D01*
X162864915Y-113008645D01*
X162866002Y-112996465D01*
X162866449Y-112953800D01*
X162866280Y-112951320D01*
X162847892Y-112681591D01*
X162847891Y-112681585D01*
X162847600Y-112677314D01*
X162843166Y-112655900D01*
X162811665Y-112503791D01*
X162791402Y-112405943D01*
X162698895Y-112144711D01*
X162571790Y-111898450D01*
X162555813Y-111875716D01*
X162414907Y-111675228D01*
X162414906Y-111675227D01*
X162412440Y-111671718D01*
X162223793Y-111468709D01*
X162202772Y-111451503D01*
X162012658Y-111295898D01*
X162009340Y-111293182D01*
X161773049Y-111148383D01*
X161769132Y-111146664D01*
X161769129Y-111146662D01*
X161635032Y-111087798D01*
X161519293Y-111036992D01*
X161515165Y-111035816D01*
X161515162Y-111035815D01*
X161378314Y-110996833D01*
X161252768Y-110961070D01*
X161248526Y-110960466D01*
X161248520Y-110960465D01*
X160982655Y-110922627D01*
X160978404Y-110922022D01*
X160832315Y-110921257D01*
X160705566Y-110920593D01*
X160705560Y-110920593D01*
X160701280Y-110920571D01*
X160697035Y-110921130D01*
X160697033Y-110921130D01*
X160685663Y-110922627D01*
X160426523Y-110956744D01*
X160159217Y-111029870D01*
X160147872Y-111034709D01*
X159908260Y-111136912D01*
X159908256Y-111136914D01*
X159904308Y-111138598D01*
X159887182Y-111148848D01*
X159670196Y-111278711D01*
X159670192Y-111278714D01*
X159666514Y-111280915D01*
X159450235Y-111454187D01*
X159447278Y-111457303D01*
X159447277Y-111457304D01*
X159262432Y-111652090D01*
X159262427Y-111652097D01*
X159259473Y-111655209D01*
X159256967Y-111658697D01*
X159233414Y-111691473D01*
X159177418Y-111735120D01*
X159106715Y-111741565D01*
X159043751Y-111708762D01*
X159028005Y-111690397D01*
X159016460Y-111673970D01*
X159016459Y-111673969D01*
X159013993Y-111670460D01*
X158837841Y-111480897D01*
X158828078Y-111470391D01*
X158828077Y-111470390D01*
X158825161Y-111467252D01*
X158807401Y-111452715D01*
X158685901Y-111353269D01*
X158610498Y-111291552D01*
X158373976Y-111146611D01*
X158370059Y-111144892D01*
X158370056Y-111144890D01*
X158236155Y-111086112D01*
X158119971Y-111035111D01*
X158115843Y-111033935D01*
X158115840Y-111033934D01*
X158033866Y-111010583D01*
X157853183Y-110959114D01*
X157848941Y-110958510D01*
X157848935Y-110958509D01*
X157582802Y-110920633D01*
X157578551Y-110920028D01*
X157433017Y-110919266D01*
X157305442Y-110918598D01*
X157305436Y-110918598D01*
X157301155Y-110918576D01*
X157296911Y-110919135D01*
X157296907Y-110919135D01*
X157176021Y-110935050D01*
X157026128Y-110954784D01*
X157021988Y-110955917D01*
X157021986Y-110955917D01*
X156974667Y-110968862D01*
X156758559Y-111027982D01*
X156503401Y-111136817D01*
X156484076Y-111148383D01*
X156269055Y-111277069D01*
X156269051Y-111277072D01*
X156265373Y-111279273D01*
X156048882Y-111452715D01*
X156045938Y-111455817D01*
X156045934Y-111455821D01*
X155889263Y-111620918D01*
X155857932Y-111653934D01*
X155696058Y-111879206D01*
X155566254Y-112124363D01*
X155470923Y-112384868D01*
X155411828Y-112655900D01*
X155390064Y-112932445D01*
X150372941Y-112932445D01*
X150373249Y-112903000D01*
X150367331Y-112816191D01*
X150354692Y-112630791D01*
X150354691Y-112630785D01*
X150354400Y-112626514D01*
X150349966Y-112605100D01*
X150299071Y-112359340D01*
X150298202Y-112355143D01*
X150205695Y-112093911D01*
X150078590Y-111847650D01*
X150062613Y-111824916D01*
X149921707Y-111624428D01*
X149921706Y-111624427D01*
X149919240Y-111620918D01*
X149765823Y-111455821D01*
X149733510Y-111421048D01*
X149733509Y-111421047D01*
X149730593Y-111417909D01*
X149709572Y-111400703D01*
X149581524Y-111295898D01*
X149516140Y-111242382D01*
X149279849Y-111097583D01*
X149275932Y-111095864D01*
X149275929Y-111095862D01*
X149130713Y-111032117D01*
X149026093Y-110986192D01*
X149021965Y-110985016D01*
X149021962Y-110985015D01*
X148930695Y-110959017D01*
X148759568Y-110910270D01*
X148755326Y-110909666D01*
X148755320Y-110909665D01*
X148489455Y-110871827D01*
X148485204Y-110871222D01*
X148339115Y-110870457D01*
X148212366Y-110869793D01*
X148212360Y-110869793D01*
X148208080Y-110869771D01*
X148203835Y-110870330D01*
X148203833Y-110870330D01*
X148192463Y-110871827D01*
X147933323Y-110905944D01*
X147666017Y-110979070D01*
X147662069Y-110980754D01*
X147415060Y-111086112D01*
X147415056Y-111086114D01*
X147411108Y-111087798D01*
X147312839Y-111146611D01*
X147176996Y-111227911D01*
X147176992Y-111227914D01*
X147173314Y-111230115D01*
X146957035Y-111403387D01*
X146954078Y-111406503D01*
X146954077Y-111406504D01*
X146769232Y-111601290D01*
X146769227Y-111601297D01*
X146766273Y-111604409D01*
X146763767Y-111607897D01*
X146740214Y-111640673D01*
X146684218Y-111684320D01*
X146613515Y-111690765D01*
X146550551Y-111657962D01*
X146534805Y-111639597D01*
X146523260Y-111623170D01*
X146523259Y-111623169D01*
X146520793Y-111619660D01*
X146331961Y-111416452D01*
X146314201Y-111401915D01*
X146166367Y-111280915D01*
X146117298Y-111240752D01*
X145880776Y-111095811D01*
X145876859Y-111094092D01*
X145876856Y-111094090D01*
X145731820Y-111030424D01*
X145626771Y-110984311D01*
X145622643Y-110983135D01*
X145622640Y-110983134D01*
X145533978Y-110957878D01*
X145359983Y-110908314D01*
X145355741Y-110907710D01*
X145355735Y-110907709D01*
X145089602Y-110869833D01*
X145085351Y-110869228D01*
X144939817Y-110868466D01*
X144812242Y-110867798D01*
X144812236Y-110867798D01*
X144807955Y-110867776D01*
X144803711Y-110868335D01*
X144803707Y-110868335D01*
X144682821Y-110884250D01*
X144532928Y-110903984D01*
X144528788Y-110905117D01*
X144528786Y-110905117D01*
X144472296Y-110920571D01*
X144265359Y-110977182D01*
X144010201Y-111086017D01*
X143902257Y-111150620D01*
X143775855Y-111226269D01*
X143775851Y-111226272D01*
X143772173Y-111228473D01*
X143555682Y-111401915D01*
X143552738Y-111405017D01*
X143552734Y-111405021D01*
X143367682Y-111600025D01*
X143364732Y-111603134D01*
X143202858Y-111828406D01*
X143073054Y-112073563D01*
X142977723Y-112334068D01*
X142918628Y-112605100D01*
X142914630Y-112655900D01*
X142901627Y-112821130D01*
X142896864Y-112881645D01*
X137336330Y-112881645D01*
X137322692Y-112681591D01*
X137322691Y-112681585D01*
X137322400Y-112677314D01*
X137317966Y-112655900D01*
X137286465Y-112503791D01*
X137266202Y-112405943D01*
X137173695Y-112144711D01*
X137046590Y-111898450D01*
X137030613Y-111875716D01*
X136889707Y-111675228D01*
X136889706Y-111675227D01*
X136887240Y-111671718D01*
X136698593Y-111468709D01*
X136677572Y-111451503D01*
X136487458Y-111295898D01*
X136484140Y-111293182D01*
X136247849Y-111148383D01*
X136243932Y-111146664D01*
X136243929Y-111146662D01*
X136109832Y-111087798D01*
X135994093Y-111036992D01*
X135989965Y-111035816D01*
X135989962Y-111035815D01*
X135853114Y-110996833D01*
X135727568Y-110961070D01*
X135723326Y-110960466D01*
X135723320Y-110960465D01*
X135457455Y-110922627D01*
X135453204Y-110922022D01*
X135307115Y-110921257D01*
X135180366Y-110920593D01*
X135180360Y-110920593D01*
X135176080Y-110920571D01*
X135171835Y-110921130D01*
X135171833Y-110921130D01*
X135160463Y-110922627D01*
X134901323Y-110956744D01*
X134634017Y-111029870D01*
X134622672Y-111034709D01*
X134383060Y-111136912D01*
X134383056Y-111136914D01*
X134379108Y-111138598D01*
X134361982Y-111148848D01*
X134144996Y-111278711D01*
X134144992Y-111278714D01*
X134141314Y-111280915D01*
X133925035Y-111454187D01*
X133922078Y-111457303D01*
X133922077Y-111457304D01*
X133737232Y-111652090D01*
X133737227Y-111652097D01*
X133734273Y-111655209D01*
X133731767Y-111658697D01*
X133708214Y-111691473D01*
X133652218Y-111735120D01*
X133581515Y-111741565D01*
X133518551Y-111708762D01*
X133502805Y-111690397D01*
X133491260Y-111673970D01*
X133491259Y-111673969D01*
X133488793Y-111670460D01*
X133312641Y-111480897D01*
X133302878Y-111470391D01*
X133302877Y-111470390D01*
X133299961Y-111467252D01*
X133282201Y-111452715D01*
X133160701Y-111353269D01*
X133085298Y-111291552D01*
X132848776Y-111146611D01*
X132844859Y-111144892D01*
X132844856Y-111144890D01*
X132710955Y-111086112D01*
X132594771Y-111035111D01*
X132590643Y-111033935D01*
X132590640Y-111033934D01*
X132508666Y-111010583D01*
X132327983Y-110959114D01*
X132323741Y-110958510D01*
X132323735Y-110958509D01*
X132057602Y-110920633D01*
X132053351Y-110920028D01*
X131907817Y-110919266D01*
X131780242Y-110918598D01*
X131780236Y-110918598D01*
X131775955Y-110918576D01*
X131771711Y-110919135D01*
X131771707Y-110919135D01*
X131650821Y-110935050D01*
X131500928Y-110954784D01*
X131496788Y-110955917D01*
X131496786Y-110955917D01*
X131449467Y-110968862D01*
X131233359Y-111027982D01*
X130978201Y-111136817D01*
X130958876Y-111148383D01*
X130743855Y-111277069D01*
X130743851Y-111277072D01*
X130740173Y-111279273D01*
X130523682Y-111452715D01*
X130520738Y-111455817D01*
X130520734Y-111455821D01*
X130364063Y-111620918D01*
X130332732Y-111653934D01*
X130170858Y-111879206D01*
X130041054Y-112124363D01*
X129945723Y-112384868D01*
X129886628Y-112655900D01*
X129864864Y-112932445D01*
X124806647Y-112932445D01*
X124816802Y-112818665D01*
X124817249Y-112776000D01*
X124810235Y-112673117D01*
X124798692Y-112503791D01*
X124798691Y-112503785D01*
X124798400Y-112499514D01*
X124793967Y-112478105D01*
X124743071Y-112232340D01*
X124742202Y-112228143D01*
X124649695Y-111966911D01*
X124522590Y-111720650D01*
X124506613Y-111697916D01*
X124365707Y-111497428D01*
X124365706Y-111497427D01*
X124363240Y-111493918D01*
X124174593Y-111290909D01*
X124165660Y-111283597D01*
X124046767Y-111186285D01*
X123960140Y-111115382D01*
X123723849Y-110970583D01*
X123719932Y-110968864D01*
X123719929Y-110968862D01*
X123497498Y-110871222D01*
X123470093Y-110859192D01*
X123465965Y-110858016D01*
X123465962Y-110858015D01*
X123383917Y-110834644D01*
X123203568Y-110783270D01*
X123199326Y-110782666D01*
X123199320Y-110782665D01*
X122933455Y-110744827D01*
X122929204Y-110744222D01*
X122783115Y-110743457D01*
X122656366Y-110742793D01*
X122656360Y-110742793D01*
X122652080Y-110742771D01*
X122647835Y-110743330D01*
X122647833Y-110743330D01*
X122636463Y-110744827D01*
X122377323Y-110778944D01*
X122110017Y-110852070D01*
X122106069Y-110853754D01*
X121859060Y-110959112D01*
X121859056Y-110959114D01*
X121855108Y-110960798D01*
X121744743Y-111026850D01*
X121620996Y-111100911D01*
X121620992Y-111100914D01*
X121617314Y-111103115D01*
X121401035Y-111276387D01*
X121398078Y-111279503D01*
X121398077Y-111279504D01*
X121213232Y-111474290D01*
X121213227Y-111474297D01*
X121210273Y-111477409D01*
X121207767Y-111480897D01*
X121184214Y-111513673D01*
X121128218Y-111557320D01*
X121057515Y-111563765D01*
X120994551Y-111530962D01*
X120978805Y-111512597D01*
X120967260Y-111496170D01*
X120967259Y-111496169D01*
X120964793Y-111492660D01*
X120775961Y-111289452D01*
X120766802Y-111281955D01*
X120587418Y-111135131D01*
X120561298Y-111113752D01*
X120324776Y-110968811D01*
X120320859Y-110967092D01*
X120320856Y-110967090D01*
X120100429Y-110870330D01*
X120070771Y-110857311D01*
X120066643Y-110856135D01*
X120066640Y-110856134D01*
X119984666Y-110832783D01*
X119803983Y-110781314D01*
X119799741Y-110780710D01*
X119799735Y-110780709D01*
X119533602Y-110742833D01*
X119529351Y-110742228D01*
X119383817Y-110741466D01*
X119256242Y-110740798D01*
X119256236Y-110740798D01*
X119251955Y-110740776D01*
X119247711Y-110741335D01*
X119247707Y-110741335D01*
X119126821Y-110757250D01*
X118976928Y-110776984D01*
X118972788Y-110778117D01*
X118972786Y-110778117D01*
X118900280Y-110797952D01*
X118709359Y-110850182D01*
X118454201Y-110959017D01*
X118388731Y-110998200D01*
X118219855Y-111099269D01*
X118219851Y-111099272D01*
X118216173Y-111101473D01*
X117999682Y-111274915D01*
X117996738Y-111278017D01*
X117996734Y-111278021D01*
X117815778Y-111468709D01*
X117808732Y-111476134D01*
X117646858Y-111701406D01*
X117517054Y-111946563D01*
X117471968Y-112069766D01*
X117443064Y-112148752D01*
X117421723Y-112207068D01*
X117362628Y-112478100D01*
X117340864Y-112754645D01*
X111927672Y-112754645D01*
X111922692Y-112681591D01*
X111922691Y-112681585D01*
X111922400Y-112677314D01*
X111917966Y-112655900D01*
X111886465Y-112503791D01*
X111866202Y-112405943D01*
X111773695Y-112144711D01*
X111646590Y-111898450D01*
X111630613Y-111875716D01*
X111489707Y-111675228D01*
X111489706Y-111675227D01*
X111487240Y-111671718D01*
X111298593Y-111468709D01*
X111277572Y-111451503D01*
X111087458Y-111295898D01*
X111084140Y-111293182D01*
X110847849Y-111148383D01*
X110843932Y-111146664D01*
X110843929Y-111146662D01*
X110709832Y-111087798D01*
X110594093Y-111036992D01*
X110589965Y-111035816D01*
X110589962Y-111035815D01*
X110453114Y-110996833D01*
X110327568Y-110961070D01*
X110323326Y-110960466D01*
X110323320Y-110960465D01*
X110057455Y-110922627D01*
X110053204Y-110922022D01*
X109907115Y-110921257D01*
X109780366Y-110920593D01*
X109780360Y-110920593D01*
X109776080Y-110920571D01*
X109771835Y-110921130D01*
X109771833Y-110921130D01*
X109760463Y-110922627D01*
X109501323Y-110956744D01*
X109234017Y-111029870D01*
X109222672Y-111034709D01*
X108983060Y-111136912D01*
X108983056Y-111136914D01*
X108979108Y-111138598D01*
X108961982Y-111148848D01*
X108744996Y-111278711D01*
X108744992Y-111278714D01*
X108741314Y-111280915D01*
X108525035Y-111454187D01*
X108522078Y-111457303D01*
X108522077Y-111457304D01*
X108337232Y-111652090D01*
X108337227Y-111652097D01*
X108334273Y-111655209D01*
X108331767Y-111658697D01*
X108308214Y-111691473D01*
X108252218Y-111735120D01*
X108181515Y-111741565D01*
X108118551Y-111708762D01*
X108102805Y-111690397D01*
X108091260Y-111673970D01*
X108091259Y-111673969D01*
X108088793Y-111670460D01*
X107912641Y-111480897D01*
X107902878Y-111470391D01*
X107902877Y-111470390D01*
X107899961Y-111467252D01*
X107882201Y-111452715D01*
X107760701Y-111353269D01*
X107685298Y-111291552D01*
X107448776Y-111146611D01*
X107444859Y-111144892D01*
X107444856Y-111144890D01*
X107310955Y-111086112D01*
X107194771Y-111035111D01*
X107190643Y-111033935D01*
X107190640Y-111033934D01*
X107108666Y-111010583D01*
X106927983Y-110959114D01*
X106923741Y-110958510D01*
X106923735Y-110958509D01*
X106657602Y-110920633D01*
X106653351Y-110920028D01*
X106507817Y-110919266D01*
X106380242Y-110918598D01*
X106380236Y-110918598D01*
X106375955Y-110918576D01*
X106371711Y-110919135D01*
X106371707Y-110919135D01*
X106250821Y-110935050D01*
X106100928Y-110954784D01*
X106096788Y-110955917D01*
X106096786Y-110955917D01*
X106049467Y-110968862D01*
X105833359Y-111027982D01*
X105578201Y-111136817D01*
X105558876Y-111148383D01*
X105343855Y-111277069D01*
X105343851Y-111277072D01*
X105340173Y-111279273D01*
X105123682Y-111452715D01*
X105120738Y-111455817D01*
X105120734Y-111455821D01*
X104964063Y-111620918D01*
X104932732Y-111653934D01*
X104770858Y-111879206D01*
X104641054Y-112124363D01*
X104545723Y-112384868D01*
X104486628Y-112655900D01*
X104464864Y-112932445D01*
X103632000Y-112932445D01*
X103632000Y-111304190D01*
X103652002Y-111236069D01*
X103668905Y-111215095D01*
X105664000Y-109220000D01*
X105664000Y-104192190D01*
X105684002Y-104124069D01*
X105700905Y-104103095D01*
X106135095Y-103668905D01*
X106197407Y-103634879D01*
X106224190Y-103632000D01*
X182319810Y-103632000D01*
X182387931Y-103652002D01*
X182408905Y-103668905D01*
X182842595Y-104102595D01*
X182876621Y-104164907D01*
X182879500Y-104191690D01*
X182879500Y-130093176D01*
X182859498Y-130161297D01*
X182805842Y-130207790D01*
X182735568Y-130217894D01*
X182676420Y-130191139D01*
X182675669Y-130192129D01*
X182672777Y-130189933D01*
X182670019Y-130187578D01*
X182667016Y-130185560D01*
X182667008Y-130185554D01*
X182439101Y-130032408D01*
X182382047Y-129994069D01*
X182073741Y-129834940D01*
X181749189Y-129712302D01*
X181745668Y-129711418D01*
X181745663Y-129711416D01*
X181570056Y-129667307D01*
X181412692Y-129627780D01*
X181372108Y-129622437D01*
X181072315Y-129582968D01*
X181072307Y-129582967D01*
X181068711Y-129582494D01*
X180924045Y-129580221D01*
X180725446Y-129577101D01*
X180725442Y-129577101D01*
X180721804Y-129577044D01*
X180718190Y-129577405D01*
X180718184Y-129577405D01*
X180474843Y-129601694D01*
X180376569Y-129611503D01*
X180037583Y-129685414D01*
X180034156Y-129686587D01*
X180034150Y-129686589D01*
X179712765Y-129796624D01*
X179709339Y-129797797D01*
X179396188Y-129947163D01*
X179102279Y-130131532D01*
X179099443Y-130133804D01*
X179099436Y-130133809D01*
X178979455Y-130229932D01*
X178831509Y-130348459D01*
X178587466Y-130595071D01*
X178373386Y-130868098D01*
X178192105Y-131163921D01*
X178046027Y-131478620D01*
X177937087Y-131808023D01*
X177936351Y-131811578D01*
X177936350Y-131811581D01*
X177867465Y-132144214D01*
X177866730Y-132147764D01*
X177835888Y-132493341D01*
X177844970Y-132840171D01*
X177893856Y-133183660D01*
X177981897Y-133519253D01*
X178107927Y-133842503D01*
X178270275Y-134149126D01*
X178272325Y-134152109D01*
X178272327Y-134152112D01*
X178457908Y-134422133D01*
X178480008Y-134489602D01*
X178462123Y-134558309D01*
X178409931Y-134606440D01*
X178354068Y-134619500D01*
X81264984Y-134619500D01*
X81196863Y-134599498D01*
X81150370Y-134545842D01*
X81140266Y-134475568D01*
X81159672Y-134424323D01*
X81347866Y-134137825D01*
X81347871Y-134137816D01*
X81349853Y-134134799D01*
X81495251Y-133845708D01*
X81504117Y-133828080D01*
X81504120Y-133828072D01*
X81505744Y-133824844D01*
X81624977Y-133499026D01*
X81625822Y-133495504D01*
X81625825Y-133495496D01*
X81705124Y-133165191D01*
X81705125Y-133165187D01*
X81705971Y-133161662D01*
X81744441Y-132843762D01*
X81747316Y-132820004D01*
X81747316Y-132819997D01*
X81747652Y-132817225D01*
X81753599Y-132628000D01*
X81733627Y-132281626D01*
X81673976Y-131939842D01*
X81575437Y-131607180D01*
X81520602Y-131478620D01*
X81440740Y-131291386D01*
X81440738Y-131291383D01*
X81439316Y-131288048D01*
X81370392Y-131167210D01*
X81269208Y-130989816D01*
X81267417Y-130986676D01*
X81062018Y-130707060D01*
X80825842Y-130452904D01*
X80562019Y-130227578D01*
X80274047Y-130034069D01*
X80193331Y-129992408D01*
X79968961Y-129876602D01*
X79965741Y-129874940D01*
X79641189Y-129752302D01*
X79637668Y-129751418D01*
X79637663Y-129751416D01*
X79476378Y-129710904D01*
X79304692Y-129667780D01*
X79282476Y-129664855D01*
X78964315Y-129622968D01*
X78964307Y-129622967D01*
X78960711Y-129622494D01*
X78816045Y-129620221D01*
X78617446Y-129617101D01*
X78617442Y-129617101D01*
X78613804Y-129617044D01*
X78610190Y-129617405D01*
X78610184Y-129617405D01*
X78366843Y-129641694D01*
X78268569Y-129651503D01*
X78030465Y-129703418D01*
X77993784Y-129711416D01*
X77929583Y-129725414D01*
X77926156Y-129726587D01*
X77926150Y-129726589D01*
X77718169Y-129797797D01*
X77601339Y-129837797D01*
X77288188Y-129987163D01*
X76994279Y-130171532D01*
X76945406Y-130210686D01*
X76913280Y-130236424D01*
X76847611Y-130263406D01*
X76777778Y-130250601D01*
X76725955Y-130202074D01*
X76708500Y-130138090D01*
X76708500Y-122815800D01*
X104815885Y-122815800D01*
X104835131Y-123183041D01*
X104892659Y-123546259D01*
X104987839Y-123901474D01*
X104989024Y-123904562D01*
X104989025Y-123904564D01*
X105039102Y-124035018D01*
X105119627Y-124244794D01*
X105121125Y-124247734D01*
X105194488Y-124391716D01*
X105286580Y-124572457D01*
X105288376Y-124575223D01*
X105288378Y-124575226D01*
X105337863Y-124651426D01*
X105486868Y-124880875D01*
X105718298Y-125166667D01*
X105978333Y-125426702D01*
X106264125Y-125658132D01*
X106572542Y-125858420D01*
X106575476Y-125859915D01*
X106575483Y-125859919D01*
X106809902Y-125979361D01*
X106900206Y-126025373D01*
X107094812Y-126100075D01*
X107228297Y-126151315D01*
X107243526Y-126157161D01*
X107598741Y-126252341D01*
X107791758Y-126282912D01*
X107958711Y-126309355D01*
X107958719Y-126309356D01*
X107961959Y-126309869D01*
X108329200Y-126329115D01*
X108696441Y-126309869D01*
X108699681Y-126309356D01*
X108699689Y-126309355D01*
X108866642Y-126282912D01*
X109059659Y-126252341D01*
X109414874Y-126157161D01*
X109430104Y-126151315D01*
X109563588Y-126100075D01*
X109758194Y-126025373D01*
X109848498Y-125979361D01*
X110082917Y-125859919D01*
X110082924Y-125859915D01*
X110085858Y-125858420D01*
X110394275Y-125658132D01*
X110680067Y-125426702D01*
X110940102Y-125166667D01*
X111171532Y-124880875D01*
X111320537Y-124651426D01*
X111370022Y-124575226D01*
X111370024Y-124575223D01*
X111371820Y-124572457D01*
X111463913Y-124391716D01*
X111537275Y-124247734D01*
X111538773Y-124244794D01*
X111619298Y-124035018D01*
X111669375Y-123904564D01*
X111669376Y-123904562D01*
X111670561Y-123901474D01*
X111765741Y-123546259D01*
X111823269Y-123183041D01*
X111840827Y-122848000D01*
X117644685Y-122848000D01*
X117663931Y-123215241D01*
X117664444Y-123218481D01*
X117664445Y-123218489D01*
X117670900Y-123259241D01*
X117721459Y-123578459D01*
X117816639Y-123933674D01*
X117948427Y-124276994D01*
X117949925Y-124279934D01*
X118097475Y-124569516D01*
X118115380Y-124604657D01*
X118315668Y-124913075D01*
X118547098Y-125198867D01*
X118807133Y-125458902D01*
X119092925Y-125690332D01*
X119095700Y-125692134D01*
X119354067Y-125859919D01*
X119401342Y-125890620D01*
X119404276Y-125892115D01*
X119404283Y-125892119D01*
X119726066Y-126056075D01*
X119729006Y-126057573D01*
X120072326Y-126189361D01*
X120427541Y-126284541D01*
X120584211Y-126309355D01*
X120787511Y-126341555D01*
X120787519Y-126341556D01*
X120790759Y-126342069D01*
X121158000Y-126361315D01*
X121525241Y-126342069D01*
X121528481Y-126341556D01*
X121528489Y-126341555D01*
X121731789Y-126309355D01*
X121888459Y-126284541D01*
X122243674Y-126189361D01*
X122586994Y-126057573D01*
X122589934Y-126056075D01*
X122911717Y-125892119D01*
X122911724Y-125892115D01*
X122914658Y-125890620D01*
X122961934Y-125859919D01*
X123220300Y-125692134D01*
X123223075Y-125690332D01*
X123508867Y-125458902D01*
X123768902Y-125198867D01*
X124000332Y-124913075D01*
X124200620Y-124604657D01*
X124218526Y-124569516D01*
X124366075Y-124279934D01*
X124367573Y-124276994D01*
X124499361Y-123933674D01*
X124594541Y-123578459D01*
X124645100Y-123259241D01*
X124651555Y-123218489D01*
X124651556Y-123218481D01*
X124652069Y-123215241D01*
X124671315Y-122848000D01*
X124669627Y-122815800D01*
X130215885Y-122815800D01*
X130235131Y-123183041D01*
X130292659Y-123546259D01*
X130387839Y-123901474D01*
X130389024Y-123904562D01*
X130389025Y-123904564D01*
X130439102Y-124035018D01*
X130519627Y-124244794D01*
X130521125Y-124247734D01*
X130594488Y-124391716D01*
X130686580Y-124572457D01*
X130688376Y-124575223D01*
X130688378Y-124575226D01*
X130737863Y-124651426D01*
X130886868Y-124880875D01*
X131118298Y-125166667D01*
X131378333Y-125426702D01*
X131664125Y-125658132D01*
X131972542Y-125858420D01*
X131975476Y-125859915D01*
X131975483Y-125859919D01*
X132209902Y-125979361D01*
X132300206Y-126025373D01*
X132494812Y-126100075D01*
X132628297Y-126151315D01*
X132643526Y-126157161D01*
X132998741Y-126252341D01*
X133191758Y-126282912D01*
X133358711Y-126309355D01*
X133358719Y-126309356D01*
X133361959Y-126309869D01*
X133729200Y-126329115D01*
X134096441Y-126309869D01*
X134099681Y-126309356D01*
X134099689Y-126309355D01*
X134266642Y-126282912D01*
X134459659Y-126252341D01*
X134814874Y-126157161D01*
X134830104Y-126151315D01*
X134963588Y-126100075D01*
X135158194Y-126025373D01*
X135248498Y-125979361D01*
X135482917Y-125859919D01*
X135482924Y-125859915D01*
X135485858Y-125858420D01*
X135794275Y-125658132D01*
X136080067Y-125426702D01*
X136340102Y-125166667D01*
X136571532Y-124880875D01*
X136720537Y-124651426D01*
X136770022Y-124575226D01*
X136770024Y-124575223D01*
X136771820Y-124572457D01*
X136863913Y-124391716D01*
X136937275Y-124247734D01*
X136938773Y-124244794D01*
X137019298Y-124035018D01*
X137069375Y-123904564D01*
X137069376Y-123904562D01*
X137070561Y-123901474D01*
X137165741Y-123546259D01*
X137223269Y-123183041D01*
X137238522Y-122892000D01*
X142790685Y-122892000D01*
X142809931Y-123259241D01*
X142867459Y-123622459D01*
X142962639Y-123977674D01*
X143094427Y-124320994D01*
X143095925Y-124323934D01*
X143240372Y-124607426D01*
X143261380Y-124648657D01*
X143461668Y-124957075D01*
X143693098Y-125242867D01*
X143953133Y-125502902D01*
X144238925Y-125734332D01*
X144547342Y-125934620D01*
X144550276Y-125936115D01*
X144550283Y-125936119D01*
X144821953Y-126074541D01*
X144875006Y-126101573D01*
X145218326Y-126233361D01*
X145573541Y-126328541D01*
X145766558Y-126359112D01*
X145933511Y-126385555D01*
X145933519Y-126385556D01*
X145936759Y-126386069D01*
X146304000Y-126405315D01*
X146671241Y-126386069D01*
X146674481Y-126385556D01*
X146674489Y-126385555D01*
X146841442Y-126359112D01*
X147034459Y-126328541D01*
X147389674Y-126233361D01*
X147732994Y-126101573D01*
X147786047Y-126074541D01*
X148057717Y-125936119D01*
X148057724Y-125936115D01*
X148060658Y-125934620D01*
X148369075Y-125734332D01*
X148654867Y-125502902D01*
X148914902Y-125242867D01*
X149146332Y-124957075D01*
X149346620Y-124648657D01*
X149367629Y-124607426D01*
X149512075Y-124323934D01*
X149513573Y-124320994D01*
X149645361Y-123977674D01*
X149740541Y-123622459D01*
X149798069Y-123259241D01*
X149817315Y-122892000D01*
X149813322Y-122815800D01*
X155615885Y-122815800D01*
X155635131Y-123183041D01*
X155692659Y-123546259D01*
X155787839Y-123901474D01*
X155789024Y-123904562D01*
X155789025Y-123904564D01*
X155839102Y-124035018D01*
X155919627Y-124244794D01*
X155921125Y-124247734D01*
X155994488Y-124391716D01*
X156086580Y-124572457D01*
X156088376Y-124575223D01*
X156088378Y-124575226D01*
X156137863Y-124651426D01*
X156286868Y-124880875D01*
X156518298Y-125166667D01*
X156778333Y-125426702D01*
X157064125Y-125658132D01*
X157372542Y-125858420D01*
X157375476Y-125859915D01*
X157375483Y-125859919D01*
X157609902Y-125979361D01*
X157700206Y-126025373D01*
X157894812Y-126100075D01*
X158028297Y-126151315D01*
X158043526Y-126157161D01*
X158398741Y-126252341D01*
X158591758Y-126282912D01*
X158758711Y-126309355D01*
X158758719Y-126309356D01*
X158761959Y-126309869D01*
X159129200Y-126329115D01*
X159496441Y-126309869D01*
X159499681Y-126309356D01*
X159499689Y-126309355D01*
X159666642Y-126282912D01*
X159859659Y-126252341D01*
X160214874Y-126157161D01*
X160230104Y-126151315D01*
X160363588Y-126100075D01*
X160558194Y-126025373D01*
X160648498Y-125979361D01*
X160882917Y-125859919D01*
X160882924Y-125859915D01*
X160885858Y-125858420D01*
X161194275Y-125658132D01*
X161480067Y-125426702D01*
X161740102Y-125166667D01*
X161971532Y-124880875D01*
X162120537Y-124651426D01*
X162170022Y-124575226D01*
X162170024Y-124575223D01*
X162171820Y-124572457D01*
X162263913Y-124391716D01*
X162337275Y-124247734D01*
X162338773Y-124244794D01*
X162419298Y-124035018D01*
X162469375Y-123904564D01*
X162469376Y-123904562D01*
X162470561Y-123901474D01*
X162565741Y-123546259D01*
X162623269Y-123183041D01*
X162642515Y-122815800D01*
X162633197Y-122638000D01*
X168444685Y-122638000D01*
X168463931Y-123005241D01*
X168521459Y-123368459D01*
X168616639Y-123723674D01*
X168748427Y-124066994D01*
X168749925Y-124069934D01*
X168879345Y-124323934D01*
X168915380Y-124394657D01*
X169115668Y-124703075D01*
X169347098Y-124988867D01*
X169607133Y-125248902D01*
X169892925Y-125480332D01*
X170201342Y-125680620D01*
X170204276Y-125682115D01*
X170204283Y-125682119D01*
X170310294Y-125736134D01*
X170529006Y-125847573D01*
X170738782Y-125928098D01*
X170755772Y-125934620D01*
X170872326Y-125979361D01*
X171227541Y-126074541D01*
X171388757Y-126100075D01*
X171587511Y-126131555D01*
X171587519Y-126131556D01*
X171590759Y-126132069D01*
X171958000Y-126151315D01*
X172325241Y-126132069D01*
X172328481Y-126131556D01*
X172328489Y-126131555D01*
X172527243Y-126100075D01*
X172688459Y-126074541D01*
X173043674Y-125979361D01*
X173160229Y-125934620D01*
X173177218Y-125928098D01*
X173386994Y-125847573D01*
X173605706Y-125736134D01*
X173711717Y-125682119D01*
X173711724Y-125682115D01*
X173714658Y-125680620D01*
X174023075Y-125480332D01*
X174308867Y-125248902D01*
X174568902Y-124988867D01*
X174800332Y-124703075D01*
X175000620Y-124394657D01*
X175036656Y-124323934D01*
X175166075Y-124069934D01*
X175167573Y-124066994D01*
X175299361Y-123723674D01*
X175394541Y-123368459D01*
X175452069Y-123005241D01*
X175471315Y-122638000D01*
X175452069Y-122270759D01*
X175394541Y-121907541D01*
X175299361Y-121552326D01*
X175167573Y-121209006D01*
X175106210Y-121088574D01*
X175002119Y-120884284D01*
X175002115Y-120884277D01*
X175000620Y-120881343D01*
X174800332Y-120572925D01*
X174568902Y-120287133D01*
X174308867Y-120027098D01*
X174023075Y-119795668D01*
X173846876Y-119681243D01*
X173717427Y-119597178D01*
X173717424Y-119597176D01*
X173714658Y-119595380D01*
X173711724Y-119593885D01*
X173711717Y-119593881D01*
X173389934Y-119429925D01*
X173386994Y-119428427D01*
X173059354Y-119302658D01*
X173046764Y-119297825D01*
X173046762Y-119297824D01*
X173043674Y-119296639D01*
X172688459Y-119201459D01*
X172495442Y-119170888D01*
X172328489Y-119144445D01*
X172328481Y-119144444D01*
X172325241Y-119143931D01*
X171958000Y-119124685D01*
X171590759Y-119143931D01*
X171587519Y-119144444D01*
X171587511Y-119144445D01*
X171420558Y-119170888D01*
X171227541Y-119201459D01*
X170872326Y-119296639D01*
X170869238Y-119297824D01*
X170869236Y-119297825D01*
X170856646Y-119302658D01*
X170529006Y-119428427D01*
X170526066Y-119429925D01*
X170204284Y-119593881D01*
X170204277Y-119593885D01*
X170201343Y-119595380D01*
X169892925Y-119795668D01*
X169607133Y-120027098D01*
X169347098Y-120287133D01*
X169115668Y-120572925D01*
X168915380Y-120881343D01*
X168913885Y-120884277D01*
X168913881Y-120884284D01*
X168809790Y-121088574D01*
X168748427Y-121209006D01*
X168616639Y-121552326D01*
X168521459Y-121907541D01*
X168463931Y-122270759D01*
X168444685Y-122638000D01*
X162633197Y-122638000D01*
X162623269Y-122448559D01*
X162565741Y-122085341D01*
X162470561Y-121730126D01*
X162338773Y-121386806D01*
X162246681Y-121206066D01*
X162173319Y-121062084D01*
X162173315Y-121062077D01*
X162171820Y-121059143D01*
X161971532Y-120750725D01*
X161740102Y-120464933D01*
X161480067Y-120204898D01*
X161194275Y-119973468D01*
X161000888Y-119847881D01*
X160888627Y-119774978D01*
X160888624Y-119774976D01*
X160885858Y-119773180D01*
X160882924Y-119771685D01*
X160882917Y-119771681D01*
X160561134Y-119607725D01*
X160558194Y-119606227D01*
X160214874Y-119474439D01*
X159859659Y-119379259D01*
X159666642Y-119348688D01*
X159499689Y-119322245D01*
X159499681Y-119322244D01*
X159496441Y-119321731D01*
X159129200Y-119302485D01*
X158761959Y-119321731D01*
X158758719Y-119322244D01*
X158758711Y-119322245D01*
X158591758Y-119348688D01*
X158398741Y-119379259D01*
X158043526Y-119474439D01*
X157700206Y-119606227D01*
X157697266Y-119607725D01*
X157375484Y-119771681D01*
X157375477Y-119771685D01*
X157372543Y-119773180D01*
X157064125Y-119973468D01*
X156778333Y-120204898D01*
X156518298Y-120464933D01*
X156286868Y-120750725D01*
X156086580Y-121059143D01*
X156085085Y-121062077D01*
X156085081Y-121062084D01*
X156011719Y-121206066D01*
X155919627Y-121386806D01*
X155787839Y-121730126D01*
X155692659Y-122085341D01*
X155635131Y-122448559D01*
X155615885Y-122815800D01*
X149813322Y-122815800D01*
X149798069Y-122524759D01*
X149791622Y-122484049D01*
X149741057Y-122164802D01*
X149740541Y-122161541D01*
X149645361Y-121806326D01*
X149614925Y-121727036D01*
X149547860Y-121552326D01*
X149513573Y-121463006D01*
X149473249Y-121383866D01*
X149348119Y-121138284D01*
X149348115Y-121138277D01*
X149346620Y-121135343D01*
X149297136Y-121059143D01*
X149148134Y-120829700D01*
X149146332Y-120826925D01*
X148914902Y-120541133D01*
X148654867Y-120281098D01*
X148369075Y-120049668D01*
X148060658Y-119849380D01*
X148057724Y-119847885D01*
X148057717Y-119847881D01*
X147735934Y-119683925D01*
X147732994Y-119682427D01*
X147510912Y-119597178D01*
X147392764Y-119551825D01*
X147392762Y-119551824D01*
X147389674Y-119550639D01*
X147034459Y-119455459D01*
X146841442Y-119424888D01*
X146674489Y-119398445D01*
X146674481Y-119398444D01*
X146671241Y-119397931D01*
X146304000Y-119378685D01*
X145936759Y-119397931D01*
X145933519Y-119398444D01*
X145933511Y-119398445D01*
X145766558Y-119424888D01*
X145573541Y-119455459D01*
X145218326Y-119550639D01*
X145215238Y-119551824D01*
X145215236Y-119551825D01*
X145097088Y-119597178D01*
X144875006Y-119682427D01*
X144872066Y-119683925D01*
X144550284Y-119847881D01*
X144550277Y-119847885D01*
X144547343Y-119849380D01*
X144238925Y-120049668D01*
X143953133Y-120281098D01*
X143693098Y-120541133D01*
X143461668Y-120826925D01*
X143459866Y-120829700D01*
X143310865Y-121059143D01*
X143261380Y-121135343D01*
X143259885Y-121138277D01*
X143259881Y-121138284D01*
X143134751Y-121383866D01*
X143094427Y-121463006D01*
X143060140Y-121552326D01*
X142993076Y-121727036D01*
X142962639Y-121806326D01*
X142867459Y-122161541D01*
X142866943Y-122164802D01*
X142816379Y-122484049D01*
X142809931Y-122524759D01*
X142790685Y-122892000D01*
X137238522Y-122892000D01*
X137242515Y-122815800D01*
X137223269Y-122448559D01*
X137165741Y-122085341D01*
X137070561Y-121730126D01*
X136938773Y-121386806D01*
X136846681Y-121206066D01*
X136773319Y-121062084D01*
X136773315Y-121062077D01*
X136771820Y-121059143D01*
X136571532Y-120750725D01*
X136340102Y-120464933D01*
X136080067Y-120204898D01*
X135794275Y-119973468D01*
X135600888Y-119847881D01*
X135488627Y-119774978D01*
X135488624Y-119774976D01*
X135485858Y-119773180D01*
X135482924Y-119771685D01*
X135482917Y-119771681D01*
X135161134Y-119607725D01*
X135158194Y-119606227D01*
X134814874Y-119474439D01*
X134459659Y-119379259D01*
X134266642Y-119348688D01*
X134099689Y-119322245D01*
X134099681Y-119322244D01*
X134096441Y-119321731D01*
X133729200Y-119302485D01*
X133361959Y-119321731D01*
X133358719Y-119322244D01*
X133358711Y-119322245D01*
X133191758Y-119348688D01*
X132998741Y-119379259D01*
X132643526Y-119474439D01*
X132300206Y-119606227D01*
X132297266Y-119607725D01*
X131975484Y-119771681D01*
X131975477Y-119771685D01*
X131972543Y-119773180D01*
X131664125Y-119973468D01*
X131378333Y-120204898D01*
X131118298Y-120464933D01*
X130886868Y-120750725D01*
X130686580Y-121059143D01*
X130685085Y-121062077D01*
X130685081Y-121062084D01*
X130611719Y-121206066D01*
X130519627Y-121386806D01*
X130387839Y-121730126D01*
X130292659Y-122085341D01*
X130235131Y-122448559D01*
X130215885Y-122815800D01*
X124669627Y-122815800D01*
X124652069Y-122480759D01*
X124594541Y-122117541D01*
X124499361Y-121762326D01*
X124485815Y-121727036D01*
X124418750Y-121552326D01*
X124367573Y-121419006D01*
X124349668Y-121383866D01*
X124202119Y-121094284D01*
X124202115Y-121094277D01*
X124200620Y-121091343D01*
X124000332Y-120782925D01*
X123768902Y-120497133D01*
X123508867Y-120237098D01*
X123223075Y-120005668D01*
X122914658Y-119805380D01*
X122911724Y-119803885D01*
X122911717Y-119803881D01*
X122589934Y-119639925D01*
X122586994Y-119638427D01*
X122243674Y-119506639D01*
X121888459Y-119411459D01*
X121681532Y-119378685D01*
X121528489Y-119354445D01*
X121528481Y-119354444D01*
X121525241Y-119353931D01*
X121158000Y-119334685D01*
X120790759Y-119353931D01*
X120787519Y-119354444D01*
X120787511Y-119354445D01*
X120634468Y-119378685D01*
X120427541Y-119411459D01*
X120072326Y-119506639D01*
X119729006Y-119638427D01*
X119726066Y-119639925D01*
X119404284Y-119803881D01*
X119404277Y-119803885D01*
X119401343Y-119805380D01*
X119398577Y-119807176D01*
X119398574Y-119807178D01*
X119330820Y-119851178D01*
X119092925Y-120005668D01*
X118807133Y-120237098D01*
X118547098Y-120497133D01*
X118315668Y-120782925D01*
X118115380Y-121091343D01*
X118113885Y-121094277D01*
X118113881Y-121094284D01*
X117966332Y-121383866D01*
X117948427Y-121419006D01*
X117897250Y-121552326D01*
X117830186Y-121727036D01*
X117816639Y-121762326D01*
X117721459Y-122117541D01*
X117663931Y-122480759D01*
X117644685Y-122848000D01*
X111840827Y-122848000D01*
X111842515Y-122815800D01*
X111823269Y-122448559D01*
X111765741Y-122085341D01*
X111670561Y-121730126D01*
X111538773Y-121386806D01*
X111446681Y-121206066D01*
X111373319Y-121062084D01*
X111373315Y-121062077D01*
X111371820Y-121059143D01*
X111171532Y-120750725D01*
X110940102Y-120464933D01*
X110680067Y-120204898D01*
X110394275Y-119973468D01*
X110200888Y-119847881D01*
X110088627Y-119774978D01*
X110088624Y-119774976D01*
X110085858Y-119773180D01*
X110082924Y-119771685D01*
X110082917Y-119771681D01*
X109761134Y-119607725D01*
X109758194Y-119606227D01*
X109414874Y-119474439D01*
X109059659Y-119379259D01*
X108866642Y-119348688D01*
X108699689Y-119322245D01*
X108699681Y-119322244D01*
X108696441Y-119321731D01*
X108329200Y-119302485D01*
X107961959Y-119321731D01*
X107958719Y-119322244D01*
X107958711Y-119322245D01*
X107791758Y-119348688D01*
X107598741Y-119379259D01*
X107243526Y-119474439D01*
X106900206Y-119606227D01*
X106897266Y-119607725D01*
X106575484Y-119771681D01*
X106575477Y-119771685D01*
X106572543Y-119773180D01*
X106264125Y-119973468D01*
X105978333Y-120204898D01*
X105718298Y-120464933D01*
X105486868Y-120750725D01*
X105286580Y-121059143D01*
X105285085Y-121062077D01*
X105285081Y-121062084D01*
X105211719Y-121206066D01*
X105119627Y-121386806D01*
X104987839Y-121730126D01*
X104892659Y-122085341D01*
X104835131Y-122448559D01*
X104815885Y-122815800D01*
X76708500Y-122815800D01*
X76708500Y-118490000D01*
X76728502Y-118421879D01*
X76782158Y-118375386D01*
X76834500Y-118364000D01*
X92964000Y-118364000D01*
X93980000Y-117348000D01*
X93980000Y-106680000D01*
X93465210Y-106165210D01*
X93441950Y-106129085D01*
X93441127Y-106129535D01*
X93436817Y-106121663D01*
X93433665Y-106113255D01*
X93346311Y-105996699D01*
X93229755Y-105909345D01*
X93221347Y-105906193D01*
X93213475Y-105901883D01*
X93213925Y-105901060D01*
X93177800Y-105877800D01*
X92964000Y-105664000D01*
X91492190Y-105664000D01*
X91424069Y-105643998D01*
X91403095Y-105627095D01*
X90968905Y-105192905D01*
X90934879Y-105130593D01*
X90932000Y-105103810D01*
X90932000Y-95556190D01*
X90952002Y-95488069D01*
X90968905Y-95467095D01*
X91911095Y-94524905D01*
X91973407Y-94490879D01*
X92000190Y-94488000D01*
X94996000Y-94488000D01*
X96012000Y-93472000D01*
X96012000Y-89916000D01*
X94996000Y-88900000D01*
X94540190Y-88900000D01*
X94472069Y-88879998D01*
X94451095Y-88863095D01*
X94016905Y-88428905D01*
X93982879Y-88366593D01*
X93980000Y-88339810D01*
X93980000Y-73152000D01*
X93472000Y-72644000D01*
X77268190Y-72644000D01*
X77200069Y-72623998D01*
X77179095Y-72607095D01*
X76745405Y-72173405D01*
X76711379Y-72111093D01*
X76708500Y-72084310D01*
X76708500Y-59386708D01*
X76728502Y-59318587D01*
X76782158Y-59272094D01*
X76852432Y-59261990D01*
X76908025Y-59284385D01*
X77125233Y-59440466D01*
X77428388Y-59609200D01*
X77748928Y-59741972D01*
X77752422Y-59742967D01*
X77752424Y-59742968D01*
X78079103Y-59836025D01*
X78079108Y-59836026D01*
X78082604Y-59837022D01*
X78279304Y-59869233D01*
X78421412Y-59892504D01*
X78421419Y-59892505D01*
X78424993Y-59893090D01*
X78598276Y-59901262D01*
X78767931Y-59909263D01*
X78767932Y-59909263D01*
X78771558Y-59909434D01*
X78780415Y-59908830D01*
X79114073Y-59886084D01*
X79114081Y-59886083D01*
X79117704Y-59885836D01*
X79121279Y-59885173D01*
X79121282Y-59885173D01*
X79455279Y-59823270D01*
X79455283Y-59823269D01*
X79458844Y-59822609D01*
X79790456Y-59720592D01*
X80108145Y-59581136D01*
X80352511Y-59438341D01*
X80404560Y-59407926D01*
X80404562Y-59407925D01*
X80407700Y-59406091D01*
X80435647Y-59385108D01*
X80682244Y-59199958D01*
X80682248Y-59199955D01*
X80685151Y-59197775D01*
X80936819Y-58958950D01*
X81159370Y-58692783D01*
X81349853Y-58402799D01*
X81478446Y-58147121D01*
X81504117Y-58096080D01*
X81504120Y-58096072D01*
X81505744Y-58092844D01*
X81624977Y-57767026D01*
X81625822Y-57763504D01*
X81625825Y-57763496D01*
X81705124Y-57433191D01*
X81705125Y-57433187D01*
X81705971Y-57429662D01*
X81740035Y-57148171D01*
X81747316Y-57088004D01*
X81747316Y-57087997D01*
X81747652Y-57085225D01*
X81753599Y-56896000D01*
X81753438Y-56893204D01*
X81733836Y-56553246D01*
X81733835Y-56553241D01*
X81733627Y-56549626D01*
X81673976Y-56207842D01*
X81575437Y-55875180D01*
X81439316Y-55556048D01*
X81389569Y-55468831D01*
X81269208Y-55257816D01*
X81267417Y-55254676D01*
X81207604Y-55173250D01*
X81128155Y-55065094D01*
X81103947Y-54998352D01*
X81119665Y-54929117D01*
X81170319Y-54879371D01*
X81229702Y-54864500D01*
X178358799Y-54864500D01*
X178426920Y-54884502D01*
G37*
G04 #@! TD.AperFunction*
M02*
