G04 #@! TF.GenerationSoftware,KiCad,Pcbnew,6.0.4-6f826c9f35~116~ubuntu18.04.1*
G04 #@! TF.CreationDate,2022-05-23T11:49:55+08:00*
G04 #@! TF.ProjectId,Power_connector,506f7765-725f-4636-9f6e-6e6563746f72,rev?*
G04 #@! TF.SameCoordinates,Original*
G04 #@! TF.FileFunction,Soldermask,Top*
G04 #@! TF.FilePolarity,Negative*
%FSLAX46Y46*%
G04 Gerber Fmt 4.6, Leading zero omitted, Abs format (unit mm)*
G04 Created by KiCad (PCBNEW 6.0.4-6f826c9f35~116~ubuntu18.04.1) date 2022-05-23 11:49:55*
%MOMM*%
%LPD*%
G01*
G04 APERTURE LIST*
G04 Aperture macros list*
%AMRoundRect*
0 Rectangle with rounded corners*
0 $1 Rounding radius*
0 $2 $3 $4 $5 $6 $7 $8 $9 X,Y pos of 4 corners*
0 Add a 4 corners polygon primitive as box body*
4,1,4,$2,$3,$4,$5,$6,$7,$8,$9,$2,$3,0*
0 Add four circle primitives for the rounded corners*
1,1,$1+$1,$2,$3*
1,1,$1+$1,$4,$5*
1,1,$1+$1,$6,$7*
1,1,$1+$1,$8,$9*
0 Add four rect primitives between the rounded corners*
20,1,$1+$1,$2,$3,$4,$5,0*
20,1,$1+$1,$4,$5,$6,$7,0*
20,1,$1+$1,$6,$7,$8,$9,0*
20,1,$1+$1,$8,$9,$2,$3,0*%
G04 Aperture macros list end*
%ADD10RoundRect,0.250000X0.450000X-0.325000X0.450000X0.325000X-0.450000X0.325000X-0.450000X-0.325000X0*%
%ADD11RoundRect,0.250000X-0.450000X0.350000X-0.450000X-0.350000X0.450000X-0.350000X0.450000X0.350000X0*%
%ADD12RoundRect,1.500000X-1.500000X1.500000X-1.500000X-1.500000X1.500000X-1.500000X1.500000X1.500000X0*%
%ADD13C,6.000000*%
%ADD14RoundRect,0.243750X-0.456250X0.243750X-0.456250X-0.243750X0.456250X-0.243750X0.456250X0.243750X0*%
%ADD15RoundRect,0.250000X0.450000X-0.350000X0.450000X0.350000X-0.450000X0.350000X-0.450000X-0.350000X0*%
%ADD16C,3.051988*%
%ADD17C,3.048000*%
%ADD18C,3.068258*%
%ADD19RoundRect,0.250000X-0.450000X0.262500X-0.450000X-0.262500X0.450000X-0.262500X0.450000X0.262500X0*%
%ADD20RoundRect,1.500000X1.500000X-1.500000X1.500000X1.500000X-1.500000X1.500000X-1.500000X-1.500000X0*%
%ADD21RoundRect,0.243750X0.456250X-0.243750X0.456250X0.243750X-0.456250X0.243750X-0.456250X-0.243750X0*%
%ADD22RoundRect,0.250000X0.450000X-0.262500X0.450000X0.262500X-0.450000X0.262500X-0.450000X-0.262500X0*%
%ADD23R,2.600000X2.600000*%
%ADD24C,2.600000*%
%ADD25RoundRect,0.250000X-0.625000X0.400000X-0.625000X-0.400000X0.625000X-0.400000X0.625000X0.400000X0*%
%ADD26R,3.200000X3.200000*%
%ADD27O,3.200000X3.200000*%
%ADD28RoundRect,0.250000X-0.337500X-0.475000X0.337500X-0.475000X0.337500X0.475000X-0.337500X0.475000X0*%
%ADD29R,1.800000X0.900000*%
%ADD30C,4.500000*%
%ADD31RoundRect,0.250000X0.325000X0.450000X-0.325000X0.450000X-0.325000X-0.450000X0.325000X-0.450000X0*%
%ADD32R,1.100000X1.100000*%
G04 APERTURE END LIST*
D10*
X83798500Y-124977000D03*
X83798500Y-122927000D03*
D11*
X88878500Y-118872000D03*
X88878500Y-120872000D03*
D12*
X171829200Y-59740800D03*
D13*
X171829200Y-66940800D03*
D11*
X86338500Y-118888000D03*
X86338500Y-120888000D03*
D14*
X114554000Y-65102500D03*
X114554000Y-66977500D03*
D15*
X95504000Y-121396000D03*
X95504000Y-119396000D03*
D16*
X135304000Y-76962000D03*
D17*
X131904000Y-76962000D03*
D16*
X135304000Y-90678000D03*
D18*
X131904000Y-90678000D03*
D19*
X165354000Y-118800000D03*
X165354000Y-120625000D03*
X139700000Y-118721500D03*
X139700000Y-120546500D03*
D14*
X152908000Y-65356500D03*
X152908000Y-67231500D03*
D16*
X119380000Y-112776000D03*
D17*
X122780000Y-112776000D03*
D18*
X122780000Y-99060000D03*
D16*
X119380000Y-99060000D03*
D20*
X159129200Y-130015800D03*
D13*
X159129200Y-122815800D03*
D21*
X114808000Y-124714000D03*
X114808000Y-122839000D03*
D14*
X127508000Y-64848500D03*
X127508000Y-66723500D03*
D12*
X121029200Y-59740800D03*
D13*
X121029200Y-66940800D03*
D21*
X178308000Y-124739000D03*
X178308000Y-122864000D03*
D12*
X146429200Y-59740800D03*
D13*
X146429200Y-66940800D03*
D19*
X152181000Y-118855500D03*
X152181000Y-120680500D03*
D22*
X127508000Y-70762500D03*
X127508000Y-68937500D03*
D20*
X133729200Y-130015800D03*
D13*
X133729200Y-122815800D03*
D12*
X133858000Y-59900000D03*
D13*
X133858000Y-67100000D03*
D20*
X108329200Y-130015800D03*
D13*
X108329200Y-122815800D03*
D17*
X109904000Y-112953800D03*
D16*
X106504000Y-112953800D03*
X106504000Y-99237800D03*
D18*
X109904000Y-99237800D03*
D19*
X127254000Y-118897000D03*
X127254000Y-120722000D03*
D16*
X144936000Y-112903000D03*
D17*
X148336000Y-112903000D03*
D18*
X148336000Y-99187000D03*
D16*
X144936000Y-99187000D03*
D17*
X157636000Y-77216000D03*
D16*
X161036000Y-77216000D03*
X161036000Y-90932000D03*
D18*
X157636000Y-90932000D03*
D23*
X95504000Y-61468000D03*
D24*
X90424000Y-61468000D03*
D25*
X100584000Y-119354000D03*
X100584000Y-122454000D03*
D17*
X160829200Y-112953800D03*
D16*
X157429200Y-112953800D03*
X157429200Y-99237800D03*
D18*
X160829200Y-99237800D03*
D22*
X165608000Y-71167000D03*
X165608000Y-69342000D03*
D21*
X127254000Y-124635500D03*
X127254000Y-122760500D03*
D22*
X178308000Y-70913000D03*
X178308000Y-69088000D03*
D26*
X179832000Y-91948000D03*
D27*
X179832000Y-76708000D03*
D28*
X86317000Y-124714000D03*
X88392000Y-124714000D03*
D14*
X165608000Y-65149500D03*
X165608000Y-67024500D03*
D22*
X140208000Y-70913000D03*
X140208000Y-69088000D03*
D21*
X165354000Y-124714000D03*
X165354000Y-122839000D03*
X139747000Y-124277500D03*
X139747000Y-122402500D03*
D17*
X173404000Y-113030000D03*
D16*
X170004000Y-113030000D03*
X170004000Y-99314000D03*
D18*
X173404000Y-99314000D03*
D20*
X121158000Y-130048000D03*
D13*
X121158000Y-122848000D03*
D16*
X109904000Y-76962000D03*
D17*
X106504000Y-76962000D03*
D16*
X109904000Y-90678000D03*
D18*
X106504000Y-90678000D03*
D12*
X159258000Y-59900000D03*
D13*
X159258000Y-67100000D03*
D29*
X87235000Y-88446000D03*
X87235000Y-101946000D03*
D30*
X93235000Y-98796000D03*
X93235000Y-91596000D03*
D16*
X173529200Y-77012800D03*
D17*
X170129200Y-77012800D03*
D18*
X170129200Y-90728800D03*
D16*
X173529200Y-90728800D03*
D14*
X178308000Y-64999000D03*
X178308000Y-66874000D03*
D16*
X131904000Y-112953800D03*
D17*
X135304000Y-112953800D03*
D16*
X131904000Y-99237800D03*
D18*
X135304000Y-99237800D03*
D22*
X114554000Y-71016500D03*
X114554000Y-69191500D03*
D20*
X171958000Y-129838000D03*
D13*
X171958000Y-122638000D03*
D17*
X119329200Y-76640300D03*
D16*
X122729200Y-76640300D03*
D18*
X119329200Y-90356300D03*
D16*
X122729200Y-90356300D03*
D12*
X108204000Y-59944000D03*
D13*
X108204000Y-67144000D03*
D19*
X114808000Y-118800000D03*
X114808000Y-120625000D03*
D31*
X99577000Y-125476000D03*
X97527000Y-125476000D03*
D32*
X92964000Y-122304000D03*
X92964000Y-119504000D03*
D21*
X152146000Y-124635500D03*
X152146000Y-122760500D03*
D25*
X98044000Y-119354000D03*
X98044000Y-122454000D03*
D22*
X152908000Y-71016500D03*
X152908000Y-69191500D03*
D14*
X140200000Y-65017500D03*
X140200000Y-66892500D03*
D19*
X83798500Y-118975500D03*
X83798500Y-120800500D03*
D20*
X146304000Y-130092000D03*
D13*
X146304000Y-122892000D03*
D26*
X179832000Y-98044000D03*
D27*
X179832000Y-113284000D03*
D16*
X148129200Y-77012800D03*
D17*
X144729200Y-77012800D03*
D16*
X148129200Y-90728800D03*
D18*
X144729200Y-90728800D03*
D19*
X178308000Y-118721500D03*
X178308000Y-120546500D03*
M02*
