M48
; DRILL file {KiCad 6.0.4-6f826c9f35~116~ubuntu18.04.1} date Wed Apr 20 11:51:29 2022
; FORMAT={-:-/ absolute / metric / decimal}
; #@! TF.CreationDate,2022-04-20T11:51:29+08:00
; #@! TF.GenerationSoftware,Kicad,Pcbnew,6.0.4-6f826c9f35~116~ubuntu18.04.1
; #@! TF.FileFunction,Plated,1,2,PTH
FMAT,2
METRIC
; #@! TA.AperFunction,Plated,PTH,ViaDrill
T1C0.400
; #@! TA.AperFunction,Plated,PTH,ComponentDrill
T2C0.900
; #@! TA.AperFunction,Plated,PTH,ComponentDrill
T3C1.100
; #@! TA.AperFunction,Plated,PTH,ComponentDrill
T4C1.300
; #@! TA.AperFunction,Plated,PTH,ComponentDrill
T5C1.600
; #@! TA.AperFunction,Plated,PTH,ComponentDrill
T6C2.750
; #@! TA.AperFunction,Plated,PTH,ViaDrill
T7C3.000
; #@! TA.AperFunction,Plated,PTH,ComponentDrill
T8C4.500
%
G90
G05
T1
X73.025Y-52.705
X73.025Y-55.88
X73.025Y-59.055
X73.025Y-62.23
X73.66Y-66.675
X74.295Y-103.505
X74.295Y-106.68
X75.565Y-69.85
X75.565Y-88.9
X76.2Y-53.34
X76.2Y-55.88
X76.2Y-58.42
X78.105Y-69.85
X78.105Y-100.33
X78.105Y-102.87
X78.105Y-105.41
X78.74Y-88.9
X80.01Y-53.34
X80.01Y-55.88
X80.01Y-58.42
X80.645Y-69.85
X81.915Y-100.33
X81.915Y-102.87
X81.915Y-105.41
X82.55Y-88.9
X83.185Y-69.85
X83.82Y-53.34
X83.82Y-55.88
X83.82Y-58.42
X85.725Y-100.33
X85.725Y-102.87
X85.725Y-105.41
X95.25Y-53.34
X95.25Y-55.88
X95.25Y-58.42
X95.885Y-69.85
X95.885Y-100.33
X95.885Y-102.87
X95.885Y-105.41
X98.425Y-69.85
X98.425Y-86.36
X98.425Y-88.9
X99.06Y-53.34
X99.06Y-55.88
X99.06Y-58.42
X99.695Y-100.33
X99.695Y-102.87
X99.695Y-105.41
X100.965Y-69.85
X100.965Y-86.36
X100.965Y-88.9
X102.235Y-71.755
X102.87Y-53.34
X102.87Y-55.88
X102.87Y-58.42
X103.505Y-86.36
X103.505Y-88.9
X103.505Y-100.33
X103.505Y-102.87
X103.505Y-105.41
X105.41Y-74.93
X106.045Y-65.405
X107.315Y-99.06
X116.205Y-60.325
X116.205Y-66.04
X116.84Y-92.71
X116.84Y-97.79
X119.38Y-60.325
X120.015Y-66.04
X120.015Y-92.71
X120.015Y-97.79
X125.73Y-60.325
X125.73Y-97.79
X126.365Y-65.405
X126.365Y-92.71
X129.54Y-60.325
X129.54Y-65.405
X129.54Y-92.71
X129.54Y-97.79
X140.335Y-60.325
X140.335Y-65.405
X140.335Y-92.71
X140.335Y-97.79
X144.145Y-92.71
X144.78Y-60.325
X144.78Y-65.405
X144.78Y-97.79
X150.495Y-60.325
X150.495Y-65.405
X150.495Y-92.71
X150.495Y-97.79
X153.67Y-60.325
X153.67Y-65.405
X153.67Y-92.71
X153.67Y-97.79
X164.465Y-92.71
X164.465Y-97.79
X165.1Y-60.325
X165.1Y-65.405
X168.275Y-60.325
X168.275Y-65.405
X168.275Y-92.71
X168.275Y-97.79
X174.625Y-60.325
X174.625Y-65.405
X174.625Y-93.345
X174.625Y-99.06
X177.165Y-60.325
X177.165Y-65.405
X177.165Y-99.06
X177.8Y-93.345
X187.96Y-60.325
X187.96Y-65.405
X188.595Y-93.345
X188.595Y-98.425
X191.77Y-60.325
X191.77Y-65.405
X192.405Y-93.345
X192.405Y-98.425
X197.485Y-60.325
X198.12Y-93.345
X198.755Y-98.425
X201.295Y-60.325
X201.295Y-64.77
X201.295Y-98.425
X201.93Y-93.345
X212.09Y-93.98
X212.09Y-99.06
X212.725Y-60.325
X212.725Y-64.77
X216.535Y-60.325
X216.535Y-64.77
X217.17Y-93.98
X217.17Y-99.06
X222.25Y-60.325
X222.25Y-93.98
X222.25Y-99.06
X222.885Y-65.405
X226.06Y-60.325
X226.06Y-65.405
X226.06Y-93.98
X226.06Y-99.06
X236.22Y-93.98
X236.22Y-99.06
X236.855Y-60.325
X236.855Y-64.77
X247.65Y-60.325
X247.65Y-64.135
T3
X121.92Y-53.086
X121.92Y-63.246
X123.19Y-93.98
X123.19Y-104.14
X147.32Y-53.13
X147.32Y-63.29
X147.32Y-93.98
X147.32Y-104.14
X171.45Y-53.13
X171.45Y-63.29
X171.45Y-93.98
X171.45Y-104.14
X194.31Y-53.13
X194.31Y-63.29
X195.58Y-93.98
X195.58Y-104.14
X219.71Y-53.13
X219.71Y-63.29
X219.71Y-93.98
X219.71Y-104.14
X239.522Y-54.991
X239.522Y-65.151
X239.649Y-93.472
X239.649Y-103.632
T4
X70.815Y-91.435
X70.815Y-96.515
T5
X89.535Y-55.245
X89.535Y-70.485
X90.805Y-88.9
X90.805Y-104.14
X110.105Y-69.42
X110.105Y-72.82
X110.49Y-85.93
X110.49Y-89.33
X123.575Y-69.42
X123.575Y-72.82
X123.96Y-85.93
X123.96Y-89.33
X134.235Y-69.42
X134.235Y-72.82
X134.235Y-85.93
X134.235Y-89.33
X147.705Y-69.42
X147.705Y-72.82
X147.705Y-85.93
X147.705Y-89.33
X158.365Y-69.42
X158.365Y-72.82
X158.365Y-85.93
X158.365Y-89.33
X171.835Y-69.42
X171.835Y-72.82
X171.835Y-85.93
X171.835Y-89.33
X182.495Y-69.42
X182.495Y-72.82
X182.495Y-85.93
X182.495Y-89.33
X195.965Y-69.42
X195.965Y-72.82
X195.965Y-85.93
X195.965Y-89.33
X206.625Y-69.42
X206.625Y-72.82
X206.625Y-85.93
X206.625Y-89.33
X220.095Y-69.42
X220.095Y-72.82
X220.095Y-85.93
X220.095Y-89.33
X230.755Y-69.42
X230.755Y-72.82
X230.755Y-85.93
X230.755Y-89.33
X244.225Y-69.42
X244.225Y-72.82
X244.225Y-85.93
X244.225Y-89.33
T6
X82.2Y-75.14
X82.2Y-82.34
T7
X68.326Y-51.816
X68.326Y-106.172
X247.269Y-51.943
X247.269Y-106.299
T8
X110.49Y-54.61
X110.49Y-61.81
X111.76Y-96.94
X111.76Y-104.14
X134.62Y-54.566
X134.62Y-61.766
X134.62Y-96.73
X134.62Y-103.93
X158.75Y-96.52
X158.75Y-103.72
X159.004Y-54.61
X159.004Y-61.81
X182.88Y-54.61
X182.88Y-61.81
X182.88Y-96.73
X182.88Y-103.93
X207.01Y-54.61
X207.01Y-61.81
X207.01Y-96.73
X207.01Y-103.93
X231.14Y-54.61
X231.14Y-61.81
X231.14Y-96.73
X231.14Y-103.93
T2
X76.65Y-71.99G85X75.75Y-71.99
G05
X76.65Y-85.49G85X75.75Y-85.49
G05
T0
M30
