G04 #@! TF.GenerationSoftware,KiCad,Pcbnew,6.0.4-6f826c9f35~116~ubuntu18.04.1*
G04 #@! TF.CreationDate,2022-04-20T11:51:17+08:00*
G04 #@! TF.ProjectId,Power_connector,506f7765-725f-4636-9f6e-6e6563746f72,rev?*
G04 #@! TF.SameCoordinates,Original*
G04 #@! TF.FileFunction,Legend,Bot*
G04 #@! TF.FilePolarity,Positive*
%FSLAX46Y46*%
G04 Gerber Fmt 4.6, Leading zero omitted, Abs format (unit mm)*
G04 Created by KiCad (PCBNEW 6.0.4-6f826c9f35~116~ubuntu18.04.1) date 2022-04-20 11:51:17*
%MOMM*%
%LPD*%
G01*
G04 APERTURE LIST*
G04 Aperture macros list*
%AMRoundRect*
0 Rectangle with rounded corners*
0 $1 Rounding radius*
0 $2 $3 $4 $5 $6 $7 $8 $9 X,Y pos of 4 corners*
0 Add a 4 corners polygon primitive as box body*
4,1,4,$2,$3,$4,$5,$6,$7,$8,$9,$2,$3,0*
0 Add four circle primitives for the rounded corners*
1,1,$1+$1,$2,$3*
1,1,$1+$1,$4,$5*
1,1,$1+$1,$6,$7*
1,1,$1+$1,$8,$9*
0 Add four rect primitives between the rounded corners*
20,1,$1+$1,$2,$3,$4,$5,0*
20,1,$1+$1,$4,$5,$6,$7,0*
20,1,$1+$1,$6,$7,$8,$9,0*
20,1,$1+$1,$8,$9,$2,$3,0*%
G04 Aperture macros list end*
%ADD10C,0.150000*%
%ADD11O,3.200000X3.200000*%
%ADD12R,3.200000X3.200000*%
%ADD13R,2.200000X2.200000*%
%ADD14O,2.200000X2.200000*%
%ADD15RoundRect,1.500000X1.500000X-1.500000X1.500000X1.500000X-1.500000X1.500000X-1.500000X-1.500000X0*%
%ADD16C,6.000000*%
%ADD17RoundRect,1.500000X-1.500000X1.500000X-1.500000X-1.500000X1.500000X-1.500000X1.500000X1.500000X0*%
%ADD18C,2.400000*%
%ADD19R,1.800000X1.200000*%
%ADD20C,4.500000*%
%ADD21R,2.600000X2.600000*%
%ADD22C,2.600000*%
G04 APERTURE END LIST*
D10*
X247603380Y-75025761D02*
X247603380Y-74549571D01*
X248079571Y-74501952D01*
X248031952Y-74549571D01*
X247984333Y-74644809D01*
X247984333Y-74882904D01*
X248031952Y-74978142D01*
X248079571Y-75025761D01*
X248174809Y-75073380D01*
X248412904Y-75073380D01*
X248508142Y-75025761D01*
X248555761Y-74978142D01*
X248603380Y-74882904D01*
X248603380Y-74644809D01*
X248555761Y-74549571D01*
X248508142Y-74501952D01*
X247936714Y-75930523D02*
X248603380Y-75930523D01*
X247555761Y-75692428D02*
X248270047Y-75454333D01*
X248270047Y-76073380D01*
X248508142Y-76454333D02*
X248555761Y-76501952D01*
X248603380Y-76454333D01*
X248555761Y-76406714D01*
X248508142Y-76454333D01*
X248603380Y-76454333D01*
X247603380Y-76835285D02*
X247603380Y-77454333D01*
X247984333Y-77121000D01*
X247984333Y-77263857D01*
X248031952Y-77359095D01*
X248079571Y-77406714D01*
X248174809Y-77454333D01*
X248412904Y-77454333D01*
X248508142Y-77406714D01*
X248555761Y-77359095D01*
X248603380Y-77263857D01*
X248603380Y-76978142D01*
X248555761Y-76882904D01*
X248508142Y-76835285D01*
X247603380Y-78359095D02*
X247603380Y-77882904D01*
X248079571Y-77835285D01*
X248031952Y-77882904D01*
X247984333Y-77978142D01*
X247984333Y-78216238D01*
X248031952Y-78311476D01*
X248079571Y-78359095D01*
X248174809Y-78406714D01*
X248412904Y-78406714D01*
X248508142Y-78359095D01*
X248555761Y-78311476D01*
X248603380Y-78216238D01*
X248603380Y-77978142D01*
X248555761Y-77882904D01*
X248508142Y-77835285D01*
X247603380Y-79263857D02*
X247603380Y-79073380D01*
X247651000Y-78978142D01*
X247698619Y-78930523D01*
X247841476Y-78835285D01*
X248031952Y-78787666D01*
X248412904Y-78787666D01*
X248508142Y-78835285D01*
X248555761Y-78882904D01*
X248603380Y-78978142D01*
X248603380Y-79168619D01*
X248555761Y-79263857D01*
X248508142Y-79311476D01*
X248412904Y-79359095D01*
X248174809Y-79359095D01*
X248079571Y-79311476D01*
X248031952Y-79263857D01*
X247984333Y-79168619D01*
X247984333Y-78978142D01*
X248031952Y-78882904D01*
X248079571Y-78835285D01*
X248174809Y-78787666D01*
X247603380Y-79978142D02*
X247603380Y-80073380D01*
X247651000Y-80168619D01*
X247698619Y-80216238D01*
X247793857Y-80263857D01*
X247984333Y-80311476D01*
X248222428Y-80311476D01*
X248412904Y-80263857D01*
X248508142Y-80216238D01*
X248555761Y-80168619D01*
X248603380Y-80073380D01*
X248603380Y-79978142D01*
X248555761Y-79882904D01*
X248508142Y-79835285D01*
X248412904Y-79787666D01*
X248222428Y-79740047D01*
X247984333Y-79740047D01*
X247793857Y-79787666D01*
X247698619Y-79835285D01*
X247651000Y-79882904D01*
X247603380Y-79978142D01*
X248603380Y-81501952D02*
X247936714Y-81501952D01*
X248031952Y-81501952D02*
X247984333Y-81549571D01*
X247936714Y-81644809D01*
X247936714Y-81787666D01*
X247984333Y-81882904D01*
X248079571Y-81930523D01*
X248603380Y-81930523D01*
X248079571Y-81930523D02*
X247984333Y-81978142D01*
X247936714Y-82073380D01*
X247936714Y-82216238D01*
X247984333Y-82311476D01*
X248079571Y-82359095D01*
X248603380Y-82359095D01*
X248603380Y-82835285D02*
X247936714Y-82835285D01*
X248031952Y-82835285D02*
X247984333Y-82882904D01*
X247936714Y-82978142D01*
X247936714Y-83121000D01*
X247984333Y-83216238D01*
X248079571Y-83263857D01*
X248603380Y-83263857D01*
X248079571Y-83263857D02*
X247984333Y-83311476D01*
X247936714Y-83406714D01*
X247936714Y-83549571D01*
X247984333Y-83644809D01*
X248079571Y-83692428D01*
X248603380Y-83692428D01*
X247769000Y-51943000D02*
X249887420Y-51943000D01*
X247769000Y-106299000D02*
X249887420Y-106299000D01*
X249301000Y-51943000D02*
X249301000Y-106299000D01*
X249301000Y-51943000D02*
X249301000Y-106299000D01*
X249301000Y-51943000D02*
X248714579Y-53069504D01*
X249301000Y-51943000D02*
X249887421Y-53069504D01*
X249301000Y-106299000D02*
X249887421Y-105172496D01*
X249301000Y-106299000D02*
X248714579Y-105172496D01*
X162321309Y-79566381D02*
X162892738Y-79566381D01*
X162607023Y-79566381D02*
X162607023Y-78566381D01*
X162702261Y-78709239D01*
X162797500Y-78804477D01*
X162892738Y-78852096D01*
X161987976Y-78566381D02*
X161321309Y-78566381D01*
X161749880Y-79566381D01*
X160797500Y-78994953D02*
X160892738Y-78947334D01*
X160940357Y-78899715D01*
X160987976Y-78804477D01*
X160987976Y-78756858D01*
X160940357Y-78661620D01*
X160892738Y-78614001D01*
X160797500Y-78566381D01*
X160607023Y-78566381D01*
X160511785Y-78614001D01*
X160464166Y-78661620D01*
X160416547Y-78756858D01*
X160416547Y-78804477D01*
X160464166Y-78899715D01*
X160511785Y-78947334D01*
X160607023Y-78994953D01*
X160797500Y-78994953D01*
X160892738Y-79042572D01*
X160940357Y-79090191D01*
X160987976Y-79185429D01*
X160987976Y-79375905D01*
X160940357Y-79471143D01*
X160892738Y-79518762D01*
X160797500Y-79566381D01*
X160607023Y-79566381D01*
X160511785Y-79518762D01*
X160464166Y-79471143D01*
X160416547Y-79375905D01*
X160416547Y-79185429D01*
X160464166Y-79090191D01*
X160511785Y-79042572D01*
X160607023Y-78994953D01*
X159987976Y-79471143D02*
X159940357Y-79518762D01*
X159987976Y-79566381D01*
X160035595Y-79518762D01*
X159987976Y-79471143D01*
X159987976Y-79566381D01*
X159464166Y-79566381D02*
X159273690Y-79566381D01*
X159178452Y-79518762D01*
X159130833Y-79471143D01*
X159035595Y-79328286D01*
X158987976Y-79137810D01*
X158987976Y-78756858D01*
X159035595Y-78661620D01*
X159083214Y-78614001D01*
X159178452Y-78566381D01*
X159368928Y-78566381D01*
X159464166Y-78614001D01*
X159511785Y-78661620D01*
X159559404Y-78756858D01*
X159559404Y-78994953D01*
X159511785Y-79090191D01*
X159464166Y-79137810D01*
X159368928Y-79185429D01*
X159178452Y-79185429D01*
X159083214Y-79137810D01*
X159035595Y-79090191D01*
X158987976Y-78994953D01*
X158130833Y-78899715D02*
X158130833Y-79566381D01*
X158368928Y-78518762D02*
X158607023Y-79233048D01*
X157987976Y-79233048D01*
X157702261Y-78566381D02*
X157083214Y-78566381D01*
X157416547Y-78947334D01*
X157273690Y-78947334D01*
X157178452Y-78994953D01*
X157130833Y-79042572D01*
X157083214Y-79137810D01*
X157083214Y-79375905D01*
X157130833Y-79471143D01*
X157178452Y-79518762D01*
X157273690Y-79566381D01*
X157559404Y-79566381D01*
X157654642Y-79518762D01*
X157702261Y-79471143D01*
X156464166Y-78566381D02*
X156368928Y-78566381D01*
X156273690Y-78614001D01*
X156226071Y-78661620D01*
X156178452Y-78756858D01*
X156130833Y-78947334D01*
X156130833Y-79185429D01*
X156178452Y-79375905D01*
X156226071Y-79471143D01*
X156273690Y-79518762D01*
X156368928Y-79566381D01*
X156464166Y-79566381D01*
X156559404Y-79518762D01*
X156607023Y-79471143D01*
X156654642Y-79375905D01*
X156702261Y-79185429D01*
X156702261Y-78947334D01*
X156654642Y-78756858D01*
X156607023Y-78661620D01*
X156559404Y-78614001D01*
X156464166Y-78566381D01*
X154940357Y-79566381D02*
X154940357Y-78899715D01*
X154940357Y-78994953D02*
X154892738Y-78947334D01*
X154797500Y-78899715D01*
X154654642Y-78899715D01*
X154559404Y-78947334D01*
X154511785Y-79042572D01*
X154511785Y-79566381D01*
X154511785Y-79042572D02*
X154464166Y-78947334D01*
X154368928Y-78899715D01*
X154226071Y-78899715D01*
X154130833Y-78947334D01*
X154083214Y-79042572D01*
X154083214Y-79566381D01*
X153607023Y-79566381D02*
X153607023Y-78899715D01*
X153607023Y-78994953D02*
X153559404Y-78947334D01*
X153464166Y-78899715D01*
X153321309Y-78899715D01*
X153226071Y-78947334D01*
X153178452Y-79042572D01*
X153178452Y-79566381D01*
X153178452Y-79042572D02*
X153130833Y-78947334D01*
X153035595Y-78899715D01*
X152892738Y-78899715D01*
X152797500Y-78947334D01*
X152749880Y-79042572D01*
X152749880Y-79566381D01*
X247269000Y-105799000D02*
X247269000Y-79677581D01*
X68326000Y-105799000D02*
X68326000Y-79677581D01*
X247269000Y-80264001D02*
X68326000Y-80264001D01*
X247269000Y-80264001D02*
X68326000Y-80264001D01*
X247269000Y-80264001D02*
X246142496Y-79677580D01*
X247269000Y-80264001D02*
X246142496Y-80850422D01*
X68326000Y-80264001D02*
X69452504Y-80850422D01*
X68326000Y-80264001D02*
X69452504Y-79677580D01*
G36*
X86237754Y-62355103D02*
G01*
X86485821Y-62355894D01*
X86679271Y-62359254D01*
X86824894Y-62367055D01*
X86929481Y-62381166D01*
X86999824Y-62403459D01*
X87042714Y-62435803D01*
X87064941Y-62480070D01*
X87073297Y-62538129D01*
X87074574Y-62611851D01*
X87074574Y-62769391D01*
X85164799Y-62769391D01*
X85165287Y-62633946D01*
X85165521Y-62606471D01*
X85169839Y-62533510D01*
X85184728Y-62476226D01*
X85216823Y-62432724D01*
X85272761Y-62401110D01*
X85359178Y-62379492D01*
X85482708Y-62365974D01*
X85649989Y-62358664D01*
X85867654Y-62355666D01*
X86142341Y-62355088D01*
X86237754Y-62355103D01*
G37*
G36*
X80676829Y-63340706D02*
G01*
X80675826Y-63488590D01*
X80671487Y-63593725D01*
X80662078Y-63657072D01*
X80645869Y-63689908D01*
X80621128Y-63703508D01*
X80599720Y-63708379D01*
X80496904Y-63720111D01*
X80390470Y-63719456D01*
X80313393Y-63706132D01*
X80298879Y-63697207D01*
X80280948Y-63665071D01*
X80270000Y-63602054D01*
X80264533Y-63497220D01*
X80263045Y-63339633D01*
X80263045Y-62992478D01*
X80676829Y-62992478D01*
X80676829Y-63340706D01*
G37*
G36*
X82440011Y-64624389D02*
G01*
X82634348Y-64633758D01*
X82643588Y-64896377D01*
X82644919Y-64943980D01*
X82641091Y-65100314D01*
X82620034Y-65207705D01*
X82578416Y-65276921D01*
X82512907Y-65318730D01*
X82466835Y-65325961D01*
X82365041Y-65332938D01*
X82217493Y-65339010D01*
X82033351Y-65343877D01*
X81821777Y-65347241D01*
X81591930Y-65348802D01*
X80740489Y-65350822D01*
X80740489Y-65032127D01*
X81432782Y-65031639D01*
X81513104Y-65031406D01*
X81711830Y-65029250D01*
X81886431Y-65025144D01*
X82027023Y-65019451D01*
X82123723Y-65012532D01*
X82166648Y-65004750D01*
X82185520Y-64977488D01*
X82209897Y-64900343D01*
X82226948Y-64796685D01*
X82245674Y-64615021D01*
X82440011Y-64624389D01*
G37*
G36*
X82276300Y-62355122D02*
G01*
X82519886Y-62356076D01*
X82709684Y-62359712D01*
X82852405Y-62367836D01*
X82954758Y-62382251D01*
X83023455Y-62404762D01*
X83065205Y-62437173D01*
X83086719Y-62481289D01*
X83094706Y-62538913D01*
X83095877Y-62611851D01*
X83095877Y-62769391D01*
X81186103Y-62769391D01*
X81186103Y-62611851D01*
X81186231Y-62575467D01*
X81189778Y-62509968D01*
X81203301Y-62458933D01*
X81233512Y-62420556D01*
X81287121Y-62393034D01*
X81370838Y-62374562D01*
X81491373Y-62363335D01*
X81655437Y-62357550D01*
X81869739Y-62355403D01*
X82140990Y-62355088D01*
X82276300Y-62355122D01*
G37*
G36*
X80517682Y-65350822D02*
G01*
X79244499Y-65350822D01*
X79244499Y-65032127D01*
X80100859Y-65032127D01*
X80110336Y-64832942D01*
X80119812Y-64633758D01*
X80517682Y-64614782D01*
X80517682Y-65350822D01*
G37*
G36*
X88764367Y-61115117D02*
G01*
X88804492Y-61280835D01*
X88838340Y-61418912D01*
X88863097Y-61517892D01*
X88875949Y-61566317D01*
X88879891Y-61584611D01*
X88868152Y-61608574D01*
X88819223Y-61619496D01*
X88719920Y-61622089D01*
X88624173Y-61620394D01*
X88568138Y-61609051D01*
X88541416Y-61578766D01*
X88526349Y-61520249D01*
X88524932Y-61513248D01*
X88501237Y-61407802D01*
X88473399Y-61297163D01*
X88440792Y-61175916D01*
X88030009Y-61175916D01*
X87922222Y-61175304D01*
X87749919Y-61168368D01*
X87625807Y-61149236D01*
X87539663Y-61112413D01*
X87481270Y-61052402D01*
X87440405Y-60963708D01*
X87406848Y-60840835D01*
X87384188Y-60737258D01*
X87362651Y-60589525D01*
X87363435Y-60570395D01*
X87678123Y-60570395D01*
X87697602Y-60658036D01*
X87713762Y-60727850D01*
X87732183Y-60801449D01*
X87739544Y-60818709D01*
X87765641Y-60838605D01*
X87819650Y-60850301D01*
X87913475Y-60855829D01*
X88059020Y-60857221D01*
X88370755Y-60857221D01*
X88337978Y-60713808D01*
X88305202Y-60570395D01*
X87678123Y-60570395D01*
X87363435Y-60570395D01*
X87367080Y-60481430D01*
X87398758Y-60400487D01*
X87458971Y-60334207D01*
X87500160Y-60301736D01*
X87543233Y-60278158D01*
X87598583Y-60263452D01*
X87679055Y-60255532D01*
X87797495Y-60252310D01*
X87966746Y-60251700D01*
X88065445Y-60252221D01*
X88242882Y-60257863D01*
X88371479Y-60271488D01*
X88461324Y-60295300D01*
X88522507Y-60331499D01*
X88565116Y-60382287D01*
X88579004Y-60415157D01*
X88607586Y-60504852D01*
X88644679Y-60636264D01*
X88687025Y-60797726D01*
X88701693Y-60857221D01*
X88731365Y-60977573D01*
X88764367Y-61115117D01*
G37*
G36*
X82227935Y-63985790D02*
G01*
X82350518Y-63993014D01*
X82440131Y-64005117D01*
X82504498Y-64022811D01*
X82551339Y-64046807D01*
X82588379Y-64077819D01*
X82623975Y-64136654D01*
X82647564Y-64226323D01*
X82650529Y-64314545D01*
X82629043Y-64373490D01*
X82625085Y-64375024D01*
X82572831Y-64380296D01*
X82467273Y-64385013D01*
X82316518Y-64388996D01*
X82128675Y-64392065D01*
X81911851Y-64394039D01*
X81674156Y-64394736D01*
X80740489Y-64394736D01*
X80740489Y-64256263D01*
X80740745Y-64236557D01*
X80758033Y-64129218D01*
X80807420Y-64057079D01*
X80817910Y-64048200D01*
X80847451Y-64030398D01*
X80890052Y-64016842D01*
X80954146Y-64006772D01*
X81048165Y-63999428D01*
X81180543Y-63994048D01*
X81359713Y-63989873D01*
X81594109Y-63986143D01*
X81852973Y-63983130D01*
X82064661Y-63982733D01*
X82227935Y-63985790D01*
G37*
G36*
X79053521Y-63291336D02*
G01*
X79053416Y-63335484D01*
X79049368Y-63475767D01*
X79035120Y-63568668D01*
X79004809Y-63627215D01*
X78952569Y-63664433D01*
X78872536Y-63693349D01*
X78832947Y-63699192D01*
X78733565Y-63705525D01*
X78587986Y-63710511D01*
X78405936Y-63713915D01*
X78197138Y-63715502D01*
X77971316Y-63715040D01*
X77159661Y-63709542D01*
X77150030Y-63559869D01*
X77140398Y-63410196D01*
X77859443Y-63400521D01*
X78079270Y-63397573D01*
X78270854Y-63393625D01*
X78412862Y-63386627D01*
X78512714Y-63374137D01*
X78577826Y-63353714D01*
X78615618Y-63322917D01*
X78633507Y-63279302D01*
X78638911Y-63220430D01*
X78639249Y-63143858D01*
X78639737Y-62992478D01*
X79053521Y-62992478D01*
X79053521Y-63291336D01*
G37*
G36*
X80884549Y-62362963D02*
G01*
X80981633Y-62369296D01*
X81039150Y-62379601D01*
X81063939Y-62394217D01*
X81080437Y-62446928D01*
X81089170Y-62540909D01*
X81086256Y-62641804D01*
X81071040Y-62719642D01*
X81063702Y-62731867D01*
X81040399Y-62746226D01*
X80995019Y-62756126D01*
X80919250Y-62762114D01*
X80804780Y-62764739D01*
X80643298Y-62764547D01*
X80426491Y-62762085D01*
X79801516Y-62753457D01*
X79801516Y-62371022D01*
X80419877Y-62362347D01*
X80544340Y-62360862D01*
X80741064Y-62360265D01*
X80884549Y-62362963D01*
G37*
G36*
X84973822Y-62769391D02*
G01*
X84766930Y-62769391D01*
X84719975Y-62769041D01*
X84623204Y-62763305D01*
X84573850Y-62748401D01*
X84560037Y-62721587D01*
X84560033Y-62720993D01*
X84550140Y-62700941D01*
X84514871Y-62687340D01*
X84444662Y-62679044D01*
X84329950Y-62674907D01*
X84161169Y-62673783D01*
X84013627Y-62674687D01*
X83887816Y-62678773D01*
X83807510Y-62687198D01*
X83762850Y-62701093D01*
X83743979Y-62721587D01*
X83743946Y-62721674D01*
X83714002Y-62749835D01*
X83643909Y-62764915D01*
X83522171Y-62769391D01*
X83318684Y-62769391D01*
X83318684Y-62611851D01*
X83318690Y-62602077D01*
X83320661Y-62529149D01*
X83330952Y-62472207D01*
X83356479Y-62429271D01*
X83404161Y-62398366D01*
X83480915Y-62377513D01*
X83593657Y-62364736D01*
X83749306Y-62358058D01*
X83954780Y-62355501D01*
X84216994Y-62355088D01*
X84973822Y-62355088D01*
X84973822Y-62769391D01*
G37*
G36*
X78216701Y-62355103D02*
G01*
X78464769Y-62355894D01*
X78658218Y-62359254D01*
X78803841Y-62367055D01*
X78908428Y-62381166D01*
X78978771Y-62403459D01*
X79021661Y-62435803D01*
X79043888Y-62480070D01*
X79052245Y-62538129D01*
X79053521Y-62611851D01*
X79053521Y-62769391D01*
X77143747Y-62769391D01*
X77144234Y-62633946D01*
X77144469Y-62606471D01*
X77148786Y-62533510D01*
X77163675Y-62476226D01*
X77195771Y-62432724D01*
X77251709Y-62401110D01*
X77338125Y-62379492D01*
X77461656Y-62365974D01*
X77628936Y-62358664D01*
X77846602Y-62355666D01*
X78121289Y-62355088D01*
X78216701Y-62355103D01*
G37*
G36*
X76280189Y-62355915D02*
G01*
X76491565Y-62358174D01*
X76651792Y-62364393D01*
X76768145Y-62376678D01*
X76847901Y-62397137D01*
X76898336Y-62427877D01*
X76926725Y-62471005D01*
X76940347Y-62528627D01*
X76946475Y-62602851D01*
X76956096Y-62769391D01*
X76751438Y-62769391D01*
X76664404Y-62767109D01*
X76561151Y-62752070D01*
X76507155Y-62721587D01*
X76504349Y-62718437D01*
X76467423Y-62696892D01*
X76399058Y-62683160D01*
X76288551Y-62675904D01*
X76125200Y-62673783D01*
X76102619Y-62673810D01*
X75946124Y-62676473D01*
X75841198Y-62684430D01*
X75777139Y-62699022D01*
X75743245Y-62721587D01*
X75707540Y-62745684D01*
X75622680Y-62763762D01*
X75484712Y-62769391D01*
X75265802Y-62769391D01*
X75265802Y-62611851D01*
X75266412Y-62558996D01*
X75272995Y-62492900D01*
X75292786Y-62442891D01*
X75332992Y-62406735D01*
X75400820Y-62382199D01*
X75503477Y-62367047D01*
X75648171Y-62359046D01*
X75842108Y-62355961D01*
X76092496Y-62355558D01*
X76280189Y-62355915D01*
G37*
G36*
X81606181Y-63159018D02*
G01*
X81613005Y-63233186D01*
X81631919Y-63302965D01*
X81670581Y-63351179D01*
X81737752Y-63381391D01*
X81842191Y-63397162D01*
X81992658Y-63402056D01*
X82197914Y-63399633D01*
X82332983Y-63396497D01*
X82478583Y-63389544D01*
X82576587Y-63375191D01*
X82636442Y-63348443D01*
X82667597Y-63304302D01*
X82679502Y-63237773D01*
X82681605Y-63143858D01*
X82682093Y-62992478D01*
X83095877Y-62992478D01*
X83095877Y-63291336D01*
X83095770Y-63336096D01*
X83091739Y-63475955D01*
X83077524Y-63568582D01*
X83047237Y-63627085D01*
X82994989Y-63664568D01*
X82914892Y-63694138D01*
X82893596Y-63698205D01*
X82808592Y-63705329D01*
X82675527Y-63710927D01*
X82504779Y-63714725D01*
X82306725Y-63716450D01*
X82091743Y-63715829D01*
X81935982Y-63714554D01*
X81705258Y-63711696D01*
X81527429Y-63705349D01*
X81395619Y-63692313D01*
X81302951Y-63669390D01*
X81242550Y-63633380D01*
X81207541Y-63581086D01*
X81191047Y-63509307D01*
X81186193Y-63414846D01*
X81186103Y-63294504D01*
X81186103Y-62992478D01*
X81596560Y-62992478D01*
X81606181Y-63159018D01*
G37*
G36*
X74886282Y-59822968D02*
G01*
X74906808Y-59846204D01*
X74949786Y-59914083D01*
X74999938Y-60006967D01*
X75067080Y-60135522D01*
X75132289Y-60242142D01*
X75189456Y-60306774D01*
X75247172Y-60338726D01*
X75314029Y-60347309D01*
X75352906Y-60345372D01*
X75400557Y-60330796D01*
X75447902Y-60293190D01*
X75506586Y-60222404D01*
X75588256Y-60108287D01*
X75626031Y-60055917D01*
X75702698Y-59960195D01*
X75766511Y-59893992D01*
X75806547Y-59869266D01*
X75808702Y-59869321D01*
X75866673Y-59880466D01*
X75963426Y-59907219D01*
X76079213Y-59944157D01*
X76300263Y-60019049D01*
X76300263Y-60328406D01*
X76300265Y-60338934D01*
X76301451Y-60479326D01*
X76306925Y-60571197D01*
X76319762Y-60628876D01*
X76343040Y-60666694D01*
X76379837Y-60698979D01*
X76436929Y-60736224D01*
X76500855Y-60755131D01*
X76579301Y-60749419D01*
X76686437Y-60717855D01*
X76836433Y-60659204D01*
X77086137Y-60556281D01*
X77178155Y-60666914D01*
X77192020Y-60683765D01*
X77276057Y-60790772D01*
X77353886Y-60896139D01*
X77437599Y-61014731D01*
X77274758Y-61234667D01*
X77188627Y-61355141D01*
X77137700Y-61443182D01*
X77118314Y-61513883D01*
X77126082Y-61583309D01*
X77156621Y-61667524D01*
X77168356Y-61694452D01*
X77196889Y-61740553D01*
X77240123Y-61770190D01*
X77314167Y-61791830D01*
X77435130Y-61813945D01*
X77491585Y-61823585D01*
X77634444Y-61851094D01*
X77727638Y-61877433D01*
X77781461Y-61907693D01*
X77806207Y-61946961D01*
X77812168Y-62000325D01*
X77800733Y-62066982D01*
X77761820Y-62112657D01*
X77732717Y-62118978D01*
X77643726Y-62126584D01*
X77516227Y-62130906D01*
X77364814Y-62132143D01*
X77204075Y-62130494D01*
X77048603Y-62126158D01*
X76912990Y-62119332D01*
X76811824Y-62110217D01*
X76759699Y-62099010D01*
X76723148Y-62071817D01*
X76698108Y-62027304D01*
X76692446Y-61989925D01*
X76655175Y-61890754D01*
X76590745Y-61766277D01*
X76508166Y-61631775D01*
X76416447Y-61502530D01*
X76324599Y-61393821D01*
X76285132Y-61353486D01*
X76050905Y-61157671D01*
X75799531Y-61021480D01*
X75524189Y-60941966D01*
X75218057Y-60916186D01*
X75033612Y-60926523D01*
X74733771Y-60990532D01*
X74459467Y-61109923D01*
X74216493Y-61281110D01*
X74010644Y-61500505D01*
X73847712Y-61764523D01*
X73814862Y-61835681D01*
X73718038Y-62133230D01*
X73682646Y-62432646D01*
X73707650Y-62727587D01*
X73792016Y-63011715D01*
X73934709Y-63278690D01*
X74134693Y-63522172D01*
X74141977Y-63529465D01*
X74347925Y-63706321D01*
X74569716Y-63836170D01*
X74829505Y-63932079D01*
X75011165Y-63984956D01*
X75011165Y-65063996D01*
X74903659Y-65063996D01*
X74858194Y-65062144D01*
X74797303Y-65044785D01*
X74755608Y-64999357D01*
X74724561Y-64914079D01*
X74695619Y-64777171D01*
X74685879Y-64724671D01*
X74660493Y-64598702D01*
X74637120Y-64517722D01*
X74609012Y-64468271D01*
X74569422Y-64436893D01*
X74511603Y-64410130D01*
X74438028Y-64382288D01*
X74361158Y-64368735D01*
X74288636Y-64384515D01*
X74203330Y-64434164D01*
X74088108Y-64522214D01*
X74064129Y-64541146D01*
X73967026Y-64612574D01*
X73888224Y-64662670D01*
X73842911Y-64681562D01*
X73830694Y-64679487D01*
X73769091Y-64649348D01*
X73684254Y-64592787D01*
X73591540Y-64521982D01*
X73506303Y-64449114D01*
X73443900Y-64386360D01*
X73419687Y-64345899D01*
X73420597Y-64337428D01*
X73437531Y-64274911D01*
X73471445Y-64175554D01*
X73516556Y-64056626D01*
X73613426Y-63812465D01*
X73531071Y-63687862D01*
X73448716Y-63563260D01*
X72833774Y-63582064D01*
X72746036Y-63358977D01*
X72740006Y-63343559D01*
X72698413Y-63232074D01*
X72668728Y-63143659D01*
X72657037Y-63096282D01*
X72663486Y-63081948D01*
X72709581Y-63031906D01*
X72790399Y-62961084D01*
X72894499Y-62879908D01*
X72965741Y-62826464D01*
X73053698Y-62755092D01*
X73104322Y-62701341D01*
X73127403Y-62653740D01*
X73132733Y-62600822D01*
X73132697Y-62595244D01*
X73128106Y-62525603D01*
X73108545Y-62473381D01*
X73063337Y-62427478D01*
X72981809Y-62376793D01*
X72853283Y-62310223D01*
X72822239Y-62294284D01*
X72716626Y-62234681D01*
X72638637Y-62182352D01*
X72603313Y-62147115D01*
X72601726Y-62140593D01*
X72603587Y-62078239D01*
X72618723Y-61976764D01*
X72644529Y-61854644D01*
X72664521Y-61773999D01*
X72697075Y-61674887D01*
X72739854Y-61613438D01*
X72806216Y-61580298D01*
X72909520Y-61566112D01*
X73063124Y-61561527D01*
X73138572Y-61559207D01*
X73228139Y-61548046D01*
X73288614Y-61521917D01*
X73341632Y-61474023D01*
X73350058Y-61464675D01*
X73399500Y-61397609D01*
X73419687Y-61347675D01*
X73417145Y-61335651D01*
X73390225Y-61273768D01*
X73340159Y-61179049D01*
X73274741Y-61066611D01*
X73211464Y-60960336D01*
X73168226Y-60870092D01*
X73159508Y-60799198D01*
X73188174Y-60731794D01*
X73257089Y-60652021D01*
X73369116Y-60544021D01*
X73546824Y-60375741D01*
X73820281Y-60524990D01*
X74093739Y-60674239D01*
X74178455Y-60611155D01*
X74211739Y-60583296D01*
X74241212Y-60542747D01*
X74261225Y-60482326D01*
X74276228Y-60387451D01*
X74290674Y-60243539D01*
X74318178Y-59939007D01*
X74586927Y-59871518D01*
X74637686Y-59859241D01*
X74755153Y-59834690D01*
X74843379Y-59821730D01*
X74886282Y-59822968D01*
G37*
G36*
X85578584Y-63129800D02*
G01*
X85579072Y-63173475D01*
X85587439Y-63259339D01*
X85613385Y-63319349D01*
X85666126Y-63358519D01*
X85754877Y-63381863D01*
X85888852Y-63394394D01*
X86077266Y-63401126D01*
X86233499Y-63402785D01*
X86387148Y-63399313D01*
X86505032Y-63390840D01*
X86573258Y-63378013D01*
X86612383Y-63360600D01*
X86644531Y-63328818D01*
X86658038Y-63271088D01*
X86660789Y-63168549D01*
X86660789Y-62992478D01*
X87074574Y-62992478D01*
X87074574Y-63291336D01*
X87074469Y-63335276D01*
X87070415Y-63475703D01*
X87056157Y-63568698D01*
X87025837Y-63627260D01*
X86973599Y-63664387D01*
X86893589Y-63693079D01*
X86881436Y-63695948D01*
X86800628Y-63705109D01*
X86671732Y-63712237D01*
X86506940Y-63717319D01*
X86318447Y-63720344D01*
X86118445Y-63721299D01*
X85919126Y-63720172D01*
X85732683Y-63716950D01*
X85571310Y-63711622D01*
X85447200Y-63704176D01*
X85372544Y-63694599D01*
X85366369Y-63693146D01*
X85278079Y-63664246D01*
X85219674Y-63619764D01*
X85185257Y-63547738D01*
X85168931Y-63436208D01*
X85164799Y-63273212D01*
X85164799Y-62992478D01*
X85578584Y-62992478D01*
X85578584Y-63129800D01*
G37*
G36*
X77557531Y-64786731D02*
G01*
X77560168Y-64850881D01*
X77574004Y-64941953D01*
X77595727Y-64993883D01*
X77637587Y-65010285D01*
X77734712Y-65022575D01*
X77889106Y-65029778D01*
X78103880Y-65032127D01*
X78125104Y-65032126D01*
X78315385Y-65031112D01*
X78451815Y-65025125D01*
X78543354Y-65009672D01*
X78598958Y-64980259D01*
X78627584Y-64932393D01*
X78638192Y-64861582D01*
X78639737Y-64763331D01*
X78639737Y-64617823D01*
X79053521Y-64617823D01*
X79053521Y-64918270D01*
X79053520Y-64924939D01*
X79052394Y-65063963D01*
X79046834Y-65154647D01*
X79033450Y-65211803D01*
X79008853Y-65250240D01*
X78969655Y-65284770D01*
X78966966Y-65286874D01*
X78937612Y-65307049D01*
X78902548Y-65322473D01*
X78853496Y-65333781D01*
X78782179Y-65341609D01*
X78680316Y-65346592D01*
X78539630Y-65349365D01*
X78351843Y-65350564D01*
X78108676Y-65350822D01*
X77927858Y-65350516D01*
X77712934Y-65348766D01*
X77548426Y-65345080D01*
X77426489Y-65339018D01*
X77339279Y-65330142D01*
X77278949Y-65318015D01*
X77237655Y-65302199D01*
X77143747Y-65253576D01*
X77143747Y-64617823D01*
X77557531Y-64617823D01*
X77557531Y-64786731D01*
G37*
G36*
X76649381Y-63984004D02*
G01*
X76772740Y-63987620D01*
X76855335Y-63994325D01*
X76903907Y-64004395D01*
X76925197Y-64018108D01*
X76941879Y-64070055D01*
X76951229Y-64164382D01*
X76948673Y-64265857D01*
X76933449Y-64344326D01*
X76914182Y-64364706D01*
X76845579Y-64387892D01*
X76750434Y-64397849D01*
X76650919Y-64394437D01*
X76569209Y-64377512D01*
X76527474Y-64346932D01*
X76494550Y-64326092D01*
X76411391Y-64309205D01*
X76293915Y-64298859D01*
X76157369Y-64295073D01*
X76017002Y-64297867D01*
X75888063Y-64307260D01*
X75785798Y-64323270D01*
X75725457Y-64345919D01*
X75702242Y-64359177D01*
X75604660Y-64384243D01*
X75464737Y-64393723D01*
X75265802Y-64394736D01*
X75265802Y-64256263D01*
X75266059Y-64236546D01*
X75283348Y-64129214D01*
X75332735Y-64057079D01*
X75347711Y-64044834D01*
X75378312Y-64028127D01*
X75423147Y-64015391D01*
X75490453Y-64005909D01*
X75588467Y-63998968D01*
X75725426Y-63993853D01*
X75909570Y-63989848D01*
X76149134Y-63986238D01*
X76253409Y-63984932D01*
X76478518Y-63983200D01*
X76649381Y-63984004D01*
G37*
G36*
X84818685Y-61335263D02*
G01*
X84943998Y-61335263D01*
X84970739Y-61334593D01*
X85041095Y-61324528D01*
X85069311Y-61306220D01*
X85064842Y-61277711D01*
X85048211Y-61197163D01*
X85022158Y-61079901D01*
X84989737Y-60939982D01*
X84963179Y-60826414D01*
X84935740Y-60706402D01*
X84917061Y-60621411D01*
X84910163Y-60584927D01*
X84922190Y-60578925D01*
X84981399Y-60574396D01*
X85073424Y-60576697D01*
X85236686Y-60586330D01*
X85326796Y-60952829D01*
X85360312Y-61092603D01*
X85390006Y-61223654D01*
X85410341Y-61321822D01*
X85418171Y-61372655D01*
X85417063Y-61383799D01*
X85389747Y-61448374D01*
X85337033Y-61524035D01*
X85310698Y-61553968D01*
X85256200Y-61598255D01*
X85188463Y-61617741D01*
X85082396Y-61622089D01*
X84995957Y-61624963D01*
X84930011Y-61638846D01*
X84910163Y-61666484D01*
X84919950Y-61697649D01*
X84979785Y-61735824D01*
X85085684Y-61749567D01*
X85137775Y-61761351D01*
X85181095Y-61821273D01*
X85195511Y-61871784D01*
X85217214Y-61948751D01*
X85220204Y-61972763D01*
X85201737Y-61993083D01*
X85145424Y-62002332D01*
X85038393Y-62004523D01*
X84937108Y-62002153D01*
X84857987Y-61987800D01*
X84792555Y-61951486D01*
X84714196Y-61883256D01*
X84669802Y-61840385D01*
X84631790Y-61795911D01*
X84600767Y-61743517D01*
X84572493Y-61672360D01*
X84542726Y-61571599D01*
X84507225Y-61430392D01*
X84461751Y-61237898D01*
X84432013Y-61110868D01*
X84392583Y-60942712D01*
X84359162Y-60800507D01*
X84334580Y-60696291D01*
X84321668Y-60642102D01*
X84315800Y-60607949D01*
X84328279Y-60582678D01*
X84376312Y-60572364D01*
X84473939Y-60570395D01*
X84643691Y-60570395D01*
X84818685Y-61335263D01*
G37*
G36*
X84968882Y-63539630D02*
G01*
X84965594Y-63636420D01*
X84959455Y-63685125D01*
X84951681Y-63694609D01*
X84921040Y-63706359D01*
X84861701Y-63714628D01*
X84766678Y-63719730D01*
X84628985Y-63721976D01*
X84441635Y-63721678D01*
X84197641Y-63719149D01*
X84090921Y-63717803D01*
X83854377Y-63714189D01*
X83671809Y-63708038D01*
X83536234Y-63696364D01*
X83440671Y-63676180D01*
X83378138Y-63644498D01*
X83341655Y-63598331D01*
X83324239Y-63534691D01*
X83318909Y-63450590D01*
X83318684Y-63343043D01*
X83318676Y-63338386D01*
X83778747Y-63338386D01*
X83824973Y-63373313D01*
X83839828Y-63378780D01*
X83913071Y-63390917D01*
X84023006Y-63399807D01*
X84152941Y-63405163D01*
X84286183Y-63406700D01*
X84406038Y-63404131D01*
X84495814Y-63397172D01*
X84538818Y-63385535D01*
X84545899Y-63375998D01*
X84560037Y-63321796D01*
X84557187Y-63312291D01*
X84528382Y-63296427D01*
X84461603Y-63286277D01*
X84348309Y-63280888D01*
X84179961Y-63279304D01*
X84170046Y-63279310D01*
X83982046Y-63282976D01*
X83855411Y-63293713D01*
X83788269Y-63312017D01*
X83778747Y-63338386D01*
X83318676Y-63338386D01*
X83318594Y-63292979D01*
X83320098Y-63195906D01*
X83329631Y-63121019D01*
X83354146Y-63065442D01*
X83400597Y-63026302D01*
X83475936Y-63000724D01*
X83587117Y-62985833D01*
X83741093Y-62978756D01*
X83944816Y-62976617D01*
X84205240Y-62976543D01*
X84957907Y-62976543D01*
X84967042Y-63309019D01*
X84967290Y-63321796D01*
X84969005Y-63410357D01*
X84968882Y-63539630D01*
G37*
G36*
X79576041Y-62978145D02*
G01*
X79690113Y-62999572D01*
X79690113Y-63693607D01*
X79276328Y-63693607D01*
X79276328Y-62997542D01*
X79369148Y-62977130D01*
X79371293Y-62976670D01*
X79469770Y-62969017D01*
X79576041Y-62978145D01*
G37*
G36*
X79674198Y-62371022D02*
G01*
X79684059Y-62526321D01*
X79686282Y-62576576D01*
X79685130Y-62669199D01*
X79677101Y-62725505D01*
X79660637Y-62743872D01*
X79592564Y-62763234D01*
X79468305Y-62769391D01*
X79276328Y-62769391D01*
X79276328Y-62352046D01*
X79674198Y-62371022D01*
G37*
G36*
X76644979Y-62962240D02*
G01*
X76771147Y-62966918D01*
X76857428Y-62976441D01*
X76910530Y-62991736D01*
X76937163Y-63013728D01*
X76944038Y-63043343D01*
X76937863Y-63081506D01*
X76936623Y-63086532D01*
X76917695Y-63148537D01*
X76890129Y-63194300D01*
X76844757Y-63226674D01*
X76772409Y-63248510D01*
X76663915Y-63262659D01*
X76510107Y-63271973D01*
X76301815Y-63279304D01*
X76292183Y-63279600D01*
X76080106Y-63287461D01*
X75925316Y-63296688D01*
X75821684Y-63308264D01*
X75763081Y-63323176D01*
X75743376Y-63342408D01*
X75756442Y-63366945D01*
X75792088Y-63374780D01*
X75881537Y-63382899D01*
X76014073Y-63390427D01*
X76179221Y-63396772D01*
X76366509Y-63401345D01*
X76952769Y-63411844D01*
X76952769Y-63729647D01*
X76195316Y-63719594D01*
X76042348Y-63717563D01*
X75806886Y-63713383D01*
X75624574Y-63706313D01*
X75488618Y-63693631D01*
X75392221Y-63672615D01*
X75328590Y-63640542D01*
X75290927Y-63594691D01*
X75272438Y-63532340D01*
X75266328Y-63450766D01*
X75265802Y-63347247D01*
X75265795Y-63334684D01*
X75266413Y-63226120D01*
X75273306Y-63142105D01*
X75293644Y-63079359D01*
X75334596Y-63034602D01*
X75403334Y-63004554D01*
X75507027Y-62985934D01*
X75652846Y-62975463D01*
X75847961Y-62969860D01*
X76099543Y-62965846D01*
X76246140Y-62963719D01*
X76472213Y-62961482D01*
X76644979Y-62962240D01*
G37*
G36*
X80422193Y-64001148D02*
G01*
X80427973Y-64002313D01*
X80478868Y-64016745D01*
X80505608Y-64044567D01*
X80515957Y-64102559D01*
X80517682Y-64207503D01*
X80517682Y-64394736D01*
X80135727Y-64394736D01*
X80135727Y-64207503D01*
X80135731Y-64196169D01*
X80137893Y-64095941D01*
X80149351Y-64041215D01*
X80177870Y-64015211D01*
X80231215Y-64001148D01*
X80316261Y-63993340D01*
X80422193Y-64001148D01*
G37*
G36*
X77442800Y-64002000D02*
G01*
X77557531Y-64020642D01*
X77557531Y-64394736D01*
X77143747Y-64394736D01*
X77143747Y-64207503D01*
X77143748Y-64200855D01*
X77145809Y-64098590D01*
X77156858Y-64042483D01*
X77184392Y-64015802D01*
X77235908Y-64001814D01*
X77238016Y-64001403D01*
X77336242Y-63994259D01*
X77442800Y-64002000D01*
G37*
G36*
X78938790Y-64002000D02*
G01*
X79053521Y-64020642D01*
X79053521Y-64394736D01*
X78639737Y-64394736D01*
X78639737Y-64207503D01*
X78639738Y-64200855D01*
X78641799Y-64098590D01*
X78652848Y-64042483D01*
X78680382Y-64015802D01*
X78731898Y-64001814D01*
X78734006Y-64001403D01*
X78832232Y-63994259D01*
X78938790Y-64002000D01*
G37*
G36*
X85987098Y-60802692D02*
G01*
X85996014Y-60838882D01*
X86046446Y-61050742D01*
X86079647Y-61211685D01*
X86095622Y-61330809D01*
X86094371Y-61417211D01*
X86075899Y-61479990D01*
X86040206Y-61528244D01*
X85987295Y-61571069D01*
X85974241Y-61579125D01*
X85878197Y-61610428D01*
X85750543Y-61622089D01*
X85670394Y-61620851D01*
X85610749Y-61610432D01*
X85582245Y-61580940D01*
X85566648Y-61522497D01*
X85550077Y-61424719D01*
X85554165Y-61365507D01*
X85587867Y-61340446D01*
X85658158Y-61335263D01*
X85672795Y-61334973D01*
X85741586Y-61323907D01*
X85769561Y-61301773D01*
X85764724Y-61274344D01*
X85747134Y-61194914D01*
X85719699Y-61077422D01*
X85685615Y-60934981D01*
X85648076Y-60780703D01*
X85610279Y-60627701D01*
X85575417Y-60489087D01*
X85546686Y-60377973D01*
X85527281Y-60307472D01*
X85523628Y-60290444D01*
X85534609Y-60265703D01*
X85582575Y-60254397D01*
X85680806Y-60251700D01*
X85850977Y-60251700D01*
X85987098Y-60802692D01*
G37*
G36*
X83960143Y-60276858D02*
G01*
X84035530Y-60323876D01*
X84042619Y-60330225D01*
X84073817Y-60366574D01*
X84102873Y-60419571D01*
X84132908Y-60498346D01*
X84167045Y-60612027D01*
X84208406Y-60769746D01*
X84260112Y-60980632D01*
X84261092Y-60984702D01*
X84305192Y-61169330D01*
X84343557Y-61332708D01*
X84373852Y-61464667D01*
X84393741Y-61555037D01*
X84400890Y-61593650D01*
X84382738Y-61600972D01*
X84310620Y-61609386D01*
X84193228Y-61616077D01*
X84040938Y-61620494D01*
X83864127Y-61622089D01*
X83674176Y-61622554D01*
X83512058Y-61619725D01*
X83390059Y-61606384D01*
X83299872Y-61575300D01*
X83233191Y-61519242D01*
X83181708Y-61430978D01*
X83137118Y-61303278D01*
X83091115Y-61128911D01*
X83035390Y-60900644D01*
X82992529Y-60727301D01*
X82951232Y-60562239D01*
X82916933Y-60427202D01*
X82892334Y-60332822D01*
X82880136Y-60289729D01*
X82885153Y-60266408D01*
X82932150Y-60255857D01*
X83031908Y-60257860D01*
X83198942Y-60267635D01*
X83325579Y-60785514D01*
X83452216Y-61303394D01*
X84020148Y-61303394D01*
X84000132Y-61215753D01*
X83984211Y-61147714D01*
X83956004Y-61030103D01*
X83921374Y-60887545D01*
X83883885Y-60734523D01*
X83847101Y-60585522D01*
X83814586Y-60455024D01*
X83789904Y-60357513D01*
X83776620Y-60307472D01*
X83776896Y-60278509D01*
X83813726Y-60253091D01*
X83880508Y-60252902D01*
X83960143Y-60276858D01*
G37*
G36*
X88952519Y-62769391D02*
G01*
X88760542Y-62769391D01*
X88655289Y-62765708D01*
X88581710Y-62750655D01*
X88550245Y-62721587D01*
X88536541Y-62704349D01*
X88497316Y-62689261D01*
X88424158Y-62679900D01*
X88307170Y-62675122D01*
X88136460Y-62673783D01*
X87993524Y-62674641D01*
X87867166Y-62678683D01*
X87786501Y-62687093D01*
X87741636Y-62701013D01*
X87722676Y-62721587D01*
X87722642Y-62721674D01*
X87692699Y-62749835D01*
X87622606Y-62764915D01*
X87500868Y-62769391D01*
X87297381Y-62769391D01*
X87297381Y-62611851D01*
X87297387Y-62602077D01*
X87299358Y-62529149D01*
X87309649Y-62472207D01*
X87335176Y-62429271D01*
X87382858Y-62398366D01*
X87459611Y-62377513D01*
X87572354Y-62364736D01*
X87728003Y-62358058D01*
X87933476Y-62355501D01*
X88195691Y-62355088D01*
X88952519Y-62355088D01*
X88952519Y-62769391D01*
G37*
G36*
X88952519Y-63337731D02*
G01*
X88951322Y-63452951D01*
X88946886Y-63577033D01*
X88939940Y-63665475D01*
X88931299Y-63704230D01*
X88911268Y-63713136D01*
X88841134Y-63722647D01*
X88747370Y-63724743D01*
X88655008Y-63719284D01*
X88589082Y-63706132D01*
X88560006Y-63679167D01*
X88543527Y-63614170D01*
X88538734Y-63498980D01*
X88538734Y-63311173D01*
X88063353Y-63311173D01*
X87927227Y-63494423D01*
X87923361Y-63499619D01*
X87851911Y-63592936D01*
X87793016Y-63665178D01*
X87759091Y-63701087D01*
X87730547Y-63710603D01*
X87652698Y-63719962D01*
X87550782Y-63724263D01*
X87446665Y-63723315D01*
X87362210Y-63716929D01*
X87319283Y-63704914D01*
X87321127Y-63681405D01*
X87352091Y-63619274D01*
X87407212Y-63536405D01*
X87452762Y-63472142D01*
X87502467Y-63395652D01*
X87525890Y-63350597D01*
X87525651Y-63341771D01*
X87493064Y-63300731D01*
X87424699Y-63256183D01*
X87382995Y-63232773D01*
X87325016Y-63176424D01*
X87303322Y-63096054D01*
X87293347Y-62992478D01*
X88952519Y-62992478D01*
X88952519Y-63337731D01*
G37*
G36*
X87330669Y-61366795D02*
G01*
X87250034Y-61490559D01*
X87125018Y-61576789D01*
X87093844Y-61588579D01*
X86948996Y-61615833D01*
X86781137Y-61615720D01*
X86617778Y-61587652D01*
X86546983Y-61560810D01*
X86412459Y-61470022D01*
X86297226Y-61342860D01*
X86211175Y-61194493D01*
X86174275Y-61073224D01*
X86473834Y-61073224D01*
X86508176Y-61186029D01*
X86577850Y-61285221D01*
X86677796Y-61353709D01*
X86695044Y-61360822D01*
X86762935Y-61386502D01*
X86795043Y-61394662D01*
X86816409Y-61388931D01*
X86876423Y-61376408D01*
X86899840Y-61370044D01*
X86980061Y-61312063D01*
X87026869Y-61216590D01*
X87030002Y-61101965D01*
X87015904Y-61050347D01*
X86951555Y-60941069D01*
X86856645Y-60861752D01*
X86745825Y-60819211D01*
X86633744Y-60820263D01*
X86535054Y-60871721D01*
X86531392Y-60875134D01*
X86479885Y-60963895D01*
X86473834Y-61073224D01*
X86174275Y-61073224D01*
X86164194Y-61040093D01*
X86166172Y-60894830D01*
X86175826Y-60859255D01*
X86244062Y-60738816D01*
X86351618Y-60653455D01*
X86487918Y-60602430D01*
X86642389Y-60584997D01*
X86804456Y-60600413D01*
X86963547Y-60647935D01*
X87109086Y-60726820D01*
X87230500Y-60836325D01*
X87317216Y-60975708D01*
X87344137Y-61052518D01*
X87349887Y-61101965D01*
X87363259Y-61216960D01*
X87330669Y-61366795D01*
G37*
G36*
X76948124Y-65164211D02*
G01*
X76945079Y-65260291D01*
X76939075Y-65308716D01*
X76935209Y-65314350D01*
X76907221Y-65326992D01*
X76848305Y-65336529D01*
X76751919Y-65343321D01*
X76611518Y-65347728D01*
X76420558Y-65350108D01*
X76172497Y-65350822D01*
X75422056Y-65350822D01*
X75343929Y-65272597D01*
X75313613Y-65238884D01*
X75283291Y-65182889D01*
X75269234Y-65104972D01*
X75265802Y-64984322D01*
X75266046Y-64968388D01*
X75759160Y-64968388D01*
X75764702Y-64984776D01*
X75794602Y-65001169D01*
X75859108Y-65012376D01*
X75967902Y-65019876D01*
X76130668Y-65025149D01*
X76204973Y-65026545D01*
X76373813Y-65025154D01*
X76480069Y-65015805D01*
X76524173Y-64998470D01*
X76534395Y-64962051D01*
X76506461Y-64934098D01*
X76432278Y-64917176D01*
X76306184Y-64910060D01*
X76122517Y-64911523D01*
X76007228Y-64915008D01*
X75884056Y-64921811D01*
X75808162Y-64931957D01*
X75769784Y-64946973D01*
X75759160Y-64968388D01*
X75266046Y-64968388D01*
X75267090Y-64900335D01*
X75276715Y-64809832D01*
X75300625Y-64748498D01*
X75344507Y-64695469D01*
X75423212Y-64616665D01*
X76180033Y-64625212D01*
X76936854Y-64633758D01*
X76946033Y-64950184D01*
X76946290Y-64962051D01*
X76947900Y-65036503D01*
X76948124Y-65164211D01*
G37*
%LPC*%
D11*
X90805000Y-104140000D03*
D12*
X90805000Y-88900000D03*
X89535000Y-70485000D03*
D11*
X89535000Y-55245000D03*
D13*
X171450000Y-93980000D03*
D14*
X171450000Y-104140000D03*
D15*
X182880000Y-61810000D03*
D16*
X182880000Y-54610000D03*
D17*
X158750000Y-96520000D03*
D16*
X158750000Y-103720000D03*
D18*
X158365000Y-72820000D03*
X158365000Y-69420000D03*
X171835000Y-72820000D03*
X171835000Y-69420000D03*
D13*
X219710000Y-93980000D03*
D14*
X219710000Y-104140000D03*
D17*
X231140000Y-96730000D03*
D16*
X231140000Y-103930000D03*
D18*
X182495000Y-89330000D03*
X182495000Y-85930000D03*
X195965000Y-85930000D03*
X195965000Y-89330000D03*
D15*
X134620000Y-61766000D03*
D16*
X134620000Y-54566000D03*
D13*
X123190000Y-93980000D03*
D14*
X123190000Y-104140000D03*
D13*
X147320000Y-93980000D03*
D14*
X147320000Y-104140000D03*
D18*
X158365000Y-85930000D03*
X158365000Y-89330000D03*
X171835000Y-89330000D03*
X171835000Y-85930000D03*
D17*
X111760000Y-96940000D03*
D16*
X111760000Y-104140000D03*
D13*
X171450000Y-63290000D03*
D14*
X171450000Y-53130000D03*
D18*
X134235000Y-69420000D03*
X134235000Y-72820000D03*
X147705000Y-69420000D03*
X147705000Y-72820000D03*
X134235000Y-89330000D03*
X134235000Y-85930000D03*
X147705000Y-89330000D03*
X147705000Y-85930000D03*
D15*
X110490000Y-61810000D03*
D16*
X110490000Y-54610000D03*
D13*
X239522000Y-65151000D03*
D14*
X239522000Y-54991000D03*
D18*
X110105000Y-69420000D03*
X110105000Y-72820000D03*
X123575000Y-72820000D03*
X123575000Y-69420000D03*
D15*
X159004000Y-61810000D03*
D16*
X159004000Y-54610000D03*
D18*
X110490000Y-89330000D03*
X110490000Y-85930000D03*
X123960000Y-89330000D03*
X123960000Y-85930000D03*
D19*
X76200000Y-85490000D03*
X76200000Y-71990000D03*
D20*
X82200000Y-82340000D03*
X82200000Y-75140000D03*
D18*
X206625000Y-85930000D03*
X206625000Y-89330000D03*
X220095000Y-89330000D03*
X220095000Y-85930000D03*
D15*
X207010000Y-61810000D03*
D16*
X207010000Y-54610000D03*
D13*
X239649000Y-93472000D03*
D14*
X239649000Y-103632000D03*
D17*
X134620000Y-96730000D03*
D16*
X134620000Y-103930000D03*
D18*
X182495000Y-69420000D03*
X182495000Y-72820000D03*
X195965000Y-72820000D03*
X195965000Y-69420000D03*
D15*
X231140000Y-61810000D03*
D16*
X231140000Y-54610000D03*
D18*
X230755000Y-69420000D03*
X230755000Y-72820000D03*
X244225000Y-72820000D03*
X244225000Y-69420000D03*
D13*
X195580000Y-93980000D03*
D14*
X195580000Y-104140000D03*
D13*
X147320000Y-63290000D03*
D14*
X147320000Y-53130000D03*
D13*
X194310000Y-63290000D03*
D14*
X194310000Y-53130000D03*
D18*
X230755000Y-89330000D03*
X230755000Y-85930000D03*
X244225000Y-85930000D03*
X244225000Y-89330000D03*
D17*
X207010000Y-96730000D03*
D16*
X207010000Y-103930000D03*
D18*
X206625000Y-69420000D03*
X206625000Y-72820000D03*
X220095000Y-72820000D03*
X220095000Y-69420000D03*
D21*
X70815000Y-91435000D03*
D22*
X70815000Y-96515000D03*
D13*
X219710000Y-63290000D03*
D14*
X219710000Y-53130000D03*
D13*
X121920000Y-63246000D03*
D14*
X121920000Y-53086000D03*
D17*
X182880000Y-96730000D03*
D16*
X182880000Y-103930000D03*
M02*
