G04 #@! TF.GenerationSoftware,KiCad,Pcbnew,6.0.4-6f826c9f35~116~ubuntu18.04.1*
G04 #@! TF.CreationDate,2022-04-20T11:51:17+08:00*
G04 #@! TF.ProjectId,Power_connector,506f7765-725f-4636-9f6e-6e6563746f72,rev?*
G04 #@! TF.SameCoordinates,Original*
G04 #@! TF.FileFunction,Soldermask,Bot*
G04 #@! TF.FilePolarity,Negative*
%FSLAX46Y46*%
G04 Gerber Fmt 4.6, Leading zero omitted, Abs format (unit mm)*
G04 Created by KiCad (PCBNEW 6.0.4-6f826c9f35~116~ubuntu18.04.1) date 2022-04-20 11:51:17*
%MOMM*%
%LPD*%
G01*
G04 APERTURE LIST*
G04 Aperture macros list*
%AMRoundRect*
0 Rectangle with rounded corners*
0 $1 Rounding radius*
0 $2 $3 $4 $5 $6 $7 $8 $9 X,Y pos of 4 corners*
0 Add a 4 corners polygon primitive as box body*
4,1,4,$2,$3,$4,$5,$6,$7,$8,$9,$2,$3,0*
0 Add four circle primitives for the rounded corners*
1,1,$1+$1,$2,$3*
1,1,$1+$1,$4,$5*
1,1,$1+$1,$6,$7*
1,1,$1+$1,$8,$9*
0 Add four rect primitives between the rounded corners*
20,1,$1+$1,$2,$3,$4,$5,0*
20,1,$1+$1,$4,$5,$6,$7,0*
20,1,$1+$1,$6,$7,$8,$9,0*
20,1,$1+$1,$8,$9,$2,$3,0*%
G04 Aperture macros list end*
%ADD10O,3.200000X3.200000*%
%ADD11R,3.200000X3.200000*%
%ADD12R,2.200000X2.200000*%
%ADD13O,2.200000X2.200000*%
%ADD14RoundRect,1.500000X1.500000X-1.500000X1.500000X1.500000X-1.500000X1.500000X-1.500000X-1.500000X0*%
%ADD15C,6.000000*%
%ADD16RoundRect,1.500000X-1.500000X1.500000X-1.500000X-1.500000X1.500000X-1.500000X1.500000X1.500000X0*%
%ADD17C,2.400000*%
%ADD18R,1.800000X1.200000*%
%ADD19C,4.500000*%
%ADD20R,2.600000X2.600000*%
%ADD21C,2.600000*%
G04 APERTURE END LIST*
D10*
X90805000Y-104140000D03*
D11*
X90805000Y-88900000D03*
X89535000Y-70485000D03*
D10*
X89535000Y-55245000D03*
D12*
X171450000Y-93980000D03*
D13*
X171450000Y-104140000D03*
D14*
X182880000Y-61810000D03*
D15*
X182880000Y-54610000D03*
D16*
X158750000Y-96520000D03*
D15*
X158750000Y-103720000D03*
D17*
X158365000Y-72820000D03*
X158365000Y-69420000D03*
X171835000Y-72820000D03*
X171835000Y-69420000D03*
D12*
X219710000Y-93980000D03*
D13*
X219710000Y-104140000D03*
D16*
X231140000Y-96730000D03*
D15*
X231140000Y-103930000D03*
D17*
X182495000Y-89330000D03*
X182495000Y-85930000D03*
X195965000Y-85930000D03*
X195965000Y-89330000D03*
D14*
X134620000Y-61766000D03*
D15*
X134620000Y-54566000D03*
D12*
X123190000Y-93980000D03*
D13*
X123190000Y-104140000D03*
D12*
X147320000Y-93980000D03*
D13*
X147320000Y-104140000D03*
D17*
X158365000Y-85930000D03*
X158365000Y-89330000D03*
X171835000Y-89330000D03*
X171835000Y-85930000D03*
D16*
X111760000Y-96940000D03*
D15*
X111760000Y-104140000D03*
D12*
X171450000Y-63290000D03*
D13*
X171450000Y-53130000D03*
D17*
X134235000Y-69420000D03*
X134235000Y-72820000D03*
X147705000Y-69420000D03*
X147705000Y-72820000D03*
X134235000Y-89330000D03*
X134235000Y-85930000D03*
X147705000Y-89330000D03*
X147705000Y-85930000D03*
D14*
X110490000Y-61810000D03*
D15*
X110490000Y-54610000D03*
D12*
X239522000Y-65151000D03*
D13*
X239522000Y-54991000D03*
D17*
X110105000Y-69420000D03*
X110105000Y-72820000D03*
X123575000Y-72820000D03*
X123575000Y-69420000D03*
D14*
X159004000Y-61810000D03*
D15*
X159004000Y-54610000D03*
D17*
X110490000Y-89330000D03*
X110490000Y-85930000D03*
X123960000Y-89330000D03*
X123960000Y-85930000D03*
D18*
X76200000Y-85490000D03*
X76200000Y-71990000D03*
D19*
X82200000Y-82340000D03*
X82200000Y-75140000D03*
D17*
X206625000Y-85930000D03*
X206625000Y-89330000D03*
X220095000Y-89330000D03*
X220095000Y-85930000D03*
D14*
X207010000Y-61810000D03*
D15*
X207010000Y-54610000D03*
D12*
X239649000Y-93472000D03*
D13*
X239649000Y-103632000D03*
D16*
X134620000Y-96730000D03*
D15*
X134620000Y-103930000D03*
D17*
X182495000Y-69420000D03*
X182495000Y-72820000D03*
X195965000Y-72820000D03*
X195965000Y-69420000D03*
D14*
X231140000Y-61810000D03*
D15*
X231140000Y-54610000D03*
D17*
X230755000Y-69420000D03*
X230755000Y-72820000D03*
X244225000Y-72820000D03*
X244225000Y-69420000D03*
D12*
X195580000Y-93980000D03*
D13*
X195580000Y-104140000D03*
D12*
X147320000Y-63290000D03*
D13*
X147320000Y-53130000D03*
D12*
X194310000Y-63290000D03*
D13*
X194310000Y-53130000D03*
D17*
X230755000Y-89330000D03*
X230755000Y-85930000D03*
X244225000Y-85930000D03*
X244225000Y-89330000D03*
D16*
X207010000Y-96730000D03*
D15*
X207010000Y-103930000D03*
D17*
X206625000Y-69420000D03*
X206625000Y-72820000D03*
X220095000Y-72820000D03*
X220095000Y-69420000D03*
D20*
X70815000Y-91435000D03*
D21*
X70815000Y-96515000D03*
D12*
X219710000Y-63290000D03*
D13*
X219710000Y-53130000D03*
D12*
X121920000Y-63246000D03*
D13*
X121920000Y-53086000D03*
D16*
X182880000Y-96730000D03*
D15*
X182880000Y-103930000D03*
M02*
