M48
; DRILL file {KiCad 6.0.4-6f826c9f35~116~ubuntu18.04.1} date Thu May 26 09:16:03 2022
; FORMAT={-:-/ absolute / metric / decimal}
; #@! TF.CreationDate,2022-05-26T09:16:03+08:00
; #@! TF.GenerationSoftware,Kicad,Pcbnew,6.0.4-6f826c9f35~116~ubuntu18.04.1
; #@! TF.FileFunction,Plated,1,2,PTH
FMAT,2
METRIC
; #@! TA.AperFunction,Plated,PTH,ViaDrill
T1C0.400
; #@! TA.AperFunction,Plated,PTH,ViaDrill
T2C0.500
; #@! TA.AperFunction,Plated,PTH,ComponentDrill
T3C1.300
; #@! TA.AperFunction,Plated,PTH,ComponentDrill
T4C1.600
; #@! TA.AperFunction,Plated,PTH,ComponentDrill
T5C2.000
; #@! TA.AperFunction,Plated,PTH,ComponentDrill
T6C2.750
; #@! TA.AperFunction,Plated,PTH,ViaDrill
T7C3.000
; #@! TA.AperFunction,Plated,PTH,ComponentDrill
T8C4.500
%
G90
G05
T1
X93.472Y-55.118
X93.472Y-58.928
X96.012Y-55.118
X96.012Y-58.928
T2
X101.6Y-42.164
X101.6Y-45.72
X105.664Y-42.164
X105.664Y-45.72
X107.696Y-60.96
X154.432Y-42.164
X154.432Y-45.72
X154.432Y-49.276
X159.004Y-42.164
X159.004Y-45.72
X159.004Y-49.276
X164.084Y-42.164
X164.084Y-45.72
X164.084Y-49.276
T3
X163.576Y-54.864
X163.576Y-59.944
T4
X111.76Y-144.272
X127.0Y-144.272
X133.096Y-144.272
X148.336Y-144.272
T5
X112.014Y-134.444
X112.014Y-137.844
X112.09Y-70.944
X112.09Y-74.344
X112.09Y-96.344
X112.09Y-99.744
X112.09Y-121.869
X112.09Y-125.269
X112.141Y-109.376
X112.141Y-112.776
X112.268Y-83.82
X112.268Y-87.22
X125.73Y-134.444
X125.73Y-137.844
X125.806Y-70.944
X125.806Y-74.344
X125.806Y-96.344
X125.806Y-99.744
X125.806Y-121.869
X125.806Y-125.269
X125.857Y-109.376
X125.857Y-112.776
X125.984Y-83.82
X125.984Y-87.22
X134.112Y-122.076
X134.112Y-125.476
X134.315Y-109.169
X134.315Y-112.569
X134.315Y-134.569
X134.315Y-137.969
X134.366Y-70.944
X134.366Y-74.344
X134.366Y-96.344
X134.366Y-99.744
X134.688Y-83.769
X134.688Y-87.169
X147.828Y-122.076
X147.828Y-125.476
X148.031Y-109.169
X148.031Y-112.569
X148.031Y-134.569
X148.031Y-137.969
X148.082Y-70.944
X148.082Y-74.344
X148.082Y-96.344
X148.082Y-99.744
X148.404Y-83.769
X148.404Y-87.169
T6
X126.248Y-57.675
X133.448Y-57.675
T7
X92.416Y-43.18
X92.456Y-145.288
X168.148Y-43.18
X168.148Y-145.288
T8
X94.952Y-110.744
X94.996Y-85.598
X95.028Y-72.769
X95.028Y-98.169
X95.028Y-123.569
X95.206Y-136.398
X102.152Y-110.744
X102.196Y-85.598
X102.228Y-72.769
X102.228Y-98.169
X102.228Y-123.569
X102.406Y-136.398
X157.9Y-72.644
X157.944Y-98.298
X157.944Y-123.698
X158.103Y-85.469
X158.103Y-110.869
X158.103Y-136.269
X165.1Y-72.644
X165.144Y-98.298
X165.144Y-123.698
X165.303Y-85.469
X165.303Y-110.869
X165.303Y-136.269
T0
M30
