G04 #@! TF.GenerationSoftware,KiCad,Pcbnew,6.0.1-79c1e3a40b~116~ubuntu18.04.1*
G04 #@! TF.CreationDate,2022-02-08T11:35:10+08:00*
G04 #@! TF.ProjectId,canbus_board,63616e62-7573-45f6-926f-6172642e6b69,rev?*
G04 #@! TF.SameCoordinates,Original*
G04 #@! TF.FileFunction,Copper,L2,Bot*
G04 #@! TF.FilePolarity,Positive*
%FSLAX46Y46*%
G04 Gerber Fmt 4.6, Leading zero omitted, Abs format (unit mm)*
G04 Created by KiCad (PCBNEW 6.0.1-79c1e3a40b~116~ubuntu18.04.1) date 2022-02-08 11:35:10*
%MOMM*%
%LPD*%
G01*
G04 APERTURE LIST*
G04 Aperture macros list*
%AMRoundRect*
0 Rectangle with rounded corners*
0 $1 Rounding radius*
0 $2 $3 $4 $5 $6 $7 $8 $9 X,Y pos of 4 corners*
0 Add a 4 corners polygon primitive as box body*
4,1,4,$2,$3,$4,$5,$6,$7,$8,$9,$2,$3,0*
0 Add four circle primitives for the rounded corners*
1,1,$1+$1,$2,$3*
1,1,$1+$1,$4,$5*
1,1,$1+$1,$6,$7*
1,1,$1+$1,$8,$9*
0 Add four rect primitives between the rounded corners*
20,1,$1+$1,$2,$3,$4,$5,0*
20,1,$1+$1,$4,$5,$6,$7,0*
20,1,$1+$1,$6,$7,$8,$9,0*
20,1,$1+$1,$8,$9,$2,$3,0*%
G04 Aperture macros list end*
G04 #@! TA.AperFunction,ComponentPad*
%ADD10RoundRect,0.250001X-0.499999X0.499999X-0.499999X-0.499999X0.499999X-0.499999X0.499999X0.499999X0*%
G04 #@! TD*
G04 #@! TA.AperFunction,ComponentPad*
%ADD11C,1.500000*%
G04 #@! TD*
G04 #@! TA.AperFunction,ComponentPad*
%ADD12RoundRect,0.250001X-0.499999X-0.499999X0.499999X-0.499999X0.499999X0.499999X-0.499999X0.499999X0*%
G04 #@! TD*
G04 #@! TA.AperFunction,ComponentPad*
%ADD13RoundRect,0.250001X0.499999X0.499999X-0.499999X0.499999X-0.499999X-0.499999X0.499999X-0.499999X0*%
G04 #@! TD*
G04 #@! TA.AperFunction,ComponentPad*
%ADD14R,1.700000X1.700000*%
G04 #@! TD*
G04 #@! TA.AperFunction,ComponentPad*
%ADD15O,1.700000X1.700000*%
G04 #@! TD*
G04 #@! TA.AperFunction,ViaPad*
%ADD16C,4.500000*%
G04 #@! TD*
G04 #@! TA.AperFunction,Conductor*
%ADD17C,0.200000*%
G04 #@! TD*
G04 APERTURE END LIST*
D10*
X69342000Y-56642000D03*
D11*
X69342000Y-59642000D03*
X66342000Y-56642000D03*
X66342000Y-59642000D03*
D12*
X102870000Y-56388000D03*
D11*
X105870000Y-56388000D03*
X102870000Y-59388000D03*
X105870000Y-59388000D03*
D12*
X90170000Y-56388000D03*
D11*
X93170000Y-56388000D03*
X90170000Y-59388000D03*
X93170000Y-59388000D03*
D13*
X105894000Y-46619000D03*
D11*
X102894000Y-46619000D03*
X105894000Y-43619000D03*
X102894000Y-43619000D03*
D14*
X58420000Y-42667000D03*
D15*
X58420000Y-45207000D03*
D13*
X118491000Y-46609000D03*
D11*
X115491000Y-46609000D03*
X118491000Y-43609000D03*
X115491000Y-43609000D03*
D12*
X77494000Y-56388000D03*
D11*
X80494000Y-56388000D03*
X77494000Y-59388000D03*
X80494000Y-59388000D03*
D12*
X115594000Y-56378000D03*
D11*
X118594000Y-56378000D03*
X115594000Y-59378000D03*
X118594000Y-59378000D03*
D10*
X68834000Y-43688000D03*
D11*
X68834000Y-46688000D03*
X65834000Y-43688000D03*
X65834000Y-46688000D03*
D13*
X80494000Y-46619000D03*
D11*
X77494000Y-46619000D03*
X80494000Y-43619000D03*
X77494000Y-43619000D03*
D13*
X93194000Y-46619000D03*
D11*
X90194000Y-46619000D03*
X93194000Y-43619000D03*
X90194000Y-43619000D03*
D14*
X58547000Y-60076000D03*
D15*
X58547000Y-57536000D03*
D16*
X56896000Y-37084000D03*
X56896000Y-66040000D03*
X124968000Y-66040000D03*
X124968000Y-37084000D03*
D17*
X115570000Y-48133000D02*
X115570000Y-56354000D01*
X117094000Y-46609000D02*
X115570000Y-48133000D01*
X118491000Y-46609000D02*
X117094000Y-46609000D01*
X115570000Y-56354000D02*
X115594000Y-56378000D01*
X60878489Y-45638489D02*
X67784489Y-45638489D01*
X67784489Y-45638489D02*
X68834000Y-46688000D01*
X58420000Y-43180000D02*
X60878489Y-45638489D01*
X58420000Y-42667000D02*
X58420000Y-43180000D01*
G04 #@! TA.AperFunction,Conductor*
G36*
X122154288Y-37104002D02*
G01*
X122200781Y-37157658D01*
X122212011Y-37203735D01*
X122221147Y-37387255D01*
X122221788Y-37390986D01*
X122221789Y-37390994D01*
X122236586Y-37477103D01*
X122277474Y-37715057D01*
X122372774Y-38033718D01*
X122374287Y-38037189D01*
X122374289Y-38037195D01*
X122428000Y-38160427D01*
X122505666Y-38338622D01*
X122674226Y-38625352D01*
X122676527Y-38628367D01*
X122873712Y-38886742D01*
X122873717Y-38886748D01*
X122876012Y-38889755D01*
X123108102Y-39128002D01*
X123367132Y-39336640D01*
X123649352Y-39512648D01*
X123950672Y-39653476D01*
X124039737Y-39682673D01*
X124259469Y-39754705D01*
X124266729Y-39757085D01*
X124592944Y-39821973D01*
X124596716Y-39822260D01*
X124596724Y-39822261D01*
X124745276Y-39833561D01*
X124851558Y-39841645D01*
X124917964Y-39866756D01*
X124960254Y-39923784D01*
X124968000Y-39967282D01*
X124968000Y-63158035D01*
X124947998Y-63226156D01*
X124894342Y-63272649D01*
X124848924Y-63283845D01*
X124703775Y-63291834D01*
X124650366Y-63294773D01*
X124646639Y-63295434D01*
X124646635Y-63295434D01*
X124387510Y-63341358D01*
X124322864Y-63352815D01*
X124319239Y-63353920D01*
X124319234Y-63353921D01*
X124111683Y-63417178D01*
X124004707Y-63449782D01*
X124001243Y-63451313D01*
X124001236Y-63451316D01*
X123916090Y-63488959D01*
X123700503Y-63584269D01*
X123697249Y-63586205D01*
X123697243Y-63586208D01*
X123589178Y-63650500D01*
X123414659Y-63754328D01*
X123151316Y-63957496D01*
X122914288Y-64190829D01*
X122707009Y-64450949D01*
X122532481Y-64734086D01*
X122393232Y-65036140D01*
X122392073Y-65039740D01*
X122392070Y-65039747D01*
X122383368Y-65066771D01*
X122291280Y-65352735D01*
X122228100Y-65679285D01*
X122227833Y-65683061D01*
X122227832Y-65683066D01*
X122210852Y-65922899D01*
X122186089Y-65989437D01*
X122129284Y-66032024D01*
X122085167Y-66040000D01*
X59778175Y-66040000D01*
X59710054Y-66019998D01*
X59663561Y-65966342D01*
X59652403Y-65921582D01*
X59639755Y-65711772D01*
X59639754Y-65711765D01*
X59639527Y-65707997D01*
X59579770Y-65380803D01*
X59481139Y-65063157D01*
X59345061Y-64759662D01*
X59260108Y-64618555D01*
X59175466Y-64477966D01*
X59175462Y-64477960D01*
X59173507Y-64474713D01*
X59171180Y-64471729D01*
X59171175Y-64471722D01*
X58971294Y-64215425D01*
X58971288Y-64215418D01*
X58968963Y-64212437D01*
X58734392Y-63976634D01*
X58473191Y-63770720D01*
X58189144Y-63597677D01*
X58068046Y-63542617D01*
X57889817Y-63461580D01*
X57889809Y-63461577D01*
X57886365Y-63460011D01*
X57569240Y-63359718D01*
X57346896Y-63317906D01*
X57246087Y-63298949D01*
X57246085Y-63298949D01*
X57242364Y-63298249D01*
X57013759Y-63283266D01*
X56947093Y-63258852D01*
X56904209Y-63202270D01*
X56896000Y-63157536D01*
X56896000Y-62634925D01*
X64388645Y-62634925D01*
X64406570Y-62831888D01*
X64462410Y-63021619D01*
X64465263Y-63027077D01*
X64465265Y-63027081D01*
X64512720Y-63117853D01*
X64554040Y-63196890D01*
X64677968Y-63351025D01*
X64682692Y-63354989D01*
X64687492Y-63359017D01*
X64829474Y-63478154D01*
X64834872Y-63481121D01*
X64834877Y-63481125D01*
X64978180Y-63559905D01*
X65002787Y-63573433D01*
X65008654Y-63575294D01*
X65008656Y-63575295D01*
X65079213Y-63597677D01*
X65191306Y-63633235D01*
X65345227Y-63650500D01*
X65451769Y-63650500D01*
X65454825Y-63650200D01*
X65454832Y-63650200D01*
X65513340Y-63644463D01*
X65598833Y-63636080D01*
X65604734Y-63634298D01*
X65604736Y-63634298D01*
X65719508Y-63599646D01*
X65788169Y-63578916D01*
X65962796Y-63486066D01*
X66049062Y-63415709D01*
X66111287Y-63364960D01*
X66111290Y-63364957D01*
X66116062Y-63361065D01*
X66186024Y-63276496D01*
X66238201Y-63213425D01*
X66238203Y-63213421D01*
X66242130Y-63208675D01*
X66336198Y-63034701D01*
X66394682Y-62845768D01*
X66415355Y-62649075D01*
X66397430Y-62452112D01*
X66341590Y-62262381D01*
X66331919Y-62243881D01*
X66252813Y-62092568D01*
X66249960Y-62087110D01*
X66126032Y-61932975D01*
X66119727Y-61927684D01*
X66103334Y-61913929D01*
X65974526Y-61805846D01*
X65969128Y-61802879D01*
X65969123Y-61802875D01*
X65806608Y-61713533D01*
X65806609Y-61713533D01*
X65801213Y-61710567D01*
X65795346Y-61708706D01*
X65795344Y-61708705D01*
X65618564Y-61652627D01*
X65618563Y-61652627D01*
X65612694Y-61650765D01*
X65458773Y-61633500D01*
X65352231Y-61633500D01*
X65349175Y-61633800D01*
X65349168Y-61633800D01*
X65290660Y-61639537D01*
X65205167Y-61647920D01*
X65199266Y-61649702D01*
X65199264Y-61649702D01*
X65125947Y-61671838D01*
X65015831Y-61705084D01*
X64841204Y-61797934D01*
X64754938Y-61868291D01*
X64692713Y-61919040D01*
X64692710Y-61919043D01*
X64687938Y-61922935D01*
X64684011Y-61927682D01*
X64684009Y-61927684D01*
X64565799Y-62070575D01*
X64565797Y-62070579D01*
X64561870Y-62075325D01*
X64467802Y-62249299D01*
X64409318Y-62438232D01*
X64388645Y-62634925D01*
X56896000Y-62634925D01*
X56896000Y-57502695D01*
X57184251Y-57502695D01*
X57184548Y-57507848D01*
X57184548Y-57507851D01*
X57192792Y-57650828D01*
X57197110Y-57725715D01*
X57198247Y-57730761D01*
X57198248Y-57730767D01*
X57201489Y-57745146D01*
X57246222Y-57943639D01*
X57284461Y-58037811D01*
X57328111Y-58145308D01*
X57330266Y-58150616D01*
X57362780Y-58203674D01*
X57438285Y-58326887D01*
X57446987Y-58341088D01*
X57593250Y-58509938D01*
X57597230Y-58513242D01*
X57601981Y-58517187D01*
X57641616Y-58576090D01*
X57643113Y-58647071D01*
X57605997Y-58707593D01*
X57565725Y-58732112D01*
X57513106Y-58751838D01*
X57450295Y-58775385D01*
X57333739Y-58862739D01*
X57246385Y-58979295D01*
X57195255Y-59115684D01*
X57188500Y-59177866D01*
X57188500Y-60974134D01*
X57195255Y-61036316D01*
X57246385Y-61172705D01*
X57333739Y-61289261D01*
X57450295Y-61376615D01*
X57586684Y-61427745D01*
X57648866Y-61434500D01*
X59445134Y-61434500D01*
X59507316Y-61427745D01*
X59643705Y-61376615D01*
X59760261Y-61289261D01*
X59847615Y-61172705D01*
X59898745Y-61036316D01*
X59905500Y-60974134D01*
X59905500Y-59642000D01*
X65078693Y-59642000D01*
X65097885Y-59861371D01*
X65154880Y-60074076D01*
X65187603Y-60144251D01*
X65245618Y-60268666D01*
X65245621Y-60268671D01*
X65247944Y-60273653D01*
X65251100Y-60278160D01*
X65251101Y-60278162D01*
X65363800Y-60439112D01*
X65374251Y-60454038D01*
X65529962Y-60609749D01*
X65534471Y-60612906D01*
X65534473Y-60612908D01*
X65609241Y-60665261D01*
X65710346Y-60736056D01*
X65909924Y-60829120D01*
X66122629Y-60886115D01*
X66342000Y-60905307D01*
X66561371Y-60886115D01*
X66774076Y-60829120D01*
X66973654Y-60736056D01*
X67074759Y-60665261D01*
X67149527Y-60612908D01*
X67149529Y-60612906D01*
X67154038Y-60609749D01*
X67309749Y-60454038D01*
X67320201Y-60439112D01*
X67432899Y-60278162D01*
X67432900Y-60278160D01*
X67436056Y-60273653D01*
X67438379Y-60268671D01*
X67438382Y-60268666D01*
X67496397Y-60144251D01*
X67529120Y-60074076D01*
X67586115Y-59861371D01*
X67605307Y-59642000D01*
X68078693Y-59642000D01*
X68097885Y-59861371D01*
X68154880Y-60074076D01*
X68187603Y-60144251D01*
X68245618Y-60268666D01*
X68245621Y-60268671D01*
X68247944Y-60273653D01*
X68251100Y-60278160D01*
X68251101Y-60278162D01*
X68363800Y-60439112D01*
X68374251Y-60454038D01*
X68529962Y-60609749D01*
X68534471Y-60612906D01*
X68534473Y-60612908D01*
X68609241Y-60665261D01*
X68710346Y-60736056D01*
X68909924Y-60829120D01*
X69122629Y-60886115D01*
X69342000Y-60905307D01*
X69561371Y-60886115D01*
X69774076Y-60829120D01*
X69973654Y-60736056D01*
X70074759Y-60665261D01*
X70149527Y-60612908D01*
X70149529Y-60612906D01*
X70154038Y-60609749D01*
X70309749Y-60454038D01*
X70320201Y-60439112D01*
X70402956Y-60320925D01*
X73480645Y-60320925D01*
X73481933Y-60335075D01*
X73495521Y-60484381D01*
X73498570Y-60517888D01*
X73500308Y-60523794D01*
X73500309Y-60523798D01*
X73514592Y-60572326D01*
X73554410Y-60707619D01*
X73557263Y-60713077D01*
X73557265Y-60713081D01*
X73570492Y-60738381D01*
X73646040Y-60882890D01*
X73769968Y-61037025D01*
X73774692Y-61040989D01*
X73777941Y-61043715D01*
X73921474Y-61164154D01*
X73926872Y-61167121D01*
X73926877Y-61167125D01*
X74070180Y-61245905D01*
X74094787Y-61259433D01*
X74100654Y-61261294D01*
X74100656Y-61261295D01*
X74262645Y-61312681D01*
X74283306Y-61319235D01*
X74437227Y-61336500D01*
X74543769Y-61336500D01*
X74546825Y-61336200D01*
X74546832Y-61336200D01*
X74605340Y-61330463D01*
X74690833Y-61322080D01*
X74696734Y-61320298D01*
X74696736Y-61320298D01*
X74781712Y-61294642D01*
X74880169Y-61264916D01*
X75054796Y-61172066D01*
X75141062Y-61101709D01*
X75203287Y-61050960D01*
X75203290Y-61050957D01*
X75208062Y-61047065D01*
X75213089Y-61040989D01*
X75330201Y-60899425D01*
X75330203Y-60899421D01*
X75334130Y-60894675D01*
X75428198Y-60720701D01*
X75486682Y-60531768D01*
X75492239Y-60478899D01*
X75496521Y-60438161D01*
X76808393Y-60438161D01*
X76817687Y-60450175D01*
X76858088Y-60478464D01*
X76867584Y-60483947D01*
X77057113Y-60572326D01*
X77067405Y-60576072D01*
X77269401Y-60630196D01*
X77280196Y-60632099D01*
X77488525Y-60650326D01*
X77499475Y-60650326D01*
X77707804Y-60632099D01*
X77718599Y-60630196D01*
X77920595Y-60576072D01*
X77930887Y-60572326D01*
X78120416Y-60483947D01*
X78129912Y-60478464D01*
X78171148Y-60449590D01*
X78179523Y-60439112D01*
X78172457Y-60425668D01*
X77506811Y-59760021D01*
X77492868Y-59752408D01*
X77491034Y-59752539D01*
X77484420Y-59756790D01*
X76814820Y-60426391D01*
X76808393Y-60438161D01*
X75496521Y-60438161D01*
X75506711Y-60341204D01*
X75506711Y-60341202D01*
X75507355Y-60335075D01*
X75489430Y-60138112D01*
X75470584Y-60074076D01*
X75435330Y-59954294D01*
X75433590Y-59948381D01*
X75428363Y-59938381D01*
X75369119Y-59825061D01*
X75341960Y-59773110D01*
X75218032Y-59618975D01*
X75211727Y-59613684D01*
X75185651Y-59591804D01*
X75066526Y-59491846D01*
X75061128Y-59488879D01*
X75061123Y-59488875D01*
X74898608Y-59399533D01*
X74898609Y-59399533D01*
X74893213Y-59396567D01*
X74887346Y-59394706D01*
X74887344Y-59394705D01*
X74883467Y-59393475D01*
X76231674Y-59393475D01*
X76249901Y-59601804D01*
X76251804Y-59612599D01*
X76305928Y-59814595D01*
X76309674Y-59824887D01*
X76398054Y-60014417D01*
X76403534Y-60023907D01*
X76432411Y-60065149D01*
X76442887Y-60073523D01*
X76456334Y-60066455D01*
X77121979Y-59400811D01*
X77128356Y-59389132D01*
X77858408Y-59389132D01*
X77858539Y-59390966D01*
X77862790Y-59397580D01*
X78532391Y-60067180D01*
X78544161Y-60073607D01*
X78556176Y-60064311D01*
X78584466Y-60023907D01*
X78589946Y-60014417D01*
X78678326Y-59824887D01*
X78682072Y-59814595D01*
X78736196Y-59612599D01*
X78738099Y-59601804D01*
X78756326Y-59393475D01*
X78756326Y-59388000D01*
X79230693Y-59388000D01*
X79249885Y-59607371D01*
X79306880Y-59820076D01*
X79309205Y-59825061D01*
X79397618Y-60014666D01*
X79397621Y-60014671D01*
X79399944Y-60019653D01*
X79403100Y-60024160D01*
X79403101Y-60024162D01*
X79521978Y-60193935D01*
X79526251Y-60200038D01*
X79681962Y-60355749D01*
X79862346Y-60482056D01*
X80061924Y-60575120D01*
X80274629Y-60632115D01*
X80494000Y-60651307D01*
X80713371Y-60632115D01*
X80926076Y-60575120D01*
X81125654Y-60482056D01*
X81306038Y-60355749D01*
X81340862Y-60320925D01*
X82480645Y-60320925D01*
X82481933Y-60335075D01*
X82495521Y-60484381D01*
X82498570Y-60517888D01*
X82500308Y-60523794D01*
X82500309Y-60523798D01*
X82514592Y-60572326D01*
X82554410Y-60707619D01*
X82557263Y-60713077D01*
X82557265Y-60713081D01*
X82570492Y-60738381D01*
X82646040Y-60882890D01*
X82769968Y-61037025D01*
X82774692Y-61040989D01*
X82777941Y-61043715D01*
X82921474Y-61164154D01*
X82926872Y-61167121D01*
X82926877Y-61167125D01*
X83070180Y-61245905D01*
X83094787Y-61259433D01*
X83100654Y-61261294D01*
X83100656Y-61261295D01*
X83262645Y-61312681D01*
X83283306Y-61319235D01*
X83437227Y-61336500D01*
X83543769Y-61336500D01*
X83546825Y-61336200D01*
X83546832Y-61336200D01*
X83605340Y-61330463D01*
X83690833Y-61322080D01*
X83696734Y-61320298D01*
X83696736Y-61320298D01*
X83781712Y-61294642D01*
X83880169Y-61264916D01*
X84054796Y-61172066D01*
X84141062Y-61101709D01*
X84203287Y-61050960D01*
X84203290Y-61050957D01*
X84208062Y-61047065D01*
X84213089Y-61040989D01*
X84330201Y-60899425D01*
X84330203Y-60899421D01*
X84334130Y-60894675D01*
X84428198Y-60720701D01*
X84486682Y-60531768D01*
X84492239Y-60478899D01*
X84506711Y-60341204D01*
X84506711Y-60341202D01*
X84507355Y-60335075D01*
X84506067Y-60320925D01*
X86156645Y-60320925D01*
X86157933Y-60335075D01*
X86171521Y-60484381D01*
X86174570Y-60517888D01*
X86176308Y-60523794D01*
X86176309Y-60523798D01*
X86190592Y-60572326D01*
X86230410Y-60707619D01*
X86233263Y-60713077D01*
X86233265Y-60713081D01*
X86246492Y-60738381D01*
X86322040Y-60882890D01*
X86445968Y-61037025D01*
X86450692Y-61040989D01*
X86453941Y-61043715D01*
X86597474Y-61164154D01*
X86602872Y-61167121D01*
X86602877Y-61167125D01*
X86746180Y-61245905D01*
X86770787Y-61259433D01*
X86776654Y-61261294D01*
X86776656Y-61261295D01*
X86938645Y-61312681D01*
X86959306Y-61319235D01*
X87113227Y-61336500D01*
X87219769Y-61336500D01*
X87222825Y-61336200D01*
X87222832Y-61336200D01*
X87281340Y-61330463D01*
X87366833Y-61322080D01*
X87372734Y-61320298D01*
X87372736Y-61320298D01*
X87457712Y-61294642D01*
X87556169Y-61264916D01*
X87730796Y-61172066D01*
X87817062Y-61101709D01*
X87879287Y-61050960D01*
X87879290Y-61050957D01*
X87884062Y-61047065D01*
X87889089Y-61040989D01*
X88006201Y-60899425D01*
X88006203Y-60899421D01*
X88010130Y-60894675D01*
X88104198Y-60720701D01*
X88162682Y-60531768D01*
X88168239Y-60478899D01*
X88172521Y-60438161D01*
X89484393Y-60438161D01*
X89493687Y-60450175D01*
X89534088Y-60478464D01*
X89543584Y-60483947D01*
X89733113Y-60572326D01*
X89743405Y-60576072D01*
X89945401Y-60630196D01*
X89956196Y-60632099D01*
X90164525Y-60650326D01*
X90175475Y-60650326D01*
X90383804Y-60632099D01*
X90394599Y-60630196D01*
X90596595Y-60576072D01*
X90606887Y-60572326D01*
X90796416Y-60483947D01*
X90805912Y-60478464D01*
X90847148Y-60449590D01*
X90855523Y-60439112D01*
X90848457Y-60425668D01*
X90182811Y-59760021D01*
X90168868Y-59752408D01*
X90167034Y-59752539D01*
X90160420Y-59756790D01*
X89490820Y-60426391D01*
X89484393Y-60438161D01*
X88172521Y-60438161D01*
X88182711Y-60341204D01*
X88182711Y-60341202D01*
X88183355Y-60335075D01*
X88165430Y-60138112D01*
X88146584Y-60074076D01*
X88111330Y-59954294D01*
X88109590Y-59948381D01*
X88104363Y-59938381D01*
X88045119Y-59825061D01*
X88017960Y-59773110D01*
X87894032Y-59618975D01*
X87887727Y-59613684D01*
X87861651Y-59591804D01*
X87742526Y-59491846D01*
X87737128Y-59488879D01*
X87737123Y-59488875D01*
X87574608Y-59399533D01*
X87574609Y-59399533D01*
X87569213Y-59396567D01*
X87563346Y-59394706D01*
X87563344Y-59394705D01*
X87559467Y-59393475D01*
X88907674Y-59393475D01*
X88925901Y-59601804D01*
X88927804Y-59612599D01*
X88981928Y-59814595D01*
X88985674Y-59824887D01*
X89074054Y-60014417D01*
X89079534Y-60023907D01*
X89108411Y-60065149D01*
X89118887Y-60073523D01*
X89132334Y-60066455D01*
X89797979Y-59400811D01*
X89804356Y-59389132D01*
X90534408Y-59389132D01*
X90534539Y-59390966D01*
X90538790Y-59397580D01*
X91208391Y-60067180D01*
X91220161Y-60073607D01*
X91232176Y-60064311D01*
X91260466Y-60023907D01*
X91265946Y-60014417D01*
X91354326Y-59824887D01*
X91358072Y-59814595D01*
X91412196Y-59612599D01*
X91414099Y-59601804D01*
X91432326Y-59393475D01*
X91432326Y-59388000D01*
X91906693Y-59388000D01*
X91925885Y-59607371D01*
X91982880Y-59820076D01*
X91985205Y-59825061D01*
X92073618Y-60014666D01*
X92073621Y-60014671D01*
X92075944Y-60019653D01*
X92079100Y-60024160D01*
X92079101Y-60024162D01*
X92197978Y-60193935D01*
X92202251Y-60200038D01*
X92357962Y-60355749D01*
X92538346Y-60482056D01*
X92737924Y-60575120D01*
X92950629Y-60632115D01*
X93170000Y-60651307D01*
X93389371Y-60632115D01*
X93602076Y-60575120D01*
X93801654Y-60482056D01*
X93982038Y-60355749D01*
X94016862Y-60320925D01*
X95156645Y-60320925D01*
X95157933Y-60335075D01*
X95171521Y-60484381D01*
X95174570Y-60517888D01*
X95176308Y-60523794D01*
X95176309Y-60523798D01*
X95190592Y-60572326D01*
X95230410Y-60707619D01*
X95233263Y-60713077D01*
X95233265Y-60713081D01*
X95246492Y-60738381D01*
X95322040Y-60882890D01*
X95445968Y-61037025D01*
X95450692Y-61040989D01*
X95453941Y-61043715D01*
X95597474Y-61164154D01*
X95602872Y-61167121D01*
X95602877Y-61167125D01*
X95746180Y-61245905D01*
X95770787Y-61259433D01*
X95776654Y-61261294D01*
X95776656Y-61261295D01*
X95938645Y-61312681D01*
X95959306Y-61319235D01*
X96113227Y-61336500D01*
X96219769Y-61336500D01*
X96222825Y-61336200D01*
X96222832Y-61336200D01*
X96281340Y-61330463D01*
X96366833Y-61322080D01*
X96372734Y-61320298D01*
X96372736Y-61320298D01*
X96457712Y-61294642D01*
X96556169Y-61264916D01*
X96730796Y-61172066D01*
X96817062Y-61101709D01*
X96879287Y-61050960D01*
X96879290Y-61050957D01*
X96884062Y-61047065D01*
X96889089Y-61040989D01*
X97006201Y-60899425D01*
X97006203Y-60899421D01*
X97010130Y-60894675D01*
X97104198Y-60720701D01*
X97162682Y-60531768D01*
X97168239Y-60478899D01*
X97182711Y-60341204D01*
X97182711Y-60341202D01*
X97183355Y-60335075D01*
X97182067Y-60320925D01*
X98856645Y-60320925D01*
X98857933Y-60335075D01*
X98871521Y-60484381D01*
X98874570Y-60517888D01*
X98876308Y-60523794D01*
X98876309Y-60523798D01*
X98890592Y-60572326D01*
X98930410Y-60707619D01*
X98933263Y-60713077D01*
X98933265Y-60713081D01*
X98946492Y-60738381D01*
X99022040Y-60882890D01*
X99145968Y-61037025D01*
X99150692Y-61040989D01*
X99153941Y-61043715D01*
X99297474Y-61164154D01*
X99302872Y-61167121D01*
X99302877Y-61167125D01*
X99446180Y-61245905D01*
X99470787Y-61259433D01*
X99476654Y-61261294D01*
X99476656Y-61261295D01*
X99638645Y-61312681D01*
X99659306Y-61319235D01*
X99813227Y-61336500D01*
X99919769Y-61336500D01*
X99922825Y-61336200D01*
X99922832Y-61336200D01*
X99981340Y-61330463D01*
X100066833Y-61322080D01*
X100072734Y-61320298D01*
X100072736Y-61320298D01*
X100157712Y-61294642D01*
X100256169Y-61264916D01*
X100430796Y-61172066D01*
X100517062Y-61101709D01*
X100579287Y-61050960D01*
X100579290Y-61050957D01*
X100584062Y-61047065D01*
X100589089Y-61040989D01*
X100706201Y-60899425D01*
X100706203Y-60899421D01*
X100710130Y-60894675D01*
X100804198Y-60720701D01*
X100862682Y-60531768D01*
X100868239Y-60478899D01*
X100872521Y-60438161D01*
X102184393Y-60438161D01*
X102193687Y-60450175D01*
X102234088Y-60478464D01*
X102243584Y-60483947D01*
X102433113Y-60572326D01*
X102443405Y-60576072D01*
X102645401Y-60630196D01*
X102656196Y-60632099D01*
X102864525Y-60650326D01*
X102875475Y-60650326D01*
X103083804Y-60632099D01*
X103094599Y-60630196D01*
X103296595Y-60576072D01*
X103306887Y-60572326D01*
X103496416Y-60483947D01*
X103505912Y-60478464D01*
X103547148Y-60449590D01*
X103555523Y-60439112D01*
X103548457Y-60425668D01*
X102882811Y-59760021D01*
X102868868Y-59752408D01*
X102867034Y-59752539D01*
X102860420Y-59756790D01*
X102190820Y-60426391D01*
X102184393Y-60438161D01*
X100872521Y-60438161D01*
X100882711Y-60341204D01*
X100882711Y-60341202D01*
X100883355Y-60335075D01*
X100865430Y-60138112D01*
X100846584Y-60074076D01*
X100811330Y-59954294D01*
X100809590Y-59948381D01*
X100804363Y-59938381D01*
X100745119Y-59825061D01*
X100717960Y-59773110D01*
X100594032Y-59618975D01*
X100587727Y-59613684D01*
X100561651Y-59591804D01*
X100442526Y-59491846D01*
X100437128Y-59488879D01*
X100437123Y-59488875D01*
X100274608Y-59399533D01*
X100274609Y-59399533D01*
X100269213Y-59396567D01*
X100263346Y-59394706D01*
X100263344Y-59394705D01*
X100259467Y-59393475D01*
X101607674Y-59393475D01*
X101625901Y-59601804D01*
X101627804Y-59612599D01*
X101681928Y-59814595D01*
X101685674Y-59824887D01*
X101774054Y-60014417D01*
X101779534Y-60023907D01*
X101808411Y-60065149D01*
X101818887Y-60073523D01*
X101832334Y-60066455D01*
X102497979Y-59400811D01*
X102504356Y-59389132D01*
X103234408Y-59389132D01*
X103234539Y-59390966D01*
X103238790Y-59397580D01*
X103908391Y-60067180D01*
X103920161Y-60073607D01*
X103932176Y-60064311D01*
X103960466Y-60023907D01*
X103965946Y-60014417D01*
X104054326Y-59824887D01*
X104058072Y-59814595D01*
X104112196Y-59612599D01*
X104114099Y-59601804D01*
X104132326Y-59393475D01*
X104132326Y-59388000D01*
X104606693Y-59388000D01*
X104625885Y-59607371D01*
X104682880Y-59820076D01*
X104685205Y-59825061D01*
X104773618Y-60014666D01*
X104773621Y-60014671D01*
X104775944Y-60019653D01*
X104779100Y-60024160D01*
X104779101Y-60024162D01*
X104897978Y-60193935D01*
X104902251Y-60200038D01*
X105057962Y-60355749D01*
X105238346Y-60482056D01*
X105437924Y-60575120D01*
X105650629Y-60632115D01*
X105870000Y-60651307D01*
X106089371Y-60632115D01*
X106302076Y-60575120D01*
X106501654Y-60482056D01*
X106682038Y-60355749D01*
X106716862Y-60320925D01*
X107856645Y-60320925D01*
X107857933Y-60335075D01*
X107871521Y-60484381D01*
X107874570Y-60517888D01*
X107876308Y-60523794D01*
X107876309Y-60523798D01*
X107890592Y-60572326D01*
X107930410Y-60707619D01*
X107933263Y-60713077D01*
X107933265Y-60713081D01*
X107946492Y-60738381D01*
X108022040Y-60882890D01*
X108145968Y-61037025D01*
X108150692Y-61040989D01*
X108153941Y-61043715D01*
X108297474Y-61164154D01*
X108302872Y-61167121D01*
X108302877Y-61167125D01*
X108446180Y-61245905D01*
X108470787Y-61259433D01*
X108476654Y-61261294D01*
X108476656Y-61261295D01*
X108638645Y-61312681D01*
X108659306Y-61319235D01*
X108813227Y-61336500D01*
X108919769Y-61336500D01*
X108922825Y-61336200D01*
X108922832Y-61336200D01*
X108981340Y-61330463D01*
X109066833Y-61322080D01*
X109072734Y-61320298D01*
X109072736Y-61320298D01*
X109157712Y-61294642D01*
X109256169Y-61264916D01*
X109430796Y-61172066D01*
X109517062Y-61101709D01*
X109579287Y-61050960D01*
X109579290Y-61050957D01*
X109584062Y-61047065D01*
X109589089Y-61040989D01*
X109706201Y-60899425D01*
X109706203Y-60899421D01*
X109710130Y-60894675D01*
X109804198Y-60720701D01*
X109862682Y-60531768D01*
X109868239Y-60478899D01*
X109882711Y-60341204D01*
X109882711Y-60341202D01*
X109883355Y-60335075D01*
X109881157Y-60310925D01*
X111580645Y-60310925D01*
X111581204Y-60317065D01*
X111596431Y-60484381D01*
X111598570Y-60507888D01*
X111654410Y-60697619D01*
X111657263Y-60703077D01*
X111657265Y-60703081D01*
X111672854Y-60732899D01*
X111746040Y-60872890D01*
X111869968Y-61027025D01*
X111874692Y-61030989D01*
X111881933Y-61037065D01*
X112021474Y-61154154D01*
X112026872Y-61157121D01*
X112026877Y-61157125D01*
X112170180Y-61235905D01*
X112194787Y-61249433D01*
X112200654Y-61251294D01*
X112200656Y-61251295D01*
X112297706Y-61282081D01*
X112383306Y-61309235D01*
X112537227Y-61326500D01*
X112643769Y-61326500D01*
X112646825Y-61326200D01*
X112646832Y-61326200D01*
X112707021Y-61320298D01*
X112790833Y-61312080D01*
X112796734Y-61310298D01*
X112796736Y-61310298D01*
X112890194Y-61282081D01*
X112980169Y-61254916D01*
X113154796Y-61162066D01*
X113241062Y-61091709D01*
X113303287Y-61040960D01*
X113303290Y-61040957D01*
X113308062Y-61037065D01*
X113421928Y-60899425D01*
X113430201Y-60889425D01*
X113430203Y-60889421D01*
X113434130Y-60884675D01*
X113528198Y-60710701D01*
X113586682Y-60521768D01*
X113588786Y-60501749D01*
X113596520Y-60428161D01*
X114908393Y-60428161D01*
X114917687Y-60440175D01*
X114958088Y-60468464D01*
X114967584Y-60473947D01*
X115157113Y-60562326D01*
X115167405Y-60566072D01*
X115369401Y-60620196D01*
X115380196Y-60622099D01*
X115588525Y-60640326D01*
X115599475Y-60640326D01*
X115807804Y-60622099D01*
X115818599Y-60620196D01*
X116020595Y-60566072D01*
X116030887Y-60562326D01*
X116220416Y-60473947D01*
X116229912Y-60468464D01*
X116271148Y-60439590D01*
X116279523Y-60429112D01*
X116272457Y-60415668D01*
X115606811Y-59750021D01*
X115592868Y-59742408D01*
X115591034Y-59742539D01*
X115584420Y-59746790D01*
X114914820Y-60416391D01*
X114908393Y-60428161D01*
X113596520Y-60428161D01*
X113606711Y-60331204D01*
X113606711Y-60331202D01*
X113607355Y-60325075D01*
X113599847Y-60242576D01*
X113589989Y-60134251D01*
X113589988Y-60134248D01*
X113589430Y-60128112D01*
X113570446Y-60063607D01*
X113535330Y-59944294D01*
X113533590Y-59938381D01*
X113529147Y-59929881D01*
X113469119Y-59815061D01*
X113441960Y-59763110D01*
X113318032Y-59608975D01*
X113311727Y-59603684D01*
X113183171Y-59495813D01*
X113166526Y-59481846D01*
X113161128Y-59478879D01*
X113161123Y-59478875D01*
X112998608Y-59389533D01*
X112998609Y-59389533D01*
X112993213Y-59386567D01*
X112987346Y-59384706D01*
X112987344Y-59384705D01*
X112983467Y-59383475D01*
X114331674Y-59383475D01*
X114349901Y-59591804D01*
X114351804Y-59602599D01*
X114405928Y-59804595D01*
X114409674Y-59814887D01*
X114498054Y-60004417D01*
X114503534Y-60013907D01*
X114532411Y-60055149D01*
X114542887Y-60063523D01*
X114556334Y-60056455D01*
X115221979Y-59390811D01*
X115228356Y-59379132D01*
X115958408Y-59379132D01*
X115958539Y-59380966D01*
X115962790Y-59387580D01*
X116632391Y-60057180D01*
X116644161Y-60063607D01*
X116656176Y-60054311D01*
X116684466Y-60013907D01*
X116689946Y-60004417D01*
X116778326Y-59814887D01*
X116782072Y-59804595D01*
X116836196Y-59602599D01*
X116838099Y-59591804D01*
X116856326Y-59383475D01*
X116856326Y-59378000D01*
X117330693Y-59378000D01*
X117349885Y-59597371D01*
X117406880Y-59810076D01*
X117413868Y-59825061D01*
X117497618Y-60004666D01*
X117497621Y-60004671D01*
X117499944Y-60009653D01*
X117503100Y-60014160D01*
X117503101Y-60014162D01*
X117594191Y-60144251D01*
X117626251Y-60190038D01*
X117781962Y-60345749D01*
X117786471Y-60348906D01*
X117786473Y-60348908D01*
X117861241Y-60401261D01*
X117962346Y-60472056D01*
X118161924Y-60565120D01*
X118374629Y-60622115D01*
X118594000Y-60641307D01*
X118813371Y-60622115D01*
X119026076Y-60565120D01*
X119225654Y-60472056D01*
X119326759Y-60401261D01*
X119401527Y-60348908D01*
X119401529Y-60348906D01*
X119406038Y-60345749D01*
X119440862Y-60310925D01*
X120580645Y-60310925D01*
X120581204Y-60317065D01*
X120596431Y-60484381D01*
X120598570Y-60507888D01*
X120654410Y-60697619D01*
X120657263Y-60703077D01*
X120657265Y-60703081D01*
X120672854Y-60732899D01*
X120746040Y-60872890D01*
X120869968Y-61027025D01*
X120874692Y-61030989D01*
X120881933Y-61037065D01*
X121021474Y-61154154D01*
X121026872Y-61157121D01*
X121026877Y-61157125D01*
X121170180Y-61235905D01*
X121194787Y-61249433D01*
X121200654Y-61251294D01*
X121200656Y-61251295D01*
X121297706Y-61282081D01*
X121383306Y-61309235D01*
X121537227Y-61326500D01*
X121643769Y-61326500D01*
X121646825Y-61326200D01*
X121646832Y-61326200D01*
X121707021Y-61320298D01*
X121790833Y-61312080D01*
X121796734Y-61310298D01*
X121796736Y-61310298D01*
X121890194Y-61282081D01*
X121980169Y-61254916D01*
X122154796Y-61162066D01*
X122241062Y-61091709D01*
X122303287Y-61040960D01*
X122303290Y-61040957D01*
X122308062Y-61037065D01*
X122421928Y-60899425D01*
X122430201Y-60889425D01*
X122430203Y-60889421D01*
X122434130Y-60884675D01*
X122528198Y-60710701D01*
X122586682Y-60521768D01*
X122588786Y-60501749D01*
X122606711Y-60331204D01*
X122606711Y-60331202D01*
X122607355Y-60325075D01*
X122599847Y-60242576D01*
X122589989Y-60134251D01*
X122589988Y-60134248D01*
X122589430Y-60128112D01*
X122570446Y-60063607D01*
X122535330Y-59944294D01*
X122533590Y-59938381D01*
X122529147Y-59929881D01*
X122469119Y-59815061D01*
X122441960Y-59763110D01*
X122318032Y-59608975D01*
X122311727Y-59603684D01*
X122183171Y-59495813D01*
X122166526Y-59481846D01*
X122161128Y-59478879D01*
X122161123Y-59478875D01*
X121998608Y-59389533D01*
X121998609Y-59389533D01*
X121993213Y-59386567D01*
X121987346Y-59384706D01*
X121987344Y-59384705D01*
X121810564Y-59328627D01*
X121810563Y-59328627D01*
X121804694Y-59326765D01*
X121650773Y-59309500D01*
X121544231Y-59309500D01*
X121541175Y-59309800D01*
X121541168Y-59309800D01*
X121482660Y-59315537D01*
X121397167Y-59323920D01*
X121391266Y-59325702D01*
X121391264Y-59325702D01*
X121354622Y-59336765D01*
X121207831Y-59381084D01*
X121033204Y-59473934D01*
X121006378Y-59495813D01*
X120884713Y-59595040D01*
X120884710Y-59595043D01*
X120879938Y-59598935D01*
X120876011Y-59603682D01*
X120876009Y-59603684D01*
X120757799Y-59746575D01*
X120757797Y-59746579D01*
X120753870Y-59751325D01*
X120659802Y-59925299D01*
X120601318Y-60114232D01*
X120600674Y-60120357D01*
X120600674Y-60120358D01*
X120585087Y-60268666D01*
X120580645Y-60310925D01*
X119440862Y-60310925D01*
X119561749Y-60190038D01*
X119593810Y-60144251D01*
X119684899Y-60014162D01*
X119684900Y-60014160D01*
X119688056Y-60009653D01*
X119690379Y-60004671D01*
X119690382Y-60004666D01*
X119774132Y-59825061D01*
X119781120Y-59810076D01*
X119838115Y-59597371D01*
X119857307Y-59378000D01*
X119838115Y-59158629D01*
X119781120Y-58945924D01*
X119725229Y-58826065D01*
X119690382Y-58751334D01*
X119690379Y-58751329D01*
X119688056Y-58746347D01*
X119663788Y-58711689D01*
X119564908Y-58570473D01*
X119564906Y-58570470D01*
X119561749Y-58565962D01*
X119406038Y-58410251D01*
X119225654Y-58283944D01*
X119026076Y-58190880D01*
X118813371Y-58133885D01*
X118594000Y-58114693D01*
X118374629Y-58133885D01*
X118161924Y-58190880D01*
X118070658Y-58233438D01*
X117967334Y-58281618D01*
X117967329Y-58281621D01*
X117962347Y-58283944D01*
X117957840Y-58287100D01*
X117957838Y-58287101D01*
X117786473Y-58407092D01*
X117786470Y-58407094D01*
X117781962Y-58410251D01*
X117626251Y-58565962D01*
X117623094Y-58570470D01*
X117623092Y-58570473D01*
X117524212Y-58711689D01*
X117499944Y-58746347D01*
X117497621Y-58751329D01*
X117497618Y-58751334D01*
X117462771Y-58826065D01*
X117406880Y-58945924D01*
X117349885Y-59158629D01*
X117330693Y-59378000D01*
X116856326Y-59378000D01*
X116856326Y-59372525D01*
X116838099Y-59164196D01*
X116836196Y-59153401D01*
X116782072Y-58951405D01*
X116778326Y-58941113D01*
X116689946Y-58751583D01*
X116684466Y-58742093D01*
X116655589Y-58700851D01*
X116645113Y-58692477D01*
X116631666Y-58699545D01*
X115966021Y-59365189D01*
X115958408Y-59379132D01*
X115228356Y-59379132D01*
X115229592Y-59376868D01*
X115229461Y-59375034D01*
X115225210Y-59368420D01*
X114555609Y-58698820D01*
X114543839Y-58692393D01*
X114531824Y-58701689D01*
X114503534Y-58742093D01*
X114498054Y-58751583D01*
X114409674Y-58941113D01*
X114405928Y-58951405D01*
X114351804Y-59153401D01*
X114349901Y-59164196D01*
X114331674Y-59372525D01*
X114331674Y-59383475D01*
X112983467Y-59383475D01*
X112810564Y-59328627D01*
X112810563Y-59328627D01*
X112804694Y-59326765D01*
X112650773Y-59309500D01*
X112544231Y-59309500D01*
X112541175Y-59309800D01*
X112541168Y-59309800D01*
X112482660Y-59315537D01*
X112397167Y-59323920D01*
X112391266Y-59325702D01*
X112391264Y-59325702D01*
X112354622Y-59336765D01*
X112207831Y-59381084D01*
X112033204Y-59473934D01*
X112006378Y-59495813D01*
X111884713Y-59595040D01*
X111884710Y-59595043D01*
X111879938Y-59598935D01*
X111876011Y-59603682D01*
X111876009Y-59603684D01*
X111757799Y-59746575D01*
X111757797Y-59746579D01*
X111753870Y-59751325D01*
X111659802Y-59925299D01*
X111601318Y-60114232D01*
X111600674Y-60120357D01*
X111600674Y-60120358D01*
X111585087Y-60268666D01*
X111580645Y-60310925D01*
X109881157Y-60310925D01*
X109865430Y-60138112D01*
X109846584Y-60074076D01*
X109811330Y-59954294D01*
X109809590Y-59948381D01*
X109804363Y-59938381D01*
X109745119Y-59825061D01*
X109717960Y-59773110D01*
X109594032Y-59618975D01*
X109587727Y-59613684D01*
X109561651Y-59591804D01*
X109442526Y-59491846D01*
X109437128Y-59488879D01*
X109437123Y-59488875D01*
X109274608Y-59399533D01*
X109274609Y-59399533D01*
X109269213Y-59396567D01*
X109263346Y-59394706D01*
X109263344Y-59394705D01*
X109086564Y-59338627D01*
X109086563Y-59338627D01*
X109080694Y-59336765D01*
X108926773Y-59319500D01*
X108820231Y-59319500D01*
X108817175Y-59319800D01*
X108817168Y-59319800D01*
X108758660Y-59325537D01*
X108673167Y-59333920D01*
X108667266Y-59335702D01*
X108667264Y-59335702D01*
X108593947Y-59357838D01*
X108483831Y-59391084D01*
X108309204Y-59483934D01*
X108222938Y-59554291D01*
X108160713Y-59605040D01*
X108160710Y-59605043D01*
X108155938Y-59608935D01*
X108152011Y-59613682D01*
X108152009Y-59613684D01*
X108033799Y-59756575D01*
X108033797Y-59756579D01*
X108029870Y-59761325D01*
X107935802Y-59935299D01*
X107877318Y-60124232D01*
X107876674Y-60130357D01*
X107876674Y-60130358D01*
X107861140Y-60278162D01*
X107856645Y-60320925D01*
X106716862Y-60320925D01*
X106837749Y-60200038D01*
X106842023Y-60193935D01*
X106960899Y-60024162D01*
X106960900Y-60024160D01*
X106964056Y-60019653D01*
X106966379Y-60014671D01*
X106966382Y-60014666D01*
X107054795Y-59825061D01*
X107057120Y-59820076D01*
X107114115Y-59607371D01*
X107133307Y-59388000D01*
X107114115Y-59168629D01*
X107057120Y-58955924D01*
X106966498Y-58761583D01*
X106966382Y-58761334D01*
X106966379Y-58761329D01*
X106964056Y-58756347D01*
X106953897Y-58741838D01*
X106840908Y-58580473D01*
X106840906Y-58580470D01*
X106837749Y-58575962D01*
X106682038Y-58420251D01*
X106673323Y-58414148D01*
X106564342Y-58337839D01*
X106548701Y-58326887D01*
X114908477Y-58326887D01*
X114915545Y-58340334D01*
X115581189Y-59005979D01*
X115595132Y-59013592D01*
X115596966Y-59013461D01*
X115603580Y-59009210D01*
X116273180Y-58339609D01*
X116279607Y-58327839D01*
X116270313Y-58315825D01*
X116229912Y-58287536D01*
X116220416Y-58282053D01*
X116030887Y-58193674D01*
X116020595Y-58189928D01*
X115818599Y-58135804D01*
X115807804Y-58133901D01*
X115599475Y-58115674D01*
X115588525Y-58115674D01*
X115380196Y-58133901D01*
X115369401Y-58135804D01*
X115167405Y-58189928D01*
X115157113Y-58193674D01*
X114967583Y-58282054D01*
X114958093Y-58287534D01*
X114916851Y-58316411D01*
X114908477Y-58326887D01*
X106548701Y-58326887D01*
X106501654Y-58293944D01*
X106302076Y-58200880D01*
X106089371Y-58143885D01*
X105870000Y-58124693D01*
X105650629Y-58143885D01*
X105437924Y-58200880D01*
X105368103Y-58233438D01*
X105243334Y-58291618D01*
X105243329Y-58291621D01*
X105238347Y-58293944D01*
X105233840Y-58297100D01*
X105233838Y-58297101D01*
X105062473Y-58417092D01*
X105062470Y-58417094D01*
X105057962Y-58420251D01*
X104902251Y-58575962D01*
X104899094Y-58580470D01*
X104899092Y-58580473D01*
X104786103Y-58741838D01*
X104775944Y-58756347D01*
X104773621Y-58761329D01*
X104773618Y-58761334D01*
X104773502Y-58761583D01*
X104682880Y-58955924D01*
X104625885Y-59168629D01*
X104606693Y-59388000D01*
X104132326Y-59388000D01*
X104132326Y-59382525D01*
X104114099Y-59174196D01*
X104112196Y-59163401D01*
X104058072Y-58961405D01*
X104054326Y-58951113D01*
X103965946Y-58761583D01*
X103960466Y-58752093D01*
X103931589Y-58710851D01*
X103921113Y-58702477D01*
X103907666Y-58709545D01*
X103242021Y-59375189D01*
X103234408Y-59389132D01*
X102504356Y-59389132D01*
X102505592Y-59386868D01*
X102505461Y-59385034D01*
X102501210Y-59378420D01*
X101831609Y-58708820D01*
X101819839Y-58702393D01*
X101807824Y-58711689D01*
X101779534Y-58752093D01*
X101774054Y-58761583D01*
X101685674Y-58951113D01*
X101681928Y-58961405D01*
X101627804Y-59163401D01*
X101625901Y-59174196D01*
X101607674Y-59382525D01*
X101607674Y-59393475D01*
X100259467Y-59393475D01*
X100086564Y-59338627D01*
X100086563Y-59338627D01*
X100080694Y-59336765D01*
X99926773Y-59319500D01*
X99820231Y-59319500D01*
X99817175Y-59319800D01*
X99817168Y-59319800D01*
X99758660Y-59325537D01*
X99673167Y-59333920D01*
X99667266Y-59335702D01*
X99667264Y-59335702D01*
X99593947Y-59357838D01*
X99483831Y-59391084D01*
X99309204Y-59483934D01*
X99222938Y-59554291D01*
X99160713Y-59605040D01*
X99160710Y-59605043D01*
X99155938Y-59608935D01*
X99152011Y-59613682D01*
X99152009Y-59613684D01*
X99033799Y-59756575D01*
X99033797Y-59756579D01*
X99029870Y-59761325D01*
X98935802Y-59935299D01*
X98877318Y-60124232D01*
X98876674Y-60130357D01*
X98876674Y-60130358D01*
X98861140Y-60278162D01*
X98856645Y-60320925D01*
X97182067Y-60320925D01*
X97165430Y-60138112D01*
X97146584Y-60074076D01*
X97111330Y-59954294D01*
X97109590Y-59948381D01*
X97104363Y-59938381D01*
X97045119Y-59825061D01*
X97017960Y-59773110D01*
X96894032Y-59618975D01*
X96887727Y-59613684D01*
X96861651Y-59591804D01*
X96742526Y-59491846D01*
X96737128Y-59488879D01*
X96737123Y-59488875D01*
X96574608Y-59399533D01*
X96574609Y-59399533D01*
X96569213Y-59396567D01*
X96563346Y-59394706D01*
X96563344Y-59394705D01*
X96386564Y-59338627D01*
X96386563Y-59338627D01*
X96380694Y-59336765D01*
X96226773Y-59319500D01*
X96120231Y-59319500D01*
X96117175Y-59319800D01*
X96117168Y-59319800D01*
X96058660Y-59325537D01*
X95973167Y-59333920D01*
X95967266Y-59335702D01*
X95967264Y-59335702D01*
X95893947Y-59357838D01*
X95783831Y-59391084D01*
X95609204Y-59483934D01*
X95522938Y-59554291D01*
X95460713Y-59605040D01*
X95460710Y-59605043D01*
X95455938Y-59608935D01*
X95452011Y-59613682D01*
X95452009Y-59613684D01*
X95333799Y-59756575D01*
X95333797Y-59756579D01*
X95329870Y-59761325D01*
X95235802Y-59935299D01*
X95177318Y-60124232D01*
X95176674Y-60130357D01*
X95176674Y-60130358D01*
X95161140Y-60278162D01*
X95156645Y-60320925D01*
X94016862Y-60320925D01*
X94137749Y-60200038D01*
X94142023Y-60193935D01*
X94260899Y-60024162D01*
X94260900Y-60024160D01*
X94264056Y-60019653D01*
X94266379Y-60014671D01*
X94266382Y-60014666D01*
X94354795Y-59825061D01*
X94357120Y-59820076D01*
X94414115Y-59607371D01*
X94433307Y-59388000D01*
X94414115Y-59168629D01*
X94357120Y-58955924D01*
X94266498Y-58761583D01*
X94266382Y-58761334D01*
X94266379Y-58761329D01*
X94264056Y-58756347D01*
X94253897Y-58741838D01*
X94140908Y-58580473D01*
X94140906Y-58580470D01*
X94137749Y-58575962D01*
X93982038Y-58420251D01*
X93973323Y-58414148D01*
X93864342Y-58337839D01*
X93862982Y-58336887D01*
X102184477Y-58336887D01*
X102191545Y-58350334D01*
X102857189Y-59015979D01*
X102871132Y-59023592D01*
X102872966Y-59023461D01*
X102879580Y-59019210D01*
X103549180Y-58349609D01*
X103555607Y-58337839D01*
X103546313Y-58325825D01*
X103505912Y-58297536D01*
X103496416Y-58292053D01*
X103306887Y-58203674D01*
X103296595Y-58199928D01*
X103094599Y-58145804D01*
X103083804Y-58143901D01*
X102875475Y-58125674D01*
X102864525Y-58125674D01*
X102656196Y-58143901D01*
X102645401Y-58145804D01*
X102443405Y-58199928D01*
X102433113Y-58203674D01*
X102243583Y-58292054D01*
X102234093Y-58297534D01*
X102192851Y-58326411D01*
X102184477Y-58336887D01*
X93862982Y-58336887D01*
X93801654Y-58293944D01*
X93602076Y-58200880D01*
X93389371Y-58143885D01*
X93170000Y-58124693D01*
X92950629Y-58143885D01*
X92737924Y-58200880D01*
X92668103Y-58233438D01*
X92543334Y-58291618D01*
X92543329Y-58291621D01*
X92538347Y-58293944D01*
X92533840Y-58297100D01*
X92533838Y-58297101D01*
X92362473Y-58417092D01*
X92362470Y-58417094D01*
X92357962Y-58420251D01*
X92202251Y-58575962D01*
X92199094Y-58580470D01*
X92199092Y-58580473D01*
X92086103Y-58741838D01*
X92075944Y-58756347D01*
X92073621Y-58761329D01*
X92073618Y-58761334D01*
X92073502Y-58761583D01*
X91982880Y-58955924D01*
X91925885Y-59168629D01*
X91906693Y-59388000D01*
X91432326Y-59388000D01*
X91432326Y-59382525D01*
X91414099Y-59174196D01*
X91412196Y-59163401D01*
X91358072Y-58961405D01*
X91354326Y-58951113D01*
X91265946Y-58761583D01*
X91260466Y-58752093D01*
X91231589Y-58710851D01*
X91221113Y-58702477D01*
X91207666Y-58709545D01*
X90542021Y-59375189D01*
X90534408Y-59389132D01*
X89804356Y-59389132D01*
X89805592Y-59386868D01*
X89805461Y-59385034D01*
X89801210Y-59378420D01*
X89131609Y-58708820D01*
X89119839Y-58702393D01*
X89107824Y-58711689D01*
X89079534Y-58752093D01*
X89074054Y-58761583D01*
X88985674Y-58951113D01*
X88981928Y-58961405D01*
X88927804Y-59163401D01*
X88925901Y-59174196D01*
X88907674Y-59382525D01*
X88907674Y-59393475D01*
X87559467Y-59393475D01*
X87386564Y-59338627D01*
X87386563Y-59338627D01*
X87380694Y-59336765D01*
X87226773Y-59319500D01*
X87120231Y-59319500D01*
X87117175Y-59319800D01*
X87117168Y-59319800D01*
X87058660Y-59325537D01*
X86973167Y-59333920D01*
X86967266Y-59335702D01*
X86967264Y-59335702D01*
X86893947Y-59357838D01*
X86783831Y-59391084D01*
X86609204Y-59483934D01*
X86522938Y-59554291D01*
X86460713Y-59605040D01*
X86460710Y-59605043D01*
X86455938Y-59608935D01*
X86452011Y-59613682D01*
X86452009Y-59613684D01*
X86333799Y-59756575D01*
X86333797Y-59756579D01*
X86329870Y-59761325D01*
X86235802Y-59935299D01*
X86177318Y-60124232D01*
X86176674Y-60130357D01*
X86176674Y-60130358D01*
X86161140Y-60278162D01*
X86156645Y-60320925D01*
X84506067Y-60320925D01*
X84489430Y-60138112D01*
X84470584Y-60074076D01*
X84435330Y-59954294D01*
X84433590Y-59948381D01*
X84428363Y-59938381D01*
X84369119Y-59825061D01*
X84341960Y-59773110D01*
X84218032Y-59618975D01*
X84211727Y-59613684D01*
X84185651Y-59591804D01*
X84066526Y-59491846D01*
X84061128Y-59488879D01*
X84061123Y-59488875D01*
X83898608Y-59399533D01*
X83898609Y-59399533D01*
X83893213Y-59396567D01*
X83887346Y-59394706D01*
X83887344Y-59394705D01*
X83710564Y-59338627D01*
X83710563Y-59338627D01*
X83704694Y-59336765D01*
X83550773Y-59319500D01*
X83444231Y-59319500D01*
X83441175Y-59319800D01*
X83441168Y-59319800D01*
X83382660Y-59325537D01*
X83297167Y-59333920D01*
X83291266Y-59335702D01*
X83291264Y-59335702D01*
X83217947Y-59357838D01*
X83107831Y-59391084D01*
X82933204Y-59483934D01*
X82846938Y-59554291D01*
X82784713Y-59605040D01*
X82784710Y-59605043D01*
X82779938Y-59608935D01*
X82776011Y-59613682D01*
X82776009Y-59613684D01*
X82657799Y-59756575D01*
X82657797Y-59756579D01*
X82653870Y-59761325D01*
X82559802Y-59935299D01*
X82501318Y-60124232D01*
X82500674Y-60130357D01*
X82500674Y-60130358D01*
X82485140Y-60278162D01*
X82480645Y-60320925D01*
X81340862Y-60320925D01*
X81461749Y-60200038D01*
X81466023Y-60193935D01*
X81584899Y-60024162D01*
X81584900Y-60024160D01*
X81588056Y-60019653D01*
X81590379Y-60014671D01*
X81590382Y-60014666D01*
X81678795Y-59825061D01*
X81681120Y-59820076D01*
X81738115Y-59607371D01*
X81757307Y-59388000D01*
X81738115Y-59168629D01*
X81681120Y-58955924D01*
X81590498Y-58761583D01*
X81590382Y-58761334D01*
X81590379Y-58761329D01*
X81588056Y-58756347D01*
X81577897Y-58741838D01*
X81464908Y-58580473D01*
X81464906Y-58580470D01*
X81461749Y-58575962D01*
X81306038Y-58420251D01*
X81297323Y-58414148D01*
X81188342Y-58337839D01*
X81186982Y-58336887D01*
X89484477Y-58336887D01*
X89491545Y-58350334D01*
X90157189Y-59015979D01*
X90171132Y-59023592D01*
X90172966Y-59023461D01*
X90179580Y-59019210D01*
X90849180Y-58349609D01*
X90855607Y-58337839D01*
X90846313Y-58325825D01*
X90805912Y-58297536D01*
X90796416Y-58292053D01*
X90606887Y-58203674D01*
X90596595Y-58199928D01*
X90394599Y-58145804D01*
X90383804Y-58143901D01*
X90175475Y-58125674D01*
X90164525Y-58125674D01*
X89956196Y-58143901D01*
X89945401Y-58145804D01*
X89743405Y-58199928D01*
X89733113Y-58203674D01*
X89543583Y-58292054D01*
X89534093Y-58297534D01*
X89492851Y-58326411D01*
X89484477Y-58336887D01*
X81186982Y-58336887D01*
X81125654Y-58293944D01*
X80926076Y-58200880D01*
X80713371Y-58143885D01*
X80494000Y-58124693D01*
X80274629Y-58143885D01*
X80061924Y-58200880D01*
X79992103Y-58233438D01*
X79867334Y-58291618D01*
X79867329Y-58291621D01*
X79862347Y-58293944D01*
X79857840Y-58297100D01*
X79857838Y-58297101D01*
X79686473Y-58417092D01*
X79686470Y-58417094D01*
X79681962Y-58420251D01*
X79526251Y-58575962D01*
X79523094Y-58580470D01*
X79523092Y-58580473D01*
X79410103Y-58741838D01*
X79399944Y-58756347D01*
X79397621Y-58761329D01*
X79397618Y-58761334D01*
X79397502Y-58761583D01*
X79306880Y-58955924D01*
X79249885Y-59168629D01*
X79230693Y-59388000D01*
X78756326Y-59388000D01*
X78756326Y-59382525D01*
X78738099Y-59174196D01*
X78736196Y-59163401D01*
X78682072Y-58961405D01*
X78678326Y-58951113D01*
X78589946Y-58761583D01*
X78584466Y-58752093D01*
X78555589Y-58710851D01*
X78545113Y-58702477D01*
X78531666Y-58709545D01*
X77866021Y-59375189D01*
X77858408Y-59389132D01*
X77128356Y-59389132D01*
X77129592Y-59386868D01*
X77129461Y-59385034D01*
X77125210Y-59378420D01*
X76455609Y-58708820D01*
X76443839Y-58702393D01*
X76431824Y-58711689D01*
X76403534Y-58752093D01*
X76398054Y-58761583D01*
X76309674Y-58951113D01*
X76305928Y-58961405D01*
X76251804Y-59163401D01*
X76249901Y-59174196D01*
X76231674Y-59382525D01*
X76231674Y-59393475D01*
X74883467Y-59393475D01*
X74710564Y-59338627D01*
X74710563Y-59338627D01*
X74704694Y-59336765D01*
X74550773Y-59319500D01*
X74444231Y-59319500D01*
X74441175Y-59319800D01*
X74441168Y-59319800D01*
X74382660Y-59325537D01*
X74297167Y-59333920D01*
X74291266Y-59335702D01*
X74291264Y-59335702D01*
X74217947Y-59357838D01*
X74107831Y-59391084D01*
X73933204Y-59483934D01*
X73846938Y-59554291D01*
X73784713Y-59605040D01*
X73784710Y-59605043D01*
X73779938Y-59608935D01*
X73776011Y-59613682D01*
X73776009Y-59613684D01*
X73657799Y-59756575D01*
X73657797Y-59756579D01*
X73653870Y-59761325D01*
X73559802Y-59935299D01*
X73501318Y-60124232D01*
X73500674Y-60130357D01*
X73500674Y-60130358D01*
X73485140Y-60278162D01*
X73480645Y-60320925D01*
X70402956Y-60320925D01*
X70432899Y-60278162D01*
X70432900Y-60278160D01*
X70436056Y-60273653D01*
X70438379Y-60268671D01*
X70438382Y-60268666D01*
X70496397Y-60144251D01*
X70529120Y-60074076D01*
X70586115Y-59861371D01*
X70605307Y-59642000D01*
X70586115Y-59422629D01*
X70529120Y-59209924D01*
X70481725Y-59108285D01*
X70438382Y-59015334D01*
X70438379Y-59015329D01*
X70436056Y-59010347D01*
X70432899Y-59005838D01*
X70312908Y-58834473D01*
X70312906Y-58834470D01*
X70309749Y-58829962D01*
X70154038Y-58674251D01*
X69973654Y-58547944D01*
X69774076Y-58454880D01*
X69561371Y-58397885D01*
X69342000Y-58378693D01*
X69122629Y-58397885D01*
X68909924Y-58454880D01*
X68816562Y-58498415D01*
X68715334Y-58545618D01*
X68715329Y-58545621D01*
X68710347Y-58547944D01*
X68705840Y-58551100D01*
X68705838Y-58551101D01*
X68534473Y-58671092D01*
X68534470Y-58671094D01*
X68529962Y-58674251D01*
X68374251Y-58829962D01*
X68371094Y-58834470D01*
X68371092Y-58834473D01*
X68251101Y-59005838D01*
X68247944Y-59010347D01*
X68245621Y-59015329D01*
X68245618Y-59015334D01*
X68202275Y-59108285D01*
X68154880Y-59209924D01*
X68097885Y-59422629D01*
X68078693Y-59642000D01*
X67605307Y-59642000D01*
X67586115Y-59422629D01*
X67529120Y-59209924D01*
X67481725Y-59108285D01*
X67438382Y-59015334D01*
X67438379Y-59015329D01*
X67436056Y-59010347D01*
X67432899Y-59005838D01*
X67312908Y-58834473D01*
X67312906Y-58834470D01*
X67309749Y-58829962D01*
X67154038Y-58674251D01*
X66973654Y-58547944D01*
X66774076Y-58454880D01*
X66561371Y-58397885D01*
X66342000Y-58378693D01*
X66122629Y-58397885D01*
X65909924Y-58454880D01*
X65816562Y-58498415D01*
X65715334Y-58545618D01*
X65715329Y-58545621D01*
X65710347Y-58547944D01*
X65705840Y-58551100D01*
X65705838Y-58551101D01*
X65534473Y-58671092D01*
X65534470Y-58671094D01*
X65529962Y-58674251D01*
X65374251Y-58829962D01*
X65371094Y-58834470D01*
X65371092Y-58834473D01*
X65251101Y-59005838D01*
X65247944Y-59010347D01*
X65245621Y-59015329D01*
X65245618Y-59015334D01*
X65202275Y-59108285D01*
X65154880Y-59209924D01*
X65097885Y-59422629D01*
X65078693Y-59642000D01*
X59905500Y-59642000D01*
X59905500Y-59177866D01*
X59898745Y-59115684D01*
X59847615Y-58979295D01*
X59760261Y-58862739D01*
X59643705Y-58775385D01*
X59631132Y-58770672D01*
X59525203Y-58730960D01*
X59468439Y-58688318D01*
X59443739Y-58621756D01*
X59458947Y-58552408D01*
X59480493Y-58523727D01*
X59551009Y-58453457D01*
X59585096Y-58419489D01*
X59599598Y-58399308D01*
X59644452Y-58336887D01*
X76808477Y-58336887D01*
X76815545Y-58350334D01*
X77481189Y-59015979D01*
X77495132Y-59023592D01*
X77496966Y-59023461D01*
X77503580Y-59019210D01*
X78173180Y-58349609D01*
X78179607Y-58337839D01*
X78170313Y-58325825D01*
X78129912Y-58297536D01*
X78120416Y-58292053D01*
X77930887Y-58203674D01*
X77920595Y-58199928D01*
X77718599Y-58145804D01*
X77707804Y-58143901D01*
X77499475Y-58125674D01*
X77488525Y-58125674D01*
X77280196Y-58143901D01*
X77269401Y-58145804D01*
X77067405Y-58199928D01*
X77057113Y-58203674D01*
X76867583Y-58292054D01*
X76858093Y-58297534D01*
X76816851Y-58326411D01*
X76808477Y-58336887D01*
X59644452Y-58336887D01*
X59712435Y-58242277D01*
X59715453Y-58238077D01*
X59734308Y-58199928D01*
X59812136Y-58042453D01*
X59812137Y-58042451D01*
X59814430Y-58037811D01*
X59876318Y-57834115D01*
X59877865Y-57829023D01*
X59877865Y-57829021D01*
X59879370Y-57824069D01*
X59896736Y-57692161D01*
X65656393Y-57692161D01*
X65665687Y-57704175D01*
X65706088Y-57732464D01*
X65715584Y-57737947D01*
X65905113Y-57826326D01*
X65915405Y-57830072D01*
X66117401Y-57884196D01*
X66128196Y-57886099D01*
X66336525Y-57904326D01*
X66347475Y-57904326D01*
X66555804Y-57886099D01*
X66566599Y-57884196D01*
X66768595Y-57830072D01*
X66778887Y-57826326D01*
X66968416Y-57737947D01*
X66977912Y-57732464D01*
X67019148Y-57703590D01*
X67027523Y-57693112D01*
X67020457Y-57679668D01*
X66354811Y-57014021D01*
X66340868Y-57006408D01*
X66339034Y-57006539D01*
X66332420Y-57010790D01*
X65662820Y-57680391D01*
X65656393Y-57692161D01*
X59896736Y-57692161D01*
X59908529Y-57602590D01*
X59909092Y-57579550D01*
X59910074Y-57539365D01*
X59910074Y-57539361D01*
X59910156Y-57536000D01*
X59891852Y-57313361D01*
X59837431Y-57096702D01*
X59748354Y-56891840D01*
X59698492Y-56814765D01*
X59629822Y-56708617D01*
X59629820Y-56708614D01*
X59627014Y-56704277D01*
X59575328Y-56647475D01*
X65079674Y-56647475D01*
X65097901Y-56855804D01*
X65099804Y-56866599D01*
X65153928Y-57068595D01*
X65157674Y-57078887D01*
X65246054Y-57268417D01*
X65251534Y-57277907D01*
X65280411Y-57319149D01*
X65290887Y-57327523D01*
X65304334Y-57320455D01*
X65969979Y-56654811D01*
X65976356Y-56643132D01*
X66706408Y-56643132D01*
X66706539Y-56644966D01*
X66710790Y-56651580D01*
X67380391Y-57321180D01*
X67392161Y-57327607D01*
X67404176Y-57318311D01*
X67432466Y-57277907D01*
X67437946Y-57268417D01*
X67473394Y-57192400D01*
X68083500Y-57192400D01*
X68083837Y-57195646D01*
X68083837Y-57195650D01*
X68085403Y-57210738D01*
X68094474Y-57298165D01*
X68096655Y-57304701D01*
X68096655Y-57304703D01*
X68115887Y-57362348D01*
X68150450Y-57465945D01*
X68243522Y-57616348D01*
X68248704Y-57621521D01*
X68259796Y-57632594D01*
X68368697Y-57741305D01*
X68374927Y-57745145D01*
X68374928Y-57745146D01*
X68512090Y-57829694D01*
X68519262Y-57834115D01*
X68599005Y-57860564D01*
X68680611Y-57887632D01*
X68680613Y-57887632D01*
X68687139Y-57889797D01*
X68693975Y-57890497D01*
X68693978Y-57890498D01*
X68737031Y-57894909D01*
X68791600Y-57900500D01*
X69892400Y-57900500D01*
X69895646Y-57900163D01*
X69895650Y-57900163D01*
X69991307Y-57890238D01*
X69991311Y-57890237D01*
X69998165Y-57889526D01*
X70004701Y-57887345D01*
X70004703Y-57887345D01*
X70136805Y-57843272D01*
X70165945Y-57833550D01*
X70316348Y-57740478D01*
X70441305Y-57615303D01*
X70447096Y-57605908D01*
X70530275Y-57470968D01*
X70530276Y-57470966D01*
X70534115Y-57464738D01*
X70571557Y-57351852D01*
X70587632Y-57303389D01*
X70587632Y-57303387D01*
X70589797Y-57296861D01*
X70600500Y-57192400D01*
X70600500Y-56938400D01*
X76235500Y-56938400D01*
X76235837Y-56941646D01*
X76235837Y-56941650D01*
X76244725Y-57027307D01*
X76246474Y-57044165D01*
X76248655Y-57050701D01*
X76248655Y-57050703D01*
X76255192Y-57070297D01*
X76302450Y-57211945D01*
X76395522Y-57362348D01*
X76520697Y-57487305D01*
X76526927Y-57491145D01*
X76526928Y-57491146D01*
X76664090Y-57575694D01*
X76671262Y-57580115D01*
X76749026Y-57605908D01*
X76832611Y-57633632D01*
X76832613Y-57633632D01*
X76839139Y-57635797D01*
X76845975Y-57636497D01*
X76845978Y-57636498D01*
X76888241Y-57640828D01*
X76943600Y-57646500D01*
X78044400Y-57646500D01*
X78047646Y-57646163D01*
X78047650Y-57646163D01*
X78143307Y-57636238D01*
X78143311Y-57636237D01*
X78150165Y-57635526D01*
X78156701Y-57633345D01*
X78156703Y-57633345D01*
X78288805Y-57589272D01*
X78317945Y-57579550D01*
X78468348Y-57486478D01*
X78593305Y-57361303D01*
X78599469Y-57351303D01*
X78682275Y-57216968D01*
X78682276Y-57216966D01*
X78686115Y-57210738D01*
X78712564Y-57130995D01*
X78739632Y-57049389D01*
X78739632Y-57049387D01*
X78741797Y-57042861D01*
X78743523Y-57026022D01*
X78752172Y-56941598D01*
X78752500Y-56938400D01*
X78752500Y-56388000D01*
X79230693Y-56388000D01*
X79249885Y-56607371D01*
X79306880Y-56820076D01*
X79309205Y-56825061D01*
X79397618Y-57014666D01*
X79397621Y-57014671D01*
X79399944Y-57019653D01*
X79403100Y-57024160D01*
X79403101Y-57024162D01*
X79521978Y-57193935D01*
X79526251Y-57200038D01*
X79681962Y-57355749D01*
X79686471Y-57358906D01*
X79686473Y-57358908D01*
X79698774Y-57367521D01*
X79862346Y-57482056D01*
X80061924Y-57575120D01*
X80274629Y-57632115D01*
X80494000Y-57651307D01*
X80713371Y-57632115D01*
X80926076Y-57575120D01*
X81125654Y-57482056D01*
X81289226Y-57367521D01*
X81301527Y-57358908D01*
X81301529Y-57358906D01*
X81306038Y-57355749D01*
X81461749Y-57200038D01*
X81466023Y-57193935D01*
X81584899Y-57024162D01*
X81584900Y-57024160D01*
X81588056Y-57019653D01*
X81590379Y-57014671D01*
X81590382Y-57014666D01*
X81625945Y-56938400D01*
X88911500Y-56938400D01*
X88911837Y-56941646D01*
X88911837Y-56941650D01*
X88920725Y-57027307D01*
X88922474Y-57044165D01*
X88924655Y-57050701D01*
X88924655Y-57050703D01*
X88931192Y-57070297D01*
X88978450Y-57211945D01*
X89071522Y-57362348D01*
X89196697Y-57487305D01*
X89202927Y-57491145D01*
X89202928Y-57491146D01*
X89340090Y-57575694D01*
X89347262Y-57580115D01*
X89425026Y-57605908D01*
X89508611Y-57633632D01*
X89508613Y-57633632D01*
X89515139Y-57635797D01*
X89521975Y-57636497D01*
X89521978Y-57636498D01*
X89564241Y-57640828D01*
X89619600Y-57646500D01*
X90720400Y-57646500D01*
X90723646Y-57646163D01*
X90723650Y-57646163D01*
X90819307Y-57636238D01*
X90819311Y-57636237D01*
X90826165Y-57635526D01*
X90832701Y-57633345D01*
X90832703Y-57633345D01*
X90964805Y-57589272D01*
X90993945Y-57579550D01*
X91144348Y-57486478D01*
X91269305Y-57361303D01*
X91275469Y-57351303D01*
X91358275Y-57216968D01*
X91358276Y-57216966D01*
X91362115Y-57210738D01*
X91388564Y-57130995D01*
X91415632Y-57049389D01*
X91415632Y-57049387D01*
X91417797Y-57042861D01*
X91419523Y-57026022D01*
X91428172Y-56941598D01*
X91428500Y-56938400D01*
X91428500Y-56388000D01*
X91906693Y-56388000D01*
X91925885Y-56607371D01*
X91982880Y-56820076D01*
X91985205Y-56825061D01*
X92073618Y-57014666D01*
X92073621Y-57014671D01*
X92075944Y-57019653D01*
X92079100Y-57024160D01*
X92079101Y-57024162D01*
X92197978Y-57193935D01*
X92202251Y-57200038D01*
X92357962Y-57355749D01*
X92362471Y-57358906D01*
X92362473Y-57358908D01*
X92374774Y-57367521D01*
X92538346Y-57482056D01*
X92737924Y-57575120D01*
X92950629Y-57632115D01*
X93170000Y-57651307D01*
X93389371Y-57632115D01*
X93602076Y-57575120D01*
X93801654Y-57482056D01*
X93965226Y-57367521D01*
X93977527Y-57358908D01*
X93977529Y-57358906D01*
X93982038Y-57355749D01*
X94137749Y-57200038D01*
X94142023Y-57193935D01*
X94260899Y-57024162D01*
X94260900Y-57024160D01*
X94264056Y-57019653D01*
X94266379Y-57014671D01*
X94266382Y-57014666D01*
X94301945Y-56938400D01*
X101611500Y-56938400D01*
X101611837Y-56941646D01*
X101611837Y-56941650D01*
X101620725Y-57027307D01*
X101622474Y-57044165D01*
X101624655Y-57050701D01*
X101624655Y-57050703D01*
X101631192Y-57070297D01*
X101678450Y-57211945D01*
X101771522Y-57362348D01*
X101896697Y-57487305D01*
X101902927Y-57491145D01*
X101902928Y-57491146D01*
X102040090Y-57575694D01*
X102047262Y-57580115D01*
X102125026Y-57605908D01*
X102208611Y-57633632D01*
X102208613Y-57633632D01*
X102215139Y-57635797D01*
X102221975Y-57636497D01*
X102221978Y-57636498D01*
X102264241Y-57640828D01*
X102319600Y-57646500D01*
X103420400Y-57646500D01*
X103423646Y-57646163D01*
X103423650Y-57646163D01*
X103519307Y-57636238D01*
X103519311Y-57636237D01*
X103526165Y-57635526D01*
X103532701Y-57633345D01*
X103532703Y-57633345D01*
X103664805Y-57589272D01*
X103693945Y-57579550D01*
X103844348Y-57486478D01*
X103969305Y-57361303D01*
X103975469Y-57351303D01*
X104058275Y-57216968D01*
X104058276Y-57216966D01*
X104062115Y-57210738D01*
X104088564Y-57130995D01*
X104115632Y-57049389D01*
X104115632Y-57049387D01*
X104117797Y-57042861D01*
X104119523Y-57026022D01*
X104128172Y-56941598D01*
X104128500Y-56938400D01*
X104128500Y-56388000D01*
X104606693Y-56388000D01*
X104625885Y-56607371D01*
X104682880Y-56820076D01*
X104685205Y-56825061D01*
X104773618Y-57014666D01*
X104773621Y-57014671D01*
X104775944Y-57019653D01*
X104779100Y-57024160D01*
X104779101Y-57024162D01*
X104897978Y-57193935D01*
X104902251Y-57200038D01*
X105057962Y-57355749D01*
X105062471Y-57358906D01*
X105062473Y-57358908D01*
X105074774Y-57367521D01*
X105238346Y-57482056D01*
X105437924Y-57575120D01*
X105650629Y-57632115D01*
X105870000Y-57651307D01*
X106089371Y-57632115D01*
X106302076Y-57575120D01*
X106501654Y-57482056D01*
X106665226Y-57367521D01*
X106677527Y-57358908D01*
X106677529Y-57358906D01*
X106682038Y-57355749D01*
X106837749Y-57200038D01*
X106842023Y-57193935D01*
X106960899Y-57024162D01*
X106960900Y-57024160D01*
X106964056Y-57019653D01*
X106966379Y-57014671D01*
X106966382Y-57014666D01*
X107054795Y-56825061D01*
X107057120Y-56820076D01*
X107114115Y-56607371D01*
X107133307Y-56388000D01*
X107114115Y-56168629D01*
X107057120Y-55955924D01*
X106996071Y-55825003D01*
X106966382Y-55761334D01*
X106966379Y-55761329D01*
X106964056Y-55756347D01*
X106953897Y-55741838D01*
X106840908Y-55580473D01*
X106840906Y-55580470D01*
X106837749Y-55575962D01*
X106682038Y-55420251D01*
X106674107Y-55414697D01*
X106602759Y-55364739D01*
X106501654Y-55293944D01*
X106302076Y-55200880D01*
X106089371Y-55143885D01*
X105870000Y-55124693D01*
X105650629Y-55143885D01*
X105437924Y-55200880D01*
X105344562Y-55244415D01*
X105243334Y-55291618D01*
X105243329Y-55291621D01*
X105238347Y-55293944D01*
X105233840Y-55297100D01*
X105233838Y-55297101D01*
X105062473Y-55417092D01*
X105062470Y-55417094D01*
X105057962Y-55420251D01*
X104902251Y-55575962D01*
X104899094Y-55580470D01*
X104899092Y-55580473D01*
X104786103Y-55741838D01*
X104775944Y-55756347D01*
X104773621Y-55761329D01*
X104773618Y-55761334D01*
X104743929Y-55825003D01*
X104682880Y-55955924D01*
X104625885Y-56168629D01*
X104606693Y-56388000D01*
X104128500Y-56388000D01*
X104128500Y-55837600D01*
X104128163Y-55834350D01*
X104118238Y-55738693D01*
X104118237Y-55738689D01*
X104117526Y-55731835D01*
X104112009Y-55715297D01*
X104066811Y-55579825D01*
X104061550Y-55564055D01*
X103968478Y-55413652D01*
X103843303Y-55288695D01*
X103837072Y-55284854D01*
X103698968Y-55199725D01*
X103698966Y-55199724D01*
X103692738Y-55195885D01*
X103543551Y-55146402D01*
X103531389Y-55142368D01*
X103531387Y-55142368D01*
X103524861Y-55140203D01*
X103518025Y-55139503D01*
X103518022Y-55139502D01*
X103463197Y-55133885D01*
X103420400Y-55129500D01*
X102319600Y-55129500D01*
X102316354Y-55129837D01*
X102316350Y-55129837D01*
X102220693Y-55139762D01*
X102220689Y-55139763D01*
X102213835Y-55140474D01*
X102207299Y-55142655D01*
X102207297Y-55142655D01*
X102084628Y-55183581D01*
X102046055Y-55196450D01*
X101895652Y-55289522D01*
X101770695Y-55414697D01*
X101766855Y-55420927D01*
X101766854Y-55420928D01*
X101688092Y-55548704D01*
X101677885Y-55565262D01*
X101622203Y-55733139D01*
X101621503Y-55739975D01*
X101621502Y-55739978D01*
X101620339Y-55751334D01*
X101611500Y-55837600D01*
X101611500Y-56938400D01*
X94301945Y-56938400D01*
X94354795Y-56825061D01*
X94357120Y-56820076D01*
X94414115Y-56607371D01*
X94433307Y-56388000D01*
X94414115Y-56168629D01*
X94357120Y-55955924D01*
X94296071Y-55825003D01*
X94266382Y-55761334D01*
X94266379Y-55761329D01*
X94264056Y-55756347D01*
X94253897Y-55741838D01*
X94140908Y-55580473D01*
X94140906Y-55580470D01*
X94137749Y-55575962D01*
X93982038Y-55420251D01*
X93974107Y-55414697D01*
X93902759Y-55364739D01*
X93801654Y-55293944D01*
X93602076Y-55200880D01*
X93389371Y-55143885D01*
X93170000Y-55124693D01*
X92950629Y-55143885D01*
X92737924Y-55200880D01*
X92644562Y-55244415D01*
X92543334Y-55291618D01*
X92543329Y-55291621D01*
X92538347Y-55293944D01*
X92533840Y-55297100D01*
X92533838Y-55297101D01*
X92362473Y-55417092D01*
X92362470Y-55417094D01*
X92357962Y-55420251D01*
X92202251Y-55575962D01*
X92199094Y-55580470D01*
X92199092Y-55580473D01*
X92086103Y-55741838D01*
X92075944Y-55756347D01*
X92073621Y-55761329D01*
X92073618Y-55761334D01*
X92043929Y-55825003D01*
X91982880Y-55955924D01*
X91925885Y-56168629D01*
X91906693Y-56388000D01*
X91428500Y-56388000D01*
X91428500Y-55837600D01*
X91428163Y-55834350D01*
X91418238Y-55738693D01*
X91418237Y-55738689D01*
X91417526Y-55731835D01*
X91412009Y-55715297D01*
X91366811Y-55579825D01*
X91361550Y-55564055D01*
X91268478Y-55413652D01*
X91143303Y-55288695D01*
X91137072Y-55284854D01*
X90998968Y-55199725D01*
X90998966Y-55199724D01*
X90992738Y-55195885D01*
X90843551Y-55146402D01*
X90831389Y-55142368D01*
X90831387Y-55142368D01*
X90824861Y-55140203D01*
X90818025Y-55139503D01*
X90818022Y-55139502D01*
X90763197Y-55133885D01*
X90720400Y-55129500D01*
X89619600Y-55129500D01*
X89616354Y-55129837D01*
X89616350Y-55129837D01*
X89520693Y-55139762D01*
X89520689Y-55139763D01*
X89513835Y-55140474D01*
X89507299Y-55142655D01*
X89507297Y-55142655D01*
X89384628Y-55183581D01*
X89346055Y-55196450D01*
X89195652Y-55289522D01*
X89070695Y-55414697D01*
X89066855Y-55420927D01*
X89066854Y-55420928D01*
X88988092Y-55548704D01*
X88977885Y-55565262D01*
X88922203Y-55733139D01*
X88921503Y-55739975D01*
X88921502Y-55739978D01*
X88920339Y-55751334D01*
X88911500Y-55837600D01*
X88911500Y-56938400D01*
X81625945Y-56938400D01*
X81678795Y-56825061D01*
X81681120Y-56820076D01*
X81738115Y-56607371D01*
X81757307Y-56388000D01*
X81738115Y-56168629D01*
X81681120Y-55955924D01*
X81620071Y-55825003D01*
X81590382Y-55761334D01*
X81590379Y-55761329D01*
X81588056Y-55756347D01*
X81577897Y-55741838D01*
X81464908Y-55580473D01*
X81464906Y-55580470D01*
X81461749Y-55575962D01*
X81306038Y-55420251D01*
X81298107Y-55414697D01*
X81226759Y-55364739D01*
X81125654Y-55293944D01*
X80926076Y-55200880D01*
X80713371Y-55143885D01*
X80494000Y-55124693D01*
X80274629Y-55143885D01*
X80061924Y-55200880D01*
X79968562Y-55244415D01*
X79867334Y-55291618D01*
X79867329Y-55291621D01*
X79862347Y-55293944D01*
X79857840Y-55297100D01*
X79857838Y-55297101D01*
X79686473Y-55417092D01*
X79686470Y-55417094D01*
X79681962Y-55420251D01*
X79526251Y-55575962D01*
X79523094Y-55580470D01*
X79523092Y-55580473D01*
X79410103Y-55741838D01*
X79399944Y-55756347D01*
X79397621Y-55761329D01*
X79397618Y-55761334D01*
X79367929Y-55825003D01*
X79306880Y-55955924D01*
X79249885Y-56168629D01*
X79230693Y-56388000D01*
X78752500Y-56388000D01*
X78752500Y-55837600D01*
X78752163Y-55834350D01*
X78742238Y-55738693D01*
X78742237Y-55738689D01*
X78741526Y-55731835D01*
X78736009Y-55715297D01*
X78690811Y-55579825D01*
X78685550Y-55564055D01*
X78592478Y-55413652D01*
X78467303Y-55288695D01*
X78461072Y-55284854D01*
X78322968Y-55199725D01*
X78322966Y-55199724D01*
X78316738Y-55195885D01*
X78167551Y-55146402D01*
X78155389Y-55142368D01*
X78155387Y-55142368D01*
X78148861Y-55140203D01*
X78142025Y-55139503D01*
X78142022Y-55139502D01*
X78087197Y-55133885D01*
X78044400Y-55129500D01*
X76943600Y-55129500D01*
X76940354Y-55129837D01*
X76940350Y-55129837D01*
X76844693Y-55139762D01*
X76844689Y-55139763D01*
X76837835Y-55140474D01*
X76831299Y-55142655D01*
X76831297Y-55142655D01*
X76708628Y-55183581D01*
X76670055Y-55196450D01*
X76519652Y-55289522D01*
X76394695Y-55414697D01*
X76390855Y-55420927D01*
X76390854Y-55420928D01*
X76312092Y-55548704D01*
X76301885Y-55565262D01*
X76246203Y-55733139D01*
X76245503Y-55739975D01*
X76245502Y-55739978D01*
X76244339Y-55751334D01*
X76235500Y-55837600D01*
X76235500Y-56938400D01*
X70600500Y-56938400D01*
X70600500Y-56091600D01*
X70589526Y-55985835D01*
X70582090Y-55963545D01*
X70535868Y-55825003D01*
X70533550Y-55818055D01*
X70440478Y-55667652D01*
X70315303Y-55542695D01*
X70177374Y-55457674D01*
X70170968Y-55453725D01*
X70170966Y-55453724D01*
X70164738Y-55449885D01*
X70056994Y-55414148D01*
X70003389Y-55396368D01*
X70003387Y-55396368D01*
X69996861Y-55394203D01*
X69990025Y-55393503D01*
X69990022Y-55393502D01*
X69946969Y-55389091D01*
X69892400Y-55383500D01*
X68791600Y-55383500D01*
X68788354Y-55383837D01*
X68788350Y-55383837D01*
X68692693Y-55393762D01*
X68692689Y-55393763D01*
X68685835Y-55394474D01*
X68679299Y-55396655D01*
X68679297Y-55396655D01*
X68609684Y-55419880D01*
X68518055Y-55450450D01*
X68367652Y-55543522D01*
X68242695Y-55668697D01*
X68238855Y-55674927D01*
X68238854Y-55674928D01*
X68188667Y-55756347D01*
X68149885Y-55819262D01*
X68146036Y-55830866D01*
X68101318Y-55965689D01*
X68094203Y-55987139D01*
X68083500Y-56091600D01*
X68083500Y-57192400D01*
X67473394Y-57192400D01*
X67526326Y-57078887D01*
X67530072Y-57068595D01*
X67584196Y-56866599D01*
X67586099Y-56855804D01*
X67604326Y-56647475D01*
X67604326Y-56636525D01*
X67586099Y-56428196D01*
X67584196Y-56417401D01*
X67530072Y-56215405D01*
X67526326Y-56205113D01*
X67437946Y-56015583D01*
X67432466Y-56006093D01*
X67403589Y-55964851D01*
X67393113Y-55956477D01*
X67379666Y-55963545D01*
X66714021Y-56629189D01*
X66706408Y-56643132D01*
X65976356Y-56643132D01*
X65977592Y-56640868D01*
X65977461Y-56639034D01*
X65973210Y-56632420D01*
X65303609Y-55962820D01*
X65291839Y-55956393D01*
X65279824Y-55965689D01*
X65251534Y-56006093D01*
X65246054Y-56015583D01*
X65157674Y-56205113D01*
X65153928Y-56215405D01*
X65099804Y-56417401D01*
X65097901Y-56428196D01*
X65079674Y-56636525D01*
X65079674Y-56647475D01*
X59575328Y-56647475D01*
X59476670Y-56539051D01*
X59472619Y-56535852D01*
X59472615Y-56535848D01*
X59305414Y-56403800D01*
X59305410Y-56403798D01*
X59301359Y-56400598D01*
X59105789Y-56292638D01*
X59100920Y-56290914D01*
X59100916Y-56290912D01*
X58900087Y-56219795D01*
X58900083Y-56219794D01*
X58895212Y-56218069D01*
X58890119Y-56217162D01*
X58890116Y-56217161D01*
X58680373Y-56179800D01*
X58680367Y-56179799D01*
X58675284Y-56178894D01*
X58601452Y-56177992D01*
X58457081Y-56176228D01*
X58457079Y-56176228D01*
X58451911Y-56176165D01*
X58231091Y-56209955D01*
X58018756Y-56279357D01*
X57820607Y-56382507D01*
X57816474Y-56385610D01*
X57816471Y-56385612D01*
X57646100Y-56513530D01*
X57641965Y-56516635D01*
X57638393Y-56520373D01*
X57521082Y-56643132D01*
X57487629Y-56678138D01*
X57361743Y-56862680D01*
X57314715Y-56963993D01*
X57279718Y-57039389D01*
X57267688Y-57065305D01*
X57207989Y-57280570D01*
X57184251Y-57502695D01*
X56896000Y-57502695D01*
X56896000Y-55590887D01*
X65656477Y-55590887D01*
X65663545Y-55604334D01*
X66329189Y-56269979D01*
X66343132Y-56277592D01*
X66344966Y-56277461D01*
X66351580Y-56273210D01*
X67021180Y-55603609D01*
X67027607Y-55591839D01*
X67018313Y-55579825D01*
X66977912Y-55551536D01*
X66968416Y-55546053D01*
X66778887Y-55457674D01*
X66768595Y-55453928D01*
X66566599Y-55399804D01*
X66555804Y-55397901D01*
X66347475Y-55379674D01*
X66336525Y-55379674D01*
X66128196Y-55397901D01*
X66117401Y-55399804D01*
X65915405Y-55453928D01*
X65905113Y-55457674D01*
X65715583Y-55546054D01*
X65706093Y-55551534D01*
X65664851Y-55580411D01*
X65656477Y-55590887D01*
X56896000Y-55590887D01*
X56896000Y-53634925D01*
X64388645Y-53634925D01*
X64406570Y-53831888D01*
X64462410Y-54021619D01*
X64465263Y-54027077D01*
X64465265Y-54027081D01*
X64512720Y-54117853D01*
X64554040Y-54196890D01*
X64677968Y-54351025D01*
X64682692Y-54354989D01*
X64689933Y-54361065D01*
X64829474Y-54478154D01*
X64834872Y-54481121D01*
X64834877Y-54481125D01*
X64978180Y-54559905D01*
X65002787Y-54573433D01*
X65008654Y-54575294D01*
X65008656Y-54575295D01*
X65185436Y-54631373D01*
X65191306Y-54633235D01*
X65345227Y-54650500D01*
X65451769Y-54650500D01*
X65454825Y-54650200D01*
X65454832Y-54650200D01*
X65513340Y-54644463D01*
X65598833Y-54636080D01*
X65604734Y-54634298D01*
X65604736Y-54634298D01*
X65678053Y-54612162D01*
X65788169Y-54578916D01*
X65962796Y-54486066D01*
X66049062Y-54415709D01*
X66111287Y-54364960D01*
X66111290Y-54364957D01*
X66116062Y-54361065D01*
X66128344Y-54346219D01*
X66238201Y-54213425D01*
X66238203Y-54213421D01*
X66242130Y-54208675D01*
X66336198Y-54034701D01*
X66394682Y-53845768D01*
X66415355Y-53649075D01*
X66397430Y-53452112D01*
X66341590Y-53262381D01*
X66331919Y-53243881D01*
X66252813Y-53092568D01*
X66249960Y-53087110D01*
X66126032Y-52932975D01*
X66119727Y-52927684D01*
X66103334Y-52913929D01*
X65974526Y-52805846D01*
X65969128Y-52802879D01*
X65969123Y-52802875D01*
X65806608Y-52713533D01*
X65806609Y-52713533D01*
X65801213Y-52710567D01*
X65795346Y-52708706D01*
X65795344Y-52708705D01*
X65618564Y-52652627D01*
X65618563Y-52652627D01*
X65612694Y-52650765D01*
X65458773Y-52633500D01*
X65352231Y-52633500D01*
X65349175Y-52633800D01*
X65349168Y-52633800D01*
X65290660Y-52639537D01*
X65205167Y-52647920D01*
X65199266Y-52649702D01*
X65199264Y-52649702D01*
X65125947Y-52671838D01*
X65015831Y-52705084D01*
X64841204Y-52797934D01*
X64754938Y-52868291D01*
X64692713Y-52919040D01*
X64692710Y-52919043D01*
X64687938Y-52922935D01*
X64684011Y-52927682D01*
X64684009Y-52927684D01*
X64565799Y-53070575D01*
X64565797Y-53070579D01*
X64561870Y-53075325D01*
X64467802Y-53249299D01*
X64409318Y-53438232D01*
X64388645Y-53634925D01*
X56896000Y-53634925D01*
X56896000Y-49680925D01*
X63880645Y-49680925D01*
X63898570Y-49877888D01*
X63954410Y-50067619D01*
X63957263Y-50073077D01*
X63957265Y-50073081D01*
X64004720Y-50163853D01*
X64046040Y-50242890D01*
X64169968Y-50397025D01*
X64174692Y-50400989D01*
X64181933Y-50407065D01*
X64321474Y-50524154D01*
X64326872Y-50527121D01*
X64326877Y-50527125D01*
X64470180Y-50605905D01*
X64494787Y-50619433D01*
X64500654Y-50621294D01*
X64500656Y-50621295D01*
X64677436Y-50677373D01*
X64683306Y-50679235D01*
X64837227Y-50696500D01*
X64943769Y-50696500D01*
X64946825Y-50696200D01*
X64946832Y-50696200D01*
X65005340Y-50690463D01*
X65090833Y-50682080D01*
X65096734Y-50680298D01*
X65096736Y-50680298D01*
X65170053Y-50658162D01*
X65280169Y-50624916D01*
X65454796Y-50532066D01*
X65541062Y-50461709D01*
X65603287Y-50410960D01*
X65603290Y-50410957D01*
X65608062Y-50407065D01*
X65620344Y-50392219D01*
X65730201Y-50259425D01*
X65730203Y-50259421D01*
X65734130Y-50254675D01*
X65828198Y-50080701D01*
X65886682Y-49891768D01*
X65907355Y-49695075D01*
X65889430Y-49498112D01*
X65833590Y-49308381D01*
X65823919Y-49289881D01*
X65744813Y-49138568D01*
X65741960Y-49133110D01*
X65618032Y-48978975D01*
X65611727Y-48973684D01*
X65595334Y-48959929D01*
X65466526Y-48851846D01*
X65461128Y-48848879D01*
X65461123Y-48848875D01*
X65298608Y-48759533D01*
X65298609Y-48759533D01*
X65293213Y-48756567D01*
X65287346Y-48754706D01*
X65287344Y-48754705D01*
X65110564Y-48698627D01*
X65110563Y-48698627D01*
X65104694Y-48696765D01*
X64950773Y-48679500D01*
X64844231Y-48679500D01*
X64841175Y-48679800D01*
X64841168Y-48679800D01*
X64782660Y-48685537D01*
X64697167Y-48693920D01*
X64691266Y-48695702D01*
X64691264Y-48695702D01*
X64617947Y-48717838D01*
X64507831Y-48751084D01*
X64333204Y-48843934D01*
X64246938Y-48914291D01*
X64184713Y-48965040D01*
X64184710Y-48965043D01*
X64179938Y-48968935D01*
X64176011Y-48973682D01*
X64176009Y-48973684D01*
X64057799Y-49116575D01*
X64057797Y-49116579D01*
X64053870Y-49121325D01*
X63959802Y-49295299D01*
X63901318Y-49484232D01*
X63880645Y-49680925D01*
X56896000Y-49680925D01*
X56896000Y-45710118D01*
X56916002Y-45641997D01*
X56969658Y-45595504D01*
X57039932Y-45585400D01*
X57104512Y-45614894D01*
X57138743Y-45662714D01*
X57197316Y-45806962D01*
X57203266Y-45821616D01*
X57254019Y-45904438D01*
X57309669Y-45995250D01*
X57319987Y-46012088D01*
X57466250Y-46180938D01*
X57638126Y-46323632D01*
X57831000Y-46436338D01*
X58039692Y-46516030D01*
X58044760Y-46517061D01*
X58044763Y-46517062D01*
X58152017Y-46538883D01*
X58258597Y-46560567D01*
X58263772Y-46560757D01*
X58263774Y-46560757D01*
X58476673Y-46568564D01*
X58476677Y-46568564D01*
X58481837Y-46568753D01*
X58486957Y-46568097D01*
X58486959Y-46568097D01*
X58698288Y-46541025D01*
X58698289Y-46541025D01*
X58703416Y-46540368D01*
X58708366Y-46538883D01*
X58912429Y-46477661D01*
X58912434Y-46477659D01*
X58917384Y-46476174D01*
X59117994Y-46377896D01*
X59299860Y-46248173D01*
X59458096Y-46090489D01*
X59469718Y-46074316D01*
X59585435Y-45913277D01*
X59588453Y-45909077D01*
X59604820Y-45875962D01*
X59685136Y-45713453D01*
X59685137Y-45713451D01*
X59687430Y-45708811D01*
X59703734Y-45655148D01*
X59719754Y-45602422D01*
X59758695Y-45543058D01*
X59823549Y-45514171D01*
X59893725Y-45524933D01*
X59929407Y-45549956D01*
X60414174Y-46034723D01*
X60425041Y-46047114D01*
X60444502Y-46072476D01*
X60476414Y-46096963D01*
X60476417Y-46096966D01*
X60534626Y-46141631D01*
X60571614Y-46170013D01*
X60719639Y-46231327D01*
X60838604Y-46246989D01*
X60838609Y-46246989D01*
X60838618Y-46246990D01*
X60868615Y-46250939D01*
X60870301Y-46251161D01*
X60878489Y-46252239D01*
X60910182Y-46248067D01*
X60926625Y-46246989D01*
X64485067Y-46246989D01*
X64553188Y-46266991D01*
X64599681Y-46320647D01*
X64609785Y-46390921D01*
X64606773Y-46405601D01*
X64591310Y-46463309D01*
X64591309Y-46463315D01*
X64589885Y-46468629D01*
X64570693Y-46688000D01*
X64589885Y-46907371D01*
X64646880Y-47120076D01*
X64671396Y-47172650D01*
X64737618Y-47314666D01*
X64737621Y-47314671D01*
X64739944Y-47319653D01*
X64743100Y-47324160D01*
X64743101Y-47324162D01*
X64820565Y-47434791D01*
X64866251Y-47500038D01*
X65021962Y-47655749D01*
X65202346Y-47782056D01*
X65401924Y-47875120D01*
X65614629Y-47932115D01*
X65834000Y-47951307D01*
X66053371Y-47932115D01*
X66266076Y-47875120D01*
X66465654Y-47782056D01*
X66646038Y-47655749D01*
X66801749Y-47500038D01*
X66847436Y-47434791D01*
X66924899Y-47324162D01*
X66924900Y-47324160D01*
X66928056Y-47319653D01*
X66930379Y-47314671D01*
X66930382Y-47314666D01*
X66996604Y-47172650D01*
X67021120Y-47120076D01*
X67078115Y-46907371D01*
X67097307Y-46688000D01*
X67078115Y-46468629D01*
X67076691Y-46463315D01*
X67076690Y-46463309D01*
X67061227Y-46405601D01*
X67062916Y-46334625D01*
X67102709Y-46275829D01*
X67167973Y-46247880D01*
X67182933Y-46246989D01*
X67480250Y-46246989D01*
X67548371Y-46266991D01*
X67569345Y-46283894D01*
X67573144Y-46287693D01*
X67607170Y-46350005D01*
X67605755Y-46409400D01*
X67591310Y-46463309D01*
X67591309Y-46463315D01*
X67589885Y-46468629D01*
X67570693Y-46688000D01*
X67589885Y-46907371D01*
X67646880Y-47120076D01*
X67671396Y-47172650D01*
X67737618Y-47314666D01*
X67737621Y-47314671D01*
X67739944Y-47319653D01*
X67743100Y-47324160D01*
X67743101Y-47324162D01*
X67820565Y-47434791D01*
X67866251Y-47500038D01*
X68021962Y-47655749D01*
X68202346Y-47782056D01*
X68401924Y-47875120D01*
X68614629Y-47932115D01*
X68834000Y-47951307D01*
X69053371Y-47932115D01*
X69266076Y-47875120D01*
X69465654Y-47782056D01*
X69646038Y-47655749D01*
X69801749Y-47500038D01*
X69847436Y-47434791D01*
X69924899Y-47324162D01*
X69924900Y-47324160D01*
X69928056Y-47319653D01*
X69930379Y-47314671D01*
X69930382Y-47314666D01*
X69996604Y-47172650D01*
X70021120Y-47120076D01*
X70078115Y-46907371D01*
X70097307Y-46688000D01*
X70091270Y-46619000D01*
X76230693Y-46619000D01*
X76249885Y-46838371D01*
X76306880Y-47051076D01*
X76309205Y-47056061D01*
X76397618Y-47245666D01*
X76397621Y-47245671D01*
X76399944Y-47250653D01*
X76403100Y-47255160D01*
X76403101Y-47255162D01*
X76521978Y-47424935D01*
X76526251Y-47431038D01*
X76681962Y-47586749D01*
X76686471Y-47589906D01*
X76686473Y-47589908D01*
X76698774Y-47598521D01*
X76862346Y-47713056D01*
X77061924Y-47806120D01*
X77274629Y-47863115D01*
X77494000Y-47882307D01*
X77713371Y-47863115D01*
X77926076Y-47806120D01*
X78125654Y-47713056D01*
X78289226Y-47598521D01*
X78301527Y-47589908D01*
X78301529Y-47589906D01*
X78306038Y-47586749D01*
X78461749Y-47431038D01*
X78466023Y-47424935D01*
X78584899Y-47255162D01*
X78584900Y-47255160D01*
X78588056Y-47250653D01*
X78590379Y-47245671D01*
X78590382Y-47245666D01*
X78625945Y-47169400D01*
X79235500Y-47169400D01*
X79235837Y-47172646D01*
X79235837Y-47172650D01*
X79244592Y-47257022D01*
X79246474Y-47275165D01*
X79248655Y-47281701D01*
X79248655Y-47281703D01*
X79261316Y-47319653D01*
X79302450Y-47442945D01*
X79395522Y-47593348D01*
X79520697Y-47718305D01*
X79526927Y-47722145D01*
X79526928Y-47722146D01*
X79664090Y-47806694D01*
X79671262Y-47811115D01*
X79716513Y-47826124D01*
X79832611Y-47864632D01*
X79832613Y-47864632D01*
X79839139Y-47866797D01*
X79845975Y-47867497D01*
X79845978Y-47867498D01*
X79889031Y-47871909D01*
X79943600Y-47877500D01*
X81044400Y-47877500D01*
X81047646Y-47877163D01*
X81047650Y-47877163D01*
X81143307Y-47867238D01*
X81143311Y-47867237D01*
X81150165Y-47866526D01*
X81156701Y-47864345D01*
X81156703Y-47864345D01*
X81288805Y-47820272D01*
X81317945Y-47810550D01*
X81468348Y-47717478D01*
X81593305Y-47592303D01*
X81599469Y-47582303D01*
X81682275Y-47447968D01*
X81682276Y-47447966D01*
X81686115Y-47441738D01*
X81741797Y-47273861D01*
X81743523Y-47257022D01*
X81752172Y-47172598D01*
X81752500Y-47169400D01*
X81752500Y-46619000D01*
X88930693Y-46619000D01*
X88949885Y-46838371D01*
X89006880Y-47051076D01*
X89009205Y-47056061D01*
X89097618Y-47245666D01*
X89097621Y-47245671D01*
X89099944Y-47250653D01*
X89103100Y-47255160D01*
X89103101Y-47255162D01*
X89221978Y-47424935D01*
X89226251Y-47431038D01*
X89381962Y-47586749D01*
X89386471Y-47589906D01*
X89386473Y-47589908D01*
X89398774Y-47598521D01*
X89562346Y-47713056D01*
X89761924Y-47806120D01*
X89974629Y-47863115D01*
X90194000Y-47882307D01*
X90413371Y-47863115D01*
X90626076Y-47806120D01*
X90825654Y-47713056D01*
X90989226Y-47598521D01*
X91001527Y-47589908D01*
X91001529Y-47589906D01*
X91006038Y-47586749D01*
X91161749Y-47431038D01*
X91166023Y-47424935D01*
X91284899Y-47255162D01*
X91284900Y-47255160D01*
X91288056Y-47250653D01*
X91290379Y-47245671D01*
X91290382Y-47245666D01*
X91325945Y-47169400D01*
X91935500Y-47169400D01*
X91935837Y-47172646D01*
X91935837Y-47172650D01*
X91944592Y-47257022D01*
X91946474Y-47275165D01*
X91948655Y-47281701D01*
X91948655Y-47281703D01*
X91961316Y-47319653D01*
X92002450Y-47442945D01*
X92095522Y-47593348D01*
X92220697Y-47718305D01*
X92226927Y-47722145D01*
X92226928Y-47722146D01*
X92364090Y-47806694D01*
X92371262Y-47811115D01*
X92416513Y-47826124D01*
X92532611Y-47864632D01*
X92532613Y-47864632D01*
X92539139Y-47866797D01*
X92545975Y-47867497D01*
X92545978Y-47867498D01*
X92589031Y-47871909D01*
X92643600Y-47877500D01*
X93744400Y-47877500D01*
X93747646Y-47877163D01*
X93747650Y-47877163D01*
X93843307Y-47867238D01*
X93843311Y-47867237D01*
X93850165Y-47866526D01*
X93856701Y-47864345D01*
X93856703Y-47864345D01*
X93988805Y-47820272D01*
X94017945Y-47810550D01*
X94168348Y-47717478D01*
X94293305Y-47592303D01*
X94299469Y-47582303D01*
X94382275Y-47447968D01*
X94382276Y-47447966D01*
X94386115Y-47441738D01*
X94441797Y-47273861D01*
X94443523Y-47257022D01*
X94452172Y-47172598D01*
X94452500Y-47169400D01*
X94452500Y-46619000D01*
X101630693Y-46619000D01*
X101649885Y-46838371D01*
X101706880Y-47051076D01*
X101709205Y-47056061D01*
X101797618Y-47245666D01*
X101797621Y-47245671D01*
X101799944Y-47250653D01*
X101803100Y-47255160D01*
X101803101Y-47255162D01*
X101921978Y-47424935D01*
X101926251Y-47431038D01*
X102081962Y-47586749D01*
X102086471Y-47589906D01*
X102086473Y-47589908D01*
X102098774Y-47598521D01*
X102262346Y-47713056D01*
X102461924Y-47806120D01*
X102674629Y-47863115D01*
X102894000Y-47882307D01*
X103113371Y-47863115D01*
X103326076Y-47806120D01*
X103525654Y-47713056D01*
X103689226Y-47598521D01*
X103701527Y-47589908D01*
X103701529Y-47589906D01*
X103706038Y-47586749D01*
X103861749Y-47431038D01*
X103866023Y-47424935D01*
X103984899Y-47255162D01*
X103984900Y-47255160D01*
X103988056Y-47250653D01*
X103990379Y-47245671D01*
X103990382Y-47245666D01*
X104025945Y-47169400D01*
X104635500Y-47169400D01*
X104635837Y-47172646D01*
X104635837Y-47172650D01*
X104644592Y-47257022D01*
X104646474Y-47275165D01*
X104648655Y-47281701D01*
X104648655Y-47281703D01*
X104661316Y-47319653D01*
X104702450Y-47442945D01*
X104795522Y-47593348D01*
X104920697Y-47718305D01*
X104926927Y-47722145D01*
X104926928Y-47722146D01*
X105064090Y-47806694D01*
X105071262Y-47811115D01*
X105116513Y-47826124D01*
X105232611Y-47864632D01*
X105232613Y-47864632D01*
X105239139Y-47866797D01*
X105245975Y-47867497D01*
X105245978Y-47867498D01*
X105289031Y-47871909D01*
X105343600Y-47877500D01*
X106444400Y-47877500D01*
X106447646Y-47877163D01*
X106447650Y-47877163D01*
X106543307Y-47867238D01*
X106543311Y-47867237D01*
X106550165Y-47866526D01*
X106556701Y-47864345D01*
X106556703Y-47864345D01*
X106688805Y-47820272D01*
X106717945Y-47810550D01*
X106868348Y-47717478D01*
X106993305Y-47592303D01*
X106999469Y-47582303D01*
X107082275Y-47447968D01*
X107082276Y-47447966D01*
X107086115Y-47441738D01*
X107141797Y-47273861D01*
X107143523Y-47257022D01*
X107152172Y-47172598D01*
X107152500Y-47169400D01*
X107152500Y-46609000D01*
X114227693Y-46609000D01*
X114246885Y-46828371D01*
X114303880Y-47041076D01*
X114306205Y-47046061D01*
X114394618Y-47235666D01*
X114394621Y-47235671D01*
X114396944Y-47240653D01*
X114400100Y-47245160D01*
X114400101Y-47245162D01*
X114517058Y-47412193D01*
X114523251Y-47421038D01*
X114678962Y-47576749D01*
X114683471Y-47579906D01*
X114683473Y-47579908D01*
X114708573Y-47597483D01*
X114859346Y-47703056D01*
X114864331Y-47705380D01*
X114864337Y-47705384D01*
X114942883Y-47742010D01*
X114996169Y-47788927D01*
X115015630Y-47857204D01*
X115006043Y-47904422D01*
X114986822Y-47950828D01*
X114977162Y-47974149D01*
X114977162Y-47974150D01*
X114961500Y-48093115D01*
X114961500Y-48093120D01*
X114956250Y-48133000D01*
X114957328Y-48141188D01*
X114960422Y-48164690D01*
X114961500Y-48181136D01*
X114961500Y-55031788D01*
X114941498Y-55099909D01*
X114887842Y-55146402D01*
X114875375Y-55151312D01*
X114770055Y-55186450D01*
X114619652Y-55279522D01*
X114494695Y-55404697D01*
X114490855Y-55410927D01*
X114490854Y-55410928D01*
X114407562Y-55546053D01*
X114401885Y-55555262D01*
X114393523Y-55580473D01*
X114364261Y-55668697D01*
X114346203Y-55723139D01*
X114345503Y-55729975D01*
X114345502Y-55729978D01*
X114341091Y-55773031D01*
X114335500Y-55827600D01*
X114335500Y-56928400D01*
X114335837Y-56931646D01*
X114335837Y-56931650D01*
X114344451Y-57014666D01*
X114346474Y-57034165D01*
X114348655Y-57040701D01*
X114348655Y-57040703D01*
X114361394Y-57078887D01*
X114402450Y-57201945D01*
X114495522Y-57352348D01*
X114620697Y-57477305D01*
X114626927Y-57481145D01*
X114626928Y-57481146D01*
X114764090Y-57565694D01*
X114771262Y-57570115D01*
X114808358Y-57582419D01*
X114932611Y-57623632D01*
X114932613Y-57623632D01*
X114939139Y-57625797D01*
X114945975Y-57626497D01*
X114945978Y-57626498D01*
X114986914Y-57630692D01*
X115043600Y-57636500D01*
X116144400Y-57636500D01*
X116147646Y-57636163D01*
X116147650Y-57636163D01*
X116243307Y-57626238D01*
X116243311Y-57626237D01*
X116250165Y-57625526D01*
X116256701Y-57623345D01*
X116256703Y-57623345D01*
X116401250Y-57575120D01*
X116417945Y-57569550D01*
X116568348Y-57476478D01*
X116693305Y-57351303D01*
X116699131Y-57341852D01*
X116782275Y-57206968D01*
X116782276Y-57206966D01*
X116786115Y-57200738D01*
X116841797Y-57032861D01*
X116842689Y-57024162D01*
X116851142Y-56941650D01*
X116852500Y-56928400D01*
X116852500Y-56378000D01*
X117330693Y-56378000D01*
X117349885Y-56597371D01*
X117406880Y-56810076D01*
X117429414Y-56858401D01*
X117497618Y-57004666D01*
X117497621Y-57004671D01*
X117499944Y-57009653D01*
X117503100Y-57014160D01*
X117503101Y-57014162D01*
X117541216Y-57068595D01*
X117626251Y-57190038D01*
X117781962Y-57345749D01*
X117786471Y-57348906D01*
X117786473Y-57348908D01*
X117811573Y-57366483D01*
X117962346Y-57472056D01*
X118161924Y-57565120D01*
X118374629Y-57622115D01*
X118594000Y-57641307D01*
X118813371Y-57622115D01*
X119026076Y-57565120D01*
X119225654Y-57472056D01*
X119376427Y-57366483D01*
X119401527Y-57348908D01*
X119401529Y-57348906D01*
X119406038Y-57345749D01*
X119561749Y-57190038D01*
X119646785Y-57068595D01*
X119684899Y-57014162D01*
X119684900Y-57014160D01*
X119688056Y-57009653D01*
X119690379Y-57004671D01*
X119690382Y-57004666D01*
X119758586Y-56858401D01*
X119781120Y-56810076D01*
X119838115Y-56597371D01*
X119857307Y-56378000D01*
X119838115Y-56158629D01*
X119781120Y-55945924D01*
X119719152Y-55813032D01*
X119690382Y-55751334D01*
X119690379Y-55751329D01*
X119688056Y-55746347D01*
X119684899Y-55741838D01*
X119564908Y-55570473D01*
X119564906Y-55570470D01*
X119561749Y-55565962D01*
X119406038Y-55410251D01*
X119398107Y-55404697D01*
X119326759Y-55354739D01*
X119225654Y-55283944D01*
X119026076Y-55190880D01*
X118813371Y-55133885D01*
X118594000Y-55114693D01*
X118374629Y-55133885D01*
X118161924Y-55190880D01*
X118068562Y-55234415D01*
X117967334Y-55281618D01*
X117967329Y-55281621D01*
X117962347Y-55283944D01*
X117957840Y-55287100D01*
X117957838Y-55287101D01*
X117786473Y-55407092D01*
X117786470Y-55407094D01*
X117781962Y-55410251D01*
X117626251Y-55565962D01*
X117623094Y-55570470D01*
X117623092Y-55570473D01*
X117503101Y-55741838D01*
X117499944Y-55746347D01*
X117497621Y-55751329D01*
X117497618Y-55751334D01*
X117468848Y-55813032D01*
X117406880Y-55945924D01*
X117349885Y-56158629D01*
X117330693Y-56378000D01*
X116852500Y-56378000D01*
X116852500Y-55827600D01*
X116851510Y-55818055D01*
X116842238Y-55728693D01*
X116842237Y-55728689D01*
X116841526Y-55721835D01*
X116785550Y-55554055D01*
X116692478Y-55403652D01*
X116567303Y-55278695D01*
X116444836Y-55203205D01*
X116422968Y-55189725D01*
X116422966Y-55189724D01*
X116416738Y-55185885D01*
X116264832Y-55135500D01*
X116206473Y-55095071D01*
X116179236Y-55029507D01*
X116178500Y-55015908D01*
X116178500Y-48437239D01*
X116198502Y-48369118D01*
X116215405Y-48348144D01*
X117122395Y-47441154D01*
X117184707Y-47407128D01*
X117255522Y-47412193D01*
X117312358Y-47454740D01*
X117318634Y-47463945D01*
X117392522Y-47583348D01*
X117517697Y-47708305D01*
X117523927Y-47712145D01*
X117523928Y-47712146D01*
X117661090Y-47796694D01*
X117668262Y-47801115D01*
X117705358Y-47813419D01*
X117829611Y-47854632D01*
X117829613Y-47854632D01*
X117836139Y-47856797D01*
X117842975Y-47857497D01*
X117842978Y-47857498D01*
X117883914Y-47861692D01*
X117940600Y-47867500D01*
X119041400Y-47867500D01*
X119044646Y-47867163D01*
X119044650Y-47867163D01*
X119140307Y-47857238D01*
X119140311Y-47857237D01*
X119147165Y-47856526D01*
X119153701Y-47854345D01*
X119153703Y-47854345D01*
X119298250Y-47806120D01*
X119314945Y-47800550D01*
X119465348Y-47707478D01*
X119590305Y-47582303D01*
X119663262Y-47463946D01*
X119679275Y-47437968D01*
X119679276Y-47437966D01*
X119683115Y-47431738D01*
X119738797Y-47263861D01*
X119739689Y-47255162D01*
X119748142Y-47172650D01*
X119749500Y-47159400D01*
X119749500Y-46058600D01*
X119749163Y-46055350D01*
X119739238Y-45959693D01*
X119739237Y-45959689D01*
X119738526Y-45952835D01*
X119725329Y-45913277D01*
X119688027Y-45801473D01*
X119682550Y-45785055D01*
X119589478Y-45634652D01*
X119551862Y-45597101D01*
X119469483Y-45514866D01*
X119464303Y-45509695D01*
X119458072Y-45505854D01*
X119319968Y-45420725D01*
X119319966Y-45420724D01*
X119313738Y-45416885D01*
X119224029Y-45387130D01*
X119152389Y-45363368D01*
X119152387Y-45363368D01*
X119145861Y-45361203D01*
X119139025Y-45360503D01*
X119139022Y-45360502D01*
X119095969Y-45356091D01*
X119041400Y-45350500D01*
X117940600Y-45350500D01*
X117937354Y-45350837D01*
X117937350Y-45350837D01*
X117841693Y-45360762D01*
X117841689Y-45360763D01*
X117834835Y-45361474D01*
X117828299Y-45363655D01*
X117828297Y-45363655D01*
X117729205Y-45396715D01*
X117667055Y-45417450D01*
X117516652Y-45510522D01*
X117391695Y-45635697D01*
X117387855Y-45641927D01*
X117387854Y-45641928D01*
X117346627Y-45708811D01*
X117298885Y-45786262D01*
X117287159Y-45821616D01*
X117256681Y-45913503D01*
X117216250Y-45971863D01*
X117150686Y-45999100D01*
X117120647Y-45998758D01*
X117094000Y-45995250D01*
X117085812Y-45996328D01*
X117054129Y-46000499D01*
X117054120Y-46000500D01*
X117054115Y-46000500D01*
X116935150Y-46016162D01*
X116787125Y-46077476D01*
X116782915Y-46080706D01*
X116715249Y-46097121D01*
X116648157Y-46073900D01*
X116607050Y-46024513D01*
X116587384Y-45982338D01*
X116587381Y-45982332D01*
X116585056Y-45977347D01*
X116581216Y-45971863D01*
X116461908Y-45801473D01*
X116461906Y-45801470D01*
X116458749Y-45796962D01*
X116303038Y-45641251D01*
X116295107Y-45635697D01*
X116172656Y-45549956D01*
X116122654Y-45514944D01*
X115923076Y-45421880D01*
X115710371Y-45364885D01*
X115491000Y-45345693D01*
X115271629Y-45364885D01*
X115058924Y-45421880D01*
X114981323Y-45458066D01*
X114864334Y-45512618D01*
X114864329Y-45512621D01*
X114859347Y-45514944D01*
X114854840Y-45518100D01*
X114854838Y-45518101D01*
X114683473Y-45638092D01*
X114683470Y-45638094D01*
X114678962Y-45641251D01*
X114523251Y-45796962D01*
X114520094Y-45801470D01*
X114520092Y-45801473D01*
X114400784Y-45971863D01*
X114396944Y-45977347D01*
X114394621Y-45982329D01*
X114394618Y-45982334D01*
X114364411Y-46047114D01*
X114303880Y-46176924D01*
X114246885Y-46389629D01*
X114227693Y-46609000D01*
X107152500Y-46609000D01*
X107152500Y-46068600D01*
X107152163Y-46065350D01*
X107142238Y-45969693D01*
X107142237Y-45969689D01*
X107141526Y-45962835D01*
X107136009Y-45946297D01*
X107091027Y-45811473D01*
X107085550Y-45795055D01*
X106992478Y-45644652D01*
X106867303Y-45519695D01*
X106861072Y-45515854D01*
X106722968Y-45430725D01*
X106722966Y-45430724D01*
X106716738Y-45426885D01*
X106596880Y-45387130D01*
X106555389Y-45373368D01*
X106555387Y-45373368D01*
X106548861Y-45371203D01*
X106542025Y-45370503D01*
X106542022Y-45370502D01*
X106487197Y-45364885D01*
X106444400Y-45360500D01*
X105343600Y-45360500D01*
X105340354Y-45360837D01*
X105340350Y-45360837D01*
X105244693Y-45370762D01*
X105244689Y-45370763D01*
X105237835Y-45371474D01*
X105231299Y-45373655D01*
X105231297Y-45373655D01*
X105108628Y-45414581D01*
X105070055Y-45427450D01*
X104919652Y-45520522D01*
X104794695Y-45645697D01*
X104790855Y-45651927D01*
X104790854Y-45651928D01*
X104758845Y-45703857D01*
X104701885Y-45796262D01*
X104646203Y-45964139D01*
X104645503Y-45970975D01*
X104645502Y-45970978D01*
X104642477Y-46000500D01*
X104635500Y-46068600D01*
X104635500Y-47169400D01*
X104025945Y-47169400D01*
X104078795Y-47056061D01*
X104081120Y-47051076D01*
X104138115Y-46838371D01*
X104157307Y-46619000D01*
X104138115Y-46399629D01*
X104081120Y-46186924D01*
X104031440Y-46080384D01*
X103990382Y-45992334D01*
X103990379Y-45992329D01*
X103988056Y-45987347D01*
X103977214Y-45971863D01*
X103864908Y-45811473D01*
X103864906Y-45811470D01*
X103861749Y-45806962D01*
X103706038Y-45651251D01*
X103698107Y-45645697D01*
X103620875Y-45591619D01*
X103525654Y-45524944D01*
X103326076Y-45431880D01*
X103113371Y-45374885D01*
X102894000Y-45355693D01*
X102674629Y-45374885D01*
X102461924Y-45431880D01*
X102405768Y-45458066D01*
X102267334Y-45522618D01*
X102267329Y-45522621D01*
X102262347Y-45524944D01*
X102257840Y-45528100D01*
X102257838Y-45528101D01*
X102086473Y-45648092D01*
X102086470Y-45648094D01*
X102081962Y-45651251D01*
X101926251Y-45806962D01*
X101923094Y-45811470D01*
X101923092Y-45811473D01*
X101810786Y-45971863D01*
X101799944Y-45987347D01*
X101797621Y-45992329D01*
X101797618Y-45992334D01*
X101756560Y-46080384D01*
X101706880Y-46186924D01*
X101649885Y-46399629D01*
X101630693Y-46619000D01*
X94452500Y-46619000D01*
X94452500Y-46068600D01*
X94452163Y-46065350D01*
X94442238Y-45969693D01*
X94442237Y-45969689D01*
X94441526Y-45962835D01*
X94436009Y-45946297D01*
X94391027Y-45811473D01*
X94385550Y-45795055D01*
X94292478Y-45644652D01*
X94167303Y-45519695D01*
X94161072Y-45515854D01*
X94022968Y-45430725D01*
X94022966Y-45430724D01*
X94016738Y-45426885D01*
X93896880Y-45387130D01*
X93855389Y-45373368D01*
X93855387Y-45373368D01*
X93848861Y-45371203D01*
X93842025Y-45370503D01*
X93842022Y-45370502D01*
X93787197Y-45364885D01*
X93744400Y-45360500D01*
X92643600Y-45360500D01*
X92640354Y-45360837D01*
X92640350Y-45360837D01*
X92544693Y-45370762D01*
X92544689Y-45370763D01*
X92537835Y-45371474D01*
X92531299Y-45373655D01*
X92531297Y-45373655D01*
X92408628Y-45414581D01*
X92370055Y-45427450D01*
X92219652Y-45520522D01*
X92094695Y-45645697D01*
X92090855Y-45651927D01*
X92090854Y-45651928D01*
X92058845Y-45703857D01*
X92001885Y-45796262D01*
X91946203Y-45964139D01*
X91945503Y-45970975D01*
X91945502Y-45970978D01*
X91942477Y-46000500D01*
X91935500Y-46068600D01*
X91935500Y-47169400D01*
X91325945Y-47169400D01*
X91378795Y-47056061D01*
X91381120Y-47051076D01*
X91438115Y-46838371D01*
X91457307Y-46619000D01*
X91438115Y-46399629D01*
X91381120Y-46186924D01*
X91331440Y-46080384D01*
X91290382Y-45992334D01*
X91290379Y-45992329D01*
X91288056Y-45987347D01*
X91277214Y-45971863D01*
X91164908Y-45811473D01*
X91164906Y-45811470D01*
X91161749Y-45806962D01*
X91006038Y-45651251D01*
X90998107Y-45645697D01*
X90920875Y-45591619D01*
X90825654Y-45524944D01*
X90626076Y-45431880D01*
X90413371Y-45374885D01*
X90194000Y-45355693D01*
X89974629Y-45374885D01*
X89761924Y-45431880D01*
X89705768Y-45458066D01*
X89567334Y-45522618D01*
X89567329Y-45522621D01*
X89562347Y-45524944D01*
X89557840Y-45528100D01*
X89557838Y-45528101D01*
X89386473Y-45648092D01*
X89386470Y-45648094D01*
X89381962Y-45651251D01*
X89226251Y-45806962D01*
X89223094Y-45811470D01*
X89223092Y-45811473D01*
X89110786Y-45971863D01*
X89099944Y-45987347D01*
X89097621Y-45992329D01*
X89097618Y-45992334D01*
X89056560Y-46080384D01*
X89006880Y-46186924D01*
X88949885Y-46399629D01*
X88930693Y-46619000D01*
X81752500Y-46619000D01*
X81752500Y-46068600D01*
X81752163Y-46065350D01*
X81742238Y-45969693D01*
X81742237Y-45969689D01*
X81741526Y-45962835D01*
X81736009Y-45946297D01*
X81691027Y-45811473D01*
X81685550Y-45795055D01*
X81592478Y-45644652D01*
X81467303Y-45519695D01*
X81461072Y-45515854D01*
X81322968Y-45430725D01*
X81322966Y-45430724D01*
X81316738Y-45426885D01*
X81196880Y-45387130D01*
X81155389Y-45373368D01*
X81155387Y-45373368D01*
X81148861Y-45371203D01*
X81142025Y-45370503D01*
X81142022Y-45370502D01*
X81087197Y-45364885D01*
X81044400Y-45360500D01*
X79943600Y-45360500D01*
X79940354Y-45360837D01*
X79940350Y-45360837D01*
X79844693Y-45370762D01*
X79844689Y-45370763D01*
X79837835Y-45371474D01*
X79831299Y-45373655D01*
X79831297Y-45373655D01*
X79708628Y-45414581D01*
X79670055Y-45427450D01*
X79519652Y-45520522D01*
X79394695Y-45645697D01*
X79390855Y-45651927D01*
X79390854Y-45651928D01*
X79358845Y-45703857D01*
X79301885Y-45796262D01*
X79246203Y-45964139D01*
X79245503Y-45970975D01*
X79245502Y-45970978D01*
X79242477Y-46000500D01*
X79235500Y-46068600D01*
X79235500Y-47169400D01*
X78625945Y-47169400D01*
X78678795Y-47056061D01*
X78681120Y-47051076D01*
X78738115Y-46838371D01*
X78757307Y-46619000D01*
X78738115Y-46399629D01*
X78681120Y-46186924D01*
X78631440Y-46080384D01*
X78590382Y-45992334D01*
X78590379Y-45992329D01*
X78588056Y-45987347D01*
X78577214Y-45971863D01*
X78464908Y-45811473D01*
X78464906Y-45811470D01*
X78461749Y-45806962D01*
X78306038Y-45651251D01*
X78298107Y-45645697D01*
X78220875Y-45591619D01*
X78125654Y-45524944D01*
X77926076Y-45431880D01*
X77713371Y-45374885D01*
X77494000Y-45355693D01*
X77274629Y-45374885D01*
X77061924Y-45431880D01*
X77005768Y-45458066D01*
X76867334Y-45522618D01*
X76867329Y-45522621D01*
X76862347Y-45524944D01*
X76857840Y-45528100D01*
X76857838Y-45528101D01*
X76686473Y-45648092D01*
X76686470Y-45648094D01*
X76681962Y-45651251D01*
X76526251Y-45806962D01*
X76523094Y-45811470D01*
X76523092Y-45811473D01*
X76410786Y-45971863D01*
X76399944Y-45987347D01*
X76397621Y-45992329D01*
X76397618Y-45992334D01*
X76356560Y-46080384D01*
X76306880Y-46186924D01*
X76249885Y-46399629D01*
X76230693Y-46619000D01*
X70091270Y-46619000D01*
X70078115Y-46468629D01*
X70021120Y-46255924D01*
X69971971Y-46150523D01*
X69930382Y-46061334D01*
X69930379Y-46061329D01*
X69928056Y-46056347D01*
X69899798Y-46015990D01*
X69804908Y-45880473D01*
X69804906Y-45880470D01*
X69801749Y-45875962D01*
X69646038Y-45720251D01*
X69465654Y-45593944D01*
X69266076Y-45500880D01*
X69053371Y-45443885D01*
X68834000Y-45424693D01*
X68614629Y-45443885D01*
X68609315Y-45445309D01*
X68609309Y-45445310D01*
X68555400Y-45459755D01*
X68484424Y-45458066D01*
X68433693Y-45427144D01*
X68248804Y-45242255D01*
X68237937Y-45229864D01*
X68223502Y-45211052D01*
X68218476Y-45204502D01*
X68186564Y-45180015D01*
X68186561Y-45180012D01*
X68173065Y-45169656D01*
X68131198Y-45112322D01*
X68126974Y-45041451D01*
X68161736Y-44979547D01*
X68224448Y-44946264D01*
X68262608Y-44944350D01*
X68280394Y-44946172D01*
X68280403Y-44946172D01*
X68283600Y-44946500D01*
X69384400Y-44946500D01*
X69387646Y-44946163D01*
X69387650Y-44946163D01*
X69483307Y-44936238D01*
X69483311Y-44936237D01*
X69490165Y-44935526D01*
X69496701Y-44933345D01*
X69496703Y-44933345D01*
X69650997Y-44881868D01*
X69657945Y-44879550D01*
X69808348Y-44786478D01*
X69933305Y-44661303D01*
X70009079Y-44538375D01*
X70022275Y-44516968D01*
X70022276Y-44516966D01*
X70026115Y-44510738D01*
X70073971Y-44366455D01*
X70079632Y-44349389D01*
X70079632Y-44349387D01*
X70081797Y-44342861D01*
X70085717Y-44304607D01*
X70087608Y-44286149D01*
X70092500Y-44238400D01*
X70092500Y-43137600D01*
X70086225Y-43077119D01*
X70082238Y-43038693D01*
X70082237Y-43038689D01*
X70081526Y-43031835D01*
X70074090Y-43009545D01*
X70027868Y-42871003D01*
X70025550Y-42864055D01*
X69932478Y-42713652D01*
X69890678Y-42671925D01*
X73480645Y-42671925D01*
X73484538Y-42714697D01*
X73491670Y-42793065D01*
X73498570Y-42868888D01*
X73500308Y-42874794D01*
X73500309Y-42874798D01*
X73517579Y-42933477D01*
X73554410Y-43058619D01*
X73557263Y-43064077D01*
X73557265Y-43064081D01*
X73597382Y-43140817D01*
X73646040Y-43233890D01*
X73769968Y-43388025D01*
X73774692Y-43391989D01*
X73777469Y-43394319D01*
X73921474Y-43515154D01*
X73926872Y-43518121D01*
X73926877Y-43518125D01*
X74068877Y-43596189D01*
X74094787Y-43610433D01*
X74100654Y-43612294D01*
X74100656Y-43612295D01*
X74262645Y-43663681D01*
X74283306Y-43670235D01*
X74437227Y-43687500D01*
X74543769Y-43687500D01*
X74546825Y-43687200D01*
X74546832Y-43687200D01*
X74605340Y-43681463D01*
X74690833Y-43673080D01*
X74696734Y-43671298D01*
X74696736Y-43671298D01*
X74827522Y-43631811D01*
X74869954Y-43619000D01*
X76230693Y-43619000D01*
X76249885Y-43838371D01*
X76306880Y-44051076D01*
X76336499Y-44114595D01*
X76397618Y-44245666D01*
X76397621Y-44245671D01*
X76399944Y-44250653D01*
X76403100Y-44255160D01*
X76403101Y-44255162D01*
X76521978Y-44424935D01*
X76526251Y-44431038D01*
X76681962Y-44586749D01*
X76862346Y-44713056D01*
X77061924Y-44806120D01*
X77274629Y-44863115D01*
X77494000Y-44882307D01*
X77713371Y-44863115D01*
X77926076Y-44806120D01*
X78125654Y-44713056D01*
X78188342Y-44669161D01*
X79808393Y-44669161D01*
X79817687Y-44681175D01*
X79858088Y-44709464D01*
X79867584Y-44714947D01*
X80057113Y-44803326D01*
X80067405Y-44807072D01*
X80269401Y-44861196D01*
X80280196Y-44863099D01*
X80488525Y-44881326D01*
X80499475Y-44881326D01*
X80707804Y-44863099D01*
X80718599Y-44861196D01*
X80920595Y-44807072D01*
X80930887Y-44803326D01*
X81120416Y-44714947D01*
X81129912Y-44709464D01*
X81171148Y-44680590D01*
X81179523Y-44670112D01*
X81172457Y-44656668D01*
X80506811Y-43991021D01*
X80492868Y-43983408D01*
X80491034Y-43983539D01*
X80484420Y-43987790D01*
X79814820Y-44657391D01*
X79808393Y-44669161D01*
X78188342Y-44669161D01*
X78306038Y-44586749D01*
X78461749Y-44431038D01*
X78466023Y-44424935D01*
X78584899Y-44255162D01*
X78584900Y-44255160D01*
X78588056Y-44250653D01*
X78590379Y-44245671D01*
X78590382Y-44245666D01*
X78651501Y-44114595D01*
X78681120Y-44051076D01*
X78738115Y-43838371D01*
X78756828Y-43624475D01*
X79231674Y-43624475D01*
X79249901Y-43832804D01*
X79251804Y-43843599D01*
X79305928Y-44045595D01*
X79309674Y-44055887D01*
X79398054Y-44245417D01*
X79403534Y-44254907D01*
X79432411Y-44296149D01*
X79442887Y-44304523D01*
X79456334Y-44297455D01*
X80121979Y-43631811D01*
X80128356Y-43620132D01*
X80858408Y-43620132D01*
X80858539Y-43621966D01*
X80862790Y-43628580D01*
X81532391Y-44298180D01*
X81544161Y-44304607D01*
X81556176Y-44295311D01*
X81584466Y-44254907D01*
X81589946Y-44245417D01*
X81678326Y-44055887D01*
X81682072Y-44045595D01*
X81736196Y-43843599D01*
X81738099Y-43832804D01*
X81756326Y-43624475D01*
X81756326Y-43613525D01*
X81738099Y-43405196D01*
X81736196Y-43394401D01*
X81682072Y-43192405D01*
X81678326Y-43182113D01*
X81589946Y-42992583D01*
X81584466Y-42983093D01*
X81555589Y-42941851D01*
X81545113Y-42933477D01*
X81531666Y-42940545D01*
X80866021Y-43606189D01*
X80858408Y-43620132D01*
X80128356Y-43620132D01*
X80129592Y-43617868D01*
X80129461Y-43616034D01*
X80125210Y-43609420D01*
X79455609Y-42939820D01*
X79443839Y-42933393D01*
X79431824Y-42942689D01*
X79403534Y-42983093D01*
X79398054Y-42992583D01*
X79309674Y-43182113D01*
X79305928Y-43192405D01*
X79251804Y-43394401D01*
X79249901Y-43405196D01*
X79231674Y-43613525D01*
X79231674Y-43624475D01*
X78756828Y-43624475D01*
X78757307Y-43619000D01*
X78738115Y-43399629D01*
X78681120Y-43186924D01*
X78619983Y-43055814D01*
X78590382Y-42992334D01*
X78590379Y-42992329D01*
X78588056Y-42987347D01*
X78556786Y-42942689D01*
X78464908Y-42811473D01*
X78464906Y-42811470D01*
X78461749Y-42806962D01*
X78306038Y-42651251D01*
X78297323Y-42645148D01*
X78188342Y-42568839D01*
X78186982Y-42567887D01*
X79808477Y-42567887D01*
X79815545Y-42581334D01*
X80481189Y-43246979D01*
X80495132Y-43254592D01*
X80496966Y-43254461D01*
X80503580Y-43250210D01*
X81081864Y-42671925D01*
X82480645Y-42671925D01*
X82484538Y-42714697D01*
X82491670Y-42793065D01*
X82498570Y-42868888D01*
X82500308Y-42874794D01*
X82500309Y-42874798D01*
X82517579Y-42933477D01*
X82554410Y-43058619D01*
X82557263Y-43064077D01*
X82557265Y-43064081D01*
X82597382Y-43140817D01*
X82646040Y-43233890D01*
X82769968Y-43388025D01*
X82774692Y-43391989D01*
X82777469Y-43394319D01*
X82921474Y-43515154D01*
X82926872Y-43518121D01*
X82926877Y-43518125D01*
X83068877Y-43596189D01*
X83094787Y-43610433D01*
X83100654Y-43612294D01*
X83100656Y-43612295D01*
X83262645Y-43663681D01*
X83283306Y-43670235D01*
X83437227Y-43687500D01*
X83543769Y-43687500D01*
X83546825Y-43687200D01*
X83546832Y-43687200D01*
X83605340Y-43681463D01*
X83690833Y-43673080D01*
X83696734Y-43671298D01*
X83696736Y-43671298D01*
X83827522Y-43631811D01*
X83880169Y-43615916D01*
X84054796Y-43523066D01*
X84199319Y-43405196D01*
X84203287Y-43401960D01*
X84203290Y-43401957D01*
X84208062Y-43398065D01*
X84213089Y-43391989D01*
X84330201Y-43250425D01*
X84330203Y-43250421D01*
X84334130Y-43245675D01*
X84428198Y-43071701D01*
X84486682Y-42882768D01*
X84494175Y-42811473D01*
X84506711Y-42692204D01*
X84506711Y-42692202D01*
X84507355Y-42686075D01*
X84506067Y-42671925D01*
X86180645Y-42671925D01*
X86184538Y-42714697D01*
X86191670Y-42793065D01*
X86198570Y-42868888D01*
X86200308Y-42874794D01*
X86200309Y-42874798D01*
X86217579Y-42933477D01*
X86254410Y-43058619D01*
X86257263Y-43064077D01*
X86257265Y-43064081D01*
X86297382Y-43140817D01*
X86346040Y-43233890D01*
X86469968Y-43388025D01*
X86474692Y-43391989D01*
X86477469Y-43394319D01*
X86621474Y-43515154D01*
X86626872Y-43518121D01*
X86626877Y-43518125D01*
X86768877Y-43596189D01*
X86794787Y-43610433D01*
X86800654Y-43612294D01*
X86800656Y-43612295D01*
X86962645Y-43663681D01*
X86983306Y-43670235D01*
X87137227Y-43687500D01*
X87243769Y-43687500D01*
X87246825Y-43687200D01*
X87246832Y-43687200D01*
X87305340Y-43681463D01*
X87390833Y-43673080D01*
X87396734Y-43671298D01*
X87396736Y-43671298D01*
X87527522Y-43631811D01*
X87569954Y-43619000D01*
X88930693Y-43619000D01*
X88949885Y-43838371D01*
X89006880Y-44051076D01*
X89036499Y-44114595D01*
X89097618Y-44245666D01*
X89097621Y-44245671D01*
X89099944Y-44250653D01*
X89103100Y-44255160D01*
X89103101Y-44255162D01*
X89221978Y-44424935D01*
X89226251Y-44431038D01*
X89381962Y-44586749D01*
X89562346Y-44713056D01*
X89761924Y-44806120D01*
X89974629Y-44863115D01*
X90194000Y-44882307D01*
X90413371Y-44863115D01*
X90626076Y-44806120D01*
X90825654Y-44713056D01*
X90888342Y-44669161D01*
X92508393Y-44669161D01*
X92517687Y-44681175D01*
X92558088Y-44709464D01*
X92567584Y-44714947D01*
X92757113Y-44803326D01*
X92767405Y-44807072D01*
X92969401Y-44861196D01*
X92980196Y-44863099D01*
X93188525Y-44881326D01*
X93199475Y-44881326D01*
X93407804Y-44863099D01*
X93418599Y-44861196D01*
X93620595Y-44807072D01*
X93630887Y-44803326D01*
X93820416Y-44714947D01*
X93829912Y-44709464D01*
X93871148Y-44680590D01*
X93879523Y-44670112D01*
X93872457Y-44656668D01*
X93206811Y-43991021D01*
X93192868Y-43983408D01*
X93191034Y-43983539D01*
X93184420Y-43987790D01*
X92514820Y-44657391D01*
X92508393Y-44669161D01*
X90888342Y-44669161D01*
X91006038Y-44586749D01*
X91161749Y-44431038D01*
X91166023Y-44424935D01*
X91284899Y-44255162D01*
X91284900Y-44255160D01*
X91288056Y-44250653D01*
X91290379Y-44245671D01*
X91290382Y-44245666D01*
X91351501Y-44114595D01*
X91381120Y-44051076D01*
X91438115Y-43838371D01*
X91456828Y-43624475D01*
X91931674Y-43624475D01*
X91949901Y-43832804D01*
X91951804Y-43843599D01*
X92005928Y-44045595D01*
X92009674Y-44055887D01*
X92098054Y-44245417D01*
X92103534Y-44254907D01*
X92132411Y-44296149D01*
X92142887Y-44304523D01*
X92156334Y-44297455D01*
X92821979Y-43631811D01*
X92828356Y-43620132D01*
X93558408Y-43620132D01*
X93558539Y-43621966D01*
X93562790Y-43628580D01*
X94232391Y-44298180D01*
X94244161Y-44304607D01*
X94256176Y-44295311D01*
X94284466Y-44254907D01*
X94289946Y-44245417D01*
X94378326Y-44055887D01*
X94382072Y-44045595D01*
X94436196Y-43843599D01*
X94438099Y-43832804D01*
X94456326Y-43624475D01*
X94456326Y-43613525D01*
X94438099Y-43405196D01*
X94436196Y-43394401D01*
X94382072Y-43192405D01*
X94378326Y-43182113D01*
X94289946Y-42992583D01*
X94284466Y-42983093D01*
X94255589Y-42941851D01*
X94245113Y-42933477D01*
X94231666Y-42940545D01*
X93566021Y-43606189D01*
X93558408Y-43620132D01*
X92828356Y-43620132D01*
X92829592Y-43617868D01*
X92829461Y-43616034D01*
X92825210Y-43609420D01*
X92155609Y-42939820D01*
X92143839Y-42933393D01*
X92131824Y-42942689D01*
X92103534Y-42983093D01*
X92098054Y-42992583D01*
X92009674Y-43182113D01*
X92005928Y-43192405D01*
X91951804Y-43394401D01*
X91949901Y-43405196D01*
X91931674Y-43613525D01*
X91931674Y-43624475D01*
X91456828Y-43624475D01*
X91457307Y-43619000D01*
X91438115Y-43399629D01*
X91381120Y-43186924D01*
X91319983Y-43055814D01*
X91290382Y-42992334D01*
X91290379Y-42992329D01*
X91288056Y-42987347D01*
X91256786Y-42942689D01*
X91164908Y-42811473D01*
X91164906Y-42811470D01*
X91161749Y-42806962D01*
X91006038Y-42651251D01*
X90997323Y-42645148D01*
X90888342Y-42568839D01*
X90886982Y-42567887D01*
X92508477Y-42567887D01*
X92515545Y-42581334D01*
X93181189Y-43246979D01*
X93195132Y-43254592D01*
X93196966Y-43254461D01*
X93203580Y-43250210D01*
X93781864Y-42671925D01*
X95180645Y-42671925D01*
X95184538Y-42714697D01*
X95191670Y-42793065D01*
X95198570Y-42868888D01*
X95200308Y-42874794D01*
X95200309Y-42874798D01*
X95217579Y-42933477D01*
X95254410Y-43058619D01*
X95257263Y-43064077D01*
X95257265Y-43064081D01*
X95297382Y-43140817D01*
X95346040Y-43233890D01*
X95469968Y-43388025D01*
X95474692Y-43391989D01*
X95477469Y-43394319D01*
X95621474Y-43515154D01*
X95626872Y-43518121D01*
X95626877Y-43518125D01*
X95768877Y-43596189D01*
X95794787Y-43610433D01*
X95800654Y-43612294D01*
X95800656Y-43612295D01*
X95962645Y-43663681D01*
X95983306Y-43670235D01*
X96137227Y-43687500D01*
X96243769Y-43687500D01*
X96246825Y-43687200D01*
X96246832Y-43687200D01*
X96305340Y-43681463D01*
X96390833Y-43673080D01*
X96396734Y-43671298D01*
X96396736Y-43671298D01*
X96527522Y-43631811D01*
X96580169Y-43615916D01*
X96754796Y-43523066D01*
X96899319Y-43405196D01*
X96903287Y-43401960D01*
X96903290Y-43401957D01*
X96908062Y-43398065D01*
X96913089Y-43391989D01*
X97030201Y-43250425D01*
X97030203Y-43250421D01*
X97034130Y-43245675D01*
X97128198Y-43071701D01*
X97186682Y-42882768D01*
X97194175Y-42811473D01*
X97206711Y-42692204D01*
X97206711Y-42692202D01*
X97207355Y-42686075D01*
X97206067Y-42671925D01*
X98880645Y-42671925D01*
X98884538Y-42714697D01*
X98891670Y-42793065D01*
X98898570Y-42868888D01*
X98900308Y-42874794D01*
X98900309Y-42874798D01*
X98917579Y-42933477D01*
X98954410Y-43058619D01*
X98957263Y-43064077D01*
X98957265Y-43064081D01*
X98997382Y-43140817D01*
X99046040Y-43233890D01*
X99169968Y-43388025D01*
X99174692Y-43391989D01*
X99177469Y-43394319D01*
X99321474Y-43515154D01*
X99326872Y-43518121D01*
X99326877Y-43518125D01*
X99468877Y-43596189D01*
X99494787Y-43610433D01*
X99500654Y-43612294D01*
X99500656Y-43612295D01*
X99662645Y-43663681D01*
X99683306Y-43670235D01*
X99837227Y-43687500D01*
X99943769Y-43687500D01*
X99946825Y-43687200D01*
X99946832Y-43687200D01*
X100005340Y-43681463D01*
X100090833Y-43673080D01*
X100096734Y-43671298D01*
X100096736Y-43671298D01*
X100227522Y-43631811D01*
X100269954Y-43619000D01*
X101630693Y-43619000D01*
X101649885Y-43838371D01*
X101706880Y-44051076D01*
X101736499Y-44114595D01*
X101797618Y-44245666D01*
X101797621Y-44245671D01*
X101799944Y-44250653D01*
X101803100Y-44255160D01*
X101803101Y-44255162D01*
X101921978Y-44424935D01*
X101926251Y-44431038D01*
X102081962Y-44586749D01*
X102262346Y-44713056D01*
X102461924Y-44806120D01*
X102674629Y-44863115D01*
X102894000Y-44882307D01*
X103113371Y-44863115D01*
X103326076Y-44806120D01*
X103525654Y-44713056D01*
X103588342Y-44669161D01*
X105208393Y-44669161D01*
X105217687Y-44681175D01*
X105258088Y-44709464D01*
X105267584Y-44714947D01*
X105457113Y-44803326D01*
X105467405Y-44807072D01*
X105669401Y-44861196D01*
X105680196Y-44863099D01*
X105888525Y-44881326D01*
X105899475Y-44881326D01*
X106107804Y-44863099D01*
X106118599Y-44861196D01*
X106320595Y-44807072D01*
X106330887Y-44803326D01*
X106520416Y-44714947D01*
X106529912Y-44709464D01*
X106571148Y-44680590D01*
X106579523Y-44670112D01*
X106572457Y-44656668D01*
X105906811Y-43991021D01*
X105892868Y-43983408D01*
X105891034Y-43983539D01*
X105884420Y-43987790D01*
X105214820Y-44657391D01*
X105208393Y-44669161D01*
X103588342Y-44669161D01*
X103706038Y-44586749D01*
X103861749Y-44431038D01*
X103866023Y-44424935D01*
X103984899Y-44255162D01*
X103984900Y-44255160D01*
X103988056Y-44250653D01*
X103990379Y-44245671D01*
X103990382Y-44245666D01*
X104051501Y-44114595D01*
X104081120Y-44051076D01*
X104138115Y-43838371D01*
X104156828Y-43624475D01*
X104631674Y-43624475D01*
X104649901Y-43832804D01*
X104651804Y-43843599D01*
X104705928Y-44045595D01*
X104709674Y-44055887D01*
X104798054Y-44245417D01*
X104803534Y-44254907D01*
X104832411Y-44296149D01*
X104842887Y-44304523D01*
X104856334Y-44297455D01*
X105521979Y-43631811D01*
X105528356Y-43620132D01*
X106258408Y-43620132D01*
X106258539Y-43621966D01*
X106262790Y-43628580D01*
X106932391Y-44298180D01*
X106944161Y-44304607D01*
X106956176Y-44295311D01*
X106984466Y-44254907D01*
X106989946Y-44245417D01*
X107078326Y-44055887D01*
X107082072Y-44045595D01*
X107136196Y-43843599D01*
X107138099Y-43832804D01*
X107156326Y-43624475D01*
X107156326Y-43613525D01*
X107138099Y-43405196D01*
X107136196Y-43394401D01*
X107082072Y-43192405D01*
X107078326Y-43182113D01*
X106989946Y-42992583D01*
X106984466Y-42983093D01*
X106955589Y-42941851D01*
X106945113Y-42933477D01*
X106931666Y-42940545D01*
X106266021Y-43606189D01*
X106258408Y-43620132D01*
X105528356Y-43620132D01*
X105529592Y-43617868D01*
X105529461Y-43616034D01*
X105525210Y-43609420D01*
X104855609Y-42939820D01*
X104843839Y-42933393D01*
X104831824Y-42942689D01*
X104803534Y-42983093D01*
X104798054Y-42992583D01*
X104709674Y-43182113D01*
X104705928Y-43192405D01*
X104651804Y-43394401D01*
X104649901Y-43405196D01*
X104631674Y-43613525D01*
X104631674Y-43624475D01*
X104156828Y-43624475D01*
X104157307Y-43619000D01*
X104138115Y-43399629D01*
X104081120Y-43186924D01*
X104019983Y-43055814D01*
X103990382Y-42992334D01*
X103990379Y-42992329D01*
X103988056Y-42987347D01*
X103956786Y-42942689D01*
X103864908Y-42811473D01*
X103864906Y-42811470D01*
X103861749Y-42806962D01*
X103706038Y-42651251D01*
X103697323Y-42645148D01*
X103588342Y-42568839D01*
X103586982Y-42567887D01*
X105208477Y-42567887D01*
X105215545Y-42581334D01*
X105881189Y-43246979D01*
X105895132Y-43254592D01*
X105896966Y-43254461D01*
X105903580Y-43250210D01*
X106481864Y-42671925D01*
X107880645Y-42671925D01*
X107884538Y-42714697D01*
X107891670Y-42793065D01*
X107898570Y-42868888D01*
X107900308Y-42874794D01*
X107900309Y-42874798D01*
X107917579Y-42933477D01*
X107954410Y-43058619D01*
X107957263Y-43064077D01*
X107957265Y-43064081D01*
X107997382Y-43140817D01*
X108046040Y-43233890D01*
X108169968Y-43388025D01*
X108174692Y-43391989D01*
X108177469Y-43394319D01*
X108321474Y-43515154D01*
X108326872Y-43518121D01*
X108326877Y-43518125D01*
X108468877Y-43596189D01*
X108494787Y-43610433D01*
X108500654Y-43612294D01*
X108500656Y-43612295D01*
X108662645Y-43663681D01*
X108683306Y-43670235D01*
X108837227Y-43687500D01*
X108943769Y-43687500D01*
X108946825Y-43687200D01*
X108946832Y-43687200D01*
X109005340Y-43681463D01*
X109090833Y-43673080D01*
X109096734Y-43671298D01*
X109096736Y-43671298D01*
X109227522Y-43631811D01*
X109280169Y-43615916D01*
X109454796Y-43523066D01*
X109599319Y-43405196D01*
X109603287Y-43401960D01*
X109603290Y-43401957D01*
X109608062Y-43398065D01*
X109613089Y-43391989D01*
X109730201Y-43250425D01*
X109730203Y-43250421D01*
X109734130Y-43245675D01*
X109828198Y-43071701D01*
X109886682Y-42882768D01*
X109894175Y-42811473D01*
X109906711Y-42692204D01*
X109906711Y-42692202D01*
X109907355Y-42686075D01*
X109905157Y-42661925D01*
X111477645Y-42661925D01*
X111495570Y-42858888D01*
X111497308Y-42864794D01*
X111497309Y-42864798D01*
X111528249Y-42969924D01*
X111551410Y-43048619D01*
X111554263Y-43054077D01*
X111554265Y-43054081D01*
X111597928Y-43137600D01*
X111643040Y-43223890D01*
X111766968Y-43378025D01*
X111771692Y-43381989D01*
X111778933Y-43388065D01*
X111918474Y-43505154D01*
X111923872Y-43508121D01*
X111923877Y-43508125D01*
X112067180Y-43586905D01*
X112091787Y-43600433D01*
X112097654Y-43602294D01*
X112097656Y-43602295D01*
X112274436Y-43658373D01*
X112280306Y-43660235D01*
X112434227Y-43677500D01*
X112540769Y-43677500D01*
X112543825Y-43677200D01*
X112543832Y-43677200D01*
X112604021Y-43671298D01*
X112687833Y-43663080D01*
X112693734Y-43661298D01*
X112693736Y-43661298D01*
X112802102Y-43628580D01*
X112866954Y-43609000D01*
X114227693Y-43609000D01*
X114246885Y-43828371D01*
X114303880Y-44041076D01*
X114338162Y-44114595D01*
X114394618Y-44235666D01*
X114394621Y-44235671D01*
X114396944Y-44240653D01*
X114400100Y-44245160D01*
X114400101Y-44245162D01*
X114489981Y-44373523D01*
X114523251Y-44421038D01*
X114678962Y-44576749D01*
X114683471Y-44579906D01*
X114683473Y-44579908D01*
X114758241Y-44632261D01*
X114859346Y-44703056D01*
X115058924Y-44796120D01*
X115271629Y-44853115D01*
X115491000Y-44872307D01*
X115710371Y-44853115D01*
X115923076Y-44796120D01*
X116122654Y-44703056D01*
X116185342Y-44659161D01*
X117805393Y-44659161D01*
X117814687Y-44671175D01*
X117855088Y-44699464D01*
X117864584Y-44704947D01*
X118054113Y-44793326D01*
X118064405Y-44797072D01*
X118266401Y-44851196D01*
X118277196Y-44853099D01*
X118485525Y-44871326D01*
X118496475Y-44871326D01*
X118704804Y-44853099D01*
X118715599Y-44851196D01*
X118917595Y-44797072D01*
X118927887Y-44793326D01*
X119117416Y-44704947D01*
X119126912Y-44699464D01*
X119168148Y-44670590D01*
X119176523Y-44660112D01*
X119169457Y-44646668D01*
X118503811Y-43981021D01*
X118489868Y-43973408D01*
X118488034Y-43973539D01*
X118481420Y-43977790D01*
X117811820Y-44647391D01*
X117805393Y-44659161D01*
X116185342Y-44659161D01*
X116223759Y-44632261D01*
X116298527Y-44579908D01*
X116298529Y-44579906D01*
X116303038Y-44576749D01*
X116458749Y-44421038D01*
X116492020Y-44373523D01*
X116581899Y-44245162D01*
X116581900Y-44245160D01*
X116585056Y-44240653D01*
X116587379Y-44235671D01*
X116587382Y-44235666D01*
X116643838Y-44114595D01*
X116678120Y-44041076D01*
X116735115Y-43828371D01*
X116753828Y-43614475D01*
X117228674Y-43614475D01*
X117246901Y-43822804D01*
X117248804Y-43833599D01*
X117302928Y-44035595D01*
X117306674Y-44045887D01*
X117395054Y-44235417D01*
X117400534Y-44244907D01*
X117429411Y-44286149D01*
X117439887Y-44294523D01*
X117453334Y-44287455D01*
X118118979Y-43621811D01*
X118125356Y-43610132D01*
X118855408Y-43610132D01*
X118855539Y-43611966D01*
X118859790Y-43618580D01*
X119529391Y-44288180D01*
X119541161Y-44294607D01*
X119553176Y-44285311D01*
X119581466Y-44244907D01*
X119586946Y-44235417D01*
X119675326Y-44045887D01*
X119679072Y-44035595D01*
X119733196Y-43833599D01*
X119735099Y-43822804D01*
X119753326Y-43614475D01*
X119753326Y-43603525D01*
X119735099Y-43395196D01*
X119733196Y-43384401D01*
X119679072Y-43182405D01*
X119675326Y-43172113D01*
X119586946Y-42982583D01*
X119581466Y-42973093D01*
X119552589Y-42931851D01*
X119542113Y-42923477D01*
X119528666Y-42930545D01*
X118863021Y-43596189D01*
X118855408Y-43610132D01*
X118125356Y-43610132D01*
X118126592Y-43607868D01*
X118126461Y-43606034D01*
X118122210Y-43599420D01*
X117452609Y-42929820D01*
X117440839Y-42923393D01*
X117428824Y-42932689D01*
X117400534Y-42973093D01*
X117395054Y-42982583D01*
X117306674Y-43172113D01*
X117302928Y-43182405D01*
X117248804Y-43384401D01*
X117246901Y-43395196D01*
X117228674Y-43603525D01*
X117228674Y-43614475D01*
X116753828Y-43614475D01*
X116754307Y-43609000D01*
X116735115Y-43389629D01*
X116678120Y-43176924D01*
X116620838Y-43054081D01*
X116587382Y-42982334D01*
X116587379Y-42982329D01*
X116585056Y-42977347D01*
X116560788Y-42942689D01*
X116461908Y-42801473D01*
X116461906Y-42801470D01*
X116458749Y-42796962D01*
X116303038Y-42641251D01*
X116298166Y-42637839D01*
X116202151Y-42570609D01*
X116183982Y-42557887D01*
X117805477Y-42557887D01*
X117812545Y-42571334D01*
X118478189Y-43236979D01*
X118492132Y-43244592D01*
X118493966Y-43244461D01*
X118500580Y-43240210D01*
X119078864Y-42661925D01*
X120477645Y-42661925D01*
X120495570Y-42858888D01*
X120497308Y-42864794D01*
X120497309Y-42864798D01*
X120528249Y-42969924D01*
X120551410Y-43048619D01*
X120554263Y-43054077D01*
X120554265Y-43054081D01*
X120597928Y-43137600D01*
X120643040Y-43223890D01*
X120766968Y-43378025D01*
X120771692Y-43381989D01*
X120778933Y-43388065D01*
X120918474Y-43505154D01*
X120923872Y-43508121D01*
X120923877Y-43508125D01*
X121067180Y-43586905D01*
X121091787Y-43600433D01*
X121097654Y-43602294D01*
X121097656Y-43602295D01*
X121274436Y-43658373D01*
X121280306Y-43660235D01*
X121434227Y-43677500D01*
X121540769Y-43677500D01*
X121543825Y-43677200D01*
X121543832Y-43677200D01*
X121604021Y-43671298D01*
X121687833Y-43663080D01*
X121693734Y-43661298D01*
X121693736Y-43661298D01*
X121802102Y-43628580D01*
X121877169Y-43605916D01*
X122051796Y-43513066D01*
X122138062Y-43442709D01*
X122200287Y-43391960D01*
X122200290Y-43391957D01*
X122205062Y-43388065D01*
X122264697Y-43315979D01*
X122327201Y-43240425D01*
X122327203Y-43240421D01*
X122331130Y-43235675D01*
X122425198Y-43061701D01*
X122483682Y-42872768D01*
X122490124Y-42811473D01*
X122503711Y-42682204D01*
X122503711Y-42682202D01*
X122504355Y-42676075D01*
X122493556Y-42557411D01*
X122486989Y-42485251D01*
X122486988Y-42485248D01*
X122486430Y-42479112D01*
X122475701Y-42442655D01*
X122432330Y-42295294D01*
X122430590Y-42289381D01*
X122426147Y-42280881D01*
X122341813Y-42119568D01*
X122338960Y-42114110D01*
X122215032Y-41959975D01*
X122208727Y-41954684D01*
X122080171Y-41846813D01*
X122063526Y-41832846D01*
X122058128Y-41829879D01*
X122058123Y-41829875D01*
X121895608Y-41740533D01*
X121895609Y-41740533D01*
X121890213Y-41737567D01*
X121884346Y-41735706D01*
X121884344Y-41735705D01*
X121707564Y-41679627D01*
X121707563Y-41679627D01*
X121701694Y-41677765D01*
X121547773Y-41660500D01*
X121441231Y-41660500D01*
X121438175Y-41660800D01*
X121438168Y-41660800D01*
X121379660Y-41666537D01*
X121294167Y-41674920D01*
X121288266Y-41676702D01*
X121288264Y-41676702D01*
X121251622Y-41687765D01*
X121104831Y-41732084D01*
X120930204Y-41824934D01*
X120903378Y-41846813D01*
X120781713Y-41946040D01*
X120781710Y-41946043D01*
X120776938Y-41949935D01*
X120773011Y-41954682D01*
X120773009Y-41954684D01*
X120654799Y-42097575D01*
X120654797Y-42097579D01*
X120650870Y-42102325D01*
X120556802Y-42276299D01*
X120498318Y-42465232D01*
X120497674Y-42471357D01*
X120497674Y-42471358D01*
X120480177Y-42637839D01*
X120477645Y-42661925D01*
X119078864Y-42661925D01*
X119170180Y-42570609D01*
X119176607Y-42558839D01*
X119167313Y-42546825D01*
X119126912Y-42518536D01*
X119117416Y-42513053D01*
X118927887Y-42424674D01*
X118917595Y-42420928D01*
X118715599Y-42366804D01*
X118704804Y-42364901D01*
X118496475Y-42346674D01*
X118485525Y-42346674D01*
X118277196Y-42364901D01*
X118266401Y-42366804D01*
X118064405Y-42420928D01*
X118054113Y-42424674D01*
X117864583Y-42513054D01*
X117855093Y-42518534D01*
X117813851Y-42547411D01*
X117805477Y-42557887D01*
X116183982Y-42557887D01*
X116122654Y-42514944D01*
X115923076Y-42421880D01*
X115710371Y-42364885D01*
X115491000Y-42345693D01*
X115271629Y-42364885D01*
X115058924Y-42421880D01*
X115014372Y-42442655D01*
X114864334Y-42512618D01*
X114864329Y-42512621D01*
X114859347Y-42514944D01*
X114854840Y-42518100D01*
X114854838Y-42518101D01*
X114683473Y-42638092D01*
X114683470Y-42638094D01*
X114678962Y-42641251D01*
X114523251Y-42796962D01*
X114520094Y-42801470D01*
X114520092Y-42801473D01*
X114421212Y-42942689D01*
X114396944Y-42977347D01*
X114394621Y-42982329D01*
X114394618Y-42982334D01*
X114361162Y-43054081D01*
X114303880Y-43176924D01*
X114246885Y-43389629D01*
X114227693Y-43609000D01*
X112866954Y-43609000D01*
X112877169Y-43605916D01*
X113051796Y-43513066D01*
X113138062Y-43442709D01*
X113200287Y-43391960D01*
X113200290Y-43391957D01*
X113205062Y-43388065D01*
X113264697Y-43315979D01*
X113327201Y-43240425D01*
X113327203Y-43240421D01*
X113331130Y-43235675D01*
X113425198Y-43061701D01*
X113483682Y-42872768D01*
X113490124Y-42811473D01*
X113503711Y-42682204D01*
X113503711Y-42682202D01*
X113504355Y-42676075D01*
X113493556Y-42557411D01*
X113486989Y-42485251D01*
X113486988Y-42485248D01*
X113486430Y-42479112D01*
X113475701Y-42442655D01*
X113432330Y-42295294D01*
X113430590Y-42289381D01*
X113426147Y-42280881D01*
X113341813Y-42119568D01*
X113338960Y-42114110D01*
X113215032Y-41959975D01*
X113208727Y-41954684D01*
X113080171Y-41846813D01*
X113063526Y-41832846D01*
X113058128Y-41829879D01*
X113058123Y-41829875D01*
X112895608Y-41740533D01*
X112895609Y-41740533D01*
X112890213Y-41737567D01*
X112884346Y-41735706D01*
X112884344Y-41735705D01*
X112707564Y-41679627D01*
X112707563Y-41679627D01*
X112701694Y-41677765D01*
X112547773Y-41660500D01*
X112441231Y-41660500D01*
X112438175Y-41660800D01*
X112438168Y-41660800D01*
X112379660Y-41666537D01*
X112294167Y-41674920D01*
X112288266Y-41676702D01*
X112288264Y-41676702D01*
X112251622Y-41687765D01*
X112104831Y-41732084D01*
X111930204Y-41824934D01*
X111903378Y-41846813D01*
X111781713Y-41946040D01*
X111781710Y-41946043D01*
X111776938Y-41949935D01*
X111773011Y-41954682D01*
X111773009Y-41954684D01*
X111654799Y-42097575D01*
X111654797Y-42097579D01*
X111650870Y-42102325D01*
X111556802Y-42276299D01*
X111498318Y-42465232D01*
X111497674Y-42471357D01*
X111497674Y-42471358D01*
X111480177Y-42637839D01*
X111477645Y-42661925D01*
X109905157Y-42661925D01*
X109892519Y-42523053D01*
X109889989Y-42495251D01*
X109889988Y-42495248D01*
X109889430Y-42489112D01*
X109875116Y-42440474D01*
X109835330Y-42305294D01*
X109833590Y-42299381D01*
X109828363Y-42289381D01*
X109744813Y-42129568D01*
X109741960Y-42124110D01*
X109618032Y-41969975D01*
X109611727Y-41964684D01*
X109589507Y-41946040D01*
X109466526Y-41842846D01*
X109461128Y-41839879D01*
X109461123Y-41839875D01*
X109298608Y-41750533D01*
X109298609Y-41750533D01*
X109293213Y-41747567D01*
X109287346Y-41745706D01*
X109287344Y-41745705D01*
X109110564Y-41689627D01*
X109110563Y-41689627D01*
X109104694Y-41687765D01*
X108950773Y-41670500D01*
X108844231Y-41670500D01*
X108841175Y-41670800D01*
X108841168Y-41670800D01*
X108782660Y-41676537D01*
X108697167Y-41684920D01*
X108691266Y-41686702D01*
X108691264Y-41686702D01*
X108658812Y-41696500D01*
X108507831Y-41742084D01*
X108333204Y-41834934D01*
X108246938Y-41905291D01*
X108184713Y-41956040D01*
X108184710Y-41956043D01*
X108179938Y-41959935D01*
X108176011Y-41964682D01*
X108176009Y-41964684D01*
X108057799Y-42107575D01*
X108057797Y-42107579D01*
X108053870Y-42112325D01*
X107959802Y-42286299D01*
X107901318Y-42475232D01*
X107900674Y-42481357D01*
X107900674Y-42481358D01*
X107884228Y-42637839D01*
X107880645Y-42671925D01*
X106481864Y-42671925D01*
X106573180Y-42580609D01*
X106579607Y-42568839D01*
X106570313Y-42556825D01*
X106529912Y-42528536D01*
X106520416Y-42523053D01*
X106330887Y-42434674D01*
X106320595Y-42430928D01*
X106118599Y-42376804D01*
X106107804Y-42374901D01*
X105899475Y-42356674D01*
X105888525Y-42356674D01*
X105680196Y-42374901D01*
X105669401Y-42376804D01*
X105467405Y-42430928D01*
X105457113Y-42434674D01*
X105267583Y-42523054D01*
X105258093Y-42528534D01*
X105216851Y-42557411D01*
X105208477Y-42567887D01*
X103586982Y-42567887D01*
X103525654Y-42524944D01*
X103326076Y-42431880D01*
X103113371Y-42374885D01*
X102894000Y-42355693D01*
X102674629Y-42374885D01*
X102461924Y-42431880D01*
X102403021Y-42459347D01*
X102267334Y-42522618D01*
X102267329Y-42522621D01*
X102262347Y-42524944D01*
X102257840Y-42528100D01*
X102257838Y-42528101D01*
X102086473Y-42648092D01*
X102086470Y-42648094D01*
X102081962Y-42651251D01*
X101926251Y-42806962D01*
X101923094Y-42811470D01*
X101923092Y-42811473D01*
X101831214Y-42942689D01*
X101799944Y-42987347D01*
X101797621Y-42992329D01*
X101797618Y-42992334D01*
X101768017Y-43055814D01*
X101706880Y-43186924D01*
X101649885Y-43399629D01*
X101630693Y-43619000D01*
X100269954Y-43619000D01*
X100280169Y-43615916D01*
X100454796Y-43523066D01*
X100599319Y-43405196D01*
X100603287Y-43401960D01*
X100603290Y-43401957D01*
X100608062Y-43398065D01*
X100613089Y-43391989D01*
X100730201Y-43250425D01*
X100730203Y-43250421D01*
X100734130Y-43245675D01*
X100828198Y-43071701D01*
X100886682Y-42882768D01*
X100894175Y-42811473D01*
X100906711Y-42692204D01*
X100906711Y-42692202D01*
X100907355Y-42686075D01*
X100892519Y-42523053D01*
X100889989Y-42495251D01*
X100889988Y-42495248D01*
X100889430Y-42489112D01*
X100875116Y-42440474D01*
X100835330Y-42305294D01*
X100833590Y-42299381D01*
X100828363Y-42289381D01*
X100744813Y-42129568D01*
X100741960Y-42124110D01*
X100618032Y-41969975D01*
X100611727Y-41964684D01*
X100589507Y-41946040D01*
X100466526Y-41842846D01*
X100461128Y-41839879D01*
X100461123Y-41839875D01*
X100298608Y-41750533D01*
X100298609Y-41750533D01*
X100293213Y-41747567D01*
X100287346Y-41745706D01*
X100287344Y-41745705D01*
X100110564Y-41689627D01*
X100110563Y-41689627D01*
X100104694Y-41687765D01*
X99950773Y-41670500D01*
X99844231Y-41670500D01*
X99841175Y-41670800D01*
X99841168Y-41670800D01*
X99782660Y-41676537D01*
X99697167Y-41684920D01*
X99691266Y-41686702D01*
X99691264Y-41686702D01*
X99658812Y-41696500D01*
X99507831Y-41742084D01*
X99333204Y-41834934D01*
X99246938Y-41905291D01*
X99184713Y-41956040D01*
X99184710Y-41956043D01*
X99179938Y-41959935D01*
X99176011Y-41964682D01*
X99176009Y-41964684D01*
X99057799Y-42107575D01*
X99057797Y-42107579D01*
X99053870Y-42112325D01*
X98959802Y-42286299D01*
X98901318Y-42475232D01*
X98900674Y-42481357D01*
X98900674Y-42481358D01*
X98884228Y-42637839D01*
X98880645Y-42671925D01*
X97206067Y-42671925D01*
X97192519Y-42523053D01*
X97189989Y-42495251D01*
X97189988Y-42495248D01*
X97189430Y-42489112D01*
X97175116Y-42440474D01*
X97135330Y-42305294D01*
X97133590Y-42299381D01*
X97128363Y-42289381D01*
X97044813Y-42129568D01*
X97041960Y-42124110D01*
X96918032Y-41969975D01*
X96911727Y-41964684D01*
X96889507Y-41946040D01*
X96766526Y-41842846D01*
X96761128Y-41839879D01*
X96761123Y-41839875D01*
X96598608Y-41750533D01*
X96598609Y-41750533D01*
X96593213Y-41747567D01*
X96587346Y-41745706D01*
X96587344Y-41745705D01*
X96410564Y-41689627D01*
X96410563Y-41689627D01*
X96404694Y-41687765D01*
X96250773Y-41670500D01*
X96144231Y-41670500D01*
X96141175Y-41670800D01*
X96141168Y-41670800D01*
X96082660Y-41676537D01*
X95997167Y-41684920D01*
X95991266Y-41686702D01*
X95991264Y-41686702D01*
X95958812Y-41696500D01*
X95807831Y-41742084D01*
X95633204Y-41834934D01*
X95546938Y-41905291D01*
X95484713Y-41956040D01*
X95484710Y-41956043D01*
X95479938Y-41959935D01*
X95476011Y-41964682D01*
X95476009Y-41964684D01*
X95357799Y-42107575D01*
X95357797Y-42107579D01*
X95353870Y-42112325D01*
X95259802Y-42286299D01*
X95201318Y-42475232D01*
X95200674Y-42481357D01*
X95200674Y-42481358D01*
X95184228Y-42637839D01*
X95180645Y-42671925D01*
X93781864Y-42671925D01*
X93873180Y-42580609D01*
X93879607Y-42568839D01*
X93870313Y-42556825D01*
X93829912Y-42528536D01*
X93820416Y-42523053D01*
X93630887Y-42434674D01*
X93620595Y-42430928D01*
X93418599Y-42376804D01*
X93407804Y-42374901D01*
X93199475Y-42356674D01*
X93188525Y-42356674D01*
X92980196Y-42374901D01*
X92969401Y-42376804D01*
X92767405Y-42430928D01*
X92757113Y-42434674D01*
X92567583Y-42523054D01*
X92558093Y-42528534D01*
X92516851Y-42557411D01*
X92508477Y-42567887D01*
X90886982Y-42567887D01*
X90825654Y-42524944D01*
X90626076Y-42431880D01*
X90413371Y-42374885D01*
X90194000Y-42355693D01*
X89974629Y-42374885D01*
X89761924Y-42431880D01*
X89703021Y-42459347D01*
X89567334Y-42522618D01*
X89567329Y-42522621D01*
X89562347Y-42524944D01*
X89557840Y-42528100D01*
X89557838Y-42528101D01*
X89386473Y-42648092D01*
X89386470Y-42648094D01*
X89381962Y-42651251D01*
X89226251Y-42806962D01*
X89223094Y-42811470D01*
X89223092Y-42811473D01*
X89131214Y-42942689D01*
X89099944Y-42987347D01*
X89097621Y-42992329D01*
X89097618Y-42992334D01*
X89068017Y-43055814D01*
X89006880Y-43186924D01*
X88949885Y-43399629D01*
X88930693Y-43619000D01*
X87569954Y-43619000D01*
X87580169Y-43615916D01*
X87754796Y-43523066D01*
X87899319Y-43405196D01*
X87903287Y-43401960D01*
X87903290Y-43401957D01*
X87908062Y-43398065D01*
X87913089Y-43391989D01*
X88030201Y-43250425D01*
X88030203Y-43250421D01*
X88034130Y-43245675D01*
X88128198Y-43071701D01*
X88186682Y-42882768D01*
X88194175Y-42811473D01*
X88206711Y-42692204D01*
X88206711Y-42692202D01*
X88207355Y-42686075D01*
X88192519Y-42523053D01*
X88189989Y-42495251D01*
X88189988Y-42495248D01*
X88189430Y-42489112D01*
X88175116Y-42440474D01*
X88135330Y-42305294D01*
X88133590Y-42299381D01*
X88128363Y-42289381D01*
X88044813Y-42129568D01*
X88041960Y-42124110D01*
X87918032Y-41969975D01*
X87911727Y-41964684D01*
X87889507Y-41946040D01*
X87766526Y-41842846D01*
X87761128Y-41839879D01*
X87761123Y-41839875D01*
X87598608Y-41750533D01*
X87598609Y-41750533D01*
X87593213Y-41747567D01*
X87587346Y-41745706D01*
X87587344Y-41745705D01*
X87410564Y-41689627D01*
X87410563Y-41689627D01*
X87404694Y-41687765D01*
X87250773Y-41670500D01*
X87144231Y-41670500D01*
X87141175Y-41670800D01*
X87141168Y-41670800D01*
X87082660Y-41676537D01*
X86997167Y-41684920D01*
X86991266Y-41686702D01*
X86991264Y-41686702D01*
X86958812Y-41696500D01*
X86807831Y-41742084D01*
X86633204Y-41834934D01*
X86546938Y-41905291D01*
X86484713Y-41956040D01*
X86484710Y-41956043D01*
X86479938Y-41959935D01*
X86476011Y-41964682D01*
X86476009Y-41964684D01*
X86357799Y-42107575D01*
X86357797Y-42107579D01*
X86353870Y-42112325D01*
X86259802Y-42286299D01*
X86201318Y-42475232D01*
X86200674Y-42481357D01*
X86200674Y-42481358D01*
X86184228Y-42637839D01*
X86180645Y-42671925D01*
X84506067Y-42671925D01*
X84492519Y-42523053D01*
X84489989Y-42495251D01*
X84489988Y-42495248D01*
X84489430Y-42489112D01*
X84475116Y-42440474D01*
X84435330Y-42305294D01*
X84433590Y-42299381D01*
X84428363Y-42289381D01*
X84344813Y-42129568D01*
X84341960Y-42124110D01*
X84218032Y-41969975D01*
X84211727Y-41964684D01*
X84189507Y-41946040D01*
X84066526Y-41842846D01*
X84061128Y-41839879D01*
X84061123Y-41839875D01*
X83898608Y-41750533D01*
X83898609Y-41750533D01*
X83893213Y-41747567D01*
X83887346Y-41745706D01*
X83887344Y-41745705D01*
X83710564Y-41689627D01*
X83710563Y-41689627D01*
X83704694Y-41687765D01*
X83550773Y-41670500D01*
X83444231Y-41670500D01*
X83441175Y-41670800D01*
X83441168Y-41670800D01*
X83382660Y-41676537D01*
X83297167Y-41684920D01*
X83291266Y-41686702D01*
X83291264Y-41686702D01*
X83258812Y-41696500D01*
X83107831Y-41742084D01*
X82933204Y-41834934D01*
X82846938Y-41905291D01*
X82784713Y-41956040D01*
X82784710Y-41956043D01*
X82779938Y-41959935D01*
X82776011Y-41964682D01*
X82776009Y-41964684D01*
X82657799Y-42107575D01*
X82657797Y-42107579D01*
X82653870Y-42112325D01*
X82559802Y-42286299D01*
X82501318Y-42475232D01*
X82500674Y-42481357D01*
X82500674Y-42481358D01*
X82484228Y-42637839D01*
X82480645Y-42671925D01*
X81081864Y-42671925D01*
X81173180Y-42580609D01*
X81179607Y-42568839D01*
X81170313Y-42556825D01*
X81129912Y-42528536D01*
X81120416Y-42523053D01*
X80930887Y-42434674D01*
X80920595Y-42430928D01*
X80718599Y-42376804D01*
X80707804Y-42374901D01*
X80499475Y-42356674D01*
X80488525Y-42356674D01*
X80280196Y-42374901D01*
X80269401Y-42376804D01*
X80067405Y-42430928D01*
X80057113Y-42434674D01*
X79867583Y-42523054D01*
X79858093Y-42528534D01*
X79816851Y-42557411D01*
X79808477Y-42567887D01*
X78186982Y-42567887D01*
X78125654Y-42524944D01*
X77926076Y-42431880D01*
X77713371Y-42374885D01*
X77494000Y-42355693D01*
X77274629Y-42374885D01*
X77061924Y-42431880D01*
X77003021Y-42459347D01*
X76867334Y-42522618D01*
X76867329Y-42522621D01*
X76862347Y-42524944D01*
X76857840Y-42528100D01*
X76857838Y-42528101D01*
X76686473Y-42648092D01*
X76686470Y-42648094D01*
X76681962Y-42651251D01*
X76526251Y-42806962D01*
X76523094Y-42811470D01*
X76523092Y-42811473D01*
X76431214Y-42942689D01*
X76399944Y-42987347D01*
X76397621Y-42992329D01*
X76397618Y-42992334D01*
X76368017Y-43055814D01*
X76306880Y-43186924D01*
X76249885Y-43399629D01*
X76230693Y-43619000D01*
X74869954Y-43619000D01*
X74880169Y-43615916D01*
X75054796Y-43523066D01*
X75199319Y-43405196D01*
X75203287Y-43401960D01*
X75203290Y-43401957D01*
X75208062Y-43398065D01*
X75213089Y-43391989D01*
X75330201Y-43250425D01*
X75330203Y-43250421D01*
X75334130Y-43245675D01*
X75428198Y-43071701D01*
X75486682Y-42882768D01*
X75494175Y-42811473D01*
X75506711Y-42692204D01*
X75506711Y-42692202D01*
X75507355Y-42686075D01*
X75492519Y-42523053D01*
X75489989Y-42495251D01*
X75489988Y-42495248D01*
X75489430Y-42489112D01*
X75475116Y-42440474D01*
X75435330Y-42305294D01*
X75433590Y-42299381D01*
X75428363Y-42289381D01*
X75344813Y-42129568D01*
X75341960Y-42124110D01*
X75218032Y-41969975D01*
X75211727Y-41964684D01*
X75189507Y-41946040D01*
X75066526Y-41842846D01*
X75061128Y-41839879D01*
X75061123Y-41839875D01*
X74898608Y-41750533D01*
X74898609Y-41750533D01*
X74893213Y-41747567D01*
X74887346Y-41745706D01*
X74887344Y-41745705D01*
X74710564Y-41689627D01*
X74710563Y-41689627D01*
X74704694Y-41687765D01*
X74550773Y-41670500D01*
X74444231Y-41670500D01*
X74441175Y-41670800D01*
X74441168Y-41670800D01*
X74382660Y-41676537D01*
X74297167Y-41684920D01*
X74291266Y-41686702D01*
X74291264Y-41686702D01*
X74258812Y-41696500D01*
X74107831Y-41742084D01*
X73933204Y-41834934D01*
X73846938Y-41905291D01*
X73784713Y-41956040D01*
X73784710Y-41956043D01*
X73779938Y-41959935D01*
X73776011Y-41964682D01*
X73776009Y-41964684D01*
X73657799Y-42107575D01*
X73657797Y-42107579D01*
X73653870Y-42112325D01*
X73559802Y-42286299D01*
X73501318Y-42475232D01*
X73500674Y-42481357D01*
X73500674Y-42481358D01*
X73484228Y-42637839D01*
X73480645Y-42671925D01*
X69890678Y-42671925D01*
X69807303Y-42588695D01*
X69801072Y-42584854D01*
X69662968Y-42499725D01*
X69662966Y-42499724D01*
X69656738Y-42495885D01*
X69505748Y-42445804D01*
X69495389Y-42442368D01*
X69495387Y-42442368D01*
X69488861Y-42440203D01*
X69482025Y-42439503D01*
X69482022Y-42439502D01*
X69434898Y-42434674D01*
X69384400Y-42429500D01*
X68283600Y-42429500D01*
X68280354Y-42429837D01*
X68280350Y-42429837D01*
X68184693Y-42439762D01*
X68184689Y-42439763D01*
X68177835Y-42440474D01*
X68171299Y-42442655D01*
X68171297Y-42442655D01*
X68073653Y-42475232D01*
X68010055Y-42496450D01*
X67859652Y-42589522D01*
X67734695Y-42714697D01*
X67641885Y-42865262D01*
X67636079Y-42882768D01*
X67593318Y-43011689D01*
X67586203Y-43033139D01*
X67585503Y-43039975D01*
X67585502Y-43039978D01*
X67583033Y-43064081D01*
X67575500Y-43137600D01*
X67575500Y-44238400D01*
X67575837Y-44241646D01*
X67575837Y-44241650D01*
X67582370Y-44304607D01*
X67586474Y-44344165D01*
X67588655Y-44350701D01*
X67588655Y-44350703D01*
X67610616Y-44416527D01*
X67642450Y-44511945D01*
X67735522Y-44662348D01*
X67740704Y-44667521D01*
X67776301Y-44703056D01*
X67860697Y-44787305D01*
X67866929Y-44791147D01*
X67866931Y-44791148D01*
X67869807Y-44792921D01*
X67871358Y-44794645D01*
X67872673Y-44795683D01*
X67872495Y-44795908D01*
X67917300Y-44845693D01*
X67928722Y-44915765D01*
X67900448Y-44980889D01*
X67841454Y-45020388D01*
X67800934Y-45023910D01*
X67800934Y-45025817D01*
X67792678Y-45025817D01*
X67784489Y-45024739D01*
X67752796Y-45028911D01*
X67736353Y-45029989D01*
X66501126Y-45029989D01*
X66433005Y-45009987D01*
X66386512Y-44956331D01*
X66376408Y-44886057D01*
X66405902Y-44821477D01*
X66447876Y-44789794D01*
X66460416Y-44783947D01*
X66469912Y-44778464D01*
X66511148Y-44749590D01*
X66519523Y-44739112D01*
X66512457Y-44725668D01*
X65846811Y-44060021D01*
X65832868Y-44052408D01*
X65831034Y-44052539D01*
X65824420Y-44056790D01*
X65154820Y-44726391D01*
X65148393Y-44738161D01*
X65157687Y-44750175D01*
X65198088Y-44778464D01*
X65207584Y-44783947D01*
X65220124Y-44789794D01*
X65273409Y-44836711D01*
X65292870Y-44904989D01*
X65272328Y-44972949D01*
X65218305Y-45019014D01*
X65166874Y-45029989D01*
X61182728Y-45029989D01*
X61114607Y-45009987D01*
X61093633Y-44993084D01*
X59810133Y-43709584D01*
X59801337Y-43693475D01*
X64571674Y-43693475D01*
X64589901Y-43901804D01*
X64591804Y-43912599D01*
X64645928Y-44114595D01*
X64649674Y-44124887D01*
X64738054Y-44314417D01*
X64743534Y-44323907D01*
X64772411Y-44365149D01*
X64782887Y-44373523D01*
X64796334Y-44366455D01*
X65461979Y-43700811D01*
X65468356Y-43689132D01*
X66198408Y-43689132D01*
X66198539Y-43690966D01*
X66202790Y-43697580D01*
X66872391Y-44367180D01*
X66884161Y-44373607D01*
X66896176Y-44364311D01*
X66924466Y-44323907D01*
X66929946Y-44314417D01*
X67018326Y-44124887D01*
X67022072Y-44114595D01*
X67076196Y-43912599D01*
X67078099Y-43901804D01*
X67096326Y-43693475D01*
X67096326Y-43682525D01*
X67078099Y-43474196D01*
X67076196Y-43463401D01*
X67022072Y-43261405D01*
X67018326Y-43251113D01*
X66929946Y-43061583D01*
X66924466Y-43052093D01*
X66895589Y-43010851D01*
X66885113Y-43002477D01*
X66871666Y-43009545D01*
X66206021Y-43675189D01*
X66198408Y-43689132D01*
X65468356Y-43689132D01*
X65469592Y-43686868D01*
X65469461Y-43685034D01*
X65465210Y-43678420D01*
X64795609Y-43008820D01*
X64783839Y-43002393D01*
X64771824Y-43011689D01*
X64743534Y-43052093D01*
X64738054Y-43061583D01*
X64649674Y-43251113D01*
X64645928Y-43261405D01*
X64591804Y-43463401D01*
X64589901Y-43474196D01*
X64571674Y-43682525D01*
X64571674Y-43693475D01*
X59801337Y-43693475D01*
X59776107Y-43647272D01*
X59773965Y-43606882D01*
X59778131Y-43568533D01*
X59778131Y-43568529D01*
X59778500Y-43565134D01*
X59778500Y-42636887D01*
X65148477Y-42636887D01*
X65155545Y-42650334D01*
X65821189Y-43315979D01*
X65835132Y-43323592D01*
X65836966Y-43323461D01*
X65843580Y-43319210D01*
X66513180Y-42649609D01*
X66519607Y-42637839D01*
X66510313Y-42625825D01*
X66469912Y-42597536D01*
X66460416Y-42592053D01*
X66270887Y-42503674D01*
X66260595Y-42499928D01*
X66058599Y-42445804D01*
X66047804Y-42443901D01*
X65839475Y-42425674D01*
X65828525Y-42425674D01*
X65620196Y-42443901D01*
X65609401Y-42445804D01*
X65407405Y-42499928D01*
X65397113Y-42503674D01*
X65207583Y-42592054D01*
X65198093Y-42597534D01*
X65156851Y-42626411D01*
X65148477Y-42636887D01*
X59778500Y-42636887D01*
X59778500Y-41768866D01*
X59771745Y-41706684D01*
X59720615Y-41570295D01*
X59633261Y-41453739D01*
X59516705Y-41366385D01*
X59380316Y-41315255D01*
X59318134Y-41308500D01*
X57521866Y-41308500D01*
X57459684Y-41315255D01*
X57323295Y-41366385D01*
X57206739Y-41453739D01*
X57201358Y-41460919D01*
X57122826Y-41565704D01*
X57065967Y-41608219D01*
X56995148Y-41613245D01*
X56932855Y-41579185D01*
X56898865Y-41516854D01*
X56896000Y-41490139D01*
X56896000Y-40680925D01*
X63880645Y-40680925D01*
X63898570Y-40877888D01*
X63954410Y-41067619D01*
X63957263Y-41073077D01*
X63957265Y-41073081D01*
X64004720Y-41163853D01*
X64046040Y-41242890D01*
X64169968Y-41397025D01*
X64174692Y-41400989D01*
X64181933Y-41407065D01*
X64321474Y-41524154D01*
X64326872Y-41527121D01*
X64326877Y-41527125D01*
X64470180Y-41605905D01*
X64494787Y-41619433D01*
X64500654Y-41621294D01*
X64500656Y-41621295D01*
X64667809Y-41674319D01*
X64683306Y-41679235D01*
X64837227Y-41696500D01*
X64943769Y-41696500D01*
X64946825Y-41696200D01*
X64946832Y-41696200D01*
X65013864Y-41689627D01*
X65090833Y-41682080D01*
X65096734Y-41680298D01*
X65096736Y-41680298D01*
X65170053Y-41658162D01*
X65280169Y-41624916D01*
X65454796Y-41532066D01*
X65557432Y-41448358D01*
X65603287Y-41410960D01*
X65603290Y-41410957D01*
X65608062Y-41407065D01*
X65637260Y-41371771D01*
X65730201Y-41259425D01*
X65730203Y-41259421D01*
X65734130Y-41254675D01*
X65828198Y-41080701D01*
X65886682Y-40891768D01*
X65907355Y-40695075D01*
X65889430Y-40498112D01*
X65833590Y-40308381D01*
X65823919Y-40289881D01*
X65744813Y-40138568D01*
X65741960Y-40133110D01*
X65618032Y-39978975D01*
X65611727Y-39973684D01*
X65552258Y-39923784D01*
X65466526Y-39851846D01*
X65461128Y-39848879D01*
X65461123Y-39848875D01*
X65298608Y-39759533D01*
X65298609Y-39759533D01*
X65293213Y-39756567D01*
X65287346Y-39754706D01*
X65287344Y-39754705D01*
X65110564Y-39698627D01*
X65110563Y-39698627D01*
X65104694Y-39696765D01*
X64950773Y-39679500D01*
X64844231Y-39679500D01*
X64841175Y-39679800D01*
X64841168Y-39679800D01*
X64782660Y-39685537D01*
X64697167Y-39693920D01*
X64691266Y-39695702D01*
X64691264Y-39695702D01*
X64617947Y-39717838D01*
X64507831Y-39751084D01*
X64333204Y-39843934D01*
X64305222Y-39866756D01*
X64184713Y-39965040D01*
X64184710Y-39965043D01*
X64179938Y-39968935D01*
X64176011Y-39973682D01*
X64176009Y-39973684D01*
X64057799Y-40116575D01*
X64057797Y-40116579D01*
X64053870Y-40121325D01*
X63959802Y-40295299D01*
X63901318Y-40484232D01*
X63880645Y-40680925D01*
X56896000Y-40680925D01*
X56896000Y-39965781D01*
X56916002Y-39897660D01*
X56969658Y-39851167D01*
X57016394Y-39839906D01*
X57184869Y-39832403D01*
X57189401Y-39831649D01*
X57509220Y-39778417D01*
X57509225Y-39778416D01*
X57512961Y-39777794D01*
X57832116Y-39684164D01*
X57835583Y-39682674D01*
X57835587Y-39682673D01*
X58134228Y-39554366D01*
X58134230Y-39554365D01*
X58137712Y-39552869D01*
X58425321Y-39385813D01*
X58428343Y-39383532D01*
X58428347Y-39383529D01*
X58687753Y-39187697D01*
X58687754Y-39187696D01*
X58690777Y-39185414D01*
X58930235Y-38954575D01*
X59140227Y-38696641D01*
X59317710Y-38415347D01*
X59460114Y-38114767D01*
X59565377Y-37799257D01*
X59631972Y-37473386D01*
X59634390Y-37443655D01*
X59654226Y-37199785D01*
X59679684Y-37133510D01*
X59736933Y-37091520D01*
X59779811Y-37084000D01*
X122086167Y-37084000D01*
X122154288Y-37104002D01*
G37*
G04 #@! TD.AperFunction*
M02*
