M48
; DRILL file {KiCad 6.0.1-79c1e3a40b~116~ubuntu18.04.1} date Tue Feb  8 11:35:22 2022
; FORMAT={-:-/ absolute / metric / decimal}
; #@! TF.CreationDate,2022-02-08T11:35:22+08:00
; #@! TF.GenerationSoftware,Kicad,Pcbnew,6.0.1-79c1e3a40b~116~ubuntu18.04.1
; #@! TF.FileFunction,Plated,1,2,PTH
FMAT,2
METRIC
; #@! TA.AperFunction,Plated,PTH,ComponentDrill
T1C1.000
; #@! TA.AperFunction,Plated,PTH,ViaDrill
T2C3.000
%
G90
G05
T1
X58.42Y-42.667
X58.42Y-45.207
X58.547Y-57.536
X58.547Y-60.076
X65.834Y-43.688
X65.834Y-46.688
X66.342Y-56.642
X66.342Y-59.642
X68.834Y-43.688
X68.834Y-46.688
X69.342Y-56.642
X69.342Y-59.642
X77.494Y-43.619
X77.494Y-46.619
X77.494Y-56.388
X77.494Y-59.388
X80.494Y-43.619
X80.494Y-46.619
X80.494Y-56.388
X80.494Y-59.388
X90.17Y-56.388
X90.17Y-59.388
X90.194Y-43.619
X90.194Y-46.619
X93.17Y-56.388
X93.17Y-59.388
X93.194Y-43.619
X93.194Y-46.619
X102.87Y-56.388
X102.87Y-59.388
X102.894Y-43.619
X102.894Y-46.619
X105.87Y-56.388
X105.87Y-59.388
X105.894Y-43.619
X105.894Y-46.619
X115.491Y-43.609
X115.491Y-46.609
X115.594Y-56.378
X115.594Y-59.378
X118.491Y-43.609
X118.491Y-46.609
X118.594Y-56.378
X118.594Y-59.378
T2
X56.896Y-37.084
X56.896Y-66.04
X124.968Y-37.084
X124.968Y-66.04
T0
M30
