G04 #@! TF.GenerationSoftware,KiCad,Pcbnew,6.0.1-79c1e3a40b~116~ubuntu18.04.1*
G04 #@! TF.CreationDate,2022-02-08T11:35:11+08:00*
G04 #@! TF.ProjectId,canbus_board,63616e62-7573-45f6-926f-6172642e6b69,rev?*
G04 #@! TF.SameCoordinates,Original*
G04 #@! TF.FileFunction,Soldermask,Bot*
G04 #@! TF.FilePolarity,Negative*
%FSLAX46Y46*%
G04 Gerber Fmt 4.6, Leading zero omitted, Abs format (unit mm)*
G04 Created by KiCad (PCBNEW 6.0.1-79c1e3a40b~116~ubuntu18.04.1) date 2022-02-08 11:35:11*
%MOMM*%
%LPD*%
G01*
G04 APERTURE LIST*
G04 Aperture macros list*
%AMRoundRect*
0 Rectangle with rounded corners*
0 $1 Rounding radius*
0 $2 $3 $4 $5 $6 $7 $8 $9 X,Y pos of 4 corners*
0 Add a 4 corners polygon primitive as box body*
4,1,4,$2,$3,$4,$5,$6,$7,$8,$9,$2,$3,0*
0 Add four circle primitives for the rounded corners*
1,1,$1+$1,$2,$3*
1,1,$1+$1,$4,$5*
1,1,$1+$1,$6,$7*
1,1,$1+$1,$8,$9*
0 Add four rect primitives between the rounded corners*
20,1,$1+$1,$2,$3,$4,$5,0*
20,1,$1+$1,$4,$5,$6,$7,0*
20,1,$1+$1,$6,$7,$8,$9,0*
20,1,$1+$1,$8,$9,$2,$3,0*%
G04 Aperture macros list end*
%ADD10C,1.000000*%
%ADD11RoundRect,0.250001X-0.499999X0.499999X-0.499999X-0.499999X0.499999X-0.499999X0.499999X0.499999X0*%
%ADD12C,1.500000*%
%ADD13RoundRect,0.250001X-0.499999X-0.499999X0.499999X-0.499999X0.499999X0.499999X-0.499999X0.499999X0*%
%ADD14RoundRect,0.250001X0.499999X0.499999X-0.499999X0.499999X-0.499999X-0.499999X0.499999X-0.499999X0*%
%ADD15R,1.700000X1.700000*%
%ADD16O,1.700000X1.700000*%
G04 APERTURE END LIST*
D10*
X65402000Y-53642000D03*
X65402000Y-62642000D03*
D11*
X69342000Y-56642000D03*
D12*
X69342000Y-59642000D03*
X66342000Y-56642000D03*
X66342000Y-59642000D03*
D10*
X108870000Y-60328000D03*
X99870000Y-60328000D03*
D13*
X102870000Y-56388000D03*
D12*
X105870000Y-56388000D03*
X102870000Y-59388000D03*
X105870000Y-59388000D03*
D10*
X87170000Y-60328000D03*
X96170000Y-60328000D03*
D13*
X90170000Y-56388000D03*
D12*
X93170000Y-56388000D03*
X90170000Y-59388000D03*
X93170000Y-59388000D03*
D10*
X99894000Y-42679000D03*
X108894000Y-42679000D03*
D14*
X105894000Y-46619000D03*
D12*
X102894000Y-46619000D03*
X105894000Y-43619000D03*
X102894000Y-43619000D03*
D15*
X58420000Y-42667000D03*
D16*
X58420000Y-45207000D03*
D10*
X112491000Y-42669000D03*
X121491000Y-42669000D03*
D14*
X118491000Y-46609000D03*
D12*
X115491000Y-46609000D03*
X118491000Y-43609000D03*
X115491000Y-43609000D03*
D10*
X74494000Y-60328000D03*
X83494000Y-60328000D03*
D13*
X77494000Y-56388000D03*
D12*
X80494000Y-56388000D03*
X77494000Y-59388000D03*
X80494000Y-59388000D03*
D10*
X121594000Y-60318000D03*
X112594000Y-60318000D03*
D13*
X115594000Y-56378000D03*
D12*
X118594000Y-56378000D03*
X115594000Y-59378000D03*
X118594000Y-59378000D03*
D10*
X64894000Y-40688000D03*
X64894000Y-49688000D03*
D11*
X68834000Y-43688000D03*
D12*
X68834000Y-46688000D03*
X65834000Y-43688000D03*
X65834000Y-46688000D03*
D10*
X83494000Y-42679000D03*
X74494000Y-42679000D03*
D14*
X80494000Y-46619000D03*
D12*
X77494000Y-46619000D03*
X80494000Y-43619000D03*
X77494000Y-43619000D03*
D10*
X96194000Y-42679000D03*
X87194000Y-42679000D03*
D14*
X93194000Y-46619000D03*
D12*
X90194000Y-46619000D03*
X93194000Y-43619000D03*
X90194000Y-43619000D03*
D15*
X58547000Y-60076000D03*
D16*
X58547000Y-57536000D03*
M02*
