M48
; DRILL file {KiCad 6.0.1-79c1e3a40b~116~ubuntu18.04.1} date Tue Feb  8 11:35:22 2022
; FORMAT={-:-/ absolute / metric / decimal}
; #@! TF.CreationDate,2022-02-08T11:35:22+08:00
; #@! TF.GenerationSoftware,Kicad,Pcbnew,6.0.1-79c1e3a40b~116~ubuntu18.04.1
; #@! TF.FileFunction,NonPlated,1,2,NPTH
FMAT,2
METRIC
; #@! TA.AperFunction,NonPlated,NPTH,ComponentDrill
T1C1.000
%
G90
G05
T1
X64.894Y-40.688
X64.894Y-49.688
X65.402Y-53.642
X65.402Y-62.642
X74.494Y-42.679
X74.494Y-60.328
X83.494Y-42.679
X83.494Y-60.328
X87.17Y-60.328
X87.194Y-42.679
X96.17Y-60.328
X96.194Y-42.679
X99.87Y-60.328
X99.894Y-42.679
X108.87Y-60.328
X108.894Y-42.679
X112.491Y-42.669
X112.594Y-60.318
X121.491Y-42.669
X121.594Y-60.318
T0
M30
