%TF.GenerationSoftware,KiCad,Pcbnew,6.0.1-79c1e3a40b~116~ubuntu20.04.1*%
%TF.CreationDate,2022-01-27T21:22:14+08:00*%
%TF.ProjectId,canbus_board,63616e62-7573-45f6-926f-6172642e6b69,rev?*%
%TF.SameCoordinates,Original*%
%TF.FileFunction,Legend,Top*%
%TF.FilePolarity,Positive*%
%FSLAX46Y46*%
G04 Gerber Fmt 4.6, Leading zero omitted, Abs format (unit mm)*
G04 Created by KiCad (PCBNEW 6.0.1-79c1e3a40b~116~ubuntu20.04.1) date 2022-01-27 21:22:14*
%MOMM*%
%LPD*%
G01*
G04 APERTURE LIST*
%ADD10C,0.150000*%
%ADD11C,0.125000*%
%ADD12C,0.120000*%
G04 APERTURE END LIST*
D10*
X82400380Y-36933142D02*
X82352761Y-36980761D01*
X82209904Y-37028380D01*
X82114666Y-37028380D01*
X81971809Y-36980761D01*
X81876571Y-36885523D01*
X81828952Y-36790285D01*
X81781333Y-36599809D01*
X81781333Y-36456952D01*
X81828952Y-36266476D01*
X81876571Y-36171238D01*
X81971809Y-36076000D01*
X82114666Y-36028380D01*
X82209904Y-36028380D01*
X82352761Y-36076000D01*
X82400380Y-36123619D01*
X82781333Y-36742666D02*
X83257523Y-36742666D01*
X82686095Y-37028380D02*
X83019428Y-36028380D01*
X83352761Y-37028380D01*
X83686095Y-37028380D02*
X83686095Y-36028380D01*
X84257523Y-37028380D01*
X84257523Y-36028380D01*
X84495619Y-37123619D02*
X85257523Y-37123619D01*
X85828952Y-36504571D02*
X85971809Y-36552190D01*
X86019428Y-36599809D01*
X86067047Y-36695047D01*
X86067047Y-36837904D01*
X86019428Y-36933142D01*
X85971809Y-36980761D01*
X85876571Y-37028380D01*
X85495619Y-37028380D01*
X85495619Y-36028380D01*
X85828952Y-36028380D01*
X85924190Y-36076000D01*
X85971809Y-36123619D01*
X86019428Y-36218857D01*
X86019428Y-36314095D01*
X85971809Y-36409333D01*
X85924190Y-36456952D01*
X85828952Y-36504571D01*
X85495619Y-36504571D01*
X86495619Y-36028380D02*
X86495619Y-36837904D01*
X86543238Y-36933142D01*
X86590857Y-36980761D01*
X86686095Y-37028380D01*
X86876571Y-37028380D01*
X86971809Y-36980761D01*
X87019428Y-36933142D01*
X87067047Y-36837904D01*
X87067047Y-36028380D01*
X87495619Y-36980761D02*
X87638476Y-37028380D01*
X87876571Y-37028380D01*
X87971809Y-36980761D01*
X88019428Y-36933142D01*
X88067047Y-36837904D01*
X88067047Y-36742666D01*
X88019428Y-36647428D01*
X87971809Y-36599809D01*
X87876571Y-36552190D01*
X87686095Y-36504571D01*
X87590857Y-36456952D01*
X87543238Y-36409333D01*
X87495619Y-36314095D01*
X87495619Y-36218857D01*
X87543238Y-36123619D01*
X87590857Y-36076000D01*
X87686095Y-36028380D01*
X87924190Y-36028380D01*
X88067047Y-36076000D01*
X88257523Y-37123619D02*
X89019428Y-37123619D01*
X89590857Y-36504571D02*
X89733714Y-36552190D01*
X89781333Y-36599809D01*
X89828952Y-36695047D01*
X89828952Y-36837904D01*
X89781333Y-36933142D01*
X89733714Y-36980761D01*
X89638476Y-37028380D01*
X89257523Y-37028380D01*
X89257523Y-36028380D01*
X89590857Y-36028380D01*
X89686095Y-36076000D01*
X89733714Y-36123619D01*
X89781333Y-36218857D01*
X89781333Y-36314095D01*
X89733714Y-36409333D01*
X89686095Y-36456952D01*
X89590857Y-36504571D01*
X89257523Y-36504571D01*
X90828952Y-37028380D02*
X90495619Y-36552190D01*
X90257523Y-37028380D02*
X90257523Y-36028380D01*
X90638476Y-36028380D01*
X90733714Y-36076000D01*
X90781333Y-36123619D01*
X90828952Y-36218857D01*
X90828952Y-36361714D01*
X90781333Y-36456952D01*
X90733714Y-36504571D01*
X90638476Y-36552190D01*
X90257523Y-36552190D01*
X91209904Y-36742666D02*
X91686095Y-36742666D01*
X91114666Y-37028380D02*
X91447999Y-36028380D01*
X91781333Y-37028380D01*
X92114666Y-37028380D02*
X92114666Y-36028380D01*
X92686095Y-37028380D02*
X92257523Y-36456952D01*
X92686095Y-36028380D02*
X92114666Y-36599809D01*
X93114666Y-36504571D02*
X93447999Y-36504571D01*
X93590857Y-37028380D02*
X93114666Y-37028380D01*
X93114666Y-36028380D01*
X93590857Y-36028380D01*
X94209904Y-36028380D02*
X94400380Y-36028380D01*
X94495619Y-36076000D01*
X94590857Y-36171238D01*
X94638476Y-36361714D01*
X94638476Y-36695047D01*
X94590857Y-36885523D01*
X94495619Y-36980761D01*
X94400380Y-37028380D01*
X94209904Y-37028380D01*
X94114666Y-36980761D01*
X94019428Y-36885523D01*
X93971809Y-36695047D01*
X93971809Y-36361714D01*
X94019428Y-36171238D01*
X94114666Y-36076000D01*
X94209904Y-36028380D01*
X95067047Y-36028380D02*
X95067047Y-36837904D01*
X95114666Y-36933142D01*
X95162285Y-36980761D01*
X95257523Y-37028380D01*
X95447999Y-37028380D01*
X95543238Y-36980761D01*
X95590857Y-36933142D01*
X95638476Y-36837904D01*
X95638476Y-36028380D01*
X95971809Y-36028380D02*
X96543238Y-36028380D01*
X96257523Y-37028380D02*
X96257523Y-36028380D01*
X96638476Y-37123619D02*
X97400380Y-37123619D01*
X97971809Y-36504571D02*
X98114666Y-36552190D01*
X98162285Y-36599809D01*
X98209904Y-36695047D01*
X98209904Y-36837904D01*
X98162285Y-36933142D01*
X98114666Y-36980761D01*
X98019428Y-37028380D01*
X97638476Y-37028380D01*
X97638476Y-36028380D01*
X97971809Y-36028380D01*
X98067047Y-36076000D01*
X98114666Y-36123619D01*
X98162285Y-36218857D01*
X98162285Y-36314095D01*
X98114666Y-36409333D01*
X98067047Y-36456952D01*
X97971809Y-36504571D01*
X97638476Y-36504571D01*
X98828952Y-36028380D02*
X99019428Y-36028380D01*
X99114666Y-36076000D01*
X99209904Y-36171238D01*
X99257523Y-36361714D01*
X99257523Y-36695047D01*
X99209904Y-36885523D01*
X99114666Y-36980761D01*
X99019428Y-37028380D01*
X98828952Y-37028380D01*
X98733714Y-36980761D01*
X98638476Y-36885523D01*
X98590857Y-36695047D01*
X98590857Y-36361714D01*
X98638476Y-36171238D01*
X98733714Y-36076000D01*
X98828952Y-36028380D01*
X99638476Y-36742666D02*
X100114666Y-36742666D01*
X99543238Y-37028380D02*
X99876571Y-36028380D01*
X100209904Y-37028380D01*
X101114666Y-37028380D02*
X100781333Y-36552190D01*
X100543238Y-37028380D02*
X100543238Y-36028380D01*
X100924190Y-36028380D01*
X101019428Y-36076000D01*
X101067047Y-36123619D01*
X101114666Y-36218857D01*
X101114666Y-36361714D01*
X101067047Y-36456952D01*
X101019428Y-36504571D01*
X100924190Y-36552190D01*
X100543238Y-36552190D01*
X101543238Y-37028380D02*
X101543238Y-36028380D01*
X101781333Y-36028380D01*
X101924190Y-36076000D01*
X102019428Y-36171238D01*
X102067047Y-36266476D01*
X102114666Y-36456952D01*
X102114666Y-36599809D01*
X102067047Y-36790285D01*
X102019428Y-36885523D01*
X101924190Y-36980761D01*
X101781333Y-37028380D01*
X101543238Y-37028380D01*
X123873619Y-56181047D02*
X123826000Y-56133428D01*
X123778380Y-56038190D01*
X123778380Y-55800095D01*
X123826000Y-55704857D01*
X123873619Y-55657238D01*
X123968857Y-55609619D01*
X124064095Y-55609619D01*
X124206952Y-55657238D01*
X124778380Y-56228666D01*
X124778380Y-55609619D01*
X124206952Y-55038190D02*
X124159333Y-55133428D01*
X124111714Y-55181047D01*
X124016476Y-55228666D01*
X123968857Y-55228666D01*
X123873619Y-55181047D01*
X123826000Y-55133428D01*
X123778380Y-55038190D01*
X123778380Y-54847714D01*
X123826000Y-54752476D01*
X123873619Y-54704857D01*
X123968857Y-54657238D01*
X124016476Y-54657238D01*
X124111714Y-54704857D01*
X124159333Y-54752476D01*
X124206952Y-54847714D01*
X124206952Y-55038190D01*
X124254571Y-55133428D01*
X124302190Y-55181047D01*
X124397428Y-55228666D01*
X124587904Y-55228666D01*
X124683142Y-55181047D01*
X124730761Y-55133428D01*
X124778380Y-55038190D01*
X124778380Y-54847714D01*
X124730761Y-54752476D01*
X124683142Y-54704857D01*
X124587904Y-54657238D01*
X124397428Y-54657238D01*
X124302190Y-54704857D01*
X124254571Y-54752476D01*
X124206952Y-54847714D01*
X124683142Y-54228666D02*
X124730761Y-54181047D01*
X124778380Y-54228666D01*
X124730761Y-54276285D01*
X124683142Y-54228666D01*
X124778380Y-54228666D01*
X124778380Y-53704857D02*
X124778380Y-53514380D01*
X124730761Y-53419142D01*
X124683142Y-53371523D01*
X124540285Y-53276285D01*
X124349809Y-53228666D01*
X123968857Y-53228666D01*
X123873619Y-53276285D01*
X123826000Y-53323904D01*
X123778380Y-53419142D01*
X123778380Y-53609619D01*
X123826000Y-53704857D01*
X123873619Y-53752476D01*
X123968857Y-53800095D01*
X124206952Y-53800095D01*
X124302190Y-53752476D01*
X124349809Y-53704857D01*
X124397428Y-53609619D01*
X124397428Y-53419142D01*
X124349809Y-53323904D01*
X124302190Y-53276285D01*
X124206952Y-53228666D01*
X123778380Y-52323904D02*
X123778380Y-52800095D01*
X124254571Y-52847714D01*
X124206952Y-52800095D01*
X124159333Y-52704857D01*
X124159333Y-52466761D01*
X124206952Y-52371523D01*
X124254571Y-52323904D01*
X124349809Y-52276285D01*
X124587904Y-52276285D01*
X124683142Y-52323904D01*
X124730761Y-52371523D01*
X124778380Y-52466761D01*
X124778380Y-52704857D01*
X124730761Y-52800095D01*
X124683142Y-52847714D01*
X123778380Y-51419142D02*
X123778380Y-51609619D01*
X123826000Y-51704857D01*
X123873619Y-51752476D01*
X124016476Y-51847714D01*
X124206952Y-51895333D01*
X124587904Y-51895333D01*
X124683142Y-51847714D01*
X124730761Y-51800095D01*
X124778380Y-51704857D01*
X124778380Y-51514380D01*
X124730761Y-51419142D01*
X124683142Y-51371523D01*
X124587904Y-51323904D01*
X124349809Y-51323904D01*
X124254571Y-51371523D01*
X124206952Y-51419142D01*
X124159333Y-51514380D01*
X124159333Y-51704857D01*
X124206952Y-51800095D01*
X124254571Y-51847714D01*
X124349809Y-51895333D01*
X123778380Y-50704857D02*
X123778380Y-50609619D01*
X123826000Y-50514380D01*
X123873619Y-50466761D01*
X123968857Y-50419142D01*
X124159333Y-50371523D01*
X124397428Y-50371523D01*
X124587904Y-50419142D01*
X124683142Y-50466761D01*
X124730761Y-50514380D01*
X124778380Y-50609619D01*
X124778380Y-50704857D01*
X124730761Y-50800095D01*
X124683142Y-50847714D01*
X124587904Y-50895333D01*
X124397428Y-50942952D01*
X124159333Y-50942952D01*
X123968857Y-50895333D01*
X123873619Y-50847714D01*
X123826000Y-50800095D01*
X123778380Y-50704857D01*
X124778380Y-49181047D02*
X124111714Y-49181047D01*
X124206952Y-49181047D02*
X124159333Y-49133428D01*
X124111714Y-49038190D01*
X124111714Y-48895333D01*
X124159333Y-48800095D01*
X124254571Y-48752476D01*
X124778380Y-48752476D01*
X124254571Y-48752476D02*
X124159333Y-48704857D01*
X124111714Y-48609619D01*
X124111714Y-48466761D01*
X124159333Y-48371523D01*
X124254571Y-48323904D01*
X124778380Y-48323904D01*
X124778380Y-47847714D02*
X124111714Y-47847714D01*
X124206952Y-47847714D02*
X124159333Y-47800095D01*
X124111714Y-47704857D01*
X124111714Y-47562000D01*
X124159333Y-47466761D01*
X124254571Y-47419142D01*
X124778380Y-47419142D01*
X124254571Y-47419142D02*
X124159333Y-47371523D01*
X124111714Y-47276285D01*
X124111714Y-47133428D01*
X124159333Y-47038190D01*
X124254571Y-46990571D01*
X124778380Y-46990571D01*
X125468000Y-37084000D02*
X126062420Y-37084000D01*
X125468000Y-66040000D02*
X126062420Y-66040000D01*
X125476000Y-37084000D02*
X125476000Y-66040000D01*
X125476000Y-37084000D02*
X125476000Y-66040000D01*
X125476000Y-37084000D02*
X124889579Y-38210504D01*
X125476000Y-37084000D02*
X126062421Y-38210504D01*
X125476000Y-66040000D02*
X126062421Y-64913496D01*
X125476000Y-66040000D02*
X124889579Y-64913496D01*
X86791996Y-65388094D02*
X86601525Y-65386672D01*
X86505935Y-65433579D01*
X86457962Y-65480842D01*
X86361660Y-65622984D01*
X86312621Y-65813100D01*
X86309778Y-66194041D01*
X86356685Y-66289632D01*
X86403947Y-66337605D01*
X86498828Y-66385934D01*
X86689298Y-66387355D01*
X86784889Y-66340448D01*
X86832862Y-66293186D01*
X86881191Y-66198306D01*
X86882967Y-65960217D01*
X86836060Y-65864626D01*
X86788798Y-65816653D01*
X86693918Y-65768325D01*
X86503447Y-65766903D01*
X86407856Y-65813810D01*
X86359883Y-65861073D01*
X86311555Y-65955953D01*
X87455446Y-65821628D02*
X87360566Y-65773300D01*
X87313304Y-65725327D01*
X87266397Y-65629736D01*
X87266752Y-65582118D01*
X87315081Y-65487238D01*
X87363054Y-65439976D01*
X87458644Y-65393069D01*
X87649115Y-65394490D01*
X87743995Y-65442819D01*
X87791258Y-65490792D01*
X87838165Y-65586382D01*
X87837809Y-65634000D01*
X87789481Y-65728880D01*
X87741508Y-65776143D01*
X87645917Y-65823050D01*
X87455446Y-65821628D01*
X87359855Y-65868535D01*
X87311882Y-65915798D01*
X87263554Y-66010678D01*
X87262132Y-66201149D01*
X87309039Y-66296739D01*
X87356302Y-66344712D01*
X87451182Y-66393041D01*
X87641653Y-66394462D01*
X87737244Y-66347555D01*
X87785217Y-66300293D01*
X87833545Y-66205413D01*
X87834967Y-66014942D01*
X87788060Y-65919351D01*
X87740797Y-65871378D01*
X87645917Y-65823050D01*
X88261394Y-66303846D02*
X88308656Y-66351820D01*
X88260683Y-66399082D01*
X88213421Y-66351109D01*
X88261394Y-66303846D01*
X88260683Y-66399082D01*
X88934794Y-65404085D02*
X89030029Y-65404795D01*
X89124909Y-65453124D01*
X89172172Y-65501097D01*
X89219079Y-65596688D01*
X89265275Y-65787514D01*
X89263498Y-66025603D01*
X89214459Y-66215718D01*
X89166131Y-66310598D01*
X89118158Y-66357861D01*
X89022567Y-66404768D01*
X88927331Y-66404057D01*
X88832451Y-66355728D01*
X88785189Y-66307755D01*
X88738282Y-66212165D01*
X88692086Y-66021338D01*
X88693862Y-65783250D01*
X88742901Y-65593134D01*
X88791230Y-65498254D01*
X88839203Y-65450992D01*
X88934794Y-65404085D01*
X89601442Y-65409060D02*
X90268090Y-65414035D01*
X89832068Y-66410809D01*
X90553796Y-65416167D02*
X91172827Y-65420786D01*
X90836660Y-65799241D01*
X90979513Y-65800307D01*
X91074393Y-65848635D01*
X91121655Y-65896608D01*
X91168562Y-65992199D01*
X91166786Y-66230288D01*
X91118457Y-66325168D01*
X91070484Y-66372430D01*
X90974893Y-66419337D01*
X90689187Y-66417205D01*
X90594307Y-66368877D01*
X90547045Y-66320904D01*
X91641541Y-66424312D02*
X91832012Y-66425734D01*
X91927603Y-66378827D01*
X91975576Y-66331564D01*
X92071878Y-66189422D01*
X92120917Y-65999306D01*
X92123760Y-65618364D01*
X92076853Y-65522774D01*
X92029590Y-65474801D01*
X91934710Y-65426472D01*
X91744239Y-65425051D01*
X91648649Y-65471958D01*
X91600675Y-65519220D01*
X91552347Y-65614100D01*
X91550570Y-65852189D01*
X91597477Y-65947780D01*
X91644740Y-65995753D01*
X91739620Y-66044081D01*
X91930091Y-66045503D01*
X92025681Y-65998596D01*
X92073654Y-65951333D01*
X92121983Y-65856453D01*
X93308162Y-66436750D02*
X93313137Y-65770102D01*
X93312426Y-65865337D02*
X93360399Y-65818075D01*
X93455990Y-65771168D01*
X93598843Y-65772234D01*
X93693723Y-65820562D01*
X93740630Y-65916153D01*
X93736721Y-66439948D01*
X93740630Y-65916153D02*
X93788959Y-65821273D01*
X93884549Y-65774366D01*
X94027403Y-65775432D01*
X94122283Y-65823760D01*
X94169190Y-65919351D01*
X94165281Y-66443146D01*
X94641458Y-66446700D02*
X94646433Y-65780052D01*
X94645722Y-65875287D02*
X94693695Y-65828025D01*
X94789286Y-65781118D01*
X94932139Y-65782184D01*
X95027019Y-65830512D01*
X95073926Y-65926103D01*
X95070017Y-66449898D01*
X95073926Y-65926103D02*
X95122255Y-65831223D01*
X95217846Y-65784316D01*
X95360699Y-65785382D01*
X95455579Y-65833710D01*
X95502486Y-65929301D01*
X95498577Y-66453096D01*
X124964269Y-66539986D02*
X124953694Y-67956986D01*
X56892269Y-66031986D02*
X56881694Y-67448986D01*
X124958070Y-67370582D02*
X56886070Y-66862582D01*
X124958070Y-67370582D02*
X56886070Y-66862582D01*
X124958070Y-67370582D02*
X123835974Y-66775771D01*
X124958070Y-67370582D02*
X123827221Y-67948580D01*
X56886070Y-66862582D02*
X58008166Y-67457393D01*
X56886070Y-66862582D02*
X58016919Y-66284584D01*
%TO.C,J12*%
X57610476Y-39457380D02*
X57610476Y-40171666D01*
X57562857Y-40314523D01*
X57467619Y-40409761D01*
X57324761Y-40457380D01*
X57229523Y-40457380D01*
X58610476Y-40457380D02*
X58039047Y-40457380D01*
X58324761Y-40457380D02*
X58324761Y-39457380D01*
X58229523Y-39600238D01*
X58134285Y-39695476D01*
X58039047Y-39743095D01*
X58991428Y-39552619D02*
X59039047Y-39505000D01*
X59134285Y-39457380D01*
X59372380Y-39457380D01*
X59467619Y-39505000D01*
X59515238Y-39552619D01*
X59562857Y-39647857D01*
X59562857Y-39743095D01*
X59515238Y-39885952D01*
X58943809Y-40457380D01*
X59562857Y-40457380D01*
D11*
X55733190Y-47838809D02*
X55733190Y-47553095D01*
X56233190Y-47695952D02*
X55733190Y-47695952D01*
X56209380Y-47195952D02*
X56233190Y-47243571D01*
X56233190Y-47338809D01*
X56209380Y-47386428D01*
X56161761Y-47410238D01*
X55971285Y-47410238D01*
X55923666Y-47386428D01*
X55899857Y-47338809D01*
X55899857Y-47243571D01*
X55923666Y-47195952D01*
X55971285Y-47172142D01*
X56018904Y-47172142D01*
X56066523Y-47410238D01*
X56233190Y-46957857D02*
X55899857Y-46957857D01*
X55995095Y-46957857D02*
X55947476Y-46934047D01*
X55923666Y-46910238D01*
X55899857Y-46862619D01*
X55899857Y-46815000D01*
X56233190Y-46648333D02*
X55899857Y-46648333D01*
X55947476Y-46648333D02*
X55923666Y-46624523D01*
X55899857Y-46576904D01*
X55899857Y-46505476D01*
X55923666Y-46457857D01*
X55971285Y-46434047D01*
X56233190Y-46434047D01*
X55971285Y-46434047D02*
X55923666Y-46410238D01*
X55899857Y-46362619D01*
X55899857Y-46291190D01*
X55923666Y-46243571D01*
X55971285Y-46219761D01*
X56233190Y-46219761D01*
X56233190Y-45981666D02*
X55899857Y-45981666D01*
X55733190Y-45981666D02*
X55757000Y-46005476D01*
X55780809Y-45981666D01*
X55757000Y-45957857D01*
X55733190Y-45981666D01*
X55780809Y-45981666D01*
X55899857Y-45743571D02*
X56233190Y-45743571D01*
X55947476Y-45743571D02*
X55923666Y-45719761D01*
X55899857Y-45672142D01*
X55899857Y-45600714D01*
X55923666Y-45553095D01*
X55971285Y-45529285D01*
X56233190Y-45529285D01*
X56233190Y-45076904D02*
X55971285Y-45076904D01*
X55923666Y-45100714D01*
X55899857Y-45148333D01*
X55899857Y-45243571D01*
X55923666Y-45291190D01*
X56209380Y-45076904D02*
X56233190Y-45124523D01*
X56233190Y-45243571D01*
X56209380Y-45291190D01*
X56161761Y-45315000D01*
X56114142Y-45315000D01*
X56066523Y-45291190D01*
X56042714Y-45243571D01*
X56042714Y-45124523D01*
X56018904Y-45076904D01*
X55899857Y-44910238D02*
X55899857Y-44719761D01*
X55733190Y-44838809D02*
X56161761Y-44838809D01*
X56209380Y-44815000D01*
X56233190Y-44767380D01*
X56233190Y-44719761D01*
X56233190Y-44553095D02*
X55899857Y-44553095D01*
X55733190Y-44553095D02*
X55757000Y-44576904D01*
X55780809Y-44553095D01*
X55757000Y-44529285D01*
X55733190Y-44553095D01*
X55780809Y-44553095D01*
X56233190Y-44243571D02*
X56209380Y-44291190D01*
X56185571Y-44315000D01*
X56137952Y-44338809D01*
X55995095Y-44338809D01*
X55947476Y-44315000D01*
X55923666Y-44291190D01*
X55899857Y-44243571D01*
X55899857Y-44172142D01*
X55923666Y-44124523D01*
X55947476Y-44100714D01*
X55995095Y-44076904D01*
X56137952Y-44076904D01*
X56185571Y-44100714D01*
X56209380Y-44124523D01*
X56233190Y-44172142D01*
X56233190Y-44243571D01*
X55899857Y-43862619D02*
X56233190Y-43862619D01*
X55947476Y-43862619D02*
X55923666Y-43838809D01*
X55899857Y-43791190D01*
X55899857Y-43719761D01*
X55923666Y-43672142D01*
X55971285Y-43648333D01*
X56233190Y-43648333D01*
X56233190Y-42743571D02*
X55995095Y-42910238D01*
X56233190Y-43029285D02*
X55733190Y-43029285D01*
X55733190Y-42838809D01*
X55757000Y-42791190D01*
X55780809Y-42767380D01*
X55828428Y-42743571D01*
X55899857Y-42743571D01*
X55947476Y-42767380D01*
X55971285Y-42791190D01*
X55995095Y-42838809D01*
X55995095Y-43029285D01*
X56209380Y-42338809D02*
X56233190Y-42386428D01*
X56233190Y-42481666D01*
X56209380Y-42529285D01*
X56161761Y-42553095D01*
X55971285Y-42553095D01*
X55923666Y-42529285D01*
X55899857Y-42481666D01*
X55899857Y-42386428D01*
X55923666Y-42338809D01*
X55971285Y-42315000D01*
X56018904Y-42315000D01*
X56066523Y-42553095D01*
X56209380Y-42124523D02*
X56233190Y-42076904D01*
X56233190Y-41981666D01*
X56209380Y-41934047D01*
X56161761Y-41910238D01*
X56137952Y-41910238D01*
X56090333Y-41934047D01*
X56066523Y-41981666D01*
X56066523Y-42053095D01*
X56042714Y-42100714D01*
X55995095Y-42124523D01*
X55971285Y-42124523D01*
X55923666Y-42100714D01*
X55899857Y-42053095D01*
X55899857Y-41981666D01*
X55923666Y-41934047D01*
X56233190Y-41695952D02*
X55899857Y-41695952D01*
X55733190Y-41695952D02*
X55757000Y-41719761D01*
X55780809Y-41695952D01*
X55757000Y-41672142D01*
X55733190Y-41695952D01*
X55780809Y-41695952D01*
X56209380Y-41481666D02*
X56233190Y-41434047D01*
X56233190Y-41338809D01*
X56209380Y-41291190D01*
X56161761Y-41267380D01*
X56137952Y-41267380D01*
X56090333Y-41291190D01*
X56066523Y-41338809D01*
X56066523Y-41410238D01*
X56042714Y-41457857D01*
X55995095Y-41481666D01*
X55971285Y-41481666D01*
X55923666Y-41457857D01*
X55899857Y-41410238D01*
X55899857Y-41338809D01*
X55923666Y-41291190D01*
X55899857Y-41124523D02*
X55899857Y-40934047D01*
X55733190Y-41053095D02*
X56161761Y-41053095D01*
X56209380Y-41029285D01*
X56233190Y-40981666D01*
X56233190Y-40934047D01*
X56233190Y-40695952D02*
X56209380Y-40743571D01*
X56185571Y-40767380D01*
X56137952Y-40791190D01*
X55995095Y-40791190D01*
X55947476Y-40767380D01*
X55923666Y-40743571D01*
X55899857Y-40695952D01*
X55899857Y-40624523D01*
X55923666Y-40576904D01*
X55947476Y-40553095D01*
X55995095Y-40529285D01*
X56137952Y-40529285D01*
X56185571Y-40553095D01*
X56209380Y-40576904D01*
X56233190Y-40624523D01*
X56233190Y-40695952D01*
X56233190Y-40315000D02*
X55899857Y-40315000D01*
X55995095Y-40315000D02*
X55947476Y-40291190D01*
X55923666Y-40267380D01*
X55899857Y-40219761D01*
X55899857Y-40172142D01*
D10*
%TO.C,R1*%
X56332380Y-52871666D02*
X55856190Y-53205000D01*
X56332380Y-53443095D02*
X55332380Y-53443095D01*
X55332380Y-53062142D01*
X55380000Y-52966904D01*
X55427619Y-52919285D01*
X55522857Y-52871666D01*
X55665714Y-52871666D01*
X55760952Y-52919285D01*
X55808571Y-52966904D01*
X55856190Y-53062142D01*
X55856190Y-53443095D01*
X56332380Y-51919285D02*
X56332380Y-52490714D01*
X56332380Y-52205000D02*
X55332380Y-52205000D01*
X55475238Y-52300238D01*
X55570476Y-52395476D01*
X55618095Y-52490714D01*
%TO.C,R2*%
X56332380Y-50331666D02*
X55856190Y-50665000D01*
X56332380Y-50903095D02*
X55332380Y-50903095D01*
X55332380Y-50522142D01*
X55380000Y-50426904D01*
X55427619Y-50379285D01*
X55522857Y-50331666D01*
X55665714Y-50331666D01*
X55760952Y-50379285D01*
X55808571Y-50426904D01*
X55856190Y-50522142D01*
X55856190Y-50903095D01*
X55427619Y-49950714D02*
X55380000Y-49903095D01*
X55332380Y-49807857D01*
X55332380Y-49569761D01*
X55380000Y-49474523D01*
X55427619Y-49426904D01*
X55522857Y-49379285D01*
X55618095Y-49379285D01*
X55760952Y-49426904D01*
X56332380Y-49998333D01*
X56332380Y-49379285D01*
%TO.C,J10*%
X72464380Y-58951523D02*
X73178666Y-58951523D01*
X73321523Y-58999142D01*
X73416761Y-59094380D01*
X73464380Y-59237238D01*
X73464380Y-59332476D01*
X73464380Y-57951523D02*
X73464380Y-58522952D01*
X73464380Y-58237238D02*
X72464380Y-58237238D01*
X72607238Y-58332476D01*
X72702476Y-58427714D01*
X72750095Y-58522952D01*
X72464380Y-57332476D02*
X72464380Y-57237238D01*
X72512000Y-57142000D01*
X72559619Y-57094380D01*
X72654857Y-57046761D01*
X72845333Y-56999142D01*
X73083428Y-56999142D01*
X73273904Y-57046761D01*
X73369142Y-57094380D01*
X73416761Y-57142000D01*
X73464380Y-57237238D01*
X73464380Y-57332476D01*
X73416761Y-57427714D01*
X73369142Y-57475333D01*
X73273904Y-57522952D01*
X73083428Y-57570571D01*
X72845333Y-57570571D01*
X72654857Y-57522952D01*
X72559619Y-57475333D01*
X72512000Y-57427714D01*
X72464380Y-57332476D01*
%TO.C,J7*%
X104036666Y-52170380D02*
X104036666Y-52884666D01*
X103989047Y-53027523D01*
X103893809Y-53122761D01*
X103750952Y-53170380D01*
X103655714Y-53170380D01*
X104417619Y-52170380D02*
X105084285Y-52170380D01*
X104655714Y-53170380D01*
%TO.C,J5*%
X91336666Y-52170380D02*
X91336666Y-52884666D01*
X91289047Y-53027523D01*
X91193809Y-53122761D01*
X91050952Y-53170380D01*
X90955714Y-53170380D01*
X92289047Y-52170380D02*
X91812857Y-52170380D01*
X91765238Y-52646571D01*
X91812857Y-52598952D01*
X91908095Y-52551333D01*
X92146190Y-52551333D01*
X92241428Y-52598952D01*
X92289047Y-52646571D01*
X92336666Y-52741809D01*
X92336666Y-52979904D01*
X92289047Y-53075142D01*
X92241428Y-53122761D01*
X92146190Y-53170380D01*
X91908095Y-53170380D01*
X91812857Y-53122761D01*
X91765238Y-53075142D01*
%TO.C,J6*%
X104060666Y-49741380D02*
X104060666Y-50455666D01*
X104013047Y-50598523D01*
X103917809Y-50693761D01*
X103774952Y-50741380D01*
X103679714Y-50741380D01*
X104965428Y-49741380D02*
X104774952Y-49741380D01*
X104679714Y-49789000D01*
X104632095Y-49836619D01*
X104536857Y-49979476D01*
X104489238Y-50169952D01*
X104489238Y-50550904D01*
X104536857Y-50646142D01*
X104584476Y-50693761D01*
X104679714Y-50741380D01*
X104870190Y-50741380D01*
X104965428Y-50693761D01*
X105013047Y-50646142D01*
X105060666Y-50550904D01*
X105060666Y-50312809D01*
X105013047Y-50217571D01*
X104965428Y-50169952D01*
X104870190Y-50122333D01*
X104679714Y-50122333D01*
X104584476Y-50169952D01*
X104536857Y-50217571D01*
X104489238Y-50312809D01*
%TO.C,J8*%
X116657666Y-49731380D02*
X116657666Y-50445666D01*
X116610047Y-50588523D01*
X116514809Y-50683761D01*
X116371952Y-50731380D01*
X116276714Y-50731380D01*
X117276714Y-50159952D02*
X117181476Y-50112333D01*
X117133857Y-50064714D01*
X117086238Y-49969476D01*
X117086238Y-49921857D01*
X117133857Y-49826619D01*
X117181476Y-49779000D01*
X117276714Y-49731380D01*
X117467190Y-49731380D01*
X117562428Y-49779000D01*
X117610047Y-49826619D01*
X117657666Y-49921857D01*
X117657666Y-49969476D01*
X117610047Y-50064714D01*
X117562428Y-50112333D01*
X117467190Y-50159952D01*
X117276714Y-50159952D01*
X117181476Y-50207571D01*
X117133857Y-50255190D01*
X117086238Y-50350428D01*
X117086238Y-50540904D01*
X117133857Y-50636142D01*
X117181476Y-50683761D01*
X117276714Y-50731380D01*
X117467190Y-50731380D01*
X117562428Y-50683761D01*
X117610047Y-50636142D01*
X117657666Y-50540904D01*
X117657666Y-50350428D01*
X117610047Y-50255190D01*
X117562428Y-50207571D01*
X117467190Y-50159952D01*
%TO.C,J3*%
X78660666Y-52170380D02*
X78660666Y-52884666D01*
X78613047Y-53027523D01*
X78517809Y-53122761D01*
X78374952Y-53170380D01*
X78279714Y-53170380D01*
X79041619Y-52170380D02*
X79660666Y-52170380D01*
X79327333Y-52551333D01*
X79470190Y-52551333D01*
X79565428Y-52598952D01*
X79613047Y-52646571D01*
X79660666Y-52741809D01*
X79660666Y-52979904D01*
X79613047Y-53075142D01*
X79565428Y-53122761D01*
X79470190Y-53170380D01*
X79184476Y-53170380D01*
X79089238Y-53122761D01*
X79041619Y-53075142D01*
%TO.C,J9*%
X116760666Y-52160380D02*
X116760666Y-52874666D01*
X116713047Y-53017523D01*
X116617809Y-53112761D01*
X116474952Y-53160380D01*
X116379714Y-53160380D01*
X117284476Y-53160380D02*
X117474952Y-53160380D01*
X117570190Y-53112761D01*
X117617809Y-53065142D01*
X117713047Y-52922285D01*
X117760666Y-52731809D01*
X117760666Y-52350857D01*
X117713047Y-52255619D01*
X117665428Y-52208000D01*
X117570190Y-52160380D01*
X117379714Y-52160380D01*
X117284476Y-52208000D01*
X117236857Y-52255619D01*
X117189238Y-52350857D01*
X117189238Y-52588952D01*
X117236857Y-52684190D01*
X117284476Y-52731809D01*
X117379714Y-52779428D01*
X117570190Y-52779428D01*
X117665428Y-52731809D01*
X117713047Y-52684190D01*
X117760666Y-52588952D01*
%TO.C,J1*%
X71956380Y-45521333D02*
X72670666Y-45521333D01*
X72813523Y-45568952D01*
X72908761Y-45664190D01*
X72956380Y-45807047D01*
X72956380Y-45902285D01*
X72956380Y-44521333D02*
X72956380Y-45092761D01*
X72956380Y-44807047D02*
X71956380Y-44807047D01*
X72099238Y-44902285D01*
X72194476Y-44997523D01*
X72242095Y-45092761D01*
%TO.C,J2*%
X78660666Y-49741380D02*
X78660666Y-50455666D01*
X78613047Y-50598523D01*
X78517809Y-50693761D01*
X78374952Y-50741380D01*
X78279714Y-50741380D01*
X79089238Y-49836619D02*
X79136857Y-49789000D01*
X79232095Y-49741380D01*
X79470190Y-49741380D01*
X79565428Y-49789000D01*
X79613047Y-49836619D01*
X79660666Y-49931857D01*
X79660666Y-50027095D01*
X79613047Y-50169952D01*
X79041619Y-50741380D01*
X79660666Y-50741380D01*
%TO.C,J4*%
X91360666Y-49741380D02*
X91360666Y-50455666D01*
X91313047Y-50598523D01*
X91217809Y-50693761D01*
X91074952Y-50741380D01*
X90979714Y-50741380D01*
X92265428Y-50074714D02*
X92265428Y-50741380D01*
X92027333Y-49693761D02*
X91789238Y-50408047D01*
X92408285Y-50408047D01*
%TO.C,J11*%
X57737476Y-62317380D02*
X57737476Y-63031666D01*
X57689857Y-63174523D01*
X57594619Y-63269761D01*
X57451761Y-63317380D01*
X57356523Y-63317380D01*
X58737476Y-63317380D02*
X58166047Y-63317380D01*
X58451761Y-63317380D02*
X58451761Y-62317380D01*
X58356523Y-62460238D01*
X58261285Y-62555476D01*
X58166047Y-62603095D01*
X59689857Y-63317380D02*
X59118428Y-63317380D01*
X59404142Y-63317380D02*
X59404142Y-62317380D01*
X59308904Y-62460238D01*
X59213666Y-62555476D01*
X59118428Y-62603095D01*
D11*
X55606190Y-62888333D02*
X55606190Y-62602619D01*
X56106190Y-62745476D02*
X55606190Y-62745476D01*
X56082380Y-62245476D02*
X56106190Y-62293095D01*
X56106190Y-62388333D01*
X56082380Y-62435952D01*
X56034761Y-62459761D01*
X55844285Y-62459761D01*
X55796666Y-62435952D01*
X55772857Y-62388333D01*
X55772857Y-62293095D01*
X55796666Y-62245476D01*
X55844285Y-62221666D01*
X55891904Y-62221666D01*
X55939523Y-62459761D01*
X56106190Y-62007380D02*
X55772857Y-62007380D01*
X55868095Y-62007380D02*
X55820476Y-61983571D01*
X55796666Y-61959761D01*
X55772857Y-61912142D01*
X55772857Y-61864523D01*
X56106190Y-61697857D02*
X55772857Y-61697857D01*
X55820476Y-61697857D02*
X55796666Y-61674047D01*
X55772857Y-61626428D01*
X55772857Y-61555000D01*
X55796666Y-61507380D01*
X55844285Y-61483571D01*
X56106190Y-61483571D01*
X55844285Y-61483571D02*
X55796666Y-61459761D01*
X55772857Y-61412142D01*
X55772857Y-61340714D01*
X55796666Y-61293095D01*
X55844285Y-61269285D01*
X56106190Y-61269285D01*
X56106190Y-61031190D02*
X55772857Y-61031190D01*
X55606190Y-61031190D02*
X55630000Y-61055000D01*
X55653809Y-61031190D01*
X55630000Y-61007380D01*
X55606190Y-61031190D01*
X55653809Y-61031190D01*
X55772857Y-60793095D02*
X56106190Y-60793095D01*
X55820476Y-60793095D02*
X55796666Y-60769285D01*
X55772857Y-60721666D01*
X55772857Y-60650238D01*
X55796666Y-60602619D01*
X55844285Y-60578809D01*
X56106190Y-60578809D01*
X56106190Y-60126428D02*
X55844285Y-60126428D01*
X55796666Y-60150238D01*
X55772857Y-60197857D01*
X55772857Y-60293095D01*
X55796666Y-60340714D01*
X56082380Y-60126428D02*
X56106190Y-60174047D01*
X56106190Y-60293095D01*
X56082380Y-60340714D01*
X56034761Y-60364523D01*
X55987142Y-60364523D01*
X55939523Y-60340714D01*
X55915714Y-60293095D01*
X55915714Y-60174047D01*
X55891904Y-60126428D01*
X55772857Y-59959761D02*
X55772857Y-59769285D01*
X55606190Y-59888333D02*
X56034761Y-59888333D01*
X56082380Y-59864523D01*
X56106190Y-59816904D01*
X56106190Y-59769285D01*
X56106190Y-59602619D02*
X55772857Y-59602619D01*
X55606190Y-59602619D02*
X55630000Y-59626428D01*
X55653809Y-59602619D01*
X55630000Y-59578809D01*
X55606190Y-59602619D01*
X55653809Y-59602619D01*
X56106190Y-59293095D02*
X56082380Y-59340714D01*
X56058571Y-59364523D01*
X56010952Y-59388333D01*
X55868095Y-59388333D01*
X55820476Y-59364523D01*
X55796666Y-59340714D01*
X55772857Y-59293095D01*
X55772857Y-59221666D01*
X55796666Y-59174047D01*
X55820476Y-59150238D01*
X55868095Y-59126428D01*
X56010952Y-59126428D01*
X56058571Y-59150238D01*
X56082380Y-59174047D01*
X56106190Y-59221666D01*
X56106190Y-59293095D01*
X55772857Y-58912142D02*
X56106190Y-58912142D01*
X55820476Y-58912142D02*
X55796666Y-58888333D01*
X55772857Y-58840714D01*
X55772857Y-58769285D01*
X55796666Y-58721666D01*
X55844285Y-58697857D01*
X56106190Y-58697857D01*
X56106190Y-57793095D02*
X55868095Y-57959761D01*
X56106190Y-58078809D02*
X55606190Y-58078809D01*
X55606190Y-57888333D01*
X55630000Y-57840714D01*
X55653809Y-57816904D01*
X55701428Y-57793095D01*
X55772857Y-57793095D01*
X55820476Y-57816904D01*
X55844285Y-57840714D01*
X55868095Y-57888333D01*
X55868095Y-58078809D01*
X56082380Y-57388333D02*
X56106190Y-57435952D01*
X56106190Y-57531190D01*
X56082380Y-57578809D01*
X56034761Y-57602619D01*
X55844285Y-57602619D01*
X55796666Y-57578809D01*
X55772857Y-57531190D01*
X55772857Y-57435952D01*
X55796666Y-57388333D01*
X55844285Y-57364523D01*
X55891904Y-57364523D01*
X55939523Y-57602619D01*
X56082380Y-57174047D02*
X56106190Y-57126428D01*
X56106190Y-57031190D01*
X56082380Y-56983571D01*
X56034761Y-56959761D01*
X56010952Y-56959761D01*
X55963333Y-56983571D01*
X55939523Y-57031190D01*
X55939523Y-57102619D01*
X55915714Y-57150238D01*
X55868095Y-57174047D01*
X55844285Y-57174047D01*
X55796666Y-57150238D01*
X55772857Y-57102619D01*
X55772857Y-57031190D01*
X55796666Y-56983571D01*
X56106190Y-56745476D02*
X55772857Y-56745476D01*
X55606190Y-56745476D02*
X55630000Y-56769285D01*
X55653809Y-56745476D01*
X55630000Y-56721666D01*
X55606190Y-56745476D01*
X55653809Y-56745476D01*
X56082380Y-56531190D02*
X56106190Y-56483571D01*
X56106190Y-56388333D01*
X56082380Y-56340714D01*
X56034761Y-56316904D01*
X56010952Y-56316904D01*
X55963333Y-56340714D01*
X55939523Y-56388333D01*
X55939523Y-56459761D01*
X55915714Y-56507380D01*
X55868095Y-56531190D01*
X55844285Y-56531190D01*
X55796666Y-56507380D01*
X55772857Y-56459761D01*
X55772857Y-56388333D01*
X55796666Y-56340714D01*
X55772857Y-56174047D02*
X55772857Y-55983571D01*
X55606190Y-56102619D02*
X56034761Y-56102619D01*
X56082380Y-56078809D01*
X56106190Y-56031190D01*
X56106190Y-55983571D01*
X56106190Y-55745476D02*
X56082380Y-55793095D01*
X56058571Y-55816904D01*
X56010952Y-55840714D01*
X55868095Y-55840714D01*
X55820476Y-55816904D01*
X55796666Y-55793095D01*
X55772857Y-55745476D01*
X55772857Y-55674047D01*
X55796666Y-55626428D01*
X55820476Y-55602619D01*
X55868095Y-55578809D01*
X56010952Y-55578809D01*
X56058571Y-55602619D01*
X56082380Y-55626428D01*
X56106190Y-55674047D01*
X56106190Y-55745476D01*
X56106190Y-55364523D02*
X55772857Y-55364523D01*
X55868095Y-55364523D02*
X55820476Y-55340714D01*
X55796666Y-55316904D01*
X55772857Y-55269285D01*
X55772857Y-55221666D01*
D12*
%TO.C,J12*%
X57090000Y-43937000D02*
X59750000Y-43937000D01*
X57090000Y-42667000D02*
X57090000Y-41337000D01*
X57090000Y-43937000D02*
X57090000Y-46537000D01*
X59750000Y-43937000D02*
X59750000Y-46537000D01*
X57090000Y-46537000D02*
X59750000Y-46537000D01*
X57090000Y-41337000D02*
X58420000Y-41337000D01*
%TO.C,R1*%
X58319936Y-52097000D02*
X58774064Y-52097000D01*
X58319936Y-53567000D02*
X58774064Y-53567000D01*
%TO.C,R2*%
X58303936Y-49430000D02*
X58758064Y-49430000D01*
X58303936Y-50900000D02*
X58758064Y-50900000D01*
%TO.C,J10*%
X64642000Y-53207000D02*
X64332000Y-53207000D01*
X71422000Y-61657000D02*
X71922000Y-61657000D01*
X64332000Y-53207000D02*
X64332000Y-63077000D01*
X71922000Y-53207000D02*
X71922000Y-54627000D01*
X71922000Y-54627000D02*
X71422000Y-54627000D01*
X66162000Y-53207000D02*
X71922000Y-53207000D01*
X71922000Y-63077000D02*
X66162000Y-63077000D01*
X71422000Y-54627000D02*
X71422000Y-61657000D01*
X71922000Y-61657000D02*
X71922000Y-63077000D01*
X64332000Y-63077000D02*
X64642000Y-63077000D01*
%TO.C,J7*%
X99435000Y-61088000D02*
X99435000Y-61398000D01*
X99435000Y-53808000D02*
X100855000Y-53808000D01*
X109305000Y-61398000D02*
X109305000Y-61088000D01*
X109305000Y-53808000D02*
X109305000Y-59568000D01*
X99435000Y-61398000D02*
X109305000Y-61398000D01*
X107885000Y-54308000D02*
X107885000Y-53808000D01*
X99435000Y-59568000D02*
X99435000Y-53808000D01*
X107885000Y-53808000D02*
X109305000Y-53808000D01*
X100855000Y-54308000D02*
X107885000Y-54308000D01*
X100855000Y-53808000D02*
X100855000Y-54308000D01*
%TO.C,J5*%
X86735000Y-59568000D02*
X86735000Y-53808000D01*
X96605000Y-61398000D02*
X96605000Y-61088000D01*
X95185000Y-53808000D02*
X96605000Y-53808000D01*
X88155000Y-53808000D02*
X88155000Y-54308000D01*
X86735000Y-61088000D02*
X86735000Y-61398000D01*
X88155000Y-54308000D02*
X95185000Y-54308000D01*
X96605000Y-53808000D02*
X96605000Y-59568000D01*
X86735000Y-61398000D02*
X96605000Y-61398000D01*
X86735000Y-53808000D02*
X88155000Y-53808000D01*
X95185000Y-54308000D02*
X95185000Y-53808000D01*
%TO.C,J6*%
X109329000Y-43439000D02*
X109329000Y-49199000D01*
X100879000Y-49199000D02*
X99459000Y-49199000D01*
X107909000Y-48699000D02*
X100879000Y-48699000D01*
X99459000Y-41609000D02*
X99459000Y-41919000D01*
X99459000Y-49199000D02*
X99459000Y-43439000D01*
X107909000Y-49199000D02*
X107909000Y-48699000D01*
X109329000Y-41609000D02*
X99459000Y-41609000D01*
X109329000Y-49199000D02*
X107909000Y-49199000D01*
X100879000Y-48699000D02*
X100879000Y-49199000D01*
X109329000Y-41919000D02*
X109329000Y-41609000D01*
%TO.C,J8*%
X113476000Y-49189000D02*
X112056000Y-49189000D01*
X120506000Y-48689000D02*
X113476000Y-48689000D01*
X121926000Y-49189000D02*
X120506000Y-49189000D01*
X121926000Y-41909000D02*
X121926000Y-41599000D01*
X112056000Y-41599000D02*
X112056000Y-41909000D01*
X120506000Y-49189000D02*
X120506000Y-48689000D01*
X112056000Y-49189000D02*
X112056000Y-43429000D01*
X121926000Y-43429000D02*
X121926000Y-49189000D01*
X121926000Y-41599000D02*
X112056000Y-41599000D01*
X113476000Y-48689000D02*
X113476000Y-49189000D01*
%TO.C,J3*%
X82509000Y-53808000D02*
X83929000Y-53808000D01*
X74059000Y-53808000D02*
X75479000Y-53808000D01*
X74059000Y-61398000D02*
X83929000Y-61398000D01*
X82509000Y-54308000D02*
X82509000Y-53808000D01*
X74059000Y-59568000D02*
X74059000Y-53808000D01*
X75479000Y-53808000D02*
X75479000Y-54308000D01*
X75479000Y-54308000D02*
X82509000Y-54308000D01*
X74059000Y-61088000D02*
X74059000Y-61398000D01*
X83929000Y-53808000D02*
X83929000Y-59568000D01*
X83929000Y-61398000D02*
X83929000Y-61088000D01*
%TO.C,J9*%
X122029000Y-53798000D02*
X122029000Y-59558000D01*
X113579000Y-53798000D02*
X113579000Y-54298000D01*
X112159000Y-59558000D02*
X112159000Y-53798000D01*
X112159000Y-61078000D02*
X112159000Y-61388000D01*
X112159000Y-61388000D02*
X122029000Y-61388000D01*
X112159000Y-53798000D02*
X113579000Y-53798000D01*
X120609000Y-54298000D02*
X120609000Y-53798000D01*
X120609000Y-53798000D02*
X122029000Y-53798000D01*
X122029000Y-61388000D02*
X122029000Y-61078000D01*
X113579000Y-54298000D02*
X120609000Y-54298000D01*
%TO.C,J1*%
X63824000Y-50123000D02*
X64134000Y-50123000D01*
X71414000Y-50123000D02*
X65654000Y-50123000D01*
X63824000Y-40253000D02*
X63824000Y-50123000D01*
X71414000Y-48703000D02*
X71414000Y-50123000D01*
X64134000Y-40253000D02*
X63824000Y-40253000D01*
X70914000Y-41673000D02*
X70914000Y-48703000D01*
X65654000Y-40253000D02*
X71414000Y-40253000D01*
X71414000Y-40253000D02*
X71414000Y-41673000D01*
X71414000Y-41673000D02*
X70914000Y-41673000D01*
X70914000Y-48703000D02*
X71414000Y-48703000D01*
%TO.C,J2*%
X74059000Y-49199000D02*
X74059000Y-43439000D01*
X83929000Y-49199000D02*
X82509000Y-49199000D01*
X82509000Y-48699000D02*
X75479000Y-48699000D01*
X75479000Y-48699000D02*
X75479000Y-49199000D01*
X83929000Y-41609000D02*
X74059000Y-41609000D01*
X74059000Y-41609000D02*
X74059000Y-41919000D01*
X82509000Y-49199000D02*
X82509000Y-48699000D01*
X83929000Y-41919000D02*
X83929000Y-41609000D01*
X75479000Y-49199000D02*
X74059000Y-49199000D01*
X83929000Y-43439000D02*
X83929000Y-49199000D01*
%TO.C,J4*%
X88179000Y-48699000D02*
X88179000Y-49199000D01*
X88179000Y-49199000D02*
X86759000Y-49199000D01*
X95209000Y-49199000D02*
X95209000Y-48699000D01*
X86759000Y-41609000D02*
X86759000Y-41919000D01*
X96629000Y-43439000D02*
X96629000Y-49199000D01*
X96629000Y-41609000D02*
X86759000Y-41609000D01*
X95209000Y-48699000D02*
X88179000Y-48699000D01*
X96629000Y-41919000D02*
X96629000Y-41609000D01*
X96629000Y-49199000D02*
X95209000Y-49199000D01*
X86759000Y-49199000D02*
X86759000Y-43439000D01*
%TO.C,J11*%
X59877000Y-60076000D02*
X59877000Y-61406000D01*
X59877000Y-61406000D02*
X58547000Y-61406000D01*
X57217000Y-58806000D02*
X57217000Y-56206000D01*
X59877000Y-58806000D02*
X59877000Y-56206000D01*
X59877000Y-56206000D02*
X57217000Y-56206000D01*
X59877000Y-58806000D02*
X57217000Y-58806000D01*
%TD*%
M02*
