%TF.GenerationSoftware,KiCad,Pcbnew,6.0.1-79c1e3a40b~116~ubuntu20.04.1*%
%TF.CreationDate,2022-01-27T21:22:14+08:00*%
%TF.ProjectId,canbus_board,63616e62-7573-45f6-926f-6172642e6b69,rev?*%
%TF.SameCoordinates,Original*%
%TF.FileFunction,Legend,Bot*%
%TF.FilePolarity,Positive*%
%FSLAX46Y46*%
G04 Gerber Fmt 4.6, Leading zero omitted, Abs format (unit mm)*
G04 Created by KiCad (PCBNEW 6.0.1-79c1e3a40b~116~ubuntu20.04.1) date 2022-01-27 21:22:14*
%MOMM*%
%LPD*%
G01*
G04 APERTURE LIST*
%ADD10C,0.150000*%
G04 APERTURE END LIST*
D10*
X105352380Y-50012142D02*
X105400000Y-50059761D01*
X105542857Y-50107380D01*
X105638095Y-50107380D01*
X105780952Y-50059761D01*
X105876190Y-49964523D01*
X105923809Y-49869285D01*
X105971428Y-49678809D01*
X105971428Y-49535952D01*
X105923809Y-49345476D01*
X105876190Y-49250238D01*
X105780952Y-49155000D01*
X105638095Y-49107380D01*
X105542857Y-49107380D01*
X105400000Y-49155000D01*
X105352380Y-49202619D01*
X104971428Y-49821666D02*
X104495238Y-49821666D01*
X105066666Y-50107380D02*
X104733333Y-49107380D01*
X104400000Y-50107380D01*
X104066666Y-50107380D02*
X104066666Y-49107380D01*
X103495238Y-50107380D01*
X103495238Y-49107380D01*
X101923809Y-49583571D02*
X101780952Y-49631190D01*
X101733333Y-49678809D01*
X101685714Y-49774047D01*
X101685714Y-49916904D01*
X101733333Y-50012142D01*
X101780952Y-50059761D01*
X101876190Y-50107380D01*
X102257142Y-50107380D01*
X102257142Y-49107380D01*
X101923809Y-49107380D01*
X101828571Y-49155000D01*
X101780952Y-49202619D01*
X101733333Y-49297857D01*
X101733333Y-49393095D01*
X101780952Y-49488333D01*
X101828571Y-49535952D01*
X101923809Y-49583571D01*
X102257142Y-49583571D01*
X101257142Y-49107380D02*
X101257142Y-49916904D01*
X101209523Y-50012142D01*
X101161904Y-50059761D01*
X101066666Y-50107380D01*
X100876190Y-50107380D01*
X100780952Y-50059761D01*
X100733333Y-50012142D01*
X100685714Y-49916904D01*
X100685714Y-49107380D01*
X100257142Y-50059761D02*
X100114285Y-50107380D01*
X99876190Y-50107380D01*
X99780952Y-50059761D01*
X99733333Y-50012142D01*
X99685714Y-49916904D01*
X99685714Y-49821666D01*
X99733333Y-49726428D01*
X99780952Y-49678809D01*
X99876190Y-49631190D01*
X100066666Y-49583571D01*
X100161904Y-49535952D01*
X100209523Y-49488333D01*
X100257142Y-49393095D01*
X100257142Y-49297857D01*
X100209523Y-49202619D01*
X100161904Y-49155000D01*
X100066666Y-49107380D01*
X99828571Y-49107380D01*
X99685714Y-49155000D01*
X98161904Y-49583571D02*
X98019047Y-49631190D01*
X97971428Y-49678809D01*
X97923809Y-49774047D01*
X97923809Y-49916904D01*
X97971428Y-50012142D01*
X98019047Y-50059761D01*
X98114285Y-50107380D01*
X98495238Y-50107380D01*
X98495238Y-49107380D01*
X98161904Y-49107380D01*
X98066666Y-49155000D01*
X98019047Y-49202619D01*
X97971428Y-49297857D01*
X97971428Y-49393095D01*
X98019047Y-49488333D01*
X98066666Y-49535952D01*
X98161904Y-49583571D01*
X98495238Y-49583571D01*
X96923809Y-50107380D02*
X97257142Y-49631190D01*
X97495238Y-50107380D02*
X97495238Y-49107380D01*
X97114285Y-49107380D01*
X97019047Y-49155000D01*
X96971428Y-49202619D01*
X96923809Y-49297857D01*
X96923809Y-49440714D01*
X96971428Y-49535952D01*
X97019047Y-49583571D01*
X97114285Y-49631190D01*
X97495238Y-49631190D01*
X96542857Y-49821666D02*
X96066666Y-49821666D01*
X96638095Y-50107380D02*
X96304761Y-49107380D01*
X95971428Y-50107380D01*
X95638095Y-50107380D02*
X95638095Y-49107380D01*
X95066666Y-50107380D02*
X95495238Y-49535952D01*
X95066666Y-49107380D02*
X95638095Y-49678809D01*
X94638095Y-49583571D02*
X94304761Y-49583571D01*
X94161904Y-50107380D02*
X94638095Y-50107380D01*
X94638095Y-49107380D01*
X94161904Y-49107380D01*
X93542857Y-49107380D02*
X93352380Y-49107380D01*
X93257142Y-49155000D01*
X93161904Y-49250238D01*
X93114285Y-49440714D01*
X93114285Y-49774047D01*
X93161904Y-49964523D01*
X93257142Y-50059761D01*
X93352380Y-50107380D01*
X93542857Y-50107380D01*
X93638095Y-50059761D01*
X93733333Y-49964523D01*
X93780952Y-49774047D01*
X93780952Y-49440714D01*
X93733333Y-49250238D01*
X93638095Y-49155000D01*
X93542857Y-49107380D01*
X92685714Y-49107380D02*
X92685714Y-49916904D01*
X92638095Y-50012142D01*
X92590476Y-50059761D01*
X92495238Y-50107380D01*
X92304761Y-50107380D01*
X92209523Y-50059761D01*
X92161904Y-50012142D01*
X92114285Y-49916904D01*
X92114285Y-49107380D01*
X91780952Y-49107380D02*
X91209523Y-49107380D01*
X91495238Y-50107380D02*
X91495238Y-49107380D01*
X89780952Y-49583571D02*
X89638095Y-49631190D01*
X89590476Y-49678809D01*
X89542857Y-49774047D01*
X89542857Y-49916904D01*
X89590476Y-50012142D01*
X89638095Y-50059761D01*
X89733333Y-50107380D01*
X90114285Y-50107380D01*
X90114285Y-49107380D01*
X89780952Y-49107380D01*
X89685714Y-49155000D01*
X89638095Y-49202619D01*
X89590476Y-49297857D01*
X89590476Y-49393095D01*
X89638095Y-49488333D01*
X89685714Y-49535952D01*
X89780952Y-49583571D01*
X90114285Y-49583571D01*
X88923809Y-49107380D02*
X88733333Y-49107380D01*
X88638095Y-49155000D01*
X88542857Y-49250238D01*
X88495238Y-49440714D01*
X88495238Y-49774047D01*
X88542857Y-49964523D01*
X88638095Y-50059761D01*
X88733333Y-50107380D01*
X88923809Y-50107380D01*
X89019047Y-50059761D01*
X89114285Y-49964523D01*
X89161904Y-49774047D01*
X89161904Y-49440714D01*
X89114285Y-49250238D01*
X89019047Y-49155000D01*
X88923809Y-49107380D01*
X88114285Y-49821666D02*
X87638095Y-49821666D01*
X88209523Y-50107380D02*
X87876190Y-49107380D01*
X87542857Y-50107380D01*
X86638095Y-50107380D02*
X86971428Y-49631190D01*
X87209523Y-50107380D02*
X87209523Y-49107380D01*
X86828571Y-49107380D01*
X86733333Y-49155000D01*
X86685714Y-49202619D01*
X86638095Y-49297857D01*
X86638095Y-49440714D01*
X86685714Y-49535952D01*
X86733333Y-49583571D01*
X86828571Y-49631190D01*
X87209523Y-49631190D01*
X86209523Y-50107380D02*
X86209523Y-49107380D01*
X85971428Y-49107380D01*
X85828571Y-49155000D01*
X85733333Y-49250238D01*
X85685714Y-49345476D01*
X85638095Y-49535952D01*
X85638095Y-49678809D01*
X85685714Y-49869285D01*
X85733333Y-49964523D01*
X85828571Y-50059761D01*
X85971428Y-50107380D01*
X86209523Y-50107380D01*
X84447619Y-50107380D02*
X84447619Y-49107380D01*
X84114285Y-49821666D01*
X83780952Y-49107380D01*
X83780952Y-50107380D01*
X83114285Y-49107380D02*
X82923809Y-49107380D01*
X82828571Y-49155000D01*
X82733333Y-49250238D01*
X82685714Y-49440714D01*
X82685714Y-49774047D01*
X82733333Y-49964523D01*
X82828571Y-50059761D01*
X82923809Y-50107380D01*
X83114285Y-50107380D01*
X83209523Y-50059761D01*
X83304761Y-49964523D01*
X83352380Y-49774047D01*
X83352380Y-49440714D01*
X83304761Y-49250238D01*
X83209523Y-49155000D01*
X83114285Y-49107380D01*
X82257142Y-50107380D02*
X82257142Y-49107380D01*
X81685714Y-50107380D01*
X81685714Y-49107380D01*
X81209523Y-50107380D02*
X81209523Y-49107380D01*
X80638095Y-50107380D02*
X81066666Y-49535952D01*
X80638095Y-49107380D02*
X81209523Y-49678809D01*
X80209523Y-49583571D02*
X79876190Y-49583571D01*
X79733333Y-50107380D02*
X80209523Y-50107380D01*
X80209523Y-49107380D01*
X79733333Y-49107380D01*
X79114285Y-49631190D02*
X79114285Y-50107380D01*
X79447619Y-49107380D02*
X79114285Y-49631190D01*
X78780952Y-49107380D01*
X77828571Y-49107380D02*
X77495238Y-50107380D01*
X77161904Y-49107380D01*
X76828571Y-49583571D02*
X76495238Y-49583571D01*
X76352380Y-50107380D02*
X76828571Y-50107380D01*
X76828571Y-49107380D01*
X76352380Y-49107380D01*
X75352380Y-50107380D02*
X75685714Y-49631190D01*
X75923809Y-50107380D02*
X75923809Y-49107380D01*
X75542857Y-49107380D01*
X75447619Y-49155000D01*
X75400000Y-49202619D01*
X75352380Y-49297857D01*
X75352380Y-49440714D01*
X75400000Y-49535952D01*
X75447619Y-49583571D01*
X75542857Y-49631190D01*
X75923809Y-49631190D01*
X74971428Y-50059761D02*
X74828571Y-50107380D01*
X74590476Y-50107380D01*
X74495238Y-50059761D01*
X74447619Y-50012142D01*
X74400000Y-49916904D01*
X74400000Y-49821666D01*
X74447619Y-49726428D01*
X74495238Y-49678809D01*
X74590476Y-49631190D01*
X74780952Y-49583571D01*
X74876190Y-49535952D01*
X74923809Y-49488333D01*
X74971428Y-49393095D01*
X74971428Y-49297857D01*
X74923809Y-49202619D01*
X74876190Y-49155000D01*
X74780952Y-49107380D01*
X74542857Y-49107380D01*
X74400000Y-49155000D01*
X73971428Y-50107380D02*
X73971428Y-49107380D01*
X73304761Y-49107380D02*
X73114285Y-49107380D01*
X73019047Y-49155000D01*
X72923809Y-49250238D01*
X72876190Y-49440714D01*
X72876190Y-49774047D01*
X72923809Y-49964523D01*
X73019047Y-50059761D01*
X73114285Y-50107380D01*
X73304761Y-50107380D01*
X73400000Y-50059761D01*
X73495238Y-49964523D01*
X73542857Y-49774047D01*
X73542857Y-49440714D01*
X73495238Y-49250238D01*
X73400000Y-49155000D01*
X73304761Y-49107380D01*
X72447619Y-50107380D02*
X72447619Y-49107380D01*
X71876190Y-50107380D01*
X71876190Y-49107380D01*
X91352380Y-51717380D02*
X91685714Y-51241190D01*
X91923809Y-51717380D02*
X91923809Y-50717380D01*
X91542857Y-50717380D01*
X91447619Y-50765000D01*
X91400000Y-50812619D01*
X91352380Y-50907857D01*
X91352380Y-51050714D01*
X91400000Y-51145952D01*
X91447619Y-51193571D01*
X91542857Y-51241190D01*
X91923809Y-51241190D01*
X90542857Y-51669761D02*
X90638095Y-51717380D01*
X90828571Y-51717380D01*
X90923809Y-51669761D01*
X90971428Y-51574523D01*
X90971428Y-51193571D01*
X90923809Y-51098333D01*
X90828571Y-51050714D01*
X90638095Y-51050714D01*
X90542857Y-51098333D01*
X90495238Y-51193571D01*
X90495238Y-51288809D01*
X90971428Y-51384047D01*
X90161904Y-51050714D02*
X89923809Y-51717380D01*
X89685714Y-51050714D01*
X88019047Y-51717380D02*
X88590476Y-51717380D01*
X88304761Y-51717380D02*
X88304761Y-50717380D01*
X88400000Y-50860238D01*
X88495238Y-50955476D01*
X88590476Y-51003095D01*
X87590476Y-51622142D02*
X87542857Y-51669761D01*
X87590476Y-51717380D01*
X87638095Y-51669761D01*
X87590476Y-51622142D01*
X87590476Y-51717380D01*
X86923809Y-50717380D02*
X86828571Y-50717380D01*
X86733333Y-50765000D01*
X86685714Y-50812619D01*
X86638095Y-50907857D01*
X86590476Y-51098333D01*
X86590476Y-51336428D01*
X86638095Y-51526904D01*
X86685714Y-51622142D01*
X86733333Y-51669761D01*
X86828571Y-51717380D01*
X86923809Y-51717380D01*
X87019047Y-51669761D01*
X87066666Y-51622142D01*
X87114285Y-51526904D01*
X87161904Y-51336428D01*
X87161904Y-51098333D01*
X87114285Y-50907857D01*
X87066666Y-50812619D01*
X87019047Y-50765000D01*
X86923809Y-50717380D01*
X101257142Y-52803571D02*
X101590476Y-52803571D01*
X101590476Y-53327380D02*
X101590476Y-52327380D01*
X101114285Y-52327380D01*
X100590476Y-53327380D02*
X100685714Y-53279761D01*
X100733333Y-53232142D01*
X100780952Y-53136904D01*
X100780952Y-52851190D01*
X100733333Y-52755952D01*
X100685714Y-52708333D01*
X100590476Y-52660714D01*
X100447619Y-52660714D01*
X100352380Y-52708333D01*
X100304761Y-52755952D01*
X100257142Y-52851190D01*
X100257142Y-53136904D01*
X100304761Y-53232142D01*
X100352380Y-53279761D01*
X100447619Y-53327380D01*
X100590476Y-53327380D01*
X99685714Y-53327380D02*
X99780952Y-53279761D01*
X99828571Y-53184523D01*
X99828571Y-52327380D01*
X99161904Y-53327380D02*
X99257142Y-53279761D01*
X99304761Y-53184523D01*
X99304761Y-52327380D01*
X98638095Y-53327380D02*
X98733333Y-53279761D01*
X98780952Y-53232142D01*
X98828571Y-53136904D01*
X98828571Y-52851190D01*
X98780952Y-52755952D01*
X98733333Y-52708333D01*
X98638095Y-52660714D01*
X98495238Y-52660714D01*
X98400000Y-52708333D01*
X98352380Y-52755952D01*
X98304761Y-52851190D01*
X98304761Y-53136904D01*
X98352380Y-53232142D01*
X98400000Y-53279761D01*
X98495238Y-53327380D01*
X98638095Y-53327380D01*
X97971428Y-52660714D02*
X97780952Y-53327380D01*
X97590476Y-52851190D01*
X97400000Y-53327380D01*
X97209523Y-52660714D01*
X96066666Y-53327380D02*
X96066666Y-52327380D01*
X95066666Y-52375000D02*
X95161904Y-52327380D01*
X95304761Y-52327380D01*
X95447619Y-52375000D01*
X95542857Y-52470238D01*
X95590476Y-52565476D01*
X95638095Y-52755952D01*
X95638095Y-52898809D01*
X95590476Y-53089285D01*
X95542857Y-53184523D01*
X95447619Y-53279761D01*
X95304761Y-53327380D01*
X95209523Y-53327380D01*
X95066666Y-53279761D01*
X95019047Y-53232142D01*
X95019047Y-52898809D01*
X95209523Y-52898809D01*
X94066666Y-52375000D02*
X94161904Y-52327380D01*
X94304761Y-52327380D01*
X94447619Y-52375000D01*
X94542857Y-52470238D01*
X94590476Y-52565476D01*
X94638095Y-52755952D01*
X94638095Y-52898809D01*
X94590476Y-53089285D01*
X94542857Y-53184523D01*
X94447619Y-53279761D01*
X94304761Y-53327380D01*
X94209523Y-53327380D01*
X94066666Y-53279761D01*
X94019047Y-53232142D01*
X94019047Y-52898809D01*
X94209523Y-52898809D01*
X93066666Y-52375000D02*
X93161904Y-52327380D01*
X93304761Y-52327380D01*
X93447619Y-52375000D01*
X93542857Y-52470238D01*
X93590476Y-52565476D01*
X93638095Y-52755952D01*
X93638095Y-52898809D01*
X93590476Y-53089285D01*
X93542857Y-53184523D01*
X93447619Y-53279761D01*
X93304761Y-53327380D01*
X93209523Y-53327380D01*
X93066666Y-53279761D01*
X93019047Y-53232142D01*
X93019047Y-52898809D01*
X93209523Y-52898809D01*
X92590476Y-52946428D02*
X91828571Y-52946428D01*
X90923809Y-53279761D02*
X91019047Y-53327380D01*
X91209523Y-53327380D01*
X91304761Y-53279761D01*
X91352380Y-53232142D01*
X91400000Y-53136904D01*
X91400000Y-52851190D01*
X91352380Y-52755952D01*
X91304761Y-52708333D01*
X91209523Y-52660714D01*
X91019047Y-52660714D01*
X90923809Y-52708333D01*
X90066666Y-53327380D02*
X90066666Y-52803571D01*
X90114285Y-52708333D01*
X90209523Y-52660714D01*
X90400000Y-52660714D01*
X90495238Y-52708333D01*
X90066666Y-53279761D02*
X90161904Y-53327380D01*
X90400000Y-53327380D01*
X90495238Y-53279761D01*
X90542857Y-53184523D01*
X90542857Y-53089285D01*
X90495238Y-52994047D01*
X90400000Y-52946428D01*
X90161904Y-52946428D01*
X90066666Y-52898809D01*
X89590476Y-52660714D02*
X89590476Y-53327380D01*
X89590476Y-52755952D02*
X89542857Y-52708333D01*
X89447619Y-52660714D01*
X89304761Y-52660714D01*
X89209523Y-52708333D01*
X89161904Y-52803571D01*
X89161904Y-53327380D01*
X88685714Y-52946428D02*
X87923809Y-52946428D01*
X87447619Y-53327380D02*
X87447619Y-52660714D01*
X87447619Y-52755952D02*
X87400000Y-52708333D01*
X87304761Y-52660714D01*
X87161904Y-52660714D01*
X87066666Y-52708333D01*
X87019047Y-52803571D01*
X87019047Y-53327380D01*
X87019047Y-52803571D02*
X86971428Y-52708333D01*
X86876190Y-52660714D01*
X86733333Y-52660714D01*
X86638095Y-52708333D01*
X86590476Y-52803571D01*
X86590476Y-53327380D01*
X85971428Y-53327380D02*
X86066666Y-53279761D01*
X86114285Y-53232142D01*
X86161904Y-53136904D01*
X86161904Y-52851190D01*
X86114285Y-52755952D01*
X86066666Y-52708333D01*
X85971428Y-52660714D01*
X85828571Y-52660714D01*
X85733333Y-52708333D01*
X85685714Y-52755952D01*
X85638095Y-52851190D01*
X85638095Y-53136904D01*
X85685714Y-53232142D01*
X85733333Y-53279761D01*
X85828571Y-53327380D01*
X85971428Y-53327380D01*
X85066666Y-53327380D02*
X85161904Y-53279761D01*
X85209523Y-53184523D01*
X85209523Y-52327380D01*
X84304761Y-53279761D02*
X84400000Y-53327380D01*
X84590476Y-53327380D01*
X84685714Y-53279761D01*
X84733333Y-53184523D01*
X84733333Y-52803571D01*
X84685714Y-52708333D01*
X84590476Y-52660714D01*
X84400000Y-52660714D01*
X84304761Y-52708333D01*
X84257142Y-52803571D01*
X84257142Y-52898809D01*
X84733333Y-52994047D01*
X83923809Y-53327380D02*
X83400000Y-52660714D01*
X83923809Y-52660714D02*
X83400000Y-53327380D01*
X82304761Y-53279761D02*
X82209523Y-53327380D01*
X82019047Y-53327380D01*
X81923809Y-53279761D01*
X81876190Y-53184523D01*
X81876190Y-53136904D01*
X81923809Y-53041666D01*
X82019047Y-52994047D01*
X82161904Y-52994047D01*
X82257142Y-52946428D01*
X82304761Y-52851190D01*
X82304761Y-52803571D01*
X82257142Y-52708333D01*
X82161904Y-52660714D01*
X82019047Y-52660714D01*
X81923809Y-52708333D01*
X81590476Y-52660714D02*
X81209523Y-52660714D01*
X81447619Y-52327380D02*
X81447619Y-53184523D01*
X81400000Y-53279761D01*
X81304761Y-53327380D01*
X81209523Y-53327380D01*
X80447619Y-53327380D02*
X80447619Y-52803571D01*
X80495238Y-52708333D01*
X80590476Y-52660714D01*
X80780952Y-52660714D01*
X80876190Y-52708333D01*
X80447619Y-53279761D02*
X80542857Y-53327380D01*
X80780952Y-53327380D01*
X80876190Y-53279761D01*
X80923809Y-53184523D01*
X80923809Y-53089285D01*
X80876190Y-52994047D01*
X80780952Y-52946428D01*
X80542857Y-52946428D01*
X80447619Y-52898809D01*
X79971428Y-52660714D02*
X79971428Y-53327380D01*
X79971428Y-52755952D02*
X79923809Y-52708333D01*
X79828571Y-52660714D01*
X79685714Y-52660714D01*
X79590476Y-52708333D01*
X79542857Y-52803571D01*
X79542857Y-53327380D01*
X78638095Y-53327380D02*
X78638095Y-52327380D01*
X78638095Y-53279761D02*
X78733333Y-53327380D01*
X78923809Y-53327380D01*
X79019047Y-53279761D01*
X79066666Y-53232142D01*
X79114285Y-53136904D01*
X79114285Y-52851190D01*
X79066666Y-52755952D01*
X79019047Y-52708333D01*
X78923809Y-52660714D01*
X78733333Y-52660714D01*
X78638095Y-52708333D01*
X77733333Y-53327380D02*
X77733333Y-52803571D01*
X77780952Y-52708333D01*
X77876190Y-52660714D01*
X78066666Y-52660714D01*
X78161904Y-52708333D01*
X77733333Y-53279761D02*
X77828571Y-53327380D01*
X78066666Y-53327380D01*
X78161904Y-53279761D01*
X78209523Y-53184523D01*
X78209523Y-53089285D01*
X78161904Y-52994047D01*
X78066666Y-52946428D01*
X77828571Y-52946428D01*
X77733333Y-52898809D01*
X77257142Y-53327380D02*
X77257142Y-52660714D01*
X77257142Y-52851190D02*
X77209523Y-52755952D01*
X77161904Y-52708333D01*
X77066666Y-52660714D01*
X76971428Y-52660714D01*
X76209523Y-53327380D02*
X76209523Y-52327380D01*
X76209523Y-53279761D02*
X76304761Y-53327380D01*
X76495238Y-53327380D01*
X76590476Y-53279761D01*
X76638095Y-53232142D01*
X76685714Y-53136904D01*
X76685714Y-52851190D01*
X76638095Y-52755952D01*
X76590476Y-52708333D01*
X76495238Y-52660714D01*
X76304761Y-52660714D01*
X76209523Y-52708333D01*
X95400000Y-54937380D02*
X95400000Y-53937380D01*
X95400000Y-54318333D02*
X95304761Y-54270714D01*
X95114285Y-54270714D01*
X95019047Y-54318333D01*
X94971428Y-54365952D01*
X94923809Y-54461190D01*
X94923809Y-54746904D01*
X94971428Y-54842142D01*
X95019047Y-54889761D01*
X95114285Y-54937380D01*
X95304761Y-54937380D01*
X95400000Y-54889761D01*
X94590476Y-54270714D02*
X94352380Y-54937380D01*
X94114285Y-54270714D02*
X94352380Y-54937380D01*
X94447619Y-55175476D01*
X94495238Y-55223095D01*
X94590476Y-55270714D01*
X93019047Y-54889761D02*
X92876190Y-54937380D01*
X92638095Y-54937380D01*
X92542857Y-54889761D01*
X92495238Y-54842142D01*
X92447619Y-54746904D01*
X92447619Y-54651666D01*
X92495238Y-54556428D01*
X92542857Y-54508809D01*
X92638095Y-54461190D01*
X92828571Y-54413571D01*
X92923809Y-54365952D01*
X92971428Y-54318333D01*
X93019047Y-54223095D01*
X93019047Y-54127857D01*
X92971428Y-54032619D01*
X92923809Y-53985000D01*
X92828571Y-53937380D01*
X92590476Y-53937380D01*
X92447619Y-53985000D01*
X91590476Y-54937380D02*
X91590476Y-54413571D01*
X91638095Y-54318333D01*
X91733333Y-54270714D01*
X91923809Y-54270714D01*
X92019047Y-54318333D01*
X91590476Y-54889761D02*
X91685714Y-54937380D01*
X91923809Y-54937380D01*
X92019047Y-54889761D01*
X92066666Y-54794523D01*
X92066666Y-54699285D01*
X92019047Y-54604047D01*
X91923809Y-54556428D01*
X91685714Y-54556428D01*
X91590476Y-54508809D01*
X91114285Y-54937380D02*
X91114285Y-54270714D01*
X91114285Y-54365952D02*
X91066666Y-54318333D01*
X90971428Y-54270714D01*
X90828571Y-54270714D01*
X90733333Y-54318333D01*
X90685714Y-54413571D01*
X90685714Y-54937380D01*
X90685714Y-54413571D02*
X90638095Y-54318333D01*
X90542857Y-54270714D01*
X90400000Y-54270714D01*
X90304761Y-54318333D01*
X90257142Y-54413571D01*
X90257142Y-54937380D01*
X89828571Y-54889761D02*
X89733333Y-54937380D01*
X89542857Y-54937380D01*
X89447619Y-54889761D01*
X89400000Y-54794523D01*
X89400000Y-54746904D01*
X89447619Y-54651666D01*
X89542857Y-54604047D01*
X89685714Y-54604047D01*
X89780952Y-54556428D01*
X89828571Y-54461190D01*
X89828571Y-54413571D01*
X89780952Y-54318333D01*
X89685714Y-54270714D01*
X89542857Y-54270714D01*
X89447619Y-54318333D01*
X88828571Y-54937380D02*
X88923809Y-54889761D01*
X88971428Y-54842142D01*
X89019047Y-54746904D01*
X89019047Y-54461190D01*
X88971428Y-54365952D01*
X88923809Y-54318333D01*
X88828571Y-54270714D01*
X88685714Y-54270714D01*
X88590476Y-54318333D01*
X88542857Y-54365952D01*
X88495238Y-54461190D01*
X88495238Y-54746904D01*
X88542857Y-54842142D01*
X88590476Y-54889761D01*
X88685714Y-54937380D01*
X88828571Y-54937380D01*
X88066666Y-54270714D02*
X88066666Y-54937380D01*
X88066666Y-54365952D02*
X88019047Y-54318333D01*
X87923809Y-54270714D01*
X87780952Y-54270714D01*
X87685714Y-54318333D01*
X87638095Y-54413571D01*
X87638095Y-54937380D01*
X85828571Y-54842142D02*
X85876190Y-54889761D01*
X86019047Y-54937380D01*
X86114285Y-54937380D01*
X86257142Y-54889761D01*
X86352380Y-54794523D01*
X86400000Y-54699285D01*
X86447619Y-54508809D01*
X86447619Y-54365952D01*
X86400000Y-54175476D01*
X86352380Y-54080238D01*
X86257142Y-53985000D01*
X86114285Y-53937380D01*
X86019047Y-53937380D01*
X85876190Y-53985000D01*
X85828571Y-54032619D01*
X85400000Y-54937380D02*
X85400000Y-53937380D01*
X84971428Y-54937380D02*
X84971428Y-54413571D01*
X85019047Y-54318333D01*
X85114285Y-54270714D01*
X85257142Y-54270714D01*
X85352380Y-54318333D01*
X85400000Y-54365952D01*
X84066666Y-54937380D02*
X84066666Y-54413571D01*
X84114285Y-54318333D01*
X84209523Y-54270714D01*
X84400000Y-54270714D01*
X84495238Y-54318333D01*
X84066666Y-54889761D02*
X84161904Y-54937380D01*
X84400000Y-54937380D01*
X84495238Y-54889761D01*
X84542857Y-54794523D01*
X84542857Y-54699285D01*
X84495238Y-54604047D01*
X84400000Y-54556428D01*
X84161904Y-54556428D01*
X84066666Y-54508809D01*
X83161904Y-54270714D02*
X83161904Y-54937380D01*
X83590476Y-54270714D02*
X83590476Y-54794523D01*
X83542857Y-54889761D01*
X83447619Y-54937380D01*
X83304761Y-54937380D01*
X83209523Y-54889761D01*
X83161904Y-54842142D01*
M02*
