G04 #@! TF.GenerationSoftware,KiCad,Pcbnew,6.0.1-79c1e3a40b~116~ubuntu18.04.1*
G04 #@! TF.CreationDate,2022-02-08T11:35:10+08:00*
G04 #@! TF.ProjectId,canbus_board,63616e62-7573-45f6-926f-6172642e6b69,rev?*
G04 #@! TF.SameCoordinates,Original*
G04 #@! TF.FileFunction,Legend,Top*
G04 #@! TF.FilePolarity,Positive*
%FSLAX46Y46*%
G04 Gerber Fmt 4.6, Leading zero omitted, Abs format (unit mm)*
G04 Created by KiCad (PCBNEW 6.0.1-79c1e3a40b~116~ubuntu18.04.1) date 2022-02-08 11:35:10*
%MOMM*%
%LPD*%
G01*
G04 APERTURE LIST*
G04 Aperture macros list*
%AMRoundRect*
0 Rectangle with rounded corners*
0 $1 Rounding radius*
0 $2 $3 $4 $5 $6 $7 $8 $9 X,Y pos of 4 corners*
0 Add a 4 corners polygon primitive as box body*
4,1,4,$2,$3,$4,$5,$6,$7,$8,$9,$2,$3,0*
0 Add four circle primitives for the rounded corners*
1,1,$1+$1,$2,$3*
1,1,$1+$1,$4,$5*
1,1,$1+$1,$6,$7*
1,1,$1+$1,$8,$9*
0 Add four rect primitives between the rounded corners*
20,1,$1+$1,$2,$3,$4,$5,0*
20,1,$1+$1,$4,$5,$6,$7,0*
20,1,$1+$1,$6,$7,$8,$9,0*
20,1,$1+$1,$8,$9,$2,$3,0*%
G04 Aperture macros list end*
%ADD10C,0.250000*%
%ADD11C,0.200000*%
%ADD12C,0.150000*%
%ADD13C,0.125000*%
%ADD14C,0.120000*%
%ADD15C,1.000000*%
%ADD16RoundRect,0.250001X-0.499999X0.499999X-0.499999X-0.499999X0.499999X-0.499999X0.499999X0.499999X0*%
%ADD17C,1.500000*%
%ADD18RoundRect,0.250001X-0.499999X-0.499999X0.499999X-0.499999X0.499999X0.499999X-0.499999X0.499999X0*%
%ADD19RoundRect,0.250001X0.499999X0.499999X-0.499999X0.499999X-0.499999X-0.499999X0.499999X-0.499999X0*%
%ADD20R,1.700000X1.700000*%
%ADD21O,1.700000X1.700000*%
%ADD22RoundRect,0.250000X-0.350000X-0.450000X0.350000X-0.450000X0.350000X0.450000X-0.350000X0.450000X0*%
G04 APERTURE END LIST*
D10*
X86789142Y-65258380D02*
X86598666Y-65258380D01*
X86503428Y-65306000D01*
X86455809Y-65353619D01*
X86360571Y-65496476D01*
X86312952Y-65686952D01*
X86312952Y-66067904D01*
X86360571Y-66163142D01*
X86408190Y-66210761D01*
X86503428Y-66258380D01*
X86693904Y-66258380D01*
X86789142Y-66210761D01*
X86836761Y-66163142D01*
X86884380Y-66067904D01*
X86884380Y-65829809D01*
X86836761Y-65734571D01*
X86789142Y-65686952D01*
X86693904Y-65639333D01*
X86503428Y-65639333D01*
X86408190Y-65686952D01*
X86360571Y-65734571D01*
X86312952Y-65829809D01*
X87455809Y-65686952D02*
X87360571Y-65639333D01*
X87312952Y-65591714D01*
X87265333Y-65496476D01*
X87265333Y-65448857D01*
X87312952Y-65353619D01*
X87360571Y-65306000D01*
X87455809Y-65258380D01*
X87646285Y-65258380D01*
X87741523Y-65306000D01*
X87789142Y-65353619D01*
X87836761Y-65448857D01*
X87836761Y-65496476D01*
X87789142Y-65591714D01*
X87741523Y-65639333D01*
X87646285Y-65686952D01*
X87455809Y-65686952D01*
X87360571Y-65734571D01*
X87312952Y-65782190D01*
X87265333Y-65877428D01*
X87265333Y-66067904D01*
X87312952Y-66163142D01*
X87360571Y-66210761D01*
X87455809Y-66258380D01*
X87646285Y-66258380D01*
X87741523Y-66210761D01*
X87789142Y-66163142D01*
X87836761Y-66067904D01*
X87836761Y-65877428D01*
X87789142Y-65782190D01*
X87741523Y-65734571D01*
X87646285Y-65686952D01*
X88265333Y-66163142D02*
X88312952Y-66210761D01*
X88265333Y-66258380D01*
X88217714Y-66210761D01*
X88265333Y-66163142D01*
X88265333Y-66258380D01*
X88932000Y-65258380D02*
X89027238Y-65258380D01*
X89122476Y-65306000D01*
X89170095Y-65353619D01*
X89217714Y-65448857D01*
X89265333Y-65639333D01*
X89265333Y-65877428D01*
X89217714Y-66067904D01*
X89170095Y-66163142D01*
X89122476Y-66210761D01*
X89027238Y-66258380D01*
X88932000Y-66258380D01*
X88836761Y-66210761D01*
X88789142Y-66163142D01*
X88741523Y-66067904D01*
X88693904Y-65877428D01*
X88693904Y-65639333D01*
X88741523Y-65448857D01*
X88789142Y-65353619D01*
X88836761Y-65306000D01*
X88932000Y-65258380D01*
X89598666Y-65258380D02*
X90265333Y-65258380D01*
X89836761Y-66258380D01*
X90598666Y-65353619D02*
X90646285Y-65306000D01*
X90741523Y-65258380D01*
X90979619Y-65258380D01*
X91074857Y-65306000D01*
X91122476Y-65353619D01*
X91170095Y-65448857D01*
X91170095Y-65544095D01*
X91122476Y-65686952D01*
X90551047Y-66258380D01*
X91170095Y-66258380D01*
X91789142Y-65258380D02*
X91884380Y-65258380D01*
X91979619Y-65306000D01*
X92027238Y-65353619D01*
X92074857Y-65448857D01*
X92122476Y-65639333D01*
X92122476Y-65877428D01*
X92074857Y-66067904D01*
X92027238Y-66163142D01*
X91979619Y-66210761D01*
X91884380Y-66258380D01*
X91789142Y-66258380D01*
X91693904Y-66210761D01*
X91646285Y-66163142D01*
X91598666Y-66067904D01*
X91551047Y-65877428D01*
X91551047Y-65639333D01*
X91598666Y-65448857D01*
X91646285Y-65353619D01*
X91693904Y-65306000D01*
X91789142Y-65258380D01*
X93312952Y-66258380D02*
X93312952Y-65591714D01*
X93312952Y-65686952D02*
X93360571Y-65639333D01*
X93455809Y-65591714D01*
X93598666Y-65591714D01*
X93693904Y-65639333D01*
X93741523Y-65734571D01*
X93741523Y-66258380D01*
X93741523Y-65734571D02*
X93789142Y-65639333D01*
X93884380Y-65591714D01*
X94027238Y-65591714D01*
X94122476Y-65639333D01*
X94170095Y-65734571D01*
X94170095Y-66258380D01*
X94646285Y-66258380D02*
X94646285Y-65591714D01*
X94646285Y-65686952D02*
X94693904Y-65639333D01*
X94789142Y-65591714D01*
X94932000Y-65591714D01*
X95027238Y-65639333D01*
X95074857Y-65734571D01*
X95074857Y-66258380D01*
X95074857Y-65734571D02*
X95122476Y-65639333D01*
X95217714Y-65591714D01*
X95360571Y-65591714D01*
X95455809Y-65639333D01*
X95503428Y-65734571D01*
X95503428Y-66258380D01*
D11*
X124968000Y-67556000D02*
X124968000Y-67642420D01*
X56896000Y-67556000D02*
X56896000Y-67642420D01*
X124968000Y-67056000D02*
X56896000Y-67056000D01*
X124968000Y-67056000D02*
X56896000Y-67056000D01*
X124968000Y-67056000D02*
X123841496Y-66469579D01*
X124968000Y-67056000D02*
X123841496Y-67642421D01*
X56896000Y-67056000D02*
X58022504Y-67642421D01*
X56896000Y-67056000D02*
X58022504Y-66469579D01*
D12*
X82400380Y-36933142D02*
X82352761Y-36980761D01*
X82209904Y-37028380D01*
X82114666Y-37028380D01*
X81971809Y-36980761D01*
X81876571Y-36885523D01*
X81828952Y-36790285D01*
X81781333Y-36599809D01*
X81781333Y-36456952D01*
X81828952Y-36266476D01*
X81876571Y-36171238D01*
X81971809Y-36076000D01*
X82114666Y-36028380D01*
X82209904Y-36028380D01*
X82352761Y-36076000D01*
X82400380Y-36123619D01*
X82781333Y-36742666D02*
X83257523Y-36742666D01*
X82686095Y-37028380D02*
X83019428Y-36028380D01*
X83352761Y-37028380D01*
X83686095Y-37028380D02*
X83686095Y-36028380D01*
X84257523Y-37028380D01*
X84257523Y-36028380D01*
X84495619Y-37123619D02*
X85257523Y-37123619D01*
X85828952Y-36504571D02*
X85971809Y-36552190D01*
X86019428Y-36599809D01*
X86067047Y-36695047D01*
X86067047Y-36837904D01*
X86019428Y-36933142D01*
X85971809Y-36980761D01*
X85876571Y-37028380D01*
X85495619Y-37028380D01*
X85495619Y-36028380D01*
X85828952Y-36028380D01*
X85924190Y-36076000D01*
X85971809Y-36123619D01*
X86019428Y-36218857D01*
X86019428Y-36314095D01*
X85971809Y-36409333D01*
X85924190Y-36456952D01*
X85828952Y-36504571D01*
X85495619Y-36504571D01*
X86495619Y-36028380D02*
X86495619Y-36837904D01*
X86543238Y-36933142D01*
X86590857Y-36980761D01*
X86686095Y-37028380D01*
X86876571Y-37028380D01*
X86971809Y-36980761D01*
X87019428Y-36933142D01*
X87067047Y-36837904D01*
X87067047Y-36028380D01*
X87495619Y-36980761D02*
X87638476Y-37028380D01*
X87876571Y-37028380D01*
X87971809Y-36980761D01*
X88019428Y-36933142D01*
X88067047Y-36837904D01*
X88067047Y-36742666D01*
X88019428Y-36647428D01*
X87971809Y-36599809D01*
X87876571Y-36552190D01*
X87686095Y-36504571D01*
X87590857Y-36456952D01*
X87543238Y-36409333D01*
X87495619Y-36314095D01*
X87495619Y-36218857D01*
X87543238Y-36123619D01*
X87590857Y-36076000D01*
X87686095Y-36028380D01*
X87924190Y-36028380D01*
X88067047Y-36076000D01*
X88257523Y-37123619D02*
X89019428Y-37123619D01*
X89590857Y-36504571D02*
X89733714Y-36552190D01*
X89781333Y-36599809D01*
X89828952Y-36695047D01*
X89828952Y-36837904D01*
X89781333Y-36933142D01*
X89733714Y-36980761D01*
X89638476Y-37028380D01*
X89257523Y-37028380D01*
X89257523Y-36028380D01*
X89590857Y-36028380D01*
X89686095Y-36076000D01*
X89733714Y-36123619D01*
X89781333Y-36218857D01*
X89781333Y-36314095D01*
X89733714Y-36409333D01*
X89686095Y-36456952D01*
X89590857Y-36504571D01*
X89257523Y-36504571D01*
X90828952Y-37028380D02*
X90495619Y-36552190D01*
X90257523Y-37028380D02*
X90257523Y-36028380D01*
X90638476Y-36028380D01*
X90733714Y-36076000D01*
X90781333Y-36123619D01*
X90828952Y-36218857D01*
X90828952Y-36361714D01*
X90781333Y-36456952D01*
X90733714Y-36504571D01*
X90638476Y-36552190D01*
X90257523Y-36552190D01*
X91209904Y-36742666D02*
X91686095Y-36742666D01*
X91114666Y-37028380D02*
X91447999Y-36028380D01*
X91781333Y-37028380D01*
X92114666Y-37028380D02*
X92114666Y-36028380D01*
X92686095Y-37028380D02*
X92257523Y-36456952D01*
X92686095Y-36028380D02*
X92114666Y-36599809D01*
X93114666Y-36504571D02*
X93447999Y-36504571D01*
X93590857Y-37028380D02*
X93114666Y-37028380D01*
X93114666Y-36028380D01*
X93590857Y-36028380D01*
X94209904Y-36028380D02*
X94400380Y-36028380D01*
X94495619Y-36076000D01*
X94590857Y-36171238D01*
X94638476Y-36361714D01*
X94638476Y-36695047D01*
X94590857Y-36885523D01*
X94495619Y-36980761D01*
X94400380Y-37028380D01*
X94209904Y-37028380D01*
X94114666Y-36980761D01*
X94019428Y-36885523D01*
X93971809Y-36695047D01*
X93971809Y-36361714D01*
X94019428Y-36171238D01*
X94114666Y-36076000D01*
X94209904Y-36028380D01*
X95067047Y-36028380D02*
X95067047Y-36837904D01*
X95114666Y-36933142D01*
X95162285Y-36980761D01*
X95257523Y-37028380D01*
X95447999Y-37028380D01*
X95543238Y-36980761D01*
X95590857Y-36933142D01*
X95638476Y-36837904D01*
X95638476Y-36028380D01*
X95971809Y-36028380D02*
X96543238Y-36028380D01*
X96257523Y-37028380D02*
X96257523Y-36028380D01*
X96638476Y-37123619D02*
X97400380Y-37123619D01*
X97971809Y-36504571D02*
X98114666Y-36552190D01*
X98162285Y-36599809D01*
X98209904Y-36695047D01*
X98209904Y-36837904D01*
X98162285Y-36933142D01*
X98114666Y-36980761D01*
X98019428Y-37028380D01*
X97638476Y-37028380D01*
X97638476Y-36028380D01*
X97971809Y-36028380D01*
X98067047Y-36076000D01*
X98114666Y-36123619D01*
X98162285Y-36218857D01*
X98162285Y-36314095D01*
X98114666Y-36409333D01*
X98067047Y-36456952D01*
X97971809Y-36504571D01*
X97638476Y-36504571D01*
X98828952Y-36028380D02*
X99019428Y-36028380D01*
X99114666Y-36076000D01*
X99209904Y-36171238D01*
X99257523Y-36361714D01*
X99257523Y-36695047D01*
X99209904Y-36885523D01*
X99114666Y-36980761D01*
X99019428Y-37028380D01*
X98828952Y-37028380D01*
X98733714Y-36980761D01*
X98638476Y-36885523D01*
X98590857Y-36695047D01*
X98590857Y-36361714D01*
X98638476Y-36171238D01*
X98733714Y-36076000D01*
X98828952Y-36028380D01*
X99638476Y-36742666D02*
X100114666Y-36742666D01*
X99543238Y-37028380D02*
X99876571Y-36028380D01*
X100209904Y-37028380D01*
X101114666Y-37028380D02*
X100781333Y-36552190D01*
X100543238Y-37028380D02*
X100543238Y-36028380D01*
X100924190Y-36028380D01*
X101019428Y-36076000D01*
X101067047Y-36123619D01*
X101114666Y-36218857D01*
X101114666Y-36361714D01*
X101067047Y-36456952D01*
X101019428Y-36504571D01*
X100924190Y-36552190D01*
X100543238Y-36552190D01*
X101543238Y-37028380D02*
X101543238Y-36028380D01*
X101781333Y-36028380D01*
X101924190Y-36076000D01*
X102019428Y-36171238D01*
X102067047Y-36266476D01*
X102114666Y-36456952D01*
X102114666Y-36599809D01*
X102067047Y-36790285D01*
X102019428Y-36885523D01*
X101924190Y-36980761D01*
X101781333Y-37028380D01*
X101543238Y-37028380D01*
X123873619Y-56181047D02*
X123826000Y-56133428D01*
X123778380Y-56038190D01*
X123778380Y-55800095D01*
X123826000Y-55704857D01*
X123873619Y-55657238D01*
X123968857Y-55609619D01*
X124064095Y-55609619D01*
X124206952Y-55657238D01*
X124778380Y-56228666D01*
X124778380Y-55609619D01*
X124206952Y-55038190D02*
X124159333Y-55133428D01*
X124111714Y-55181047D01*
X124016476Y-55228666D01*
X123968857Y-55228666D01*
X123873619Y-55181047D01*
X123826000Y-55133428D01*
X123778380Y-55038190D01*
X123778380Y-54847714D01*
X123826000Y-54752476D01*
X123873619Y-54704857D01*
X123968857Y-54657238D01*
X124016476Y-54657238D01*
X124111714Y-54704857D01*
X124159333Y-54752476D01*
X124206952Y-54847714D01*
X124206952Y-55038190D01*
X124254571Y-55133428D01*
X124302190Y-55181047D01*
X124397428Y-55228666D01*
X124587904Y-55228666D01*
X124683142Y-55181047D01*
X124730761Y-55133428D01*
X124778380Y-55038190D01*
X124778380Y-54847714D01*
X124730761Y-54752476D01*
X124683142Y-54704857D01*
X124587904Y-54657238D01*
X124397428Y-54657238D01*
X124302190Y-54704857D01*
X124254571Y-54752476D01*
X124206952Y-54847714D01*
X124683142Y-54228666D02*
X124730761Y-54181047D01*
X124778380Y-54228666D01*
X124730761Y-54276285D01*
X124683142Y-54228666D01*
X124778380Y-54228666D01*
X124778380Y-53704857D02*
X124778380Y-53514380D01*
X124730761Y-53419142D01*
X124683142Y-53371523D01*
X124540285Y-53276285D01*
X124349809Y-53228666D01*
X123968857Y-53228666D01*
X123873619Y-53276285D01*
X123826000Y-53323904D01*
X123778380Y-53419142D01*
X123778380Y-53609619D01*
X123826000Y-53704857D01*
X123873619Y-53752476D01*
X123968857Y-53800095D01*
X124206952Y-53800095D01*
X124302190Y-53752476D01*
X124349809Y-53704857D01*
X124397428Y-53609619D01*
X124397428Y-53419142D01*
X124349809Y-53323904D01*
X124302190Y-53276285D01*
X124206952Y-53228666D01*
X123778380Y-52323904D02*
X123778380Y-52800095D01*
X124254571Y-52847714D01*
X124206952Y-52800095D01*
X124159333Y-52704857D01*
X124159333Y-52466761D01*
X124206952Y-52371523D01*
X124254571Y-52323904D01*
X124349809Y-52276285D01*
X124587904Y-52276285D01*
X124683142Y-52323904D01*
X124730761Y-52371523D01*
X124778380Y-52466761D01*
X124778380Y-52704857D01*
X124730761Y-52800095D01*
X124683142Y-52847714D01*
X123778380Y-51419142D02*
X123778380Y-51609619D01*
X123826000Y-51704857D01*
X123873619Y-51752476D01*
X124016476Y-51847714D01*
X124206952Y-51895333D01*
X124587904Y-51895333D01*
X124683142Y-51847714D01*
X124730761Y-51800095D01*
X124778380Y-51704857D01*
X124778380Y-51514380D01*
X124730761Y-51419142D01*
X124683142Y-51371523D01*
X124587904Y-51323904D01*
X124349809Y-51323904D01*
X124254571Y-51371523D01*
X124206952Y-51419142D01*
X124159333Y-51514380D01*
X124159333Y-51704857D01*
X124206952Y-51800095D01*
X124254571Y-51847714D01*
X124349809Y-51895333D01*
X123778380Y-50704857D02*
X123778380Y-50609619D01*
X123826000Y-50514380D01*
X123873619Y-50466761D01*
X123968857Y-50419142D01*
X124159333Y-50371523D01*
X124397428Y-50371523D01*
X124587904Y-50419142D01*
X124683142Y-50466761D01*
X124730761Y-50514380D01*
X124778380Y-50609619D01*
X124778380Y-50704857D01*
X124730761Y-50800095D01*
X124683142Y-50847714D01*
X124587904Y-50895333D01*
X124397428Y-50942952D01*
X124159333Y-50942952D01*
X123968857Y-50895333D01*
X123873619Y-50847714D01*
X123826000Y-50800095D01*
X123778380Y-50704857D01*
X124778380Y-49181047D02*
X124111714Y-49181047D01*
X124206952Y-49181047D02*
X124159333Y-49133428D01*
X124111714Y-49038190D01*
X124111714Y-48895333D01*
X124159333Y-48800095D01*
X124254571Y-48752476D01*
X124778380Y-48752476D01*
X124254571Y-48752476D02*
X124159333Y-48704857D01*
X124111714Y-48609619D01*
X124111714Y-48466761D01*
X124159333Y-48371523D01*
X124254571Y-48323904D01*
X124778380Y-48323904D01*
X124778380Y-47847714D02*
X124111714Y-47847714D01*
X124206952Y-47847714D02*
X124159333Y-47800095D01*
X124111714Y-47704857D01*
X124111714Y-47562000D01*
X124159333Y-47466761D01*
X124254571Y-47419142D01*
X124778380Y-47419142D01*
X124254571Y-47419142D02*
X124159333Y-47371523D01*
X124111714Y-47276285D01*
X124111714Y-47133428D01*
X124159333Y-47038190D01*
X124254571Y-46990571D01*
X124778380Y-46990571D01*
X125468000Y-37084000D02*
X126062420Y-37084000D01*
X125468000Y-66040000D02*
X126062420Y-66040000D01*
X125476000Y-37084000D02*
X125476000Y-66040000D01*
X125476000Y-37084000D02*
X125476000Y-66040000D01*
X125476000Y-37084000D02*
X124889579Y-38210504D01*
X125476000Y-37084000D02*
X126062421Y-38210504D01*
X125476000Y-66040000D02*
X126062421Y-64913496D01*
X125476000Y-66040000D02*
X124889579Y-64913496D01*
X72464380Y-58951523D02*
X73178666Y-58951523D01*
X73321523Y-58999142D01*
X73416761Y-59094380D01*
X73464380Y-59237238D01*
X73464380Y-59332476D01*
X73464380Y-57951523D02*
X73464380Y-58522952D01*
X73464380Y-58237238D02*
X72464380Y-58237238D01*
X72607238Y-58332476D01*
X72702476Y-58427714D01*
X72750095Y-58522952D01*
X72464380Y-57332476D02*
X72464380Y-57237238D01*
X72512000Y-57142000D01*
X72559619Y-57094380D01*
X72654857Y-57046761D01*
X72845333Y-56999142D01*
X73083428Y-56999142D01*
X73273904Y-57046761D01*
X73369142Y-57094380D01*
X73416761Y-57142000D01*
X73464380Y-57237238D01*
X73464380Y-57332476D01*
X73416761Y-57427714D01*
X73369142Y-57475333D01*
X73273904Y-57522952D01*
X73083428Y-57570571D01*
X72845333Y-57570571D01*
X72654857Y-57522952D01*
X72559619Y-57475333D01*
X72512000Y-57427714D01*
X72464380Y-57332476D01*
X104036666Y-52170380D02*
X104036666Y-52884666D01*
X103989047Y-53027523D01*
X103893809Y-53122761D01*
X103750952Y-53170380D01*
X103655714Y-53170380D01*
X104417619Y-52170380D02*
X105084285Y-52170380D01*
X104655714Y-53170380D01*
X91336666Y-52170380D02*
X91336666Y-52884666D01*
X91289047Y-53027523D01*
X91193809Y-53122761D01*
X91050952Y-53170380D01*
X90955714Y-53170380D01*
X92289047Y-52170380D02*
X91812857Y-52170380D01*
X91765238Y-52646571D01*
X91812857Y-52598952D01*
X91908095Y-52551333D01*
X92146190Y-52551333D01*
X92241428Y-52598952D01*
X92289047Y-52646571D01*
X92336666Y-52741809D01*
X92336666Y-52979904D01*
X92289047Y-53075142D01*
X92241428Y-53122761D01*
X92146190Y-53170380D01*
X91908095Y-53170380D01*
X91812857Y-53122761D01*
X91765238Y-53075142D01*
X104060666Y-49741380D02*
X104060666Y-50455666D01*
X104013047Y-50598523D01*
X103917809Y-50693761D01*
X103774952Y-50741380D01*
X103679714Y-50741380D01*
X104965428Y-49741380D02*
X104774952Y-49741380D01*
X104679714Y-49789000D01*
X104632095Y-49836619D01*
X104536857Y-49979476D01*
X104489238Y-50169952D01*
X104489238Y-50550904D01*
X104536857Y-50646142D01*
X104584476Y-50693761D01*
X104679714Y-50741380D01*
X104870190Y-50741380D01*
X104965428Y-50693761D01*
X105013047Y-50646142D01*
X105060666Y-50550904D01*
X105060666Y-50312809D01*
X105013047Y-50217571D01*
X104965428Y-50169952D01*
X104870190Y-50122333D01*
X104679714Y-50122333D01*
X104584476Y-50169952D01*
X104536857Y-50217571D01*
X104489238Y-50312809D01*
X57610476Y-39457380D02*
X57610476Y-40171666D01*
X57562857Y-40314523D01*
X57467619Y-40409761D01*
X57324761Y-40457380D01*
X57229523Y-40457380D01*
X58610476Y-40457380D02*
X58039047Y-40457380D01*
X58324761Y-40457380D02*
X58324761Y-39457380D01*
X58229523Y-39600238D01*
X58134285Y-39695476D01*
X58039047Y-39743095D01*
X58991428Y-39552619D02*
X59039047Y-39505000D01*
X59134285Y-39457380D01*
X59372380Y-39457380D01*
X59467619Y-39505000D01*
X59515238Y-39552619D01*
X59562857Y-39647857D01*
X59562857Y-39743095D01*
X59515238Y-39885952D01*
X58943809Y-40457380D01*
X59562857Y-40457380D01*
D13*
X56233190Y-45112619D02*
X55899857Y-45112619D01*
X55995095Y-45112619D02*
X55947476Y-45088809D01*
X55923666Y-45065000D01*
X55899857Y-45017380D01*
X55899857Y-44969761D01*
X56209380Y-44612619D02*
X56233190Y-44660238D01*
X56233190Y-44755476D01*
X56209380Y-44803095D01*
X56161761Y-44826904D01*
X55971285Y-44826904D01*
X55923666Y-44803095D01*
X55899857Y-44755476D01*
X55899857Y-44660238D01*
X55923666Y-44612619D01*
X55971285Y-44588809D01*
X56018904Y-44588809D01*
X56066523Y-44826904D01*
X56209380Y-44398333D02*
X56233190Y-44350714D01*
X56233190Y-44255476D01*
X56209380Y-44207857D01*
X56161761Y-44184047D01*
X56137952Y-44184047D01*
X56090333Y-44207857D01*
X56066523Y-44255476D01*
X56066523Y-44326904D01*
X56042714Y-44374523D01*
X55995095Y-44398333D01*
X55971285Y-44398333D01*
X55923666Y-44374523D01*
X55899857Y-44326904D01*
X55899857Y-44255476D01*
X55923666Y-44207857D01*
X56233190Y-43969761D02*
X55899857Y-43969761D01*
X55733190Y-43969761D02*
X55757000Y-43993571D01*
X55780809Y-43969761D01*
X55757000Y-43945952D01*
X55733190Y-43969761D01*
X55780809Y-43969761D01*
X56209380Y-43755476D02*
X56233190Y-43707857D01*
X56233190Y-43612619D01*
X56209380Y-43565000D01*
X56161761Y-43541190D01*
X56137952Y-43541190D01*
X56090333Y-43565000D01*
X56066523Y-43612619D01*
X56066523Y-43684047D01*
X56042714Y-43731666D01*
X55995095Y-43755476D01*
X55971285Y-43755476D01*
X55923666Y-43731666D01*
X55899857Y-43684047D01*
X55899857Y-43612619D01*
X55923666Y-43565000D01*
X55899857Y-43398333D02*
X55899857Y-43207857D01*
X55733190Y-43326904D02*
X56161761Y-43326904D01*
X56209380Y-43303095D01*
X56233190Y-43255476D01*
X56233190Y-43207857D01*
X56233190Y-42969761D02*
X56209380Y-43017380D01*
X56185571Y-43041190D01*
X56137952Y-43065000D01*
X55995095Y-43065000D01*
X55947476Y-43041190D01*
X55923666Y-43017380D01*
X55899857Y-42969761D01*
X55899857Y-42898333D01*
X55923666Y-42850714D01*
X55947476Y-42826904D01*
X55995095Y-42803095D01*
X56137952Y-42803095D01*
X56185571Y-42826904D01*
X56209380Y-42850714D01*
X56233190Y-42898333D01*
X56233190Y-42969761D01*
X56233190Y-42588809D02*
X55899857Y-42588809D01*
X55995095Y-42588809D02*
X55947476Y-42565000D01*
X55923666Y-42541190D01*
X55899857Y-42493571D01*
X55899857Y-42445952D01*
D12*
X116657666Y-49731380D02*
X116657666Y-50445666D01*
X116610047Y-50588523D01*
X116514809Y-50683761D01*
X116371952Y-50731380D01*
X116276714Y-50731380D01*
X117276714Y-50159952D02*
X117181476Y-50112333D01*
X117133857Y-50064714D01*
X117086238Y-49969476D01*
X117086238Y-49921857D01*
X117133857Y-49826619D01*
X117181476Y-49779000D01*
X117276714Y-49731380D01*
X117467190Y-49731380D01*
X117562428Y-49779000D01*
X117610047Y-49826619D01*
X117657666Y-49921857D01*
X117657666Y-49969476D01*
X117610047Y-50064714D01*
X117562428Y-50112333D01*
X117467190Y-50159952D01*
X117276714Y-50159952D01*
X117181476Y-50207571D01*
X117133857Y-50255190D01*
X117086238Y-50350428D01*
X117086238Y-50540904D01*
X117133857Y-50636142D01*
X117181476Y-50683761D01*
X117276714Y-50731380D01*
X117467190Y-50731380D01*
X117562428Y-50683761D01*
X117610047Y-50636142D01*
X117657666Y-50540904D01*
X117657666Y-50350428D01*
X117610047Y-50255190D01*
X117562428Y-50207571D01*
X117467190Y-50159952D01*
X56332380Y-52871666D02*
X55856190Y-53205000D01*
X56332380Y-53443095D02*
X55332380Y-53443095D01*
X55332380Y-53062142D01*
X55380000Y-52966904D01*
X55427619Y-52919285D01*
X55522857Y-52871666D01*
X55665714Y-52871666D01*
X55760952Y-52919285D01*
X55808571Y-52966904D01*
X55856190Y-53062142D01*
X55856190Y-53443095D01*
X56332380Y-51919285D02*
X56332380Y-52490714D01*
X56332380Y-52205000D02*
X55332380Y-52205000D01*
X55475238Y-52300238D01*
X55570476Y-52395476D01*
X55618095Y-52490714D01*
X78660666Y-52170380D02*
X78660666Y-52884666D01*
X78613047Y-53027523D01*
X78517809Y-53122761D01*
X78374952Y-53170380D01*
X78279714Y-53170380D01*
X79041619Y-52170380D02*
X79660666Y-52170380D01*
X79327333Y-52551333D01*
X79470190Y-52551333D01*
X79565428Y-52598952D01*
X79613047Y-52646571D01*
X79660666Y-52741809D01*
X79660666Y-52979904D01*
X79613047Y-53075142D01*
X79565428Y-53122761D01*
X79470190Y-53170380D01*
X79184476Y-53170380D01*
X79089238Y-53122761D01*
X79041619Y-53075142D01*
X116760666Y-52160380D02*
X116760666Y-52874666D01*
X116713047Y-53017523D01*
X116617809Y-53112761D01*
X116474952Y-53160380D01*
X116379714Y-53160380D01*
X117284476Y-53160380D02*
X117474952Y-53160380D01*
X117570190Y-53112761D01*
X117617809Y-53065142D01*
X117713047Y-52922285D01*
X117760666Y-52731809D01*
X117760666Y-52350857D01*
X117713047Y-52255619D01*
X117665428Y-52208000D01*
X117570190Y-52160380D01*
X117379714Y-52160380D01*
X117284476Y-52208000D01*
X117236857Y-52255619D01*
X117189238Y-52350857D01*
X117189238Y-52588952D01*
X117236857Y-52684190D01*
X117284476Y-52731809D01*
X117379714Y-52779428D01*
X117570190Y-52779428D01*
X117665428Y-52731809D01*
X117713047Y-52684190D01*
X117760666Y-52588952D01*
X71956380Y-45521333D02*
X72670666Y-45521333D01*
X72813523Y-45568952D01*
X72908761Y-45664190D01*
X72956380Y-45807047D01*
X72956380Y-45902285D01*
X72956380Y-44521333D02*
X72956380Y-45092761D01*
X72956380Y-44807047D02*
X71956380Y-44807047D01*
X72099238Y-44902285D01*
X72194476Y-44997523D01*
X72242095Y-45092761D01*
X78660666Y-49741380D02*
X78660666Y-50455666D01*
X78613047Y-50598523D01*
X78517809Y-50693761D01*
X78374952Y-50741380D01*
X78279714Y-50741380D01*
X79089238Y-49836619D02*
X79136857Y-49789000D01*
X79232095Y-49741380D01*
X79470190Y-49741380D01*
X79565428Y-49789000D01*
X79613047Y-49836619D01*
X79660666Y-49931857D01*
X79660666Y-50027095D01*
X79613047Y-50169952D01*
X79041619Y-50741380D01*
X79660666Y-50741380D01*
X91360666Y-49741380D02*
X91360666Y-50455666D01*
X91313047Y-50598523D01*
X91217809Y-50693761D01*
X91074952Y-50741380D01*
X90979714Y-50741380D01*
X92265428Y-50074714D02*
X92265428Y-50741380D01*
X92027333Y-49693761D02*
X91789238Y-50408047D01*
X92408285Y-50408047D01*
X56332380Y-50331666D02*
X55856190Y-50665000D01*
X56332380Y-50903095D02*
X55332380Y-50903095D01*
X55332380Y-50522142D01*
X55380000Y-50426904D01*
X55427619Y-50379285D01*
X55522857Y-50331666D01*
X55665714Y-50331666D01*
X55760952Y-50379285D01*
X55808571Y-50426904D01*
X55856190Y-50522142D01*
X55856190Y-50903095D01*
X55427619Y-49950714D02*
X55380000Y-49903095D01*
X55332380Y-49807857D01*
X55332380Y-49569761D01*
X55380000Y-49474523D01*
X55427619Y-49426904D01*
X55522857Y-49379285D01*
X55618095Y-49379285D01*
X55760952Y-49426904D01*
X56332380Y-49998333D01*
X56332380Y-49379285D01*
X57737476Y-62317380D02*
X57737476Y-63031666D01*
X57689857Y-63174523D01*
X57594619Y-63269761D01*
X57451761Y-63317380D01*
X57356523Y-63317380D01*
X58737476Y-63317380D02*
X58166047Y-63317380D01*
X58451761Y-63317380D02*
X58451761Y-62317380D01*
X58356523Y-62460238D01*
X58261285Y-62555476D01*
X58166047Y-62603095D01*
X59689857Y-63317380D02*
X59118428Y-63317380D01*
X59404142Y-63317380D02*
X59404142Y-62317380D01*
X59308904Y-62460238D01*
X59213666Y-62555476D01*
X59118428Y-62603095D01*
D13*
X56106190Y-60352619D02*
X55772857Y-60352619D01*
X55868095Y-60352619D02*
X55820476Y-60328809D01*
X55796666Y-60305000D01*
X55772857Y-60257380D01*
X55772857Y-60209761D01*
X56082380Y-59852619D02*
X56106190Y-59900238D01*
X56106190Y-59995476D01*
X56082380Y-60043095D01*
X56034761Y-60066904D01*
X55844285Y-60066904D01*
X55796666Y-60043095D01*
X55772857Y-59995476D01*
X55772857Y-59900238D01*
X55796666Y-59852619D01*
X55844285Y-59828809D01*
X55891904Y-59828809D01*
X55939523Y-60066904D01*
X56082380Y-59638333D02*
X56106190Y-59590714D01*
X56106190Y-59495476D01*
X56082380Y-59447857D01*
X56034761Y-59424047D01*
X56010952Y-59424047D01*
X55963333Y-59447857D01*
X55939523Y-59495476D01*
X55939523Y-59566904D01*
X55915714Y-59614523D01*
X55868095Y-59638333D01*
X55844285Y-59638333D01*
X55796666Y-59614523D01*
X55772857Y-59566904D01*
X55772857Y-59495476D01*
X55796666Y-59447857D01*
X56106190Y-59209761D02*
X55772857Y-59209761D01*
X55606190Y-59209761D02*
X55630000Y-59233571D01*
X55653809Y-59209761D01*
X55630000Y-59185952D01*
X55606190Y-59209761D01*
X55653809Y-59209761D01*
X56082380Y-58995476D02*
X56106190Y-58947857D01*
X56106190Y-58852619D01*
X56082380Y-58805000D01*
X56034761Y-58781190D01*
X56010952Y-58781190D01*
X55963333Y-58805000D01*
X55939523Y-58852619D01*
X55939523Y-58924047D01*
X55915714Y-58971666D01*
X55868095Y-58995476D01*
X55844285Y-58995476D01*
X55796666Y-58971666D01*
X55772857Y-58924047D01*
X55772857Y-58852619D01*
X55796666Y-58805000D01*
X55772857Y-58638333D02*
X55772857Y-58447857D01*
X55606190Y-58566904D02*
X56034761Y-58566904D01*
X56082380Y-58543095D01*
X56106190Y-58495476D01*
X56106190Y-58447857D01*
X56106190Y-58209761D02*
X56082380Y-58257380D01*
X56058571Y-58281190D01*
X56010952Y-58305000D01*
X55868095Y-58305000D01*
X55820476Y-58281190D01*
X55796666Y-58257380D01*
X55772857Y-58209761D01*
X55772857Y-58138333D01*
X55796666Y-58090714D01*
X55820476Y-58066904D01*
X55868095Y-58043095D01*
X56010952Y-58043095D01*
X56058571Y-58066904D01*
X56082380Y-58090714D01*
X56106190Y-58138333D01*
X56106190Y-58209761D01*
X56106190Y-57828809D02*
X55772857Y-57828809D01*
X55868095Y-57828809D02*
X55820476Y-57805000D01*
X55796666Y-57781190D01*
X55772857Y-57733571D01*
X55772857Y-57685952D01*
G36*
X107172346Y-38225666D02*
G01*
X107390011Y-38228664D01*
X107557292Y-38235974D01*
X107680822Y-38249492D01*
X107767239Y-38271110D01*
X107823177Y-38302724D01*
X107855272Y-38346226D01*
X107870161Y-38403510D01*
X107874479Y-38476471D01*
X107874713Y-38503946D01*
X107875201Y-38639391D01*
X105965426Y-38639391D01*
X105965426Y-38481851D01*
X105966703Y-38408129D01*
X105975059Y-38350070D01*
X105997286Y-38305803D01*
X106040176Y-38273459D01*
X106110519Y-38251166D01*
X106215106Y-38237055D01*
X106360729Y-38229254D01*
X106554179Y-38225894D01*
X106802246Y-38225103D01*
X106897659Y-38225088D01*
X107172346Y-38225666D01*
G37*
G36*
X112776955Y-39209633D02*
G01*
X112775467Y-39367220D01*
X112770000Y-39472054D01*
X112759052Y-39535071D01*
X112741121Y-39567207D01*
X112726607Y-39576132D01*
X112649530Y-39589456D01*
X112543096Y-39590111D01*
X112440280Y-39578379D01*
X112418872Y-39573508D01*
X112394131Y-39559908D01*
X112377922Y-39527072D01*
X112368513Y-39463725D01*
X112364174Y-39358590D01*
X112363171Y-39210706D01*
X112363171Y-38862478D01*
X112776955Y-38862478D01*
X112776955Y-39209633D01*
G37*
G36*
X110813052Y-40666685D02*
G01*
X110830103Y-40770343D01*
X110854480Y-40847488D01*
X110873352Y-40874750D01*
X110916277Y-40882532D01*
X111012977Y-40889451D01*
X111153569Y-40895144D01*
X111328170Y-40899250D01*
X111526896Y-40901406D01*
X111607218Y-40901639D01*
X112299511Y-40902127D01*
X112299511Y-41220822D01*
X111448070Y-41218802D01*
X111218223Y-41217241D01*
X111006649Y-41213877D01*
X110822507Y-41209010D01*
X110674959Y-41202938D01*
X110573165Y-41195961D01*
X110527093Y-41188730D01*
X110461584Y-41146921D01*
X110419966Y-41077705D01*
X110398909Y-40970314D01*
X110395081Y-40813980D01*
X110396412Y-40766377D01*
X110405652Y-40503758D01*
X110599989Y-40494389D01*
X110794326Y-40485021D01*
X110813052Y-40666685D01*
G37*
G36*
X111170261Y-38225403D02*
G01*
X111384563Y-38227550D01*
X111548627Y-38233335D01*
X111669162Y-38244562D01*
X111752879Y-38263034D01*
X111806488Y-38290556D01*
X111836699Y-38328933D01*
X111850222Y-38379968D01*
X111853769Y-38445467D01*
X111853897Y-38481851D01*
X111853897Y-38639391D01*
X109944123Y-38639391D01*
X109944123Y-38481851D01*
X109945294Y-38408913D01*
X109953281Y-38351289D01*
X109974795Y-38307173D01*
X110016545Y-38274762D01*
X110085242Y-38252251D01*
X110187595Y-38237836D01*
X110330316Y-38229712D01*
X110520114Y-38226076D01*
X110763700Y-38225122D01*
X110899010Y-38225088D01*
X111170261Y-38225403D01*
G37*
G36*
X112920188Y-40503758D02*
G01*
X112929664Y-40702942D01*
X112939141Y-40902127D01*
X113795501Y-40902127D01*
X113795501Y-41220822D01*
X112522318Y-41220822D01*
X112522318Y-40484782D01*
X112920188Y-40503758D01*
G37*
G36*
X104395321Y-36506264D02*
G01*
X104432414Y-36374852D01*
X104460996Y-36285157D01*
X104474884Y-36252287D01*
X104517493Y-36201499D01*
X104578676Y-36165300D01*
X104668521Y-36141488D01*
X104797118Y-36127863D01*
X104974555Y-36122221D01*
X105073254Y-36121700D01*
X105242505Y-36122310D01*
X105360945Y-36125532D01*
X105441417Y-36133452D01*
X105496767Y-36148158D01*
X105539840Y-36171736D01*
X105581029Y-36204207D01*
X105641242Y-36270487D01*
X105672920Y-36351430D01*
X105677349Y-36459525D01*
X105655812Y-36607258D01*
X105633152Y-36710835D01*
X105599595Y-36833708D01*
X105558730Y-36922402D01*
X105500337Y-36982413D01*
X105414193Y-37019236D01*
X105290081Y-37038368D01*
X105117778Y-37045304D01*
X105009991Y-37045916D01*
X104599208Y-37045916D01*
X104566601Y-37167163D01*
X104538763Y-37277802D01*
X104515068Y-37383248D01*
X104513651Y-37390249D01*
X104498584Y-37448766D01*
X104471862Y-37479051D01*
X104415827Y-37490394D01*
X104320080Y-37492089D01*
X104220777Y-37489496D01*
X104171848Y-37478574D01*
X104160109Y-37454611D01*
X104164051Y-37436317D01*
X104176903Y-37387892D01*
X104201660Y-37288912D01*
X104235508Y-37150835D01*
X104275633Y-36985117D01*
X104308635Y-36847573D01*
X104338307Y-36727221D01*
X104669245Y-36727221D01*
X104980980Y-36727221D01*
X105126525Y-36725829D01*
X105220350Y-36720301D01*
X105274359Y-36708605D01*
X105300456Y-36688709D01*
X105307817Y-36671449D01*
X105326238Y-36597850D01*
X105342398Y-36528036D01*
X105361877Y-36440395D01*
X104734798Y-36440395D01*
X104702022Y-36583808D01*
X104669245Y-36727221D01*
X104338307Y-36727221D01*
X104352975Y-36667726D01*
X104395321Y-36506264D01*
G37*
G36*
X111187027Y-39853130D02*
G01*
X111445891Y-39856143D01*
X111680287Y-39859873D01*
X111859457Y-39864048D01*
X111991835Y-39869428D01*
X112085854Y-39876772D01*
X112149948Y-39886842D01*
X112192549Y-39900398D01*
X112222090Y-39918200D01*
X112232580Y-39927079D01*
X112281967Y-39999218D01*
X112299255Y-40106557D01*
X112299511Y-40126263D01*
X112299511Y-40264736D01*
X111365844Y-40264736D01*
X111128149Y-40264039D01*
X110911325Y-40262065D01*
X110723482Y-40258996D01*
X110572727Y-40255013D01*
X110467169Y-40250296D01*
X110414915Y-40245024D01*
X110410957Y-40243490D01*
X110389471Y-40184545D01*
X110392436Y-40096323D01*
X110416025Y-40006654D01*
X110451621Y-39947819D01*
X110488661Y-39916807D01*
X110535502Y-39892811D01*
X110599869Y-39875117D01*
X110689482Y-39863014D01*
X110812065Y-39855790D01*
X110975339Y-39852733D01*
X111187027Y-39853130D01*
G37*
G36*
X114400751Y-39013858D02*
G01*
X114401089Y-39090430D01*
X114406493Y-39149302D01*
X114424382Y-39192917D01*
X114462174Y-39223714D01*
X114527286Y-39244137D01*
X114627138Y-39256627D01*
X114769146Y-39263625D01*
X114960730Y-39267573D01*
X115180557Y-39270521D01*
X115899602Y-39280196D01*
X115889970Y-39429869D01*
X115880339Y-39579542D01*
X115068684Y-39585040D01*
X114842862Y-39585502D01*
X114634064Y-39583915D01*
X114452014Y-39580511D01*
X114306435Y-39575525D01*
X114207053Y-39569192D01*
X114167464Y-39563349D01*
X114087431Y-39534433D01*
X114035191Y-39497215D01*
X114004880Y-39438668D01*
X113990632Y-39345767D01*
X113986584Y-39205484D01*
X113986479Y-39161336D01*
X113986479Y-38862478D01*
X114400263Y-38862478D01*
X114400751Y-39013858D01*
G37*
G36*
X112495660Y-38230862D02*
G01*
X112620123Y-38232347D01*
X113238484Y-38241022D01*
X113238484Y-38623457D01*
X112613509Y-38632085D01*
X112396702Y-38634547D01*
X112235220Y-38634739D01*
X112120750Y-38632114D01*
X112044981Y-38626126D01*
X111999601Y-38616226D01*
X111976298Y-38601867D01*
X111968960Y-38589642D01*
X111953744Y-38511804D01*
X111950830Y-38410909D01*
X111959563Y-38316928D01*
X111976061Y-38264217D01*
X112000850Y-38249601D01*
X112058367Y-38239296D01*
X112155451Y-38232963D01*
X112298936Y-38230265D01*
X112495660Y-38230862D01*
G37*
G36*
X109085220Y-38225501D02*
G01*
X109290694Y-38228058D01*
X109446343Y-38234736D01*
X109559085Y-38247513D01*
X109635839Y-38268366D01*
X109683521Y-38299271D01*
X109709048Y-38342207D01*
X109719339Y-38399149D01*
X109721310Y-38472077D01*
X109721316Y-38481851D01*
X109721316Y-38639391D01*
X109517829Y-38639391D01*
X109396091Y-38634915D01*
X109325998Y-38619835D01*
X109296054Y-38591674D01*
X109296021Y-38591587D01*
X109277150Y-38571093D01*
X109232490Y-38557198D01*
X109152184Y-38548773D01*
X109026373Y-38544687D01*
X108878831Y-38543783D01*
X108710050Y-38544907D01*
X108595338Y-38549044D01*
X108525129Y-38557340D01*
X108489860Y-38570941D01*
X108479967Y-38590993D01*
X108479963Y-38591587D01*
X108466150Y-38618401D01*
X108416796Y-38633305D01*
X108320025Y-38639041D01*
X108273070Y-38639391D01*
X108066178Y-38639391D01*
X108066178Y-38225088D01*
X108823006Y-38225088D01*
X109085220Y-38225501D01*
G37*
G36*
X115193398Y-38225666D02*
G01*
X115411064Y-38228664D01*
X115578344Y-38235974D01*
X115701875Y-38249492D01*
X115788291Y-38271110D01*
X115844229Y-38302724D01*
X115876325Y-38346226D01*
X115891214Y-38403510D01*
X115895531Y-38476471D01*
X115895766Y-38503946D01*
X115896253Y-38639391D01*
X113986479Y-38639391D01*
X113986479Y-38481851D01*
X113987755Y-38408129D01*
X113996112Y-38350070D01*
X114018339Y-38305803D01*
X114061229Y-38273459D01*
X114131572Y-38251166D01*
X114236159Y-38237055D01*
X114381782Y-38229254D01*
X114575231Y-38225894D01*
X114823299Y-38225103D01*
X114918711Y-38225088D01*
X115193398Y-38225666D01*
G37*
G36*
X117197892Y-38225961D02*
G01*
X117391829Y-38229046D01*
X117536523Y-38237047D01*
X117639180Y-38252199D01*
X117707008Y-38276735D01*
X117747214Y-38312891D01*
X117767005Y-38362900D01*
X117773588Y-38428996D01*
X117774198Y-38481851D01*
X117774198Y-38639391D01*
X117555288Y-38639391D01*
X117417320Y-38633762D01*
X117332460Y-38615684D01*
X117296755Y-38591587D01*
X117262861Y-38569022D01*
X117198802Y-38554430D01*
X117093876Y-38546473D01*
X116937381Y-38543810D01*
X116914800Y-38543783D01*
X116751449Y-38545904D01*
X116640942Y-38553160D01*
X116572577Y-38566892D01*
X116535651Y-38588437D01*
X116532845Y-38591587D01*
X116478849Y-38622070D01*
X116375596Y-38637109D01*
X116288562Y-38639391D01*
X116083904Y-38639391D01*
X116093525Y-38472851D01*
X116099653Y-38398627D01*
X116113275Y-38341005D01*
X116141664Y-38297877D01*
X116192099Y-38267137D01*
X116271855Y-38246678D01*
X116388208Y-38234393D01*
X116548435Y-38228174D01*
X116759811Y-38225915D01*
X116947504Y-38225558D01*
X117197892Y-38225961D01*
G37*
G36*
X110358395Y-39013858D02*
G01*
X110360498Y-39107773D01*
X110372403Y-39174302D01*
X110403558Y-39218443D01*
X110463413Y-39245191D01*
X110561417Y-39259544D01*
X110707017Y-39266497D01*
X110842086Y-39269633D01*
X111047342Y-39272056D01*
X111197809Y-39267162D01*
X111302248Y-39251391D01*
X111369419Y-39221179D01*
X111408081Y-39172965D01*
X111426995Y-39103186D01*
X111433819Y-39029018D01*
X111443440Y-38862478D01*
X111853897Y-38862478D01*
X111853897Y-39164504D01*
X111853807Y-39284846D01*
X111848953Y-39379307D01*
X111832459Y-39451086D01*
X111797450Y-39503380D01*
X111737049Y-39539390D01*
X111644381Y-39562313D01*
X111512571Y-39575349D01*
X111334742Y-39581696D01*
X111104018Y-39584554D01*
X110948257Y-39585829D01*
X110733275Y-39586450D01*
X110535221Y-39584725D01*
X110364473Y-39580927D01*
X110231408Y-39575329D01*
X110146404Y-39568205D01*
X110125108Y-39564138D01*
X110045011Y-39534568D01*
X109992763Y-39497085D01*
X109962476Y-39438582D01*
X109948261Y-39345955D01*
X109944230Y-39206096D01*
X109944123Y-39161336D01*
X109944123Y-38862478D01*
X110357907Y-38862478D01*
X110358395Y-39013858D01*
G37*
G36*
X118284847Y-35704690D02*
G01*
X118402314Y-35729241D01*
X118453073Y-35741518D01*
X118721822Y-35809007D01*
X118749326Y-36113539D01*
X118763772Y-36257451D01*
X118778775Y-36352326D01*
X118798788Y-36412747D01*
X118828261Y-36453296D01*
X118861545Y-36481155D01*
X118946261Y-36544239D01*
X119219719Y-36394990D01*
X119493176Y-36245741D01*
X119670884Y-36414021D01*
X119782911Y-36522021D01*
X119851826Y-36601794D01*
X119880492Y-36669198D01*
X119871774Y-36740092D01*
X119828536Y-36830336D01*
X119765259Y-36936611D01*
X119699841Y-37049049D01*
X119649775Y-37143768D01*
X119622855Y-37205651D01*
X119620313Y-37217675D01*
X119640500Y-37267609D01*
X119689942Y-37334675D01*
X119698368Y-37344023D01*
X119751386Y-37391917D01*
X119811861Y-37418046D01*
X119901428Y-37429207D01*
X119976876Y-37431527D01*
X120130480Y-37436112D01*
X120233784Y-37450298D01*
X120300146Y-37483438D01*
X120342925Y-37544887D01*
X120375479Y-37643999D01*
X120395471Y-37724644D01*
X120421277Y-37846764D01*
X120436413Y-37948239D01*
X120438274Y-38010593D01*
X120436687Y-38017115D01*
X120401363Y-38052352D01*
X120323374Y-38104681D01*
X120217761Y-38164284D01*
X120186717Y-38180223D01*
X120058191Y-38246793D01*
X119976663Y-38297478D01*
X119931455Y-38343381D01*
X119911894Y-38395603D01*
X119907303Y-38465244D01*
X119907267Y-38470822D01*
X119912597Y-38523740D01*
X119935678Y-38571341D01*
X119986302Y-38625092D01*
X120074259Y-38696464D01*
X120145501Y-38749908D01*
X120249601Y-38831084D01*
X120330419Y-38901906D01*
X120376514Y-38951948D01*
X120382963Y-38966282D01*
X120371272Y-39013659D01*
X120341587Y-39102074D01*
X120299994Y-39213559D01*
X120293964Y-39228977D01*
X120206226Y-39452064D01*
X119591284Y-39433260D01*
X119508929Y-39557862D01*
X119426574Y-39682465D01*
X119523444Y-39926626D01*
X119568555Y-40045554D01*
X119602469Y-40144911D01*
X119619403Y-40207428D01*
X119620313Y-40215899D01*
X119596100Y-40256360D01*
X119533697Y-40319114D01*
X119448460Y-40391982D01*
X119355746Y-40462787D01*
X119270909Y-40519348D01*
X119209306Y-40549487D01*
X119197089Y-40551562D01*
X119151776Y-40532670D01*
X119072974Y-40482574D01*
X118975871Y-40411146D01*
X118951892Y-40392214D01*
X118836670Y-40304164D01*
X118751364Y-40254515D01*
X118678842Y-40238735D01*
X118601972Y-40252288D01*
X118528397Y-40280130D01*
X118470578Y-40306893D01*
X118430988Y-40338271D01*
X118402880Y-40387722D01*
X118379507Y-40468702D01*
X118354121Y-40594671D01*
X118344381Y-40647171D01*
X118315439Y-40784079D01*
X118284392Y-40869357D01*
X118242697Y-40914785D01*
X118181806Y-40932144D01*
X118136341Y-40933996D01*
X118028835Y-40933996D01*
X118028835Y-39854956D01*
X118210495Y-39802079D01*
X118470284Y-39706170D01*
X118692075Y-39576321D01*
X118898023Y-39399465D01*
X118905307Y-39392172D01*
X119105291Y-39148690D01*
X119247984Y-38881715D01*
X119332350Y-38597587D01*
X119357354Y-38302646D01*
X119321962Y-38003230D01*
X119225138Y-37705681D01*
X119192288Y-37634523D01*
X119029356Y-37370505D01*
X118823507Y-37151110D01*
X118580533Y-36979923D01*
X118306229Y-36860532D01*
X118006388Y-36796523D01*
X117821943Y-36786186D01*
X117515811Y-36811966D01*
X117240469Y-36891480D01*
X116989095Y-37027671D01*
X116754868Y-37223486D01*
X116715401Y-37263821D01*
X116623553Y-37372530D01*
X116531834Y-37501775D01*
X116449255Y-37636277D01*
X116384825Y-37760754D01*
X116347554Y-37859925D01*
X116341892Y-37897304D01*
X116316852Y-37941817D01*
X116280301Y-37969010D01*
X116228176Y-37980217D01*
X116127010Y-37989332D01*
X115991397Y-37996158D01*
X115835925Y-38000494D01*
X115675186Y-38002143D01*
X115523773Y-38000906D01*
X115396274Y-37996584D01*
X115307283Y-37988978D01*
X115278180Y-37982657D01*
X115239267Y-37936982D01*
X115227832Y-37870325D01*
X115233793Y-37816961D01*
X115258539Y-37777693D01*
X115312362Y-37747433D01*
X115405556Y-37721094D01*
X115548415Y-37693585D01*
X115604870Y-37683945D01*
X115725833Y-37661830D01*
X115799877Y-37640190D01*
X115843111Y-37610553D01*
X115871644Y-37564452D01*
X115883379Y-37537524D01*
X115913918Y-37453309D01*
X115921686Y-37383883D01*
X115902300Y-37313182D01*
X115851373Y-37225141D01*
X115765242Y-37104667D01*
X115602401Y-36884731D01*
X115686114Y-36766139D01*
X115763943Y-36660772D01*
X115847980Y-36553765D01*
X115861845Y-36536914D01*
X115953863Y-36426281D01*
X116203567Y-36529204D01*
X116353563Y-36587855D01*
X116460699Y-36619419D01*
X116539145Y-36625131D01*
X116603071Y-36606224D01*
X116660163Y-36568979D01*
X116696960Y-36536694D01*
X116720238Y-36498876D01*
X116733075Y-36441197D01*
X116738549Y-36349326D01*
X116739735Y-36208934D01*
X116739737Y-36198406D01*
X116739737Y-35889049D01*
X116960787Y-35814157D01*
X117076574Y-35777219D01*
X117173327Y-35750466D01*
X117231298Y-35739321D01*
X117233453Y-35739266D01*
X117273489Y-35763992D01*
X117337302Y-35830195D01*
X117413969Y-35925917D01*
X117451744Y-35978287D01*
X117533414Y-36092404D01*
X117592098Y-36163190D01*
X117639443Y-36200796D01*
X117687094Y-36215372D01*
X117725971Y-36217309D01*
X117792828Y-36208726D01*
X117850544Y-36176774D01*
X117907711Y-36112142D01*
X117972920Y-36005522D01*
X118040062Y-35876967D01*
X118090214Y-35784083D01*
X118133192Y-35716204D01*
X118153718Y-35692968D01*
X118196621Y-35691730D01*
X118284847Y-35704690D01*
G37*
G36*
X106379211Y-39038549D02*
G01*
X106381962Y-39141088D01*
X106395469Y-39198818D01*
X106427617Y-39230600D01*
X106466742Y-39248013D01*
X106534968Y-39260840D01*
X106652852Y-39269313D01*
X106806501Y-39272785D01*
X106962734Y-39271126D01*
X107151148Y-39264394D01*
X107285123Y-39251863D01*
X107373874Y-39228519D01*
X107426615Y-39189349D01*
X107452561Y-39129339D01*
X107460928Y-39043475D01*
X107461416Y-38999800D01*
X107461416Y-38862478D01*
X107875201Y-38862478D01*
X107875201Y-39143212D01*
X107871069Y-39306208D01*
X107854743Y-39417738D01*
X107820326Y-39489764D01*
X107761921Y-39534246D01*
X107673631Y-39563146D01*
X107667456Y-39564599D01*
X107592800Y-39574176D01*
X107468690Y-39581622D01*
X107307317Y-39586950D01*
X107120874Y-39590172D01*
X106921555Y-39591299D01*
X106721553Y-39590344D01*
X106533060Y-39587319D01*
X106368268Y-39582237D01*
X106239372Y-39575109D01*
X106158564Y-39565948D01*
X106146411Y-39563079D01*
X106066401Y-39534387D01*
X106014163Y-39497260D01*
X105983843Y-39438698D01*
X105969585Y-39345703D01*
X105965531Y-39205276D01*
X105965426Y-39161336D01*
X105965426Y-38862478D01*
X106379211Y-38862478D01*
X106379211Y-39038549D01*
G37*
G36*
X114400263Y-40633331D02*
G01*
X114401808Y-40731582D01*
X114412416Y-40802393D01*
X114441042Y-40850259D01*
X114496646Y-40879672D01*
X114588185Y-40895125D01*
X114724615Y-40901112D01*
X114914896Y-40902126D01*
X114936120Y-40902127D01*
X115150894Y-40899778D01*
X115305288Y-40892575D01*
X115402413Y-40880285D01*
X115444273Y-40863883D01*
X115465996Y-40811953D01*
X115479832Y-40720881D01*
X115482469Y-40656731D01*
X115482469Y-40487823D01*
X115896253Y-40487823D01*
X115896253Y-41123576D01*
X115802345Y-41172199D01*
X115761051Y-41188015D01*
X115700721Y-41200142D01*
X115613511Y-41209018D01*
X115491574Y-41215080D01*
X115327066Y-41218766D01*
X115112142Y-41220516D01*
X114931324Y-41220822D01*
X114688157Y-41220564D01*
X114500370Y-41219365D01*
X114359684Y-41216592D01*
X114257821Y-41211609D01*
X114186504Y-41203781D01*
X114137452Y-41192473D01*
X114102388Y-41177049D01*
X114073034Y-41156874D01*
X114070345Y-41154770D01*
X114031147Y-41120240D01*
X114006550Y-41081803D01*
X113993166Y-41024647D01*
X113987606Y-40933963D01*
X113986480Y-40794939D01*
X113986479Y-40788270D01*
X113986479Y-40487823D01*
X114400263Y-40487823D01*
X114400263Y-40633331D01*
G37*
G36*
X116786591Y-39854932D02*
G01*
X116890866Y-39856238D01*
X117130430Y-39859848D01*
X117314574Y-39863853D01*
X117451533Y-39868968D01*
X117549547Y-39875909D01*
X117616853Y-39885391D01*
X117661688Y-39898127D01*
X117692289Y-39914834D01*
X117707265Y-39927079D01*
X117756652Y-39999214D01*
X117773941Y-40106546D01*
X117774198Y-40126263D01*
X117774198Y-40264736D01*
X117575263Y-40263723D01*
X117435340Y-40254243D01*
X117337758Y-40229177D01*
X117314543Y-40215919D01*
X117254202Y-40193270D01*
X117151937Y-40177260D01*
X117022998Y-40167867D01*
X116882631Y-40165073D01*
X116746085Y-40168859D01*
X116628609Y-40179205D01*
X116545450Y-40196092D01*
X116512526Y-40216932D01*
X116470791Y-40247512D01*
X116389081Y-40264437D01*
X116289566Y-40267849D01*
X116194421Y-40257892D01*
X116125818Y-40234706D01*
X116106551Y-40214326D01*
X116091327Y-40135857D01*
X116088771Y-40034382D01*
X116098121Y-39940055D01*
X116114803Y-39888108D01*
X116136093Y-39874395D01*
X116184665Y-39864325D01*
X116267260Y-39857620D01*
X116390619Y-39854004D01*
X116561482Y-39853200D01*
X116786591Y-39854932D01*
G37*
G36*
X108663688Y-36442364D02*
G01*
X108711721Y-36452678D01*
X108724200Y-36477949D01*
X108718332Y-36512102D01*
X108705420Y-36566291D01*
X108680838Y-36670507D01*
X108647417Y-36812712D01*
X108607987Y-36980868D01*
X108578249Y-37107898D01*
X108532775Y-37300392D01*
X108497274Y-37441599D01*
X108467507Y-37542360D01*
X108439233Y-37613517D01*
X108408210Y-37665911D01*
X108370198Y-37710385D01*
X108325804Y-37753256D01*
X108247445Y-37821486D01*
X108182013Y-37857800D01*
X108102892Y-37872153D01*
X108001607Y-37874523D01*
X107894576Y-37872332D01*
X107838263Y-37863083D01*
X107819796Y-37842763D01*
X107822786Y-37818751D01*
X107844489Y-37741784D01*
X107858905Y-37691273D01*
X107902225Y-37631351D01*
X107954316Y-37619567D01*
X108060215Y-37605824D01*
X108120050Y-37567649D01*
X108129837Y-37536484D01*
X108109989Y-37508846D01*
X108044043Y-37494963D01*
X107957604Y-37492089D01*
X107851537Y-37487741D01*
X107783800Y-37468255D01*
X107729302Y-37423968D01*
X107702967Y-37394035D01*
X107650253Y-37318374D01*
X107622937Y-37253799D01*
X107621829Y-37242655D01*
X107629659Y-37191822D01*
X107649994Y-37093654D01*
X107679688Y-36962603D01*
X107713204Y-36822829D01*
X107803314Y-36456330D01*
X107966576Y-36446697D01*
X108058601Y-36444396D01*
X108117810Y-36448925D01*
X108129837Y-36454927D01*
X108122939Y-36491411D01*
X108104260Y-36576402D01*
X108076821Y-36696414D01*
X108050263Y-36809982D01*
X108017842Y-36949901D01*
X107991789Y-37067163D01*
X107975158Y-37147711D01*
X107970689Y-37176220D01*
X107998905Y-37194528D01*
X108069261Y-37204593D01*
X108096002Y-37205263D01*
X108221315Y-37205263D01*
X108396309Y-36440395D01*
X108566061Y-36440395D01*
X108663688Y-36442364D01*
G37*
G36*
X108082093Y-38846543D02*
G01*
X108834760Y-38846543D01*
X109095184Y-38846617D01*
X109298907Y-38848756D01*
X109452883Y-38855833D01*
X109564064Y-38870724D01*
X109639403Y-38896302D01*
X109685854Y-38935442D01*
X109710369Y-38991019D01*
X109719902Y-39065906D01*
X109721406Y-39162979D01*
X109721316Y-39213043D01*
X109721091Y-39320590D01*
X109715761Y-39404691D01*
X109698345Y-39468331D01*
X109661862Y-39514498D01*
X109599329Y-39546180D01*
X109503766Y-39566364D01*
X109368191Y-39578038D01*
X109185623Y-39584189D01*
X108949079Y-39587803D01*
X108842359Y-39589149D01*
X108598365Y-39591678D01*
X108411015Y-39591976D01*
X108273322Y-39589730D01*
X108178299Y-39584628D01*
X108118960Y-39576359D01*
X108088319Y-39564609D01*
X108080545Y-39555125D01*
X108074406Y-39506420D01*
X108071118Y-39409630D01*
X108070995Y-39280357D01*
X108072710Y-39191796D01*
X108479963Y-39191796D01*
X108494101Y-39245998D01*
X108501182Y-39255535D01*
X108544186Y-39267172D01*
X108633962Y-39274131D01*
X108753817Y-39276700D01*
X108887059Y-39275163D01*
X109016994Y-39269807D01*
X109126929Y-39260917D01*
X109200172Y-39248780D01*
X109215027Y-39243313D01*
X109261253Y-39208386D01*
X109251731Y-39182017D01*
X109184589Y-39163713D01*
X109057954Y-39152976D01*
X108869954Y-39149310D01*
X108860039Y-39149304D01*
X108691691Y-39150888D01*
X108578397Y-39156277D01*
X108511618Y-39166427D01*
X108482813Y-39182291D01*
X108479963Y-39191796D01*
X108072710Y-39191796D01*
X108072958Y-39179019D01*
X108082093Y-38846543D01*
G37*
G36*
X113668707Y-38846670D02*
G01*
X113670852Y-38847130D01*
X113763672Y-38867542D01*
X113763672Y-39563607D01*
X113349887Y-39563607D01*
X113349887Y-38869572D01*
X113463959Y-38848145D01*
X113570230Y-38839017D01*
X113668707Y-38846670D01*
G37*
G36*
X113763672Y-38639391D02*
G01*
X113571695Y-38639391D01*
X113447436Y-38633234D01*
X113379363Y-38613872D01*
X113362899Y-38595505D01*
X113354870Y-38539199D01*
X113353718Y-38446576D01*
X113355941Y-38396321D01*
X113365802Y-38241022D01*
X113763672Y-38222046D01*
X113763672Y-38639391D01*
G37*
G36*
X116793860Y-38833719D02*
G01*
X116940457Y-38835846D01*
X117192039Y-38839860D01*
X117387154Y-38845463D01*
X117532973Y-38855934D01*
X117636666Y-38874554D01*
X117705404Y-38904602D01*
X117746356Y-38949359D01*
X117766694Y-39012105D01*
X117773587Y-39096120D01*
X117774205Y-39204684D01*
X117774198Y-39217247D01*
X117773672Y-39320766D01*
X117767562Y-39402340D01*
X117749073Y-39464691D01*
X117711410Y-39510542D01*
X117647779Y-39542615D01*
X117551382Y-39563631D01*
X117415426Y-39576313D01*
X117233114Y-39583383D01*
X116997652Y-39587563D01*
X116844684Y-39589594D01*
X116087231Y-39599647D01*
X116087231Y-39281844D01*
X116673491Y-39271345D01*
X116860779Y-39266772D01*
X117025927Y-39260427D01*
X117158463Y-39252899D01*
X117247912Y-39244780D01*
X117283558Y-39236945D01*
X117296624Y-39212408D01*
X117276919Y-39193176D01*
X117218316Y-39178264D01*
X117114684Y-39166688D01*
X116959894Y-39157461D01*
X116747817Y-39149600D01*
X116738185Y-39149304D01*
X116529893Y-39141973D01*
X116376085Y-39132659D01*
X116267591Y-39118510D01*
X116195243Y-39096674D01*
X116149871Y-39064300D01*
X116122305Y-39018537D01*
X116103377Y-38956532D01*
X116102137Y-38951506D01*
X116095962Y-38913343D01*
X116102837Y-38883728D01*
X116129470Y-38861736D01*
X116182572Y-38846441D01*
X116268853Y-38836918D01*
X116395021Y-38832240D01*
X116567787Y-38831482D01*
X116793860Y-38833719D01*
G37*
G36*
X112808785Y-39871148D02*
G01*
X112862130Y-39885211D01*
X112890649Y-39911215D01*
X112902107Y-39965941D01*
X112904269Y-40066169D01*
X112904273Y-40077503D01*
X112904273Y-40264736D01*
X112522318Y-40264736D01*
X112522318Y-40077503D01*
X112524043Y-39972559D01*
X112534392Y-39914567D01*
X112561132Y-39886745D01*
X112612027Y-39872313D01*
X112617807Y-39871148D01*
X112723739Y-39863340D01*
X112808785Y-39871148D01*
G37*
G36*
X115801984Y-39871403D02*
G01*
X115804092Y-39871814D01*
X115855608Y-39885802D01*
X115883142Y-39912483D01*
X115894191Y-39968590D01*
X115896252Y-40070855D01*
X115896253Y-40077503D01*
X115896253Y-40264736D01*
X115482469Y-40264736D01*
X115482469Y-39890642D01*
X115597200Y-39872000D01*
X115703758Y-39864259D01*
X115801984Y-39871403D01*
G37*
G36*
X114305994Y-39871403D02*
G01*
X114308102Y-39871814D01*
X114359618Y-39885802D01*
X114387152Y-39912483D01*
X114398201Y-39968590D01*
X114400262Y-40070855D01*
X114400263Y-40077503D01*
X114400263Y-40264736D01*
X113986479Y-40264736D01*
X113986479Y-39890642D01*
X114101210Y-39872000D01*
X114207768Y-39864259D01*
X114305994Y-39871403D01*
G37*
G36*
X107457425Y-36124397D02*
G01*
X107505391Y-36135703D01*
X107516372Y-36160444D01*
X107512719Y-36177472D01*
X107493314Y-36247973D01*
X107464583Y-36359087D01*
X107429721Y-36497701D01*
X107391924Y-36650703D01*
X107354385Y-36804981D01*
X107320301Y-36947422D01*
X107292866Y-37064914D01*
X107275276Y-37144344D01*
X107270439Y-37171773D01*
X107298414Y-37193907D01*
X107367205Y-37204973D01*
X107381842Y-37205263D01*
X107452133Y-37210446D01*
X107485835Y-37235507D01*
X107489923Y-37294719D01*
X107473352Y-37392497D01*
X107457755Y-37450940D01*
X107429251Y-37480432D01*
X107369606Y-37490851D01*
X107289457Y-37492089D01*
X107161803Y-37480428D01*
X107065759Y-37449125D01*
X107052705Y-37441069D01*
X106999794Y-37398244D01*
X106964101Y-37349990D01*
X106945629Y-37287211D01*
X106944378Y-37200809D01*
X106960353Y-37081685D01*
X106993554Y-36920742D01*
X107043986Y-36708882D01*
X107052902Y-36672692D01*
X107189023Y-36121700D01*
X107359194Y-36121700D01*
X107457425Y-36124397D01*
G37*
G36*
X109226274Y-36123091D02*
G01*
X109263104Y-36148509D01*
X109263380Y-36177472D01*
X109250096Y-36227513D01*
X109225414Y-36325024D01*
X109192899Y-36455522D01*
X109156115Y-36604523D01*
X109118626Y-36757545D01*
X109083996Y-36900103D01*
X109055789Y-37017714D01*
X109039868Y-37085753D01*
X109019852Y-37173394D01*
X109587784Y-37173394D01*
X109714421Y-36655514D01*
X109841058Y-36137635D01*
X110008092Y-36127860D01*
X110107850Y-36125857D01*
X110154847Y-36136408D01*
X110159864Y-36159729D01*
X110147666Y-36202822D01*
X110123067Y-36297202D01*
X110088768Y-36432239D01*
X110047471Y-36597301D01*
X110004610Y-36770644D01*
X109948885Y-36998911D01*
X109902882Y-37173278D01*
X109858292Y-37300978D01*
X109806809Y-37389242D01*
X109740128Y-37445300D01*
X109649941Y-37476384D01*
X109527942Y-37489725D01*
X109365824Y-37492554D01*
X109175873Y-37492089D01*
X108999062Y-37490494D01*
X108846772Y-37486077D01*
X108729380Y-37479386D01*
X108657262Y-37470972D01*
X108639110Y-37463650D01*
X108646259Y-37425037D01*
X108666148Y-37334667D01*
X108696443Y-37202708D01*
X108734808Y-37039330D01*
X108778908Y-36854702D01*
X108779888Y-36850632D01*
X108831594Y-36639746D01*
X108872955Y-36482027D01*
X108907092Y-36368346D01*
X108937127Y-36289571D01*
X108966183Y-36236574D01*
X108997381Y-36200225D01*
X109004470Y-36193876D01*
X109079857Y-36146858D01*
X109159492Y-36122902D01*
X109226274Y-36123091D01*
G37*
G36*
X105106524Y-38225501D02*
G01*
X105311997Y-38228058D01*
X105467646Y-38234736D01*
X105580389Y-38247513D01*
X105657142Y-38268366D01*
X105704824Y-38299271D01*
X105730351Y-38342207D01*
X105740642Y-38399149D01*
X105742613Y-38472077D01*
X105742619Y-38481851D01*
X105742619Y-38639391D01*
X105539132Y-38639391D01*
X105417394Y-38634915D01*
X105347301Y-38619835D01*
X105317358Y-38591674D01*
X105317324Y-38591587D01*
X105298364Y-38571013D01*
X105253499Y-38557093D01*
X105172834Y-38548683D01*
X105046476Y-38544641D01*
X104903540Y-38543783D01*
X104732830Y-38545122D01*
X104615842Y-38549900D01*
X104542684Y-38559261D01*
X104503459Y-38574349D01*
X104489755Y-38591587D01*
X104458290Y-38620655D01*
X104384711Y-38635708D01*
X104279458Y-38639391D01*
X104087481Y-38639391D01*
X104087481Y-38225088D01*
X104844309Y-38225088D01*
X105106524Y-38225501D01*
G37*
G36*
X105736678Y-38966054D02*
G01*
X105714984Y-39046424D01*
X105657005Y-39102773D01*
X105615301Y-39126183D01*
X105546936Y-39170731D01*
X105514349Y-39211771D01*
X105514110Y-39220597D01*
X105537533Y-39265652D01*
X105587238Y-39342142D01*
X105632788Y-39406405D01*
X105687909Y-39489274D01*
X105718873Y-39551405D01*
X105720717Y-39574914D01*
X105677790Y-39586929D01*
X105593335Y-39593315D01*
X105489218Y-39594263D01*
X105387302Y-39589962D01*
X105309453Y-39580603D01*
X105280909Y-39571087D01*
X105246984Y-39535178D01*
X105188089Y-39462936D01*
X105116639Y-39369619D01*
X105112773Y-39364423D01*
X104976647Y-39181173D01*
X104501266Y-39181173D01*
X104501266Y-39368980D01*
X104496473Y-39484170D01*
X104479994Y-39549167D01*
X104450918Y-39576132D01*
X104384992Y-39589284D01*
X104292630Y-39594743D01*
X104198866Y-39592647D01*
X104128732Y-39583136D01*
X104108701Y-39574230D01*
X104100060Y-39535475D01*
X104093114Y-39447033D01*
X104088678Y-39322951D01*
X104087481Y-39207731D01*
X104087481Y-38862478D01*
X105746653Y-38862478D01*
X105736678Y-38966054D01*
G37*
G36*
X105722784Y-36845708D02*
G01*
X105809500Y-36706325D01*
X105930914Y-36596820D01*
X106076453Y-36517935D01*
X106235544Y-36470413D01*
X106397611Y-36454997D01*
X106552082Y-36472430D01*
X106688382Y-36523455D01*
X106795938Y-36608816D01*
X106864174Y-36729255D01*
X106873828Y-36764830D01*
X106875806Y-36910093D01*
X106828825Y-37064493D01*
X106742774Y-37212860D01*
X106627541Y-37340022D01*
X106493017Y-37430810D01*
X106422222Y-37457652D01*
X106258863Y-37485720D01*
X106091004Y-37485833D01*
X105946156Y-37458579D01*
X105914982Y-37446789D01*
X105789966Y-37360559D01*
X105709331Y-37236795D01*
X105676741Y-37086960D01*
X105690113Y-36971965D01*
X106009998Y-36971965D01*
X106013131Y-37086590D01*
X106059939Y-37182063D01*
X106140160Y-37240044D01*
X106163577Y-37246408D01*
X106223591Y-37258931D01*
X106244957Y-37264662D01*
X106277065Y-37256502D01*
X106344956Y-37230822D01*
X106362204Y-37223709D01*
X106462150Y-37155221D01*
X106531824Y-37056029D01*
X106566166Y-36943224D01*
X106560115Y-36833895D01*
X106508608Y-36745134D01*
X106504946Y-36741721D01*
X106406256Y-36690263D01*
X106294175Y-36689211D01*
X106183355Y-36731752D01*
X106088445Y-36811069D01*
X106024096Y-36920347D01*
X106009998Y-36971965D01*
X105690113Y-36971965D01*
X105695863Y-36922518D01*
X105722784Y-36845708D01*
G37*
G36*
X116103146Y-40503758D02*
G01*
X116859967Y-40495212D01*
X117616788Y-40486665D01*
X117695493Y-40565469D01*
X117739375Y-40618498D01*
X117763285Y-40679832D01*
X117772910Y-40770335D01*
X117774198Y-40854322D01*
X117770766Y-40974972D01*
X117756709Y-41052889D01*
X117726387Y-41108884D01*
X117696071Y-41142597D01*
X117617944Y-41220822D01*
X116867503Y-41220822D01*
X116619442Y-41220108D01*
X116428482Y-41217728D01*
X116288081Y-41213321D01*
X116191695Y-41206529D01*
X116132779Y-41196992D01*
X116104791Y-41184350D01*
X116100925Y-41178716D01*
X116094921Y-41130291D01*
X116091876Y-41034211D01*
X116092100Y-40906503D01*
X116093710Y-40832051D01*
X116505605Y-40832051D01*
X116515827Y-40868470D01*
X116559931Y-40885805D01*
X116666187Y-40895154D01*
X116835027Y-40896545D01*
X116909332Y-40895149D01*
X117072098Y-40889876D01*
X117180892Y-40882376D01*
X117245398Y-40871169D01*
X117275298Y-40854776D01*
X117280840Y-40838388D01*
X117270216Y-40816973D01*
X117231838Y-40801957D01*
X117155944Y-40791811D01*
X117032772Y-40785008D01*
X116917483Y-40781523D01*
X116733816Y-40780060D01*
X116607722Y-40787176D01*
X116533539Y-40804098D01*
X116505605Y-40832051D01*
X116093710Y-40832051D01*
X116093967Y-40820184D01*
X116103146Y-40503758D01*
G37*
D14*
X64642000Y-53207000D02*
X64332000Y-53207000D01*
X71422000Y-61657000D02*
X71922000Y-61657000D01*
X64332000Y-53207000D02*
X64332000Y-63077000D01*
X71922000Y-53207000D02*
X71922000Y-54627000D01*
X71922000Y-54627000D02*
X71422000Y-54627000D01*
X66162000Y-53207000D02*
X71922000Y-53207000D01*
X71922000Y-63077000D02*
X66162000Y-63077000D01*
X71422000Y-54627000D02*
X71422000Y-61657000D01*
X71922000Y-61657000D02*
X71922000Y-63077000D01*
X64332000Y-63077000D02*
X64642000Y-63077000D01*
X99435000Y-61088000D02*
X99435000Y-61398000D01*
X99435000Y-53808000D02*
X100855000Y-53808000D01*
X109305000Y-61398000D02*
X109305000Y-61088000D01*
X109305000Y-53808000D02*
X109305000Y-59568000D01*
X99435000Y-61398000D02*
X109305000Y-61398000D01*
X107885000Y-54308000D02*
X107885000Y-53808000D01*
X99435000Y-59568000D02*
X99435000Y-53808000D01*
X107885000Y-53808000D02*
X109305000Y-53808000D01*
X100855000Y-54308000D02*
X107885000Y-54308000D01*
X100855000Y-53808000D02*
X100855000Y-54308000D01*
X86735000Y-59568000D02*
X86735000Y-53808000D01*
X96605000Y-61398000D02*
X96605000Y-61088000D01*
X95185000Y-53808000D02*
X96605000Y-53808000D01*
X88155000Y-53808000D02*
X88155000Y-54308000D01*
X86735000Y-61088000D02*
X86735000Y-61398000D01*
X88155000Y-54308000D02*
X95185000Y-54308000D01*
X96605000Y-53808000D02*
X96605000Y-59568000D01*
X86735000Y-61398000D02*
X96605000Y-61398000D01*
X86735000Y-53808000D02*
X88155000Y-53808000D01*
X95185000Y-54308000D02*
X95185000Y-53808000D01*
X109329000Y-43439000D02*
X109329000Y-49199000D01*
X100879000Y-49199000D02*
X99459000Y-49199000D01*
X107909000Y-48699000D02*
X100879000Y-48699000D01*
X99459000Y-41609000D02*
X99459000Y-41919000D01*
X99459000Y-49199000D02*
X99459000Y-43439000D01*
X107909000Y-49199000D02*
X107909000Y-48699000D01*
X109329000Y-41609000D02*
X99459000Y-41609000D01*
X109329000Y-49199000D02*
X107909000Y-49199000D01*
X100879000Y-48699000D02*
X100879000Y-49199000D01*
X109329000Y-41919000D02*
X109329000Y-41609000D01*
X57090000Y-43937000D02*
X59750000Y-43937000D01*
X57090000Y-42667000D02*
X57090000Y-41337000D01*
X57090000Y-43937000D02*
X57090000Y-46537000D01*
X59750000Y-43937000D02*
X59750000Y-46537000D01*
X57090000Y-46537000D02*
X59750000Y-46537000D01*
X57090000Y-41337000D02*
X58420000Y-41337000D01*
X113476000Y-49189000D02*
X112056000Y-49189000D01*
X120506000Y-48689000D02*
X113476000Y-48689000D01*
X121926000Y-49189000D02*
X120506000Y-49189000D01*
X121926000Y-41909000D02*
X121926000Y-41599000D01*
X112056000Y-41599000D02*
X112056000Y-41909000D01*
X120506000Y-49189000D02*
X120506000Y-48689000D01*
X112056000Y-49189000D02*
X112056000Y-43429000D01*
X121926000Y-43429000D02*
X121926000Y-49189000D01*
X121926000Y-41599000D02*
X112056000Y-41599000D01*
X113476000Y-48689000D02*
X113476000Y-49189000D01*
X58319936Y-52097000D02*
X58774064Y-52097000D01*
X58319936Y-53567000D02*
X58774064Y-53567000D01*
X82509000Y-53808000D02*
X83929000Y-53808000D01*
X74059000Y-53808000D02*
X75479000Y-53808000D01*
X74059000Y-61398000D02*
X83929000Y-61398000D01*
X82509000Y-54308000D02*
X82509000Y-53808000D01*
X74059000Y-59568000D02*
X74059000Y-53808000D01*
X75479000Y-53808000D02*
X75479000Y-54308000D01*
X75479000Y-54308000D02*
X82509000Y-54308000D01*
X74059000Y-61088000D02*
X74059000Y-61398000D01*
X83929000Y-53808000D02*
X83929000Y-59568000D01*
X83929000Y-61398000D02*
X83929000Y-61088000D01*
X122029000Y-53798000D02*
X122029000Y-59558000D01*
X113579000Y-53798000D02*
X113579000Y-54298000D01*
X112159000Y-59558000D02*
X112159000Y-53798000D01*
X112159000Y-61078000D02*
X112159000Y-61388000D01*
X112159000Y-61388000D02*
X122029000Y-61388000D01*
X112159000Y-53798000D02*
X113579000Y-53798000D01*
X120609000Y-54298000D02*
X120609000Y-53798000D01*
X120609000Y-53798000D02*
X122029000Y-53798000D01*
X122029000Y-61388000D02*
X122029000Y-61078000D01*
X113579000Y-54298000D02*
X120609000Y-54298000D01*
X63824000Y-50123000D02*
X64134000Y-50123000D01*
X71414000Y-50123000D02*
X65654000Y-50123000D01*
X63824000Y-40253000D02*
X63824000Y-50123000D01*
X71414000Y-48703000D02*
X71414000Y-50123000D01*
X64134000Y-40253000D02*
X63824000Y-40253000D01*
X70914000Y-41673000D02*
X70914000Y-48703000D01*
X65654000Y-40253000D02*
X71414000Y-40253000D01*
X71414000Y-40253000D02*
X71414000Y-41673000D01*
X71414000Y-41673000D02*
X70914000Y-41673000D01*
X70914000Y-48703000D02*
X71414000Y-48703000D01*
X74059000Y-49199000D02*
X74059000Y-43439000D01*
X83929000Y-49199000D02*
X82509000Y-49199000D01*
X82509000Y-48699000D02*
X75479000Y-48699000D01*
X75479000Y-48699000D02*
X75479000Y-49199000D01*
X83929000Y-41609000D02*
X74059000Y-41609000D01*
X74059000Y-41609000D02*
X74059000Y-41919000D01*
X82509000Y-49199000D02*
X82509000Y-48699000D01*
X83929000Y-41919000D02*
X83929000Y-41609000D01*
X75479000Y-49199000D02*
X74059000Y-49199000D01*
X83929000Y-43439000D02*
X83929000Y-49199000D01*
X88179000Y-48699000D02*
X88179000Y-49199000D01*
X88179000Y-49199000D02*
X86759000Y-49199000D01*
X95209000Y-49199000D02*
X95209000Y-48699000D01*
X86759000Y-41609000D02*
X86759000Y-41919000D01*
X96629000Y-43439000D02*
X96629000Y-49199000D01*
X96629000Y-41609000D02*
X86759000Y-41609000D01*
X95209000Y-48699000D02*
X88179000Y-48699000D01*
X96629000Y-41919000D02*
X96629000Y-41609000D01*
X96629000Y-49199000D02*
X95209000Y-49199000D01*
X86759000Y-49199000D02*
X86759000Y-43439000D01*
X58303936Y-49430000D02*
X58758064Y-49430000D01*
X58303936Y-50900000D02*
X58758064Y-50900000D01*
X59877000Y-60076000D02*
X59877000Y-61406000D01*
X59877000Y-61406000D02*
X58547000Y-61406000D01*
X57217000Y-58806000D02*
X57217000Y-56206000D01*
X59877000Y-58806000D02*
X59877000Y-56206000D01*
X59877000Y-56206000D02*
X57217000Y-56206000D01*
X59877000Y-58806000D02*
X57217000Y-58806000D01*
%LPC*%
D15*
X65402000Y-53642000D03*
X65402000Y-62642000D03*
D16*
X69342000Y-56642000D03*
D17*
X69342000Y-59642000D03*
X66342000Y-56642000D03*
X66342000Y-59642000D03*
D15*
X108870000Y-60328000D03*
X99870000Y-60328000D03*
D18*
X102870000Y-56388000D03*
D17*
X105870000Y-56388000D03*
X102870000Y-59388000D03*
X105870000Y-59388000D03*
D15*
X87170000Y-60328000D03*
X96170000Y-60328000D03*
D18*
X90170000Y-56388000D03*
D17*
X93170000Y-56388000D03*
X90170000Y-59388000D03*
X93170000Y-59388000D03*
D15*
X99894000Y-42679000D03*
X108894000Y-42679000D03*
D19*
X105894000Y-46619000D03*
D17*
X102894000Y-46619000D03*
X105894000Y-43619000D03*
X102894000Y-43619000D03*
D20*
X58420000Y-42667000D03*
D21*
X58420000Y-45207000D03*
D15*
X112491000Y-42669000D03*
X121491000Y-42669000D03*
D19*
X118491000Y-46609000D03*
D17*
X115491000Y-46609000D03*
X118491000Y-43609000D03*
X115491000Y-43609000D03*
D22*
X57547000Y-52832000D03*
X59547000Y-52832000D03*
D15*
X74494000Y-60328000D03*
X83494000Y-60328000D03*
D18*
X77494000Y-56388000D03*
D17*
X80494000Y-56388000D03*
X77494000Y-59388000D03*
X80494000Y-59388000D03*
D15*
X121594000Y-60318000D03*
X112594000Y-60318000D03*
D18*
X115594000Y-56378000D03*
D17*
X118594000Y-56378000D03*
X115594000Y-59378000D03*
X118594000Y-59378000D03*
D15*
X64894000Y-40688000D03*
X64894000Y-49688000D03*
D16*
X68834000Y-43688000D03*
D17*
X68834000Y-46688000D03*
X65834000Y-43688000D03*
X65834000Y-46688000D03*
D15*
X83494000Y-42679000D03*
X74494000Y-42679000D03*
D19*
X80494000Y-46619000D03*
D17*
X77494000Y-46619000D03*
X80494000Y-43619000D03*
X77494000Y-43619000D03*
D15*
X96194000Y-42679000D03*
X87194000Y-42679000D03*
D19*
X93194000Y-46619000D03*
D17*
X90194000Y-46619000D03*
X93194000Y-43619000D03*
X90194000Y-43619000D03*
D22*
X57531000Y-50165000D03*
X59531000Y-50165000D03*
D20*
X58547000Y-60076000D03*
D21*
X58547000Y-57536000D03*
M02*
