M48
; DRILL file {KiCad 6.0.1-79c1e3a40b~116~ubuntu20.04.1} date Thu Jan 27 21:22:50 2022
; FORMAT={-:-/ absolute / inch / decimal}
; #@! TF.CreationDate,2022-01-27T21:22:50+08:00
; #@! TF.GenerationSoftware,Kicad,Pcbnew,6.0.1-79c1e3a40b~116~ubuntu20.04.1
; #@! TF.FileFunction,MixedPlating,1,2
FMAT,2
INCH
; #@! TA.AperFunction,Plated,PTH,ComponentDrill
T1C0.0394
; #@! TA.AperFunction,Plated,PTH,ViaDrill
T2C0.1181
; #@! TA.AperFunction,NonPlated,NPTH,ComponentDrill
T3C0.0394
%
G90
G05
T1
X2.3Y-1.6798
X2.3Y-1.7798
X2.305Y-2.2652
X2.305Y-2.3652
X2.5919Y-1.72
X2.5919Y-1.8381
X2.6119Y-2.23
X2.6119Y-2.3481
X2.71Y-1.72
X2.71Y-1.8381
X2.73Y-2.23
X2.73Y-2.3481
X3.0509Y-1.7173
X3.0509Y-1.8354
X3.0509Y-2.22
X3.0509Y-2.3381
X3.1691Y-1.7173
X3.1691Y-1.8354
X3.1691Y-2.22
X3.1691Y-2.3381
X3.55Y-2.22
X3.55Y-2.3381
X3.5509Y-1.7173
X3.5509Y-1.8354
X3.6681Y-2.22
X3.6681Y-2.3381
X3.6691Y-1.7173
X3.6691Y-1.8354
X4.05Y-2.22
X4.05Y-2.3381
X4.0509Y-1.7173
X4.0509Y-1.8354
X4.1681Y-2.22
X4.1681Y-2.3381
X4.1691Y-1.7173
X4.1691Y-1.8354
X4.5469Y-1.7169
X4.5469Y-1.835
X4.5509Y-2.2196
X4.5509Y-2.3377
X4.665Y-1.7169
X4.665Y-1.835
X4.6691Y-2.2196
X4.6691Y-2.3377
T2
X2.24Y-1.46
X2.24Y-2.6
X4.92Y-1.46
X4.92Y-2.6
T3
X2.5549Y-1.6019
X2.5549Y-1.9562
X2.5749Y-2.1119
X2.5749Y-2.4662
X2.9328Y-1.6803
X2.9328Y-2.3751
X3.2872Y-1.6803
X3.2872Y-2.3751
X3.4319Y-2.3751
X3.4328Y-1.6803
X3.7862Y-2.3751
X3.7872Y-1.6803
X3.9319Y-2.3751
X3.9328Y-1.6803
X4.2862Y-2.3751
X4.2872Y-1.6803
X4.4288Y-1.6799
X4.4328Y-2.3747
X4.7831Y-1.6799
X4.7872Y-2.3747
T0
M30
