M48
; DRILL file {KiCad 6.0.4-6f826c9f35~116~ubuntu18.04.1} date Wed Apr 20 11:54:27 2022
; FORMAT={-:-/ absolute / metric / decimal}
; #@! TF.CreationDate,2022-04-20T11:54:27+08:00
; #@! TF.GenerationSoftware,Kicad,Pcbnew,6.0.4-6f826c9f35~116~ubuntu18.04.1
; #@! TF.FileFunction,Plated,1,2,PTH
FMAT,2
METRIC
; #@! TA.AperFunction,Plated,PTH,ComponentDrill
T1C0.900
; #@! TA.AperFunction,Plated,PTH,ComponentDrill
T2C1.100
; #@! TA.AperFunction,Plated,PTH,ComponentDrill
T3C2.000
; #@! TA.AperFunction,Plated,PTH,ComponentDrill
T4C2.750
; #@! TA.AperFunction,Plated,PTH,ViaDrill
T5C3.000
; #@! TA.AperFunction,Plated,PTH,ComponentDrill
T6C4.500
%
G90
G05
T2
X45.72Y-45.72
X45.72Y-55.88
X60.96Y-45.72
X60.96Y-55.88
X76.2Y-45.72
X76.2Y-55.88
X91.44Y-45.72
X91.44Y-55.88
X106.68Y-45.72
X106.68Y-55.88
X121.92Y-45.72
X121.92Y-55.88
X137.16Y-45.72
X137.16Y-55.88
X152.4Y-45.72
X152.4Y-55.88
X167.64Y-45.72
X167.64Y-55.88
X182.88Y-45.72
X182.88Y-55.88
T3
X36.4Y-64.262
X36.4Y-77.978
X39.8Y-64.262
X39.8Y-77.978
X51.64Y-64.262
X51.64Y-77.978
X55.04Y-64.262
X55.04Y-77.978
X66.88Y-64.262
X66.88Y-77.978
X70.28Y-64.262
X70.28Y-77.978
X82.12Y-64.262
X82.12Y-77.978
X85.52Y-64.262
X85.52Y-77.978
X97.36Y-64.262
X97.36Y-77.978
X100.76Y-64.262
X100.76Y-77.978
X112.6Y-64.262
X112.6Y-77.978
X116.0Y-64.262
X116.0Y-77.978
X127.84Y-64.262
X127.84Y-77.978
X131.24Y-64.262
X131.24Y-77.978
X143.08Y-64.262
X143.08Y-77.978
X146.48Y-64.262
X146.48Y-77.978
X158.32Y-64.262
X158.32Y-77.978
X161.72Y-64.262
X161.72Y-77.978
X173.56Y-64.262
X173.56Y-77.978
X176.96Y-64.262
X176.96Y-77.978
T4
X191.485Y-54.82
X191.485Y-62.02
T5
X30.305Y-43.815
X30.305Y-78.105
X205.105Y-43.815
X205.105Y-78.105
T6
X38.1Y-47.2
X38.1Y-54.4
X53.34Y-47.2
X53.34Y-54.4
X68.58Y-47.2
X68.58Y-54.4
X83.82Y-47.2
X83.82Y-54.4
X99.06Y-47.2
X99.06Y-54.4
X114.3Y-47.2
X114.3Y-54.4
X129.54Y-47.2
X129.54Y-54.4
X144.78Y-47.2
X144.78Y-54.4
X160.02Y-47.2
X160.02Y-54.4
X175.26Y-47.2
X175.26Y-54.4
X190.71Y-73.66
X197.91Y-73.66
T1
X197.035Y-51.67G85X197.935Y-51.67
G05
X197.035Y-65.17G85X197.935Y-65.17
G05
T0
M30
