G04 #@! TF.GenerationSoftware,KiCad,Pcbnew,6.0.4-6f826c9f35~116~ubuntu18.04.1*
G04 #@! TF.CreationDate,2022-04-20T11:54:21+08:00*
G04 #@! TF.ProjectId,XT60_connectors,58543630-5f63-46f6-9e6e-6563746f7273,rev?*
G04 #@! TF.SameCoordinates,Original*
G04 #@! TF.FileFunction,Copper,L1,Top*
G04 #@! TF.FilePolarity,Positive*
%FSLAX46Y46*%
G04 Gerber Fmt 4.6, Leading zero omitted, Abs format (unit mm)*
G04 Created by KiCad (PCBNEW 6.0.4-6f826c9f35~116~ubuntu18.04.1) date 2022-04-20 11:54:21*
%MOMM*%
%LPD*%
G01*
G04 APERTURE LIST*
G04 Aperture macros list*
%AMRoundRect*
0 Rectangle with rounded corners*
0 $1 Rounding radius*
0 $2 $3 $4 $5 $6 $7 $8 $9 X,Y pos of 4 corners*
0 Add a 4 corners polygon primitive as box body*
4,1,4,$2,$3,$4,$5,$6,$7,$8,$9,$2,$3,0*
0 Add four circle primitives for the rounded corners*
1,1,$1+$1,$2,$3*
1,1,$1+$1,$4,$5*
1,1,$1+$1,$6,$7*
1,1,$1+$1,$8,$9*
0 Add four rect primitives between the rounded corners*
20,1,$1+$1,$2,$3,$4,$5,0*
20,1,$1+$1,$4,$5,$6,$7,0*
20,1,$1+$1,$6,$7,$8,$9,0*
20,1,$1+$1,$8,$9,$2,$3,0*%
G04 Aperture macros list end*
G04 #@! TA.AperFunction,ComponentPad*
%ADD10R,2.200000X2.200000*%
G04 #@! TD*
G04 #@! TA.AperFunction,ComponentPad*
%ADD11O,2.200000X2.200000*%
G04 #@! TD*
G04 #@! TA.AperFunction,SMDPad,CuDef*
%ADD12RoundRect,0.250000X0.450000X-0.325000X0.450000X0.325000X-0.450000X0.325000X-0.450000X-0.325000X0*%
G04 #@! TD*
G04 #@! TA.AperFunction,SMDPad,CuDef*
%ADD13RoundRect,0.250000X-0.450000X0.350000X-0.450000X-0.350000X0.450000X-0.350000X0.450000X0.350000X0*%
G04 #@! TD*
G04 #@! TA.AperFunction,ComponentPad*
%ADD14RoundRect,1.500000X-1.500000X1.500000X-1.500000X-1.500000X1.500000X-1.500000X1.500000X1.500000X0*%
G04 #@! TD*
G04 #@! TA.AperFunction,ComponentPad*
%ADD15C,6.000000*%
G04 #@! TD*
G04 #@! TA.AperFunction,ComponentPad*
%ADD16R,1.800000X1.200000*%
G04 #@! TD*
G04 #@! TA.AperFunction,ComponentPad*
%ADD17C,4.500000*%
G04 #@! TD*
G04 #@! TA.AperFunction,ComponentPad*
%ADD18C,3.048000*%
G04 #@! TD*
G04 #@! TA.AperFunction,ComponentPad*
%ADD19C,3.051988*%
G04 #@! TD*
G04 #@! TA.AperFunction,ComponentPad*
%ADD20C,3.068258*%
G04 #@! TD*
G04 #@! TA.AperFunction,SMDPad,CuDef*
%ADD21RoundRect,0.250000X-0.325000X-0.450000X0.325000X-0.450000X0.325000X0.450000X-0.325000X0.450000X0*%
G04 #@! TD*
G04 #@! TA.AperFunction,SMDPad,CuDef*
%ADD22RoundRect,0.250000X0.350000X0.450000X-0.350000X0.450000X-0.350000X-0.450000X0.350000X-0.450000X0*%
G04 #@! TD*
G04 #@! TA.AperFunction,ComponentPad*
%ADD23RoundRect,1.500000X1.500000X1.500000X-1.500000X1.500000X-1.500000X-1.500000X1.500000X-1.500000X0*%
G04 #@! TD*
G04 #@! TA.AperFunction,ViaPad*
%ADD24C,6.000000*%
G04 #@! TD*
G04 #@! TA.AperFunction,Conductor*
%ADD25C,2.000000*%
G04 #@! TD*
G04 #@! TA.AperFunction,Conductor*
%ADD26C,1.000000*%
G04 #@! TD*
G04 #@! TA.AperFunction,Conductor*
%ADD27C,5.000000*%
G04 #@! TD*
G04 #@! TA.AperFunction,Conductor*
%ADD28C,0.500000*%
G04 #@! TD*
G04 APERTURE END LIST*
D10*
X137160000Y-55880000D03*
D11*
X137160000Y-45720000D03*
D10*
X106680000Y-55880000D03*
D11*
X106680000Y-45720000D03*
D10*
X45720000Y-55880000D03*
D11*
X45720000Y-45720000D03*
D10*
X182880000Y-55880000D03*
D11*
X182880000Y-45720000D03*
D12*
X121920000Y-71510000D03*
X121920000Y-69460000D03*
D13*
X60960000Y-65040000D03*
X60960000Y-67040000D03*
D14*
X175260000Y-47200000D03*
D15*
X175260000Y-54400000D03*
D14*
X114300000Y-47200000D03*
D15*
X114300000Y-54400000D03*
D16*
X197485000Y-51670000D03*
X197485000Y-65170000D03*
D17*
X191485000Y-54820000D03*
X191485000Y-62020000D03*
D14*
X53340000Y-47200000D03*
D15*
X53340000Y-54400000D03*
D18*
X36400000Y-64262000D03*
D19*
X39800000Y-64262000D03*
D20*
X36400000Y-77978000D03*
D19*
X39800000Y-77978000D03*
D21*
X185030000Y-59055000D03*
X187080000Y-59055000D03*
D12*
X182880000Y-71510000D03*
X182880000Y-69460000D03*
D10*
X91440000Y-55880000D03*
D11*
X91440000Y-45720000D03*
D10*
X167640000Y-55880000D03*
D11*
X167640000Y-45720000D03*
D22*
X187055000Y-61595000D03*
X185055000Y-61595000D03*
D13*
X152400000Y-65040000D03*
X152400000Y-67040000D03*
X121920000Y-65040000D03*
X121920000Y-67040000D03*
D18*
X173560000Y-64262000D03*
D19*
X176960000Y-64262000D03*
X176960000Y-77978000D03*
D20*
X173560000Y-77978000D03*
D12*
X137160000Y-71510000D03*
X137160000Y-69460000D03*
D19*
X116000000Y-64262000D03*
D18*
X112600000Y-64262000D03*
D19*
X116000000Y-77978000D03*
D20*
X112600000Y-77978000D03*
D18*
X66880000Y-64262000D03*
D19*
X70280000Y-64262000D03*
D20*
X66880000Y-77978000D03*
D19*
X70280000Y-77978000D03*
D14*
X144780000Y-47200000D03*
D15*
X144780000Y-54400000D03*
D13*
X106680000Y-65040000D03*
X106680000Y-67040000D03*
D12*
X167640000Y-71510000D03*
X167640000Y-69460000D03*
D13*
X91440000Y-65040000D03*
X91440000Y-67040000D03*
D19*
X146480000Y-64262000D03*
D18*
X143080000Y-64262000D03*
D20*
X143080000Y-77978000D03*
D19*
X146480000Y-77978000D03*
D10*
X121920000Y-55880000D03*
D11*
X121920000Y-45720000D03*
D23*
X197910000Y-73660000D03*
D15*
X190710000Y-73660000D03*
D13*
X76200000Y-65040000D03*
X76200000Y-67040000D03*
D14*
X129540000Y-47200000D03*
D15*
X129540000Y-54400000D03*
D10*
X152400000Y-55880000D03*
D11*
X152400000Y-45720000D03*
D14*
X160020000Y-47200000D03*
D15*
X160020000Y-54400000D03*
D12*
X76200000Y-71510000D03*
X76200000Y-69460000D03*
D13*
X137160000Y-65040000D03*
X137160000Y-67040000D03*
D14*
X99060000Y-47200000D03*
D15*
X99060000Y-54400000D03*
D14*
X83820000Y-47200000D03*
D15*
X83820000Y-54400000D03*
D12*
X91440000Y-71510000D03*
X91440000Y-69460000D03*
D18*
X51640000Y-64262000D03*
D19*
X55040000Y-64262000D03*
D20*
X51640000Y-77978000D03*
D19*
X55040000Y-77978000D03*
D12*
X60960000Y-71510000D03*
X60960000Y-69460000D03*
D19*
X85520000Y-64262000D03*
D18*
X82120000Y-64262000D03*
D19*
X85520000Y-77978000D03*
D20*
X82120000Y-77978000D03*
D10*
X76200000Y-55880000D03*
D11*
X76200000Y-45720000D03*
D10*
X60960000Y-55880000D03*
D11*
X60960000Y-45720000D03*
D13*
X45720000Y-65040000D03*
X45720000Y-67040000D03*
X182880000Y-65040000D03*
X182880000Y-67040000D03*
D12*
X106680000Y-71510000D03*
X106680000Y-69460000D03*
D14*
X38100000Y-47200000D03*
D15*
X38100000Y-54400000D03*
D19*
X131240000Y-64262000D03*
D18*
X127840000Y-64262000D03*
D20*
X127840000Y-77978000D03*
D19*
X131240000Y-77978000D03*
D13*
X167640000Y-65040000D03*
X167640000Y-67040000D03*
D19*
X161720000Y-64262000D03*
D18*
X158320000Y-64262000D03*
D20*
X158320000Y-77978000D03*
D19*
X161720000Y-77978000D03*
D12*
X152400000Y-71510000D03*
X152400000Y-69460000D03*
D18*
X97360000Y-64262000D03*
D19*
X100760000Y-64262000D03*
D20*
X97360000Y-77978000D03*
D19*
X100760000Y-77978000D03*
D12*
X45720000Y-71510000D03*
X45720000Y-69460000D03*
D14*
X68580000Y-47200000D03*
D15*
X68580000Y-54400000D03*
D24*
X205105000Y-43815000D03*
X30305000Y-43815000D03*
X30305000Y-78105000D03*
X205105000Y-78105000D03*
D25*
X131020000Y-45720000D02*
X129540000Y-47200000D01*
X100540000Y-45720000D02*
X99060000Y-47200000D01*
X115780000Y-45720000D02*
X114300000Y-47200000D01*
X182880000Y-45720000D02*
X176740000Y-45720000D01*
X176740000Y-45720000D02*
X175260000Y-47200000D01*
X91440000Y-45720000D02*
X85300000Y-45720000D01*
X106680000Y-45720000D02*
X100540000Y-45720000D01*
X152400000Y-45720000D02*
X146260000Y-45720000D01*
X121920000Y-45720000D02*
X115780000Y-45720000D01*
X70060000Y-45720000D02*
X68580000Y-47200000D01*
X76200000Y-45720000D02*
X70060000Y-45720000D01*
X45720000Y-45720000D02*
X39580000Y-45720000D01*
X54820000Y-45720000D02*
X53340000Y-47200000D01*
X167640000Y-45720000D02*
X161500000Y-45720000D01*
X85300000Y-45720000D02*
X83820000Y-47200000D01*
X39580000Y-45720000D02*
X38100000Y-47200000D01*
X161500000Y-45720000D02*
X160020000Y-47200000D01*
X60960000Y-45720000D02*
X54820000Y-45720000D01*
X137160000Y-45720000D02*
X131020000Y-45720000D01*
X146260000Y-45720000D02*
X144780000Y-47200000D01*
D26*
X45720000Y-67040000D02*
X45720000Y-69460000D01*
X60960000Y-67040000D02*
X60960000Y-69460000D01*
D27*
X186392000Y-77978000D02*
X176960000Y-77978000D01*
X36400000Y-77978000D02*
X176960000Y-77978000D01*
D28*
X191060000Y-61595000D02*
X191485000Y-62020000D01*
X187055000Y-61595000D02*
X191060000Y-61595000D01*
D27*
X191485000Y-62020000D02*
X191485000Y-72885000D01*
X191485000Y-72885000D02*
X186392000Y-77978000D01*
D25*
X54820000Y-55880000D02*
X53340000Y-54400000D01*
D27*
X53340000Y-54400000D02*
X53340000Y-62562000D01*
D26*
X55818000Y-65040000D02*
X55040000Y-64262000D01*
D25*
X60960000Y-55880000D02*
X54820000Y-55880000D01*
D27*
X53340000Y-62562000D02*
X51640000Y-64262000D01*
X53340000Y-62562000D02*
X55040000Y-64262000D01*
D26*
X60960000Y-65040000D02*
X55818000Y-65040000D01*
D25*
X39580000Y-55880000D02*
X38100000Y-54400000D01*
D26*
X45720000Y-65040000D02*
X40578000Y-65040000D01*
D27*
X38100000Y-54400000D02*
X38100000Y-62562000D01*
X38100000Y-62562000D02*
X39800000Y-64262000D01*
X38100000Y-62562000D02*
X36400000Y-64262000D01*
D26*
X40578000Y-65040000D02*
X39800000Y-64262000D01*
D25*
X45720000Y-55880000D02*
X39580000Y-55880000D01*
D26*
X76200000Y-67040000D02*
X76200000Y-69460000D01*
X91440000Y-67040000D02*
X91440000Y-69460000D01*
X71058000Y-65040000D02*
X70280000Y-64262000D01*
X76200000Y-65040000D02*
X71058000Y-65040000D01*
D25*
X76200000Y-55880000D02*
X70060000Y-55880000D01*
D27*
X68580000Y-54400000D02*
X68580000Y-62562000D01*
X68580000Y-62562000D02*
X66880000Y-64262000D01*
X68580000Y-62562000D02*
X70280000Y-64262000D01*
D25*
X70060000Y-55880000D02*
X68580000Y-54400000D01*
X91440000Y-55880000D02*
X85300000Y-55880000D01*
D27*
X83820000Y-62562000D02*
X85520000Y-64262000D01*
D26*
X86298000Y-65040000D02*
X85520000Y-64262000D01*
D27*
X83820000Y-54400000D02*
X83820000Y-57150000D01*
D26*
X91440000Y-65040000D02*
X86298000Y-65040000D01*
D27*
X83820000Y-62562000D02*
X82120000Y-64262000D01*
X83820000Y-57150000D02*
X83820000Y-62562000D01*
D25*
X85300000Y-55880000D02*
X83820000Y-54400000D01*
D26*
X106680000Y-67040000D02*
X106680000Y-69460000D01*
X121920000Y-67040000D02*
X121920000Y-69460000D01*
D27*
X99060000Y-62562000D02*
X97360000Y-64262000D01*
X99060000Y-54400000D02*
X99060000Y-62562000D01*
D25*
X106680000Y-55880000D02*
X100540000Y-55880000D01*
D26*
X106680000Y-65040000D02*
X101538000Y-65040000D01*
X101538000Y-65040000D02*
X100760000Y-64262000D01*
D25*
X100540000Y-55880000D02*
X99060000Y-54400000D01*
D27*
X99060000Y-62562000D02*
X100760000Y-64262000D01*
D25*
X121920000Y-55880000D02*
X115780000Y-55880000D01*
X115780000Y-55880000D02*
X114300000Y-54400000D01*
D26*
X116778000Y-65040000D02*
X116000000Y-64262000D01*
D27*
X114300000Y-62562000D02*
X116000000Y-64262000D01*
X114300000Y-62562000D02*
X112600000Y-64262000D01*
D26*
X121920000Y-65040000D02*
X116778000Y-65040000D01*
D27*
X114300000Y-54400000D02*
X114300000Y-62562000D01*
D26*
X137160000Y-67040000D02*
X137160000Y-69460000D01*
X182880000Y-67040000D02*
X182880000Y-69460000D01*
D27*
X129540000Y-62562000D02*
X131240000Y-64262000D01*
D25*
X131020000Y-55880000D02*
X129540000Y-54400000D01*
D27*
X129540000Y-62562000D02*
X127840000Y-64262000D01*
D25*
X137160000Y-55880000D02*
X131020000Y-55880000D01*
D26*
X137160000Y-65040000D02*
X132018000Y-65040000D01*
X132018000Y-65040000D02*
X131240000Y-64262000D01*
D27*
X129540000Y-54400000D02*
X129540000Y-62562000D01*
D26*
X176960000Y-64262000D02*
X182102000Y-64262000D01*
D25*
X176740000Y-55880000D02*
X175260000Y-54400000D01*
D26*
X182102000Y-64262000D02*
X182880000Y-65040000D01*
D27*
X175260000Y-62562000D02*
X176960000Y-64262000D01*
X175260000Y-62562000D02*
X173560000Y-64262000D01*
X175260000Y-54400000D02*
X175260000Y-62562000D01*
D25*
X182880000Y-55880000D02*
X176740000Y-55880000D01*
D26*
X167640000Y-67040000D02*
X167640000Y-69460000D01*
X152400000Y-67040000D02*
X152400000Y-69460000D01*
D25*
X167640000Y-55880000D02*
X161500000Y-55880000D01*
D26*
X167640000Y-65040000D02*
X162498000Y-65040000D01*
D27*
X160020000Y-54400000D02*
X160020000Y-62562000D01*
X160020000Y-62562000D02*
X161720000Y-64262000D01*
X160020000Y-62562000D02*
X158320000Y-64262000D01*
D25*
X161500000Y-55880000D02*
X160020000Y-54400000D01*
D26*
X162498000Y-65040000D02*
X161720000Y-64262000D01*
X152400000Y-65040000D02*
X147258000Y-65040000D01*
D27*
X144780000Y-62562000D02*
X146480000Y-64262000D01*
D25*
X152400000Y-55880000D02*
X146260000Y-55880000D01*
D26*
X147258000Y-65040000D02*
X146480000Y-64262000D01*
D27*
X144780000Y-54400000D02*
X144780000Y-62562000D01*
X144780000Y-62562000D02*
X143080000Y-64262000D01*
D25*
X146260000Y-55880000D02*
X144780000Y-54400000D01*
D28*
X187080000Y-59055000D02*
X187080000Y-59570000D01*
X187080000Y-59570000D02*
X185055000Y-61595000D01*
G04 #@! TA.AperFunction,Conductor*
G36*
X202573662Y-41168502D02*
G01*
X202620155Y-41222158D01*
X202630259Y-41292432D01*
X202600765Y-41357012D01*
X202594636Y-41363595D01*
X202494098Y-41464133D01*
X202262668Y-41749925D01*
X202062380Y-42058343D01*
X201895427Y-42386006D01*
X201763639Y-42729326D01*
X201668459Y-43084541D01*
X201610931Y-43447759D01*
X201591685Y-43815000D01*
X201610931Y-44182241D01*
X201668459Y-44545459D01*
X201763639Y-44900674D01*
X201895427Y-45243994D01*
X202062380Y-45571657D01*
X202262668Y-45880075D01*
X202494098Y-46165867D01*
X202754133Y-46425902D01*
X203039925Y-46657332D01*
X203348342Y-46857620D01*
X203351276Y-46859115D01*
X203351283Y-46859119D01*
X203673066Y-47023075D01*
X203676006Y-47024573D01*
X204019326Y-47156361D01*
X204374541Y-47251541D01*
X204567558Y-47282112D01*
X204734511Y-47308555D01*
X204734519Y-47308556D01*
X204737759Y-47309069D01*
X205105000Y-47328315D01*
X205472241Y-47309069D01*
X205475481Y-47308556D01*
X205475489Y-47308555D01*
X205642442Y-47282112D01*
X205835459Y-47251541D01*
X206190674Y-47156361D01*
X206533994Y-47024573D01*
X206536934Y-47023075D01*
X206858717Y-46859119D01*
X206858724Y-46859115D01*
X206861658Y-46857620D01*
X207170075Y-46657332D01*
X207455867Y-46425902D01*
X207556405Y-46325364D01*
X207618717Y-46291338D01*
X207689532Y-46296403D01*
X207746368Y-46338950D01*
X207771179Y-46405470D01*
X207771500Y-46414459D01*
X207771500Y-75505541D01*
X207751498Y-75573662D01*
X207697842Y-75620155D01*
X207627568Y-75630259D01*
X207562988Y-75600765D01*
X207556405Y-75594636D01*
X207455867Y-75494098D01*
X207170075Y-75262668D01*
X206861658Y-75062380D01*
X206858724Y-75060885D01*
X206858717Y-75060881D01*
X206536934Y-74896925D01*
X206533994Y-74895427D01*
X206190674Y-74763639D01*
X205835459Y-74668459D01*
X205642442Y-74637888D01*
X205475489Y-74611445D01*
X205475481Y-74611444D01*
X205472241Y-74610931D01*
X205105000Y-74591685D01*
X204737759Y-74610931D01*
X204734519Y-74611444D01*
X204734511Y-74611445D01*
X204567558Y-74637888D01*
X204374541Y-74668459D01*
X204019326Y-74763639D01*
X203676006Y-74895427D01*
X203673066Y-74896925D01*
X203351284Y-75060881D01*
X203351277Y-75060885D01*
X203348343Y-75062380D01*
X203345577Y-75064176D01*
X203345574Y-75064178D01*
X203141482Y-75196716D01*
X203039925Y-75262668D01*
X202754133Y-75494098D01*
X202494098Y-75754133D01*
X202262668Y-76039925D01*
X202260866Y-76042700D01*
X202111317Y-76272987D01*
X202062380Y-76348343D01*
X202060885Y-76351277D01*
X202060881Y-76351284D01*
X201921363Y-76625103D01*
X201895427Y-76676006D01*
X201763639Y-77019326D01*
X201668459Y-77374541D01*
X201610931Y-77737759D01*
X201591685Y-78105000D01*
X201610931Y-78472241D01*
X201668459Y-78835459D01*
X201763639Y-79190674D01*
X201895427Y-79533994D01*
X201896925Y-79536934D01*
X201993547Y-79726564D01*
X202062380Y-79861657D01*
X202262668Y-80170075D01*
X202494098Y-80455867D01*
X202594636Y-80556405D01*
X202628662Y-80618717D01*
X202623597Y-80689532D01*
X202581050Y-80746368D01*
X202514530Y-80771179D01*
X202505541Y-80771500D01*
X188042041Y-80771500D01*
X187973920Y-80751498D01*
X187927427Y-80697842D01*
X187917323Y-80627568D01*
X187946817Y-80562988D01*
X187979614Y-80536052D01*
X188030173Y-80507214D01*
X188033324Y-80505417D01*
X188106987Y-80451305D01*
X188112405Y-80447540D01*
X188185756Y-80399358D01*
X188185760Y-80399355D01*
X188188782Y-80397370D01*
X188191563Y-80395045D01*
X188191568Y-80395041D01*
X188246294Y-80349284D01*
X188252522Y-80344400D01*
X188279793Y-80324367D01*
X188312940Y-80300018D01*
X188379897Y-80237798D01*
X188384829Y-80233450D01*
X188423779Y-80200883D01*
X188476740Y-80147922D01*
X188480064Y-80144717D01*
X188564441Y-80066309D01*
X188567096Y-80063842D01*
X188600628Y-80024582D01*
X188607333Y-80017329D01*
X191536334Y-77088328D01*
X191592817Y-77055716D01*
X191795674Y-77001361D01*
X192138994Y-76869573D01*
X192141934Y-76868075D01*
X192463717Y-76704119D01*
X192463724Y-76704115D01*
X192466658Y-76702620D01*
X192481215Y-76693167D01*
X192772300Y-76504134D01*
X192775075Y-76502332D01*
X193060867Y-76270902D01*
X193320902Y-76010867D01*
X193552332Y-75725075D01*
X193700807Y-75496442D01*
X193750822Y-75419426D01*
X193750824Y-75419423D01*
X193752620Y-75416657D01*
X193822006Y-75280481D01*
X193918075Y-75091934D01*
X193919573Y-75088994D01*
X194051361Y-74745674D01*
X194146541Y-74390459D01*
X194165999Y-74267604D01*
X194179717Y-74227192D01*
X194210052Y-74171321D01*
X194211786Y-74168128D01*
X194245875Y-74083330D01*
X194248493Y-74077279D01*
X194285449Y-73997664D01*
X194285451Y-73997659D01*
X194286973Y-73994380D01*
X194310515Y-73923197D01*
X194313234Y-73915767D01*
X194339840Y-73849584D01*
X194339842Y-73849579D01*
X194341194Y-73846215D01*
X194365311Y-73758059D01*
X194367217Y-73751744D01*
X194394773Y-73668423D01*
X194395913Y-73664977D01*
X194411113Y-73591577D01*
X194412961Y-73583880D01*
X194431786Y-73515068D01*
X194431787Y-73515065D01*
X194432745Y-73511562D01*
X194446570Y-73421216D01*
X194447738Y-73414724D01*
X194465532Y-73328801D01*
X194465533Y-73328796D01*
X194466270Y-73325236D01*
X194472933Y-73250577D01*
X194473884Y-73242719D01*
X194484675Y-73172198D01*
X194485225Y-73168605D01*
X194488574Y-73077272D01*
X194488988Y-73070689D01*
X194493251Y-73022926D01*
X194493251Y-73022916D01*
X194493500Y-73020131D01*
X194493500Y-72945223D01*
X194493585Y-72940606D01*
X194497805Y-72825527D01*
X194497805Y-72825520D01*
X194497938Y-72821888D01*
X194493888Y-72770427D01*
X194493500Y-72760541D01*
X194493500Y-61931568D01*
X194478627Y-61673626D01*
X194418976Y-61331842D01*
X194414236Y-61315838D01*
X194378482Y-61195137D01*
X194320437Y-60999180D01*
X194251048Y-60836500D01*
X194185740Y-60683386D01*
X194185738Y-60683383D01*
X194184316Y-60680048D01*
X194182508Y-60676877D01*
X194014208Y-60381816D01*
X194012417Y-60378676D01*
X193807018Y-60099060D01*
X193570842Y-59844904D01*
X193307019Y-59619578D01*
X193019047Y-59426069D01*
X192710741Y-59266940D01*
X192386189Y-59144302D01*
X192382668Y-59143418D01*
X192382663Y-59143416D01*
X192221378Y-59102904D01*
X192049692Y-59059780D01*
X192027476Y-59056855D01*
X191709315Y-59014968D01*
X191709307Y-59014967D01*
X191705711Y-59014494D01*
X191561045Y-59012221D01*
X191362446Y-59009101D01*
X191362442Y-59009101D01*
X191358804Y-59009044D01*
X191355190Y-59009405D01*
X191355184Y-59009405D01*
X191111843Y-59033694D01*
X191013569Y-59043503D01*
X190674583Y-59117414D01*
X190671156Y-59118587D01*
X190671150Y-59118589D01*
X190592296Y-59145587D01*
X190346339Y-59229797D01*
X190033188Y-59379163D01*
X189739279Y-59563532D01*
X189736443Y-59565804D01*
X189736436Y-59565809D01*
X189619040Y-59659861D01*
X189468509Y-59780459D01*
X189224466Y-60027071D01*
X189222225Y-60029929D01*
X189165732Y-60101978D01*
X189010386Y-60300098D01*
X189008493Y-60303187D01*
X189008491Y-60303190D01*
X188962233Y-60378676D01*
X188829105Y-60595921D01*
X188827582Y-60599202D01*
X188827574Y-60599217D01*
X188751293Y-60763551D01*
X188704469Y-60816918D01*
X188637006Y-60836500D01*
X188176311Y-60836500D01*
X188108190Y-60816498D01*
X188069167Y-60776804D01*
X188060966Y-60763551D01*
X188003478Y-60670652D01*
X187878303Y-60545695D01*
X187872072Y-60541854D01*
X187733968Y-60456725D01*
X187733966Y-60456724D01*
X187727738Y-60452885D01*
X187711569Y-60447522D01*
X187702570Y-60444537D01*
X187644209Y-60404107D01*
X187616972Y-60338543D01*
X187629505Y-60268661D01*
X187677829Y-60216649D01*
X187702359Y-60205421D01*
X187721993Y-60198871D01*
X187722003Y-60198867D01*
X187728946Y-60196550D01*
X187879348Y-60103478D01*
X188004305Y-59978303D01*
X188086534Y-59844904D01*
X188093275Y-59833968D01*
X188093276Y-59833966D01*
X188097115Y-59827738D01*
X188152797Y-59659861D01*
X188163500Y-59555400D01*
X188163500Y-58554600D01*
X188152526Y-58448834D01*
X188096550Y-58281054D01*
X188003478Y-58130652D01*
X187878303Y-58005695D01*
X187872072Y-58001854D01*
X187733968Y-57916725D01*
X187733966Y-57916724D01*
X187727738Y-57912885D01*
X187567254Y-57859655D01*
X187566389Y-57859368D01*
X187566387Y-57859368D01*
X187559861Y-57857203D01*
X187553025Y-57856503D01*
X187553022Y-57856502D01*
X187509969Y-57852091D01*
X187455400Y-57846500D01*
X186704600Y-57846500D01*
X186701354Y-57846837D01*
X186701350Y-57846837D01*
X186605692Y-57856762D01*
X186605688Y-57856763D01*
X186598834Y-57857474D01*
X186592298Y-57859655D01*
X186592296Y-57859655D01*
X186460194Y-57903728D01*
X186431054Y-57913450D01*
X186280652Y-58006522D01*
X186155695Y-58131697D01*
X186062885Y-58282262D01*
X186007203Y-58450139D01*
X185996500Y-58554600D01*
X185996500Y-59528629D01*
X185976498Y-59596750D01*
X185959595Y-59617724D01*
X185227724Y-60349595D01*
X185165412Y-60383621D01*
X185138629Y-60386500D01*
X184654600Y-60386500D01*
X184651354Y-60386837D01*
X184651350Y-60386837D01*
X184555692Y-60396762D01*
X184555688Y-60396763D01*
X184548834Y-60397474D01*
X184542298Y-60399655D01*
X184542296Y-60399655D01*
X184410194Y-60443728D01*
X184381054Y-60453450D01*
X184230652Y-60546522D01*
X184105695Y-60671697D01*
X184012885Y-60822262D01*
X183957203Y-60990139D01*
X183956503Y-60996975D01*
X183956502Y-60996978D01*
X183955919Y-61002666D01*
X183946500Y-61094600D01*
X183946500Y-62095400D01*
X183957474Y-62201166D01*
X183959655Y-62207702D01*
X183959655Y-62207704D01*
X183967889Y-62232383D01*
X184013450Y-62368946D01*
X184106522Y-62519348D01*
X184231697Y-62644305D01*
X184237927Y-62648145D01*
X184237928Y-62648146D01*
X184375090Y-62732694D01*
X184382262Y-62737115D01*
X184427667Y-62752175D01*
X184543611Y-62790632D01*
X184543613Y-62790632D01*
X184550139Y-62792797D01*
X184556975Y-62793497D01*
X184556978Y-62793498D01*
X184600031Y-62797909D01*
X184654600Y-62803500D01*
X185455400Y-62803500D01*
X185458646Y-62803163D01*
X185458650Y-62803163D01*
X185554308Y-62793238D01*
X185554312Y-62793237D01*
X185561166Y-62792526D01*
X185567702Y-62790345D01*
X185567704Y-62790345D01*
X185699806Y-62746272D01*
X185728946Y-62736550D01*
X185879348Y-62643478D01*
X185965784Y-62556891D01*
X186028066Y-62522812D01*
X186098886Y-62527815D01*
X186143976Y-62556736D01*
X186231697Y-62644305D01*
X186237927Y-62648145D01*
X186237928Y-62648146D01*
X186375090Y-62732694D01*
X186382262Y-62737115D01*
X186427667Y-62752175D01*
X186543611Y-62790632D01*
X186543613Y-62790632D01*
X186550139Y-62792797D01*
X186556975Y-62793497D01*
X186556978Y-62793498D01*
X186600031Y-62797909D01*
X186654600Y-62803500D01*
X187455400Y-62803500D01*
X187458646Y-62803163D01*
X187458650Y-62803163D01*
X187554308Y-62793238D01*
X187554312Y-62793237D01*
X187561166Y-62792526D01*
X187567702Y-62790345D01*
X187567704Y-62790345D01*
X187699806Y-62746272D01*
X187728946Y-62736550D01*
X187879348Y-62643478D01*
X188004305Y-62518303D01*
X188068979Y-62413383D01*
X188121750Y-62365891D01*
X188176238Y-62353500D01*
X188350500Y-62353500D01*
X188418621Y-62373502D01*
X188465114Y-62427158D01*
X188476500Y-62479500D01*
X188476500Y-70893958D01*
X188456498Y-70962079D01*
X188429795Y-70991877D01*
X188359133Y-71049098D01*
X188099098Y-71309133D01*
X187867668Y-71594925D01*
X187667380Y-71903343D01*
X187500427Y-72231006D01*
X187368639Y-72574326D01*
X187367785Y-72577512D01*
X187367783Y-72577519D01*
X187314283Y-72777183D01*
X187281671Y-72833667D01*
X185182743Y-74932595D01*
X185120431Y-74966621D01*
X185093648Y-74969500D01*
X36311568Y-74969500D01*
X36309749Y-74969605D01*
X36309745Y-74969605D01*
X36057246Y-74984164D01*
X36057241Y-74984165D01*
X36053626Y-74984373D01*
X35980160Y-74997195D01*
X35715415Y-75043400D01*
X35715408Y-75043402D01*
X35711842Y-75044024D01*
X35708367Y-75045053D01*
X35708360Y-75045055D01*
X35643803Y-75064178D01*
X35379180Y-75142563D01*
X35375844Y-75143986D01*
X35375841Y-75143987D01*
X35063386Y-75277260D01*
X35063383Y-75277262D01*
X35060048Y-75278684D01*
X35056901Y-75280479D01*
X35056897Y-75280481D01*
X34945857Y-75343817D01*
X34758676Y-75450583D01*
X34755764Y-75452722D01*
X34755761Y-75452724D01*
X34702276Y-75492013D01*
X34479060Y-75655982D01*
X34224904Y-75892158D01*
X33999578Y-76155981D01*
X33806069Y-76443953D01*
X33804408Y-76447170D01*
X33804408Y-76447171D01*
X33712570Y-76625103D01*
X33663552Y-76676462D01*
X33594548Y-76693167D01*
X33527468Y-76669915D01*
X33488337Y-76624516D01*
X33349119Y-76351284D01*
X33349115Y-76351277D01*
X33347620Y-76348343D01*
X33298684Y-76272987D01*
X33149134Y-76042700D01*
X33147332Y-76039925D01*
X32915902Y-75754133D01*
X32655867Y-75494098D01*
X32370075Y-75262668D01*
X32061658Y-75062380D01*
X32058724Y-75060885D01*
X32058717Y-75060881D01*
X31736934Y-74896925D01*
X31733994Y-74895427D01*
X31390674Y-74763639D01*
X31035459Y-74668459D01*
X30842442Y-74637888D01*
X30675489Y-74611445D01*
X30675481Y-74611444D01*
X30672241Y-74610931D01*
X30305000Y-74591685D01*
X29937759Y-74610931D01*
X29934519Y-74611444D01*
X29934511Y-74611445D01*
X29767558Y-74637888D01*
X29574541Y-74668459D01*
X29219326Y-74763639D01*
X28876006Y-74895427D01*
X28873066Y-74896925D01*
X28551284Y-75060881D01*
X28551277Y-75060885D01*
X28548343Y-75062380D01*
X28545577Y-75064176D01*
X28545574Y-75064178D01*
X28341482Y-75196716D01*
X28239925Y-75262668D01*
X28018792Y-75441738D01*
X27953267Y-75469063D01*
X27883369Y-75456623D01*
X27831292Y-75408369D01*
X27813500Y-75343817D01*
X27813500Y-64325112D01*
X33387062Y-64325112D01*
X33414283Y-64670993D01*
X33481079Y-65011451D01*
X33482183Y-65014910D01*
X33563752Y-65270500D01*
X33586563Y-65341978D01*
X33588055Y-65345282D01*
X33681710Y-65552704D01*
X33729338Y-65658189D01*
X33731203Y-65661305D01*
X33731205Y-65661309D01*
X33905640Y-65952769D01*
X33905646Y-65952778D01*
X33907511Y-65955894D01*
X34118720Y-66231147D01*
X34121233Y-66233740D01*
X34121238Y-66233746D01*
X34256187Y-66373002D01*
X34360167Y-66480301D01*
X34362976Y-66482600D01*
X34362978Y-66482602D01*
X34419190Y-66528611D01*
X34628651Y-66700053D01*
X34920613Y-66887490D01*
X34923864Y-66889083D01*
X34923870Y-66889086D01*
X35203587Y-67026117D01*
X35232183Y-67040126D01*
X35235596Y-67041335D01*
X35235597Y-67041335D01*
X35555811Y-67154729D01*
X35555818Y-67154731D01*
X35559232Y-67155940D01*
X35562768Y-67156750D01*
X35562772Y-67156751D01*
X35893879Y-67232584D01*
X35893885Y-67232585D01*
X35897426Y-67233396D01*
X36242280Y-67271469D01*
X36589225Y-67269653D01*
X36592826Y-67269217D01*
X36592830Y-67269217D01*
X36930052Y-67228408D01*
X36930054Y-67228408D01*
X36933662Y-67227971D01*
X36937187Y-67227125D01*
X36937191Y-67227124D01*
X37267495Y-67147825D01*
X37267503Y-67147822D01*
X37271025Y-67146977D01*
X37274432Y-67145730D01*
X37274436Y-67145729D01*
X37593442Y-67028989D01*
X37593443Y-67028989D01*
X37596844Y-67027744D01*
X37600072Y-67026120D01*
X37600080Y-67026117D01*
X37782921Y-66934157D01*
X37906799Y-66871853D01*
X37909816Y-66869871D01*
X37909825Y-66869866D01*
X38028724Y-66791763D01*
X38096641Y-66771081D01*
X38170351Y-66793988D01*
X38208984Y-66821139D01*
X38208990Y-66821143D01*
X38211967Y-66823235D01*
X38215154Y-66824965D01*
X38215163Y-66824971D01*
X38333249Y-66889086D01*
X38516872Y-66988785D01*
X38520237Y-66990138D01*
X38520244Y-66990141D01*
X38835415Y-67116840D01*
X38835420Y-67116842D01*
X38838784Y-67118194D01*
X39173438Y-67209745D01*
X39177029Y-67210294D01*
X39177036Y-67210296D01*
X39406630Y-67245428D01*
X39516395Y-67262224D01*
X39645204Y-67266947D01*
X39859473Y-67274805D01*
X39859481Y-67274805D01*
X39863112Y-67274938D01*
X39866733Y-67274653D01*
X39866735Y-67274653D01*
X39937145Y-67269112D01*
X40208993Y-67247717D01*
X40549451Y-67180921D01*
X40659723Y-67145729D01*
X40876520Y-67076541D01*
X40876526Y-67076539D01*
X40879978Y-67075437D01*
X40985606Y-67027744D01*
X41192879Y-66934157D01*
X41192886Y-66934154D01*
X41196189Y-66932662D01*
X41199309Y-66930795D01*
X41490769Y-66756360D01*
X41490778Y-66756354D01*
X41493894Y-66754489D01*
X41769147Y-66543280D01*
X41771740Y-66540767D01*
X41771746Y-66540762D01*
X41944860Y-66373002D01*
X42018301Y-66301833D01*
X42076157Y-66231147D01*
X42187843Y-66094694D01*
X42246468Y-66054648D01*
X42285347Y-66048500D01*
X44548691Y-66048500D01*
X44616812Y-66068502D01*
X44663305Y-66122158D01*
X44673409Y-66192432D01*
X44655951Y-66240616D01*
X44577885Y-66367262D01*
X44522203Y-66535139D01*
X44511500Y-66639600D01*
X44511500Y-67440400D01*
X44522474Y-67546166D01*
X44578450Y-67713946D01*
X44671522Y-67864348D01*
X44676704Y-67869521D01*
X44681249Y-67875255D01*
X44679576Y-67876581D01*
X44708598Y-67929625D01*
X44711500Y-67956511D01*
X44711500Y-68568694D01*
X44691498Y-68636815D01*
X44680317Y-68650702D01*
X44680404Y-68650771D01*
X44675866Y-68656517D01*
X44670695Y-68661697D01*
X44577885Y-68812262D01*
X44522203Y-68980139D01*
X44511500Y-69084600D01*
X44511500Y-69835400D01*
X44522474Y-69941166D01*
X44578450Y-70108946D01*
X44671522Y-70259348D01*
X44796697Y-70384305D01*
X44802927Y-70388145D01*
X44802928Y-70388146D01*
X44940090Y-70472694D01*
X44947262Y-70477115D01*
X45027005Y-70503564D01*
X45108611Y-70530632D01*
X45108613Y-70530632D01*
X45115139Y-70532797D01*
X45121975Y-70533497D01*
X45121978Y-70533498D01*
X45165031Y-70537909D01*
X45219600Y-70543500D01*
X46220400Y-70543500D01*
X46223646Y-70543163D01*
X46223650Y-70543163D01*
X46319308Y-70533238D01*
X46319312Y-70533237D01*
X46326166Y-70532526D01*
X46332702Y-70530345D01*
X46332704Y-70530345D01*
X46464806Y-70486272D01*
X46493946Y-70476550D01*
X46644348Y-70383478D01*
X46769305Y-70258303D01*
X46862115Y-70107738D01*
X46917797Y-69939861D01*
X46928500Y-69835400D01*
X46928500Y-69084600D01*
X46917526Y-68978834D01*
X46861550Y-68811054D01*
X46768478Y-68660652D01*
X46763296Y-68655479D01*
X46758751Y-68649745D01*
X46760424Y-68648419D01*
X46731402Y-68595375D01*
X46728500Y-68568489D01*
X46728500Y-67956306D01*
X46748502Y-67888185D01*
X46759683Y-67874298D01*
X46759596Y-67874229D01*
X46764134Y-67868483D01*
X46769305Y-67863303D01*
X46862115Y-67712738D01*
X46917797Y-67544861D01*
X46928500Y-67440400D01*
X46928500Y-66639600D01*
X46928163Y-66636350D01*
X46918238Y-66540692D01*
X46918237Y-66540688D01*
X46917526Y-66533834D01*
X46898796Y-66477692D01*
X46863868Y-66373002D01*
X46861550Y-66366054D01*
X46768478Y-66215652D01*
X46681891Y-66129216D01*
X46647812Y-66066934D01*
X46652815Y-65996114D01*
X46681736Y-65951025D01*
X46764134Y-65868483D01*
X46769305Y-65863303D01*
X46842571Y-65744444D01*
X46858275Y-65718968D01*
X46858276Y-65718966D01*
X46862115Y-65712738D01*
X46917797Y-65544861D01*
X46928500Y-65440400D01*
X46928500Y-64639600D01*
X46917526Y-64533834D01*
X46861550Y-64366054D01*
X46836214Y-64325112D01*
X48627062Y-64325112D01*
X48654283Y-64670993D01*
X48721079Y-65011451D01*
X48722183Y-65014910D01*
X48803752Y-65270500D01*
X48826563Y-65341978D01*
X48828055Y-65345282D01*
X48921710Y-65552704D01*
X48969338Y-65658189D01*
X48971203Y-65661305D01*
X48971205Y-65661309D01*
X49145640Y-65952769D01*
X49145646Y-65952778D01*
X49147511Y-65955894D01*
X49358720Y-66231147D01*
X49361233Y-66233740D01*
X49361238Y-66233746D01*
X49496187Y-66373002D01*
X49600167Y-66480301D01*
X49602976Y-66482600D01*
X49602978Y-66482602D01*
X49659190Y-66528611D01*
X49868651Y-66700053D01*
X50160613Y-66887490D01*
X50163864Y-66889083D01*
X50163870Y-66889086D01*
X50443587Y-67026117D01*
X50472183Y-67040126D01*
X50475596Y-67041335D01*
X50475597Y-67041335D01*
X50795811Y-67154729D01*
X50795818Y-67154731D01*
X50799232Y-67155940D01*
X50802768Y-67156750D01*
X50802772Y-67156751D01*
X51133879Y-67232584D01*
X51133885Y-67232585D01*
X51137426Y-67233396D01*
X51482280Y-67271469D01*
X51829225Y-67269653D01*
X51832826Y-67269217D01*
X51832830Y-67269217D01*
X52170052Y-67228408D01*
X52170054Y-67228408D01*
X52173662Y-67227971D01*
X52177187Y-67227125D01*
X52177191Y-67227124D01*
X52507495Y-67147825D01*
X52507503Y-67147822D01*
X52511025Y-67146977D01*
X52514432Y-67145730D01*
X52514436Y-67145729D01*
X52833442Y-67028989D01*
X52833443Y-67028989D01*
X52836844Y-67027744D01*
X52840072Y-67026120D01*
X52840080Y-67026117D01*
X53022921Y-66934157D01*
X53146799Y-66871853D01*
X53149816Y-66869871D01*
X53149825Y-66869866D01*
X53268724Y-66791763D01*
X53336641Y-66771081D01*
X53410351Y-66793988D01*
X53448984Y-66821139D01*
X53448990Y-66821143D01*
X53451967Y-66823235D01*
X53455154Y-66824965D01*
X53455163Y-66824971D01*
X53573249Y-66889086D01*
X53756872Y-66988785D01*
X53760237Y-66990138D01*
X53760244Y-66990141D01*
X54075415Y-67116840D01*
X54075420Y-67116842D01*
X54078784Y-67118194D01*
X54413438Y-67209745D01*
X54417029Y-67210294D01*
X54417036Y-67210296D01*
X54646630Y-67245428D01*
X54756395Y-67262224D01*
X54885204Y-67266947D01*
X55099473Y-67274805D01*
X55099481Y-67274805D01*
X55103112Y-67274938D01*
X55106733Y-67274653D01*
X55106735Y-67274653D01*
X55177145Y-67269112D01*
X55448993Y-67247717D01*
X55789451Y-67180921D01*
X55899723Y-67145729D01*
X56116520Y-67076541D01*
X56116526Y-67076539D01*
X56119978Y-67075437D01*
X56225606Y-67027744D01*
X56432879Y-66934157D01*
X56432886Y-66934154D01*
X56436189Y-66932662D01*
X56439309Y-66930795D01*
X56730769Y-66756360D01*
X56730778Y-66756354D01*
X56733894Y-66754489D01*
X57009147Y-66543280D01*
X57011740Y-66540767D01*
X57011746Y-66540762D01*
X57184860Y-66373002D01*
X57258301Y-66301833D01*
X57316157Y-66231147D01*
X57427843Y-66094694D01*
X57486468Y-66054648D01*
X57525347Y-66048500D01*
X59788691Y-66048500D01*
X59856812Y-66068502D01*
X59903305Y-66122158D01*
X59913409Y-66192432D01*
X59895951Y-66240616D01*
X59817885Y-66367262D01*
X59762203Y-66535139D01*
X59751500Y-66639600D01*
X59751500Y-67440400D01*
X59762474Y-67546166D01*
X59818450Y-67713946D01*
X59911522Y-67864348D01*
X59916704Y-67869521D01*
X59921249Y-67875255D01*
X59919576Y-67876581D01*
X59948598Y-67929625D01*
X59951500Y-67956511D01*
X59951500Y-68568694D01*
X59931498Y-68636815D01*
X59920317Y-68650702D01*
X59920404Y-68650771D01*
X59915866Y-68656517D01*
X59910695Y-68661697D01*
X59817885Y-68812262D01*
X59762203Y-68980139D01*
X59751500Y-69084600D01*
X59751500Y-69835400D01*
X59762474Y-69941166D01*
X59818450Y-70108946D01*
X59911522Y-70259348D01*
X60036697Y-70384305D01*
X60042927Y-70388145D01*
X60042928Y-70388146D01*
X60180090Y-70472694D01*
X60187262Y-70477115D01*
X60267005Y-70503564D01*
X60348611Y-70530632D01*
X60348613Y-70530632D01*
X60355139Y-70532797D01*
X60361975Y-70533497D01*
X60361978Y-70533498D01*
X60405031Y-70537909D01*
X60459600Y-70543500D01*
X61460400Y-70543500D01*
X61463646Y-70543163D01*
X61463650Y-70543163D01*
X61559308Y-70533238D01*
X61559312Y-70533237D01*
X61566166Y-70532526D01*
X61572702Y-70530345D01*
X61572704Y-70530345D01*
X61704806Y-70486272D01*
X61733946Y-70476550D01*
X61884348Y-70383478D01*
X62009305Y-70258303D01*
X62102115Y-70107738D01*
X62157797Y-69939861D01*
X62168500Y-69835400D01*
X62168500Y-69084600D01*
X62157526Y-68978834D01*
X62101550Y-68811054D01*
X62008478Y-68660652D01*
X62003296Y-68655479D01*
X61998751Y-68649745D01*
X62000424Y-68648419D01*
X61971402Y-68595375D01*
X61968500Y-68568489D01*
X61968500Y-67956306D01*
X61988502Y-67888185D01*
X61999683Y-67874298D01*
X61999596Y-67874229D01*
X62004134Y-67868483D01*
X62009305Y-67863303D01*
X62102115Y-67712738D01*
X62157797Y-67544861D01*
X62168500Y-67440400D01*
X62168500Y-66639600D01*
X62168163Y-66636350D01*
X62158238Y-66540692D01*
X62158237Y-66540688D01*
X62157526Y-66533834D01*
X62138796Y-66477692D01*
X62103868Y-66373002D01*
X62101550Y-66366054D01*
X62008478Y-66215652D01*
X61921891Y-66129216D01*
X61887812Y-66066934D01*
X61892815Y-65996114D01*
X61921736Y-65951025D01*
X62004134Y-65868483D01*
X62009305Y-65863303D01*
X62082571Y-65744444D01*
X62098275Y-65718968D01*
X62098276Y-65718966D01*
X62102115Y-65712738D01*
X62157797Y-65544861D01*
X62168500Y-65440400D01*
X62168500Y-64639600D01*
X62157526Y-64533834D01*
X62101550Y-64366054D01*
X62076214Y-64325112D01*
X63867062Y-64325112D01*
X63894283Y-64670993D01*
X63961079Y-65011451D01*
X63962183Y-65014910D01*
X64043752Y-65270500D01*
X64066563Y-65341978D01*
X64068055Y-65345282D01*
X64161710Y-65552704D01*
X64209338Y-65658189D01*
X64211203Y-65661305D01*
X64211205Y-65661309D01*
X64385640Y-65952769D01*
X64385646Y-65952778D01*
X64387511Y-65955894D01*
X64598720Y-66231147D01*
X64601233Y-66233740D01*
X64601238Y-66233746D01*
X64736187Y-66373002D01*
X64840167Y-66480301D01*
X64842976Y-66482600D01*
X64842978Y-66482602D01*
X64899190Y-66528611D01*
X65108651Y-66700053D01*
X65400613Y-66887490D01*
X65403864Y-66889083D01*
X65403870Y-66889086D01*
X65683587Y-67026117D01*
X65712183Y-67040126D01*
X65715596Y-67041335D01*
X65715597Y-67041335D01*
X66035811Y-67154729D01*
X66035818Y-67154731D01*
X66039232Y-67155940D01*
X66042768Y-67156750D01*
X66042772Y-67156751D01*
X66373879Y-67232584D01*
X66373885Y-67232585D01*
X66377426Y-67233396D01*
X66722280Y-67271469D01*
X67069225Y-67269653D01*
X67072826Y-67269217D01*
X67072830Y-67269217D01*
X67410052Y-67228408D01*
X67410054Y-67228408D01*
X67413662Y-67227971D01*
X67417187Y-67227125D01*
X67417191Y-67227124D01*
X67747495Y-67147825D01*
X67747503Y-67147822D01*
X67751025Y-67146977D01*
X67754432Y-67145730D01*
X67754436Y-67145729D01*
X68073442Y-67028989D01*
X68073443Y-67028989D01*
X68076844Y-67027744D01*
X68080072Y-67026120D01*
X68080080Y-67026117D01*
X68262921Y-66934157D01*
X68386799Y-66871853D01*
X68389816Y-66869871D01*
X68389825Y-66869866D01*
X68508724Y-66791763D01*
X68576641Y-66771081D01*
X68650351Y-66793988D01*
X68688984Y-66821139D01*
X68688990Y-66821143D01*
X68691967Y-66823235D01*
X68695154Y-66824965D01*
X68695163Y-66824971D01*
X68813249Y-66889086D01*
X68996872Y-66988785D01*
X69000237Y-66990138D01*
X69000244Y-66990141D01*
X69315415Y-67116840D01*
X69315420Y-67116842D01*
X69318784Y-67118194D01*
X69653438Y-67209745D01*
X69657029Y-67210294D01*
X69657036Y-67210296D01*
X69886630Y-67245428D01*
X69996395Y-67262224D01*
X70125204Y-67266947D01*
X70339473Y-67274805D01*
X70339481Y-67274805D01*
X70343112Y-67274938D01*
X70346733Y-67274653D01*
X70346735Y-67274653D01*
X70417145Y-67269112D01*
X70688993Y-67247717D01*
X71029451Y-67180921D01*
X71139723Y-67145729D01*
X71356520Y-67076541D01*
X71356526Y-67076539D01*
X71359978Y-67075437D01*
X71465606Y-67027744D01*
X71672879Y-66934157D01*
X71672886Y-66934154D01*
X71676189Y-66932662D01*
X71679309Y-66930795D01*
X71970769Y-66756360D01*
X71970778Y-66756354D01*
X71973894Y-66754489D01*
X72249147Y-66543280D01*
X72251740Y-66540767D01*
X72251746Y-66540762D01*
X72424860Y-66373002D01*
X72498301Y-66301833D01*
X72556157Y-66231147D01*
X72667843Y-66094694D01*
X72726468Y-66054648D01*
X72765347Y-66048500D01*
X75028691Y-66048500D01*
X75096812Y-66068502D01*
X75143305Y-66122158D01*
X75153409Y-66192432D01*
X75135951Y-66240616D01*
X75057885Y-66367262D01*
X75002203Y-66535139D01*
X74991500Y-66639600D01*
X74991500Y-67440400D01*
X75002474Y-67546166D01*
X75058450Y-67713946D01*
X75151522Y-67864348D01*
X75156704Y-67869521D01*
X75161249Y-67875255D01*
X75159576Y-67876581D01*
X75188598Y-67929625D01*
X75191500Y-67956511D01*
X75191500Y-68568694D01*
X75171498Y-68636815D01*
X75160317Y-68650702D01*
X75160404Y-68650771D01*
X75155866Y-68656517D01*
X75150695Y-68661697D01*
X75057885Y-68812262D01*
X75002203Y-68980139D01*
X74991500Y-69084600D01*
X74991500Y-69835400D01*
X75002474Y-69941166D01*
X75058450Y-70108946D01*
X75151522Y-70259348D01*
X75276697Y-70384305D01*
X75282927Y-70388145D01*
X75282928Y-70388146D01*
X75420090Y-70472694D01*
X75427262Y-70477115D01*
X75507005Y-70503564D01*
X75588611Y-70530632D01*
X75588613Y-70530632D01*
X75595139Y-70532797D01*
X75601975Y-70533497D01*
X75601978Y-70533498D01*
X75645031Y-70537909D01*
X75699600Y-70543500D01*
X76700400Y-70543500D01*
X76703646Y-70543163D01*
X76703650Y-70543163D01*
X76799308Y-70533238D01*
X76799312Y-70533237D01*
X76806166Y-70532526D01*
X76812702Y-70530345D01*
X76812704Y-70530345D01*
X76944806Y-70486272D01*
X76973946Y-70476550D01*
X77124348Y-70383478D01*
X77249305Y-70258303D01*
X77342115Y-70107738D01*
X77397797Y-69939861D01*
X77408500Y-69835400D01*
X77408500Y-69084600D01*
X77397526Y-68978834D01*
X77341550Y-68811054D01*
X77248478Y-68660652D01*
X77243296Y-68655479D01*
X77238751Y-68649745D01*
X77240424Y-68648419D01*
X77211402Y-68595375D01*
X77208500Y-68568489D01*
X77208500Y-67956306D01*
X77228502Y-67888185D01*
X77239683Y-67874298D01*
X77239596Y-67874229D01*
X77244134Y-67868483D01*
X77249305Y-67863303D01*
X77342115Y-67712738D01*
X77397797Y-67544861D01*
X77408500Y-67440400D01*
X77408500Y-66639600D01*
X77408163Y-66636350D01*
X77398238Y-66540692D01*
X77398237Y-66540688D01*
X77397526Y-66533834D01*
X77378796Y-66477692D01*
X77343868Y-66373002D01*
X77341550Y-66366054D01*
X77248478Y-66215652D01*
X77161891Y-66129216D01*
X77127812Y-66066934D01*
X77132815Y-65996114D01*
X77161736Y-65951025D01*
X77244134Y-65868483D01*
X77249305Y-65863303D01*
X77322571Y-65744444D01*
X77338275Y-65718968D01*
X77338276Y-65718966D01*
X77342115Y-65712738D01*
X77397797Y-65544861D01*
X77408500Y-65440400D01*
X77408500Y-64639600D01*
X77397526Y-64533834D01*
X77341550Y-64366054D01*
X77316214Y-64325112D01*
X79107062Y-64325112D01*
X79134283Y-64670993D01*
X79201079Y-65011451D01*
X79202183Y-65014910D01*
X79283752Y-65270500D01*
X79306563Y-65341978D01*
X79308055Y-65345282D01*
X79401710Y-65552704D01*
X79449338Y-65658189D01*
X79451203Y-65661305D01*
X79451205Y-65661309D01*
X79625640Y-65952769D01*
X79625646Y-65952778D01*
X79627511Y-65955894D01*
X79838720Y-66231147D01*
X79841233Y-66233740D01*
X79841238Y-66233746D01*
X79976187Y-66373002D01*
X80080167Y-66480301D01*
X80082976Y-66482600D01*
X80082978Y-66482602D01*
X80139190Y-66528611D01*
X80348651Y-66700053D01*
X80640613Y-66887490D01*
X80643864Y-66889083D01*
X80643870Y-66889086D01*
X80923587Y-67026117D01*
X80952183Y-67040126D01*
X80955596Y-67041335D01*
X80955597Y-67041335D01*
X81275811Y-67154729D01*
X81275818Y-67154731D01*
X81279232Y-67155940D01*
X81282768Y-67156750D01*
X81282772Y-67156751D01*
X81613879Y-67232584D01*
X81613885Y-67232585D01*
X81617426Y-67233396D01*
X81962280Y-67271469D01*
X82309225Y-67269653D01*
X82312826Y-67269217D01*
X82312830Y-67269217D01*
X82650052Y-67228408D01*
X82650054Y-67228408D01*
X82653662Y-67227971D01*
X82657187Y-67227125D01*
X82657191Y-67227124D01*
X82987495Y-67147825D01*
X82987503Y-67147822D01*
X82991025Y-67146977D01*
X82994432Y-67145730D01*
X82994436Y-67145729D01*
X83313442Y-67028989D01*
X83313443Y-67028989D01*
X83316844Y-67027744D01*
X83320072Y-67026120D01*
X83320080Y-67026117D01*
X83502921Y-66934157D01*
X83626799Y-66871853D01*
X83629816Y-66869871D01*
X83629825Y-66869866D01*
X83748724Y-66791763D01*
X83816641Y-66771081D01*
X83890351Y-66793988D01*
X83928984Y-66821139D01*
X83928990Y-66821143D01*
X83931967Y-66823235D01*
X83935154Y-66824965D01*
X83935163Y-66824971D01*
X84053249Y-66889086D01*
X84236872Y-66988785D01*
X84240237Y-66990138D01*
X84240244Y-66990141D01*
X84555415Y-67116840D01*
X84555420Y-67116842D01*
X84558784Y-67118194D01*
X84893438Y-67209745D01*
X84897029Y-67210294D01*
X84897036Y-67210296D01*
X85126630Y-67245428D01*
X85236395Y-67262224D01*
X85365204Y-67266947D01*
X85579473Y-67274805D01*
X85579481Y-67274805D01*
X85583112Y-67274938D01*
X85586733Y-67274653D01*
X85586735Y-67274653D01*
X85657145Y-67269112D01*
X85928993Y-67247717D01*
X86269451Y-67180921D01*
X86379723Y-67145729D01*
X86596520Y-67076541D01*
X86596526Y-67076539D01*
X86599978Y-67075437D01*
X86705606Y-67027744D01*
X86912879Y-66934157D01*
X86912886Y-66934154D01*
X86916189Y-66932662D01*
X86919309Y-66930795D01*
X87210769Y-66756360D01*
X87210778Y-66756354D01*
X87213894Y-66754489D01*
X87489147Y-66543280D01*
X87491740Y-66540767D01*
X87491746Y-66540762D01*
X87664860Y-66373002D01*
X87738301Y-66301833D01*
X87796157Y-66231147D01*
X87907843Y-66094694D01*
X87966468Y-66054648D01*
X88005347Y-66048500D01*
X90268691Y-66048500D01*
X90336812Y-66068502D01*
X90383305Y-66122158D01*
X90393409Y-66192432D01*
X90375951Y-66240616D01*
X90297885Y-66367262D01*
X90242203Y-66535139D01*
X90231500Y-66639600D01*
X90231500Y-67440400D01*
X90242474Y-67546166D01*
X90298450Y-67713946D01*
X90391522Y-67864348D01*
X90396704Y-67869521D01*
X90401249Y-67875255D01*
X90399576Y-67876581D01*
X90428598Y-67929625D01*
X90431500Y-67956511D01*
X90431500Y-68568694D01*
X90411498Y-68636815D01*
X90400317Y-68650702D01*
X90400404Y-68650771D01*
X90395866Y-68656517D01*
X90390695Y-68661697D01*
X90297885Y-68812262D01*
X90242203Y-68980139D01*
X90231500Y-69084600D01*
X90231500Y-69835400D01*
X90242474Y-69941166D01*
X90298450Y-70108946D01*
X90391522Y-70259348D01*
X90516697Y-70384305D01*
X90522927Y-70388145D01*
X90522928Y-70388146D01*
X90660090Y-70472694D01*
X90667262Y-70477115D01*
X90747005Y-70503564D01*
X90828611Y-70530632D01*
X90828613Y-70530632D01*
X90835139Y-70532797D01*
X90841975Y-70533497D01*
X90841978Y-70533498D01*
X90885031Y-70537909D01*
X90939600Y-70543500D01*
X91940400Y-70543500D01*
X91943646Y-70543163D01*
X91943650Y-70543163D01*
X92039308Y-70533238D01*
X92039312Y-70533237D01*
X92046166Y-70532526D01*
X92052702Y-70530345D01*
X92052704Y-70530345D01*
X92184806Y-70486272D01*
X92213946Y-70476550D01*
X92364348Y-70383478D01*
X92489305Y-70258303D01*
X92582115Y-70107738D01*
X92637797Y-69939861D01*
X92648500Y-69835400D01*
X92648500Y-69084600D01*
X92637526Y-68978834D01*
X92581550Y-68811054D01*
X92488478Y-68660652D01*
X92483296Y-68655479D01*
X92478751Y-68649745D01*
X92480424Y-68648419D01*
X92451402Y-68595375D01*
X92448500Y-68568489D01*
X92448500Y-67956306D01*
X92468502Y-67888185D01*
X92479683Y-67874298D01*
X92479596Y-67874229D01*
X92484134Y-67868483D01*
X92489305Y-67863303D01*
X92582115Y-67712738D01*
X92637797Y-67544861D01*
X92648500Y-67440400D01*
X92648500Y-66639600D01*
X92648163Y-66636350D01*
X92638238Y-66540692D01*
X92638237Y-66540688D01*
X92637526Y-66533834D01*
X92618796Y-66477692D01*
X92583868Y-66373002D01*
X92581550Y-66366054D01*
X92488478Y-66215652D01*
X92401891Y-66129216D01*
X92367812Y-66066934D01*
X92372815Y-65996114D01*
X92401736Y-65951025D01*
X92484134Y-65868483D01*
X92489305Y-65863303D01*
X92562571Y-65744444D01*
X92578275Y-65718968D01*
X92578276Y-65718966D01*
X92582115Y-65712738D01*
X92637797Y-65544861D01*
X92648500Y-65440400D01*
X92648500Y-64639600D01*
X92637526Y-64533834D01*
X92581550Y-64366054D01*
X92556214Y-64325112D01*
X94347062Y-64325112D01*
X94374283Y-64670993D01*
X94441079Y-65011451D01*
X94442183Y-65014910D01*
X94523752Y-65270500D01*
X94546563Y-65341978D01*
X94548055Y-65345282D01*
X94641710Y-65552704D01*
X94689338Y-65658189D01*
X94691203Y-65661305D01*
X94691205Y-65661309D01*
X94865640Y-65952769D01*
X94865646Y-65952778D01*
X94867511Y-65955894D01*
X95078720Y-66231147D01*
X95081233Y-66233740D01*
X95081238Y-66233746D01*
X95216187Y-66373002D01*
X95320167Y-66480301D01*
X95322976Y-66482600D01*
X95322978Y-66482602D01*
X95379190Y-66528611D01*
X95588651Y-66700053D01*
X95880613Y-66887490D01*
X95883864Y-66889083D01*
X95883870Y-66889086D01*
X96163587Y-67026117D01*
X96192183Y-67040126D01*
X96195596Y-67041335D01*
X96195597Y-67041335D01*
X96515811Y-67154729D01*
X96515818Y-67154731D01*
X96519232Y-67155940D01*
X96522768Y-67156750D01*
X96522772Y-67156751D01*
X96853879Y-67232584D01*
X96853885Y-67232585D01*
X96857426Y-67233396D01*
X97202280Y-67271469D01*
X97549225Y-67269653D01*
X97552826Y-67269217D01*
X97552830Y-67269217D01*
X97890052Y-67228408D01*
X97890054Y-67228408D01*
X97893662Y-67227971D01*
X97897187Y-67227125D01*
X97897191Y-67227124D01*
X98227495Y-67147825D01*
X98227503Y-67147822D01*
X98231025Y-67146977D01*
X98234432Y-67145730D01*
X98234436Y-67145729D01*
X98553442Y-67028989D01*
X98553443Y-67028989D01*
X98556844Y-67027744D01*
X98560072Y-67026120D01*
X98560080Y-67026117D01*
X98742921Y-66934157D01*
X98866799Y-66871853D01*
X98869816Y-66869871D01*
X98869825Y-66869866D01*
X98988724Y-66791763D01*
X99056641Y-66771081D01*
X99130351Y-66793988D01*
X99168984Y-66821139D01*
X99168990Y-66821143D01*
X99171967Y-66823235D01*
X99175154Y-66824965D01*
X99175163Y-66824971D01*
X99293249Y-66889086D01*
X99476872Y-66988785D01*
X99480237Y-66990138D01*
X99480244Y-66990141D01*
X99795415Y-67116840D01*
X99795420Y-67116842D01*
X99798784Y-67118194D01*
X100133438Y-67209745D01*
X100137029Y-67210294D01*
X100137036Y-67210296D01*
X100366630Y-67245428D01*
X100476395Y-67262224D01*
X100605204Y-67266947D01*
X100819473Y-67274805D01*
X100819481Y-67274805D01*
X100823112Y-67274938D01*
X100826733Y-67274653D01*
X100826735Y-67274653D01*
X100897145Y-67269112D01*
X101168993Y-67247717D01*
X101509451Y-67180921D01*
X101619723Y-67145729D01*
X101836520Y-67076541D01*
X101836526Y-67076539D01*
X101839978Y-67075437D01*
X101945606Y-67027744D01*
X102152879Y-66934157D01*
X102152886Y-66934154D01*
X102156189Y-66932662D01*
X102159309Y-66930795D01*
X102450769Y-66756360D01*
X102450778Y-66756354D01*
X102453894Y-66754489D01*
X102729147Y-66543280D01*
X102731740Y-66540767D01*
X102731746Y-66540762D01*
X102904860Y-66373002D01*
X102978301Y-66301833D01*
X103036157Y-66231147D01*
X103147843Y-66094694D01*
X103206468Y-66054648D01*
X103245347Y-66048500D01*
X105508691Y-66048500D01*
X105576812Y-66068502D01*
X105623305Y-66122158D01*
X105633409Y-66192432D01*
X105615951Y-66240616D01*
X105537885Y-66367262D01*
X105482203Y-66535139D01*
X105471500Y-66639600D01*
X105471500Y-67440400D01*
X105482474Y-67546166D01*
X105538450Y-67713946D01*
X105631522Y-67864348D01*
X105636704Y-67869521D01*
X105641249Y-67875255D01*
X105639576Y-67876581D01*
X105668598Y-67929625D01*
X105671500Y-67956511D01*
X105671500Y-68568694D01*
X105651498Y-68636815D01*
X105640317Y-68650702D01*
X105640404Y-68650771D01*
X105635866Y-68656517D01*
X105630695Y-68661697D01*
X105537885Y-68812262D01*
X105482203Y-68980139D01*
X105471500Y-69084600D01*
X105471500Y-69835400D01*
X105482474Y-69941166D01*
X105538450Y-70108946D01*
X105631522Y-70259348D01*
X105756697Y-70384305D01*
X105762927Y-70388145D01*
X105762928Y-70388146D01*
X105900090Y-70472694D01*
X105907262Y-70477115D01*
X105987005Y-70503564D01*
X106068611Y-70530632D01*
X106068613Y-70530632D01*
X106075139Y-70532797D01*
X106081975Y-70533497D01*
X106081978Y-70533498D01*
X106125031Y-70537909D01*
X106179600Y-70543500D01*
X107180400Y-70543500D01*
X107183646Y-70543163D01*
X107183650Y-70543163D01*
X107279308Y-70533238D01*
X107279312Y-70533237D01*
X107286166Y-70532526D01*
X107292702Y-70530345D01*
X107292704Y-70530345D01*
X107424806Y-70486272D01*
X107453946Y-70476550D01*
X107604348Y-70383478D01*
X107729305Y-70258303D01*
X107822115Y-70107738D01*
X107877797Y-69939861D01*
X107888500Y-69835400D01*
X107888500Y-69084600D01*
X107877526Y-68978834D01*
X107821550Y-68811054D01*
X107728478Y-68660652D01*
X107723296Y-68655479D01*
X107718751Y-68649745D01*
X107720424Y-68648419D01*
X107691402Y-68595375D01*
X107688500Y-68568489D01*
X107688500Y-67956306D01*
X107708502Y-67888185D01*
X107719683Y-67874298D01*
X107719596Y-67874229D01*
X107724134Y-67868483D01*
X107729305Y-67863303D01*
X107822115Y-67712738D01*
X107877797Y-67544861D01*
X107888500Y-67440400D01*
X107888500Y-66639600D01*
X107888163Y-66636350D01*
X107878238Y-66540692D01*
X107878237Y-66540688D01*
X107877526Y-66533834D01*
X107858796Y-66477692D01*
X107823868Y-66373002D01*
X107821550Y-66366054D01*
X107728478Y-66215652D01*
X107641891Y-66129216D01*
X107607812Y-66066934D01*
X107612815Y-65996114D01*
X107641736Y-65951025D01*
X107724134Y-65868483D01*
X107729305Y-65863303D01*
X107802571Y-65744444D01*
X107818275Y-65718968D01*
X107818276Y-65718966D01*
X107822115Y-65712738D01*
X107877797Y-65544861D01*
X107888500Y-65440400D01*
X107888500Y-64639600D01*
X107877526Y-64533834D01*
X107821550Y-64366054D01*
X107796214Y-64325112D01*
X109587062Y-64325112D01*
X109614283Y-64670993D01*
X109681079Y-65011451D01*
X109682183Y-65014910D01*
X109763752Y-65270500D01*
X109786563Y-65341978D01*
X109788055Y-65345282D01*
X109881710Y-65552704D01*
X109929338Y-65658189D01*
X109931203Y-65661305D01*
X109931205Y-65661309D01*
X110105640Y-65952769D01*
X110105646Y-65952778D01*
X110107511Y-65955894D01*
X110318720Y-66231147D01*
X110321233Y-66233740D01*
X110321238Y-66233746D01*
X110456187Y-66373002D01*
X110560167Y-66480301D01*
X110562976Y-66482600D01*
X110562978Y-66482602D01*
X110619190Y-66528611D01*
X110828651Y-66700053D01*
X111120613Y-66887490D01*
X111123864Y-66889083D01*
X111123870Y-66889086D01*
X111403587Y-67026117D01*
X111432183Y-67040126D01*
X111435596Y-67041335D01*
X111435597Y-67041335D01*
X111755811Y-67154729D01*
X111755818Y-67154731D01*
X111759232Y-67155940D01*
X111762768Y-67156750D01*
X111762772Y-67156751D01*
X112093879Y-67232584D01*
X112093885Y-67232585D01*
X112097426Y-67233396D01*
X112442280Y-67271469D01*
X112789225Y-67269653D01*
X112792826Y-67269217D01*
X112792830Y-67269217D01*
X113130052Y-67228408D01*
X113130054Y-67228408D01*
X113133662Y-67227971D01*
X113137187Y-67227125D01*
X113137191Y-67227124D01*
X113467495Y-67147825D01*
X113467503Y-67147822D01*
X113471025Y-67146977D01*
X113474432Y-67145730D01*
X113474436Y-67145729D01*
X113793442Y-67028989D01*
X113793443Y-67028989D01*
X113796844Y-67027744D01*
X113800072Y-67026120D01*
X113800080Y-67026117D01*
X113982921Y-66934157D01*
X114106799Y-66871853D01*
X114109816Y-66869871D01*
X114109825Y-66869866D01*
X114228724Y-66791763D01*
X114296641Y-66771081D01*
X114370351Y-66793988D01*
X114408984Y-66821139D01*
X114408990Y-66821143D01*
X114411967Y-66823235D01*
X114415154Y-66824965D01*
X114415163Y-66824971D01*
X114533249Y-66889086D01*
X114716872Y-66988785D01*
X114720237Y-66990138D01*
X114720244Y-66990141D01*
X115035415Y-67116840D01*
X115035420Y-67116842D01*
X115038784Y-67118194D01*
X115373438Y-67209745D01*
X115377029Y-67210294D01*
X115377036Y-67210296D01*
X115606630Y-67245428D01*
X115716395Y-67262224D01*
X115845204Y-67266947D01*
X116059473Y-67274805D01*
X116059481Y-67274805D01*
X116063112Y-67274938D01*
X116066733Y-67274653D01*
X116066735Y-67274653D01*
X116137145Y-67269112D01*
X116408993Y-67247717D01*
X116749451Y-67180921D01*
X116859723Y-67145729D01*
X117076520Y-67076541D01*
X117076526Y-67076539D01*
X117079978Y-67075437D01*
X117185606Y-67027744D01*
X117392879Y-66934157D01*
X117392886Y-66934154D01*
X117396189Y-66932662D01*
X117399309Y-66930795D01*
X117690769Y-66756360D01*
X117690778Y-66756354D01*
X117693894Y-66754489D01*
X117969147Y-66543280D01*
X117971740Y-66540767D01*
X117971746Y-66540762D01*
X118144860Y-66373002D01*
X118218301Y-66301833D01*
X118276157Y-66231147D01*
X118387843Y-66094694D01*
X118446468Y-66054648D01*
X118485347Y-66048500D01*
X120748691Y-66048500D01*
X120816812Y-66068502D01*
X120863305Y-66122158D01*
X120873409Y-66192432D01*
X120855951Y-66240616D01*
X120777885Y-66367262D01*
X120722203Y-66535139D01*
X120711500Y-66639600D01*
X120711500Y-67440400D01*
X120722474Y-67546166D01*
X120778450Y-67713946D01*
X120871522Y-67864348D01*
X120876704Y-67869521D01*
X120881249Y-67875255D01*
X120879576Y-67876581D01*
X120908598Y-67929625D01*
X120911500Y-67956511D01*
X120911500Y-68568694D01*
X120891498Y-68636815D01*
X120880317Y-68650702D01*
X120880404Y-68650771D01*
X120875866Y-68656517D01*
X120870695Y-68661697D01*
X120777885Y-68812262D01*
X120722203Y-68980139D01*
X120711500Y-69084600D01*
X120711500Y-69835400D01*
X120722474Y-69941166D01*
X120778450Y-70108946D01*
X120871522Y-70259348D01*
X120996697Y-70384305D01*
X121002927Y-70388145D01*
X121002928Y-70388146D01*
X121140090Y-70472694D01*
X121147262Y-70477115D01*
X121227005Y-70503564D01*
X121308611Y-70530632D01*
X121308613Y-70530632D01*
X121315139Y-70532797D01*
X121321975Y-70533497D01*
X121321978Y-70533498D01*
X121365031Y-70537909D01*
X121419600Y-70543500D01*
X122420400Y-70543500D01*
X122423646Y-70543163D01*
X122423650Y-70543163D01*
X122519308Y-70533238D01*
X122519312Y-70533237D01*
X122526166Y-70532526D01*
X122532702Y-70530345D01*
X122532704Y-70530345D01*
X122664806Y-70486272D01*
X122693946Y-70476550D01*
X122844348Y-70383478D01*
X122969305Y-70258303D01*
X123062115Y-70107738D01*
X123117797Y-69939861D01*
X123128500Y-69835400D01*
X123128500Y-69084600D01*
X123117526Y-68978834D01*
X123061550Y-68811054D01*
X122968478Y-68660652D01*
X122963296Y-68655479D01*
X122958751Y-68649745D01*
X122960424Y-68648419D01*
X122931402Y-68595375D01*
X122928500Y-68568489D01*
X122928500Y-67956306D01*
X122948502Y-67888185D01*
X122959683Y-67874298D01*
X122959596Y-67874229D01*
X122964134Y-67868483D01*
X122969305Y-67863303D01*
X123062115Y-67712738D01*
X123117797Y-67544861D01*
X123128500Y-67440400D01*
X123128500Y-66639600D01*
X123128163Y-66636350D01*
X123118238Y-66540692D01*
X123118237Y-66540688D01*
X123117526Y-66533834D01*
X123098796Y-66477692D01*
X123063868Y-66373002D01*
X123061550Y-66366054D01*
X122968478Y-66215652D01*
X122881891Y-66129216D01*
X122847812Y-66066934D01*
X122852815Y-65996114D01*
X122881736Y-65951025D01*
X122964134Y-65868483D01*
X122969305Y-65863303D01*
X123042571Y-65744444D01*
X123058275Y-65718968D01*
X123058276Y-65718966D01*
X123062115Y-65712738D01*
X123117797Y-65544861D01*
X123128500Y-65440400D01*
X123128500Y-64639600D01*
X123117526Y-64533834D01*
X123061550Y-64366054D01*
X123036214Y-64325112D01*
X124827062Y-64325112D01*
X124854283Y-64670993D01*
X124921079Y-65011451D01*
X124922183Y-65014910D01*
X125003752Y-65270500D01*
X125026563Y-65341978D01*
X125028055Y-65345282D01*
X125121710Y-65552704D01*
X125169338Y-65658189D01*
X125171203Y-65661305D01*
X125171205Y-65661309D01*
X125345640Y-65952769D01*
X125345646Y-65952778D01*
X125347511Y-65955894D01*
X125558720Y-66231147D01*
X125561233Y-66233740D01*
X125561238Y-66233746D01*
X125696187Y-66373002D01*
X125800167Y-66480301D01*
X125802976Y-66482600D01*
X125802978Y-66482602D01*
X125859190Y-66528611D01*
X126068651Y-66700053D01*
X126360613Y-66887490D01*
X126363864Y-66889083D01*
X126363870Y-66889086D01*
X126643587Y-67026117D01*
X126672183Y-67040126D01*
X126675596Y-67041335D01*
X126675597Y-67041335D01*
X126995811Y-67154729D01*
X126995818Y-67154731D01*
X126999232Y-67155940D01*
X127002768Y-67156750D01*
X127002772Y-67156751D01*
X127333879Y-67232584D01*
X127333885Y-67232585D01*
X127337426Y-67233396D01*
X127682280Y-67271469D01*
X128029225Y-67269653D01*
X128032826Y-67269217D01*
X128032830Y-67269217D01*
X128370052Y-67228408D01*
X128370054Y-67228408D01*
X128373662Y-67227971D01*
X128377187Y-67227125D01*
X128377191Y-67227124D01*
X128707495Y-67147825D01*
X128707503Y-67147822D01*
X128711025Y-67146977D01*
X128714432Y-67145730D01*
X128714436Y-67145729D01*
X129033442Y-67028989D01*
X129033443Y-67028989D01*
X129036844Y-67027744D01*
X129040072Y-67026120D01*
X129040080Y-67026117D01*
X129222921Y-66934157D01*
X129346799Y-66871853D01*
X129349816Y-66869871D01*
X129349825Y-66869866D01*
X129468724Y-66791763D01*
X129536641Y-66771081D01*
X129610351Y-66793988D01*
X129648984Y-66821139D01*
X129648990Y-66821143D01*
X129651967Y-66823235D01*
X129655154Y-66824965D01*
X129655163Y-66824971D01*
X129773249Y-66889086D01*
X129956872Y-66988785D01*
X129960237Y-66990138D01*
X129960244Y-66990141D01*
X130275415Y-67116840D01*
X130275420Y-67116842D01*
X130278784Y-67118194D01*
X130613438Y-67209745D01*
X130617029Y-67210294D01*
X130617036Y-67210296D01*
X130846630Y-67245428D01*
X130956395Y-67262224D01*
X131085204Y-67266947D01*
X131299473Y-67274805D01*
X131299481Y-67274805D01*
X131303112Y-67274938D01*
X131306733Y-67274653D01*
X131306735Y-67274653D01*
X131377145Y-67269112D01*
X131648993Y-67247717D01*
X131989451Y-67180921D01*
X132099723Y-67145729D01*
X132316520Y-67076541D01*
X132316526Y-67076539D01*
X132319978Y-67075437D01*
X132425606Y-67027744D01*
X132632879Y-66934157D01*
X132632886Y-66934154D01*
X132636189Y-66932662D01*
X132639309Y-66930795D01*
X132930769Y-66756360D01*
X132930778Y-66756354D01*
X132933894Y-66754489D01*
X133209147Y-66543280D01*
X133211740Y-66540767D01*
X133211746Y-66540762D01*
X133384860Y-66373002D01*
X133458301Y-66301833D01*
X133516157Y-66231147D01*
X133627843Y-66094694D01*
X133686468Y-66054648D01*
X133725347Y-66048500D01*
X135988691Y-66048500D01*
X136056812Y-66068502D01*
X136103305Y-66122158D01*
X136113409Y-66192432D01*
X136095951Y-66240616D01*
X136017885Y-66367262D01*
X135962203Y-66535139D01*
X135951500Y-66639600D01*
X135951500Y-67440400D01*
X135962474Y-67546166D01*
X136018450Y-67713946D01*
X136111522Y-67864348D01*
X136116704Y-67869521D01*
X136121249Y-67875255D01*
X136119576Y-67876581D01*
X136148598Y-67929625D01*
X136151500Y-67956511D01*
X136151500Y-68568694D01*
X136131498Y-68636815D01*
X136120317Y-68650702D01*
X136120404Y-68650771D01*
X136115866Y-68656517D01*
X136110695Y-68661697D01*
X136017885Y-68812262D01*
X135962203Y-68980139D01*
X135951500Y-69084600D01*
X135951500Y-69835400D01*
X135962474Y-69941166D01*
X136018450Y-70108946D01*
X136111522Y-70259348D01*
X136236697Y-70384305D01*
X136242927Y-70388145D01*
X136242928Y-70388146D01*
X136380090Y-70472694D01*
X136387262Y-70477115D01*
X136467005Y-70503564D01*
X136548611Y-70530632D01*
X136548613Y-70530632D01*
X136555139Y-70532797D01*
X136561975Y-70533497D01*
X136561978Y-70533498D01*
X136605031Y-70537909D01*
X136659600Y-70543500D01*
X137660400Y-70543500D01*
X137663646Y-70543163D01*
X137663650Y-70543163D01*
X137759308Y-70533238D01*
X137759312Y-70533237D01*
X137766166Y-70532526D01*
X137772702Y-70530345D01*
X137772704Y-70530345D01*
X137904806Y-70486272D01*
X137933946Y-70476550D01*
X138084348Y-70383478D01*
X138209305Y-70258303D01*
X138302115Y-70107738D01*
X138357797Y-69939861D01*
X138368500Y-69835400D01*
X138368500Y-69084600D01*
X138357526Y-68978834D01*
X138301550Y-68811054D01*
X138208478Y-68660652D01*
X138203296Y-68655479D01*
X138198751Y-68649745D01*
X138200424Y-68648419D01*
X138171402Y-68595375D01*
X138168500Y-68568489D01*
X138168500Y-67956306D01*
X138188502Y-67888185D01*
X138199683Y-67874298D01*
X138199596Y-67874229D01*
X138204134Y-67868483D01*
X138209305Y-67863303D01*
X138302115Y-67712738D01*
X138357797Y-67544861D01*
X138368500Y-67440400D01*
X138368500Y-66639600D01*
X138368163Y-66636350D01*
X138358238Y-66540692D01*
X138358237Y-66540688D01*
X138357526Y-66533834D01*
X138338796Y-66477692D01*
X138303868Y-66373002D01*
X138301550Y-66366054D01*
X138208478Y-66215652D01*
X138121891Y-66129216D01*
X138087812Y-66066934D01*
X138092815Y-65996114D01*
X138121736Y-65951025D01*
X138204134Y-65868483D01*
X138209305Y-65863303D01*
X138282571Y-65744444D01*
X138298275Y-65718968D01*
X138298276Y-65718966D01*
X138302115Y-65712738D01*
X138357797Y-65544861D01*
X138368500Y-65440400D01*
X138368500Y-64639600D01*
X138357526Y-64533834D01*
X138301550Y-64366054D01*
X138276214Y-64325112D01*
X140067062Y-64325112D01*
X140094283Y-64670993D01*
X140161079Y-65011451D01*
X140162183Y-65014910D01*
X140243752Y-65270500D01*
X140266563Y-65341978D01*
X140268055Y-65345282D01*
X140361710Y-65552704D01*
X140409338Y-65658189D01*
X140411203Y-65661305D01*
X140411205Y-65661309D01*
X140585640Y-65952769D01*
X140585646Y-65952778D01*
X140587511Y-65955894D01*
X140798720Y-66231147D01*
X140801233Y-66233740D01*
X140801238Y-66233746D01*
X140936187Y-66373002D01*
X141040167Y-66480301D01*
X141042976Y-66482600D01*
X141042978Y-66482602D01*
X141099190Y-66528611D01*
X141308651Y-66700053D01*
X141600613Y-66887490D01*
X141603864Y-66889083D01*
X141603870Y-66889086D01*
X141883587Y-67026117D01*
X141912183Y-67040126D01*
X141915596Y-67041335D01*
X141915597Y-67041335D01*
X142235811Y-67154729D01*
X142235818Y-67154731D01*
X142239232Y-67155940D01*
X142242768Y-67156750D01*
X142242772Y-67156751D01*
X142573879Y-67232584D01*
X142573885Y-67232585D01*
X142577426Y-67233396D01*
X142922280Y-67271469D01*
X143269225Y-67269653D01*
X143272826Y-67269217D01*
X143272830Y-67269217D01*
X143610052Y-67228408D01*
X143610054Y-67228408D01*
X143613662Y-67227971D01*
X143617187Y-67227125D01*
X143617191Y-67227124D01*
X143947495Y-67147825D01*
X143947503Y-67147822D01*
X143951025Y-67146977D01*
X143954432Y-67145730D01*
X143954436Y-67145729D01*
X144273442Y-67028989D01*
X144273443Y-67028989D01*
X144276844Y-67027744D01*
X144280072Y-67026120D01*
X144280080Y-67026117D01*
X144462921Y-66934157D01*
X144586799Y-66871853D01*
X144589816Y-66869871D01*
X144589825Y-66869866D01*
X144708724Y-66791763D01*
X144776641Y-66771081D01*
X144850351Y-66793988D01*
X144888984Y-66821139D01*
X144888990Y-66821143D01*
X144891967Y-66823235D01*
X144895154Y-66824965D01*
X144895163Y-66824971D01*
X145013249Y-66889086D01*
X145196872Y-66988785D01*
X145200237Y-66990138D01*
X145200244Y-66990141D01*
X145515415Y-67116840D01*
X145515420Y-67116842D01*
X145518784Y-67118194D01*
X145853438Y-67209745D01*
X145857029Y-67210294D01*
X145857036Y-67210296D01*
X146086630Y-67245428D01*
X146196395Y-67262224D01*
X146325204Y-67266947D01*
X146539473Y-67274805D01*
X146539481Y-67274805D01*
X146543112Y-67274938D01*
X146546733Y-67274653D01*
X146546735Y-67274653D01*
X146617145Y-67269112D01*
X146888993Y-67247717D01*
X147229451Y-67180921D01*
X147339723Y-67145729D01*
X147556520Y-67076541D01*
X147556526Y-67076539D01*
X147559978Y-67075437D01*
X147665606Y-67027744D01*
X147872879Y-66934157D01*
X147872886Y-66934154D01*
X147876189Y-66932662D01*
X147879309Y-66930795D01*
X148170769Y-66756360D01*
X148170778Y-66756354D01*
X148173894Y-66754489D01*
X148449147Y-66543280D01*
X148451740Y-66540767D01*
X148451746Y-66540762D01*
X148624860Y-66373002D01*
X148698301Y-66301833D01*
X148756157Y-66231147D01*
X148867843Y-66094694D01*
X148926468Y-66054648D01*
X148965347Y-66048500D01*
X151228691Y-66048500D01*
X151296812Y-66068502D01*
X151343305Y-66122158D01*
X151353409Y-66192432D01*
X151335951Y-66240616D01*
X151257885Y-66367262D01*
X151202203Y-66535139D01*
X151191500Y-66639600D01*
X151191500Y-67440400D01*
X151202474Y-67546166D01*
X151258450Y-67713946D01*
X151351522Y-67864348D01*
X151356704Y-67869521D01*
X151361249Y-67875255D01*
X151359576Y-67876581D01*
X151388598Y-67929625D01*
X151391500Y-67956511D01*
X151391500Y-68568694D01*
X151371498Y-68636815D01*
X151360317Y-68650702D01*
X151360404Y-68650771D01*
X151355866Y-68656517D01*
X151350695Y-68661697D01*
X151257885Y-68812262D01*
X151202203Y-68980139D01*
X151191500Y-69084600D01*
X151191500Y-69835400D01*
X151202474Y-69941166D01*
X151258450Y-70108946D01*
X151351522Y-70259348D01*
X151476697Y-70384305D01*
X151482927Y-70388145D01*
X151482928Y-70388146D01*
X151620090Y-70472694D01*
X151627262Y-70477115D01*
X151707005Y-70503564D01*
X151788611Y-70530632D01*
X151788613Y-70530632D01*
X151795139Y-70532797D01*
X151801975Y-70533497D01*
X151801978Y-70533498D01*
X151845031Y-70537909D01*
X151899600Y-70543500D01*
X152900400Y-70543500D01*
X152903646Y-70543163D01*
X152903650Y-70543163D01*
X152999308Y-70533238D01*
X152999312Y-70533237D01*
X153006166Y-70532526D01*
X153012702Y-70530345D01*
X153012704Y-70530345D01*
X153144806Y-70486272D01*
X153173946Y-70476550D01*
X153324348Y-70383478D01*
X153449305Y-70258303D01*
X153542115Y-70107738D01*
X153597797Y-69939861D01*
X153608500Y-69835400D01*
X153608500Y-69084600D01*
X153597526Y-68978834D01*
X153541550Y-68811054D01*
X153448478Y-68660652D01*
X153443296Y-68655479D01*
X153438751Y-68649745D01*
X153440424Y-68648419D01*
X153411402Y-68595375D01*
X153408500Y-68568489D01*
X153408500Y-67956306D01*
X153428502Y-67888185D01*
X153439683Y-67874298D01*
X153439596Y-67874229D01*
X153444134Y-67868483D01*
X153449305Y-67863303D01*
X153542115Y-67712738D01*
X153597797Y-67544861D01*
X153608500Y-67440400D01*
X153608500Y-66639600D01*
X153608163Y-66636350D01*
X153598238Y-66540692D01*
X153598237Y-66540688D01*
X153597526Y-66533834D01*
X153578796Y-66477692D01*
X153543868Y-66373002D01*
X153541550Y-66366054D01*
X153448478Y-66215652D01*
X153361891Y-66129216D01*
X153327812Y-66066934D01*
X153332815Y-65996114D01*
X153361736Y-65951025D01*
X153444134Y-65868483D01*
X153449305Y-65863303D01*
X153522571Y-65744444D01*
X153538275Y-65718968D01*
X153538276Y-65718966D01*
X153542115Y-65712738D01*
X153597797Y-65544861D01*
X153608500Y-65440400D01*
X153608500Y-64639600D01*
X153597526Y-64533834D01*
X153541550Y-64366054D01*
X153516214Y-64325112D01*
X155307062Y-64325112D01*
X155334283Y-64670993D01*
X155401079Y-65011451D01*
X155402183Y-65014910D01*
X155483752Y-65270500D01*
X155506563Y-65341978D01*
X155508055Y-65345282D01*
X155601710Y-65552704D01*
X155649338Y-65658189D01*
X155651203Y-65661305D01*
X155651205Y-65661309D01*
X155825640Y-65952769D01*
X155825646Y-65952778D01*
X155827511Y-65955894D01*
X156038720Y-66231147D01*
X156041233Y-66233740D01*
X156041238Y-66233746D01*
X156176187Y-66373002D01*
X156280167Y-66480301D01*
X156282976Y-66482600D01*
X156282978Y-66482602D01*
X156339190Y-66528611D01*
X156548651Y-66700053D01*
X156840613Y-66887490D01*
X156843864Y-66889083D01*
X156843870Y-66889086D01*
X157123587Y-67026117D01*
X157152183Y-67040126D01*
X157155596Y-67041335D01*
X157155597Y-67041335D01*
X157475811Y-67154729D01*
X157475818Y-67154731D01*
X157479232Y-67155940D01*
X157482768Y-67156750D01*
X157482772Y-67156751D01*
X157813879Y-67232584D01*
X157813885Y-67232585D01*
X157817426Y-67233396D01*
X158162280Y-67271469D01*
X158509225Y-67269653D01*
X158512826Y-67269217D01*
X158512830Y-67269217D01*
X158850052Y-67228408D01*
X158850054Y-67228408D01*
X158853662Y-67227971D01*
X158857187Y-67227125D01*
X158857191Y-67227124D01*
X159187495Y-67147825D01*
X159187503Y-67147822D01*
X159191025Y-67146977D01*
X159194432Y-67145730D01*
X159194436Y-67145729D01*
X159513442Y-67028989D01*
X159513443Y-67028989D01*
X159516844Y-67027744D01*
X159520072Y-67026120D01*
X159520080Y-67026117D01*
X159702921Y-66934157D01*
X159826799Y-66871853D01*
X159829816Y-66869871D01*
X159829825Y-66869866D01*
X159948724Y-66791763D01*
X160016641Y-66771081D01*
X160090351Y-66793988D01*
X160128984Y-66821139D01*
X160128990Y-66821143D01*
X160131967Y-66823235D01*
X160135154Y-66824965D01*
X160135163Y-66824971D01*
X160253249Y-66889086D01*
X160436872Y-66988785D01*
X160440237Y-66990138D01*
X160440244Y-66990141D01*
X160755415Y-67116840D01*
X160755420Y-67116842D01*
X160758784Y-67118194D01*
X161093438Y-67209745D01*
X161097029Y-67210294D01*
X161097036Y-67210296D01*
X161326630Y-67245428D01*
X161436395Y-67262224D01*
X161565204Y-67266947D01*
X161779473Y-67274805D01*
X161779481Y-67274805D01*
X161783112Y-67274938D01*
X161786733Y-67274653D01*
X161786735Y-67274653D01*
X161857145Y-67269112D01*
X162128993Y-67247717D01*
X162469451Y-67180921D01*
X162579723Y-67145729D01*
X162796520Y-67076541D01*
X162796526Y-67076539D01*
X162799978Y-67075437D01*
X162905606Y-67027744D01*
X163112879Y-66934157D01*
X163112886Y-66934154D01*
X163116189Y-66932662D01*
X163119309Y-66930795D01*
X163410769Y-66756360D01*
X163410778Y-66756354D01*
X163413894Y-66754489D01*
X163689147Y-66543280D01*
X163691740Y-66540767D01*
X163691746Y-66540762D01*
X163864860Y-66373002D01*
X163938301Y-66301833D01*
X163996157Y-66231147D01*
X164107843Y-66094694D01*
X164166468Y-66054648D01*
X164205347Y-66048500D01*
X166468691Y-66048500D01*
X166536812Y-66068502D01*
X166583305Y-66122158D01*
X166593409Y-66192432D01*
X166575951Y-66240616D01*
X166497885Y-66367262D01*
X166442203Y-66535139D01*
X166431500Y-66639600D01*
X166431500Y-67440400D01*
X166442474Y-67546166D01*
X166498450Y-67713946D01*
X166591522Y-67864348D01*
X166596704Y-67869521D01*
X166601249Y-67875255D01*
X166599576Y-67876581D01*
X166628598Y-67929625D01*
X166631500Y-67956511D01*
X166631500Y-68568694D01*
X166611498Y-68636815D01*
X166600317Y-68650702D01*
X166600404Y-68650771D01*
X166595866Y-68656517D01*
X166590695Y-68661697D01*
X166497885Y-68812262D01*
X166442203Y-68980139D01*
X166431500Y-69084600D01*
X166431500Y-69835400D01*
X166442474Y-69941166D01*
X166498450Y-70108946D01*
X166591522Y-70259348D01*
X166716697Y-70384305D01*
X166722927Y-70388145D01*
X166722928Y-70388146D01*
X166860090Y-70472694D01*
X166867262Y-70477115D01*
X166947005Y-70503564D01*
X167028611Y-70530632D01*
X167028613Y-70530632D01*
X167035139Y-70532797D01*
X167041975Y-70533497D01*
X167041978Y-70533498D01*
X167085031Y-70537909D01*
X167139600Y-70543500D01*
X168140400Y-70543500D01*
X168143646Y-70543163D01*
X168143650Y-70543163D01*
X168239308Y-70533238D01*
X168239312Y-70533237D01*
X168246166Y-70532526D01*
X168252702Y-70530345D01*
X168252704Y-70530345D01*
X168384806Y-70486272D01*
X168413946Y-70476550D01*
X168564348Y-70383478D01*
X168689305Y-70258303D01*
X168782115Y-70107738D01*
X168837797Y-69939861D01*
X168848500Y-69835400D01*
X168848500Y-69084600D01*
X168837526Y-68978834D01*
X168781550Y-68811054D01*
X168688478Y-68660652D01*
X168683296Y-68655479D01*
X168678751Y-68649745D01*
X168680424Y-68648419D01*
X168651402Y-68595375D01*
X168648500Y-68568489D01*
X168648500Y-67956306D01*
X168668502Y-67888185D01*
X168679683Y-67874298D01*
X168679596Y-67874229D01*
X168684134Y-67868483D01*
X168689305Y-67863303D01*
X168782115Y-67712738D01*
X168837797Y-67544861D01*
X168848500Y-67440400D01*
X168848500Y-66639600D01*
X168848163Y-66636350D01*
X168838238Y-66540692D01*
X168838237Y-66540688D01*
X168837526Y-66533834D01*
X168818796Y-66477692D01*
X168783868Y-66373002D01*
X168781550Y-66366054D01*
X168688478Y-66215652D01*
X168601891Y-66129216D01*
X168567812Y-66066934D01*
X168572815Y-65996114D01*
X168601736Y-65951025D01*
X168684134Y-65868483D01*
X168689305Y-65863303D01*
X168762571Y-65744444D01*
X168778275Y-65718968D01*
X168778276Y-65718966D01*
X168782115Y-65712738D01*
X168837797Y-65544861D01*
X168848500Y-65440400D01*
X168848500Y-64639600D01*
X168837526Y-64533834D01*
X168781550Y-64366054D01*
X168756214Y-64325112D01*
X170547062Y-64325112D01*
X170574283Y-64670993D01*
X170641079Y-65011451D01*
X170642183Y-65014910D01*
X170723752Y-65270500D01*
X170746563Y-65341978D01*
X170748055Y-65345282D01*
X170841710Y-65552704D01*
X170889338Y-65658189D01*
X170891203Y-65661305D01*
X170891205Y-65661309D01*
X171065640Y-65952769D01*
X171065646Y-65952778D01*
X171067511Y-65955894D01*
X171278720Y-66231147D01*
X171281233Y-66233740D01*
X171281238Y-66233746D01*
X171416187Y-66373002D01*
X171520167Y-66480301D01*
X171522976Y-66482600D01*
X171522978Y-66482602D01*
X171579190Y-66528611D01*
X171788651Y-66700053D01*
X172080613Y-66887490D01*
X172083864Y-66889083D01*
X172083870Y-66889086D01*
X172363587Y-67026117D01*
X172392183Y-67040126D01*
X172395596Y-67041335D01*
X172395597Y-67041335D01*
X172715811Y-67154729D01*
X172715818Y-67154731D01*
X172719232Y-67155940D01*
X172722768Y-67156750D01*
X172722772Y-67156751D01*
X173053879Y-67232584D01*
X173053885Y-67232585D01*
X173057426Y-67233396D01*
X173402280Y-67271469D01*
X173749225Y-67269653D01*
X173752826Y-67269217D01*
X173752830Y-67269217D01*
X174090052Y-67228408D01*
X174090054Y-67228408D01*
X174093662Y-67227971D01*
X174097187Y-67227125D01*
X174097191Y-67227124D01*
X174427495Y-67147825D01*
X174427503Y-67147822D01*
X174431025Y-67146977D01*
X174434432Y-67145730D01*
X174434436Y-67145729D01*
X174753442Y-67028989D01*
X174753443Y-67028989D01*
X174756844Y-67027744D01*
X174760072Y-67026120D01*
X174760080Y-67026117D01*
X174942921Y-66934157D01*
X175066799Y-66871853D01*
X175069816Y-66869871D01*
X175069825Y-66869866D01*
X175188724Y-66791763D01*
X175256641Y-66771081D01*
X175330351Y-66793988D01*
X175368984Y-66821139D01*
X175368990Y-66821143D01*
X175371967Y-66823235D01*
X175375154Y-66824965D01*
X175375163Y-66824971D01*
X175493249Y-66889086D01*
X175676872Y-66988785D01*
X175680237Y-66990138D01*
X175680244Y-66990141D01*
X175995415Y-67116840D01*
X175995420Y-67116842D01*
X175998784Y-67118194D01*
X176333438Y-67209745D01*
X176337029Y-67210294D01*
X176337036Y-67210296D01*
X176566630Y-67245428D01*
X176676395Y-67262224D01*
X176805204Y-67266947D01*
X177019473Y-67274805D01*
X177019481Y-67274805D01*
X177023112Y-67274938D01*
X177026733Y-67274653D01*
X177026735Y-67274653D01*
X177097145Y-67269112D01*
X177368993Y-67247717D01*
X177709451Y-67180921D01*
X177819723Y-67145729D01*
X178036520Y-67076541D01*
X178036526Y-67076539D01*
X178039978Y-67075437D01*
X178145606Y-67027744D01*
X178352879Y-66934157D01*
X178352886Y-66934154D01*
X178356189Y-66932662D01*
X178359309Y-66930795D01*
X178650769Y-66756360D01*
X178650778Y-66756354D01*
X178653894Y-66754489D01*
X178929147Y-66543280D01*
X178931740Y-66540767D01*
X178931746Y-66540762D01*
X179104860Y-66373002D01*
X179178301Y-66301833D01*
X179238505Y-66228279D01*
X179395754Y-66036158D01*
X179395755Y-66036156D01*
X179398053Y-66033349D01*
X179585490Y-65741387D01*
X179595882Y-65720176D01*
X179736533Y-65433069D01*
X179736534Y-65433067D01*
X179738126Y-65429817D01*
X179764818Y-65354441D01*
X179806412Y-65296904D01*
X179872509Y-65270988D01*
X179883591Y-65270500D01*
X181545500Y-65270500D01*
X181613621Y-65290502D01*
X181660114Y-65344158D01*
X181671500Y-65396500D01*
X181671500Y-65440400D01*
X181682474Y-65546166D01*
X181738450Y-65713946D01*
X181831522Y-65864348D01*
X181836704Y-65869521D01*
X181918109Y-65950784D01*
X181952188Y-66013066D01*
X181947185Y-66083886D01*
X181918264Y-66128975D01*
X181854918Y-66192432D01*
X181830695Y-66216697D01*
X181737885Y-66367262D01*
X181682203Y-66535139D01*
X181671500Y-66639600D01*
X181671500Y-67440400D01*
X181682474Y-67546166D01*
X181738450Y-67713946D01*
X181831522Y-67864348D01*
X181836704Y-67869521D01*
X181841249Y-67875255D01*
X181839576Y-67876581D01*
X181868598Y-67929625D01*
X181871500Y-67956511D01*
X181871500Y-68568694D01*
X181851498Y-68636815D01*
X181840317Y-68650702D01*
X181840404Y-68650771D01*
X181835866Y-68656517D01*
X181830695Y-68661697D01*
X181737885Y-68812262D01*
X181682203Y-68980139D01*
X181671500Y-69084600D01*
X181671500Y-69835400D01*
X181682474Y-69941166D01*
X181738450Y-70108946D01*
X181831522Y-70259348D01*
X181956697Y-70384305D01*
X181962927Y-70388145D01*
X181962928Y-70388146D01*
X182100090Y-70472694D01*
X182107262Y-70477115D01*
X182187005Y-70503564D01*
X182268611Y-70530632D01*
X182268613Y-70530632D01*
X182275139Y-70532797D01*
X182281975Y-70533497D01*
X182281978Y-70533498D01*
X182325031Y-70537909D01*
X182379600Y-70543500D01*
X183380400Y-70543500D01*
X183383646Y-70543163D01*
X183383650Y-70543163D01*
X183479308Y-70533238D01*
X183479312Y-70533237D01*
X183486166Y-70532526D01*
X183492702Y-70530345D01*
X183492704Y-70530345D01*
X183624806Y-70486272D01*
X183653946Y-70476550D01*
X183804348Y-70383478D01*
X183929305Y-70258303D01*
X184022115Y-70107738D01*
X184077797Y-69939861D01*
X184088500Y-69835400D01*
X184088500Y-69084600D01*
X184077526Y-68978834D01*
X184021550Y-68811054D01*
X183928478Y-68660652D01*
X183923296Y-68655479D01*
X183918751Y-68649745D01*
X183920424Y-68648419D01*
X183891402Y-68595375D01*
X183888500Y-68568489D01*
X183888500Y-67956306D01*
X183908502Y-67888185D01*
X183919683Y-67874298D01*
X183919596Y-67874229D01*
X183924134Y-67868483D01*
X183929305Y-67863303D01*
X184022115Y-67712738D01*
X184077797Y-67544861D01*
X184088500Y-67440400D01*
X184088500Y-66639600D01*
X184088163Y-66636350D01*
X184078238Y-66540692D01*
X184078237Y-66540688D01*
X184077526Y-66533834D01*
X184058796Y-66477692D01*
X184023868Y-66373002D01*
X184021550Y-66366054D01*
X183928478Y-66215652D01*
X183841891Y-66129216D01*
X183807812Y-66066934D01*
X183812815Y-65996114D01*
X183841736Y-65951025D01*
X183924134Y-65868483D01*
X183929305Y-65863303D01*
X184002571Y-65744444D01*
X184018275Y-65718968D01*
X184018276Y-65718966D01*
X184022115Y-65712738D01*
X184077797Y-65544861D01*
X184088500Y-65440400D01*
X184088500Y-64639600D01*
X184077526Y-64533834D01*
X184021550Y-64366054D01*
X183928478Y-64215652D01*
X183803303Y-64090695D01*
X183797072Y-64086854D01*
X183658968Y-64001725D01*
X183658966Y-64001724D01*
X183652738Y-63997885D01*
X183572995Y-63971436D01*
X183491389Y-63944368D01*
X183491387Y-63944368D01*
X183484861Y-63942203D01*
X183478025Y-63941503D01*
X183478022Y-63941502D01*
X183434969Y-63937091D01*
X183380400Y-63931500D01*
X183249924Y-63931500D01*
X183181803Y-63911498D01*
X183160829Y-63894595D01*
X182858855Y-63592621D01*
X182849753Y-63582478D01*
X182829897Y-63557782D01*
X182826032Y-63552975D01*
X182787578Y-63520708D01*
X182783931Y-63517528D01*
X182782119Y-63515885D01*
X182779925Y-63513691D01*
X182746651Y-63486358D01*
X182745853Y-63485696D01*
X182674526Y-63425846D01*
X182669856Y-63423278D01*
X182665739Y-63419897D01*
X182583914Y-63376023D01*
X182582755Y-63375394D01*
X182506619Y-63333538D01*
X182506611Y-63333535D01*
X182501213Y-63330567D01*
X182496131Y-63328955D01*
X182491437Y-63326438D01*
X182402469Y-63299238D01*
X182401441Y-63298918D01*
X182312694Y-63270765D01*
X182307398Y-63270171D01*
X182302302Y-63268613D01*
X182209743Y-63259210D01*
X182208607Y-63259089D01*
X182174992Y-63255319D01*
X182162270Y-63253892D01*
X182162266Y-63253892D01*
X182158773Y-63253500D01*
X182155246Y-63253500D01*
X182154261Y-63253445D01*
X182148581Y-63252998D01*
X182119175Y-63250011D01*
X182111663Y-63249248D01*
X182111661Y-63249248D01*
X182105538Y-63248626D01*
X182063259Y-63252623D01*
X182059891Y-63252941D01*
X182048033Y-63253500D01*
X179882731Y-63253500D01*
X179814610Y-63233498D01*
X179768117Y-63179842D01*
X179764405Y-63170802D01*
X179726987Y-63068553D01*
X179725744Y-63065156D01*
X179724120Y-63061928D01*
X179724117Y-63061920D01*
X179647798Y-62910178D01*
X179569853Y-62755201D01*
X179567871Y-62752184D01*
X179567866Y-62752175D01*
X179381359Y-62468246D01*
X179379370Y-62465218D01*
X179298875Y-62368946D01*
X179184691Y-62232383D01*
X179184688Y-62232379D01*
X179182883Y-62230221D01*
X178305405Y-61352743D01*
X178271379Y-61290431D01*
X178268500Y-61263648D01*
X178268500Y-57514500D01*
X178288502Y-57446379D01*
X178342158Y-57399886D01*
X178394500Y-57388500D01*
X181435126Y-57388500D01*
X181503247Y-57408502D01*
X181510673Y-57413661D01*
X181533295Y-57430615D01*
X181669684Y-57481745D01*
X181731866Y-57488500D01*
X184028134Y-57488500D01*
X184090316Y-57481745D01*
X184226705Y-57430615D01*
X184343261Y-57343261D01*
X184430615Y-57226705D01*
X184481745Y-57090316D01*
X184488500Y-57028134D01*
X184488500Y-54731866D01*
X184481745Y-54669684D01*
X184430615Y-54533295D01*
X184343261Y-54416739D01*
X184226705Y-54329385D01*
X184090316Y-54278255D01*
X184028134Y-54271500D01*
X181731866Y-54271500D01*
X181669684Y-54278255D01*
X181533295Y-54329385D01*
X181510689Y-54346327D01*
X181444185Y-54371174D01*
X181435126Y-54371500D01*
X178891390Y-54371500D01*
X178823269Y-54351498D01*
X178776776Y-54297842D01*
X178765563Y-54252094D01*
X178754241Y-54036049D01*
X178754069Y-54032759D01*
X178696541Y-53669541D01*
X178601361Y-53314326D01*
X178469573Y-52971006D01*
X178302620Y-52643343D01*
X178102332Y-52334925D01*
X177870902Y-52049133D01*
X177610867Y-51789098D01*
X177325075Y-51557668D01*
X177016658Y-51357380D01*
X177013724Y-51355885D01*
X177013717Y-51355881D01*
X176691934Y-51191925D01*
X176688994Y-51190427D01*
X176345674Y-51058639D01*
X175990459Y-50963459D01*
X175797442Y-50932888D01*
X175630489Y-50906445D01*
X175630481Y-50906444D01*
X175627241Y-50905931D01*
X175260000Y-50886685D01*
X174892759Y-50905931D01*
X174889519Y-50906444D01*
X174889511Y-50906445D01*
X174722558Y-50932888D01*
X174529541Y-50963459D01*
X174174326Y-51058639D01*
X173831006Y-51190427D01*
X173828066Y-51191925D01*
X173506284Y-51355881D01*
X173506277Y-51355885D01*
X173503343Y-51357380D01*
X173194925Y-51557668D01*
X172909133Y-51789098D01*
X172649098Y-52049133D01*
X172417668Y-52334925D01*
X172217380Y-52643343D01*
X172050427Y-52971006D01*
X171918639Y-53314326D01*
X171823459Y-53669541D01*
X171765931Y-54032759D01*
X171746685Y-54400000D01*
X171765931Y-54767241D01*
X171823459Y-55130459D01*
X171918639Y-55485674D01*
X172050427Y-55828994D01*
X172051925Y-55831934D01*
X172215882Y-56153718D01*
X172215886Y-56153725D01*
X172217380Y-56156657D01*
X172219176Y-56159422D01*
X172231173Y-56177896D01*
X172251500Y-56246520D01*
X172251500Y-61263648D01*
X172231498Y-61331769D01*
X172214595Y-61352743D01*
X171370138Y-62197200D01*
X171198263Y-62390109D01*
X171196182Y-62393070D01*
X171196178Y-62393075D01*
X171101481Y-62527815D01*
X170998764Y-62673967D01*
X170833215Y-62978872D01*
X170831862Y-62982237D01*
X170831859Y-62982244D01*
X170715667Y-63271278D01*
X170703806Y-63300784D01*
X170612255Y-63635438D01*
X170611706Y-63639029D01*
X170611704Y-63639036D01*
X170597487Y-63731948D01*
X170559776Y-63978395D01*
X170558899Y-64002305D01*
X170551266Y-64210479D01*
X170547062Y-64325112D01*
X168756214Y-64325112D01*
X168688478Y-64215652D01*
X168563303Y-64090695D01*
X168557072Y-64086854D01*
X168418968Y-64001725D01*
X168418966Y-64001724D01*
X168412738Y-63997885D01*
X168332995Y-63971436D01*
X168251389Y-63944368D01*
X168251387Y-63944368D01*
X168244861Y-63942203D01*
X168238025Y-63941503D01*
X168238022Y-63941502D01*
X168194969Y-63937091D01*
X168140400Y-63931500D01*
X167139600Y-63931500D01*
X167136354Y-63931837D01*
X167136350Y-63931837D01*
X167040692Y-63941762D01*
X167040688Y-63941763D01*
X167033834Y-63942474D01*
X167027298Y-63944655D01*
X167027296Y-63944655D01*
X166895194Y-63988728D01*
X166866054Y-63998450D01*
X166859826Y-64002304D01*
X166859824Y-64002305D01*
X166843117Y-64012644D01*
X166776814Y-64031500D01*
X164834328Y-64031500D01*
X164766207Y-64011498D01*
X164719714Y-63957842D01*
X164709241Y-63920637D01*
X164686408Y-63731948D01*
X164686408Y-63731945D01*
X164685971Y-63728338D01*
X164685124Y-63724809D01*
X164605825Y-63394505D01*
X164605822Y-63394497D01*
X164604977Y-63390975D01*
X164599506Y-63376023D01*
X164486989Y-63068558D01*
X164486987Y-63068553D01*
X164485744Y-63065156D01*
X164484120Y-63061928D01*
X164484117Y-63061920D01*
X164407798Y-62910178D01*
X164329853Y-62755201D01*
X164327871Y-62752184D01*
X164327866Y-62752175D01*
X164141359Y-62468246D01*
X164139370Y-62465218D01*
X164058875Y-62368946D01*
X163944691Y-62232383D01*
X163944688Y-62232379D01*
X163942883Y-62230221D01*
X163065405Y-61352743D01*
X163031379Y-61290431D01*
X163028500Y-61263648D01*
X163028500Y-57514500D01*
X163048502Y-57446379D01*
X163102158Y-57399886D01*
X163154500Y-57388500D01*
X166195126Y-57388500D01*
X166263247Y-57408502D01*
X166270673Y-57413661D01*
X166293295Y-57430615D01*
X166429684Y-57481745D01*
X166491866Y-57488500D01*
X168788134Y-57488500D01*
X168850316Y-57481745D01*
X168986705Y-57430615D01*
X169103261Y-57343261D01*
X169190615Y-57226705D01*
X169241745Y-57090316D01*
X169248500Y-57028134D01*
X169248500Y-54731866D01*
X169241745Y-54669684D01*
X169190615Y-54533295D01*
X169103261Y-54416739D01*
X168986705Y-54329385D01*
X168850316Y-54278255D01*
X168788134Y-54271500D01*
X166491866Y-54271500D01*
X166429684Y-54278255D01*
X166293295Y-54329385D01*
X166270689Y-54346327D01*
X166204185Y-54371174D01*
X166195126Y-54371500D01*
X163651390Y-54371500D01*
X163583269Y-54351498D01*
X163536776Y-54297842D01*
X163525563Y-54252094D01*
X163514241Y-54036049D01*
X163514069Y-54032759D01*
X163456541Y-53669541D01*
X163361361Y-53314326D01*
X163229573Y-52971006D01*
X163062620Y-52643343D01*
X162862332Y-52334925D01*
X162630902Y-52049133D01*
X162370867Y-51789098D01*
X162085075Y-51557668D01*
X161776658Y-51357380D01*
X161773724Y-51355885D01*
X161773717Y-51355881D01*
X161451934Y-51191925D01*
X161448994Y-51190427D01*
X161105674Y-51058639D01*
X160750459Y-50963459D01*
X160557442Y-50932888D01*
X160390489Y-50906445D01*
X160390481Y-50906444D01*
X160387241Y-50905931D01*
X160020000Y-50886685D01*
X159652759Y-50905931D01*
X159649519Y-50906444D01*
X159649511Y-50906445D01*
X159482558Y-50932888D01*
X159289541Y-50963459D01*
X158934326Y-51058639D01*
X158591006Y-51190427D01*
X158588066Y-51191925D01*
X158266284Y-51355881D01*
X158266277Y-51355885D01*
X158263343Y-51357380D01*
X157954925Y-51557668D01*
X157669133Y-51789098D01*
X157409098Y-52049133D01*
X157177668Y-52334925D01*
X156977380Y-52643343D01*
X156810427Y-52971006D01*
X156678639Y-53314326D01*
X156583459Y-53669541D01*
X156525931Y-54032759D01*
X156506685Y-54400000D01*
X156525931Y-54767241D01*
X156583459Y-55130459D01*
X156678639Y-55485674D01*
X156810427Y-55828994D01*
X156811925Y-55831934D01*
X156975882Y-56153718D01*
X156975886Y-56153725D01*
X156977380Y-56156657D01*
X156979176Y-56159422D01*
X156991173Y-56177896D01*
X157011500Y-56246520D01*
X157011500Y-61263648D01*
X156991498Y-61331769D01*
X156974595Y-61352743D01*
X156130138Y-62197200D01*
X155958263Y-62390109D01*
X155956182Y-62393070D01*
X155956178Y-62393075D01*
X155861481Y-62527815D01*
X155758764Y-62673967D01*
X155593215Y-62978872D01*
X155591862Y-62982237D01*
X155591859Y-62982244D01*
X155475667Y-63271278D01*
X155463806Y-63300784D01*
X155372255Y-63635438D01*
X155371706Y-63639029D01*
X155371704Y-63639036D01*
X155357487Y-63731948D01*
X155319776Y-63978395D01*
X155318899Y-64002305D01*
X155311266Y-64210479D01*
X155307062Y-64325112D01*
X153516214Y-64325112D01*
X153448478Y-64215652D01*
X153323303Y-64090695D01*
X153317072Y-64086854D01*
X153178968Y-64001725D01*
X153178966Y-64001724D01*
X153172738Y-63997885D01*
X153092995Y-63971436D01*
X153011389Y-63944368D01*
X153011387Y-63944368D01*
X153004861Y-63942203D01*
X152998025Y-63941503D01*
X152998022Y-63941502D01*
X152954969Y-63937091D01*
X152900400Y-63931500D01*
X151899600Y-63931500D01*
X151896354Y-63931837D01*
X151896350Y-63931837D01*
X151800692Y-63941762D01*
X151800688Y-63941763D01*
X151793834Y-63942474D01*
X151787298Y-63944655D01*
X151787296Y-63944655D01*
X151655194Y-63988728D01*
X151626054Y-63998450D01*
X151619826Y-64002304D01*
X151619824Y-64002305D01*
X151603117Y-64012644D01*
X151536814Y-64031500D01*
X149594328Y-64031500D01*
X149526207Y-64011498D01*
X149479714Y-63957842D01*
X149469241Y-63920637D01*
X149446408Y-63731948D01*
X149446408Y-63731945D01*
X149445971Y-63728338D01*
X149445124Y-63724809D01*
X149365825Y-63394505D01*
X149365822Y-63394497D01*
X149364977Y-63390975D01*
X149359506Y-63376023D01*
X149246989Y-63068558D01*
X149246987Y-63068553D01*
X149245744Y-63065156D01*
X149244120Y-63061928D01*
X149244117Y-63061920D01*
X149167798Y-62910178D01*
X149089853Y-62755201D01*
X149087871Y-62752184D01*
X149087866Y-62752175D01*
X148901359Y-62468246D01*
X148899370Y-62465218D01*
X148818875Y-62368946D01*
X148704691Y-62232383D01*
X148704688Y-62232379D01*
X148702883Y-62230221D01*
X147825405Y-61352743D01*
X147791379Y-61290431D01*
X147788500Y-61263648D01*
X147788500Y-57514500D01*
X147808502Y-57446379D01*
X147862158Y-57399886D01*
X147914500Y-57388500D01*
X150955126Y-57388500D01*
X151023247Y-57408502D01*
X151030673Y-57413661D01*
X151053295Y-57430615D01*
X151189684Y-57481745D01*
X151251866Y-57488500D01*
X153548134Y-57488500D01*
X153610316Y-57481745D01*
X153746705Y-57430615D01*
X153863261Y-57343261D01*
X153950615Y-57226705D01*
X154001745Y-57090316D01*
X154008500Y-57028134D01*
X154008500Y-54731866D01*
X154001745Y-54669684D01*
X153950615Y-54533295D01*
X153863261Y-54416739D01*
X153746705Y-54329385D01*
X153610316Y-54278255D01*
X153548134Y-54271500D01*
X151251866Y-54271500D01*
X151189684Y-54278255D01*
X151053295Y-54329385D01*
X151030689Y-54346327D01*
X150964185Y-54371174D01*
X150955126Y-54371500D01*
X148411390Y-54371500D01*
X148343269Y-54351498D01*
X148296776Y-54297842D01*
X148285563Y-54252094D01*
X148274241Y-54036049D01*
X148274069Y-54032759D01*
X148216541Y-53669541D01*
X148121361Y-53314326D01*
X147989573Y-52971006D01*
X147822620Y-52643343D01*
X147622332Y-52334925D01*
X147390902Y-52049133D01*
X147130867Y-51789098D01*
X146845075Y-51557668D01*
X146536658Y-51357380D01*
X146533724Y-51355885D01*
X146533717Y-51355881D01*
X146211934Y-51191925D01*
X146208994Y-51190427D01*
X145865674Y-51058639D01*
X145510459Y-50963459D01*
X145317442Y-50932888D01*
X145150489Y-50906445D01*
X145150481Y-50906444D01*
X145147241Y-50905931D01*
X144780000Y-50886685D01*
X144412759Y-50905931D01*
X144409519Y-50906444D01*
X144409511Y-50906445D01*
X144242558Y-50932888D01*
X144049541Y-50963459D01*
X143694326Y-51058639D01*
X143351006Y-51190427D01*
X143348066Y-51191925D01*
X143026284Y-51355881D01*
X143026277Y-51355885D01*
X143023343Y-51357380D01*
X142714925Y-51557668D01*
X142429133Y-51789098D01*
X142169098Y-52049133D01*
X141937668Y-52334925D01*
X141737380Y-52643343D01*
X141570427Y-52971006D01*
X141438639Y-53314326D01*
X141343459Y-53669541D01*
X141285931Y-54032759D01*
X141266685Y-54400000D01*
X141285931Y-54767241D01*
X141343459Y-55130459D01*
X141438639Y-55485674D01*
X141570427Y-55828994D01*
X141571925Y-55831934D01*
X141735882Y-56153718D01*
X141735886Y-56153725D01*
X141737380Y-56156657D01*
X141739176Y-56159422D01*
X141751173Y-56177896D01*
X141771500Y-56246520D01*
X141771500Y-61263648D01*
X141751498Y-61331769D01*
X141734595Y-61352743D01*
X140890138Y-62197200D01*
X140718263Y-62390109D01*
X140716182Y-62393070D01*
X140716178Y-62393075D01*
X140621481Y-62527815D01*
X140518764Y-62673967D01*
X140353215Y-62978872D01*
X140351862Y-62982237D01*
X140351859Y-62982244D01*
X140235667Y-63271278D01*
X140223806Y-63300784D01*
X140132255Y-63635438D01*
X140131706Y-63639029D01*
X140131704Y-63639036D01*
X140117487Y-63731948D01*
X140079776Y-63978395D01*
X140078899Y-64002305D01*
X140071266Y-64210479D01*
X140067062Y-64325112D01*
X138276214Y-64325112D01*
X138208478Y-64215652D01*
X138083303Y-64090695D01*
X138077072Y-64086854D01*
X137938968Y-64001725D01*
X137938966Y-64001724D01*
X137932738Y-63997885D01*
X137852995Y-63971436D01*
X137771389Y-63944368D01*
X137771387Y-63944368D01*
X137764861Y-63942203D01*
X137758025Y-63941503D01*
X137758022Y-63941502D01*
X137714969Y-63937091D01*
X137660400Y-63931500D01*
X136659600Y-63931500D01*
X136656354Y-63931837D01*
X136656350Y-63931837D01*
X136560692Y-63941762D01*
X136560688Y-63941763D01*
X136553834Y-63942474D01*
X136547298Y-63944655D01*
X136547296Y-63944655D01*
X136415194Y-63988728D01*
X136386054Y-63998450D01*
X136379826Y-64002304D01*
X136379824Y-64002305D01*
X136363117Y-64012644D01*
X136296814Y-64031500D01*
X134354328Y-64031500D01*
X134286207Y-64011498D01*
X134239714Y-63957842D01*
X134229241Y-63920637D01*
X134206408Y-63731948D01*
X134206408Y-63731945D01*
X134205971Y-63728338D01*
X134205124Y-63724809D01*
X134125825Y-63394505D01*
X134125822Y-63394497D01*
X134124977Y-63390975D01*
X134119506Y-63376023D01*
X134006989Y-63068558D01*
X134006987Y-63068553D01*
X134005744Y-63065156D01*
X134004120Y-63061928D01*
X134004117Y-63061920D01*
X133927798Y-62910178D01*
X133849853Y-62755201D01*
X133847871Y-62752184D01*
X133847866Y-62752175D01*
X133661359Y-62468246D01*
X133659370Y-62465218D01*
X133578875Y-62368946D01*
X133464691Y-62232383D01*
X133464688Y-62232379D01*
X133462883Y-62230221D01*
X132585405Y-61352743D01*
X132551379Y-61290431D01*
X132548500Y-61263648D01*
X132548500Y-57514500D01*
X132568502Y-57446379D01*
X132622158Y-57399886D01*
X132674500Y-57388500D01*
X135715126Y-57388500D01*
X135783247Y-57408502D01*
X135790673Y-57413661D01*
X135813295Y-57430615D01*
X135949684Y-57481745D01*
X136011866Y-57488500D01*
X138308134Y-57488500D01*
X138370316Y-57481745D01*
X138506705Y-57430615D01*
X138623261Y-57343261D01*
X138710615Y-57226705D01*
X138761745Y-57090316D01*
X138768500Y-57028134D01*
X138768500Y-54731866D01*
X138761745Y-54669684D01*
X138710615Y-54533295D01*
X138623261Y-54416739D01*
X138506705Y-54329385D01*
X138370316Y-54278255D01*
X138308134Y-54271500D01*
X136011866Y-54271500D01*
X135949684Y-54278255D01*
X135813295Y-54329385D01*
X135790689Y-54346327D01*
X135724185Y-54371174D01*
X135715126Y-54371500D01*
X133171390Y-54371500D01*
X133103269Y-54351498D01*
X133056776Y-54297842D01*
X133045563Y-54252094D01*
X133034241Y-54036049D01*
X133034069Y-54032759D01*
X132976541Y-53669541D01*
X132881361Y-53314326D01*
X132749573Y-52971006D01*
X132582620Y-52643343D01*
X132382332Y-52334925D01*
X132150902Y-52049133D01*
X131890867Y-51789098D01*
X131605075Y-51557668D01*
X131296658Y-51357380D01*
X131293724Y-51355885D01*
X131293717Y-51355881D01*
X130971934Y-51191925D01*
X130968994Y-51190427D01*
X130625674Y-51058639D01*
X130270459Y-50963459D01*
X130077442Y-50932888D01*
X129910489Y-50906445D01*
X129910481Y-50906444D01*
X129907241Y-50905931D01*
X129540000Y-50886685D01*
X129172759Y-50905931D01*
X129169519Y-50906444D01*
X129169511Y-50906445D01*
X129002558Y-50932888D01*
X128809541Y-50963459D01*
X128454326Y-51058639D01*
X128111006Y-51190427D01*
X128108066Y-51191925D01*
X127786284Y-51355881D01*
X127786277Y-51355885D01*
X127783343Y-51357380D01*
X127474925Y-51557668D01*
X127189133Y-51789098D01*
X126929098Y-52049133D01*
X126697668Y-52334925D01*
X126497380Y-52643343D01*
X126330427Y-52971006D01*
X126198639Y-53314326D01*
X126103459Y-53669541D01*
X126045931Y-54032759D01*
X126026685Y-54400000D01*
X126045931Y-54767241D01*
X126103459Y-55130459D01*
X126198639Y-55485674D01*
X126330427Y-55828994D01*
X126331925Y-55831934D01*
X126495882Y-56153718D01*
X126495886Y-56153725D01*
X126497380Y-56156657D01*
X126499176Y-56159422D01*
X126511173Y-56177896D01*
X126531500Y-56246520D01*
X126531500Y-61263648D01*
X126511498Y-61331769D01*
X126494595Y-61352743D01*
X125650138Y-62197200D01*
X125478263Y-62390109D01*
X125476182Y-62393070D01*
X125476178Y-62393075D01*
X125381481Y-62527815D01*
X125278764Y-62673967D01*
X125113215Y-62978872D01*
X125111862Y-62982237D01*
X125111859Y-62982244D01*
X124995667Y-63271278D01*
X124983806Y-63300784D01*
X124892255Y-63635438D01*
X124891706Y-63639029D01*
X124891704Y-63639036D01*
X124877487Y-63731948D01*
X124839776Y-63978395D01*
X124838899Y-64002305D01*
X124831266Y-64210479D01*
X124827062Y-64325112D01*
X123036214Y-64325112D01*
X122968478Y-64215652D01*
X122843303Y-64090695D01*
X122837072Y-64086854D01*
X122698968Y-64001725D01*
X122698966Y-64001724D01*
X122692738Y-63997885D01*
X122612995Y-63971436D01*
X122531389Y-63944368D01*
X122531387Y-63944368D01*
X122524861Y-63942203D01*
X122518025Y-63941503D01*
X122518022Y-63941502D01*
X122474969Y-63937091D01*
X122420400Y-63931500D01*
X121419600Y-63931500D01*
X121416354Y-63931837D01*
X121416350Y-63931837D01*
X121320692Y-63941762D01*
X121320688Y-63941763D01*
X121313834Y-63942474D01*
X121307298Y-63944655D01*
X121307296Y-63944655D01*
X121175194Y-63988728D01*
X121146054Y-63998450D01*
X121139826Y-64002304D01*
X121139824Y-64002305D01*
X121123117Y-64012644D01*
X121056814Y-64031500D01*
X119114328Y-64031500D01*
X119046207Y-64011498D01*
X118999714Y-63957842D01*
X118989241Y-63920637D01*
X118966408Y-63731948D01*
X118966408Y-63731945D01*
X118965971Y-63728338D01*
X118965124Y-63724809D01*
X118885825Y-63394505D01*
X118885822Y-63394497D01*
X118884977Y-63390975D01*
X118879506Y-63376023D01*
X118766989Y-63068558D01*
X118766987Y-63068553D01*
X118765744Y-63065156D01*
X118764120Y-63061928D01*
X118764117Y-63061920D01*
X118687798Y-62910178D01*
X118609853Y-62755201D01*
X118607871Y-62752184D01*
X118607866Y-62752175D01*
X118421359Y-62468246D01*
X118419370Y-62465218D01*
X118338875Y-62368946D01*
X118224691Y-62232383D01*
X118224688Y-62232379D01*
X118222883Y-62230221D01*
X117345405Y-61352743D01*
X117311379Y-61290431D01*
X117308500Y-61263648D01*
X117308500Y-57514500D01*
X117328502Y-57446379D01*
X117382158Y-57399886D01*
X117434500Y-57388500D01*
X120475126Y-57388500D01*
X120543247Y-57408502D01*
X120550673Y-57413661D01*
X120573295Y-57430615D01*
X120709684Y-57481745D01*
X120771866Y-57488500D01*
X123068134Y-57488500D01*
X123130316Y-57481745D01*
X123266705Y-57430615D01*
X123383261Y-57343261D01*
X123470615Y-57226705D01*
X123521745Y-57090316D01*
X123528500Y-57028134D01*
X123528500Y-54731866D01*
X123521745Y-54669684D01*
X123470615Y-54533295D01*
X123383261Y-54416739D01*
X123266705Y-54329385D01*
X123130316Y-54278255D01*
X123068134Y-54271500D01*
X120771866Y-54271500D01*
X120709684Y-54278255D01*
X120573295Y-54329385D01*
X120550689Y-54346327D01*
X120484185Y-54371174D01*
X120475126Y-54371500D01*
X117931390Y-54371500D01*
X117863269Y-54351498D01*
X117816776Y-54297842D01*
X117805563Y-54252094D01*
X117794241Y-54036049D01*
X117794069Y-54032759D01*
X117736541Y-53669541D01*
X117641361Y-53314326D01*
X117509573Y-52971006D01*
X117342620Y-52643343D01*
X117142332Y-52334925D01*
X116910902Y-52049133D01*
X116650867Y-51789098D01*
X116365075Y-51557668D01*
X116056658Y-51357380D01*
X116053724Y-51355885D01*
X116053717Y-51355881D01*
X115731934Y-51191925D01*
X115728994Y-51190427D01*
X115385674Y-51058639D01*
X115030459Y-50963459D01*
X114837442Y-50932888D01*
X114670489Y-50906445D01*
X114670481Y-50906444D01*
X114667241Y-50905931D01*
X114300000Y-50886685D01*
X113932759Y-50905931D01*
X113929519Y-50906444D01*
X113929511Y-50906445D01*
X113762558Y-50932888D01*
X113569541Y-50963459D01*
X113214326Y-51058639D01*
X112871006Y-51190427D01*
X112868066Y-51191925D01*
X112546284Y-51355881D01*
X112546277Y-51355885D01*
X112543343Y-51357380D01*
X112234925Y-51557668D01*
X111949133Y-51789098D01*
X111689098Y-52049133D01*
X111457668Y-52334925D01*
X111257380Y-52643343D01*
X111090427Y-52971006D01*
X110958639Y-53314326D01*
X110863459Y-53669541D01*
X110805931Y-54032759D01*
X110786685Y-54400000D01*
X110805931Y-54767241D01*
X110863459Y-55130459D01*
X110958639Y-55485674D01*
X111090427Y-55828994D01*
X111091925Y-55831934D01*
X111255882Y-56153718D01*
X111255886Y-56153725D01*
X111257380Y-56156657D01*
X111259176Y-56159422D01*
X111271173Y-56177896D01*
X111291500Y-56246520D01*
X111291500Y-61263648D01*
X111271498Y-61331769D01*
X111254595Y-61352743D01*
X110410138Y-62197200D01*
X110238263Y-62390109D01*
X110236182Y-62393070D01*
X110236178Y-62393075D01*
X110141481Y-62527815D01*
X110038764Y-62673967D01*
X109873215Y-62978872D01*
X109871862Y-62982237D01*
X109871859Y-62982244D01*
X109755667Y-63271278D01*
X109743806Y-63300784D01*
X109652255Y-63635438D01*
X109651706Y-63639029D01*
X109651704Y-63639036D01*
X109637487Y-63731948D01*
X109599776Y-63978395D01*
X109598899Y-64002305D01*
X109591266Y-64210479D01*
X109587062Y-64325112D01*
X107796214Y-64325112D01*
X107728478Y-64215652D01*
X107603303Y-64090695D01*
X107597072Y-64086854D01*
X107458968Y-64001725D01*
X107458966Y-64001724D01*
X107452738Y-63997885D01*
X107372995Y-63971436D01*
X107291389Y-63944368D01*
X107291387Y-63944368D01*
X107284861Y-63942203D01*
X107278025Y-63941503D01*
X107278022Y-63941502D01*
X107234969Y-63937091D01*
X107180400Y-63931500D01*
X106179600Y-63931500D01*
X106176354Y-63931837D01*
X106176350Y-63931837D01*
X106080692Y-63941762D01*
X106080688Y-63941763D01*
X106073834Y-63942474D01*
X106067298Y-63944655D01*
X106067296Y-63944655D01*
X105935194Y-63988728D01*
X105906054Y-63998450D01*
X105899826Y-64002304D01*
X105899824Y-64002305D01*
X105883117Y-64012644D01*
X105816814Y-64031500D01*
X103874328Y-64031500D01*
X103806207Y-64011498D01*
X103759714Y-63957842D01*
X103749241Y-63920637D01*
X103726408Y-63731948D01*
X103726408Y-63731945D01*
X103725971Y-63728338D01*
X103725124Y-63724809D01*
X103645825Y-63394505D01*
X103645822Y-63394497D01*
X103644977Y-63390975D01*
X103639506Y-63376023D01*
X103526989Y-63068558D01*
X103526987Y-63068553D01*
X103525744Y-63065156D01*
X103524120Y-63061928D01*
X103524117Y-63061920D01*
X103447798Y-62910178D01*
X103369853Y-62755201D01*
X103367871Y-62752184D01*
X103367866Y-62752175D01*
X103181359Y-62468246D01*
X103179370Y-62465218D01*
X103098875Y-62368946D01*
X102984691Y-62232383D01*
X102984688Y-62232379D01*
X102982883Y-62230221D01*
X102105405Y-61352743D01*
X102071379Y-61290431D01*
X102068500Y-61263648D01*
X102068500Y-57514500D01*
X102088502Y-57446379D01*
X102142158Y-57399886D01*
X102194500Y-57388500D01*
X105235126Y-57388500D01*
X105303247Y-57408502D01*
X105310673Y-57413661D01*
X105333295Y-57430615D01*
X105469684Y-57481745D01*
X105531866Y-57488500D01*
X107828134Y-57488500D01*
X107890316Y-57481745D01*
X108026705Y-57430615D01*
X108143261Y-57343261D01*
X108230615Y-57226705D01*
X108281745Y-57090316D01*
X108288500Y-57028134D01*
X108288500Y-54731866D01*
X108281745Y-54669684D01*
X108230615Y-54533295D01*
X108143261Y-54416739D01*
X108026705Y-54329385D01*
X107890316Y-54278255D01*
X107828134Y-54271500D01*
X105531866Y-54271500D01*
X105469684Y-54278255D01*
X105333295Y-54329385D01*
X105310689Y-54346327D01*
X105244185Y-54371174D01*
X105235126Y-54371500D01*
X102691390Y-54371500D01*
X102623269Y-54351498D01*
X102576776Y-54297842D01*
X102565563Y-54252094D01*
X102554241Y-54036049D01*
X102554069Y-54032759D01*
X102496541Y-53669541D01*
X102401361Y-53314326D01*
X102269573Y-52971006D01*
X102102620Y-52643343D01*
X101902332Y-52334925D01*
X101670902Y-52049133D01*
X101410867Y-51789098D01*
X101125075Y-51557668D01*
X100816658Y-51357380D01*
X100813724Y-51355885D01*
X100813717Y-51355881D01*
X100491934Y-51191925D01*
X100488994Y-51190427D01*
X100145674Y-51058639D01*
X99790459Y-50963459D01*
X99597442Y-50932888D01*
X99430489Y-50906445D01*
X99430481Y-50906444D01*
X99427241Y-50905931D01*
X99060000Y-50886685D01*
X98692759Y-50905931D01*
X98689519Y-50906444D01*
X98689511Y-50906445D01*
X98522558Y-50932888D01*
X98329541Y-50963459D01*
X97974326Y-51058639D01*
X97631006Y-51190427D01*
X97628066Y-51191925D01*
X97306284Y-51355881D01*
X97306277Y-51355885D01*
X97303343Y-51357380D01*
X96994925Y-51557668D01*
X96709133Y-51789098D01*
X96449098Y-52049133D01*
X96217668Y-52334925D01*
X96017380Y-52643343D01*
X95850427Y-52971006D01*
X95718639Y-53314326D01*
X95623459Y-53669541D01*
X95565931Y-54032759D01*
X95546685Y-54400000D01*
X95565931Y-54767241D01*
X95623459Y-55130459D01*
X95718639Y-55485674D01*
X95850427Y-55828994D01*
X95851925Y-55831934D01*
X96015882Y-56153718D01*
X96015886Y-56153725D01*
X96017380Y-56156657D01*
X96019176Y-56159422D01*
X96031173Y-56177896D01*
X96051500Y-56246520D01*
X96051500Y-61263648D01*
X96031498Y-61331769D01*
X96014595Y-61352743D01*
X95170138Y-62197200D01*
X94998263Y-62390109D01*
X94996182Y-62393070D01*
X94996178Y-62393075D01*
X94901481Y-62527815D01*
X94798764Y-62673967D01*
X94633215Y-62978872D01*
X94631862Y-62982237D01*
X94631859Y-62982244D01*
X94515667Y-63271278D01*
X94503806Y-63300784D01*
X94412255Y-63635438D01*
X94411706Y-63639029D01*
X94411704Y-63639036D01*
X94397487Y-63731948D01*
X94359776Y-63978395D01*
X94358899Y-64002305D01*
X94351266Y-64210479D01*
X94347062Y-64325112D01*
X92556214Y-64325112D01*
X92488478Y-64215652D01*
X92363303Y-64090695D01*
X92357072Y-64086854D01*
X92218968Y-64001725D01*
X92218966Y-64001724D01*
X92212738Y-63997885D01*
X92132995Y-63971436D01*
X92051389Y-63944368D01*
X92051387Y-63944368D01*
X92044861Y-63942203D01*
X92038025Y-63941503D01*
X92038022Y-63941502D01*
X91994969Y-63937091D01*
X91940400Y-63931500D01*
X90939600Y-63931500D01*
X90936354Y-63931837D01*
X90936350Y-63931837D01*
X90840692Y-63941762D01*
X90840688Y-63941763D01*
X90833834Y-63942474D01*
X90827298Y-63944655D01*
X90827296Y-63944655D01*
X90695194Y-63988728D01*
X90666054Y-63998450D01*
X90659826Y-64002304D01*
X90659824Y-64002305D01*
X90643117Y-64012644D01*
X90576814Y-64031500D01*
X88634328Y-64031500D01*
X88566207Y-64011498D01*
X88519714Y-63957842D01*
X88509241Y-63920637D01*
X88486408Y-63731948D01*
X88486408Y-63731945D01*
X88485971Y-63728338D01*
X88485124Y-63724809D01*
X88405825Y-63394505D01*
X88405822Y-63394497D01*
X88404977Y-63390975D01*
X88399506Y-63376023D01*
X88286989Y-63068558D01*
X88286987Y-63068553D01*
X88285744Y-63065156D01*
X88284120Y-63061928D01*
X88284117Y-63061920D01*
X88207798Y-62910178D01*
X88129853Y-62755201D01*
X88127871Y-62752184D01*
X88127866Y-62752175D01*
X87941359Y-62468246D01*
X87939370Y-62465218D01*
X87858875Y-62368946D01*
X87744691Y-62232383D01*
X87744688Y-62232379D01*
X87742883Y-62230221D01*
X86865405Y-61352743D01*
X86831379Y-61290431D01*
X86828500Y-61263648D01*
X86828500Y-57514500D01*
X86848502Y-57446379D01*
X86902158Y-57399886D01*
X86954500Y-57388500D01*
X89995126Y-57388500D01*
X90063247Y-57408502D01*
X90070673Y-57413661D01*
X90093295Y-57430615D01*
X90229684Y-57481745D01*
X90291866Y-57488500D01*
X92588134Y-57488500D01*
X92650316Y-57481745D01*
X92786705Y-57430615D01*
X92903261Y-57343261D01*
X92990615Y-57226705D01*
X93041745Y-57090316D01*
X93048500Y-57028134D01*
X93048500Y-54731866D01*
X93041745Y-54669684D01*
X92990615Y-54533295D01*
X92903261Y-54416739D01*
X92786705Y-54329385D01*
X92650316Y-54278255D01*
X92588134Y-54271500D01*
X90291866Y-54271500D01*
X90229684Y-54278255D01*
X90093295Y-54329385D01*
X90070689Y-54346327D01*
X90004185Y-54371174D01*
X89995126Y-54371500D01*
X87451390Y-54371500D01*
X87383269Y-54351498D01*
X87336776Y-54297842D01*
X87325563Y-54252094D01*
X87314241Y-54036049D01*
X87314069Y-54032759D01*
X87256541Y-53669541D01*
X87161361Y-53314326D01*
X87029573Y-52971006D01*
X86862620Y-52643343D01*
X86662332Y-52334925D01*
X86430902Y-52049133D01*
X86170867Y-51789098D01*
X85885075Y-51557668D01*
X85576658Y-51357380D01*
X85573724Y-51355885D01*
X85573717Y-51355881D01*
X85251934Y-51191925D01*
X85248994Y-51190427D01*
X84905674Y-51058639D01*
X84550459Y-50963459D01*
X84357442Y-50932888D01*
X84190489Y-50906445D01*
X84190481Y-50906444D01*
X84187241Y-50905931D01*
X83820000Y-50886685D01*
X83452759Y-50905931D01*
X83449519Y-50906444D01*
X83449511Y-50906445D01*
X83282558Y-50932888D01*
X83089541Y-50963459D01*
X82734326Y-51058639D01*
X82391006Y-51190427D01*
X82388066Y-51191925D01*
X82066284Y-51355881D01*
X82066277Y-51355885D01*
X82063343Y-51357380D01*
X81754925Y-51557668D01*
X81469133Y-51789098D01*
X81209098Y-52049133D01*
X80977668Y-52334925D01*
X80777380Y-52643343D01*
X80610427Y-52971006D01*
X80478639Y-53314326D01*
X80383459Y-53669541D01*
X80325931Y-54032759D01*
X80306685Y-54400000D01*
X80325931Y-54767241D01*
X80383459Y-55130459D01*
X80478639Y-55485674D01*
X80610427Y-55828994D01*
X80611925Y-55831934D01*
X80775882Y-56153718D01*
X80775886Y-56153725D01*
X80777380Y-56156657D01*
X80779176Y-56159422D01*
X80791173Y-56177896D01*
X80811500Y-56246520D01*
X80811500Y-61263648D01*
X80791498Y-61331769D01*
X80774595Y-61352743D01*
X79930138Y-62197200D01*
X79758263Y-62390109D01*
X79756182Y-62393070D01*
X79756178Y-62393075D01*
X79661481Y-62527815D01*
X79558764Y-62673967D01*
X79393215Y-62978872D01*
X79391862Y-62982237D01*
X79391859Y-62982244D01*
X79275667Y-63271278D01*
X79263806Y-63300784D01*
X79172255Y-63635438D01*
X79171706Y-63639029D01*
X79171704Y-63639036D01*
X79157487Y-63731948D01*
X79119776Y-63978395D01*
X79118899Y-64002305D01*
X79111266Y-64210479D01*
X79107062Y-64325112D01*
X77316214Y-64325112D01*
X77248478Y-64215652D01*
X77123303Y-64090695D01*
X77117072Y-64086854D01*
X76978968Y-64001725D01*
X76978966Y-64001724D01*
X76972738Y-63997885D01*
X76892995Y-63971436D01*
X76811389Y-63944368D01*
X76811387Y-63944368D01*
X76804861Y-63942203D01*
X76798025Y-63941503D01*
X76798022Y-63941502D01*
X76754969Y-63937091D01*
X76700400Y-63931500D01*
X75699600Y-63931500D01*
X75696354Y-63931837D01*
X75696350Y-63931837D01*
X75600692Y-63941762D01*
X75600688Y-63941763D01*
X75593834Y-63942474D01*
X75587298Y-63944655D01*
X75587296Y-63944655D01*
X75455194Y-63988728D01*
X75426054Y-63998450D01*
X75419826Y-64002304D01*
X75419824Y-64002305D01*
X75403117Y-64012644D01*
X75336814Y-64031500D01*
X73394328Y-64031500D01*
X73326207Y-64011498D01*
X73279714Y-63957842D01*
X73269241Y-63920637D01*
X73246408Y-63731948D01*
X73246408Y-63731945D01*
X73245971Y-63728338D01*
X73245124Y-63724809D01*
X73165825Y-63394505D01*
X73165822Y-63394497D01*
X73164977Y-63390975D01*
X73159506Y-63376023D01*
X73046989Y-63068558D01*
X73046987Y-63068553D01*
X73045744Y-63065156D01*
X73044120Y-63061928D01*
X73044117Y-63061920D01*
X72967798Y-62910178D01*
X72889853Y-62755201D01*
X72887871Y-62752184D01*
X72887866Y-62752175D01*
X72701359Y-62468246D01*
X72699370Y-62465218D01*
X72618875Y-62368946D01*
X72504691Y-62232383D01*
X72504688Y-62232379D01*
X72502883Y-62230221D01*
X71625405Y-61352743D01*
X71591379Y-61290431D01*
X71588500Y-61263648D01*
X71588500Y-57514500D01*
X71608502Y-57446379D01*
X71662158Y-57399886D01*
X71714500Y-57388500D01*
X74755126Y-57388500D01*
X74823247Y-57408502D01*
X74830673Y-57413661D01*
X74853295Y-57430615D01*
X74989684Y-57481745D01*
X75051866Y-57488500D01*
X77348134Y-57488500D01*
X77410316Y-57481745D01*
X77546705Y-57430615D01*
X77663261Y-57343261D01*
X77750615Y-57226705D01*
X77801745Y-57090316D01*
X77808500Y-57028134D01*
X77808500Y-54731866D01*
X77801745Y-54669684D01*
X77750615Y-54533295D01*
X77663261Y-54416739D01*
X77546705Y-54329385D01*
X77410316Y-54278255D01*
X77348134Y-54271500D01*
X75051866Y-54271500D01*
X74989684Y-54278255D01*
X74853295Y-54329385D01*
X74830689Y-54346327D01*
X74764185Y-54371174D01*
X74755126Y-54371500D01*
X72211390Y-54371500D01*
X72143269Y-54351498D01*
X72096776Y-54297842D01*
X72085563Y-54252094D01*
X72074241Y-54036049D01*
X72074069Y-54032759D01*
X72016541Y-53669541D01*
X71921361Y-53314326D01*
X71789573Y-52971006D01*
X71622620Y-52643343D01*
X71422332Y-52334925D01*
X71190902Y-52049133D01*
X70930867Y-51789098D01*
X70645075Y-51557668D01*
X70336658Y-51357380D01*
X70333724Y-51355885D01*
X70333717Y-51355881D01*
X70011934Y-51191925D01*
X70008994Y-51190427D01*
X69665674Y-51058639D01*
X69310459Y-50963459D01*
X69117442Y-50932888D01*
X68950489Y-50906445D01*
X68950481Y-50906444D01*
X68947241Y-50905931D01*
X68580000Y-50886685D01*
X68212759Y-50905931D01*
X68209519Y-50906444D01*
X68209511Y-50906445D01*
X68042558Y-50932888D01*
X67849541Y-50963459D01*
X67494326Y-51058639D01*
X67151006Y-51190427D01*
X67148066Y-51191925D01*
X66826284Y-51355881D01*
X66826277Y-51355885D01*
X66823343Y-51357380D01*
X66514925Y-51557668D01*
X66229133Y-51789098D01*
X65969098Y-52049133D01*
X65737668Y-52334925D01*
X65537380Y-52643343D01*
X65370427Y-52971006D01*
X65238639Y-53314326D01*
X65143459Y-53669541D01*
X65085931Y-54032759D01*
X65066685Y-54400000D01*
X65085931Y-54767241D01*
X65143459Y-55130459D01*
X65238639Y-55485674D01*
X65370427Y-55828994D01*
X65371925Y-55831934D01*
X65535882Y-56153718D01*
X65535886Y-56153725D01*
X65537380Y-56156657D01*
X65539176Y-56159422D01*
X65551173Y-56177896D01*
X65571500Y-56246520D01*
X65571500Y-61263648D01*
X65551498Y-61331769D01*
X65534595Y-61352743D01*
X64690138Y-62197200D01*
X64518263Y-62390109D01*
X64516182Y-62393070D01*
X64516178Y-62393075D01*
X64421481Y-62527815D01*
X64318764Y-62673967D01*
X64153215Y-62978872D01*
X64151862Y-62982237D01*
X64151859Y-62982244D01*
X64035667Y-63271278D01*
X64023806Y-63300784D01*
X63932255Y-63635438D01*
X63931706Y-63639029D01*
X63931704Y-63639036D01*
X63917487Y-63731948D01*
X63879776Y-63978395D01*
X63878899Y-64002305D01*
X63871266Y-64210479D01*
X63867062Y-64325112D01*
X62076214Y-64325112D01*
X62008478Y-64215652D01*
X61883303Y-64090695D01*
X61877072Y-64086854D01*
X61738968Y-64001725D01*
X61738966Y-64001724D01*
X61732738Y-63997885D01*
X61652995Y-63971436D01*
X61571389Y-63944368D01*
X61571387Y-63944368D01*
X61564861Y-63942203D01*
X61558025Y-63941503D01*
X61558022Y-63941502D01*
X61514969Y-63937091D01*
X61460400Y-63931500D01*
X60459600Y-63931500D01*
X60456354Y-63931837D01*
X60456350Y-63931837D01*
X60360692Y-63941762D01*
X60360688Y-63941763D01*
X60353834Y-63942474D01*
X60347298Y-63944655D01*
X60347296Y-63944655D01*
X60215194Y-63988728D01*
X60186054Y-63998450D01*
X60179826Y-64002304D01*
X60179824Y-64002305D01*
X60163117Y-64012644D01*
X60096814Y-64031500D01*
X58154328Y-64031500D01*
X58086207Y-64011498D01*
X58039714Y-63957842D01*
X58029241Y-63920637D01*
X58006408Y-63731948D01*
X58006408Y-63731945D01*
X58005971Y-63728338D01*
X58005124Y-63724809D01*
X57925825Y-63394505D01*
X57925822Y-63394497D01*
X57924977Y-63390975D01*
X57919506Y-63376023D01*
X57806989Y-63068558D01*
X57806987Y-63068553D01*
X57805744Y-63065156D01*
X57804120Y-63061928D01*
X57804117Y-63061920D01*
X57727798Y-62910178D01*
X57649853Y-62755201D01*
X57647871Y-62752184D01*
X57647866Y-62752175D01*
X57461359Y-62468246D01*
X57459370Y-62465218D01*
X57378875Y-62368946D01*
X57264691Y-62232383D01*
X57264688Y-62232379D01*
X57262883Y-62230221D01*
X56385405Y-61352743D01*
X56351379Y-61290431D01*
X56348500Y-61263648D01*
X56348500Y-57514500D01*
X56368502Y-57446379D01*
X56422158Y-57399886D01*
X56474500Y-57388500D01*
X59515126Y-57388500D01*
X59583247Y-57408502D01*
X59590673Y-57413661D01*
X59613295Y-57430615D01*
X59749684Y-57481745D01*
X59811866Y-57488500D01*
X62108134Y-57488500D01*
X62170316Y-57481745D01*
X62306705Y-57430615D01*
X62423261Y-57343261D01*
X62510615Y-57226705D01*
X62561745Y-57090316D01*
X62568500Y-57028134D01*
X62568500Y-54731866D01*
X62561745Y-54669684D01*
X62510615Y-54533295D01*
X62423261Y-54416739D01*
X62306705Y-54329385D01*
X62170316Y-54278255D01*
X62108134Y-54271500D01*
X59811866Y-54271500D01*
X59749684Y-54278255D01*
X59613295Y-54329385D01*
X59590689Y-54346327D01*
X59524185Y-54371174D01*
X59515126Y-54371500D01*
X56971390Y-54371500D01*
X56903269Y-54351498D01*
X56856776Y-54297842D01*
X56845563Y-54252094D01*
X56834241Y-54036049D01*
X56834069Y-54032759D01*
X56776541Y-53669541D01*
X56681361Y-53314326D01*
X56549573Y-52971006D01*
X56382620Y-52643343D01*
X56182332Y-52334925D01*
X55950902Y-52049133D01*
X55690867Y-51789098D01*
X55405075Y-51557668D01*
X55096658Y-51357380D01*
X55093724Y-51355885D01*
X55093717Y-51355881D01*
X54771934Y-51191925D01*
X54768994Y-51190427D01*
X54425674Y-51058639D01*
X54070459Y-50963459D01*
X53877442Y-50932888D01*
X53710489Y-50906445D01*
X53710481Y-50906444D01*
X53707241Y-50905931D01*
X53340000Y-50886685D01*
X52972759Y-50905931D01*
X52969519Y-50906444D01*
X52969511Y-50906445D01*
X52802558Y-50932888D01*
X52609541Y-50963459D01*
X52254326Y-51058639D01*
X51911006Y-51190427D01*
X51908066Y-51191925D01*
X51586284Y-51355881D01*
X51586277Y-51355885D01*
X51583343Y-51357380D01*
X51274925Y-51557668D01*
X50989133Y-51789098D01*
X50729098Y-52049133D01*
X50497668Y-52334925D01*
X50297380Y-52643343D01*
X50130427Y-52971006D01*
X49998639Y-53314326D01*
X49903459Y-53669541D01*
X49845931Y-54032759D01*
X49826685Y-54400000D01*
X49845931Y-54767241D01*
X49903459Y-55130459D01*
X49998639Y-55485674D01*
X50130427Y-55828994D01*
X50131925Y-55831934D01*
X50295882Y-56153718D01*
X50295886Y-56153725D01*
X50297380Y-56156657D01*
X50299176Y-56159422D01*
X50311173Y-56177896D01*
X50331500Y-56246520D01*
X50331500Y-61263648D01*
X50311498Y-61331769D01*
X50294595Y-61352743D01*
X49450138Y-62197200D01*
X49278263Y-62390109D01*
X49276182Y-62393070D01*
X49276178Y-62393075D01*
X49181481Y-62527815D01*
X49078764Y-62673967D01*
X48913215Y-62978872D01*
X48911862Y-62982237D01*
X48911859Y-62982244D01*
X48795667Y-63271278D01*
X48783806Y-63300784D01*
X48692255Y-63635438D01*
X48691706Y-63639029D01*
X48691704Y-63639036D01*
X48677487Y-63731948D01*
X48639776Y-63978395D01*
X48638899Y-64002305D01*
X48631266Y-64210479D01*
X48627062Y-64325112D01*
X46836214Y-64325112D01*
X46768478Y-64215652D01*
X46643303Y-64090695D01*
X46637072Y-64086854D01*
X46498968Y-64001725D01*
X46498966Y-64001724D01*
X46492738Y-63997885D01*
X46412995Y-63971436D01*
X46331389Y-63944368D01*
X46331387Y-63944368D01*
X46324861Y-63942203D01*
X46318025Y-63941503D01*
X46318022Y-63941502D01*
X46274969Y-63937091D01*
X46220400Y-63931500D01*
X45219600Y-63931500D01*
X45216354Y-63931837D01*
X45216350Y-63931837D01*
X45120692Y-63941762D01*
X45120688Y-63941763D01*
X45113834Y-63942474D01*
X45107298Y-63944655D01*
X45107296Y-63944655D01*
X44975194Y-63988728D01*
X44946054Y-63998450D01*
X44939826Y-64002304D01*
X44939824Y-64002305D01*
X44923117Y-64012644D01*
X44856814Y-64031500D01*
X42914328Y-64031500D01*
X42846207Y-64011498D01*
X42799714Y-63957842D01*
X42789241Y-63920637D01*
X42766408Y-63731948D01*
X42766408Y-63731945D01*
X42765971Y-63728338D01*
X42765124Y-63724809D01*
X42685825Y-63394505D01*
X42685822Y-63394497D01*
X42684977Y-63390975D01*
X42679506Y-63376023D01*
X42566989Y-63068558D01*
X42566987Y-63068553D01*
X42565744Y-63065156D01*
X42564120Y-63061928D01*
X42564117Y-63061920D01*
X42487798Y-62910178D01*
X42409853Y-62755201D01*
X42407871Y-62752184D01*
X42407866Y-62752175D01*
X42221359Y-62468246D01*
X42219370Y-62465218D01*
X42138875Y-62368946D01*
X42024691Y-62232383D01*
X42024688Y-62232379D01*
X42022883Y-62230221D01*
X41145405Y-61352743D01*
X41111379Y-61290431D01*
X41108500Y-61263648D01*
X41108500Y-57514500D01*
X41128502Y-57446379D01*
X41182158Y-57399886D01*
X41234500Y-57388500D01*
X44275126Y-57388500D01*
X44343247Y-57408502D01*
X44350673Y-57413661D01*
X44373295Y-57430615D01*
X44509684Y-57481745D01*
X44571866Y-57488500D01*
X46868134Y-57488500D01*
X46930316Y-57481745D01*
X47066705Y-57430615D01*
X47183261Y-57343261D01*
X47270615Y-57226705D01*
X47321745Y-57090316D01*
X47328500Y-57028134D01*
X47328500Y-54731866D01*
X47321745Y-54669684D01*
X47270615Y-54533295D01*
X47183261Y-54416739D01*
X47066705Y-54329385D01*
X46930316Y-54278255D01*
X46868134Y-54271500D01*
X44571866Y-54271500D01*
X44509684Y-54278255D01*
X44373295Y-54329385D01*
X44350689Y-54346327D01*
X44284185Y-54371174D01*
X44275126Y-54371500D01*
X41731390Y-54371500D01*
X41663269Y-54351498D01*
X41616776Y-54297842D01*
X41605563Y-54252094D01*
X41594241Y-54036049D01*
X41594069Y-54032759D01*
X41536541Y-53669541D01*
X41441361Y-53314326D01*
X41309573Y-52971006D01*
X41142620Y-52643343D01*
X40942332Y-52334925D01*
X40710902Y-52049133D01*
X40450867Y-51789098D01*
X40165075Y-51557668D01*
X39856658Y-51357380D01*
X39853724Y-51355885D01*
X39853717Y-51355881D01*
X39531934Y-51191925D01*
X39528994Y-51190427D01*
X39185674Y-51058639D01*
X38830459Y-50963459D01*
X38637442Y-50932888D01*
X38470489Y-50906445D01*
X38470481Y-50906444D01*
X38467241Y-50905931D01*
X38100000Y-50886685D01*
X37732759Y-50905931D01*
X37729519Y-50906444D01*
X37729511Y-50906445D01*
X37562558Y-50932888D01*
X37369541Y-50963459D01*
X37014326Y-51058639D01*
X36671006Y-51190427D01*
X36668066Y-51191925D01*
X36346284Y-51355881D01*
X36346277Y-51355885D01*
X36343343Y-51357380D01*
X36034925Y-51557668D01*
X35749133Y-51789098D01*
X35489098Y-52049133D01*
X35257668Y-52334925D01*
X35057380Y-52643343D01*
X34890427Y-52971006D01*
X34758639Y-53314326D01*
X34663459Y-53669541D01*
X34605931Y-54032759D01*
X34586685Y-54400000D01*
X34605931Y-54767241D01*
X34663459Y-55130459D01*
X34758639Y-55485674D01*
X34890427Y-55828994D01*
X34891925Y-55831934D01*
X35055882Y-56153718D01*
X35055886Y-56153725D01*
X35057380Y-56156657D01*
X35059176Y-56159422D01*
X35071173Y-56177896D01*
X35091500Y-56246520D01*
X35091500Y-61263648D01*
X35071498Y-61331769D01*
X35054595Y-61352743D01*
X34210138Y-62197200D01*
X34038263Y-62390109D01*
X34036182Y-62393070D01*
X34036178Y-62393075D01*
X33941481Y-62527815D01*
X33838764Y-62673967D01*
X33673215Y-62978872D01*
X33671862Y-62982237D01*
X33671859Y-62982244D01*
X33555667Y-63271278D01*
X33543806Y-63300784D01*
X33452255Y-63635438D01*
X33451706Y-63639029D01*
X33451704Y-63639036D01*
X33437487Y-63731948D01*
X33399776Y-63978395D01*
X33398899Y-64002305D01*
X33391266Y-64210479D01*
X33387062Y-64325112D01*
X27813500Y-64325112D01*
X27813500Y-46576183D01*
X27833502Y-46508062D01*
X27887158Y-46461569D01*
X27957432Y-46451465D01*
X28018792Y-46478261D01*
X28239925Y-46657332D01*
X28548342Y-46857620D01*
X28551276Y-46859115D01*
X28551283Y-46859119D01*
X28873066Y-47023075D01*
X28876006Y-47024573D01*
X29219326Y-47156361D01*
X29574541Y-47251541D01*
X29767558Y-47282112D01*
X29934511Y-47308555D01*
X29934519Y-47308556D01*
X29937759Y-47309069D01*
X30305000Y-47328315D01*
X30672241Y-47309069D01*
X30675481Y-47308556D01*
X30675489Y-47308555D01*
X30842442Y-47282112D01*
X31035459Y-47251541D01*
X31390674Y-47156361D01*
X31733994Y-47024573D01*
X31736934Y-47023075D01*
X32058717Y-46859119D01*
X32058724Y-46859115D01*
X32061658Y-46857620D01*
X32370075Y-46657332D01*
X32655867Y-46425902D01*
X32915902Y-46165867D01*
X33147332Y-45880075D01*
X33347620Y-45571657D01*
X33514573Y-45243994D01*
X33646361Y-44900674D01*
X33741541Y-44545459D01*
X33799069Y-44182241D01*
X33818315Y-43815000D01*
X33799069Y-43447759D01*
X33741541Y-43084541D01*
X33646361Y-42729326D01*
X33514573Y-42386006D01*
X33347620Y-42058343D01*
X33147332Y-41749925D01*
X32915902Y-41464133D01*
X32815364Y-41363595D01*
X32781338Y-41301283D01*
X32786403Y-41230468D01*
X32828950Y-41173632D01*
X32895470Y-41148821D01*
X32904459Y-41148500D01*
X202505541Y-41148500D01*
X202573662Y-41168502D01*
G37*
G04 #@! TD.AperFunction*
M02*
