G04 #@! TF.GenerationSoftware,KiCad,Pcbnew,6.0.4-6f826c9f35~116~ubuntu18.04.1*
G04 #@! TF.CreationDate,2022-05-10T11:21:29+08:00*
G04 #@! TF.ProjectId,XT60_connectors,58543630-5f63-46f6-9e6e-6563746f7273,rev?*
G04 #@! TF.SameCoordinates,Original*
G04 #@! TF.FileFunction,Legend,Bot*
G04 #@! TF.FilePolarity,Positive*
%FSLAX46Y46*%
G04 Gerber Fmt 4.6, Leading zero omitted, Abs format (unit mm)*
G04 Created by KiCad (PCBNEW 6.0.4-6f826c9f35~116~ubuntu18.04.1) date 2022-05-10 11:21:29*
%MOMM*%
%LPD*%
G01*
G04 APERTURE LIST*
G04 Aperture macros list*
%AMRoundRect*
0 Rectangle with rounded corners*
0 $1 Rounding radius*
0 $2 $3 $4 $5 $6 $7 $8 $9 X,Y pos of 4 corners*
0 Add a 4 corners polygon primitive as box body*
4,1,4,$2,$3,$4,$5,$6,$7,$8,$9,$2,$3,0*
0 Add four circle primitives for the rounded corners*
1,1,$1+$1,$2,$3*
1,1,$1+$1,$4,$5*
1,1,$1+$1,$6,$7*
1,1,$1+$1,$8,$9*
0 Add four rect primitives between the rounded corners*
20,1,$1+$1,$2,$3,$4,$5,0*
20,1,$1+$1,$4,$5,$6,$7,0*
20,1,$1+$1,$6,$7,$8,$9,0*
20,1,$1+$1,$8,$9,$2,$3,0*%
G04 Aperture macros list end*
%ADD10C,0.150000*%
%ADD11R,2.200000X2.200000*%
%ADD12O,2.200000X2.200000*%
%ADD13RoundRect,1.500000X-1.500000X1.500000X-1.500000X-1.500000X1.500000X-1.500000X1.500000X1.500000X0*%
%ADD14C,6.000000*%
%ADD15R,1.800000X1.200000*%
%ADD16C,4.500000*%
%ADD17C,3.048000*%
%ADD18C,3.051988*%
%ADD19C,3.068258*%
%ADD20RoundRect,1.500000X1.500000X1.500000X-1.500000X1.500000X-1.500000X-1.500000X1.500000X-1.500000X0*%
G04 APERTURE END LIST*
D10*
X124942857Y-68962380D02*
X124276190Y-69962380D01*
X124276190Y-68962380D02*
X124942857Y-69962380D01*
X124038095Y-68962380D02*
X123466666Y-68962380D01*
X123752380Y-69962380D02*
X123752380Y-68962380D01*
X122704761Y-68962380D02*
X122895238Y-68962380D01*
X122990476Y-69010000D01*
X123038095Y-69057619D01*
X123133333Y-69200476D01*
X123180952Y-69390952D01*
X123180952Y-69771904D01*
X123133333Y-69867142D01*
X123085714Y-69914761D01*
X122990476Y-69962380D01*
X122800000Y-69962380D01*
X122704761Y-69914761D01*
X122657142Y-69867142D01*
X122609523Y-69771904D01*
X122609523Y-69533809D01*
X122657142Y-69438571D01*
X122704761Y-69390952D01*
X122800000Y-69343333D01*
X122990476Y-69343333D01*
X123085714Y-69390952D01*
X123133333Y-69438571D01*
X123180952Y-69533809D01*
X121990476Y-68962380D02*
X121895238Y-68962380D01*
X121800000Y-69010000D01*
X121752380Y-69057619D01*
X121704761Y-69152857D01*
X121657142Y-69343333D01*
X121657142Y-69581428D01*
X121704761Y-69771904D01*
X121752380Y-69867142D01*
X121800000Y-69914761D01*
X121895238Y-69962380D01*
X121990476Y-69962380D01*
X122085714Y-69914761D01*
X122133333Y-69867142D01*
X122180952Y-69771904D01*
X122228571Y-69581428D01*
X122228571Y-69343333D01*
X122180952Y-69152857D01*
X122133333Y-69057619D01*
X122085714Y-69010000D01*
X121990476Y-68962380D01*
X120466666Y-69962380D02*
X120466666Y-68962380D01*
X120085714Y-68962380D01*
X119990476Y-69010000D01*
X119942857Y-69057619D01*
X119895238Y-69152857D01*
X119895238Y-69295714D01*
X119942857Y-69390952D01*
X119990476Y-69438571D01*
X120085714Y-69486190D01*
X120466666Y-69486190D01*
X119323809Y-69962380D02*
X119419047Y-69914761D01*
X119466666Y-69867142D01*
X119514285Y-69771904D01*
X119514285Y-69486190D01*
X119466666Y-69390952D01*
X119419047Y-69343333D01*
X119323809Y-69295714D01*
X119180952Y-69295714D01*
X119085714Y-69343333D01*
X119038095Y-69390952D01*
X118990476Y-69486190D01*
X118990476Y-69771904D01*
X119038095Y-69867142D01*
X119085714Y-69914761D01*
X119180952Y-69962380D01*
X119323809Y-69962380D01*
X118657142Y-69295714D02*
X118466666Y-69962380D01*
X118276190Y-69486190D01*
X118085714Y-69962380D01*
X117895238Y-69295714D01*
X117133333Y-69914761D02*
X117228571Y-69962380D01*
X117419047Y-69962380D01*
X117514285Y-69914761D01*
X117561904Y-69819523D01*
X117561904Y-69438571D01*
X117514285Y-69343333D01*
X117419047Y-69295714D01*
X117228571Y-69295714D01*
X117133333Y-69343333D01*
X117085714Y-69438571D01*
X117085714Y-69533809D01*
X117561904Y-69629047D01*
X116657142Y-69962380D02*
X116657142Y-69295714D01*
X116657142Y-69486190D02*
X116609523Y-69390952D01*
X116561904Y-69343333D01*
X116466666Y-69295714D01*
X116371428Y-69295714D01*
X116038095Y-69581428D02*
X115276190Y-69581428D01*
X114466666Y-69438571D02*
X114323809Y-69486190D01*
X114276190Y-69533809D01*
X114228571Y-69629047D01*
X114228571Y-69771904D01*
X114276190Y-69867142D01*
X114323809Y-69914761D01*
X114419047Y-69962380D01*
X114800000Y-69962380D01*
X114800000Y-68962380D01*
X114466666Y-68962380D01*
X114371428Y-69010000D01*
X114323809Y-69057619D01*
X114276190Y-69152857D01*
X114276190Y-69248095D01*
X114323809Y-69343333D01*
X114371428Y-69390952D01*
X114466666Y-69438571D01*
X114800000Y-69438571D01*
X113657142Y-69962380D02*
X113752380Y-69914761D01*
X113800000Y-69867142D01*
X113847619Y-69771904D01*
X113847619Y-69486190D01*
X113800000Y-69390952D01*
X113752380Y-69343333D01*
X113657142Y-69295714D01*
X113514285Y-69295714D01*
X113419047Y-69343333D01*
X113371428Y-69390952D01*
X113323809Y-69486190D01*
X113323809Y-69771904D01*
X113371428Y-69867142D01*
X113419047Y-69914761D01*
X113514285Y-69962380D01*
X113657142Y-69962380D01*
X112466666Y-69962380D02*
X112466666Y-69438571D01*
X112514285Y-69343333D01*
X112609523Y-69295714D01*
X112800000Y-69295714D01*
X112895238Y-69343333D01*
X112466666Y-69914761D02*
X112561904Y-69962380D01*
X112800000Y-69962380D01*
X112895238Y-69914761D01*
X112942857Y-69819523D01*
X112942857Y-69724285D01*
X112895238Y-69629047D01*
X112800000Y-69581428D01*
X112561904Y-69581428D01*
X112466666Y-69533809D01*
X111990476Y-69962380D02*
X111990476Y-69295714D01*
X111990476Y-69486190D02*
X111942857Y-69390952D01*
X111895238Y-69343333D01*
X111800000Y-69295714D01*
X111704761Y-69295714D01*
X110942857Y-69962380D02*
X110942857Y-68962380D01*
X110942857Y-69914761D02*
X111038095Y-69962380D01*
X111228571Y-69962380D01*
X111323809Y-69914761D01*
X111371428Y-69867142D01*
X111419047Y-69771904D01*
X111419047Y-69486190D01*
X111371428Y-69390952D01*
X111323809Y-69343333D01*
X111228571Y-69295714D01*
X111038095Y-69295714D01*
X110942857Y-69343333D01*
X109704761Y-69438571D02*
X109371428Y-69438571D01*
X109228571Y-69962380D02*
X109704761Y-69962380D01*
X109704761Y-68962380D01*
X109228571Y-68962380D01*
X108895238Y-69962380D02*
X108371428Y-69295714D01*
X108895238Y-69295714D02*
X108371428Y-69962380D01*
X108133333Y-69295714D02*
X107752380Y-69295714D01*
X107990476Y-68962380D02*
X107990476Y-69819523D01*
X107942857Y-69914761D01*
X107847619Y-69962380D01*
X107752380Y-69962380D01*
X107038095Y-69914761D02*
X107133333Y-69962380D01*
X107323809Y-69962380D01*
X107419047Y-69914761D01*
X107466666Y-69819523D01*
X107466666Y-69438571D01*
X107419047Y-69343333D01*
X107323809Y-69295714D01*
X107133333Y-69295714D01*
X107038095Y-69343333D01*
X106990476Y-69438571D01*
X106990476Y-69533809D01*
X107466666Y-69629047D01*
X106561904Y-69295714D02*
X106561904Y-69962380D01*
X106561904Y-69390952D02*
X106514285Y-69343333D01*
X106419047Y-69295714D01*
X106276190Y-69295714D01*
X106180952Y-69343333D01*
X106133333Y-69438571D01*
X106133333Y-69962380D01*
X105228571Y-69962380D02*
X105228571Y-68962380D01*
X105228571Y-69914761D02*
X105323809Y-69962380D01*
X105514285Y-69962380D01*
X105609523Y-69914761D01*
X105657142Y-69867142D01*
X105704761Y-69771904D01*
X105704761Y-69486190D01*
X105657142Y-69390952D01*
X105609523Y-69343333D01*
X105514285Y-69295714D01*
X105323809Y-69295714D01*
X105228571Y-69343333D01*
X104371428Y-69914761D02*
X104466666Y-69962380D01*
X104657142Y-69962380D01*
X104752380Y-69914761D01*
X104800000Y-69819523D01*
X104800000Y-69438571D01*
X104752380Y-69343333D01*
X104657142Y-69295714D01*
X104466666Y-69295714D01*
X104371428Y-69343333D01*
X104323809Y-69438571D01*
X104323809Y-69533809D01*
X104800000Y-69629047D01*
X103895238Y-69962380D02*
X103895238Y-69295714D01*
X103895238Y-69486190D02*
X103847619Y-69390952D01*
X103800000Y-69343333D01*
X103704761Y-69295714D01*
X103609523Y-69295714D01*
X119752380Y-71048571D02*
X119609523Y-71096190D01*
X119561904Y-71143809D01*
X119514285Y-71239047D01*
X119514285Y-71381904D01*
X119561904Y-71477142D01*
X119609523Y-71524761D01*
X119704761Y-71572380D01*
X120085714Y-71572380D01*
X120085714Y-70572380D01*
X119752380Y-70572380D01*
X119657142Y-70620000D01*
X119609523Y-70667619D01*
X119561904Y-70762857D01*
X119561904Y-70858095D01*
X119609523Y-70953333D01*
X119657142Y-71000952D01*
X119752380Y-71048571D01*
X120085714Y-71048571D01*
X119180952Y-70905714D02*
X118942857Y-71572380D01*
X118704761Y-70905714D02*
X118942857Y-71572380D01*
X119038095Y-71810476D01*
X119085714Y-71858095D01*
X119180952Y-71905714D01*
X117609523Y-71524761D02*
X117466666Y-71572380D01*
X117228571Y-71572380D01*
X117133333Y-71524761D01*
X117085714Y-71477142D01*
X117038095Y-71381904D01*
X117038095Y-71286666D01*
X117085714Y-71191428D01*
X117133333Y-71143809D01*
X117228571Y-71096190D01*
X117419047Y-71048571D01*
X117514285Y-71000952D01*
X117561904Y-70953333D01*
X117609523Y-70858095D01*
X117609523Y-70762857D01*
X117561904Y-70667619D01*
X117514285Y-70620000D01*
X117419047Y-70572380D01*
X117180952Y-70572380D01*
X117038095Y-70620000D01*
X116180952Y-71572380D02*
X116180952Y-71048571D01*
X116228571Y-70953333D01*
X116323809Y-70905714D01*
X116514285Y-70905714D01*
X116609523Y-70953333D01*
X116180952Y-71524761D02*
X116276190Y-71572380D01*
X116514285Y-71572380D01*
X116609523Y-71524761D01*
X116657142Y-71429523D01*
X116657142Y-71334285D01*
X116609523Y-71239047D01*
X116514285Y-71191428D01*
X116276190Y-71191428D01*
X116180952Y-71143809D01*
X115704761Y-71572380D02*
X115704761Y-70905714D01*
X115704761Y-71000952D02*
X115657142Y-70953333D01*
X115561904Y-70905714D01*
X115419047Y-70905714D01*
X115323809Y-70953333D01*
X115276190Y-71048571D01*
X115276190Y-71572380D01*
X115276190Y-71048571D02*
X115228571Y-70953333D01*
X115133333Y-70905714D01*
X114990476Y-70905714D01*
X114895238Y-70953333D01*
X114847619Y-71048571D01*
X114847619Y-71572380D01*
X114419047Y-71524761D02*
X114323809Y-71572380D01*
X114133333Y-71572380D01*
X114038095Y-71524761D01*
X113990476Y-71429523D01*
X113990476Y-71381904D01*
X114038095Y-71286666D01*
X114133333Y-71239047D01*
X114276190Y-71239047D01*
X114371428Y-71191428D01*
X114419047Y-71096190D01*
X114419047Y-71048571D01*
X114371428Y-70953333D01*
X114276190Y-70905714D01*
X114133333Y-70905714D01*
X114038095Y-70953333D01*
X113419047Y-71572380D02*
X113514285Y-71524761D01*
X113561904Y-71477142D01*
X113609523Y-71381904D01*
X113609523Y-71096190D01*
X113561904Y-71000952D01*
X113514285Y-70953333D01*
X113419047Y-70905714D01*
X113276190Y-70905714D01*
X113180952Y-70953333D01*
X113133333Y-71000952D01*
X113085714Y-71096190D01*
X113085714Y-71381904D01*
X113133333Y-71477142D01*
X113180952Y-71524761D01*
X113276190Y-71572380D01*
X113419047Y-71572380D01*
X112657142Y-70905714D02*
X112657142Y-71572380D01*
X112657142Y-71000952D02*
X112609523Y-70953333D01*
X112514285Y-70905714D01*
X112371428Y-70905714D01*
X112276190Y-70953333D01*
X112228571Y-71048571D01*
X112228571Y-71572380D01*
X111180952Y-71477142D02*
X111228571Y-71524761D01*
X111371428Y-71572380D01*
X111466666Y-71572380D01*
X111609523Y-71524761D01*
X111704761Y-71429523D01*
X111752380Y-71334285D01*
X111800000Y-71143809D01*
X111800000Y-71000952D01*
X111752380Y-70810476D01*
X111704761Y-70715238D01*
X111609523Y-70620000D01*
X111466666Y-70572380D01*
X111371428Y-70572380D01*
X111228571Y-70620000D01*
X111180952Y-70667619D01*
X110752380Y-71572380D02*
X110752380Y-70572380D01*
X110323809Y-71572380D02*
X110323809Y-71048571D01*
X110371428Y-70953333D01*
X110466666Y-70905714D01*
X110609523Y-70905714D01*
X110704761Y-70953333D01*
X110752380Y-71000952D01*
X109419047Y-71572380D02*
X109419047Y-71048571D01*
X109466666Y-70953333D01*
X109561904Y-70905714D01*
X109752380Y-70905714D01*
X109847619Y-70953333D01*
X109419047Y-71524761D02*
X109514285Y-71572380D01*
X109752380Y-71572380D01*
X109847619Y-71524761D01*
X109895238Y-71429523D01*
X109895238Y-71334285D01*
X109847619Y-71239047D01*
X109752380Y-71191428D01*
X109514285Y-71191428D01*
X109419047Y-71143809D01*
X108514285Y-70905714D02*
X108514285Y-71572380D01*
X108942857Y-70905714D02*
X108942857Y-71429523D01*
X108895238Y-71524761D01*
X108800000Y-71572380D01*
X108657142Y-71572380D01*
X108561904Y-71524761D01*
X108514285Y-71477142D01*
X119157142Y-72277619D02*
X119109523Y-72230000D01*
X119014285Y-72182380D01*
X118776190Y-72182380D01*
X118680952Y-72230000D01*
X118633333Y-72277619D01*
X118585714Y-72372857D01*
X118585714Y-72468095D01*
X118633333Y-72610952D01*
X119204761Y-73182380D01*
X118585714Y-73182380D01*
X117966666Y-72182380D02*
X117871428Y-72182380D01*
X117776190Y-72230000D01*
X117728571Y-72277619D01*
X117680952Y-72372857D01*
X117633333Y-72563333D01*
X117633333Y-72801428D01*
X117680952Y-72991904D01*
X117728571Y-73087142D01*
X117776190Y-73134761D01*
X117871428Y-73182380D01*
X117966666Y-73182380D01*
X118061904Y-73134761D01*
X118109523Y-73087142D01*
X118157142Y-72991904D01*
X118204761Y-72801428D01*
X118204761Y-72563333D01*
X118157142Y-72372857D01*
X118109523Y-72277619D01*
X118061904Y-72230000D01*
X117966666Y-72182380D01*
X117252380Y-72277619D02*
X117204761Y-72230000D01*
X117109523Y-72182380D01*
X116871428Y-72182380D01*
X116776190Y-72230000D01*
X116728571Y-72277619D01*
X116680952Y-72372857D01*
X116680952Y-72468095D01*
X116728571Y-72610952D01*
X117300000Y-73182380D01*
X116680952Y-73182380D01*
X116300000Y-72277619D02*
X116252380Y-72230000D01*
X116157142Y-72182380D01*
X115919047Y-72182380D01*
X115823809Y-72230000D01*
X115776190Y-72277619D01*
X115728571Y-72372857D01*
X115728571Y-72468095D01*
X115776190Y-72610952D01*
X116347619Y-73182380D01*
X115728571Y-73182380D01*
X115300000Y-72801428D02*
X114538095Y-72801428D01*
X113871428Y-72182380D02*
X113776190Y-72182380D01*
X113680952Y-72230000D01*
X113633333Y-72277619D01*
X113585714Y-72372857D01*
X113538095Y-72563333D01*
X113538095Y-72801428D01*
X113585714Y-72991904D01*
X113633333Y-73087142D01*
X113680952Y-73134761D01*
X113776190Y-73182380D01*
X113871428Y-73182380D01*
X113966666Y-73134761D01*
X114014285Y-73087142D01*
X114061904Y-72991904D01*
X114109523Y-72801428D01*
X114109523Y-72563333D01*
X114061904Y-72372857D01*
X114014285Y-72277619D01*
X113966666Y-72230000D01*
X113871428Y-72182380D01*
X112680952Y-72515714D02*
X112680952Y-73182380D01*
X112919047Y-72134761D02*
X113157142Y-72849047D01*
X112538095Y-72849047D01*
X112157142Y-72801428D02*
X111395238Y-72801428D01*
X110966666Y-72277619D02*
X110919047Y-72230000D01*
X110823809Y-72182380D01*
X110585714Y-72182380D01*
X110490476Y-72230000D01*
X110442857Y-72277619D01*
X110395238Y-72372857D01*
X110395238Y-72468095D01*
X110442857Y-72610952D01*
X111014285Y-73182380D01*
X110395238Y-73182380D01*
X109776190Y-72182380D02*
X109680952Y-72182380D01*
X109585714Y-72230000D01*
X109538095Y-72277619D01*
X109490476Y-72372857D01*
X109442857Y-72563333D01*
X109442857Y-72801428D01*
X109490476Y-72991904D01*
X109538095Y-73087142D01*
X109585714Y-73134761D01*
X109680952Y-73182380D01*
X109776190Y-73182380D01*
X109871428Y-73134761D01*
X109919047Y-73087142D01*
X109966666Y-72991904D01*
X110014285Y-72801428D01*
X110014285Y-72563333D01*
X109966666Y-72372857D01*
X109919047Y-72277619D01*
X109871428Y-72230000D01*
X109776190Y-72182380D01*
X204296380Y-56356833D02*
X204296380Y-56975880D01*
X204677333Y-56642547D01*
X204677333Y-56785404D01*
X204724952Y-56880642D01*
X204772571Y-56928261D01*
X204867809Y-56975880D01*
X205105904Y-56975880D01*
X205201142Y-56928261D01*
X205248761Y-56880642D01*
X205296380Y-56785404D01*
X205296380Y-56499690D01*
X205248761Y-56404452D01*
X205201142Y-56356833D01*
X204629714Y-57833023D02*
X205296380Y-57833023D01*
X204248761Y-57594928D02*
X204963047Y-57356833D01*
X204963047Y-57975880D01*
X205201142Y-58356833D02*
X205248761Y-58404452D01*
X205296380Y-58356833D01*
X205248761Y-58309214D01*
X205201142Y-58356833D01*
X205296380Y-58356833D01*
X205296380Y-59356833D02*
X205296380Y-58785404D01*
X205296380Y-59071119D02*
X204296380Y-59071119D01*
X204439238Y-58975880D01*
X204534476Y-58880642D01*
X204582095Y-58785404D01*
X204296380Y-60213976D02*
X204296380Y-60023500D01*
X204344000Y-59928261D01*
X204391619Y-59880642D01*
X204534476Y-59785404D01*
X204724952Y-59737785D01*
X205105904Y-59737785D01*
X205201142Y-59785404D01*
X205248761Y-59833023D01*
X205296380Y-59928261D01*
X205296380Y-60118738D01*
X205248761Y-60213976D01*
X205201142Y-60261595D01*
X205105904Y-60309214D01*
X204867809Y-60309214D01*
X204772571Y-60261595D01*
X204724952Y-60213976D01*
X204677333Y-60118738D01*
X204677333Y-59928261D01*
X204724952Y-59833023D01*
X204772571Y-59785404D01*
X204867809Y-59737785D01*
X204296380Y-60642547D02*
X204296380Y-61261595D01*
X204677333Y-60928261D01*
X204677333Y-61071119D01*
X204724952Y-61166357D01*
X204772571Y-61213976D01*
X204867809Y-61261595D01*
X205105904Y-61261595D01*
X205201142Y-61213976D01*
X205248761Y-61166357D01*
X205296380Y-61071119D01*
X205296380Y-60785404D01*
X205248761Y-60690166D01*
X205201142Y-60642547D01*
X204296380Y-61880642D02*
X204296380Y-61975880D01*
X204344000Y-62071119D01*
X204391619Y-62118738D01*
X204486857Y-62166357D01*
X204677333Y-62213976D01*
X204915428Y-62213976D01*
X205105904Y-62166357D01*
X205201142Y-62118738D01*
X205248761Y-62071119D01*
X205296380Y-61975880D01*
X205296380Y-61880642D01*
X205248761Y-61785404D01*
X205201142Y-61737785D01*
X205105904Y-61690166D01*
X204915428Y-61642547D01*
X204677333Y-61642547D01*
X204486857Y-61690166D01*
X204391619Y-61737785D01*
X204344000Y-61785404D01*
X204296380Y-61880642D01*
X205296380Y-63404452D02*
X204629714Y-63404452D01*
X204724952Y-63404452D02*
X204677333Y-63452071D01*
X204629714Y-63547309D01*
X204629714Y-63690166D01*
X204677333Y-63785404D01*
X204772571Y-63833023D01*
X205296380Y-63833023D01*
X204772571Y-63833023D02*
X204677333Y-63880642D01*
X204629714Y-63975880D01*
X204629714Y-64118738D01*
X204677333Y-64213976D01*
X204772571Y-64261595D01*
X205296380Y-64261595D01*
X205296380Y-64737785D02*
X204629714Y-64737785D01*
X204724952Y-64737785D02*
X204677333Y-64785404D01*
X204629714Y-64880642D01*
X204629714Y-65023500D01*
X204677333Y-65118738D01*
X204772571Y-65166357D01*
X205296380Y-65166357D01*
X204772571Y-65166357D02*
X204677333Y-65213976D01*
X204629714Y-65309214D01*
X204629714Y-65452071D01*
X204677333Y-65547309D01*
X204772571Y-65594928D01*
X205296380Y-65594928D01*
X205732000Y-43942000D02*
X206580420Y-43942000D01*
X205732000Y-78105000D02*
X206580420Y-78105000D01*
X205994000Y-43942000D02*
X205994000Y-78105000D01*
X205994000Y-43942000D02*
X205994000Y-78105000D01*
X205994000Y-43942000D02*
X205407579Y-45068504D01*
X205994000Y-43942000D02*
X206580421Y-45068504D01*
X205994000Y-78105000D02*
X206580421Y-76978496D01*
X205994000Y-78105000D02*
X205407579Y-76978496D01*
X122252809Y-42228381D02*
X122824238Y-42228381D01*
X122538523Y-42228381D02*
X122538523Y-41228381D01*
X122633761Y-41371239D01*
X122729000Y-41466477D01*
X122824238Y-41514096D01*
X121919476Y-41228381D02*
X121252809Y-41228381D01*
X121681380Y-42228381D01*
X120443285Y-41561715D02*
X120443285Y-42228381D01*
X120681380Y-41180762D02*
X120919476Y-41895048D01*
X120300428Y-41895048D01*
X119919476Y-42133143D02*
X119871857Y-42180762D01*
X119919476Y-42228381D01*
X119967095Y-42180762D01*
X119919476Y-42133143D01*
X119919476Y-42228381D01*
X119538523Y-41228381D02*
X118871857Y-41228381D01*
X119300428Y-42228381D01*
X118014714Y-41228381D02*
X118490904Y-41228381D01*
X118538523Y-41704572D01*
X118490904Y-41656953D01*
X118395666Y-41609334D01*
X118157571Y-41609334D01*
X118062333Y-41656953D01*
X118014714Y-41704572D01*
X117967095Y-41799810D01*
X117967095Y-42037905D01*
X118014714Y-42133143D01*
X118062333Y-42180762D01*
X118157571Y-42228381D01*
X118395666Y-42228381D01*
X118490904Y-42180762D01*
X118538523Y-42133143D01*
X117586142Y-41323620D02*
X117538523Y-41276001D01*
X117443285Y-41228381D01*
X117205190Y-41228381D01*
X117109952Y-41276001D01*
X117062333Y-41323620D01*
X117014714Y-41418858D01*
X117014714Y-41514096D01*
X117062333Y-41656953D01*
X117633761Y-42228381D01*
X117014714Y-42228381D01*
X116395666Y-41228381D02*
X116300428Y-41228381D01*
X116205190Y-41276001D01*
X116157571Y-41323620D01*
X116109952Y-41418858D01*
X116062333Y-41609334D01*
X116062333Y-41847429D01*
X116109952Y-42037905D01*
X116157571Y-42133143D01*
X116205190Y-42180762D01*
X116300428Y-42228381D01*
X116395666Y-42228381D01*
X116490904Y-42180762D01*
X116538523Y-42133143D01*
X116586142Y-42037905D01*
X116633761Y-41847429D01*
X116633761Y-41609334D01*
X116586142Y-41418858D01*
X116538523Y-41323620D01*
X116490904Y-41276001D01*
X116395666Y-41228381D01*
X114871857Y-42228381D02*
X114871857Y-41561715D01*
X114871857Y-41656953D02*
X114824238Y-41609334D01*
X114729000Y-41561715D01*
X114586142Y-41561715D01*
X114490904Y-41609334D01*
X114443285Y-41704572D01*
X114443285Y-42228381D01*
X114443285Y-41704572D02*
X114395666Y-41609334D01*
X114300428Y-41561715D01*
X114157571Y-41561715D01*
X114062333Y-41609334D01*
X114014714Y-41704572D01*
X114014714Y-42228381D01*
X113538523Y-42228381D02*
X113538523Y-41561715D01*
X113538523Y-41656953D02*
X113490904Y-41609334D01*
X113395666Y-41561715D01*
X113252809Y-41561715D01*
X113157571Y-41609334D01*
X113109952Y-41704572D01*
X113109952Y-42228381D01*
X113109952Y-41704572D02*
X113062333Y-41609334D01*
X112967095Y-41561715D01*
X112824238Y-41561715D01*
X112729000Y-41609334D01*
X112681380Y-41704572D01*
X112681380Y-42228381D01*
X205105000Y-43315000D02*
X205105000Y-42339581D01*
X30353000Y-43315000D02*
X30353000Y-42339581D01*
X205105000Y-42926001D02*
X30353000Y-42926001D01*
X205105000Y-42926001D02*
X30353000Y-42926001D01*
X205105000Y-42926001D02*
X203978496Y-42339580D01*
X205105000Y-42926001D02*
X203978496Y-43512422D01*
X30353000Y-42926001D02*
X31479504Y-43512422D01*
X30353000Y-42926001D02*
X31479504Y-42339580D01*
G36*
X140212754Y-70610103D02*
G01*
X140460821Y-70610894D01*
X140654271Y-70614254D01*
X140799894Y-70622055D01*
X140904481Y-70636166D01*
X140974824Y-70658459D01*
X141017714Y-70690803D01*
X141039941Y-70735070D01*
X141048297Y-70793129D01*
X141049574Y-70866851D01*
X141049574Y-71024391D01*
X139139799Y-71024391D01*
X139140287Y-70888946D01*
X139140521Y-70861471D01*
X139144839Y-70788510D01*
X139159728Y-70731226D01*
X139191823Y-70687724D01*
X139247761Y-70656110D01*
X139334178Y-70634492D01*
X139457708Y-70620974D01*
X139624989Y-70613664D01*
X139842654Y-70610666D01*
X140117341Y-70610088D01*
X140212754Y-70610103D01*
G37*
G36*
X130619979Y-71217240D02*
G01*
X130746147Y-71221918D01*
X130832428Y-71231441D01*
X130885530Y-71246736D01*
X130912163Y-71268728D01*
X130919038Y-71298343D01*
X130912863Y-71336506D01*
X130911623Y-71341532D01*
X130892695Y-71403537D01*
X130865129Y-71449300D01*
X130819757Y-71481674D01*
X130747409Y-71503510D01*
X130638915Y-71517659D01*
X130485107Y-71526973D01*
X130276815Y-71534304D01*
X130267183Y-71534600D01*
X130055106Y-71542461D01*
X129900316Y-71551688D01*
X129796684Y-71563264D01*
X129738081Y-71578176D01*
X129718376Y-71597408D01*
X129731442Y-71621945D01*
X129767088Y-71629780D01*
X129856537Y-71637899D01*
X129989073Y-71645427D01*
X130154221Y-71651772D01*
X130341509Y-71656345D01*
X130927769Y-71666844D01*
X130927769Y-71984647D01*
X130170316Y-71974594D01*
X130017348Y-71972563D01*
X129781886Y-71968383D01*
X129599574Y-71961313D01*
X129463618Y-71948631D01*
X129367221Y-71927615D01*
X129303590Y-71895542D01*
X129265927Y-71849691D01*
X129247438Y-71787340D01*
X129241328Y-71705766D01*
X129240802Y-71602247D01*
X129240795Y-71589684D01*
X129241413Y-71481120D01*
X129248306Y-71397105D01*
X129268644Y-71334359D01*
X129309596Y-71289602D01*
X129378334Y-71259554D01*
X129482027Y-71240934D01*
X129627846Y-71230463D01*
X129822961Y-71224860D01*
X130074543Y-71220846D01*
X130221140Y-71218719D01*
X130447213Y-71216482D01*
X130619979Y-71217240D01*
G37*
G36*
X136251300Y-70610122D02*
G01*
X136494886Y-70611076D01*
X136684684Y-70614712D01*
X136827405Y-70622836D01*
X136929758Y-70637251D01*
X136998455Y-70659762D01*
X137040205Y-70692173D01*
X137061719Y-70736289D01*
X137069706Y-70793913D01*
X137070877Y-70866851D01*
X137070877Y-71024391D01*
X135161103Y-71024391D01*
X135161103Y-70866851D01*
X135161231Y-70830467D01*
X135164778Y-70764968D01*
X135178301Y-70713933D01*
X135208512Y-70675556D01*
X135262121Y-70648034D01*
X135345838Y-70629562D01*
X135466373Y-70618335D01*
X135630437Y-70612550D01*
X135844739Y-70610403D01*
X136115990Y-70610088D01*
X136251300Y-70610122D01*
G37*
G36*
X136202935Y-72240790D02*
G01*
X136325518Y-72248014D01*
X136415131Y-72260117D01*
X136479498Y-72277811D01*
X136526339Y-72301807D01*
X136563379Y-72332819D01*
X136598975Y-72391654D01*
X136622564Y-72481323D01*
X136625529Y-72569545D01*
X136604043Y-72628490D01*
X136600085Y-72630024D01*
X136547831Y-72635296D01*
X136442273Y-72640013D01*
X136291518Y-72643996D01*
X136103675Y-72647065D01*
X135886851Y-72649039D01*
X135649156Y-72649736D01*
X134715489Y-72649736D01*
X134715489Y-72511263D01*
X134715745Y-72491557D01*
X134733033Y-72384218D01*
X134782420Y-72312079D01*
X134792910Y-72303200D01*
X134822451Y-72285398D01*
X134865052Y-72271842D01*
X134929146Y-72261772D01*
X135023165Y-72254428D01*
X135155543Y-72249048D01*
X135334713Y-72244873D01*
X135569109Y-72241143D01*
X135827973Y-72238130D01*
X136039661Y-72237733D01*
X136202935Y-72240790D01*
G37*
G36*
X134859549Y-70617963D02*
G01*
X134956633Y-70624296D01*
X135014150Y-70634601D01*
X135038939Y-70649217D01*
X135055437Y-70701928D01*
X135064170Y-70795909D01*
X135061256Y-70896804D01*
X135046040Y-70974642D01*
X135038702Y-70986867D01*
X135015399Y-71001226D01*
X134970019Y-71011126D01*
X134894250Y-71017114D01*
X134779780Y-71019739D01*
X134618298Y-71019547D01*
X134401491Y-71017085D01*
X133776516Y-71008457D01*
X133776516Y-70626022D01*
X134394877Y-70617347D01*
X134519340Y-70615862D01*
X134716064Y-70615265D01*
X134859549Y-70617963D01*
G37*
G36*
X130923124Y-73419211D02*
G01*
X130920079Y-73515291D01*
X130914075Y-73563716D01*
X130910209Y-73569350D01*
X130882221Y-73581992D01*
X130823305Y-73591529D01*
X130726919Y-73598321D01*
X130586518Y-73602728D01*
X130395558Y-73605108D01*
X130147497Y-73605822D01*
X129397056Y-73605822D01*
X129318929Y-73527597D01*
X129288613Y-73493884D01*
X129258291Y-73437889D01*
X129244234Y-73359972D01*
X129240802Y-73239322D01*
X129241046Y-73223388D01*
X129734160Y-73223388D01*
X129739702Y-73239776D01*
X129769602Y-73256169D01*
X129834108Y-73267376D01*
X129942902Y-73274876D01*
X130105668Y-73280149D01*
X130179973Y-73281545D01*
X130348813Y-73280154D01*
X130455069Y-73270805D01*
X130499173Y-73253470D01*
X130509395Y-73217051D01*
X130481461Y-73189098D01*
X130407278Y-73172176D01*
X130281184Y-73165060D01*
X130097517Y-73166523D01*
X129982228Y-73170008D01*
X129859056Y-73176811D01*
X129783162Y-73186957D01*
X129744784Y-73201973D01*
X129734160Y-73223388D01*
X129241046Y-73223388D01*
X129242090Y-73155335D01*
X129251715Y-73064832D01*
X129275625Y-73003498D01*
X129319507Y-72950469D01*
X129398212Y-72871665D01*
X130155033Y-72880212D01*
X130911854Y-72888758D01*
X130921033Y-73205184D01*
X130921290Y-73217051D01*
X130922900Y-73291503D01*
X130923124Y-73419211D01*
G37*
G36*
X138943882Y-71794630D02*
G01*
X138940594Y-71891420D01*
X138934455Y-71940125D01*
X138926681Y-71949609D01*
X138896040Y-71961359D01*
X138836701Y-71969628D01*
X138741678Y-71974730D01*
X138603985Y-71976976D01*
X138416635Y-71976678D01*
X138172641Y-71974149D01*
X138065921Y-71972803D01*
X137829377Y-71969189D01*
X137646809Y-71963038D01*
X137511234Y-71951364D01*
X137415671Y-71931180D01*
X137353138Y-71899498D01*
X137316655Y-71853331D01*
X137299239Y-71789691D01*
X137293909Y-71705590D01*
X137293684Y-71598043D01*
X137293676Y-71593386D01*
X137753747Y-71593386D01*
X137799973Y-71628313D01*
X137814828Y-71633780D01*
X137888071Y-71645917D01*
X137998006Y-71654807D01*
X138127941Y-71660163D01*
X138261183Y-71661700D01*
X138381038Y-71659131D01*
X138470814Y-71652172D01*
X138513818Y-71640535D01*
X138520899Y-71630998D01*
X138535037Y-71576796D01*
X138532187Y-71567291D01*
X138503382Y-71551427D01*
X138436603Y-71541277D01*
X138323309Y-71535888D01*
X138154961Y-71534304D01*
X138145046Y-71534310D01*
X137957046Y-71537976D01*
X137830411Y-71548713D01*
X137763269Y-71567017D01*
X137753747Y-71593386D01*
X137293676Y-71593386D01*
X137293594Y-71547979D01*
X137295098Y-71450906D01*
X137304631Y-71376019D01*
X137329146Y-71320442D01*
X137375597Y-71281302D01*
X137450936Y-71255724D01*
X137562117Y-71240833D01*
X137716093Y-71233756D01*
X137919816Y-71231617D01*
X138180240Y-71231543D01*
X138932907Y-71231543D01*
X138942042Y-71564019D01*
X138942290Y-71576796D01*
X138944005Y-71665357D01*
X138943882Y-71794630D01*
G37*
G36*
X138948822Y-71024391D02*
G01*
X138741930Y-71024391D01*
X138694975Y-71024041D01*
X138598204Y-71018305D01*
X138548850Y-71003401D01*
X138535037Y-70976587D01*
X138535033Y-70975993D01*
X138525140Y-70955941D01*
X138489871Y-70942340D01*
X138419662Y-70934044D01*
X138304950Y-70929907D01*
X138136169Y-70928783D01*
X137988627Y-70929687D01*
X137862816Y-70933773D01*
X137782510Y-70942198D01*
X137737850Y-70956093D01*
X137718979Y-70976587D01*
X137718946Y-70976674D01*
X137689002Y-71004835D01*
X137618909Y-71019915D01*
X137497171Y-71024391D01*
X137293684Y-71024391D01*
X137293684Y-70866851D01*
X137293690Y-70857077D01*
X137295661Y-70784149D01*
X137305952Y-70727207D01*
X137331479Y-70684271D01*
X137379161Y-70653366D01*
X137455915Y-70632513D01*
X137568657Y-70619736D01*
X137724306Y-70613058D01*
X137929780Y-70610501D01*
X138191994Y-70610088D01*
X138948822Y-70610088D01*
X138948822Y-71024391D01*
G37*
G36*
X135581181Y-71414018D02*
G01*
X135588005Y-71488186D01*
X135606919Y-71557965D01*
X135645581Y-71606179D01*
X135712752Y-71636391D01*
X135817191Y-71652162D01*
X135967658Y-71657056D01*
X136172914Y-71654633D01*
X136307983Y-71651497D01*
X136453583Y-71644544D01*
X136551587Y-71630191D01*
X136611442Y-71603443D01*
X136642597Y-71559302D01*
X136654502Y-71492773D01*
X136656605Y-71398858D01*
X136657093Y-71247478D01*
X137070877Y-71247478D01*
X137070877Y-71546336D01*
X137070770Y-71591096D01*
X137066739Y-71730955D01*
X137052524Y-71823582D01*
X137022237Y-71882085D01*
X136969989Y-71919568D01*
X136889892Y-71949138D01*
X136868596Y-71953205D01*
X136783592Y-71960329D01*
X136650527Y-71965927D01*
X136479779Y-71969725D01*
X136281725Y-71971450D01*
X136066743Y-71970829D01*
X135910982Y-71969554D01*
X135680258Y-71966696D01*
X135502429Y-71960349D01*
X135370619Y-71947313D01*
X135277951Y-71924390D01*
X135217550Y-71888380D01*
X135182541Y-71836086D01*
X135166047Y-71764307D01*
X135161193Y-71669846D01*
X135161103Y-71549504D01*
X135161103Y-71247478D01*
X135571560Y-71247478D01*
X135581181Y-71414018D01*
G37*
G36*
X130255189Y-70610915D02*
G01*
X130466565Y-70613174D01*
X130626792Y-70619393D01*
X130743145Y-70631678D01*
X130822901Y-70652137D01*
X130873336Y-70682877D01*
X130901725Y-70726005D01*
X130915347Y-70783627D01*
X130921475Y-70857851D01*
X130931096Y-71024391D01*
X130726438Y-71024391D01*
X130639404Y-71022109D01*
X130536151Y-71007070D01*
X130482155Y-70976587D01*
X130479349Y-70973437D01*
X130442423Y-70951892D01*
X130374058Y-70938160D01*
X130263551Y-70930904D01*
X130100200Y-70928783D01*
X130077619Y-70928810D01*
X129921124Y-70931473D01*
X129816198Y-70939430D01*
X129752139Y-70954022D01*
X129718245Y-70976587D01*
X129682540Y-71000684D01*
X129597680Y-71018762D01*
X129459712Y-71024391D01*
X129240802Y-71024391D01*
X129240802Y-70866851D01*
X129241412Y-70813996D01*
X129247995Y-70747900D01*
X129267786Y-70697891D01*
X129307992Y-70661735D01*
X129375820Y-70637199D01*
X129478477Y-70622047D01*
X129623171Y-70614046D01*
X129817108Y-70610961D01*
X130067496Y-70610558D01*
X130255189Y-70610915D01*
G37*
G36*
X134397193Y-72256148D02*
G01*
X134402973Y-72257313D01*
X134453868Y-72271745D01*
X134480608Y-72299567D01*
X134490957Y-72357559D01*
X134492682Y-72462503D01*
X134492682Y-72649736D01*
X134110727Y-72649736D01*
X134110727Y-72462503D01*
X134110731Y-72451169D01*
X134112893Y-72350941D01*
X134124351Y-72296215D01*
X134152870Y-72270211D01*
X134206215Y-72256148D01*
X134291261Y-72248340D01*
X134397193Y-72256148D01*
G37*
G36*
X138793685Y-69590263D02*
G01*
X138918998Y-69590263D01*
X138945739Y-69589593D01*
X139016095Y-69579528D01*
X139044311Y-69561220D01*
X139039842Y-69532711D01*
X139023211Y-69452163D01*
X138997158Y-69334901D01*
X138964737Y-69194982D01*
X138938179Y-69081414D01*
X138910740Y-68961402D01*
X138892061Y-68876411D01*
X138885163Y-68839927D01*
X138897190Y-68833925D01*
X138956399Y-68829396D01*
X139048424Y-68831697D01*
X139211686Y-68841330D01*
X139301796Y-69207829D01*
X139335312Y-69347603D01*
X139365006Y-69478654D01*
X139385341Y-69576822D01*
X139393171Y-69627655D01*
X139392063Y-69638799D01*
X139364747Y-69703374D01*
X139312033Y-69779035D01*
X139285698Y-69808968D01*
X139231200Y-69853255D01*
X139163463Y-69872741D01*
X139057396Y-69877089D01*
X138970957Y-69879963D01*
X138905011Y-69893846D01*
X138885163Y-69921484D01*
X138894950Y-69952649D01*
X138954785Y-69990824D01*
X139060684Y-70004567D01*
X139112775Y-70016351D01*
X139156095Y-70076273D01*
X139170511Y-70126784D01*
X139192214Y-70203751D01*
X139195204Y-70227763D01*
X139176737Y-70248083D01*
X139120424Y-70257332D01*
X139013393Y-70259523D01*
X138912108Y-70257153D01*
X138832987Y-70242800D01*
X138767555Y-70206486D01*
X138689196Y-70138256D01*
X138644802Y-70095385D01*
X138606790Y-70050911D01*
X138575767Y-69998517D01*
X138547493Y-69927360D01*
X138517726Y-69826599D01*
X138482225Y-69685392D01*
X138436751Y-69492898D01*
X138407013Y-69365868D01*
X138367583Y-69197712D01*
X138334162Y-69055507D01*
X138309580Y-68951291D01*
X138296668Y-68897102D01*
X138290800Y-68862949D01*
X138303279Y-68837678D01*
X138351312Y-68827364D01*
X138448939Y-68825395D01*
X138618691Y-68825395D01*
X138793685Y-69590263D01*
G37*
G36*
X134492682Y-73605822D02*
G01*
X133219499Y-73605822D01*
X133219499Y-73287127D01*
X134075859Y-73287127D01*
X134085336Y-73087942D01*
X134094812Y-72888758D01*
X134492682Y-72869782D01*
X134492682Y-73605822D01*
G37*
G36*
X142739367Y-69370117D02*
G01*
X142779492Y-69535835D01*
X142813340Y-69673912D01*
X142838097Y-69772892D01*
X142850949Y-69821317D01*
X142854891Y-69839611D01*
X142843152Y-69863574D01*
X142794223Y-69874496D01*
X142694920Y-69877089D01*
X142599173Y-69875394D01*
X142543138Y-69864051D01*
X142516416Y-69833766D01*
X142501349Y-69775249D01*
X142499932Y-69768248D01*
X142476237Y-69662802D01*
X142448399Y-69552163D01*
X142415792Y-69430916D01*
X142005009Y-69430916D01*
X141897222Y-69430304D01*
X141724919Y-69423368D01*
X141600807Y-69404236D01*
X141514663Y-69367413D01*
X141456270Y-69307402D01*
X141415405Y-69218708D01*
X141381848Y-69095835D01*
X141359188Y-68992258D01*
X141337651Y-68844525D01*
X141338435Y-68825395D01*
X141653123Y-68825395D01*
X141672602Y-68913036D01*
X141688762Y-68982850D01*
X141707183Y-69056449D01*
X141714544Y-69073709D01*
X141740641Y-69093605D01*
X141794650Y-69105301D01*
X141888475Y-69110829D01*
X142034020Y-69112221D01*
X142345755Y-69112221D01*
X142312978Y-68968808D01*
X142280202Y-68825395D01*
X141653123Y-68825395D01*
X141338435Y-68825395D01*
X141342080Y-68736430D01*
X141373758Y-68655487D01*
X141433971Y-68589207D01*
X141475160Y-68556736D01*
X141518233Y-68533158D01*
X141573583Y-68518452D01*
X141654055Y-68510532D01*
X141772495Y-68507310D01*
X141941746Y-68506700D01*
X142040445Y-68507221D01*
X142217882Y-68512863D01*
X142346479Y-68526488D01*
X142436324Y-68550300D01*
X142497507Y-68586499D01*
X142540116Y-68637287D01*
X142554004Y-68670157D01*
X142582586Y-68759852D01*
X142619679Y-68891264D01*
X142662025Y-69052726D01*
X142676693Y-69112221D01*
X142706365Y-69232573D01*
X142739367Y-69370117D01*
G37*
G36*
X134651829Y-71595706D02*
G01*
X134650826Y-71743590D01*
X134646487Y-71848725D01*
X134637078Y-71912072D01*
X134620869Y-71944908D01*
X134596128Y-71958508D01*
X134574720Y-71963379D01*
X134471904Y-71975111D01*
X134365470Y-71974456D01*
X134288393Y-71961132D01*
X134273879Y-71952207D01*
X134255948Y-71920071D01*
X134245000Y-71857054D01*
X134239533Y-71752220D01*
X134238045Y-71594633D01*
X134238045Y-71247478D01*
X134651829Y-71247478D01*
X134651829Y-71595706D01*
G37*
G36*
X131532531Y-73041731D02*
G01*
X131535168Y-73105881D01*
X131549004Y-73196953D01*
X131570727Y-73248883D01*
X131612587Y-73265285D01*
X131709712Y-73277575D01*
X131864106Y-73284778D01*
X132078880Y-73287127D01*
X132100104Y-73287126D01*
X132290385Y-73286112D01*
X132426815Y-73280125D01*
X132518354Y-73264672D01*
X132573958Y-73235259D01*
X132602584Y-73187393D01*
X132613192Y-73116582D01*
X132614737Y-73018331D01*
X132614737Y-72872823D01*
X133028521Y-72872823D01*
X133028521Y-73173270D01*
X133028520Y-73179939D01*
X133027394Y-73318963D01*
X133021834Y-73409647D01*
X133008450Y-73466803D01*
X132983853Y-73505240D01*
X132944655Y-73539770D01*
X132941966Y-73541874D01*
X132912612Y-73562049D01*
X132877548Y-73577473D01*
X132828496Y-73588781D01*
X132757179Y-73596609D01*
X132655316Y-73601592D01*
X132514630Y-73604365D01*
X132326843Y-73605564D01*
X132083676Y-73605822D01*
X131902858Y-73605516D01*
X131687934Y-73603766D01*
X131523426Y-73600080D01*
X131401489Y-73594018D01*
X131314279Y-73585142D01*
X131253949Y-73573015D01*
X131212655Y-73557199D01*
X131118747Y-73508576D01*
X131118747Y-72872823D01*
X131532531Y-72872823D01*
X131532531Y-73041731D01*
G37*
G36*
X131417800Y-72257000D02*
G01*
X131532531Y-72275642D01*
X131532531Y-72649736D01*
X131118747Y-72649736D01*
X131118747Y-72462503D01*
X131118748Y-72455855D01*
X131120809Y-72353590D01*
X131131858Y-72297483D01*
X131159392Y-72270802D01*
X131210908Y-72256814D01*
X131213016Y-72256403D01*
X131311242Y-72249259D01*
X131417800Y-72257000D01*
G37*
G36*
X137935143Y-68531858D02*
G01*
X138010530Y-68578876D01*
X138017619Y-68585225D01*
X138048817Y-68621574D01*
X138077873Y-68674571D01*
X138107908Y-68753346D01*
X138142045Y-68867027D01*
X138183406Y-69024746D01*
X138235112Y-69235632D01*
X138236092Y-69239702D01*
X138280192Y-69424330D01*
X138318557Y-69587708D01*
X138348852Y-69719667D01*
X138368741Y-69810037D01*
X138375890Y-69848650D01*
X138357738Y-69855972D01*
X138285620Y-69864386D01*
X138168228Y-69871077D01*
X138015938Y-69875494D01*
X137839127Y-69877089D01*
X137649176Y-69877554D01*
X137487058Y-69874725D01*
X137365059Y-69861384D01*
X137274872Y-69830300D01*
X137208191Y-69774242D01*
X137156708Y-69685978D01*
X137112118Y-69558278D01*
X137066115Y-69383911D01*
X137010390Y-69155644D01*
X136967529Y-68982301D01*
X136926232Y-68817239D01*
X136891933Y-68682202D01*
X136867334Y-68587822D01*
X136855136Y-68544729D01*
X136860153Y-68521408D01*
X136907150Y-68510857D01*
X137006908Y-68512860D01*
X137173942Y-68522635D01*
X137300579Y-69040514D01*
X137427216Y-69558394D01*
X137995148Y-69558394D01*
X137975132Y-69470753D01*
X137959211Y-69402714D01*
X137931004Y-69285103D01*
X137896374Y-69142545D01*
X137858885Y-68989523D01*
X137822101Y-68840522D01*
X137789586Y-68710024D01*
X137764904Y-68612513D01*
X137751620Y-68562472D01*
X137751896Y-68533509D01*
X137788726Y-68508091D01*
X137855508Y-68507902D01*
X137935143Y-68531858D01*
G37*
G36*
X133649198Y-70626022D02*
G01*
X133659059Y-70781321D01*
X133661282Y-70831576D01*
X133660130Y-70924199D01*
X133652101Y-70980505D01*
X133635637Y-70998872D01*
X133567564Y-71018234D01*
X133443305Y-71024391D01*
X133251328Y-71024391D01*
X133251328Y-70607046D01*
X133649198Y-70626022D01*
G37*
G36*
X132913790Y-72257000D02*
G01*
X133028521Y-72275642D01*
X133028521Y-72649736D01*
X132614737Y-72649736D01*
X132614737Y-72462503D01*
X132614738Y-72455855D01*
X132616799Y-72353590D01*
X132627848Y-72297483D01*
X132655382Y-72270802D01*
X132706898Y-72256814D01*
X132709006Y-72256403D01*
X132807232Y-72249259D01*
X132913790Y-72257000D01*
G37*
G36*
X139962098Y-69057692D02*
G01*
X139971014Y-69093882D01*
X140021446Y-69305742D01*
X140054647Y-69466685D01*
X140070622Y-69585809D01*
X140069371Y-69672211D01*
X140050899Y-69734990D01*
X140015206Y-69783244D01*
X139962295Y-69826069D01*
X139949241Y-69834125D01*
X139853197Y-69865428D01*
X139725543Y-69877089D01*
X139645394Y-69875851D01*
X139585749Y-69865432D01*
X139557245Y-69835940D01*
X139541648Y-69777497D01*
X139525077Y-69679719D01*
X139529165Y-69620507D01*
X139562867Y-69595446D01*
X139633158Y-69590263D01*
X139647795Y-69589973D01*
X139716586Y-69578907D01*
X139744561Y-69556773D01*
X139739724Y-69529344D01*
X139722134Y-69449914D01*
X139694699Y-69332422D01*
X139660615Y-69189981D01*
X139623076Y-69035703D01*
X139585279Y-68882701D01*
X139550417Y-68744087D01*
X139521686Y-68632973D01*
X139502281Y-68562472D01*
X139498628Y-68545444D01*
X139509609Y-68520703D01*
X139557575Y-68509397D01*
X139655806Y-68506700D01*
X139825977Y-68506700D01*
X139962098Y-69057692D01*
G37*
G36*
X141305669Y-69621795D02*
G01*
X141225034Y-69745559D01*
X141100018Y-69831789D01*
X141068844Y-69843579D01*
X140923996Y-69870833D01*
X140756137Y-69870720D01*
X140592778Y-69842652D01*
X140521983Y-69815810D01*
X140387459Y-69725022D01*
X140272226Y-69597860D01*
X140186175Y-69449493D01*
X140149275Y-69328224D01*
X140448834Y-69328224D01*
X140483176Y-69441029D01*
X140552850Y-69540221D01*
X140652796Y-69608709D01*
X140670044Y-69615822D01*
X140737935Y-69641502D01*
X140770043Y-69649662D01*
X140791409Y-69643931D01*
X140851423Y-69631408D01*
X140874840Y-69625044D01*
X140955061Y-69567063D01*
X141001869Y-69471590D01*
X141005002Y-69356965D01*
X140990904Y-69305347D01*
X140926555Y-69196069D01*
X140831645Y-69116752D01*
X140720825Y-69074211D01*
X140608744Y-69075263D01*
X140510054Y-69126721D01*
X140506392Y-69130134D01*
X140454885Y-69218895D01*
X140448834Y-69328224D01*
X140149275Y-69328224D01*
X140139194Y-69295093D01*
X140141172Y-69149830D01*
X140150826Y-69114255D01*
X140219062Y-68993816D01*
X140326618Y-68908455D01*
X140462918Y-68857430D01*
X140617389Y-68839997D01*
X140779456Y-68855413D01*
X140938547Y-68902935D01*
X141084086Y-68981820D01*
X141205500Y-69091325D01*
X141292216Y-69230708D01*
X141319137Y-69307518D01*
X141324887Y-69356965D01*
X141338259Y-69471960D01*
X141305669Y-69621795D01*
G37*
G36*
X139553584Y-71384800D02*
G01*
X139554072Y-71428475D01*
X139562439Y-71514339D01*
X139588385Y-71574349D01*
X139641126Y-71613519D01*
X139729877Y-71636863D01*
X139863852Y-71649394D01*
X140052266Y-71656126D01*
X140208499Y-71657785D01*
X140362148Y-71654313D01*
X140480032Y-71645840D01*
X140548258Y-71633013D01*
X140587383Y-71615600D01*
X140619531Y-71583818D01*
X140633038Y-71526088D01*
X140635789Y-71423549D01*
X140635789Y-71247478D01*
X141049574Y-71247478D01*
X141049574Y-71546336D01*
X141049469Y-71590276D01*
X141045415Y-71730703D01*
X141031157Y-71823698D01*
X141000837Y-71882260D01*
X140948599Y-71919387D01*
X140868589Y-71948079D01*
X140856436Y-71950948D01*
X140775628Y-71960109D01*
X140646732Y-71967237D01*
X140481940Y-71972319D01*
X140293447Y-71975344D01*
X140093445Y-71976299D01*
X139894126Y-71975172D01*
X139707683Y-71971950D01*
X139546310Y-71966622D01*
X139422200Y-71959176D01*
X139347544Y-71949599D01*
X139341369Y-71948146D01*
X139253079Y-71919246D01*
X139194674Y-71874764D01*
X139160257Y-71802738D01*
X139143931Y-71691208D01*
X139139799Y-71528212D01*
X139139799Y-71247478D01*
X139553584Y-71247478D01*
X139553584Y-71384800D01*
G37*
G36*
X142927519Y-71024391D02*
G01*
X142735542Y-71024391D01*
X142630289Y-71020708D01*
X142556710Y-71005655D01*
X142525245Y-70976587D01*
X142511541Y-70959349D01*
X142472316Y-70944261D01*
X142399158Y-70934900D01*
X142282170Y-70930122D01*
X142111460Y-70928783D01*
X141968524Y-70929641D01*
X141842166Y-70933683D01*
X141761501Y-70942093D01*
X141716636Y-70956013D01*
X141697676Y-70976587D01*
X141697642Y-70976674D01*
X141667699Y-71004835D01*
X141597606Y-71019915D01*
X141475868Y-71024391D01*
X141272381Y-71024391D01*
X141272381Y-70866851D01*
X141272387Y-70857077D01*
X141274358Y-70784149D01*
X141284649Y-70727207D01*
X141310176Y-70684271D01*
X141357858Y-70653366D01*
X141434611Y-70632513D01*
X141547354Y-70619736D01*
X141703003Y-70613058D01*
X141908476Y-70610501D01*
X142170691Y-70610088D01*
X142927519Y-70610088D01*
X142927519Y-71024391D01*
G37*
G36*
X132191701Y-70610103D02*
G01*
X132439769Y-70610894D01*
X132633218Y-70614254D01*
X132778841Y-70622055D01*
X132883428Y-70636166D01*
X132953771Y-70658459D01*
X132996661Y-70690803D01*
X133018888Y-70735070D01*
X133027245Y-70793129D01*
X133028521Y-70866851D01*
X133028521Y-71024391D01*
X131118747Y-71024391D01*
X131119234Y-70888946D01*
X131119469Y-70861471D01*
X131123786Y-70788510D01*
X131138675Y-70731226D01*
X131170771Y-70687724D01*
X131226709Y-70656110D01*
X131313125Y-70634492D01*
X131436656Y-70620974D01*
X131603936Y-70613664D01*
X131821602Y-70610666D01*
X132096289Y-70610088D01*
X132191701Y-70610103D01*
G37*
G36*
X142927519Y-71592731D02*
G01*
X142926322Y-71707951D01*
X142921886Y-71832033D01*
X142914940Y-71920475D01*
X142906299Y-71959230D01*
X142886268Y-71968136D01*
X142816134Y-71977647D01*
X142722370Y-71979743D01*
X142630008Y-71974284D01*
X142564082Y-71961132D01*
X142535006Y-71934167D01*
X142518527Y-71869170D01*
X142513734Y-71753980D01*
X142513734Y-71566173D01*
X142038353Y-71566173D01*
X141902227Y-71749423D01*
X141898361Y-71754619D01*
X141826911Y-71847936D01*
X141768016Y-71920178D01*
X141734091Y-71956087D01*
X141705547Y-71965603D01*
X141627698Y-71974962D01*
X141525782Y-71979263D01*
X141421665Y-71978315D01*
X141337210Y-71971929D01*
X141294283Y-71959914D01*
X141296127Y-71936405D01*
X141327091Y-71874274D01*
X141382212Y-71791405D01*
X141427762Y-71727142D01*
X141477467Y-71650652D01*
X141500890Y-71605597D01*
X141500651Y-71596771D01*
X141468064Y-71555731D01*
X141399699Y-71511183D01*
X141357995Y-71487773D01*
X141300016Y-71431424D01*
X141278322Y-71351054D01*
X141268347Y-71247478D01*
X142927519Y-71247478D01*
X142927519Y-71592731D01*
G37*
G36*
X130624381Y-72239004D02*
G01*
X130747740Y-72242620D01*
X130830335Y-72249325D01*
X130878907Y-72259395D01*
X130900197Y-72273108D01*
X130916879Y-72325055D01*
X130926229Y-72419382D01*
X130923673Y-72520857D01*
X130908449Y-72599326D01*
X130889182Y-72619706D01*
X130820579Y-72642892D01*
X130725434Y-72652849D01*
X130625919Y-72649437D01*
X130544209Y-72632512D01*
X130502474Y-72601932D01*
X130469550Y-72581092D01*
X130386391Y-72564205D01*
X130268915Y-72553859D01*
X130132369Y-72550073D01*
X129992002Y-72552867D01*
X129863063Y-72562260D01*
X129760798Y-72578270D01*
X129700457Y-72600919D01*
X129677242Y-72614177D01*
X129579660Y-72639243D01*
X129439737Y-72648723D01*
X129240802Y-72649736D01*
X129240802Y-72511263D01*
X129241059Y-72491546D01*
X129258348Y-72384214D01*
X129307735Y-72312079D01*
X129322711Y-72299834D01*
X129353312Y-72283127D01*
X129398147Y-72270391D01*
X129465453Y-72260909D01*
X129563467Y-72253968D01*
X129700426Y-72248853D01*
X129884570Y-72244848D01*
X130124134Y-72241238D01*
X130228409Y-72239932D01*
X130453518Y-72238200D01*
X130624381Y-72239004D01*
G37*
G36*
X128861282Y-68077968D02*
G01*
X128881808Y-68101204D01*
X128924786Y-68169083D01*
X128974938Y-68261967D01*
X129042080Y-68390522D01*
X129107289Y-68497142D01*
X129164456Y-68561774D01*
X129222172Y-68593726D01*
X129289029Y-68602309D01*
X129327906Y-68600372D01*
X129375557Y-68585796D01*
X129422902Y-68548190D01*
X129481586Y-68477404D01*
X129563256Y-68363287D01*
X129601031Y-68310917D01*
X129677698Y-68215195D01*
X129741511Y-68148992D01*
X129781547Y-68124266D01*
X129783702Y-68124321D01*
X129841673Y-68135466D01*
X129938426Y-68162219D01*
X130054213Y-68199157D01*
X130275263Y-68274049D01*
X130275263Y-68583406D01*
X130275265Y-68593934D01*
X130276451Y-68734326D01*
X130281925Y-68826197D01*
X130294762Y-68883876D01*
X130318040Y-68921694D01*
X130354837Y-68953979D01*
X130411929Y-68991224D01*
X130475855Y-69010131D01*
X130554301Y-69004419D01*
X130661437Y-68972855D01*
X130811433Y-68914204D01*
X131061137Y-68811281D01*
X131153155Y-68921914D01*
X131167020Y-68938765D01*
X131251057Y-69045772D01*
X131328886Y-69151139D01*
X131412599Y-69269731D01*
X131249758Y-69489667D01*
X131163627Y-69610141D01*
X131112700Y-69698182D01*
X131093314Y-69768883D01*
X131101082Y-69838309D01*
X131131621Y-69922524D01*
X131143356Y-69949452D01*
X131171889Y-69995553D01*
X131215123Y-70025190D01*
X131289167Y-70046830D01*
X131410130Y-70068945D01*
X131466585Y-70078585D01*
X131609444Y-70106094D01*
X131702638Y-70132433D01*
X131756461Y-70162693D01*
X131781207Y-70201961D01*
X131787168Y-70255325D01*
X131775733Y-70321982D01*
X131736820Y-70367657D01*
X131707717Y-70373978D01*
X131618726Y-70381584D01*
X131491227Y-70385906D01*
X131339814Y-70387143D01*
X131179075Y-70385494D01*
X131023603Y-70381158D01*
X130887990Y-70374332D01*
X130786824Y-70365217D01*
X130734699Y-70354010D01*
X130698148Y-70326817D01*
X130673108Y-70282304D01*
X130667446Y-70244925D01*
X130630175Y-70145754D01*
X130565745Y-70021277D01*
X130483166Y-69886775D01*
X130391447Y-69757530D01*
X130299599Y-69648821D01*
X130260132Y-69608486D01*
X130025905Y-69412671D01*
X129774531Y-69276480D01*
X129499189Y-69196966D01*
X129193057Y-69171186D01*
X129008612Y-69181523D01*
X128708771Y-69245532D01*
X128434467Y-69364923D01*
X128191493Y-69536110D01*
X127985644Y-69755505D01*
X127822712Y-70019523D01*
X127789862Y-70090681D01*
X127693038Y-70388230D01*
X127657646Y-70687646D01*
X127682650Y-70982587D01*
X127767016Y-71266715D01*
X127909709Y-71533690D01*
X128109693Y-71777172D01*
X128116977Y-71784465D01*
X128322925Y-71961321D01*
X128544716Y-72091170D01*
X128804505Y-72187079D01*
X128986165Y-72239956D01*
X128986165Y-73318996D01*
X128878659Y-73318996D01*
X128833194Y-73317144D01*
X128772303Y-73299785D01*
X128730608Y-73254357D01*
X128699561Y-73169079D01*
X128670619Y-73032171D01*
X128660879Y-72979671D01*
X128635493Y-72853702D01*
X128612120Y-72772722D01*
X128584012Y-72723271D01*
X128544422Y-72691893D01*
X128486603Y-72665130D01*
X128413028Y-72637288D01*
X128336158Y-72623735D01*
X128263636Y-72639515D01*
X128178330Y-72689164D01*
X128063108Y-72777214D01*
X128039129Y-72796146D01*
X127942026Y-72867574D01*
X127863224Y-72917670D01*
X127817911Y-72936562D01*
X127805694Y-72934487D01*
X127744091Y-72904348D01*
X127659254Y-72847787D01*
X127566540Y-72776982D01*
X127481303Y-72704114D01*
X127418900Y-72641360D01*
X127394687Y-72600899D01*
X127395597Y-72592428D01*
X127412531Y-72529911D01*
X127446445Y-72430554D01*
X127491556Y-72311626D01*
X127588426Y-72067465D01*
X127506071Y-71942862D01*
X127423716Y-71818260D01*
X126808774Y-71837064D01*
X126721036Y-71613977D01*
X126715006Y-71598559D01*
X126673413Y-71487074D01*
X126643728Y-71398659D01*
X126632037Y-71351282D01*
X126638486Y-71336948D01*
X126684581Y-71286906D01*
X126765399Y-71216084D01*
X126869499Y-71134908D01*
X126940741Y-71081464D01*
X127028698Y-71010092D01*
X127079322Y-70956341D01*
X127102403Y-70908740D01*
X127107733Y-70855822D01*
X127107697Y-70850244D01*
X127103106Y-70780603D01*
X127083545Y-70728381D01*
X127038337Y-70682478D01*
X126956809Y-70631793D01*
X126828283Y-70565223D01*
X126797239Y-70549284D01*
X126691626Y-70489681D01*
X126613637Y-70437352D01*
X126578313Y-70402115D01*
X126576726Y-70395593D01*
X126578587Y-70333239D01*
X126593723Y-70231764D01*
X126619529Y-70109644D01*
X126639521Y-70028999D01*
X126672075Y-69929887D01*
X126714854Y-69868438D01*
X126781216Y-69835298D01*
X126884520Y-69821112D01*
X127038124Y-69816527D01*
X127113572Y-69814207D01*
X127203139Y-69803046D01*
X127263614Y-69776917D01*
X127316632Y-69729023D01*
X127325058Y-69719675D01*
X127374500Y-69652609D01*
X127394687Y-69602675D01*
X127392145Y-69590651D01*
X127365225Y-69528768D01*
X127315159Y-69434049D01*
X127249741Y-69321611D01*
X127186464Y-69215336D01*
X127143226Y-69125092D01*
X127134508Y-69054198D01*
X127163174Y-68986794D01*
X127232089Y-68907021D01*
X127344116Y-68799021D01*
X127521824Y-68630741D01*
X127795281Y-68779990D01*
X128068739Y-68929239D01*
X128153455Y-68866155D01*
X128186739Y-68838296D01*
X128216212Y-68797747D01*
X128236225Y-68737326D01*
X128251228Y-68642451D01*
X128265674Y-68498539D01*
X128293178Y-68194007D01*
X128561927Y-68126518D01*
X128612686Y-68114241D01*
X128730153Y-68089690D01*
X128818379Y-68076730D01*
X128861282Y-68077968D01*
G37*
G36*
X133028521Y-71546336D02*
G01*
X133028416Y-71590484D01*
X133024368Y-71730767D01*
X133010120Y-71823668D01*
X132979809Y-71882215D01*
X132927569Y-71919433D01*
X132847536Y-71948349D01*
X132807947Y-71954192D01*
X132708565Y-71960525D01*
X132562986Y-71965511D01*
X132380936Y-71968915D01*
X132172138Y-71970502D01*
X131946316Y-71970040D01*
X131134661Y-71964542D01*
X131125030Y-71814869D01*
X131115398Y-71665196D01*
X131834443Y-71655521D01*
X132054270Y-71652573D01*
X132245854Y-71648625D01*
X132387862Y-71641627D01*
X132487714Y-71629137D01*
X132552826Y-71608714D01*
X132590618Y-71577917D01*
X132608507Y-71534302D01*
X132613911Y-71475430D01*
X132614249Y-71398858D01*
X132614737Y-71247478D01*
X133028521Y-71247478D01*
X133028521Y-71546336D01*
G37*
G36*
X136415011Y-72879389D02*
G01*
X136609348Y-72888758D01*
X136618588Y-73151377D01*
X136619919Y-73198980D01*
X136616091Y-73355314D01*
X136595034Y-73462705D01*
X136553416Y-73531921D01*
X136487907Y-73573730D01*
X136441835Y-73580961D01*
X136340041Y-73587938D01*
X136192493Y-73594010D01*
X136008351Y-73598877D01*
X135796777Y-73602241D01*
X135566930Y-73603802D01*
X134715489Y-73605822D01*
X134715489Y-73287127D01*
X135407782Y-73286639D01*
X135488104Y-73286406D01*
X135686830Y-73284250D01*
X135861431Y-73280144D01*
X136002023Y-73274451D01*
X136098723Y-73267532D01*
X136141648Y-73259750D01*
X136160520Y-73232488D01*
X136184897Y-73155343D01*
X136201948Y-73051685D01*
X136220674Y-72870021D01*
X136415011Y-72879389D01*
G37*
G36*
X133551041Y-71233145D02*
G01*
X133665113Y-71254572D01*
X133665113Y-71948607D01*
X133251328Y-71948607D01*
X133251328Y-71252542D01*
X133344148Y-71232130D01*
X133346293Y-71231670D01*
X133444770Y-71224017D01*
X133551041Y-71233145D01*
G37*
%LPC*%
D11*
X137160000Y-55880000D03*
D12*
X137160000Y-45720000D03*
D11*
X106680000Y-55880000D03*
D12*
X106680000Y-45720000D03*
D11*
X45720000Y-55880000D03*
D12*
X45720000Y-45720000D03*
D11*
X182880000Y-55880000D03*
D12*
X182880000Y-45720000D03*
D13*
X175260000Y-47200000D03*
D14*
X175260000Y-54400000D03*
D13*
X114300000Y-47200000D03*
D14*
X114300000Y-54400000D03*
D15*
X197485000Y-51670000D03*
X197485000Y-65170000D03*
D16*
X191485000Y-54820000D03*
X191485000Y-62020000D03*
D13*
X53340000Y-47200000D03*
D14*
X53340000Y-54400000D03*
D17*
X36400000Y-64262000D03*
D18*
X39800000Y-64262000D03*
D19*
X36400000Y-77978000D03*
D18*
X39800000Y-77978000D03*
D11*
X91440000Y-55880000D03*
D12*
X91440000Y-45720000D03*
D11*
X167640000Y-55880000D03*
D12*
X167640000Y-45720000D03*
D17*
X173560000Y-64262000D03*
D18*
X176960000Y-64262000D03*
X176960000Y-77978000D03*
D19*
X173560000Y-77978000D03*
D18*
X116000000Y-64262000D03*
D17*
X112600000Y-64262000D03*
D18*
X116000000Y-77978000D03*
D19*
X112600000Y-77978000D03*
D17*
X66880000Y-64262000D03*
D18*
X70280000Y-64262000D03*
D19*
X66880000Y-77978000D03*
D18*
X70280000Y-77978000D03*
D13*
X144780000Y-47200000D03*
D14*
X144780000Y-54400000D03*
D18*
X146480000Y-64262000D03*
D17*
X143080000Y-64262000D03*
D19*
X143080000Y-77978000D03*
D18*
X146480000Y-77978000D03*
D11*
X121920000Y-55880000D03*
D12*
X121920000Y-45720000D03*
D20*
X197910000Y-73660000D03*
D14*
X190710000Y-73660000D03*
D13*
X129540000Y-47200000D03*
D14*
X129540000Y-54400000D03*
D11*
X152400000Y-55880000D03*
D12*
X152400000Y-45720000D03*
D13*
X160020000Y-47200000D03*
D14*
X160020000Y-54400000D03*
D13*
X99060000Y-47200000D03*
D14*
X99060000Y-54400000D03*
D13*
X83820000Y-47200000D03*
D14*
X83820000Y-54400000D03*
D17*
X51640000Y-64262000D03*
D18*
X55040000Y-64262000D03*
D19*
X51640000Y-77978000D03*
D18*
X55040000Y-77978000D03*
X85520000Y-64262000D03*
D17*
X82120000Y-64262000D03*
D18*
X85520000Y-77978000D03*
D19*
X82120000Y-77978000D03*
D11*
X76200000Y-55880000D03*
D12*
X76200000Y-45720000D03*
D11*
X60960000Y-55880000D03*
D12*
X60960000Y-45720000D03*
D13*
X38100000Y-47200000D03*
D14*
X38100000Y-54400000D03*
D18*
X131240000Y-64262000D03*
D17*
X127840000Y-64262000D03*
D19*
X127840000Y-77978000D03*
D18*
X131240000Y-77978000D03*
X161720000Y-64262000D03*
D17*
X158320000Y-64262000D03*
D19*
X158320000Y-77978000D03*
D18*
X161720000Y-77978000D03*
D17*
X97360000Y-64262000D03*
D18*
X100760000Y-64262000D03*
D19*
X97360000Y-77978000D03*
D18*
X100760000Y-77978000D03*
D13*
X68580000Y-47200000D03*
D14*
X68580000Y-54400000D03*
M02*
