G04 #@! TF.GenerationSoftware,KiCad,Pcbnew,6.0.4-6f826c9f35~116~ubuntu18.04.1*
G04 #@! TF.CreationDate,2022-04-20T11:54:21+08:00*
G04 #@! TF.ProjectId,XT60_connectors,58543630-5f63-46f6-9e6e-6563746f7273,rev?*
G04 #@! TF.SameCoordinates,Original*
G04 #@! TF.FileFunction,Legend,Top*
G04 #@! TF.FilePolarity,Positive*
%FSLAX46Y46*%
G04 Gerber Fmt 4.6, Leading zero omitted, Abs format (unit mm)*
G04 Created by KiCad (PCBNEW 6.0.4-6f826c9f35~116~ubuntu18.04.1) date 2022-04-20 11:54:21*
%MOMM*%
%LPD*%
G01*
G04 APERTURE LIST*
G04 Aperture macros list*
%AMRoundRect*
0 Rectangle with rounded corners*
0 $1 Rounding radius*
0 $2 $3 $4 $5 $6 $7 $8 $9 X,Y pos of 4 corners*
0 Add a 4 corners polygon primitive as box body*
4,1,4,$2,$3,$4,$5,$6,$7,$8,$9,$2,$3,0*
0 Add four circle primitives for the rounded corners*
1,1,$1+$1,$2,$3*
1,1,$1+$1,$4,$5*
1,1,$1+$1,$6,$7*
1,1,$1+$1,$8,$9*
0 Add four rect primitives between the rounded corners*
20,1,$1+$1,$2,$3,$4,$5,0*
20,1,$1+$1,$4,$5,$6,$7,0*
20,1,$1+$1,$6,$7,$8,$9,0*
20,1,$1+$1,$8,$9,$2,$3,0*%
G04 Aperture macros list end*
%ADD10C,0.150000*%
%ADD11C,0.120000*%
%ADD12C,0.127000*%
%ADD13R,2.200000X2.200000*%
%ADD14O,2.200000X2.200000*%
%ADD15RoundRect,0.250000X0.450000X-0.325000X0.450000X0.325000X-0.450000X0.325000X-0.450000X-0.325000X0*%
%ADD16RoundRect,0.250000X-0.450000X0.350000X-0.450000X-0.350000X0.450000X-0.350000X0.450000X0.350000X0*%
%ADD17RoundRect,1.500000X-1.500000X1.500000X-1.500000X-1.500000X1.500000X-1.500000X1.500000X1.500000X0*%
%ADD18C,6.000000*%
%ADD19R,1.800000X1.200000*%
%ADD20C,4.500000*%
%ADD21C,3.048000*%
%ADD22C,3.051988*%
%ADD23C,3.068258*%
%ADD24RoundRect,0.250000X-0.325000X-0.450000X0.325000X-0.450000X0.325000X0.450000X-0.325000X0.450000X0*%
%ADD25RoundRect,0.250000X0.350000X0.450000X-0.350000X0.450000X-0.350000X-0.450000X0.350000X-0.450000X0*%
%ADD26RoundRect,1.500000X1.500000X1.500000X-1.500000X1.500000X-1.500000X-1.500000X1.500000X-1.500000X0*%
G04 APERTURE END LIST*
D10*
X191032142Y-66857619D02*
X191079761Y-66810000D01*
X191175000Y-66762380D01*
X191413095Y-66762380D01*
X191508333Y-66810000D01*
X191555952Y-66857619D01*
X191603571Y-66952857D01*
X191603571Y-67048095D01*
X191555952Y-67190952D01*
X190984523Y-67762380D01*
X191603571Y-67762380D01*
X192460714Y-67095714D02*
X192460714Y-67762380D01*
X192222619Y-66714761D02*
X191984523Y-67429047D01*
X192603571Y-67429047D01*
X192841666Y-66762380D02*
X193175000Y-67762380D01*
X193508333Y-66762380D01*
X194603571Y-67762380D02*
X194603571Y-67095714D01*
X194603571Y-66762380D02*
X194555952Y-66810000D01*
X194603571Y-66857619D01*
X194651190Y-66810000D01*
X194603571Y-66762380D01*
X194603571Y-66857619D01*
X195079761Y-67095714D02*
X195079761Y-67762380D01*
X195079761Y-67190952D02*
X195127380Y-67143333D01*
X195222619Y-67095714D01*
X195365476Y-67095714D01*
X195460714Y-67143333D01*
X195508333Y-67238571D01*
X195508333Y-67762380D01*
X186587142Y-78922619D02*
X186634761Y-78875000D01*
X186730000Y-78827380D01*
X186968095Y-78827380D01*
X187063333Y-78875000D01*
X187110952Y-78922619D01*
X187158571Y-79017857D01*
X187158571Y-79113095D01*
X187110952Y-79255952D01*
X186539523Y-79827380D01*
X187158571Y-79827380D01*
X188015714Y-79160714D02*
X188015714Y-79827380D01*
X187777619Y-78779761D02*
X187539523Y-79494047D01*
X188158571Y-79494047D01*
X188396666Y-78827380D02*
X188730000Y-79827380D01*
X189063333Y-78827380D01*
X190158571Y-79827380D02*
X190158571Y-79160714D01*
X190158571Y-78827380D02*
X190110952Y-78875000D01*
X190158571Y-78922619D01*
X190206190Y-78875000D01*
X190158571Y-78827380D01*
X190158571Y-78922619D01*
X190634761Y-79160714D02*
X190634761Y-79827380D01*
X190634761Y-79255952D02*
X190682380Y-79208333D01*
X190777619Y-79160714D01*
X190920476Y-79160714D01*
X191015714Y-79208333D01*
X191063333Y-79303571D01*
X191063333Y-79827380D01*
X135512380Y-56141904D02*
X134512380Y-56141904D01*
X135512380Y-55570476D02*
X134940952Y-55999047D01*
X134512380Y-55570476D02*
X135083809Y-56141904D01*
X105032380Y-56141904D02*
X104032380Y-56141904D01*
X105032380Y-55570476D02*
X104460952Y-55999047D01*
X104032380Y-55570476D02*
X104603809Y-56141904D01*
X181232380Y-56141904D02*
X180232380Y-56141904D01*
X181232380Y-55570476D02*
X180660952Y-55999047D01*
X180232380Y-55570476D02*
X180803809Y-56141904D01*
X89792380Y-56141904D02*
X88792380Y-56141904D01*
X89792380Y-55570476D02*
X89220952Y-55999047D01*
X88792380Y-55570476D02*
X89363809Y-56141904D01*
X165992380Y-56141904D02*
X164992380Y-56141904D01*
X165992380Y-55570476D02*
X165420952Y-55999047D01*
X164992380Y-55570476D02*
X165563809Y-56141904D01*
X120272380Y-56141904D02*
X119272380Y-56141904D01*
X120272380Y-55570476D02*
X119700952Y-55999047D01*
X119272380Y-55570476D02*
X119843809Y-56141904D01*
X150752380Y-56141904D02*
X149752380Y-56141904D01*
X150752380Y-55570476D02*
X150180952Y-55999047D01*
X149752380Y-55570476D02*
X150323809Y-56141904D01*
X74552380Y-56141904D02*
X73552380Y-56141904D01*
X74552380Y-55570476D02*
X73980952Y-55999047D01*
X73552380Y-55570476D02*
X74123809Y-56141904D01*
X59312380Y-56141904D02*
X58312380Y-56141904D01*
X59312380Y-55570476D02*
X58740952Y-55999047D01*
X58312380Y-55570476D02*
X58883809Y-56141904D01*
D11*
X135690000Y-52500000D02*
X138630000Y-52500000D01*
X138630000Y-53520000D02*
X138630000Y-48080000D01*
X135690000Y-53520000D02*
X138630000Y-53520000D01*
X135690000Y-52620000D02*
X138630000Y-52620000D01*
X135690000Y-52740000D02*
X138630000Y-52740000D01*
X135690000Y-48080000D02*
X135690000Y-53520000D01*
X137160000Y-54540000D02*
X137160000Y-53520000D01*
X137160000Y-47060000D02*
X137160000Y-48080000D01*
X138630000Y-48080000D02*
X135690000Y-48080000D01*
X108150000Y-48080000D02*
X105210000Y-48080000D01*
X105210000Y-52620000D02*
X108150000Y-52620000D01*
X105210000Y-53520000D02*
X108150000Y-53520000D01*
X105210000Y-52740000D02*
X108150000Y-52740000D01*
X105210000Y-52500000D02*
X108150000Y-52500000D01*
X106680000Y-47060000D02*
X106680000Y-48080000D01*
X105210000Y-48080000D02*
X105210000Y-53520000D01*
X108150000Y-53520000D02*
X108150000Y-48080000D01*
X106680000Y-54540000D02*
X106680000Y-53520000D01*
X44250000Y-53520000D02*
X47190000Y-53520000D01*
X45720000Y-47060000D02*
X45720000Y-48080000D01*
X44250000Y-52500000D02*
X47190000Y-52500000D01*
X44250000Y-52620000D02*
X47190000Y-52620000D01*
X47190000Y-48080000D02*
X44250000Y-48080000D01*
X44250000Y-48080000D02*
X44250000Y-53520000D01*
X47190000Y-53520000D02*
X47190000Y-48080000D01*
X44250000Y-52740000D02*
X47190000Y-52740000D01*
X45720000Y-54540000D02*
X45720000Y-53520000D01*
X181410000Y-48080000D02*
X181410000Y-53520000D01*
X182880000Y-54540000D02*
X182880000Y-53520000D01*
X184350000Y-53520000D02*
X184350000Y-48080000D01*
X181410000Y-52620000D02*
X184350000Y-52620000D01*
X181410000Y-52740000D02*
X184350000Y-52740000D01*
X182880000Y-47060000D02*
X182880000Y-48080000D01*
X181410000Y-53520000D02*
X184350000Y-53520000D01*
X184350000Y-48080000D02*
X181410000Y-48080000D01*
X181410000Y-52500000D02*
X184350000Y-52500000D01*
X122880000Y-72345000D02*
X122880000Y-69485000D01*
X120960000Y-72345000D02*
X122880000Y-72345000D01*
X120960000Y-69485000D02*
X120960000Y-72345000D01*
X61695000Y-65812936D02*
X61695000Y-66267064D01*
X60225000Y-65812936D02*
X60225000Y-66267064D01*
X179410000Y-58650000D02*
X179410000Y-45800000D01*
X171110000Y-58650000D02*
X179410000Y-58650000D01*
X176860000Y-42950000D02*
X173710000Y-42950000D01*
X179410000Y-45800000D02*
X176860000Y-42950000D01*
X173710000Y-42950000D02*
X171110000Y-45800000D01*
X171110000Y-45800000D02*
X171110000Y-58650000D01*
X112750000Y-42950000D02*
X110150000Y-45800000D01*
X110150000Y-58650000D02*
X118450000Y-58650000D01*
X110150000Y-45800000D02*
X110150000Y-58650000D01*
X115900000Y-42950000D02*
X112750000Y-42950000D01*
X118450000Y-45800000D02*
X115900000Y-42950000D01*
X118450000Y-58650000D02*
X118450000Y-45800000D01*
X208085000Y-50420000D02*
X207885000Y-50420000D01*
X188885000Y-58420000D02*
X188885000Y-50620000D01*
X207885000Y-50420000D02*
X206885000Y-50420000D01*
X188985000Y-67320000D02*
X189985000Y-67320000D01*
X208085000Y-50420000D02*
X208085000Y-50620000D01*
X188885000Y-66220000D02*
X188885000Y-58420000D01*
X189485000Y-66820000D02*
X189485000Y-67820000D01*
X206885000Y-66420000D02*
X206085000Y-66420000D01*
X207885000Y-66420000D02*
X206885000Y-66420000D01*
X208085000Y-66220000D02*
X208085000Y-66420000D01*
X206885000Y-50420000D02*
X206085000Y-50420000D01*
X206085000Y-66420000D02*
X188885000Y-66420000D01*
X188885000Y-50420000D02*
X188885000Y-50620000D01*
X208085000Y-66420000D02*
X207885000Y-66420000D01*
X188885000Y-50420000D02*
X206085000Y-50420000D01*
X188885000Y-66220000D02*
X188885000Y-66420000D01*
X208085000Y-50620000D02*
X208085000Y-66220000D01*
X188985000Y-49420000D02*
X189985000Y-49420000D01*
X57490000Y-45800000D02*
X54940000Y-42950000D01*
X57490000Y-58650000D02*
X57490000Y-45800000D01*
X49190000Y-58650000D02*
X57490000Y-58650000D01*
X54940000Y-42950000D02*
X51790000Y-42950000D01*
X49190000Y-45800000D02*
X49190000Y-58650000D01*
X51790000Y-42950000D02*
X49190000Y-45800000D01*
D12*
X41465000Y-61215000D02*
X34735000Y-61215000D01*
X34735000Y-81025000D02*
X41465000Y-81025000D01*
X34735000Y-61215000D02*
X34735000Y-81025000D01*
X41465000Y-81025000D02*
X41465000Y-61215000D01*
D11*
X184195000Y-58095000D02*
X184195000Y-60015000D01*
X187055000Y-58095000D02*
X184195000Y-58095000D01*
X184195000Y-60015000D02*
X187055000Y-60015000D01*
X183840000Y-72345000D02*
X183840000Y-69485000D01*
X181920000Y-69485000D02*
X181920000Y-72345000D01*
X181920000Y-72345000D02*
X183840000Y-72345000D01*
X91440000Y-47060000D02*
X91440000Y-48080000D01*
X89970000Y-48080000D02*
X89970000Y-53520000D01*
X89970000Y-52740000D02*
X92910000Y-52740000D01*
X89970000Y-52500000D02*
X92910000Y-52500000D01*
X91440000Y-54540000D02*
X91440000Y-53520000D01*
X92910000Y-48080000D02*
X89970000Y-48080000D01*
X89970000Y-52620000D02*
X92910000Y-52620000D01*
X89970000Y-53520000D02*
X92910000Y-53520000D01*
X92910000Y-53520000D02*
X92910000Y-48080000D01*
X167640000Y-47060000D02*
X167640000Y-48080000D01*
X169110000Y-48080000D02*
X166170000Y-48080000D01*
X166170000Y-52500000D02*
X169110000Y-52500000D01*
X169110000Y-53520000D02*
X169110000Y-48080000D01*
X166170000Y-52620000D02*
X169110000Y-52620000D01*
X166170000Y-53520000D02*
X169110000Y-53520000D01*
X166170000Y-48080000D02*
X166170000Y-53520000D01*
X166170000Y-52740000D02*
X169110000Y-52740000D01*
X167640000Y-54540000D02*
X167640000Y-53520000D01*
X186282064Y-62330000D02*
X185827936Y-62330000D01*
X186282064Y-60860000D02*
X185827936Y-60860000D01*
X153135000Y-65812936D02*
X153135000Y-66267064D01*
X151665000Y-65812936D02*
X151665000Y-66267064D01*
X122655000Y-65812936D02*
X122655000Y-66267064D01*
X121185000Y-65812936D02*
X121185000Y-66267064D01*
D12*
X171895000Y-61215000D02*
X171895000Y-81025000D01*
X178625000Y-61215000D02*
X171895000Y-61215000D01*
X171895000Y-81025000D02*
X178625000Y-81025000D01*
X178625000Y-81025000D02*
X178625000Y-61215000D01*
D11*
X136200000Y-69485000D02*
X136200000Y-72345000D01*
X138120000Y-72345000D02*
X138120000Y-69485000D01*
X136200000Y-72345000D02*
X138120000Y-72345000D01*
D12*
X117665000Y-61215000D02*
X110935000Y-61215000D01*
X110935000Y-61215000D02*
X110935000Y-81025000D01*
X110935000Y-81025000D02*
X117665000Y-81025000D01*
X117665000Y-81025000D02*
X117665000Y-61215000D01*
X65215000Y-81025000D02*
X71945000Y-81025000D01*
X71945000Y-61215000D02*
X65215000Y-61215000D01*
X71945000Y-81025000D02*
X71945000Y-61215000D01*
X65215000Y-61215000D02*
X65215000Y-81025000D01*
D11*
X143230000Y-42950000D02*
X140630000Y-45800000D01*
X140630000Y-45800000D02*
X140630000Y-58650000D01*
X148930000Y-58650000D02*
X148930000Y-45800000D01*
X148930000Y-45800000D02*
X146380000Y-42950000D01*
X140630000Y-58650000D02*
X148930000Y-58650000D01*
X146380000Y-42950000D02*
X143230000Y-42950000D01*
X107415000Y-65812936D02*
X107415000Y-66267064D01*
X105945000Y-65812936D02*
X105945000Y-66267064D01*
X166680000Y-69485000D02*
X166680000Y-72345000D01*
X166680000Y-72345000D02*
X168600000Y-72345000D01*
X168600000Y-72345000D02*
X168600000Y-69485000D01*
X92175000Y-65812936D02*
X92175000Y-66267064D01*
X90705000Y-65812936D02*
X90705000Y-66267064D01*
D12*
X148145000Y-81025000D02*
X148145000Y-61215000D01*
X141415000Y-81025000D02*
X148145000Y-81025000D01*
X148145000Y-61215000D02*
X141415000Y-61215000D01*
X141415000Y-61215000D02*
X141415000Y-81025000D01*
D11*
X120450000Y-48080000D02*
X120450000Y-53520000D01*
X120450000Y-52620000D02*
X123390000Y-52620000D01*
X120450000Y-53520000D02*
X123390000Y-53520000D01*
X121920000Y-54540000D02*
X121920000Y-53520000D01*
X120450000Y-52740000D02*
X123390000Y-52740000D01*
X121920000Y-47060000D02*
X121920000Y-48080000D01*
X120450000Y-52500000D02*
X123390000Y-52500000D01*
X123390000Y-53520000D02*
X123390000Y-48080000D01*
X123390000Y-48080000D02*
X120450000Y-48080000D01*
X202160000Y-72110000D02*
X199310000Y-69510000D01*
X186460000Y-69510000D02*
X186460000Y-77810000D01*
X199310000Y-77810000D02*
X202160000Y-75260000D01*
X202160000Y-75260000D02*
X202160000Y-72110000D01*
X199310000Y-69510000D02*
X186460000Y-69510000D01*
X186460000Y-77810000D02*
X199310000Y-77810000D01*
X76935000Y-65812936D02*
X76935000Y-66267064D01*
X75465000Y-65812936D02*
X75465000Y-66267064D01*
X133690000Y-45800000D02*
X131140000Y-42950000D01*
X131140000Y-42950000D02*
X127990000Y-42950000D01*
X125390000Y-58650000D02*
X133690000Y-58650000D01*
X133690000Y-58650000D02*
X133690000Y-45800000D01*
X125390000Y-45800000D02*
X125390000Y-58650000D01*
X127990000Y-42950000D02*
X125390000Y-45800000D01*
X152400000Y-54540000D02*
X152400000Y-53520000D01*
X150930000Y-52740000D02*
X153870000Y-52740000D01*
X150930000Y-53520000D02*
X153870000Y-53520000D01*
X152400000Y-47060000D02*
X152400000Y-48080000D01*
X153870000Y-48080000D02*
X150930000Y-48080000D01*
X150930000Y-52620000D02*
X153870000Y-52620000D01*
X150930000Y-48080000D02*
X150930000Y-53520000D01*
X150930000Y-52500000D02*
X153870000Y-52500000D01*
X153870000Y-53520000D02*
X153870000Y-48080000D01*
X158470000Y-42950000D02*
X155870000Y-45800000D01*
X155870000Y-58650000D02*
X164170000Y-58650000D01*
X155870000Y-45800000D02*
X155870000Y-58650000D01*
X164170000Y-58650000D02*
X164170000Y-45800000D01*
X164170000Y-45800000D02*
X161620000Y-42950000D01*
X161620000Y-42950000D02*
X158470000Y-42950000D01*
X77160000Y-72345000D02*
X77160000Y-69485000D01*
X75240000Y-72345000D02*
X77160000Y-72345000D01*
X75240000Y-69485000D02*
X75240000Y-72345000D01*
X137895000Y-65812936D02*
X137895000Y-66267064D01*
X136425000Y-65812936D02*
X136425000Y-66267064D01*
X103210000Y-45800000D02*
X100660000Y-42950000D01*
X103210000Y-58650000D02*
X103210000Y-45800000D01*
X94910000Y-58650000D02*
X103210000Y-58650000D01*
X94910000Y-45800000D02*
X94910000Y-58650000D01*
X97510000Y-42950000D02*
X94910000Y-45800000D01*
X100660000Y-42950000D02*
X97510000Y-42950000D01*
X82270000Y-42950000D02*
X79670000Y-45800000D01*
X87970000Y-45800000D02*
X85420000Y-42950000D01*
X87970000Y-58650000D02*
X87970000Y-45800000D01*
X79670000Y-58650000D02*
X87970000Y-58650000D01*
X79670000Y-45800000D02*
X79670000Y-58650000D01*
X85420000Y-42950000D02*
X82270000Y-42950000D01*
X90480000Y-69485000D02*
X90480000Y-72345000D01*
X92400000Y-72345000D02*
X92400000Y-69485000D01*
X90480000Y-72345000D02*
X92400000Y-72345000D01*
D12*
X49975000Y-61215000D02*
X49975000Y-81025000D01*
X56705000Y-81025000D02*
X56705000Y-61215000D01*
X49975000Y-81025000D02*
X56705000Y-81025000D01*
X56705000Y-61215000D02*
X49975000Y-61215000D01*
D11*
X60000000Y-69485000D02*
X60000000Y-72345000D01*
X61920000Y-72345000D02*
X61920000Y-69485000D01*
X60000000Y-72345000D02*
X61920000Y-72345000D01*
D12*
X80455000Y-61215000D02*
X80455000Y-81025000D01*
X80455000Y-81025000D02*
X87185000Y-81025000D01*
X87185000Y-61215000D02*
X80455000Y-61215000D01*
X87185000Y-81025000D02*
X87185000Y-61215000D01*
D11*
X77670000Y-53520000D02*
X77670000Y-48080000D01*
X74730000Y-48080000D02*
X74730000Y-53520000D01*
X77670000Y-48080000D02*
X74730000Y-48080000D01*
X74730000Y-52740000D02*
X77670000Y-52740000D01*
X74730000Y-52500000D02*
X77670000Y-52500000D01*
X74730000Y-52620000D02*
X77670000Y-52620000D01*
X76200000Y-54540000D02*
X76200000Y-53520000D01*
X74730000Y-53520000D02*
X77670000Y-53520000D01*
X76200000Y-47060000D02*
X76200000Y-48080000D01*
X59490000Y-52500000D02*
X62430000Y-52500000D01*
X60960000Y-47060000D02*
X60960000Y-48080000D01*
X59490000Y-52620000D02*
X62430000Y-52620000D01*
X62430000Y-53520000D02*
X62430000Y-48080000D01*
X59490000Y-48080000D02*
X59490000Y-53520000D01*
X60960000Y-54540000D02*
X60960000Y-53520000D01*
X59490000Y-52740000D02*
X62430000Y-52740000D01*
X62430000Y-48080000D02*
X59490000Y-48080000D01*
X59490000Y-53520000D02*
X62430000Y-53520000D01*
X46455000Y-65812936D02*
X46455000Y-66267064D01*
X44985000Y-65812936D02*
X44985000Y-66267064D01*
X183615000Y-65812936D02*
X183615000Y-66267064D01*
X182145000Y-65812936D02*
X182145000Y-66267064D01*
X107640000Y-72345000D02*
X107640000Y-69485000D01*
X105720000Y-69485000D02*
X105720000Y-72345000D01*
X105720000Y-72345000D02*
X107640000Y-72345000D01*
G36*
X195680263Y-48888331D02*
G01*
X195681808Y-48986582D01*
X195692416Y-49057393D01*
X195721042Y-49105259D01*
X195776646Y-49134672D01*
X195868185Y-49150125D01*
X196004615Y-49156112D01*
X196194896Y-49157126D01*
X196216120Y-49157127D01*
X196430894Y-49154778D01*
X196585288Y-49147575D01*
X196682413Y-49135285D01*
X196724273Y-49118883D01*
X196745996Y-49066953D01*
X196759832Y-48975881D01*
X196762469Y-48911731D01*
X196762469Y-48742823D01*
X197176253Y-48742823D01*
X197176253Y-49378576D01*
X197082345Y-49427199D01*
X197041051Y-49443015D01*
X196980721Y-49455142D01*
X196893511Y-49464018D01*
X196771574Y-49470080D01*
X196607066Y-49473766D01*
X196392142Y-49475516D01*
X196211324Y-49475822D01*
X195968157Y-49475564D01*
X195780370Y-49474365D01*
X195639684Y-49471592D01*
X195537821Y-49466609D01*
X195466504Y-49458781D01*
X195417452Y-49447473D01*
X195382388Y-49432049D01*
X195353034Y-49411874D01*
X195350345Y-49409770D01*
X195311147Y-49375240D01*
X195286550Y-49336803D01*
X195273166Y-49279647D01*
X195267606Y-49188963D01*
X195266480Y-49049939D01*
X195266479Y-49043270D01*
X195266479Y-48742823D01*
X195680263Y-48742823D01*
X195680263Y-48888331D01*
G37*
G36*
X191638395Y-47268858D02*
G01*
X191640498Y-47362773D01*
X191652403Y-47429302D01*
X191683558Y-47473443D01*
X191743413Y-47500191D01*
X191841417Y-47514544D01*
X191987017Y-47521497D01*
X192122086Y-47524633D01*
X192327342Y-47527056D01*
X192477809Y-47522162D01*
X192582248Y-47506391D01*
X192649419Y-47476179D01*
X192688081Y-47427965D01*
X192706995Y-47358186D01*
X192713819Y-47284018D01*
X192723440Y-47117478D01*
X193133897Y-47117478D01*
X193133897Y-47419504D01*
X193133807Y-47539846D01*
X193128953Y-47634307D01*
X193112459Y-47706086D01*
X193077450Y-47758380D01*
X193017049Y-47794390D01*
X192924381Y-47817313D01*
X192792571Y-47830349D01*
X192614742Y-47836696D01*
X192384018Y-47839554D01*
X192228257Y-47840829D01*
X192013275Y-47841450D01*
X191815221Y-47839725D01*
X191644473Y-47835927D01*
X191511408Y-47830329D01*
X191426404Y-47823205D01*
X191405108Y-47819138D01*
X191325011Y-47789568D01*
X191272763Y-47752085D01*
X191242476Y-47693582D01*
X191228261Y-47600955D01*
X191224230Y-47461096D01*
X191224123Y-47416336D01*
X191224123Y-47117478D01*
X191637907Y-47117478D01*
X191638395Y-47268858D01*
G37*
G36*
X193775660Y-46485862D02*
G01*
X193900123Y-46487347D01*
X194518484Y-46496022D01*
X194518484Y-46878457D01*
X193893509Y-46887085D01*
X193676702Y-46889547D01*
X193515220Y-46889739D01*
X193400750Y-46887114D01*
X193324981Y-46881126D01*
X193279601Y-46871226D01*
X193256298Y-46856867D01*
X193248960Y-46844642D01*
X193233744Y-46766804D01*
X193230830Y-46665909D01*
X193239563Y-46571928D01*
X193256061Y-46519217D01*
X193280850Y-46504601D01*
X193338367Y-46494296D01*
X193435451Y-46487963D01*
X193578936Y-46485265D01*
X193775660Y-46485862D01*
G37*
G36*
X195680751Y-47268858D02*
G01*
X195681089Y-47345430D01*
X195686493Y-47404302D01*
X195704382Y-47447917D01*
X195742174Y-47478714D01*
X195807286Y-47499137D01*
X195907138Y-47511627D01*
X196049146Y-47518625D01*
X196240730Y-47522573D01*
X196460557Y-47525521D01*
X197179602Y-47535196D01*
X197169970Y-47684869D01*
X197160339Y-47834542D01*
X196348684Y-47840040D01*
X196122862Y-47840502D01*
X195914064Y-47838915D01*
X195732014Y-47835511D01*
X195586435Y-47830525D01*
X195487053Y-47824192D01*
X195447464Y-47818349D01*
X195367431Y-47789433D01*
X195315191Y-47752215D01*
X195284880Y-47693668D01*
X195270632Y-47600767D01*
X195266584Y-47460484D01*
X195266479Y-47416336D01*
X195266479Y-47117478D01*
X195680263Y-47117478D01*
X195680751Y-47268858D01*
G37*
G36*
X187002784Y-45100708D02*
G01*
X187089500Y-44961325D01*
X187210914Y-44851820D01*
X187356453Y-44772935D01*
X187515544Y-44725413D01*
X187677611Y-44709997D01*
X187832082Y-44727430D01*
X187968382Y-44778455D01*
X188075938Y-44863816D01*
X188144174Y-44984255D01*
X188153828Y-45019830D01*
X188155806Y-45165093D01*
X188108825Y-45319493D01*
X188022774Y-45467860D01*
X187907541Y-45595022D01*
X187773017Y-45685810D01*
X187702222Y-45712652D01*
X187538863Y-45740720D01*
X187371004Y-45740833D01*
X187226156Y-45713579D01*
X187194982Y-45701789D01*
X187069966Y-45615559D01*
X186989331Y-45491795D01*
X186956741Y-45341960D01*
X186970113Y-45226965D01*
X187289998Y-45226965D01*
X187293131Y-45341590D01*
X187339939Y-45437063D01*
X187420160Y-45495044D01*
X187443577Y-45501408D01*
X187503591Y-45513931D01*
X187524957Y-45519662D01*
X187557065Y-45511502D01*
X187624956Y-45485822D01*
X187642204Y-45478709D01*
X187742150Y-45410221D01*
X187811824Y-45311029D01*
X187846166Y-45198224D01*
X187840115Y-45088895D01*
X187788608Y-45000134D01*
X187784946Y-44996721D01*
X187686256Y-44945263D01*
X187574175Y-44944211D01*
X187463355Y-44986752D01*
X187368445Y-45066069D01*
X187304096Y-45175347D01*
X187289998Y-45226965D01*
X186970113Y-45226965D01*
X186975863Y-45177518D01*
X187002784Y-45100708D01*
G37*
G36*
X194948707Y-47101670D02*
G01*
X194950852Y-47102130D01*
X195043672Y-47122542D01*
X195043672Y-47818607D01*
X194629887Y-47818607D01*
X194629887Y-47124572D01*
X194743959Y-47103145D01*
X194850230Y-47094017D01*
X194948707Y-47101670D01*
G37*
G36*
X185675321Y-44761264D02*
G01*
X185712414Y-44629852D01*
X185740996Y-44540157D01*
X185754884Y-44507287D01*
X185797493Y-44456499D01*
X185858676Y-44420300D01*
X185948521Y-44396488D01*
X186077118Y-44382863D01*
X186254555Y-44377221D01*
X186353254Y-44376700D01*
X186522505Y-44377310D01*
X186640945Y-44380532D01*
X186721417Y-44388452D01*
X186776767Y-44403158D01*
X186819840Y-44426736D01*
X186861029Y-44459207D01*
X186921242Y-44525487D01*
X186952920Y-44606430D01*
X186957349Y-44714525D01*
X186935812Y-44862258D01*
X186913152Y-44965835D01*
X186879595Y-45088708D01*
X186838730Y-45177402D01*
X186780337Y-45237413D01*
X186694193Y-45274236D01*
X186570081Y-45293368D01*
X186397778Y-45300304D01*
X186289991Y-45300916D01*
X185879208Y-45300916D01*
X185846601Y-45422163D01*
X185818763Y-45532802D01*
X185795068Y-45638248D01*
X185793651Y-45645249D01*
X185778584Y-45703766D01*
X185751862Y-45734051D01*
X185695827Y-45745394D01*
X185600080Y-45747089D01*
X185500777Y-45744496D01*
X185451848Y-45733574D01*
X185440109Y-45709611D01*
X185444051Y-45691317D01*
X185456903Y-45642892D01*
X185481660Y-45543912D01*
X185515508Y-45405835D01*
X185555633Y-45240117D01*
X185588635Y-45102573D01*
X185618307Y-44982221D01*
X185949245Y-44982221D01*
X186260980Y-44982221D01*
X186406525Y-44980829D01*
X186500350Y-44975301D01*
X186554359Y-44963605D01*
X186580456Y-44943709D01*
X186587817Y-44926449D01*
X186606238Y-44852850D01*
X186622398Y-44783036D01*
X186641877Y-44695395D01*
X186014798Y-44695395D01*
X185982022Y-44838808D01*
X185949245Y-44982221D01*
X185618307Y-44982221D01*
X185632975Y-44922726D01*
X185675321Y-44761264D01*
G37*
G36*
X187659211Y-47293549D02*
G01*
X187661962Y-47396088D01*
X187675469Y-47453818D01*
X187707617Y-47485600D01*
X187746742Y-47503013D01*
X187814968Y-47515840D01*
X187932852Y-47524313D01*
X188086501Y-47527785D01*
X188242734Y-47526126D01*
X188431148Y-47519394D01*
X188565123Y-47506863D01*
X188653874Y-47483519D01*
X188706615Y-47444349D01*
X188732561Y-47384339D01*
X188740928Y-47298475D01*
X188741416Y-47254800D01*
X188741416Y-47117478D01*
X189155201Y-47117478D01*
X189155201Y-47398212D01*
X189151069Y-47561208D01*
X189134743Y-47672738D01*
X189100326Y-47744764D01*
X189041921Y-47789246D01*
X188953631Y-47818146D01*
X188947456Y-47819599D01*
X188872800Y-47829176D01*
X188748690Y-47836622D01*
X188587317Y-47841950D01*
X188400874Y-47845172D01*
X188201555Y-47846299D01*
X188001553Y-47845344D01*
X187813060Y-47842319D01*
X187648268Y-47837237D01*
X187519372Y-47830109D01*
X187438564Y-47820948D01*
X187426411Y-47818079D01*
X187346401Y-47789387D01*
X187294163Y-47752260D01*
X187263843Y-47693698D01*
X187249585Y-47600703D01*
X187245531Y-47460276D01*
X187245426Y-47416336D01*
X187245426Y-47117478D01*
X187659211Y-47117478D01*
X187659211Y-47293549D01*
G37*
G36*
X196473398Y-46480666D02*
G01*
X196691064Y-46483664D01*
X196858344Y-46490974D01*
X196981875Y-46504492D01*
X197068291Y-46526110D01*
X197124229Y-46557724D01*
X197156325Y-46601226D01*
X197171214Y-46658510D01*
X197175531Y-46731471D01*
X197175766Y-46758946D01*
X197176253Y-46894391D01*
X195266479Y-46894391D01*
X195266479Y-46736851D01*
X195267755Y-46663129D01*
X195276112Y-46605070D01*
X195298339Y-46560803D01*
X195341229Y-46528459D01*
X195411572Y-46506166D01*
X195516159Y-46492055D01*
X195661782Y-46484254D01*
X195855231Y-46480894D01*
X196103299Y-46480103D01*
X196198711Y-46480088D01*
X196473398Y-46480666D01*
G37*
G36*
X195043672Y-46894391D02*
G01*
X194851695Y-46894391D01*
X194727436Y-46888234D01*
X194659363Y-46868872D01*
X194642899Y-46850505D01*
X194634870Y-46794199D01*
X194633718Y-46701576D01*
X194635941Y-46651321D01*
X194645802Y-46496022D01*
X195043672Y-46477046D01*
X195043672Y-46894391D01*
G37*
G36*
X192467027Y-48108130D02*
G01*
X192725891Y-48111143D01*
X192960287Y-48114873D01*
X193139457Y-48119048D01*
X193271835Y-48124428D01*
X193365854Y-48131772D01*
X193429948Y-48141842D01*
X193472549Y-48155398D01*
X193502090Y-48173200D01*
X193512580Y-48182079D01*
X193561967Y-48254218D01*
X193579255Y-48361557D01*
X193579511Y-48381263D01*
X193579511Y-48519736D01*
X192645844Y-48519736D01*
X192408149Y-48519039D01*
X192191325Y-48517065D01*
X192003482Y-48513996D01*
X191852727Y-48510013D01*
X191747169Y-48505296D01*
X191694915Y-48500024D01*
X191690957Y-48498490D01*
X191669471Y-48439545D01*
X191672436Y-48351323D01*
X191696025Y-48261654D01*
X191731621Y-48202819D01*
X191768661Y-48171807D01*
X191815502Y-48147811D01*
X191879869Y-48130117D01*
X191969482Y-48118014D01*
X192092065Y-48110790D01*
X192255339Y-48107733D01*
X192467027Y-48108130D01*
G37*
G36*
X198477892Y-46480961D02*
G01*
X198671829Y-46484046D01*
X198816523Y-46492047D01*
X198919180Y-46507199D01*
X198987008Y-46531735D01*
X199027214Y-46567891D01*
X199047005Y-46617900D01*
X199053588Y-46683996D01*
X199054198Y-46736851D01*
X199054198Y-46894391D01*
X198835288Y-46894391D01*
X198697320Y-46888762D01*
X198612460Y-46870684D01*
X198576755Y-46846587D01*
X198542861Y-46824022D01*
X198478802Y-46809430D01*
X198373876Y-46801473D01*
X198217381Y-46798810D01*
X198194800Y-46798783D01*
X198031449Y-46800904D01*
X197920942Y-46808160D01*
X197852577Y-46821892D01*
X197815651Y-46843437D01*
X197812845Y-46846587D01*
X197758849Y-46877070D01*
X197655596Y-46892109D01*
X197568562Y-46894391D01*
X197363904Y-46894391D01*
X197373525Y-46727851D01*
X197379653Y-46653627D01*
X197393275Y-46596005D01*
X197421664Y-46552877D01*
X197472099Y-46522137D01*
X197551855Y-46501678D01*
X197668208Y-46489393D01*
X197828435Y-46483174D01*
X198039811Y-46480915D01*
X198227504Y-46480558D01*
X198477892Y-46480961D01*
G37*
G36*
X186386524Y-46480501D02*
G01*
X186591997Y-46483058D01*
X186747646Y-46489736D01*
X186860389Y-46502513D01*
X186937142Y-46523366D01*
X186984824Y-46554271D01*
X187010351Y-46597207D01*
X187020642Y-46654149D01*
X187022613Y-46727077D01*
X187022619Y-46736851D01*
X187022619Y-46894391D01*
X186819132Y-46894391D01*
X186697394Y-46889915D01*
X186627301Y-46874835D01*
X186597358Y-46846674D01*
X186597324Y-46846587D01*
X186578364Y-46826013D01*
X186533499Y-46812093D01*
X186452834Y-46803683D01*
X186326476Y-46799641D01*
X186183540Y-46798783D01*
X186012830Y-46800122D01*
X185895842Y-46804900D01*
X185822684Y-46814261D01*
X185783459Y-46829349D01*
X185769755Y-46846587D01*
X185738290Y-46875655D01*
X185664711Y-46890708D01*
X185559458Y-46894391D01*
X185367481Y-46894391D01*
X185367481Y-46480088D01*
X186124309Y-46480088D01*
X186386524Y-46480501D01*
G37*
G36*
X189943688Y-44697364D02*
G01*
X189991721Y-44707678D01*
X190004200Y-44732949D01*
X189998332Y-44767102D01*
X189985420Y-44821291D01*
X189960838Y-44925507D01*
X189927417Y-45067712D01*
X189887987Y-45235868D01*
X189858249Y-45362898D01*
X189812775Y-45555392D01*
X189777274Y-45696599D01*
X189747507Y-45797360D01*
X189719233Y-45868517D01*
X189688210Y-45920911D01*
X189650198Y-45965385D01*
X189605804Y-46008256D01*
X189527445Y-46076486D01*
X189462013Y-46112800D01*
X189382892Y-46127153D01*
X189281607Y-46129523D01*
X189174576Y-46127332D01*
X189118263Y-46118083D01*
X189099796Y-46097763D01*
X189102786Y-46073751D01*
X189124489Y-45996784D01*
X189138905Y-45946273D01*
X189182225Y-45886351D01*
X189234316Y-45874567D01*
X189340215Y-45860824D01*
X189400050Y-45822649D01*
X189409837Y-45791484D01*
X189389989Y-45763846D01*
X189324043Y-45749963D01*
X189237604Y-45747089D01*
X189131537Y-45742741D01*
X189063800Y-45723255D01*
X189009302Y-45678968D01*
X188982967Y-45649035D01*
X188930253Y-45573374D01*
X188902937Y-45508799D01*
X188901829Y-45497655D01*
X188909659Y-45446822D01*
X188929994Y-45348654D01*
X188959688Y-45217603D01*
X188993204Y-45077829D01*
X189083314Y-44711330D01*
X189246576Y-44701697D01*
X189338601Y-44699396D01*
X189397810Y-44703925D01*
X189409837Y-44709927D01*
X189402939Y-44746411D01*
X189384260Y-44831402D01*
X189356821Y-44951414D01*
X189330263Y-45064982D01*
X189297842Y-45204901D01*
X189271789Y-45322163D01*
X189255158Y-45402711D01*
X189250689Y-45431220D01*
X189278905Y-45449528D01*
X189349261Y-45459593D01*
X189376002Y-45460263D01*
X189501315Y-45460263D01*
X189676309Y-44695395D01*
X189846061Y-44695395D01*
X189943688Y-44697364D01*
G37*
G36*
X194056955Y-47464633D02*
G01*
X194055467Y-47622220D01*
X194050000Y-47727054D01*
X194039052Y-47790071D01*
X194021121Y-47822207D01*
X194006607Y-47831132D01*
X193929530Y-47844456D01*
X193823096Y-47845111D01*
X193720280Y-47833379D01*
X193698872Y-47828508D01*
X193674131Y-47814908D01*
X193657922Y-47782072D01*
X193648513Y-47718725D01*
X193644174Y-47613590D01*
X193643171Y-47465706D01*
X193643171Y-47117478D01*
X194056955Y-47117478D01*
X194056955Y-47464633D01*
G37*
G36*
X197383146Y-48758758D02*
G01*
X198139967Y-48750212D01*
X198896788Y-48741665D01*
X198975493Y-48820469D01*
X199019375Y-48873498D01*
X199043285Y-48934832D01*
X199052910Y-49025335D01*
X199054198Y-49109322D01*
X199050766Y-49229972D01*
X199036709Y-49307889D01*
X199006387Y-49363884D01*
X198976071Y-49397597D01*
X198897944Y-49475822D01*
X198147503Y-49475822D01*
X197899442Y-49475108D01*
X197708482Y-49472728D01*
X197568081Y-49468321D01*
X197471695Y-49461529D01*
X197412779Y-49451992D01*
X197384791Y-49439350D01*
X197380925Y-49433716D01*
X197374921Y-49385291D01*
X197371876Y-49289211D01*
X197372100Y-49161503D01*
X197373710Y-49087051D01*
X197785605Y-49087051D01*
X197795827Y-49123470D01*
X197839931Y-49140805D01*
X197946187Y-49150154D01*
X198115027Y-49151545D01*
X198189332Y-49150149D01*
X198352098Y-49144876D01*
X198460892Y-49137376D01*
X198525398Y-49126169D01*
X198555298Y-49109776D01*
X198560840Y-49093388D01*
X198550216Y-49071973D01*
X198511838Y-49056957D01*
X198435944Y-49046811D01*
X198312772Y-49040008D01*
X198197483Y-49036523D01*
X198013816Y-49035060D01*
X197887722Y-49042176D01*
X197813539Y-49059098D01*
X197785605Y-49087051D01*
X197373710Y-49087051D01*
X197373967Y-49075184D01*
X197383146Y-48758758D01*
G37*
G36*
X195585994Y-48126403D02*
G01*
X195588102Y-48126814D01*
X195639618Y-48140802D01*
X195667152Y-48167483D01*
X195678201Y-48223590D01*
X195680262Y-48325855D01*
X195680263Y-48332503D01*
X195680263Y-48519736D01*
X195266479Y-48519736D01*
X195266479Y-48145642D01*
X195381210Y-48127000D01*
X195487768Y-48119259D01*
X195585994Y-48126403D01*
G37*
G36*
X198073860Y-47088719D02*
G01*
X198220457Y-47090846D01*
X198472039Y-47094860D01*
X198667154Y-47100463D01*
X198812973Y-47110934D01*
X198916666Y-47129554D01*
X198985404Y-47159602D01*
X199026356Y-47204359D01*
X199046694Y-47267105D01*
X199053587Y-47351120D01*
X199054205Y-47459684D01*
X199054198Y-47472247D01*
X199053672Y-47575766D01*
X199047562Y-47657340D01*
X199029073Y-47719691D01*
X198991410Y-47765542D01*
X198927779Y-47797615D01*
X198831382Y-47818631D01*
X198695426Y-47831313D01*
X198513114Y-47838383D01*
X198277652Y-47842563D01*
X198124684Y-47844594D01*
X197367231Y-47854647D01*
X197367231Y-47536844D01*
X197953491Y-47526345D01*
X198140779Y-47521772D01*
X198305927Y-47515427D01*
X198438463Y-47507899D01*
X198527912Y-47499780D01*
X198563558Y-47491945D01*
X198576624Y-47467408D01*
X198556919Y-47448176D01*
X198498316Y-47433264D01*
X198394684Y-47421688D01*
X198239894Y-47412461D01*
X198027817Y-47404600D01*
X198018185Y-47404304D01*
X197809893Y-47396973D01*
X197656085Y-47387659D01*
X197547591Y-47373510D01*
X197475243Y-47351674D01*
X197429871Y-47319300D01*
X197402305Y-47273537D01*
X197383377Y-47211532D01*
X197382137Y-47206506D01*
X197375962Y-47168343D01*
X197382837Y-47138728D01*
X197409470Y-47116736D01*
X197462572Y-47101441D01*
X197548853Y-47091918D01*
X197675021Y-47087240D01*
X197847787Y-47086482D01*
X198073860Y-47088719D01*
G37*
G36*
X194200188Y-48758758D02*
G01*
X194209664Y-48957942D01*
X194219141Y-49157127D01*
X195075501Y-49157127D01*
X195075501Y-49475822D01*
X193802318Y-49475822D01*
X193802318Y-48739782D01*
X194200188Y-48758758D01*
G37*
G36*
X192450261Y-46480403D02*
G01*
X192664563Y-46482550D01*
X192828627Y-46488335D01*
X192949162Y-46499562D01*
X193032879Y-46518034D01*
X193086488Y-46545556D01*
X193116699Y-46583933D01*
X193130222Y-46634968D01*
X193133769Y-46700467D01*
X193133897Y-46736851D01*
X193133897Y-46894391D01*
X191224123Y-46894391D01*
X191224123Y-46736851D01*
X191225294Y-46663913D01*
X191233281Y-46606289D01*
X191254795Y-46562173D01*
X191296545Y-46529762D01*
X191365242Y-46507251D01*
X191467595Y-46492836D01*
X191610316Y-46484712D01*
X191800114Y-46481076D01*
X192043700Y-46480122D01*
X192179010Y-46480088D01*
X192450261Y-46480403D01*
G37*
G36*
X198066591Y-48109932D02*
G01*
X198170866Y-48111238D01*
X198410430Y-48114848D01*
X198594574Y-48118853D01*
X198731533Y-48123968D01*
X198829547Y-48130909D01*
X198896853Y-48140391D01*
X198941688Y-48153127D01*
X198972289Y-48169834D01*
X198987265Y-48182079D01*
X199036652Y-48254214D01*
X199053941Y-48361546D01*
X199054198Y-48381263D01*
X199054198Y-48519736D01*
X198855263Y-48518723D01*
X198715340Y-48509243D01*
X198617758Y-48484177D01*
X198594543Y-48470919D01*
X198534202Y-48448270D01*
X198431937Y-48432260D01*
X198302998Y-48422867D01*
X198162631Y-48420073D01*
X198026085Y-48423859D01*
X197908609Y-48434205D01*
X197825450Y-48451092D01*
X197792526Y-48471932D01*
X197750791Y-48502512D01*
X197669081Y-48519437D01*
X197569566Y-48522849D01*
X197474421Y-48512892D01*
X197405818Y-48489706D01*
X197386551Y-48469326D01*
X197371327Y-48390857D01*
X197368771Y-48289382D01*
X197378121Y-48195055D01*
X197394803Y-48143108D01*
X197416093Y-48129395D01*
X197464665Y-48119325D01*
X197547260Y-48112620D01*
X197670619Y-48109004D01*
X197841482Y-48108200D01*
X198066591Y-48109932D01*
G37*
G36*
X188737425Y-44379397D02*
G01*
X188785391Y-44390703D01*
X188796372Y-44415444D01*
X188792719Y-44432472D01*
X188773314Y-44502973D01*
X188744583Y-44614087D01*
X188709721Y-44752701D01*
X188671924Y-44905703D01*
X188634385Y-45059981D01*
X188600301Y-45202422D01*
X188572866Y-45319914D01*
X188555276Y-45399344D01*
X188550439Y-45426773D01*
X188578414Y-45448907D01*
X188647205Y-45459973D01*
X188661842Y-45460263D01*
X188732133Y-45465446D01*
X188765835Y-45490507D01*
X188769923Y-45549719D01*
X188753352Y-45647497D01*
X188737755Y-45705940D01*
X188709251Y-45735432D01*
X188649606Y-45745851D01*
X188569457Y-45747089D01*
X188441803Y-45735428D01*
X188345759Y-45704125D01*
X188332705Y-45696069D01*
X188279794Y-45653244D01*
X188244101Y-45604990D01*
X188225629Y-45542211D01*
X188224378Y-45455809D01*
X188240353Y-45336685D01*
X188273554Y-45175742D01*
X188323986Y-44963882D01*
X188332902Y-44927692D01*
X188469023Y-44376700D01*
X188639194Y-44376700D01*
X188737425Y-44379397D01*
G37*
G36*
X190506274Y-44378091D02*
G01*
X190543104Y-44403509D01*
X190543380Y-44432472D01*
X190530096Y-44482513D01*
X190505414Y-44580024D01*
X190472899Y-44710522D01*
X190436115Y-44859523D01*
X190398626Y-45012545D01*
X190363996Y-45155103D01*
X190335789Y-45272714D01*
X190319868Y-45340753D01*
X190299852Y-45428394D01*
X190867784Y-45428394D01*
X190994421Y-44910514D01*
X191121058Y-44392635D01*
X191288092Y-44382860D01*
X191387850Y-44380857D01*
X191434847Y-44391408D01*
X191439864Y-44414729D01*
X191427666Y-44457822D01*
X191403067Y-44552202D01*
X191368768Y-44687239D01*
X191327471Y-44852301D01*
X191284610Y-45025644D01*
X191228885Y-45253911D01*
X191182882Y-45428278D01*
X191138292Y-45555978D01*
X191086809Y-45644242D01*
X191020128Y-45700300D01*
X190929941Y-45731384D01*
X190807942Y-45744725D01*
X190645824Y-45747554D01*
X190455873Y-45747089D01*
X190279062Y-45745494D01*
X190126772Y-45741077D01*
X190009380Y-45734386D01*
X189937262Y-45725972D01*
X189919110Y-45718650D01*
X189926259Y-45680037D01*
X189946148Y-45589667D01*
X189976443Y-45457708D01*
X190014808Y-45294330D01*
X190058908Y-45109702D01*
X190059888Y-45105632D01*
X190111594Y-44894746D01*
X190152955Y-44737027D01*
X190187092Y-44623346D01*
X190217127Y-44544571D01*
X190246183Y-44491574D01*
X190277381Y-44455225D01*
X190284470Y-44448876D01*
X190359857Y-44401858D01*
X190439492Y-44377902D01*
X190506274Y-44378091D01*
G37*
G36*
X194088785Y-48126148D02*
G01*
X194142130Y-48140211D01*
X194170649Y-48166215D01*
X194182107Y-48220941D01*
X194184269Y-48321169D01*
X194184273Y-48332503D01*
X194184273Y-48519736D01*
X193802318Y-48519736D01*
X193802318Y-48332503D01*
X193804043Y-48227559D01*
X193814392Y-48169567D01*
X193841132Y-48141745D01*
X193892027Y-48127313D01*
X193897807Y-48126148D01*
X194003739Y-48118340D01*
X194088785Y-48126148D01*
G37*
G36*
X197081984Y-48126403D02*
G01*
X197084092Y-48126814D01*
X197135608Y-48140802D01*
X197163142Y-48167483D01*
X197174191Y-48223590D01*
X197176252Y-48325855D01*
X197176253Y-48332503D01*
X197176253Y-48519736D01*
X196762469Y-48519736D01*
X196762469Y-48145642D01*
X196877200Y-48127000D01*
X196983758Y-48119259D01*
X197081984Y-48126403D01*
G37*
G36*
X188452346Y-46480666D02*
G01*
X188670011Y-46483664D01*
X188837292Y-46490974D01*
X188960822Y-46504492D01*
X189047239Y-46526110D01*
X189103177Y-46557724D01*
X189135272Y-46601226D01*
X189150161Y-46658510D01*
X189154479Y-46731471D01*
X189154713Y-46758946D01*
X189155201Y-46894391D01*
X187245426Y-46894391D01*
X187245426Y-46736851D01*
X187246703Y-46663129D01*
X187255059Y-46605070D01*
X187277286Y-46560803D01*
X187320176Y-46528459D01*
X187390519Y-46506166D01*
X187495106Y-46492055D01*
X187640729Y-46484254D01*
X187834179Y-46480894D01*
X188082246Y-46480103D01*
X188177659Y-46480088D01*
X188452346Y-46480666D01*
G37*
G36*
X192093052Y-48921685D02*
G01*
X192110103Y-49025343D01*
X192134480Y-49102488D01*
X192153352Y-49129750D01*
X192196277Y-49137532D01*
X192292977Y-49144451D01*
X192433569Y-49150144D01*
X192608170Y-49154250D01*
X192806896Y-49156406D01*
X192887218Y-49156639D01*
X193579511Y-49157127D01*
X193579511Y-49475822D01*
X192728070Y-49473802D01*
X192498223Y-49472241D01*
X192286649Y-49468877D01*
X192102507Y-49464010D01*
X191954959Y-49457938D01*
X191853165Y-49450961D01*
X191807093Y-49443730D01*
X191741584Y-49401921D01*
X191699966Y-49332705D01*
X191678909Y-49225314D01*
X191675081Y-49068980D01*
X191676412Y-49021377D01*
X191685652Y-48758758D01*
X191879989Y-48749389D01*
X192074326Y-48740021D01*
X192093052Y-48921685D01*
G37*
G36*
X199564847Y-43959690D02*
G01*
X199682314Y-43984241D01*
X199733073Y-43996518D01*
X200001822Y-44064007D01*
X200029326Y-44368539D01*
X200043772Y-44512451D01*
X200058775Y-44607326D01*
X200078788Y-44667747D01*
X200108261Y-44708296D01*
X200141545Y-44736155D01*
X200226261Y-44799239D01*
X200499719Y-44649990D01*
X200773176Y-44500741D01*
X200950884Y-44669021D01*
X201062911Y-44777021D01*
X201131826Y-44856794D01*
X201160492Y-44924198D01*
X201151774Y-44995092D01*
X201108536Y-45085336D01*
X201045259Y-45191611D01*
X200979841Y-45304049D01*
X200929775Y-45398768D01*
X200902855Y-45460651D01*
X200900313Y-45472675D01*
X200920500Y-45522609D01*
X200969942Y-45589675D01*
X200978368Y-45599023D01*
X201031386Y-45646917D01*
X201091861Y-45673046D01*
X201181428Y-45684207D01*
X201256876Y-45686527D01*
X201410480Y-45691112D01*
X201513784Y-45705298D01*
X201580146Y-45738438D01*
X201622925Y-45799887D01*
X201655479Y-45898999D01*
X201675471Y-45979644D01*
X201701277Y-46101764D01*
X201716413Y-46203239D01*
X201718274Y-46265593D01*
X201716687Y-46272115D01*
X201681363Y-46307352D01*
X201603374Y-46359681D01*
X201497761Y-46419284D01*
X201466717Y-46435223D01*
X201338191Y-46501793D01*
X201256663Y-46552478D01*
X201211455Y-46598381D01*
X201191894Y-46650603D01*
X201187303Y-46720244D01*
X201187267Y-46725822D01*
X201192597Y-46778740D01*
X201215678Y-46826341D01*
X201266302Y-46880092D01*
X201354259Y-46951464D01*
X201425501Y-47004908D01*
X201529601Y-47086084D01*
X201610419Y-47156906D01*
X201656514Y-47206948D01*
X201662963Y-47221282D01*
X201651272Y-47268659D01*
X201621587Y-47357074D01*
X201579994Y-47468559D01*
X201573964Y-47483977D01*
X201486226Y-47707064D01*
X200871284Y-47688260D01*
X200788929Y-47812862D01*
X200706574Y-47937465D01*
X200803444Y-48181626D01*
X200848555Y-48300554D01*
X200882469Y-48399911D01*
X200899403Y-48462428D01*
X200900313Y-48470899D01*
X200876100Y-48511360D01*
X200813697Y-48574114D01*
X200728460Y-48646982D01*
X200635746Y-48717787D01*
X200550909Y-48774348D01*
X200489306Y-48804487D01*
X200477089Y-48806562D01*
X200431776Y-48787670D01*
X200352974Y-48737574D01*
X200255871Y-48666146D01*
X200231892Y-48647214D01*
X200116670Y-48559164D01*
X200031364Y-48509515D01*
X199958842Y-48493735D01*
X199881972Y-48507288D01*
X199808397Y-48535130D01*
X199750578Y-48561893D01*
X199710988Y-48593271D01*
X199682880Y-48642722D01*
X199659507Y-48723702D01*
X199634121Y-48849671D01*
X199624381Y-48902171D01*
X199595439Y-49039079D01*
X199564392Y-49124357D01*
X199522697Y-49169785D01*
X199461806Y-49187144D01*
X199416341Y-49188996D01*
X199308835Y-49188996D01*
X199308835Y-48109956D01*
X199490495Y-48057079D01*
X199750284Y-47961170D01*
X199972075Y-47831321D01*
X200178023Y-47654465D01*
X200185307Y-47647172D01*
X200385291Y-47403690D01*
X200527984Y-47136715D01*
X200612350Y-46852587D01*
X200637354Y-46557646D01*
X200601962Y-46258230D01*
X200505138Y-45960681D01*
X200472288Y-45889523D01*
X200309356Y-45625505D01*
X200103507Y-45406110D01*
X199860533Y-45234923D01*
X199586229Y-45115532D01*
X199286388Y-45051523D01*
X199101943Y-45041186D01*
X198795811Y-45066966D01*
X198520469Y-45146480D01*
X198269095Y-45282671D01*
X198034868Y-45478486D01*
X197995401Y-45518821D01*
X197903553Y-45627530D01*
X197811834Y-45756775D01*
X197729255Y-45891277D01*
X197664825Y-46015754D01*
X197627554Y-46114925D01*
X197621892Y-46152304D01*
X197596852Y-46196817D01*
X197560301Y-46224010D01*
X197508176Y-46235217D01*
X197407010Y-46244332D01*
X197271397Y-46251158D01*
X197115925Y-46255494D01*
X196955186Y-46257143D01*
X196803773Y-46255906D01*
X196676274Y-46251584D01*
X196587283Y-46243978D01*
X196558180Y-46237657D01*
X196519267Y-46191982D01*
X196507832Y-46125325D01*
X196513793Y-46071961D01*
X196538539Y-46032693D01*
X196592362Y-46002433D01*
X196685556Y-45976094D01*
X196828415Y-45948585D01*
X196884870Y-45938945D01*
X197005833Y-45916830D01*
X197079877Y-45895190D01*
X197123111Y-45865553D01*
X197151644Y-45819452D01*
X197163379Y-45792524D01*
X197193918Y-45708309D01*
X197201686Y-45638883D01*
X197182300Y-45568182D01*
X197131373Y-45480141D01*
X197045242Y-45359667D01*
X196882401Y-45139731D01*
X196966114Y-45021139D01*
X197043943Y-44915772D01*
X197127980Y-44808765D01*
X197141845Y-44791914D01*
X197233863Y-44681281D01*
X197483567Y-44784204D01*
X197633563Y-44842855D01*
X197740699Y-44874419D01*
X197819145Y-44880131D01*
X197883071Y-44861224D01*
X197940163Y-44823979D01*
X197976960Y-44791694D01*
X198000238Y-44753876D01*
X198013075Y-44696197D01*
X198018549Y-44604326D01*
X198019735Y-44463934D01*
X198019737Y-44453406D01*
X198019737Y-44144049D01*
X198240787Y-44069157D01*
X198356574Y-44032219D01*
X198453327Y-44005466D01*
X198511298Y-43994321D01*
X198513453Y-43994266D01*
X198553489Y-44018992D01*
X198617302Y-44085195D01*
X198693969Y-44180917D01*
X198731744Y-44233287D01*
X198813414Y-44347404D01*
X198872098Y-44418190D01*
X198919443Y-44455796D01*
X198967094Y-44470372D01*
X199005971Y-44472309D01*
X199072828Y-44463726D01*
X199130544Y-44431774D01*
X199187711Y-44367142D01*
X199252920Y-44260522D01*
X199320062Y-44131967D01*
X199370214Y-44039083D01*
X199413192Y-43971204D01*
X199433718Y-43947968D01*
X199476621Y-43946730D01*
X199564847Y-43959690D01*
G37*
G36*
X189362093Y-47101543D02*
G01*
X190114760Y-47101543D01*
X190375184Y-47101617D01*
X190578907Y-47103756D01*
X190732883Y-47110833D01*
X190844064Y-47125724D01*
X190919403Y-47151302D01*
X190965854Y-47190442D01*
X190990369Y-47246019D01*
X190999902Y-47320906D01*
X191001406Y-47417979D01*
X191001316Y-47468043D01*
X191001091Y-47575590D01*
X190995761Y-47659691D01*
X190978345Y-47723331D01*
X190941862Y-47769498D01*
X190879329Y-47801180D01*
X190783766Y-47821364D01*
X190648191Y-47833038D01*
X190465623Y-47839189D01*
X190229079Y-47842803D01*
X190122359Y-47844149D01*
X189878365Y-47846678D01*
X189691015Y-47846976D01*
X189553322Y-47844730D01*
X189458299Y-47839628D01*
X189398960Y-47831359D01*
X189368319Y-47819609D01*
X189360545Y-47810125D01*
X189354406Y-47761420D01*
X189351118Y-47664630D01*
X189350995Y-47535357D01*
X189352710Y-47446796D01*
X189759963Y-47446796D01*
X189774101Y-47500998D01*
X189781182Y-47510535D01*
X189824186Y-47522172D01*
X189913962Y-47529131D01*
X190033817Y-47531700D01*
X190167059Y-47530163D01*
X190296994Y-47524807D01*
X190406929Y-47515917D01*
X190480172Y-47503780D01*
X190495027Y-47498313D01*
X190541253Y-47463386D01*
X190531731Y-47437017D01*
X190464589Y-47418713D01*
X190337954Y-47407976D01*
X190149954Y-47404310D01*
X190140039Y-47404304D01*
X189971691Y-47405888D01*
X189858397Y-47411277D01*
X189791618Y-47421427D01*
X189762813Y-47437291D01*
X189759963Y-47446796D01*
X189352710Y-47446796D01*
X189352958Y-47434019D01*
X189362093Y-47101543D01*
G37*
G36*
X187016678Y-47221054D02*
G01*
X186994984Y-47301424D01*
X186937005Y-47357773D01*
X186895301Y-47381183D01*
X186826936Y-47425731D01*
X186794349Y-47466771D01*
X186794110Y-47475597D01*
X186817533Y-47520652D01*
X186867238Y-47597142D01*
X186912788Y-47661405D01*
X186967909Y-47744274D01*
X186998873Y-47806405D01*
X187000717Y-47829914D01*
X186957790Y-47841929D01*
X186873335Y-47848315D01*
X186769218Y-47849263D01*
X186667302Y-47844962D01*
X186589453Y-47835603D01*
X186560909Y-47826087D01*
X186526984Y-47790178D01*
X186468089Y-47717936D01*
X186396639Y-47624619D01*
X186392773Y-47619423D01*
X186256647Y-47436173D01*
X185781266Y-47436173D01*
X185781266Y-47623980D01*
X185776473Y-47739170D01*
X185759994Y-47804167D01*
X185730918Y-47831132D01*
X185664992Y-47844284D01*
X185572630Y-47849743D01*
X185478866Y-47847647D01*
X185408732Y-47838136D01*
X185388701Y-47829230D01*
X185380060Y-47790475D01*
X185373114Y-47702033D01*
X185368678Y-47577951D01*
X185367481Y-47462731D01*
X185367481Y-47117478D01*
X187026653Y-47117478D01*
X187016678Y-47221054D01*
G37*
G36*
X190365220Y-46480501D02*
G01*
X190570694Y-46483058D01*
X190726343Y-46489736D01*
X190839085Y-46502513D01*
X190915839Y-46523366D01*
X190963521Y-46554271D01*
X190989048Y-46597207D01*
X190999339Y-46654149D01*
X191001310Y-46727077D01*
X191001316Y-46736851D01*
X191001316Y-46894391D01*
X190797829Y-46894391D01*
X190676091Y-46889915D01*
X190605998Y-46874835D01*
X190576054Y-46846674D01*
X190576021Y-46846587D01*
X190557150Y-46826093D01*
X190512490Y-46812198D01*
X190432184Y-46803773D01*
X190306373Y-46799687D01*
X190158831Y-46798783D01*
X189990050Y-46799907D01*
X189875338Y-46804044D01*
X189805129Y-46812340D01*
X189769860Y-46825941D01*
X189759967Y-46845993D01*
X189759963Y-46846587D01*
X189746150Y-46873401D01*
X189696796Y-46888305D01*
X189600025Y-46894041D01*
X189553070Y-46894391D01*
X189346178Y-46894391D01*
X189346178Y-46480088D01*
X190103006Y-46480088D01*
X190365220Y-46480501D01*
G37*
X36550000Y-42950000D02*
X33950000Y-45800000D01*
X42250000Y-45800000D02*
X39700000Y-42950000D01*
X33950000Y-45800000D02*
X33950000Y-58650000D01*
X42250000Y-58650000D02*
X42250000Y-45800000D01*
X39700000Y-42950000D02*
X36550000Y-42950000D01*
X33950000Y-58650000D02*
X42250000Y-58650000D01*
D12*
X132905000Y-61215000D02*
X126175000Y-61215000D01*
X132905000Y-81025000D02*
X132905000Y-61215000D01*
X126175000Y-81025000D02*
X132905000Y-81025000D01*
X126175000Y-61215000D02*
X126175000Y-81025000D01*
D11*
X166905000Y-65812936D02*
X166905000Y-66267064D01*
X168375000Y-65812936D02*
X168375000Y-66267064D01*
D12*
X163385000Y-61215000D02*
X156655000Y-61215000D01*
X163385000Y-81025000D02*
X163385000Y-61215000D01*
X156655000Y-81025000D02*
X163385000Y-81025000D01*
X156655000Y-61215000D02*
X156655000Y-81025000D01*
D11*
X153360000Y-72345000D02*
X153360000Y-69485000D01*
X151440000Y-69485000D02*
X151440000Y-72345000D01*
X151440000Y-72345000D02*
X153360000Y-72345000D01*
D12*
X102425000Y-61215000D02*
X95695000Y-61215000D01*
X95695000Y-81025000D02*
X102425000Y-81025000D01*
X95695000Y-61215000D02*
X95695000Y-81025000D01*
X102425000Y-81025000D02*
X102425000Y-61215000D01*
D11*
X44760000Y-69485000D02*
X44760000Y-72345000D01*
X44760000Y-72345000D02*
X46680000Y-72345000D01*
X46680000Y-72345000D02*
X46680000Y-69485000D01*
X64430000Y-58650000D02*
X72730000Y-58650000D01*
X72730000Y-58650000D02*
X72730000Y-45800000D01*
X64430000Y-45800000D02*
X64430000Y-58650000D01*
X72730000Y-45800000D02*
X70180000Y-42950000D01*
X67030000Y-42950000D02*
X64430000Y-45800000D01*
X70180000Y-42950000D02*
X67030000Y-42950000D01*
%LPC*%
D13*
X137160000Y-55880000D03*
D14*
X137160000Y-45720000D03*
D13*
X106680000Y-55880000D03*
D14*
X106680000Y-45720000D03*
D13*
X45720000Y-55880000D03*
D14*
X45720000Y-45720000D03*
D13*
X182880000Y-55880000D03*
D14*
X182880000Y-45720000D03*
D15*
X121920000Y-71510000D03*
X121920000Y-69460000D03*
D16*
X60960000Y-65040000D03*
X60960000Y-67040000D03*
D17*
X175260000Y-47200000D03*
D18*
X175260000Y-54400000D03*
D17*
X114300000Y-47200000D03*
D18*
X114300000Y-54400000D03*
D19*
X197485000Y-51670000D03*
X197485000Y-65170000D03*
D20*
X191485000Y-54820000D03*
X191485000Y-62020000D03*
D17*
X53340000Y-47200000D03*
D18*
X53340000Y-54400000D03*
D21*
X36400000Y-64262000D03*
D22*
X39800000Y-64262000D03*
D23*
X36400000Y-77978000D03*
D22*
X39800000Y-77978000D03*
D24*
X185030000Y-59055000D03*
X187080000Y-59055000D03*
D15*
X182880000Y-71510000D03*
X182880000Y-69460000D03*
D13*
X91440000Y-55880000D03*
D14*
X91440000Y-45720000D03*
D13*
X167640000Y-55880000D03*
D14*
X167640000Y-45720000D03*
D25*
X187055000Y-61595000D03*
X185055000Y-61595000D03*
D16*
X152400000Y-65040000D03*
X152400000Y-67040000D03*
X121920000Y-65040000D03*
X121920000Y-67040000D03*
D21*
X173560000Y-64262000D03*
D22*
X176960000Y-64262000D03*
X176960000Y-77978000D03*
D23*
X173560000Y-77978000D03*
D15*
X137160000Y-71510000D03*
X137160000Y-69460000D03*
D22*
X116000000Y-64262000D03*
D21*
X112600000Y-64262000D03*
D22*
X116000000Y-77978000D03*
D23*
X112600000Y-77978000D03*
D21*
X66880000Y-64262000D03*
D22*
X70280000Y-64262000D03*
D23*
X66880000Y-77978000D03*
D22*
X70280000Y-77978000D03*
D17*
X144780000Y-47200000D03*
D18*
X144780000Y-54400000D03*
D16*
X106680000Y-65040000D03*
X106680000Y-67040000D03*
D15*
X167640000Y-71510000D03*
X167640000Y-69460000D03*
D16*
X91440000Y-65040000D03*
X91440000Y-67040000D03*
D22*
X146480000Y-64262000D03*
D21*
X143080000Y-64262000D03*
D23*
X143080000Y-77978000D03*
D22*
X146480000Y-77978000D03*
D13*
X121920000Y-55880000D03*
D14*
X121920000Y-45720000D03*
D26*
X197910000Y-73660000D03*
D18*
X190710000Y-73660000D03*
D16*
X76200000Y-65040000D03*
X76200000Y-67040000D03*
D17*
X129540000Y-47200000D03*
D18*
X129540000Y-54400000D03*
D13*
X152400000Y-55880000D03*
D14*
X152400000Y-45720000D03*
D17*
X160020000Y-47200000D03*
D18*
X160020000Y-54400000D03*
D15*
X76200000Y-71510000D03*
X76200000Y-69460000D03*
D16*
X137160000Y-65040000D03*
X137160000Y-67040000D03*
D17*
X99060000Y-47200000D03*
D18*
X99060000Y-54400000D03*
D17*
X83820000Y-47200000D03*
D18*
X83820000Y-54400000D03*
D15*
X91440000Y-71510000D03*
X91440000Y-69460000D03*
D21*
X51640000Y-64262000D03*
D22*
X55040000Y-64262000D03*
D23*
X51640000Y-77978000D03*
D22*
X55040000Y-77978000D03*
D15*
X60960000Y-71510000D03*
X60960000Y-69460000D03*
D22*
X85520000Y-64262000D03*
D21*
X82120000Y-64262000D03*
D22*
X85520000Y-77978000D03*
D23*
X82120000Y-77978000D03*
D13*
X76200000Y-55880000D03*
D14*
X76200000Y-45720000D03*
D13*
X60960000Y-55880000D03*
D14*
X60960000Y-45720000D03*
D16*
X45720000Y-65040000D03*
X45720000Y-67040000D03*
X182880000Y-65040000D03*
X182880000Y-67040000D03*
D15*
X106680000Y-71510000D03*
X106680000Y-69460000D03*
D17*
X38100000Y-47200000D03*
D18*
X38100000Y-54400000D03*
D22*
X131240000Y-64262000D03*
D21*
X127840000Y-64262000D03*
D23*
X127840000Y-77978000D03*
D22*
X131240000Y-77978000D03*
D16*
X167640000Y-65040000D03*
X167640000Y-67040000D03*
D22*
X161720000Y-64262000D03*
D21*
X158320000Y-64262000D03*
D23*
X158320000Y-77978000D03*
D22*
X161720000Y-77978000D03*
D15*
X152400000Y-71510000D03*
X152400000Y-69460000D03*
D21*
X97360000Y-64262000D03*
D22*
X100760000Y-64262000D03*
D23*
X97360000Y-77978000D03*
D22*
X100760000Y-77978000D03*
D15*
X45720000Y-71510000D03*
X45720000Y-69460000D03*
D17*
X68580000Y-47200000D03*
D18*
X68580000Y-54400000D03*
M02*
