G04 #@! TF.GenerationSoftware,KiCad,Pcbnew,6.0.4-6f826c9f35~116~ubuntu18.04.1*
G04 #@! TF.CreationDate,2022-05-10T11:21:29+08:00*
G04 #@! TF.ProjectId,XT60_connectors,58543630-5f63-46f6-9e6e-6563746f7273,rev?*
G04 #@! TF.SameCoordinates,Original*
G04 #@! TF.FileFunction,Soldermask,Bot*
G04 #@! TF.FilePolarity,Negative*
%FSLAX46Y46*%
G04 Gerber Fmt 4.6, Leading zero omitted, Abs format (unit mm)*
G04 Created by KiCad (PCBNEW 6.0.4-6f826c9f35~116~ubuntu18.04.1) date 2022-05-10 11:21:29*
%MOMM*%
%LPD*%
G01*
G04 APERTURE LIST*
G04 Aperture macros list*
%AMRoundRect*
0 Rectangle with rounded corners*
0 $1 Rounding radius*
0 $2 $3 $4 $5 $6 $7 $8 $9 X,Y pos of 4 corners*
0 Add a 4 corners polygon primitive as box body*
4,1,4,$2,$3,$4,$5,$6,$7,$8,$9,$2,$3,0*
0 Add four circle primitives for the rounded corners*
1,1,$1+$1,$2,$3*
1,1,$1+$1,$4,$5*
1,1,$1+$1,$6,$7*
1,1,$1+$1,$8,$9*
0 Add four rect primitives between the rounded corners*
20,1,$1+$1,$2,$3,$4,$5,0*
20,1,$1+$1,$4,$5,$6,$7,0*
20,1,$1+$1,$6,$7,$8,$9,0*
20,1,$1+$1,$8,$9,$2,$3,0*%
G04 Aperture macros list end*
%ADD10R,2.200000X2.200000*%
%ADD11O,2.200000X2.200000*%
%ADD12RoundRect,1.500000X-1.500000X1.500000X-1.500000X-1.500000X1.500000X-1.500000X1.500000X1.500000X0*%
%ADD13C,6.000000*%
%ADD14R,1.800000X1.200000*%
%ADD15C,4.500000*%
%ADD16C,3.048000*%
%ADD17C,3.051988*%
%ADD18C,3.068258*%
%ADD19RoundRect,1.500000X1.500000X1.500000X-1.500000X1.500000X-1.500000X-1.500000X1.500000X-1.500000X0*%
G04 APERTURE END LIST*
D10*
X137160000Y-55880000D03*
D11*
X137160000Y-45720000D03*
D10*
X106680000Y-55880000D03*
D11*
X106680000Y-45720000D03*
D10*
X45720000Y-55880000D03*
D11*
X45720000Y-45720000D03*
D10*
X182880000Y-55880000D03*
D11*
X182880000Y-45720000D03*
D12*
X175260000Y-47200000D03*
D13*
X175260000Y-54400000D03*
D12*
X114300000Y-47200000D03*
D13*
X114300000Y-54400000D03*
D14*
X197485000Y-51670000D03*
X197485000Y-65170000D03*
D15*
X191485000Y-54820000D03*
X191485000Y-62020000D03*
D12*
X53340000Y-47200000D03*
D13*
X53340000Y-54400000D03*
D16*
X36400000Y-64262000D03*
D17*
X39800000Y-64262000D03*
D18*
X36400000Y-77978000D03*
D17*
X39800000Y-77978000D03*
D10*
X91440000Y-55880000D03*
D11*
X91440000Y-45720000D03*
D10*
X167640000Y-55880000D03*
D11*
X167640000Y-45720000D03*
D16*
X173560000Y-64262000D03*
D17*
X176960000Y-64262000D03*
X176960000Y-77978000D03*
D18*
X173560000Y-77978000D03*
D17*
X116000000Y-64262000D03*
D16*
X112600000Y-64262000D03*
D17*
X116000000Y-77978000D03*
D18*
X112600000Y-77978000D03*
D16*
X66880000Y-64262000D03*
D17*
X70280000Y-64262000D03*
D18*
X66880000Y-77978000D03*
D17*
X70280000Y-77978000D03*
D12*
X144780000Y-47200000D03*
D13*
X144780000Y-54400000D03*
D17*
X146480000Y-64262000D03*
D16*
X143080000Y-64262000D03*
D18*
X143080000Y-77978000D03*
D17*
X146480000Y-77978000D03*
D10*
X121920000Y-55880000D03*
D11*
X121920000Y-45720000D03*
D19*
X197910000Y-73660000D03*
D13*
X190710000Y-73660000D03*
D12*
X129540000Y-47200000D03*
D13*
X129540000Y-54400000D03*
D10*
X152400000Y-55880000D03*
D11*
X152400000Y-45720000D03*
D12*
X160020000Y-47200000D03*
D13*
X160020000Y-54400000D03*
D12*
X99060000Y-47200000D03*
D13*
X99060000Y-54400000D03*
D12*
X83820000Y-47200000D03*
D13*
X83820000Y-54400000D03*
D16*
X51640000Y-64262000D03*
D17*
X55040000Y-64262000D03*
D18*
X51640000Y-77978000D03*
D17*
X55040000Y-77978000D03*
X85520000Y-64262000D03*
D16*
X82120000Y-64262000D03*
D17*
X85520000Y-77978000D03*
D18*
X82120000Y-77978000D03*
D10*
X76200000Y-55880000D03*
D11*
X76200000Y-45720000D03*
D10*
X60960000Y-55880000D03*
D11*
X60960000Y-45720000D03*
D12*
X38100000Y-47200000D03*
D13*
X38100000Y-54400000D03*
D17*
X131240000Y-64262000D03*
D16*
X127840000Y-64262000D03*
D18*
X127840000Y-77978000D03*
D17*
X131240000Y-77978000D03*
X161720000Y-64262000D03*
D16*
X158320000Y-64262000D03*
D18*
X158320000Y-77978000D03*
D17*
X161720000Y-77978000D03*
D16*
X97360000Y-64262000D03*
D17*
X100760000Y-64262000D03*
D18*
X97360000Y-77978000D03*
D17*
X100760000Y-77978000D03*
D12*
X68580000Y-47200000D03*
D13*
X68580000Y-54400000D03*
M02*
