G04 #@! TF.GenerationSoftware,KiCad,Pcbnew,6.0.1-79c1e3a40b~116~ubuntu20.04.1*
G04 #@! TF.CreationDate,2022-01-31T22:13:57+08:00*
G04 #@! TF.ProjectId,Nucleo_F446_power_can_shield,4e75636c-656f-45f4-9634-34365f706f77,rev?*
G04 #@! TF.SameCoordinates,Original*
G04 #@! TF.FileFunction,AssemblyDrawing,Top*
%FSLAX46Y46*%
G04 Gerber Fmt 4.6, Leading zero omitted, Abs format (unit mm)*
G04 Created by KiCad (PCBNEW 6.0.1-79c1e3a40b~116~ubuntu20.04.1) date 2022-01-31 22:13:57*
%MOMM*%
%LPD*%
G01*
G04 APERTURE LIST*
G04 #@! TA.AperFunction,Profile*
%ADD10C,0.150000*%
G04 #@! TD*
%ADD11C,0.150000*%
%ADD12C,0.100000*%
%ADD13C,0.127000*%
%ADD14C,0.200000*%
G04 APERTURE END LIST*
D10*
X130176375Y-116702149D02*
G75*
G03*
X133454600Y-119877149I3176626J1D01*
G01*
X266656149Y-119823625D02*
G75*
G03*
X269831149Y-116545400I-1J3176626D01*
G01*
X266372400Y-14971000D02*
X133429000Y-14969375D01*
X269650625Y-18014852D02*
X269831149Y-116545400D01*
X133429000Y-14969376D02*
G75*
G03*
X130254000Y-18247600I-1J-3176624D01*
G01*
X130176375Y-116702149D02*
X130254000Y-18247600D01*
X266656149Y-119823625D02*
X133454600Y-119877149D01*
X269650625Y-18141851D02*
G75*
G03*
X266372400Y-14966851I-3176626J-1D01*
G01*
D11*
X154217380Y-112310523D02*
X154931666Y-112310523D01*
X155074523Y-112358142D01*
X155169761Y-112453380D01*
X155217380Y-112596238D01*
X155217380Y-112691476D01*
X154312619Y-111881952D02*
X154265000Y-111834333D01*
X154217380Y-111739095D01*
X154217380Y-111501000D01*
X154265000Y-111405761D01*
X154312619Y-111358142D01*
X154407857Y-111310523D01*
X154503095Y-111310523D01*
X154645952Y-111358142D01*
X155217380Y-111929571D01*
X155217380Y-111310523D01*
X154217380Y-110691476D02*
X154217380Y-110596238D01*
X154265000Y-110501000D01*
X154312619Y-110453380D01*
X154407857Y-110405761D01*
X154598333Y-110358142D01*
X154836428Y-110358142D01*
X155026904Y-110405761D01*
X155122142Y-110453380D01*
X155169761Y-110501000D01*
X155217380Y-110596238D01*
X155217380Y-110691476D01*
X155169761Y-110786714D01*
X155122142Y-110834333D01*
X155026904Y-110881952D01*
X154836428Y-110929571D01*
X154598333Y-110929571D01*
X154407857Y-110881952D01*
X154312619Y-110834333D01*
X154265000Y-110786714D01*
X154217380Y-110691476D01*
X241704380Y-61881523D02*
X240704380Y-61881523D01*
X241418666Y-61548190D01*
X240704380Y-61214857D01*
X241704380Y-61214857D01*
X241037714Y-60310095D02*
X241704380Y-60310095D01*
X240656761Y-60548190D02*
X241371047Y-60786285D01*
X241371047Y-60167238D01*
X267802380Y-37830523D02*
X268516666Y-37830523D01*
X268659523Y-37878142D01*
X268754761Y-37973380D01*
X268802380Y-38116238D01*
X268802380Y-38211476D01*
X268802380Y-36830523D02*
X268802380Y-37401952D01*
X268802380Y-37116238D02*
X267802380Y-37116238D01*
X267945238Y-37211476D01*
X268040476Y-37306714D01*
X268088095Y-37401952D01*
X267802380Y-35973380D02*
X267802380Y-36163857D01*
X267850000Y-36259095D01*
X267897619Y-36306714D01*
X268040476Y-36401952D01*
X268230952Y-36449571D01*
X268611904Y-36449571D01*
X268707142Y-36401952D01*
X268754761Y-36354333D01*
X268802380Y-36259095D01*
X268802380Y-36068619D01*
X268754761Y-35973380D01*
X268707142Y-35925761D01*
X268611904Y-35878142D01*
X268373809Y-35878142D01*
X268278571Y-35925761D01*
X268230952Y-35973380D01*
X268183333Y-36068619D01*
X268183333Y-36259095D01*
X268230952Y-36354333D01*
X268278571Y-36401952D01*
X268373809Y-36449571D01*
X170846476Y-117678380D02*
X170846476Y-118392666D01*
X170798857Y-118535523D01*
X170703619Y-118630761D01*
X170560761Y-118678380D01*
X170465523Y-118678380D01*
X171846476Y-118678380D02*
X171275047Y-118678380D01*
X171560761Y-118678380D02*
X171560761Y-117678380D01*
X171465523Y-117821238D01*
X171370285Y-117916476D01*
X171275047Y-117964095D01*
X172703619Y-118011714D02*
X172703619Y-118678380D01*
X172465523Y-117630761D02*
X172227428Y-118345047D01*
X172846476Y-118345047D01*
X267929380Y-113300333D02*
X268643666Y-113300333D01*
X268786523Y-113347952D01*
X268881761Y-113443190D01*
X268929380Y-113586047D01*
X268929380Y-113681285D01*
X267929380Y-112919380D02*
X267929380Y-112300333D01*
X268310333Y-112633666D01*
X268310333Y-112490809D01*
X268357952Y-112395571D01*
X268405571Y-112347952D01*
X268500809Y-112300333D01*
X268738904Y-112300333D01*
X268834142Y-112347952D01*
X268881761Y-112395571D01*
X268929380Y-112490809D01*
X268929380Y-112776523D01*
X268881761Y-112871761D01*
X268834142Y-112919380D01*
X239680476Y-65096380D02*
X239680476Y-65810666D01*
X239632857Y-65953523D01*
X239537619Y-66048761D01*
X239394761Y-66096380D01*
X239299523Y-66096380D01*
X240109047Y-65191619D02*
X240156666Y-65144000D01*
X240251904Y-65096380D01*
X240490000Y-65096380D01*
X240585238Y-65144000D01*
X240632857Y-65191619D01*
X240680476Y-65286857D01*
X240680476Y-65382095D01*
X240632857Y-65524952D01*
X240061428Y-66096380D01*
X240680476Y-66096380D01*
X241061428Y-65191619D02*
X241109047Y-65144000D01*
X241204285Y-65096380D01*
X241442380Y-65096380D01*
X241537619Y-65144000D01*
X241585238Y-65191619D01*
X241632857Y-65286857D01*
X241632857Y-65382095D01*
X241585238Y-65524952D01*
X241013809Y-66096380D01*
X241632857Y-66096380D01*
X249229142Y-67842666D02*
X249276761Y-67890285D01*
X249324380Y-68033142D01*
X249324380Y-68128380D01*
X249276761Y-68271238D01*
X249181523Y-68366476D01*
X249086285Y-68414095D01*
X248895809Y-68461714D01*
X248752952Y-68461714D01*
X248562476Y-68414095D01*
X248467238Y-68366476D01*
X248372000Y-68271238D01*
X248324380Y-68128380D01*
X248324380Y-68033142D01*
X248372000Y-67890285D01*
X248419619Y-67842666D01*
X248419619Y-67461714D02*
X248372000Y-67414095D01*
X248324380Y-67318857D01*
X248324380Y-67080761D01*
X248372000Y-66985523D01*
X248419619Y-66937904D01*
X248514857Y-66890285D01*
X248610095Y-66890285D01*
X248752952Y-66937904D01*
X249324380Y-67509333D01*
X249324380Y-66890285D01*
X237496076Y-16981180D02*
X237496076Y-17695466D01*
X237448457Y-17838323D01*
X237353219Y-17933561D01*
X237210361Y-17981180D01*
X237115123Y-17981180D01*
X238496076Y-17981180D02*
X237924647Y-17981180D01*
X238210361Y-17981180D02*
X238210361Y-16981180D01*
X238115123Y-17124038D01*
X238019885Y-17219276D01*
X237924647Y-17266895D01*
X238829409Y-16981180D02*
X239496076Y-16981180D01*
X239067504Y-17981180D01*
X267802380Y-24019333D02*
X268516666Y-24019333D01*
X268659523Y-24066952D01*
X268754761Y-24162190D01*
X268802380Y-24305047D01*
X268802380Y-24400285D01*
X268135714Y-23114571D02*
X268802380Y-23114571D01*
X267754761Y-23352666D02*
X268469047Y-23590761D01*
X268469047Y-22971714D01*
X170052666Y-17141180D02*
X170052666Y-17855466D01*
X170005047Y-17998323D01*
X169909809Y-18093561D01*
X169766952Y-18141180D01*
X169671714Y-18141180D01*
X171005047Y-17141180D02*
X170528857Y-17141180D01*
X170481238Y-17617371D01*
X170528857Y-17569752D01*
X170624095Y-17522133D01*
X170862190Y-17522133D01*
X170957428Y-17569752D01*
X171005047Y-17617371D01*
X171052666Y-17712609D01*
X171052666Y-17950704D01*
X171005047Y-18045942D01*
X170957428Y-18093561D01*
X170862190Y-18141180D01*
X170624095Y-18141180D01*
X170528857Y-18093561D01*
X170481238Y-18045942D01*
X214145380Y-59468523D02*
X213145380Y-59468523D01*
X213859666Y-59135190D01*
X213145380Y-58801857D01*
X214145380Y-58801857D01*
X214145380Y-57801857D02*
X214145380Y-58373285D01*
X214145380Y-58087571D02*
X213145380Y-58087571D01*
X213288238Y-58182809D01*
X213383476Y-58278047D01*
X213431095Y-58373285D01*
X145327333Y-47713142D02*
X145279714Y-47760761D01*
X145136857Y-47808380D01*
X145041619Y-47808380D01*
X144898761Y-47760761D01*
X144803523Y-47665523D01*
X144755904Y-47570285D01*
X144708285Y-47379809D01*
X144708285Y-47236952D01*
X144755904Y-47046476D01*
X144803523Y-46951238D01*
X144898761Y-46856000D01*
X145041619Y-46808380D01*
X145136857Y-46808380D01*
X145279714Y-46856000D01*
X145327333Y-46903619D01*
X145660666Y-46808380D02*
X146279714Y-46808380D01*
X145946380Y-47189333D01*
X146089238Y-47189333D01*
X146184476Y-47236952D01*
X146232095Y-47284571D01*
X146279714Y-47379809D01*
X146279714Y-47617904D01*
X146232095Y-47713142D01*
X146184476Y-47760761D01*
X146089238Y-47808380D01*
X145803523Y-47808380D01*
X145708285Y-47760761D01*
X145660666Y-47713142D01*
X267675380Y-49673333D02*
X268389666Y-49673333D01*
X268532523Y-49720952D01*
X268627761Y-49816190D01*
X268675380Y-49959047D01*
X268675380Y-50054285D01*
X268103952Y-49054285D02*
X268056333Y-49149523D01*
X268008714Y-49197142D01*
X267913476Y-49244761D01*
X267865857Y-49244761D01*
X267770619Y-49197142D01*
X267723000Y-49149523D01*
X267675380Y-49054285D01*
X267675380Y-48863809D01*
X267723000Y-48768571D01*
X267770619Y-48720952D01*
X267865857Y-48673333D01*
X267913476Y-48673333D01*
X268008714Y-48720952D01*
X268056333Y-48768571D01*
X268103952Y-48863809D01*
X268103952Y-49054285D01*
X268151571Y-49149523D01*
X268199190Y-49197142D01*
X268294428Y-49244761D01*
X268484904Y-49244761D01*
X268580142Y-49197142D01*
X268627761Y-49149523D01*
X268675380Y-49054285D01*
X268675380Y-48863809D01*
X268627761Y-48768571D01*
X268580142Y-48720952D01*
X268484904Y-48673333D01*
X268294428Y-48673333D01*
X268199190Y-48720952D01*
X268151571Y-48768571D01*
X268103952Y-48863809D01*
X267802380Y-62341523D02*
X268516666Y-62341523D01*
X268659523Y-62389142D01*
X268754761Y-62484380D01*
X268802380Y-62627238D01*
X268802380Y-62722476D01*
X268802380Y-61341523D02*
X268802380Y-61912952D01*
X268802380Y-61627238D02*
X267802380Y-61627238D01*
X267945238Y-61722476D01*
X268040476Y-61817714D01*
X268088095Y-61912952D01*
X267897619Y-60960571D02*
X267850000Y-60912952D01*
X267802380Y-60817714D01*
X267802380Y-60579619D01*
X267850000Y-60484380D01*
X267897619Y-60436761D01*
X267992857Y-60389142D01*
X268088095Y-60389142D01*
X268230952Y-60436761D01*
X268802380Y-61008190D01*
X268802380Y-60389142D01*
X183387666Y-117594380D02*
X183387666Y-118308666D01*
X183340047Y-118451523D01*
X183244809Y-118546761D01*
X183101952Y-118594380D01*
X183006714Y-118594380D01*
X184292428Y-117594380D02*
X184101952Y-117594380D01*
X184006714Y-117642000D01*
X183959095Y-117689619D01*
X183863857Y-117832476D01*
X183816238Y-118022952D01*
X183816238Y-118403904D01*
X183863857Y-118499142D01*
X183911476Y-118546761D01*
X184006714Y-118594380D01*
X184197190Y-118594380D01*
X184292428Y-118546761D01*
X184340047Y-118499142D01*
X184387666Y-118403904D01*
X184387666Y-118165809D01*
X184340047Y-118070571D01*
X184292428Y-118022952D01*
X184197190Y-117975333D01*
X184006714Y-117975333D01*
X183911476Y-118022952D01*
X183863857Y-118070571D01*
X183816238Y-118165809D01*
X194333666Y-16791380D02*
X194333666Y-17505666D01*
X194286047Y-17648523D01*
X194190809Y-17743761D01*
X194047952Y-17791380D01*
X193952714Y-17791380D01*
X194857476Y-17791380D02*
X195047952Y-17791380D01*
X195143190Y-17743761D01*
X195190809Y-17696142D01*
X195286047Y-17553285D01*
X195333666Y-17362809D01*
X195333666Y-16981857D01*
X195286047Y-16886619D01*
X195238428Y-16839000D01*
X195143190Y-16791380D01*
X194952714Y-16791380D01*
X194857476Y-16839000D01*
X194809857Y-16886619D01*
X194762238Y-16981857D01*
X194762238Y-17219952D01*
X194809857Y-17315190D01*
X194857476Y-17362809D01*
X194952714Y-17410428D01*
X195143190Y-17410428D01*
X195238428Y-17362809D01*
X195286047Y-17315190D01*
X195333666Y-17219952D01*
X239680476Y-69160380D02*
X239680476Y-69874666D01*
X239632857Y-70017523D01*
X239537619Y-70112761D01*
X239394761Y-70160380D01*
X239299523Y-70160380D01*
X240109047Y-69255619D02*
X240156666Y-69208000D01*
X240251904Y-69160380D01*
X240490000Y-69160380D01*
X240585238Y-69208000D01*
X240632857Y-69255619D01*
X240680476Y-69350857D01*
X240680476Y-69446095D01*
X240632857Y-69588952D01*
X240061428Y-70160380D01*
X240680476Y-70160380D01*
X241013809Y-69160380D02*
X241632857Y-69160380D01*
X241299523Y-69541333D01*
X241442380Y-69541333D01*
X241537619Y-69588952D01*
X241585238Y-69636571D01*
X241632857Y-69731809D01*
X241632857Y-69969904D01*
X241585238Y-70065142D01*
X241537619Y-70112761D01*
X241442380Y-70160380D01*
X241156666Y-70160380D01*
X241061428Y-70112761D01*
X241013809Y-70065142D01*
X207803476Y-117721380D02*
X207803476Y-118435666D01*
X207755857Y-118578523D01*
X207660619Y-118673761D01*
X207517761Y-118721380D01*
X207422523Y-118721380D01*
X208803476Y-118721380D02*
X208232047Y-118721380D01*
X208517761Y-118721380D02*
X208517761Y-117721380D01*
X208422523Y-117864238D01*
X208327285Y-117959476D01*
X208232047Y-118007095D01*
X209422523Y-117721380D02*
X209517761Y-117721380D01*
X209613000Y-117769000D01*
X209660619Y-117816619D01*
X209708238Y-117911857D01*
X209755857Y-118102333D01*
X209755857Y-118340428D01*
X209708238Y-118530904D01*
X209660619Y-118626142D01*
X209613000Y-118673761D01*
X209517761Y-118721380D01*
X209422523Y-118721380D01*
X209327285Y-118673761D01*
X209279666Y-118626142D01*
X209232047Y-118530904D01*
X209184428Y-118340428D01*
X209184428Y-118102333D01*
X209232047Y-117911857D01*
X209279666Y-117816619D01*
X209327285Y-117769000D01*
X209422523Y-117721380D01*
X233433619Y-73851476D02*
X234433619Y-73851476D01*
X233719333Y-74184809D01*
X234433619Y-74518142D01*
X233433619Y-74518142D01*
X234433619Y-74899095D02*
X234433619Y-75518142D01*
X234052666Y-75184809D01*
X234052666Y-75327666D01*
X234005047Y-75422904D01*
X233957428Y-75470523D01*
X233862190Y-75518142D01*
X233624095Y-75518142D01*
X233528857Y-75470523D01*
X233481238Y-75422904D01*
X233433619Y-75327666D01*
X233433619Y-75041952D01*
X233481238Y-74946714D01*
X233528857Y-74899095D01*
X143676333Y-98132142D02*
X143628714Y-98179761D01*
X143485857Y-98227380D01*
X143390619Y-98227380D01*
X143247761Y-98179761D01*
X143152523Y-98084523D01*
X143104904Y-97989285D01*
X143057285Y-97798809D01*
X143057285Y-97655952D01*
X143104904Y-97465476D01*
X143152523Y-97370238D01*
X143247761Y-97275000D01*
X143390619Y-97227380D01*
X143485857Y-97227380D01*
X143628714Y-97275000D01*
X143676333Y-97322619D01*
X144533476Y-97560714D02*
X144533476Y-98227380D01*
X144295380Y-97179761D02*
X144057285Y-97894047D01*
X144676333Y-97894047D01*
X195706666Y-117678380D02*
X195706666Y-118392666D01*
X195659047Y-118535523D01*
X195563809Y-118630761D01*
X195420952Y-118678380D01*
X195325714Y-118678380D01*
X196135238Y-117773619D02*
X196182857Y-117726000D01*
X196278095Y-117678380D01*
X196516190Y-117678380D01*
X196611428Y-117726000D01*
X196659047Y-117773619D01*
X196706666Y-117868857D01*
X196706666Y-117964095D01*
X196659047Y-118106952D01*
X196087619Y-118678380D01*
X196706666Y-118678380D01*
X205898476Y-16746380D02*
X205898476Y-17460666D01*
X205850857Y-17603523D01*
X205755619Y-17698761D01*
X205612761Y-17746380D01*
X205517523Y-17746380D01*
X206898476Y-17746380D02*
X206327047Y-17746380D01*
X206612761Y-17746380D02*
X206612761Y-16746380D01*
X206517523Y-16889238D01*
X206422285Y-16984476D01*
X206327047Y-17032095D01*
X207231809Y-16746380D02*
X207850857Y-16746380D01*
X207517523Y-17127333D01*
X207660380Y-17127333D01*
X207755619Y-17174952D01*
X207803238Y-17222571D01*
X207850857Y-17317809D01*
X207850857Y-17555904D01*
X207803238Y-17651142D01*
X207755619Y-17698761D01*
X207660380Y-17746380D01*
X207374666Y-17746380D01*
X207279428Y-17698761D01*
X207231809Y-17651142D01*
X160313380Y-112183523D02*
X161027666Y-112183523D01*
X161170523Y-112231142D01*
X161265761Y-112326380D01*
X161313380Y-112469238D01*
X161313380Y-112564476D01*
X161313380Y-111183523D02*
X161313380Y-111754952D01*
X161313380Y-111469238D02*
X160313380Y-111469238D01*
X160456238Y-111564476D01*
X160551476Y-111659714D01*
X160599095Y-111754952D01*
X161313380Y-110707333D02*
X161313380Y-110516857D01*
X161265761Y-110421619D01*
X161218142Y-110374000D01*
X161075285Y-110278761D01*
X160884809Y-110231142D01*
X160503857Y-110231142D01*
X160408619Y-110278761D01*
X160361000Y-110326380D01*
X160313380Y-110421619D01*
X160313380Y-110612095D01*
X160361000Y-110707333D01*
X160408619Y-110754952D01*
X160503857Y-110802571D01*
X160741952Y-110802571D01*
X160837190Y-110754952D01*
X160884809Y-110707333D01*
X160932428Y-110612095D01*
X160932428Y-110421619D01*
X160884809Y-110326380D01*
X160837190Y-110278761D01*
X160741952Y-110231142D01*
X267757380Y-87797333D02*
X268471666Y-87797333D01*
X268614523Y-87844952D01*
X268709761Y-87940190D01*
X268757380Y-88083047D01*
X268757380Y-88178285D01*
X267757380Y-87416380D02*
X267757380Y-86749714D01*
X268757380Y-87178285D01*
X237136476Y-116816380D02*
X237136476Y-117530666D01*
X237088857Y-117673523D01*
X236993619Y-117768761D01*
X236850761Y-117816380D01*
X236755523Y-117816380D01*
X238136476Y-117816380D02*
X237565047Y-117816380D01*
X237850761Y-117816380D02*
X237850761Y-116816380D01*
X237755523Y-116959238D01*
X237660285Y-117054476D01*
X237565047Y-117102095D01*
X238707904Y-117244952D02*
X238612666Y-117197333D01*
X238565047Y-117149714D01*
X238517428Y-117054476D01*
X238517428Y-117006857D01*
X238565047Y-116911619D01*
X238612666Y-116864000D01*
X238707904Y-116816380D01*
X238898380Y-116816380D01*
X238993619Y-116864000D01*
X239041238Y-116911619D01*
X239088857Y-117006857D01*
X239088857Y-117054476D01*
X239041238Y-117149714D01*
X238993619Y-117197333D01*
X238898380Y-117244952D01*
X238707904Y-117244952D01*
X238612666Y-117292571D01*
X238565047Y-117340190D01*
X238517428Y-117435428D01*
X238517428Y-117625904D01*
X238565047Y-117721142D01*
X238612666Y-117768761D01*
X238707904Y-117816380D01*
X238898380Y-117816380D01*
X238993619Y-117768761D01*
X239041238Y-117721142D01*
X239088857Y-117625904D01*
X239088857Y-117435428D01*
X239041238Y-117340190D01*
X238993619Y-117292571D01*
X238898380Y-117244952D01*
X182141666Y-16791380D02*
X182141666Y-17505666D01*
X182094047Y-17648523D01*
X181998809Y-17743761D01*
X181855952Y-17791380D01*
X181760714Y-17791380D01*
X183141666Y-17791380D02*
X182570238Y-17791380D01*
X182855952Y-17791380D02*
X182855952Y-16791380D01*
X182760714Y-16934238D01*
X182665476Y-17029476D01*
X182570238Y-17077095D01*
X267884380Y-101608523D02*
X268598666Y-101608523D01*
X268741523Y-101656142D01*
X268836761Y-101751380D01*
X268884380Y-101894238D01*
X268884380Y-101989476D01*
X268884380Y-100608523D02*
X268884380Y-101179952D01*
X268884380Y-100894238D02*
X267884380Y-100894238D01*
X268027238Y-100989476D01*
X268122476Y-101084714D01*
X268170095Y-101179952D01*
X268884380Y-99656142D02*
X268884380Y-100227571D01*
X268884380Y-99941857D02*
X267884380Y-99941857D01*
X268027238Y-100037095D01*
X268122476Y-100132333D01*
X268170095Y-100227571D01*
X267458380Y-74835523D02*
X268172666Y-74835523D01*
X268315523Y-74883142D01*
X268410761Y-74978380D01*
X268458380Y-75121238D01*
X268458380Y-75216476D01*
X268458380Y-73835523D02*
X268458380Y-74406952D01*
X268458380Y-74121238D02*
X267458380Y-74121238D01*
X267601238Y-74216476D01*
X267696476Y-74311714D01*
X267744095Y-74406952D01*
X267458380Y-72930761D02*
X267458380Y-73406952D01*
X267934571Y-73454571D01*
X267886952Y-73406952D01*
X267839333Y-73311714D01*
X267839333Y-73073619D01*
X267886952Y-72978380D01*
X267934571Y-72930761D01*
X268029809Y-72883142D01*
X268267904Y-72883142D01*
X268363142Y-72930761D01*
X268410761Y-72978380D01*
X268458380Y-73073619D01*
X268458380Y-73311714D01*
X268410761Y-73406952D01*
X268363142Y-73454571D01*
X175902619Y-77788476D02*
X176902619Y-77788476D01*
X176188333Y-78121809D01*
X176902619Y-78455142D01*
X175902619Y-78455142D01*
X176807380Y-78883714D02*
X176855000Y-78931333D01*
X176902619Y-79026571D01*
X176902619Y-79264666D01*
X176855000Y-79359904D01*
X176807380Y-79407523D01*
X176712142Y-79455142D01*
X176616904Y-79455142D01*
X176474047Y-79407523D01*
X175902619Y-78836095D01*
X175902619Y-79455142D01*
X143422333Y-88099142D02*
X143374714Y-88146761D01*
X143231857Y-88194380D01*
X143136619Y-88194380D01*
X142993761Y-88146761D01*
X142898523Y-88051523D01*
X142850904Y-87956285D01*
X142803285Y-87765809D01*
X142803285Y-87622952D01*
X142850904Y-87432476D01*
X142898523Y-87337238D01*
X142993761Y-87242000D01*
X143136619Y-87194380D01*
X143231857Y-87194380D01*
X143374714Y-87242000D01*
X143422333Y-87289619D01*
X144374714Y-88194380D02*
X143803285Y-88194380D01*
X144089000Y-88194380D02*
X144089000Y-87194380D01*
X143993761Y-87337238D01*
X143898523Y-87432476D01*
X143803285Y-87480095D01*
D12*
X153495000Y-107056000D02*
X154130000Y-106421000D01*
X156035000Y-106421000D02*
X156035000Y-116581000D01*
X154130000Y-106421000D02*
X156035000Y-106421000D01*
X156035000Y-116581000D02*
X153495000Y-116581000D01*
X153495000Y-116581000D02*
X153495000Y-107056000D01*
X268050000Y-42096000D02*
X259140000Y-42096000D01*
X259140000Y-31946000D02*
X268050000Y-31946000D01*
X269050000Y-41096000D02*
X268050000Y-42096000D01*
X259140000Y-42096000D02*
X259140000Y-31946000D01*
X269050000Y-32946000D02*
X269050000Y-41096000D01*
X260130000Y-35521000D02*
X259140000Y-36271000D01*
X268050000Y-31946000D02*
X269050000Y-32946000D01*
X259140000Y-34771000D02*
X260130000Y-35521000D01*
X166581000Y-117926000D02*
X166581000Y-109016000D01*
X176731000Y-117926000D02*
X175731000Y-118926000D01*
X176731000Y-109016000D02*
X176731000Y-117926000D01*
X175731000Y-118926000D02*
X167581000Y-118926000D01*
X167581000Y-118926000D02*
X166581000Y-117926000D01*
X173156000Y-110006000D02*
X172406000Y-109016000D01*
X166581000Y-109016000D02*
X176731000Y-109016000D01*
X173906000Y-109016000D02*
X173156000Y-110006000D01*
X259267000Y-110717000D02*
X260257000Y-111467000D01*
X268177000Y-118042000D02*
X259267000Y-118042000D01*
X260257000Y-111467000D02*
X259267000Y-112217000D01*
X269177000Y-117042000D02*
X268177000Y-118042000D01*
X259267000Y-118042000D02*
X259267000Y-107892000D01*
X268177000Y-107892000D02*
X269177000Y-108892000D01*
X259267000Y-107892000D02*
X268177000Y-107892000D01*
X269177000Y-108892000D02*
X269177000Y-117042000D01*
X242395000Y-64374000D02*
X243030000Y-65009000D01*
X243030000Y-66914000D02*
X237950000Y-66914000D01*
X237950000Y-64374000D02*
X242395000Y-64374000D01*
X243030000Y-65009000D02*
X243030000Y-66914000D01*
X237950000Y-66914000D02*
X237950000Y-64374000D01*
X246572000Y-64376000D02*
X245572000Y-65376000D01*
X252172000Y-65376000D02*
X252172000Y-70976000D01*
X252172000Y-70976000D02*
X245572000Y-70976000D01*
X251172000Y-64376000D02*
X246572000Y-64376000D01*
X245572000Y-65376000D02*
X245572000Y-70976000D01*
X251172000Y-64376000D02*
X252172000Y-65376000D01*
X252022000Y-67676000D02*
G75*
G03*
X252022000Y-67676000I-3150000J0D01*
G01*
X230050600Y-16528800D02*
X230050600Y-31278800D01*
X231050600Y-15528800D02*
X246560600Y-15528800D01*
X230050600Y-31278800D02*
X246560600Y-31278800D01*
X246560600Y-15528800D02*
X246560600Y-31278800D01*
X230050600Y-16528800D02*
X231050600Y-15528800D01*
X269050000Y-19611000D02*
X269050000Y-27761000D01*
X259140000Y-28761000D02*
X259140000Y-18611000D01*
X268050000Y-28761000D02*
X259140000Y-28761000D01*
X260130000Y-22186000D02*
X259140000Y-22936000D01*
X268050000Y-18611000D02*
X269050000Y-19611000D01*
X259140000Y-18611000D02*
X268050000Y-18611000D01*
X259140000Y-21436000D02*
X260130000Y-22186000D01*
X269050000Y-27761000D02*
X268050000Y-28761000D01*
X168783000Y-25559000D02*
X169533000Y-26549000D01*
X175358000Y-17639000D02*
X175358000Y-26549000D01*
X168033000Y-26549000D02*
X168783000Y-25559000D01*
X175358000Y-26549000D02*
X165208000Y-26549000D01*
X166208000Y-16639000D02*
X174358000Y-16639000D01*
X165208000Y-17639000D02*
X166208000Y-16639000D01*
X165208000Y-26549000D02*
X165208000Y-17639000D01*
X174358000Y-16639000D02*
X175358000Y-17639000D01*
X148794000Y-45056000D02*
X147794000Y-44056000D01*
X148794000Y-49656000D02*
X147794000Y-50656000D01*
X142194000Y-50656000D02*
X142194000Y-44056000D01*
X148794000Y-49656000D02*
X148794000Y-45056000D01*
X147794000Y-50656000D02*
X142194000Y-50656000D01*
X147794000Y-44056000D02*
X142194000Y-44056000D01*
X148644000Y-47356000D02*
G75*
G03*
X148644000Y-47356000I-3150000J0D01*
G01*
X259013000Y-54415000D02*
X259013000Y-44265000D01*
X259013000Y-44265000D02*
X267923000Y-44265000D01*
X268923000Y-53415000D02*
X267923000Y-54415000D01*
X267923000Y-54415000D02*
X259013000Y-54415000D01*
X260003000Y-47840000D02*
X259013000Y-48590000D01*
X268923000Y-45265000D02*
X268923000Y-53415000D01*
X267923000Y-44265000D02*
X268923000Y-45265000D01*
X259013000Y-47090000D02*
X260003000Y-47840000D01*
X269050000Y-65607000D02*
X268050000Y-66607000D01*
X259140000Y-56457000D02*
X268050000Y-56457000D01*
X259140000Y-66607000D02*
X259140000Y-56457000D01*
X269050000Y-57457000D02*
X269050000Y-65607000D01*
X259140000Y-59282000D02*
X260130000Y-60032000D01*
X268050000Y-66607000D02*
X259140000Y-66607000D01*
X268050000Y-56457000D02*
X269050000Y-57457000D01*
X260130000Y-60032000D02*
X259140000Y-60782000D01*
X185221000Y-109922000D02*
X184471000Y-108932000D01*
X178646000Y-117842000D02*
X178646000Y-108932000D01*
X179646000Y-118842000D02*
X178646000Y-117842000D01*
X187796000Y-118842000D02*
X179646000Y-118842000D01*
X185971000Y-108932000D02*
X185221000Y-109922000D01*
X178646000Y-108932000D02*
X188796000Y-108932000D01*
X188796000Y-108932000D02*
X188796000Y-117842000D01*
X188796000Y-117842000D02*
X187796000Y-118842000D01*
X189592000Y-26549000D02*
X189592000Y-17639000D01*
X189592000Y-17639000D02*
X190592000Y-16639000D01*
X199742000Y-17639000D02*
X199742000Y-26549000D01*
X192417000Y-26549000D02*
X193167000Y-25559000D01*
X198742000Y-16639000D02*
X199742000Y-17639000D01*
X193167000Y-25559000D02*
X193917000Y-26549000D01*
X190592000Y-16639000D02*
X198742000Y-16639000D01*
X199742000Y-26549000D02*
X189592000Y-26549000D01*
D13*
X165182000Y-98925000D02*
X155682000Y-98925000D01*
X161202000Y-97155000D02*
X161202000Y-48895000D01*
X167182000Y-100925000D02*
X165182000Y-98925000D01*
X224182000Y-19925000D02*
X224182000Y-97425000D01*
X155682000Y-18425000D02*
X222682000Y-18425000D01*
X222162000Y-48895000D02*
X217162000Y-48895000D01*
X156202000Y-48895000D02*
X156202000Y-97155000D01*
X161202000Y-48895000D02*
X156202000Y-48895000D01*
X222682000Y-98925000D02*
X202182000Y-98925000D01*
X200182000Y-100925000D02*
X167182000Y-100925000D01*
X217162000Y-97155000D02*
X222162000Y-97155000D01*
X222162000Y-97155000D02*
X222162000Y-48895000D01*
X156202000Y-97155000D02*
X161202000Y-97155000D01*
X154182000Y-97425000D02*
X154182000Y-19925000D01*
X202182000Y-98925000D02*
X200182000Y-100925000D01*
X217162000Y-48895000D02*
X217162000Y-97155000D01*
X154182000Y-97425000D02*
G75*
G03*
X155682000Y-98925000I1500001J1D01*
G01*
X222682000Y-98925000D02*
G75*
G03*
X224182000Y-97425000I-1J1500001D01*
G01*
X224182000Y-19925000D02*
G75*
G03*
X222682000Y-18425000I-1500001J-1D01*
G01*
X155682000Y-18425000D02*
G75*
G03*
X154182000Y-19925000I1J-1500001D01*
G01*
D14*
X216742000Y-50165000D02*
G75*
G03*
X216742000Y-50165000I-100000J0D01*
G01*
X155782000Y-50165000D02*
G75*
G03*
X155782000Y-50165000I-100000J0D01*
G01*
D12*
X243030000Y-70978000D02*
X237950000Y-70978000D01*
X237950000Y-68438000D02*
X242395000Y-68438000D01*
X237950000Y-70978000D02*
X237950000Y-68438000D01*
X243030000Y-69073000D02*
X243030000Y-70978000D01*
X242395000Y-68438000D02*
X243030000Y-69073000D01*
X213688000Y-117969000D02*
X212688000Y-118969000D01*
X212688000Y-118969000D02*
X204538000Y-118969000D01*
X203538000Y-109059000D02*
X213688000Y-109059000D01*
X210863000Y-109059000D02*
X210113000Y-110049000D01*
X203538000Y-117969000D02*
X203538000Y-109059000D01*
X204538000Y-118969000D02*
X203538000Y-117969000D01*
X210113000Y-110049000D02*
X209363000Y-109059000D01*
X213688000Y-109059000D02*
X213688000Y-117969000D01*
X140543000Y-95475000D02*
X140543000Y-100075000D01*
X141543000Y-101075000D02*
X147143000Y-101075000D01*
X140543000Y-95475000D02*
X141543000Y-94475000D01*
X140543000Y-100075000D02*
X141543000Y-101075000D01*
X141543000Y-94475000D02*
X147143000Y-94475000D01*
X147143000Y-94475000D02*
X147143000Y-101075000D01*
X146993000Y-97775000D02*
G75*
G03*
X146993000Y-97775000I-3150000J0D01*
G01*
X200115000Y-118926000D02*
X191965000Y-118926000D01*
X201115000Y-109016000D02*
X201115000Y-117926000D01*
X198290000Y-109016000D02*
X197540000Y-110006000D01*
X191965000Y-118926000D02*
X190965000Y-117926000D01*
X197540000Y-110006000D02*
X196790000Y-109016000D01*
X190965000Y-117926000D02*
X190965000Y-109016000D01*
X190965000Y-109016000D02*
X201115000Y-109016000D01*
X201115000Y-117926000D02*
X200115000Y-118926000D01*
X211783000Y-26504000D02*
X201633000Y-26504000D01*
X202633000Y-16594000D02*
X210783000Y-16594000D01*
X201633000Y-17594000D02*
X202633000Y-16594000D01*
X211783000Y-17594000D02*
X211783000Y-26504000D01*
X210783000Y-16594000D02*
X211783000Y-17594000D01*
X204458000Y-26504000D02*
X205208000Y-25514000D01*
X205208000Y-25514000D02*
X205958000Y-26504000D01*
X201633000Y-26504000D02*
X201633000Y-17594000D01*
X162131000Y-106294000D02*
X162131000Y-116454000D01*
X162131000Y-116454000D02*
X159591000Y-116454000D01*
X159591000Y-116454000D02*
X159591000Y-106929000D01*
X159591000Y-106929000D02*
X160226000Y-106294000D01*
X160226000Y-106294000D02*
X162131000Y-106294000D01*
X268005000Y-92539000D02*
X259095000Y-92539000D01*
X259095000Y-82389000D02*
X268005000Y-82389000D01*
X269005000Y-91539000D02*
X268005000Y-92539000D01*
X268005000Y-82389000D02*
X269005000Y-83389000D01*
X259095000Y-92539000D02*
X259095000Y-82389000D01*
X269005000Y-83389000D02*
X269005000Y-91539000D01*
X260085000Y-85964000D02*
X259095000Y-86714000D01*
X259095000Y-85214000D02*
X260085000Y-85964000D01*
X246201000Y-118364000D02*
X246201000Y-103614000D01*
X245201000Y-119364000D02*
X229691000Y-119364000D01*
X246201000Y-118364000D02*
X245201000Y-119364000D01*
X246201000Y-103614000D02*
X229691000Y-103614000D01*
X229691000Y-119364000D02*
X229691000Y-103614000D01*
X187550000Y-17639000D02*
X187550000Y-26549000D01*
X177400000Y-26549000D02*
X177400000Y-17639000D01*
X178400000Y-16639000D02*
X186550000Y-16639000D01*
X177400000Y-17639000D02*
X178400000Y-16639000D01*
X186550000Y-16639000D02*
X187550000Y-17639000D01*
X180975000Y-25559000D02*
X181725000Y-26549000D01*
X187550000Y-26549000D02*
X177400000Y-26549000D01*
X180225000Y-26549000D02*
X180975000Y-25559000D01*
X259222000Y-105874000D02*
X259222000Y-95724000D01*
X268132000Y-105874000D02*
X259222000Y-105874000D01*
X259222000Y-98549000D02*
X260212000Y-99299000D01*
X269132000Y-96724000D02*
X269132000Y-104874000D01*
X269132000Y-104874000D02*
X268132000Y-105874000D01*
X268132000Y-95724000D02*
X269132000Y-96724000D01*
X260212000Y-99299000D02*
X259222000Y-100049000D01*
X259222000Y-95724000D02*
X268132000Y-95724000D01*
X258796000Y-79101000D02*
X258796000Y-68951000D01*
X259786000Y-72526000D02*
X258796000Y-73276000D01*
X268706000Y-78101000D02*
X267706000Y-79101000D01*
X267706000Y-68951000D02*
X268706000Y-69951000D01*
X258796000Y-68951000D02*
X267706000Y-68951000D01*
X267706000Y-79101000D02*
X258796000Y-79101000D01*
X268706000Y-69951000D02*
X268706000Y-78101000D01*
X258796000Y-71776000D02*
X259786000Y-72526000D01*
X140289000Y-90042000D02*
X141289000Y-91042000D01*
X140289000Y-85442000D02*
X140289000Y-90042000D01*
X141289000Y-91042000D02*
X146889000Y-91042000D01*
X140289000Y-85442000D02*
X141289000Y-84442000D01*
X141289000Y-84442000D02*
X146889000Y-84442000D01*
X146889000Y-84442000D02*
X146889000Y-91042000D01*
X146739000Y-87742000D02*
G75*
G03*
X146739000Y-87742000I-3150000J0D01*
G01*
M02*
