G04 #@! TF.GenerationSoftware,KiCad,Pcbnew,6.0.1-79c1e3a40b~116~ubuntu20.04.1*
G04 #@! TF.CreationDate,2022-02-07T20:48:49+08:00*
G04 #@! TF.ProjectId,Nucleo_F446_power_can_shield,4e75636c-656f-45f4-9634-34365f706f77,rev?*
G04 #@! TF.SameCoordinates,Original*
G04 #@! TF.FileFunction,Soldermask,Top*
G04 #@! TF.FilePolarity,Negative*
%FSLAX46Y46*%
G04 Gerber Fmt 4.6, Leading zero omitted, Abs format (unit mm)*
G04 Created by KiCad (PCBNEW 6.0.1-79c1e3a40b~116~ubuntu20.04.1) date 2022-02-07 20:48:49*
%MOMM*%
%LPD*%
G01*
G04 APERTURE LIST*
G04 Aperture macros list*
%AMRoundRect*
0 Rectangle with rounded corners*
0 $1 Rounding radius*
0 $2 $3 $4 $5 $6 $7 $8 $9 X,Y pos of 4 corners*
0 Add a 4 corners polygon primitive as box body*
4,1,4,$2,$3,$4,$5,$6,$7,$8,$9,$2,$3,0*
0 Add four circle primitives for the rounded corners*
1,1,$1+$1,$2,$3*
1,1,$1+$1,$4,$5*
1,1,$1+$1,$6,$7*
1,1,$1+$1,$8,$9*
0 Add four rect primitives between the rounded corners*
20,1,$1+$1,$2,$3,$4,$5,0*
20,1,$1+$1,$4,$5,$6,$7,0*
20,1,$1+$1,$6,$7,$8,$9,0*
20,1,$1+$1,$8,$9,$2,$3,0*%
G04 Aperture macros list end*
G04 #@! TA.AperFunction,Profile*
%ADD10C,0.150000*%
G04 #@! TD*
%ADD11RoundRect,0.250000X0.450000X-0.350000X0.450000X0.350000X-0.450000X0.350000X-0.450000X-0.350000X0*%
%ADD12RoundRect,0.250000X-0.450000X0.350000X-0.450000X-0.350000X0.450000X-0.350000X0.450000X0.350000X0*%
%ADD13RoundRect,0.250000X-0.350000X-0.450000X0.350000X-0.450000X0.350000X0.450000X-0.350000X0.450000X0*%
%ADD14R,1.700000X1.700000*%
%ADD15O,1.700000X1.700000*%
%ADD16RoundRect,0.250000X-0.450000X0.325000X-0.450000X-0.325000X0.450000X-0.325000X0.450000X0.325000X0*%
%ADD17RoundRect,0.250000X0.450000X-0.325000X0.450000X0.325000X-0.450000X0.325000X-0.450000X-0.325000X0*%
%ADD18RoundRect,0.250000X0.325000X0.450000X-0.325000X0.450000X-0.325000X-0.450000X0.325000X-0.450000X0*%
%ADD19C,1.524000*%
%ADD20C,3.000000*%
%ADD21RoundRect,0.250001X-0.499999X0.499999X-0.499999X-0.499999X0.499999X-0.499999X0.499999X0.499999X0*%
%ADD22C,1.500000*%
%ADD23RoundRect,0.250001X0.499999X0.499999X-0.499999X0.499999X-0.499999X-0.499999X0.499999X-0.499999X0*%
%ADD24RoundRect,0.250000X-0.550000X1.412500X-0.550000X-1.412500X0.550000X-1.412500X0.550000X1.412500X0*%
%ADD25C,3.250000*%
%ADD26R,1.500000X1.500000*%
%ADD27C,2.300000*%
%ADD28RoundRect,0.250001X-0.499999X-0.499999X0.499999X-0.499999X0.499999X0.499999X-0.499999X0.499999X0*%
%ADD29RoundRect,0.050000X0.840000X-1.950000X0.840000X1.950000X-0.840000X1.950000X-0.840000X-1.950000X0*%
%ADD30RoundRect,0.250000X1.412500X0.550000X-1.412500X0.550000X-1.412500X-0.550000X1.412500X-0.550000X0*%
%ADD31R,1.308000X4.500000*%
%ADD32R,1.530000X1.530000*%
%ADD33C,1.530000*%
%ADD34RoundRect,0.250000X-1.412500X-0.550000X1.412500X-0.550000X1.412500X0.550000X-1.412500X0.550000X0*%
%ADD35R,0.900000X1.800000*%
%ADD36C,4.500000*%
%ADD37RoundRect,0.050000X-0.840000X1.950000X-0.840000X-1.950000X0.840000X-1.950000X0.840000X1.950000X0*%
G04 APERTURE END LIST*
D10*
X130176375Y-116702149D02*
G75*
G03*
X133454600Y-119877149I3176626J1D01*
G01*
X266656149Y-119823625D02*
G75*
G03*
X269831149Y-116545400I-1J3176626D01*
G01*
X266372400Y-14971000D02*
X133429000Y-14969375D01*
X269650625Y-18014852D02*
X269831149Y-116545400D01*
X133429000Y-14969375D02*
G75*
G03*
X130254000Y-18247600I1J-3176626D01*
G01*
X130176375Y-116702149D02*
X130254000Y-18247600D01*
X266656149Y-119823625D02*
X133454600Y-119877149D01*
X269650625Y-18141851D02*
G75*
G03*
X266372400Y-14966851I-3176626J-1D01*
G01*
D11*
X227282000Y-63977000D03*
X227282000Y-61977000D03*
D12*
X227282000Y-85980000D03*
X227282000Y-87980000D03*
X150320000Y-82789000D03*
X150320000Y-84789000D03*
D13*
X198739000Y-95108000D03*
X200739000Y-95108000D03*
X191611000Y-39228000D03*
X193611000Y-39228000D03*
D14*
X165560000Y-42022000D03*
D15*
X165560000Y-39482000D03*
D14*
X171275000Y-42022000D03*
D15*
X171275000Y-39482000D03*
D16*
X227282000Y-56745000D03*
X227282000Y-58795000D03*
D17*
X227282000Y-92958000D03*
X227282000Y-90908000D03*
X150320000Y-94364000D03*
X150320000Y-92314000D03*
D18*
X224243000Y-103871000D03*
X222193000Y-103871000D03*
X232117000Y-34529000D03*
X230067000Y-34529000D03*
D14*
X154765000Y-107691000D03*
D15*
X154765000Y-110231000D03*
X154765000Y-112771000D03*
X154765000Y-115311000D03*
D19*
X233632000Y-61072000D03*
X236172000Y-61072000D03*
X238712000Y-61072000D03*
X241252000Y-61072000D03*
X236121200Y-42072800D03*
X238762800Y-42072800D03*
D20*
X264450000Y-37021000D03*
D21*
X260130000Y-35521000D03*
D22*
X260130000Y-38521000D03*
X257130000Y-35521000D03*
X257130000Y-38521000D03*
D20*
X171656000Y-114326000D03*
D23*
X173156000Y-110006000D03*
D22*
X170156000Y-110006000D03*
X173156000Y-107006000D03*
X170156000Y-107006000D03*
D20*
X264577000Y-112967000D03*
D21*
X260257000Y-111467000D03*
D22*
X260257000Y-114467000D03*
X257257000Y-111467000D03*
X257257000Y-114467000D03*
D14*
X241760000Y-65644000D03*
D15*
X239220000Y-65644000D03*
D24*
X248872000Y-65138500D03*
X248872000Y-70213500D03*
D25*
X244655600Y-20988800D03*
X231955600Y-20988800D03*
D26*
X234745600Y-23528800D03*
D22*
X235761600Y-25308800D03*
X236777600Y-23528800D03*
X237793600Y-25308800D03*
X238809600Y-23528800D03*
X239825600Y-25308800D03*
X240841600Y-23528800D03*
X241857600Y-25308800D03*
D27*
X230175600Y-24418800D03*
X246435600Y-24418800D03*
D20*
X264450000Y-23686000D03*
D21*
X260130000Y-22186000D03*
D22*
X260130000Y-25186000D03*
X257130000Y-22186000D03*
X257130000Y-25186000D03*
D20*
X170283000Y-21239000D03*
D28*
X168783000Y-25559000D03*
D22*
X171783000Y-25559000D03*
X168783000Y-28559000D03*
X171783000Y-28559000D03*
D29*
X200993000Y-72629000D03*
X203533000Y-72629000D03*
X206073000Y-72629000D03*
X208613000Y-72629000D03*
X200993000Y-44689000D03*
X203533000Y-44689000D03*
X206073000Y-44689000D03*
X208613000Y-44689000D03*
D30*
X148031500Y-47356000D03*
X142956500Y-47356000D03*
D20*
X264323000Y-49340000D03*
D21*
X260003000Y-47840000D03*
D22*
X260003000Y-50840000D03*
X257003000Y-47840000D03*
X257003000Y-50840000D03*
D31*
X137594250Y-56906000D03*
X149910250Y-56906000D03*
X138994250Y-56906000D03*
X151310250Y-56906000D03*
X137718250Y-75906000D03*
X149786250Y-75906000D03*
X139118250Y-75906000D03*
X151186250Y-75906000D03*
D20*
X264450000Y-61532000D03*
D21*
X260130000Y-60032000D03*
D22*
X260130000Y-63032000D03*
X257130000Y-60032000D03*
X257130000Y-63032000D03*
D20*
X183721000Y-114242000D03*
D23*
X185221000Y-109922000D03*
D22*
X182221000Y-109922000D03*
X185221000Y-106922000D03*
X182221000Y-106922000D03*
D20*
X194667000Y-21239000D03*
D28*
X193167000Y-25559000D03*
D22*
X196167000Y-25559000D03*
X193167000Y-28559000D03*
X196167000Y-28559000D03*
D32*
X157432000Y-50165000D03*
D33*
X159972000Y-50165000D03*
X157432000Y-52705000D03*
X159972000Y-52705000D03*
X157432000Y-55245000D03*
X159972000Y-55245000D03*
X157432000Y-57785000D03*
X159972000Y-57785000D03*
X157432000Y-60325000D03*
X159972000Y-60325000D03*
X157432000Y-62865000D03*
X159972000Y-62865000D03*
X157432000Y-65405000D03*
X159972000Y-65405000D03*
X157432000Y-67945000D03*
X159972000Y-67945000D03*
X157432000Y-70485000D03*
X159972000Y-70485000D03*
X157432000Y-73025000D03*
X159972000Y-73025000D03*
X157432000Y-75565000D03*
X159972000Y-75565000D03*
X157432000Y-78105000D03*
X159972000Y-78105000D03*
X157432000Y-80645000D03*
X159972000Y-80645000D03*
X157432000Y-83185000D03*
X159972000Y-83185000D03*
X157432000Y-85725000D03*
X159972000Y-85725000D03*
X157432000Y-88265000D03*
X159972000Y-88265000D03*
X157432000Y-90805000D03*
X159972000Y-90805000D03*
X157432000Y-93345000D03*
X159972000Y-93345000D03*
X157432000Y-95885000D03*
X159972000Y-95885000D03*
D32*
X218392000Y-50165000D03*
D33*
X220932000Y-50165000D03*
X218392000Y-52705000D03*
X220932000Y-52705000D03*
X218392000Y-55245000D03*
X220932000Y-55245000D03*
X218392000Y-57785000D03*
X220932000Y-57785000D03*
X218392000Y-60325000D03*
X220932000Y-60325000D03*
X218392000Y-62865000D03*
X220932000Y-62865000D03*
X218392000Y-65405000D03*
X220932000Y-65405000D03*
X218392000Y-67945000D03*
X220932000Y-67945000D03*
X218392000Y-70485000D03*
X220932000Y-70485000D03*
X218392000Y-73025000D03*
X220932000Y-73025000D03*
X218392000Y-75565000D03*
X220932000Y-75565000D03*
X218392000Y-78105000D03*
X220932000Y-78105000D03*
X218392000Y-80645000D03*
X220932000Y-80645000D03*
X218392000Y-83185000D03*
X220932000Y-83185000D03*
X218392000Y-85725000D03*
X220932000Y-85725000D03*
X218392000Y-88265000D03*
X220932000Y-88265000D03*
X218392000Y-90805000D03*
X220932000Y-90805000D03*
X218392000Y-93345000D03*
X220932000Y-93345000D03*
X218392000Y-95885000D03*
X220932000Y-95885000D03*
D14*
X241760000Y-69708000D03*
D15*
X239220000Y-69708000D03*
D20*
X208613000Y-114369000D03*
D23*
X210113000Y-110049000D03*
D22*
X207113000Y-110049000D03*
X210113000Y-107049000D03*
X207113000Y-107049000D03*
D19*
X241506000Y-74661000D03*
X238966000Y-74661000D03*
X236426000Y-74661000D03*
X233886000Y-74661000D03*
X239016800Y-93660200D03*
X236375200Y-93660200D03*
D34*
X141305500Y-97775000D03*
X146380500Y-97775000D03*
D20*
X196040000Y-114326000D03*
D23*
X197540000Y-110006000D03*
D22*
X194540000Y-110006000D03*
X197540000Y-107006000D03*
X194540000Y-107006000D03*
D20*
X206708000Y-21194000D03*
D28*
X205208000Y-25514000D03*
D22*
X208208000Y-25514000D03*
X205208000Y-28514000D03*
X208208000Y-28514000D03*
D14*
X160861000Y-107564000D03*
D15*
X160861000Y-110104000D03*
X160861000Y-112644000D03*
X160861000Y-115184000D03*
D20*
X264405000Y-87464000D03*
D21*
X260085000Y-85964000D03*
D22*
X260085000Y-88964000D03*
X257085000Y-85964000D03*
X257085000Y-88964000D03*
D25*
X231596000Y-113904000D03*
X244296000Y-113904000D03*
D26*
X241506000Y-111364000D03*
D22*
X240490000Y-109584000D03*
X239474000Y-111364000D03*
X238458000Y-109584000D03*
X237442000Y-111364000D03*
X236426000Y-109584000D03*
X235410000Y-111364000D03*
X234394000Y-109584000D03*
D27*
X229816000Y-110474000D03*
X246076000Y-110474000D03*
D35*
X138109000Y-30211000D03*
X151609000Y-30211000D03*
D36*
X141259000Y-36211000D03*
X148459000Y-36211000D03*
D20*
X182475000Y-21239000D03*
D28*
X180975000Y-25559000D03*
D22*
X183975000Y-25559000D03*
X180975000Y-28559000D03*
X183975000Y-28559000D03*
D20*
X264532000Y-100799000D03*
D21*
X260212000Y-99299000D03*
D22*
X260212000Y-102299000D03*
X257212000Y-99299000D03*
X257212000Y-102299000D03*
D20*
X264106000Y-74026000D03*
D21*
X259786000Y-72526000D03*
D22*
X259786000Y-75526000D03*
X256786000Y-72526000D03*
X256786000Y-75526000D03*
D37*
X189055000Y-64628000D03*
X186515000Y-64628000D03*
X183975000Y-64628000D03*
X181435000Y-64628000D03*
X189055000Y-92568000D03*
X186515000Y-92568000D03*
X183975000Y-92568000D03*
X181435000Y-92568000D03*
D34*
X141051500Y-87742000D03*
X146126500Y-87742000D03*
M02*
