M48
; DRILL file {KiCad 6.0.1-79c1e3a40b~116~ubuntu18.04.1} date Wed Feb  9 11:31:27 2022
; FORMAT={-:-/ absolute / metric / decimal}
; #@! TF.CreationDate,2022-02-09T11:31:27+08:00
; #@! TF.GenerationSoftware,Kicad,Pcbnew,6.0.1-79c1e3a40b~116~ubuntu18.04.1
; #@! TF.FileFunction,Plated,1,2,PTH
FMAT,2
METRIC
; #@! TA.AperFunction,Plated,PTH,ViaDrill
T1C0.400
; #@! TA.AperFunction,Plated,PTH,ComponentDrill
T2C0.762
; #@! TA.AperFunction,Plated,PTH,ComponentDrill
T3C0.800
; #@! TA.AperFunction,Plated,PTH,ComponentDrill
T4C0.890
; #@! TA.AperFunction,Plated,PTH,ComponentDrill
T5C1.000
; #@! TA.AperFunction,Plated,PTH,ComponentDrill
T6C1.020
; #@! TA.AperFunction,Plated,PTH,ComponentDrill
T7C1.570
; #@! TA.AperFunction,Plated,PTH,ComponentDrill
T8C2.750
; #@! TA.AperFunction,Plated,PTH,ViaDrill
T9C3.100
%
G90
G05
T1
X137.112Y-36.18
X137.112Y-42.276
X137.112Y-49.388
X139.144Y-108.316
X139.144Y-112.38
X139.144Y-116.444
X143.208Y-108.316
X143.208Y-112.38
X143.208Y-116.444
X144.224Y-103.744
X147.78Y-108.316
X147.78Y-112.38
X147.78Y-116.444
X151.336Y-101.204
X152.86Y-36.18
X152.86Y-42.276
X152.86Y-49.388
X154.384Y-54.468
X154.384Y-59.04
X154.384Y-63.612
X154.384Y-67.676
X154.384Y-71.74
X154.384Y-75.804
X154.384Y-79.868
X154.384Y-82.916
X154.384Y-85.964
X154.384Y-89.52
X154.384Y-92.568
X154.384Y-95.616
X156.416Y-20.94
X156.416Y-25.512
X156.416Y-30.592
X156.416Y-36.18
X156.416Y-40.752
X156.416Y-45.832
X159.972Y-20.94
X159.972Y-25.512
X159.972Y-30.592
X159.972Y-36.18
X159.972Y-40.752
X159.972Y-45.832
X160.48Y-104.252
X162.512Y-73.264
X165.052Y-105.268
X165.052Y-110.348
X165.052Y-115.428
X166.068Y-46.848
X166.068Y-50.404
X166.068Y-54.976
X166.068Y-60.056
X166.068Y-65.136
X166.576Y-95.616
X167.592Y-69.2
X167.592Y-73.264
X167.592Y-76.82
X167.592Y-80.376
X167.592Y-83.932
X167.592Y-87.488
X170.64Y-54.976
X170.64Y-60.056
X170.64Y-65.136
X170.64Y-103.744
X171.148Y-99.172
X171.656Y-73.264
X171.656Y-76.82
X171.656Y-80.376
X171.656Y-83.932
X171.656Y-87.488
X174.196Y-99.172
X174.704Y-30.592
X174.704Y-103.744
X175.72Y-44.816
X175.72Y-54.468
X175.72Y-73.264
X175.72Y-76.82
X175.72Y-80.376
X175.72Y-83.932
X175.72Y-87.488
X176.228Y-107.3
X177.752Y-30.592
X177.752Y-114.412
X178.768Y-92.568
X178.768Y-95.616
X178.768Y-99.172
X178.768Y-102.728
X178.768Y-107.3
X179.276Y-58.024
X179.276Y-61.072
X179.276Y-68.184
X181.308Y-58.024
X181.308Y-61.072
X182.324Y-95.616
X182.324Y-99.172
X182.324Y-102.728
X183.848Y-44.816
X183.848Y-54.468
X183.848Y-61.072
X186.896Y-30.592
X186.896Y-61.072
X188.42Y-104.76
X188.42Y-107.3
X189.436Y-36.18
X189.944Y-41.768
X189.944Y-114.412
X190.452Y-30.592
X191.468Y-104.76
X191.468Y-107.3
X191.976Y-97.648
X193.5Y-54.468
X193.5Y-62.596
X193.5Y-88.504
X193.5Y-91.552
X195.532Y-36.18
X195.532Y-78.344
X196.04Y-42.276
X196.04Y-104.76
X197.056Y-91.552
X197.056Y-97.14
X197.564Y-57.008
X198.072Y-30.592
X198.072Y-49.896
X200.612Y-32.624
X200.612Y-36.688
X200.612Y-97.14
X201.12Y-104.76
X201.628Y-39.736
X202.136Y-114.412
X204.676Y-104.76
X205.692Y-80.884
X205.692Y-84.44
X206.708Y-31.608
X208.74Y-104.76
X209.248Y-80.884
X209.248Y-87.996
X209.248Y-91.552
X209.248Y-95.108
X211.28Y-31.608
X211.28Y-36.688
X211.28Y-42.276
X211.28Y-86.98
X211.788Y-49.388
X211.788Y-56.5
X211.788Y-68.692
X211.788Y-71.232
X211.788Y-74.28
X212.296Y-63.612
X212.804Y-79.36
X213.312Y-104.76
X213.312Y-106.792
X214.328Y-87.488
X214.328Y-90.536
X214.328Y-95.108
X214.836Y-19.416
X214.836Y-26.02
X215.344Y-53.96
X215.344Y-68.692
X215.344Y-71.232
X215.344Y-114.412
X215.618Y-111.18
X215.852Y-104.76
X216.29Y-111.852
X216.868Y-36.688
X216.868Y-42.276
X221.44Y-19.416
X221.44Y-26.02
X221.44Y-109.332
X221.44Y-111.872
X221.44Y-114.92
X222.456Y-36.688
X222.456Y-42.276
X223.472Y-48.372
X223.472Y-52.436
X223.472Y-56.5
X223.472Y-60.056
X226.012Y-109.332
X226.012Y-111.872
X226.012Y-114.92
X227.028Y-75.296
X227.028Y-78.852
X227.028Y-82.408
X227.028Y-97.648
X230.076Y-39.228
X230.076Y-43.8
X230.076Y-48.372
X230.076Y-52.436
X230.076Y-56.5
X230.076Y-60.056
X230.076Y-63.612
X230.584Y-75.296
X230.584Y-78.852
X230.584Y-82.408
X230.584Y-86.472
X230.584Y-90.028
X230.584Y-93.584
X230.584Y-97.648
X234.14Y-97.648
X234.14Y-100.696
X234.648Y-39.228
X234.648Y-43.8
X235.664Y-19.416
X236.172Y-31.1
X236.172Y-114.92
X236.172Y-117.46
X238.712Y-100.696
X239.728Y-114.92
X239.728Y-117.46
X240.236Y-19.416
X243.792Y-51.42
X243.792Y-55.484
X243.792Y-100.696
X244.3Y-34.148
X244.3Y-62.088
X244.3Y-107.3
X245.316Y-75.296
X245.316Y-79.36
X245.646Y-28.789
X247.856Y-55.484
X247.856Y-59.548
X248.872Y-75.296
X248.872Y-79.36
X248.872Y-83.424
X248.872Y-87.996
X248.872Y-92.06
X248.872Y-100.696
X250.904Y-54.976
X251.412Y-103.236
X251.412Y-106.792
X252.936Y-67.168
X252.936Y-71.232
X252.936Y-75.296
X252.936Y-79.36
X252.936Y-83.424
X252.936Y-87.996
X252.936Y-92.06
X253.952Y-23.988
X253.952Y-28.56
X253.952Y-33.64
X253.952Y-37.196
X253.952Y-45.324
X253.952Y-48.88
X253.952Y-52.436
X253.952Y-55.484
X253.952Y-59.548
X254.46Y-98.664
X254.968Y-106.792
X256.492Y-67.168
X256.492Y-79.36
X257.0Y-41.26
X260.048Y-16.876
X264.112Y-16.876
X264.62Y-30.592
X264.62Y-43.292
X265.128Y-55.484
X265.128Y-67.676
X265.128Y-106.792
X265.636Y-80.376
X265.636Y-94.092
T2
X233.632Y-61.072
X233.886Y-74.661
X236.121Y-42.073
X236.172Y-61.072
X236.375Y-93.66
X236.426Y-74.661
X238.712Y-61.072
X238.763Y-42.073
X238.966Y-74.661
X239.017Y-93.66
X241.252Y-61.072
X241.506Y-74.661
T3
X137.594Y-59.7
X137.718Y-78.7
X138.994Y-59.7
X139.118Y-78.7
X149.786Y-78.7
X149.91Y-59.7
X151.186Y-78.7
X151.31Y-59.7
T4
X234.394Y-109.584
X234.746Y-23.529
X235.41Y-111.364
X235.762Y-25.309
X236.426Y-109.584
X236.778Y-23.529
X237.442Y-111.364
X237.794Y-25.309
X238.458Y-109.584
X238.81Y-23.529
X239.474Y-111.364
X239.826Y-25.309
X240.49Y-109.584
X240.842Y-23.529
X241.506Y-111.364
X241.858Y-25.309
T5
X154.765Y-107.564
X154.765Y-110.104
X154.765Y-112.644
X154.765Y-115.184
X158.956Y-107.564
X158.956Y-110.104
X158.956Y-112.644
X158.956Y-115.184
X165.56Y-39.482
X165.56Y-42.022
X171.275Y-39.482
X171.275Y-42.022
X239.22Y-65.644
X239.22Y-69.708
X241.76Y-65.644
X241.76Y-69.708
T6
X157.432Y-50.165
X157.432Y-52.705
X157.432Y-55.245
X157.432Y-57.785
X157.432Y-60.325
X157.432Y-62.865
X157.432Y-65.405
X157.432Y-67.945
X157.432Y-70.485
X157.432Y-73.025
X157.432Y-75.565
X157.432Y-78.105
X157.432Y-80.645
X157.432Y-83.185
X157.432Y-85.725
X157.432Y-88.265
X157.432Y-90.805
X157.432Y-93.345
X157.432Y-95.885
X159.972Y-50.165
X159.972Y-52.705
X159.972Y-55.245
X159.972Y-57.785
X159.972Y-60.325
X159.972Y-62.865
X159.972Y-65.405
X159.972Y-67.945
X159.972Y-70.485
X159.972Y-73.025
X159.972Y-75.565
X159.972Y-78.105
X159.972Y-80.645
X159.972Y-83.185
X159.972Y-85.725
X159.972Y-88.265
X159.972Y-90.805
X159.972Y-93.345
X159.972Y-95.885
X168.783Y-25.559
X168.783Y-28.559
X170.156Y-107.006
X170.156Y-110.006
X171.783Y-25.559
X171.783Y-28.559
X173.156Y-107.006
X173.156Y-110.006
X180.975Y-25.559
X180.975Y-28.559
X182.221Y-106.922
X182.221Y-109.922
X183.975Y-25.559
X183.975Y-28.559
X185.221Y-106.922
X185.221Y-109.922
X193.167Y-25.559
X193.167Y-28.559
X194.54Y-107.006
X194.54Y-110.006
X196.167Y-25.559
X196.167Y-28.559
X197.54Y-107.006
X197.54Y-110.006
X205.208Y-25.514
X205.208Y-28.514
X207.113Y-107.049
X207.113Y-110.049
X208.208Y-25.514
X208.208Y-28.514
X210.113Y-107.049
X210.113Y-110.049
X218.392Y-50.165
X218.392Y-52.705
X218.392Y-55.245
X218.392Y-57.785
X218.392Y-60.325
X218.392Y-62.865
X218.392Y-65.405
X218.392Y-67.945
X218.392Y-70.485
X218.392Y-73.025
X218.392Y-75.565
X218.392Y-78.105
X218.392Y-80.645
X218.392Y-83.185
X218.392Y-85.725
X218.392Y-88.265
X218.392Y-90.805
X218.392Y-93.345
X218.392Y-95.885
X220.932Y-50.165
X220.932Y-52.705
X220.932Y-55.245
X220.932Y-57.785
X220.932Y-60.325
X220.932Y-62.865
X220.932Y-65.405
X220.932Y-67.945
X220.932Y-70.485
X220.932Y-73.025
X220.932Y-75.565
X220.932Y-78.105
X220.932Y-80.645
X220.932Y-83.185
X220.932Y-85.725
X220.932Y-88.265
X220.932Y-90.805
X220.932Y-93.345
X220.932Y-95.885
X256.786Y-72.526
X256.786Y-75.526
X257.003Y-47.84
X257.003Y-50.84
X257.085Y-85.964
X257.085Y-88.964
X257.13Y-22.186
X257.13Y-25.186
X257.13Y-35.521
X257.13Y-38.521
X257.13Y-60.032
X257.13Y-63.032
X257.212Y-99.299
X257.212Y-102.299
X257.257Y-111.467
X257.257Y-114.467
X259.786Y-72.526
X259.786Y-75.526
X260.003Y-47.84
X260.003Y-50.84
X260.085Y-85.964
X260.085Y-88.964
X260.13Y-22.186
X260.13Y-25.186
X260.13Y-35.521
X260.13Y-38.521
X260.13Y-60.032
X260.13Y-63.032
X260.212Y-99.299
X260.212Y-102.299
X260.257Y-111.467
X260.257Y-114.467
T7
X229.816Y-110.474
X230.176Y-24.419
X246.076Y-110.474
X246.436Y-24.419
T8
X141.948Y-31.879
X149.148Y-31.879
T9
X133.429Y-18.146
X133.429Y-116.571
X252.174Y-18.146
X252.174Y-116.571
T0
M30
