M48
; DRILL file {KiCad 6.0.1-79c1e3a40b~116~ubuntu20.04.1} date Mon Jan 31 22:14:52 2022
; FORMAT={-:-/ absolute / metric / decimal}
; #@! TF.CreationDate,2022-01-31T22:14:52+08:00
; #@! TF.GenerationSoftware,Kicad,Pcbnew,6.0.1-79c1e3a40b~116~ubuntu20.04.1
; #@! TF.FileFunction,NonPlated,1,2,NPTH
FMAT,2
METRIC
; #@! TA.AperFunction,NonPlated,NPTH,ComponentDrill
T1C0.900
; #@! TA.AperFunction,NonPlated,NPTH,ComponentDrill
T2C3.000
; #@! TA.AperFunction,NonPlated,NPTH,ComponentDrill
T3C3.250
%
G90
G05
T2
X170.283Y-21.239
X171.656Y-114.326
X182.475Y-21.239
X183.721Y-114.242
X194.667Y-21.239
X196.04Y-114.326
X206.708Y-21.194
X208.613Y-114.369
X264.106Y-74.026
X264.323Y-49.34
X264.405Y-87.464
X264.45Y-23.686
X264.45Y-37.021
X264.45Y-61.532
X264.532Y-100.799
X264.577Y-112.967
T3
X231.596Y-113.904
X231.956Y-20.989
X244.296Y-113.904
X244.656Y-20.989
T1
X138.109Y-30.661G85X138.109Y-29.761
G05
X151.609Y-30.661G85X151.609Y-29.761
G05
T0
M30
