G04 #@! TF.GenerationSoftware,KiCad,Pcbnew,6.0.1-79c1e3a40b~116~ubuntu20.04.1*
G04 #@! TF.CreationDate,2022-01-31T22:13:55+08:00*
G04 #@! TF.ProjectId,Nucleo_F446_power_can_shield,4e75636c-656f-45f4-9634-34365f706f77,rev?*
G04 #@! TF.SameCoordinates,Original*
G04 #@! TF.FileFunction,Paste,Top*
G04 #@! TF.FilePolarity,Positive*
%FSLAX46Y46*%
G04 Gerber Fmt 4.6, Leading zero omitted, Abs format (unit mm)*
G04 Created by KiCad (PCBNEW 6.0.1-79c1e3a40b~116~ubuntu20.04.1) date 2022-01-31 22:13:55*
%MOMM*%
%LPD*%
G01*
G04 APERTURE LIST*
G04 Aperture macros list*
%AMRoundRect*
0 Rectangle with rounded corners*
0 $1 Rounding radius*
0 $2 $3 $4 $5 $6 $7 $8 $9 X,Y pos of 4 corners*
0 Add a 4 corners polygon primitive as box body*
4,1,4,$2,$3,$4,$5,$6,$7,$8,$9,$2,$3,0*
0 Add four circle primitives for the rounded corners*
1,1,$1+$1,$2,$3*
1,1,$1+$1,$4,$5*
1,1,$1+$1,$6,$7*
1,1,$1+$1,$8,$9*
0 Add four rect primitives between the rounded corners*
20,1,$1+$1,$2,$3,$4,$5,0*
20,1,$1+$1,$4,$5,$6,$7,0*
20,1,$1+$1,$6,$7,$8,$9,0*
20,1,$1+$1,$8,$9,$2,$3,0*%
G04 Aperture macros list end*
G04 #@! TA.AperFunction,Profile*
%ADD10C,0.150000*%
G04 #@! TD*
%ADD11RoundRect,0.250000X-0.550000X1.412500X-0.550000X-1.412500X0.550000X-1.412500X0.550000X1.412500X0*%
%ADD12RoundRect,0.050000X0.840000X-1.950000X0.840000X1.950000X-0.840000X1.950000X-0.840000X-1.950000X0*%
%ADD13RoundRect,0.250000X1.412500X0.550000X-1.412500X0.550000X-1.412500X-0.550000X1.412500X-0.550000X0*%
%ADD14RoundRect,0.250000X-1.412500X-0.550000X1.412500X-0.550000X1.412500X0.550000X-1.412500X0.550000X0*%
%ADD15RoundRect,0.050000X-0.840000X1.950000X-0.840000X-1.950000X0.840000X-1.950000X0.840000X1.950000X0*%
G04 APERTURE END LIST*
D10*
X130176375Y-116702149D02*
G75*
G03*
X133454600Y-119877149I3176626J1D01*
G01*
X266656149Y-119823625D02*
G75*
G03*
X269831149Y-116545400I-1J3176626D01*
G01*
X266372400Y-14971000D02*
X133429000Y-14969375D01*
X269650625Y-18014852D02*
X269831149Y-116545400D01*
X133429000Y-14969376D02*
G75*
G03*
X130254000Y-18247600I-1J-3176624D01*
G01*
X130176375Y-116702149D02*
X130254000Y-18247600D01*
X266656149Y-119823625D02*
X133454600Y-119877149D01*
X269650625Y-18141851D02*
G75*
G03*
X266372400Y-14966851I-3176626J-1D01*
G01*
D11*
X248872000Y-65138500D03*
X248872000Y-70213500D03*
D12*
X200993000Y-72629000D03*
X203533000Y-72629000D03*
X206073000Y-72629000D03*
X208613000Y-72629000D03*
X200993000Y-44689000D03*
X203533000Y-44689000D03*
X206073000Y-44689000D03*
X208613000Y-44689000D03*
D13*
X148031500Y-47356000D03*
X142956500Y-47356000D03*
D14*
X141305500Y-97775000D03*
X146380500Y-97775000D03*
D15*
X189055000Y-64628000D03*
X186515000Y-64628000D03*
X183975000Y-64628000D03*
X181435000Y-64628000D03*
X189055000Y-92568000D03*
X186515000Y-92568000D03*
X183975000Y-92568000D03*
X181435000Y-92568000D03*
D14*
X141051500Y-87742000D03*
X146126500Y-87742000D03*
M02*
