G04 #@! TF.GenerationSoftware,KiCad,Pcbnew,6.0.2-378541a8eb~116~ubuntu18.04.1*
G04 #@! TF.CreationDate,2022-02-21T15:39:08+08:00*
G04 #@! TF.ProjectId,arduino_can_bus_shield,61726475-696e-46f5-9f63-616e5f627573,rev?*
G04 #@! TF.SameCoordinates,Original*
G04 #@! TF.FileFunction,Paste,Top*
G04 #@! TF.FilePolarity,Positive*
%FSLAX46Y46*%
G04 Gerber Fmt 4.6, Leading zero omitted, Abs format (unit mm)*
G04 Created by KiCad (PCBNEW 6.0.2-378541a8eb~116~ubuntu18.04.1) date 2022-02-21 15:39:08*
%MOMM*%
%LPD*%
G01*
G04 APERTURE LIST*
G04 Aperture macros list*
%AMRoundRect*
0 Rectangle with rounded corners*
0 $1 Rounding radius*
0 $2 $3 $4 $5 $6 $7 $8 $9 X,Y pos of 4 corners*
0 Add a 4 corners polygon primitive as box body*
4,1,4,$2,$3,$4,$5,$6,$7,$8,$9,$2,$3,0*
0 Add four circle primitives for the rounded corners*
1,1,$1+$1,$2,$3*
1,1,$1+$1,$4,$5*
1,1,$1+$1,$6,$7*
1,1,$1+$1,$8,$9*
0 Add four rect primitives between the rounded corners*
20,1,$1+$1,$2,$3,$4,$5,0*
20,1,$1+$1,$4,$5,$6,$7,0*
20,1,$1+$1,$6,$7,$8,$9,0*
20,1,$1+$1,$8,$9,$2,$3,0*%
G04 Aperture macros list end*
%ADD10RoundRect,0.250000X-0.350000X-0.450000X0.350000X-0.450000X0.350000X0.450000X-0.350000X0.450000X0*%
%ADD11RoundRect,0.250000X0.475000X-0.337500X0.475000X0.337500X-0.475000X0.337500X-0.475000X-0.337500X0*%
%ADD12RoundRect,0.250000X0.350000X0.450000X-0.350000X0.450000X-0.350000X-0.450000X0.350000X-0.450000X0*%
%ADD13RoundRect,0.250000X0.337500X0.475000X-0.337500X0.475000X-0.337500X-0.475000X0.337500X-0.475000X0*%
%ADD14RoundRect,0.250000X-0.337500X-0.475000X0.337500X-0.475000X0.337500X0.475000X-0.337500X0.475000X0*%
%ADD15RoundRect,0.250000X0.325000X0.450000X-0.325000X0.450000X-0.325000X-0.450000X0.325000X-0.450000X0*%
%ADD16RoundRect,0.100000X-0.637500X-0.100000X0.637500X-0.100000X0.637500X0.100000X-0.637500X0.100000X0*%
%ADD17RoundRect,0.250000X-0.450000X0.350000X-0.450000X-0.350000X0.450000X-0.350000X0.450000X0.350000X0*%
%ADD18R,1.550000X1.300000*%
%ADD19RoundRect,0.150000X-0.825000X-0.150000X0.825000X-0.150000X0.825000X0.150000X-0.825000X0.150000X0*%
G04 APERTURE END LIST*
D10*
X119142000Y-83693000D03*
X121142000Y-83693000D03*
D11*
X141605000Y-103907500D03*
X141605000Y-101832500D03*
D12*
X147812000Y-92075000D03*
X145812000Y-92075000D03*
D13*
X125476000Y-92075000D03*
X123401000Y-92075000D03*
D14*
X145774500Y-89662000D03*
X147849500Y-89662000D03*
D15*
X121167000Y-81280000D03*
X119117000Y-81280000D03*
D16*
X135821500Y-91436000D03*
X135821500Y-92086000D03*
X135821500Y-92736000D03*
X135821500Y-93386000D03*
X135821500Y-94036000D03*
X135821500Y-94686000D03*
X135821500Y-95336000D03*
X135821500Y-95986000D03*
X135821500Y-96636000D03*
X135821500Y-97286000D03*
X141546500Y-97286000D03*
X141546500Y-96636000D03*
X141546500Y-95986000D03*
X141546500Y-95336000D03*
X141546500Y-94686000D03*
X141546500Y-94036000D03*
X141546500Y-93386000D03*
X141546500Y-92736000D03*
X141546500Y-92086000D03*
X141546500Y-91436000D03*
D17*
X130092000Y-105696000D03*
X130092000Y-107696000D03*
D18*
X157899000Y-84292000D03*
X149949000Y-84292000D03*
X149949000Y-79792000D03*
X157899000Y-79792000D03*
D19*
X145734000Y-100838000D03*
X145734000Y-102108000D03*
X145734000Y-103378000D03*
X145734000Y-104648000D03*
X150684000Y-104648000D03*
X150684000Y-103378000D03*
X150684000Y-102108000D03*
X150684000Y-100838000D03*
D13*
X125730000Y-101346000D03*
X123655000Y-101346000D03*
D10*
X145955000Y-97028000D03*
X147955000Y-97028000D03*
X145812000Y-87122000D03*
X147812000Y-87122000D03*
M02*
