G04 #@! TF.GenerationSoftware,KiCad,Pcbnew,6.0.2-378541a8eb~116~ubuntu18.04.1*
G04 #@! TF.CreationDate,2022-02-22T15:18:20+08:00*
G04 #@! TF.ProjectId,arduino_can_bus_shield,61726475-696e-46f5-9f63-616e5f627573,rev?*
G04 #@! TF.SameCoordinates,Original*
G04 #@! TF.FileFunction,Legend,Top*
G04 #@! TF.FilePolarity,Positive*
%FSLAX46Y46*%
G04 Gerber Fmt 4.6, Leading zero omitted, Abs format (unit mm)*
G04 Created by KiCad (PCBNEW 6.0.2-378541a8eb~116~ubuntu18.04.1) date 2022-02-22 15:18:20*
%MOMM*%
%LPD*%
G01*
G04 APERTURE LIST*
G04 Aperture macros list*
%AMRoundRect*
0 Rectangle with rounded corners*
0 $1 Rounding radius*
0 $2 $3 $4 $5 $6 $7 $8 $9 X,Y pos of 4 corners*
0 Add a 4 corners polygon primitive as box body*
4,1,4,$2,$3,$4,$5,$6,$7,$8,$9,$2,$3,0*
0 Add four circle primitives for the rounded corners*
1,1,$1+$1,$2,$3*
1,1,$1+$1,$4,$5*
1,1,$1+$1,$6,$7*
1,1,$1+$1,$8,$9*
0 Add four rect primitives between the rounded corners*
20,1,$1+$1,$2,$3,$4,$5,0*
20,1,$1+$1,$4,$5,$6,$7,0*
20,1,$1+$1,$6,$7,$8,$9,0*
20,1,$1+$1,$8,$9,$2,$3,0*%
G04 Aperture macros list end*
%ADD10C,0.150000*%
%ADD11C,0.120000*%
%ADD12O,2.032000X1.727200*%
%ADD13R,1.700000X1.700000*%
%ADD14O,1.700000X1.700000*%
%ADD15RoundRect,0.250000X-0.350000X-0.450000X0.350000X-0.450000X0.350000X0.450000X-0.350000X0.450000X0*%
%ADD16RoundRect,0.250000X0.475000X-0.337500X0.475000X0.337500X-0.475000X0.337500X-0.475000X-0.337500X0*%
%ADD17RoundRect,0.250000X0.350000X0.450000X-0.350000X0.450000X-0.350000X-0.450000X0.350000X-0.450000X0*%
%ADD18RoundRect,0.250000X0.337500X0.475000X-0.337500X0.475000X-0.337500X-0.475000X0.337500X-0.475000X0*%
%ADD19RoundRect,0.250000X-0.337500X-0.475000X0.337500X-0.475000X0.337500X0.475000X-0.337500X0.475000X0*%
%ADD20RoundRect,0.250000X0.325000X0.450000X-0.325000X0.450000X-0.325000X-0.450000X0.325000X-0.450000X0*%
%ADD21C,1.500000*%
%ADD22RoundRect,0.100000X-0.637500X-0.100000X0.637500X-0.100000X0.637500X0.100000X-0.637500X0.100000X0*%
%ADD23C,3.000000*%
%ADD24RoundRect,0.250001X0.499999X0.499999X-0.499999X0.499999X-0.499999X-0.499999X0.499999X-0.499999X0*%
%ADD25RoundRect,0.250000X-0.450000X0.350000X-0.450000X-0.350000X0.450000X-0.350000X0.450000X0.350000X0*%
%ADD26R,1.550000X1.300000*%
%ADD27RoundRect,0.150000X-0.825000X-0.150000X0.825000X-0.150000X0.825000X0.150000X-0.825000X0.150000X0*%
G04 APERTURE END LIST*
D10*
X153726761Y-121239380D02*
X153393428Y-120763190D01*
X153155333Y-121239380D02*
X153155333Y-120239380D01*
X153536285Y-120239380D01*
X153631523Y-120287000D01*
X153679142Y-120334619D01*
X153726761Y-120429857D01*
X153726761Y-120572714D01*
X153679142Y-120667952D01*
X153631523Y-120715571D01*
X153536285Y-120763190D01*
X153155333Y-120763190D01*
X154060095Y-121239380D02*
X154583904Y-120572714D01*
X154060095Y-120572714D02*
X154583904Y-121239380D01*
X153004523Y-117699380D02*
X153575952Y-117699380D01*
X153290238Y-118699380D02*
X153290238Y-117699380D01*
X153814047Y-118699380D02*
X154337857Y-118032714D01*
X153814047Y-118032714D02*
X154337857Y-118699380D01*
X122690142Y-89590619D02*
X122737761Y-89543000D01*
X122833000Y-89495380D01*
X123071095Y-89495380D01*
X123166333Y-89543000D01*
X123213952Y-89590619D01*
X123261571Y-89685857D01*
X123261571Y-89781095D01*
X123213952Y-89923952D01*
X122642523Y-90495380D01*
X123261571Y-90495380D01*
X123642523Y-89590619D02*
X123690142Y-89543000D01*
X123785380Y-89495380D01*
X124023476Y-89495380D01*
X124118714Y-89543000D01*
X124166333Y-89590619D01*
X124213952Y-89685857D01*
X124213952Y-89781095D01*
X124166333Y-89923952D01*
X123594904Y-90495380D01*
X124213952Y-90495380D01*
X124642523Y-89828714D02*
X124642523Y-90828714D01*
X124642523Y-89876333D02*
X124737761Y-89828714D01*
X124928238Y-89828714D01*
X125023476Y-89876333D01*
X125071095Y-89923952D01*
X125118714Y-90019190D01*
X125118714Y-90304904D01*
X125071095Y-90400142D01*
X125023476Y-90447761D01*
X124928238Y-90495380D01*
X124737761Y-90495380D01*
X124642523Y-90447761D01*
X125880619Y-89971571D02*
X125547285Y-89971571D01*
X125547285Y-90495380D02*
X125547285Y-89495380D01*
X126023476Y-89495380D01*
X135318904Y-99004380D02*
X135318904Y-98004380D01*
X135652238Y-98718666D01*
X135985571Y-98004380D01*
X135985571Y-99004380D01*
X137033190Y-98909142D02*
X136985571Y-98956761D01*
X136842714Y-99004380D01*
X136747476Y-99004380D01*
X136604619Y-98956761D01*
X136509380Y-98861523D01*
X136461761Y-98766285D01*
X136414142Y-98575809D01*
X136414142Y-98432952D01*
X136461761Y-98242476D01*
X136509380Y-98147238D01*
X136604619Y-98052000D01*
X136747476Y-98004380D01*
X136842714Y-98004380D01*
X136985571Y-98052000D01*
X137033190Y-98099619D01*
X137461761Y-99004380D02*
X137461761Y-98004380D01*
X137842714Y-98004380D01*
X137937952Y-98052000D01*
X137985571Y-98099619D01*
X138033190Y-98194857D01*
X138033190Y-98337714D01*
X137985571Y-98432952D01*
X137937952Y-98480571D01*
X137842714Y-98528190D01*
X137461761Y-98528190D01*
X138414142Y-98099619D02*
X138461761Y-98052000D01*
X138557000Y-98004380D01*
X138795095Y-98004380D01*
X138890333Y-98052000D01*
X138937952Y-98099619D01*
X138985571Y-98194857D01*
X138985571Y-98290095D01*
X138937952Y-98432952D01*
X138366523Y-99004380D01*
X138985571Y-99004380D01*
X139890333Y-98004380D02*
X139414142Y-98004380D01*
X139366523Y-98480571D01*
X139414142Y-98432952D01*
X139509380Y-98385333D01*
X139747476Y-98385333D01*
X139842714Y-98432952D01*
X139890333Y-98480571D01*
X139937952Y-98575809D01*
X139937952Y-98813904D01*
X139890333Y-98909142D01*
X139842714Y-98956761D01*
X139747476Y-99004380D01*
X139509380Y-99004380D01*
X139414142Y-98956761D01*
X139366523Y-98909142D01*
X140890333Y-99004380D02*
X140318904Y-99004380D01*
X140604619Y-99004380D02*
X140604619Y-98004380D01*
X140509380Y-98147238D01*
X140414142Y-98242476D01*
X140318904Y-98290095D01*
X141795095Y-98004380D02*
X141318904Y-98004380D01*
X141271285Y-98480571D01*
X141318904Y-98432952D01*
X141414142Y-98385333D01*
X141652238Y-98385333D01*
X141747476Y-98432952D01*
X141795095Y-98480571D01*
X141842714Y-98575809D01*
X141842714Y-98813904D01*
X141795095Y-98909142D01*
X141747476Y-98956761D01*
X141652238Y-99004380D01*
X141414142Y-99004380D01*
X141318904Y-98956761D01*
X141271285Y-98909142D01*
X153679142Y-122906380D02*
X153202952Y-122906380D01*
X153155333Y-123382571D01*
X153202952Y-123334952D01*
X153298190Y-123287333D01*
X153536285Y-123287333D01*
X153631523Y-123334952D01*
X153679142Y-123382571D01*
X153726761Y-123477809D01*
X153726761Y-123715904D01*
X153679142Y-123811142D01*
X153631523Y-123858761D01*
X153536285Y-123906380D01*
X153298190Y-123906380D01*
X153202952Y-123858761D01*
X153155333Y-123811142D01*
X154060095Y-123239714D02*
X154298190Y-123906380D01*
X154536285Y-123239714D01*
X128849380Y-107346666D02*
X128849380Y-107918095D01*
X128849380Y-107632380D02*
X127849380Y-107632380D01*
X127992238Y-107727619D01*
X128087476Y-107822857D01*
X128135095Y-107918095D01*
X127944619Y-106965714D02*
X127897000Y-106918095D01*
X127849380Y-106822857D01*
X127849380Y-106584761D01*
X127897000Y-106489523D01*
X127944619Y-106441904D01*
X128039857Y-106394285D01*
X128135095Y-106394285D01*
X128277952Y-106441904D01*
X128849380Y-107013333D01*
X128849380Y-106394285D01*
X127849380Y-105775238D02*
X127849380Y-105680000D01*
X127897000Y-105584761D01*
X127944619Y-105537142D01*
X128039857Y-105489523D01*
X128230333Y-105441904D01*
X128468428Y-105441904D01*
X128658904Y-105489523D01*
X128754142Y-105537142D01*
X128801761Y-105584761D01*
X128849380Y-105680000D01*
X128849380Y-105775238D01*
X128801761Y-105870476D01*
X128754142Y-105918095D01*
X128658904Y-105965714D01*
X128468428Y-106013333D01*
X128230333Y-106013333D01*
X128039857Y-105965714D01*
X127944619Y-105918095D01*
X127897000Y-105870476D01*
X127849380Y-105775238D01*
X123404523Y-96972380D02*
X122833095Y-96972380D01*
X123118809Y-96972380D02*
X123118809Y-95972380D01*
X123023571Y-96115238D01*
X122928333Y-96210476D01*
X122833095Y-96258095D01*
X124261666Y-95972380D02*
X124071190Y-95972380D01*
X123975952Y-96020000D01*
X123928333Y-96067619D01*
X123833095Y-96210476D01*
X123785476Y-96400952D01*
X123785476Y-96781904D01*
X123833095Y-96877142D01*
X123880714Y-96924761D01*
X123975952Y-96972380D01*
X124166428Y-96972380D01*
X124261666Y-96924761D01*
X124309285Y-96877142D01*
X124356904Y-96781904D01*
X124356904Y-96543809D01*
X124309285Y-96448571D01*
X124261666Y-96400952D01*
X124166428Y-96353333D01*
X123975952Y-96353333D01*
X123880714Y-96400952D01*
X123833095Y-96448571D01*
X123785476Y-96543809D01*
X124785476Y-96972380D02*
X124785476Y-95972380D01*
X125118809Y-96686666D01*
X125452142Y-95972380D01*
X125452142Y-96972380D01*
X125928333Y-96972380D02*
X125928333Y-95972380D01*
X125928333Y-96448571D02*
X126499761Y-96448571D01*
X126499761Y-96972380D02*
X126499761Y-95972380D01*
X126880714Y-96305714D02*
X127404523Y-96305714D01*
X126880714Y-96972380D01*
X127404523Y-96972380D01*
X124516952Y-84789666D02*
X124993142Y-84789666D01*
X124421714Y-85075380D02*
X124755047Y-84075380D01*
X125088380Y-85075380D01*
X125421714Y-85075380D02*
X125421714Y-84408714D01*
X125421714Y-84599190D02*
X125469333Y-84503952D01*
X125516952Y-84456333D01*
X125612190Y-84408714D01*
X125707428Y-84408714D01*
X126469333Y-85075380D02*
X126469333Y-84075380D01*
X126469333Y-85027761D02*
X126374095Y-85075380D01*
X126183619Y-85075380D01*
X126088380Y-85027761D01*
X126040761Y-84980142D01*
X125993142Y-84884904D01*
X125993142Y-84599190D01*
X126040761Y-84503952D01*
X126088380Y-84456333D01*
X126183619Y-84408714D01*
X126374095Y-84408714D01*
X126469333Y-84456333D01*
X127374095Y-84408714D02*
X127374095Y-85075380D01*
X126945523Y-84408714D02*
X126945523Y-84932523D01*
X126993142Y-85027761D01*
X127088380Y-85075380D01*
X127231238Y-85075380D01*
X127326476Y-85027761D01*
X127374095Y-84980142D01*
X127850285Y-85075380D02*
X127850285Y-84408714D01*
X127850285Y-84075380D02*
X127802666Y-84123000D01*
X127850285Y-84170619D01*
X127897904Y-84123000D01*
X127850285Y-84075380D01*
X127850285Y-84170619D01*
X128326476Y-84408714D02*
X128326476Y-85075380D01*
X128326476Y-84503952D02*
X128374095Y-84456333D01*
X128469333Y-84408714D01*
X128612190Y-84408714D01*
X128707428Y-84456333D01*
X128755047Y-84551571D01*
X128755047Y-85075380D01*
X129374095Y-85075380D02*
X129278857Y-85027761D01*
X129231238Y-84980142D01*
X129183619Y-84884904D01*
X129183619Y-84599190D01*
X129231238Y-84503952D01*
X129278857Y-84456333D01*
X129374095Y-84408714D01*
X129516952Y-84408714D01*
X129612190Y-84456333D01*
X129659809Y-84503952D01*
X129707428Y-84599190D01*
X129707428Y-84884904D01*
X129659809Y-84980142D01*
X129612190Y-85027761D01*
X129516952Y-85075380D01*
X129374095Y-85075380D01*
X131469333Y-84980142D02*
X131421714Y-85027761D01*
X131278857Y-85075380D01*
X131183619Y-85075380D01*
X131040761Y-85027761D01*
X130945523Y-84932523D01*
X130897904Y-84837285D01*
X130850285Y-84646809D01*
X130850285Y-84503952D01*
X130897904Y-84313476D01*
X130945523Y-84218238D01*
X131040761Y-84123000D01*
X131183619Y-84075380D01*
X131278857Y-84075380D01*
X131421714Y-84123000D01*
X131469333Y-84170619D01*
X131850285Y-84789666D02*
X132326476Y-84789666D01*
X131755047Y-85075380D02*
X132088380Y-84075380D01*
X132421714Y-85075380D01*
X132755047Y-85075380D02*
X132755047Y-84075380D01*
X133326476Y-85075380D01*
X133326476Y-84075380D01*
X133802666Y-84694428D02*
X134564571Y-84694428D01*
X135374095Y-84551571D02*
X135516952Y-84599190D01*
X135564571Y-84646809D01*
X135612190Y-84742047D01*
X135612190Y-84884904D01*
X135564571Y-84980142D01*
X135516952Y-85027761D01*
X135421714Y-85075380D01*
X135040761Y-85075380D01*
X135040761Y-84075380D01*
X135374095Y-84075380D01*
X135469333Y-84123000D01*
X135516952Y-84170619D01*
X135564571Y-84265857D01*
X135564571Y-84361095D01*
X135516952Y-84456333D01*
X135469333Y-84503952D01*
X135374095Y-84551571D01*
X135040761Y-84551571D01*
X136040761Y-84075380D02*
X136040761Y-84884904D01*
X136088380Y-84980142D01*
X136136000Y-85027761D01*
X136231238Y-85075380D01*
X136421714Y-85075380D01*
X136516952Y-85027761D01*
X136564571Y-84980142D01*
X136612190Y-84884904D01*
X136612190Y-84075380D01*
X137040761Y-85027761D02*
X137183619Y-85075380D01*
X137421714Y-85075380D01*
X137516952Y-85027761D01*
X137564571Y-84980142D01*
X137612190Y-84884904D01*
X137612190Y-84789666D01*
X137564571Y-84694428D01*
X137516952Y-84646809D01*
X137421714Y-84599190D01*
X137231238Y-84551571D01*
X137136000Y-84503952D01*
X137088380Y-84456333D01*
X137040761Y-84361095D01*
X137040761Y-84265857D01*
X137088380Y-84170619D01*
X137136000Y-84123000D01*
X137231238Y-84075380D01*
X137469333Y-84075380D01*
X137612190Y-84123000D01*
X138755047Y-85027761D02*
X138850285Y-85075380D01*
X139040761Y-85075380D01*
X139136000Y-85027761D01*
X139183619Y-84932523D01*
X139183619Y-84884904D01*
X139136000Y-84789666D01*
X139040761Y-84742047D01*
X138897904Y-84742047D01*
X138802666Y-84694428D01*
X138755047Y-84599190D01*
X138755047Y-84551571D01*
X138802666Y-84456333D01*
X138897904Y-84408714D01*
X139040761Y-84408714D01*
X139136000Y-84456333D01*
X139612190Y-85075380D02*
X139612190Y-84075380D01*
X140040761Y-85075380D02*
X140040761Y-84551571D01*
X139993142Y-84456333D01*
X139897904Y-84408714D01*
X139755047Y-84408714D01*
X139659809Y-84456333D01*
X139612190Y-84503952D01*
X140516952Y-85075380D02*
X140516952Y-84408714D01*
X140516952Y-84075380D02*
X140469333Y-84123000D01*
X140516952Y-84170619D01*
X140564571Y-84123000D01*
X140516952Y-84075380D01*
X140516952Y-84170619D01*
X141374095Y-85027761D02*
X141278857Y-85075380D01*
X141088380Y-85075380D01*
X140993142Y-85027761D01*
X140945523Y-84932523D01*
X140945523Y-84551571D01*
X140993142Y-84456333D01*
X141088380Y-84408714D01*
X141278857Y-84408714D01*
X141374095Y-84456333D01*
X141421714Y-84551571D01*
X141421714Y-84646809D01*
X140945523Y-84742047D01*
X141993142Y-85075380D02*
X141897904Y-85027761D01*
X141850285Y-84932523D01*
X141850285Y-84075380D01*
X142802666Y-85075380D02*
X142802666Y-84075380D01*
X142802666Y-85027761D02*
X142707428Y-85075380D01*
X142516952Y-85075380D01*
X142421714Y-85027761D01*
X142374095Y-84980142D01*
X142326476Y-84884904D01*
X142326476Y-84599190D01*
X142374095Y-84503952D01*
X142421714Y-84456333D01*
X142516952Y-84408714D01*
X142707428Y-84408714D01*
X142802666Y-84456333D01*
X143945523Y-84408714D02*
X144183619Y-85075380D01*
X144421714Y-84408714D01*
X145326476Y-85075380D02*
X144755047Y-85075380D01*
X145040761Y-85075380D02*
X145040761Y-84075380D01*
X144945523Y-84218238D01*
X144850285Y-84313476D01*
X144755047Y-84361095D01*
X145755047Y-84980142D02*
X145802666Y-85027761D01*
X145755047Y-85075380D01*
X145707428Y-85027761D01*
X145755047Y-84980142D01*
X145755047Y-85075380D01*
X146421714Y-84075380D02*
X146516952Y-84075380D01*
X146612190Y-84123000D01*
X146659809Y-84170619D01*
X146707428Y-84265857D01*
X146755047Y-84456333D01*
X146755047Y-84694428D01*
X146707428Y-84884904D01*
X146659809Y-84980142D01*
X146612190Y-85027761D01*
X146516952Y-85075380D01*
X146421714Y-85075380D01*
X146326476Y-85027761D01*
X146278857Y-84980142D01*
X146231238Y-84884904D01*
X146183619Y-84694428D01*
X146183619Y-84456333D01*
X146231238Y-84265857D01*
X146278857Y-84170619D01*
X146326476Y-84123000D01*
X146421714Y-84075380D01*
X131255047Y-85780619D02*
X131302666Y-85733000D01*
X131397904Y-85685380D01*
X131636000Y-85685380D01*
X131731238Y-85733000D01*
X131778857Y-85780619D01*
X131826476Y-85875857D01*
X131826476Y-85971095D01*
X131778857Y-86113952D01*
X131207428Y-86685380D01*
X131826476Y-86685380D01*
X132445523Y-85685380D02*
X132540761Y-85685380D01*
X132636000Y-85733000D01*
X132683619Y-85780619D01*
X132731238Y-85875857D01*
X132778857Y-86066333D01*
X132778857Y-86304428D01*
X132731238Y-86494904D01*
X132683619Y-86590142D01*
X132636000Y-86637761D01*
X132540761Y-86685380D01*
X132445523Y-86685380D01*
X132350285Y-86637761D01*
X132302666Y-86590142D01*
X132255047Y-86494904D01*
X132207428Y-86304428D01*
X132207428Y-86066333D01*
X132255047Y-85875857D01*
X132302666Y-85780619D01*
X132350285Y-85733000D01*
X132445523Y-85685380D01*
X133159809Y-85780619D02*
X133207428Y-85733000D01*
X133302666Y-85685380D01*
X133540761Y-85685380D01*
X133636000Y-85733000D01*
X133683619Y-85780619D01*
X133731238Y-85875857D01*
X133731238Y-85971095D01*
X133683619Y-86113952D01*
X133112190Y-86685380D01*
X133731238Y-86685380D01*
X134112190Y-85780619D02*
X134159809Y-85733000D01*
X134255047Y-85685380D01*
X134493142Y-85685380D01*
X134588380Y-85733000D01*
X134636000Y-85780619D01*
X134683619Y-85875857D01*
X134683619Y-85971095D01*
X134636000Y-86113952D01*
X134064571Y-86685380D01*
X134683619Y-86685380D01*
X135112190Y-86304428D02*
X135874095Y-86304428D01*
X136874095Y-86685380D02*
X136302666Y-86685380D01*
X136588380Y-86685380D02*
X136588380Y-85685380D01*
X136493142Y-85828238D01*
X136397904Y-85923476D01*
X136302666Y-85971095D01*
X137302666Y-86304428D02*
X138064571Y-86304428D01*
X138445523Y-85685380D02*
X139064571Y-85685380D01*
X138731238Y-86066333D01*
X138874095Y-86066333D01*
X138969333Y-86113952D01*
X139016952Y-86161571D01*
X139064571Y-86256809D01*
X139064571Y-86494904D01*
X139016952Y-86590142D01*
X138969333Y-86637761D01*
X138874095Y-86685380D01*
X138588380Y-86685380D01*
X138493142Y-86637761D01*
X138445523Y-86590142D01*
X139683619Y-85685380D02*
X139778857Y-85685380D01*
X139874095Y-85733000D01*
X139921714Y-85780619D01*
X139969333Y-85875857D01*
X140016952Y-86066333D01*
X140016952Y-86304428D01*
X139969333Y-86494904D01*
X139921714Y-86590142D01*
X139874095Y-86637761D01*
X139778857Y-86685380D01*
X139683619Y-86685380D01*
X139588380Y-86637761D01*
X139540761Y-86590142D01*
X139493142Y-86494904D01*
X139445523Y-86304428D01*
X139445523Y-86066333D01*
X139493142Y-85875857D01*
X139540761Y-85780619D01*
X139588380Y-85733000D01*
X139683619Y-85685380D01*
X130683619Y-88247761D02*
X130826476Y-88295380D01*
X131064571Y-88295380D01*
X131159809Y-88247761D01*
X131207428Y-88200142D01*
X131255047Y-88104904D01*
X131255047Y-88009666D01*
X131207428Y-87914428D01*
X131159809Y-87866809D01*
X131064571Y-87819190D01*
X130874095Y-87771571D01*
X130778857Y-87723952D01*
X130731238Y-87676333D01*
X130683619Y-87581095D01*
X130683619Y-87485857D01*
X130731238Y-87390619D01*
X130778857Y-87343000D01*
X130874095Y-87295380D01*
X131112190Y-87295380D01*
X131255047Y-87343000D01*
X132112190Y-88295380D02*
X132112190Y-87771571D01*
X132064571Y-87676333D01*
X131969333Y-87628714D01*
X131778857Y-87628714D01*
X131683619Y-87676333D01*
X132112190Y-88247761D02*
X132016952Y-88295380D01*
X131778857Y-88295380D01*
X131683619Y-88247761D01*
X131636000Y-88152523D01*
X131636000Y-88057285D01*
X131683619Y-87962047D01*
X131778857Y-87914428D01*
X132016952Y-87914428D01*
X132112190Y-87866809D01*
X132588380Y-88295380D02*
X132588380Y-87628714D01*
X132588380Y-87723952D02*
X132636000Y-87676333D01*
X132731238Y-87628714D01*
X132874095Y-87628714D01*
X132969333Y-87676333D01*
X133016952Y-87771571D01*
X133016952Y-88295380D01*
X133016952Y-87771571D02*
X133064571Y-87676333D01*
X133159809Y-87628714D01*
X133302666Y-87628714D01*
X133397904Y-87676333D01*
X133445523Y-87771571D01*
X133445523Y-88295380D01*
X133874095Y-88247761D02*
X133969333Y-88295380D01*
X134159809Y-88295380D01*
X134255047Y-88247761D01*
X134302666Y-88152523D01*
X134302666Y-88104904D01*
X134255047Y-88009666D01*
X134159809Y-87962047D01*
X134016952Y-87962047D01*
X133921714Y-87914428D01*
X133874095Y-87819190D01*
X133874095Y-87771571D01*
X133921714Y-87676333D01*
X134016952Y-87628714D01*
X134159809Y-87628714D01*
X134255047Y-87676333D01*
X134874095Y-88295380D02*
X134778857Y-88247761D01*
X134731238Y-88200142D01*
X134683619Y-88104904D01*
X134683619Y-87819190D01*
X134731238Y-87723952D01*
X134778857Y-87676333D01*
X134874095Y-87628714D01*
X135016952Y-87628714D01*
X135112190Y-87676333D01*
X135159809Y-87723952D01*
X135207428Y-87819190D01*
X135207428Y-88104904D01*
X135159809Y-88200142D01*
X135112190Y-88247761D01*
X135016952Y-88295380D01*
X134874095Y-88295380D01*
X135636000Y-87628714D02*
X135636000Y-88295380D01*
X135636000Y-87723952D02*
X135683619Y-87676333D01*
X135778857Y-87628714D01*
X135921714Y-87628714D01*
X136016952Y-87676333D01*
X136064571Y-87771571D01*
X136064571Y-88295380D01*
X137874095Y-88200142D02*
X137826476Y-88247761D01*
X137683619Y-88295380D01*
X137588380Y-88295380D01*
X137445523Y-88247761D01*
X137350285Y-88152523D01*
X137302666Y-88057285D01*
X137255047Y-87866809D01*
X137255047Y-87723952D01*
X137302666Y-87533476D01*
X137350285Y-87438238D01*
X137445523Y-87343000D01*
X137588380Y-87295380D01*
X137683619Y-87295380D01*
X137826476Y-87343000D01*
X137874095Y-87390619D01*
X138302666Y-88295380D02*
X138302666Y-87295380D01*
X138731238Y-88295380D02*
X138731238Y-87771571D01*
X138683619Y-87676333D01*
X138588380Y-87628714D01*
X138445523Y-87628714D01*
X138350285Y-87676333D01*
X138302666Y-87723952D01*
X139636000Y-88295380D02*
X139636000Y-87771571D01*
X139588380Y-87676333D01*
X139493142Y-87628714D01*
X139302666Y-87628714D01*
X139207428Y-87676333D01*
X139636000Y-88247761D02*
X139540761Y-88295380D01*
X139302666Y-88295380D01*
X139207428Y-88247761D01*
X139159809Y-88152523D01*
X139159809Y-88057285D01*
X139207428Y-87962047D01*
X139302666Y-87914428D01*
X139540761Y-87914428D01*
X139636000Y-87866809D01*
X140540761Y-87628714D02*
X140540761Y-88295380D01*
X140112190Y-87628714D02*
X140112190Y-88152523D01*
X140159809Y-88247761D01*
X140255047Y-88295380D01*
X140397904Y-88295380D01*
X140493142Y-88247761D01*
X140540761Y-88200142D01*
X153670095Y-115324000D02*
X153574857Y-115276380D01*
X153432000Y-115276380D01*
X153289142Y-115324000D01*
X153193904Y-115419238D01*
X153146285Y-115514476D01*
X153098666Y-115704952D01*
X153098666Y-115847809D01*
X153146285Y-116038285D01*
X153193904Y-116133523D01*
X153289142Y-116228761D01*
X153432000Y-116276380D01*
X153527238Y-116276380D01*
X153670095Y-116228761D01*
X153717714Y-116181142D01*
X153717714Y-115847809D01*
X153527238Y-115847809D01*
X154146285Y-116276380D02*
X154146285Y-115276380D01*
X154717714Y-116276380D01*
X154717714Y-115276380D01*
X155193904Y-116276380D02*
X155193904Y-115276380D01*
X155432000Y-115276380D01*
X155574857Y-115324000D01*
X155670095Y-115419238D01*
X155717714Y-115514476D01*
X155765333Y-115704952D01*
X155765333Y-115847809D01*
X155717714Y-116038285D01*
X155670095Y-116133523D01*
X155574857Y-116228761D01*
X155432000Y-116276380D01*
X155193904Y-116276380D01*
X149534761Y-112609380D02*
X149534761Y-113418904D01*
X149582380Y-113514142D01*
X149630000Y-113561761D01*
X149725238Y-113609380D01*
X149915714Y-113609380D01*
X150010952Y-113561761D01*
X150058571Y-113514142D01*
X150106190Y-113418904D01*
X150106190Y-112609380D01*
X150534761Y-113323666D02*
X151010952Y-113323666D01*
X150439523Y-113609380D02*
X150772857Y-112609380D01*
X151106190Y-113609380D01*
X152010952Y-113609380D02*
X151677619Y-113133190D01*
X151439523Y-113609380D02*
X151439523Y-112609380D01*
X151820476Y-112609380D01*
X151915714Y-112657000D01*
X151963333Y-112704619D01*
X152010952Y-112799857D01*
X152010952Y-112942714D01*
X151963333Y-113037952D01*
X151915714Y-113085571D01*
X151820476Y-113133190D01*
X151439523Y-113133190D01*
X152296666Y-112609380D02*
X152868095Y-112609380D01*
X152582380Y-113609380D02*
X152582380Y-112609380D01*
X140565380Y-107386380D02*
X139993952Y-107386380D01*
X140279666Y-107386380D02*
X140279666Y-106386380D01*
X140184428Y-106529238D01*
X140089190Y-106624476D01*
X139993952Y-106672095D01*
X141184428Y-106386380D02*
X141279666Y-106386380D01*
X141374904Y-106434000D01*
X141422523Y-106481619D01*
X141470142Y-106576857D01*
X141517761Y-106767333D01*
X141517761Y-107005428D01*
X141470142Y-107195904D01*
X141422523Y-107291142D01*
X141374904Y-107338761D01*
X141279666Y-107386380D01*
X141184428Y-107386380D01*
X141089190Y-107338761D01*
X141041571Y-107291142D01*
X140993952Y-107195904D01*
X140946333Y-107005428D01*
X140946333Y-106767333D01*
X140993952Y-106576857D01*
X141041571Y-106481619D01*
X141089190Y-106434000D01*
X141184428Y-106386380D01*
X142136809Y-106386380D02*
X142232047Y-106386380D01*
X142327285Y-106434000D01*
X142374904Y-106481619D01*
X142422523Y-106576857D01*
X142470142Y-106767333D01*
X142470142Y-107005428D01*
X142422523Y-107195904D01*
X142374904Y-107291142D01*
X142327285Y-107338761D01*
X142232047Y-107386380D01*
X142136809Y-107386380D01*
X142041571Y-107338761D01*
X141993952Y-107291142D01*
X141946333Y-107195904D01*
X141898714Y-107005428D01*
X141898714Y-106767333D01*
X141946333Y-106576857D01*
X141993952Y-106481619D01*
X142041571Y-106434000D01*
X142136809Y-106386380D01*
X142898714Y-106719714D02*
X142898714Y-107719714D01*
X142898714Y-106767333D02*
X142993952Y-106719714D01*
X143184428Y-106719714D01*
X143279666Y-106767333D01*
X143327285Y-106814952D01*
X143374904Y-106910190D01*
X143374904Y-107195904D01*
X143327285Y-107291142D01*
X143279666Y-107338761D01*
X143184428Y-107386380D01*
X142993952Y-107386380D01*
X142898714Y-107338761D01*
X144136809Y-106862571D02*
X143803476Y-106862571D01*
X143803476Y-107386380D02*
X143803476Y-106386380D01*
X144279666Y-106386380D01*
X118213428Y-79414714D02*
X118213428Y-80414714D01*
X118213428Y-79462333D02*
X118308666Y-79414714D01*
X118499142Y-79414714D01*
X118594380Y-79462333D01*
X118642000Y-79509952D01*
X118689619Y-79605190D01*
X118689619Y-79890904D01*
X118642000Y-79986142D01*
X118594380Y-80033761D01*
X118499142Y-80081380D01*
X118308666Y-80081380D01*
X118213428Y-80033761D01*
X119261047Y-80081380D02*
X119165809Y-80033761D01*
X119118190Y-79986142D01*
X119070571Y-79890904D01*
X119070571Y-79605190D01*
X119118190Y-79509952D01*
X119165809Y-79462333D01*
X119261047Y-79414714D01*
X119403904Y-79414714D01*
X119499142Y-79462333D01*
X119546761Y-79509952D01*
X119594380Y-79605190D01*
X119594380Y-79890904D01*
X119546761Y-79986142D01*
X119499142Y-80033761D01*
X119403904Y-80081380D01*
X119261047Y-80081380D01*
X119927714Y-79414714D02*
X120118190Y-80081380D01*
X120308666Y-79605190D01*
X120499142Y-80081380D01*
X120689619Y-79414714D01*
X121451523Y-80033761D02*
X121356285Y-80081380D01*
X121165809Y-80081380D01*
X121070571Y-80033761D01*
X121022952Y-79938523D01*
X121022952Y-79557571D01*
X121070571Y-79462333D01*
X121165809Y-79414714D01*
X121356285Y-79414714D01*
X121451523Y-79462333D01*
X121499142Y-79557571D01*
X121499142Y-79652809D01*
X121022952Y-79748047D01*
X121927714Y-80081380D02*
X121927714Y-79414714D01*
X121927714Y-79605190D02*
X121975333Y-79509952D01*
X122022952Y-79462333D01*
X122118190Y-79414714D01*
X122213428Y-79414714D01*
X145478904Y-106751380D02*
X145478904Y-105751380D01*
X145812238Y-106465666D01*
X146145571Y-105751380D01*
X146145571Y-106751380D01*
X147193190Y-106656142D02*
X147145571Y-106703761D01*
X147002714Y-106751380D01*
X146907476Y-106751380D01*
X146764619Y-106703761D01*
X146669380Y-106608523D01*
X146621761Y-106513285D01*
X146574142Y-106322809D01*
X146574142Y-106179952D01*
X146621761Y-105989476D01*
X146669380Y-105894238D01*
X146764619Y-105799000D01*
X146907476Y-105751380D01*
X147002714Y-105751380D01*
X147145571Y-105799000D01*
X147193190Y-105846619D01*
X147621761Y-106751380D02*
X147621761Y-105751380D01*
X148002714Y-105751380D01*
X148097952Y-105799000D01*
X148145571Y-105846619D01*
X148193190Y-105941857D01*
X148193190Y-106084714D01*
X148145571Y-106179952D01*
X148097952Y-106227571D01*
X148002714Y-106275190D01*
X147621761Y-106275190D01*
X148574142Y-105846619D02*
X148621761Y-105799000D01*
X148717000Y-105751380D01*
X148955095Y-105751380D01*
X149050333Y-105799000D01*
X149097952Y-105846619D01*
X149145571Y-105941857D01*
X149145571Y-106037095D01*
X149097952Y-106179952D01*
X148526523Y-106751380D01*
X149145571Y-106751380D01*
X150050333Y-105751380D02*
X149574142Y-105751380D01*
X149526523Y-106227571D01*
X149574142Y-106179952D01*
X149669380Y-106132333D01*
X149907476Y-106132333D01*
X150002714Y-106179952D01*
X150050333Y-106227571D01*
X150097952Y-106322809D01*
X150097952Y-106560904D01*
X150050333Y-106656142D01*
X150002714Y-106703761D01*
X149907476Y-106751380D01*
X149669380Y-106751380D01*
X149574142Y-106703761D01*
X149526523Y-106656142D01*
X151002714Y-105751380D02*
X150526523Y-105751380D01*
X150478904Y-106227571D01*
X150526523Y-106179952D01*
X150621761Y-106132333D01*
X150859857Y-106132333D01*
X150955095Y-106179952D01*
X151002714Y-106227571D01*
X151050333Y-106322809D01*
X151050333Y-106560904D01*
X151002714Y-106656142D01*
X150955095Y-106703761D01*
X150859857Y-106751380D01*
X150621761Y-106751380D01*
X150526523Y-106703761D01*
X150478904Y-106656142D01*
X152002714Y-106751380D02*
X151431285Y-106751380D01*
X151717000Y-106751380D02*
X151717000Y-105751380D01*
X151621761Y-105894238D01*
X151526523Y-105989476D01*
X151431285Y-106037095D01*
X116617714Y-88463380D02*
X116046285Y-88463380D01*
X116332000Y-88463380D02*
X116332000Y-87463380D01*
X116236761Y-87606238D01*
X116141523Y-87701476D01*
X116046285Y-87749095D01*
X123071142Y-98988619D02*
X123118761Y-98941000D01*
X123214000Y-98893380D01*
X123452095Y-98893380D01*
X123547333Y-98941000D01*
X123594952Y-98988619D01*
X123642571Y-99083857D01*
X123642571Y-99179095D01*
X123594952Y-99321952D01*
X123023523Y-99893380D01*
X123642571Y-99893380D01*
X124023523Y-98988619D02*
X124071142Y-98941000D01*
X124166380Y-98893380D01*
X124404476Y-98893380D01*
X124499714Y-98941000D01*
X124547333Y-98988619D01*
X124594952Y-99083857D01*
X124594952Y-99179095D01*
X124547333Y-99321952D01*
X123975904Y-99893380D01*
X124594952Y-99893380D01*
X125023523Y-99226714D02*
X125023523Y-100226714D01*
X125023523Y-99274333D02*
X125118761Y-99226714D01*
X125309238Y-99226714D01*
X125404476Y-99274333D01*
X125452095Y-99321952D01*
X125499714Y-99417190D01*
X125499714Y-99702904D01*
X125452095Y-99798142D01*
X125404476Y-99845761D01*
X125309238Y-99893380D01*
X125118761Y-99893380D01*
X125023523Y-99845761D01*
X126261619Y-99369571D02*
X125928285Y-99369571D01*
X125928285Y-99893380D02*
X125928285Y-98893380D01*
X126404476Y-98893380D01*
X116784380Y-97639095D02*
X115784380Y-97639095D01*
X115784380Y-97258142D01*
X115832000Y-97162904D01*
X115879619Y-97115285D01*
X115974857Y-97067666D01*
X116117714Y-97067666D01*
X116212952Y-97115285D01*
X116260571Y-97162904D01*
X116308190Y-97258142D01*
X116308190Y-97639095D01*
X116784380Y-96115285D02*
X116784380Y-96686714D01*
X116784380Y-96401000D02*
X115784380Y-96401000D01*
X115927238Y-96496238D01*
X116022476Y-96591476D01*
X116070095Y-96686714D01*
X116784380Y-118213095D02*
X115784380Y-118213095D01*
X115784380Y-117832142D01*
X115832000Y-117736904D01*
X115879619Y-117689285D01*
X115974857Y-117641666D01*
X116117714Y-117641666D01*
X116212952Y-117689285D01*
X116260571Y-117736904D01*
X116308190Y-117832142D01*
X116308190Y-118213095D01*
X115879619Y-117260714D02*
X115832000Y-117213095D01*
X115784380Y-117117857D01*
X115784380Y-116879761D01*
X115832000Y-116784523D01*
X115879619Y-116736904D01*
X115974857Y-116689285D01*
X116070095Y-116689285D01*
X116212952Y-116736904D01*
X116784380Y-117308333D01*
X116784380Y-116689285D01*
X159710380Y-91035095D02*
X158710380Y-91035095D01*
X158710380Y-90654142D01*
X158758000Y-90558904D01*
X158805619Y-90511285D01*
X158900857Y-90463666D01*
X159043714Y-90463666D01*
X159138952Y-90511285D01*
X159186571Y-90558904D01*
X159234190Y-90654142D01*
X159234190Y-91035095D01*
X158710380Y-90130333D02*
X158710380Y-89511285D01*
X159091333Y-89844619D01*
X159091333Y-89701761D01*
X159138952Y-89606523D01*
X159186571Y-89558904D01*
X159281809Y-89511285D01*
X159519904Y-89511285D01*
X159615142Y-89558904D01*
X159662761Y-89606523D01*
X159710380Y-89701761D01*
X159710380Y-89987476D01*
X159662761Y-90082714D01*
X159615142Y-90130333D01*
X159710380Y-115419095D02*
X158710380Y-115419095D01*
X158710380Y-115038142D01*
X158758000Y-114942904D01*
X158805619Y-114895285D01*
X158900857Y-114847666D01*
X159043714Y-114847666D01*
X159138952Y-114895285D01*
X159186571Y-114942904D01*
X159234190Y-115038142D01*
X159234190Y-115419095D01*
X159043714Y-113990523D02*
X159710380Y-113990523D01*
X158662761Y-114228619D02*
X159377047Y-114466714D01*
X159377047Y-113847666D01*
X133016666Y-102957380D02*
X133016666Y-103671666D01*
X132969047Y-103814523D01*
X132873809Y-103909761D01*
X132730952Y-103957380D01*
X132635714Y-103957380D01*
X133969047Y-102957380D02*
X133492857Y-102957380D01*
X133445238Y-103433571D01*
X133492857Y-103385952D01*
X133588095Y-103338333D01*
X133826190Y-103338333D01*
X133921428Y-103385952D01*
X133969047Y-103433571D01*
X134016666Y-103528809D01*
X134016666Y-103766904D01*
X133969047Y-103862142D01*
X133921428Y-103909761D01*
X133826190Y-103957380D01*
X133588095Y-103957380D01*
X133492857Y-103909761D01*
X133445238Y-103862142D01*
X115022333Y-84145380D02*
X114689000Y-83669190D01*
X114450904Y-84145380D02*
X114450904Y-83145380D01*
X114831857Y-83145380D01*
X114927095Y-83193000D01*
X114974714Y-83240619D01*
X115022333Y-83335857D01*
X115022333Y-83478714D01*
X114974714Y-83573952D01*
X114927095Y-83621571D01*
X114831857Y-83669190D01*
X114450904Y-83669190D01*
X115879476Y-83478714D02*
X115879476Y-84145380D01*
X115641380Y-83097761D02*
X115403285Y-83812047D01*
X116022333Y-83812047D01*
X141438333Y-106021142D02*
X141390714Y-106068761D01*
X141247857Y-106116380D01*
X141152619Y-106116380D01*
X141009761Y-106068761D01*
X140914523Y-105973523D01*
X140866904Y-105878285D01*
X140819285Y-105687809D01*
X140819285Y-105544952D01*
X140866904Y-105354476D01*
X140914523Y-105259238D01*
X141009761Y-105164000D01*
X141152619Y-105116380D01*
X141247857Y-105116380D01*
X141390714Y-105164000D01*
X141438333Y-105211619D01*
X142295476Y-105449714D02*
X142295476Y-106116380D01*
X142057380Y-105068761D02*
X141819285Y-105783047D01*
X142438333Y-105783047D01*
X151598333Y-92527380D02*
X151265000Y-92051190D01*
X151026904Y-92527380D02*
X151026904Y-91527380D01*
X151407857Y-91527380D01*
X151503095Y-91575000D01*
X151550714Y-91622619D01*
X151598333Y-91717857D01*
X151598333Y-91860714D01*
X151550714Y-91955952D01*
X151503095Y-92003571D01*
X151407857Y-92051190D01*
X151026904Y-92051190D01*
X151979285Y-91622619D02*
X152026904Y-91575000D01*
X152122142Y-91527380D01*
X152360238Y-91527380D01*
X152455476Y-91575000D01*
X152503095Y-91622619D01*
X152550714Y-91717857D01*
X152550714Y-91813095D01*
X152503095Y-91955952D01*
X151931666Y-92527380D01*
X152550714Y-92527380D01*
X124271833Y-94112142D02*
X124224214Y-94159761D01*
X124081357Y-94207380D01*
X123986119Y-94207380D01*
X123843261Y-94159761D01*
X123748023Y-94064523D01*
X123700404Y-93969285D01*
X123652785Y-93778809D01*
X123652785Y-93635952D01*
X123700404Y-93445476D01*
X123748023Y-93350238D01*
X123843261Y-93255000D01*
X123986119Y-93207380D01*
X124081357Y-93207380D01*
X124224214Y-93255000D01*
X124271833Y-93302619D01*
X125224214Y-94207380D02*
X124652785Y-94207380D01*
X124938500Y-94207380D02*
X124938500Y-93207380D01*
X124843261Y-93350238D01*
X124748023Y-93445476D01*
X124652785Y-93493095D01*
X152487333Y-90019142D02*
X152439714Y-90066761D01*
X152296857Y-90114380D01*
X152201619Y-90114380D01*
X152058761Y-90066761D01*
X151963523Y-89971523D01*
X151915904Y-89876285D01*
X151868285Y-89685809D01*
X151868285Y-89542952D01*
X151915904Y-89352476D01*
X151963523Y-89257238D01*
X152058761Y-89162000D01*
X152201619Y-89114380D01*
X152296857Y-89114380D01*
X152439714Y-89162000D01*
X152487333Y-89209619D01*
X152820666Y-89114380D02*
X153439714Y-89114380D01*
X153106380Y-89495333D01*
X153249238Y-89495333D01*
X153344476Y-89542952D01*
X153392095Y-89590571D01*
X153439714Y-89685809D01*
X153439714Y-89923904D01*
X153392095Y-90019142D01*
X153344476Y-90066761D01*
X153249238Y-90114380D01*
X152963523Y-90114380D01*
X152868285Y-90066761D01*
X152820666Y-90019142D01*
X116101904Y-81732380D02*
X116101904Y-80732380D01*
X116340000Y-80732380D01*
X116482857Y-80780000D01*
X116578095Y-80875238D01*
X116625714Y-80970476D01*
X116673333Y-81160952D01*
X116673333Y-81303809D01*
X116625714Y-81494285D01*
X116578095Y-81589523D01*
X116482857Y-81684761D01*
X116340000Y-81732380D01*
X116101904Y-81732380D01*
X117625714Y-81732380D02*
X117054285Y-81732380D01*
X117340000Y-81732380D02*
X117340000Y-80732380D01*
X117244761Y-80875238D01*
X117149523Y-80970476D01*
X117054285Y-81018095D01*
X133762809Y-101703190D02*
X133762809Y-102179380D01*
X133429476Y-101179380D02*
X133762809Y-101703190D01*
X134096142Y-101179380D01*
X134953285Y-102179380D02*
X134381857Y-102179380D01*
X134667571Y-102179380D02*
X134667571Y-101179380D01*
X134572333Y-101322238D01*
X134477095Y-101417476D01*
X134381857Y-101465095D01*
X137922095Y-93813380D02*
X137922095Y-94622904D01*
X137969714Y-94718142D01*
X138017333Y-94765761D01*
X138112571Y-94813380D01*
X138303047Y-94813380D01*
X138398285Y-94765761D01*
X138445904Y-94718142D01*
X138493523Y-94622904D01*
X138493523Y-93813380D01*
X139493523Y-94813380D02*
X138922095Y-94813380D01*
X139207809Y-94813380D02*
X139207809Y-93813380D01*
X139112571Y-93956238D01*
X139017333Y-94051476D01*
X138922095Y-94099095D01*
X138604666Y-127129380D02*
X138604666Y-127843666D01*
X138557047Y-127986523D01*
X138461809Y-128081761D01*
X138318952Y-128129380D01*
X138223714Y-128129380D01*
X139604666Y-128129380D02*
X139033238Y-128129380D01*
X139318952Y-128129380D02*
X139318952Y-127129380D01*
X139223714Y-127272238D01*
X139128476Y-127367476D01*
X139033238Y-127415095D01*
X125871666Y-127086380D02*
X125871666Y-127800666D01*
X125824047Y-127943523D01*
X125728809Y-128038761D01*
X125585952Y-128086380D01*
X125490714Y-128086380D01*
X126300238Y-127181619D02*
X126347857Y-127134000D01*
X126443095Y-127086380D01*
X126681190Y-127086380D01*
X126776428Y-127134000D01*
X126824047Y-127181619D01*
X126871666Y-127276857D01*
X126871666Y-127372095D01*
X126824047Y-127514952D01*
X126252619Y-128086380D01*
X126871666Y-128086380D01*
X147621666Y-123658380D02*
X147621666Y-124372666D01*
X147574047Y-124515523D01*
X147478809Y-124610761D01*
X147335952Y-124658380D01*
X147240714Y-124658380D01*
X148526428Y-123658380D02*
X148335952Y-123658380D01*
X148240714Y-123706000D01*
X148193095Y-123753619D01*
X148097857Y-123896476D01*
X148050238Y-124086952D01*
X148050238Y-124467904D01*
X148097857Y-124563142D01*
X148145476Y-124610761D01*
X148240714Y-124658380D01*
X148431190Y-124658380D01*
X148526428Y-124610761D01*
X148574047Y-124563142D01*
X148621666Y-124467904D01*
X148621666Y-124229809D01*
X148574047Y-124134571D01*
X148526428Y-124086952D01*
X148431190Y-124039333D01*
X148240714Y-124039333D01*
X148145476Y-124086952D01*
X148097857Y-124134571D01*
X148050238Y-124229809D01*
X129881333Y-109799380D02*
X129548000Y-109323190D01*
X129309904Y-109799380D02*
X129309904Y-108799380D01*
X129690857Y-108799380D01*
X129786095Y-108847000D01*
X129833714Y-108894619D01*
X129881333Y-108989857D01*
X129881333Y-109132714D01*
X129833714Y-109227952D01*
X129786095Y-109275571D01*
X129690857Y-109323190D01*
X129309904Y-109323190D01*
X130214666Y-108799380D02*
X130833714Y-108799380D01*
X130500380Y-109180333D01*
X130643238Y-109180333D01*
X130738476Y-109227952D01*
X130786095Y-109275571D01*
X130833714Y-109370809D01*
X130833714Y-109608904D01*
X130786095Y-109704142D01*
X130738476Y-109751761D01*
X130643238Y-109799380D01*
X130357523Y-109799380D01*
X130262285Y-109751761D01*
X130214666Y-109704142D01*
X152463666Y-82446761D02*
X152606523Y-82494380D01*
X152844619Y-82494380D01*
X152939857Y-82446761D01*
X152987476Y-82399142D01*
X153035095Y-82303904D01*
X153035095Y-82208666D01*
X152987476Y-82113428D01*
X152939857Y-82065809D01*
X152844619Y-82018190D01*
X152654142Y-81970571D01*
X152558904Y-81922952D01*
X152511285Y-81875333D01*
X152463666Y-81780095D01*
X152463666Y-81684857D01*
X152511285Y-81589619D01*
X152558904Y-81542000D01*
X152654142Y-81494380D01*
X152892238Y-81494380D01*
X153035095Y-81542000D01*
X153368428Y-81494380D02*
X153606523Y-82494380D01*
X153797000Y-81780095D01*
X153987476Y-82494380D01*
X154225571Y-81494380D01*
X155130333Y-82494380D02*
X154558904Y-82494380D01*
X154844619Y-82494380D02*
X154844619Y-81494380D01*
X154749380Y-81637238D01*
X154654142Y-81732476D01*
X154558904Y-81780095D01*
X143089380Y-103504904D02*
X143898904Y-103504904D01*
X143994142Y-103457285D01*
X144041761Y-103409666D01*
X144089380Y-103314428D01*
X144089380Y-103123952D01*
X144041761Y-103028714D01*
X143994142Y-102981095D01*
X143898904Y-102933476D01*
X143089380Y-102933476D01*
X143184619Y-102504904D02*
X143137000Y-102457285D01*
X143089380Y-102362047D01*
X143089380Y-102123952D01*
X143137000Y-102028714D01*
X143184619Y-101981095D01*
X143279857Y-101933476D01*
X143375095Y-101933476D01*
X143517952Y-101981095D01*
X144089380Y-102552523D01*
X144089380Y-101933476D01*
X124525833Y-103383142D02*
X124478214Y-103430761D01*
X124335357Y-103478380D01*
X124240119Y-103478380D01*
X124097261Y-103430761D01*
X124002023Y-103335523D01*
X123954404Y-103240285D01*
X123906785Y-103049809D01*
X123906785Y-102906952D01*
X123954404Y-102716476D01*
X124002023Y-102621238D01*
X124097261Y-102526000D01*
X124240119Y-102478380D01*
X124335357Y-102478380D01*
X124478214Y-102526000D01*
X124525833Y-102573619D01*
X124906785Y-102573619D02*
X124954404Y-102526000D01*
X125049642Y-102478380D01*
X125287738Y-102478380D01*
X125382976Y-102526000D01*
X125430595Y-102573619D01*
X125478214Y-102668857D01*
X125478214Y-102764095D01*
X125430595Y-102906952D01*
X124859166Y-103478380D01*
X125478214Y-103478380D01*
X151503333Y-97480380D02*
X151170000Y-97004190D01*
X150931904Y-97480380D02*
X150931904Y-96480380D01*
X151312857Y-96480380D01*
X151408095Y-96528000D01*
X151455714Y-96575619D01*
X151503333Y-96670857D01*
X151503333Y-96813714D01*
X151455714Y-96908952D01*
X151408095Y-96956571D01*
X151312857Y-97004190D01*
X150931904Y-97004190D01*
X152455714Y-97480380D02*
X151884285Y-97480380D01*
X152170000Y-97480380D02*
X152170000Y-96480380D01*
X152074761Y-96623238D01*
X151979523Y-96718476D01*
X151884285Y-96766095D01*
X151852333Y-87574380D02*
X151519000Y-87098190D01*
X151280904Y-87574380D02*
X151280904Y-86574380D01*
X151661857Y-86574380D01*
X151757095Y-86622000D01*
X151804714Y-86669619D01*
X151852333Y-86764857D01*
X151852333Y-86907714D01*
X151804714Y-87002952D01*
X151757095Y-87050571D01*
X151661857Y-87098190D01*
X151280904Y-87098190D01*
X152757095Y-86574380D02*
X152280904Y-86574380D01*
X152233285Y-87050571D01*
X152280904Y-87002952D01*
X152376142Y-86955333D01*
X152614238Y-86955333D01*
X152709476Y-87002952D01*
X152757095Y-87050571D01*
X152804714Y-87145809D01*
X152804714Y-87383904D01*
X152757095Y-87479142D01*
X152709476Y-87526761D01*
X152614238Y-87574380D01*
X152376142Y-87574380D01*
X152280904Y-87526761D01*
X152233285Y-87479142D01*
X112522000Y-107061000D02*
X115062000Y-107061000D01*
X112522000Y-89281000D02*
X112522000Y-107061000D01*
X115062000Y-107061000D02*
X115062000Y-89281000D01*
X115342000Y-88011000D02*
X115342000Y-86461000D01*
X115342000Y-86461000D02*
X112242000Y-86461000D01*
X112242000Y-86461000D02*
X112242000Y-88011000D01*
X112522000Y-89281000D02*
X115062000Y-89281000D01*
X112522000Y-112141000D02*
X115062000Y-112141000D01*
X115342000Y-110871000D02*
X115342000Y-109321000D01*
X115062000Y-124841000D02*
X115062000Y-112141000D01*
X112522000Y-112141000D02*
X112522000Y-124841000D01*
X112522000Y-124841000D02*
X115062000Y-124841000D01*
X115342000Y-109321000D02*
X112242000Y-109321000D01*
X112242000Y-109321000D02*
X112242000Y-110871000D01*
X163602000Y-77317000D02*
X160502000Y-77317000D01*
X160782000Y-80137000D02*
X160782000Y-102997000D01*
X160782000Y-102997000D02*
X163322000Y-102997000D01*
X163322000Y-102997000D02*
X163322000Y-80137000D01*
X163602000Y-78867000D02*
X163602000Y-77317000D01*
X160502000Y-77317000D02*
X160502000Y-78867000D01*
X160782000Y-80137000D02*
X163322000Y-80137000D01*
X163322000Y-124841000D02*
X163322000Y-107061000D01*
X160502000Y-104241000D02*
X160502000Y-105791000D01*
X160782000Y-107061000D02*
X160782000Y-124841000D01*
X160782000Y-107061000D02*
X163322000Y-107061000D01*
X163602000Y-105791000D02*
X163602000Y-104241000D01*
X160782000Y-124841000D02*
X163322000Y-124841000D01*
X163602000Y-104241000D02*
X160502000Y-104241000D01*
D11*
X134680000Y-107188000D02*
X132020000Y-107188000D01*
X134680000Y-109788000D02*
X133350000Y-109788000D01*
X132020000Y-107188000D02*
X132020000Y-104588000D01*
X134680000Y-108458000D02*
X134680000Y-109788000D01*
X134680000Y-104588000D02*
X132020000Y-104588000D01*
X134680000Y-107188000D02*
X134680000Y-104588000D01*
G36*
X139773591Y-82018932D02*
G01*
X139877866Y-82020238D01*
X140117430Y-82023848D01*
X140301574Y-82027853D01*
X140438533Y-82032968D01*
X140536547Y-82039909D01*
X140603853Y-82049391D01*
X140648688Y-82062127D01*
X140679289Y-82078834D01*
X140694265Y-82091079D01*
X140743652Y-82163214D01*
X140760941Y-82270546D01*
X140761198Y-82290263D01*
X140761198Y-82428736D01*
X140562263Y-82427723D01*
X140422340Y-82418243D01*
X140324758Y-82393177D01*
X140301543Y-82379919D01*
X140241202Y-82357270D01*
X140138937Y-82341260D01*
X140009998Y-82331867D01*
X139869631Y-82329073D01*
X139733085Y-82332859D01*
X139615609Y-82343205D01*
X139532450Y-82360092D01*
X139499526Y-82380932D01*
X139457791Y-82411512D01*
X139376081Y-82428437D01*
X139276566Y-82431849D01*
X139181421Y-82421892D01*
X139112818Y-82398706D01*
X139093551Y-82378326D01*
X139078327Y-82299857D01*
X139075771Y-82198382D01*
X139085121Y-82104055D01*
X139101803Y-82052108D01*
X139123093Y-82038395D01*
X139171665Y-82028325D01*
X139254260Y-82021620D01*
X139377619Y-82018004D01*
X139548482Y-82017200D01*
X139773591Y-82018932D01*
G37*
G36*
X132072220Y-80389501D02*
G01*
X132277694Y-80392058D01*
X132433343Y-80398736D01*
X132546085Y-80411513D01*
X132622839Y-80432366D01*
X132670521Y-80463271D01*
X132696048Y-80506207D01*
X132706339Y-80563149D01*
X132708310Y-80636077D01*
X132708316Y-80645851D01*
X132708316Y-80803391D01*
X132504829Y-80803391D01*
X132383091Y-80798915D01*
X132312998Y-80783835D01*
X132283054Y-80755674D01*
X132283021Y-80755587D01*
X132264150Y-80735093D01*
X132219490Y-80721198D01*
X132139184Y-80712773D01*
X132013373Y-80708687D01*
X131865831Y-80707783D01*
X131697050Y-80708907D01*
X131582338Y-80713044D01*
X131512129Y-80721340D01*
X131476860Y-80734941D01*
X131466967Y-80754993D01*
X131466963Y-80755587D01*
X131453150Y-80782401D01*
X131403796Y-80797305D01*
X131307025Y-80803041D01*
X131260070Y-80803391D01*
X131053178Y-80803391D01*
X131053178Y-80389088D01*
X131810006Y-80389088D01*
X132072220Y-80389501D01*
G37*
G36*
X139780860Y-80997719D02*
G01*
X139927457Y-80999846D01*
X140179039Y-81003860D01*
X140374154Y-81009463D01*
X140519973Y-81019934D01*
X140623666Y-81038554D01*
X140692404Y-81068602D01*
X140733356Y-81113359D01*
X140753694Y-81176105D01*
X140760587Y-81260120D01*
X140761205Y-81368684D01*
X140761198Y-81381247D01*
X140760672Y-81484766D01*
X140754562Y-81566340D01*
X140736073Y-81628691D01*
X140698410Y-81674542D01*
X140634779Y-81706615D01*
X140538382Y-81727631D01*
X140402426Y-81740313D01*
X140220114Y-81747383D01*
X139984652Y-81751563D01*
X139831684Y-81753594D01*
X139074231Y-81763647D01*
X139074231Y-81445844D01*
X139660491Y-81435345D01*
X139847779Y-81430772D01*
X140012927Y-81424427D01*
X140145463Y-81416899D01*
X140234912Y-81408780D01*
X140270558Y-81400945D01*
X140283624Y-81376408D01*
X140263919Y-81357176D01*
X140205316Y-81342264D01*
X140101684Y-81330688D01*
X139946894Y-81321461D01*
X139734817Y-81313600D01*
X139725185Y-81313304D01*
X139516893Y-81305973D01*
X139363085Y-81296659D01*
X139254591Y-81282510D01*
X139182243Y-81260674D01*
X139136871Y-81228300D01*
X139109305Y-81182537D01*
X139090377Y-81120532D01*
X139089137Y-81115506D01*
X139082962Y-81077343D01*
X139089837Y-81047728D01*
X139116470Y-81025736D01*
X139169572Y-81010441D01*
X139255853Y-81000918D01*
X139382021Y-80996240D01*
X139554787Y-80995482D01*
X139780860Y-80997719D01*
G37*
G36*
X135795785Y-82035148D02*
G01*
X135849130Y-82049211D01*
X135877649Y-82075215D01*
X135889107Y-82129941D01*
X135891269Y-82230169D01*
X135891273Y-82241503D01*
X135891273Y-82428736D01*
X135509318Y-82428736D01*
X135509318Y-82241503D01*
X135511043Y-82136559D01*
X135521392Y-82078567D01*
X135548132Y-82050745D01*
X135599027Y-82036313D01*
X135604807Y-82035148D01*
X135710739Y-82027340D01*
X135795785Y-82035148D01*
G37*
G36*
X133800052Y-82830685D02*
G01*
X133817103Y-82934343D01*
X133841480Y-83011488D01*
X133860352Y-83038750D01*
X133903277Y-83046532D01*
X133999977Y-83053451D01*
X134140569Y-83059144D01*
X134315170Y-83063250D01*
X134513896Y-83065406D01*
X134594218Y-83065639D01*
X135286511Y-83066127D01*
X135286511Y-83384822D01*
X134435070Y-83382802D01*
X134205223Y-83381241D01*
X133993649Y-83377877D01*
X133809507Y-83373010D01*
X133661959Y-83366938D01*
X133560165Y-83359961D01*
X133514093Y-83352730D01*
X133448584Y-83310921D01*
X133406966Y-83241705D01*
X133385909Y-83134314D01*
X133382081Y-82977980D01*
X133383412Y-82930377D01*
X133392652Y-82667758D01*
X133586989Y-82658389D01*
X133781326Y-82649021D01*
X133800052Y-82830685D01*
G37*
G36*
X136750672Y-80803391D02*
G01*
X136558695Y-80803391D01*
X136434436Y-80797234D01*
X136366363Y-80777872D01*
X136349899Y-80759505D01*
X136341870Y-80703199D01*
X136340718Y-80610576D01*
X136342941Y-80560321D01*
X136352802Y-80405022D01*
X136750672Y-80386046D01*
X136750672Y-80803391D01*
G37*
G36*
X140184892Y-80389961D02*
G01*
X140378829Y-80393046D01*
X140523523Y-80401047D01*
X140626180Y-80416199D01*
X140694008Y-80440735D01*
X140734214Y-80476891D01*
X140754005Y-80526900D01*
X140760588Y-80592996D01*
X140761198Y-80645851D01*
X140761198Y-80803391D01*
X140542288Y-80803391D01*
X140404320Y-80797762D01*
X140319460Y-80779684D01*
X140283755Y-80755587D01*
X140249861Y-80733022D01*
X140185802Y-80718430D01*
X140080876Y-80710473D01*
X139924381Y-80707810D01*
X139901800Y-80707783D01*
X139738449Y-80709904D01*
X139627942Y-80717160D01*
X139559577Y-80730892D01*
X139522651Y-80752437D01*
X139519845Y-80755587D01*
X139465849Y-80786070D01*
X139362596Y-80801109D01*
X139275562Y-80803391D01*
X139070904Y-80803391D01*
X139080525Y-80636851D01*
X139086653Y-80562627D01*
X139100275Y-80505005D01*
X139128664Y-80461877D01*
X139179099Y-80431137D01*
X139258855Y-80410678D01*
X139375208Y-80398393D01*
X139535435Y-80392174D01*
X139746811Y-80389915D01*
X139934504Y-80389558D01*
X140184892Y-80389961D01*
G37*
G36*
X129366211Y-81202549D02*
G01*
X129368962Y-81305088D01*
X129382469Y-81362818D01*
X129414617Y-81394600D01*
X129453742Y-81412013D01*
X129521968Y-81424840D01*
X129639852Y-81433313D01*
X129793501Y-81436785D01*
X129949734Y-81435126D01*
X130138148Y-81428394D01*
X130272123Y-81415863D01*
X130360874Y-81392519D01*
X130413615Y-81353349D01*
X130439561Y-81293339D01*
X130447928Y-81207475D01*
X130448416Y-81163800D01*
X130448416Y-81026478D01*
X130862201Y-81026478D01*
X130862201Y-81307212D01*
X130858069Y-81470208D01*
X130841743Y-81581738D01*
X130807326Y-81653764D01*
X130748921Y-81698246D01*
X130660631Y-81727146D01*
X130654456Y-81728599D01*
X130579800Y-81738176D01*
X130455690Y-81745622D01*
X130294317Y-81750950D01*
X130107874Y-81754172D01*
X129908555Y-81755299D01*
X129708553Y-81754344D01*
X129520060Y-81751319D01*
X129355268Y-81746237D01*
X129226372Y-81739109D01*
X129145564Y-81729948D01*
X129133411Y-81727079D01*
X129053401Y-81698387D01*
X129001163Y-81661260D01*
X128970843Y-81602698D01*
X128956585Y-81509703D01*
X128952531Y-81369276D01*
X128952426Y-81325336D01*
X128952426Y-81026478D01*
X129366211Y-81026478D01*
X129366211Y-81202549D01*
G37*
G36*
X134174027Y-82017130D02*
G01*
X134432891Y-82020143D01*
X134667287Y-82023873D01*
X134846457Y-82028048D01*
X134978835Y-82033428D01*
X135072854Y-82040772D01*
X135136948Y-82050842D01*
X135179549Y-82064398D01*
X135209090Y-82082200D01*
X135219580Y-82091079D01*
X135268967Y-82163218D01*
X135286255Y-82270557D01*
X135286511Y-82290263D01*
X135286511Y-82428736D01*
X134352844Y-82428736D01*
X134115149Y-82428039D01*
X133898325Y-82426065D01*
X133710482Y-82422996D01*
X133559727Y-82419013D01*
X133454169Y-82414296D01*
X133401915Y-82409024D01*
X133397957Y-82407490D01*
X133376471Y-82348545D01*
X133379436Y-82260323D01*
X133403025Y-82170654D01*
X133438621Y-82111819D01*
X133475661Y-82080807D01*
X133522502Y-82056811D01*
X133586869Y-82039117D01*
X133676482Y-82027014D01*
X133799065Y-82019790D01*
X133962339Y-82016733D01*
X134174027Y-82017130D01*
G37*
G36*
X137387263Y-82797331D02*
G01*
X137388808Y-82895582D01*
X137399416Y-82966393D01*
X137428042Y-83014259D01*
X137483646Y-83043672D01*
X137575185Y-83059125D01*
X137711615Y-83065112D01*
X137901896Y-83066126D01*
X137923120Y-83066127D01*
X138137894Y-83063778D01*
X138292288Y-83056575D01*
X138389413Y-83044285D01*
X138431273Y-83027883D01*
X138452996Y-82975953D01*
X138466832Y-82884881D01*
X138469469Y-82820731D01*
X138469469Y-82651823D01*
X138883253Y-82651823D01*
X138883253Y-83287576D01*
X138789345Y-83336199D01*
X138748051Y-83352015D01*
X138687721Y-83364142D01*
X138600511Y-83373018D01*
X138478574Y-83379080D01*
X138314066Y-83382766D01*
X138099142Y-83384516D01*
X137918324Y-83384822D01*
X137675157Y-83384564D01*
X137487370Y-83383365D01*
X137346684Y-83380592D01*
X137244821Y-83375609D01*
X137173504Y-83367781D01*
X137124452Y-83356473D01*
X137089388Y-83341049D01*
X137060034Y-83320874D01*
X137057345Y-83318770D01*
X137018147Y-83284240D01*
X136993550Y-83245803D01*
X136980166Y-83188647D01*
X136974606Y-83097963D01*
X136973480Y-82958939D01*
X136973479Y-82952270D01*
X136973479Y-82651823D01*
X137387263Y-82651823D01*
X137387263Y-82797331D01*
G37*
G36*
X135907188Y-82667758D02*
G01*
X135916664Y-82866942D01*
X135926141Y-83066127D01*
X136782501Y-83066127D01*
X136782501Y-83384822D01*
X135509318Y-83384822D01*
X135509318Y-82648782D01*
X135907188Y-82667758D01*
G37*
G36*
X128723678Y-81130054D02*
G01*
X128701984Y-81210424D01*
X128644005Y-81266773D01*
X128602301Y-81290183D01*
X128533936Y-81334731D01*
X128501349Y-81375771D01*
X128501110Y-81384597D01*
X128524533Y-81429652D01*
X128574238Y-81506142D01*
X128619788Y-81570405D01*
X128674909Y-81653274D01*
X128705873Y-81715405D01*
X128707717Y-81738914D01*
X128664790Y-81750929D01*
X128580335Y-81757315D01*
X128476218Y-81758263D01*
X128374302Y-81753962D01*
X128296453Y-81744603D01*
X128267909Y-81735087D01*
X128233984Y-81699178D01*
X128175089Y-81626936D01*
X128103639Y-81533619D01*
X128099773Y-81528423D01*
X127963647Y-81345173D01*
X127488266Y-81345173D01*
X127488266Y-81532980D01*
X127483473Y-81648170D01*
X127466994Y-81713167D01*
X127437918Y-81740132D01*
X127371992Y-81753284D01*
X127279630Y-81758743D01*
X127185866Y-81756647D01*
X127115732Y-81747136D01*
X127095701Y-81738230D01*
X127087060Y-81699475D01*
X127080114Y-81611033D01*
X127075678Y-81486951D01*
X127074481Y-81371731D01*
X127074481Y-81026478D01*
X128733653Y-81026478D01*
X128723678Y-81130054D01*
G37*
G36*
X132213274Y-78287091D02*
G01*
X132250104Y-78312509D01*
X132250380Y-78341472D01*
X132237096Y-78391513D01*
X132212414Y-78489024D01*
X132179899Y-78619522D01*
X132143115Y-78768523D01*
X132105626Y-78921545D01*
X132070996Y-79064103D01*
X132042789Y-79181714D01*
X132026868Y-79249753D01*
X132006852Y-79337394D01*
X132574784Y-79337394D01*
X132701421Y-78819514D01*
X132828058Y-78301635D01*
X132995092Y-78291860D01*
X133094850Y-78289857D01*
X133141847Y-78300408D01*
X133146864Y-78323729D01*
X133134666Y-78366822D01*
X133110067Y-78461202D01*
X133075768Y-78596239D01*
X133034471Y-78761301D01*
X132991610Y-78934644D01*
X132935885Y-79162911D01*
X132889882Y-79337278D01*
X132845292Y-79464978D01*
X132793809Y-79553242D01*
X132727128Y-79609300D01*
X132636941Y-79640384D01*
X132514942Y-79653725D01*
X132352824Y-79656554D01*
X132162873Y-79656089D01*
X131986062Y-79654494D01*
X131833772Y-79650077D01*
X131716380Y-79643386D01*
X131644262Y-79634972D01*
X131626110Y-79627650D01*
X131633259Y-79589037D01*
X131653148Y-79498667D01*
X131683443Y-79366708D01*
X131721808Y-79203330D01*
X131765908Y-79018702D01*
X131766888Y-79014632D01*
X131818594Y-78803746D01*
X131859955Y-78646027D01*
X131894092Y-78532346D01*
X131924127Y-78453571D01*
X131953183Y-78400574D01*
X131984381Y-78364225D01*
X131991470Y-78357876D01*
X132066857Y-78310858D01*
X132146492Y-78286902D01*
X132213274Y-78287091D01*
G37*
G36*
X137387751Y-81177858D02*
G01*
X137388089Y-81254430D01*
X137393493Y-81313302D01*
X137411382Y-81356917D01*
X137449174Y-81387714D01*
X137514286Y-81408137D01*
X137614138Y-81420627D01*
X137756146Y-81427625D01*
X137947730Y-81431573D01*
X138167557Y-81434521D01*
X138886602Y-81444196D01*
X138876970Y-81593869D01*
X138867339Y-81743542D01*
X138055684Y-81749040D01*
X137829862Y-81749502D01*
X137621064Y-81747915D01*
X137439014Y-81744511D01*
X137293435Y-81739525D01*
X137194053Y-81733192D01*
X137154464Y-81727349D01*
X137074431Y-81698433D01*
X137022191Y-81661215D01*
X136991880Y-81602668D01*
X136977632Y-81509767D01*
X136973584Y-81369484D01*
X136973479Y-81325336D01*
X136973479Y-81026478D01*
X137387263Y-81026478D01*
X137387751Y-81177858D01*
G37*
G36*
X137292994Y-82035403D02*
G01*
X137295102Y-82035814D01*
X137346618Y-82049802D01*
X137374152Y-82076483D01*
X137385201Y-82132590D01*
X137387262Y-82234855D01*
X137387263Y-82241503D01*
X137387263Y-82428736D01*
X136973479Y-82428736D01*
X136973479Y-82054642D01*
X137088210Y-82036000D01*
X137194768Y-82028259D01*
X137292994Y-82035403D01*
G37*
G36*
X133345395Y-81177858D02*
G01*
X133347498Y-81271773D01*
X133359403Y-81338302D01*
X133390558Y-81382443D01*
X133450413Y-81409191D01*
X133548417Y-81423544D01*
X133694017Y-81430497D01*
X133829086Y-81433633D01*
X134034342Y-81436056D01*
X134184809Y-81431162D01*
X134289248Y-81415391D01*
X134356419Y-81385179D01*
X134395081Y-81336965D01*
X134413995Y-81267186D01*
X134420819Y-81193018D01*
X134430440Y-81026478D01*
X134840897Y-81026478D01*
X134840897Y-81328504D01*
X134840807Y-81448846D01*
X134835953Y-81543307D01*
X134819459Y-81615086D01*
X134784450Y-81667380D01*
X134724049Y-81703390D01*
X134631381Y-81726313D01*
X134499571Y-81739349D01*
X134321742Y-81745696D01*
X134091018Y-81748554D01*
X133935257Y-81749829D01*
X133720275Y-81750450D01*
X133522221Y-81748725D01*
X133351473Y-81744927D01*
X133218408Y-81739329D01*
X133133404Y-81732205D01*
X133112108Y-81728138D01*
X133032011Y-81698568D01*
X132979763Y-81661085D01*
X132949476Y-81602582D01*
X132935261Y-81509955D01*
X132931230Y-81370096D01*
X132931123Y-81325336D01*
X132931123Y-81026478D01*
X133344907Y-81026478D01*
X133345395Y-81177858D01*
G37*
G36*
X135763955Y-81373633D02*
G01*
X135762467Y-81531220D01*
X135757000Y-81636054D01*
X135746052Y-81699071D01*
X135728121Y-81731207D01*
X135713607Y-81740132D01*
X135636530Y-81753456D01*
X135530096Y-81754111D01*
X135427280Y-81742379D01*
X135405872Y-81737508D01*
X135381131Y-81723908D01*
X135364922Y-81691072D01*
X135355513Y-81627725D01*
X135351174Y-81522590D01*
X135350171Y-81374706D01*
X135350171Y-81026478D01*
X135763955Y-81026478D01*
X135763955Y-81373633D01*
G37*
G36*
X135482660Y-80394862D02*
G01*
X135607123Y-80396347D01*
X136225484Y-80405022D01*
X136225484Y-80787457D01*
X135600509Y-80796085D01*
X135383702Y-80798547D01*
X135222220Y-80798739D01*
X135107750Y-80796114D01*
X135031981Y-80790126D01*
X134986601Y-80780226D01*
X134963298Y-80765867D01*
X134955960Y-80753642D01*
X134940744Y-80675804D01*
X134937830Y-80574909D01*
X134946563Y-80480928D01*
X134963061Y-80428217D01*
X134987850Y-80413601D01*
X135045367Y-80403296D01*
X135142451Y-80396963D01*
X135285936Y-80394265D01*
X135482660Y-80394862D01*
G37*
G36*
X127382321Y-78670264D02*
G01*
X127419414Y-78538852D01*
X127447996Y-78449157D01*
X127461884Y-78416287D01*
X127504493Y-78365499D01*
X127565676Y-78329300D01*
X127655521Y-78305488D01*
X127784118Y-78291863D01*
X127961555Y-78286221D01*
X128060254Y-78285700D01*
X128229505Y-78286310D01*
X128347945Y-78289532D01*
X128428417Y-78297452D01*
X128483767Y-78312158D01*
X128526840Y-78335736D01*
X128568029Y-78368207D01*
X128628242Y-78434487D01*
X128659920Y-78515430D01*
X128664349Y-78623525D01*
X128642812Y-78771258D01*
X128620152Y-78874835D01*
X128586595Y-78997708D01*
X128545730Y-79086402D01*
X128487337Y-79146413D01*
X128401193Y-79183236D01*
X128277081Y-79202368D01*
X128104778Y-79209304D01*
X127996991Y-79209916D01*
X127586208Y-79209916D01*
X127553601Y-79331163D01*
X127525763Y-79441802D01*
X127502068Y-79547248D01*
X127500651Y-79554249D01*
X127485584Y-79612766D01*
X127458862Y-79643051D01*
X127402827Y-79654394D01*
X127307080Y-79656089D01*
X127207777Y-79653496D01*
X127158848Y-79642574D01*
X127147109Y-79618611D01*
X127151051Y-79600317D01*
X127163903Y-79551892D01*
X127188660Y-79452912D01*
X127222508Y-79314835D01*
X127262633Y-79149117D01*
X127295635Y-79011573D01*
X127325307Y-78891221D01*
X127656245Y-78891221D01*
X127967980Y-78891221D01*
X128113525Y-78889829D01*
X128207350Y-78884301D01*
X128261359Y-78872605D01*
X128287456Y-78852709D01*
X128294817Y-78835449D01*
X128313238Y-78761850D01*
X128329398Y-78692036D01*
X128348877Y-78604395D01*
X127721798Y-78604395D01*
X127689022Y-78747808D01*
X127656245Y-78891221D01*
X127325307Y-78891221D01*
X127339975Y-78831726D01*
X127382321Y-78670264D01*
G37*
G36*
X138180398Y-80389666D02*
G01*
X138398064Y-80392664D01*
X138565344Y-80399974D01*
X138688875Y-80413492D01*
X138775291Y-80435110D01*
X138831229Y-80466724D01*
X138863325Y-80510226D01*
X138878214Y-80567510D01*
X138882531Y-80640471D01*
X138882766Y-80667946D01*
X138883253Y-80803391D01*
X136973479Y-80803391D01*
X136973479Y-80645851D01*
X136974755Y-80572129D01*
X136983112Y-80514070D01*
X137005339Y-80469803D01*
X137048229Y-80437459D01*
X137118572Y-80415166D01*
X137223159Y-80401055D01*
X137368782Y-80393254D01*
X137562231Y-80389894D01*
X137810299Y-80389103D01*
X137905711Y-80389088D01*
X138180398Y-80389666D01*
G37*
G36*
X131650688Y-78606364D02*
G01*
X131698721Y-78616678D01*
X131711200Y-78641949D01*
X131705332Y-78676102D01*
X131692420Y-78730291D01*
X131667838Y-78834507D01*
X131634417Y-78976712D01*
X131594987Y-79144868D01*
X131565249Y-79271898D01*
X131519775Y-79464392D01*
X131484274Y-79605599D01*
X131454507Y-79706360D01*
X131426233Y-79777517D01*
X131395210Y-79829911D01*
X131357198Y-79874385D01*
X131312804Y-79917256D01*
X131234445Y-79985486D01*
X131169013Y-80021800D01*
X131089892Y-80036153D01*
X130988607Y-80038523D01*
X130881576Y-80036332D01*
X130825263Y-80027083D01*
X130806796Y-80006763D01*
X130809786Y-79982751D01*
X130831489Y-79905784D01*
X130845905Y-79855273D01*
X130889225Y-79795351D01*
X130941316Y-79783567D01*
X131047215Y-79769824D01*
X131107050Y-79731649D01*
X131116837Y-79700484D01*
X131096989Y-79672846D01*
X131031043Y-79658963D01*
X130944604Y-79656089D01*
X130838537Y-79651741D01*
X130770800Y-79632255D01*
X130716302Y-79587968D01*
X130689967Y-79558035D01*
X130637253Y-79482374D01*
X130609937Y-79417799D01*
X130608829Y-79406655D01*
X130616659Y-79355822D01*
X130636994Y-79257654D01*
X130666688Y-79126603D01*
X130700204Y-78986829D01*
X130790314Y-78620330D01*
X130953576Y-78610697D01*
X131045601Y-78608396D01*
X131104810Y-78612925D01*
X131116837Y-78618927D01*
X131109939Y-78655411D01*
X131091260Y-78740402D01*
X131063821Y-78860414D01*
X131037263Y-78973982D01*
X131004842Y-79113901D01*
X130978789Y-79231163D01*
X130962158Y-79311711D01*
X130957689Y-79340220D01*
X130985905Y-79358528D01*
X131056261Y-79368593D01*
X131083002Y-79369263D01*
X131208315Y-79369263D01*
X131383309Y-78604395D01*
X131553061Y-78604395D01*
X131650688Y-78606364D01*
G37*
G36*
X141271847Y-77868690D02*
G01*
X141389314Y-77893241D01*
X141440073Y-77905518D01*
X141708822Y-77973007D01*
X141736326Y-78277539D01*
X141750772Y-78421451D01*
X141765775Y-78516326D01*
X141785788Y-78576747D01*
X141815261Y-78617296D01*
X141848545Y-78645155D01*
X141933261Y-78708239D01*
X142206719Y-78558990D01*
X142480176Y-78409741D01*
X142657884Y-78578021D01*
X142769911Y-78686021D01*
X142838826Y-78765794D01*
X142867492Y-78833198D01*
X142858774Y-78904092D01*
X142815536Y-78994336D01*
X142752259Y-79100611D01*
X142686841Y-79213049D01*
X142636775Y-79307768D01*
X142609855Y-79369651D01*
X142607313Y-79381675D01*
X142627500Y-79431609D01*
X142676942Y-79498675D01*
X142685368Y-79508023D01*
X142738386Y-79555917D01*
X142798861Y-79582046D01*
X142888428Y-79593207D01*
X142963876Y-79595527D01*
X143117480Y-79600112D01*
X143220784Y-79614298D01*
X143287146Y-79647438D01*
X143329925Y-79708887D01*
X143362479Y-79807999D01*
X143382471Y-79888644D01*
X143408277Y-80010764D01*
X143423413Y-80112239D01*
X143425274Y-80174593D01*
X143423687Y-80181115D01*
X143388363Y-80216352D01*
X143310374Y-80268681D01*
X143204761Y-80328284D01*
X143173717Y-80344223D01*
X143045191Y-80410793D01*
X142963663Y-80461478D01*
X142918455Y-80507381D01*
X142898894Y-80559603D01*
X142894303Y-80629244D01*
X142894267Y-80634822D01*
X142899597Y-80687740D01*
X142922678Y-80735341D01*
X142973302Y-80789092D01*
X143061259Y-80860464D01*
X143132501Y-80913908D01*
X143236601Y-80995084D01*
X143317419Y-81065906D01*
X143363514Y-81115948D01*
X143369963Y-81130282D01*
X143358272Y-81177659D01*
X143328587Y-81266074D01*
X143286994Y-81377559D01*
X143280964Y-81392977D01*
X143193226Y-81616064D01*
X142578284Y-81597260D01*
X142495929Y-81721862D01*
X142413574Y-81846465D01*
X142510444Y-82090626D01*
X142555555Y-82209554D01*
X142589469Y-82308911D01*
X142606403Y-82371428D01*
X142607313Y-82379899D01*
X142583100Y-82420360D01*
X142520697Y-82483114D01*
X142435460Y-82555982D01*
X142342746Y-82626787D01*
X142257909Y-82683348D01*
X142196306Y-82713487D01*
X142184089Y-82715562D01*
X142138776Y-82696670D01*
X142059974Y-82646574D01*
X141962871Y-82575146D01*
X141938892Y-82556214D01*
X141823670Y-82468164D01*
X141738364Y-82418515D01*
X141665842Y-82402735D01*
X141588972Y-82416288D01*
X141515397Y-82444130D01*
X141457578Y-82470893D01*
X141417988Y-82502271D01*
X141389880Y-82551722D01*
X141366507Y-82632702D01*
X141341121Y-82758671D01*
X141331381Y-82811171D01*
X141302439Y-82948079D01*
X141271392Y-83033357D01*
X141229697Y-83078785D01*
X141168806Y-83096144D01*
X141123341Y-83097996D01*
X141015835Y-83097996D01*
X141015835Y-82018956D01*
X141197495Y-81966079D01*
X141457284Y-81870170D01*
X141679075Y-81740321D01*
X141885023Y-81563465D01*
X141892307Y-81556172D01*
X142092291Y-81312690D01*
X142234984Y-81045715D01*
X142319350Y-80761587D01*
X142344354Y-80466646D01*
X142308962Y-80167230D01*
X142212138Y-79869681D01*
X142179288Y-79798523D01*
X142016356Y-79534505D01*
X141810507Y-79315110D01*
X141567533Y-79143923D01*
X141293229Y-79024532D01*
X140993388Y-78960523D01*
X140808943Y-78950186D01*
X140502811Y-78975966D01*
X140227469Y-79055480D01*
X139976095Y-79191671D01*
X139741868Y-79387486D01*
X139702401Y-79427821D01*
X139610553Y-79536530D01*
X139518834Y-79665775D01*
X139436255Y-79800277D01*
X139371825Y-79924754D01*
X139334554Y-80023925D01*
X139328892Y-80061304D01*
X139303852Y-80105817D01*
X139267301Y-80133010D01*
X139215176Y-80144217D01*
X139114010Y-80153332D01*
X138978397Y-80160158D01*
X138822925Y-80164494D01*
X138662186Y-80166143D01*
X138510773Y-80164906D01*
X138383274Y-80160584D01*
X138294283Y-80152978D01*
X138265180Y-80146657D01*
X138226267Y-80100982D01*
X138214832Y-80034325D01*
X138220793Y-79980961D01*
X138245539Y-79941693D01*
X138299362Y-79911433D01*
X138392556Y-79885094D01*
X138535415Y-79857585D01*
X138591870Y-79847945D01*
X138712833Y-79825830D01*
X138786877Y-79804190D01*
X138830111Y-79774553D01*
X138858644Y-79728452D01*
X138870379Y-79701524D01*
X138900918Y-79617309D01*
X138908686Y-79547883D01*
X138889300Y-79477182D01*
X138838373Y-79389141D01*
X138752242Y-79268667D01*
X138589401Y-79048731D01*
X138673114Y-78930139D01*
X138750943Y-78824772D01*
X138834980Y-78717765D01*
X138848845Y-78700914D01*
X138940863Y-78590281D01*
X139190567Y-78693204D01*
X139340563Y-78751855D01*
X139447699Y-78783419D01*
X139526145Y-78789131D01*
X139590071Y-78770224D01*
X139647163Y-78732979D01*
X139683960Y-78700694D01*
X139707238Y-78662876D01*
X139720075Y-78605197D01*
X139725549Y-78513326D01*
X139726735Y-78372934D01*
X139726737Y-78362406D01*
X139726737Y-78053049D01*
X139947787Y-77978157D01*
X140063574Y-77941219D01*
X140160327Y-77914466D01*
X140218298Y-77903321D01*
X140220453Y-77903266D01*
X140260489Y-77927992D01*
X140324302Y-77994195D01*
X140400969Y-78089917D01*
X140438744Y-78142287D01*
X140520414Y-78256404D01*
X140579098Y-78327190D01*
X140626443Y-78364796D01*
X140674094Y-78379372D01*
X140712971Y-78381309D01*
X140779828Y-78372726D01*
X140837544Y-78340774D01*
X140894711Y-78276142D01*
X140959920Y-78169522D01*
X141027062Y-78040967D01*
X141077214Y-77948083D01*
X141120192Y-77880204D01*
X141140718Y-77856968D01*
X141183621Y-77855730D01*
X141271847Y-77868690D01*
G37*
G36*
X128093524Y-80389501D02*
G01*
X128298997Y-80392058D01*
X128454646Y-80398736D01*
X128567389Y-80411513D01*
X128644142Y-80432366D01*
X128691824Y-80463271D01*
X128717351Y-80506207D01*
X128727642Y-80563149D01*
X128729613Y-80636077D01*
X128729619Y-80645851D01*
X128729619Y-80803391D01*
X128526132Y-80803391D01*
X128404394Y-80798915D01*
X128334301Y-80783835D01*
X128304358Y-80755674D01*
X128304324Y-80755587D01*
X128285364Y-80735013D01*
X128240499Y-80721093D01*
X128159834Y-80712683D01*
X128033476Y-80708641D01*
X127890540Y-80707783D01*
X127719830Y-80709122D01*
X127602842Y-80713900D01*
X127529684Y-80723261D01*
X127490459Y-80738349D01*
X127476755Y-80755587D01*
X127445290Y-80784655D01*
X127371711Y-80799708D01*
X127266458Y-80803391D01*
X127074481Y-80803391D01*
X127074481Y-80389088D01*
X127831309Y-80389088D01*
X128093524Y-80389501D01*
G37*
G36*
X139090146Y-82667758D02*
G01*
X139846967Y-82659212D01*
X140603788Y-82650665D01*
X140682493Y-82729469D01*
X140726375Y-82782498D01*
X140750285Y-82843832D01*
X140759910Y-82934335D01*
X140761198Y-83018322D01*
X140757766Y-83138972D01*
X140743709Y-83216889D01*
X140713387Y-83272884D01*
X140683071Y-83306597D01*
X140604944Y-83384822D01*
X139854503Y-83384822D01*
X139606442Y-83384108D01*
X139415482Y-83381728D01*
X139275081Y-83377321D01*
X139178695Y-83370529D01*
X139119779Y-83360992D01*
X139091791Y-83348350D01*
X139087925Y-83342716D01*
X139081921Y-83294291D01*
X139078876Y-83198211D01*
X139079100Y-83070503D01*
X139080710Y-82996051D01*
X139492605Y-82996051D01*
X139502827Y-83032470D01*
X139546931Y-83049805D01*
X139653187Y-83059154D01*
X139822027Y-83060545D01*
X139896332Y-83059149D01*
X140059098Y-83053876D01*
X140167892Y-83046376D01*
X140232398Y-83035169D01*
X140262298Y-83018776D01*
X140267840Y-83002388D01*
X140257216Y-82980973D01*
X140218838Y-82965957D01*
X140142944Y-82955811D01*
X140019772Y-82949008D01*
X139904483Y-82945523D01*
X139720816Y-82944060D01*
X139594722Y-82951176D01*
X139520539Y-82968098D01*
X139492605Y-82996051D01*
X139080710Y-82996051D01*
X139080967Y-82984184D01*
X139090146Y-82667758D01*
G37*
G36*
X131069093Y-81010543D02*
G01*
X131821760Y-81010543D01*
X132082184Y-81010617D01*
X132285907Y-81012756D01*
X132439883Y-81019833D01*
X132551064Y-81034724D01*
X132626403Y-81060302D01*
X132672854Y-81099442D01*
X132697369Y-81155019D01*
X132706902Y-81229906D01*
X132708406Y-81326979D01*
X132708316Y-81377043D01*
X132708091Y-81484590D01*
X132702761Y-81568691D01*
X132685345Y-81632331D01*
X132648862Y-81678498D01*
X132586329Y-81710180D01*
X132490766Y-81730364D01*
X132355191Y-81742038D01*
X132172623Y-81748189D01*
X131936079Y-81751803D01*
X131829359Y-81753149D01*
X131585365Y-81755678D01*
X131398015Y-81755976D01*
X131260322Y-81753730D01*
X131165299Y-81748628D01*
X131105960Y-81740359D01*
X131075319Y-81728609D01*
X131067545Y-81719125D01*
X131061406Y-81670420D01*
X131058118Y-81573630D01*
X131057995Y-81444357D01*
X131059710Y-81355796D01*
X131466963Y-81355796D01*
X131481101Y-81409998D01*
X131488182Y-81419535D01*
X131531186Y-81431172D01*
X131620962Y-81438131D01*
X131740817Y-81440700D01*
X131874059Y-81439163D01*
X132003994Y-81433807D01*
X132113929Y-81424917D01*
X132187172Y-81412780D01*
X132202027Y-81407313D01*
X132248253Y-81372386D01*
X132238731Y-81346017D01*
X132171589Y-81327713D01*
X132044954Y-81316976D01*
X131856954Y-81313310D01*
X131847039Y-81313304D01*
X131678691Y-81314888D01*
X131565397Y-81320277D01*
X131498618Y-81330427D01*
X131469813Y-81346291D01*
X131466963Y-81355796D01*
X131059710Y-81355796D01*
X131059958Y-81343019D01*
X131069093Y-81010543D01*
G37*
G36*
X130159346Y-80389666D02*
G01*
X130377011Y-80392664D01*
X130544292Y-80399974D01*
X130667822Y-80413492D01*
X130754239Y-80435110D01*
X130810177Y-80466724D01*
X130842272Y-80510226D01*
X130857161Y-80567510D01*
X130861479Y-80640471D01*
X130861713Y-80667946D01*
X130862201Y-80803391D01*
X128952426Y-80803391D01*
X128952426Y-80645851D01*
X128953703Y-80572129D01*
X128962059Y-80514070D01*
X128984286Y-80469803D01*
X129027176Y-80437459D01*
X129097519Y-80415166D01*
X129202106Y-80401055D01*
X129347729Y-80393254D01*
X129541179Y-80389894D01*
X129789246Y-80389103D01*
X129884659Y-80389088D01*
X130159346Y-80389666D01*
G37*
G36*
X138788984Y-82035403D02*
G01*
X138791092Y-82035814D01*
X138842608Y-82049802D01*
X138870142Y-82076483D01*
X138881191Y-82132590D01*
X138883252Y-82234855D01*
X138883253Y-82241503D01*
X138883253Y-82428736D01*
X138469469Y-82428736D01*
X138469469Y-82054642D01*
X138584200Y-82036000D01*
X138690758Y-82028259D01*
X138788984Y-82035403D01*
G37*
G36*
X128709784Y-79009708D02*
G01*
X128796500Y-78870325D01*
X128917914Y-78760820D01*
X129063453Y-78681935D01*
X129222544Y-78634413D01*
X129384611Y-78618997D01*
X129539082Y-78636430D01*
X129675382Y-78687455D01*
X129782938Y-78772816D01*
X129851174Y-78893255D01*
X129860828Y-78928830D01*
X129862806Y-79074093D01*
X129815825Y-79228493D01*
X129729774Y-79376860D01*
X129614541Y-79504022D01*
X129480017Y-79594810D01*
X129409222Y-79621652D01*
X129245863Y-79649720D01*
X129078004Y-79649833D01*
X128933156Y-79622579D01*
X128901982Y-79610789D01*
X128776966Y-79524559D01*
X128696331Y-79400795D01*
X128663741Y-79250960D01*
X128677113Y-79135965D01*
X128996998Y-79135965D01*
X129000131Y-79250590D01*
X129046939Y-79346063D01*
X129127160Y-79404044D01*
X129150577Y-79410408D01*
X129210591Y-79422931D01*
X129231957Y-79428662D01*
X129264065Y-79420502D01*
X129331956Y-79394822D01*
X129349204Y-79387709D01*
X129449150Y-79319221D01*
X129518824Y-79220029D01*
X129553166Y-79107224D01*
X129547115Y-78997895D01*
X129495608Y-78909134D01*
X129491946Y-78905721D01*
X129393256Y-78854263D01*
X129281175Y-78853211D01*
X129170355Y-78895752D01*
X129075445Y-78975069D01*
X129011096Y-79084347D01*
X128996998Y-79135965D01*
X128677113Y-79135965D01*
X128682863Y-79086518D01*
X128709784Y-79009708D01*
G37*
G36*
X134157261Y-80389403D02*
G01*
X134371563Y-80391550D01*
X134535627Y-80397335D01*
X134656162Y-80408562D01*
X134739879Y-80427034D01*
X134793488Y-80454556D01*
X134823699Y-80492933D01*
X134837222Y-80543968D01*
X134840769Y-80609467D01*
X134840897Y-80645851D01*
X134840897Y-80803391D01*
X132931123Y-80803391D01*
X132931123Y-80645851D01*
X132932294Y-80572913D01*
X132940281Y-80515289D01*
X132961795Y-80471173D01*
X133003545Y-80438762D01*
X133072242Y-80416251D01*
X133174595Y-80401836D01*
X133317316Y-80393712D01*
X133507114Y-80390076D01*
X133750700Y-80389122D01*
X133886010Y-80389088D01*
X134157261Y-80389403D01*
G37*
G36*
X130444425Y-78288397D02*
G01*
X130492391Y-78299703D01*
X130503372Y-78324444D01*
X130499719Y-78341472D01*
X130480314Y-78411973D01*
X130451583Y-78523087D01*
X130416721Y-78661701D01*
X130378924Y-78814703D01*
X130341385Y-78968981D01*
X130307301Y-79111422D01*
X130279866Y-79228914D01*
X130262276Y-79308344D01*
X130257439Y-79335773D01*
X130285414Y-79357907D01*
X130354205Y-79368973D01*
X130368842Y-79369263D01*
X130439133Y-79374446D01*
X130472835Y-79399507D01*
X130476923Y-79458719D01*
X130460352Y-79556497D01*
X130444755Y-79614940D01*
X130416251Y-79644432D01*
X130356606Y-79654851D01*
X130276457Y-79656089D01*
X130148803Y-79644428D01*
X130052759Y-79613125D01*
X130039705Y-79605069D01*
X129986794Y-79562244D01*
X129951101Y-79513990D01*
X129932629Y-79451211D01*
X129931378Y-79364809D01*
X129947353Y-79245685D01*
X129980554Y-79084742D01*
X130030986Y-78872882D01*
X130039902Y-78836692D01*
X130176023Y-78285700D01*
X130346194Y-78285700D01*
X130444425Y-78288397D01*
G37*
G36*
X136655707Y-81010670D02*
G01*
X136657852Y-81011130D01*
X136750672Y-81031542D01*
X136750672Y-81727607D01*
X136336887Y-81727607D01*
X136336887Y-81033572D01*
X136450959Y-81012145D01*
X136557230Y-81003017D01*
X136655707Y-81010670D01*
G37*
X119914936Y-82958000D02*
X120369064Y-82958000D01*
X119914936Y-84428000D02*
X120369064Y-84428000D01*
X142340000Y-103131252D02*
X142340000Y-102608748D01*
X140870000Y-103131252D02*
X140870000Y-102608748D01*
X147039064Y-91340000D02*
X146584936Y-91340000D01*
X147039064Y-92810000D02*
X146584936Y-92810000D01*
X124699752Y-92810000D02*
X124177248Y-92810000D01*
X124699752Y-91340000D02*
X124177248Y-91340000D01*
X146550748Y-88927000D02*
X147073252Y-88927000D01*
X146550748Y-90397000D02*
X147073252Y-90397000D01*
X119142000Y-82240000D02*
X122002000Y-82240000D01*
X122002000Y-80320000D02*
X119142000Y-80320000D01*
X122002000Y-82240000D02*
X122002000Y-80320000D01*
X128009500Y-93422000D02*
X128009500Y-99672000D01*
X133059500Y-93422000D02*
X133059500Y-99672000D01*
X128009500Y-99672000D02*
G75*
G03*
X133059500Y-99672000I2525000J0D01*
G01*
X133059500Y-93422000D02*
G75*
G03*
X128009500Y-93422000I-2525000J0D01*
G01*
X138684000Y-90976000D02*
X135084000Y-90976000D01*
X138684000Y-97746000D02*
X136484000Y-97746000D01*
X138684000Y-97746000D02*
X140884000Y-97746000D01*
X138684000Y-90976000D02*
X140884000Y-90976000D01*
X134753000Y-126587000D02*
X133753000Y-125587000D01*
X133753000Y-116457000D02*
X144123000Y-116457000D01*
X144123000Y-116457000D02*
X144123000Y-125587000D01*
X133753000Y-125587000D02*
X133753000Y-116457000D01*
X143123000Y-126587000D02*
X134753000Y-126587000D01*
X144123000Y-125587000D02*
X143123000Y-126587000D01*
X131390000Y-116414000D02*
X131390000Y-125544000D01*
X121020000Y-125544000D02*
X121020000Y-116414000D01*
X131390000Y-125544000D02*
X130390000Y-126544000D01*
X121020000Y-116414000D02*
X131390000Y-116414000D01*
X122020000Y-126544000D02*
X121020000Y-125544000D01*
X130390000Y-126544000D02*
X122020000Y-126544000D01*
X149546000Y-122047000D02*
X149546000Y-114367000D01*
X152206000Y-122047000D02*
X149546000Y-122047000D01*
X149546000Y-124647000D02*
X149546000Y-123317000D01*
X150876000Y-124647000D02*
X149546000Y-124647000D01*
X152206000Y-114367000D02*
X149546000Y-114367000D01*
X152206000Y-122047000D02*
X152206000Y-114367000D01*
X129357000Y-106468936D02*
X129357000Y-106923064D01*
X130827000Y-106468936D02*
X130827000Y-106923064D01*
X157154000Y-85242000D02*
X157154000Y-85272000D01*
X157154000Y-83342000D02*
X157154000Y-80742000D01*
X157154000Y-78812000D02*
X150694000Y-78812000D01*
X150694000Y-85272000D02*
X150694000Y-85242000D01*
X150694000Y-83342000D02*
X150694000Y-80742000D01*
X157154000Y-85272000D02*
X150694000Y-85272000D01*
X150694000Y-78812000D02*
X150694000Y-78842000D01*
X157154000Y-78812000D02*
X157154000Y-78842000D01*
X148209000Y-100183000D02*
X150159000Y-100183000D01*
X148209000Y-100183000D02*
X144759000Y-100183000D01*
X148209000Y-105303000D02*
X150159000Y-105303000D01*
X148209000Y-105303000D02*
X146259000Y-105303000D01*
X124953752Y-100611000D02*
X124431248Y-100611000D01*
X124953752Y-102081000D02*
X124431248Y-102081000D01*
X146727936Y-96293000D02*
X147182064Y-96293000D01*
X146727936Y-97763000D02*
X147182064Y-97763000D01*
X146584936Y-87857000D02*
X147039064Y-87857000D01*
X146584936Y-86387000D02*
X147039064Y-86387000D01*
D12*
X113792000Y-88011000D03*
X113792000Y-90551000D03*
X113792000Y-93091000D03*
X113792000Y-95631000D03*
X113792000Y-98171000D03*
X113792000Y-100711000D03*
X113792000Y-103251000D03*
X113792000Y-105791000D03*
X113792000Y-110871000D03*
X113792000Y-113411000D03*
X113792000Y-115951000D03*
X113792000Y-118491000D03*
X113792000Y-121031000D03*
X113792000Y-123571000D03*
X162052000Y-78867000D03*
X162052000Y-81407000D03*
X162052000Y-83947000D03*
X162052000Y-86487000D03*
X162052000Y-89027000D03*
X162052000Y-91567000D03*
X162052000Y-94107000D03*
X162052000Y-96647000D03*
X162052000Y-99187000D03*
X162052000Y-101727000D03*
X162052000Y-105791000D03*
X162052000Y-108331000D03*
X162052000Y-110871000D03*
X162052000Y-113411000D03*
X162052000Y-115951000D03*
X162052000Y-118491000D03*
X162052000Y-121031000D03*
X162052000Y-123571000D03*
%LPC*%
X113792000Y-88011000D03*
X113792000Y-90551000D03*
X113792000Y-93091000D03*
X113792000Y-95631000D03*
X113792000Y-98171000D03*
X113792000Y-100711000D03*
X113792000Y-103251000D03*
X113792000Y-105791000D03*
X113792000Y-110871000D03*
X113792000Y-113411000D03*
X113792000Y-115951000D03*
X113792000Y-118491000D03*
X113792000Y-121031000D03*
X113792000Y-123571000D03*
X162052000Y-78867000D03*
X162052000Y-81407000D03*
X162052000Y-83947000D03*
X162052000Y-86487000D03*
X162052000Y-89027000D03*
X162052000Y-91567000D03*
X162052000Y-94107000D03*
X162052000Y-96647000D03*
X162052000Y-99187000D03*
X162052000Y-101727000D03*
X162052000Y-105791000D03*
X162052000Y-108331000D03*
X162052000Y-110871000D03*
X162052000Y-113411000D03*
X162052000Y-115951000D03*
X162052000Y-118491000D03*
X162052000Y-121031000D03*
X162052000Y-123571000D03*
D13*
X133350000Y-108458000D03*
D14*
X133350000Y-105918000D03*
D15*
X119142000Y-83693000D03*
X121142000Y-83693000D03*
D16*
X141605000Y-103907500D03*
X141605000Y-101832500D03*
D17*
X147812000Y-92075000D03*
X145812000Y-92075000D03*
D18*
X125476000Y-92075000D03*
X123401000Y-92075000D03*
D19*
X145774500Y-89662000D03*
X147849500Y-89662000D03*
D20*
X121167000Y-81280000D03*
X119117000Y-81280000D03*
D21*
X130534500Y-94107000D03*
X130534500Y-98987000D03*
D22*
X135821500Y-91436000D03*
X135821500Y-92086000D03*
X135821500Y-92736000D03*
X135821500Y-93386000D03*
X135821500Y-94036000D03*
X135821500Y-94686000D03*
X135821500Y-95336000D03*
X135821500Y-95986000D03*
X135821500Y-96636000D03*
X135821500Y-97286000D03*
X141546500Y-97286000D03*
X141546500Y-96636000D03*
X141546500Y-95986000D03*
X141546500Y-95336000D03*
X141546500Y-94686000D03*
X141546500Y-94036000D03*
X141546500Y-93386000D03*
X141546500Y-92736000D03*
X141546500Y-92086000D03*
X141546500Y-91436000D03*
D23*
X138938000Y-121877000D03*
D24*
X140438000Y-117557000D03*
D21*
X137438000Y-117557000D03*
X140438000Y-114557000D03*
X137438000Y-114557000D03*
D23*
X126205000Y-121834000D03*
D24*
X127705000Y-117514000D03*
D21*
X124705000Y-117514000D03*
X127705000Y-114514000D03*
X124705000Y-114514000D03*
D13*
X150876000Y-123317000D03*
D14*
X150876000Y-120777000D03*
X150876000Y-118237000D03*
X150876000Y-115697000D03*
D25*
X130092000Y-105696000D03*
X130092000Y-107696000D03*
D26*
X157899000Y-84292000D03*
X149949000Y-84292000D03*
X149949000Y-79792000D03*
X157899000Y-79792000D03*
D27*
X145734000Y-100838000D03*
X145734000Y-102108000D03*
X145734000Y-103378000D03*
X145734000Y-104648000D03*
X150684000Y-104648000D03*
X150684000Y-103378000D03*
X150684000Y-102108000D03*
X150684000Y-100838000D03*
D18*
X125730000Y-101346000D03*
X123655000Y-101346000D03*
D15*
X145955000Y-97028000D03*
X147955000Y-97028000D03*
X145812000Y-87122000D03*
X147812000Y-87122000D03*
M02*
