M48
; DRILL file {KiCad 6.0.2-378541a8eb~116~ubuntu18.04.1} date Mon Feb 21 15:39:16 2022
; FORMAT={-:-/ absolute / metric / decimal}
; #@! TF.CreationDate,2022-02-21T15:39:16+08:00
; #@! TF.GenerationSoftware,Kicad,Pcbnew,6.0.2-378541a8eb~116~ubuntu18.04.1
; #@! TF.FileFunction,Plated,1,2,PTH
FMAT,2
METRIC
; #@! TA.AperFunction,Plated,PTH,ViaDrill
T1C0.400
; #@! TA.AperFunction,Plated,PTH,ComponentDrill
T2C0.800
; #@! TA.AperFunction,Plated,PTH,ComponentDrill
T3C1.000
; #@! TA.AperFunction,Plated,PTH,ComponentDrill
T4C1.016
; #@! TA.AperFunction,Plated,PTH,ComponentDrill
T5C1.020
%
G90
G05
T1
X132.334Y-112.268
X138.43Y-103.251
X140.335Y-92.964
X143.888Y-94.159
X143.891Y-93.345
X145.288Y-79.883
X154.813Y-93.853
X158.496Y-99.822
T2
X130.534Y-94.107
X130.534Y-98.987
T3
X133.35Y-105.918
X133.35Y-108.458
X150.876Y-115.697
X150.876Y-118.237
X150.876Y-120.777
X150.876Y-123.317
T4
X113.792Y-88.011
X113.792Y-90.551
X113.792Y-93.091
X113.792Y-95.631
X113.792Y-98.171
X113.792Y-100.711
X113.792Y-103.251
X113.792Y-105.791
X113.792Y-110.871
X113.792Y-113.411
X113.792Y-115.951
X113.792Y-118.491
X113.792Y-121.031
X113.792Y-123.571
X162.052Y-78.867
X162.052Y-81.407
X162.052Y-83.947
X162.052Y-86.487
X162.052Y-89.027
X162.052Y-91.567
X162.052Y-94.107
X162.052Y-96.647
X162.052Y-99.187
X162.052Y-101.727
X162.052Y-105.791
X162.052Y-108.331
X162.052Y-110.871
X162.052Y-113.411
X162.052Y-115.951
X162.052Y-118.491
X162.052Y-121.031
X162.052Y-123.571
T5
X124.705Y-114.514
X124.705Y-117.514
X127.705Y-114.514
X127.705Y-117.514
X137.438Y-114.557
X137.438Y-117.557
X140.438Y-114.557
X140.438Y-117.557
T0
M30
