G04 #@! TF.GenerationSoftware,KiCad,Pcbnew,6.0.2-378541a8eb~116~ubuntu18.04.1*
G04 #@! TF.CreationDate,2022-02-21T15:39:08+08:00*
G04 #@! TF.ProjectId,arduino_can_bus_shield,61726475-696e-46f5-9f63-616e5f627573,rev?*
G04 #@! TF.SameCoordinates,Original*
G04 #@! TF.FileFunction,Soldermask,Bot*
G04 #@! TF.FilePolarity,Negative*
%FSLAX46Y46*%
G04 Gerber Fmt 4.6, Leading zero omitted, Abs format (unit mm)*
G04 Created by KiCad (PCBNEW 6.0.2-378541a8eb~116~ubuntu18.04.1) date 2022-02-21 15:39:08*
%MOMM*%
%LPD*%
G01*
G04 APERTURE LIST*
G04 Aperture macros list*
%AMRoundRect*
0 Rectangle with rounded corners*
0 $1 Rounding radius*
0 $2 $3 $4 $5 $6 $7 $8 $9 X,Y pos of 4 corners*
0 Add a 4 corners polygon primitive as box body*
4,1,4,$2,$3,$4,$5,$6,$7,$8,$9,$2,$3,0*
0 Add four circle primitives for the rounded corners*
1,1,$1+$1,$2,$3*
1,1,$1+$1,$4,$5*
1,1,$1+$1,$6,$7*
1,1,$1+$1,$8,$9*
0 Add four rect primitives between the rounded corners*
20,1,$1+$1,$2,$3,$4,$5,0*
20,1,$1+$1,$4,$5,$6,$7,0*
20,1,$1+$1,$6,$7,$8,$9,0*
20,1,$1+$1,$8,$9,$2,$3,0*%
G04 Aperture macros list end*
%ADD10O,2.032000X1.727200*%
%ADD11R,1.700000X1.700000*%
%ADD12O,1.700000X1.700000*%
%ADD13C,1.500000*%
%ADD14C,3.000000*%
%ADD15RoundRect,0.250001X0.499999X0.499999X-0.499999X0.499999X-0.499999X-0.499999X0.499999X-0.499999X0*%
G04 APERTURE END LIST*
D10*
X113792000Y-88011000D03*
X113792000Y-90551000D03*
X113792000Y-93091000D03*
X113792000Y-95631000D03*
X113792000Y-98171000D03*
X113792000Y-100711000D03*
X113792000Y-103251000D03*
X113792000Y-105791000D03*
X113792000Y-110871000D03*
X113792000Y-113411000D03*
X113792000Y-115951000D03*
X113792000Y-118491000D03*
X113792000Y-121031000D03*
X113792000Y-123571000D03*
X162052000Y-78867000D03*
X162052000Y-81407000D03*
X162052000Y-83947000D03*
X162052000Y-86487000D03*
X162052000Y-89027000D03*
X162052000Y-91567000D03*
X162052000Y-94107000D03*
X162052000Y-96647000D03*
X162052000Y-99187000D03*
X162052000Y-101727000D03*
X162052000Y-105791000D03*
X162052000Y-108331000D03*
X162052000Y-110871000D03*
X162052000Y-113411000D03*
X162052000Y-115951000D03*
X162052000Y-118491000D03*
X162052000Y-121031000D03*
X162052000Y-123571000D03*
D11*
X133350000Y-108458000D03*
D12*
X133350000Y-105918000D03*
D13*
X130534500Y-94107000D03*
X130534500Y-98987000D03*
D14*
X138938000Y-121877000D03*
D15*
X140438000Y-117557000D03*
D13*
X137438000Y-117557000D03*
X140438000Y-114557000D03*
X137438000Y-114557000D03*
D14*
X126205000Y-121834000D03*
D15*
X127705000Y-117514000D03*
D13*
X124705000Y-117514000D03*
X127705000Y-114514000D03*
X124705000Y-114514000D03*
D11*
X150876000Y-123317000D03*
D12*
X150876000Y-120777000D03*
X150876000Y-118237000D03*
X150876000Y-115697000D03*
M02*
