G04 #@! TF.GenerationSoftware,KiCad,Pcbnew,6.0.2-378541a8eb~116~ubuntu20.04.1*
G04 #@! TF.CreationDate,2022-02-25T19:51:43+08:00*
G04 #@! TF.ProjectId,arduino_can_bus_shield,61726475-696e-46f5-9f63-616e5f627573,rev?*
G04 #@! TF.SameCoordinates,Original*
G04 #@! TF.FileFunction,Copper,L2,Bot*
G04 #@! TF.FilePolarity,Positive*
%FSLAX46Y46*%
G04 Gerber Fmt 4.6, Leading zero omitted, Abs format (unit mm)*
G04 Created by KiCad (PCBNEW 6.0.2-378541a8eb~116~ubuntu20.04.1) date 2022-02-25 19:51:43*
%MOMM*%
%LPD*%
G01*
G04 APERTURE LIST*
G04 Aperture macros list*
%AMRoundRect*
0 Rectangle with rounded corners*
0 $1 Rounding radius*
0 $2 $3 $4 $5 $6 $7 $8 $9 X,Y pos of 4 corners*
0 Add a 4 corners polygon primitive as box body*
4,1,4,$2,$3,$4,$5,$6,$7,$8,$9,$2,$3,0*
0 Add four circle primitives for the rounded corners*
1,1,$1+$1,$2,$3*
1,1,$1+$1,$4,$5*
1,1,$1+$1,$6,$7*
1,1,$1+$1,$8,$9*
0 Add four rect primitives between the rounded corners*
20,1,$1+$1,$2,$3,$4,$5,0*
20,1,$1+$1,$4,$5,$6,$7,0*
20,1,$1+$1,$6,$7,$8,$9,0*
20,1,$1+$1,$8,$9,$2,$3,0*%
G04 Aperture macros list end*
G04 #@! TA.AperFunction,ComponentPad*
%ADD10O,2.032000X1.727200*%
G04 #@! TD*
G04 #@! TA.AperFunction,ComponentPad*
%ADD11R,1.700000X1.700000*%
G04 #@! TD*
G04 #@! TA.AperFunction,ComponentPad*
%ADD12O,1.700000X1.700000*%
G04 #@! TD*
G04 #@! TA.AperFunction,ComponentPad*
%ADD13C,1.500000*%
G04 #@! TD*
G04 #@! TA.AperFunction,ComponentPad*
%ADD14RoundRect,0.250001X0.499999X0.499999X-0.499999X0.499999X-0.499999X-0.499999X0.499999X-0.499999X0*%
G04 #@! TD*
G04 #@! TA.AperFunction,ViaPad*
%ADD15C,0.600000*%
G04 #@! TD*
G04 #@! TA.AperFunction,Conductor*
%ADD16C,0.400000*%
G04 #@! TD*
G04 APERTURE END LIST*
D10*
X113792000Y-88011000D03*
X113792000Y-90551000D03*
X113792000Y-93091000D03*
X113792000Y-95631000D03*
X113792000Y-98171000D03*
X113792000Y-100711000D03*
X113792000Y-103251000D03*
X113792000Y-105791000D03*
X113792000Y-110871000D03*
X113792000Y-113411000D03*
X113792000Y-115951000D03*
X113792000Y-118491000D03*
X113792000Y-121031000D03*
X113792000Y-123571000D03*
X162052000Y-78867000D03*
X162052000Y-81407000D03*
X162052000Y-83947000D03*
X162052000Y-86487000D03*
X162052000Y-89027000D03*
X162052000Y-91567000D03*
X162052000Y-94107000D03*
X162052000Y-96647000D03*
X162052000Y-99187000D03*
X162052000Y-101727000D03*
X162052000Y-105791000D03*
X162052000Y-108331000D03*
X162052000Y-110871000D03*
X162052000Y-113411000D03*
X162052000Y-115951000D03*
X162052000Y-118491000D03*
X162052000Y-121031000D03*
X162052000Y-123571000D03*
D11*
X133350000Y-108458000D03*
D12*
X133350000Y-105918000D03*
D13*
X130534500Y-94107000D03*
X130534500Y-98987000D03*
D14*
X140438000Y-117557000D03*
D13*
X137438000Y-117557000D03*
X140438000Y-114557000D03*
X137438000Y-114557000D03*
D14*
X127705000Y-117514000D03*
D13*
X124705000Y-117514000D03*
X127705000Y-114514000D03*
X124705000Y-114514000D03*
D11*
X150876000Y-123317000D03*
D12*
X150876000Y-120777000D03*
X150876000Y-118237000D03*
X150876000Y-115697000D03*
D15*
X138430000Y-103251000D03*
X145288000Y-79883000D03*
X140335000Y-92964000D03*
X158496000Y-99822000D03*
X154813000Y-93853000D03*
X143891000Y-93345000D03*
X143888196Y-94159352D03*
X132334000Y-112268000D03*
D16*
X148717000Y-123317000D02*
X147320000Y-121920000D01*
X141351000Y-108204000D02*
X137795000Y-108204000D01*
X147320000Y-121920000D02*
X147320000Y-114173000D01*
X120777000Y-86995000D02*
X117602000Y-90170000D01*
X136398000Y-104267000D02*
X135382000Y-103251000D01*
X136398000Y-106807000D02*
X136398000Y-104267000D01*
X120396000Y-103251000D02*
X115316000Y-98171000D01*
X150876000Y-123317000D02*
X148717000Y-123317000D01*
X135382000Y-103251000D02*
X134366000Y-103251000D01*
X134366000Y-103251000D02*
X120396000Y-103251000D01*
X138176000Y-86995000D02*
X120777000Y-86995000D01*
X115443000Y-98171000D02*
X113792000Y-98171000D01*
X117602000Y-96012000D02*
X115443000Y-98171000D01*
X147320000Y-114173000D02*
X141351000Y-108204000D01*
X138430000Y-103251000D02*
X134366000Y-103251000D01*
X145288000Y-79883000D02*
X138176000Y-86995000D01*
X115316000Y-98171000D02*
X113792000Y-98171000D01*
X117602000Y-90170000D02*
X117602000Y-96012000D01*
X137795000Y-108204000D02*
X136398000Y-106807000D01*
X140335000Y-92964000D02*
X140335000Y-97917000D01*
X141986000Y-99568000D02*
X155829000Y-99568000D01*
X140335000Y-97917000D02*
X141986000Y-99568000D01*
X155829000Y-99568000D02*
X162052000Y-105791000D01*
X154813000Y-93853000D02*
X154813000Y-96139000D01*
X154813000Y-96139000D02*
X158496000Y-99822000D01*
X151257000Y-91567000D02*
X162052000Y-91567000D01*
X143891000Y-93345000D02*
X144018000Y-93472000D01*
X144018000Y-93472000D02*
X149352000Y-93472000D01*
X149352000Y-93472000D02*
X151257000Y-91567000D01*
X162052000Y-94107000D02*
X160111520Y-92166520D01*
X160111520Y-92166520D02*
X151505330Y-92166520D01*
X151505330Y-92166520D02*
X149512498Y-94159352D01*
X149512498Y-94159352D02*
X143888196Y-94159352D01*
X132334000Y-112268000D02*
X132334000Y-115570000D01*
X132334000Y-115570000D02*
X131539520Y-116364480D01*
X125854520Y-116364480D02*
X124705000Y-117514000D01*
X131539520Y-116364480D02*
X125854520Y-116364480D01*
X133350000Y-115401849D02*
X131237849Y-117514000D01*
X133350000Y-108458000D02*
X133350000Y-115401849D01*
X131237849Y-117514000D02*
X127705000Y-117514000D01*
G04 #@! TA.AperFunction,Conductor*
G36*
X161423586Y-77363002D02*
G01*
X161470079Y-77416658D01*
X161480183Y-77486932D01*
X161450689Y-77551512D01*
X161407216Y-77583882D01*
X161229887Y-77663762D01*
X161036728Y-77793804D01*
X160868242Y-77954532D01*
X160729246Y-78141350D01*
X160726830Y-78146102D01*
X160669090Y-78259669D01*
X160623714Y-78348916D01*
X160589189Y-78460106D01*
X160556247Y-78566193D01*
X160556246Y-78566199D01*
X160554663Y-78571296D01*
X160524068Y-78802132D01*
X160532803Y-79034822D01*
X160544566Y-79090881D01*
X160557078Y-79150512D01*
X160580620Y-79262713D01*
X160666150Y-79479290D01*
X160786949Y-79678359D01*
X160939561Y-79854230D01*
X160943687Y-79857613D01*
X160943691Y-79857617D01*
X161002354Y-79905717D01*
X161119624Y-80001872D01*
X161124260Y-80004511D01*
X161124263Y-80004513D01*
X161165252Y-80027845D01*
X161214558Y-80078927D01*
X161228420Y-80148558D01*
X161202437Y-80214629D01*
X161173287Y-80241867D01*
X161036728Y-80333804D01*
X161032871Y-80337483D01*
X161032869Y-80337485D01*
X160961066Y-80405982D01*
X160868242Y-80494532D01*
X160729246Y-80681350D01*
X160623714Y-80888916D01*
X160612636Y-80924593D01*
X160556247Y-81106193D01*
X160556246Y-81106199D01*
X160554663Y-81111296D01*
X160524068Y-81342132D01*
X160532803Y-81574822D01*
X160580620Y-81802713D01*
X160666150Y-82019290D01*
X160786949Y-82218359D01*
X160939561Y-82394230D01*
X160943687Y-82397613D01*
X160943691Y-82397617D01*
X161039915Y-82476515D01*
X161119624Y-82541872D01*
X161124260Y-82544511D01*
X161124263Y-82544513D01*
X161165252Y-82567845D01*
X161214558Y-82618927D01*
X161228420Y-82688558D01*
X161202437Y-82754629D01*
X161173287Y-82781867D01*
X161036728Y-82873804D01*
X160868242Y-83034532D01*
X160729246Y-83221350D01*
X160623714Y-83428916D01*
X160598198Y-83511091D01*
X160556247Y-83646193D01*
X160556246Y-83646199D01*
X160554663Y-83651296D01*
X160524068Y-83882132D01*
X160532803Y-84114822D01*
X160580620Y-84342713D01*
X160666150Y-84559290D01*
X160786949Y-84758359D01*
X160939561Y-84934230D01*
X160943687Y-84937613D01*
X160943691Y-84937617D01*
X161039915Y-85016515D01*
X161119624Y-85081872D01*
X161165739Y-85108122D01*
X161215044Y-85159202D01*
X161228906Y-85228832D01*
X161202923Y-85294904D01*
X161173773Y-85322143D01*
X161041470Y-85411215D01*
X161033184Y-85417876D01*
X160872480Y-85571180D01*
X160865431Y-85579148D01*
X160732856Y-85757336D01*
X160727257Y-85766366D01*
X160626598Y-85964347D01*
X160622595Y-85974208D01*
X160556737Y-86186301D01*
X160554452Y-86196696D01*
X160552020Y-86215041D01*
X160554217Y-86229208D01*
X160567401Y-86233000D01*
X162180000Y-86233000D01*
X162248121Y-86253002D01*
X162294614Y-86306658D01*
X162306000Y-86359000D01*
X162306000Y-86615000D01*
X162285998Y-86683121D01*
X162232342Y-86729614D01*
X162180000Y-86741000D01*
X160569512Y-86741000D01*
X160555981Y-86744973D01*
X160554456Y-86755580D01*
X160580004Y-86877343D01*
X160583064Y-86887539D01*
X160664637Y-87094097D01*
X160669371Y-87103634D01*
X160784586Y-87293503D01*
X160790850Y-87302093D01*
X160936411Y-87469837D01*
X160944041Y-87477257D01*
X161115780Y-87618073D01*
X161124551Y-87624102D01*
X161165715Y-87647533D01*
X161215022Y-87698615D01*
X161228884Y-87768245D01*
X161202901Y-87834316D01*
X161173751Y-87861555D01*
X161036728Y-87953804D01*
X161032871Y-87957483D01*
X161032869Y-87957485D01*
X160988350Y-87999954D01*
X160868242Y-88114532D01*
X160729246Y-88301350D01*
X160623714Y-88508916D01*
X160611902Y-88546958D01*
X160556247Y-88726193D01*
X160556246Y-88726199D01*
X160554663Y-88731296D01*
X160543198Y-88817799D01*
X160529193Y-88923468D01*
X160524068Y-88962132D01*
X160532803Y-89194822D01*
X160533898Y-89200040D01*
X160573789Y-89390155D01*
X160580620Y-89422713D01*
X160666150Y-89639290D01*
X160786949Y-89838359D01*
X160790446Y-89842389D01*
X160920713Y-89992509D01*
X160939561Y-90014230D01*
X160943687Y-90017613D01*
X160943691Y-90017617D01*
X161039915Y-90096515D01*
X161119624Y-90161872D01*
X161124260Y-90164511D01*
X161124263Y-90164513D01*
X161165252Y-90187845D01*
X161214558Y-90238927D01*
X161228420Y-90308558D01*
X161202437Y-90374629D01*
X161173287Y-90401867D01*
X161036728Y-90493804D01*
X161032871Y-90497483D01*
X161032869Y-90497485D01*
X160988350Y-90539954D01*
X160868242Y-90654532D01*
X160865054Y-90658817D01*
X160865053Y-90658818D01*
X160754272Y-90807713D01*
X160697562Y-90850426D01*
X160653183Y-90858500D01*
X151285927Y-90858500D01*
X151277358Y-90858208D01*
X151227225Y-90854790D01*
X151227221Y-90854790D01*
X151219648Y-90854274D01*
X151156681Y-90865264D01*
X151150169Y-90866224D01*
X151086758Y-90873898D01*
X151079657Y-90876581D01*
X151077048Y-90877222D01*
X151060715Y-90881691D01*
X151058195Y-90882452D01*
X151050717Y-90883757D01*
X151043765Y-90886809D01*
X151043764Y-90886809D01*
X150992204Y-90909441D01*
X150986099Y-90911932D01*
X150933456Y-90931825D01*
X150933452Y-90931827D01*
X150926344Y-90934513D01*
X150920083Y-90938816D01*
X150917717Y-90940053D01*
X150902937Y-90948280D01*
X150900652Y-90949631D01*
X150893695Y-90952685D01*
X150887675Y-90957305D01*
X150887669Y-90957308D01*
X150856542Y-90981194D01*
X150842998Y-90991587D01*
X150837668Y-90995459D01*
X150791280Y-91027339D01*
X150791275Y-91027344D01*
X150785019Y-91031643D01*
X150779968Y-91037313D01*
X150779966Y-91037314D01*
X150743565Y-91078170D01*
X150738584Y-91083446D01*
X149095435Y-92726595D01*
X149033123Y-92760621D01*
X149006340Y-92763500D01*
X144505480Y-92763500D01*
X144437359Y-92743498D01*
X144416074Y-92726284D01*
X144405777Y-92715915D01*
X144400815Y-92710918D01*
X144389697Y-92703862D01*
X144294070Y-92643176D01*
X144247666Y-92613727D01*
X144198759Y-92596312D01*
X144083425Y-92555243D01*
X144083420Y-92555242D01*
X144076790Y-92552881D01*
X144069802Y-92552048D01*
X144069799Y-92552047D01*
X143946698Y-92537368D01*
X143896680Y-92531404D01*
X143889677Y-92532140D01*
X143889676Y-92532140D01*
X143723288Y-92549628D01*
X143723286Y-92549629D01*
X143716288Y-92550364D01*
X143544579Y-92608818D01*
X143493575Y-92640196D01*
X143396095Y-92700166D01*
X143396092Y-92700168D01*
X143390088Y-92703862D01*
X143385053Y-92708793D01*
X143385050Y-92708795D01*
X143265525Y-92825843D01*
X143260493Y-92830771D01*
X143162235Y-92983238D01*
X143159826Y-92989858D01*
X143159824Y-92989861D01*
X143105235Y-93139844D01*
X143100197Y-93153685D01*
X143077463Y-93333640D01*
X143095163Y-93514160D01*
X143152418Y-93686273D01*
X143156066Y-93692297D01*
X143157987Y-93696454D01*
X143168403Y-93766682D01*
X143158914Y-93797402D01*
X143159431Y-93797590D01*
X143097393Y-93968037D01*
X143074659Y-94147992D01*
X143092359Y-94328512D01*
X143149614Y-94500625D01*
X143153261Y-94506647D01*
X143153262Y-94506649D01*
X143235782Y-94642906D01*
X143243576Y-94655776D01*
X143248465Y-94660839D01*
X143248466Y-94660840D01*
X143304179Y-94718532D01*
X143369578Y-94786254D01*
X143412616Y-94814417D01*
X143483078Y-94860526D01*
X143521355Y-94885574D01*
X143527959Y-94888030D01*
X143527961Y-94888031D01*
X143684754Y-94946342D01*
X143684756Y-94946342D01*
X143691364Y-94948800D01*
X143775191Y-94959985D01*
X143864176Y-94971859D01*
X143864180Y-94971859D01*
X143871157Y-94972790D01*
X143878168Y-94972152D01*
X143878172Y-94972152D01*
X144020655Y-94959184D01*
X144051796Y-94956350D01*
X144058498Y-94954172D01*
X144058500Y-94954172D01*
X144217605Y-94902476D01*
X144217608Y-94902475D01*
X144224304Y-94900299D01*
X144248923Y-94885623D01*
X144313441Y-94867852D01*
X149483586Y-94867852D01*
X149492156Y-94868144D01*
X149542274Y-94871561D01*
X149542278Y-94871561D01*
X149549850Y-94872077D01*
X149557327Y-94870772D01*
X149557328Y-94870772D01*
X149583806Y-94866151D01*
X149612801Y-94861090D01*
X149619319Y-94860129D01*
X149682740Y-94852454D01*
X149689841Y-94849771D01*
X149692450Y-94849130D01*
X149708760Y-94844667D01*
X149711296Y-94843902D01*
X149718782Y-94842595D01*
X149777298Y-94816908D01*
X149783402Y-94814417D01*
X149836046Y-94794525D01*
X149836047Y-94794524D01*
X149843154Y-94791839D01*
X149849417Y-94787535D01*
X149851783Y-94786298D01*
X149866595Y-94778053D01*
X149868849Y-94776720D01*
X149875803Y-94773667D01*
X149926500Y-94734765D01*
X149931830Y-94730893D01*
X149978218Y-94699013D01*
X149978223Y-94699008D01*
X149984479Y-94694709D01*
X150025934Y-94648181D01*
X150030914Y-94642906D01*
X151761895Y-92911925D01*
X151824207Y-92877899D01*
X151850990Y-92875020D01*
X154418579Y-92875020D01*
X154486700Y-92895022D01*
X154533193Y-92948678D01*
X154543297Y-93018952D01*
X154513803Y-93083532D01*
X154472548Y-93114786D01*
X154466579Y-93116818D01*
X154417412Y-93147066D01*
X154318095Y-93208166D01*
X154318092Y-93208168D01*
X154312088Y-93211862D01*
X154307053Y-93216793D01*
X154307050Y-93216795D01*
X154187525Y-93333843D01*
X154182493Y-93338771D01*
X154084235Y-93491238D01*
X154081826Y-93497858D01*
X154081824Y-93497861D01*
X154039300Y-93614694D01*
X154022197Y-93661685D01*
X153999463Y-93841640D01*
X154017163Y-94022160D01*
X154074418Y-94194273D01*
X154078065Y-94200296D01*
X154078066Y-94200297D01*
X154086276Y-94213853D01*
X154104500Y-94279124D01*
X154104500Y-96110088D01*
X154104208Y-96118658D01*
X154101810Y-96153842D01*
X154100275Y-96176352D01*
X154110049Y-96232352D01*
X154111261Y-96239299D01*
X154112223Y-96245821D01*
X154119898Y-96309242D01*
X154122581Y-96316343D01*
X154123222Y-96318952D01*
X154127685Y-96335262D01*
X154128450Y-96337798D01*
X154129757Y-96345284D01*
X154148374Y-96387693D01*
X154155442Y-96403795D01*
X154157933Y-96409899D01*
X154180513Y-96469656D01*
X154184817Y-96475919D01*
X154186054Y-96478285D01*
X154194299Y-96493097D01*
X154195632Y-96495351D01*
X154198685Y-96502305D01*
X154230272Y-96543468D01*
X154237579Y-96552991D01*
X154241459Y-96558332D01*
X154273339Y-96604720D01*
X154273344Y-96604725D01*
X154277643Y-96610981D01*
X154283313Y-96616032D01*
X154283314Y-96616034D01*
X154324170Y-96652435D01*
X154329446Y-96657416D01*
X157697532Y-100025502D01*
X157727994Y-100074824D01*
X157737286Y-100102755D01*
X157754255Y-100153765D01*
X157756778Y-100224717D01*
X157720541Y-100285769D01*
X157657049Y-100317539D01*
X157586461Y-100309938D01*
X157545602Y-100282632D01*
X156350450Y-99087480D01*
X156344596Y-99081215D01*
X156319731Y-99052712D01*
X156306561Y-99037615D01*
X156254280Y-99000871D01*
X156248986Y-98996939D01*
X156204693Y-98962209D01*
X156198718Y-98957524D01*
X156191802Y-98954401D01*
X156189516Y-98953017D01*
X156174835Y-98944643D01*
X156172475Y-98943378D01*
X156166261Y-98939010D01*
X156159182Y-98936250D01*
X156159180Y-98936249D01*
X156106725Y-98915798D01*
X156100656Y-98913247D01*
X156042427Y-98886955D01*
X156034960Y-98885571D01*
X156032405Y-98884770D01*
X156016152Y-98880141D01*
X156013572Y-98879478D01*
X156006491Y-98876718D01*
X155998960Y-98875727D01*
X155998958Y-98875726D01*
X155969339Y-98871827D01*
X155943139Y-98868378D01*
X155936641Y-98867348D01*
X155873814Y-98855704D01*
X155866234Y-98856141D01*
X155866233Y-98856141D01*
X155811608Y-98859291D01*
X155804354Y-98859500D01*
X142331661Y-98859500D01*
X142263540Y-98839498D01*
X142242566Y-98822595D01*
X141080405Y-97660435D01*
X141046380Y-97598123D01*
X141043500Y-97571340D01*
X141043500Y-93394132D01*
X141056983Y-93338400D01*
X141058643Y-93335902D01*
X141072482Y-93299473D01*
X141120555Y-93172920D01*
X141120556Y-93172918D01*
X141123055Y-93166338D01*
X141124035Y-93159366D01*
X141147748Y-92990639D01*
X141147748Y-92990636D01*
X141148299Y-92986717D01*
X141148503Y-92972128D01*
X141148561Y-92967962D01*
X141148561Y-92967957D01*
X141148616Y-92964000D01*
X141128397Y-92783745D01*
X141126080Y-92777091D01*
X141071064Y-92619106D01*
X141071062Y-92619103D01*
X141068745Y-92612448D01*
X141018625Y-92532238D01*
X140976359Y-92464598D01*
X140972626Y-92458624D01*
X140880001Y-92365350D01*
X140849778Y-92334915D01*
X140849774Y-92334912D01*
X140844815Y-92329918D01*
X140833697Y-92322862D01*
X140765591Y-92279641D01*
X140691666Y-92232727D01*
X140662463Y-92222328D01*
X140527425Y-92174243D01*
X140527420Y-92174242D01*
X140520790Y-92171881D01*
X140513802Y-92171048D01*
X140513799Y-92171047D01*
X140390698Y-92156368D01*
X140340680Y-92150404D01*
X140333677Y-92151140D01*
X140333676Y-92151140D01*
X140167288Y-92168628D01*
X140167286Y-92168629D01*
X140160288Y-92169364D01*
X139988579Y-92227818D01*
X139982575Y-92231512D01*
X139840095Y-92319166D01*
X139840092Y-92319168D01*
X139834088Y-92322862D01*
X139829053Y-92327793D01*
X139829050Y-92327795D01*
X139785848Y-92370102D01*
X139704493Y-92449771D01*
X139606235Y-92602238D01*
X139603826Y-92608858D01*
X139603824Y-92608861D01*
X139560972Y-92726595D01*
X139544197Y-92772685D01*
X139521463Y-92952640D01*
X139539163Y-93133160D01*
X139596418Y-93305273D01*
X139600065Y-93311296D01*
X139600066Y-93311297D01*
X139608276Y-93324853D01*
X139626500Y-93390124D01*
X139626500Y-97888088D01*
X139626208Y-97896658D01*
X139624838Y-97916762D01*
X139622275Y-97954352D01*
X139623580Y-97961829D01*
X139623580Y-97961830D01*
X139633261Y-98017299D01*
X139634223Y-98023821D01*
X139641898Y-98087242D01*
X139644581Y-98094343D01*
X139645222Y-98096952D01*
X139649685Y-98113262D01*
X139650450Y-98115798D01*
X139651757Y-98123284D01*
X139654811Y-98130241D01*
X139677442Y-98181795D01*
X139679933Y-98187899D01*
X139702513Y-98247656D01*
X139706817Y-98253919D01*
X139708054Y-98256285D01*
X139716299Y-98271097D01*
X139717632Y-98273351D01*
X139720685Y-98280305D01*
X139753904Y-98323595D01*
X139759579Y-98330991D01*
X139763459Y-98336332D01*
X139795339Y-98382720D01*
X139795344Y-98382725D01*
X139799643Y-98388981D01*
X139805313Y-98394032D01*
X139805314Y-98394034D01*
X139846170Y-98430435D01*
X139851446Y-98435416D01*
X141464550Y-100048520D01*
X141470404Y-100054785D01*
X141508439Y-100098385D01*
X141514657Y-100102755D01*
X141560697Y-100135112D01*
X141565993Y-100139045D01*
X141616282Y-100178477D01*
X141623204Y-100181602D01*
X141625452Y-100182964D01*
X141640185Y-100191368D01*
X141642524Y-100192622D01*
X141648739Y-100196990D01*
X141655815Y-100199749D01*
X141655819Y-100199751D01*
X141708274Y-100220202D01*
X141714352Y-100222757D01*
X141772574Y-100249045D01*
X141780045Y-100250429D01*
X141782599Y-100251230D01*
X141798878Y-100255867D01*
X141801433Y-100256523D01*
X141808509Y-100259282D01*
X141836962Y-100263028D01*
X141871851Y-100267621D01*
X141878367Y-100268653D01*
X141920706Y-100276500D01*
X141941187Y-100280296D01*
X141948767Y-100279859D01*
X141948768Y-100279859D01*
X142003398Y-100276709D01*
X142010651Y-100276500D01*
X155483340Y-100276500D01*
X155551461Y-100296502D01*
X155572435Y-100313405D01*
X160548172Y-105289142D01*
X160582198Y-105351454D01*
X160579409Y-105415602D01*
X160554663Y-105495296D01*
X160553962Y-105500585D01*
X160528812Y-105690342D01*
X160524068Y-105726132D01*
X160524268Y-105731462D01*
X160524268Y-105731463D01*
X160524689Y-105742669D01*
X160532803Y-105958822D01*
X160580620Y-106186713D01*
X160666150Y-106403290D01*
X160786949Y-106602359D01*
X160790446Y-106606389D01*
X160895098Y-106726990D01*
X160939561Y-106778230D01*
X160943687Y-106781613D01*
X160943691Y-106781617D01*
X161010963Y-106836776D01*
X161119624Y-106925872D01*
X161124260Y-106928511D01*
X161124263Y-106928513D01*
X161165252Y-106951845D01*
X161214558Y-107002927D01*
X161228420Y-107072558D01*
X161202437Y-107138629D01*
X161173287Y-107165867D01*
X161036728Y-107257804D01*
X161032871Y-107261483D01*
X161032869Y-107261485D01*
X160950163Y-107340383D01*
X160868242Y-107418532D01*
X160729246Y-107605350D01*
X160623714Y-107812916D01*
X160589188Y-107924106D01*
X160556247Y-108030193D01*
X160556246Y-108030199D01*
X160554663Y-108035296D01*
X160524068Y-108266132D01*
X160532803Y-108498822D01*
X160533898Y-108504040D01*
X160571769Y-108684528D01*
X160580620Y-108726713D01*
X160666150Y-108943290D01*
X160786949Y-109142359D01*
X160939561Y-109318230D01*
X160943687Y-109321613D01*
X160943691Y-109321617D01*
X160981621Y-109352717D01*
X161119624Y-109465872D01*
X161124260Y-109468511D01*
X161124263Y-109468513D01*
X161165252Y-109491845D01*
X161214558Y-109542927D01*
X161228420Y-109612558D01*
X161202437Y-109678629D01*
X161173287Y-109705867D01*
X161036728Y-109797804D01*
X161032871Y-109801483D01*
X161032869Y-109801485D01*
X161005194Y-109827886D01*
X160868242Y-109958532D01*
X160729246Y-110145350D01*
X160623714Y-110352916D01*
X160589189Y-110464106D01*
X160556247Y-110570193D01*
X160556246Y-110570199D01*
X160554663Y-110575296D01*
X160524068Y-110806132D01*
X160524268Y-110811462D01*
X160524268Y-110811463D01*
X160524689Y-110822669D01*
X160532803Y-111038822D01*
X160580620Y-111266713D01*
X160666150Y-111483290D01*
X160786949Y-111682359D01*
X160790446Y-111686389D01*
X160854056Y-111759693D01*
X160939561Y-111858230D01*
X160943687Y-111861613D01*
X160943691Y-111861617D01*
X161039915Y-111940515D01*
X161119624Y-112005872D01*
X161124260Y-112008511D01*
X161124263Y-112008513D01*
X161165252Y-112031845D01*
X161214558Y-112082927D01*
X161228420Y-112152558D01*
X161202437Y-112218629D01*
X161173287Y-112245867D01*
X161146869Y-112263653D01*
X161036728Y-112337804D01*
X160868242Y-112498532D01*
X160729246Y-112685350D01*
X160623714Y-112892916D01*
X160589189Y-113004106D01*
X160556247Y-113110193D01*
X160556246Y-113110199D01*
X160554663Y-113115296D01*
X160553962Y-113120588D01*
X160526312Y-113329205D01*
X160524068Y-113346132D01*
X160524268Y-113351462D01*
X160524268Y-113351463D01*
X160526752Y-113417619D01*
X160532803Y-113578822D01*
X160534991Y-113589251D01*
X160570611Y-113759009D01*
X160580620Y-113806713D01*
X160666150Y-114023290D01*
X160786949Y-114222359D01*
X160790446Y-114226389D01*
X160924853Y-114381280D01*
X160939561Y-114398230D01*
X160943687Y-114401613D01*
X160943691Y-114401617D01*
X160989542Y-114439212D01*
X161119624Y-114545872D01*
X161124260Y-114548511D01*
X161124263Y-114548513D01*
X161165252Y-114571845D01*
X161214558Y-114622927D01*
X161228420Y-114692558D01*
X161202437Y-114758629D01*
X161173287Y-114785867D01*
X161036728Y-114877804D01*
X160868242Y-115038532D01*
X160729246Y-115225350D01*
X160623714Y-115432916D01*
X160609761Y-115477852D01*
X160556247Y-115650193D01*
X160556246Y-115650199D01*
X160554663Y-115655296D01*
X160543089Y-115742622D01*
X160525099Y-115878356D01*
X160524068Y-115886132D01*
X160524268Y-115891462D01*
X160524268Y-115891463D01*
X160524689Y-115902669D01*
X160532803Y-116118822D01*
X160533898Y-116124040D01*
X160576459Y-116326880D01*
X160580620Y-116346713D01*
X160666150Y-116563290D01*
X160786949Y-116762359D01*
X160790446Y-116766389D01*
X160928382Y-116925347D01*
X160939561Y-116938230D01*
X160943687Y-116941613D01*
X160943691Y-116941617D01*
X161039915Y-117020515D01*
X161119624Y-117085872D01*
X161124260Y-117088511D01*
X161124263Y-117088513D01*
X161165252Y-117111845D01*
X161214558Y-117162927D01*
X161228420Y-117232558D01*
X161202437Y-117298629D01*
X161173287Y-117325867D01*
X161147681Y-117343106D01*
X161036728Y-117417804D01*
X160868242Y-117578532D01*
X160729246Y-117765350D01*
X160623714Y-117972916D01*
X160598642Y-118053661D01*
X160556247Y-118190193D01*
X160556246Y-118190199D01*
X160554663Y-118195296D01*
X160549580Y-118233646D01*
X160533744Y-118353131D01*
X160524068Y-118426132D01*
X160524268Y-118431462D01*
X160524268Y-118431463D01*
X160526559Y-118492483D01*
X160532803Y-118658822D01*
X160541977Y-118702543D01*
X160563525Y-118805238D01*
X160580620Y-118886713D01*
X160666150Y-119103290D01*
X160786949Y-119302359D01*
X160790446Y-119306389D01*
X160929242Y-119466338D01*
X160939561Y-119478230D01*
X160943687Y-119481613D01*
X160943691Y-119481617D01*
X161007136Y-119533638D01*
X161119624Y-119625872D01*
X161124260Y-119628511D01*
X161124263Y-119628513D01*
X161165252Y-119651845D01*
X161214558Y-119702927D01*
X161228420Y-119772558D01*
X161202437Y-119838629D01*
X161173287Y-119865867D01*
X161036728Y-119957804D01*
X160868242Y-120118532D01*
X160729246Y-120305350D01*
X160715211Y-120332954D01*
X160638562Y-120483713D01*
X160623714Y-120512916D01*
X160599421Y-120591152D01*
X160556247Y-120730193D01*
X160556246Y-120730199D01*
X160554663Y-120735296D01*
X160524068Y-120966132D01*
X160524268Y-120971462D01*
X160524268Y-120971463D01*
X160524689Y-120982669D01*
X160532803Y-121198822D01*
X160535531Y-121211824D01*
X160573806Y-121394236D01*
X160580620Y-121426713D01*
X160666150Y-121643290D01*
X160786949Y-121842359D01*
X160790446Y-121846389D01*
X160935225Y-122013233D01*
X160939561Y-122018230D01*
X160943687Y-122021613D01*
X160943691Y-122021617D01*
X161018628Y-122083061D01*
X161119624Y-122165872D01*
X161124260Y-122168511D01*
X161124263Y-122168513D01*
X161165252Y-122191845D01*
X161214558Y-122242927D01*
X161228420Y-122312558D01*
X161202437Y-122378629D01*
X161173287Y-122405867D01*
X161036728Y-122497804D01*
X161032871Y-122501483D01*
X161032869Y-122501485D01*
X160959375Y-122571595D01*
X160868242Y-122658532D01*
X160729246Y-122845350D01*
X160623714Y-123052916D01*
X160618433Y-123069925D01*
X160556247Y-123270193D01*
X160556246Y-123270199D01*
X160554663Y-123275296D01*
X160553962Y-123280588D01*
X160529492Y-123465211D01*
X160524068Y-123506132D01*
X160524268Y-123511462D01*
X160524268Y-123511463D01*
X160527086Y-123586530D01*
X160532803Y-123738822D01*
X160546483Y-123804019D01*
X160571405Y-123922793D01*
X160580620Y-123966713D01*
X160666150Y-124183290D01*
X160786949Y-124382359D01*
X160790446Y-124386389D01*
X160934236Y-124552093D01*
X160939561Y-124558230D01*
X160943687Y-124561613D01*
X160943691Y-124561617D01*
X161039915Y-124640515D01*
X161119624Y-124705872D01*
X161124260Y-124708511D01*
X161124263Y-124708513D01*
X161166399Y-124732498D01*
X161215706Y-124783581D01*
X161229567Y-124853211D01*
X161203584Y-124919282D01*
X161146004Y-124960816D01*
X161104067Y-124968000D01*
X114739079Y-124968000D01*
X114670958Y-124947998D01*
X114624465Y-124894342D01*
X114614361Y-124824068D01*
X114643855Y-124759488D01*
X114668712Y-124737480D01*
X114761322Y-124675131D01*
X114807272Y-124644196D01*
X114975758Y-124483468D01*
X115114754Y-124296650D01*
X115197526Y-124133850D01*
X115217867Y-124093842D01*
X115217867Y-124093841D01*
X115220286Y-124089084D01*
X115254812Y-123977894D01*
X115287753Y-123871807D01*
X115287754Y-123871801D01*
X115289337Y-123866704D01*
X115316051Y-123665151D01*
X115319232Y-123641152D01*
X115319232Y-123641148D01*
X115319932Y-123635868D01*
X115311197Y-123403178D01*
X115272922Y-123220764D01*
X115264477Y-123180514D01*
X115264476Y-123180511D01*
X115263380Y-123175287D01*
X115177850Y-122958710D01*
X115057051Y-122759641D01*
X115053554Y-122755611D01*
X114907939Y-122587803D01*
X114907937Y-122587801D01*
X114904439Y-122583770D01*
X114900313Y-122580387D01*
X114900309Y-122580383D01*
X114748826Y-122456176D01*
X114724376Y-122436128D01*
X114719740Y-122433489D01*
X114719737Y-122433487D01*
X114678748Y-122410155D01*
X114629442Y-122359073D01*
X114615580Y-122289442D01*
X114641563Y-122223371D01*
X114670713Y-122196133D01*
X114722842Y-122161037D01*
X114807272Y-122104196D01*
X114829804Y-122082702D01*
X114967196Y-121951636D01*
X114975758Y-121943468D01*
X115109484Y-121763733D01*
X124192822Y-121763733D01*
X124192975Y-121768121D01*
X124192975Y-121768127D01*
X124201833Y-122021771D01*
X124202625Y-122044458D01*
X124203387Y-122048781D01*
X124203388Y-122048788D01*
X124227164Y-122183624D01*
X124251402Y-122321087D01*
X124338203Y-122588235D01*
X124340131Y-122592188D01*
X124340133Y-122592193D01*
X124361106Y-122635193D01*
X124461340Y-122840702D01*
X124463795Y-122844341D01*
X124463798Y-122844347D01*
X124492802Y-122887347D01*
X124618415Y-123073576D01*
X124621360Y-123076847D01*
X124621361Y-123076848D01*
X124705521Y-123170317D01*
X124806371Y-123282322D01*
X125021550Y-123462879D01*
X125259764Y-123611731D01*
X125516375Y-123725982D01*
X125520603Y-123727194D01*
X125520602Y-123727194D01*
X125776507Y-123800573D01*
X125786390Y-123803407D01*
X125790740Y-123804018D01*
X125790743Y-123804019D01*
X125856939Y-123813322D01*
X126064552Y-123842500D01*
X126275146Y-123842500D01*
X126277332Y-123842347D01*
X126277336Y-123842347D01*
X126480827Y-123828118D01*
X126480832Y-123828117D01*
X126485212Y-123827811D01*
X126759970Y-123769409D01*
X126764099Y-123767906D01*
X126764103Y-123767905D01*
X127019781Y-123674846D01*
X127019785Y-123674844D01*
X127023926Y-123673337D01*
X127271942Y-123541464D01*
X127295352Y-123524456D01*
X127495629Y-123378947D01*
X127495632Y-123378944D01*
X127499192Y-123376358D01*
X127701252Y-123181231D01*
X127843570Y-122999071D01*
X127871481Y-122963347D01*
X127871482Y-122963346D01*
X127874188Y-122959882D01*
X127876384Y-122956078D01*
X127876389Y-122956071D01*
X128012435Y-122720431D01*
X128014636Y-122716619D01*
X128119862Y-122456176D01*
X128125532Y-122433435D01*
X128186753Y-122187893D01*
X128186754Y-122187888D01*
X128187817Y-122183624D01*
X128189406Y-122168513D01*
X128216719Y-121908636D01*
X128216719Y-121908633D01*
X128217178Y-121904267D01*
X128217017Y-121899658D01*
X128213772Y-121806733D01*
X136925822Y-121806733D01*
X136925975Y-121811121D01*
X136925975Y-121811127D01*
X136935459Y-122082702D01*
X136935625Y-122087458D01*
X136936387Y-122091781D01*
X136936388Y-122091788D01*
X136959590Y-122223371D01*
X136984402Y-122364087D01*
X137071203Y-122631235D01*
X137073131Y-122635188D01*
X137073133Y-122635193D01*
X137086606Y-122662816D01*
X137194340Y-122883702D01*
X137196795Y-122887341D01*
X137196798Y-122887347D01*
X137243153Y-122956071D01*
X137351415Y-123116576D01*
X137539371Y-123325322D01*
X137754550Y-123505879D01*
X137992764Y-123654731D01*
X138126484Y-123714267D01*
X138193355Y-123744040D01*
X138249375Y-123768982D01*
X138359547Y-123800573D01*
X138505765Y-123842500D01*
X138519390Y-123846407D01*
X138523740Y-123847018D01*
X138523743Y-123847019D01*
X138626156Y-123861412D01*
X138797552Y-123885500D01*
X139008146Y-123885500D01*
X139010332Y-123885347D01*
X139010336Y-123885347D01*
X139213827Y-123871118D01*
X139213832Y-123871117D01*
X139218212Y-123870811D01*
X139492970Y-123812409D01*
X139497099Y-123810906D01*
X139497103Y-123810905D01*
X139752781Y-123717846D01*
X139752785Y-123717844D01*
X139756926Y-123716337D01*
X140004942Y-123584464D01*
X140009150Y-123581407D01*
X140228629Y-123421947D01*
X140228632Y-123421944D01*
X140232192Y-123419358D01*
X140243427Y-123408509D01*
X140374097Y-123282322D01*
X140434252Y-123224231D01*
X140607188Y-123002882D01*
X140609384Y-122999078D01*
X140609389Y-122999071D01*
X140723206Y-122801933D01*
X140747636Y-122759619D01*
X140852862Y-122499176D01*
X140873733Y-122415469D01*
X140919753Y-122230893D01*
X140919754Y-122230888D01*
X140920817Y-122226624D01*
X140921483Y-122220295D01*
X140949719Y-121951636D01*
X140949719Y-121951633D01*
X140950178Y-121947267D01*
X140949896Y-121939184D01*
X140940529Y-121670939D01*
X140940528Y-121670933D01*
X140940375Y-121666542D01*
X140933569Y-121627939D01*
X140892360Y-121394236D01*
X140891598Y-121389913D01*
X140804797Y-121122765D01*
X140799955Y-121112836D01*
X140736467Y-120982669D01*
X140681660Y-120870298D01*
X140679205Y-120866659D01*
X140679202Y-120866653D01*
X140574839Y-120711929D01*
X140524585Y-120637424D01*
X140482922Y-120591152D01*
X140339566Y-120431940D01*
X140336629Y-120428678D01*
X140330672Y-120423679D01*
X140189653Y-120305350D01*
X140121450Y-120248121D01*
X139883236Y-120099269D01*
X139626625Y-119985018D01*
X139411774Y-119923411D01*
X139360837Y-119908805D01*
X139360836Y-119908805D01*
X139356610Y-119907593D01*
X139352260Y-119906982D01*
X139352257Y-119906981D01*
X139249310Y-119892513D01*
X139078448Y-119868500D01*
X138867854Y-119868500D01*
X138865668Y-119868653D01*
X138865664Y-119868653D01*
X138662173Y-119882882D01*
X138662168Y-119882883D01*
X138657788Y-119883189D01*
X138383030Y-119941591D01*
X138378901Y-119943094D01*
X138378897Y-119943095D01*
X138123219Y-120036154D01*
X138123215Y-120036156D01*
X138119074Y-120037663D01*
X137871058Y-120169536D01*
X137867499Y-120172122D01*
X137867497Y-120172123D01*
X137675940Y-120311297D01*
X137643808Y-120334642D01*
X137441748Y-120529769D01*
X137268812Y-120751118D01*
X137266616Y-120754922D01*
X137266611Y-120754929D01*
X137183982Y-120898048D01*
X137128364Y-120994381D01*
X137023138Y-121254824D01*
X137022073Y-121259097D01*
X137022072Y-121259099D01*
X136964814Y-121488749D01*
X136955183Y-121527376D01*
X136954724Y-121531744D01*
X136954723Y-121531749D01*
X136927222Y-121793408D01*
X136925822Y-121806733D01*
X128213772Y-121806733D01*
X128207529Y-121627939D01*
X128207528Y-121627933D01*
X128207375Y-121623542D01*
X128198700Y-121574340D01*
X128159360Y-121351236D01*
X128158598Y-121346913D01*
X128071797Y-121079765D01*
X128067046Y-121070023D01*
X127971560Y-120874250D01*
X127948660Y-120827298D01*
X127946205Y-120823659D01*
X127946202Y-120823653D01*
X127822673Y-120640514D01*
X127791585Y-120594424D01*
X127603629Y-120385678D01*
X127388450Y-120205121D01*
X127150236Y-120056269D01*
X126970376Y-119976190D01*
X126897639Y-119943805D01*
X126897637Y-119943804D01*
X126893625Y-119942018D01*
X126724376Y-119893487D01*
X126627837Y-119865805D01*
X126627836Y-119865805D01*
X126623610Y-119864593D01*
X126619260Y-119863982D01*
X126619257Y-119863981D01*
X126516310Y-119849513D01*
X126345448Y-119825500D01*
X126134854Y-119825500D01*
X126132668Y-119825653D01*
X126132664Y-119825653D01*
X125929173Y-119839882D01*
X125929168Y-119839883D01*
X125924788Y-119840189D01*
X125650030Y-119898591D01*
X125645901Y-119900094D01*
X125645897Y-119900095D01*
X125390219Y-119993154D01*
X125390215Y-119993156D01*
X125386074Y-119994663D01*
X125138058Y-120126536D01*
X125134499Y-120129122D01*
X125134497Y-120129123D01*
X124970710Y-120248121D01*
X124910808Y-120291642D01*
X124907644Y-120294698D01*
X124907641Y-120294700D01*
X124863111Y-120337702D01*
X124708748Y-120486769D01*
X124535812Y-120708118D01*
X124533616Y-120711922D01*
X124533611Y-120711929D01*
X124426156Y-120898048D01*
X124395364Y-120951381D01*
X124290138Y-121211824D01*
X124289073Y-121216097D01*
X124289072Y-121216099D01*
X124224661Y-121474438D01*
X124222183Y-121484376D01*
X124221724Y-121488744D01*
X124221723Y-121488749D01*
X124193566Y-121756650D01*
X124192822Y-121763733D01*
X115109484Y-121763733D01*
X115114754Y-121756650D01*
X115203506Y-121582088D01*
X115217867Y-121553842D01*
X115217867Y-121553841D01*
X115220286Y-121549084D01*
X115270668Y-121386829D01*
X115287753Y-121331807D01*
X115287754Y-121331801D01*
X115289337Y-121326704D01*
X115317683Y-121112836D01*
X115319232Y-121101152D01*
X115319232Y-121101148D01*
X115319932Y-121095868D01*
X115319104Y-121073796D01*
X115311397Y-120868509D01*
X115311197Y-120863178D01*
X115287684Y-120751118D01*
X115264477Y-120640514D01*
X115264476Y-120640511D01*
X115263380Y-120635287D01*
X115177850Y-120418710D01*
X115057051Y-120219641D01*
X115015817Y-120172123D01*
X114907939Y-120047803D01*
X114907937Y-120047801D01*
X114904439Y-120043770D01*
X114900313Y-120040387D01*
X114900309Y-120040383D01*
X114739837Y-119908805D01*
X114724376Y-119896128D01*
X114719740Y-119893489D01*
X114719737Y-119893487D01*
X114678748Y-119870155D01*
X114629442Y-119819073D01*
X114615580Y-119749442D01*
X114641563Y-119683371D01*
X114670713Y-119656133D01*
X114728799Y-119617027D01*
X114807272Y-119564196D01*
X114975758Y-119403468D01*
X115114754Y-119216650D01*
X115203506Y-119042088D01*
X115217867Y-119013842D01*
X115217867Y-119013841D01*
X115220286Y-119009084D01*
X115280396Y-118815500D01*
X115287753Y-118791807D01*
X115287754Y-118791801D01*
X115289337Y-118786704D01*
X115313116Y-118607296D01*
X115319232Y-118561152D01*
X115319232Y-118561148D01*
X115319932Y-118555868D01*
X115318883Y-118527908D01*
X115313422Y-118382453D01*
X115311197Y-118323178D01*
X115287840Y-118211861D01*
X115264477Y-118100514D01*
X115264476Y-118100511D01*
X115263380Y-118095287D01*
X115177850Y-117878710D01*
X115057051Y-117679641D01*
X114985851Y-117597590D01*
X114913316Y-117514000D01*
X123441693Y-117514000D01*
X123460885Y-117733371D01*
X123517880Y-117946076D01*
X123537931Y-117989076D01*
X123608618Y-118140666D01*
X123608621Y-118140671D01*
X123610944Y-118145653D01*
X123614100Y-118150160D01*
X123614101Y-118150162D01*
X123731595Y-118317960D01*
X123737251Y-118326038D01*
X123892962Y-118481749D01*
X123897471Y-118484906D01*
X123897473Y-118484908D01*
X123953405Y-118524072D01*
X124073346Y-118608056D01*
X124272924Y-118701120D01*
X124485629Y-118758115D01*
X124705000Y-118777307D01*
X124924371Y-118758115D01*
X125137076Y-118701120D01*
X125336654Y-118608056D01*
X125456595Y-118524072D01*
X125512527Y-118484908D01*
X125512529Y-118484906D01*
X125517038Y-118481749D01*
X125672749Y-118326038D01*
X125678406Y-118317960D01*
X125795899Y-118150162D01*
X125795900Y-118150160D01*
X125799056Y-118145653D01*
X125801379Y-118140671D01*
X125801382Y-118140666D01*
X125872069Y-117989076D01*
X125892120Y-117946076D01*
X125949115Y-117733371D01*
X125968307Y-117514000D01*
X125952403Y-117332216D01*
X125966392Y-117262613D01*
X125988829Y-117232141D01*
X126111085Y-117109885D01*
X126173397Y-117075859D01*
X126200180Y-117072980D01*
X126320500Y-117072980D01*
X126388621Y-117092982D01*
X126435114Y-117146638D01*
X126446500Y-117198980D01*
X126446500Y-118064400D01*
X126446837Y-118067646D01*
X126446837Y-118067650D01*
X126455399Y-118150162D01*
X126457474Y-118170165D01*
X126459655Y-118176701D01*
X126459655Y-118176703D01*
X126476172Y-118226209D01*
X126513450Y-118337945D01*
X126606522Y-118488348D01*
X126611704Y-118493521D01*
X126643307Y-118525069D01*
X126731697Y-118613305D01*
X126737927Y-118617145D01*
X126737928Y-118617146D01*
X126875090Y-118701694D01*
X126882262Y-118706115D01*
X126962005Y-118732564D01*
X127043611Y-118759632D01*
X127043613Y-118759632D01*
X127050139Y-118761797D01*
X127056975Y-118762497D01*
X127056978Y-118762498D01*
X127100031Y-118766909D01*
X127154600Y-118772500D01*
X128255400Y-118772500D01*
X128258646Y-118772163D01*
X128258650Y-118772163D01*
X128354307Y-118762238D01*
X128354311Y-118762237D01*
X128361165Y-118761526D01*
X128367701Y-118759345D01*
X128367703Y-118759345D01*
X128499805Y-118715272D01*
X128528945Y-118705550D01*
X128679348Y-118612478D01*
X128804305Y-118487303D01*
X128811749Y-118475227D01*
X128893275Y-118342968D01*
X128893276Y-118342966D01*
X128897115Y-118336738D01*
X128906372Y-118308830D01*
X128946803Y-118250472D01*
X129012367Y-118223236D01*
X129025964Y-118222500D01*
X131208937Y-118222500D01*
X131217507Y-118222792D01*
X131267625Y-118226209D01*
X131267629Y-118226209D01*
X131275201Y-118226725D01*
X131282678Y-118225420D01*
X131282679Y-118225420D01*
X131315436Y-118219703D01*
X131338152Y-118215738D01*
X131344670Y-118214777D01*
X131408091Y-118207102D01*
X131415192Y-118204419D01*
X131417801Y-118203778D01*
X131434111Y-118199315D01*
X131436647Y-118198550D01*
X131444133Y-118197243D01*
X131502649Y-118171556D01*
X131508753Y-118169065D01*
X131523992Y-118163307D01*
X131536412Y-118158614D01*
X131561397Y-118149173D01*
X131561398Y-118149172D01*
X131568505Y-118146487D01*
X131574768Y-118142183D01*
X131577134Y-118140946D01*
X131591946Y-118132701D01*
X131594200Y-118131368D01*
X131601154Y-118128315D01*
X131651851Y-118089413D01*
X131657181Y-118085541D01*
X131703569Y-118053661D01*
X131703574Y-118053656D01*
X131709830Y-118049357D01*
X131751285Y-118002829D01*
X131756265Y-117997554D01*
X132196819Y-117557000D01*
X136174693Y-117557000D01*
X136193885Y-117776371D01*
X136250880Y-117989076D01*
X136284481Y-118061134D01*
X136341618Y-118183666D01*
X136341621Y-118183671D01*
X136343944Y-118188653D01*
X136347100Y-118193160D01*
X136347101Y-118193162D01*
X136459113Y-118353131D01*
X136470251Y-118369038D01*
X136625962Y-118524749D01*
X136630471Y-118527906D01*
X136630473Y-118527908D01*
X136705241Y-118580261D01*
X136806346Y-118651056D01*
X137005924Y-118744120D01*
X137218629Y-118801115D01*
X137438000Y-118820307D01*
X137657371Y-118801115D01*
X137870076Y-118744120D01*
X138069654Y-118651056D01*
X138170759Y-118580261D01*
X138245527Y-118527908D01*
X138245529Y-118527906D01*
X138250038Y-118524749D01*
X138405749Y-118369038D01*
X138416888Y-118353131D01*
X138528899Y-118193162D01*
X138528900Y-118193160D01*
X138532056Y-118188653D01*
X138534379Y-118183671D01*
X138534382Y-118183666D01*
X138569945Y-118107400D01*
X139179500Y-118107400D01*
X139179837Y-118110646D01*
X139179837Y-118110650D01*
X139189157Y-118200470D01*
X139190474Y-118213165D01*
X139192655Y-118219701D01*
X139192655Y-118219703D01*
X139228956Y-118328509D01*
X139246450Y-118380945D01*
X139339522Y-118531348D01*
X139464697Y-118656305D01*
X139470927Y-118660145D01*
X139470928Y-118660146D01*
X139608090Y-118744694D01*
X139615262Y-118749115D01*
X139654827Y-118762238D01*
X139776611Y-118802632D01*
X139776613Y-118802632D01*
X139783139Y-118804797D01*
X139789975Y-118805497D01*
X139789978Y-118805498D01*
X139833031Y-118809909D01*
X139887600Y-118815500D01*
X140988400Y-118815500D01*
X140991646Y-118815163D01*
X140991650Y-118815163D01*
X141087307Y-118805238D01*
X141087311Y-118805237D01*
X141094165Y-118804526D01*
X141100701Y-118802345D01*
X141100703Y-118802345D01*
X141233275Y-118758115D01*
X141261945Y-118748550D01*
X141412348Y-118655478D01*
X141537305Y-118530303D01*
X141543131Y-118520852D01*
X141626275Y-118385968D01*
X141626276Y-118385966D01*
X141630115Y-118379738D01*
X141670708Y-118257354D01*
X141683632Y-118218389D01*
X141683632Y-118218387D01*
X141685797Y-118211861D01*
X141687083Y-118199315D01*
X141693063Y-118140946D01*
X141696500Y-118107400D01*
X141696500Y-117006600D01*
X141693494Y-116977625D01*
X141686238Y-116907693D01*
X141686237Y-116907689D01*
X141685526Y-116900835D01*
X141674289Y-116867152D01*
X141635027Y-116749473D01*
X141629550Y-116733055D01*
X141536478Y-116582652D01*
X141500014Y-116546251D01*
X141416483Y-116462866D01*
X141411303Y-116457695D01*
X141405072Y-116453854D01*
X141266968Y-116368725D01*
X141266966Y-116368724D01*
X141260738Y-116364885D01*
X141141866Y-116325457D01*
X141099389Y-116311368D01*
X141099387Y-116311368D01*
X141092861Y-116309203D01*
X141086025Y-116308503D01*
X141086022Y-116308502D01*
X141042969Y-116304091D01*
X140988400Y-116298500D01*
X139887600Y-116298500D01*
X139884354Y-116298837D01*
X139884350Y-116298837D01*
X139788693Y-116308762D01*
X139788689Y-116308763D01*
X139781835Y-116309474D01*
X139775299Y-116311655D01*
X139775297Y-116311655D01*
X139670216Y-116346713D01*
X139614055Y-116365450D01*
X139463652Y-116458522D01*
X139458479Y-116463704D01*
X139456086Y-116466101D01*
X139338695Y-116583697D01*
X139334855Y-116589927D01*
X139334854Y-116589928D01*
X139278761Y-116680928D01*
X139245885Y-116734262D01*
X139243581Y-116741209D01*
X139193484Y-116892248D01*
X139190203Y-116902139D01*
X139189503Y-116908975D01*
X139189502Y-116908978D01*
X139188468Y-116919069D01*
X139179500Y-117006600D01*
X139179500Y-118107400D01*
X138569945Y-118107400D01*
X138591519Y-118061134D01*
X138625120Y-117989076D01*
X138682115Y-117776371D01*
X138701307Y-117557000D01*
X138682115Y-117337629D01*
X138625120Y-117124924D01*
X138579969Y-117028097D01*
X138534382Y-116930334D01*
X138534379Y-116930329D01*
X138532056Y-116925347D01*
X138521979Y-116910955D01*
X138408908Y-116749473D01*
X138408906Y-116749470D01*
X138405749Y-116744962D01*
X138250038Y-116589251D01*
X138242271Y-116583812D01*
X138130714Y-116505699D01*
X138069654Y-116462944D01*
X137870076Y-116369880D01*
X137657371Y-116312885D01*
X137438000Y-116293693D01*
X137218629Y-116312885D01*
X137005924Y-116369880D01*
X136953806Y-116394183D01*
X136811334Y-116460618D01*
X136811329Y-116460621D01*
X136806347Y-116462944D01*
X136801840Y-116466100D01*
X136801838Y-116466101D01*
X136630473Y-116586092D01*
X136630470Y-116586094D01*
X136625962Y-116589251D01*
X136470251Y-116744962D01*
X136467094Y-116749470D01*
X136467092Y-116749473D01*
X136354021Y-116910955D01*
X136343944Y-116925347D01*
X136341621Y-116930329D01*
X136341618Y-116930334D01*
X136296031Y-117028097D01*
X136250880Y-117124924D01*
X136193885Y-117337629D01*
X136174693Y-117557000D01*
X132196819Y-117557000D01*
X133830520Y-115923299D01*
X133836785Y-115917445D01*
X133874660Y-115884404D01*
X133880385Y-115879410D01*
X133917114Y-115827149D01*
X133921046Y-115821854D01*
X133960477Y-115771567D01*
X133963602Y-115764645D01*
X133964964Y-115762397D01*
X133973368Y-115747664D01*
X133974622Y-115745325D01*
X133978990Y-115739110D01*
X133981749Y-115732034D01*
X133981751Y-115732030D01*
X134001772Y-115680677D01*
X134002203Y-115679574D01*
X134004758Y-115673495D01*
X134027918Y-115622200D01*
X134031045Y-115615275D01*
X134032429Y-115607804D01*
X134033230Y-115605250D01*
X134037867Y-115588971D01*
X134038523Y-115586416D01*
X134041282Y-115579340D01*
X134049621Y-115515998D01*
X134050653Y-115509482D01*
X134060912Y-115454129D01*
X134062296Y-115446662D01*
X134061504Y-115432916D01*
X134058709Y-115384451D01*
X134058500Y-115377198D01*
X134058500Y-114557000D01*
X136174693Y-114557000D01*
X136193885Y-114776371D01*
X136250880Y-114989076D01*
X136278701Y-115048739D01*
X136341618Y-115183666D01*
X136341621Y-115183671D01*
X136343944Y-115188653D01*
X136347100Y-115193160D01*
X136347101Y-115193162D01*
X136442871Y-115329935D01*
X136470251Y-115369038D01*
X136625962Y-115524749D01*
X136630471Y-115527906D01*
X136630473Y-115527908D01*
X136677039Y-115560514D01*
X136806346Y-115651056D01*
X137005924Y-115744120D01*
X137218629Y-115801115D01*
X137438000Y-115820307D01*
X137657371Y-115801115D01*
X137870076Y-115744120D01*
X138069654Y-115651056D01*
X138132342Y-115607161D01*
X139752393Y-115607161D01*
X139761687Y-115619175D01*
X139802088Y-115647464D01*
X139811584Y-115652947D01*
X140001113Y-115741326D01*
X140011405Y-115745072D01*
X140213401Y-115799196D01*
X140224196Y-115801099D01*
X140432525Y-115819326D01*
X140443475Y-115819326D01*
X140651804Y-115801099D01*
X140662599Y-115799196D01*
X140864595Y-115745072D01*
X140874887Y-115741326D01*
X141064416Y-115652947D01*
X141073912Y-115647464D01*
X141115148Y-115618590D01*
X141123523Y-115608112D01*
X141116457Y-115594668D01*
X140450811Y-114929021D01*
X140436868Y-114921408D01*
X140435034Y-114921539D01*
X140428420Y-114925790D01*
X139758820Y-115595391D01*
X139752393Y-115607161D01*
X138132342Y-115607161D01*
X138198961Y-115560514D01*
X138245527Y-115527908D01*
X138245529Y-115527906D01*
X138250038Y-115524749D01*
X138405749Y-115369038D01*
X138433130Y-115329935D01*
X138528899Y-115193162D01*
X138528900Y-115193160D01*
X138532056Y-115188653D01*
X138534379Y-115183671D01*
X138534382Y-115183666D01*
X138597299Y-115048739D01*
X138625120Y-114989076D01*
X138682115Y-114776371D01*
X138700828Y-114562475D01*
X139175674Y-114562475D01*
X139193901Y-114770804D01*
X139195804Y-114781599D01*
X139249928Y-114983595D01*
X139253674Y-114993887D01*
X139342054Y-115183417D01*
X139347534Y-115192907D01*
X139376411Y-115234149D01*
X139386887Y-115242523D01*
X139400334Y-115235455D01*
X140065979Y-114569811D01*
X140072356Y-114558132D01*
X140802408Y-114558132D01*
X140802539Y-114559966D01*
X140806790Y-114566580D01*
X141476391Y-115236180D01*
X141488161Y-115242607D01*
X141500176Y-115233311D01*
X141528466Y-115192907D01*
X141533946Y-115183417D01*
X141622326Y-114993887D01*
X141626072Y-114983595D01*
X141680196Y-114781599D01*
X141682099Y-114770804D01*
X141700326Y-114562475D01*
X141700326Y-114551525D01*
X141682099Y-114343196D01*
X141680196Y-114332401D01*
X141626072Y-114130405D01*
X141622326Y-114120113D01*
X141533946Y-113930583D01*
X141528466Y-113921093D01*
X141499589Y-113879851D01*
X141489113Y-113871477D01*
X141475666Y-113878545D01*
X140810021Y-114544189D01*
X140802408Y-114558132D01*
X140072356Y-114558132D01*
X140073592Y-114555868D01*
X140073461Y-114554034D01*
X140069210Y-114547420D01*
X139399609Y-113877820D01*
X139387839Y-113871393D01*
X139375824Y-113880689D01*
X139347534Y-113921093D01*
X139342054Y-113930583D01*
X139253674Y-114120113D01*
X139249928Y-114130405D01*
X139195804Y-114332401D01*
X139193901Y-114343196D01*
X139175674Y-114551525D01*
X139175674Y-114562475D01*
X138700828Y-114562475D01*
X138701307Y-114557000D01*
X138682115Y-114337629D01*
X138625120Y-114124924D01*
X138568153Y-114002758D01*
X138534382Y-113930334D01*
X138534379Y-113930329D01*
X138532056Y-113925347D01*
X138528899Y-113920838D01*
X138408908Y-113749473D01*
X138408906Y-113749470D01*
X138405749Y-113744962D01*
X138250038Y-113589251D01*
X138194194Y-113550148D01*
X138132342Y-113506839D01*
X138130982Y-113505887D01*
X139752477Y-113505887D01*
X139759545Y-113519334D01*
X140425189Y-114184979D01*
X140439132Y-114192592D01*
X140440966Y-114192461D01*
X140447580Y-114188210D01*
X141117180Y-113518609D01*
X141123607Y-113506839D01*
X141114313Y-113494825D01*
X141073912Y-113466536D01*
X141064416Y-113461053D01*
X140874887Y-113372674D01*
X140864595Y-113368928D01*
X140662599Y-113314804D01*
X140651804Y-113312901D01*
X140443475Y-113294674D01*
X140432525Y-113294674D01*
X140224196Y-113312901D01*
X140213401Y-113314804D01*
X140011405Y-113368928D01*
X140001113Y-113372674D01*
X139811583Y-113461054D01*
X139802093Y-113466534D01*
X139760851Y-113495411D01*
X139752477Y-113505887D01*
X138130982Y-113505887D01*
X138069654Y-113462944D01*
X137870076Y-113369880D01*
X137657371Y-113312885D01*
X137438000Y-113293693D01*
X137218629Y-113312885D01*
X137005924Y-113369880D01*
X136951567Y-113395227D01*
X136811334Y-113460618D01*
X136811329Y-113460621D01*
X136806347Y-113462944D01*
X136801840Y-113466100D01*
X136801838Y-113466101D01*
X136630473Y-113586092D01*
X136630470Y-113586094D01*
X136625962Y-113589251D01*
X136470251Y-113744962D01*
X136467094Y-113749470D01*
X136467092Y-113749473D01*
X136347101Y-113920838D01*
X136343944Y-113925347D01*
X136341621Y-113930329D01*
X136341618Y-113930334D01*
X136307847Y-114002758D01*
X136250880Y-114124924D01*
X136193885Y-114337629D01*
X136174693Y-114557000D01*
X134058500Y-114557000D01*
X134058500Y-109942500D01*
X134078502Y-109874379D01*
X134132158Y-109827886D01*
X134184500Y-109816500D01*
X134248134Y-109816500D01*
X134310316Y-109809745D01*
X134446705Y-109758615D01*
X134563261Y-109671261D01*
X134650615Y-109554705D01*
X134701745Y-109418316D01*
X134708500Y-109356134D01*
X134708500Y-107559866D01*
X134701745Y-107497684D01*
X134650615Y-107361295D01*
X134563261Y-107244739D01*
X134446705Y-107157385D01*
X134422668Y-107148374D01*
X134328203Y-107112960D01*
X134271439Y-107070318D01*
X134246739Y-107003756D01*
X134261947Y-106934408D01*
X134283493Y-106905727D01*
X134384435Y-106805137D01*
X134388096Y-106801489D01*
X134402376Y-106781617D01*
X134515435Y-106624277D01*
X134518453Y-106620077D01*
X134529464Y-106597799D01*
X134615136Y-106424453D01*
X134615137Y-106424451D01*
X134617430Y-106419811D01*
X134682370Y-106206069D01*
X134711529Y-105984590D01*
X134713156Y-105918000D01*
X134694852Y-105695361D01*
X134640431Y-105478702D01*
X134551354Y-105273840D01*
X134430014Y-105086277D01*
X134279670Y-104921051D01*
X134275619Y-104917852D01*
X134275615Y-104917848D01*
X134108414Y-104785800D01*
X134108410Y-104785798D01*
X134104359Y-104782598D01*
X133908789Y-104674638D01*
X133903920Y-104672914D01*
X133903916Y-104672912D01*
X133703087Y-104601795D01*
X133703083Y-104601794D01*
X133698212Y-104600069D01*
X133693119Y-104599162D01*
X133693116Y-104599161D01*
X133483373Y-104561800D01*
X133483367Y-104561799D01*
X133478284Y-104560894D01*
X133404452Y-104559992D01*
X133260081Y-104558228D01*
X133260079Y-104558228D01*
X133254911Y-104558165D01*
X133034091Y-104591955D01*
X132821756Y-104661357D01*
X132623607Y-104764507D01*
X132619474Y-104767610D01*
X132619471Y-104767612D01*
X132449100Y-104895530D01*
X132444965Y-104898635D01*
X132290629Y-105060138D01*
X132287715Y-105064410D01*
X132287714Y-105064411D01*
X132283832Y-105070102D01*
X132164743Y-105244680D01*
X132149268Y-105278019D01*
X132078302Y-105430903D01*
X132070688Y-105447305D01*
X132010989Y-105662570D01*
X131987251Y-105884695D01*
X131987548Y-105889848D01*
X131987548Y-105889851D01*
X131999193Y-106091807D01*
X132000110Y-106107715D01*
X132001247Y-106112761D01*
X132001248Y-106112767D01*
X132014985Y-106173720D01*
X132049222Y-106325639D01*
X132133266Y-106532616D01*
X132173210Y-106597799D01*
X132235339Y-106699184D01*
X132249987Y-106723088D01*
X132396250Y-106891938D01*
X132400230Y-106895242D01*
X132404981Y-106899187D01*
X132444616Y-106958090D01*
X132446113Y-107029071D01*
X132408997Y-107089593D01*
X132368725Y-107114112D01*
X132282904Y-107146285D01*
X132253295Y-107157385D01*
X132136739Y-107244739D01*
X132049385Y-107361295D01*
X131998255Y-107497684D01*
X131991500Y-107559866D01*
X131991500Y-109356134D01*
X131998255Y-109418316D01*
X132049385Y-109554705D01*
X132136739Y-109671261D01*
X132253295Y-109758615D01*
X132389684Y-109809745D01*
X132451866Y-109816500D01*
X132515500Y-109816500D01*
X132583621Y-109836502D01*
X132630114Y-109890158D01*
X132641500Y-109942500D01*
X132641500Y-111348476D01*
X132621498Y-111416597D01*
X132567842Y-111463090D01*
X132500581Y-111473590D01*
X132381027Y-111459334D01*
X132339680Y-111454404D01*
X132332677Y-111455140D01*
X132332676Y-111455140D01*
X132166288Y-111472628D01*
X132166286Y-111472629D01*
X132159288Y-111473364D01*
X131987579Y-111531818D01*
X131981575Y-111535512D01*
X131839095Y-111623166D01*
X131839092Y-111623168D01*
X131833088Y-111626862D01*
X131828053Y-111631793D01*
X131828050Y-111631795D01*
X131776416Y-111682359D01*
X131703493Y-111753771D01*
X131605235Y-111906238D01*
X131602826Y-111912858D01*
X131602824Y-111912861D01*
X131557957Y-112036133D01*
X131543197Y-112076685D01*
X131520463Y-112256640D01*
X131538163Y-112437160D01*
X131595418Y-112609273D01*
X131599065Y-112615296D01*
X131599066Y-112615297D01*
X131607276Y-112628853D01*
X131625500Y-112694124D01*
X131625500Y-115224340D01*
X131605498Y-115292461D01*
X131588595Y-115313435D01*
X131282955Y-115619075D01*
X131220643Y-115653101D01*
X131193860Y-115655980D01*
X128514402Y-115655980D01*
X128446281Y-115635978D01*
X128402870Y-115588603D01*
X128383456Y-115551667D01*
X127717811Y-114886021D01*
X127703868Y-114878408D01*
X127702034Y-114878539D01*
X127695420Y-114882790D01*
X127025821Y-115552390D01*
X127005084Y-115590366D01*
X126954882Y-115640568D01*
X126894497Y-115655980D01*
X125883447Y-115655980D01*
X125874878Y-115655688D01*
X125824745Y-115652270D01*
X125824741Y-115652270D01*
X125817168Y-115651754D01*
X125754201Y-115662744D01*
X125747689Y-115663704D01*
X125684278Y-115671378D01*
X125677177Y-115674061D01*
X125674568Y-115674702D01*
X125658246Y-115679168D01*
X125655717Y-115679932D01*
X125648237Y-115681237D01*
X125648232Y-115681238D01*
X125648134Y-115680677D01*
X125582385Y-115681178D01*
X125522368Y-115643250D01*
X125492385Y-115578896D01*
X125501953Y-115508547D01*
X125527867Y-115470920D01*
X125672749Y-115326038D01*
X125716977Y-115262875D01*
X125795899Y-115150162D01*
X125795900Y-115150160D01*
X125799056Y-115145653D01*
X125801379Y-115140671D01*
X125801382Y-115140666D01*
X125874545Y-114983765D01*
X125892120Y-114946076D01*
X125949115Y-114733371D01*
X125967828Y-114519475D01*
X126442674Y-114519475D01*
X126460901Y-114727804D01*
X126462804Y-114738599D01*
X126516928Y-114940595D01*
X126520674Y-114950887D01*
X126609054Y-115140417D01*
X126614534Y-115149907D01*
X126643411Y-115191149D01*
X126653887Y-115199523D01*
X126667334Y-115192455D01*
X127332979Y-114526811D01*
X127339356Y-114515132D01*
X128069408Y-114515132D01*
X128069539Y-114516966D01*
X128073790Y-114523580D01*
X128743391Y-115193180D01*
X128755161Y-115199607D01*
X128767176Y-115190311D01*
X128795466Y-115149907D01*
X128800946Y-115140417D01*
X128889326Y-114950887D01*
X128893072Y-114940595D01*
X128947196Y-114738599D01*
X128949099Y-114727804D01*
X128967326Y-114519475D01*
X128967326Y-114508525D01*
X128949099Y-114300196D01*
X128947196Y-114289401D01*
X128893072Y-114087405D01*
X128889326Y-114077113D01*
X128800946Y-113887583D01*
X128795466Y-113878093D01*
X128766589Y-113836851D01*
X128756113Y-113828477D01*
X128742666Y-113835545D01*
X128077021Y-114501189D01*
X128069408Y-114515132D01*
X127339356Y-114515132D01*
X127340592Y-114512868D01*
X127340461Y-114511034D01*
X127336210Y-114504420D01*
X126666609Y-113834820D01*
X126654839Y-113828393D01*
X126642824Y-113837689D01*
X126614534Y-113878093D01*
X126609054Y-113887583D01*
X126520674Y-114077113D01*
X126516928Y-114087405D01*
X126462804Y-114289401D01*
X126460901Y-114300196D01*
X126442674Y-114508525D01*
X126442674Y-114519475D01*
X125967828Y-114519475D01*
X125968307Y-114514000D01*
X125949115Y-114294629D01*
X125892120Y-114081924D01*
X125835156Y-113959764D01*
X125801382Y-113887334D01*
X125801379Y-113887329D01*
X125799056Y-113882347D01*
X125791386Y-113871393D01*
X125675908Y-113706473D01*
X125675906Y-113706470D01*
X125672749Y-113701962D01*
X125517038Y-113546251D01*
X125477562Y-113518609D01*
X125437759Y-113490739D01*
X125397983Y-113462887D01*
X127019477Y-113462887D01*
X127026545Y-113476334D01*
X127692189Y-114141979D01*
X127706132Y-114149592D01*
X127707966Y-114149461D01*
X127714580Y-114145210D01*
X128384180Y-113475609D01*
X128390607Y-113463839D01*
X128381313Y-113451825D01*
X128340912Y-113423536D01*
X128331416Y-113418053D01*
X128141887Y-113329674D01*
X128131595Y-113325928D01*
X127929599Y-113271804D01*
X127918804Y-113269901D01*
X127710475Y-113251674D01*
X127699525Y-113251674D01*
X127491196Y-113269901D01*
X127480401Y-113271804D01*
X127278405Y-113325928D01*
X127268113Y-113329674D01*
X127078583Y-113418054D01*
X127069093Y-113423534D01*
X127027851Y-113452411D01*
X127019477Y-113462887D01*
X125397983Y-113462887D01*
X125336654Y-113419944D01*
X125137076Y-113326880D01*
X124924371Y-113269885D01*
X124705000Y-113250693D01*
X124485629Y-113269885D01*
X124272924Y-113326880D01*
X124180710Y-113369880D01*
X124078334Y-113417618D01*
X124078329Y-113417621D01*
X124073347Y-113419944D01*
X124068840Y-113423100D01*
X124068838Y-113423101D01*
X123897473Y-113543092D01*
X123897470Y-113543094D01*
X123892962Y-113546251D01*
X123737251Y-113701962D01*
X123734094Y-113706470D01*
X123734092Y-113706473D01*
X123618614Y-113871393D01*
X123610944Y-113882347D01*
X123608621Y-113887329D01*
X123608618Y-113887334D01*
X123574844Y-113959764D01*
X123517880Y-114081924D01*
X123460885Y-114294629D01*
X123441693Y-114514000D01*
X123460885Y-114733371D01*
X123517880Y-114946076D01*
X123535455Y-114983765D01*
X123608618Y-115140666D01*
X123608621Y-115140671D01*
X123610944Y-115145653D01*
X123614100Y-115150160D01*
X123614101Y-115150162D01*
X123693024Y-115262875D01*
X123737251Y-115326038D01*
X123892962Y-115481749D01*
X123897471Y-115484906D01*
X123897473Y-115484908D01*
X123954372Y-115524749D01*
X124073346Y-115608056D01*
X124272924Y-115701120D01*
X124485629Y-115758115D01*
X124705000Y-115777307D01*
X124924371Y-115758115D01*
X125137076Y-115701120D01*
X125142058Y-115698797D01*
X125142066Y-115698794D01*
X125198253Y-115672594D01*
X125268445Y-115661933D01*
X125333257Y-115690914D01*
X125372113Y-115750334D01*
X125372676Y-115821328D01*
X125345575Y-115870610D01*
X125341058Y-115875680D01*
X125336104Y-115880926D01*
X124986859Y-116230171D01*
X124924547Y-116264197D01*
X124886786Y-116266597D01*
X124705000Y-116250693D01*
X124485629Y-116269885D01*
X124272924Y-116326880D01*
X124230392Y-116346713D01*
X124078334Y-116417618D01*
X124078329Y-116417621D01*
X124073347Y-116419944D01*
X124068840Y-116423100D01*
X124068838Y-116423101D01*
X123897473Y-116543092D01*
X123897470Y-116543094D01*
X123892962Y-116546251D01*
X123737251Y-116701962D01*
X123734094Y-116706470D01*
X123734092Y-116706473D01*
X123614572Y-116877165D01*
X123610944Y-116882347D01*
X123608621Y-116887329D01*
X123608618Y-116887334D01*
X123566515Y-116977625D01*
X123517880Y-117081924D01*
X123460885Y-117294629D01*
X123441693Y-117514000D01*
X114913316Y-117514000D01*
X114907939Y-117507803D01*
X114907937Y-117507801D01*
X114904439Y-117503770D01*
X114900313Y-117500387D01*
X114900309Y-117500383D01*
X114728504Y-117359513D01*
X114724376Y-117356128D01*
X114719740Y-117353489D01*
X114719737Y-117353487D01*
X114678748Y-117330155D01*
X114629442Y-117279073D01*
X114615580Y-117209442D01*
X114641563Y-117143371D01*
X114670713Y-117116133D01*
X114728930Y-117076939D01*
X114807272Y-117024196D01*
X114825718Y-117006600D01*
X114936587Y-116900835D01*
X114975758Y-116863468D01*
X115114754Y-116676650D01*
X115220286Y-116469084D01*
X115264442Y-116326880D01*
X115287753Y-116251807D01*
X115287754Y-116251801D01*
X115289337Y-116246704D01*
X115319932Y-116015868D01*
X115318580Y-115979837D01*
X115311397Y-115788509D01*
X115311197Y-115783178D01*
X115284364Y-115655296D01*
X115264477Y-115560514D01*
X115264476Y-115560511D01*
X115263380Y-115555287D01*
X115177850Y-115338710D01*
X115057051Y-115139641D01*
X114930573Y-114993887D01*
X114907939Y-114967803D01*
X114907937Y-114967801D01*
X114904439Y-114963770D01*
X114900313Y-114960387D01*
X114900309Y-114960383D01*
X114779374Y-114861224D01*
X114724376Y-114816128D01*
X114719740Y-114813489D01*
X114719737Y-114813487D01*
X114678748Y-114790155D01*
X114629442Y-114739073D01*
X114615580Y-114669442D01*
X114641563Y-114603371D01*
X114670713Y-114576133D01*
X114743973Y-114526811D01*
X114807272Y-114484196D01*
X114850238Y-114443209D01*
X114971896Y-114327152D01*
X114975758Y-114323468D01*
X115114754Y-114136650D01*
X115201152Y-113966717D01*
X115217867Y-113933842D01*
X115217867Y-113933841D01*
X115220286Y-113929084D01*
X115258283Y-113806713D01*
X115287753Y-113711807D01*
X115287755Y-113711798D01*
X115289337Y-113706704D01*
X115310087Y-113550148D01*
X115319232Y-113481152D01*
X115319232Y-113481148D01*
X115319932Y-113475868D01*
X115319481Y-113463839D01*
X115312200Y-113269901D01*
X115311197Y-113243178D01*
X115263380Y-113015287D01*
X115177850Y-112798710D01*
X115057051Y-112599641D01*
X114966117Y-112494848D01*
X114907939Y-112427803D01*
X114907937Y-112427801D01*
X114904439Y-112423770D01*
X114900313Y-112420387D01*
X114900309Y-112420383D01*
X114728504Y-112279513D01*
X114724376Y-112276128D01*
X114719740Y-112273489D01*
X114719737Y-112273487D01*
X114678748Y-112250155D01*
X114629442Y-112199073D01*
X114615580Y-112129442D01*
X114641563Y-112063371D01*
X114670713Y-112036133D01*
X114722842Y-112001037D01*
X114807272Y-111944196D01*
X114840120Y-111912861D01*
X114971896Y-111787152D01*
X114975758Y-111783468D01*
X115114754Y-111596650D01*
X115220286Y-111389084D01*
X115275678Y-111210693D01*
X115287753Y-111171807D01*
X115287754Y-111171801D01*
X115289337Y-111166704D01*
X115319932Y-110935868D01*
X115311197Y-110703178D01*
X115285475Y-110580588D01*
X115264477Y-110480514D01*
X115264476Y-110480511D01*
X115263380Y-110475287D01*
X115177850Y-110258710D01*
X115057051Y-110059641D01*
X114955402Y-109942500D01*
X114907939Y-109887803D01*
X114907937Y-109887801D01*
X114904439Y-109883770D01*
X114900313Y-109880387D01*
X114900309Y-109880383D01*
X114728504Y-109739513D01*
X114724376Y-109736128D01*
X114719740Y-109733489D01*
X114719737Y-109733487D01*
X114526654Y-109623578D01*
X114522011Y-109620935D01*
X114516995Y-109619114D01*
X114516990Y-109619112D01*
X114308146Y-109543305D01*
X114308142Y-109543304D01*
X114303131Y-109541485D01*
X114297882Y-109540536D01*
X114297879Y-109540535D01*
X114217771Y-109526049D01*
X114073993Y-109500050D01*
X114069854Y-109499855D01*
X114069847Y-109499854D01*
X114051095Y-109498970D01*
X114051086Y-109498970D01*
X114049606Y-109498900D01*
X113581132Y-109498900D01*
X113513625Y-109504628D01*
X113412891Y-109513175D01*
X113412887Y-109513176D01*
X113407580Y-109513626D01*
X113402423Y-109514964D01*
X113402420Y-109514965D01*
X113187363Y-109570783D01*
X113187359Y-109570784D01*
X113182194Y-109572125D01*
X113177328Y-109574317D01*
X113177325Y-109574318D01*
X113077886Y-109619112D01*
X112969887Y-109667762D01*
X112965454Y-109670746D01*
X112965453Y-109670747D01*
X112920343Y-109701117D01*
X112776728Y-109797804D01*
X112772871Y-109801483D01*
X112772869Y-109801485D01*
X112745194Y-109827886D01*
X112608242Y-109958532D01*
X112469246Y-110145350D01*
X112363714Y-110352916D01*
X112329189Y-110464106D01*
X112296247Y-110570193D01*
X112296246Y-110570199D01*
X112294663Y-110575296D01*
X112284152Y-110654600D01*
X112264908Y-110799794D01*
X112256799Y-110818081D01*
X112260896Y-110824456D01*
X112265911Y-110855227D01*
X112272803Y-111038822D01*
X112320620Y-111266713D01*
X112406150Y-111483290D01*
X112526949Y-111682359D01*
X112530446Y-111686389D01*
X112594056Y-111759693D01*
X112679561Y-111858230D01*
X112683687Y-111861613D01*
X112683691Y-111861617D01*
X112779915Y-111940515D01*
X112859624Y-112005872D01*
X112864260Y-112008511D01*
X112864263Y-112008513D01*
X112905252Y-112031845D01*
X112954558Y-112082927D01*
X112968420Y-112152558D01*
X112942437Y-112218629D01*
X112913287Y-112245867D01*
X112886869Y-112263653D01*
X112776728Y-112337804D01*
X112608242Y-112498532D01*
X112469246Y-112685350D01*
X112363714Y-112892916D01*
X112329189Y-113004106D01*
X112296247Y-113110193D01*
X112296246Y-113110199D01*
X112294663Y-113115296D01*
X112271018Y-113293693D01*
X112264908Y-113339794D01*
X112256799Y-113358081D01*
X112260896Y-113364456D01*
X112265911Y-113395227D01*
X112272803Y-113578822D01*
X112274991Y-113589251D01*
X112310611Y-113759009D01*
X112320620Y-113806713D01*
X112406150Y-114023290D01*
X112526949Y-114222359D01*
X112530446Y-114226389D01*
X112664853Y-114381280D01*
X112679561Y-114398230D01*
X112683687Y-114401613D01*
X112683691Y-114401617D01*
X112729542Y-114439212D01*
X112859624Y-114545872D01*
X112864260Y-114548511D01*
X112864263Y-114548513D01*
X112905252Y-114571845D01*
X112954558Y-114622927D01*
X112968420Y-114692558D01*
X112942437Y-114758629D01*
X112913287Y-114785867D01*
X112776728Y-114877804D01*
X112608242Y-115038532D01*
X112469246Y-115225350D01*
X112363714Y-115432916D01*
X112349761Y-115477852D01*
X112296247Y-115650193D01*
X112296246Y-115650199D01*
X112294663Y-115655296D01*
X112272657Y-115821328D01*
X112264908Y-115879794D01*
X112256799Y-115898081D01*
X112260896Y-115904456D01*
X112265911Y-115935227D01*
X112272803Y-116118822D01*
X112273898Y-116124040D01*
X112316459Y-116326880D01*
X112320620Y-116346713D01*
X112406150Y-116563290D01*
X112526949Y-116762359D01*
X112530446Y-116766389D01*
X112668382Y-116925347D01*
X112679561Y-116938230D01*
X112683687Y-116941613D01*
X112683691Y-116941617D01*
X112779915Y-117020515D01*
X112859624Y-117085872D01*
X112864260Y-117088511D01*
X112864263Y-117088513D01*
X112905252Y-117111845D01*
X112954558Y-117162927D01*
X112968420Y-117232558D01*
X112942437Y-117298629D01*
X112913287Y-117325867D01*
X112887681Y-117343106D01*
X112776728Y-117417804D01*
X112608242Y-117578532D01*
X112469246Y-117765350D01*
X112363714Y-117972916D01*
X112338642Y-118053661D01*
X112296247Y-118190193D01*
X112296246Y-118190199D01*
X112294663Y-118195296D01*
X112273744Y-118353131D01*
X112264908Y-118419794D01*
X112256799Y-118438081D01*
X112260896Y-118444456D01*
X112265911Y-118475227D01*
X112272803Y-118658822D01*
X112281977Y-118702543D01*
X112303525Y-118805238D01*
X112320620Y-118886713D01*
X112406150Y-119103290D01*
X112526949Y-119302359D01*
X112530446Y-119306389D01*
X112669242Y-119466338D01*
X112679561Y-119478230D01*
X112683687Y-119481613D01*
X112683691Y-119481617D01*
X112747136Y-119533638D01*
X112859624Y-119625872D01*
X112864260Y-119628511D01*
X112864263Y-119628513D01*
X112905252Y-119651845D01*
X112954558Y-119702927D01*
X112968420Y-119772558D01*
X112942437Y-119838629D01*
X112913287Y-119865867D01*
X112776728Y-119957804D01*
X112608242Y-120118532D01*
X112469246Y-120305350D01*
X112455211Y-120332954D01*
X112378562Y-120483713D01*
X112363714Y-120512916D01*
X112339421Y-120591152D01*
X112296247Y-120730193D01*
X112296246Y-120730199D01*
X112294663Y-120735296D01*
X112292566Y-120751118D01*
X112264908Y-120959794D01*
X112256799Y-120978081D01*
X112260896Y-120984456D01*
X112265911Y-121015227D01*
X112272803Y-121198822D01*
X112275531Y-121211824D01*
X112313806Y-121394236D01*
X112320620Y-121426713D01*
X112406150Y-121643290D01*
X112526949Y-121842359D01*
X112530446Y-121846389D01*
X112675225Y-122013233D01*
X112679561Y-122018230D01*
X112683687Y-122021613D01*
X112683691Y-122021617D01*
X112758628Y-122083061D01*
X112859624Y-122165872D01*
X112864260Y-122168511D01*
X112864263Y-122168513D01*
X112905252Y-122191845D01*
X112954558Y-122242927D01*
X112968420Y-122312558D01*
X112942437Y-122378629D01*
X112913287Y-122405867D01*
X112776728Y-122497804D01*
X112772871Y-122501483D01*
X112772869Y-122501485D01*
X112699375Y-122571595D01*
X112608242Y-122658532D01*
X112469246Y-122845350D01*
X112363714Y-123052916D01*
X112358433Y-123069925D01*
X112296247Y-123270193D01*
X112296246Y-123270199D01*
X112294663Y-123275296D01*
X112293962Y-123280588D01*
X112264908Y-123499794D01*
X112256799Y-123518081D01*
X112260896Y-123524456D01*
X112265911Y-123555227D01*
X112272803Y-123738822D01*
X112286483Y-123804019D01*
X112311405Y-123922793D01*
X112320620Y-123966713D01*
X112406150Y-124183290D01*
X112526949Y-124382359D01*
X112530446Y-124386389D01*
X112674236Y-124552093D01*
X112679561Y-124558230D01*
X112683687Y-124561613D01*
X112683691Y-124561617D01*
X112779915Y-124640515D01*
X112859624Y-124705872D01*
X112864260Y-124708511D01*
X112864263Y-124708513D01*
X112906399Y-124732498D01*
X112955706Y-124783581D01*
X112969567Y-124853211D01*
X112943584Y-124919282D01*
X112886004Y-124960816D01*
X112844067Y-124968000D01*
X112140000Y-124968000D01*
X112071879Y-124947998D01*
X112025386Y-124894342D01*
X112014000Y-124842000D01*
X112014000Y-123559954D01*
X112024948Y-123522669D01*
X112015488Y-123502545D01*
X112014000Y-123483239D01*
X112014000Y-121019954D01*
X112024948Y-120982669D01*
X112015488Y-120962545D01*
X112014000Y-120943239D01*
X112014000Y-118479954D01*
X112024948Y-118442669D01*
X112015488Y-118422545D01*
X112014000Y-118403239D01*
X112014000Y-115939954D01*
X112024948Y-115902669D01*
X112015488Y-115882545D01*
X112014000Y-115863239D01*
X112014000Y-113399954D01*
X112024948Y-113362669D01*
X112015488Y-113342545D01*
X112014000Y-113323239D01*
X112014000Y-110859954D01*
X112024948Y-110822669D01*
X112015488Y-110802545D01*
X112014000Y-110783239D01*
X112014000Y-105779954D01*
X112024948Y-105742669D01*
X112022791Y-105738081D01*
X112256799Y-105738081D01*
X112260896Y-105744456D01*
X112265911Y-105775227D01*
X112272803Y-105958822D01*
X112320620Y-106186713D01*
X112406150Y-106403290D01*
X112526949Y-106602359D01*
X112530446Y-106606389D01*
X112635098Y-106726990D01*
X112679561Y-106778230D01*
X112683687Y-106781613D01*
X112683691Y-106781617D01*
X112750963Y-106836776D01*
X112859624Y-106925872D01*
X112864260Y-106928511D01*
X112864263Y-106928513D01*
X113013185Y-107013284D01*
X113061989Y-107041065D01*
X113067005Y-107042886D01*
X113067010Y-107042888D01*
X113275854Y-107118695D01*
X113275858Y-107118696D01*
X113280869Y-107120515D01*
X113286118Y-107121464D01*
X113286121Y-107121465D01*
X113336352Y-107130548D01*
X113510007Y-107161950D01*
X113514146Y-107162145D01*
X113514153Y-107162146D01*
X113532905Y-107163030D01*
X113532914Y-107163030D01*
X113534394Y-107163100D01*
X114002868Y-107163100D01*
X114070375Y-107157372D01*
X114171109Y-107148825D01*
X114171113Y-107148824D01*
X114176420Y-107148374D01*
X114181577Y-107147036D01*
X114181580Y-107147035D01*
X114396637Y-107091217D01*
X114396641Y-107091216D01*
X114401806Y-107089875D01*
X114406672Y-107087683D01*
X114406675Y-107087682D01*
X114609240Y-106996433D01*
X114614113Y-106994238D01*
X114630255Y-106983371D01*
X114738439Y-106910537D01*
X114807272Y-106864196D01*
X114975758Y-106703468D01*
X115114754Y-106516650D01*
X115161629Y-106424453D01*
X115217867Y-106313842D01*
X115217867Y-106313841D01*
X115220286Y-106309084D01*
X115273816Y-106136690D01*
X115287753Y-106091807D01*
X115287754Y-106091801D01*
X115289337Y-106086704D01*
X115315428Y-105889851D01*
X115319232Y-105861152D01*
X115319232Y-105861148D01*
X115319932Y-105855868D01*
X115311197Y-105623178D01*
X115281935Y-105483720D01*
X115264477Y-105400514D01*
X115264476Y-105400511D01*
X115263380Y-105395287D01*
X115177850Y-105178710D01*
X115057051Y-104979641D01*
X115053554Y-104975611D01*
X114907939Y-104807803D01*
X114907937Y-104807801D01*
X114904439Y-104803770D01*
X114900313Y-104800387D01*
X114900309Y-104800383D01*
X114749998Y-104677137D01*
X114724376Y-104656128D01*
X114678261Y-104629878D01*
X114628956Y-104578798D01*
X114615094Y-104509168D01*
X114641077Y-104443096D01*
X114670227Y-104415857D01*
X114802530Y-104326785D01*
X114810816Y-104320124D01*
X114971520Y-104166820D01*
X114978569Y-104158852D01*
X115111144Y-103980664D01*
X115116743Y-103971634D01*
X115217402Y-103773653D01*
X115221405Y-103763792D01*
X115287263Y-103551699D01*
X115289548Y-103541304D01*
X115291980Y-103522959D01*
X115289783Y-103508792D01*
X115276599Y-103505000D01*
X112309512Y-103505000D01*
X112295981Y-103508973D01*
X112294456Y-103519580D01*
X112320004Y-103641343D01*
X112323064Y-103651539D01*
X112404637Y-103858097D01*
X112409371Y-103867634D01*
X112524586Y-104057503D01*
X112530850Y-104066093D01*
X112676411Y-104233837D01*
X112684041Y-104241257D01*
X112855780Y-104382073D01*
X112864551Y-104388102D01*
X112905715Y-104411533D01*
X112955022Y-104462615D01*
X112968884Y-104532245D01*
X112942901Y-104598316D01*
X112913751Y-104625555D01*
X112776728Y-104717804D01*
X112772871Y-104721483D01*
X112772869Y-104721485D01*
X112705450Y-104785800D01*
X112608242Y-104878532D01*
X112469246Y-105065350D01*
X112363714Y-105272916D01*
X112358676Y-105289142D01*
X112296247Y-105490193D01*
X112296246Y-105490198D01*
X112294663Y-105495296D01*
X112293962Y-105500588D01*
X112264908Y-105719794D01*
X112256799Y-105738081D01*
X112022791Y-105738081D01*
X112015488Y-105722545D01*
X112014000Y-105703239D01*
X112014000Y-102979041D01*
X112292020Y-102979041D01*
X112294217Y-102993208D01*
X112307401Y-102997000D01*
X113519885Y-102997000D01*
X113535124Y-102992525D01*
X113536329Y-102991135D01*
X113538000Y-102983452D01*
X113538000Y-102978885D01*
X114046000Y-102978885D01*
X114050475Y-102994124D01*
X114051865Y-102995329D01*
X114059548Y-102997000D01*
X115274488Y-102997000D01*
X115288019Y-102993027D01*
X115289544Y-102982420D01*
X115263996Y-102860657D01*
X115260936Y-102850461D01*
X115179363Y-102643903D01*
X115174629Y-102634366D01*
X115059414Y-102444497D01*
X115053150Y-102435907D01*
X114907589Y-102268163D01*
X114899959Y-102260743D01*
X114728220Y-102119927D01*
X114719458Y-102113905D01*
X114677798Y-102090190D01*
X114628492Y-102039107D01*
X114614631Y-101969476D01*
X114640615Y-101903406D01*
X114669764Y-101876168D01*
X114802531Y-101786785D01*
X114810816Y-101780124D01*
X114971520Y-101626820D01*
X114978569Y-101618852D01*
X115111144Y-101440664D01*
X115116743Y-101431634D01*
X115217402Y-101233653D01*
X115221405Y-101223792D01*
X115287263Y-101011699D01*
X115289548Y-101001304D01*
X115291980Y-100982959D01*
X115289783Y-100968792D01*
X115276599Y-100965000D01*
X114064115Y-100965000D01*
X114048876Y-100969475D01*
X114047671Y-100970865D01*
X114046000Y-100978548D01*
X114046000Y-102978885D01*
X113538000Y-102978885D01*
X113538000Y-100983115D01*
X113533525Y-100967876D01*
X113532135Y-100966671D01*
X113524452Y-100965000D01*
X112309512Y-100965000D01*
X112295981Y-100968973D01*
X112294456Y-100979580D01*
X112320004Y-101101343D01*
X112323064Y-101111539D01*
X112404637Y-101318097D01*
X112409371Y-101327634D01*
X112524586Y-101517503D01*
X112530850Y-101526093D01*
X112676411Y-101693837D01*
X112684041Y-101701257D01*
X112855780Y-101842073D01*
X112864542Y-101848095D01*
X112906202Y-101871810D01*
X112955508Y-101922893D01*
X112969369Y-101992524D01*
X112943385Y-102058594D01*
X112914236Y-102085832D01*
X112781469Y-102175215D01*
X112773184Y-102181876D01*
X112612480Y-102335180D01*
X112605431Y-102343148D01*
X112472856Y-102521336D01*
X112467257Y-102530366D01*
X112366598Y-102728347D01*
X112362595Y-102738208D01*
X112296737Y-102950301D01*
X112294452Y-102960696D01*
X112292020Y-102979041D01*
X112014000Y-102979041D01*
X112014000Y-98159954D01*
X112024948Y-98122669D01*
X112022791Y-98118081D01*
X112256799Y-98118081D01*
X112260896Y-98124456D01*
X112265911Y-98155227D01*
X112272803Y-98338822D01*
X112320620Y-98566713D01*
X112406150Y-98783290D01*
X112526949Y-98982359D01*
X112530446Y-98986389D01*
X112643652Y-99116848D01*
X112679561Y-99158230D01*
X112683687Y-99161613D01*
X112683691Y-99161617D01*
X112738273Y-99206371D01*
X112859624Y-99305872D01*
X112905739Y-99332122D01*
X112955044Y-99383202D01*
X112968906Y-99452832D01*
X112942923Y-99518904D01*
X112913773Y-99546143D01*
X112781470Y-99635215D01*
X112773184Y-99641876D01*
X112612480Y-99795180D01*
X112605431Y-99803148D01*
X112472856Y-99981336D01*
X112467257Y-99990366D01*
X112366598Y-100188347D01*
X112362595Y-100198208D01*
X112296737Y-100410301D01*
X112294452Y-100420696D01*
X112292020Y-100439041D01*
X112294217Y-100453208D01*
X112307401Y-100457000D01*
X115274488Y-100457000D01*
X115288019Y-100453027D01*
X115289544Y-100442420D01*
X115263996Y-100320657D01*
X115260936Y-100310461D01*
X115179363Y-100103903D01*
X115174629Y-100094366D01*
X115059414Y-99904497D01*
X115053150Y-99895907D01*
X114907589Y-99728163D01*
X114899959Y-99720743D01*
X114728220Y-99579927D01*
X114719449Y-99573898D01*
X114678285Y-99550467D01*
X114628978Y-99499385D01*
X114615116Y-99429755D01*
X114641099Y-99363684D01*
X114670249Y-99336445D01*
X114699690Y-99316624D01*
X114807272Y-99244196D01*
X114841357Y-99211681D01*
X114964187Y-99094506D01*
X114975758Y-99083468D01*
X114982128Y-99074906D01*
X114995671Y-99056705D01*
X115052382Y-99013993D01*
X115123182Y-99008721D01*
X115185854Y-99042824D01*
X119874550Y-103731520D01*
X119880404Y-103737785D01*
X119918439Y-103781385D01*
X119924653Y-103785752D01*
X119970719Y-103818128D01*
X119976014Y-103822061D01*
X120026282Y-103861476D01*
X120033198Y-103864599D01*
X120035484Y-103865983D01*
X120050165Y-103874357D01*
X120052525Y-103875622D01*
X120058739Y-103879990D01*
X120065818Y-103882750D01*
X120065820Y-103882751D01*
X120118275Y-103903202D01*
X120124344Y-103905753D01*
X120182573Y-103932045D01*
X120190040Y-103933429D01*
X120192595Y-103934230D01*
X120208848Y-103938859D01*
X120211428Y-103939522D01*
X120218509Y-103942282D01*
X120226040Y-103943273D01*
X120226042Y-103943274D01*
X120255661Y-103947173D01*
X120281861Y-103950622D01*
X120288359Y-103951652D01*
X120351186Y-103963296D01*
X120358766Y-103962859D01*
X120358767Y-103962859D01*
X120413392Y-103959709D01*
X120420646Y-103959500D01*
X135036340Y-103959500D01*
X135104461Y-103979502D01*
X135125435Y-103996405D01*
X135652595Y-104523565D01*
X135686621Y-104585877D01*
X135689500Y-104612660D01*
X135689500Y-106778088D01*
X135689208Y-106786658D01*
X135685275Y-106844352D01*
X135686580Y-106851829D01*
X135686580Y-106851830D01*
X135696261Y-106907299D01*
X135697223Y-106913821D01*
X135704898Y-106977242D01*
X135707581Y-106984343D01*
X135708222Y-106986952D01*
X135712685Y-107003262D01*
X135713450Y-107005798D01*
X135714757Y-107013284D01*
X135739794Y-107070318D01*
X135740442Y-107071795D01*
X135742933Y-107077899D01*
X135765513Y-107137656D01*
X135769817Y-107143919D01*
X135771054Y-107146285D01*
X135779299Y-107161097D01*
X135780632Y-107163351D01*
X135783685Y-107170305D01*
X135788307Y-107176328D01*
X135822579Y-107220991D01*
X135826459Y-107226332D01*
X135858339Y-107272720D01*
X135858344Y-107272725D01*
X135862643Y-107278981D01*
X135868313Y-107284032D01*
X135868314Y-107284034D01*
X135909170Y-107320435D01*
X135914446Y-107325416D01*
X137273557Y-108684528D01*
X137279411Y-108690793D01*
X137317439Y-108734385D01*
X137369729Y-108771136D01*
X137374971Y-108775028D01*
X137425282Y-108814476D01*
X137432201Y-108817600D01*
X137434493Y-108818988D01*
X137449165Y-108827357D01*
X137451525Y-108828622D01*
X137457739Y-108832990D01*
X137464818Y-108835750D01*
X137464820Y-108835751D01*
X137517275Y-108856202D01*
X137523344Y-108858753D01*
X137581573Y-108885045D01*
X137589046Y-108886430D01*
X137591612Y-108887234D01*
X137607835Y-108891855D01*
X137610427Y-108892520D01*
X137617509Y-108895282D01*
X137625044Y-108896274D01*
X137680861Y-108903622D01*
X137687377Y-108904654D01*
X137725770Y-108911770D01*
X137750186Y-108916295D01*
X137757766Y-108915858D01*
X137757767Y-108915858D01*
X137812380Y-108912709D01*
X137819633Y-108912500D01*
X141005340Y-108912500D01*
X141073461Y-108932502D01*
X141094435Y-108949405D01*
X146574595Y-114429565D01*
X146608621Y-114491877D01*
X146611500Y-114518660D01*
X146611500Y-121891088D01*
X146611208Y-121899658D01*
X146607920Y-121947896D01*
X146607275Y-121957352D01*
X146608580Y-121964829D01*
X146608580Y-121964830D01*
X146618261Y-122020299D01*
X146619223Y-122026821D01*
X146626898Y-122090242D01*
X146629581Y-122097343D01*
X146630222Y-122099952D01*
X146634685Y-122116262D01*
X146635450Y-122118798D01*
X146636757Y-122126284D01*
X146655295Y-122168513D01*
X146662442Y-122184795D01*
X146664933Y-122190899D01*
X146687513Y-122250656D01*
X146691817Y-122256919D01*
X146693054Y-122259285D01*
X146701299Y-122274097D01*
X146702632Y-122276351D01*
X146705685Y-122283305D01*
X146734561Y-122320935D01*
X146744579Y-122333991D01*
X146748459Y-122339332D01*
X146780339Y-122385720D01*
X146780344Y-122385725D01*
X146784643Y-122391981D01*
X146790313Y-122397032D01*
X146790314Y-122397034D01*
X146831170Y-122433435D01*
X146836446Y-122438416D01*
X148195557Y-123797528D01*
X148201411Y-123803793D01*
X148239439Y-123847385D01*
X148291729Y-123884136D01*
X148296971Y-123888028D01*
X148347282Y-123927476D01*
X148354201Y-123930600D01*
X148356493Y-123931988D01*
X148371165Y-123940357D01*
X148373525Y-123941622D01*
X148379739Y-123945990D01*
X148386818Y-123948750D01*
X148386820Y-123948751D01*
X148439275Y-123969202D01*
X148445344Y-123971753D01*
X148503573Y-123998045D01*
X148511046Y-123999430D01*
X148513612Y-124000234D01*
X148529835Y-124004855D01*
X148532427Y-124005520D01*
X148539509Y-124008282D01*
X148547044Y-124009274D01*
X148602861Y-124016622D01*
X148609377Y-124017654D01*
X148647770Y-124024770D01*
X148672186Y-124029295D01*
X148679766Y-124028858D01*
X148679767Y-124028858D01*
X148734380Y-124025709D01*
X148741633Y-124025500D01*
X149391500Y-124025500D01*
X149459621Y-124045502D01*
X149506114Y-124099158D01*
X149517500Y-124151500D01*
X149517500Y-124215134D01*
X149524255Y-124277316D01*
X149575385Y-124413705D01*
X149662739Y-124530261D01*
X149779295Y-124617615D01*
X149915684Y-124668745D01*
X149977866Y-124675500D01*
X151774134Y-124675500D01*
X151836316Y-124668745D01*
X151972705Y-124617615D01*
X152089261Y-124530261D01*
X152176615Y-124413705D01*
X152227745Y-124277316D01*
X152234500Y-124215134D01*
X152234500Y-122418866D01*
X152227745Y-122356684D01*
X152176615Y-122220295D01*
X152089261Y-122103739D01*
X151972705Y-122016385D01*
X151960132Y-122011672D01*
X151854203Y-121971960D01*
X151797439Y-121929318D01*
X151772739Y-121862756D01*
X151787947Y-121793408D01*
X151809493Y-121764727D01*
X151914096Y-121660489D01*
X151937486Y-121627939D01*
X152041435Y-121483277D01*
X152044453Y-121479077D01*
X152067877Y-121431683D01*
X152141136Y-121283453D01*
X152141137Y-121283451D01*
X152143430Y-121278811D01*
X152205719Y-121073796D01*
X152206865Y-121070023D01*
X152206865Y-121070021D01*
X152208370Y-121065069D01*
X152237529Y-120843590D01*
X152239156Y-120777000D01*
X152220852Y-120554361D01*
X152166431Y-120337702D01*
X152077354Y-120132840D01*
X152014805Y-120036154D01*
X151958822Y-119949617D01*
X151958820Y-119949614D01*
X151956014Y-119945277D01*
X151805670Y-119780051D01*
X151801619Y-119776852D01*
X151801615Y-119776848D01*
X151634414Y-119644800D01*
X151634410Y-119644798D01*
X151630359Y-119641598D01*
X151589053Y-119618796D01*
X151539084Y-119568364D01*
X151524312Y-119498921D01*
X151549428Y-119432516D01*
X151576780Y-119405909D01*
X151620603Y-119374650D01*
X151755860Y-119278173D01*
X151914096Y-119120489D01*
X151973594Y-119037689D01*
X152041435Y-118943277D01*
X152044453Y-118939077D01*
X152067877Y-118891683D01*
X152141136Y-118743453D01*
X152141137Y-118743451D01*
X152143430Y-118738811D01*
X152184116Y-118604899D01*
X152206865Y-118530023D01*
X152206865Y-118530021D01*
X152208370Y-118525069D01*
X152237529Y-118303590D01*
X152237611Y-118300240D01*
X152239074Y-118240365D01*
X152239074Y-118240361D01*
X152239156Y-118237000D01*
X152220852Y-118014361D01*
X152166431Y-117797702D01*
X152077354Y-117592840D01*
X152017541Y-117500383D01*
X151958822Y-117409617D01*
X151958820Y-117409614D01*
X151956014Y-117405277D01*
X151805670Y-117240051D01*
X151801619Y-117236852D01*
X151801615Y-117236848D01*
X151634414Y-117104800D01*
X151634410Y-117104798D01*
X151630359Y-117101598D01*
X151588569Y-117078529D01*
X151538598Y-117028097D01*
X151523826Y-116958654D01*
X151548942Y-116892248D01*
X151576294Y-116865641D01*
X151751328Y-116740792D01*
X151759200Y-116734139D01*
X151910052Y-116583812D01*
X151916730Y-116575965D01*
X152041003Y-116403020D01*
X152046313Y-116394183D01*
X152140670Y-116203267D01*
X152144469Y-116193672D01*
X152206377Y-115989910D01*
X152208555Y-115979837D01*
X152209986Y-115968962D01*
X152207775Y-115954778D01*
X152194617Y-115951000D01*
X149559225Y-115951000D01*
X149545694Y-115954973D01*
X149544257Y-115964966D01*
X149574565Y-116099446D01*
X149577645Y-116109275D01*
X149657770Y-116306603D01*
X149662413Y-116315794D01*
X149773694Y-116497388D01*
X149779777Y-116505699D01*
X149919213Y-116666667D01*
X149926580Y-116673883D01*
X150090434Y-116809916D01*
X150098881Y-116815831D01*
X150167969Y-116856203D01*
X150216693Y-116907842D01*
X150229764Y-116977625D01*
X150203033Y-117043396D01*
X150162584Y-117076752D01*
X150149607Y-117083507D01*
X150145474Y-117086610D01*
X150145471Y-117086612D01*
X150065524Y-117146638D01*
X149970965Y-117217635D01*
X149816629Y-117379138D01*
X149690743Y-117563680D01*
X149675003Y-117597590D01*
X149609511Y-117738681D01*
X149596688Y-117766305D01*
X149536989Y-117981570D01*
X149513251Y-118203695D01*
X149513548Y-118208848D01*
X149513548Y-118208851D01*
X149523001Y-118372791D01*
X149526110Y-118426715D01*
X149527247Y-118431761D01*
X149527248Y-118431767D01*
X149547119Y-118519939D01*
X149575222Y-118644639D01*
X149659266Y-118851616D01*
X149775987Y-119042088D01*
X149922250Y-119210938D01*
X150094126Y-119353632D01*
X150164595Y-119394811D01*
X150167445Y-119396476D01*
X150216169Y-119448114D01*
X150229240Y-119517897D01*
X150202509Y-119583669D01*
X150162055Y-119617027D01*
X150149607Y-119623507D01*
X150145474Y-119626610D01*
X150145471Y-119626612D01*
X150055402Y-119694238D01*
X149970965Y-119757635D01*
X149967393Y-119761373D01*
X149828247Y-119906981D01*
X149816629Y-119919138D01*
X149813715Y-119923410D01*
X149813714Y-119923411D01*
X149801021Y-119942018D01*
X149690743Y-120103680D01*
X149596688Y-120306305D01*
X149536989Y-120521570D01*
X149513251Y-120743695D01*
X149513548Y-120748848D01*
X149513548Y-120748851D01*
X149522151Y-120898048D01*
X149526110Y-120966715D01*
X149527247Y-120971761D01*
X149527248Y-120971767D01*
X149538108Y-121019954D01*
X149575222Y-121184639D01*
X149613461Y-121278811D01*
X149642870Y-121351236D01*
X149659266Y-121391616D01*
X149683819Y-121431683D01*
X149742460Y-121527376D01*
X149775987Y-121582088D01*
X149922250Y-121750938D01*
X149926230Y-121754242D01*
X149930981Y-121758187D01*
X149970616Y-121817090D01*
X149972113Y-121888071D01*
X149934997Y-121948593D01*
X149894724Y-121973112D01*
X149779295Y-122016385D01*
X149662739Y-122103739D01*
X149575385Y-122220295D01*
X149524255Y-122356684D01*
X149517500Y-122418866D01*
X149517500Y-122482500D01*
X149497498Y-122550621D01*
X149443842Y-122597114D01*
X149391500Y-122608500D01*
X149062660Y-122608500D01*
X148994539Y-122588498D01*
X148973565Y-122571595D01*
X148065405Y-121663435D01*
X148031379Y-121601123D01*
X148028500Y-121574340D01*
X148028500Y-115431183D01*
X149540389Y-115431183D01*
X149541912Y-115439607D01*
X149554292Y-115443000D01*
X150603885Y-115443000D01*
X150619124Y-115438525D01*
X150620329Y-115437135D01*
X150622000Y-115429452D01*
X150622000Y-115424885D01*
X151130000Y-115424885D01*
X151134475Y-115440124D01*
X151135865Y-115441329D01*
X151143548Y-115443000D01*
X152194344Y-115443000D01*
X152207875Y-115439027D01*
X152209180Y-115429947D01*
X152167214Y-115262875D01*
X152163894Y-115253124D01*
X152078972Y-115057814D01*
X152074105Y-115048739D01*
X151958426Y-114869926D01*
X151952136Y-114861757D01*
X151808806Y-114704240D01*
X151801273Y-114697215D01*
X151634139Y-114565222D01*
X151625552Y-114559517D01*
X151439117Y-114456599D01*
X151429705Y-114452369D01*
X151228959Y-114381280D01*
X151218988Y-114378646D01*
X151147837Y-114365972D01*
X151134540Y-114367432D01*
X151130000Y-114381989D01*
X151130000Y-115424885D01*
X150622000Y-115424885D01*
X150622000Y-114380102D01*
X150618082Y-114366758D01*
X150603806Y-114364771D01*
X150565324Y-114370660D01*
X150555288Y-114373051D01*
X150352868Y-114439212D01*
X150343359Y-114443209D01*
X150154463Y-114541542D01*
X150145738Y-114547036D01*
X149975433Y-114674905D01*
X149967726Y-114681748D01*
X149820590Y-114835717D01*
X149814104Y-114843727D01*
X149694098Y-115019649D01*
X149689000Y-115028623D01*
X149599338Y-115221783D01*
X149595775Y-115231470D01*
X149540389Y-115431183D01*
X148028500Y-115431183D01*
X148028500Y-114201927D01*
X148028792Y-114193358D01*
X148032210Y-114143225D01*
X148032210Y-114143221D01*
X148032726Y-114135648D01*
X148021736Y-114072681D01*
X148020775Y-114066165D01*
X148013102Y-114002758D01*
X148010419Y-113995657D01*
X148009778Y-113993048D01*
X148005309Y-113976715D01*
X148004548Y-113974195D01*
X148003243Y-113966717D01*
X148000191Y-113959764D01*
X147977559Y-113908204D01*
X147975068Y-113902099D01*
X147955175Y-113849456D01*
X147955173Y-113849452D01*
X147952487Y-113842344D01*
X147948184Y-113836083D01*
X147946947Y-113833717D01*
X147938720Y-113818937D01*
X147937369Y-113816652D01*
X147934315Y-113809695D01*
X147929695Y-113803675D01*
X147929692Y-113803669D01*
X147895421Y-113759009D01*
X147891541Y-113753668D01*
X147859661Y-113707280D01*
X147859656Y-113707275D01*
X147855357Y-113701019D01*
X147808829Y-113659564D01*
X147803554Y-113654584D01*
X141872450Y-107723480D01*
X141866596Y-107717215D01*
X141863920Y-107714147D01*
X141828561Y-107673615D01*
X141776280Y-107636871D01*
X141770986Y-107632939D01*
X141726693Y-107598209D01*
X141720718Y-107593524D01*
X141713802Y-107590401D01*
X141711516Y-107589017D01*
X141696835Y-107580643D01*
X141694475Y-107579378D01*
X141688261Y-107575010D01*
X141681182Y-107572250D01*
X141681180Y-107572249D01*
X141628725Y-107551798D01*
X141622656Y-107549247D01*
X141564427Y-107522955D01*
X141556960Y-107521571D01*
X141554405Y-107520770D01*
X141538152Y-107516141D01*
X141535572Y-107515478D01*
X141528491Y-107512718D01*
X141520960Y-107511727D01*
X141520958Y-107511726D01*
X141491339Y-107507827D01*
X141465139Y-107504378D01*
X141458641Y-107503348D01*
X141395814Y-107491704D01*
X141388234Y-107492141D01*
X141388233Y-107492141D01*
X141333608Y-107495291D01*
X141326354Y-107495500D01*
X138140660Y-107495500D01*
X138072539Y-107475498D01*
X138051565Y-107458595D01*
X137143405Y-106550435D01*
X137109379Y-106488123D01*
X137106500Y-106461340D01*
X137106500Y-104295912D01*
X137106792Y-104287342D01*
X137110209Y-104237224D01*
X137110209Y-104237220D01*
X137110725Y-104229648D01*
X137099738Y-104166697D01*
X137098776Y-104160175D01*
X137091571Y-104100637D01*
X137103244Y-104030607D01*
X137150925Y-103978005D01*
X137216658Y-103959500D01*
X137999800Y-103959500D01*
X138056609Y-103973033D01*
X138057260Y-103973362D01*
X138063159Y-103977222D01*
X138069767Y-103979680D01*
X138069768Y-103979680D01*
X138226558Y-104037990D01*
X138226560Y-104037990D01*
X138233168Y-104040448D01*
X138316995Y-104051633D01*
X138405980Y-104063507D01*
X138405984Y-104063507D01*
X138412961Y-104064438D01*
X138419972Y-104063800D01*
X138419976Y-104063800D01*
X138562459Y-104050832D01*
X138593600Y-104047998D01*
X138600302Y-104045820D01*
X138600304Y-104045820D01*
X138759409Y-103994124D01*
X138759412Y-103994123D01*
X138766108Y-103991947D01*
X138871840Y-103928918D01*
X138915860Y-103902677D01*
X138915862Y-103902676D01*
X138921912Y-103899069D01*
X139053266Y-103773982D01*
X139153643Y-103622902D01*
X139218055Y-103453338D01*
X139243299Y-103273717D01*
X139243616Y-103251000D01*
X139223397Y-103070745D01*
X139221080Y-103064091D01*
X139166064Y-102906106D01*
X139166062Y-102906103D01*
X139163745Y-102899448D01*
X139067626Y-102745624D01*
X139039814Y-102717617D01*
X138944778Y-102621915D01*
X138944774Y-102621912D01*
X138939815Y-102616918D01*
X138786666Y-102519727D01*
X138746979Y-102505595D01*
X138622425Y-102461243D01*
X138622420Y-102461242D01*
X138615790Y-102458881D01*
X138608802Y-102458048D01*
X138608799Y-102458047D01*
X138485698Y-102443368D01*
X138435680Y-102437404D01*
X138428677Y-102438140D01*
X138428676Y-102438140D01*
X138262288Y-102455628D01*
X138262286Y-102455629D01*
X138255288Y-102456364D01*
X138165094Y-102487068D01*
X138090249Y-102512547D01*
X138090246Y-102512548D01*
X138083579Y-102514818D01*
X138077576Y-102518511D01*
X138077574Y-102518512D01*
X138068949Y-102523818D01*
X138002928Y-102542500D01*
X135458873Y-102542500D01*
X135435912Y-102540390D01*
X135434282Y-102540088D01*
X135434281Y-102540088D01*
X135426814Y-102538704D01*
X135419234Y-102539141D01*
X135419233Y-102539141D01*
X135364608Y-102542291D01*
X135357354Y-102542500D01*
X120741660Y-102542500D01*
X120673539Y-102522498D01*
X120652565Y-102505595D01*
X117133970Y-98987000D01*
X129271193Y-98987000D01*
X129290385Y-99206371D01*
X129347380Y-99419076D01*
X129349705Y-99424061D01*
X129438118Y-99613666D01*
X129438121Y-99613671D01*
X129440444Y-99618653D01*
X129443600Y-99623160D01*
X129443601Y-99623162D01*
X129517124Y-99728163D01*
X129566751Y-99799038D01*
X129722462Y-99954749D01*
X129726971Y-99957906D01*
X129726973Y-99957908D01*
X129801741Y-100010261D01*
X129902846Y-100081056D01*
X130102424Y-100174120D01*
X130315129Y-100231115D01*
X130534500Y-100250307D01*
X130753871Y-100231115D01*
X130966576Y-100174120D01*
X131166154Y-100081056D01*
X131267259Y-100010261D01*
X131342027Y-99957908D01*
X131342029Y-99957906D01*
X131346538Y-99954749D01*
X131502249Y-99799038D01*
X131551877Y-99728163D01*
X131625399Y-99623162D01*
X131625400Y-99623160D01*
X131628556Y-99618653D01*
X131630879Y-99613671D01*
X131630882Y-99613666D01*
X131719295Y-99424061D01*
X131721620Y-99419076D01*
X131778615Y-99206371D01*
X131797807Y-98987000D01*
X131778615Y-98767629D01*
X131721620Y-98554924D01*
X131644240Y-98388981D01*
X131630882Y-98360334D01*
X131630879Y-98360329D01*
X131628556Y-98355347D01*
X131615242Y-98336332D01*
X131505408Y-98179473D01*
X131505406Y-98179470D01*
X131502249Y-98174962D01*
X131346538Y-98019251D01*
X131311375Y-97994629D01*
X131253853Y-97954352D01*
X131166154Y-97892944D01*
X130966576Y-97799880D01*
X130753871Y-97742885D01*
X130534500Y-97723693D01*
X130315129Y-97742885D01*
X130102424Y-97799880D01*
X130017735Y-97839371D01*
X129907834Y-97890618D01*
X129907829Y-97890621D01*
X129902847Y-97892944D01*
X129898340Y-97896100D01*
X129898338Y-97896101D01*
X129726973Y-98016092D01*
X129726970Y-98016094D01*
X129722462Y-98019251D01*
X129566751Y-98174962D01*
X129563594Y-98179470D01*
X129563592Y-98179473D01*
X129453758Y-98336332D01*
X129440444Y-98355347D01*
X129438121Y-98360329D01*
X129438118Y-98360334D01*
X129424760Y-98388981D01*
X129347380Y-98554924D01*
X129290385Y-98767629D01*
X129271193Y-98987000D01*
X117133970Y-98987000D01*
X116470565Y-98323595D01*
X116436539Y-98261283D01*
X116441604Y-98190468D01*
X116470565Y-98145405D01*
X118082520Y-96533450D01*
X118088785Y-96527596D01*
X118117776Y-96502305D01*
X118132385Y-96489561D01*
X118169129Y-96437280D01*
X118173061Y-96431986D01*
X118207791Y-96387693D01*
X118212476Y-96381718D01*
X118215599Y-96374802D01*
X118216983Y-96372516D01*
X118225357Y-96357835D01*
X118226622Y-96355475D01*
X118230990Y-96349261D01*
X118254203Y-96289723D01*
X118256759Y-96283642D01*
X118271369Y-96251287D01*
X118283045Y-96225427D01*
X118284430Y-96217954D01*
X118285234Y-96215388D01*
X118289855Y-96199165D01*
X118290520Y-96196573D01*
X118293282Y-96189491D01*
X118301622Y-96126139D01*
X118302654Y-96119623D01*
X118312911Y-96064281D01*
X118314295Y-96056814D01*
X118310709Y-95994620D01*
X118310500Y-95987367D01*
X118310500Y-94107000D01*
X129271193Y-94107000D01*
X129290385Y-94326371D01*
X129347380Y-94539076D01*
X129370513Y-94588685D01*
X129438118Y-94733666D01*
X129438121Y-94733671D01*
X129440444Y-94738653D01*
X129443600Y-94743160D01*
X129443601Y-94743162D01*
X129563083Y-94913799D01*
X129566751Y-94919038D01*
X129722462Y-95074749D01*
X129726971Y-95077906D01*
X129726973Y-95077908D01*
X129801741Y-95130261D01*
X129902846Y-95201056D01*
X130102424Y-95294120D01*
X130315129Y-95351115D01*
X130534500Y-95370307D01*
X130753871Y-95351115D01*
X130966576Y-95294120D01*
X131166154Y-95201056D01*
X131267259Y-95130261D01*
X131342027Y-95077908D01*
X131342029Y-95077906D01*
X131346538Y-95074749D01*
X131502249Y-94919038D01*
X131505918Y-94913799D01*
X131625399Y-94743162D01*
X131625400Y-94743160D01*
X131628556Y-94738653D01*
X131630879Y-94733671D01*
X131630882Y-94733666D01*
X131698487Y-94588685D01*
X131721620Y-94539076D01*
X131778615Y-94326371D01*
X131797807Y-94107000D01*
X131778615Y-93887629D01*
X131721620Y-93674924D01*
X131643832Y-93508106D01*
X131630882Y-93480334D01*
X131630879Y-93480329D01*
X131628556Y-93475347D01*
X131568882Y-93390124D01*
X131505408Y-93299473D01*
X131505406Y-93299470D01*
X131502249Y-93294962D01*
X131346538Y-93139251D01*
X131337840Y-93133160D01*
X131231020Y-93058364D01*
X131166154Y-93012944D01*
X130966576Y-92919880D01*
X130753871Y-92862885D01*
X130534500Y-92843693D01*
X130315129Y-92862885D01*
X130102424Y-92919880D01*
X130032170Y-92952640D01*
X129907834Y-93010618D01*
X129907829Y-93010621D01*
X129902847Y-93012944D01*
X129898340Y-93016100D01*
X129898338Y-93016101D01*
X129726973Y-93136092D01*
X129726970Y-93136094D01*
X129722462Y-93139251D01*
X129566751Y-93294962D01*
X129563594Y-93299470D01*
X129563592Y-93299473D01*
X129500118Y-93390124D01*
X129440444Y-93475347D01*
X129438121Y-93480329D01*
X129438118Y-93480334D01*
X129425168Y-93508106D01*
X129347380Y-93674924D01*
X129290385Y-93887629D01*
X129271193Y-94107000D01*
X118310500Y-94107000D01*
X118310500Y-90515660D01*
X118330502Y-90447539D01*
X118347405Y-90426565D01*
X121033565Y-87740405D01*
X121095877Y-87706379D01*
X121122660Y-87703500D01*
X138147088Y-87703500D01*
X138155658Y-87703792D01*
X138205776Y-87707209D01*
X138205780Y-87707209D01*
X138213352Y-87707725D01*
X138220829Y-87706420D01*
X138220830Y-87706420D01*
X138247308Y-87701799D01*
X138276303Y-87696738D01*
X138282821Y-87695777D01*
X138346242Y-87688102D01*
X138353343Y-87685419D01*
X138355952Y-87684778D01*
X138372262Y-87680315D01*
X138374798Y-87679550D01*
X138382284Y-87678243D01*
X138440800Y-87652556D01*
X138446904Y-87650065D01*
X138499548Y-87630173D01*
X138499549Y-87630172D01*
X138506656Y-87627487D01*
X138512919Y-87623183D01*
X138515285Y-87621946D01*
X138530097Y-87613701D01*
X138532351Y-87612368D01*
X138539305Y-87609315D01*
X138590002Y-87570413D01*
X138595332Y-87566541D01*
X138641720Y-87534661D01*
X138641725Y-87534656D01*
X138647981Y-87530357D01*
X138689436Y-87483829D01*
X138694416Y-87478554D01*
X145491493Y-80681477D01*
X145541651Y-80650739D01*
X145617411Y-80626123D01*
X145624108Y-80623947D01*
X145779912Y-80531069D01*
X145911266Y-80405982D01*
X146011643Y-80254902D01*
X146076055Y-80085338D01*
X146078177Y-80070238D01*
X146100748Y-79909639D01*
X146100748Y-79909636D01*
X146101299Y-79905717D01*
X146101616Y-79883000D01*
X146081397Y-79702745D01*
X146071317Y-79673799D01*
X146024064Y-79538106D01*
X146024062Y-79538103D01*
X146021745Y-79531448D01*
X145941734Y-79403402D01*
X145929359Y-79383598D01*
X145925626Y-79377624D01*
X145911941Y-79363843D01*
X145802778Y-79253915D01*
X145802774Y-79253912D01*
X145797815Y-79248918D01*
X145786697Y-79241862D01*
X145738538Y-79211300D01*
X145644666Y-79151727D01*
X145615463Y-79141328D01*
X145480425Y-79093243D01*
X145480420Y-79093242D01*
X145473790Y-79090881D01*
X145466802Y-79090048D01*
X145466799Y-79090047D01*
X145343698Y-79075368D01*
X145293680Y-79069404D01*
X145286677Y-79070140D01*
X145286676Y-79070140D01*
X145120288Y-79087628D01*
X145120286Y-79087629D01*
X145113288Y-79088364D01*
X144941579Y-79146818D01*
X144935575Y-79150512D01*
X144793095Y-79238166D01*
X144793092Y-79238168D01*
X144787088Y-79241862D01*
X144782053Y-79246793D01*
X144782050Y-79246795D01*
X144674880Y-79351744D01*
X144657493Y-79368771D01*
X144559235Y-79521238D01*
X144556825Y-79527858D01*
X144556824Y-79527861D01*
X144518110Y-79634226D01*
X144488804Y-79680226D01*
X137919435Y-86249595D01*
X137857123Y-86283621D01*
X137830340Y-86286500D01*
X120805912Y-86286500D01*
X120797342Y-86286208D01*
X120747224Y-86282791D01*
X120747220Y-86282791D01*
X120739648Y-86282275D01*
X120732171Y-86283580D01*
X120732170Y-86283580D01*
X120705692Y-86288201D01*
X120676697Y-86293262D01*
X120670179Y-86294223D01*
X120606758Y-86301898D01*
X120599657Y-86304581D01*
X120597048Y-86305222D01*
X120580738Y-86309685D01*
X120578202Y-86310450D01*
X120570716Y-86311757D01*
X120563759Y-86314811D01*
X120512205Y-86337442D01*
X120506101Y-86339933D01*
X120446344Y-86362513D01*
X120440081Y-86366817D01*
X120437715Y-86368054D01*
X120422903Y-86376299D01*
X120420649Y-86377632D01*
X120413695Y-86380685D01*
X120362998Y-86419587D01*
X120357668Y-86423459D01*
X120311280Y-86455339D01*
X120311275Y-86455344D01*
X120305019Y-86459643D01*
X120299968Y-86465313D01*
X120299966Y-86465314D01*
X120263565Y-86506170D01*
X120258584Y-86511446D01*
X117121480Y-89648550D01*
X117115215Y-89654404D01*
X117071615Y-89692439D01*
X117067248Y-89698653D01*
X117034872Y-89744719D01*
X117030939Y-89750014D01*
X116991524Y-89800282D01*
X116988401Y-89807198D01*
X116987017Y-89809484D01*
X116978643Y-89824165D01*
X116977378Y-89826525D01*
X116973010Y-89832739D01*
X116970250Y-89839818D01*
X116970249Y-89839820D01*
X116949798Y-89892275D01*
X116947247Y-89898344D01*
X116920955Y-89956573D01*
X116919571Y-89964040D01*
X116918770Y-89966595D01*
X116914141Y-89982848D01*
X116913478Y-89985428D01*
X116910718Y-89992509D01*
X116909727Y-90000040D01*
X116909726Y-90000042D01*
X116902379Y-90055852D01*
X116901348Y-90062359D01*
X116889704Y-90125186D01*
X116890141Y-90132766D01*
X116890141Y-90132767D01*
X116893291Y-90187392D01*
X116893500Y-90194646D01*
X116893500Y-95666340D01*
X116873498Y-95734461D01*
X116856595Y-95755435D01*
X115243236Y-97368794D01*
X115180924Y-97402820D01*
X115110109Y-97397755D01*
X115058356Y-97358508D01*
X115057051Y-97359641D01*
X114907939Y-97187803D01*
X114907937Y-97187801D01*
X114904439Y-97183770D01*
X114900313Y-97180387D01*
X114900309Y-97180383D01*
X114728504Y-97039513D01*
X114724376Y-97036128D01*
X114719740Y-97033489D01*
X114719737Y-97033487D01*
X114678748Y-97010155D01*
X114629442Y-96959073D01*
X114615580Y-96889442D01*
X114641563Y-96823371D01*
X114670713Y-96796133D01*
X114795876Y-96711868D01*
X114807272Y-96704196D01*
X114861532Y-96652435D01*
X114940767Y-96576848D01*
X114975758Y-96543468D01*
X115114754Y-96356650D01*
X115220286Y-96149084D01*
X115259906Y-96021486D01*
X115287753Y-95931807D01*
X115287754Y-95931801D01*
X115289337Y-95926704D01*
X115314240Y-95738816D01*
X115319232Y-95701152D01*
X115319232Y-95701148D01*
X115319932Y-95695868D01*
X115311197Y-95463178D01*
X115287784Y-95351594D01*
X115264477Y-95240514D01*
X115264476Y-95240511D01*
X115263380Y-95235287D01*
X115177850Y-95018710D01*
X115057051Y-94819641D01*
X115028118Y-94786298D01*
X114907939Y-94647803D01*
X114907937Y-94647801D01*
X114904439Y-94643770D01*
X114900313Y-94640387D01*
X114900309Y-94640383D01*
X114732407Y-94502713D01*
X114724376Y-94496128D01*
X114719740Y-94493489D01*
X114719737Y-94493487D01*
X114678748Y-94470155D01*
X114629442Y-94419073D01*
X114615580Y-94349442D01*
X114641563Y-94283371D01*
X114670713Y-94256133D01*
X114726880Y-94218319D01*
X114807272Y-94164196D01*
X114861490Y-94112475D01*
X114971896Y-94007152D01*
X114975758Y-94003468D01*
X115114754Y-93816650D01*
X115220286Y-93609084D01*
X115287031Y-93394132D01*
X115287753Y-93391807D01*
X115287754Y-93391801D01*
X115289337Y-93386704D01*
X115310913Y-93223915D01*
X115319232Y-93161152D01*
X115319232Y-93161148D01*
X115319932Y-93155868D01*
X115319331Y-93139844D01*
X115313452Y-92983238D01*
X115311197Y-92923178D01*
X115281087Y-92779675D01*
X115264477Y-92700514D01*
X115264476Y-92700511D01*
X115263380Y-92695287D01*
X115177850Y-92478710D01*
X115057051Y-92279641D01*
X115019621Y-92236506D01*
X114907939Y-92107803D01*
X114907937Y-92107801D01*
X114904439Y-92103770D01*
X114900313Y-92100387D01*
X114900309Y-92100383D01*
X114728504Y-91959513D01*
X114724376Y-91956128D01*
X114719740Y-91953489D01*
X114719737Y-91953487D01*
X114678748Y-91930155D01*
X114629442Y-91879073D01*
X114615580Y-91809442D01*
X114641563Y-91743371D01*
X114670713Y-91716133D01*
X114795876Y-91631868D01*
X114807272Y-91624196D01*
X114975758Y-91463468D01*
X115114754Y-91276650D01*
X115214291Y-91080876D01*
X115217867Y-91073842D01*
X115217867Y-91073841D01*
X115220286Y-91069084D01*
X115277832Y-90883757D01*
X115287753Y-90851807D01*
X115287754Y-90851801D01*
X115289337Y-90846704D01*
X115306993Y-90713491D01*
X115319232Y-90621152D01*
X115319232Y-90621148D01*
X115319932Y-90615868D01*
X115311197Y-90383178D01*
X115279107Y-90230238D01*
X115264477Y-90160514D01*
X115264476Y-90160511D01*
X115263380Y-90155287D01*
X115177850Y-89938710D01*
X115057051Y-89739641D01*
X115021484Y-89698653D01*
X114907939Y-89567803D01*
X114907937Y-89567801D01*
X114904439Y-89563770D01*
X114900313Y-89560387D01*
X114900309Y-89560383D01*
X114728504Y-89419513D01*
X114724376Y-89416128D01*
X114719740Y-89413489D01*
X114719737Y-89413487D01*
X114678748Y-89390155D01*
X114629442Y-89339073D01*
X114615580Y-89269442D01*
X114641563Y-89203371D01*
X114670713Y-89176133D01*
X114795876Y-89091868D01*
X114807272Y-89084196D01*
X114975758Y-88923468D01*
X115114754Y-88736650D01*
X115220286Y-88529084D01*
X115259906Y-88401486D01*
X115287753Y-88311807D01*
X115287754Y-88311801D01*
X115289337Y-88306704D01*
X115314240Y-88118816D01*
X115319232Y-88081152D01*
X115319232Y-88081148D01*
X115319932Y-88075868D01*
X115311197Y-87843178D01*
X115282776Y-87707725D01*
X115264477Y-87620514D01*
X115264476Y-87620511D01*
X115263380Y-87615287D01*
X115177850Y-87398710D01*
X115057051Y-87199641D01*
X114904439Y-87023770D01*
X114900313Y-87020387D01*
X114900309Y-87020383D01*
X114728504Y-86879513D01*
X114724376Y-86876128D01*
X114719740Y-86873489D01*
X114719737Y-86873487D01*
X114526654Y-86763578D01*
X114522011Y-86760935D01*
X114516995Y-86759114D01*
X114516990Y-86759112D01*
X114308146Y-86683305D01*
X114308142Y-86683304D01*
X114303131Y-86681485D01*
X114297882Y-86680536D01*
X114297879Y-86680535D01*
X114217771Y-86666049D01*
X114073993Y-86640050D01*
X114069854Y-86639855D01*
X114069847Y-86639854D01*
X114051095Y-86638970D01*
X114051086Y-86638970D01*
X114049606Y-86638900D01*
X113581132Y-86638900D01*
X113513625Y-86644628D01*
X113412891Y-86653175D01*
X113412887Y-86653176D01*
X113407580Y-86653626D01*
X113402423Y-86654964D01*
X113402420Y-86654965D01*
X113187363Y-86710783D01*
X113187359Y-86710784D01*
X113182194Y-86712125D01*
X113177328Y-86714317D01*
X113177325Y-86714318D01*
X113109274Y-86744973D01*
X112969887Y-86807762D01*
X112776728Y-86937804D01*
X112608242Y-87098532D01*
X112469246Y-87285350D01*
X112466830Y-87290102D01*
X112368334Y-87483830D01*
X112363714Y-87492916D01*
X112342019Y-87562785D01*
X112296247Y-87710193D01*
X112296246Y-87710199D01*
X112294663Y-87715296D01*
X112281475Y-87814798D01*
X112264908Y-87939794D01*
X112256799Y-87958081D01*
X112260896Y-87964456D01*
X112265911Y-87995227D01*
X112272803Y-88178822D01*
X112320620Y-88406713D01*
X112406150Y-88623290D01*
X112526949Y-88822359D01*
X112530446Y-88826389D01*
X112643652Y-88956848D01*
X112679561Y-88998230D01*
X112683687Y-89001613D01*
X112683691Y-89001617D01*
X112779915Y-89080515D01*
X112859624Y-89145872D01*
X112864260Y-89148511D01*
X112864263Y-89148513D01*
X112905252Y-89171845D01*
X112954558Y-89222927D01*
X112968420Y-89292558D01*
X112942437Y-89358629D01*
X112913287Y-89385867D01*
X112776728Y-89477804D01*
X112772871Y-89481483D01*
X112772869Y-89481485D01*
X112701213Y-89549842D01*
X112608242Y-89638532D01*
X112469246Y-89825350D01*
X112466830Y-89830102D01*
X112413404Y-89935184D01*
X112363714Y-90032916D01*
X112354569Y-90062368D01*
X112296247Y-90250193D01*
X112296246Y-90250199D01*
X112294663Y-90255296D01*
X112274668Y-90406155D01*
X112264908Y-90479794D01*
X112256799Y-90498081D01*
X112260896Y-90504456D01*
X112265911Y-90535227D01*
X112272803Y-90718822D01*
X112273898Y-90724040D01*
X112319223Y-90940053D01*
X112320620Y-90946713D01*
X112406150Y-91163290D01*
X112526949Y-91362359D01*
X112679561Y-91538230D01*
X112683687Y-91541613D01*
X112683691Y-91541617D01*
X112779915Y-91620515D01*
X112859624Y-91685872D01*
X112864260Y-91688511D01*
X112864263Y-91688513D01*
X112905252Y-91711845D01*
X112954558Y-91762927D01*
X112968420Y-91832558D01*
X112942437Y-91898629D01*
X112913287Y-91925867D01*
X112872262Y-91953487D01*
X112776728Y-92017804D01*
X112772871Y-92021483D01*
X112772869Y-92021485D01*
X112701213Y-92089842D01*
X112608242Y-92178532D01*
X112469246Y-92365350D01*
X112466830Y-92370102D01*
X112413404Y-92475184D01*
X112363714Y-92572916D01*
X112349372Y-92619106D01*
X112296247Y-92790193D01*
X112296246Y-92790199D01*
X112294663Y-92795296D01*
X112274736Y-92945646D01*
X112264908Y-93019794D01*
X112256799Y-93038081D01*
X112260896Y-93044456D01*
X112265911Y-93075227D01*
X112272803Y-93258822D01*
X112273898Y-93264040D01*
X112319282Y-93480334D01*
X112320620Y-93486713D01*
X112406150Y-93703290D01*
X112526949Y-93902359D01*
X112530446Y-93906389D01*
X112653647Y-94048366D01*
X112679561Y-94078230D01*
X112683687Y-94081613D01*
X112683691Y-94081617D01*
X112756112Y-94140998D01*
X112859624Y-94225872D01*
X112864260Y-94228511D01*
X112864263Y-94228513D01*
X112905252Y-94251845D01*
X112954558Y-94302927D01*
X112968420Y-94372558D01*
X112942437Y-94438629D01*
X112913287Y-94465867D01*
X112776728Y-94557804D01*
X112772871Y-94561483D01*
X112772869Y-94561485D01*
X112701213Y-94629842D01*
X112608242Y-94718532D01*
X112469246Y-94905350D01*
X112466830Y-94910102D01*
X112413404Y-95015184D01*
X112363714Y-95112916D01*
X112343966Y-95176515D01*
X112296247Y-95330193D01*
X112296246Y-95330199D01*
X112294663Y-95335296D01*
X112274668Y-95486155D01*
X112264908Y-95559794D01*
X112256799Y-95578081D01*
X112260896Y-95584456D01*
X112265911Y-95615227D01*
X112272803Y-95798822D01*
X112290156Y-95881526D01*
X112313126Y-95990995D01*
X112320620Y-96026713D01*
X112406150Y-96243290D01*
X112526949Y-96442359D01*
X112530446Y-96446389D01*
X112673271Y-96610981D01*
X112679561Y-96618230D01*
X112683687Y-96621613D01*
X112683691Y-96621617D01*
X112779915Y-96700515D01*
X112859624Y-96765872D01*
X112864260Y-96768511D01*
X112864263Y-96768513D01*
X112905252Y-96791845D01*
X112954558Y-96842927D01*
X112968420Y-96912558D01*
X112942437Y-96978629D01*
X112913287Y-97005867D01*
X112872262Y-97033487D01*
X112776728Y-97097804D01*
X112772871Y-97101483D01*
X112772869Y-97101485D01*
X112701213Y-97169842D01*
X112608242Y-97258532D01*
X112469246Y-97445350D01*
X112435549Y-97511627D01*
X112413404Y-97555184D01*
X112363714Y-97652916D01*
X112335927Y-97742406D01*
X112296247Y-97870193D01*
X112296246Y-97870199D01*
X112294663Y-97875296D01*
X112275067Y-98023148D01*
X112264908Y-98099794D01*
X112256799Y-98118081D01*
X112022791Y-98118081D01*
X112015488Y-98102545D01*
X112014000Y-98083239D01*
X112014000Y-95619954D01*
X112024948Y-95582669D01*
X112015488Y-95562545D01*
X112014000Y-95543239D01*
X112014000Y-93079954D01*
X112024948Y-93042669D01*
X112015488Y-93022545D01*
X112014000Y-93003239D01*
X112014000Y-90539954D01*
X112024948Y-90502669D01*
X112015488Y-90482545D01*
X112014000Y-90463239D01*
X112014000Y-87999954D01*
X112024948Y-87962669D01*
X112015488Y-87942545D01*
X112014000Y-87923239D01*
X112014000Y-77469000D01*
X112034002Y-77400879D01*
X112087658Y-77354386D01*
X112140000Y-77343000D01*
X161355465Y-77343000D01*
X161423586Y-77363002D01*
G37*
G04 #@! TD.AperFunction*
M02*
