G04 #@! TF.GenerationSoftware,KiCad,Pcbnew,5.1.9-73d0e3b20d~88~ubuntu20.04.1*
G04 #@! TF.CreationDate,2021-04-08T00:26:52+08:00*
G04 #@! TF.ProjectId,AbsoluteEncoderBoard,4162736f-6c75-4746-9545-6e636f646572,rev?*
G04 #@! TF.SameCoordinates,Original*
G04 #@! TF.FileFunction,Paste,Bot*
G04 #@! TF.FilePolarity,Positive*
%FSLAX46Y46*%
G04 Gerber Fmt 4.6, Leading zero omitted, Abs format (unit mm)*
G04 Created by KiCad (PCBNEW 5.1.9-73d0e3b20d~88~ubuntu20.04.1) date 2021-04-08 00:26:52*
%MOMM*%
%LPD*%
G01*
G04 APERTURE LIST*
%ADD10R,0.650000X1.060000*%
%ADD11R,2.500000X1.800000*%
%ADD12R,3.500000X2.300000*%
%ADD13R,1.500000X2.000000*%
%ADD14R,3.800000X2.000000*%
%ADD15R,2.000000X0.600000*%
%ADD16R,0.600000X2.000000*%
%ADD17R,0.800000X0.500000*%
%ADD18R,0.800000X0.400000*%
%ADD19R,1.000000X1.000000*%
%ADD20R,1.300000X0.600000*%
%ADD21C,0.254000*%
%ADD22C,0.100000*%
G04 APERTURE END LIST*
G36*
G01*
X146860000Y-73950000D02*
X146860000Y-73610000D01*
G75*
G02*
X147000000Y-73470000I140000J0D01*
G01*
X147280000Y-73470000D01*
G75*
G02*
X147420000Y-73610000I0J-140000D01*
G01*
X147420000Y-73950000D01*
G75*
G02*
X147280000Y-74090000I-140000J0D01*
G01*
X147000000Y-74090000D01*
G75*
G02*
X146860000Y-73950000I0J140000D01*
G01*
G37*
G36*
G01*
X145900000Y-73950000D02*
X145900000Y-73610000D01*
G75*
G02*
X146040000Y-73470000I140000J0D01*
G01*
X146320000Y-73470000D01*
G75*
G02*
X146460000Y-73610000I0J-140000D01*
G01*
X146460000Y-73950000D01*
G75*
G02*
X146320000Y-74090000I-140000J0D01*
G01*
X146040000Y-74090000D01*
G75*
G02*
X145900000Y-73950000I0J140000D01*
G01*
G37*
G36*
G01*
X139630000Y-69725000D02*
X139970000Y-69725000D01*
G75*
G02*
X140110000Y-69865000I0J-140000D01*
G01*
X140110000Y-70145000D01*
G75*
G02*
X139970000Y-70285000I-140000J0D01*
G01*
X139630000Y-70285000D01*
G75*
G02*
X139490000Y-70145000I0J140000D01*
G01*
X139490000Y-69865000D01*
G75*
G02*
X139630000Y-69725000I140000J0D01*
G01*
G37*
G36*
G01*
X139630000Y-68765000D02*
X139970000Y-68765000D01*
G75*
G02*
X140110000Y-68905000I0J-140000D01*
G01*
X140110000Y-69185000D01*
G75*
G02*
X139970000Y-69325000I-140000J0D01*
G01*
X139630000Y-69325000D01*
G75*
G02*
X139490000Y-69185000I0J140000D01*
G01*
X139490000Y-68905000D01*
G75*
G02*
X139630000Y-68765000I140000J0D01*
G01*
G37*
G36*
G01*
X147530000Y-69860000D02*
X147530000Y-69520000D01*
G75*
G02*
X147670000Y-69380000I140000J0D01*
G01*
X147950000Y-69380000D01*
G75*
G02*
X148090000Y-69520000I0J-140000D01*
G01*
X148090000Y-69860000D01*
G75*
G02*
X147950000Y-70000000I-140000J0D01*
G01*
X147670000Y-70000000D01*
G75*
G02*
X147530000Y-69860000I0J140000D01*
G01*
G37*
G36*
G01*
X146570000Y-69860000D02*
X146570000Y-69520000D01*
G75*
G02*
X146710000Y-69380000I140000J0D01*
G01*
X146990000Y-69380000D01*
G75*
G02*
X147130000Y-69520000I0J-140000D01*
G01*
X147130000Y-69860000D01*
G75*
G02*
X146990000Y-70000000I-140000J0D01*
G01*
X146710000Y-70000000D01*
G75*
G02*
X146570000Y-69860000I0J140000D01*
G01*
G37*
G36*
G01*
X139175000Y-77970000D02*
X139175000Y-77630000D01*
G75*
G02*
X139315000Y-77490000I140000J0D01*
G01*
X139595000Y-77490000D01*
G75*
G02*
X139735000Y-77630000I0J-140000D01*
G01*
X139735000Y-77970000D01*
G75*
G02*
X139595000Y-78110000I-140000J0D01*
G01*
X139315000Y-78110000D01*
G75*
G02*
X139175000Y-77970000I0J140000D01*
G01*
G37*
G36*
G01*
X138215000Y-77970000D02*
X138215000Y-77630000D01*
G75*
G02*
X138355000Y-77490000I140000J0D01*
G01*
X138635000Y-77490000D01*
G75*
G02*
X138775000Y-77630000I0J-140000D01*
G01*
X138775000Y-77970000D01*
G75*
G02*
X138635000Y-78110000I-140000J0D01*
G01*
X138355000Y-78110000D01*
G75*
G02*
X138215000Y-77970000I0J140000D01*
G01*
G37*
G36*
G01*
X149000000Y-72480000D02*
X149000000Y-72820000D01*
G75*
G02*
X148860000Y-72960000I-140000J0D01*
G01*
X148580000Y-72960000D01*
G75*
G02*
X148440000Y-72820000I0J140000D01*
G01*
X148440000Y-72480000D01*
G75*
G02*
X148580000Y-72340000I140000J0D01*
G01*
X148860000Y-72340000D01*
G75*
G02*
X149000000Y-72480000I0J-140000D01*
G01*
G37*
G36*
G01*
X149960000Y-72480000D02*
X149960000Y-72820000D01*
G75*
G02*
X149820000Y-72960000I-140000J0D01*
G01*
X149540000Y-72960000D01*
G75*
G02*
X149400000Y-72820000I0J140000D01*
G01*
X149400000Y-72480000D01*
G75*
G02*
X149540000Y-72340000I140000J0D01*
G01*
X149820000Y-72340000D01*
G75*
G02*
X149960000Y-72480000I0J-140000D01*
G01*
G37*
G36*
G01*
X149025000Y-78805000D02*
X149025000Y-79145000D01*
G75*
G02*
X148885000Y-79285000I-140000J0D01*
G01*
X148605000Y-79285000D01*
G75*
G02*
X148465000Y-79145000I0J140000D01*
G01*
X148465000Y-78805000D01*
G75*
G02*
X148605000Y-78665000I140000J0D01*
G01*
X148885000Y-78665000D01*
G75*
G02*
X149025000Y-78805000I0J-140000D01*
G01*
G37*
G36*
G01*
X149985000Y-78805000D02*
X149985000Y-79145000D01*
G75*
G02*
X149845000Y-79285000I-140000J0D01*
G01*
X149565000Y-79285000D01*
G75*
G02*
X149425000Y-79145000I0J140000D01*
G01*
X149425000Y-78805000D01*
G75*
G02*
X149565000Y-78665000I140000J0D01*
G01*
X149845000Y-78665000D01*
G75*
G02*
X149985000Y-78805000I0J-140000D01*
G01*
G37*
G36*
G01*
X140705000Y-69725000D02*
X141045000Y-69725000D01*
G75*
G02*
X141185000Y-69865000I0J-140000D01*
G01*
X141185000Y-70145000D01*
G75*
G02*
X141045000Y-70285000I-140000J0D01*
G01*
X140705000Y-70285000D01*
G75*
G02*
X140565000Y-70145000I0J140000D01*
G01*
X140565000Y-69865000D01*
G75*
G02*
X140705000Y-69725000I140000J0D01*
G01*
G37*
G36*
G01*
X140705000Y-68765000D02*
X141045000Y-68765000D01*
G75*
G02*
X141185000Y-68905000I0J-140000D01*
G01*
X141185000Y-69185000D01*
G75*
G02*
X141045000Y-69325000I-140000J0D01*
G01*
X140705000Y-69325000D01*
G75*
G02*
X140565000Y-69185000I0J140000D01*
G01*
X140565000Y-68905000D01*
G75*
G02*
X140705000Y-68765000I140000J0D01*
G01*
G37*
G36*
G01*
X149425000Y-80170000D02*
X149425000Y-79830000D01*
G75*
G02*
X149565000Y-79690000I140000J0D01*
G01*
X149845000Y-79690000D01*
G75*
G02*
X149985000Y-79830000I0J-140000D01*
G01*
X149985000Y-80170000D01*
G75*
G02*
X149845000Y-80310000I-140000J0D01*
G01*
X149565000Y-80310000D01*
G75*
G02*
X149425000Y-80170000I0J140000D01*
G01*
G37*
G36*
G01*
X148465000Y-80170000D02*
X148465000Y-79830000D01*
G75*
G02*
X148605000Y-79690000I140000J0D01*
G01*
X148885000Y-79690000D01*
G75*
G02*
X149025000Y-79830000I0J-140000D01*
G01*
X149025000Y-80170000D01*
G75*
G02*
X148885000Y-80310000I-140000J0D01*
G01*
X148605000Y-80310000D01*
G75*
G02*
X148465000Y-80170000I0J140000D01*
G01*
G37*
G36*
G01*
X139000000Y-79195000D02*
X139000000Y-78855000D01*
G75*
G02*
X139140000Y-78715000I140000J0D01*
G01*
X139420000Y-78715000D01*
G75*
G02*
X139560000Y-78855000I0J-140000D01*
G01*
X139560000Y-79195000D01*
G75*
G02*
X139420000Y-79335000I-140000J0D01*
G01*
X139140000Y-79335000D01*
G75*
G02*
X139000000Y-79195000I0J140000D01*
G01*
G37*
G36*
G01*
X138040000Y-79195000D02*
X138040000Y-78855000D01*
G75*
G02*
X138180000Y-78715000I140000J0D01*
G01*
X138460000Y-78715000D01*
G75*
G02*
X138600000Y-78855000I0J-140000D01*
G01*
X138600000Y-79195000D01*
G75*
G02*
X138460000Y-79335000I-140000J0D01*
G01*
X138180000Y-79335000D01*
G75*
G02*
X138040000Y-79195000I0J140000D01*
G01*
G37*
G36*
G01*
X151920000Y-67350000D02*
X151580000Y-67350000D01*
G75*
G02*
X151440000Y-67210000I0J140000D01*
G01*
X151440000Y-66930000D01*
G75*
G02*
X151580000Y-66790000I140000J0D01*
G01*
X151920000Y-66790000D01*
G75*
G02*
X152060000Y-66930000I0J-140000D01*
G01*
X152060000Y-67210000D01*
G75*
G02*
X151920000Y-67350000I-140000J0D01*
G01*
G37*
G36*
G01*
X151920000Y-68310000D02*
X151580000Y-68310000D01*
G75*
G02*
X151440000Y-68170000I0J140000D01*
G01*
X151440000Y-67890000D01*
G75*
G02*
X151580000Y-67750000I140000J0D01*
G01*
X151920000Y-67750000D01*
G75*
G02*
X152060000Y-67890000I0J-140000D01*
G01*
X152060000Y-68170000D01*
G75*
G02*
X151920000Y-68310000I-140000J0D01*
G01*
G37*
G36*
G01*
X149010000Y-74830000D02*
X149010000Y-75170000D01*
G75*
G02*
X148870000Y-75310000I-140000J0D01*
G01*
X148590000Y-75310000D01*
G75*
G02*
X148450000Y-75170000I0J140000D01*
G01*
X148450000Y-74830000D01*
G75*
G02*
X148590000Y-74690000I140000J0D01*
G01*
X148870000Y-74690000D01*
G75*
G02*
X149010000Y-74830000I0J-140000D01*
G01*
G37*
G36*
G01*
X149970000Y-74830000D02*
X149970000Y-75170000D01*
G75*
G02*
X149830000Y-75310000I-140000J0D01*
G01*
X149550000Y-75310000D01*
G75*
G02*
X149410000Y-75170000I0J140000D01*
G01*
X149410000Y-74830000D01*
G75*
G02*
X149550000Y-74690000I140000J0D01*
G01*
X149830000Y-74690000D01*
G75*
G02*
X149970000Y-74830000I0J-140000D01*
G01*
G37*
G36*
G01*
X173830000Y-66345000D02*
X174170000Y-66345000D01*
G75*
G02*
X174310000Y-66485000I0J-140000D01*
G01*
X174310000Y-66765000D01*
G75*
G02*
X174170000Y-66905000I-140000J0D01*
G01*
X173830000Y-66905000D01*
G75*
G02*
X173690000Y-66765000I0J140000D01*
G01*
X173690000Y-66485000D01*
G75*
G02*
X173830000Y-66345000I140000J0D01*
G01*
G37*
G36*
G01*
X173830000Y-65385000D02*
X174170000Y-65385000D01*
G75*
G02*
X174310000Y-65525000I0J-140000D01*
G01*
X174310000Y-65805000D01*
G75*
G02*
X174170000Y-65945000I-140000J0D01*
G01*
X173830000Y-65945000D01*
G75*
G02*
X173690000Y-65805000I0J140000D01*
G01*
X173690000Y-65525000D01*
G75*
G02*
X173830000Y-65385000I140000J0D01*
G01*
G37*
G36*
G01*
X153700000Y-75830000D02*
X153700000Y-76170000D01*
G75*
G02*
X153560000Y-76310000I-140000J0D01*
G01*
X153280000Y-76310000D01*
G75*
G02*
X153140000Y-76170000I0J140000D01*
G01*
X153140000Y-75830000D01*
G75*
G02*
X153280000Y-75690000I140000J0D01*
G01*
X153560000Y-75690000D01*
G75*
G02*
X153700000Y-75830000I0J-140000D01*
G01*
G37*
G36*
G01*
X154660000Y-75830000D02*
X154660000Y-76170000D01*
G75*
G02*
X154520000Y-76310000I-140000J0D01*
G01*
X154240000Y-76310000D01*
G75*
G02*
X154100000Y-76170000I0J140000D01*
G01*
X154100000Y-75830000D01*
G75*
G02*
X154240000Y-75690000I140000J0D01*
G01*
X154520000Y-75690000D01*
G75*
G02*
X154660000Y-75830000I0J-140000D01*
G01*
G37*
G36*
G01*
X127450000Y-50280000D02*
X127450000Y-50620000D01*
G75*
G02*
X127310000Y-50760000I-140000J0D01*
G01*
X127030000Y-50760000D01*
G75*
G02*
X126890000Y-50620000I0J140000D01*
G01*
X126890000Y-50280000D01*
G75*
G02*
X127030000Y-50140000I140000J0D01*
G01*
X127310000Y-50140000D01*
G75*
G02*
X127450000Y-50280000I0J-140000D01*
G01*
G37*
G36*
G01*
X128410000Y-50280000D02*
X128410000Y-50620000D01*
G75*
G02*
X128270000Y-50760000I-140000J0D01*
G01*
X127990000Y-50760000D01*
G75*
G02*
X127850000Y-50620000I0J140000D01*
G01*
X127850000Y-50280000D01*
G75*
G02*
X127990000Y-50140000I140000J0D01*
G01*
X128270000Y-50140000D01*
G75*
G02*
X128410000Y-50280000I0J-140000D01*
G01*
G37*
G36*
G01*
X149010000Y-75830000D02*
X149010000Y-76170000D01*
G75*
G02*
X148870000Y-76310000I-140000J0D01*
G01*
X148590000Y-76310000D01*
G75*
G02*
X148450000Y-76170000I0J140000D01*
G01*
X148450000Y-75830000D01*
G75*
G02*
X148590000Y-75690000I140000J0D01*
G01*
X148870000Y-75690000D01*
G75*
G02*
X149010000Y-75830000I0J-140000D01*
G01*
G37*
G36*
G01*
X149970000Y-75830000D02*
X149970000Y-76170000D01*
G75*
G02*
X149830000Y-76310000I-140000J0D01*
G01*
X149550000Y-76310000D01*
G75*
G02*
X149410000Y-76170000I0J140000D01*
G01*
X149410000Y-75830000D01*
G75*
G02*
X149550000Y-75690000I140000J0D01*
G01*
X149830000Y-75690000D01*
G75*
G02*
X149970000Y-75830000I0J-140000D01*
G01*
G37*
G36*
G01*
X131790000Y-52700000D02*
X131450000Y-52700000D01*
G75*
G02*
X131310000Y-52560000I0J140000D01*
G01*
X131310000Y-52280000D01*
G75*
G02*
X131450000Y-52140000I140000J0D01*
G01*
X131790000Y-52140000D01*
G75*
G02*
X131930000Y-52280000I0J-140000D01*
G01*
X131930000Y-52560000D01*
G75*
G02*
X131790000Y-52700000I-140000J0D01*
G01*
G37*
G36*
G01*
X131790000Y-53660000D02*
X131450000Y-53660000D01*
G75*
G02*
X131310000Y-53520000I0J140000D01*
G01*
X131310000Y-53240000D01*
G75*
G02*
X131450000Y-53100000I140000J0D01*
G01*
X131790000Y-53100000D01*
G75*
G02*
X131930000Y-53240000I0J-140000D01*
G01*
X131930000Y-53520000D01*
G75*
G02*
X131790000Y-53660000I-140000J0D01*
G01*
G37*
D10*
X130125000Y-63700000D03*
X128225000Y-63700000D03*
X128225000Y-65900000D03*
X129175000Y-65900000D03*
X130125000Y-65900000D03*
G36*
G01*
X132670000Y-59050000D02*
X132330000Y-59050000D01*
G75*
G02*
X132190000Y-58910000I0J140000D01*
G01*
X132190000Y-58630000D01*
G75*
G02*
X132330000Y-58490000I140000J0D01*
G01*
X132670000Y-58490000D01*
G75*
G02*
X132810000Y-58630000I0J-140000D01*
G01*
X132810000Y-58910000D01*
G75*
G02*
X132670000Y-59050000I-140000J0D01*
G01*
G37*
G36*
G01*
X132670000Y-60010000D02*
X132330000Y-60010000D01*
G75*
G02*
X132190000Y-59870000I0J140000D01*
G01*
X132190000Y-59590000D01*
G75*
G02*
X132330000Y-59450000I140000J0D01*
G01*
X132670000Y-59450000D01*
G75*
G02*
X132810000Y-59590000I0J-140000D01*
G01*
X132810000Y-59870000D01*
G75*
G02*
X132670000Y-60010000I-140000J0D01*
G01*
G37*
G36*
G01*
X149010000Y-73830000D02*
X149010000Y-74170000D01*
G75*
G02*
X148870000Y-74310000I-140000J0D01*
G01*
X148590000Y-74310000D01*
G75*
G02*
X148450000Y-74170000I0J140000D01*
G01*
X148450000Y-73830000D01*
G75*
G02*
X148590000Y-73690000I140000J0D01*
G01*
X148870000Y-73690000D01*
G75*
G02*
X149010000Y-73830000I0J-140000D01*
G01*
G37*
G36*
G01*
X149970000Y-73830000D02*
X149970000Y-74170000D01*
G75*
G02*
X149830000Y-74310000I-140000J0D01*
G01*
X149550000Y-74310000D01*
G75*
G02*
X149410000Y-74170000I0J140000D01*
G01*
X149410000Y-73830000D01*
G75*
G02*
X149550000Y-73690000I140000J0D01*
G01*
X149830000Y-73690000D01*
G75*
G02*
X149970000Y-73830000I0J-140000D01*
G01*
G37*
G36*
G01*
X138700000Y-61000001D02*
X138700000Y-58799999D01*
G75*
G02*
X138949999Y-58550000I249999J0D01*
G01*
X139600001Y-58550000D01*
G75*
G02*
X139850000Y-58799999I0J-249999D01*
G01*
X139850000Y-61000001D01*
G75*
G02*
X139600001Y-61250000I-249999J0D01*
G01*
X138949999Y-61250000D01*
G75*
G02*
X138700000Y-61000001I0J249999D01*
G01*
G37*
G36*
G01*
X135750000Y-61000001D02*
X135750000Y-58799999D01*
G75*
G02*
X135999999Y-58550000I249999J0D01*
G01*
X136650001Y-58550000D01*
G75*
G02*
X136900000Y-58799999I0J-249999D01*
G01*
X136900000Y-61000001D01*
G75*
G02*
X136650001Y-61250000I-249999J0D01*
G01*
X135999999Y-61250000D01*
G75*
G02*
X135750000Y-61000001I0J249999D01*
G01*
G37*
D11*
X136325000Y-63475000D03*
X140325000Y-63475000D03*
D12*
X134860000Y-52290000D03*
X140260000Y-52290000D03*
G36*
G01*
X156440840Y-58750000D02*
X156440840Y-58250000D01*
G75*
G02*
X156665840Y-58025000I225000J0D01*
G01*
X157115840Y-58025000D01*
G75*
G02*
X157340840Y-58250000I0J-225000D01*
G01*
X157340840Y-58750000D01*
G75*
G02*
X157115840Y-58975000I-225000J0D01*
G01*
X156665840Y-58975000D01*
G75*
G02*
X156440840Y-58750000I0J225000D01*
G01*
G37*
G36*
G01*
X154890840Y-58750000D02*
X154890840Y-58250000D01*
G75*
G02*
X155115840Y-58025000I225000J0D01*
G01*
X155565840Y-58025000D01*
G75*
G02*
X155790840Y-58250000I0J-225000D01*
G01*
X155790840Y-58750000D01*
G75*
G02*
X155565840Y-58975000I-225000J0D01*
G01*
X155115840Y-58975000D01*
G75*
G02*
X154890840Y-58750000I0J225000D01*
G01*
G37*
G36*
G01*
X164000000Y-76132500D02*
X164000000Y-75857500D01*
G75*
G02*
X164137500Y-75720000I137500J0D01*
G01*
X165462500Y-75720000D01*
G75*
G02*
X165600000Y-75857500I0J-137500D01*
G01*
X165600000Y-76132500D01*
G75*
G02*
X165462500Y-76270000I-137500J0D01*
G01*
X164137500Y-76270000D01*
G75*
G02*
X164000000Y-76132500I0J137500D01*
G01*
G37*
G36*
G01*
X164000000Y-74862500D02*
X164000000Y-74587500D01*
G75*
G02*
X164137500Y-74450000I137500J0D01*
G01*
X165462500Y-74450000D01*
G75*
G02*
X165600000Y-74587500I0J-137500D01*
G01*
X165600000Y-74862500D01*
G75*
G02*
X165462500Y-75000000I-137500J0D01*
G01*
X164137500Y-75000000D01*
G75*
G02*
X164000000Y-74862500I0J137500D01*
G01*
G37*
G36*
G01*
X164000000Y-73592500D02*
X164000000Y-73317500D01*
G75*
G02*
X164137500Y-73180000I137500J0D01*
G01*
X165462500Y-73180000D01*
G75*
G02*
X165600000Y-73317500I0J-137500D01*
G01*
X165600000Y-73592500D01*
G75*
G02*
X165462500Y-73730000I-137500J0D01*
G01*
X164137500Y-73730000D01*
G75*
G02*
X164000000Y-73592500I0J137500D01*
G01*
G37*
G36*
G01*
X164000000Y-72322500D02*
X164000000Y-72047500D01*
G75*
G02*
X164137500Y-71910000I137500J0D01*
G01*
X165462500Y-71910000D01*
G75*
G02*
X165600000Y-72047500I0J-137500D01*
G01*
X165600000Y-72322500D01*
G75*
G02*
X165462500Y-72460000I-137500J0D01*
G01*
X164137500Y-72460000D01*
G75*
G02*
X164000000Y-72322500I0J137500D01*
G01*
G37*
G36*
G01*
X164000000Y-71052500D02*
X164000000Y-70777500D01*
G75*
G02*
X164137500Y-70640000I137500J0D01*
G01*
X165462500Y-70640000D01*
G75*
G02*
X165600000Y-70777500I0J-137500D01*
G01*
X165600000Y-71052500D01*
G75*
G02*
X165462500Y-71190000I-137500J0D01*
G01*
X164137500Y-71190000D01*
G75*
G02*
X164000000Y-71052500I0J137500D01*
G01*
G37*
G36*
G01*
X164000000Y-69782500D02*
X164000000Y-69507500D01*
G75*
G02*
X164137500Y-69370000I137500J0D01*
G01*
X165462500Y-69370000D01*
G75*
G02*
X165600000Y-69507500I0J-137500D01*
G01*
X165600000Y-69782500D01*
G75*
G02*
X165462500Y-69920000I-137500J0D01*
G01*
X164137500Y-69920000D01*
G75*
G02*
X164000000Y-69782500I0J137500D01*
G01*
G37*
G36*
G01*
X164000000Y-68512500D02*
X164000000Y-68237500D01*
G75*
G02*
X164137500Y-68100000I137500J0D01*
G01*
X165462500Y-68100000D01*
G75*
G02*
X165600000Y-68237500I0J-137500D01*
G01*
X165600000Y-68512500D01*
G75*
G02*
X165462500Y-68650000I-137500J0D01*
G01*
X164137500Y-68650000D01*
G75*
G02*
X164000000Y-68512500I0J137500D01*
G01*
G37*
G36*
G01*
X164000000Y-67242500D02*
X164000000Y-66967500D01*
G75*
G02*
X164137500Y-66830000I137500J0D01*
G01*
X165462500Y-66830000D01*
G75*
G02*
X165600000Y-66967500I0J-137500D01*
G01*
X165600000Y-67242500D01*
G75*
G02*
X165462500Y-67380000I-137500J0D01*
G01*
X164137500Y-67380000D01*
G75*
G02*
X164000000Y-67242500I0J137500D01*
G01*
G37*
G36*
G01*
X157500000Y-67242500D02*
X157500000Y-66967500D01*
G75*
G02*
X157637500Y-66830000I137500J0D01*
G01*
X158962500Y-66830000D01*
G75*
G02*
X159100000Y-66967500I0J-137500D01*
G01*
X159100000Y-67242500D01*
G75*
G02*
X158962500Y-67380000I-137500J0D01*
G01*
X157637500Y-67380000D01*
G75*
G02*
X157500000Y-67242500I0J137500D01*
G01*
G37*
G36*
G01*
X157500000Y-68512500D02*
X157500000Y-68237500D01*
G75*
G02*
X157637500Y-68100000I137500J0D01*
G01*
X158962500Y-68100000D01*
G75*
G02*
X159100000Y-68237500I0J-137500D01*
G01*
X159100000Y-68512500D01*
G75*
G02*
X158962500Y-68650000I-137500J0D01*
G01*
X157637500Y-68650000D01*
G75*
G02*
X157500000Y-68512500I0J137500D01*
G01*
G37*
G36*
G01*
X157500000Y-69782500D02*
X157500000Y-69507500D01*
G75*
G02*
X157637500Y-69370000I137500J0D01*
G01*
X158962500Y-69370000D01*
G75*
G02*
X159100000Y-69507500I0J-137500D01*
G01*
X159100000Y-69782500D01*
G75*
G02*
X158962500Y-69920000I-137500J0D01*
G01*
X157637500Y-69920000D01*
G75*
G02*
X157500000Y-69782500I0J137500D01*
G01*
G37*
G36*
G01*
X157500000Y-71052500D02*
X157500000Y-70777500D01*
G75*
G02*
X157637500Y-70640000I137500J0D01*
G01*
X158962500Y-70640000D01*
G75*
G02*
X159100000Y-70777500I0J-137500D01*
G01*
X159100000Y-71052500D01*
G75*
G02*
X158962500Y-71190000I-137500J0D01*
G01*
X157637500Y-71190000D01*
G75*
G02*
X157500000Y-71052500I0J137500D01*
G01*
G37*
G36*
G01*
X157500000Y-72322500D02*
X157500000Y-72047500D01*
G75*
G02*
X157637500Y-71910000I137500J0D01*
G01*
X158962500Y-71910000D01*
G75*
G02*
X159100000Y-72047500I0J-137500D01*
G01*
X159100000Y-72322500D01*
G75*
G02*
X158962500Y-72460000I-137500J0D01*
G01*
X157637500Y-72460000D01*
G75*
G02*
X157500000Y-72322500I0J137500D01*
G01*
G37*
G36*
G01*
X157500000Y-73592500D02*
X157500000Y-73317500D01*
G75*
G02*
X157637500Y-73180000I137500J0D01*
G01*
X158962500Y-73180000D01*
G75*
G02*
X159100000Y-73317500I0J-137500D01*
G01*
X159100000Y-73592500D01*
G75*
G02*
X158962500Y-73730000I-137500J0D01*
G01*
X157637500Y-73730000D01*
G75*
G02*
X157500000Y-73592500I0J137500D01*
G01*
G37*
G36*
G01*
X157500000Y-74862500D02*
X157500000Y-74587500D01*
G75*
G02*
X157637500Y-74450000I137500J0D01*
G01*
X158962500Y-74450000D01*
G75*
G02*
X159100000Y-74587500I0J-137500D01*
G01*
X159100000Y-74862500D01*
G75*
G02*
X158962500Y-75000000I-137500J0D01*
G01*
X157637500Y-75000000D01*
G75*
G02*
X157500000Y-74862500I0J137500D01*
G01*
G37*
G36*
G01*
X157500000Y-76132500D02*
X157500000Y-75857500D01*
G75*
G02*
X157637500Y-75720000I137500J0D01*
G01*
X158962500Y-75720000D01*
G75*
G02*
X159100000Y-75857500I0J-137500D01*
G01*
X159100000Y-76132500D01*
G75*
G02*
X158962500Y-76270000I-137500J0D01*
G01*
X157637500Y-76270000D01*
G75*
G02*
X157500000Y-76132500I0J137500D01*
G01*
G37*
G36*
G01*
X148950000Y-68305000D02*
X148950000Y-68005000D01*
G75*
G02*
X149100000Y-67855000I150000J0D01*
G01*
X150750000Y-67855000D01*
G75*
G02*
X150900000Y-68005000I0J-150000D01*
G01*
X150900000Y-68305000D01*
G75*
G02*
X150750000Y-68455000I-150000J0D01*
G01*
X149100000Y-68455000D01*
G75*
G02*
X148950000Y-68305000I0J150000D01*
G01*
G37*
G36*
G01*
X148950000Y-67035000D02*
X148950000Y-66735000D01*
G75*
G02*
X149100000Y-66585000I150000J0D01*
G01*
X150750000Y-66585000D01*
G75*
G02*
X150900000Y-66735000I0J-150000D01*
G01*
X150900000Y-67035000D01*
G75*
G02*
X150750000Y-67185000I-150000J0D01*
G01*
X149100000Y-67185000D01*
G75*
G02*
X148950000Y-67035000I0J150000D01*
G01*
G37*
G36*
G01*
X148950000Y-65765000D02*
X148950000Y-65465000D01*
G75*
G02*
X149100000Y-65315000I150000J0D01*
G01*
X150750000Y-65315000D01*
G75*
G02*
X150900000Y-65465000I0J-150000D01*
G01*
X150900000Y-65765000D01*
G75*
G02*
X150750000Y-65915000I-150000J0D01*
G01*
X149100000Y-65915000D01*
G75*
G02*
X148950000Y-65765000I0J150000D01*
G01*
G37*
G36*
G01*
X148950000Y-64495000D02*
X148950000Y-64195000D01*
G75*
G02*
X149100000Y-64045000I150000J0D01*
G01*
X150750000Y-64045000D01*
G75*
G02*
X150900000Y-64195000I0J-150000D01*
G01*
X150900000Y-64495000D01*
G75*
G02*
X150750000Y-64645000I-150000J0D01*
G01*
X149100000Y-64645000D01*
G75*
G02*
X148950000Y-64495000I0J150000D01*
G01*
G37*
G36*
G01*
X144000000Y-64495000D02*
X144000000Y-64195000D01*
G75*
G02*
X144150000Y-64045000I150000J0D01*
G01*
X145800000Y-64045000D01*
G75*
G02*
X145950000Y-64195000I0J-150000D01*
G01*
X145950000Y-64495000D01*
G75*
G02*
X145800000Y-64645000I-150000J0D01*
G01*
X144150000Y-64645000D01*
G75*
G02*
X144000000Y-64495000I0J150000D01*
G01*
G37*
G36*
G01*
X144000000Y-65765000D02*
X144000000Y-65465000D01*
G75*
G02*
X144150000Y-65315000I150000J0D01*
G01*
X145800000Y-65315000D01*
G75*
G02*
X145950000Y-65465000I0J-150000D01*
G01*
X145950000Y-65765000D01*
G75*
G02*
X145800000Y-65915000I-150000J0D01*
G01*
X144150000Y-65915000D01*
G75*
G02*
X144000000Y-65765000I0J150000D01*
G01*
G37*
G36*
G01*
X144000000Y-67035000D02*
X144000000Y-66735000D01*
G75*
G02*
X144150000Y-66585000I150000J0D01*
G01*
X145800000Y-66585000D01*
G75*
G02*
X145950000Y-66735000I0J-150000D01*
G01*
X145950000Y-67035000D01*
G75*
G02*
X145800000Y-67185000I-150000J0D01*
G01*
X144150000Y-67185000D01*
G75*
G02*
X144000000Y-67035000I0J150000D01*
G01*
G37*
G36*
G01*
X144000000Y-68305000D02*
X144000000Y-68005000D01*
G75*
G02*
X144150000Y-67855000I150000J0D01*
G01*
X145800000Y-67855000D01*
G75*
G02*
X145950000Y-68005000I0J-150000D01*
G01*
X145950000Y-68305000D01*
G75*
G02*
X145800000Y-68455000I-150000J0D01*
G01*
X144150000Y-68455000D01*
G75*
G02*
X144000000Y-68305000I0J150000D01*
G01*
G37*
D13*
X159763400Y-57190000D03*
X164363400Y-57190000D03*
X162063400Y-57190000D03*
D14*
X162063400Y-63490000D03*
G36*
G01*
X171450000Y-73905000D02*
X171450000Y-73605000D01*
G75*
G02*
X171600000Y-73455000I150000J0D01*
G01*
X173050000Y-73455000D01*
G75*
G02*
X173200000Y-73605000I0J-150000D01*
G01*
X173200000Y-73905000D01*
G75*
G02*
X173050000Y-74055000I-150000J0D01*
G01*
X171600000Y-74055000D01*
G75*
G02*
X171450000Y-73905000I0J150000D01*
G01*
G37*
G36*
G01*
X171450000Y-72635000D02*
X171450000Y-72335000D01*
G75*
G02*
X171600000Y-72185000I150000J0D01*
G01*
X173050000Y-72185000D01*
G75*
G02*
X173200000Y-72335000I0J-150000D01*
G01*
X173200000Y-72635000D01*
G75*
G02*
X173050000Y-72785000I-150000J0D01*
G01*
X171600000Y-72785000D01*
G75*
G02*
X171450000Y-72635000I0J150000D01*
G01*
G37*
G36*
G01*
X171450000Y-71365000D02*
X171450000Y-71065000D01*
G75*
G02*
X171600000Y-70915000I150000J0D01*
G01*
X173050000Y-70915000D01*
G75*
G02*
X173200000Y-71065000I0J-150000D01*
G01*
X173200000Y-71365000D01*
G75*
G02*
X173050000Y-71515000I-150000J0D01*
G01*
X171600000Y-71515000D01*
G75*
G02*
X171450000Y-71365000I0J150000D01*
G01*
G37*
G36*
G01*
X171450000Y-70095000D02*
X171450000Y-69795000D01*
G75*
G02*
X171600000Y-69645000I150000J0D01*
G01*
X173050000Y-69645000D01*
G75*
G02*
X173200000Y-69795000I0J-150000D01*
G01*
X173200000Y-70095000D01*
G75*
G02*
X173050000Y-70245000I-150000J0D01*
G01*
X171600000Y-70245000D01*
G75*
G02*
X171450000Y-70095000I0J150000D01*
G01*
G37*
G36*
G01*
X166300000Y-70095000D02*
X166300000Y-69795000D01*
G75*
G02*
X166450000Y-69645000I150000J0D01*
G01*
X167900000Y-69645000D01*
G75*
G02*
X168050000Y-69795000I0J-150000D01*
G01*
X168050000Y-70095000D01*
G75*
G02*
X167900000Y-70245000I-150000J0D01*
G01*
X166450000Y-70245000D01*
G75*
G02*
X166300000Y-70095000I0J150000D01*
G01*
G37*
G36*
G01*
X166300000Y-71365000D02*
X166300000Y-71065000D01*
G75*
G02*
X166450000Y-70915000I150000J0D01*
G01*
X167900000Y-70915000D01*
G75*
G02*
X168050000Y-71065000I0J-150000D01*
G01*
X168050000Y-71365000D01*
G75*
G02*
X167900000Y-71515000I-150000J0D01*
G01*
X166450000Y-71515000D01*
G75*
G02*
X166300000Y-71365000I0J150000D01*
G01*
G37*
G36*
G01*
X166300000Y-72635000D02*
X166300000Y-72335000D01*
G75*
G02*
X166450000Y-72185000I150000J0D01*
G01*
X167900000Y-72185000D01*
G75*
G02*
X168050000Y-72335000I0J-150000D01*
G01*
X168050000Y-72635000D01*
G75*
G02*
X167900000Y-72785000I-150000J0D01*
G01*
X166450000Y-72785000D01*
G75*
G02*
X166300000Y-72635000I0J150000D01*
G01*
G37*
G36*
G01*
X166300000Y-73905000D02*
X166300000Y-73605000D01*
G75*
G02*
X166450000Y-73455000I150000J0D01*
G01*
X167900000Y-73455000D01*
G75*
G02*
X168050000Y-73605000I0J-150000D01*
G01*
X168050000Y-73905000D01*
G75*
G02*
X167900000Y-74055000I-150000J0D01*
G01*
X166450000Y-74055000D01*
G75*
G02*
X166300000Y-73905000I0J150000D01*
G01*
G37*
D15*
X172200000Y-66635000D03*
X167300000Y-64095000D03*
X167300000Y-65365000D03*
X167300000Y-66635000D03*
X167300000Y-67905000D03*
X172200000Y-67905000D03*
X172200000Y-65365000D03*
X172200000Y-64095000D03*
G36*
G01*
X151845000Y-81750000D02*
X152145000Y-81750000D01*
G75*
G02*
X152295000Y-81900000I0J-150000D01*
G01*
X152295000Y-83550000D01*
G75*
G02*
X152145000Y-83700000I-150000J0D01*
G01*
X151845000Y-83700000D01*
G75*
G02*
X151695000Y-83550000I0J150000D01*
G01*
X151695000Y-81900000D01*
G75*
G02*
X151845000Y-81750000I150000J0D01*
G01*
G37*
G36*
G01*
X153115000Y-81750000D02*
X153415000Y-81750000D01*
G75*
G02*
X153565000Y-81900000I0J-150000D01*
G01*
X153565000Y-83550000D01*
G75*
G02*
X153415000Y-83700000I-150000J0D01*
G01*
X153115000Y-83700000D01*
G75*
G02*
X152965000Y-83550000I0J150000D01*
G01*
X152965000Y-81900000D01*
G75*
G02*
X153115000Y-81750000I150000J0D01*
G01*
G37*
G36*
G01*
X154385000Y-81750000D02*
X154685000Y-81750000D01*
G75*
G02*
X154835000Y-81900000I0J-150000D01*
G01*
X154835000Y-83550000D01*
G75*
G02*
X154685000Y-83700000I-150000J0D01*
G01*
X154385000Y-83700000D01*
G75*
G02*
X154235000Y-83550000I0J150000D01*
G01*
X154235000Y-81900000D01*
G75*
G02*
X154385000Y-81750000I150000J0D01*
G01*
G37*
G36*
G01*
X155655000Y-81750000D02*
X155955000Y-81750000D01*
G75*
G02*
X156105000Y-81900000I0J-150000D01*
G01*
X156105000Y-83550000D01*
G75*
G02*
X155955000Y-83700000I-150000J0D01*
G01*
X155655000Y-83700000D01*
G75*
G02*
X155505000Y-83550000I0J150000D01*
G01*
X155505000Y-81900000D01*
G75*
G02*
X155655000Y-81750000I150000J0D01*
G01*
G37*
G36*
G01*
X155655000Y-76800000D02*
X155955000Y-76800000D01*
G75*
G02*
X156105000Y-76950000I0J-150000D01*
G01*
X156105000Y-78600000D01*
G75*
G02*
X155955000Y-78750000I-150000J0D01*
G01*
X155655000Y-78750000D01*
G75*
G02*
X155505000Y-78600000I0J150000D01*
G01*
X155505000Y-76950000D01*
G75*
G02*
X155655000Y-76800000I150000J0D01*
G01*
G37*
G36*
G01*
X154385000Y-76800000D02*
X154685000Y-76800000D01*
G75*
G02*
X154835000Y-76950000I0J-150000D01*
G01*
X154835000Y-78600000D01*
G75*
G02*
X154685000Y-78750000I-150000J0D01*
G01*
X154385000Y-78750000D01*
G75*
G02*
X154235000Y-78600000I0J150000D01*
G01*
X154235000Y-76950000D01*
G75*
G02*
X154385000Y-76800000I150000J0D01*
G01*
G37*
G36*
G01*
X153115000Y-76800000D02*
X153415000Y-76800000D01*
G75*
G02*
X153565000Y-76950000I0J-150000D01*
G01*
X153565000Y-78600000D01*
G75*
G02*
X153415000Y-78750000I-150000J0D01*
G01*
X153115000Y-78750000D01*
G75*
G02*
X152965000Y-78600000I0J150000D01*
G01*
X152965000Y-76950000D01*
G75*
G02*
X153115000Y-76800000I150000J0D01*
G01*
G37*
G36*
G01*
X151845000Y-76800000D02*
X152145000Y-76800000D01*
G75*
G02*
X152295000Y-76950000I0J-150000D01*
G01*
X152295000Y-78600000D01*
G75*
G02*
X152145000Y-78750000I-150000J0D01*
G01*
X151845000Y-78750000D01*
G75*
G02*
X151695000Y-78600000I0J150000D01*
G01*
X151695000Y-76950000D01*
G75*
G02*
X151845000Y-76800000I150000J0D01*
G01*
G37*
D10*
X128600000Y-51775000D03*
X126700000Y-51775000D03*
X126700000Y-53975000D03*
X127650000Y-53975000D03*
X128600000Y-53975000D03*
D16*
X128540000Y-61350000D03*
X131080000Y-56450000D03*
X129810000Y-56450000D03*
X128540000Y-56450000D03*
X127270000Y-56450000D03*
X127270000Y-61350000D03*
X129810000Y-61350000D03*
X131080000Y-61350000D03*
D17*
X157750000Y-60800000D03*
D18*
X157750000Y-61600000D03*
D17*
X157750000Y-63200000D03*
D18*
X157750000Y-62400000D03*
D17*
X155950000Y-60800000D03*
D18*
X155950000Y-62400000D03*
X155950000Y-61600000D03*
D17*
X155950000Y-63200000D03*
G36*
G01*
X155125000Y-69650000D02*
X155125000Y-70200000D01*
G75*
G02*
X154925000Y-70400000I-200000J0D01*
G01*
X154525000Y-70400000D01*
G75*
G02*
X154325000Y-70200000I0J200000D01*
G01*
X154325000Y-69650000D01*
G75*
G02*
X154525000Y-69450000I200000J0D01*
G01*
X154925000Y-69450000D01*
G75*
G02*
X155125000Y-69650000I0J-200000D01*
G01*
G37*
G36*
G01*
X156775000Y-69650000D02*
X156775000Y-70200000D01*
G75*
G02*
X156575000Y-70400000I-200000J0D01*
G01*
X156175000Y-70400000D01*
G75*
G02*
X155975000Y-70200000I0J200000D01*
G01*
X155975000Y-69650000D01*
G75*
G02*
X156175000Y-69450000I200000J0D01*
G01*
X156575000Y-69450000D01*
G75*
G02*
X156775000Y-69650000I0J-200000D01*
G01*
G37*
G36*
G01*
X155125000Y-71200000D02*
X155125000Y-71750000D01*
G75*
G02*
X154925000Y-71950000I-200000J0D01*
G01*
X154525000Y-71950000D01*
G75*
G02*
X154325000Y-71750000I0J200000D01*
G01*
X154325000Y-71200000D01*
G75*
G02*
X154525000Y-71000000I200000J0D01*
G01*
X154925000Y-71000000D01*
G75*
G02*
X155125000Y-71200000I0J-200000D01*
G01*
G37*
G36*
G01*
X156775000Y-71200000D02*
X156775000Y-71750000D01*
G75*
G02*
X156575000Y-71950000I-200000J0D01*
G01*
X156175000Y-71950000D01*
G75*
G02*
X155975000Y-71750000I0J200000D01*
G01*
X155975000Y-71200000D01*
G75*
G02*
X156175000Y-71000000I200000J0D01*
G01*
X156575000Y-71000000D01*
G75*
G02*
X156775000Y-71200000I0J-200000D01*
G01*
G37*
G36*
G01*
X155125000Y-73000000D02*
X155125000Y-73550000D01*
G75*
G02*
X154925000Y-73750000I-200000J0D01*
G01*
X154525000Y-73750000D01*
G75*
G02*
X154325000Y-73550000I0J200000D01*
G01*
X154325000Y-73000000D01*
G75*
G02*
X154525000Y-72800000I200000J0D01*
G01*
X154925000Y-72800000D01*
G75*
G02*
X155125000Y-73000000I0J-200000D01*
G01*
G37*
G36*
G01*
X156775000Y-73000000D02*
X156775000Y-73550000D01*
G75*
G02*
X156575000Y-73750000I-200000J0D01*
G01*
X156175000Y-73750000D01*
G75*
G02*
X155975000Y-73550000I0J200000D01*
G01*
X155975000Y-73000000D01*
G75*
G02*
X156175000Y-72800000I200000J0D01*
G01*
X156575000Y-72800000D01*
G75*
G02*
X156775000Y-73000000I0J-200000D01*
G01*
G37*
G36*
G01*
X155125000Y-74525000D02*
X155125000Y-75075000D01*
G75*
G02*
X154925000Y-75275000I-200000J0D01*
G01*
X154525000Y-75275000D01*
G75*
G02*
X154325000Y-75075000I0J200000D01*
G01*
X154325000Y-74525000D01*
G75*
G02*
X154525000Y-74325000I200000J0D01*
G01*
X154925000Y-74325000D01*
G75*
G02*
X155125000Y-74525000I0J-200000D01*
G01*
G37*
G36*
G01*
X156775000Y-74525000D02*
X156775000Y-75075000D01*
G75*
G02*
X156575000Y-75275000I-200000J0D01*
G01*
X156175000Y-75275000D01*
G75*
G02*
X155975000Y-75075000I0J200000D01*
G01*
X155975000Y-74525000D01*
G75*
G02*
X156175000Y-74325000I200000J0D01*
G01*
X156575000Y-74325000D01*
G75*
G02*
X156775000Y-74525000I0J-200000D01*
G01*
G37*
G36*
G01*
X146225000Y-75125000D02*
X146225000Y-75675000D01*
G75*
G02*
X146025000Y-75875000I-200000J0D01*
G01*
X145625000Y-75875000D01*
G75*
G02*
X145425000Y-75675000I0J200000D01*
G01*
X145425000Y-75125000D01*
G75*
G02*
X145625000Y-74925000I200000J0D01*
G01*
X146025000Y-74925000D01*
G75*
G02*
X146225000Y-75125000I0J-200000D01*
G01*
G37*
G36*
G01*
X147875000Y-75125000D02*
X147875000Y-75675000D01*
G75*
G02*
X147675000Y-75875000I-200000J0D01*
G01*
X147275000Y-75875000D01*
G75*
G02*
X147075000Y-75675000I0J200000D01*
G01*
X147075000Y-75125000D01*
G75*
G02*
X147275000Y-74925000I200000J0D01*
G01*
X147675000Y-74925000D01*
G75*
G02*
X147875000Y-75125000I0J-200000D01*
G01*
G37*
G36*
G01*
X146225000Y-76775000D02*
X146225000Y-77325000D01*
G75*
G02*
X146025000Y-77525000I-200000J0D01*
G01*
X145625000Y-77525000D01*
G75*
G02*
X145425000Y-77325000I0J200000D01*
G01*
X145425000Y-76775000D01*
G75*
G02*
X145625000Y-76575000I200000J0D01*
G01*
X146025000Y-76575000D01*
G75*
G02*
X146225000Y-76775000I0J-200000D01*
G01*
G37*
G36*
G01*
X147875000Y-76775000D02*
X147875000Y-77325000D01*
G75*
G02*
X147675000Y-77525000I-200000J0D01*
G01*
X147275000Y-77525000D01*
G75*
G02*
X147075000Y-77325000I0J200000D01*
G01*
X147075000Y-76775000D01*
G75*
G02*
X147275000Y-76575000I200000J0D01*
G01*
X147675000Y-76575000D01*
G75*
G02*
X147875000Y-76775000I0J-200000D01*
G01*
G37*
G36*
G01*
X155688300Y-55066480D02*
X155688300Y-55616480D01*
G75*
G02*
X155488300Y-55816480I-200000J0D01*
G01*
X155088300Y-55816480D01*
G75*
G02*
X154888300Y-55616480I0J200000D01*
G01*
X154888300Y-55066480D01*
G75*
G02*
X155088300Y-54866480I200000J0D01*
G01*
X155488300Y-54866480D01*
G75*
G02*
X155688300Y-55066480I0J-200000D01*
G01*
G37*
G36*
G01*
X157338300Y-55066480D02*
X157338300Y-55616480D01*
G75*
G02*
X157138300Y-55816480I-200000J0D01*
G01*
X156738300Y-55816480D01*
G75*
G02*
X156538300Y-55616480I0J200000D01*
G01*
X156538300Y-55066480D01*
G75*
G02*
X156738300Y-54866480I200000J0D01*
G01*
X157138300Y-54866480D01*
G75*
G02*
X157338300Y-55066480I0J-200000D01*
G01*
G37*
G36*
G01*
X155693380Y-56595560D02*
X155693380Y-57145560D01*
G75*
G02*
X155493380Y-57345560I-200000J0D01*
G01*
X155093380Y-57345560D01*
G75*
G02*
X154893380Y-57145560I0J200000D01*
G01*
X154893380Y-56595560D01*
G75*
G02*
X155093380Y-56395560I200000J0D01*
G01*
X155493380Y-56395560D01*
G75*
G02*
X155693380Y-56595560I0J-200000D01*
G01*
G37*
G36*
G01*
X157343380Y-56595560D02*
X157343380Y-57145560D01*
G75*
G02*
X157143380Y-57345560I-200000J0D01*
G01*
X156743380Y-57345560D01*
G75*
G02*
X156543380Y-57145560I0J200000D01*
G01*
X156543380Y-56595560D01*
G75*
G02*
X156743380Y-56395560I200000J0D01*
G01*
X157143380Y-56395560D01*
G75*
G02*
X157343380Y-56595560I0J-200000D01*
G01*
G37*
G36*
G01*
X128375000Y-82225000D02*
X128375000Y-81675000D01*
G75*
G02*
X128575000Y-81475000I200000J0D01*
G01*
X128975000Y-81475000D01*
G75*
G02*
X129175000Y-81675000I0J-200000D01*
G01*
X129175000Y-82225000D01*
G75*
G02*
X128975000Y-82425000I-200000J0D01*
G01*
X128575000Y-82425000D01*
G75*
G02*
X128375000Y-82225000I0J200000D01*
G01*
G37*
G36*
G01*
X126725000Y-82225000D02*
X126725000Y-81675000D01*
G75*
G02*
X126925000Y-81475000I200000J0D01*
G01*
X127325000Y-81475000D01*
G75*
G02*
X127525000Y-81675000I0J-200000D01*
G01*
X127525000Y-82225000D01*
G75*
G02*
X127325000Y-82425000I-200000J0D01*
G01*
X126925000Y-82425000D01*
G75*
G02*
X126725000Y-82225000I0J200000D01*
G01*
G37*
G36*
G01*
X128365000Y-80675000D02*
X128365000Y-80125000D01*
G75*
G02*
X128565000Y-79925000I200000J0D01*
G01*
X128965000Y-79925000D01*
G75*
G02*
X129165000Y-80125000I0J-200000D01*
G01*
X129165000Y-80675000D01*
G75*
G02*
X128965000Y-80875000I-200000J0D01*
G01*
X128565000Y-80875000D01*
G75*
G02*
X128365000Y-80675000I0J200000D01*
G01*
G37*
G36*
G01*
X126715000Y-80675000D02*
X126715000Y-80125000D01*
G75*
G02*
X126915000Y-79925000I200000J0D01*
G01*
X127315000Y-79925000D01*
G75*
G02*
X127515000Y-80125000I0J-200000D01*
G01*
X127515000Y-80675000D01*
G75*
G02*
X127315000Y-80875000I-200000J0D01*
G01*
X126915000Y-80875000D01*
G75*
G02*
X126715000Y-80675000I0J200000D01*
G01*
G37*
G36*
G01*
X127525000Y-78575000D02*
X127525000Y-79125000D01*
G75*
G02*
X127325000Y-79325000I-200000J0D01*
G01*
X126925000Y-79325000D01*
G75*
G02*
X126725000Y-79125000I0J200000D01*
G01*
X126725000Y-78575000D01*
G75*
G02*
X126925000Y-78375000I200000J0D01*
G01*
X127325000Y-78375000D01*
G75*
G02*
X127525000Y-78575000I0J-200000D01*
G01*
G37*
G36*
G01*
X129175000Y-78575000D02*
X129175000Y-79125000D01*
G75*
G02*
X128975000Y-79325000I-200000J0D01*
G01*
X128575000Y-79325000D01*
G75*
G02*
X128375000Y-79125000I0J200000D01*
G01*
X128375000Y-78575000D01*
G75*
G02*
X128575000Y-78375000I200000J0D01*
G01*
X128975000Y-78375000D01*
G75*
G02*
X129175000Y-78575000I0J-200000D01*
G01*
G37*
G36*
G01*
X171375000Y-81475000D02*
X171925000Y-81475000D01*
G75*
G02*
X172125000Y-81675000I0J-200000D01*
G01*
X172125000Y-82075000D01*
G75*
G02*
X171925000Y-82275000I-200000J0D01*
G01*
X171375000Y-82275000D01*
G75*
G02*
X171175000Y-82075000I0J200000D01*
G01*
X171175000Y-81675000D01*
G75*
G02*
X171375000Y-81475000I200000J0D01*
G01*
G37*
G36*
G01*
X171375000Y-79825000D02*
X171925000Y-79825000D01*
G75*
G02*
X172125000Y-80025000I0J-200000D01*
G01*
X172125000Y-80425000D01*
G75*
G02*
X171925000Y-80625000I-200000J0D01*
G01*
X171375000Y-80625000D01*
G75*
G02*
X171175000Y-80425000I0J200000D01*
G01*
X171175000Y-80025000D01*
G75*
G02*
X171375000Y-79825000I200000J0D01*
G01*
G37*
G36*
G01*
X171825000Y-59975000D02*
X172375000Y-59975000D01*
G75*
G02*
X172575000Y-60175000I0J-200000D01*
G01*
X172575000Y-60575000D01*
G75*
G02*
X172375000Y-60775000I-200000J0D01*
G01*
X171825000Y-60775000D01*
G75*
G02*
X171625000Y-60575000I0J200000D01*
G01*
X171625000Y-60175000D01*
G75*
G02*
X171825000Y-59975000I200000J0D01*
G01*
G37*
G36*
G01*
X171825000Y-58325000D02*
X172375000Y-58325000D01*
G75*
G02*
X172575000Y-58525000I0J-200000D01*
G01*
X172575000Y-58925000D01*
G75*
G02*
X172375000Y-59125000I-200000J0D01*
G01*
X171825000Y-59125000D01*
G75*
G02*
X171625000Y-58925000I0J200000D01*
G01*
X171625000Y-58525000D01*
G75*
G02*
X171825000Y-58325000I200000J0D01*
G01*
G37*
G36*
G01*
X150125000Y-82475000D02*
X150675000Y-82475000D01*
G75*
G02*
X150875000Y-82675000I0J-200000D01*
G01*
X150875000Y-83075000D01*
G75*
G02*
X150675000Y-83275000I-200000J0D01*
G01*
X150125000Y-83275000D01*
G75*
G02*
X149925000Y-83075000I0J200000D01*
G01*
X149925000Y-82675000D01*
G75*
G02*
X150125000Y-82475000I200000J0D01*
G01*
G37*
G36*
G01*
X150125000Y-80825000D02*
X150675000Y-80825000D01*
G75*
G02*
X150875000Y-81025000I0J-200000D01*
G01*
X150875000Y-81425000D01*
G75*
G02*
X150675000Y-81625000I-200000J0D01*
G01*
X150125000Y-81625000D01*
G75*
G02*
X149925000Y-81425000I0J200000D01*
G01*
X149925000Y-81025000D01*
G75*
G02*
X150125000Y-80825000I200000J0D01*
G01*
G37*
G36*
G01*
X129975000Y-53325000D02*
X130525000Y-53325000D01*
G75*
G02*
X130725000Y-53525000I0J-200000D01*
G01*
X130725000Y-53925000D01*
G75*
G02*
X130525000Y-54125000I-200000J0D01*
G01*
X129975000Y-54125000D01*
G75*
G02*
X129775000Y-53925000I0J200000D01*
G01*
X129775000Y-53525000D01*
G75*
G02*
X129975000Y-53325000I200000J0D01*
G01*
G37*
G36*
G01*
X129975000Y-51675000D02*
X130525000Y-51675000D01*
G75*
G02*
X130725000Y-51875000I0J-200000D01*
G01*
X130725000Y-52275000D01*
G75*
G02*
X130525000Y-52475000I-200000J0D01*
G01*
X129975000Y-52475000D01*
G75*
G02*
X129775000Y-52275000I0J200000D01*
G01*
X129775000Y-51875000D01*
G75*
G02*
X129975000Y-51675000I200000J0D01*
G01*
G37*
D19*
X162000000Y-88625000D03*
X164500000Y-88625000D03*
X162000000Y-86500000D03*
X164500000Y-86500000D03*
D20*
X168375000Y-60500000D03*
X168375000Y-58600000D03*
X170475000Y-59550000D03*
G36*
G01*
X159650000Y-54825000D02*
X159650000Y-55325000D01*
G75*
G02*
X159425000Y-55550000I-225000J0D01*
G01*
X158975000Y-55550000D01*
G75*
G02*
X158750000Y-55325000I0J225000D01*
G01*
X158750000Y-54825000D01*
G75*
G02*
X158975000Y-54600000I225000J0D01*
G01*
X159425000Y-54600000D01*
G75*
G02*
X159650000Y-54825000I0J-225000D01*
G01*
G37*
G36*
G01*
X161200000Y-54825000D02*
X161200000Y-55325000D01*
G75*
G02*
X160975000Y-55550000I-225000J0D01*
G01*
X160525000Y-55550000D01*
G75*
G02*
X160300000Y-55325000I0J225000D01*
G01*
X160300000Y-54825000D01*
G75*
G02*
X160525000Y-54600000I225000J0D01*
G01*
X160975000Y-54600000D01*
G75*
G02*
X161200000Y-54825000I0J-225000D01*
G01*
G37*
G36*
G01*
X164500000Y-55325000D02*
X164500000Y-54825000D01*
G75*
G02*
X164725000Y-54600000I225000J0D01*
G01*
X165175000Y-54600000D01*
G75*
G02*
X165400000Y-54825000I0J-225000D01*
G01*
X165400000Y-55325000D01*
G75*
G02*
X165175000Y-55550000I-225000J0D01*
G01*
X164725000Y-55550000D01*
G75*
G02*
X164500000Y-55325000I0J225000D01*
G01*
G37*
G36*
G01*
X162950000Y-55325000D02*
X162950000Y-54825000D01*
G75*
G02*
X163175000Y-54600000I225000J0D01*
G01*
X163625000Y-54600000D01*
G75*
G02*
X163850000Y-54825000I0J-225000D01*
G01*
X163850000Y-55325000D01*
G75*
G02*
X163625000Y-55550000I-225000J0D01*
G01*
X163175000Y-55550000D01*
G75*
G02*
X162950000Y-55325000I0J225000D01*
G01*
G37*
G36*
G01*
X128275000Y-83750000D02*
X128275000Y-83250000D01*
G75*
G02*
X128500000Y-83025000I225000J0D01*
G01*
X128950000Y-83025000D01*
G75*
G02*
X129175000Y-83250000I0J-225000D01*
G01*
X129175000Y-83750000D01*
G75*
G02*
X128950000Y-83975000I-225000J0D01*
G01*
X128500000Y-83975000D01*
G75*
G02*
X128275000Y-83750000I0J225000D01*
G01*
G37*
G36*
G01*
X126725000Y-83750000D02*
X126725000Y-83250000D01*
G75*
G02*
X126950000Y-83025000I225000J0D01*
G01*
X127400000Y-83025000D01*
G75*
G02*
X127625000Y-83250000I0J-225000D01*
G01*
X127625000Y-83750000D01*
G75*
G02*
X127400000Y-83975000I-225000J0D01*
G01*
X126950000Y-83975000D01*
G75*
G02*
X126725000Y-83750000I0J225000D01*
G01*
G37*
G36*
G01*
X165975000Y-79400000D02*
X166925000Y-79400000D01*
G75*
G02*
X167175000Y-79650000I0J-250000D01*
G01*
X167175000Y-80150000D01*
G75*
G02*
X166925000Y-80400000I-250000J0D01*
G01*
X165975000Y-80400000D01*
G75*
G02*
X165725000Y-80150000I0J250000D01*
G01*
X165725000Y-79650000D01*
G75*
G02*
X165975000Y-79400000I250000J0D01*
G01*
G37*
G36*
G01*
X165975000Y-77500000D02*
X166925000Y-77500000D01*
G75*
G02*
X167175000Y-77750000I0J-250000D01*
G01*
X167175000Y-78250000D01*
G75*
G02*
X166925000Y-78500000I-250000J0D01*
G01*
X165975000Y-78500000D01*
G75*
G02*
X165725000Y-78250000I0J250000D01*
G01*
X165725000Y-77750000D01*
G75*
G02*
X165975000Y-77500000I250000J0D01*
G01*
G37*
G36*
G01*
X171675000Y-75150000D02*
X171675000Y-75650000D01*
G75*
G02*
X171450000Y-75875000I-225000J0D01*
G01*
X171000000Y-75875000D01*
G75*
G02*
X170775000Y-75650000I0J225000D01*
G01*
X170775000Y-75150000D01*
G75*
G02*
X171000000Y-74925000I225000J0D01*
G01*
X171450000Y-74925000D01*
G75*
G02*
X171675000Y-75150000I0J-225000D01*
G01*
G37*
G36*
G01*
X173225000Y-75150000D02*
X173225000Y-75650000D01*
G75*
G02*
X173000000Y-75875000I-225000J0D01*
G01*
X172550000Y-75875000D01*
G75*
G02*
X172325000Y-75650000I0J225000D01*
G01*
X172325000Y-75150000D01*
G75*
G02*
X172550000Y-74925000I225000J0D01*
G01*
X173000000Y-74925000D01*
G75*
G02*
X173225000Y-75150000I0J-225000D01*
G01*
G37*
D21*
X165275565Y-50073000D02*
X134529619Y-50073000D01*
X134624435Y-45427000D01*
X165370381Y-45427000D01*
X165275565Y-50073000D01*
D22*
G36*
X165275565Y-50073000D02*
G01*
X134529619Y-50073000D01*
X134624435Y-45427000D01*
X165370381Y-45427000D01*
X165275565Y-50073000D01*
G37*
M02*
