M48
; DRILL file {KiCad 5.1.9-73d0e3b20d~88~ubuntu20.04.1} date Thu Apr  8 00:26:55 2021
; FORMAT={-:-/ absolute / inch / decimal}
; #@! TF.CreationDate,2021-04-08T00:26:55+08:00
; #@! TF.GenerationSoftware,Kicad,Pcbnew,5.1.9-73d0e3b20d~88~ubuntu20.04.1
; #@! TF.FileFunction,Plated,1,2,PTH
FMAT,2
INCH
T1C0.0079
T2C0.0157
T3C0.0236
T4C0.0295
T5C0.0394
T6C0.0709
T7C0.1063
%
G90
G05
T1
X4.972Y-2.9768
X4.9823Y-2.7028
X4.9823Y-2.7264
X4.9823Y-2.75
X4.9823Y-2.7736
X4.9823Y-2.7972
X4.9882Y-2.0394
X4.9882Y-2.125
X4.998Y-2.976
X5.0059Y-2.7028
X5.0059Y-2.7264
X5.0059Y-2.75
X5.0059Y-2.7736
X5.0059Y-2.7972
X5.0295Y-2.7028
X5.0295Y-2.7264
X5.0295Y-2.75
X5.0295Y-2.7736
X5.0295Y-2.7972
X5.0335Y-2.3386
X5.0335Y-2.3593
X5.0531Y-2.7028
X5.0531Y-2.7264
X5.0531Y-2.75
X5.0531Y-2.7736
X5.0531Y-2.7972
X5.1161Y-2.7008
X5.1161Y-2.7244
X5.1161Y-2.748
X5.1161Y-2.7717
X5.1295Y-2.9508
X5.137Y-2.0976
X5.1398Y-2.7008
X5.1398Y-2.7244
X5.1398Y-2.748
X5.1398Y-2.7717
X5.1531Y-2.9504
X5.1606Y-2.2224
X5.1634Y-2.7008
X5.1634Y-2.7244
X5.1634Y-2.748
X5.1634Y-2.7717
X5.1811Y-2.0325
X5.187Y-2.7008
X5.187Y-2.7244
X5.187Y-2.748
X5.187Y-2.7717
X5.2106Y-2.7008
X5.2106Y-2.7244
X5.2106Y-2.748
X5.2106Y-2.7717
X5.2165Y-2.3878
X5.2165Y-2.4154
X5.2165Y-2.4429
X5.2165Y-2.4724
X5.2165Y-2.5039
X5.2283Y-2.5315
X5.2343Y-2.7008
X5.2343Y-2.7244
X5.2343Y-2.748
X5.2343Y-2.7717
X5.2504Y-3.3421
X5.2508Y-3.3689
X5.252Y-1.7087
X5.252Y-3.1024
X5.252Y-3.1358
X5.252Y-3.2657
X5.2579Y-2.7008
X5.2579Y-2.7244
X5.2579Y-2.748
X5.2579Y-2.7717
X5.2815Y-2.7008
X5.2815Y-2.7244
X5.2815Y-2.748
X5.2815Y-2.7717
X5.2835Y-3.3268
X5.2953Y-2.5974
X5.2953Y-2.6211
X5.2953Y-2.6447
X5.3189Y-2.5974
X5.3189Y-2.6211
X5.3189Y-2.6447
X5.335Y-2.8713
X5.3358Y-3.1122
X5.3406Y-3.4685
X5.3413Y-3.4366
X5.3425Y-2.5974
X5.3425Y-2.6211
X5.3425Y-2.6447
X5.3433Y-3.2185
X5.3533Y-3.1654
X5.3652Y-2.437
X5.3661Y-2.5974
X5.3661Y-2.6211
X5.3661Y-2.6447
X5.374Y-2.874
X5.375Y-3.4685
X5.3752Y-3.4362
X5.3776Y-3.2181
X5.3789Y-3.1663
X5.3803Y-3.1122
X5.3898Y-2.437
X5.3898Y-2.5974
X5.3898Y-2.6211
X5.3898Y-2.6447
X5.3976Y-3.0669
X5.4008Y-2.9421
X5.4035Y-3.1663
X5.4094Y-3.4362
X5.4094Y-3.4685
X5.411Y-3.2185
X5.4114Y-2.748
X5.4134Y-2.5974
X5.4134Y-2.622
X5.4134Y-2.6457
X5.4146Y-2.4366
X5.437Y-3.437
X5.437Y-3.4685
X5.4449Y-3.1142
X5.4665Y-2.313
X5.4665Y-2.3366
X5.4665Y-2.3602
X5.4665Y-2.3839
X5.4705Y-2.0177
X5.4705Y-2.0413
X5.4705Y-2.065
X5.4705Y-2.0886
X5.4705Y-2.5974
X5.4774Y-3.1565
X5.4854Y-3.113
X5.4902Y-2.313
X5.4902Y-2.3366
X5.4902Y-2.3602
X5.4902Y-2.3839
X5.4941Y-2.0177
X5.4941Y-2.0413
X5.4941Y-2.065
X5.4941Y-2.0886
X5.4961Y-3.0236
X5.5Y-2.7205
X5.513Y-3.6378
X5.5138Y-2.313
X5.5138Y-2.3366
X5.5138Y-2.3602
X5.5138Y-2.3839
X5.5177Y-2.0177
X5.5177Y-2.0413
X5.5177Y-2.065
X5.5177Y-2.0886
X5.5257Y-3.2341
X5.5331Y-3.0622
X5.5344Y-3.1134
X5.5374Y-2.313
X5.5374Y-2.3366
X5.5374Y-2.3602
X5.5374Y-2.3839
X5.5413Y-2.0177
X5.5413Y-2.0413
X5.5413Y-2.065
X5.5413Y-2.0886
X5.5453Y-2.6614
X5.5481Y-2.9873
X5.5535Y-3.2336
X5.561Y-2.313
X5.561Y-2.3366
X5.561Y-2.3602
X5.561Y-2.3839
X5.5614Y-3.4327
X5.5622Y-3.4665
X5.5626Y-3.3957
X5.563Y-3.3642
X5.5811Y-3.5488
X5.5814Y-3.234
X5.5846Y-2.313
X5.5846Y-2.3366
X5.5846Y-2.3602
X5.5846Y-2.3839
X5.5906Y-3.3642
X5.5915Y-3.3957
X5.5915Y-3.4331
X5.5925Y-3.4665
X5.6102Y-3.2343
X5.6167Y-3.0069
X5.6211Y-3.0413
X5.6211Y-3.0659
X5.6474Y-2.5316
X5.6498Y-2.8203
X5.6517Y-2.7899
X5.668Y-3.1061
X5.6683Y-2.2163
X5.6685Y-2.7676
X5.6693Y-2.5587
X5.6693Y-2.5807
X5.6773Y-3.0084
X5.6908Y-3.0328
X5.6934Y-3.0948
X5.6958Y-2.2135
X5.6988Y-2.9035
X5.6988Y-2.9252
X5.6988Y-2.9469
X5.7141Y-2.1952
X5.7142Y-2.6614
X5.7193Y-3.1053
X5.7228Y-2.5335
X5.7232Y-2.5567
X5.7246Y-3.2385
X5.7246Y-3.2672
X5.7254Y-3.2106
X5.7278Y-2.805
X5.7322Y-2.1771
X5.7411Y-2.9685
X5.742Y-2.7798
X5.7421Y-2.6618
X5.7421Y-3.0335
X5.7505Y-2.1588
X5.752Y-3.2776
X5.7559Y-3.2106
X5.7579Y-2.9055
X5.7638Y-2.8177
X5.7692Y-2.1401
X5.7693Y-2.6618
X5.7746Y-2.938
X5.7774Y-3.2661
X5.7791Y-3.028
X5.7815Y-2.7466
X5.7866Y-2.1228
X5.7874Y-3.2106
X5.791Y-2.9056
X5.7925Y-2.0949
X5.7969Y-2.6618
X5.7992Y-2.065
X5.8067Y-3.0276
X5.8071Y-2.9689
X5.8209Y-2.065
X5.8209Y-3.1211
X5.8252Y-2.4894
X5.8264Y-2.435
X5.8283Y-2.5721
X5.8287Y-2.6654
X5.8425Y-2.065
X5.8484Y-2.3583
X5.8484Y-2.8661
X5.8484Y-2.9902
X5.8504Y-3.0512
X5.8514Y-3.079
X5.8557Y-3.1482
X5.8563Y-3.1112
X5.8642Y-2.065
X5.8709Y-2.7449
X5.8752Y-2.6843
X5.8807Y-2.3758
X5.8937Y-3.1102
X5.897Y-2.321
X5.9087Y-2.0654
X5.9262Y-3.1142
X5.9459Y-2.7113
X5.948Y-3.1408
X5.9528Y-2.065
X5.9536Y-2.9318
X5.9543Y-2.8492
X5.9587Y-2.8809
X5.9596Y-2.607
X5.9685Y-2.5177
X5.9699Y-2.7265
X5.9728Y-2.6437
X5.9744Y-2.065
X5.9764Y-2.9496
X5.9885Y-2.9129
X5.9914Y-2.5978
X5.9961Y-2.065
X6.0123Y-2.7885
X6.0177Y-2.065
X6.0177Y-2.9409
X6.0217Y-2.374
X6.0217Y-2.4331
X6.0335Y-3.1921
X6.0354Y-2.8866
X6.0406Y-2.9921
X6.0406Y-3.0161
X6.0417Y-2.9402
X6.0468Y-2.7305
X6.052Y-2.5827
X6.052Y-2.6043
X6.0618Y-2.0657
X6.0618Y-2.6573
X6.0709Y-2.1417
X6.0713Y-2.7879
X6.0719Y-2.1634
X6.0799Y-2.239
X6.0846Y-3.1939
X6.0906Y-3.4488
X6.0913Y-2.8846
X6.0925Y-3.4065
X6.0931Y-2.2014
X6.0955Y-2.7628
X6.1037Y-2.2388
X6.1043Y-3.6752
X6.1063Y-2.0669
X6.113Y-2.9917
X6.1154Y-3.4311
X6.1158Y-2.2992
X6.1177Y-2.9669
X6.1201Y-2.3533
X6.123Y-3.4055
X6.1268Y-3.3248
X6.128Y-2.0669
X6.1348Y-3.1969
X6.1366Y-2.9921
X6.137Y-2.5638
X6.141Y-2.6447
X6.1476Y-2.2618
X6.1496Y-2.0669
X6.1506Y-2.3701
X6.1508Y-2.6051
X6.1604Y-3.1998
X6.1713Y-2.0669
X6.1768Y-2.4334
X6.1772Y-2.2992
X6.1821Y-2.6053
X6.1841Y-3.2106
X6.185Y-2.1447
X6.185Y-2.1663
X6.1969Y-3.4124
X6.2067Y-2.1447
X6.2067Y-2.1663
X6.2161Y-2.0654
X6.2165Y-2.3632
X6.2185Y-2.2392
X6.2293Y-2.1447
X6.2293Y-2.1663
X6.2321Y-2.7913
X6.25Y-2.5895
X6.2551Y-3.1591
X6.2555Y-3.0526
X6.2589Y-2.2884
X6.2598Y-2.0669
X6.2713Y-2.9668
X6.2815Y-2.0669
X6.2844Y-2.2323
X6.2889Y-2.6565
X6.2945Y-2.9411
X6.3031Y-2.0669
X6.3031Y-3.2539
X6.3031Y-3.2894
X6.304Y-2.5157
X6.3075Y-3.087
X6.313Y-2.9646
X6.3167Y-2.9242
X6.3229Y-2.713
X6.3248Y-2.0669
X6.3297Y-2.3012
X6.3521Y-2.7234
X6.3618Y-2.0669
X6.3663Y-2.6447
X6.3833Y-2.7799
X6.4134Y-2.6152
X6.4154Y-3.0256
X6.4154Y-3.0876
X6.4173Y-3.1575
X6.4181Y-3.124
X6.4232Y-2.0768
X6.4232Y-2.1024
X6.4232Y-3.251
X6.4252Y-2.8681
X6.4265Y-2.8344
X6.4449Y-2.0236
X6.4449Y-2.0768
X6.4449Y-2.1024
X6.4449Y-3.124
X6.4449Y-3.1575
X6.4488Y-2.3455
X6.4582Y-3.1953
X6.4626Y-3.2677
X6.4656Y-2.6417
X6.4665Y-2.0236
X6.4665Y-2.0492
X6.4665Y-2.1024
X6.4685Y-2.8413
X6.4695Y-2.6093
X6.4872Y-2.7421
X6.4882Y-2.0236
X6.4882Y-2.0492
X6.4882Y-2.0768
X6.4882Y-2.6417
X6.4882Y-3.1959
X6.4921Y-2.6102
X6.4921Y-3.2677
X6.5197Y-3.1388
X6.5256Y-3.3209
X6.5256Y-3.3484
X6.5335Y-2.2793
X6.5354Y-2.724
X6.5463Y-2.9793
X6.5492Y-3.2323
X6.5492Y-3.3209
X6.5502Y-2.6161
X6.5504Y-3.4583
X6.5719Y-2.3455
X6.5803Y-2.9413
X6.5835Y-3.4197
X6.5843Y-2.4209
X6.5843Y-2.4594
X6.5876Y-2.2805
X6.5903Y-2.0573
X6.5903Y-2.0809
X6.5903Y-2.1046
X6.5903Y-2.1282
X6.5903Y-2.1518
X6.5906Y-2.5236
X6.6106Y-2.4591
X6.622Y-2.3071
X6.622Y-2.3819
X6.639Y-2.4594
X6.6421Y-3.0106
X6.6427Y-2.9852
X6.6447Y-2.8711
X6.6449Y-2.8138
X6.6516Y-2.625
X6.6644Y-2.6024
X6.6654Y-2.4591
X6.6703Y-2.2825
X6.6732Y-2.3435
X6.6772Y-2.8134
X6.6781Y-2.625
X6.7018Y-2.3435
X6.7096Y-2.686
X6.7197Y-2.7457
X6.7256Y-2.9063
X6.7287Y-2.4059
X6.7289Y-2.534
X6.7311Y-3.3079
X6.7333Y-2.3435
X6.7409Y-3.4039
X6.7413Y-2.9685
X6.7425Y-3.2862
X6.7535Y-3.3083
X6.7646Y-3.4051
X6.7673Y-3.0366
X6.7972Y-2.0069
X6.7972Y-2.0305
X6.7972Y-2.0541
X6.7972Y-2.0778
X6.7972Y-2.1014
X6.7972Y-2.125
X6.8189Y-3.0118
X6.8356Y-2.4724
X6.8406Y-2.2343
X6.8406Y-2.2579
X6.8488Y-2.5551
T2
X5.5378Y-2.8339
X5.5378Y-2.8709
X5.5382Y-2.9087
X5.7232Y-2.4315
X5.7854Y-2.1634
X5.7854Y-2.2106
X6.2749Y-2.2594
X6.3848Y-2.125
T4
X5.3533Y-3.3346
X5.3533Y-3.5591
X5.4321Y-3.3346
X5.4321Y-3.5591
X5.5108Y-3.3346
X5.5108Y-3.5591
X6.3789Y-3.3346
X6.3789Y-3.5605
X6.4577Y-3.3346
X6.4577Y-3.5605
X6.6634Y-3.0728
X6.6634Y-3.1516
X6.6634Y-3.2303
X6.6634Y-3.3091
T5
X4.9906Y-2.9075
X5.0906Y-2.9075
X5.1906Y-2.9075
X5.7752Y-2.4618
X5.8274Y-3.3651
X5.8274Y-3.4651
X5.8752Y-2.4618
X5.9274Y-3.3651
X5.9274Y-3.4651
X5.9752Y-2.4618
X6.0274Y-3.3651
X6.0274Y-3.4651
X6.0752Y-2.4618
T6
X5.31Y-2.2
X5.5344Y-2.2
T7
X6.69Y-1.8831
X6.69Y-2.08
T3
G00X5.002Y-3.0278
M15
G01X4.9783Y-3.0278
M16
G05
G00X5.002Y-3.3679
M15
G01X4.9783Y-3.3679
M16
G05
G00X5.1764Y-3.0278
M15
G01X5.1331Y-3.0278
M16
G05
G00X5.1764Y-3.3679
M15
G01X5.1331Y-3.3679
M16
G05
T0
M30
