G04 #@! TF.GenerationSoftware,KiCad,Pcbnew,5.1.9-73d0e3b20d~88~ubuntu20.04.1*
G04 #@! TF.CreationDate,2021-04-08T00:26:52+08:00*
G04 #@! TF.ProjectId,AbsoluteEncoderBoard,4162736f-6c75-4746-9545-6e636f646572,rev?*
G04 #@! TF.SameCoordinates,Original*
G04 #@! TF.FileFunction,Legend,Top*
G04 #@! TF.FilePolarity,Positive*
%FSLAX46Y46*%
G04 Gerber Fmt 4.6, Leading zero omitted, Abs format (unit mm)*
G04 Created by KiCad (PCBNEW 5.1.9-73d0e3b20d~88~ubuntu20.04.1) date 2021-04-08 00:26:52*
%MOMM*%
%LPD*%
G01*
G04 APERTURE LIST*
%ADD10C,0.150000*%
%ADD11C,0.100000*%
%ADD12C,0.200000*%
%ADD13C,0.120000*%
%ADD14C,3.200000*%
%ADD15R,1.600000X0.760000*%
%ADD16C,4.000000*%
%ADD17R,3.800000X3.800000*%
%ADD18C,1.700000*%
%ADD19R,0.600000X0.450000*%
%ADD20R,1.000000X1.000000*%
%ADD21R,1.560000X0.650000*%
%ADD22R,1.800000X2.900000*%
%ADD23R,2.300000X3.500000*%
%ADD24R,1.100000X1.300000*%
%ADD25R,0.300000X1.200000*%
%ADD26R,1.200000X0.300000*%
%ADD27R,1.500000X1.000000*%
%ADD28R,2.000000X2.000000*%
%ADD29R,1.700000X1.000000*%
%ADD30R,0.850000X0.500000*%
%ADD31O,1.200000X1.750000*%
%ADD32O,1.700000X1.700000*%
%ADD33R,1.700000X1.700000*%
%ADD34C,1.800000*%
%ADD35C,3.700000*%
%ADD36R,1.450000X0.600000*%
%ADD37R,1.450000X0.300000*%
%ADD38O,2.100000X1.000000*%
%ADD39C,0.650000*%
%ADD40O,1.600000X1.000000*%
%ADD41O,1.750000X1.200000*%
%ADD42C,0.254000*%
G04 APERTURE END LIST*
D10*
X153540000Y-91501428D02*
X153197142Y-91501428D01*
X153368571Y-91501428D02*
X153368571Y-90901428D01*
X153311428Y-90987142D01*
X153254285Y-91044285D01*
X153197142Y-91072857D01*
X153768571Y-90958571D02*
X153797142Y-90930000D01*
X153854285Y-90901428D01*
X153997142Y-90901428D01*
X154054285Y-90930000D01*
X154082857Y-90958571D01*
X154111428Y-91015714D01*
X154111428Y-91072857D01*
X154082857Y-91158571D01*
X153740000Y-91501428D01*
X154111428Y-91501428D01*
X154482857Y-90901428D02*
X154540000Y-90901428D01*
X154597142Y-90930000D01*
X154625714Y-90958571D01*
X154654285Y-91015714D01*
X154682857Y-91130000D01*
X154682857Y-91272857D01*
X154654285Y-91387142D01*
X154625714Y-91444285D01*
X154597142Y-91472857D01*
X154540000Y-91501428D01*
X154482857Y-91501428D01*
X154425714Y-91472857D01*
X154397142Y-91444285D01*
X154368571Y-91387142D01*
X154340000Y-91272857D01*
X154340000Y-91130000D01*
X154368571Y-91015714D01*
X154397142Y-90958571D01*
X154425714Y-90930000D01*
X154482857Y-90901428D01*
X155282857Y-91501428D02*
X155082857Y-91215714D01*
X154940000Y-91501428D02*
X154940000Y-90901428D01*
X155168571Y-90901428D01*
X155225714Y-90930000D01*
X155254285Y-90958571D01*
X155282857Y-91015714D01*
X155282857Y-91101428D01*
X155254285Y-91158571D01*
X155225714Y-91187142D01*
X155168571Y-91215714D01*
X154940000Y-91215714D01*
X156869047Y-92161904D02*
X157021428Y-92161904D01*
X157097619Y-92200000D01*
X157173809Y-92276190D01*
X157211904Y-92428571D01*
X157211904Y-92695238D01*
X157173809Y-92847619D01*
X157097619Y-92923809D01*
X157021428Y-92961904D01*
X156869047Y-92961904D01*
X156792857Y-92923809D01*
X156716666Y-92847619D01*
X156678571Y-92695238D01*
X156678571Y-92428571D01*
X156716666Y-92276190D01*
X156792857Y-92200000D01*
X156869047Y-92161904D01*
X157554761Y-92161904D02*
X157554761Y-92809523D01*
X157592857Y-92885714D01*
X157630952Y-92923809D01*
X157707142Y-92961904D01*
X157859523Y-92961904D01*
X157935714Y-92923809D01*
X157973809Y-92885714D01*
X158011904Y-92809523D01*
X158011904Y-92161904D01*
X158278571Y-92161904D02*
X158735714Y-92161904D01*
X158507142Y-92961904D02*
X158507142Y-92161904D01*
X159421428Y-92961904D02*
X158964285Y-92961904D01*
X159192857Y-92961904D02*
X159192857Y-92161904D01*
X159116666Y-92276190D01*
X159040476Y-92352380D01*
X158964285Y-92390476D01*
X156869047Y-93511904D02*
X157021428Y-93511904D01*
X157097619Y-93550000D01*
X157173809Y-93626190D01*
X157211904Y-93778571D01*
X157211904Y-94045238D01*
X157173809Y-94197619D01*
X157097619Y-94273809D01*
X157021428Y-94311904D01*
X156869047Y-94311904D01*
X156792857Y-94273809D01*
X156716666Y-94197619D01*
X156678571Y-94045238D01*
X156678571Y-93778571D01*
X156716666Y-93626190D01*
X156792857Y-93550000D01*
X156869047Y-93511904D01*
X157554761Y-93511904D02*
X157554761Y-94159523D01*
X157592857Y-94235714D01*
X157630952Y-94273809D01*
X157707142Y-94311904D01*
X157859523Y-94311904D01*
X157935714Y-94273809D01*
X157973809Y-94235714D01*
X158011904Y-94159523D01*
X158011904Y-93511904D01*
X158278571Y-93511904D02*
X158735714Y-93511904D01*
X158507142Y-94311904D02*
X158507142Y-93511904D01*
X158964285Y-93588095D02*
X159002380Y-93550000D01*
X159078571Y-93511904D01*
X159269047Y-93511904D01*
X159345238Y-93550000D01*
X159383333Y-93588095D01*
X159421428Y-93664285D01*
X159421428Y-93740476D01*
X159383333Y-93854761D01*
X158926190Y-94311904D01*
X159421428Y-94311904D01*
X152553571Y-74966666D02*
X152553571Y-75300000D01*
X153077380Y-75300000D02*
X152077380Y-75300000D01*
X152077380Y-74823809D01*
X152077380Y-74538095D02*
X153077380Y-74300000D01*
X152363095Y-74109523D01*
X153077380Y-73919047D01*
X152077380Y-73680952D01*
X152982142Y-73300000D02*
X153029761Y-73252380D01*
X153077380Y-73300000D01*
X153029761Y-73347619D01*
X152982142Y-73300000D01*
X153077380Y-73300000D01*
X152458333Y-73300000D02*
X152505952Y-73252380D01*
X152553571Y-73300000D01*
X152505952Y-73347619D01*
X152458333Y-73300000D01*
X152553571Y-73300000D01*
X138670238Y-66503571D02*
X138813095Y-66551190D01*
X138860714Y-66598809D01*
X138908333Y-66694047D01*
X138908333Y-66836904D01*
X138860714Y-66932142D01*
X138813095Y-66979761D01*
X138717857Y-67027380D01*
X138336904Y-67027380D01*
X138336904Y-66027380D01*
X138670238Y-66027380D01*
X138765476Y-66075000D01*
X138813095Y-66122619D01*
X138860714Y-66217857D01*
X138860714Y-66313095D01*
X138813095Y-66408333D01*
X138765476Y-66455952D01*
X138670238Y-66503571D01*
X138336904Y-66503571D01*
X139336904Y-67027380D02*
X139336904Y-66027380D01*
X139813095Y-67027380D02*
X139813095Y-66027380D01*
X140051190Y-66027380D01*
X140194047Y-66075000D01*
X140289285Y-66170238D01*
X140336904Y-66265476D01*
X140384523Y-66455952D01*
X140384523Y-66598809D01*
X140336904Y-66789285D01*
X140289285Y-66884523D01*
X140194047Y-66979761D01*
X140051190Y-67027380D01*
X139813095Y-67027380D01*
X140813095Y-66932142D02*
X140860714Y-66979761D01*
X140813095Y-67027380D01*
X140765476Y-66979761D01*
X140813095Y-66932142D01*
X140813095Y-67027380D01*
X140813095Y-66408333D02*
X140860714Y-66455952D01*
X140813095Y-66503571D01*
X140765476Y-66455952D01*
X140813095Y-66408333D01*
X140813095Y-66503571D01*
D11*
G36*
X151000000Y-67800000D02*
G01*
X141125000Y-67800000D01*
X141125000Y-65175000D01*
X151000000Y-65175000D01*
X151000000Y-67800000D01*
G37*
X151000000Y-67800000D02*
X141125000Y-67800000D01*
X141125000Y-65175000D01*
X151000000Y-65175000D01*
X151000000Y-67800000D01*
G36*
X154000000Y-72625000D02*
G01*
X151000000Y-72625000D01*
X151000000Y-65175000D01*
X154000000Y-65175000D01*
X154000000Y-72625000D01*
G37*
X154000000Y-72625000D02*
X151000000Y-72625000D01*
X151000000Y-65175000D01*
X154000000Y-65175000D01*
X154000000Y-72625000D01*
D10*
X148955952Y-84057142D02*
X148908333Y-84104761D01*
X148765476Y-84152380D01*
X148670238Y-84152380D01*
X148527380Y-84104761D01*
X148432142Y-84009523D01*
X148384523Y-83914285D01*
X148336904Y-83723809D01*
X148336904Y-83580952D01*
X148384523Y-83390476D01*
X148432142Y-83295238D01*
X148527380Y-83200000D01*
X148670238Y-83152380D01*
X148765476Y-83152380D01*
X148908333Y-83200000D01*
X148955952Y-83247619D01*
X149336904Y-83866666D02*
X149813095Y-83866666D01*
X149241666Y-84152380D02*
X149575000Y-83152380D01*
X149908333Y-84152380D01*
X150241666Y-84152380D02*
X150241666Y-83152380D01*
X150813095Y-84152380D01*
X150813095Y-83152380D01*
X151813095Y-84152380D02*
X151241666Y-84152380D01*
X151527380Y-84152380D02*
X151527380Y-83152380D01*
X151432142Y-83295238D01*
X151336904Y-83390476D01*
X151241666Y-83438095D01*
X167036904Y-79101190D02*
X166655952Y-79367857D01*
X167036904Y-79558333D02*
X166236904Y-79558333D01*
X166236904Y-79253571D01*
X166275000Y-79177380D01*
X166313095Y-79139285D01*
X166389285Y-79101190D01*
X166503571Y-79101190D01*
X166579761Y-79139285D01*
X166617857Y-79177380D01*
X166655952Y-79253571D01*
X166655952Y-79558333D01*
X166998809Y-78796428D02*
X167036904Y-78682142D01*
X167036904Y-78491666D01*
X166998809Y-78415476D01*
X166960714Y-78377380D01*
X166884523Y-78339285D01*
X166808333Y-78339285D01*
X166732142Y-78377380D01*
X166694047Y-78415476D01*
X166655952Y-78491666D01*
X166617857Y-78644047D01*
X166579761Y-78720238D01*
X166541666Y-78758333D01*
X166465476Y-78796428D01*
X166389285Y-78796428D01*
X166313095Y-78758333D01*
X166275000Y-78720238D01*
X166236904Y-78644047D01*
X166236904Y-78453571D01*
X166275000Y-78339285D01*
X166503571Y-77653571D02*
X167036904Y-77653571D01*
X166198809Y-77844047D02*
X166770238Y-78034523D01*
X166770238Y-77539285D01*
X166579761Y-77120238D02*
X166541666Y-77196428D01*
X166503571Y-77234523D01*
X166427380Y-77272619D01*
X166389285Y-77272619D01*
X166313095Y-77234523D01*
X166275000Y-77196428D01*
X166236904Y-77120238D01*
X166236904Y-76967857D01*
X166275000Y-76891666D01*
X166313095Y-76853571D01*
X166389285Y-76815476D01*
X166427380Y-76815476D01*
X166503571Y-76853571D01*
X166541666Y-76891666D01*
X166579761Y-76967857D01*
X166579761Y-77120238D01*
X166617857Y-77196428D01*
X166655952Y-77234523D01*
X166732142Y-77272619D01*
X166884523Y-77272619D01*
X166960714Y-77234523D01*
X166998809Y-77196428D01*
X167036904Y-77120238D01*
X167036904Y-76967857D01*
X166998809Y-76891666D01*
X166960714Y-76853571D01*
X166884523Y-76815476D01*
X166732142Y-76815476D01*
X166655952Y-76853571D01*
X166617857Y-76891666D01*
X166579761Y-76967857D01*
X166236904Y-76091666D02*
X166236904Y-76472619D01*
X166617857Y-76510714D01*
X166579761Y-76472619D01*
X166541666Y-76396428D01*
X166541666Y-76205952D01*
X166579761Y-76129761D01*
X166617857Y-76091666D01*
X166694047Y-76053571D01*
X166884523Y-76053571D01*
X166960714Y-76091666D01*
X166998809Y-76129761D01*
X167036904Y-76205952D01*
X167036904Y-76396428D01*
X166998809Y-76472619D01*
X166960714Y-76510714D01*
X172382142Y-65894047D02*
X172429761Y-65941666D01*
X172477380Y-66084523D01*
X172477380Y-66179761D01*
X172429761Y-66322619D01*
X172334523Y-66417857D01*
X172239285Y-66465476D01*
X172048809Y-66513095D01*
X171905952Y-66513095D01*
X171715476Y-66465476D01*
X171620238Y-66417857D01*
X171525000Y-66322619D01*
X171477380Y-66179761D01*
X171477380Y-66084523D01*
X171525000Y-65941666D01*
X171572619Y-65894047D01*
X172191666Y-65513095D02*
X172191666Y-65036904D01*
X172477380Y-65608333D02*
X171477380Y-65275000D01*
X172477380Y-64941666D01*
X172477380Y-64608333D02*
X171477380Y-64608333D01*
X172477380Y-64036904D01*
X171477380Y-64036904D01*
X171572619Y-63608333D02*
X171525000Y-63560714D01*
X171477380Y-63465476D01*
X171477380Y-63227380D01*
X171525000Y-63132142D01*
X171572619Y-63084523D01*
X171667857Y-63036904D01*
X171763095Y-63036904D01*
X171905952Y-63084523D01*
X172477380Y-63655952D01*
X172477380Y-63036904D01*
X142273809Y-63902380D02*
X142273809Y-62902380D01*
X142702380Y-62997619D02*
X142750000Y-62950000D01*
X142845238Y-62902380D01*
X143083333Y-62902380D01*
X143178571Y-62950000D01*
X143226190Y-62997619D01*
X143273809Y-63092857D01*
X143273809Y-63188095D01*
X143226190Y-63330952D01*
X142654761Y-63902380D01*
X143273809Y-63902380D01*
X144273809Y-63807142D02*
X144226190Y-63854761D01*
X144083333Y-63902380D01*
X143988095Y-63902380D01*
X143845238Y-63854761D01*
X143750000Y-63759523D01*
X143702380Y-63664285D01*
X143654761Y-63473809D01*
X143654761Y-63330952D01*
X143702380Y-63140476D01*
X143750000Y-63045238D01*
X143845238Y-62950000D01*
X143988095Y-62902380D01*
X144083333Y-62902380D01*
X144226190Y-62950000D01*
X144273809Y-62997619D01*
X145685714Y-92360714D02*
X145647619Y-92398809D01*
X145533333Y-92436904D01*
X145457142Y-92436904D01*
X145342857Y-92398809D01*
X145266666Y-92322619D01*
X145228571Y-92246428D01*
X145190476Y-92094047D01*
X145190476Y-91979761D01*
X145228571Y-91827380D01*
X145266666Y-91751190D01*
X145342857Y-91675000D01*
X145457142Y-91636904D01*
X145533333Y-91636904D01*
X145647619Y-91675000D01*
X145685714Y-91713095D01*
X145990476Y-92208333D02*
X146371428Y-92208333D01*
X145914285Y-92436904D02*
X146180952Y-91636904D01*
X146447619Y-92436904D01*
X146714285Y-92436904D02*
X146714285Y-91636904D01*
X147171428Y-92436904D01*
X147171428Y-91636904D01*
X148161904Y-92436904D02*
X148161904Y-91636904D01*
X148428571Y-92208333D01*
X148695238Y-91636904D01*
X148695238Y-92436904D01*
X149190476Y-92436904D02*
X149114285Y-92398809D01*
X149076190Y-92360714D01*
X149038095Y-92284523D01*
X149038095Y-92055952D01*
X149076190Y-91979761D01*
X149114285Y-91941666D01*
X149190476Y-91903571D01*
X149304761Y-91903571D01*
X149380952Y-91941666D01*
X149419047Y-91979761D01*
X149457142Y-92055952D01*
X149457142Y-92284523D01*
X149419047Y-92360714D01*
X149380952Y-92398809D01*
X149304761Y-92436904D01*
X149190476Y-92436904D01*
X149685714Y-91903571D02*
X149990476Y-91903571D01*
X149800000Y-91636904D02*
X149800000Y-92322619D01*
X149838095Y-92398809D01*
X149914285Y-92436904D01*
X149990476Y-92436904D01*
X150371428Y-92436904D02*
X150295238Y-92398809D01*
X150257142Y-92360714D01*
X150219047Y-92284523D01*
X150219047Y-92055952D01*
X150257142Y-91979761D01*
X150295238Y-91941666D01*
X150371428Y-91903571D01*
X150485714Y-91903571D01*
X150561904Y-91941666D01*
X150600000Y-91979761D01*
X150638095Y-92055952D01*
X150638095Y-92284523D01*
X150600000Y-92360714D01*
X150561904Y-92398809D01*
X150485714Y-92436904D01*
X150371428Y-92436904D01*
X150980952Y-92436904D02*
X150980952Y-91903571D01*
X150980952Y-92055952D02*
X151019047Y-91979761D01*
X151057142Y-91941666D01*
X151133333Y-91903571D01*
X151209523Y-91903571D01*
X152352380Y-92017857D02*
X152466666Y-92055952D01*
X152504761Y-92094047D01*
X152542857Y-92170238D01*
X152542857Y-92284523D01*
X152504761Y-92360714D01*
X152466666Y-92398809D01*
X152390476Y-92436904D01*
X152085714Y-92436904D01*
X152085714Y-91636904D01*
X152352380Y-91636904D01*
X152428571Y-91675000D01*
X152466666Y-91713095D01*
X152504761Y-91789285D01*
X152504761Y-91865476D01*
X152466666Y-91941666D01*
X152428571Y-91979761D01*
X152352380Y-92017857D01*
X152085714Y-92017857D01*
X153000000Y-92436904D02*
X152923809Y-92398809D01*
X152885714Y-92360714D01*
X152847619Y-92284523D01*
X152847619Y-92055952D01*
X152885714Y-91979761D01*
X152923809Y-91941666D01*
X153000000Y-91903571D01*
X153114285Y-91903571D01*
X153190476Y-91941666D01*
X153228571Y-91979761D01*
X153266666Y-92055952D01*
X153266666Y-92284523D01*
X153228571Y-92360714D01*
X153190476Y-92398809D01*
X153114285Y-92436904D01*
X153000000Y-92436904D01*
X153952380Y-92436904D02*
X153952380Y-92017857D01*
X153914285Y-91941666D01*
X153838095Y-91903571D01*
X153685714Y-91903571D01*
X153609523Y-91941666D01*
X153952380Y-92398809D02*
X153876190Y-92436904D01*
X153685714Y-92436904D01*
X153609523Y-92398809D01*
X153571428Y-92322619D01*
X153571428Y-92246428D01*
X153609523Y-92170238D01*
X153685714Y-92132142D01*
X153876190Y-92132142D01*
X153952380Y-92094047D01*
X154333333Y-92436904D02*
X154333333Y-91903571D01*
X154333333Y-92055952D02*
X154371428Y-91979761D01*
X154409523Y-91941666D01*
X154485714Y-91903571D01*
X154561904Y-91903571D01*
X155171428Y-92436904D02*
X155171428Y-91636904D01*
X155171428Y-92398809D02*
X155095238Y-92436904D01*
X154942857Y-92436904D01*
X154866666Y-92398809D01*
X154828571Y-92360714D01*
X154790476Y-92284523D01*
X154790476Y-92055952D01*
X154828571Y-91979761D01*
X154866666Y-91941666D01*
X154942857Y-91903571D01*
X155095238Y-91903571D01*
X155171428Y-91941666D01*
X146504761Y-92986904D02*
X146504761Y-93558333D01*
X146466666Y-93672619D01*
X146390476Y-93748809D01*
X146276190Y-93786904D01*
X146200000Y-93786904D01*
X147190476Y-93748809D02*
X147114285Y-93786904D01*
X146961904Y-93786904D01*
X146885714Y-93748809D01*
X146847619Y-93672619D01*
X146847619Y-93367857D01*
X146885714Y-93291666D01*
X146961904Y-93253571D01*
X147114285Y-93253571D01*
X147190476Y-93291666D01*
X147228571Y-93367857D01*
X147228571Y-93444047D01*
X146847619Y-93520238D01*
X147457142Y-93253571D02*
X147761904Y-93253571D01*
X147571428Y-93786904D02*
X147571428Y-93101190D01*
X147609523Y-93025000D01*
X147685714Y-92986904D01*
X147761904Y-92986904D01*
X147914285Y-93253571D02*
X148219047Y-93253571D01*
X148028571Y-93786904D02*
X148028571Y-93101190D01*
X148066666Y-93025000D01*
X148142857Y-92986904D01*
X148219047Y-92986904D01*
X149476190Y-93786904D02*
X149095238Y-93786904D01*
X149095238Y-92986904D01*
X150085714Y-93786904D02*
X150085714Y-93367857D01*
X150047619Y-93291666D01*
X149971428Y-93253571D01*
X149819047Y-93253571D01*
X149742857Y-93291666D01*
X150085714Y-93748809D02*
X150009523Y-93786904D01*
X149819047Y-93786904D01*
X149742857Y-93748809D01*
X149704761Y-93672619D01*
X149704761Y-93596428D01*
X149742857Y-93520238D01*
X149819047Y-93482142D01*
X150009523Y-93482142D01*
X150085714Y-93444047D01*
X150466666Y-93786904D02*
X150466666Y-93253571D01*
X150466666Y-92986904D02*
X150428571Y-93025000D01*
X150466666Y-93063095D01*
X150504761Y-93025000D01*
X150466666Y-92986904D01*
X150466666Y-93063095D01*
X151419047Y-93063095D02*
X151457142Y-93025000D01*
X151533333Y-92986904D01*
X151723809Y-92986904D01*
X151800000Y-93025000D01*
X151838095Y-93063095D01*
X151876190Y-93139285D01*
X151876190Y-93215476D01*
X151838095Y-93329761D01*
X151380952Y-93786904D01*
X151876190Y-93786904D01*
X152371428Y-92986904D02*
X152447619Y-92986904D01*
X152523809Y-93025000D01*
X152561904Y-93063095D01*
X152600000Y-93139285D01*
X152638095Y-93291666D01*
X152638095Y-93482142D01*
X152600000Y-93634523D01*
X152561904Y-93710714D01*
X152523809Y-93748809D01*
X152447619Y-93786904D01*
X152371428Y-93786904D01*
X152295238Y-93748809D01*
X152257142Y-93710714D01*
X152219047Y-93634523D01*
X152180952Y-93482142D01*
X152180952Y-93291666D01*
X152219047Y-93139285D01*
X152257142Y-93063095D01*
X152295238Y-93025000D01*
X152371428Y-92986904D01*
X152942857Y-93063095D02*
X152980952Y-93025000D01*
X153057142Y-92986904D01*
X153247619Y-92986904D01*
X153323809Y-93025000D01*
X153361904Y-93063095D01*
X153400000Y-93139285D01*
X153400000Y-93215476D01*
X153361904Y-93329761D01*
X152904761Y-93786904D01*
X153400000Y-93786904D01*
X154161904Y-93786904D02*
X153704761Y-93786904D01*
X153933333Y-93786904D02*
X153933333Y-92986904D01*
X153857142Y-93101190D01*
X153780952Y-93177380D01*
X153704761Y-93215476D01*
X172700000Y-83792857D02*
X172652380Y-83907142D01*
X172652380Y-84078571D01*
X172700000Y-84250000D01*
X172795238Y-84364285D01*
X172890476Y-84421428D01*
X173080952Y-84478571D01*
X173223809Y-84478571D01*
X173414285Y-84421428D01*
X173509523Y-84364285D01*
X173604761Y-84250000D01*
X173652380Y-84078571D01*
X173652380Y-83964285D01*
X173604761Y-83792857D01*
X173557142Y-83735714D01*
X173223809Y-83735714D01*
X173223809Y-83964285D01*
X173652380Y-81735714D02*
X173652380Y-82307142D01*
X172652380Y-82307142D01*
X173652380Y-80421428D02*
X172652380Y-80421428D01*
X173128571Y-80421428D02*
X173128571Y-79735714D01*
X173652380Y-79735714D02*
X172652380Y-79735714D01*
X172652380Y-77678571D02*
X172652380Y-78250000D01*
X173128571Y-78307142D01*
X173080952Y-78250000D01*
X173033333Y-78135714D01*
X173033333Y-77850000D01*
X173080952Y-77735714D01*
X173128571Y-77678571D01*
X173223809Y-77621428D01*
X173461904Y-77621428D01*
X173557142Y-77678571D01*
X173604761Y-77735714D01*
X173652380Y-77850000D01*
X173652380Y-78135714D01*
X173604761Y-78250000D01*
X173557142Y-78307142D01*
X138469047Y-62302380D02*
X138469047Y-61302380D01*
X138707142Y-61302380D01*
X138850000Y-61350000D01*
X138945238Y-61445238D01*
X138992857Y-61540476D01*
X139040476Y-61730952D01*
X139040476Y-61873809D01*
X138992857Y-62064285D01*
X138945238Y-62159523D01*
X138850000Y-62254761D01*
X138707142Y-62302380D01*
X138469047Y-62302380D01*
X140802380Y-62207142D02*
X140754761Y-62254761D01*
X140611904Y-62302380D01*
X140516666Y-62302380D01*
X140373809Y-62254761D01*
X140278571Y-62159523D01*
X140230952Y-62064285D01*
X140183333Y-61873809D01*
X140183333Y-61730952D01*
X140230952Y-61540476D01*
X140278571Y-61445238D01*
X140373809Y-61350000D01*
X140516666Y-61302380D01*
X140611904Y-61302380D01*
X140754761Y-61350000D01*
X140802380Y-61397619D01*
X142516666Y-61350000D02*
X142421428Y-61302380D01*
X142278571Y-61302380D01*
X142135714Y-61350000D01*
X142040476Y-61445238D01*
X141992857Y-61540476D01*
X141945238Y-61730952D01*
X141945238Y-61873809D01*
X141992857Y-62064285D01*
X142040476Y-62159523D01*
X142135714Y-62254761D01*
X142278571Y-62302380D01*
X142373809Y-62302380D01*
X142516666Y-62254761D01*
X142564285Y-62207142D01*
X142564285Y-61873809D01*
X142373809Y-61873809D01*
X144230952Y-61302380D02*
X143754761Y-61302380D01*
X143707142Y-61778571D01*
X143754761Y-61730952D01*
X143850000Y-61683333D01*
X144088095Y-61683333D01*
X144183333Y-61730952D01*
X144230952Y-61778571D01*
X144278571Y-61873809D01*
X144278571Y-62111904D01*
X144230952Y-62207142D01*
X144183333Y-62254761D01*
X144088095Y-62302380D01*
X143850000Y-62302380D01*
X143754761Y-62254761D01*
X143707142Y-62207142D01*
X169851904Y-69441904D02*
X169585238Y-69060952D01*
X169394761Y-69441904D02*
X169394761Y-68641904D01*
X169699523Y-68641904D01*
X169775714Y-68680000D01*
X169813809Y-68718095D01*
X169851904Y-68794285D01*
X169851904Y-68908571D01*
X169813809Y-68984761D01*
X169775714Y-69022857D01*
X169699523Y-69060952D01*
X169394761Y-69060952D01*
X170156666Y-69403809D02*
X170270952Y-69441904D01*
X170461428Y-69441904D01*
X170537619Y-69403809D01*
X170575714Y-69365714D01*
X170613809Y-69289523D01*
X170613809Y-69213333D01*
X170575714Y-69137142D01*
X170537619Y-69099047D01*
X170461428Y-69060952D01*
X170309047Y-69022857D01*
X170232857Y-68984761D01*
X170194761Y-68946666D01*
X170156666Y-68870476D01*
X170156666Y-68794285D01*
X170194761Y-68718095D01*
X170232857Y-68680000D01*
X170309047Y-68641904D01*
X170499523Y-68641904D01*
X170613809Y-68680000D01*
X170842380Y-68641904D02*
X171299523Y-68641904D01*
X171070952Y-69441904D02*
X171070952Y-68641904D01*
X135451190Y-93451428D02*
X136213095Y-93451428D01*
X137451190Y-93832380D02*
X137451190Y-92832380D01*
X137927380Y-93832380D02*
X137927380Y-92832380D01*
X138498809Y-93832380D01*
X138498809Y-92832380D01*
X139736904Y-93451428D02*
X140498809Y-93451428D01*
X140117857Y-93832380D02*
X140117857Y-93070476D01*
X161644047Y-93451428D02*
X162405952Y-93451428D01*
X163644047Y-93451428D02*
X164405952Y-93451428D01*
X164025000Y-93832380D02*
X164025000Y-93070476D01*
X142725000Y-92961904D02*
X142725000Y-92161904D01*
X143105952Y-92961904D02*
X143105952Y-92161904D01*
X143563095Y-92961904D01*
X143563095Y-92161904D01*
X144363095Y-92961904D02*
X143905952Y-92961904D01*
X144134523Y-92961904D02*
X144134523Y-92161904D01*
X144058333Y-92276190D01*
X143982142Y-92352380D01*
X143905952Y-92390476D01*
X142725000Y-94311904D02*
X142725000Y-93511904D01*
X143105952Y-94311904D02*
X143105952Y-93511904D01*
X143563095Y-94311904D01*
X143563095Y-93511904D01*
X143905952Y-93588095D02*
X143944047Y-93550000D01*
X144020238Y-93511904D01*
X144210714Y-93511904D01*
X144286904Y-93550000D01*
X144325000Y-93588095D01*
X144363095Y-93664285D01*
X144363095Y-93740476D01*
X144325000Y-93854761D01*
X143867857Y-94311904D01*
X144363095Y-94311904D01*
D12*
X164492857Y-66691666D02*
X163292857Y-66691666D01*
X163292857Y-66310714D01*
X163350000Y-66215476D01*
X163407142Y-66167857D01*
X163521428Y-66120238D01*
X163692857Y-66120238D01*
X163807142Y-66167857D01*
X163864285Y-66215476D01*
X163921428Y-66310714D01*
X163921428Y-66691666D01*
X164492857Y-65548809D02*
X164435714Y-65644047D01*
X164378571Y-65691666D01*
X164264285Y-65739285D01*
X163921428Y-65739285D01*
X163807142Y-65691666D01*
X163750000Y-65644047D01*
X163692857Y-65548809D01*
X163692857Y-65405952D01*
X163750000Y-65310714D01*
X163807142Y-65263095D01*
X163921428Y-65215476D01*
X164264285Y-65215476D01*
X164378571Y-65263095D01*
X164435714Y-65310714D01*
X164492857Y-65405952D01*
X164492857Y-65548809D01*
X163692857Y-64786904D02*
X164492857Y-64786904D01*
X163807142Y-64786904D02*
X163750000Y-64739285D01*
X163692857Y-64644047D01*
X163692857Y-64501190D01*
X163750000Y-64405952D01*
X163864285Y-64358333D01*
X164492857Y-64358333D01*
X166492857Y-66977380D02*
X165292857Y-66977380D01*
X165292857Y-66596428D01*
X165350000Y-66501190D01*
X165407142Y-66453571D01*
X165521428Y-66405952D01*
X165692857Y-66405952D01*
X165807142Y-66453571D01*
X165864285Y-66501190D01*
X165921428Y-66596428D01*
X165921428Y-66977380D01*
X166492857Y-65834523D02*
X166435714Y-65929761D01*
X166378571Y-65977380D01*
X166264285Y-66025000D01*
X165921428Y-66025000D01*
X165807142Y-65977380D01*
X165750000Y-65929761D01*
X165692857Y-65834523D01*
X165692857Y-65691666D01*
X165750000Y-65596428D01*
X165807142Y-65548809D01*
X165921428Y-65501190D01*
X166264285Y-65501190D01*
X166378571Y-65548809D01*
X166435714Y-65596428D01*
X166492857Y-65691666D01*
X166492857Y-65834523D01*
X165692857Y-64644047D02*
X166492857Y-64644047D01*
X165692857Y-65072619D02*
X166321428Y-65072619D01*
X166435714Y-65025000D01*
X166492857Y-64929761D01*
X166492857Y-64786904D01*
X166435714Y-64691666D01*
X166378571Y-64644047D01*
X165692857Y-64310714D02*
X165692857Y-63929761D01*
X165292857Y-64167857D02*
X166321428Y-64167857D01*
X166435714Y-64120238D01*
X166492857Y-64025000D01*
X166492857Y-63929761D01*
X154588095Y-70738095D02*
X154588095Y-70119047D01*
X155083333Y-70452380D01*
X155083333Y-70309523D01*
X155145238Y-70214285D01*
X155207142Y-70166666D01*
X155330952Y-70119047D01*
X155640476Y-70119047D01*
X155764285Y-70166666D01*
X155826190Y-70214285D01*
X155888095Y-70309523D01*
X155888095Y-70595238D01*
X155826190Y-70690476D01*
X155764285Y-70738095D01*
X154588095Y-69833333D02*
X155888095Y-69500000D01*
X154588095Y-69166666D01*
X154588095Y-68928571D02*
X154588095Y-68309523D01*
X155083333Y-68642857D01*
X155083333Y-68500000D01*
X155145238Y-68404761D01*
X155207142Y-68357142D01*
X155330952Y-68309523D01*
X155640476Y-68309523D01*
X155764285Y-68357142D01*
X155826190Y-68404761D01*
X155888095Y-68500000D01*
X155888095Y-68785714D01*
X155826190Y-68880952D01*
X155764285Y-68928571D01*
X157976190Y-70166666D02*
X158038095Y-70023809D01*
X158038095Y-69785714D01*
X157976190Y-69690476D01*
X157914285Y-69642857D01*
X157790476Y-69595238D01*
X157666666Y-69595238D01*
X157542857Y-69642857D01*
X157480952Y-69690476D01*
X157419047Y-69785714D01*
X157357142Y-69976190D01*
X157295238Y-70071428D01*
X157233333Y-70119047D01*
X157109523Y-70166666D01*
X156985714Y-70166666D01*
X156861904Y-70119047D01*
X156800000Y-70071428D01*
X156738095Y-69976190D01*
X156738095Y-69738095D01*
X156800000Y-69595238D01*
X156738095Y-69309523D02*
X156738095Y-68738095D01*
X158038095Y-69023809D02*
X156738095Y-69023809D01*
X158888095Y-70761904D02*
X159940476Y-70761904D01*
X160064285Y-70714285D01*
X160126190Y-70666666D01*
X160188095Y-70571428D01*
X160188095Y-70380952D01*
X160126190Y-70285714D01*
X160064285Y-70238095D01*
X159940476Y-70190476D01*
X158888095Y-70190476D01*
X160126190Y-69761904D02*
X160188095Y-69619047D01*
X160188095Y-69380952D01*
X160126190Y-69285714D01*
X160064285Y-69238095D01*
X159940476Y-69190476D01*
X159816666Y-69190476D01*
X159692857Y-69238095D01*
X159630952Y-69285714D01*
X159569047Y-69380952D01*
X159507142Y-69571428D01*
X159445238Y-69666666D01*
X159383333Y-69714285D01*
X159259523Y-69761904D01*
X159135714Y-69761904D01*
X159011904Y-69714285D01*
X158950000Y-69666666D01*
X158888095Y-69571428D01*
X158888095Y-69333333D01*
X158950000Y-69190476D01*
X159507142Y-68428571D02*
X159569047Y-68285714D01*
X159630952Y-68238095D01*
X159754761Y-68190476D01*
X159940476Y-68190476D01*
X160064285Y-68238095D01*
X160126190Y-68285714D01*
X160188095Y-68380952D01*
X160188095Y-68761904D01*
X158888095Y-68761904D01*
X158888095Y-68428571D01*
X158950000Y-68333333D01*
X159011904Y-68285714D01*
X159135714Y-68238095D01*
X159259523Y-68238095D01*
X159383333Y-68285714D01*
X159445238Y-68333333D01*
X159507142Y-68428571D01*
X159507142Y-68761904D01*
X162214285Y-70142857D02*
X162276190Y-70190476D01*
X162338095Y-70333333D01*
X162338095Y-70428571D01*
X162276190Y-70571428D01*
X162152380Y-70666666D01*
X162028571Y-70714285D01*
X161780952Y-70761904D01*
X161595238Y-70761904D01*
X161347619Y-70714285D01*
X161223809Y-70666666D01*
X161100000Y-70571428D01*
X161038095Y-70428571D01*
X161038095Y-70333333D01*
X161100000Y-70190476D01*
X161161904Y-70142857D01*
X161966666Y-69761904D02*
X161966666Y-69285714D01*
X162338095Y-69857142D02*
X161038095Y-69523809D01*
X162338095Y-69190476D01*
X162338095Y-68857142D02*
X161038095Y-68857142D01*
X162338095Y-68285714D01*
X161038095Y-68285714D01*
D10*
X174302380Y-57935714D02*
X173302380Y-57935714D01*
X173778571Y-57935714D02*
X173778571Y-57364285D01*
X174302380Y-57364285D02*
X173302380Y-57364285D01*
X174302380Y-61040476D02*
X174302380Y-61516666D01*
X173302380Y-61516666D01*
D13*
X152910000Y-88670000D02*
X147390000Y-88670000D01*
X154760000Y-90680000D02*
X152910000Y-90680000D01*
X152910000Y-91330000D02*
X152910000Y-90680000D01*
X152910000Y-91330000D02*
X147390000Y-91330000D01*
X147390000Y-91330000D02*
X147390000Y-90061000D01*
X152910000Y-89939000D02*
X152910000Y-88670000D01*
X147390000Y-89939000D02*
X147390000Y-88670000D01*
X167216000Y-53842000D02*
X167216000Y-45122000D01*
X167216000Y-45122000D02*
X172636000Y-45122000D01*
X172636000Y-53842000D02*
X172636000Y-45122000D01*
X168516000Y-55542000D02*
X167216000Y-53842000D01*
X171336000Y-55542000D02*
X172636000Y-53842000D01*
X168516000Y-55542000D02*
X171336000Y-55542000D01*
X136950000Y-73850000D02*
X134400000Y-73850000D01*
X136950000Y-72150000D02*
X134400000Y-72150000D01*
X136950000Y-73850000D02*
X136950000Y-72150000D01*
X155585000Y-77582836D02*
X155585000Y-77367164D01*
X154865000Y-77582836D02*
X154865000Y-77367164D01*
X158692164Y-54835000D02*
X158907836Y-54835000D01*
X158692164Y-54115000D02*
X158907836Y-54115000D01*
X154390000Y-85842164D02*
X154390000Y-86057836D01*
X155110000Y-85842164D02*
X155110000Y-86057836D01*
X158950000Y-62350000D02*
X160650000Y-62350000D01*
X160650000Y-62350000D02*
X160650000Y-59200000D01*
X158950000Y-62350000D02*
X158950000Y-59200000D01*
X153150000Y-55200000D02*
X153150000Y-53500000D01*
X153150000Y-53500000D02*
X150000000Y-53500000D01*
X153150000Y-55200000D02*
X150000000Y-55200000D01*
X172660000Y-61315000D02*
X172660000Y-57885000D01*
X168390000Y-56615000D02*
X168390000Y-58415000D01*
X169840000Y-56615000D02*
X168390000Y-56615000D01*
X168390000Y-60785000D02*
X167400000Y-60785000D01*
X168390000Y-62585000D02*
X168390000Y-60785000D01*
X169840000Y-62585000D02*
X168390000Y-62585000D01*
X165437258Y-63822500D02*
X164962742Y-63822500D01*
X165437258Y-62777500D02*
X164962742Y-62777500D01*
X164890000Y-59550000D02*
X164890000Y-62435000D01*
X164890000Y-62435000D02*
X166710000Y-62435000D01*
X166710000Y-62435000D02*
X166710000Y-59550000D01*
X161912742Y-62777500D02*
X162387258Y-62777500D01*
X161912742Y-63822500D02*
X162387258Y-63822500D01*
X162890000Y-59550000D02*
X162890000Y-62435000D01*
X162890000Y-62435000D02*
X164710000Y-62435000D01*
X164710000Y-62435000D02*
X164710000Y-59550000D01*
X137110000Y-71560000D02*
X137110000Y-67810000D01*
X137110000Y-61040000D02*
X137110000Y-64790000D01*
X127654437Y-61040000D02*
X137110000Y-61040000D01*
X127654437Y-71560000D02*
X137110000Y-71560000D01*
X126590000Y-70495563D02*
X126590000Y-67810000D01*
X126590000Y-62104437D02*
X126590000Y-64790000D01*
X126590000Y-62104437D02*
X127654437Y-61040000D01*
X126590000Y-70495563D02*
X127654437Y-71560000D01*
X125100000Y-63540000D02*
X126350000Y-63540000D01*
X125725000Y-62915000D02*
X125725000Y-64165000D01*
X155215840Y-58475480D02*
X158165840Y-58475480D01*
X157015840Y-55255480D02*
X155215840Y-55255480D01*
X159897160Y-56792858D02*
X159897160Y-56318342D01*
X158852160Y-56792858D02*
X158852160Y-56318342D01*
X160427500Y-56312742D02*
X160427500Y-56787258D01*
X161472500Y-56312742D02*
X161472500Y-56787258D01*
X164703542Y-58067100D02*
X165178058Y-58067100D01*
X164703542Y-57022100D02*
X165178058Y-57022100D01*
X164703542Y-56492300D02*
X165178058Y-56492300D01*
X164703542Y-55447300D02*
X165178058Y-55447300D01*
X153004700Y-55639860D02*
X148004700Y-55639860D01*
X153004700Y-58839860D02*
X148004700Y-58839860D01*
X166150000Y-45600000D02*
X166150000Y-52900000D01*
X161850000Y-45600000D02*
X161850000Y-52900000D01*
X166150000Y-45600000D02*
X161850000Y-45600000D01*
X146443780Y-56781780D02*
X146443780Y-57062940D01*
X147463780Y-56781780D02*
X147463780Y-57062940D01*
X155975260Y-54716100D02*
X156256420Y-54716100D01*
X155975260Y-53696100D02*
X156256420Y-53696100D01*
X161160000Y-50288748D02*
X161160000Y-51711252D01*
X158440000Y-50288748D02*
X158440000Y-51711252D01*
X157272500Y-50288748D02*
X157272500Y-51711252D01*
X154552500Y-50288748D02*
X154552500Y-51711252D01*
X153385000Y-50288748D02*
X153385000Y-51711252D01*
X150665000Y-50288748D02*
X150665000Y-51711252D01*
X151075000Y-79325000D02*
X154225000Y-79325000D01*
X154225000Y-79325000D02*
X154225000Y-75525000D01*
D11*
X148300000Y-79725000D02*
X148600000Y-79725000D01*
X148600000Y-79725000D02*
X149200000Y-79125000D01*
X149200000Y-79125000D02*
X149200000Y-78625000D01*
X149200000Y-78625000D02*
X150200000Y-78625000D01*
X149200000Y-69525000D02*
X149200000Y-70025000D01*
X149200000Y-69525000D02*
X148700000Y-69525000D01*
X139000000Y-79725000D02*
X139500000Y-79725000D01*
X139000000Y-79725000D02*
X139000000Y-79225000D01*
X139000000Y-69525000D02*
X139500000Y-69525000D01*
X139000000Y-69525000D02*
X139000000Y-70025000D01*
D13*
X157050000Y-79800000D02*
X157050000Y-78060000D01*
X157050000Y-72300000D02*
X157050000Y-74000000D01*
X164550000Y-79800000D02*
X164550000Y-78100000D01*
X164550000Y-72300000D02*
X164550000Y-74000000D01*
X157050000Y-79800000D02*
X159700000Y-79800000D01*
X164550000Y-79800000D02*
X161900000Y-79800000D01*
X157050000Y-72300000D02*
X159700000Y-72300000D01*
X164550000Y-72300000D02*
X161900000Y-72300000D01*
X160800000Y-74050000D02*
X162550000Y-72300000D01*
X160800000Y-74050000D02*
X159050000Y-72300000D01*
X162214214Y-76050000D02*
G75*
G03*
X162214214Y-76050000I-1414214J0D01*
G01*
X171960000Y-70190000D02*
X171510000Y-69740000D01*
X168560000Y-70190000D02*
X169010000Y-69740000D01*
X168560000Y-74790000D02*
X169010000Y-75240000D01*
X171960000Y-74790000D02*
X171510000Y-75240000D01*
X167510000Y-73490000D02*
X167510000Y-71490000D01*
X171510000Y-69740000D02*
X169010000Y-69740000D01*
X173010000Y-73490000D02*
X173010000Y-71490000D01*
X171510000Y-75240000D02*
X169010000Y-75240000D01*
X158227500Y-90339758D02*
X158227500Y-89865242D01*
X159272500Y-90339758D02*
X159272500Y-89865242D01*
X158227500Y-84387258D02*
X158227500Y-83912742D01*
X159272500Y-84387258D02*
X159272500Y-83912742D01*
X147462742Y-59397500D02*
X147937258Y-59397500D01*
X147462742Y-60442500D02*
X147937258Y-60442500D01*
X151137258Y-60442500D02*
X150662742Y-60442500D01*
X151137258Y-59397500D02*
X150662742Y-59397500D01*
X135487258Y-77922500D02*
X135012742Y-77922500D01*
X135487258Y-76877500D02*
X135012742Y-76877500D01*
X135487258Y-76397500D02*
X135012742Y-76397500D01*
X135487258Y-75352500D02*
X135012742Y-75352500D01*
X168487258Y-64522500D02*
X168012742Y-64522500D01*
X168487258Y-63477500D02*
X168012742Y-63477500D01*
X146497500Y-86587742D02*
X146497500Y-87062258D01*
X145452500Y-86587742D02*
X145452500Y-87062258D01*
X127144200Y-55669464D02*
X127144200Y-51315336D01*
X130564200Y-55669464D02*
X130564200Y-51315336D01*
X127440000Y-43815000D02*
X133560000Y-43815000D01*
X127440000Y-49185000D02*
X133560000Y-49185000D01*
X133560000Y-44165000D02*
X133560000Y-43815000D01*
X127440000Y-44115000D02*
X127440000Y-43815000D01*
X127440000Y-48885000D02*
X127440000Y-49185000D01*
X166085000Y-92247400D02*
X166085000Y-87527400D01*
X166085000Y-87527400D02*
X159965000Y-87527400D01*
X159965000Y-87527400D02*
X159965000Y-92247400D01*
X159965000Y-92247400D02*
X166085000Y-92247400D01*
X164325000Y-92247400D02*
X164325000Y-92447400D01*
X164325000Y-92447400D02*
X164625000Y-92447400D01*
X164625000Y-92447400D02*
X164625000Y-92247400D01*
X164325000Y-92347400D02*
X164625000Y-92347400D01*
X163525000Y-92247400D02*
X163525000Y-91637400D01*
X163525000Y-91637400D02*
X165475000Y-91637400D01*
X165475000Y-91637400D02*
X165475000Y-88137400D01*
X165475000Y-88137400D02*
X160575000Y-88137400D01*
X160575000Y-88137400D02*
X160575000Y-91637400D01*
X160575000Y-91637400D02*
X162525000Y-91637400D01*
X162525000Y-91637400D02*
X162525000Y-92247400D01*
X166085000Y-90937400D02*
X165475000Y-90937400D01*
X166085000Y-89637400D02*
X165475000Y-89637400D01*
X159965000Y-90937400D02*
X160575000Y-90937400D01*
X159965000Y-89637400D02*
X160575000Y-89637400D01*
X163125000Y-88137400D02*
X163125000Y-88637400D01*
X163125000Y-88637400D02*
X162925000Y-88637400D01*
X162925000Y-88637400D02*
X162925000Y-88137400D01*
X163025000Y-88137400D02*
X163025000Y-88637400D01*
X165135000Y-92547400D02*
X166385000Y-92547400D01*
X166385000Y-92547400D02*
X166385000Y-91297400D01*
X166085000Y-86510000D02*
X166085000Y-81790000D01*
X166085000Y-81790000D02*
X159965000Y-81790000D01*
X159965000Y-81790000D02*
X159965000Y-86510000D01*
X159965000Y-86510000D02*
X166085000Y-86510000D01*
X164325000Y-86510000D02*
X164325000Y-86710000D01*
X164325000Y-86710000D02*
X164625000Y-86710000D01*
X164625000Y-86710000D02*
X164625000Y-86510000D01*
X164325000Y-86610000D02*
X164625000Y-86610000D01*
X163525000Y-86510000D02*
X163525000Y-85900000D01*
X163525000Y-85900000D02*
X165475000Y-85900000D01*
X165475000Y-85900000D02*
X165475000Y-82400000D01*
X165475000Y-82400000D02*
X160575000Y-82400000D01*
X160575000Y-82400000D02*
X160575000Y-85900000D01*
X160575000Y-85900000D02*
X162525000Y-85900000D01*
X162525000Y-85900000D02*
X162525000Y-86510000D01*
X166085000Y-85200000D02*
X165475000Y-85200000D01*
X166085000Y-83900000D02*
X165475000Y-83900000D01*
X159965000Y-85200000D02*
X160575000Y-85200000D01*
X159965000Y-83900000D02*
X160575000Y-83900000D01*
X163125000Y-82400000D02*
X163125000Y-82900000D01*
X163125000Y-82900000D02*
X162925000Y-82900000D01*
X162925000Y-82900000D02*
X162925000Y-82400000D01*
X163025000Y-82400000D02*
X163025000Y-82900000D01*
X165135000Y-86810000D02*
X166385000Y-86810000D01*
X166385000Y-86810000D02*
X166385000Y-85560000D01*
X142035000Y-92210000D02*
X142035000Y-87490000D01*
X142035000Y-87490000D02*
X133915000Y-87490000D01*
X133915000Y-87490000D02*
X133915000Y-92210000D01*
X133915000Y-92210000D02*
X142035000Y-92210000D01*
X140275000Y-92210000D02*
X140275000Y-92410000D01*
X140275000Y-92410000D02*
X140575000Y-92410000D01*
X140575000Y-92410000D02*
X140575000Y-92210000D01*
X140275000Y-92310000D02*
X140575000Y-92310000D01*
X139475000Y-92210000D02*
X139475000Y-91600000D01*
X139475000Y-91600000D02*
X141425000Y-91600000D01*
X141425000Y-91600000D02*
X141425000Y-88100000D01*
X141425000Y-88100000D02*
X134525000Y-88100000D01*
X134525000Y-88100000D02*
X134525000Y-91600000D01*
X134525000Y-91600000D02*
X136475000Y-91600000D01*
X136475000Y-91600000D02*
X136475000Y-92210000D01*
X142035000Y-90900000D02*
X141425000Y-90900000D01*
X142035000Y-89600000D02*
X141425000Y-89600000D01*
X133915000Y-90900000D02*
X134525000Y-90900000D01*
X133915000Y-89600000D02*
X134525000Y-89600000D01*
X139075000Y-88100000D02*
X139075000Y-88600000D01*
X139075000Y-88600000D02*
X138875000Y-88600000D01*
X138875000Y-88600000D02*
X138875000Y-88100000D01*
X138975000Y-88100000D02*
X138975000Y-88600000D01*
X137075000Y-88100000D02*
X137075000Y-88600000D01*
X137075000Y-88600000D02*
X136875000Y-88600000D01*
X136875000Y-88600000D02*
X136875000Y-88100000D01*
X136975000Y-88100000D02*
X136975000Y-88600000D01*
X141085000Y-92510000D02*
X142335000Y-92510000D01*
X142335000Y-92510000D02*
X142335000Y-91260000D01*
X142035000Y-86510000D02*
X142035000Y-81790000D01*
X142035000Y-81790000D02*
X133915000Y-81790000D01*
X133915000Y-81790000D02*
X133915000Y-86510000D01*
X133915000Y-86510000D02*
X142035000Y-86510000D01*
X140275000Y-86510000D02*
X140275000Y-86710000D01*
X140275000Y-86710000D02*
X140575000Y-86710000D01*
X140575000Y-86710000D02*
X140575000Y-86510000D01*
X140275000Y-86610000D02*
X140575000Y-86610000D01*
X139475000Y-86510000D02*
X139475000Y-85900000D01*
X139475000Y-85900000D02*
X141425000Y-85900000D01*
X141425000Y-85900000D02*
X141425000Y-82400000D01*
X141425000Y-82400000D02*
X134525000Y-82400000D01*
X134525000Y-82400000D02*
X134525000Y-85900000D01*
X134525000Y-85900000D02*
X136475000Y-85900000D01*
X136475000Y-85900000D02*
X136475000Y-86510000D01*
X142035000Y-85200000D02*
X141425000Y-85200000D01*
X142035000Y-83900000D02*
X141425000Y-83900000D01*
X133915000Y-85200000D02*
X134525000Y-85200000D01*
X133915000Y-83900000D02*
X134525000Y-83900000D01*
X139075000Y-82400000D02*
X139075000Y-82900000D01*
X139075000Y-82900000D02*
X138875000Y-82900000D01*
X138875000Y-82900000D02*
X138875000Y-82400000D01*
X138975000Y-82400000D02*
X138975000Y-82900000D01*
X137075000Y-82400000D02*
X137075000Y-82900000D01*
X137075000Y-82900000D02*
X136875000Y-82900000D01*
X136875000Y-82900000D02*
X136875000Y-82400000D01*
X136975000Y-82400000D02*
X136975000Y-82900000D01*
X141085000Y-86810000D02*
X142335000Y-86810000D01*
X142335000Y-86810000D02*
X142335000Y-85560000D01*
X133170000Y-75180000D02*
X133170000Y-72520000D01*
X128030000Y-75180000D02*
X133170000Y-75180000D01*
X128030000Y-72520000D02*
X133170000Y-72520000D01*
X128030000Y-75180000D02*
X128030000Y-72520000D01*
X126760000Y-75180000D02*
X125430000Y-75180000D01*
X125430000Y-75180000D02*
X125430000Y-73850000D01*
X131454000Y-55880000D02*
X131454000Y-60165000D01*
X131454000Y-60165000D02*
X144154000Y-60165000D01*
X144154000Y-60165000D02*
X144154000Y-57690000D01*
X144154000Y-57690000D02*
X145704000Y-57690000D01*
X145704000Y-57690000D02*
X145704000Y-55880000D01*
X131454000Y-55880000D02*
X131454000Y-51595000D01*
X131454000Y-51595000D02*
X142184000Y-51595000D01*
X144154000Y-53560000D02*
X144154000Y-54070000D01*
X144154000Y-54070000D02*
X145704000Y-54070000D01*
X145704000Y-54070000D02*
X145704000Y-55880000D01*
X133564000Y-60465000D02*
X131154000Y-60465000D01*
X131154000Y-60465000D02*
X131154000Y-58055000D01*
X125800000Y-76525000D02*
X123900000Y-76525000D01*
X129700000Y-76525000D02*
X127700000Y-76525000D01*
X125800000Y-85925000D02*
X123900000Y-85925000D01*
X129700000Y-85925000D02*
X127700000Y-85925000D01*
X123900000Y-76525000D02*
X123900000Y-85925000D01*
X167440000Y-86110000D02*
X172160000Y-86110000D01*
X172160000Y-86110000D02*
X172160000Y-75990000D01*
X172160000Y-75990000D02*
X167440000Y-75990000D01*
X167440000Y-75990000D02*
X167440000Y-86110000D01*
X167440000Y-84350000D02*
X167240000Y-84350000D01*
X167240000Y-84350000D02*
X167240000Y-84650000D01*
X167240000Y-84650000D02*
X167440000Y-84650000D01*
X167340000Y-84350000D02*
X167340000Y-84650000D01*
X167440000Y-83550000D02*
X168050000Y-83550000D01*
X168050000Y-83550000D02*
X168050000Y-85500000D01*
X168050000Y-85500000D02*
X171550000Y-85500000D01*
X171550000Y-85500000D02*
X171550000Y-76600000D01*
X171550000Y-76600000D02*
X168050000Y-76600000D01*
X168050000Y-76600000D02*
X168050000Y-78550000D01*
X168050000Y-78550000D02*
X167440000Y-78550000D01*
X168750000Y-86110000D02*
X168750000Y-85500000D01*
X170050000Y-86110000D02*
X170050000Y-85500000D01*
X168750000Y-75990000D02*
X168750000Y-76600000D01*
X170050000Y-75990000D02*
X170050000Y-76600000D01*
X171550000Y-83150000D02*
X171050000Y-83150000D01*
X171050000Y-83150000D02*
X171050000Y-82950000D01*
X171050000Y-82950000D02*
X171550000Y-82950000D01*
X171550000Y-83050000D02*
X171050000Y-83050000D01*
X171550000Y-81150000D02*
X171050000Y-81150000D01*
X171050000Y-81150000D02*
X171050000Y-80950000D01*
X171050000Y-80950000D02*
X171550000Y-80950000D01*
X171550000Y-81050000D02*
X171050000Y-81050000D01*
X171550000Y-79150000D02*
X171050000Y-79150000D01*
X171050000Y-79150000D02*
X171050000Y-78950000D01*
X171050000Y-78950000D02*
X171550000Y-78950000D01*
X171550000Y-79050000D02*
X171050000Y-79050000D01*
X167140000Y-85160000D02*
X167140000Y-86410000D01*
X167140000Y-86410000D02*
X168390000Y-86410000D01*
X153040000Y-61200000D02*
X153040000Y-63860000D01*
X153040000Y-61200000D02*
X145360000Y-61200000D01*
X145360000Y-61200000D02*
X145360000Y-63860000D01*
X153040000Y-63860000D02*
X145360000Y-63860000D01*
X155640000Y-63860000D02*
X154310000Y-63860000D01*
X155640000Y-62530000D02*
X155640000Y-63860000D01*
X162538300Y-60490562D02*
X162538300Y-61007718D01*
X161118300Y-60490562D02*
X161118300Y-61007718D01*
X155980000Y-89080000D02*
X155980000Y-91940000D01*
X155980000Y-91940000D02*
X157900000Y-91940000D01*
X157900000Y-91940000D02*
X157900000Y-89080000D01*
X155980000Y-83127500D02*
X155980000Y-85987500D01*
X155980000Y-85987500D02*
X157900000Y-85987500D01*
X157900000Y-85987500D02*
X157900000Y-83127500D01*
X142490000Y-89080000D02*
X142490000Y-91940000D01*
X142490000Y-91940000D02*
X144410000Y-91940000D01*
X144410000Y-91940000D02*
X144410000Y-89080000D01*
X142490000Y-83125000D02*
X142490000Y-85985000D01*
X142490000Y-85985000D02*
X144410000Y-85985000D01*
X144410000Y-85985000D02*
X144410000Y-83125000D01*
X160740000Y-65150000D02*
X160740000Y-68010000D01*
X160740000Y-68010000D02*
X162660000Y-68010000D01*
X162660000Y-68010000D02*
X162660000Y-65150000D01*
X158506666Y-65150000D02*
X158506666Y-68010000D01*
X158506666Y-68010000D02*
X160426666Y-68010000D01*
X160426666Y-68010000D02*
X160426666Y-65150000D01*
X156273333Y-65150000D02*
X156273333Y-68010000D01*
X156273333Y-68010000D02*
X158193333Y-68010000D01*
X158193333Y-68010000D02*
X158193333Y-65150000D01*
X154200000Y-65150000D02*
X154200000Y-68010000D01*
X154200000Y-68010000D02*
X156120000Y-68010000D01*
X156120000Y-68010000D02*
X156120000Y-65150000D01*
D11*
X155550000Y-82375000D02*
X155550000Y-82100000D01*
X155550000Y-82100000D02*
X155275000Y-81725000D01*
X155275000Y-81725000D02*
X155225000Y-81725000D01*
X155225000Y-81725000D02*
X155225000Y-80950000D01*
X152250000Y-82200000D02*
X152250000Y-81725000D01*
X152250000Y-81725000D02*
X152600000Y-81725000D01*
X152475000Y-83375000D02*
X152600000Y-83375000D01*
X152550000Y-83375000D02*
X152250000Y-83375000D01*
X152250000Y-83375000D02*
X152250000Y-82925000D01*
X155550000Y-83000000D02*
X155550000Y-83375000D01*
X155550000Y-83375000D02*
X155250000Y-83375000D01*
D13*
X149497500Y-50288748D02*
X149497500Y-51711252D01*
X146777500Y-50288748D02*
X146777500Y-51711252D01*
X129061252Y-60585000D02*
X128538748Y-60585000D01*
X129061252Y-59115000D02*
X128538748Y-59115000D01*
D10*
X173152380Y-46033333D02*
X173866666Y-46033333D01*
X174009523Y-46080952D01*
X174104761Y-46176190D01*
X174152380Y-46319047D01*
X174152380Y-46414285D01*
X174152380Y-45033333D02*
X174152380Y-45604761D01*
X174152380Y-45319047D02*
X173152380Y-45319047D01*
X173295238Y-45414285D01*
X173390476Y-45509523D01*
X173438095Y-45604761D01*
X173533142Y-53403428D02*
X173533142Y-52260571D01*
X173533142Y-48153428D02*
X173533142Y-47010571D01*
X174104571Y-47582000D02*
X172961714Y-47582000D01*
X133357142Y-72571428D02*
X133357142Y-71971428D01*
X133500000Y-71971428D01*
X133585714Y-72000000D01*
X133642857Y-72057142D01*
X133671428Y-72114285D01*
X133700000Y-72228571D01*
X133700000Y-72314285D01*
X133671428Y-72428571D01*
X133642857Y-72485714D01*
X133585714Y-72542857D01*
X133500000Y-72571428D01*
X133357142Y-72571428D01*
X134214285Y-71971428D02*
X134100000Y-71971428D01*
X134042857Y-72000000D01*
X134014285Y-72028571D01*
X133957142Y-72114285D01*
X133928571Y-72228571D01*
X133928571Y-72457142D01*
X133957142Y-72514285D01*
X133985714Y-72542857D01*
X134042857Y-72571428D01*
X134157142Y-72571428D01*
X134214285Y-72542857D01*
X134242857Y-72514285D01*
X134271428Y-72457142D01*
X134271428Y-72314285D01*
X134242857Y-72257142D01*
X134214285Y-72228571D01*
X134157142Y-72200000D01*
X134042857Y-72200000D01*
X133985714Y-72228571D01*
X133957142Y-72257142D01*
X133928571Y-72314285D01*
X155557142Y-75742857D02*
X155604761Y-75790476D01*
X155652380Y-75933333D01*
X155652380Y-76028571D01*
X155604761Y-76171428D01*
X155509523Y-76266666D01*
X155414285Y-76314285D01*
X155223809Y-76361904D01*
X155080952Y-76361904D01*
X154890476Y-76314285D01*
X154795238Y-76266666D01*
X154700000Y-76171428D01*
X154652380Y-76028571D01*
X154652380Y-75933333D01*
X154700000Y-75790476D01*
X154747619Y-75742857D01*
X154652380Y-75409523D02*
X154652380Y-74790476D01*
X155033333Y-75123809D01*
X155033333Y-74980952D01*
X155080952Y-74885714D01*
X155128571Y-74838095D01*
X155223809Y-74790476D01*
X155461904Y-74790476D01*
X155557142Y-74838095D01*
X155604761Y-74885714D01*
X155652380Y-74980952D01*
X155652380Y-75266666D01*
X155604761Y-75361904D01*
X155557142Y-75409523D01*
X155652380Y-73838095D02*
X155652380Y-74409523D01*
X155652380Y-74123809D02*
X154652380Y-74123809D01*
X154795238Y-74219047D01*
X154890476Y-74314285D01*
X154938095Y-74409523D01*
X159355714Y-51515714D02*
X159317619Y-51553809D01*
X159203333Y-51591904D01*
X159127142Y-51591904D01*
X159012857Y-51553809D01*
X158936666Y-51477619D01*
X158898571Y-51401428D01*
X158860476Y-51249047D01*
X158860476Y-51134761D01*
X158898571Y-50982380D01*
X158936666Y-50906190D01*
X159012857Y-50830000D01*
X159127142Y-50791904D01*
X159203333Y-50791904D01*
X159317619Y-50830000D01*
X159355714Y-50868095D01*
X159660476Y-50868095D02*
X159698571Y-50830000D01*
X159774761Y-50791904D01*
X159965238Y-50791904D01*
X160041428Y-50830000D01*
X160079523Y-50868095D01*
X160117619Y-50944285D01*
X160117619Y-51020476D01*
X160079523Y-51134761D01*
X159622380Y-51591904D01*
X160117619Y-51591904D01*
X160841428Y-50791904D02*
X160460476Y-50791904D01*
X160422380Y-51172857D01*
X160460476Y-51134761D01*
X160536666Y-51096666D01*
X160727142Y-51096666D01*
X160803333Y-51134761D01*
X160841428Y-51172857D01*
X160879523Y-51249047D01*
X160879523Y-51439523D01*
X160841428Y-51515714D01*
X160803333Y-51553809D01*
X160727142Y-51591904D01*
X160536666Y-51591904D01*
X160460476Y-51553809D01*
X160422380Y-51515714D01*
X155085714Y-88564285D02*
X155123809Y-88602380D01*
X155161904Y-88716666D01*
X155161904Y-88792857D01*
X155123809Y-88907142D01*
X155047619Y-88983333D01*
X154971428Y-89021428D01*
X154819047Y-89059523D01*
X154704761Y-89059523D01*
X154552380Y-89021428D01*
X154476190Y-88983333D01*
X154400000Y-88907142D01*
X154361904Y-88792857D01*
X154361904Y-88716666D01*
X154400000Y-88602380D01*
X154438095Y-88564285D01*
X155161904Y-87802380D02*
X155161904Y-88259523D01*
X155161904Y-88030952D02*
X154361904Y-88030952D01*
X154476190Y-88107142D01*
X154552380Y-88183333D01*
X154590476Y-88259523D01*
X154361904Y-87535714D02*
X154361904Y-87040476D01*
X154666666Y-87307142D01*
X154666666Y-87192857D01*
X154704761Y-87116666D01*
X154742857Y-87078571D01*
X154819047Y-87040476D01*
X155009523Y-87040476D01*
X155085714Y-87078571D01*
X155123809Y-87116666D01*
X155161904Y-87192857D01*
X155161904Y-87421428D01*
X155123809Y-87497619D01*
X155085714Y-87535714D01*
X157402380Y-62544285D02*
X156402380Y-62544285D01*
X156402380Y-62306190D01*
X156450000Y-62163333D01*
X156545238Y-62068095D01*
X156640476Y-62020476D01*
X156830952Y-61972857D01*
X156973809Y-61972857D01*
X157164285Y-62020476D01*
X157259523Y-62068095D01*
X157354761Y-62163333D01*
X157402380Y-62306190D01*
X157402380Y-62544285D01*
X157402380Y-61020476D02*
X157402380Y-61591904D01*
X157402380Y-61306190D02*
X156402380Y-61306190D01*
X156545238Y-61401428D01*
X156640476Y-61496666D01*
X156688095Y-61591904D01*
X156402380Y-60401428D02*
X156402380Y-60306190D01*
X156450000Y-60210952D01*
X156497619Y-60163333D01*
X156592857Y-60115714D01*
X156783333Y-60068095D01*
X157021428Y-60068095D01*
X157211904Y-60115714D01*
X157307142Y-60163333D01*
X157354761Y-60210952D01*
X157402380Y-60306190D01*
X157402380Y-60401428D01*
X157354761Y-60496666D01*
X157307142Y-60544285D01*
X157211904Y-60591904D01*
X157021428Y-60639523D01*
X156783333Y-60639523D01*
X156592857Y-60591904D01*
X156497619Y-60544285D01*
X156450000Y-60496666D01*
X156402380Y-60401428D01*
X147486904Y-54802380D02*
X147486904Y-53802380D01*
X147725000Y-53802380D01*
X147867857Y-53850000D01*
X147963095Y-53945238D01*
X148010714Y-54040476D01*
X148058333Y-54230952D01*
X148058333Y-54373809D01*
X148010714Y-54564285D01*
X147963095Y-54659523D01*
X147867857Y-54754761D01*
X147725000Y-54802380D01*
X147486904Y-54802380D01*
X148629761Y-54230952D02*
X148534523Y-54183333D01*
X148486904Y-54135714D01*
X148439285Y-54040476D01*
X148439285Y-53992857D01*
X148486904Y-53897619D01*
X148534523Y-53850000D01*
X148629761Y-53802380D01*
X148820238Y-53802380D01*
X148915476Y-53850000D01*
X148963095Y-53897619D01*
X149010714Y-53992857D01*
X149010714Y-54040476D01*
X148963095Y-54135714D01*
X148915476Y-54183333D01*
X148820238Y-54230952D01*
X148629761Y-54230952D01*
X148534523Y-54278571D01*
X148486904Y-54326190D01*
X148439285Y-54421428D01*
X148439285Y-54611904D01*
X148486904Y-54707142D01*
X148534523Y-54754761D01*
X148629761Y-54802380D01*
X148820238Y-54802380D01*
X148915476Y-54754761D01*
X148963095Y-54707142D01*
X149010714Y-54611904D01*
X149010714Y-54421428D01*
X148963095Y-54326190D01*
X148915476Y-54278571D01*
X148820238Y-54230952D01*
X173452380Y-59933333D02*
X174166666Y-59933333D01*
X174309523Y-59980952D01*
X174404761Y-60076190D01*
X174452380Y-60219047D01*
X174452380Y-60314285D01*
X173452380Y-59552380D02*
X173452380Y-58933333D01*
X173833333Y-59266666D01*
X173833333Y-59123809D01*
X173880952Y-59028571D01*
X173928571Y-58980952D01*
X174023809Y-58933333D01*
X174261904Y-58933333D01*
X174357142Y-58980952D01*
X174404761Y-59028571D01*
X174452380Y-59123809D01*
X174452380Y-59409523D01*
X174404761Y-59504761D01*
X174357142Y-59552380D01*
X159583333Y-63852380D02*
X159250000Y-63376190D01*
X159011904Y-63852380D02*
X159011904Y-62852380D01*
X159392857Y-62852380D01*
X159488095Y-62900000D01*
X159535714Y-62947619D01*
X159583333Y-63042857D01*
X159583333Y-63185714D01*
X159535714Y-63280952D01*
X159488095Y-63328571D01*
X159392857Y-63376190D01*
X159011904Y-63376190D01*
X160488095Y-62852380D02*
X160011904Y-62852380D01*
X159964285Y-63328571D01*
X160011904Y-63280952D01*
X160107142Y-63233333D01*
X160345238Y-63233333D01*
X160440476Y-63280952D01*
X160488095Y-63328571D01*
X160535714Y-63423809D01*
X160535714Y-63661904D01*
X160488095Y-63757142D01*
X160440476Y-63804761D01*
X160345238Y-63852380D01*
X160107142Y-63852380D01*
X160011904Y-63804761D01*
X159964285Y-63757142D01*
X157613333Y-63852380D02*
X157280000Y-63376190D01*
X157041904Y-63852380D02*
X157041904Y-62852380D01*
X157422857Y-62852380D01*
X157518095Y-62900000D01*
X157565714Y-62947619D01*
X157613333Y-63042857D01*
X157613333Y-63185714D01*
X157565714Y-63280952D01*
X157518095Y-63328571D01*
X157422857Y-63376190D01*
X157041904Y-63376190D01*
X158470476Y-63185714D02*
X158470476Y-63852380D01*
X158232380Y-62804761D02*
X157994285Y-63519047D01*
X158613333Y-63519047D01*
X125964285Y-71764285D02*
X125935714Y-71792857D01*
X125850000Y-71821428D01*
X125792857Y-71821428D01*
X125707142Y-71792857D01*
X125650000Y-71735714D01*
X125621428Y-71678571D01*
X125592857Y-71564285D01*
X125592857Y-71478571D01*
X125621428Y-71364285D01*
X125650000Y-71307142D01*
X125707142Y-71250000D01*
X125792857Y-71221428D01*
X125850000Y-71221428D01*
X125935714Y-71250000D01*
X125964285Y-71278571D01*
X126192857Y-71278571D02*
X126221428Y-71250000D01*
X126278571Y-71221428D01*
X126421428Y-71221428D01*
X126478571Y-71250000D01*
X126507142Y-71278571D01*
X126535714Y-71335714D01*
X126535714Y-71392857D01*
X126507142Y-71478571D01*
X126164285Y-71821428D01*
X126535714Y-71821428D01*
X126907142Y-71221428D02*
X126964285Y-71221428D01*
X127021428Y-71250000D01*
X127050000Y-71278571D01*
X127078571Y-71335714D01*
X127107142Y-71450000D01*
X127107142Y-71592857D01*
X127078571Y-71707142D01*
X127050000Y-71764285D01*
X127021428Y-71792857D01*
X126964285Y-71821428D01*
X126907142Y-71821428D01*
X126850000Y-71792857D01*
X126821428Y-71764285D01*
X126792857Y-71707142D01*
X126764285Y-71592857D01*
X126764285Y-71450000D01*
X126792857Y-71335714D01*
X126821428Y-71278571D01*
X126850000Y-71250000D01*
X126907142Y-71221428D01*
X156548095Y-58732380D02*
X156548095Y-59541904D01*
X156595714Y-59637142D01*
X156643333Y-59684761D01*
X156738571Y-59732380D01*
X156929047Y-59732380D01*
X157024285Y-59684761D01*
X157071904Y-59637142D01*
X157119523Y-59541904D01*
X157119523Y-58732380D01*
X157500476Y-58732380D02*
X158167142Y-58732380D01*
X157738571Y-59732380D01*
X162371428Y-56985714D02*
X162085714Y-57185714D01*
X162371428Y-57328571D02*
X161771428Y-57328571D01*
X161771428Y-57100000D01*
X161800000Y-57042857D01*
X161828571Y-57014285D01*
X161885714Y-56985714D01*
X161971428Y-56985714D01*
X162028571Y-57014285D01*
X162057142Y-57042857D01*
X162085714Y-57100000D01*
X162085714Y-57328571D01*
X162371428Y-56414285D02*
X162371428Y-56757142D01*
X162371428Y-56585714D02*
X161771428Y-56585714D01*
X161857142Y-56642857D01*
X161914285Y-56700000D01*
X161942857Y-56757142D01*
X162028571Y-56071428D02*
X162000000Y-56128571D01*
X161971428Y-56157142D01*
X161914285Y-56185714D01*
X161885714Y-56185714D01*
X161828571Y-56157142D01*
X161800000Y-56128571D01*
X161771428Y-56071428D01*
X161771428Y-55957142D01*
X161800000Y-55900000D01*
X161828571Y-55871428D01*
X161885714Y-55842857D01*
X161914285Y-55842857D01*
X161971428Y-55871428D01*
X162000000Y-55900000D01*
X162028571Y-55957142D01*
X162028571Y-56071428D01*
X162057142Y-56128571D01*
X162085714Y-56157142D01*
X162142857Y-56185714D01*
X162257142Y-56185714D01*
X162314285Y-56157142D01*
X162342857Y-56128571D01*
X162371428Y-56071428D01*
X162371428Y-55957142D01*
X162342857Y-55900000D01*
X162314285Y-55871428D01*
X162257142Y-55842857D01*
X162142857Y-55842857D01*
X162085714Y-55871428D01*
X162057142Y-55900000D01*
X162028571Y-55957142D01*
X163271428Y-56985714D02*
X162985714Y-57185714D01*
X163271428Y-57328571D02*
X162671428Y-57328571D01*
X162671428Y-57100000D01*
X162700000Y-57042857D01*
X162728571Y-57014285D01*
X162785714Y-56985714D01*
X162871428Y-56985714D01*
X162928571Y-57014285D01*
X162957142Y-57042857D01*
X162985714Y-57100000D01*
X162985714Y-57328571D01*
X163271428Y-56414285D02*
X163271428Y-56757142D01*
X163271428Y-56585714D02*
X162671428Y-56585714D01*
X162757142Y-56642857D01*
X162814285Y-56700000D01*
X162842857Y-56757142D01*
X162671428Y-56214285D02*
X162671428Y-55814285D01*
X163271428Y-56071428D01*
X166940000Y-57601428D02*
X166740000Y-57315714D01*
X166597142Y-57601428D02*
X166597142Y-57001428D01*
X166825714Y-57001428D01*
X166882857Y-57030000D01*
X166911428Y-57058571D01*
X166940000Y-57115714D01*
X166940000Y-57201428D01*
X166911428Y-57258571D01*
X166882857Y-57287142D01*
X166825714Y-57315714D01*
X166597142Y-57315714D01*
X167168571Y-57058571D02*
X167197142Y-57030000D01*
X167254285Y-57001428D01*
X167397142Y-57001428D01*
X167454285Y-57030000D01*
X167482857Y-57058571D01*
X167511428Y-57115714D01*
X167511428Y-57172857D01*
X167482857Y-57258571D01*
X167140000Y-57601428D01*
X167511428Y-57601428D01*
X166950000Y-56221428D02*
X166750000Y-55935714D01*
X166607142Y-56221428D02*
X166607142Y-55621428D01*
X166835714Y-55621428D01*
X166892857Y-55650000D01*
X166921428Y-55678571D01*
X166950000Y-55735714D01*
X166950000Y-55821428D01*
X166921428Y-55878571D01*
X166892857Y-55907142D01*
X166835714Y-55935714D01*
X166607142Y-55935714D01*
X167521428Y-56221428D02*
X167178571Y-56221428D01*
X167350000Y-56221428D02*
X167350000Y-55621428D01*
X167292857Y-55707142D01*
X167235714Y-55764285D01*
X167178571Y-55792857D01*
X153636666Y-59071904D02*
X153255714Y-59071904D01*
X153255714Y-58271904D01*
X154322380Y-59071904D02*
X153865238Y-59071904D01*
X154093809Y-59071904D02*
X154093809Y-58271904D01*
X154017619Y-58386190D01*
X153941428Y-58462380D01*
X153865238Y-58500476D01*
X166762380Y-55008095D02*
X165762380Y-55008095D01*
X165762380Y-54770000D01*
X165810000Y-54627142D01*
X165905238Y-54531904D01*
X166000476Y-54484285D01*
X166190952Y-54436666D01*
X166333809Y-54436666D01*
X166524285Y-54484285D01*
X166619523Y-54531904D01*
X166714761Y-54627142D01*
X166762380Y-54770000D01*
X166762380Y-55008095D01*
X165762380Y-54103333D02*
X165762380Y-53484285D01*
X166143333Y-53817619D01*
X166143333Y-53674761D01*
X166190952Y-53579523D01*
X166238571Y-53531904D01*
X166333809Y-53484285D01*
X166571904Y-53484285D01*
X166667142Y-53531904D01*
X166714761Y-53579523D01*
X166762380Y-53674761D01*
X166762380Y-53960476D01*
X166714761Y-54055714D01*
X166667142Y-54103333D01*
X145447142Y-59942857D02*
X145494761Y-59990476D01*
X145542380Y-60133333D01*
X145542380Y-60228571D01*
X145494761Y-60371428D01*
X145399523Y-60466666D01*
X145304285Y-60514285D01*
X145113809Y-60561904D01*
X144970952Y-60561904D01*
X144780476Y-60514285D01*
X144685238Y-60466666D01*
X144590000Y-60371428D01*
X144542380Y-60228571D01*
X144542380Y-60133333D01*
X144590000Y-59990476D01*
X144637619Y-59942857D01*
X144637619Y-59561904D02*
X144590000Y-59514285D01*
X144542380Y-59419047D01*
X144542380Y-59180952D01*
X144590000Y-59085714D01*
X144637619Y-59038095D01*
X144732857Y-58990476D01*
X144828095Y-58990476D01*
X144970952Y-59038095D01*
X145542380Y-59609523D01*
X145542380Y-58990476D01*
X144542380Y-58657142D02*
X144542380Y-58038095D01*
X144923333Y-58371428D01*
X144923333Y-58228571D01*
X144970952Y-58133333D01*
X145018571Y-58085714D01*
X145113809Y-58038095D01*
X145351904Y-58038095D01*
X145447142Y-58085714D01*
X145494761Y-58133333D01*
X145542380Y-58228571D01*
X145542380Y-58514285D01*
X145494761Y-58609523D01*
X145447142Y-58657142D01*
X155723333Y-51677142D02*
X155675714Y-51724761D01*
X155532857Y-51772380D01*
X155437619Y-51772380D01*
X155294761Y-51724761D01*
X155199523Y-51629523D01*
X155151904Y-51534285D01*
X155104285Y-51343809D01*
X155104285Y-51200952D01*
X155151904Y-51010476D01*
X155199523Y-50915238D01*
X155294761Y-50820000D01*
X155437619Y-50772380D01*
X155532857Y-50772380D01*
X155675714Y-50820000D01*
X155723333Y-50867619D01*
X156056666Y-50772380D02*
X156723333Y-50772380D01*
X156294761Y-51772380D01*
X151853333Y-51677142D02*
X151805714Y-51724761D01*
X151662857Y-51772380D01*
X151567619Y-51772380D01*
X151424761Y-51724761D01*
X151329523Y-51629523D01*
X151281904Y-51534285D01*
X151234285Y-51343809D01*
X151234285Y-51200952D01*
X151281904Y-51010476D01*
X151329523Y-50915238D01*
X151424761Y-50820000D01*
X151567619Y-50772380D01*
X151662857Y-50772380D01*
X151805714Y-50820000D01*
X151853333Y-50867619D01*
X152710476Y-50772380D02*
X152520000Y-50772380D01*
X152424761Y-50820000D01*
X152377142Y-50867619D01*
X152281904Y-51010476D01*
X152234285Y-51200952D01*
X152234285Y-51581904D01*
X152281904Y-51677142D01*
X152329523Y-51724761D01*
X152424761Y-51772380D01*
X152615238Y-51772380D01*
X152710476Y-51724761D01*
X152758095Y-51677142D01*
X152805714Y-51581904D01*
X152805714Y-51343809D01*
X152758095Y-51248571D01*
X152710476Y-51200952D01*
X152615238Y-51153333D01*
X152424761Y-51153333D01*
X152329523Y-51200952D01*
X152281904Y-51248571D01*
X152234285Y-51343809D01*
X154702380Y-80009523D02*
X155702380Y-79342857D01*
X154702380Y-79342857D02*
X155702380Y-80009523D01*
X155702380Y-78438095D02*
X155702380Y-79009523D01*
X155702380Y-78723809D02*
X154702380Y-78723809D01*
X154845238Y-78819047D01*
X154940476Y-78914285D01*
X154988095Y-79009523D01*
X148486904Y-80302380D02*
X148486904Y-81111904D01*
X148534523Y-81207142D01*
X148582142Y-81254761D01*
X148677380Y-81302380D01*
X148867857Y-81302380D01*
X148963095Y-81254761D01*
X149010714Y-81207142D01*
X149058333Y-81111904D01*
X149058333Y-80302380D01*
X150058333Y-81302380D02*
X149486904Y-81302380D01*
X149772619Y-81302380D02*
X149772619Y-80302380D01*
X149677380Y-80445238D01*
X149582142Y-80540476D01*
X149486904Y-80588095D01*
X150677380Y-80302380D02*
X150772619Y-80302380D01*
X150867857Y-80350000D01*
X150915476Y-80397619D01*
X150963095Y-80492857D01*
X151010714Y-80683333D01*
X151010714Y-80921428D01*
X150963095Y-81111904D01*
X150915476Y-81207142D01*
X150867857Y-81254761D01*
X150772619Y-81302380D01*
X150677380Y-81302380D01*
X150582142Y-81254761D01*
X150534523Y-81207142D01*
X150486904Y-81111904D01*
X150439285Y-80921428D01*
X150439285Y-80683333D01*
X150486904Y-80492857D01*
X150534523Y-80397619D01*
X150582142Y-80350000D01*
X150677380Y-80302380D01*
X162666666Y-71254761D02*
X162809523Y-71302380D01*
X163047619Y-71302380D01*
X163142857Y-71254761D01*
X163190476Y-71207142D01*
X163238095Y-71111904D01*
X163238095Y-71016666D01*
X163190476Y-70921428D01*
X163142857Y-70873809D01*
X163047619Y-70826190D01*
X162857142Y-70778571D01*
X162761904Y-70730952D01*
X162714285Y-70683333D01*
X162666666Y-70588095D01*
X162666666Y-70492857D01*
X162714285Y-70397619D01*
X162761904Y-70350000D01*
X162857142Y-70302380D01*
X163095238Y-70302380D01*
X163238095Y-70350000D01*
X163571428Y-70302380D02*
X163809523Y-71302380D01*
X164000000Y-70588095D01*
X164190476Y-71302380D01*
X164428571Y-70302380D01*
X164761904Y-70397619D02*
X164809523Y-70350000D01*
X164904761Y-70302380D01*
X165142857Y-70302380D01*
X165238095Y-70350000D01*
X165285714Y-70397619D01*
X165333333Y-70492857D01*
X165333333Y-70588095D01*
X165285714Y-70730952D01*
X164714285Y-71302380D01*
X165333333Y-71302380D01*
X159211904Y-87714285D02*
X158830952Y-87980952D01*
X159211904Y-88171428D02*
X158411904Y-88171428D01*
X158411904Y-87866666D01*
X158450000Y-87790476D01*
X158488095Y-87752380D01*
X158564285Y-87714285D01*
X158678571Y-87714285D01*
X158754761Y-87752380D01*
X158792857Y-87790476D01*
X158830952Y-87866666D01*
X158830952Y-88171428D01*
X158411904Y-87447619D02*
X158411904Y-86952380D01*
X158716666Y-87219047D01*
X158716666Y-87104761D01*
X158754761Y-87028571D01*
X158792857Y-86990476D01*
X158869047Y-86952380D01*
X159059523Y-86952380D01*
X159135714Y-86990476D01*
X159173809Y-87028571D01*
X159211904Y-87104761D01*
X159211904Y-87333333D01*
X159173809Y-87409523D01*
X159135714Y-87447619D01*
X158488095Y-86647619D02*
X158450000Y-86609523D01*
X158411904Y-86533333D01*
X158411904Y-86342857D01*
X158450000Y-86266666D01*
X158488095Y-86228571D01*
X158564285Y-86190476D01*
X158640476Y-86190476D01*
X158754761Y-86228571D01*
X159211904Y-86685714D01*
X159211904Y-86190476D01*
X158235714Y-82386904D02*
X157969047Y-82005952D01*
X157778571Y-82386904D02*
X157778571Y-81586904D01*
X158083333Y-81586904D01*
X158159523Y-81625000D01*
X158197619Y-81663095D01*
X158235714Y-81739285D01*
X158235714Y-81853571D01*
X158197619Y-81929761D01*
X158159523Y-81967857D01*
X158083333Y-82005952D01*
X157778571Y-82005952D01*
X158502380Y-81586904D02*
X158997619Y-81586904D01*
X158730952Y-81891666D01*
X158845238Y-81891666D01*
X158921428Y-81929761D01*
X158959523Y-81967857D01*
X158997619Y-82044047D01*
X158997619Y-82234523D01*
X158959523Y-82310714D01*
X158921428Y-82348809D01*
X158845238Y-82386904D01*
X158616666Y-82386904D01*
X158540476Y-82348809D01*
X158502380Y-82310714D01*
X159759523Y-82386904D02*
X159302380Y-82386904D01*
X159530952Y-82386904D02*
X159530952Y-81586904D01*
X159454761Y-81701190D01*
X159378571Y-81777380D01*
X159302380Y-81815476D01*
X147210714Y-64886904D02*
X146944047Y-64505952D01*
X146753571Y-64886904D02*
X146753571Y-64086904D01*
X147058333Y-64086904D01*
X147134523Y-64125000D01*
X147172619Y-64163095D01*
X147210714Y-64239285D01*
X147210714Y-64353571D01*
X147172619Y-64429761D01*
X147134523Y-64467857D01*
X147058333Y-64505952D01*
X146753571Y-64505952D01*
X147515476Y-64163095D02*
X147553571Y-64125000D01*
X147629761Y-64086904D01*
X147820238Y-64086904D01*
X147896428Y-64125000D01*
X147934523Y-64163095D01*
X147972619Y-64239285D01*
X147972619Y-64315476D01*
X147934523Y-64429761D01*
X147477380Y-64886904D01*
X147972619Y-64886904D01*
X148658333Y-64353571D02*
X148658333Y-64886904D01*
X148467857Y-64048809D02*
X148277380Y-64620238D01*
X148772619Y-64620238D01*
X150360714Y-64861904D02*
X150094047Y-64480952D01*
X149903571Y-64861904D02*
X149903571Y-64061904D01*
X150208333Y-64061904D01*
X150284523Y-64100000D01*
X150322619Y-64138095D01*
X150360714Y-64214285D01*
X150360714Y-64328571D01*
X150322619Y-64404761D01*
X150284523Y-64442857D01*
X150208333Y-64480952D01*
X149903571Y-64480952D01*
X150665476Y-64138095D02*
X150703571Y-64100000D01*
X150779761Y-64061904D01*
X150970238Y-64061904D01*
X151046428Y-64100000D01*
X151084523Y-64138095D01*
X151122619Y-64214285D01*
X151122619Y-64290476D01*
X151084523Y-64404761D01*
X150627380Y-64861904D01*
X151122619Y-64861904D01*
X151389285Y-64061904D02*
X151884523Y-64061904D01*
X151617857Y-64366666D01*
X151732142Y-64366666D01*
X151808333Y-64404761D01*
X151846428Y-64442857D01*
X151884523Y-64519047D01*
X151884523Y-64709523D01*
X151846428Y-64785714D01*
X151808333Y-64823809D01*
X151732142Y-64861904D01*
X151503571Y-64861904D01*
X151427380Y-64823809D01*
X151389285Y-64785714D01*
X134607142Y-79152380D02*
X134273809Y-78676190D01*
X134035714Y-79152380D02*
X134035714Y-78152380D01*
X134416666Y-78152380D01*
X134511904Y-78200000D01*
X134559523Y-78247619D01*
X134607142Y-78342857D01*
X134607142Y-78485714D01*
X134559523Y-78580952D01*
X134511904Y-78628571D01*
X134416666Y-78676190D01*
X134035714Y-78676190D01*
X135559523Y-79152380D02*
X134988095Y-79152380D01*
X135273809Y-79152380D02*
X135273809Y-78152380D01*
X135178571Y-78295238D01*
X135083333Y-78390476D01*
X134988095Y-78438095D01*
X136416666Y-78152380D02*
X136226190Y-78152380D01*
X136130952Y-78200000D01*
X136083333Y-78247619D01*
X135988095Y-78390476D01*
X135940476Y-78580952D01*
X135940476Y-78961904D01*
X135988095Y-79057142D01*
X136035714Y-79104761D01*
X136130952Y-79152380D01*
X136321428Y-79152380D01*
X136416666Y-79104761D01*
X136464285Y-79057142D01*
X136511904Y-78961904D01*
X136511904Y-78723809D01*
X136464285Y-78628571D01*
X136416666Y-78580952D01*
X136321428Y-78533333D01*
X136130952Y-78533333D01*
X136035714Y-78580952D01*
X135988095Y-78628571D01*
X135940476Y-78723809D01*
X134557142Y-75102380D02*
X134223809Y-74626190D01*
X133985714Y-75102380D02*
X133985714Y-74102380D01*
X134366666Y-74102380D01*
X134461904Y-74150000D01*
X134509523Y-74197619D01*
X134557142Y-74292857D01*
X134557142Y-74435714D01*
X134509523Y-74530952D01*
X134461904Y-74578571D01*
X134366666Y-74626190D01*
X133985714Y-74626190D01*
X135509523Y-75102380D02*
X134938095Y-75102380D01*
X135223809Y-75102380D02*
X135223809Y-74102380D01*
X135128571Y-74245238D01*
X135033333Y-74340476D01*
X134938095Y-74388095D01*
X136414285Y-74102380D02*
X135938095Y-74102380D01*
X135890476Y-74578571D01*
X135938095Y-74530952D01*
X136033333Y-74483333D01*
X136271428Y-74483333D01*
X136366666Y-74530952D01*
X136414285Y-74578571D01*
X136461904Y-74673809D01*
X136461904Y-74911904D01*
X136414285Y-75007142D01*
X136366666Y-75054761D01*
X136271428Y-75102380D01*
X136033333Y-75102380D01*
X135938095Y-75054761D01*
X135890476Y-75007142D01*
X168083333Y-65882380D02*
X167750000Y-65406190D01*
X167511904Y-65882380D02*
X167511904Y-64882380D01*
X167892857Y-64882380D01*
X167988095Y-64930000D01*
X168035714Y-64977619D01*
X168083333Y-65072857D01*
X168083333Y-65215714D01*
X168035714Y-65310952D01*
X167988095Y-65358571D01*
X167892857Y-65406190D01*
X167511904Y-65406190D01*
X168559523Y-65882380D02*
X168750000Y-65882380D01*
X168845238Y-65834761D01*
X168892857Y-65787142D01*
X168988095Y-65644285D01*
X169035714Y-65453809D01*
X169035714Y-65072857D01*
X168988095Y-64977619D01*
X168940476Y-64930000D01*
X168845238Y-64882380D01*
X168654761Y-64882380D01*
X168559523Y-64930000D01*
X168511904Y-64977619D01*
X168464285Y-65072857D01*
X168464285Y-65310952D01*
X168511904Y-65406190D01*
X168559523Y-65453809D01*
X168654761Y-65501428D01*
X168845238Y-65501428D01*
X168940476Y-65453809D01*
X168988095Y-65406190D01*
X169035714Y-65310952D01*
X146427380Y-84641666D02*
X145951190Y-84975000D01*
X146427380Y-85213095D02*
X145427380Y-85213095D01*
X145427380Y-84832142D01*
X145475000Y-84736904D01*
X145522619Y-84689285D01*
X145617857Y-84641666D01*
X145760714Y-84641666D01*
X145855952Y-84689285D01*
X145903571Y-84736904D01*
X145951190Y-84832142D01*
X145951190Y-85213095D01*
X145855952Y-84070238D02*
X145808333Y-84165476D01*
X145760714Y-84213095D01*
X145665476Y-84260714D01*
X145617857Y-84260714D01*
X145522619Y-84213095D01*
X145475000Y-84165476D01*
X145427380Y-84070238D01*
X145427380Y-83879761D01*
X145475000Y-83784523D01*
X145522619Y-83736904D01*
X145617857Y-83689285D01*
X145665476Y-83689285D01*
X145760714Y-83736904D01*
X145808333Y-83784523D01*
X145855952Y-83879761D01*
X145855952Y-84070238D01*
X145903571Y-84165476D01*
X145951190Y-84213095D01*
X146046428Y-84260714D01*
X146236904Y-84260714D01*
X146332142Y-84213095D01*
X146379761Y-84165476D01*
X146427380Y-84070238D01*
X146427380Y-83879761D01*
X146379761Y-83784523D01*
X146332142Y-83736904D01*
X146236904Y-83689285D01*
X146046428Y-83689285D01*
X145951190Y-83736904D01*
X145903571Y-83784523D01*
X145855952Y-83879761D01*
X126627380Y-53066666D02*
X126151190Y-53400000D01*
X126627380Y-53638095D02*
X125627380Y-53638095D01*
X125627380Y-53257142D01*
X125675000Y-53161904D01*
X125722619Y-53114285D01*
X125817857Y-53066666D01*
X125960714Y-53066666D01*
X126055952Y-53114285D01*
X126103571Y-53161904D01*
X126151190Y-53257142D01*
X126151190Y-53638095D01*
X125627380Y-52733333D02*
X125627380Y-52114285D01*
X126008333Y-52447619D01*
X126008333Y-52304761D01*
X126055952Y-52209523D01*
X126103571Y-52161904D01*
X126198809Y-52114285D01*
X126436904Y-52114285D01*
X126532142Y-52161904D01*
X126579761Y-52209523D01*
X126627380Y-52304761D01*
X126627380Y-52590476D01*
X126579761Y-52685714D01*
X126532142Y-52733333D01*
X126479761Y-43372619D02*
X126384523Y-43325000D01*
X126289285Y-43229761D01*
X126146428Y-43086904D01*
X126051190Y-43039285D01*
X125955952Y-43039285D01*
X126003571Y-43277380D02*
X125908333Y-43229761D01*
X125813095Y-43134523D01*
X125765476Y-42944047D01*
X125765476Y-42610714D01*
X125813095Y-42420238D01*
X125908333Y-42325000D01*
X126003571Y-42277380D01*
X126194047Y-42277380D01*
X126289285Y-42325000D01*
X126384523Y-42420238D01*
X126432142Y-42610714D01*
X126432142Y-42944047D01*
X126384523Y-43134523D01*
X126289285Y-43229761D01*
X126194047Y-43277380D01*
X126003571Y-43277380D01*
X127384523Y-43277380D02*
X126813095Y-43277380D01*
X127098809Y-43277380D02*
X127098809Y-42277380D01*
X127003571Y-42420238D01*
X126908333Y-42515476D01*
X126813095Y-42563095D01*
X144752380Y-52633333D02*
X145466666Y-52633333D01*
X145609523Y-52680952D01*
X145704761Y-52776190D01*
X145752380Y-52919047D01*
X145752380Y-53014285D01*
X144752380Y-51728571D02*
X144752380Y-51919047D01*
X144800000Y-52014285D01*
X144847619Y-52061904D01*
X144990476Y-52157142D01*
X145180952Y-52204761D01*
X145561904Y-52204761D01*
X145657142Y-52157142D01*
X145704761Y-52109523D01*
X145752380Y-52014285D01*
X145752380Y-51823809D01*
X145704761Y-51728571D01*
X145657142Y-51680952D01*
X145561904Y-51633333D01*
X145323809Y-51633333D01*
X145228571Y-51680952D01*
X145180952Y-51728571D01*
X145133333Y-51823809D01*
X145133333Y-52014285D01*
X145180952Y-52109523D01*
X145228571Y-52157142D01*
X145323809Y-52204761D01*
X132897380Y-81558333D02*
X133611666Y-81558333D01*
X133754523Y-81605952D01*
X133849761Y-81701190D01*
X133897380Y-81844047D01*
X133897380Y-81939285D01*
X132897380Y-80605952D02*
X132897380Y-81082142D01*
X133373571Y-81129761D01*
X133325952Y-81082142D01*
X133278333Y-80986904D01*
X133278333Y-80748809D01*
X133325952Y-80653571D01*
X133373571Y-80605952D01*
X133468809Y-80558333D01*
X133706904Y-80558333D01*
X133802142Y-80605952D01*
X133849761Y-80653571D01*
X133897380Y-80748809D01*
X133897380Y-80986904D01*
X133849761Y-81082142D01*
X133802142Y-81129761D01*
X172652380Y-87183333D02*
X173366666Y-87183333D01*
X173509523Y-87230952D01*
X173604761Y-87326190D01*
X173652380Y-87469047D01*
X173652380Y-87564285D01*
X172985714Y-86278571D02*
X173652380Y-86278571D01*
X172604761Y-86516666D02*
X173319047Y-86754761D01*
X173319047Y-86135714D01*
X138488095Y-63927380D02*
X138488095Y-62927380D01*
X138488095Y-63403571D02*
X139059523Y-63403571D01*
X139059523Y-63927380D02*
X139059523Y-62927380D01*
X140059523Y-63927380D02*
X139488095Y-63927380D01*
X139773809Y-63927380D02*
X139773809Y-62927380D01*
X139678571Y-63070238D01*
X139583333Y-63165476D01*
X139488095Y-63213095D01*
X158088571Y-62203333D02*
X158088571Y-62536666D01*
X158612380Y-62536666D02*
X157612380Y-62536666D01*
X157612380Y-62060476D01*
X158612380Y-61155714D02*
X158612380Y-61727142D01*
X158612380Y-61441428D02*
X157612380Y-61441428D01*
X157755238Y-61536666D01*
X157850476Y-61631904D01*
X157898095Y-61727142D01*
X155953571Y-88186904D02*
X155953571Y-87386904D01*
X156144047Y-87386904D01*
X156258333Y-87425000D01*
X156334523Y-87501190D01*
X156372619Y-87577380D01*
X156410714Y-87729761D01*
X156410714Y-87844047D01*
X156372619Y-87996428D01*
X156334523Y-88072619D01*
X156258333Y-88148809D01*
X156144047Y-88186904D01*
X155953571Y-88186904D01*
X157172619Y-88186904D02*
X156715476Y-88186904D01*
X156944047Y-88186904D02*
X156944047Y-87386904D01*
X156867857Y-87501190D01*
X156791666Y-87577380D01*
X156715476Y-87615476D01*
X157629761Y-87729761D02*
X157553571Y-87691666D01*
X157515476Y-87653571D01*
X157477380Y-87577380D01*
X157477380Y-87539285D01*
X157515476Y-87463095D01*
X157553571Y-87425000D01*
X157629761Y-87386904D01*
X157782142Y-87386904D01*
X157858333Y-87425000D01*
X157896428Y-87463095D01*
X157934523Y-87539285D01*
X157934523Y-87577380D01*
X157896428Y-87653571D01*
X157858333Y-87691666D01*
X157782142Y-87729761D01*
X157629761Y-87729761D01*
X157553571Y-87767857D01*
X157515476Y-87805952D01*
X157477380Y-87882142D01*
X157477380Y-88034523D01*
X157515476Y-88110714D01*
X157553571Y-88148809D01*
X157629761Y-88186904D01*
X157782142Y-88186904D01*
X157858333Y-88148809D01*
X157896428Y-88110714D01*
X157934523Y-88034523D01*
X157934523Y-87882142D01*
X157896428Y-87805952D01*
X157858333Y-87767857D01*
X157782142Y-87729761D01*
X155978571Y-87086904D02*
X155978571Y-86286904D01*
X156169047Y-86286904D01*
X156283333Y-86325000D01*
X156359523Y-86401190D01*
X156397619Y-86477380D01*
X156435714Y-86629761D01*
X156435714Y-86744047D01*
X156397619Y-86896428D01*
X156359523Y-86972619D01*
X156283333Y-87048809D01*
X156169047Y-87086904D01*
X155978571Y-87086904D01*
X157197619Y-87086904D02*
X156740476Y-87086904D01*
X156969047Y-87086904D02*
X156969047Y-86286904D01*
X156892857Y-86401190D01*
X156816666Y-86477380D01*
X156740476Y-86515476D01*
X157464285Y-86286904D02*
X157997619Y-86286904D01*
X157654761Y-87086904D01*
X142628571Y-87936904D02*
X142628571Y-87136904D01*
X142819047Y-87136904D01*
X142933333Y-87175000D01*
X143009523Y-87251190D01*
X143047619Y-87327380D01*
X143085714Y-87479761D01*
X143085714Y-87594047D01*
X143047619Y-87746428D01*
X143009523Y-87822619D01*
X142933333Y-87898809D01*
X142819047Y-87936904D01*
X142628571Y-87936904D01*
X143847619Y-87936904D02*
X143390476Y-87936904D01*
X143619047Y-87936904D02*
X143619047Y-87136904D01*
X143542857Y-87251190D01*
X143466666Y-87327380D01*
X143390476Y-87365476D01*
X144533333Y-87136904D02*
X144380952Y-87136904D01*
X144304761Y-87175000D01*
X144266666Y-87213095D01*
X144190476Y-87327380D01*
X144152380Y-87479761D01*
X144152380Y-87784523D01*
X144190476Y-87860714D01*
X144228571Y-87898809D01*
X144304761Y-87936904D01*
X144457142Y-87936904D01*
X144533333Y-87898809D01*
X144571428Y-87860714D01*
X144609523Y-87784523D01*
X144609523Y-87594047D01*
X144571428Y-87517857D01*
X144533333Y-87479761D01*
X144457142Y-87441666D01*
X144304761Y-87441666D01*
X144228571Y-87479761D01*
X144190476Y-87517857D01*
X144152380Y-87594047D01*
X142503571Y-82261904D02*
X142503571Y-81461904D01*
X142694047Y-81461904D01*
X142808333Y-81500000D01*
X142884523Y-81576190D01*
X142922619Y-81652380D01*
X142960714Y-81804761D01*
X142960714Y-81919047D01*
X142922619Y-82071428D01*
X142884523Y-82147619D01*
X142808333Y-82223809D01*
X142694047Y-82261904D01*
X142503571Y-82261904D01*
X143722619Y-82261904D02*
X143265476Y-82261904D01*
X143494047Y-82261904D02*
X143494047Y-81461904D01*
X143417857Y-81576190D01*
X143341666Y-81652380D01*
X143265476Y-81690476D01*
X144446428Y-81461904D02*
X144065476Y-81461904D01*
X144027380Y-81842857D01*
X144065476Y-81804761D01*
X144141666Y-81766666D01*
X144332142Y-81766666D01*
X144408333Y-81804761D01*
X144446428Y-81842857D01*
X144484523Y-81919047D01*
X144484523Y-82109523D01*
X144446428Y-82185714D01*
X144408333Y-82223809D01*
X144332142Y-82261904D01*
X144141666Y-82261904D01*
X144065476Y-82223809D01*
X144027380Y-82185714D01*
X152461904Y-80502380D02*
X152461904Y-79502380D01*
X152700000Y-79502380D01*
X152842857Y-79550000D01*
X152938095Y-79645238D01*
X152985714Y-79740476D01*
X153033333Y-79930952D01*
X153033333Y-80073809D01*
X152985714Y-80264285D01*
X152938095Y-80359523D01*
X152842857Y-80454761D01*
X152700000Y-80502380D01*
X152461904Y-80502380D01*
X153890476Y-79835714D02*
X153890476Y-80502380D01*
X153652380Y-79454761D02*
X153414285Y-80169047D01*
X154033333Y-80169047D01*
X147943333Y-51687142D02*
X147895714Y-51734761D01*
X147752857Y-51782380D01*
X147657619Y-51782380D01*
X147514761Y-51734761D01*
X147419523Y-51639523D01*
X147371904Y-51544285D01*
X147324285Y-51353809D01*
X147324285Y-51210952D01*
X147371904Y-51020476D01*
X147419523Y-50925238D01*
X147514761Y-50830000D01*
X147657619Y-50782380D01*
X147752857Y-50782380D01*
X147895714Y-50830000D01*
X147943333Y-50877619D01*
X148848095Y-50782380D02*
X148371904Y-50782380D01*
X148324285Y-51258571D01*
X148371904Y-51210952D01*
X148467142Y-51163333D01*
X148705238Y-51163333D01*
X148800476Y-51210952D01*
X148848095Y-51258571D01*
X148895714Y-51353809D01*
X148895714Y-51591904D01*
X148848095Y-51687142D01*
X148800476Y-51734761D01*
X148705238Y-51782380D01*
X148467142Y-51782380D01*
X148371904Y-51734761D01*
X148324285Y-51687142D01*
X125908333Y-60157142D02*
X125860714Y-60204761D01*
X125717857Y-60252380D01*
X125622619Y-60252380D01*
X125479761Y-60204761D01*
X125384523Y-60109523D01*
X125336904Y-60014285D01*
X125289285Y-59823809D01*
X125289285Y-59680952D01*
X125336904Y-59490476D01*
X125384523Y-59395238D01*
X125479761Y-59300000D01*
X125622619Y-59252380D01*
X125717857Y-59252380D01*
X125860714Y-59300000D01*
X125908333Y-59347619D01*
X126241666Y-59252380D02*
X126860714Y-59252380D01*
X126527380Y-59633333D01*
X126670238Y-59633333D01*
X126765476Y-59680952D01*
X126813095Y-59728571D01*
X126860714Y-59823809D01*
X126860714Y-60061904D01*
X126813095Y-60157142D01*
X126765476Y-60204761D01*
X126670238Y-60252380D01*
X126384523Y-60252380D01*
X126289285Y-60204761D01*
X126241666Y-60157142D01*
%LPC*%
D14*
X170000000Y-90000000D03*
X130000000Y-90000000D03*
X170000000Y-40000000D03*
X130000000Y-40000000D03*
D15*
X146340000Y-90000000D03*
X153960000Y-90000000D03*
D16*
X169926000Y-47832000D03*
D17*
X169926000Y-52832000D03*
G36*
G01*
X147415240Y-84624600D02*
X148615240Y-84624600D01*
G75*
G02*
X148865240Y-84874600I0J-250000D01*
G01*
X148865240Y-86074600D01*
G75*
G02*
X148615240Y-86324600I-250000J0D01*
G01*
X147415240Y-86324600D01*
G75*
G02*
X147165240Y-86074600I0J250000D01*
G01*
X147165240Y-84874600D01*
G75*
G02*
X147415240Y-84624600I250000J0D01*
G01*
G37*
D18*
X150555240Y-85474600D03*
X153095240Y-85474600D03*
X148015240Y-88014600D03*
X150555240Y-88014600D03*
X153095240Y-88014600D03*
D19*
X134400000Y-73000000D03*
X136500000Y-73000000D03*
G36*
G01*
X155395000Y-77275000D02*
X155055000Y-77275000D01*
G75*
G02*
X154915000Y-77135000I0J140000D01*
G01*
X154915000Y-76855000D01*
G75*
G02*
X155055000Y-76715000I140000J0D01*
G01*
X155395000Y-76715000D01*
G75*
G02*
X155535000Y-76855000I0J-140000D01*
G01*
X155535000Y-77135000D01*
G75*
G02*
X155395000Y-77275000I-140000J0D01*
G01*
G37*
G36*
G01*
X155395000Y-78235000D02*
X155055000Y-78235000D01*
G75*
G02*
X154915000Y-78095000I0J140000D01*
G01*
X154915000Y-77815000D01*
G75*
G02*
X155055000Y-77675000I140000J0D01*
G01*
X155395000Y-77675000D01*
G75*
G02*
X155535000Y-77815000I0J-140000D01*
G01*
X155535000Y-78095000D01*
G75*
G02*
X155395000Y-78235000I-140000J0D01*
G01*
G37*
G36*
G01*
X159000000Y-54645000D02*
X159000000Y-54305000D01*
G75*
G02*
X159140000Y-54165000I140000J0D01*
G01*
X159420000Y-54165000D01*
G75*
G02*
X159560000Y-54305000I0J-140000D01*
G01*
X159560000Y-54645000D01*
G75*
G02*
X159420000Y-54785000I-140000J0D01*
G01*
X159140000Y-54785000D01*
G75*
G02*
X159000000Y-54645000I0J140000D01*
G01*
G37*
G36*
G01*
X158040000Y-54645000D02*
X158040000Y-54305000D01*
G75*
G02*
X158180000Y-54165000I140000J0D01*
G01*
X158460000Y-54165000D01*
G75*
G02*
X158600000Y-54305000I0J-140000D01*
G01*
X158600000Y-54645000D01*
G75*
G02*
X158460000Y-54785000I-140000J0D01*
G01*
X158180000Y-54785000D01*
G75*
G02*
X158040000Y-54645000I0J140000D01*
G01*
G37*
G36*
G01*
X154580000Y-86150000D02*
X154920000Y-86150000D01*
G75*
G02*
X155060000Y-86290000I0J-140000D01*
G01*
X155060000Y-86570000D01*
G75*
G02*
X154920000Y-86710000I-140000J0D01*
G01*
X154580000Y-86710000D01*
G75*
G02*
X154440000Y-86570000I0J140000D01*
G01*
X154440000Y-86290000D01*
G75*
G02*
X154580000Y-86150000I140000J0D01*
G01*
G37*
G36*
G01*
X154580000Y-85190000D02*
X154920000Y-85190000D01*
G75*
G02*
X155060000Y-85330000I0J-140000D01*
G01*
X155060000Y-85610000D01*
G75*
G02*
X154920000Y-85750000I-140000J0D01*
G01*
X154580000Y-85750000D01*
G75*
G02*
X154440000Y-85610000I0J140000D01*
G01*
X154440000Y-85330000D01*
G75*
G02*
X154580000Y-85190000I140000J0D01*
G01*
G37*
D20*
X159800000Y-59200000D03*
X159800000Y-61700000D03*
X150000000Y-54350000D03*
X152500000Y-54350000D03*
G36*
G01*
X172550000Y-57625000D02*
X170350000Y-57625000D01*
G75*
G02*
X170100000Y-57375000I0J250000D01*
G01*
X170100000Y-56875000D01*
G75*
G02*
X170350000Y-56625000I250000J0D01*
G01*
X172550000Y-56625000D01*
G75*
G02*
X172800000Y-56875000I0J-250000D01*
G01*
X172800000Y-57375000D01*
G75*
G02*
X172550000Y-57625000I-250000J0D01*
G01*
G37*
G36*
G01*
X172550000Y-62575000D02*
X170350000Y-62575000D01*
G75*
G02*
X170100000Y-62325000I0J250000D01*
G01*
X170100000Y-61825000D01*
G75*
G02*
X170350000Y-61575000I250000J0D01*
G01*
X172550000Y-61575000D01*
G75*
G02*
X172800000Y-61825000I0J-250000D01*
G01*
X172800000Y-62325000D01*
G75*
G02*
X172550000Y-62575000I-250000J0D01*
G01*
G37*
G36*
G01*
X168950000Y-59275000D02*
X167550000Y-59275000D01*
G75*
G02*
X167400000Y-59125000I0J150000D01*
G01*
X167400000Y-58825000D01*
G75*
G02*
X167550000Y-58675000I150000J0D01*
G01*
X168950000Y-58675000D01*
G75*
G02*
X169100000Y-58825000I0J-150000D01*
G01*
X169100000Y-59125000D01*
G75*
G02*
X168950000Y-59275000I-150000J0D01*
G01*
G37*
G36*
G01*
X168950000Y-60525000D02*
X167550000Y-60525000D01*
G75*
G02*
X167400000Y-60375000I0J150000D01*
G01*
X167400000Y-60075000D01*
G75*
G02*
X167550000Y-59925000I150000J0D01*
G01*
X168950000Y-59925000D01*
G75*
G02*
X169100000Y-60075000I0J-150000D01*
G01*
X169100000Y-60375000D01*
G75*
G02*
X168950000Y-60525000I-150000J0D01*
G01*
G37*
G36*
G01*
X164775000Y-63025000D02*
X164775000Y-63575000D01*
G75*
G02*
X164575000Y-63775000I-200000J0D01*
G01*
X164175000Y-63775000D01*
G75*
G02*
X163975000Y-63575000I0J200000D01*
G01*
X163975000Y-63025000D01*
G75*
G02*
X164175000Y-62825000I200000J0D01*
G01*
X164575000Y-62825000D01*
G75*
G02*
X164775000Y-63025000I0J-200000D01*
G01*
G37*
G36*
G01*
X166425000Y-63025000D02*
X166425000Y-63575000D01*
G75*
G02*
X166225000Y-63775000I-200000J0D01*
G01*
X165825000Y-63775000D01*
G75*
G02*
X165625000Y-63575000I0J200000D01*
G01*
X165625000Y-63025000D01*
G75*
G02*
X165825000Y-62825000I200000J0D01*
G01*
X166225000Y-62825000D01*
G75*
G02*
X166425000Y-63025000I0J-200000D01*
G01*
G37*
G36*
G01*
X166200001Y-60250000D02*
X165399999Y-60250000D01*
G75*
G02*
X165150000Y-60000001I0J249999D01*
G01*
X165150000Y-59174999D01*
G75*
G02*
X165399999Y-58925000I249999J0D01*
G01*
X166200001Y-58925000D01*
G75*
G02*
X166450000Y-59174999I0J-249999D01*
G01*
X166450000Y-60000001D01*
G75*
G02*
X166200001Y-60250000I-249999J0D01*
G01*
G37*
G36*
G01*
X166200001Y-62175000D02*
X165399999Y-62175000D01*
G75*
G02*
X165150000Y-61925001I0J249999D01*
G01*
X165150000Y-61099999D01*
G75*
G02*
X165399999Y-60850000I249999J0D01*
G01*
X166200001Y-60850000D01*
G75*
G02*
X166450000Y-61099999I0J-249999D01*
G01*
X166450000Y-61925001D01*
G75*
G02*
X166200001Y-62175000I-249999J0D01*
G01*
G37*
G36*
G01*
X162575000Y-63575000D02*
X162575000Y-63025000D01*
G75*
G02*
X162775000Y-62825000I200000J0D01*
G01*
X163175000Y-62825000D01*
G75*
G02*
X163375000Y-63025000I0J-200000D01*
G01*
X163375000Y-63575000D01*
G75*
G02*
X163175000Y-63775000I-200000J0D01*
G01*
X162775000Y-63775000D01*
G75*
G02*
X162575000Y-63575000I0J200000D01*
G01*
G37*
G36*
G01*
X160925000Y-63575000D02*
X160925000Y-63025000D01*
G75*
G02*
X161125000Y-62825000I200000J0D01*
G01*
X161525000Y-62825000D01*
G75*
G02*
X161725000Y-63025000I0J-200000D01*
G01*
X161725000Y-63575000D01*
G75*
G02*
X161525000Y-63775000I-200000J0D01*
G01*
X161125000Y-63775000D01*
G75*
G02*
X160925000Y-63575000I0J200000D01*
G01*
G37*
G36*
G01*
X164200001Y-60250000D02*
X163399999Y-60250000D01*
G75*
G02*
X163150000Y-60000001I0J249999D01*
G01*
X163150000Y-59174999D01*
G75*
G02*
X163399999Y-58925000I249999J0D01*
G01*
X164200001Y-58925000D01*
G75*
G02*
X164450000Y-59174999I0J-249999D01*
G01*
X164450000Y-60000001D01*
G75*
G02*
X164200001Y-60250000I-249999J0D01*
G01*
G37*
G36*
G01*
X164200001Y-62175000D02*
X163399999Y-62175000D01*
G75*
G02*
X163150000Y-61925001I0J249999D01*
G01*
X163150000Y-61099999D01*
G75*
G02*
X163399999Y-60850000I249999J0D01*
G01*
X164200001Y-60850000D01*
G75*
G02*
X164450000Y-61099999I0J-249999D01*
G01*
X164450000Y-61925001D01*
G75*
G02*
X164200001Y-62175000I-249999J0D01*
G01*
G37*
G36*
G01*
X133850000Y-67300000D02*
X133850000Y-65300000D01*
G75*
G02*
X134100000Y-65050000I250000J0D01*
G01*
X137600000Y-65050000D01*
G75*
G02*
X137850000Y-65300000I0J-250000D01*
G01*
X137850000Y-67300000D01*
G75*
G02*
X137600000Y-67550000I-250000J0D01*
G01*
X134100000Y-67550000D01*
G75*
G02*
X133850000Y-67300000I0J250000D01*
G01*
G37*
G36*
G01*
X125850000Y-67300000D02*
X125850000Y-65300000D01*
G75*
G02*
X126100000Y-65050000I250000J0D01*
G01*
X129600000Y-65050000D01*
G75*
G02*
X129850000Y-65300000I0J-250000D01*
G01*
X129850000Y-67300000D01*
G75*
G02*
X129600000Y-67550000I-250000J0D01*
G01*
X126100000Y-67550000D01*
G75*
G02*
X125850000Y-67300000I0J250000D01*
G01*
G37*
D21*
X154765840Y-56865480D03*
X154765840Y-57815480D03*
X154765840Y-55915480D03*
X157465840Y-55915480D03*
X157465840Y-56865480D03*
X157465840Y-57815480D03*
G36*
G01*
X159649660Y-56130600D02*
X159099660Y-56130600D01*
G75*
G02*
X158899660Y-55930600I0J200000D01*
G01*
X158899660Y-55530600D01*
G75*
G02*
X159099660Y-55330600I200000J0D01*
G01*
X159649660Y-55330600D01*
G75*
G02*
X159849660Y-55530600I0J-200000D01*
G01*
X159849660Y-55930600D01*
G75*
G02*
X159649660Y-56130600I-200000J0D01*
G01*
G37*
G36*
G01*
X159649660Y-57780600D02*
X159099660Y-57780600D01*
G75*
G02*
X158899660Y-57580600I0J200000D01*
G01*
X158899660Y-57180600D01*
G75*
G02*
X159099660Y-56980600I200000J0D01*
G01*
X159649660Y-56980600D01*
G75*
G02*
X159849660Y-57180600I0J-200000D01*
G01*
X159849660Y-57580600D01*
G75*
G02*
X159649660Y-57780600I-200000J0D01*
G01*
G37*
G36*
G01*
X160675000Y-56975000D02*
X161225000Y-56975000D01*
G75*
G02*
X161425000Y-57175000I0J-200000D01*
G01*
X161425000Y-57575000D01*
G75*
G02*
X161225000Y-57775000I-200000J0D01*
G01*
X160675000Y-57775000D01*
G75*
G02*
X160475000Y-57575000I0J200000D01*
G01*
X160475000Y-57175000D01*
G75*
G02*
X160675000Y-56975000I200000J0D01*
G01*
G37*
G36*
G01*
X160675000Y-55325000D02*
X161225000Y-55325000D01*
G75*
G02*
X161425000Y-55525000I0J-200000D01*
G01*
X161425000Y-55925000D01*
G75*
G02*
X161225000Y-56125000I-200000J0D01*
G01*
X160675000Y-56125000D01*
G75*
G02*
X160475000Y-55925000I0J200000D01*
G01*
X160475000Y-55525000D01*
G75*
G02*
X160675000Y-55325000I200000J0D01*
G01*
G37*
G36*
G01*
X165365800Y-57819600D02*
X165365800Y-57269600D01*
G75*
G02*
X165565800Y-57069600I200000J0D01*
G01*
X165965800Y-57069600D01*
G75*
G02*
X166165800Y-57269600I0J-200000D01*
G01*
X166165800Y-57819600D01*
G75*
G02*
X165965800Y-58019600I-200000J0D01*
G01*
X165565800Y-58019600D01*
G75*
G02*
X165365800Y-57819600I0J200000D01*
G01*
G37*
G36*
G01*
X163715800Y-57819600D02*
X163715800Y-57269600D01*
G75*
G02*
X163915800Y-57069600I200000J0D01*
G01*
X164315800Y-57069600D01*
G75*
G02*
X164515800Y-57269600I0J-200000D01*
G01*
X164515800Y-57819600D01*
G75*
G02*
X164315800Y-58019600I-200000J0D01*
G01*
X163915800Y-58019600D01*
G75*
G02*
X163715800Y-57819600I0J200000D01*
G01*
G37*
G36*
G01*
X165365800Y-56244800D02*
X165365800Y-55694800D01*
G75*
G02*
X165565800Y-55494800I200000J0D01*
G01*
X165965800Y-55494800D01*
G75*
G02*
X166165800Y-55694800I0J-200000D01*
G01*
X166165800Y-56244800D01*
G75*
G02*
X165965800Y-56444800I-200000J0D01*
G01*
X165565800Y-56444800D01*
G75*
G02*
X165365800Y-56244800I0J200000D01*
G01*
G37*
G36*
G01*
X163715800Y-56244800D02*
X163715800Y-55694800D01*
G75*
G02*
X163915800Y-55494800I200000J0D01*
G01*
X164315800Y-55494800D01*
G75*
G02*
X164515800Y-55694800I0J-200000D01*
G01*
X164515800Y-56244800D01*
G75*
G02*
X164315800Y-56444800I-200000J0D01*
G01*
X163915800Y-56444800D01*
G75*
G02*
X163715800Y-56244800I0J200000D01*
G01*
G37*
D22*
X148904700Y-57239860D03*
X152104700Y-57239860D03*
D23*
X164000000Y-52900000D03*
X164000000Y-47500000D03*
G36*
G01*
X146703780Y-57247360D02*
X147203780Y-57247360D01*
G75*
G02*
X147428780Y-57472360I0J-225000D01*
G01*
X147428780Y-57922360D01*
G75*
G02*
X147203780Y-58147360I-225000J0D01*
G01*
X146703780Y-58147360D01*
G75*
G02*
X146478780Y-57922360I0J225000D01*
G01*
X146478780Y-57472360D01*
G75*
G02*
X146703780Y-57247360I225000J0D01*
G01*
G37*
G36*
G01*
X146703780Y-55697360D02*
X147203780Y-55697360D01*
G75*
G02*
X147428780Y-55922360I0J-225000D01*
G01*
X147428780Y-56372360D01*
G75*
G02*
X147203780Y-56597360I-225000J0D01*
G01*
X146703780Y-56597360D01*
G75*
G02*
X146478780Y-56372360I0J225000D01*
G01*
X146478780Y-55922360D01*
G75*
G02*
X146703780Y-55697360I225000J0D01*
G01*
G37*
G36*
G01*
X156440840Y-54456100D02*
X156440840Y-53956100D01*
G75*
G02*
X156665840Y-53731100I225000J0D01*
G01*
X157115840Y-53731100D01*
G75*
G02*
X157340840Y-53956100I0J-225000D01*
G01*
X157340840Y-54456100D01*
G75*
G02*
X157115840Y-54681100I-225000J0D01*
G01*
X156665840Y-54681100D01*
G75*
G02*
X156440840Y-54456100I0J225000D01*
G01*
G37*
G36*
G01*
X154890840Y-54456100D02*
X154890840Y-53956100D01*
G75*
G02*
X155115840Y-53731100I225000J0D01*
G01*
X155565840Y-53731100D01*
G75*
G02*
X155790840Y-53956100I0J-225000D01*
G01*
X155790840Y-54456100D01*
G75*
G02*
X155565840Y-54681100I-225000J0D01*
G01*
X155115840Y-54681100D01*
G75*
G02*
X154890840Y-54456100I0J225000D01*
G01*
G37*
G36*
G01*
X158699999Y-51900000D02*
X160900001Y-51900000D01*
G75*
G02*
X161150000Y-52149999I0J-249999D01*
G01*
X161150000Y-52800001D01*
G75*
G02*
X160900001Y-53050000I-249999J0D01*
G01*
X158699999Y-53050000D01*
G75*
G02*
X158450000Y-52800001I0J249999D01*
G01*
X158450000Y-52149999D01*
G75*
G02*
X158699999Y-51900000I249999J0D01*
G01*
G37*
G36*
G01*
X158699999Y-48950000D02*
X160900001Y-48950000D01*
G75*
G02*
X161150000Y-49199999I0J-249999D01*
G01*
X161150000Y-49850001D01*
G75*
G02*
X160900001Y-50100000I-249999J0D01*
G01*
X158699999Y-50100000D01*
G75*
G02*
X158450000Y-49850001I0J249999D01*
G01*
X158450000Y-49199999D01*
G75*
G02*
X158699999Y-48950000I249999J0D01*
G01*
G37*
G36*
G01*
X154812499Y-51900000D02*
X157012501Y-51900000D01*
G75*
G02*
X157262500Y-52149999I0J-249999D01*
G01*
X157262500Y-52800001D01*
G75*
G02*
X157012501Y-53050000I-249999J0D01*
G01*
X154812499Y-53050000D01*
G75*
G02*
X154562500Y-52800001I0J249999D01*
G01*
X154562500Y-52149999D01*
G75*
G02*
X154812499Y-51900000I249999J0D01*
G01*
G37*
G36*
G01*
X154812499Y-48950000D02*
X157012501Y-48950000D01*
G75*
G02*
X157262500Y-49199999I0J-249999D01*
G01*
X157262500Y-49850001D01*
G75*
G02*
X157012501Y-50100000I-249999J0D01*
G01*
X154812499Y-50100000D01*
G75*
G02*
X154562500Y-49850001I0J249999D01*
G01*
X154562500Y-49199999D01*
G75*
G02*
X154812499Y-48950000I249999J0D01*
G01*
G37*
G36*
G01*
X150924999Y-51900000D02*
X153125001Y-51900000D01*
G75*
G02*
X153375000Y-52149999I0J-249999D01*
G01*
X153375000Y-52800001D01*
G75*
G02*
X153125001Y-53050000I-249999J0D01*
G01*
X150924999Y-53050000D01*
G75*
G02*
X150675000Y-52800001I0J249999D01*
G01*
X150675000Y-52149999D01*
G75*
G02*
X150924999Y-51900000I249999J0D01*
G01*
G37*
G36*
G01*
X150924999Y-48950000D02*
X153125001Y-48950000D01*
G75*
G02*
X153375000Y-49199999I0J-249999D01*
G01*
X153375000Y-49850001D01*
G75*
G02*
X153125001Y-50100000I-249999J0D01*
G01*
X150924999Y-50100000D01*
G75*
G02*
X150675000Y-49850001I0J249999D01*
G01*
X150675000Y-49199999D01*
G75*
G02*
X150924999Y-48950000I249999J0D01*
G01*
G37*
D24*
X151825000Y-78475000D03*
X151825000Y-76375000D03*
X153475000Y-76375000D03*
X153475000Y-78475000D03*
D25*
X147850000Y-80375000D03*
X147350000Y-80375000D03*
X146850000Y-80375000D03*
X146350000Y-80375000D03*
X145850000Y-80375000D03*
X145350000Y-80375000D03*
X144850000Y-80375000D03*
X144350000Y-80375000D03*
X143850000Y-80375000D03*
X143350000Y-80375000D03*
X142850000Y-80375000D03*
X142350000Y-80375000D03*
X141850000Y-80375000D03*
X141350000Y-80375000D03*
X140850000Y-80375000D03*
X140350000Y-80375000D03*
D26*
X138350000Y-78375000D03*
X138350000Y-77875000D03*
X138350000Y-77375000D03*
X138350000Y-76875000D03*
X138350000Y-76375000D03*
X138350000Y-75875000D03*
X138350000Y-75375000D03*
X138350000Y-74875000D03*
X138350000Y-74375000D03*
X138350000Y-73875000D03*
X138350000Y-73375000D03*
X138350000Y-72875000D03*
X138350000Y-72375000D03*
X138350000Y-71875000D03*
X138350000Y-71375000D03*
X138350000Y-70875000D03*
D25*
X140350000Y-68875000D03*
X140850000Y-68875000D03*
X141350000Y-68875000D03*
X141850000Y-68875000D03*
X142350000Y-68875000D03*
X142850000Y-68875000D03*
X143350000Y-68875000D03*
X143850000Y-68875000D03*
X144350000Y-68875000D03*
X144850000Y-68875000D03*
X145350000Y-68875000D03*
X145850000Y-68875000D03*
X146350000Y-68875000D03*
X146850000Y-68875000D03*
X147350000Y-68875000D03*
D26*
X149850000Y-70875000D03*
X149850000Y-71375000D03*
X149850000Y-71875000D03*
X149850000Y-72375000D03*
X149850000Y-72875000D03*
X149850000Y-73375000D03*
X149850000Y-73875000D03*
X149850000Y-74375000D03*
X149850000Y-74875000D03*
X149850000Y-75375000D03*
X149850000Y-75875000D03*
X149850000Y-76375000D03*
X149850000Y-76875000D03*
X149850000Y-77375000D03*
X149850000Y-77875000D03*
X149850000Y-78375000D03*
D25*
X147850000Y-68875000D03*
D27*
X164375000Y-74625000D03*
X164375000Y-77475000D03*
X157225000Y-77475000D03*
X157225000Y-74625000D03*
X164375000Y-76050000D03*
X157225000Y-76050000D03*
D28*
X160800000Y-80100000D03*
X160800000Y-72000000D03*
D29*
X167110000Y-70590000D03*
X173410000Y-70590000D03*
X167110000Y-74390000D03*
X173410000Y-74390000D03*
G36*
G01*
X159025000Y-89677500D02*
X158475000Y-89677500D01*
G75*
G02*
X158275000Y-89477500I0J200000D01*
G01*
X158275000Y-89077500D01*
G75*
G02*
X158475000Y-88877500I200000J0D01*
G01*
X159025000Y-88877500D01*
G75*
G02*
X159225000Y-89077500I0J-200000D01*
G01*
X159225000Y-89477500D01*
G75*
G02*
X159025000Y-89677500I-200000J0D01*
G01*
G37*
G36*
G01*
X159025000Y-91327500D02*
X158475000Y-91327500D01*
G75*
G02*
X158275000Y-91127500I0J200000D01*
G01*
X158275000Y-90727500D01*
G75*
G02*
X158475000Y-90527500I200000J0D01*
G01*
X159025000Y-90527500D01*
G75*
G02*
X159225000Y-90727500I0J-200000D01*
G01*
X159225000Y-91127500D01*
G75*
G02*
X159025000Y-91327500I-200000J0D01*
G01*
G37*
G36*
G01*
X159025000Y-83725000D02*
X158475000Y-83725000D01*
G75*
G02*
X158275000Y-83525000I0J200000D01*
G01*
X158275000Y-83125000D01*
G75*
G02*
X158475000Y-82925000I200000J0D01*
G01*
X159025000Y-82925000D01*
G75*
G02*
X159225000Y-83125000I0J-200000D01*
G01*
X159225000Y-83525000D01*
G75*
G02*
X159025000Y-83725000I-200000J0D01*
G01*
G37*
G36*
G01*
X159025000Y-85375000D02*
X158475000Y-85375000D01*
G75*
G02*
X158275000Y-85175000I0J200000D01*
G01*
X158275000Y-84775000D01*
G75*
G02*
X158475000Y-84575000I200000J0D01*
G01*
X159025000Y-84575000D01*
G75*
G02*
X159225000Y-84775000I0J-200000D01*
G01*
X159225000Y-85175000D01*
G75*
G02*
X159025000Y-85375000I-200000J0D01*
G01*
G37*
G36*
G01*
X148125000Y-60195000D02*
X148125000Y-59645000D01*
G75*
G02*
X148325000Y-59445000I200000J0D01*
G01*
X148725000Y-59445000D01*
G75*
G02*
X148925000Y-59645000I0J-200000D01*
G01*
X148925000Y-60195000D01*
G75*
G02*
X148725000Y-60395000I-200000J0D01*
G01*
X148325000Y-60395000D01*
G75*
G02*
X148125000Y-60195000I0J200000D01*
G01*
G37*
G36*
G01*
X146475000Y-60195000D02*
X146475000Y-59645000D01*
G75*
G02*
X146675000Y-59445000I200000J0D01*
G01*
X147075000Y-59445000D01*
G75*
G02*
X147275000Y-59645000I0J-200000D01*
G01*
X147275000Y-60195000D01*
G75*
G02*
X147075000Y-60395000I-200000J0D01*
G01*
X146675000Y-60395000D01*
G75*
G02*
X146475000Y-60195000I0J200000D01*
G01*
G37*
G36*
G01*
X150475000Y-59645000D02*
X150475000Y-60195000D01*
G75*
G02*
X150275000Y-60395000I-200000J0D01*
G01*
X149875000Y-60395000D01*
G75*
G02*
X149675000Y-60195000I0J200000D01*
G01*
X149675000Y-59645000D01*
G75*
G02*
X149875000Y-59445000I200000J0D01*
G01*
X150275000Y-59445000D01*
G75*
G02*
X150475000Y-59645000I0J-200000D01*
G01*
G37*
G36*
G01*
X152125000Y-59645000D02*
X152125000Y-60195000D01*
G75*
G02*
X151925000Y-60395000I-200000J0D01*
G01*
X151525000Y-60395000D01*
G75*
G02*
X151325000Y-60195000I0J200000D01*
G01*
X151325000Y-59645000D01*
G75*
G02*
X151525000Y-59445000I200000J0D01*
G01*
X151925000Y-59445000D01*
G75*
G02*
X152125000Y-59645000I0J-200000D01*
G01*
G37*
G36*
G01*
X134825000Y-77125000D02*
X134825000Y-77675000D01*
G75*
G02*
X134625000Y-77875000I-200000J0D01*
G01*
X134225000Y-77875000D01*
G75*
G02*
X134025000Y-77675000I0J200000D01*
G01*
X134025000Y-77125000D01*
G75*
G02*
X134225000Y-76925000I200000J0D01*
G01*
X134625000Y-76925000D01*
G75*
G02*
X134825000Y-77125000I0J-200000D01*
G01*
G37*
G36*
G01*
X136475000Y-77125000D02*
X136475000Y-77675000D01*
G75*
G02*
X136275000Y-77875000I-200000J0D01*
G01*
X135875000Y-77875000D01*
G75*
G02*
X135675000Y-77675000I0J200000D01*
G01*
X135675000Y-77125000D01*
G75*
G02*
X135875000Y-76925000I200000J0D01*
G01*
X136275000Y-76925000D01*
G75*
G02*
X136475000Y-77125000I0J-200000D01*
G01*
G37*
G36*
G01*
X134825000Y-75600000D02*
X134825000Y-76150000D01*
G75*
G02*
X134625000Y-76350000I-200000J0D01*
G01*
X134225000Y-76350000D01*
G75*
G02*
X134025000Y-76150000I0J200000D01*
G01*
X134025000Y-75600000D01*
G75*
G02*
X134225000Y-75400000I200000J0D01*
G01*
X134625000Y-75400000D01*
G75*
G02*
X134825000Y-75600000I0J-200000D01*
G01*
G37*
G36*
G01*
X136475000Y-75600000D02*
X136475000Y-76150000D01*
G75*
G02*
X136275000Y-76350000I-200000J0D01*
G01*
X135875000Y-76350000D01*
G75*
G02*
X135675000Y-76150000I0J200000D01*
G01*
X135675000Y-75600000D01*
G75*
G02*
X135875000Y-75400000I200000J0D01*
G01*
X136275000Y-75400000D01*
G75*
G02*
X136475000Y-75600000I0J-200000D01*
G01*
G37*
G36*
G01*
X167825000Y-63725000D02*
X167825000Y-64275000D01*
G75*
G02*
X167625000Y-64475000I-200000J0D01*
G01*
X167225000Y-64475000D01*
G75*
G02*
X167025000Y-64275000I0J200000D01*
G01*
X167025000Y-63725000D01*
G75*
G02*
X167225000Y-63525000I200000J0D01*
G01*
X167625000Y-63525000D01*
G75*
G02*
X167825000Y-63725000I0J-200000D01*
G01*
G37*
G36*
G01*
X169475000Y-63725000D02*
X169475000Y-64275000D01*
G75*
G02*
X169275000Y-64475000I-200000J0D01*
G01*
X168875000Y-64475000D01*
G75*
G02*
X168675000Y-64275000I0J200000D01*
G01*
X168675000Y-63725000D01*
G75*
G02*
X168875000Y-63525000I200000J0D01*
G01*
X169275000Y-63525000D01*
G75*
G02*
X169475000Y-63725000I0J-200000D01*
G01*
G37*
G36*
G01*
X145700000Y-87250000D02*
X146250000Y-87250000D01*
G75*
G02*
X146450000Y-87450000I0J-200000D01*
G01*
X146450000Y-87850000D01*
G75*
G02*
X146250000Y-88050000I-200000J0D01*
G01*
X145700000Y-88050000D01*
G75*
G02*
X145500000Y-87850000I0J200000D01*
G01*
X145500000Y-87450000D01*
G75*
G02*
X145700000Y-87250000I200000J0D01*
G01*
G37*
G36*
G01*
X145700000Y-85600000D02*
X146250000Y-85600000D01*
G75*
G02*
X146450000Y-85800000I0J-200000D01*
G01*
X146450000Y-86200000D01*
G75*
G02*
X146250000Y-86400000I-200000J0D01*
G01*
X145700000Y-86400000D01*
G75*
G02*
X145500000Y-86200000I0J200000D01*
G01*
X145500000Y-85800000D01*
G75*
G02*
X145700000Y-85600000I200000J0D01*
G01*
G37*
G36*
G01*
X130279201Y-51142400D02*
X127429199Y-51142400D01*
G75*
G02*
X127179200Y-50892401I0J249999D01*
G01*
X127179200Y-50167399D01*
G75*
G02*
X127429199Y-49917400I249999J0D01*
G01*
X130279201Y-49917400D01*
G75*
G02*
X130529200Y-50167399I0J-249999D01*
G01*
X130529200Y-50892401D01*
G75*
G02*
X130279201Y-51142400I-249999J0D01*
G01*
G37*
G36*
G01*
X130279201Y-57067400D02*
X127429199Y-57067400D01*
G75*
G02*
X127179200Y-56817401I0J249999D01*
G01*
X127179200Y-56092399D01*
G75*
G02*
X127429199Y-55842400I249999J0D01*
G01*
X130279201Y-55842400D01*
G75*
G02*
X130529200Y-56092399I0J-249999D01*
G01*
X130529200Y-56817401D01*
G75*
G02*
X130279201Y-57067400I-249999J0D01*
G01*
G37*
D11*
G36*
X127175000Y-48105000D02*
G01*
X127975000Y-48105000D01*
X127975000Y-47435000D01*
X127175000Y-47435000D01*
X127175000Y-46835000D01*
X127975000Y-46835000D01*
X127975000Y-46165000D01*
X127175000Y-46165000D01*
X127175000Y-45565000D01*
X127975000Y-45565000D01*
X127975000Y-44895000D01*
X127175000Y-44895000D01*
X127175000Y-44295000D01*
X131725000Y-44295000D01*
X131725000Y-48705000D01*
X127175000Y-48705000D01*
X127175000Y-48105000D01*
G37*
D30*
X133400000Y-44595000D03*
X133400000Y-45865000D03*
X133400000Y-47135000D03*
X133400000Y-48405000D03*
D31*
X162025000Y-90437400D03*
G36*
G01*
X164625000Y-89812399D02*
X164625000Y-91062401D01*
G75*
G02*
X164375001Y-91312400I-249999J0D01*
G01*
X163674999Y-91312400D01*
G75*
G02*
X163425000Y-91062401I0J249999D01*
G01*
X163425000Y-89812399D01*
G75*
G02*
X163674999Y-89562400I249999J0D01*
G01*
X164375001Y-89562400D01*
G75*
G02*
X164625000Y-89812399I0J-249999D01*
G01*
G37*
X162025000Y-84700000D03*
G36*
G01*
X164625000Y-84074999D02*
X164625000Y-85325001D01*
G75*
G02*
X164375001Y-85575000I-249999J0D01*
G01*
X163674999Y-85575000D01*
G75*
G02*
X163425000Y-85325001I0J249999D01*
G01*
X163425000Y-84074999D01*
G75*
G02*
X163674999Y-83825000I249999J0D01*
G01*
X164375001Y-83825000D01*
G75*
G02*
X164625000Y-84074999I0J-249999D01*
G01*
G37*
X135975000Y-90400000D03*
X137975000Y-90400000D03*
G36*
G01*
X140575000Y-89774999D02*
X140575000Y-91025001D01*
G75*
G02*
X140325001Y-91275000I-249999J0D01*
G01*
X139624999Y-91275000D01*
G75*
G02*
X139375000Y-91025001I0J249999D01*
G01*
X139375000Y-89774999D01*
G75*
G02*
X139624999Y-89525000I249999J0D01*
G01*
X140325001Y-89525000D01*
G75*
G02*
X140575000Y-89774999I0J-249999D01*
G01*
G37*
X135975000Y-84700000D03*
X137975000Y-84700000D03*
G36*
G01*
X140575000Y-84074999D02*
X140575000Y-85325001D01*
G75*
G02*
X140325001Y-85575000I-249999J0D01*
G01*
X139624999Y-85575000D01*
G75*
G02*
X139375000Y-85325001I0J249999D01*
G01*
X139375000Y-84074999D01*
G75*
G02*
X139624999Y-83825000I249999J0D01*
G01*
X140325001Y-83825000D01*
G75*
G02*
X140575000Y-84074999I0J-249999D01*
G01*
G37*
D32*
X131840000Y-73850000D03*
X129300000Y-73850000D03*
D33*
X126760000Y-73850000D03*
D34*
X143344000Y-52400000D03*
D35*
X140574000Y-55880000D03*
G36*
G01*
X136474000Y-57730000D02*
X133274000Y-57730000D01*
G75*
G02*
X133024000Y-57480000I0J250000D01*
G01*
X133024000Y-54280000D01*
G75*
G02*
X133274000Y-54030000I250000J0D01*
G01*
X136474000Y-54030000D01*
G75*
G02*
X136724000Y-54280000I0J-250000D01*
G01*
X136724000Y-57480000D01*
G75*
G02*
X136474000Y-57730000I-250000J0D01*
G01*
G37*
D36*
X131845000Y-84475000D03*
X131845000Y-83675000D03*
X131845000Y-78775000D03*
X131845000Y-77975000D03*
X131845000Y-77975000D03*
X131845000Y-78775000D03*
X131845000Y-83675000D03*
X131845000Y-84475000D03*
D37*
X131845000Y-79475000D03*
X131845000Y-79975000D03*
X131845000Y-80475000D03*
X131845000Y-81475000D03*
X131845000Y-81975000D03*
X131845000Y-82475000D03*
X131845000Y-82975000D03*
X131845000Y-80975000D03*
D38*
X130930000Y-85545000D03*
X130930000Y-76905000D03*
D39*
X130400000Y-78335000D03*
D40*
X126750000Y-76905000D03*
D39*
X130400000Y-84115000D03*
D40*
X126750000Y-85545000D03*
D41*
X169250000Y-78050000D03*
X169250000Y-80050000D03*
X169250000Y-82050000D03*
G36*
G01*
X169875001Y-84650000D02*
X168624999Y-84650000D01*
G75*
G02*
X168375000Y-84400001I0J249999D01*
G01*
X168375000Y-83699999D01*
G75*
G02*
X168624999Y-83450000I249999J0D01*
G01*
X169875001Y-83450000D01*
G75*
G02*
X170125000Y-83699999I0J-249999D01*
G01*
X170125000Y-84400001D01*
G75*
G02*
X169875001Y-84650000I-249999J0D01*
G01*
G37*
D32*
X146690000Y-62530000D03*
X149230000Y-62530000D03*
X151770000Y-62530000D03*
D33*
X154310000Y-62530000D03*
G36*
G01*
X161372050Y-61199140D02*
X162284550Y-61199140D01*
G75*
G02*
X162528300Y-61442890I0J-243750D01*
G01*
X162528300Y-61930390D01*
G75*
G02*
X162284550Y-62174140I-243750J0D01*
G01*
X161372050Y-62174140D01*
G75*
G02*
X161128300Y-61930390I0J243750D01*
G01*
X161128300Y-61442890D01*
G75*
G02*
X161372050Y-61199140I243750J0D01*
G01*
G37*
G36*
G01*
X161372050Y-59324140D02*
X162284550Y-59324140D01*
G75*
G02*
X162528300Y-59567890I0J-243750D01*
G01*
X162528300Y-60055390D01*
G75*
G02*
X162284550Y-60299140I-243750J0D01*
G01*
X161372050Y-60299140D01*
G75*
G02*
X161128300Y-60055390I0J243750D01*
G01*
X161128300Y-59567890D01*
G75*
G02*
X161372050Y-59324140I243750J0D01*
G01*
G37*
G36*
G01*
X157390001Y-89630000D02*
X156489999Y-89630000D01*
G75*
G02*
X156240000Y-89380001I0J249999D01*
G01*
X156240000Y-88729999D01*
G75*
G02*
X156489999Y-88480000I249999J0D01*
G01*
X157390001Y-88480000D01*
G75*
G02*
X157640000Y-88729999I0J-249999D01*
G01*
X157640000Y-89380001D01*
G75*
G02*
X157390001Y-89630000I-249999J0D01*
G01*
G37*
G36*
G01*
X157390001Y-91680000D02*
X156489999Y-91680000D01*
G75*
G02*
X156240000Y-91430001I0J249999D01*
G01*
X156240000Y-90779999D01*
G75*
G02*
X156489999Y-90530000I249999J0D01*
G01*
X157390001Y-90530000D01*
G75*
G02*
X157640000Y-90779999I0J-249999D01*
G01*
X157640000Y-91430001D01*
G75*
G02*
X157390001Y-91680000I-249999J0D01*
G01*
G37*
G36*
G01*
X157390001Y-83677500D02*
X156489999Y-83677500D01*
G75*
G02*
X156240000Y-83427501I0J249999D01*
G01*
X156240000Y-82777499D01*
G75*
G02*
X156489999Y-82527500I249999J0D01*
G01*
X157390001Y-82527500D01*
G75*
G02*
X157640000Y-82777499I0J-249999D01*
G01*
X157640000Y-83427501D01*
G75*
G02*
X157390001Y-83677500I-249999J0D01*
G01*
G37*
G36*
G01*
X157390001Y-85727500D02*
X156489999Y-85727500D01*
G75*
G02*
X156240000Y-85477501I0J249999D01*
G01*
X156240000Y-84827499D01*
G75*
G02*
X156489999Y-84577500I249999J0D01*
G01*
X157390001Y-84577500D01*
G75*
G02*
X157640000Y-84827499I0J-249999D01*
G01*
X157640000Y-85477501D01*
G75*
G02*
X157390001Y-85727500I-249999J0D01*
G01*
G37*
G36*
G01*
X143900001Y-89630000D02*
X142999999Y-89630000D01*
G75*
G02*
X142750000Y-89380001I0J249999D01*
G01*
X142750000Y-88729999D01*
G75*
G02*
X142999999Y-88480000I249999J0D01*
G01*
X143900001Y-88480000D01*
G75*
G02*
X144150000Y-88729999I0J-249999D01*
G01*
X144150000Y-89380001D01*
G75*
G02*
X143900001Y-89630000I-249999J0D01*
G01*
G37*
G36*
G01*
X143900001Y-91680000D02*
X142999999Y-91680000D01*
G75*
G02*
X142750000Y-91430001I0J249999D01*
G01*
X142750000Y-90779999D01*
G75*
G02*
X142999999Y-90530000I249999J0D01*
G01*
X143900001Y-90530000D01*
G75*
G02*
X144150000Y-90779999I0J-249999D01*
G01*
X144150000Y-91430001D01*
G75*
G02*
X143900001Y-91680000I-249999J0D01*
G01*
G37*
G36*
G01*
X143900001Y-83675000D02*
X142999999Y-83675000D01*
G75*
G02*
X142750000Y-83425001I0J249999D01*
G01*
X142750000Y-82774999D01*
G75*
G02*
X142999999Y-82525000I249999J0D01*
G01*
X143900001Y-82525000D01*
G75*
G02*
X144150000Y-82774999I0J-249999D01*
G01*
X144150000Y-83425001D01*
G75*
G02*
X143900001Y-83675000I-249999J0D01*
G01*
G37*
G36*
G01*
X143900001Y-85725000D02*
X142999999Y-85725000D01*
G75*
G02*
X142750000Y-85475001I0J249999D01*
G01*
X142750000Y-84824999D01*
G75*
G02*
X142999999Y-84575000I249999J0D01*
G01*
X143900001Y-84575000D01*
G75*
G02*
X144150000Y-84824999I0J-249999D01*
G01*
X144150000Y-85475001D01*
G75*
G02*
X143900001Y-85725000I-249999J0D01*
G01*
G37*
G36*
G01*
X162150001Y-65700000D02*
X161249999Y-65700000D01*
G75*
G02*
X161000000Y-65450001I0J249999D01*
G01*
X161000000Y-64799999D01*
G75*
G02*
X161249999Y-64550000I249999J0D01*
G01*
X162150001Y-64550000D01*
G75*
G02*
X162400000Y-64799999I0J-249999D01*
G01*
X162400000Y-65450001D01*
G75*
G02*
X162150001Y-65700000I-249999J0D01*
G01*
G37*
G36*
G01*
X162150001Y-67750000D02*
X161249999Y-67750000D01*
G75*
G02*
X161000000Y-67500001I0J249999D01*
G01*
X161000000Y-66849999D01*
G75*
G02*
X161249999Y-66600000I249999J0D01*
G01*
X162150001Y-66600000D01*
G75*
G02*
X162400000Y-66849999I0J-249999D01*
G01*
X162400000Y-67500001D01*
G75*
G02*
X162150001Y-67750000I-249999J0D01*
G01*
G37*
G36*
G01*
X159916667Y-65700000D02*
X159016665Y-65700000D01*
G75*
G02*
X158766666Y-65450001I0J249999D01*
G01*
X158766666Y-64799999D01*
G75*
G02*
X159016665Y-64550000I249999J0D01*
G01*
X159916667Y-64550000D01*
G75*
G02*
X160166666Y-64799999I0J-249999D01*
G01*
X160166666Y-65450001D01*
G75*
G02*
X159916667Y-65700000I-249999J0D01*
G01*
G37*
G36*
G01*
X159916667Y-67750000D02*
X159016665Y-67750000D01*
G75*
G02*
X158766666Y-67500001I0J249999D01*
G01*
X158766666Y-66849999D01*
G75*
G02*
X159016665Y-66600000I249999J0D01*
G01*
X159916667Y-66600000D01*
G75*
G02*
X160166666Y-66849999I0J-249999D01*
G01*
X160166666Y-67500001D01*
G75*
G02*
X159916667Y-67750000I-249999J0D01*
G01*
G37*
G36*
G01*
X157683334Y-65700000D02*
X156783332Y-65700000D01*
G75*
G02*
X156533333Y-65450001I0J249999D01*
G01*
X156533333Y-64799999D01*
G75*
G02*
X156783332Y-64550000I249999J0D01*
G01*
X157683334Y-64550000D01*
G75*
G02*
X157933333Y-64799999I0J-249999D01*
G01*
X157933333Y-65450001D01*
G75*
G02*
X157683334Y-65700000I-249999J0D01*
G01*
G37*
G36*
G01*
X157683334Y-67750000D02*
X156783332Y-67750000D01*
G75*
G02*
X156533333Y-67500001I0J249999D01*
G01*
X156533333Y-66849999D01*
G75*
G02*
X156783332Y-66600000I249999J0D01*
G01*
X157683334Y-66600000D01*
G75*
G02*
X157933333Y-66849999I0J-249999D01*
G01*
X157933333Y-67500001D01*
G75*
G02*
X157683334Y-67750000I-249999J0D01*
G01*
G37*
G36*
G01*
X155610001Y-65700000D02*
X154709999Y-65700000D01*
G75*
G02*
X154460000Y-65450001I0J249999D01*
G01*
X154460000Y-64799999D01*
G75*
G02*
X154709999Y-64550000I249999J0D01*
G01*
X155610001Y-64550000D01*
G75*
G02*
X155860000Y-64799999I0J-249999D01*
G01*
X155860000Y-65450001D01*
G75*
G02*
X155610001Y-65700000I-249999J0D01*
G01*
G37*
G36*
G01*
X155610001Y-67750000D02*
X154709999Y-67750000D01*
G75*
G02*
X154460000Y-67500001I0J249999D01*
G01*
X154460000Y-66849999D01*
G75*
G02*
X154709999Y-66600000I249999J0D01*
G01*
X155610001Y-66600000D01*
G75*
G02*
X155860000Y-66849999I0J-249999D01*
G01*
X155860000Y-67500001D01*
G75*
G02*
X155610001Y-67750000I-249999J0D01*
G01*
G37*
G36*
G01*
X154550000Y-80780000D02*
X155150000Y-80780000D01*
G75*
G02*
X155220000Y-80850000I0J-70000D01*
G01*
X155220000Y-82150000D01*
G75*
G02*
X155150000Y-82220000I-70000J0D01*
G01*
X154550000Y-82220000D01*
G75*
G02*
X154480000Y-82150000I0J70000D01*
G01*
X154480000Y-80850000D01*
G75*
G02*
X154550000Y-80780000I70000J0D01*
G01*
G37*
G36*
G01*
X152650000Y-80780000D02*
X153250000Y-80780000D01*
G75*
G02*
X153320000Y-80850000I0J-70000D01*
G01*
X153320000Y-82150000D01*
G75*
G02*
X153250000Y-82220000I-70000J0D01*
G01*
X152650000Y-82220000D01*
G75*
G02*
X152580000Y-82150000I0J70000D01*
G01*
X152580000Y-80850000D01*
G75*
G02*
X152650000Y-80780000I70000J0D01*
G01*
G37*
G36*
G01*
X153600000Y-82880000D02*
X154200000Y-82880000D01*
G75*
G02*
X154270000Y-82950000I0J-70000D01*
G01*
X154270000Y-84250000D01*
G75*
G02*
X154200000Y-84320000I-70000J0D01*
G01*
X153600000Y-84320000D01*
G75*
G02*
X153530000Y-84250000I0J70000D01*
G01*
X153530000Y-82950000D01*
G75*
G02*
X153600000Y-82880000I70000J0D01*
G01*
G37*
G36*
G01*
X147037499Y-51900000D02*
X149237501Y-51900000D01*
G75*
G02*
X149487500Y-52149999I0J-249999D01*
G01*
X149487500Y-52800001D01*
G75*
G02*
X149237501Y-53050000I-249999J0D01*
G01*
X147037499Y-53050000D01*
G75*
G02*
X146787500Y-52800001I0J249999D01*
G01*
X146787500Y-52149999D01*
G75*
G02*
X147037499Y-51900000I249999J0D01*
G01*
G37*
G36*
G01*
X147037499Y-48950000D02*
X149237501Y-48950000D01*
G75*
G02*
X149487500Y-49199999I0J-249999D01*
G01*
X149487500Y-49850001D01*
G75*
G02*
X149237501Y-50100000I-249999J0D01*
G01*
X147037499Y-50100000D01*
G75*
G02*
X146787500Y-49850001I0J249999D01*
G01*
X146787500Y-49199999D01*
G75*
G02*
X147037499Y-48950000I249999J0D01*
G01*
G37*
G36*
G01*
X128350000Y-59375000D02*
X128350000Y-60325000D01*
G75*
G02*
X128100000Y-60575000I-250000J0D01*
G01*
X127600000Y-60575000D01*
G75*
G02*
X127350000Y-60325000I0J250000D01*
G01*
X127350000Y-59375000D01*
G75*
G02*
X127600000Y-59125000I250000J0D01*
G01*
X128100000Y-59125000D01*
G75*
G02*
X128350000Y-59375000I0J-250000D01*
G01*
G37*
G36*
G01*
X130250000Y-59375000D02*
X130250000Y-60325000D01*
G75*
G02*
X130000000Y-60575000I-250000J0D01*
G01*
X129500000Y-60575000D01*
G75*
G02*
X129250000Y-60325000I0J250000D01*
G01*
X129250000Y-59375000D01*
G75*
G02*
X129500000Y-59125000I250000J0D01*
G01*
X130000000Y-59125000D01*
G75*
G02*
X130250000Y-59375000I0J-250000D01*
G01*
G37*
D42*
X166624000Y-50165000D02*
X134620000Y-50165000D01*
X134620000Y-45466000D01*
X166624000Y-45466000D01*
X166624000Y-50165000D01*
D11*
G36*
X166624000Y-50165000D02*
G01*
X134620000Y-50165000D01*
X134620000Y-45466000D01*
X166624000Y-45466000D01*
X166624000Y-50165000D01*
G37*
D42*
X137373000Y-54552512D02*
X137373000Y-57947394D01*
X136447394Y-58873000D01*
X127552606Y-58873000D01*
X126627000Y-57947394D01*
X126627000Y-54559738D01*
X127119556Y-54152000D01*
X136973492Y-54152000D01*
X137373000Y-54552512D01*
D11*
G36*
X137373000Y-54552512D02*
G01*
X137373000Y-57947394D01*
X136447394Y-58873000D01*
X127552606Y-58873000D01*
X126627000Y-57947394D01*
X126627000Y-54559738D01*
X127119556Y-54152000D01*
X136973492Y-54152000D01*
X137373000Y-54552512D01*
G37*
D42*
X131873000Y-51447394D02*
X130947394Y-52373000D01*
X127052606Y-52373000D01*
X126127000Y-51447394D01*
X126127000Y-45052606D01*
X127052606Y-44127000D01*
X131873000Y-44127000D01*
X131873000Y-51447394D01*
D11*
G36*
X131873000Y-51447394D02*
G01*
X130947394Y-52373000D01*
X127052606Y-52373000D01*
X126127000Y-51447394D01*
X126127000Y-45052606D01*
X127052606Y-44127000D01*
X131873000Y-44127000D01*
X131873000Y-51447394D01*
G37*
D42*
X134498000Y-46098000D02*
X133027000Y-46098000D01*
X133027000Y-45652000D01*
X134498000Y-45652000D01*
X134498000Y-46098000D01*
D11*
G36*
X134498000Y-46098000D02*
G01*
X133027000Y-46098000D01*
X133027000Y-45652000D01*
X134498000Y-45652000D01*
X134498000Y-46098000D01*
G37*
D42*
X134523000Y-47348000D02*
X133052000Y-47348000D01*
X133052000Y-46927000D01*
X134523000Y-46927000D01*
X134523000Y-47348000D01*
D11*
G36*
X134523000Y-47348000D02*
G01*
X133052000Y-47348000D01*
X133052000Y-46927000D01*
X134523000Y-46927000D01*
X134523000Y-47348000D01*
G37*
D42*
X134623000Y-48648000D02*
X133052000Y-48648000D01*
X133052000Y-48177000D01*
X134623000Y-48177000D01*
X134623000Y-48648000D01*
D11*
G36*
X134623000Y-48648000D02*
G01*
X133052000Y-48648000D01*
X133052000Y-48177000D01*
X134623000Y-48177000D01*
X134623000Y-48648000D01*
G37*
M02*
