G04 #@! TF.GenerationSoftware,KiCad,Pcbnew,5.1.9-73d0e3b20d~88~ubuntu20.04.1*
G04 #@! TF.CreationDate,2021-04-08T00:26:52+08:00*
G04 #@! TF.ProjectId,AbsoluteEncoderBoard,4162736f-6c75-4746-9545-6e636f646572,rev?*
G04 #@! TF.SameCoordinates,Original*
G04 #@! TF.FileFunction,Legend,Bot*
G04 #@! TF.FilePolarity,Positive*
%FSLAX46Y46*%
G04 Gerber Fmt 4.6, Leading zero omitted, Abs format (unit mm)*
G04 Created by KiCad (PCBNEW 5.1.9-73d0e3b20d~88~ubuntu20.04.1) date 2021-04-08 00:26:52*
%MOMM*%
%LPD*%
G01*
G04 APERTURE LIST*
%ADD10C,0.120000*%
%ADD11C,0.100000*%
%ADD12C,0.150000*%
%ADD13C,3.200000*%
%ADD14C,4.000000*%
%ADD15R,3.800000X3.800000*%
%ADD16C,1.700000*%
%ADD17R,0.650000X1.060000*%
%ADD18R,2.500000X1.800000*%
%ADD19R,3.500000X2.300000*%
%ADD20R,1.500000X2.000000*%
%ADD21R,3.800000X2.000000*%
%ADD22R,2.000000X0.600000*%
%ADD23R,0.600000X2.000000*%
%ADD24R,0.800000X0.500000*%
%ADD25R,0.800000X0.400000*%
%ADD26O,1.200000X1.750000*%
%ADD27O,1.700000X1.700000*%
%ADD28R,1.700000X1.700000*%
%ADD29C,1.800000*%
%ADD30C,3.700000*%
%ADD31O,2.100000X1.000000*%
%ADD32C,0.650000*%
%ADD33O,1.600000X1.000000*%
%ADD34O,1.750000X1.200000*%
%ADD35R,1.000000X1.000000*%
%ADD36C,0.254000*%
G04 APERTURE END LIST*
D10*
X148515240Y-83124600D02*
X148015240Y-84124600D01*
X147515240Y-83124600D02*
X148515240Y-83124600D01*
X148015240Y-84124600D02*
X147515240Y-83124600D01*
X158305240Y-89744600D02*
X142805240Y-89744600D01*
X158305240Y-98864600D02*
X158305240Y-89744600D01*
X142805240Y-98864600D02*
X158305240Y-98864600D01*
X142805240Y-89744600D02*
X142805240Y-98864600D01*
X152605240Y-89744600D02*
X152605240Y-98864600D01*
X148505240Y-89744600D02*
X148505240Y-98864600D01*
X146552164Y-73420000D02*
X146767836Y-73420000D01*
X146552164Y-74140000D02*
X146767836Y-74140000D01*
X140160000Y-69417164D02*
X140160000Y-69632836D01*
X139440000Y-69417164D02*
X139440000Y-69632836D01*
X147222164Y-69330000D02*
X147437836Y-69330000D01*
X147222164Y-70050000D02*
X147437836Y-70050000D01*
X138867164Y-77440000D02*
X139082836Y-77440000D01*
X138867164Y-78160000D02*
X139082836Y-78160000D01*
X149307836Y-73010000D02*
X149092164Y-73010000D01*
X149307836Y-72290000D02*
X149092164Y-72290000D01*
X149332836Y-79335000D02*
X149117164Y-79335000D01*
X149332836Y-78615000D02*
X149117164Y-78615000D01*
X141235000Y-69417164D02*
X141235000Y-69632836D01*
X140515000Y-69417164D02*
X140515000Y-69632836D01*
X149117164Y-79640000D02*
X149332836Y-79640000D01*
X149117164Y-80360000D02*
X149332836Y-80360000D01*
X138692164Y-78665000D02*
X138907836Y-78665000D01*
X138692164Y-79385000D02*
X138907836Y-79385000D01*
X151390000Y-67657836D02*
X151390000Y-67442164D01*
X152110000Y-67657836D02*
X152110000Y-67442164D01*
X149317836Y-75360000D02*
X149102164Y-75360000D01*
X149317836Y-74640000D02*
X149102164Y-74640000D01*
X174360000Y-66037164D02*
X174360000Y-66252836D01*
X173640000Y-66037164D02*
X173640000Y-66252836D01*
X154007836Y-76360000D02*
X153792164Y-76360000D01*
X154007836Y-75640000D02*
X153792164Y-75640000D01*
X127757836Y-50810000D02*
X127542164Y-50810000D01*
X127757836Y-50090000D02*
X127542164Y-50090000D01*
X149317836Y-76360000D02*
X149102164Y-76360000D01*
X149317836Y-75640000D02*
X149102164Y-75640000D01*
X131980000Y-53007836D02*
X131980000Y-52792164D01*
X131260000Y-53007836D02*
X131260000Y-52792164D01*
X127565000Y-65700000D02*
X127565000Y-63900000D01*
X130785000Y-63900000D02*
X130785000Y-66350000D01*
X132860000Y-59357836D02*
X132860000Y-59142164D01*
X132140000Y-59357836D02*
X132140000Y-59142164D01*
X149317836Y-73640000D02*
X149102164Y-73640000D01*
X149317836Y-74360000D02*
X149102164Y-74360000D01*
X137088748Y-61260000D02*
X138511252Y-61260000D01*
X137088748Y-58540000D02*
X138511252Y-58540000D01*
X141725000Y-61825000D02*
X136325000Y-61825000D01*
X141725000Y-65125000D02*
X136325000Y-65125000D01*
X141725000Y-61825000D02*
X141725000Y-65125000D01*
X132960000Y-54440000D02*
X132960000Y-50140000D01*
X132960000Y-50140000D02*
X140260000Y-50140000D01*
X132960000Y-54440000D02*
X140260000Y-54440000D01*
X155975260Y-57990000D02*
X156256420Y-57990000D01*
X155975260Y-59010000D02*
X156256420Y-59010000D01*
X161550000Y-66290000D02*
X163935000Y-66290000D01*
X163935000Y-66290000D02*
X163935000Y-66570000D01*
X161550000Y-66290000D02*
X159165000Y-66290000D01*
X159165000Y-66290000D02*
X159165000Y-66570000D01*
X161550000Y-76810000D02*
X163935000Y-76810000D01*
X163935000Y-76810000D02*
X163935000Y-76530000D01*
X161550000Y-76810000D02*
X159165000Y-76810000D01*
X159165000Y-76810000D02*
X159165000Y-76530000D01*
X159165000Y-76530000D02*
X157500000Y-76530000D01*
X147450000Y-63690000D02*
X149400000Y-63690000D01*
X147450000Y-63690000D02*
X145500000Y-63690000D01*
X147450000Y-68810000D02*
X149400000Y-68810000D01*
X147450000Y-68810000D02*
X144000000Y-68810000D01*
X165473400Y-62250000D02*
X164213400Y-62250000D01*
X158653400Y-62250000D02*
X159913400Y-62250000D01*
X165473400Y-58490000D02*
X165473400Y-62250000D01*
X158653400Y-56240000D02*
X158653400Y-62250000D01*
X169750000Y-69290000D02*
X171700000Y-69290000D01*
X169750000Y-69290000D02*
X167800000Y-69290000D01*
X169750000Y-74410000D02*
X171700000Y-74410000D01*
X169750000Y-74410000D02*
X166300000Y-74410000D01*
D11*
X170950000Y-63400000D02*
X171350000Y-63400000D01*
X171350000Y-63400000D02*
X171650000Y-63700000D01*
X171650000Y-63700000D02*
X172450000Y-63700000D01*
X171850000Y-68300000D02*
X171850000Y-68600000D01*
X171850000Y-68600000D02*
X171550000Y-68600000D01*
X167650000Y-63700000D02*
X167650000Y-63400000D01*
X167650000Y-63400000D02*
X167950000Y-63400000D01*
X167650000Y-68300000D02*
X167650000Y-68600000D01*
X167650000Y-68600000D02*
X167950000Y-68600000D01*
D10*
X156460000Y-80250000D02*
X156460000Y-82200000D01*
X156460000Y-80250000D02*
X156460000Y-78300000D01*
X151340000Y-80250000D02*
X151340000Y-82200000D01*
X151340000Y-80250000D02*
X151340000Y-76800000D01*
X126040000Y-53775000D02*
X126040000Y-51975000D01*
X129260000Y-51975000D02*
X129260000Y-54425000D01*
D11*
X131775000Y-60100000D02*
X131775000Y-60500000D01*
X131775000Y-60500000D02*
X131475000Y-60800000D01*
X131475000Y-60800000D02*
X131475000Y-61600000D01*
X126875000Y-61000000D02*
X126575000Y-61000000D01*
X126575000Y-61000000D02*
X126575000Y-60700000D01*
X131475000Y-56800000D02*
X131775000Y-56800000D01*
X131775000Y-56800000D02*
X131775000Y-57100000D01*
X126875000Y-56800000D02*
X126575000Y-56800000D01*
X126575000Y-56800000D02*
X126575000Y-57100000D01*
D10*
X157350000Y-60320000D02*
X156350000Y-60320000D01*
X157350000Y-63680000D02*
X156350000Y-63680000D01*
X155787258Y-69402500D02*
X155312742Y-69402500D01*
X155787258Y-70447500D02*
X155312742Y-70447500D01*
X155787258Y-70952500D02*
X155312742Y-70952500D01*
X155787258Y-71997500D02*
X155312742Y-71997500D01*
X155787258Y-72752500D02*
X155312742Y-72752500D01*
X155787258Y-73797500D02*
X155312742Y-73797500D01*
X155787258Y-74277500D02*
X155312742Y-74277500D01*
X155787258Y-75322500D02*
X155312742Y-75322500D01*
X146887258Y-74877500D02*
X146412742Y-74877500D01*
X146887258Y-75922500D02*
X146412742Y-75922500D01*
X146887258Y-76527500D02*
X146412742Y-76527500D01*
X146887258Y-77572500D02*
X146412742Y-77572500D01*
X156350558Y-54818980D02*
X155876042Y-54818980D01*
X156350558Y-55863980D02*
X155876042Y-55863980D01*
X156355638Y-56348060D02*
X155881122Y-56348060D01*
X156355638Y-57393060D02*
X155881122Y-57393060D01*
X127712742Y-82472500D02*
X128187258Y-82472500D01*
X127712742Y-81427500D02*
X128187258Y-81427500D01*
X127702742Y-80922500D02*
X128177258Y-80922500D01*
X127702742Y-79877500D02*
X128177258Y-79877500D01*
X128187258Y-78327500D02*
X127712742Y-78327500D01*
X128187258Y-79372500D02*
X127712742Y-79372500D01*
X171127500Y-80812742D02*
X171127500Y-81287258D01*
X172172500Y-80812742D02*
X172172500Y-81287258D01*
X171577500Y-59312742D02*
X171577500Y-59787258D01*
X172622500Y-59312742D02*
X172622500Y-59787258D01*
X149877500Y-81812742D02*
X149877500Y-82287258D01*
X150922500Y-81812742D02*
X150922500Y-82287258D01*
X129727500Y-52662742D02*
X129727500Y-53137258D01*
X130772500Y-52662742D02*
X130772500Y-53137258D01*
X165150000Y-87775000D02*
X165150000Y-89475000D01*
X165150000Y-89475000D02*
X162000000Y-89475000D01*
X165150000Y-87775000D02*
X162000000Y-87775000D01*
X165150000Y-85650000D02*
X165150000Y-87350000D01*
X165150000Y-87350000D02*
X162000000Y-87350000D01*
X165150000Y-85650000D02*
X162000000Y-85650000D01*
D11*
X169250000Y-61200000D02*
X168975000Y-61200000D01*
X168975000Y-61200000D02*
X168600000Y-60925000D01*
X168600000Y-60925000D02*
X168600000Y-60875000D01*
X168600000Y-60875000D02*
X167825000Y-60875000D01*
X169075000Y-57900000D02*
X168600000Y-57900000D01*
X168600000Y-57900000D02*
X168600000Y-58250000D01*
X170250000Y-58125000D02*
X170250000Y-58250000D01*
X170250000Y-58200000D02*
X170250000Y-57900000D01*
X170250000Y-57900000D02*
X169800000Y-57900000D01*
X169875000Y-61200000D02*
X170250000Y-61200000D01*
X170250000Y-61200000D02*
X170250000Y-60900000D01*
D10*
X160115580Y-54565000D02*
X159834420Y-54565000D01*
X160115580Y-55585000D02*
X159834420Y-55585000D01*
X164034420Y-55585000D02*
X164315580Y-55585000D01*
X164034420Y-54565000D02*
X164315580Y-54565000D01*
X127809420Y-84010000D02*
X128090580Y-84010000D01*
X127809420Y-82990000D02*
X128090580Y-82990000D01*
X165715000Y-78688748D02*
X165715000Y-79211252D01*
X167185000Y-78688748D02*
X167185000Y-79211252D01*
X172140580Y-74890000D02*
X171859420Y-74890000D01*
X172140580Y-75910000D02*
X171859420Y-75910000D01*
D12*
X141367620Y-91356266D02*
X142081906Y-91356266D01*
X142224763Y-91308647D01*
X142320001Y-91213409D01*
X142367620Y-91070552D01*
X142367620Y-90975314D01*
X141462859Y-91784838D02*
X141415240Y-91832457D01*
X141367620Y-91927695D01*
X141367620Y-92165790D01*
X141415240Y-92261028D01*
X141462859Y-92308647D01*
X141558097Y-92356266D01*
X141653335Y-92356266D01*
X141796192Y-92308647D01*
X142367620Y-91737219D01*
X142367620Y-92356266D01*
X144372857Y-74157142D02*
X144420476Y-74204761D01*
X144563333Y-74252380D01*
X144658571Y-74252380D01*
X144801428Y-74204761D01*
X144896666Y-74109523D01*
X144944285Y-74014285D01*
X144991904Y-73823809D01*
X144991904Y-73680952D01*
X144944285Y-73490476D01*
X144896666Y-73395238D01*
X144801428Y-73300000D01*
X144658571Y-73252380D01*
X144563333Y-73252380D01*
X144420476Y-73300000D01*
X144372857Y-73347619D01*
X144039523Y-73252380D02*
X143420476Y-73252380D01*
X143753809Y-73633333D01*
X143610952Y-73633333D01*
X143515714Y-73680952D01*
X143468095Y-73728571D01*
X143420476Y-73823809D01*
X143420476Y-74061904D01*
X143468095Y-74157142D01*
X143515714Y-74204761D01*
X143610952Y-74252380D01*
X143896666Y-74252380D01*
X143991904Y-74204761D01*
X144039523Y-74157142D01*
X143087142Y-73252380D02*
X142420476Y-73252380D01*
X142849047Y-74252380D01*
X140077142Y-71697142D02*
X140124761Y-71649523D01*
X140172380Y-71506666D01*
X140172380Y-71411428D01*
X140124761Y-71268571D01*
X140029523Y-71173333D01*
X139934285Y-71125714D01*
X139743809Y-71078095D01*
X139600952Y-71078095D01*
X139410476Y-71125714D01*
X139315238Y-71173333D01*
X139220000Y-71268571D01*
X139172380Y-71411428D01*
X139172380Y-71506666D01*
X139220000Y-71649523D01*
X139267619Y-71697142D01*
X139172380Y-72030476D02*
X139172380Y-72649523D01*
X139553333Y-72316190D01*
X139553333Y-72459047D01*
X139600952Y-72554285D01*
X139648571Y-72601904D01*
X139743809Y-72649523D01*
X139981904Y-72649523D01*
X140077142Y-72601904D01*
X140124761Y-72554285D01*
X140172380Y-72459047D01*
X140172380Y-72173333D01*
X140124761Y-72078095D01*
X140077142Y-72030476D01*
X139172380Y-73506666D02*
X139172380Y-73316190D01*
X139220000Y-73220952D01*
X139267619Y-73173333D01*
X139410476Y-73078095D01*
X139600952Y-73030476D01*
X139981904Y-73030476D01*
X140077142Y-73078095D01*
X140124761Y-73125714D01*
X140172380Y-73220952D01*
X140172380Y-73411428D01*
X140124761Y-73506666D01*
X140077142Y-73554285D01*
X139981904Y-73601904D01*
X139743809Y-73601904D01*
X139648571Y-73554285D01*
X139600952Y-73506666D01*
X139553333Y-73411428D01*
X139553333Y-73220952D01*
X139600952Y-73125714D01*
X139648571Y-73078095D01*
X139743809Y-73030476D01*
X150392857Y-70127142D02*
X150440476Y-70174761D01*
X150583333Y-70222380D01*
X150678571Y-70222380D01*
X150821428Y-70174761D01*
X150916666Y-70079523D01*
X150964285Y-69984285D01*
X151011904Y-69793809D01*
X151011904Y-69650952D01*
X150964285Y-69460476D01*
X150916666Y-69365238D01*
X150821428Y-69270000D01*
X150678571Y-69222380D01*
X150583333Y-69222380D01*
X150440476Y-69270000D01*
X150392857Y-69317619D01*
X150059523Y-69222380D02*
X149440476Y-69222380D01*
X149773809Y-69603333D01*
X149630952Y-69603333D01*
X149535714Y-69650952D01*
X149488095Y-69698571D01*
X149440476Y-69793809D01*
X149440476Y-70031904D01*
X149488095Y-70127142D01*
X149535714Y-70174761D01*
X149630952Y-70222380D01*
X149916666Y-70222380D01*
X150011904Y-70174761D01*
X150059523Y-70127142D01*
X148535714Y-69222380D02*
X149011904Y-69222380D01*
X149059523Y-69698571D01*
X149011904Y-69650952D01*
X148916666Y-69603333D01*
X148678571Y-69603333D01*
X148583333Y-69650952D01*
X148535714Y-69698571D01*
X148488095Y-69793809D01*
X148488095Y-70031904D01*
X148535714Y-70127142D01*
X148583333Y-70174761D01*
X148678571Y-70222380D01*
X148916666Y-70222380D01*
X149011904Y-70174761D01*
X149059523Y-70127142D01*
X137117857Y-78157142D02*
X137165476Y-78204761D01*
X137308333Y-78252380D01*
X137403571Y-78252380D01*
X137546428Y-78204761D01*
X137641666Y-78109523D01*
X137689285Y-78014285D01*
X137736904Y-77823809D01*
X137736904Y-77680952D01*
X137689285Y-77490476D01*
X137641666Y-77395238D01*
X137546428Y-77300000D01*
X137403571Y-77252380D01*
X137308333Y-77252380D01*
X137165476Y-77300000D01*
X137117857Y-77347619D01*
X136784523Y-77252380D02*
X136165476Y-77252380D01*
X136498809Y-77633333D01*
X136355952Y-77633333D01*
X136260714Y-77680952D01*
X136213095Y-77728571D01*
X136165476Y-77823809D01*
X136165476Y-78061904D01*
X136213095Y-78157142D01*
X136260714Y-78204761D01*
X136355952Y-78252380D01*
X136641666Y-78252380D01*
X136736904Y-78204761D01*
X136784523Y-78157142D01*
X135308333Y-77585714D02*
X135308333Y-78252380D01*
X135546428Y-77204761D02*
X135784523Y-77919047D01*
X135165476Y-77919047D01*
X149867857Y-71797142D02*
X149915476Y-71844761D01*
X150058333Y-71892380D01*
X150153571Y-71892380D01*
X150296428Y-71844761D01*
X150391666Y-71749523D01*
X150439285Y-71654285D01*
X150486904Y-71463809D01*
X150486904Y-71320952D01*
X150439285Y-71130476D01*
X150391666Y-71035238D01*
X150296428Y-70940000D01*
X150153571Y-70892380D01*
X150058333Y-70892380D01*
X149915476Y-70940000D01*
X149867857Y-70987619D01*
X149534523Y-70892380D02*
X148915476Y-70892380D01*
X149248809Y-71273333D01*
X149105952Y-71273333D01*
X149010714Y-71320952D01*
X148963095Y-71368571D01*
X148915476Y-71463809D01*
X148915476Y-71701904D01*
X148963095Y-71797142D01*
X149010714Y-71844761D01*
X149105952Y-71892380D01*
X149391666Y-71892380D01*
X149486904Y-71844761D01*
X149534523Y-71797142D01*
X148582142Y-70892380D02*
X147963095Y-70892380D01*
X148296428Y-71273333D01*
X148153571Y-71273333D01*
X148058333Y-71320952D01*
X148010714Y-71368571D01*
X147963095Y-71463809D01*
X147963095Y-71701904D01*
X148010714Y-71797142D01*
X148058333Y-71844761D01*
X148153571Y-71892380D01*
X148439285Y-71892380D01*
X148534523Y-71844761D01*
X148582142Y-71797142D01*
X147462857Y-79317142D02*
X147510476Y-79364761D01*
X147653333Y-79412380D01*
X147748571Y-79412380D01*
X147891428Y-79364761D01*
X147986666Y-79269523D01*
X148034285Y-79174285D01*
X148081904Y-78983809D01*
X148081904Y-78840952D01*
X148034285Y-78650476D01*
X147986666Y-78555238D01*
X147891428Y-78460000D01*
X147748571Y-78412380D01*
X147653333Y-78412380D01*
X147510476Y-78460000D01*
X147462857Y-78507619D01*
X147129523Y-78412380D02*
X146510476Y-78412380D01*
X146843809Y-78793333D01*
X146700952Y-78793333D01*
X146605714Y-78840952D01*
X146558095Y-78888571D01*
X146510476Y-78983809D01*
X146510476Y-79221904D01*
X146558095Y-79317142D01*
X146605714Y-79364761D01*
X146700952Y-79412380D01*
X146986666Y-79412380D01*
X147081904Y-79364761D01*
X147129523Y-79317142D01*
X146129523Y-78507619D02*
X146081904Y-78460000D01*
X145986666Y-78412380D01*
X145748571Y-78412380D01*
X145653333Y-78460000D01*
X145605714Y-78507619D01*
X145558095Y-78602857D01*
X145558095Y-78698095D01*
X145605714Y-78840952D01*
X146177142Y-79412380D01*
X145558095Y-79412380D01*
X141367142Y-71687142D02*
X141414761Y-71639523D01*
X141462380Y-71496666D01*
X141462380Y-71401428D01*
X141414761Y-71258571D01*
X141319523Y-71163333D01*
X141224285Y-71115714D01*
X141033809Y-71068095D01*
X140890952Y-71068095D01*
X140700476Y-71115714D01*
X140605238Y-71163333D01*
X140510000Y-71258571D01*
X140462380Y-71401428D01*
X140462380Y-71496666D01*
X140510000Y-71639523D01*
X140557619Y-71687142D01*
X140462380Y-72020476D02*
X140462380Y-72639523D01*
X140843333Y-72306190D01*
X140843333Y-72449047D01*
X140890952Y-72544285D01*
X140938571Y-72591904D01*
X141033809Y-72639523D01*
X141271904Y-72639523D01*
X141367142Y-72591904D01*
X141414761Y-72544285D01*
X141462380Y-72449047D01*
X141462380Y-72163333D01*
X141414761Y-72068095D01*
X141367142Y-72020476D01*
X140462380Y-73258571D02*
X140462380Y-73353809D01*
X140510000Y-73449047D01*
X140557619Y-73496666D01*
X140652857Y-73544285D01*
X140843333Y-73591904D01*
X141081428Y-73591904D01*
X141271904Y-73544285D01*
X141367142Y-73496666D01*
X141414761Y-73449047D01*
X141462380Y-73353809D01*
X141462380Y-73258571D01*
X141414761Y-73163333D01*
X141367142Y-73115714D01*
X141271904Y-73068095D01*
X141081428Y-73020476D01*
X140843333Y-73020476D01*
X140652857Y-73068095D01*
X140557619Y-73115714D01*
X140510000Y-73163333D01*
X140462380Y-73258571D01*
X147462857Y-80577142D02*
X147510476Y-80624761D01*
X147653333Y-80672380D01*
X147748571Y-80672380D01*
X147891428Y-80624761D01*
X147986666Y-80529523D01*
X148034285Y-80434285D01*
X148081904Y-80243809D01*
X148081904Y-80100952D01*
X148034285Y-79910476D01*
X147986666Y-79815238D01*
X147891428Y-79720000D01*
X147748571Y-79672380D01*
X147653333Y-79672380D01*
X147510476Y-79720000D01*
X147462857Y-79767619D01*
X147081904Y-79767619D02*
X147034285Y-79720000D01*
X146939047Y-79672380D01*
X146700952Y-79672380D01*
X146605714Y-79720000D01*
X146558095Y-79767619D01*
X146510476Y-79862857D01*
X146510476Y-79958095D01*
X146558095Y-80100952D01*
X147129523Y-80672380D01*
X146510476Y-80672380D01*
X146034285Y-80672380D02*
X145843809Y-80672380D01*
X145748571Y-80624761D01*
X145700952Y-80577142D01*
X145605714Y-80434285D01*
X145558095Y-80243809D01*
X145558095Y-79862857D01*
X145605714Y-79767619D01*
X145653333Y-79720000D01*
X145748571Y-79672380D01*
X145939047Y-79672380D01*
X146034285Y-79720000D01*
X146081904Y-79767619D01*
X146129523Y-79862857D01*
X146129523Y-80100952D01*
X146081904Y-80196190D01*
X146034285Y-80243809D01*
X145939047Y-80291428D01*
X145748571Y-80291428D01*
X145653333Y-80243809D01*
X145605714Y-80196190D01*
X145558095Y-80100952D01*
X137142857Y-79407142D02*
X137190476Y-79454761D01*
X137333333Y-79502380D01*
X137428571Y-79502380D01*
X137571428Y-79454761D01*
X137666666Y-79359523D01*
X137714285Y-79264285D01*
X137761904Y-79073809D01*
X137761904Y-78930952D01*
X137714285Y-78740476D01*
X137666666Y-78645238D01*
X137571428Y-78550000D01*
X137428571Y-78502380D01*
X137333333Y-78502380D01*
X137190476Y-78550000D01*
X137142857Y-78597619D01*
X136761904Y-78597619D02*
X136714285Y-78550000D01*
X136619047Y-78502380D01*
X136380952Y-78502380D01*
X136285714Y-78550000D01*
X136238095Y-78597619D01*
X136190476Y-78692857D01*
X136190476Y-78788095D01*
X136238095Y-78930952D01*
X136809523Y-79502380D01*
X136190476Y-79502380D01*
X135619047Y-78930952D02*
X135714285Y-78883333D01*
X135761904Y-78835714D01*
X135809523Y-78740476D01*
X135809523Y-78692857D01*
X135761904Y-78597619D01*
X135714285Y-78550000D01*
X135619047Y-78502380D01*
X135428571Y-78502380D01*
X135333333Y-78550000D01*
X135285714Y-78597619D01*
X135238095Y-78692857D01*
X135238095Y-78740476D01*
X135285714Y-78835714D01*
X135333333Y-78883333D01*
X135428571Y-78930952D01*
X135619047Y-78930952D01*
X135714285Y-78978571D01*
X135761904Y-79026190D01*
X135809523Y-79121428D01*
X135809523Y-79311904D01*
X135761904Y-79407142D01*
X135714285Y-79454761D01*
X135619047Y-79502380D01*
X135428571Y-79502380D01*
X135333333Y-79454761D01*
X135285714Y-79407142D01*
X135238095Y-79311904D01*
X135238095Y-79121428D01*
X135285714Y-79026190D01*
X135333333Y-78978571D01*
X135428571Y-78930952D01*
X153267142Y-66907142D02*
X153314761Y-66859523D01*
X153362380Y-66716666D01*
X153362380Y-66621428D01*
X153314761Y-66478571D01*
X153219523Y-66383333D01*
X153124285Y-66335714D01*
X152933809Y-66288095D01*
X152790952Y-66288095D01*
X152600476Y-66335714D01*
X152505238Y-66383333D01*
X152410000Y-66478571D01*
X152362380Y-66621428D01*
X152362380Y-66716666D01*
X152410000Y-66859523D01*
X152457619Y-66907142D01*
X152457619Y-67288095D02*
X152410000Y-67335714D01*
X152362380Y-67430952D01*
X152362380Y-67669047D01*
X152410000Y-67764285D01*
X152457619Y-67811904D01*
X152552857Y-67859523D01*
X152648095Y-67859523D01*
X152790952Y-67811904D01*
X153362380Y-67240476D01*
X153362380Y-67859523D01*
X152362380Y-68192857D02*
X152362380Y-68859523D01*
X153362380Y-68430952D01*
X151714285Y-75310714D02*
X151752380Y-75348809D01*
X151866666Y-75386904D01*
X151942857Y-75386904D01*
X152057142Y-75348809D01*
X152133333Y-75272619D01*
X152171428Y-75196428D01*
X152209523Y-75044047D01*
X152209523Y-74929761D01*
X152171428Y-74777380D01*
X152133333Y-74701190D01*
X152057142Y-74625000D01*
X151942857Y-74586904D01*
X151866666Y-74586904D01*
X151752380Y-74625000D01*
X151714285Y-74663095D01*
X151409523Y-74663095D02*
X151371428Y-74625000D01*
X151295238Y-74586904D01*
X151104761Y-74586904D01*
X151028571Y-74625000D01*
X150990476Y-74663095D01*
X150952380Y-74739285D01*
X150952380Y-74815476D01*
X150990476Y-74929761D01*
X151447619Y-75386904D01*
X150952380Y-75386904D01*
X150266666Y-74586904D02*
X150419047Y-74586904D01*
X150495238Y-74625000D01*
X150533333Y-74663095D01*
X150609523Y-74777380D01*
X150647619Y-74929761D01*
X150647619Y-75234523D01*
X150609523Y-75310714D01*
X150571428Y-75348809D01*
X150495238Y-75386904D01*
X150342857Y-75386904D01*
X150266666Y-75348809D01*
X150228571Y-75310714D01*
X150190476Y-75234523D01*
X150190476Y-75044047D01*
X150228571Y-74967857D01*
X150266666Y-74929761D01*
X150342857Y-74891666D01*
X150495238Y-74891666D01*
X150571428Y-74929761D01*
X150609523Y-74967857D01*
X150647619Y-75044047D01*
X174285714Y-67760714D02*
X174323809Y-67722619D01*
X174361904Y-67608333D01*
X174361904Y-67532142D01*
X174323809Y-67417857D01*
X174247619Y-67341666D01*
X174171428Y-67303571D01*
X174019047Y-67265476D01*
X173904761Y-67265476D01*
X173752380Y-67303571D01*
X173676190Y-67341666D01*
X173600000Y-67417857D01*
X173561904Y-67532142D01*
X173561904Y-67608333D01*
X173600000Y-67722619D01*
X173638095Y-67760714D01*
X174361904Y-68522619D02*
X174361904Y-68065476D01*
X174361904Y-68294047D02*
X173561904Y-68294047D01*
X173676190Y-68217857D01*
X173752380Y-68141666D01*
X173790476Y-68065476D01*
X173828571Y-69208333D02*
X174361904Y-69208333D01*
X173523809Y-69017857D02*
X174095238Y-68827380D01*
X174095238Y-69322619D01*
X155739285Y-76310714D02*
X155777380Y-76348809D01*
X155891666Y-76386904D01*
X155967857Y-76386904D01*
X156082142Y-76348809D01*
X156158333Y-76272619D01*
X156196428Y-76196428D01*
X156234523Y-76044047D01*
X156234523Y-75929761D01*
X156196428Y-75777380D01*
X156158333Y-75701190D01*
X156082142Y-75625000D01*
X155967857Y-75586904D01*
X155891666Y-75586904D01*
X155777380Y-75625000D01*
X155739285Y-75663095D01*
X154977380Y-76386904D02*
X155434523Y-76386904D01*
X155205952Y-76386904D02*
X155205952Y-75586904D01*
X155282142Y-75701190D01*
X155358333Y-75777380D01*
X155434523Y-75815476D01*
X154215476Y-76386904D02*
X154672619Y-76386904D01*
X154444047Y-76386904D02*
X154444047Y-75586904D01*
X154520238Y-75701190D01*
X154596428Y-75777380D01*
X154672619Y-75815476D01*
X128292857Y-49647142D02*
X128340476Y-49694761D01*
X128483333Y-49742380D01*
X128578571Y-49742380D01*
X128721428Y-49694761D01*
X128816666Y-49599523D01*
X128864285Y-49504285D01*
X128911904Y-49313809D01*
X128911904Y-49170952D01*
X128864285Y-48980476D01*
X128816666Y-48885238D01*
X128721428Y-48790000D01*
X128578571Y-48742380D01*
X128483333Y-48742380D01*
X128340476Y-48790000D01*
X128292857Y-48837619D01*
X127340476Y-49742380D02*
X127911904Y-49742380D01*
X127626190Y-49742380D02*
X127626190Y-48742380D01*
X127721428Y-48885238D01*
X127816666Y-48980476D01*
X127911904Y-49028095D01*
X126721428Y-48742380D02*
X126626190Y-48742380D01*
X126530952Y-48790000D01*
X126483333Y-48837619D01*
X126435714Y-48932857D01*
X126388095Y-49123333D01*
X126388095Y-49361428D01*
X126435714Y-49551904D01*
X126483333Y-49647142D01*
X126530952Y-49694761D01*
X126626190Y-49742380D01*
X126721428Y-49742380D01*
X126816666Y-49694761D01*
X126864285Y-49647142D01*
X126911904Y-49551904D01*
X126959523Y-49361428D01*
X126959523Y-49123333D01*
X126911904Y-48932857D01*
X126864285Y-48837619D01*
X126816666Y-48790000D01*
X126721428Y-48742380D01*
X149366666Y-77557142D02*
X149414285Y-77604761D01*
X149557142Y-77652380D01*
X149652380Y-77652380D01*
X149795238Y-77604761D01*
X149890476Y-77509523D01*
X149938095Y-77414285D01*
X149985714Y-77223809D01*
X149985714Y-77080952D01*
X149938095Y-76890476D01*
X149890476Y-76795238D01*
X149795238Y-76700000D01*
X149652380Y-76652380D01*
X149557142Y-76652380D01*
X149414285Y-76700000D01*
X149366666Y-76747619D01*
X148890476Y-77652380D02*
X148700000Y-77652380D01*
X148604761Y-77604761D01*
X148557142Y-77557142D01*
X148461904Y-77414285D01*
X148414285Y-77223809D01*
X148414285Y-76842857D01*
X148461904Y-76747619D01*
X148509523Y-76700000D01*
X148604761Y-76652380D01*
X148795238Y-76652380D01*
X148890476Y-76700000D01*
X148938095Y-76747619D01*
X148985714Y-76842857D01*
X148985714Y-77080952D01*
X148938095Y-77176190D01*
X148890476Y-77223809D01*
X148795238Y-77271428D01*
X148604761Y-77271428D01*
X148509523Y-77223809D01*
X148461904Y-77176190D01*
X148414285Y-77080952D01*
X132127142Y-50308333D02*
X132174761Y-50260714D01*
X132222380Y-50117857D01*
X132222380Y-50022619D01*
X132174761Y-49879761D01*
X132079523Y-49784523D01*
X131984285Y-49736904D01*
X131793809Y-49689285D01*
X131650952Y-49689285D01*
X131460476Y-49736904D01*
X131365238Y-49784523D01*
X131270000Y-49879761D01*
X131222380Y-50022619D01*
X131222380Y-50117857D01*
X131270000Y-50260714D01*
X131317619Y-50308333D01*
X131555714Y-51165476D02*
X132222380Y-51165476D01*
X131174761Y-50927380D02*
X131889047Y-50689285D01*
X131889047Y-51308333D01*
X130786904Y-66927380D02*
X130786904Y-67736904D01*
X130739285Y-67832142D01*
X130691666Y-67879761D01*
X130596428Y-67927380D01*
X130405952Y-67927380D01*
X130310714Y-67879761D01*
X130263095Y-67832142D01*
X130215476Y-67736904D01*
X130215476Y-66927380D01*
X129215476Y-67927380D02*
X129786904Y-67927380D01*
X129501190Y-67927380D02*
X129501190Y-66927380D01*
X129596428Y-67070238D01*
X129691666Y-67165476D01*
X129786904Y-67213095D01*
X132760714Y-57341666D02*
X132798809Y-57303571D01*
X132836904Y-57189285D01*
X132836904Y-57113095D01*
X132798809Y-56998809D01*
X132722619Y-56922619D01*
X132646428Y-56884523D01*
X132494047Y-56846428D01*
X132379761Y-56846428D01*
X132227380Y-56884523D01*
X132151190Y-56922619D01*
X132075000Y-56998809D01*
X132036904Y-57113095D01*
X132036904Y-57189285D01*
X132075000Y-57303571D01*
X132113095Y-57341666D01*
X132113095Y-57646428D02*
X132075000Y-57684523D01*
X132036904Y-57760714D01*
X132036904Y-57951190D01*
X132075000Y-58027380D01*
X132113095Y-58065476D01*
X132189285Y-58103571D01*
X132265476Y-58103571D01*
X132379761Y-58065476D01*
X132836904Y-57608333D01*
X132836904Y-58103571D01*
X151173333Y-74175714D02*
X151211428Y-74213809D01*
X151325714Y-74251904D01*
X151401904Y-74251904D01*
X151516190Y-74213809D01*
X151592380Y-74137619D01*
X151630476Y-74061428D01*
X151668571Y-73909047D01*
X151668571Y-73794761D01*
X151630476Y-73642380D01*
X151592380Y-73566190D01*
X151516190Y-73490000D01*
X151401904Y-73451904D01*
X151325714Y-73451904D01*
X151211428Y-73490000D01*
X151173333Y-73528095D01*
X150411428Y-74251904D02*
X150868571Y-74251904D01*
X150640000Y-74251904D02*
X150640000Y-73451904D01*
X150716190Y-73566190D01*
X150792380Y-73642380D01*
X150868571Y-73680476D01*
X134682142Y-59257142D02*
X134729761Y-59209523D01*
X134777380Y-59066666D01*
X134777380Y-58971428D01*
X134729761Y-58828571D01*
X134634523Y-58733333D01*
X134539285Y-58685714D01*
X134348809Y-58638095D01*
X134205952Y-58638095D01*
X134015476Y-58685714D01*
X133920238Y-58733333D01*
X133825000Y-58828571D01*
X133777380Y-58971428D01*
X133777380Y-59066666D01*
X133825000Y-59209523D01*
X133872619Y-59257142D01*
X134777380Y-60209523D02*
X134777380Y-59638095D01*
X134777380Y-59923809D02*
X133777380Y-59923809D01*
X133920238Y-59828571D01*
X134015476Y-59733333D01*
X134063095Y-59638095D01*
X134205952Y-60780952D02*
X134158333Y-60685714D01*
X134110714Y-60638095D01*
X134015476Y-60590476D01*
X133967857Y-60590476D01*
X133872619Y-60638095D01*
X133825000Y-60685714D01*
X133777380Y-60780952D01*
X133777380Y-60971428D01*
X133825000Y-61066666D01*
X133872619Y-61114285D01*
X133967857Y-61161904D01*
X134015476Y-61161904D01*
X134110714Y-61114285D01*
X134158333Y-61066666D01*
X134205952Y-60971428D01*
X134205952Y-60780952D01*
X134253571Y-60685714D01*
X134301190Y-60638095D01*
X134396428Y-60590476D01*
X134586904Y-60590476D01*
X134682142Y-60638095D01*
X134729761Y-60685714D01*
X134777380Y-60780952D01*
X134777380Y-60971428D01*
X134729761Y-61066666D01*
X134682142Y-61114285D01*
X134586904Y-61161904D01*
X134396428Y-61161904D01*
X134301190Y-61114285D01*
X134253571Y-61066666D01*
X134205952Y-60971428D01*
X141713095Y-66402380D02*
X141713095Y-65402380D01*
X141475000Y-65402380D01*
X141332142Y-65450000D01*
X141236904Y-65545238D01*
X141189285Y-65640476D01*
X141141666Y-65830952D01*
X141141666Y-65973809D01*
X141189285Y-66164285D01*
X141236904Y-66259523D01*
X141332142Y-66354761D01*
X141475000Y-66402380D01*
X141713095Y-66402380D01*
X140665476Y-66402380D02*
X140475000Y-66402380D01*
X140379761Y-66354761D01*
X140332142Y-66307142D01*
X140236904Y-66164285D01*
X140189285Y-65973809D01*
X140189285Y-65592857D01*
X140236904Y-65497619D01*
X140284523Y-65450000D01*
X140379761Y-65402380D01*
X140570238Y-65402380D01*
X140665476Y-65450000D01*
X140713095Y-65497619D01*
X140760714Y-65592857D01*
X140760714Y-65830952D01*
X140713095Y-65926190D01*
X140665476Y-65973809D01*
X140570238Y-66021428D01*
X140379761Y-66021428D01*
X140284523Y-65973809D01*
X140236904Y-65926190D01*
X140189285Y-65830952D01*
X143950476Y-51951904D02*
X143950476Y-51151904D01*
X143760000Y-51151904D01*
X143645714Y-51190000D01*
X143569523Y-51266190D01*
X143531428Y-51342380D01*
X143493333Y-51494761D01*
X143493333Y-51609047D01*
X143531428Y-51761428D01*
X143569523Y-51837619D01*
X143645714Y-51913809D01*
X143760000Y-51951904D01*
X143950476Y-51951904D01*
X143226666Y-51151904D02*
X142693333Y-51151904D01*
X143036190Y-51951904D01*
X153792857Y-58754962D02*
X153840476Y-58802581D01*
X153983333Y-58850200D01*
X154078571Y-58850200D01*
X154221428Y-58802581D01*
X154316666Y-58707343D01*
X154364285Y-58612105D01*
X154411904Y-58421629D01*
X154411904Y-58278772D01*
X154364285Y-58088296D01*
X154316666Y-57993058D01*
X154221428Y-57897820D01*
X154078571Y-57850200D01*
X153983333Y-57850200D01*
X153840476Y-57897820D01*
X153792857Y-57945439D01*
X153411904Y-57945439D02*
X153364285Y-57897820D01*
X153269047Y-57850200D01*
X153030952Y-57850200D01*
X152935714Y-57897820D01*
X152888095Y-57945439D01*
X152840476Y-58040677D01*
X152840476Y-58135915D01*
X152888095Y-58278772D01*
X153459523Y-58850200D01*
X152840476Y-58850200D01*
X152459523Y-57945439D02*
X152411904Y-57897820D01*
X152316666Y-57850200D01*
X152078571Y-57850200D01*
X151983333Y-57897820D01*
X151935714Y-57945439D01*
X151888095Y-58040677D01*
X151888095Y-58135915D01*
X151935714Y-58278772D01*
X152507142Y-58850200D01*
X151888095Y-58850200D01*
X162788095Y-77102380D02*
X162788095Y-77911904D01*
X162740476Y-78007142D01*
X162692857Y-78054761D01*
X162597619Y-78102380D01*
X162407142Y-78102380D01*
X162311904Y-78054761D01*
X162264285Y-78007142D01*
X162216666Y-77911904D01*
X162216666Y-77102380D01*
X161216666Y-78102380D02*
X161788095Y-78102380D01*
X161502380Y-78102380D02*
X161502380Y-77102380D01*
X161597619Y-77245238D01*
X161692857Y-77340476D01*
X161788095Y-77388095D01*
X160264285Y-78102380D02*
X160835714Y-78102380D01*
X160550000Y-78102380D02*
X160550000Y-77102380D01*
X160645238Y-77245238D01*
X160740476Y-77340476D01*
X160835714Y-77388095D01*
X145591904Y-69252380D02*
X145591904Y-70061904D01*
X145544285Y-70157142D01*
X145496666Y-70204761D01*
X145401428Y-70252380D01*
X145210952Y-70252380D01*
X145115714Y-70204761D01*
X145068095Y-70157142D01*
X145020476Y-70061904D01*
X145020476Y-69252380D01*
X144496666Y-70252380D02*
X144306190Y-70252380D01*
X144210952Y-70204761D01*
X144163333Y-70157142D01*
X144068095Y-70014285D01*
X144020476Y-69823809D01*
X144020476Y-69442857D01*
X144068095Y-69347619D01*
X144115714Y-69300000D01*
X144210952Y-69252380D01*
X144401428Y-69252380D01*
X144496666Y-69300000D01*
X144544285Y-69347619D01*
X144591904Y-69442857D01*
X144591904Y-69680952D01*
X144544285Y-69776190D01*
X144496666Y-69823809D01*
X144401428Y-69871428D01*
X144210952Y-69871428D01*
X144115714Y-69823809D01*
X144068095Y-69776190D01*
X144020476Y-69680952D01*
X165902380Y-56038095D02*
X166711904Y-56038095D01*
X166807142Y-56085714D01*
X166854761Y-56133333D01*
X166902380Y-56228571D01*
X166902380Y-56419047D01*
X166854761Y-56514285D01*
X166807142Y-56561904D01*
X166711904Y-56609523D01*
X165902380Y-56609523D01*
X166330952Y-57228571D02*
X166283333Y-57133333D01*
X166235714Y-57085714D01*
X166140476Y-57038095D01*
X166092857Y-57038095D01*
X165997619Y-57085714D01*
X165950000Y-57133333D01*
X165902380Y-57228571D01*
X165902380Y-57419047D01*
X165950000Y-57514285D01*
X165997619Y-57561904D01*
X166092857Y-57609523D01*
X166140476Y-57609523D01*
X166235714Y-57561904D01*
X166283333Y-57514285D01*
X166330952Y-57419047D01*
X166330952Y-57228571D01*
X166378571Y-57133333D01*
X166426190Y-57085714D01*
X166521428Y-57038095D01*
X166711904Y-57038095D01*
X166807142Y-57085714D01*
X166854761Y-57133333D01*
X166902380Y-57228571D01*
X166902380Y-57419047D01*
X166854761Y-57514285D01*
X166807142Y-57561904D01*
X166711904Y-57609523D01*
X166521428Y-57609523D01*
X166426190Y-57561904D01*
X166378571Y-57514285D01*
X166330952Y-57419047D01*
X167811904Y-74827380D02*
X167811904Y-75636904D01*
X167764285Y-75732142D01*
X167716666Y-75779761D01*
X167621428Y-75827380D01*
X167430952Y-75827380D01*
X167335714Y-75779761D01*
X167288095Y-75732142D01*
X167240476Y-75636904D01*
X167240476Y-74827380D01*
X166335714Y-74827380D02*
X166526190Y-74827380D01*
X166621428Y-74875000D01*
X166669047Y-74922619D01*
X166764285Y-75065476D01*
X166811904Y-75255952D01*
X166811904Y-75636904D01*
X166764285Y-75732142D01*
X166716666Y-75779761D01*
X166621428Y-75827380D01*
X166430952Y-75827380D01*
X166335714Y-75779761D01*
X166288095Y-75732142D01*
X166240476Y-75636904D01*
X166240476Y-75398809D01*
X166288095Y-75303571D01*
X166335714Y-75255952D01*
X166430952Y-75208333D01*
X166621428Y-75208333D01*
X166716666Y-75255952D01*
X166764285Y-75303571D01*
X166811904Y-75398809D01*
X173336904Y-62077380D02*
X173336904Y-62886904D01*
X173289285Y-62982142D01*
X173241666Y-63029761D01*
X173146428Y-63077380D01*
X172955952Y-63077380D01*
X172860714Y-63029761D01*
X172813095Y-62982142D01*
X172765476Y-62886904D01*
X172765476Y-62077380D01*
X171813095Y-62077380D02*
X172289285Y-62077380D01*
X172336904Y-62553571D01*
X172289285Y-62505952D01*
X172194047Y-62458333D01*
X171955952Y-62458333D01*
X171860714Y-62505952D01*
X171813095Y-62553571D01*
X171765476Y-62648809D01*
X171765476Y-62886904D01*
X171813095Y-62982142D01*
X171860714Y-63029761D01*
X171955952Y-63077380D01*
X172194047Y-63077380D01*
X172289285Y-63029761D01*
X172336904Y-62982142D01*
X156872380Y-79598095D02*
X157681904Y-79598095D01*
X157777142Y-79645714D01*
X157824761Y-79693333D01*
X157872380Y-79788571D01*
X157872380Y-79979047D01*
X157824761Y-80074285D01*
X157777142Y-80121904D01*
X157681904Y-80169523D01*
X156872380Y-80169523D01*
X157205714Y-81074285D02*
X157872380Y-81074285D01*
X156824761Y-80836190D02*
X157539047Y-80598095D01*
X157539047Y-81217142D01*
X125771428Y-54942857D02*
X126257142Y-54942857D01*
X126314285Y-54971428D01*
X126342857Y-55000000D01*
X126371428Y-55057142D01*
X126371428Y-55171428D01*
X126342857Y-55228571D01*
X126314285Y-55257142D01*
X126257142Y-55285714D01*
X125771428Y-55285714D01*
X125771428Y-55514285D02*
X125771428Y-55885714D01*
X126000000Y-55685714D01*
X126000000Y-55771428D01*
X126028571Y-55828571D01*
X126057142Y-55857142D01*
X126114285Y-55885714D01*
X126257142Y-55885714D01*
X126314285Y-55857142D01*
X126342857Y-55828571D01*
X126371428Y-55771428D01*
X126371428Y-55600000D01*
X126342857Y-55542857D01*
X126314285Y-55514285D01*
X131952380Y-60863095D02*
X132761904Y-60863095D01*
X132857142Y-60910714D01*
X132904761Y-60958333D01*
X132952380Y-61053571D01*
X132952380Y-61244047D01*
X132904761Y-61339285D01*
X132857142Y-61386904D01*
X132761904Y-61434523D01*
X131952380Y-61434523D01*
X132047619Y-61863095D02*
X132000000Y-61910714D01*
X131952380Y-62005952D01*
X131952380Y-62244047D01*
X132000000Y-62339285D01*
X132047619Y-62386904D01*
X132142857Y-62434523D01*
X132238095Y-62434523D01*
X132380952Y-62386904D01*
X132952380Y-61815476D01*
X132952380Y-62434523D01*
X154515476Y-61027380D02*
X154848809Y-60551190D01*
X155086904Y-61027380D02*
X155086904Y-60027380D01*
X154705952Y-60027380D01*
X154610714Y-60075000D01*
X154563095Y-60122619D01*
X154515476Y-60217857D01*
X154515476Y-60360714D01*
X154563095Y-60455952D01*
X154610714Y-60503571D01*
X154705952Y-60551190D01*
X155086904Y-60551190D01*
X154086904Y-61027380D02*
X154086904Y-60027380D01*
X153515476Y-61027380D01*
X153515476Y-60027380D01*
X152515476Y-61027380D02*
X153086904Y-61027380D01*
X152801190Y-61027380D02*
X152801190Y-60027380D01*
X152896428Y-60170238D01*
X152991666Y-60265476D01*
X153086904Y-60313095D01*
X156064285Y-65761904D02*
X156330952Y-65380952D01*
X156521428Y-65761904D02*
X156521428Y-64961904D01*
X156216666Y-64961904D01*
X156140476Y-65000000D01*
X156102380Y-65038095D01*
X156064285Y-65114285D01*
X156064285Y-65228571D01*
X156102380Y-65304761D01*
X156140476Y-65342857D01*
X156216666Y-65380952D01*
X156521428Y-65380952D01*
X155797619Y-64961904D02*
X155302380Y-64961904D01*
X155569047Y-65266666D01*
X155454761Y-65266666D01*
X155378571Y-65304761D01*
X155340476Y-65342857D01*
X155302380Y-65419047D01*
X155302380Y-65609523D01*
X155340476Y-65685714D01*
X155378571Y-65723809D01*
X155454761Y-65761904D01*
X155683333Y-65761904D01*
X155759523Y-65723809D01*
X155797619Y-65685714D01*
X154807142Y-64961904D02*
X154730952Y-64961904D01*
X154654761Y-65000000D01*
X154616666Y-65038095D01*
X154578571Y-65114285D01*
X154540476Y-65266666D01*
X154540476Y-65457142D01*
X154578571Y-65609523D01*
X154616666Y-65685714D01*
X154654761Y-65723809D01*
X154730952Y-65761904D01*
X154807142Y-65761904D01*
X154883333Y-65723809D01*
X154921428Y-65685714D01*
X154959523Y-65609523D01*
X154997619Y-65457142D01*
X154997619Y-65266666D01*
X154959523Y-65114285D01*
X154921428Y-65038095D01*
X154883333Y-65000000D01*
X154807142Y-64961904D01*
X156064285Y-66811904D02*
X156330952Y-66430952D01*
X156521428Y-66811904D02*
X156521428Y-66011904D01*
X156216666Y-66011904D01*
X156140476Y-66050000D01*
X156102380Y-66088095D01*
X156064285Y-66164285D01*
X156064285Y-66278571D01*
X156102380Y-66354761D01*
X156140476Y-66392857D01*
X156216666Y-66430952D01*
X156521428Y-66430952D01*
X155759523Y-66088095D02*
X155721428Y-66050000D01*
X155645238Y-66011904D01*
X155454761Y-66011904D01*
X155378571Y-66050000D01*
X155340476Y-66088095D01*
X155302380Y-66164285D01*
X155302380Y-66240476D01*
X155340476Y-66354761D01*
X155797619Y-66811904D01*
X155302380Y-66811904D01*
X154921428Y-66811904D02*
X154769047Y-66811904D01*
X154692857Y-66773809D01*
X154654761Y-66735714D01*
X154578571Y-66621428D01*
X154540476Y-66469047D01*
X154540476Y-66164285D01*
X154578571Y-66088095D01*
X154616666Y-66050000D01*
X154692857Y-66011904D01*
X154845238Y-66011904D01*
X154921428Y-66050000D01*
X154959523Y-66088095D01*
X154997619Y-66164285D01*
X154997619Y-66354761D01*
X154959523Y-66430952D01*
X154921428Y-66469047D01*
X154845238Y-66507142D01*
X154692857Y-66507142D01*
X154616666Y-66469047D01*
X154578571Y-66430952D01*
X154540476Y-66354761D01*
X156064285Y-67811904D02*
X156330952Y-67430952D01*
X156521428Y-67811904D02*
X156521428Y-67011904D01*
X156216666Y-67011904D01*
X156140476Y-67050000D01*
X156102380Y-67088095D01*
X156064285Y-67164285D01*
X156064285Y-67278571D01*
X156102380Y-67354761D01*
X156140476Y-67392857D01*
X156216666Y-67430952D01*
X156521428Y-67430952D01*
X155759523Y-67088095D02*
X155721428Y-67050000D01*
X155645238Y-67011904D01*
X155454761Y-67011904D01*
X155378571Y-67050000D01*
X155340476Y-67088095D01*
X155302380Y-67164285D01*
X155302380Y-67240476D01*
X155340476Y-67354761D01*
X155797619Y-67811904D01*
X155302380Y-67811904D01*
X154616666Y-67011904D02*
X154769047Y-67011904D01*
X154845238Y-67050000D01*
X154883333Y-67088095D01*
X154959523Y-67202380D01*
X154997619Y-67354761D01*
X154997619Y-67659523D01*
X154959523Y-67735714D01*
X154921428Y-67773809D01*
X154845238Y-67811904D01*
X154692857Y-67811904D01*
X154616666Y-67773809D01*
X154578571Y-67735714D01*
X154540476Y-67659523D01*
X154540476Y-67469047D01*
X154578571Y-67392857D01*
X154616666Y-67354761D01*
X154692857Y-67316666D01*
X154845238Y-67316666D01*
X154921428Y-67354761D01*
X154959523Y-67392857D01*
X154997619Y-67469047D01*
X156064285Y-68861904D02*
X156330952Y-68480952D01*
X156521428Y-68861904D02*
X156521428Y-68061904D01*
X156216666Y-68061904D01*
X156140476Y-68100000D01*
X156102380Y-68138095D01*
X156064285Y-68214285D01*
X156064285Y-68328571D01*
X156102380Y-68404761D01*
X156140476Y-68442857D01*
X156216666Y-68480952D01*
X156521428Y-68480952D01*
X155759523Y-68138095D02*
X155721428Y-68100000D01*
X155645238Y-68061904D01*
X155454761Y-68061904D01*
X155378571Y-68100000D01*
X155340476Y-68138095D01*
X155302380Y-68214285D01*
X155302380Y-68290476D01*
X155340476Y-68404761D01*
X155797619Y-68861904D01*
X155302380Y-68861904D01*
X154578571Y-68061904D02*
X154959523Y-68061904D01*
X154997619Y-68442857D01*
X154959523Y-68404761D01*
X154883333Y-68366666D01*
X154692857Y-68366666D01*
X154616666Y-68404761D01*
X154578571Y-68442857D01*
X154540476Y-68519047D01*
X154540476Y-68709523D01*
X154578571Y-68785714D01*
X154616666Y-68823809D01*
X154692857Y-68861904D01*
X154883333Y-68861904D01*
X154959523Y-68823809D01*
X154997619Y-68785714D01*
X144362857Y-75922380D02*
X144696190Y-75446190D01*
X144934285Y-75922380D02*
X144934285Y-74922380D01*
X144553333Y-74922380D01*
X144458095Y-74970000D01*
X144410476Y-75017619D01*
X144362857Y-75112857D01*
X144362857Y-75255714D01*
X144410476Y-75350952D01*
X144458095Y-75398571D01*
X144553333Y-75446190D01*
X144934285Y-75446190D01*
X143981904Y-75017619D02*
X143934285Y-74970000D01*
X143839047Y-74922380D01*
X143600952Y-74922380D01*
X143505714Y-74970000D01*
X143458095Y-75017619D01*
X143410476Y-75112857D01*
X143410476Y-75208095D01*
X143458095Y-75350952D01*
X144029523Y-75922380D01*
X143410476Y-75922380D01*
X143029523Y-75017619D02*
X142981904Y-74970000D01*
X142886666Y-74922380D01*
X142648571Y-74922380D01*
X142553333Y-74970000D01*
X142505714Y-75017619D01*
X142458095Y-75112857D01*
X142458095Y-75208095D01*
X142505714Y-75350952D01*
X143077142Y-75922380D01*
X142458095Y-75922380D01*
X144362857Y-77502380D02*
X144696190Y-77026190D01*
X144934285Y-77502380D02*
X144934285Y-76502380D01*
X144553333Y-76502380D01*
X144458095Y-76550000D01*
X144410476Y-76597619D01*
X144362857Y-76692857D01*
X144362857Y-76835714D01*
X144410476Y-76930952D01*
X144458095Y-76978571D01*
X144553333Y-77026190D01*
X144934285Y-77026190D01*
X143981904Y-76597619D02*
X143934285Y-76550000D01*
X143839047Y-76502380D01*
X143600952Y-76502380D01*
X143505714Y-76550000D01*
X143458095Y-76597619D01*
X143410476Y-76692857D01*
X143410476Y-76788095D01*
X143458095Y-76930952D01*
X144029523Y-77502380D01*
X143410476Y-77502380D01*
X142458095Y-77502380D02*
X143029523Y-77502380D01*
X142743809Y-77502380D02*
X142743809Y-76502380D01*
X142839047Y-76645238D01*
X142934285Y-76740476D01*
X143029523Y-76788095D01*
X153792857Y-55802380D02*
X154126190Y-55326190D01*
X154364285Y-55802380D02*
X154364285Y-54802380D01*
X153983333Y-54802380D01*
X153888095Y-54850000D01*
X153840476Y-54897619D01*
X153792857Y-54992857D01*
X153792857Y-55135714D01*
X153840476Y-55230952D01*
X153888095Y-55278571D01*
X153983333Y-55326190D01*
X154364285Y-55326190D01*
X153411904Y-54897619D02*
X153364285Y-54850000D01*
X153269047Y-54802380D01*
X153030952Y-54802380D01*
X152935714Y-54850000D01*
X152888095Y-54897619D01*
X152840476Y-54992857D01*
X152840476Y-55088095D01*
X152888095Y-55230952D01*
X153459523Y-55802380D01*
X152840476Y-55802380D01*
X152221428Y-54802380D02*
X152126190Y-54802380D01*
X152030952Y-54850000D01*
X151983333Y-54897619D01*
X151935714Y-54992857D01*
X151888095Y-55183333D01*
X151888095Y-55421428D01*
X151935714Y-55611904D01*
X151983333Y-55707142D01*
X152030952Y-55754761D01*
X152126190Y-55802380D01*
X152221428Y-55802380D01*
X152316666Y-55754761D01*
X152364285Y-55707142D01*
X152411904Y-55611904D01*
X152459523Y-55421428D01*
X152459523Y-55183333D01*
X152411904Y-54992857D01*
X152364285Y-54897619D01*
X152316666Y-54850000D01*
X152221428Y-54802380D01*
X153742857Y-57302380D02*
X154076190Y-56826190D01*
X154314285Y-57302380D02*
X154314285Y-56302380D01*
X153933333Y-56302380D01*
X153838095Y-56350000D01*
X153790476Y-56397619D01*
X153742857Y-56492857D01*
X153742857Y-56635714D01*
X153790476Y-56730952D01*
X153838095Y-56778571D01*
X153933333Y-56826190D01*
X154314285Y-56826190D01*
X152790476Y-57302380D02*
X153361904Y-57302380D01*
X153076190Y-57302380D02*
X153076190Y-56302380D01*
X153171428Y-56445238D01*
X153266666Y-56540476D01*
X153361904Y-56588095D01*
X152314285Y-57302380D02*
X152123809Y-57302380D01*
X152028571Y-57254761D01*
X151980952Y-57207142D01*
X151885714Y-57064285D01*
X151838095Y-56873809D01*
X151838095Y-56492857D01*
X151885714Y-56397619D01*
X151933333Y-56350000D01*
X152028571Y-56302380D01*
X152219047Y-56302380D01*
X152314285Y-56350000D01*
X152361904Y-56397619D01*
X152409523Y-56492857D01*
X152409523Y-56730952D01*
X152361904Y-56826190D01*
X152314285Y-56873809D01*
X152219047Y-56921428D01*
X152028571Y-56921428D01*
X151933333Y-56873809D01*
X151885714Y-56826190D01*
X151838095Y-56730952D01*
X132942857Y-82427380D02*
X133276190Y-81951190D01*
X133514285Y-82427380D02*
X133514285Y-81427380D01*
X133133333Y-81427380D01*
X133038095Y-81475000D01*
X132990476Y-81522619D01*
X132942857Y-81617857D01*
X132942857Y-81760714D01*
X132990476Y-81855952D01*
X133038095Y-81903571D01*
X133133333Y-81951190D01*
X133514285Y-81951190D01*
X131990476Y-82427380D02*
X132561904Y-82427380D01*
X132276190Y-82427380D02*
X132276190Y-81427380D01*
X132371428Y-81570238D01*
X132466666Y-81665476D01*
X132561904Y-81713095D01*
X131133333Y-81760714D02*
X131133333Y-82427380D01*
X131371428Y-81379761D02*
X131609523Y-82094047D01*
X130990476Y-82094047D01*
X132942857Y-80852380D02*
X133276190Y-80376190D01*
X133514285Y-80852380D02*
X133514285Y-79852380D01*
X133133333Y-79852380D01*
X133038095Y-79900000D01*
X132990476Y-79947619D01*
X132942857Y-80042857D01*
X132942857Y-80185714D01*
X132990476Y-80280952D01*
X133038095Y-80328571D01*
X133133333Y-80376190D01*
X133514285Y-80376190D01*
X131990476Y-80852380D02*
X132561904Y-80852380D01*
X132276190Y-80852380D02*
X132276190Y-79852380D01*
X132371428Y-79995238D01*
X132466666Y-80090476D01*
X132561904Y-80138095D01*
X131657142Y-79852380D02*
X131038095Y-79852380D01*
X131371428Y-80233333D01*
X131228571Y-80233333D01*
X131133333Y-80280952D01*
X131085714Y-80328571D01*
X131038095Y-80423809D01*
X131038095Y-80661904D01*
X131085714Y-80757142D01*
X131133333Y-80804761D01*
X131228571Y-80852380D01*
X131514285Y-80852380D01*
X131609523Y-80804761D01*
X131657142Y-80757142D01*
X132942857Y-79302380D02*
X133276190Y-78826190D01*
X133514285Y-79302380D02*
X133514285Y-78302380D01*
X133133333Y-78302380D01*
X133038095Y-78350000D01*
X132990476Y-78397619D01*
X132942857Y-78492857D01*
X132942857Y-78635714D01*
X132990476Y-78730952D01*
X133038095Y-78778571D01*
X133133333Y-78826190D01*
X133514285Y-78826190D01*
X131990476Y-79302380D02*
X132561904Y-79302380D01*
X132276190Y-79302380D02*
X132276190Y-78302380D01*
X132371428Y-78445238D01*
X132466666Y-78540476D01*
X132561904Y-78588095D01*
X131609523Y-78397619D02*
X131561904Y-78350000D01*
X131466666Y-78302380D01*
X131228571Y-78302380D01*
X131133333Y-78350000D01*
X131085714Y-78397619D01*
X131038095Y-78492857D01*
X131038095Y-78588095D01*
X131085714Y-78730952D01*
X131657142Y-79302380D01*
X131038095Y-79302380D01*
X172102380Y-83307142D02*
X171626190Y-82973809D01*
X172102380Y-82735714D02*
X171102380Y-82735714D01*
X171102380Y-83116666D01*
X171150000Y-83211904D01*
X171197619Y-83259523D01*
X171292857Y-83307142D01*
X171435714Y-83307142D01*
X171530952Y-83259523D01*
X171578571Y-83211904D01*
X171626190Y-83116666D01*
X171626190Y-82735714D01*
X172102380Y-84259523D02*
X172102380Y-83688095D01*
X172102380Y-83973809D02*
X171102380Y-83973809D01*
X171245238Y-83878571D01*
X171340476Y-83783333D01*
X171388095Y-83688095D01*
X172102380Y-85211904D02*
X172102380Y-84640476D01*
X172102380Y-84926190D02*
X171102380Y-84926190D01*
X171245238Y-84830952D01*
X171340476Y-84735714D01*
X171388095Y-84640476D01*
X174027380Y-58857142D02*
X173551190Y-58523809D01*
X174027380Y-58285714D02*
X173027380Y-58285714D01*
X173027380Y-58666666D01*
X173075000Y-58761904D01*
X173122619Y-58809523D01*
X173217857Y-58857142D01*
X173360714Y-58857142D01*
X173455952Y-58809523D01*
X173503571Y-58761904D01*
X173551190Y-58666666D01*
X173551190Y-58285714D01*
X174027380Y-59809523D02*
X174027380Y-59238095D01*
X174027380Y-59523809D02*
X173027380Y-59523809D01*
X173170238Y-59428571D01*
X173265476Y-59333333D01*
X173313095Y-59238095D01*
X173027380Y-60428571D02*
X173027380Y-60523809D01*
X173075000Y-60619047D01*
X173122619Y-60666666D01*
X173217857Y-60714285D01*
X173408333Y-60761904D01*
X173646428Y-60761904D01*
X173836904Y-60714285D01*
X173932142Y-60666666D01*
X173979761Y-60619047D01*
X174027380Y-60523809D01*
X174027380Y-60428571D01*
X173979761Y-60333333D01*
X173932142Y-60285714D01*
X173836904Y-60238095D01*
X173646428Y-60190476D01*
X173408333Y-60190476D01*
X173217857Y-60238095D01*
X173122619Y-60285714D01*
X173075000Y-60333333D01*
X173027380Y-60428571D01*
X149422380Y-81883333D02*
X148946190Y-81550000D01*
X149422380Y-81311904D02*
X148422380Y-81311904D01*
X148422380Y-81692857D01*
X148470000Y-81788095D01*
X148517619Y-81835714D01*
X148612857Y-81883333D01*
X148755714Y-81883333D01*
X148850952Y-81835714D01*
X148898571Y-81788095D01*
X148946190Y-81692857D01*
X148946190Y-81311904D01*
X148422380Y-82216666D02*
X148422380Y-82883333D01*
X149422380Y-82454761D01*
X130877380Y-50283333D02*
X130401190Y-49950000D01*
X130877380Y-49711904D02*
X129877380Y-49711904D01*
X129877380Y-50092857D01*
X129925000Y-50188095D01*
X129972619Y-50235714D01*
X130067857Y-50283333D01*
X130210714Y-50283333D01*
X130305952Y-50235714D01*
X130353571Y-50188095D01*
X130401190Y-50092857D01*
X130401190Y-49711904D01*
X129877380Y-51140476D02*
X129877380Y-50950000D01*
X129925000Y-50854761D01*
X129972619Y-50807142D01*
X130115476Y-50711904D01*
X130305952Y-50664285D01*
X130686904Y-50664285D01*
X130782142Y-50711904D01*
X130829761Y-50759523D01*
X130877380Y-50854761D01*
X130877380Y-51045238D01*
X130829761Y-51140476D01*
X130782142Y-51188095D01*
X130686904Y-51235714D01*
X130448809Y-51235714D01*
X130353571Y-51188095D01*
X130305952Y-51140476D01*
X130258333Y-51045238D01*
X130258333Y-50854761D01*
X130305952Y-50759523D01*
X130353571Y-50711904D01*
X130448809Y-50664285D01*
X167964285Y-89077380D02*
X167964285Y-88077380D01*
X167726190Y-88077380D01*
X167583333Y-88125000D01*
X167488095Y-88220238D01*
X167440476Y-88315476D01*
X167392857Y-88505952D01*
X167392857Y-88648809D01*
X167440476Y-88839285D01*
X167488095Y-88934523D01*
X167583333Y-89029761D01*
X167726190Y-89077380D01*
X167964285Y-89077380D01*
X167011904Y-88172619D02*
X166964285Y-88125000D01*
X166869047Y-88077380D01*
X166630952Y-88077380D01*
X166535714Y-88125000D01*
X166488095Y-88172619D01*
X166440476Y-88267857D01*
X166440476Y-88363095D01*
X166488095Y-88505952D01*
X167059523Y-89077380D01*
X166440476Y-89077380D01*
X165821428Y-88077380D02*
X165726190Y-88077380D01*
X165630952Y-88125000D01*
X165583333Y-88172619D01*
X165535714Y-88267857D01*
X165488095Y-88458333D01*
X165488095Y-88696428D01*
X165535714Y-88886904D01*
X165583333Y-88982142D01*
X165630952Y-89029761D01*
X165726190Y-89077380D01*
X165821428Y-89077380D01*
X165916666Y-89029761D01*
X165964285Y-88982142D01*
X166011904Y-88886904D01*
X166059523Y-88696428D01*
X166059523Y-88458333D01*
X166011904Y-88267857D01*
X165964285Y-88172619D01*
X165916666Y-88125000D01*
X165821428Y-88077380D01*
X167964285Y-86902380D02*
X167964285Y-85902380D01*
X167726190Y-85902380D01*
X167583333Y-85950000D01*
X167488095Y-86045238D01*
X167440476Y-86140476D01*
X167392857Y-86330952D01*
X167392857Y-86473809D01*
X167440476Y-86664285D01*
X167488095Y-86759523D01*
X167583333Y-86854761D01*
X167726190Y-86902380D01*
X167964285Y-86902380D01*
X166440476Y-86902380D02*
X167011904Y-86902380D01*
X166726190Y-86902380D02*
X166726190Y-85902380D01*
X166821428Y-86045238D01*
X166916666Y-86140476D01*
X167011904Y-86188095D01*
X165964285Y-86902380D02*
X165773809Y-86902380D01*
X165678571Y-86854761D01*
X165630952Y-86807142D01*
X165535714Y-86664285D01*
X165488095Y-86473809D01*
X165488095Y-86092857D01*
X165535714Y-85997619D01*
X165583333Y-85950000D01*
X165678571Y-85902380D01*
X165869047Y-85902380D01*
X165964285Y-85950000D01*
X166011904Y-85997619D01*
X166059523Y-86092857D01*
X166059523Y-86330952D01*
X166011904Y-86426190D01*
X165964285Y-86473809D01*
X165869047Y-86521428D01*
X165678571Y-86521428D01*
X165583333Y-86473809D01*
X165535714Y-86426190D01*
X165488095Y-86330952D01*
X167352380Y-59836904D02*
X166352380Y-59836904D01*
X166352380Y-60075000D01*
X166400000Y-60217857D01*
X166495238Y-60313095D01*
X166590476Y-60360714D01*
X166780952Y-60408333D01*
X166923809Y-60408333D01*
X167114285Y-60360714D01*
X167209523Y-60313095D01*
X167304761Y-60217857D01*
X167352380Y-60075000D01*
X167352380Y-59836904D01*
X166352380Y-61313095D02*
X166352380Y-60836904D01*
X166828571Y-60789285D01*
X166780952Y-60836904D01*
X166733333Y-60932142D01*
X166733333Y-61170238D01*
X166780952Y-61265476D01*
X166828571Y-61313095D01*
X166923809Y-61360714D01*
X167161904Y-61360714D01*
X167257142Y-61313095D01*
X167304761Y-61265476D01*
X167352380Y-61170238D01*
X167352380Y-60932142D01*
X167304761Y-60836904D01*
X167257142Y-60789285D01*
X160385714Y-54139285D02*
X160414285Y-54167857D01*
X160500000Y-54196428D01*
X160557142Y-54196428D01*
X160642857Y-54167857D01*
X160700000Y-54110714D01*
X160728571Y-54053571D01*
X160757142Y-53939285D01*
X160757142Y-53853571D01*
X160728571Y-53739285D01*
X160700000Y-53682142D01*
X160642857Y-53625000D01*
X160557142Y-53596428D01*
X160500000Y-53596428D01*
X160414285Y-53625000D01*
X160385714Y-53653571D01*
X160157142Y-53653571D02*
X160128571Y-53625000D01*
X160071428Y-53596428D01*
X159928571Y-53596428D01*
X159871428Y-53625000D01*
X159842857Y-53653571D01*
X159814285Y-53710714D01*
X159814285Y-53767857D01*
X159842857Y-53853571D01*
X160185714Y-54196428D01*
X159814285Y-54196428D01*
X159300000Y-53796428D02*
X159300000Y-54196428D01*
X159442857Y-53567857D02*
X159585714Y-53996428D01*
X159214285Y-53996428D01*
X163835714Y-54089285D02*
X163864285Y-54117857D01*
X163950000Y-54146428D01*
X164007142Y-54146428D01*
X164092857Y-54117857D01*
X164150000Y-54060714D01*
X164178571Y-54003571D01*
X164207142Y-53889285D01*
X164207142Y-53803571D01*
X164178571Y-53689285D01*
X164150000Y-53632142D01*
X164092857Y-53575000D01*
X164007142Y-53546428D01*
X163950000Y-53546428D01*
X163864285Y-53575000D01*
X163835714Y-53603571D01*
X163607142Y-53603571D02*
X163578571Y-53575000D01*
X163521428Y-53546428D01*
X163378571Y-53546428D01*
X163321428Y-53575000D01*
X163292857Y-53603571D01*
X163264285Y-53660714D01*
X163264285Y-53717857D01*
X163292857Y-53803571D01*
X163635714Y-54146428D01*
X163264285Y-54146428D01*
X162692857Y-54146428D02*
X163035714Y-54146428D01*
X162864285Y-54146428D02*
X162864285Y-53546428D01*
X162921428Y-53632142D01*
X162978571Y-53689285D01*
X163035714Y-53717857D01*
X132967857Y-83857142D02*
X133015476Y-83904761D01*
X133158333Y-83952380D01*
X133253571Y-83952380D01*
X133396428Y-83904761D01*
X133491666Y-83809523D01*
X133539285Y-83714285D01*
X133586904Y-83523809D01*
X133586904Y-83380952D01*
X133539285Y-83190476D01*
X133491666Y-83095238D01*
X133396428Y-83000000D01*
X133253571Y-82952380D01*
X133158333Y-82952380D01*
X133015476Y-83000000D01*
X132967857Y-83047619D01*
X132015476Y-83952380D02*
X132586904Y-83952380D01*
X132301190Y-83952380D02*
X132301190Y-82952380D01*
X132396428Y-83095238D01*
X132491666Y-83190476D01*
X132586904Y-83238095D01*
X131682142Y-82952380D02*
X131015476Y-82952380D01*
X131444047Y-83952380D01*
X165127142Y-78307142D02*
X165174761Y-78259523D01*
X165222380Y-78116666D01*
X165222380Y-78021428D01*
X165174761Y-77878571D01*
X165079523Y-77783333D01*
X164984285Y-77735714D01*
X164793809Y-77688095D01*
X164650952Y-77688095D01*
X164460476Y-77735714D01*
X164365238Y-77783333D01*
X164270000Y-77878571D01*
X164222380Y-78021428D01*
X164222380Y-78116666D01*
X164270000Y-78259523D01*
X164317619Y-78307142D01*
X165222380Y-79259523D02*
X165222380Y-78688095D01*
X165222380Y-78973809D02*
X164222380Y-78973809D01*
X164365238Y-78878571D01*
X164460476Y-78783333D01*
X164508095Y-78688095D01*
X164222380Y-80116666D02*
X164222380Y-79926190D01*
X164270000Y-79830952D01*
X164317619Y-79783333D01*
X164460476Y-79688095D01*
X164650952Y-79640476D01*
X165031904Y-79640476D01*
X165127142Y-79688095D01*
X165174761Y-79735714D01*
X165222380Y-79830952D01*
X165222380Y-80021428D01*
X165174761Y-80116666D01*
X165127142Y-80164285D01*
X165031904Y-80211904D01*
X164793809Y-80211904D01*
X164698571Y-80164285D01*
X164650952Y-80116666D01*
X164603333Y-80021428D01*
X164603333Y-79830952D01*
X164650952Y-79735714D01*
X164698571Y-79688095D01*
X164793809Y-79640476D01*
X172617857Y-77232142D02*
X172665476Y-77279761D01*
X172808333Y-77327380D01*
X172903571Y-77327380D01*
X173046428Y-77279761D01*
X173141666Y-77184523D01*
X173189285Y-77089285D01*
X173236904Y-76898809D01*
X173236904Y-76755952D01*
X173189285Y-76565476D01*
X173141666Y-76470238D01*
X173046428Y-76375000D01*
X172903571Y-76327380D01*
X172808333Y-76327380D01*
X172665476Y-76375000D01*
X172617857Y-76422619D01*
X171665476Y-77327380D02*
X172236904Y-77327380D01*
X171951190Y-77327380D02*
X171951190Y-76327380D01*
X172046428Y-76470238D01*
X172141666Y-76565476D01*
X172236904Y-76613095D01*
X170760714Y-76327380D02*
X171236904Y-76327380D01*
X171284523Y-76803571D01*
X171236904Y-76755952D01*
X171141666Y-76708333D01*
X170903571Y-76708333D01*
X170808333Y-76755952D01*
X170760714Y-76803571D01*
X170713095Y-76898809D01*
X170713095Y-77136904D01*
X170760714Y-77232142D01*
X170808333Y-77279761D01*
X170903571Y-77327380D01*
X171141666Y-77327380D01*
X171236904Y-77279761D01*
X171284523Y-77232142D01*
%LPC*%
D13*
X170000000Y-90000000D03*
X130000000Y-90000000D03*
X170000000Y-40000000D03*
X130000000Y-40000000D03*
D14*
X169926000Y-47832000D03*
D15*
X169926000Y-52832000D03*
G36*
G01*
X147415240Y-84624600D02*
X148615240Y-84624600D01*
G75*
G02*
X148865240Y-84874600I0J-250000D01*
G01*
X148865240Y-86074600D01*
G75*
G02*
X148615240Y-86324600I-250000J0D01*
G01*
X147415240Y-86324600D01*
G75*
G02*
X147165240Y-86074600I0J250000D01*
G01*
X147165240Y-84874600D01*
G75*
G02*
X147415240Y-84624600I250000J0D01*
G01*
G37*
D16*
X150555240Y-85474600D03*
X153095240Y-85474600D03*
X148015240Y-88014600D03*
X150555240Y-88014600D03*
X153095240Y-88014600D03*
G36*
G01*
X146860000Y-73950000D02*
X146860000Y-73610000D01*
G75*
G02*
X147000000Y-73470000I140000J0D01*
G01*
X147280000Y-73470000D01*
G75*
G02*
X147420000Y-73610000I0J-140000D01*
G01*
X147420000Y-73950000D01*
G75*
G02*
X147280000Y-74090000I-140000J0D01*
G01*
X147000000Y-74090000D01*
G75*
G02*
X146860000Y-73950000I0J140000D01*
G01*
G37*
G36*
G01*
X145900000Y-73950000D02*
X145900000Y-73610000D01*
G75*
G02*
X146040000Y-73470000I140000J0D01*
G01*
X146320000Y-73470000D01*
G75*
G02*
X146460000Y-73610000I0J-140000D01*
G01*
X146460000Y-73950000D01*
G75*
G02*
X146320000Y-74090000I-140000J0D01*
G01*
X146040000Y-74090000D01*
G75*
G02*
X145900000Y-73950000I0J140000D01*
G01*
G37*
G36*
G01*
X139630000Y-69725000D02*
X139970000Y-69725000D01*
G75*
G02*
X140110000Y-69865000I0J-140000D01*
G01*
X140110000Y-70145000D01*
G75*
G02*
X139970000Y-70285000I-140000J0D01*
G01*
X139630000Y-70285000D01*
G75*
G02*
X139490000Y-70145000I0J140000D01*
G01*
X139490000Y-69865000D01*
G75*
G02*
X139630000Y-69725000I140000J0D01*
G01*
G37*
G36*
G01*
X139630000Y-68765000D02*
X139970000Y-68765000D01*
G75*
G02*
X140110000Y-68905000I0J-140000D01*
G01*
X140110000Y-69185000D01*
G75*
G02*
X139970000Y-69325000I-140000J0D01*
G01*
X139630000Y-69325000D01*
G75*
G02*
X139490000Y-69185000I0J140000D01*
G01*
X139490000Y-68905000D01*
G75*
G02*
X139630000Y-68765000I140000J0D01*
G01*
G37*
G36*
G01*
X147530000Y-69860000D02*
X147530000Y-69520000D01*
G75*
G02*
X147670000Y-69380000I140000J0D01*
G01*
X147950000Y-69380000D01*
G75*
G02*
X148090000Y-69520000I0J-140000D01*
G01*
X148090000Y-69860000D01*
G75*
G02*
X147950000Y-70000000I-140000J0D01*
G01*
X147670000Y-70000000D01*
G75*
G02*
X147530000Y-69860000I0J140000D01*
G01*
G37*
G36*
G01*
X146570000Y-69860000D02*
X146570000Y-69520000D01*
G75*
G02*
X146710000Y-69380000I140000J0D01*
G01*
X146990000Y-69380000D01*
G75*
G02*
X147130000Y-69520000I0J-140000D01*
G01*
X147130000Y-69860000D01*
G75*
G02*
X146990000Y-70000000I-140000J0D01*
G01*
X146710000Y-70000000D01*
G75*
G02*
X146570000Y-69860000I0J140000D01*
G01*
G37*
G36*
G01*
X139175000Y-77970000D02*
X139175000Y-77630000D01*
G75*
G02*
X139315000Y-77490000I140000J0D01*
G01*
X139595000Y-77490000D01*
G75*
G02*
X139735000Y-77630000I0J-140000D01*
G01*
X139735000Y-77970000D01*
G75*
G02*
X139595000Y-78110000I-140000J0D01*
G01*
X139315000Y-78110000D01*
G75*
G02*
X139175000Y-77970000I0J140000D01*
G01*
G37*
G36*
G01*
X138215000Y-77970000D02*
X138215000Y-77630000D01*
G75*
G02*
X138355000Y-77490000I140000J0D01*
G01*
X138635000Y-77490000D01*
G75*
G02*
X138775000Y-77630000I0J-140000D01*
G01*
X138775000Y-77970000D01*
G75*
G02*
X138635000Y-78110000I-140000J0D01*
G01*
X138355000Y-78110000D01*
G75*
G02*
X138215000Y-77970000I0J140000D01*
G01*
G37*
G36*
G01*
X149000000Y-72480000D02*
X149000000Y-72820000D01*
G75*
G02*
X148860000Y-72960000I-140000J0D01*
G01*
X148580000Y-72960000D01*
G75*
G02*
X148440000Y-72820000I0J140000D01*
G01*
X148440000Y-72480000D01*
G75*
G02*
X148580000Y-72340000I140000J0D01*
G01*
X148860000Y-72340000D01*
G75*
G02*
X149000000Y-72480000I0J-140000D01*
G01*
G37*
G36*
G01*
X149960000Y-72480000D02*
X149960000Y-72820000D01*
G75*
G02*
X149820000Y-72960000I-140000J0D01*
G01*
X149540000Y-72960000D01*
G75*
G02*
X149400000Y-72820000I0J140000D01*
G01*
X149400000Y-72480000D01*
G75*
G02*
X149540000Y-72340000I140000J0D01*
G01*
X149820000Y-72340000D01*
G75*
G02*
X149960000Y-72480000I0J-140000D01*
G01*
G37*
G36*
G01*
X149025000Y-78805000D02*
X149025000Y-79145000D01*
G75*
G02*
X148885000Y-79285000I-140000J0D01*
G01*
X148605000Y-79285000D01*
G75*
G02*
X148465000Y-79145000I0J140000D01*
G01*
X148465000Y-78805000D01*
G75*
G02*
X148605000Y-78665000I140000J0D01*
G01*
X148885000Y-78665000D01*
G75*
G02*
X149025000Y-78805000I0J-140000D01*
G01*
G37*
G36*
G01*
X149985000Y-78805000D02*
X149985000Y-79145000D01*
G75*
G02*
X149845000Y-79285000I-140000J0D01*
G01*
X149565000Y-79285000D01*
G75*
G02*
X149425000Y-79145000I0J140000D01*
G01*
X149425000Y-78805000D01*
G75*
G02*
X149565000Y-78665000I140000J0D01*
G01*
X149845000Y-78665000D01*
G75*
G02*
X149985000Y-78805000I0J-140000D01*
G01*
G37*
G36*
G01*
X140705000Y-69725000D02*
X141045000Y-69725000D01*
G75*
G02*
X141185000Y-69865000I0J-140000D01*
G01*
X141185000Y-70145000D01*
G75*
G02*
X141045000Y-70285000I-140000J0D01*
G01*
X140705000Y-70285000D01*
G75*
G02*
X140565000Y-70145000I0J140000D01*
G01*
X140565000Y-69865000D01*
G75*
G02*
X140705000Y-69725000I140000J0D01*
G01*
G37*
G36*
G01*
X140705000Y-68765000D02*
X141045000Y-68765000D01*
G75*
G02*
X141185000Y-68905000I0J-140000D01*
G01*
X141185000Y-69185000D01*
G75*
G02*
X141045000Y-69325000I-140000J0D01*
G01*
X140705000Y-69325000D01*
G75*
G02*
X140565000Y-69185000I0J140000D01*
G01*
X140565000Y-68905000D01*
G75*
G02*
X140705000Y-68765000I140000J0D01*
G01*
G37*
G36*
G01*
X149425000Y-80170000D02*
X149425000Y-79830000D01*
G75*
G02*
X149565000Y-79690000I140000J0D01*
G01*
X149845000Y-79690000D01*
G75*
G02*
X149985000Y-79830000I0J-140000D01*
G01*
X149985000Y-80170000D01*
G75*
G02*
X149845000Y-80310000I-140000J0D01*
G01*
X149565000Y-80310000D01*
G75*
G02*
X149425000Y-80170000I0J140000D01*
G01*
G37*
G36*
G01*
X148465000Y-80170000D02*
X148465000Y-79830000D01*
G75*
G02*
X148605000Y-79690000I140000J0D01*
G01*
X148885000Y-79690000D01*
G75*
G02*
X149025000Y-79830000I0J-140000D01*
G01*
X149025000Y-80170000D01*
G75*
G02*
X148885000Y-80310000I-140000J0D01*
G01*
X148605000Y-80310000D01*
G75*
G02*
X148465000Y-80170000I0J140000D01*
G01*
G37*
G36*
G01*
X139000000Y-79195000D02*
X139000000Y-78855000D01*
G75*
G02*
X139140000Y-78715000I140000J0D01*
G01*
X139420000Y-78715000D01*
G75*
G02*
X139560000Y-78855000I0J-140000D01*
G01*
X139560000Y-79195000D01*
G75*
G02*
X139420000Y-79335000I-140000J0D01*
G01*
X139140000Y-79335000D01*
G75*
G02*
X139000000Y-79195000I0J140000D01*
G01*
G37*
G36*
G01*
X138040000Y-79195000D02*
X138040000Y-78855000D01*
G75*
G02*
X138180000Y-78715000I140000J0D01*
G01*
X138460000Y-78715000D01*
G75*
G02*
X138600000Y-78855000I0J-140000D01*
G01*
X138600000Y-79195000D01*
G75*
G02*
X138460000Y-79335000I-140000J0D01*
G01*
X138180000Y-79335000D01*
G75*
G02*
X138040000Y-79195000I0J140000D01*
G01*
G37*
G36*
G01*
X151920000Y-67350000D02*
X151580000Y-67350000D01*
G75*
G02*
X151440000Y-67210000I0J140000D01*
G01*
X151440000Y-66930000D01*
G75*
G02*
X151580000Y-66790000I140000J0D01*
G01*
X151920000Y-66790000D01*
G75*
G02*
X152060000Y-66930000I0J-140000D01*
G01*
X152060000Y-67210000D01*
G75*
G02*
X151920000Y-67350000I-140000J0D01*
G01*
G37*
G36*
G01*
X151920000Y-68310000D02*
X151580000Y-68310000D01*
G75*
G02*
X151440000Y-68170000I0J140000D01*
G01*
X151440000Y-67890000D01*
G75*
G02*
X151580000Y-67750000I140000J0D01*
G01*
X151920000Y-67750000D01*
G75*
G02*
X152060000Y-67890000I0J-140000D01*
G01*
X152060000Y-68170000D01*
G75*
G02*
X151920000Y-68310000I-140000J0D01*
G01*
G37*
G36*
G01*
X149010000Y-74830000D02*
X149010000Y-75170000D01*
G75*
G02*
X148870000Y-75310000I-140000J0D01*
G01*
X148590000Y-75310000D01*
G75*
G02*
X148450000Y-75170000I0J140000D01*
G01*
X148450000Y-74830000D01*
G75*
G02*
X148590000Y-74690000I140000J0D01*
G01*
X148870000Y-74690000D01*
G75*
G02*
X149010000Y-74830000I0J-140000D01*
G01*
G37*
G36*
G01*
X149970000Y-74830000D02*
X149970000Y-75170000D01*
G75*
G02*
X149830000Y-75310000I-140000J0D01*
G01*
X149550000Y-75310000D01*
G75*
G02*
X149410000Y-75170000I0J140000D01*
G01*
X149410000Y-74830000D01*
G75*
G02*
X149550000Y-74690000I140000J0D01*
G01*
X149830000Y-74690000D01*
G75*
G02*
X149970000Y-74830000I0J-140000D01*
G01*
G37*
G36*
G01*
X173830000Y-66345000D02*
X174170000Y-66345000D01*
G75*
G02*
X174310000Y-66485000I0J-140000D01*
G01*
X174310000Y-66765000D01*
G75*
G02*
X174170000Y-66905000I-140000J0D01*
G01*
X173830000Y-66905000D01*
G75*
G02*
X173690000Y-66765000I0J140000D01*
G01*
X173690000Y-66485000D01*
G75*
G02*
X173830000Y-66345000I140000J0D01*
G01*
G37*
G36*
G01*
X173830000Y-65385000D02*
X174170000Y-65385000D01*
G75*
G02*
X174310000Y-65525000I0J-140000D01*
G01*
X174310000Y-65805000D01*
G75*
G02*
X174170000Y-65945000I-140000J0D01*
G01*
X173830000Y-65945000D01*
G75*
G02*
X173690000Y-65805000I0J140000D01*
G01*
X173690000Y-65525000D01*
G75*
G02*
X173830000Y-65385000I140000J0D01*
G01*
G37*
G36*
G01*
X153700000Y-75830000D02*
X153700000Y-76170000D01*
G75*
G02*
X153560000Y-76310000I-140000J0D01*
G01*
X153280000Y-76310000D01*
G75*
G02*
X153140000Y-76170000I0J140000D01*
G01*
X153140000Y-75830000D01*
G75*
G02*
X153280000Y-75690000I140000J0D01*
G01*
X153560000Y-75690000D01*
G75*
G02*
X153700000Y-75830000I0J-140000D01*
G01*
G37*
G36*
G01*
X154660000Y-75830000D02*
X154660000Y-76170000D01*
G75*
G02*
X154520000Y-76310000I-140000J0D01*
G01*
X154240000Y-76310000D01*
G75*
G02*
X154100000Y-76170000I0J140000D01*
G01*
X154100000Y-75830000D01*
G75*
G02*
X154240000Y-75690000I140000J0D01*
G01*
X154520000Y-75690000D01*
G75*
G02*
X154660000Y-75830000I0J-140000D01*
G01*
G37*
G36*
G01*
X127450000Y-50280000D02*
X127450000Y-50620000D01*
G75*
G02*
X127310000Y-50760000I-140000J0D01*
G01*
X127030000Y-50760000D01*
G75*
G02*
X126890000Y-50620000I0J140000D01*
G01*
X126890000Y-50280000D01*
G75*
G02*
X127030000Y-50140000I140000J0D01*
G01*
X127310000Y-50140000D01*
G75*
G02*
X127450000Y-50280000I0J-140000D01*
G01*
G37*
G36*
G01*
X128410000Y-50280000D02*
X128410000Y-50620000D01*
G75*
G02*
X128270000Y-50760000I-140000J0D01*
G01*
X127990000Y-50760000D01*
G75*
G02*
X127850000Y-50620000I0J140000D01*
G01*
X127850000Y-50280000D01*
G75*
G02*
X127990000Y-50140000I140000J0D01*
G01*
X128270000Y-50140000D01*
G75*
G02*
X128410000Y-50280000I0J-140000D01*
G01*
G37*
G36*
G01*
X149010000Y-75830000D02*
X149010000Y-76170000D01*
G75*
G02*
X148870000Y-76310000I-140000J0D01*
G01*
X148590000Y-76310000D01*
G75*
G02*
X148450000Y-76170000I0J140000D01*
G01*
X148450000Y-75830000D01*
G75*
G02*
X148590000Y-75690000I140000J0D01*
G01*
X148870000Y-75690000D01*
G75*
G02*
X149010000Y-75830000I0J-140000D01*
G01*
G37*
G36*
G01*
X149970000Y-75830000D02*
X149970000Y-76170000D01*
G75*
G02*
X149830000Y-76310000I-140000J0D01*
G01*
X149550000Y-76310000D01*
G75*
G02*
X149410000Y-76170000I0J140000D01*
G01*
X149410000Y-75830000D01*
G75*
G02*
X149550000Y-75690000I140000J0D01*
G01*
X149830000Y-75690000D01*
G75*
G02*
X149970000Y-75830000I0J-140000D01*
G01*
G37*
G36*
G01*
X131790000Y-52700000D02*
X131450000Y-52700000D01*
G75*
G02*
X131310000Y-52560000I0J140000D01*
G01*
X131310000Y-52280000D01*
G75*
G02*
X131450000Y-52140000I140000J0D01*
G01*
X131790000Y-52140000D01*
G75*
G02*
X131930000Y-52280000I0J-140000D01*
G01*
X131930000Y-52560000D01*
G75*
G02*
X131790000Y-52700000I-140000J0D01*
G01*
G37*
G36*
G01*
X131790000Y-53660000D02*
X131450000Y-53660000D01*
G75*
G02*
X131310000Y-53520000I0J140000D01*
G01*
X131310000Y-53240000D01*
G75*
G02*
X131450000Y-53100000I140000J0D01*
G01*
X131790000Y-53100000D01*
G75*
G02*
X131930000Y-53240000I0J-140000D01*
G01*
X131930000Y-53520000D01*
G75*
G02*
X131790000Y-53660000I-140000J0D01*
G01*
G37*
D17*
X130125000Y-63700000D03*
X128225000Y-63700000D03*
X128225000Y-65900000D03*
X129175000Y-65900000D03*
X130125000Y-65900000D03*
G36*
G01*
X132670000Y-59050000D02*
X132330000Y-59050000D01*
G75*
G02*
X132190000Y-58910000I0J140000D01*
G01*
X132190000Y-58630000D01*
G75*
G02*
X132330000Y-58490000I140000J0D01*
G01*
X132670000Y-58490000D01*
G75*
G02*
X132810000Y-58630000I0J-140000D01*
G01*
X132810000Y-58910000D01*
G75*
G02*
X132670000Y-59050000I-140000J0D01*
G01*
G37*
G36*
G01*
X132670000Y-60010000D02*
X132330000Y-60010000D01*
G75*
G02*
X132190000Y-59870000I0J140000D01*
G01*
X132190000Y-59590000D01*
G75*
G02*
X132330000Y-59450000I140000J0D01*
G01*
X132670000Y-59450000D01*
G75*
G02*
X132810000Y-59590000I0J-140000D01*
G01*
X132810000Y-59870000D01*
G75*
G02*
X132670000Y-60010000I-140000J0D01*
G01*
G37*
G36*
G01*
X149010000Y-73830000D02*
X149010000Y-74170000D01*
G75*
G02*
X148870000Y-74310000I-140000J0D01*
G01*
X148590000Y-74310000D01*
G75*
G02*
X148450000Y-74170000I0J140000D01*
G01*
X148450000Y-73830000D01*
G75*
G02*
X148590000Y-73690000I140000J0D01*
G01*
X148870000Y-73690000D01*
G75*
G02*
X149010000Y-73830000I0J-140000D01*
G01*
G37*
G36*
G01*
X149970000Y-73830000D02*
X149970000Y-74170000D01*
G75*
G02*
X149830000Y-74310000I-140000J0D01*
G01*
X149550000Y-74310000D01*
G75*
G02*
X149410000Y-74170000I0J140000D01*
G01*
X149410000Y-73830000D01*
G75*
G02*
X149550000Y-73690000I140000J0D01*
G01*
X149830000Y-73690000D01*
G75*
G02*
X149970000Y-73830000I0J-140000D01*
G01*
G37*
G36*
G01*
X138700000Y-61000001D02*
X138700000Y-58799999D01*
G75*
G02*
X138949999Y-58550000I249999J0D01*
G01*
X139600001Y-58550000D01*
G75*
G02*
X139850000Y-58799999I0J-249999D01*
G01*
X139850000Y-61000001D01*
G75*
G02*
X139600001Y-61250000I-249999J0D01*
G01*
X138949999Y-61250000D01*
G75*
G02*
X138700000Y-61000001I0J249999D01*
G01*
G37*
G36*
G01*
X135750000Y-61000001D02*
X135750000Y-58799999D01*
G75*
G02*
X135999999Y-58550000I249999J0D01*
G01*
X136650001Y-58550000D01*
G75*
G02*
X136900000Y-58799999I0J-249999D01*
G01*
X136900000Y-61000001D01*
G75*
G02*
X136650001Y-61250000I-249999J0D01*
G01*
X135999999Y-61250000D01*
G75*
G02*
X135750000Y-61000001I0J249999D01*
G01*
G37*
D18*
X136325000Y-63475000D03*
X140325000Y-63475000D03*
D19*
X134860000Y-52290000D03*
X140260000Y-52290000D03*
G36*
G01*
X156440840Y-58750000D02*
X156440840Y-58250000D01*
G75*
G02*
X156665840Y-58025000I225000J0D01*
G01*
X157115840Y-58025000D01*
G75*
G02*
X157340840Y-58250000I0J-225000D01*
G01*
X157340840Y-58750000D01*
G75*
G02*
X157115840Y-58975000I-225000J0D01*
G01*
X156665840Y-58975000D01*
G75*
G02*
X156440840Y-58750000I0J225000D01*
G01*
G37*
G36*
G01*
X154890840Y-58750000D02*
X154890840Y-58250000D01*
G75*
G02*
X155115840Y-58025000I225000J0D01*
G01*
X155565840Y-58025000D01*
G75*
G02*
X155790840Y-58250000I0J-225000D01*
G01*
X155790840Y-58750000D01*
G75*
G02*
X155565840Y-58975000I-225000J0D01*
G01*
X155115840Y-58975000D01*
G75*
G02*
X154890840Y-58750000I0J225000D01*
G01*
G37*
G36*
G01*
X164000000Y-76132500D02*
X164000000Y-75857500D01*
G75*
G02*
X164137500Y-75720000I137500J0D01*
G01*
X165462500Y-75720000D01*
G75*
G02*
X165600000Y-75857500I0J-137500D01*
G01*
X165600000Y-76132500D01*
G75*
G02*
X165462500Y-76270000I-137500J0D01*
G01*
X164137500Y-76270000D01*
G75*
G02*
X164000000Y-76132500I0J137500D01*
G01*
G37*
G36*
G01*
X164000000Y-74862500D02*
X164000000Y-74587500D01*
G75*
G02*
X164137500Y-74450000I137500J0D01*
G01*
X165462500Y-74450000D01*
G75*
G02*
X165600000Y-74587500I0J-137500D01*
G01*
X165600000Y-74862500D01*
G75*
G02*
X165462500Y-75000000I-137500J0D01*
G01*
X164137500Y-75000000D01*
G75*
G02*
X164000000Y-74862500I0J137500D01*
G01*
G37*
G36*
G01*
X164000000Y-73592500D02*
X164000000Y-73317500D01*
G75*
G02*
X164137500Y-73180000I137500J0D01*
G01*
X165462500Y-73180000D01*
G75*
G02*
X165600000Y-73317500I0J-137500D01*
G01*
X165600000Y-73592500D01*
G75*
G02*
X165462500Y-73730000I-137500J0D01*
G01*
X164137500Y-73730000D01*
G75*
G02*
X164000000Y-73592500I0J137500D01*
G01*
G37*
G36*
G01*
X164000000Y-72322500D02*
X164000000Y-72047500D01*
G75*
G02*
X164137500Y-71910000I137500J0D01*
G01*
X165462500Y-71910000D01*
G75*
G02*
X165600000Y-72047500I0J-137500D01*
G01*
X165600000Y-72322500D01*
G75*
G02*
X165462500Y-72460000I-137500J0D01*
G01*
X164137500Y-72460000D01*
G75*
G02*
X164000000Y-72322500I0J137500D01*
G01*
G37*
G36*
G01*
X164000000Y-71052500D02*
X164000000Y-70777500D01*
G75*
G02*
X164137500Y-70640000I137500J0D01*
G01*
X165462500Y-70640000D01*
G75*
G02*
X165600000Y-70777500I0J-137500D01*
G01*
X165600000Y-71052500D01*
G75*
G02*
X165462500Y-71190000I-137500J0D01*
G01*
X164137500Y-71190000D01*
G75*
G02*
X164000000Y-71052500I0J137500D01*
G01*
G37*
G36*
G01*
X164000000Y-69782500D02*
X164000000Y-69507500D01*
G75*
G02*
X164137500Y-69370000I137500J0D01*
G01*
X165462500Y-69370000D01*
G75*
G02*
X165600000Y-69507500I0J-137500D01*
G01*
X165600000Y-69782500D01*
G75*
G02*
X165462500Y-69920000I-137500J0D01*
G01*
X164137500Y-69920000D01*
G75*
G02*
X164000000Y-69782500I0J137500D01*
G01*
G37*
G36*
G01*
X164000000Y-68512500D02*
X164000000Y-68237500D01*
G75*
G02*
X164137500Y-68100000I137500J0D01*
G01*
X165462500Y-68100000D01*
G75*
G02*
X165600000Y-68237500I0J-137500D01*
G01*
X165600000Y-68512500D01*
G75*
G02*
X165462500Y-68650000I-137500J0D01*
G01*
X164137500Y-68650000D01*
G75*
G02*
X164000000Y-68512500I0J137500D01*
G01*
G37*
G36*
G01*
X164000000Y-67242500D02*
X164000000Y-66967500D01*
G75*
G02*
X164137500Y-66830000I137500J0D01*
G01*
X165462500Y-66830000D01*
G75*
G02*
X165600000Y-66967500I0J-137500D01*
G01*
X165600000Y-67242500D01*
G75*
G02*
X165462500Y-67380000I-137500J0D01*
G01*
X164137500Y-67380000D01*
G75*
G02*
X164000000Y-67242500I0J137500D01*
G01*
G37*
G36*
G01*
X157500000Y-67242500D02*
X157500000Y-66967500D01*
G75*
G02*
X157637500Y-66830000I137500J0D01*
G01*
X158962500Y-66830000D01*
G75*
G02*
X159100000Y-66967500I0J-137500D01*
G01*
X159100000Y-67242500D01*
G75*
G02*
X158962500Y-67380000I-137500J0D01*
G01*
X157637500Y-67380000D01*
G75*
G02*
X157500000Y-67242500I0J137500D01*
G01*
G37*
G36*
G01*
X157500000Y-68512500D02*
X157500000Y-68237500D01*
G75*
G02*
X157637500Y-68100000I137500J0D01*
G01*
X158962500Y-68100000D01*
G75*
G02*
X159100000Y-68237500I0J-137500D01*
G01*
X159100000Y-68512500D01*
G75*
G02*
X158962500Y-68650000I-137500J0D01*
G01*
X157637500Y-68650000D01*
G75*
G02*
X157500000Y-68512500I0J137500D01*
G01*
G37*
G36*
G01*
X157500000Y-69782500D02*
X157500000Y-69507500D01*
G75*
G02*
X157637500Y-69370000I137500J0D01*
G01*
X158962500Y-69370000D01*
G75*
G02*
X159100000Y-69507500I0J-137500D01*
G01*
X159100000Y-69782500D01*
G75*
G02*
X158962500Y-69920000I-137500J0D01*
G01*
X157637500Y-69920000D01*
G75*
G02*
X157500000Y-69782500I0J137500D01*
G01*
G37*
G36*
G01*
X157500000Y-71052500D02*
X157500000Y-70777500D01*
G75*
G02*
X157637500Y-70640000I137500J0D01*
G01*
X158962500Y-70640000D01*
G75*
G02*
X159100000Y-70777500I0J-137500D01*
G01*
X159100000Y-71052500D01*
G75*
G02*
X158962500Y-71190000I-137500J0D01*
G01*
X157637500Y-71190000D01*
G75*
G02*
X157500000Y-71052500I0J137500D01*
G01*
G37*
G36*
G01*
X157500000Y-72322500D02*
X157500000Y-72047500D01*
G75*
G02*
X157637500Y-71910000I137500J0D01*
G01*
X158962500Y-71910000D01*
G75*
G02*
X159100000Y-72047500I0J-137500D01*
G01*
X159100000Y-72322500D01*
G75*
G02*
X158962500Y-72460000I-137500J0D01*
G01*
X157637500Y-72460000D01*
G75*
G02*
X157500000Y-72322500I0J137500D01*
G01*
G37*
G36*
G01*
X157500000Y-73592500D02*
X157500000Y-73317500D01*
G75*
G02*
X157637500Y-73180000I137500J0D01*
G01*
X158962500Y-73180000D01*
G75*
G02*
X159100000Y-73317500I0J-137500D01*
G01*
X159100000Y-73592500D01*
G75*
G02*
X158962500Y-73730000I-137500J0D01*
G01*
X157637500Y-73730000D01*
G75*
G02*
X157500000Y-73592500I0J137500D01*
G01*
G37*
G36*
G01*
X157500000Y-74862500D02*
X157500000Y-74587500D01*
G75*
G02*
X157637500Y-74450000I137500J0D01*
G01*
X158962500Y-74450000D01*
G75*
G02*
X159100000Y-74587500I0J-137500D01*
G01*
X159100000Y-74862500D01*
G75*
G02*
X158962500Y-75000000I-137500J0D01*
G01*
X157637500Y-75000000D01*
G75*
G02*
X157500000Y-74862500I0J137500D01*
G01*
G37*
G36*
G01*
X157500000Y-76132500D02*
X157500000Y-75857500D01*
G75*
G02*
X157637500Y-75720000I137500J0D01*
G01*
X158962500Y-75720000D01*
G75*
G02*
X159100000Y-75857500I0J-137500D01*
G01*
X159100000Y-76132500D01*
G75*
G02*
X158962500Y-76270000I-137500J0D01*
G01*
X157637500Y-76270000D01*
G75*
G02*
X157500000Y-76132500I0J137500D01*
G01*
G37*
G36*
G01*
X148950000Y-68305000D02*
X148950000Y-68005000D01*
G75*
G02*
X149100000Y-67855000I150000J0D01*
G01*
X150750000Y-67855000D01*
G75*
G02*
X150900000Y-68005000I0J-150000D01*
G01*
X150900000Y-68305000D01*
G75*
G02*
X150750000Y-68455000I-150000J0D01*
G01*
X149100000Y-68455000D01*
G75*
G02*
X148950000Y-68305000I0J150000D01*
G01*
G37*
G36*
G01*
X148950000Y-67035000D02*
X148950000Y-66735000D01*
G75*
G02*
X149100000Y-66585000I150000J0D01*
G01*
X150750000Y-66585000D01*
G75*
G02*
X150900000Y-66735000I0J-150000D01*
G01*
X150900000Y-67035000D01*
G75*
G02*
X150750000Y-67185000I-150000J0D01*
G01*
X149100000Y-67185000D01*
G75*
G02*
X148950000Y-67035000I0J150000D01*
G01*
G37*
G36*
G01*
X148950000Y-65765000D02*
X148950000Y-65465000D01*
G75*
G02*
X149100000Y-65315000I150000J0D01*
G01*
X150750000Y-65315000D01*
G75*
G02*
X150900000Y-65465000I0J-150000D01*
G01*
X150900000Y-65765000D01*
G75*
G02*
X150750000Y-65915000I-150000J0D01*
G01*
X149100000Y-65915000D01*
G75*
G02*
X148950000Y-65765000I0J150000D01*
G01*
G37*
G36*
G01*
X148950000Y-64495000D02*
X148950000Y-64195000D01*
G75*
G02*
X149100000Y-64045000I150000J0D01*
G01*
X150750000Y-64045000D01*
G75*
G02*
X150900000Y-64195000I0J-150000D01*
G01*
X150900000Y-64495000D01*
G75*
G02*
X150750000Y-64645000I-150000J0D01*
G01*
X149100000Y-64645000D01*
G75*
G02*
X148950000Y-64495000I0J150000D01*
G01*
G37*
G36*
G01*
X144000000Y-64495000D02*
X144000000Y-64195000D01*
G75*
G02*
X144150000Y-64045000I150000J0D01*
G01*
X145800000Y-64045000D01*
G75*
G02*
X145950000Y-64195000I0J-150000D01*
G01*
X145950000Y-64495000D01*
G75*
G02*
X145800000Y-64645000I-150000J0D01*
G01*
X144150000Y-64645000D01*
G75*
G02*
X144000000Y-64495000I0J150000D01*
G01*
G37*
G36*
G01*
X144000000Y-65765000D02*
X144000000Y-65465000D01*
G75*
G02*
X144150000Y-65315000I150000J0D01*
G01*
X145800000Y-65315000D01*
G75*
G02*
X145950000Y-65465000I0J-150000D01*
G01*
X145950000Y-65765000D01*
G75*
G02*
X145800000Y-65915000I-150000J0D01*
G01*
X144150000Y-65915000D01*
G75*
G02*
X144000000Y-65765000I0J150000D01*
G01*
G37*
G36*
G01*
X144000000Y-67035000D02*
X144000000Y-66735000D01*
G75*
G02*
X144150000Y-66585000I150000J0D01*
G01*
X145800000Y-66585000D01*
G75*
G02*
X145950000Y-66735000I0J-150000D01*
G01*
X145950000Y-67035000D01*
G75*
G02*
X145800000Y-67185000I-150000J0D01*
G01*
X144150000Y-67185000D01*
G75*
G02*
X144000000Y-67035000I0J150000D01*
G01*
G37*
G36*
G01*
X144000000Y-68305000D02*
X144000000Y-68005000D01*
G75*
G02*
X144150000Y-67855000I150000J0D01*
G01*
X145800000Y-67855000D01*
G75*
G02*
X145950000Y-68005000I0J-150000D01*
G01*
X145950000Y-68305000D01*
G75*
G02*
X145800000Y-68455000I-150000J0D01*
G01*
X144150000Y-68455000D01*
G75*
G02*
X144000000Y-68305000I0J150000D01*
G01*
G37*
D20*
X159763400Y-57190000D03*
X164363400Y-57190000D03*
X162063400Y-57190000D03*
D21*
X162063400Y-63490000D03*
G36*
G01*
X171450000Y-73905000D02*
X171450000Y-73605000D01*
G75*
G02*
X171600000Y-73455000I150000J0D01*
G01*
X173050000Y-73455000D01*
G75*
G02*
X173200000Y-73605000I0J-150000D01*
G01*
X173200000Y-73905000D01*
G75*
G02*
X173050000Y-74055000I-150000J0D01*
G01*
X171600000Y-74055000D01*
G75*
G02*
X171450000Y-73905000I0J150000D01*
G01*
G37*
G36*
G01*
X171450000Y-72635000D02*
X171450000Y-72335000D01*
G75*
G02*
X171600000Y-72185000I150000J0D01*
G01*
X173050000Y-72185000D01*
G75*
G02*
X173200000Y-72335000I0J-150000D01*
G01*
X173200000Y-72635000D01*
G75*
G02*
X173050000Y-72785000I-150000J0D01*
G01*
X171600000Y-72785000D01*
G75*
G02*
X171450000Y-72635000I0J150000D01*
G01*
G37*
G36*
G01*
X171450000Y-71365000D02*
X171450000Y-71065000D01*
G75*
G02*
X171600000Y-70915000I150000J0D01*
G01*
X173050000Y-70915000D01*
G75*
G02*
X173200000Y-71065000I0J-150000D01*
G01*
X173200000Y-71365000D01*
G75*
G02*
X173050000Y-71515000I-150000J0D01*
G01*
X171600000Y-71515000D01*
G75*
G02*
X171450000Y-71365000I0J150000D01*
G01*
G37*
G36*
G01*
X171450000Y-70095000D02*
X171450000Y-69795000D01*
G75*
G02*
X171600000Y-69645000I150000J0D01*
G01*
X173050000Y-69645000D01*
G75*
G02*
X173200000Y-69795000I0J-150000D01*
G01*
X173200000Y-70095000D01*
G75*
G02*
X173050000Y-70245000I-150000J0D01*
G01*
X171600000Y-70245000D01*
G75*
G02*
X171450000Y-70095000I0J150000D01*
G01*
G37*
G36*
G01*
X166300000Y-70095000D02*
X166300000Y-69795000D01*
G75*
G02*
X166450000Y-69645000I150000J0D01*
G01*
X167900000Y-69645000D01*
G75*
G02*
X168050000Y-69795000I0J-150000D01*
G01*
X168050000Y-70095000D01*
G75*
G02*
X167900000Y-70245000I-150000J0D01*
G01*
X166450000Y-70245000D01*
G75*
G02*
X166300000Y-70095000I0J150000D01*
G01*
G37*
G36*
G01*
X166300000Y-71365000D02*
X166300000Y-71065000D01*
G75*
G02*
X166450000Y-70915000I150000J0D01*
G01*
X167900000Y-70915000D01*
G75*
G02*
X168050000Y-71065000I0J-150000D01*
G01*
X168050000Y-71365000D01*
G75*
G02*
X167900000Y-71515000I-150000J0D01*
G01*
X166450000Y-71515000D01*
G75*
G02*
X166300000Y-71365000I0J150000D01*
G01*
G37*
G36*
G01*
X166300000Y-72635000D02*
X166300000Y-72335000D01*
G75*
G02*
X166450000Y-72185000I150000J0D01*
G01*
X167900000Y-72185000D01*
G75*
G02*
X168050000Y-72335000I0J-150000D01*
G01*
X168050000Y-72635000D01*
G75*
G02*
X167900000Y-72785000I-150000J0D01*
G01*
X166450000Y-72785000D01*
G75*
G02*
X166300000Y-72635000I0J150000D01*
G01*
G37*
G36*
G01*
X166300000Y-73905000D02*
X166300000Y-73605000D01*
G75*
G02*
X166450000Y-73455000I150000J0D01*
G01*
X167900000Y-73455000D01*
G75*
G02*
X168050000Y-73605000I0J-150000D01*
G01*
X168050000Y-73905000D01*
G75*
G02*
X167900000Y-74055000I-150000J0D01*
G01*
X166450000Y-74055000D01*
G75*
G02*
X166300000Y-73905000I0J150000D01*
G01*
G37*
D22*
X172200000Y-66635000D03*
X167300000Y-64095000D03*
X167300000Y-65365000D03*
X167300000Y-66635000D03*
X167300000Y-67905000D03*
X172200000Y-67905000D03*
X172200000Y-65365000D03*
X172200000Y-64095000D03*
G36*
G01*
X151845000Y-81750000D02*
X152145000Y-81750000D01*
G75*
G02*
X152295000Y-81900000I0J-150000D01*
G01*
X152295000Y-83550000D01*
G75*
G02*
X152145000Y-83700000I-150000J0D01*
G01*
X151845000Y-83700000D01*
G75*
G02*
X151695000Y-83550000I0J150000D01*
G01*
X151695000Y-81900000D01*
G75*
G02*
X151845000Y-81750000I150000J0D01*
G01*
G37*
G36*
G01*
X153115000Y-81750000D02*
X153415000Y-81750000D01*
G75*
G02*
X153565000Y-81900000I0J-150000D01*
G01*
X153565000Y-83550000D01*
G75*
G02*
X153415000Y-83700000I-150000J0D01*
G01*
X153115000Y-83700000D01*
G75*
G02*
X152965000Y-83550000I0J150000D01*
G01*
X152965000Y-81900000D01*
G75*
G02*
X153115000Y-81750000I150000J0D01*
G01*
G37*
G36*
G01*
X154385000Y-81750000D02*
X154685000Y-81750000D01*
G75*
G02*
X154835000Y-81900000I0J-150000D01*
G01*
X154835000Y-83550000D01*
G75*
G02*
X154685000Y-83700000I-150000J0D01*
G01*
X154385000Y-83700000D01*
G75*
G02*
X154235000Y-83550000I0J150000D01*
G01*
X154235000Y-81900000D01*
G75*
G02*
X154385000Y-81750000I150000J0D01*
G01*
G37*
G36*
G01*
X155655000Y-81750000D02*
X155955000Y-81750000D01*
G75*
G02*
X156105000Y-81900000I0J-150000D01*
G01*
X156105000Y-83550000D01*
G75*
G02*
X155955000Y-83700000I-150000J0D01*
G01*
X155655000Y-83700000D01*
G75*
G02*
X155505000Y-83550000I0J150000D01*
G01*
X155505000Y-81900000D01*
G75*
G02*
X155655000Y-81750000I150000J0D01*
G01*
G37*
G36*
G01*
X155655000Y-76800000D02*
X155955000Y-76800000D01*
G75*
G02*
X156105000Y-76950000I0J-150000D01*
G01*
X156105000Y-78600000D01*
G75*
G02*
X155955000Y-78750000I-150000J0D01*
G01*
X155655000Y-78750000D01*
G75*
G02*
X155505000Y-78600000I0J150000D01*
G01*
X155505000Y-76950000D01*
G75*
G02*
X155655000Y-76800000I150000J0D01*
G01*
G37*
G36*
G01*
X154385000Y-76800000D02*
X154685000Y-76800000D01*
G75*
G02*
X154835000Y-76950000I0J-150000D01*
G01*
X154835000Y-78600000D01*
G75*
G02*
X154685000Y-78750000I-150000J0D01*
G01*
X154385000Y-78750000D01*
G75*
G02*
X154235000Y-78600000I0J150000D01*
G01*
X154235000Y-76950000D01*
G75*
G02*
X154385000Y-76800000I150000J0D01*
G01*
G37*
G36*
G01*
X153115000Y-76800000D02*
X153415000Y-76800000D01*
G75*
G02*
X153565000Y-76950000I0J-150000D01*
G01*
X153565000Y-78600000D01*
G75*
G02*
X153415000Y-78750000I-150000J0D01*
G01*
X153115000Y-78750000D01*
G75*
G02*
X152965000Y-78600000I0J150000D01*
G01*
X152965000Y-76950000D01*
G75*
G02*
X153115000Y-76800000I150000J0D01*
G01*
G37*
G36*
G01*
X151845000Y-76800000D02*
X152145000Y-76800000D01*
G75*
G02*
X152295000Y-76950000I0J-150000D01*
G01*
X152295000Y-78600000D01*
G75*
G02*
X152145000Y-78750000I-150000J0D01*
G01*
X151845000Y-78750000D01*
G75*
G02*
X151695000Y-78600000I0J150000D01*
G01*
X151695000Y-76950000D01*
G75*
G02*
X151845000Y-76800000I150000J0D01*
G01*
G37*
D17*
X128600000Y-51775000D03*
X126700000Y-51775000D03*
X126700000Y-53975000D03*
X127650000Y-53975000D03*
X128600000Y-53975000D03*
D23*
X128540000Y-61350000D03*
X131080000Y-56450000D03*
X129810000Y-56450000D03*
X128540000Y-56450000D03*
X127270000Y-56450000D03*
X127270000Y-61350000D03*
X129810000Y-61350000D03*
X131080000Y-61350000D03*
D24*
X157750000Y-60800000D03*
D25*
X157750000Y-61600000D03*
D24*
X157750000Y-63200000D03*
D25*
X157750000Y-62400000D03*
D24*
X155950000Y-60800000D03*
D25*
X155950000Y-62400000D03*
X155950000Y-61600000D03*
D24*
X155950000Y-63200000D03*
G36*
G01*
X155125000Y-69650000D02*
X155125000Y-70200000D01*
G75*
G02*
X154925000Y-70400000I-200000J0D01*
G01*
X154525000Y-70400000D01*
G75*
G02*
X154325000Y-70200000I0J200000D01*
G01*
X154325000Y-69650000D01*
G75*
G02*
X154525000Y-69450000I200000J0D01*
G01*
X154925000Y-69450000D01*
G75*
G02*
X155125000Y-69650000I0J-200000D01*
G01*
G37*
G36*
G01*
X156775000Y-69650000D02*
X156775000Y-70200000D01*
G75*
G02*
X156575000Y-70400000I-200000J0D01*
G01*
X156175000Y-70400000D01*
G75*
G02*
X155975000Y-70200000I0J200000D01*
G01*
X155975000Y-69650000D01*
G75*
G02*
X156175000Y-69450000I200000J0D01*
G01*
X156575000Y-69450000D01*
G75*
G02*
X156775000Y-69650000I0J-200000D01*
G01*
G37*
G36*
G01*
X155125000Y-71200000D02*
X155125000Y-71750000D01*
G75*
G02*
X154925000Y-71950000I-200000J0D01*
G01*
X154525000Y-71950000D01*
G75*
G02*
X154325000Y-71750000I0J200000D01*
G01*
X154325000Y-71200000D01*
G75*
G02*
X154525000Y-71000000I200000J0D01*
G01*
X154925000Y-71000000D01*
G75*
G02*
X155125000Y-71200000I0J-200000D01*
G01*
G37*
G36*
G01*
X156775000Y-71200000D02*
X156775000Y-71750000D01*
G75*
G02*
X156575000Y-71950000I-200000J0D01*
G01*
X156175000Y-71950000D01*
G75*
G02*
X155975000Y-71750000I0J200000D01*
G01*
X155975000Y-71200000D01*
G75*
G02*
X156175000Y-71000000I200000J0D01*
G01*
X156575000Y-71000000D01*
G75*
G02*
X156775000Y-71200000I0J-200000D01*
G01*
G37*
G36*
G01*
X155125000Y-73000000D02*
X155125000Y-73550000D01*
G75*
G02*
X154925000Y-73750000I-200000J0D01*
G01*
X154525000Y-73750000D01*
G75*
G02*
X154325000Y-73550000I0J200000D01*
G01*
X154325000Y-73000000D01*
G75*
G02*
X154525000Y-72800000I200000J0D01*
G01*
X154925000Y-72800000D01*
G75*
G02*
X155125000Y-73000000I0J-200000D01*
G01*
G37*
G36*
G01*
X156775000Y-73000000D02*
X156775000Y-73550000D01*
G75*
G02*
X156575000Y-73750000I-200000J0D01*
G01*
X156175000Y-73750000D01*
G75*
G02*
X155975000Y-73550000I0J200000D01*
G01*
X155975000Y-73000000D01*
G75*
G02*
X156175000Y-72800000I200000J0D01*
G01*
X156575000Y-72800000D01*
G75*
G02*
X156775000Y-73000000I0J-200000D01*
G01*
G37*
G36*
G01*
X155125000Y-74525000D02*
X155125000Y-75075000D01*
G75*
G02*
X154925000Y-75275000I-200000J0D01*
G01*
X154525000Y-75275000D01*
G75*
G02*
X154325000Y-75075000I0J200000D01*
G01*
X154325000Y-74525000D01*
G75*
G02*
X154525000Y-74325000I200000J0D01*
G01*
X154925000Y-74325000D01*
G75*
G02*
X155125000Y-74525000I0J-200000D01*
G01*
G37*
G36*
G01*
X156775000Y-74525000D02*
X156775000Y-75075000D01*
G75*
G02*
X156575000Y-75275000I-200000J0D01*
G01*
X156175000Y-75275000D01*
G75*
G02*
X155975000Y-75075000I0J200000D01*
G01*
X155975000Y-74525000D01*
G75*
G02*
X156175000Y-74325000I200000J0D01*
G01*
X156575000Y-74325000D01*
G75*
G02*
X156775000Y-74525000I0J-200000D01*
G01*
G37*
G36*
G01*
X146225000Y-75125000D02*
X146225000Y-75675000D01*
G75*
G02*
X146025000Y-75875000I-200000J0D01*
G01*
X145625000Y-75875000D01*
G75*
G02*
X145425000Y-75675000I0J200000D01*
G01*
X145425000Y-75125000D01*
G75*
G02*
X145625000Y-74925000I200000J0D01*
G01*
X146025000Y-74925000D01*
G75*
G02*
X146225000Y-75125000I0J-200000D01*
G01*
G37*
G36*
G01*
X147875000Y-75125000D02*
X147875000Y-75675000D01*
G75*
G02*
X147675000Y-75875000I-200000J0D01*
G01*
X147275000Y-75875000D01*
G75*
G02*
X147075000Y-75675000I0J200000D01*
G01*
X147075000Y-75125000D01*
G75*
G02*
X147275000Y-74925000I200000J0D01*
G01*
X147675000Y-74925000D01*
G75*
G02*
X147875000Y-75125000I0J-200000D01*
G01*
G37*
G36*
G01*
X146225000Y-76775000D02*
X146225000Y-77325000D01*
G75*
G02*
X146025000Y-77525000I-200000J0D01*
G01*
X145625000Y-77525000D01*
G75*
G02*
X145425000Y-77325000I0J200000D01*
G01*
X145425000Y-76775000D01*
G75*
G02*
X145625000Y-76575000I200000J0D01*
G01*
X146025000Y-76575000D01*
G75*
G02*
X146225000Y-76775000I0J-200000D01*
G01*
G37*
G36*
G01*
X147875000Y-76775000D02*
X147875000Y-77325000D01*
G75*
G02*
X147675000Y-77525000I-200000J0D01*
G01*
X147275000Y-77525000D01*
G75*
G02*
X147075000Y-77325000I0J200000D01*
G01*
X147075000Y-76775000D01*
G75*
G02*
X147275000Y-76575000I200000J0D01*
G01*
X147675000Y-76575000D01*
G75*
G02*
X147875000Y-76775000I0J-200000D01*
G01*
G37*
G36*
G01*
X155688300Y-55066480D02*
X155688300Y-55616480D01*
G75*
G02*
X155488300Y-55816480I-200000J0D01*
G01*
X155088300Y-55816480D01*
G75*
G02*
X154888300Y-55616480I0J200000D01*
G01*
X154888300Y-55066480D01*
G75*
G02*
X155088300Y-54866480I200000J0D01*
G01*
X155488300Y-54866480D01*
G75*
G02*
X155688300Y-55066480I0J-200000D01*
G01*
G37*
G36*
G01*
X157338300Y-55066480D02*
X157338300Y-55616480D01*
G75*
G02*
X157138300Y-55816480I-200000J0D01*
G01*
X156738300Y-55816480D01*
G75*
G02*
X156538300Y-55616480I0J200000D01*
G01*
X156538300Y-55066480D01*
G75*
G02*
X156738300Y-54866480I200000J0D01*
G01*
X157138300Y-54866480D01*
G75*
G02*
X157338300Y-55066480I0J-200000D01*
G01*
G37*
G36*
G01*
X155693380Y-56595560D02*
X155693380Y-57145560D01*
G75*
G02*
X155493380Y-57345560I-200000J0D01*
G01*
X155093380Y-57345560D01*
G75*
G02*
X154893380Y-57145560I0J200000D01*
G01*
X154893380Y-56595560D01*
G75*
G02*
X155093380Y-56395560I200000J0D01*
G01*
X155493380Y-56395560D01*
G75*
G02*
X155693380Y-56595560I0J-200000D01*
G01*
G37*
G36*
G01*
X157343380Y-56595560D02*
X157343380Y-57145560D01*
G75*
G02*
X157143380Y-57345560I-200000J0D01*
G01*
X156743380Y-57345560D01*
G75*
G02*
X156543380Y-57145560I0J200000D01*
G01*
X156543380Y-56595560D01*
G75*
G02*
X156743380Y-56395560I200000J0D01*
G01*
X157143380Y-56395560D01*
G75*
G02*
X157343380Y-56595560I0J-200000D01*
G01*
G37*
G36*
G01*
X128375000Y-82225000D02*
X128375000Y-81675000D01*
G75*
G02*
X128575000Y-81475000I200000J0D01*
G01*
X128975000Y-81475000D01*
G75*
G02*
X129175000Y-81675000I0J-200000D01*
G01*
X129175000Y-82225000D01*
G75*
G02*
X128975000Y-82425000I-200000J0D01*
G01*
X128575000Y-82425000D01*
G75*
G02*
X128375000Y-82225000I0J200000D01*
G01*
G37*
G36*
G01*
X126725000Y-82225000D02*
X126725000Y-81675000D01*
G75*
G02*
X126925000Y-81475000I200000J0D01*
G01*
X127325000Y-81475000D01*
G75*
G02*
X127525000Y-81675000I0J-200000D01*
G01*
X127525000Y-82225000D01*
G75*
G02*
X127325000Y-82425000I-200000J0D01*
G01*
X126925000Y-82425000D01*
G75*
G02*
X126725000Y-82225000I0J200000D01*
G01*
G37*
G36*
G01*
X128365000Y-80675000D02*
X128365000Y-80125000D01*
G75*
G02*
X128565000Y-79925000I200000J0D01*
G01*
X128965000Y-79925000D01*
G75*
G02*
X129165000Y-80125000I0J-200000D01*
G01*
X129165000Y-80675000D01*
G75*
G02*
X128965000Y-80875000I-200000J0D01*
G01*
X128565000Y-80875000D01*
G75*
G02*
X128365000Y-80675000I0J200000D01*
G01*
G37*
G36*
G01*
X126715000Y-80675000D02*
X126715000Y-80125000D01*
G75*
G02*
X126915000Y-79925000I200000J0D01*
G01*
X127315000Y-79925000D01*
G75*
G02*
X127515000Y-80125000I0J-200000D01*
G01*
X127515000Y-80675000D01*
G75*
G02*
X127315000Y-80875000I-200000J0D01*
G01*
X126915000Y-80875000D01*
G75*
G02*
X126715000Y-80675000I0J200000D01*
G01*
G37*
G36*
G01*
X127525000Y-78575000D02*
X127525000Y-79125000D01*
G75*
G02*
X127325000Y-79325000I-200000J0D01*
G01*
X126925000Y-79325000D01*
G75*
G02*
X126725000Y-79125000I0J200000D01*
G01*
X126725000Y-78575000D01*
G75*
G02*
X126925000Y-78375000I200000J0D01*
G01*
X127325000Y-78375000D01*
G75*
G02*
X127525000Y-78575000I0J-200000D01*
G01*
G37*
G36*
G01*
X129175000Y-78575000D02*
X129175000Y-79125000D01*
G75*
G02*
X128975000Y-79325000I-200000J0D01*
G01*
X128575000Y-79325000D01*
G75*
G02*
X128375000Y-79125000I0J200000D01*
G01*
X128375000Y-78575000D01*
G75*
G02*
X128575000Y-78375000I200000J0D01*
G01*
X128975000Y-78375000D01*
G75*
G02*
X129175000Y-78575000I0J-200000D01*
G01*
G37*
G36*
G01*
X171375000Y-81475000D02*
X171925000Y-81475000D01*
G75*
G02*
X172125000Y-81675000I0J-200000D01*
G01*
X172125000Y-82075000D01*
G75*
G02*
X171925000Y-82275000I-200000J0D01*
G01*
X171375000Y-82275000D01*
G75*
G02*
X171175000Y-82075000I0J200000D01*
G01*
X171175000Y-81675000D01*
G75*
G02*
X171375000Y-81475000I200000J0D01*
G01*
G37*
G36*
G01*
X171375000Y-79825000D02*
X171925000Y-79825000D01*
G75*
G02*
X172125000Y-80025000I0J-200000D01*
G01*
X172125000Y-80425000D01*
G75*
G02*
X171925000Y-80625000I-200000J0D01*
G01*
X171375000Y-80625000D01*
G75*
G02*
X171175000Y-80425000I0J200000D01*
G01*
X171175000Y-80025000D01*
G75*
G02*
X171375000Y-79825000I200000J0D01*
G01*
G37*
G36*
G01*
X171825000Y-59975000D02*
X172375000Y-59975000D01*
G75*
G02*
X172575000Y-60175000I0J-200000D01*
G01*
X172575000Y-60575000D01*
G75*
G02*
X172375000Y-60775000I-200000J0D01*
G01*
X171825000Y-60775000D01*
G75*
G02*
X171625000Y-60575000I0J200000D01*
G01*
X171625000Y-60175000D01*
G75*
G02*
X171825000Y-59975000I200000J0D01*
G01*
G37*
G36*
G01*
X171825000Y-58325000D02*
X172375000Y-58325000D01*
G75*
G02*
X172575000Y-58525000I0J-200000D01*
G01*
X172575000Y-58925000D01*
G75*
G02*
X172375000Y-59125000I-200000J0D01*
G01*
X171825000Y-59125000D01*
G75*
G02*
X171625000Y-58925000I0J200000D01*
G01*
X171625000Y-58525000D01*
G75*
G02*
X171825000Y-58325000I200000J0D01*
G01*
G37*
G36*
G01*
X150125000Y-82475000D02*
X150675000Y-82475000D01*
G75*
G02*
X150875000Y-82675000I0J-200000D01*
G01*
X150875000Y-83075000D01*
G75*
G02*
X150675000Y-83275000I-200000J0D01*
G01*
X150125000Y-83275000D01*
G75*
G02*
X149925000Y-83075000I0J200000D01*
G01*
X149925000Y-82675000D01*
G75*
G02*
X150125000Y-82475000I200000J0D01*
G01*
G37*
G36*
G01*
X150125000Y-80825000D02*
X150675000Y-80825000D01*
G75*
G02*
X150875000Y-81025000I0J-200000D01*
G01*
X150875000Y-81425000D01*
G75*
G02*
X150675000Y-81625000I-200000J0D01*
G01*
X150125000Y-81625000D01*
G75*
G02*
X149925000Y-81425000I0J200000D01*
G01*
X149925000Y-81025000D01*
G75*
G02*
X150125000Y-80825000I200000J0D01*
G01*
G37*
G36*
G01*
X129975000Y-53325000D02*
X130525000Y-53325000D01*
G75*
G02*
X130725000Y-53525000I0J-200000D01*
G01*
X130725000Y-53925000D01*
G75*
G02*
X130525000Y-54125000I-200000J0D01*
G01*
X129975000Y-54125000D01*
G75*
G02*
X129775000Y-53925000I0J200000D01*
G01*
X129775000Y-53525000D01*
G75*
G02*
X129975000Y-53325000I200000J0D01*
G01*
G37*
G36*
G01*
X129975000Y-51675000D02*
X130525000Y-51675000D01*
G75*
G02*
X130725000Y-51875000I0J-200000D01*
G01*
X130725000Y-52275000D01*
G75*
G02*
X130525000Y-52475000I-200000J0D01*
G01*
X129975000Y-52475000D01*
G75*
G02*
X129775000Y-52275000I0J200000D01*
G01*
X129775000Y-51875000D01*
G75*
G02*
X129975000Y-51675000I200000J0D01*
G01*
G37*
D26*
X162025000Y-90437400D03*
G36*
G01*
X164625000Y-89812399D02*
X164625000Y-91062401D01*
G75*
G02*
X164375001Y-91312400I-249999J0D01*
G01*
X163674999Y-91312400D01*
G75*
G02*
X163425000Y-91062401I0J249999D01*
G01*
X163425000Y-89812399D01*
G75*
G02*
X163674999Y-89562400I249999J0D01*
G01*
X164375001Y-89562400D01*
G75*
G02*
X164625000Y-89812399I0J-249999D01*
G01*
G37*
X162025000Y-84700000D03*
G36*
G01*
X164625000Y-84074999D02*
X164625000Y-85325001D01*
G75*
G02*
X164375001Y-85575000I-249999J0D01*
G01*
X163674999Y-85575000D01*
G75*
G02*
X163425000Y-85325001I0J249999D01*
G01*
X163425000Y-84074999D01*
G75*
G02*
X163674999Y-83825000I249999J0D01*
G01*
X164375001Y-83825000D01*
G75*
G02*
X164625000Y-84074999I0J-249999D01*
G01*
G37*
X135975000Y-90400000D03*
X137975000Y-90400000D03*
G36*
G01*
X140575000Y-89774999D02*
X140575000Y-91025001D01*
G75*
G02*
X140325001Y-91275000I-249999J0D01*
G01*
X139624999Y-91275000D01*
G75*
G02*
X139375000Y-91025001I0J249999D01*
G01*
X139375000Y-89774999D01*
G75*
G02*
X139624999Y-89525000I249999J0D01*
G01*
X140325001Y-89525000D01*
G75*
G02*
X140575000Y-89774999I0J-249999D01*
G01*
G37*
X135975000Y-84700000D03*
X137975000Y-84700000D03*
G36*
G01*
X140575000Y-84074999D02*
X140575000Y-85325001D01*
G75*
G02*
X140325001Y-85575000I-249999J0D01*
G01*
X139624999Y-85575000D01*
G75*
G02*
X139375000Y-85325001I0J249999D01*
G01*
X139375000Y-84074999D01*
G75*
G02*
X139624999Y-83825000I249999J0D01*
G01*
X140325001Y-83825000D01*
G75*
G02*
X140575000Y-84074999I0J-249999D01*
G01*
G37*
D27*
X131840000Y-73850000D03*
X129300000Y-73850000D03*
D28*
X126760000Y-73850000D03*
D29*
X143344000Y-52400000D03*
D30*
X140574000Y-55880000D03*
G36*
G01*
X136474000Y-57730000D02*
X133274000Y-57730000D01*
G75*
G02*
X133024000Y-57480000I0J250000D01*
G01*
X133024000Y-54280000D01*
G75*
G02*
X133274000Y-54030000I250000J0D01*
G01*
X136474000Y-54030000D01*
G75*
G02*
X136724000Y-54280000I0J-250000D01*
G01*
X136724000Y-57480000D01*
G75*
G02*
X136474000Y-57730000I-250000J0D01*
G01*
G37*
D31*
X130930000Y-85545000D03*
X130930000Y-76905000D03*
D32*
X130400000Y-78335000D03*
D33*
X126750000Y-76905000D03*
D32*
X130400000Y-84115000D03*
D33*
X126750000Y-85545000D03*
D34*
X169250000Y-78050000D03*
X169250000Y-80050000D03*
X169250000Y-82050000D03*
G36*
G01*
X169875001Y-84650000D02*
X168624999Y-84650000D01*
G75*
G02*
X168375000Y-84400001I0J249999D01*
G01*
X168375000Y-83699999D01*
G75*
G02*
X168624999Y-83450000I249999J0D01*
G01*
X169875001Y-83450000D01*
G75*
G02*
X170125000Y-83699999I0J-249999D01*
G01*
X170125000Y-84400001D01*
G75*
G02*
X169875001Y-84650000I-249999J0D01*
G01*
G37*
D27*
X146690000Y-62530000D03*
X149230000Y-62530000D03*
X151770000Y-62530000D03*
D28*
X154310000Y-62530000D03*
D35*
X162000000Y-88625000D03*
X164500000Y-88625000D03*
X162000000Y-86500000D03*
X164500000Y-86500000D03*
G36*
G01*
X167655000Y-60800000D02*
X167655000Y-60200000D01*
G75*
G02*
X167725000Y-60130000I70000J0D01*
G01*
X169025000Y-60130000D01*
G75*
G02*
X169095000Y-60200000I0J-70000D01*
G01*
X169095000Y-60800000D01*
G75*
G02*
X169025000Y-60870000I-70000J0D01*
G01*
X167725000Y-60870000D01*
G75*
G02*
X167655000Y-60800000I0J70000D01*
G01*
G37*
G36*
G01*
X167655000Y-58900000D02*
X167655000Y-58300000D01*
G75*
G02*
X167725000Y-58230000I70000J0D01*
G01*
X169025000Y-58230000D01*
G75*
G02*
X169095000Y-58300000I0J-70000D01*
G01*
X169095000Y-58900000D01*
G75*
G02*
X169025000Y-58970000I-70000J0D01*
G01*
X167725000Y-58970000D01*
G75*
G02*
X167655000Y-58900000I0J70000D01*
G01*
G37*
G36*
G01*
X169755000Y-59850000D02*
X169755000Y-59250000D01*
G75*
G02*
X169825000Y-59180000I70000J0D01*
G01*
X171125000Y-59180000D01*
G75*
G02*
X171195000Y-59250000I0J-70000D01*
G01*
X171195000Y-59850000D01*
G75*
G02*
X171125000Y-59920000I-70000J0D01*
G01*
X169825000Y-59920000D01*
G75*
G02*
X169755000Y-59850000I0J70000D01*
G01*
G37*
G36*
G01*
X159650000Y-54825000D02*
X159650000Y-55325000D01*
G75*
G02*
X159425000Y-55550000I-225000J0D01*
G01*
X158975000Y-55550000D01*
G75*
G02*
X158750000Y-55325000I0J225000D01*
G01*
X158750000Y-54825000D01*
G75*
G02*
X158975000Y-54600000I225000J0D01*
G01*
X159425000Y-54600000D01*
G75*
G02*
X159650000Y-54825000I0J-225000D01*
G01*
G37*
G36*
G01*
X161200000Y-54825000D02*
X161200000Y-55325000D01*
G75*
G02*
X160975000Y-55550000I-225000J0D01*
G01*
X160525000Y-55550000D01*
G75*
G02*
X160300000Y-55325000I0J225000D01*
G01*
X160300000Y-54825000D01*
G75*
G02*
X160525000Y-54600000I225000J0D01*
G01*
X160975000Y-54600000D01*
G75*
G02*
X161200000Y-54825000I0J-225000D01*
G01*
G37*
G36*
G01*
X164500000Y-55325000D02*
X164500000Y-54825000D01*
G75*
G02*
X164725000Y-54600000I225000J0D01*
G01*
X165175000Y-54600000D01*
G75*
G02*
X165400000Y-54825000I0J-225000D01*
G01*
X165400000Y-55325000D01*
G75*
G02*
X165175000Y-55550000I-225000J0D01*
G01*
X164725000Y-55550000D01*
G75*
G02*
X164500000Y-55325000I0J225000D01*
G01*
G37*
G36*
G01*
X162950000Y-55325000D02*
X162950000Y-54825000D01*
G75*
G02*
X163175000Y-54600000I225000J0D01*
G01*
X163625000Y-54600000D01*
G75*
G02*
X163850000Y-54825000I0J-225000D01*
G01*
X163850000Y-55325000D01*
G75*
G02*
X163625000Y-55550000I-225000J0D01*
G01*
X163175000Y-55550000D01*
G75*
G02*
X162950000Y-55325000I0J225000D01*
G01*
G37*
G36*
G01*
X128275000Y-83750000D02*
X128275000Y-83250000D01*
G75*
G02*
X128500000Y-83025000I225000J0D01*
G01*
X128950000Y-83025000D01*
G75*
G02*
X129175000Y-83250000I0J-225000D01*
G01*
X129175000Y-83750000D01*
G75*
G02*
X128950000Y-83975000I-225000J0D01*
G01*
X128500000Y-83975000D01*
G75*
G02*
X128275000Y-83750000I0J225000D01*
G01*
G37*
G36*
G01*
X126725000Y-83750000D02*
X126725000Y-83250000D01*
G75*
G02*
X126950000Y-83025000I225000J0D01*
G01*
X127400000Y-83025000D01*
G75*
G02*
X127625000Y-83250000I0J-225000D01*
G01*
X127625000Y-83750000D01*
G75*
G02*
X127400000Y-83975000I-225000J0D01*
G01*
X126950000Y-83975000D01*
G75*
G02*
X126725000Y-83750000I0J225000D01*
G01*
G37*
G36*
G01*
X165975000Y-79400000D02*
X166925000Y-79400000D01*
G75*
G02*
X167175000Y-79650000I0J-250000D01*
G01*
X167175000Y-80150000D01*
G75*
G02*
X166925000Y-80400000I-250000J0D01*
G01*
X165975000Y-80400000D01*
G75*
G02*
X165725000Y-80150000I0J250000D01*
G01*
X165725000Y-79650000D01*
G75*
G02*
X165975000Y-79400000I250000J0D01*
G01*
G37*
G36*
G01*
X165975000Y-77500000D02*
X166925000Y-77500000D01*
G75*
G02*
X167175000Y-77750000I0J-250000D01*
G01*
X167175000Y-78250000D01*
G75*
G02*
X166925000Y-78500000I-250000J0D01*
G01*
X165975000Y-78500000D01*
G75*
G02*
X165725000Y-78250000I0J250000D01*
G01*
X165725000Y-77750000D01*
G75*
G02*
X165975000Y-77500000I250000J0D01*
G01*
G37*
G36*
G01*
X171675000Y-75150000D02*
X171675000Y-75650000D01*
G75*
G02*
X171450000Y-75875000I-225000J0D01*
G01*
X171000000Y-75875000D01*
G75*
G02*
X170775000Y-75650000I0J225000D01*
G01*
X170775000Y-75150000D01*
G75*
G02*
X171000000Y-74925000I225000J0D01*
G01*
X171450000Y-74925000D01*
G75*
G02*
X171675000Y-75150000I0J-225000D01*
G01*
G37*
G36*
G01*
X173225000Y-75150000D02*
X173225000Y-75650000D01*
G75*
G02*
X173000000Y-75875000I-225000J0D01*
G01*
X172550000Y-75875000D01*
G75*
G02*
X172325000Y-75650000I0J225000D01*
G01*
X172325000Y-75150000D01*
G75*
G02*
X172550000Y-74925000I225000J0D01*
G01*
X173000000Y-74925000D01*
G75*
G02*
X173225000Y-75150000I0J-225000D01*
G01*
G37*
D36*
X173373000Y-51554503D02*
X173373000Y-54447394D01*
X172447394Y-55373000D01*
X171127013Y-55373000D01*
X171127513Y-50657000D01*
X172428748Y-50657000D01*
X173373000Y-51554503D01*
D11*
G36*
X173373000Y-51554503D02*
G01*
X173373000Y-54447394D01*
X172447394Y-55373000D01*
X171127013Y-55373000D01*
X171127513Y-50657000D01*
X172428748Y-50657000D01*
X173373000Y-51554503D01*
G37*
D36*
X141729649Y-53609255D02*
X142210197Y-54089803D01*
X142229443Y-54105597D01*
X142251399Y-54117333D01*
X142275224Y-54124560D01*
X142300000Y-54127000D01*
X143673000Y-54127000D01*
X143673000Y-58873000D01*
X139952606Y-58873000D01*
X138700029Y-57620423D01*
X138213707Y-56842307D01*
X138027000Y-56375541D01*
X138027000Y-55517789D01*
X138216669Y-54853949D01*
X138598692Y-54280914D01*
X138980914Y-53898692D01*
X139553949Y-53516669D01*
X140217789Y-53327000D01*
X140976970Y-53327000D01*
X141729649Y-53609255D01*
D11*
G36*
X141729649Y-53609255D02*
G01*
X142210197Y-54089803D01*
X142229443Y-54105597D01*
X142251399Y-54117333D01*
X142275224Y-54124560D01*
X142300000Y-54127000D01*
X143673000Y-54127000D01*
X143673000Y-58873000D01*
X139952606Y-58873000D01*
X138700029Y-57620423D01*
X138213707Y-56842307D01*
X138027000Y-56375541D01*
X138027000Y-55517789D01*
X138216669Y-54853949D01*
X138598692Y-54280914D01*
X138980914Y-53898692D01*
X139553949Y-53516669D01*
X140217789Y-53327000D01*
X140976970Y-53327000D01*
X141729649Y-53609255D01*
G37*
D36*
X134772922Y-50373000D02*
X133752606Y-50373000D01*
X132527000Y-49147394D01*
X132527000Y-46154947D01*
X133493594Y-45247000D01*
X134769777Y-45247000D01*
X134772922Y-50373000D01*
D11*
G36*
X134772922Y-50373000D02*
G01*
X133752606Y-50373000D01*
X132527000Y-49147394D01*
X132527000Y-46154947D01*
X133493594Y-45247000D01*
X134769777Y-45247000D01*
X134772922Y-50373000D01*
G37*
D36*
X167103059Y-46533991D02*
X167105703Y-48930140D01*
X167108171Y-48954914D01*
X167115424Y-48978730D01*
X167127184Y-49000674D01*
X167141404Y-49018281D01*
X168683294Y-50612875D01*
X168702271Y-50628990D01*
X168724028Y-50641094D01*
X168747727Y-50648720D01*
X168774409Y-50651594D01*
X172373000Y-50656816D01*
X172373000Y-55373000D01*
X166754027Y-55373000D01*
X161641496Y-50061924D01*
X161622556Y-50045766D01*
X161600826Y-50033614D01*
X161577144Y-50025935D01*
X161550000Y-50023000D01*
X149450000Y-50023000D01*
X149425224Y-50025440D01*
X149401399Y-50032667D01*
X149379443Y-50044403D01*
X149360197Y-50060197D01*
X149344403Y-50079443D01*
X149332667Y-50101399D01*
X149325440Y-50125224D01*
X149323006Y-50151233D01*
X149372488Y-55247906D01*
X145747394Y-58873000D01*
X143527000Y-58873000D01*
X143527000Y-54056180D01*
X144585429Y-53093972D01*
X144602121Y-53075500D01*
X144614888Y-53054127D01*
X144623240Y-53030673D01*
X144627000Y-53000000D01*
X144627000Y-50500000D01*
X144624560Y-50475224D01*
X144617333Y-50451399D01*
X144605597Y-50429443D01*
X144589803Y-50410197D01*
X144570557Y-50394403D01*
X144548601Y-50382667D01*
X144524776Y-50375440D01*
X144500000Y-50373000D01*
X134827000Y-50373000D01*
X134827000Y-45227000D01*
X165748713Y-45227000D01*
X167103059Y-46533991D01*
D11*
G36*
X167103059Y-46533991D02*
G01*
X167105703Y-48930140D01*
X167108171Y-48954914D01*
X167115424Y-48978730D01*
X167127184Y-49000674D01*
X167141404Y-49018281D01*
X168683294Y-50612875D01*
X168702271Y-50628990D01*
X168724028Y-50641094D01*
X168747727Y-50648720D01*
X168774409Y-50651594D01*
X172373000Y-50656816D01*
X172373000Y-55373000D01*
X166754027Y-55373000D01*
X161641496Y-50061924D01*
X161622556Y-50045766D01*
X161600826Y-50033614D01*
X161577144Y-50025935D01*
X161550000Y-50023000D01*
X149450000Y-50023000D01*
X149425224Y-50025440D01*
X149401399Y-50032667D01*
X149379443Y-50044403D01*
X149360197Y-50060197D01*
X149344403Y-50079443D01*
X149332667Y-50101399D01*
X149325440Y-50125224D01*
X149323006Y-50151233D01*
X149372488Y-55247906D01*
X145747394Y-58873000D01*
X143527000Y-58873000D01*
X143527000Y-54056180D01*
X144585429Y-53093972D01*
X144602121Y-53075500D01*
X144614888Y-53054127D01*
X144623240Y-53030673D01*
X144627000Y-53000000D01*
X144627000Y-50500000D01*
X144624560Y-50475224D01*
X144617333Y-50451399D01*
X144605597Y-50429443D01*
X144589803Y-50410197D01*
X144570557Y-50394403D01*
X144548601Y-50382667D01*
X144524776Y-50375440D01*
X144500000Y-50373000D01*
X134827000Y-50373000D01*
X134827000Y-45227000D01*
X165748713Y-45227000D01*
X167103059Y-46533991D01*
G37*
M02*
