M48
; DRILL file {KiCad 5.1.9-73d0e3b20d~88~ubuntu20.04.1} date Sun Apr 18 22:18:43 2021
; FORMAT={-:-/ absolute / inch / decimal}
; #@! TF.CreationDate,2021-04-18T22:18:43+08:00
; #@! TF.GenerationSoftware,Kicad,Pcbnew,5.1.9-73d0e3b20d~88~ubuntu20.04.1
; #@! TF.FileFunction,Plated,1,2,PTH
FMAT,2
INCH
T1C0.0079
T2C0.0157
T3C0.0236
T4C0.0295
T5C0.0394
T6C0.0709
T7C0.1063
%
G90
G05
T1
X4.972Y-2.9768
X4.9823Y-2.7028
X4.9823Y-2.7264
X4.9823Y-2.75
X4.9823Y-2.7736
X4.9823Y-2.7972
X4.9882Y-2.0394
X4.9882Y-2.125
X4.998Y-2.976
X5.0059Y-2.7028
X5.0059Y-2.7264
X5.0059Y-2.75
X5.0059Y-2.7736
X5.0059Y-2.7972
X5.0295Y-2.7028
X5.0295Y-2.7264
X5.0295Y-2.75
X5.0295Y-2.7736
X5.0295Y-2.7972
X5.0531Y-2.7028
X5.0531Y-2.7264
X5.0531Y-2.75
X5.0531Y-2.7736
X5.0531Y-2.7972
X5.0831Y-2.0858
X5.1161Y-2.7008
X5.1161Y-2.7244
X5.1161Y-2.748
X5.1161Y-2.7717
X5.1295Y-2.9508
X5.1398Y-2.7008
X5.1398Y-2.7244
X5.1398Y-2.748
X5.1398Y-2.7717
X5.1531Y-2.9504
X5.1606Y-2.2224
X5.1634Y-2.7008
X5.1634Y-2.7244
X5.1634Y-2.748
X5.1634Y-2.7717
X5.1785Y-2.0245
X5.187Y-2.7008
X5.187Y-2.7244
X5.187Y-2.748
X5.187Y-2.7717
X5.2106Y-2.7008
X5.2106Y-2.7244
X5.2106Y-2.748
X5.2106Y-2.7717
X5.2165Y-2.4154
X5.2165Y-2.4429
X5.2165Y-2.4724
X5.2165Y-2.5039
X5.2283Y-2.5315
X5.2343Y-2.7008
X5.2343Y-2.7244
X5.2343Y-2.748
X5.2343Y-2.7717
X5.2504Y-3.3421
X5.2508Y-3.3689
X5.252Y-1.7087
X5.252Y-3.1024
X5.252Y-3.1358
X5.252Y-3.2657
X5.2579Y-2.7008
X5.2579Y-2.7244
X5.2579Y-2.748
X5.2579Y-2.7717
X5.2815Y-2.7008
X5.2815Y-2.7244
X5.2815Y-2.748
X5.2815Y-2.7717
X5.2835Y-3.3268
X5.2953Y-2.5974
X5.2953Y-2.6211
X5.2953Y-2.6447
X5.3189Y-2.5974
X5.3189Y-2.6211
X5.3189Y-2.6447
X5.335Y-2.8713
X5.3358Y-3.1122
X5.3406Y-3.4685
X5.3413Y-3.4366
X5.3425Y-2.5974
X5.3425Y-2.6211
X5.3425Y-2.6447
X5.3433Y-3.2185
X5.3533Y-3.1654
X5.3661Y-2.5974
X5.3661Y-2.6211
X5.3661Y-2.6447
X5.374Y-2.874
X5.375Y-3.4685
X5.3752Y-3.4362
X5.3776Y-3.2181
X5.3789Y-3.1663
X5.3803Y-3.1122
X5.3898Y-2.5974
X5.3898Y-2.6211
X5.3898Y-2.6447
X5.3976Y-3.0669
X5.4008Y-2.9421
X5.4035Y-3.1663
X5.4094Y-3.4362
X5.4094Y-3.4685
X5.411Y-3.2185
X5.4134Y-2.5974
X5.4134Y-2.622
X5.4134Y-2.6457
X5.437Y-3.437
X5.437Y-3.4685
X5.4449Y-3.1142
X5.465Y-2.7531
X5.4705Y-2.5974
X5.4774Y-3.1565
X5.4854Y-3.113
X5.4902Y-2.3366
X5.4902Y-2.3839
X5.5Y-2.7205
X5.513Y-3.6378
X5.5138Y-2.3366
X5.5138Y-2.3602
X5.5138Y-2.3839
X5.5329Y-3.0461
X5.5344Y-3.1134
X5.5374Y-2.3366
X5.5374Y-2.3602
X5.5374Y-2.3839
X5.5453Y-2.6614
X5.546Y-2.874
X5.561Y-2.3366
X5.561Y-2.3602
X5.561Y-2.3839
X5.5614Y-3.4327
X5.5622Y-3.4665
X5.5626Y-3.3957
X5.563Y-3.3642
X5.5811Y-3.5488
X5.5846Y-2.3366
X5.5846Y-2.3602
X5.5846Y-2.3839
X5.5906Y-3.3642
X5.5915Y-3.3957
X5.5915Y-3.4331
X5.5925Y-3.4665
X5.6165Y-2.8752
X5.6408Y-2.8504
X5.6449Y-2.5437
X5.6633Y-3.1124
X5.6636Y-2.7696
X5.6918Y-3.1113
X5.6933Y-2.8386
X5.7088Y-2.989
X5.7187Y-3.1039
X5.7193Y-3.0705
X5.7254Y-3.2106
X5.7402Y-3.0343
X5.7411Y-2.9685
X5.7531Y-3.2508
X5.7551Y-2.9055
X5.7559Y-3.2106
X5.7631Y-2.7925
X5.7728Y-2.9358
X5.776Y-3.0504
X5.7815Y-2.7466
X5.7874Y-3.2106
X5.791Y-2.9056
X5.7965Y-2.7802
X5.7992Y-2.065
X5.8059Y-3.0252
X5.8071Y-2.9689
X5.8098Y-3.25
X5.8209Y-2.065
X5.8209Y-3.1211
X5.8354Y-3.2339
X5.8425Y-2.065
X5.8504Y-3.0512
X5.8508Y-2.9925
X5.8514Y-3.079
X5.8551Y-2.8665
X5.8555Y-3.1118
X5.8557Y-3.1482
X5.8567Y-3.213
X5.8642Y-2.065
X5.8709Y-2.7252
X5.8813Y-2.3778
X5.8929Y-2.7252
X5.8937Y-3.1102
X5.897Y-2.321
X5.9087Y-2.0654
X5.915Y-2.7252
X5.9323Y-2.7551
X5.9528Y-2.065
X5.9541Y-2.9288
X5.9705Y-2.8508
X5.9736Y-2.5944
X5.9744Y-2.065
X5.977Y-2.9467
X5.9845Y-2.9089
X5.9961Y-2.065
X6.0016Y-2.6082
X6.0114Y-2.713
X6.0177Y-2.065
X6.0228Y-2.9004
X6.0334Y-2.6106
X6.0335Y-3.1931
X6.0406Y-2.9921
X6.0406Y-3.0161
X6.0421Y-2.9189
X6.0606Y-2.9362
X6.0618Y-2.0657
X6.0799Y-2.239
X6.0846Y-3.1939
X6.0856Y-2.5636
X6.0891Y-2.3778
X6.0906Y-3.4488
X6.0925Y-3.4065
X6.0931Y-2.2014
X6.0996Y-2.7972
X6.1037Y-2.2388
X6.1038Y-2.5849
X6.1043Y-3.6752
X6.1063Y-2.0669
X6.1154Y-3.4311
X6.1158Y-2.2992
X6.1177Y-3.3228
X6.123Y-3.4055
X6.128Y-2.0669
X6.1283Y-2.8264
X6.1472Y-2.7693
X6.1496Y-2.0669
X6.1598Y-2.34
X6.1618Y-2.8744
X6.1713Y-2.0669
X6.1728Y-2.828
X6.1772Y-2.2992
X6.185Y-2.1447
X6.185Y-2.1663
X6.1862Y-2.6678
X6.1949Y-2.5878
X6.2067Y-2.1447
X6.2067Y-2.1663
X6.2142Y-2.6678
X6.2161Y-2.0654
X6.2173Y-2.5878
X6.2185Y-2.2392
X6.2275Y-2.4043
X6.2293Y-2.1447
X6.2293Y-2.1663
X6.2409Y-2.5886
X6.2589Y-2.2884
X6.2598Y-2.0669
X6.2642Y-2.5886
X6.2727Y-3.2072
X6.2815Y-2.0669
X6.2844Y-2.2323
X6.2878Y-2.589
X6.3031Y-2.0669
X6.3106Y-2.589
X6.3248Y-2.0669
X6.3248Y-3.098
X6.3283Y-3.126
X6.3297Y-2.3012
X6.3551Y-3.2059
X6.3561Y-3.058
X6.3602Y-2.9803
X6.3618Y-2.0669
X6.3839Y-2.5886
X6.3945Y-3.0587
X6.4059Y-2.7295
X6.4063Y-2.5878
X6.4232Y-2.0768
X6.4232Y-2.1024
X6.4311Y-2.5874
X6.4374Y-2.7295
X6.4449Y-2.0236
X6.4449Y-2.0768
X6.4449Y-2.1024
X6.4488Y-2.346
X6.4571Y-2.587
X6.4665Y-2.0236
X6.4665Y-2.0492
X6.4665Y-2.1024
X6.4667Y-3.198
X6.4689Y-2.7295
X6.4827Y-2.5858
X6.4882Y-2.0236
X6.4882Y-2.0492
X6.4882Y-2.0768
X6.4945Y-3.1998
X6.5004Y-2.7295
X6.5083Y-2.585
X6.552Y-3.1886
X6.5719Y-2.3455
X6.5811Y-3.1098
X6.5843Y-2.4209
X6.5843Y-2.4594
X6.5876Y-2.2805
X6.5903Y-2.0327
X6.5903Y-2.0563
X6.5903Y-2.08
X6.5903Y-2.1036
X6.5903Y-2.1272
X6.5906Y-2.5236
X6.6019Y-3.2249
X6.6106Y-2.4591
X6.622Y-2.3071
X6.622Y-2.3819
X6.6236Y-2.7866
X6.6244Y-2.9906
X6.6307Y-3.0614
X6.639Y-2.4594
X6.6567Y-2.6059
X6.6654Y-2.4591
X6.6703Y-2.2825
X6.6732Y-2.3435
X6.6797Y-2.6754
X6.7018Y-2.3435
X6.7059Y-3.2854
X6.7287Y-2.4059
X6.7289Y-2.534
X6.7333Y-2.3435
X6.7972Y-2.0069
X6.7972Y-2.0305
X6.7972Y-2.0541
X6.7972Y-2.0778
X6.7972Y-2.1014
X6.7972Y-2.125
X6.8067Y-2.8358
X6.8079Y-2.7382
X6.8356Y-2.4724
X6.8406Y-2.2343
X6.8406Y-2.2579
X6.8488Y-2.5551
X6.8504Y-3.0886
T2
X5.7634Y-3.6906
X5.7681Y-3.5583
X5.8622Y-3.5583
X5.8646Y-3.6902
X5.9299Y-3.1335
X6.0114Y-3.5594
X6.0138Y-3.6921
X6.1012Y-3.5154
X6.187Y-3.1079
X6.2749Y-2.2594
X6.3848Y-2.125
X6.3941Y-3.4626
X6.5236Y-3.3276
X6.5319Y-3.4878
X6.5843Y-3.4429
T4
X5.3533Y-3.3346
X5.3533Y-3.5591
X5.4321Y-3.3346
X5.4321Y-3.5591
X5.5108Y-3.3346
X5.5108Y-3.5591
X5.7878Y-2.4563
X5.8665Y-2.4563
X5.9453Y-2.4563
X6.024Y-2.4563
X6.1028Y-2.4563
X6.3789Y-3.3346
X6.3789Y-3.5605
X6.4577Y-3.3346
X6.4577Y-3.5605
X6.7287Y-2.7941
X6.7287Y-2.8728
X6.7287Y-2.9516
X6.7287Y-3.0303
T5
X4.9906Y-2.9075
X5.0906Y-2.9075
X5.1906Y-2.9075
X5.8274Y-3.3651
X5.8274Y-3.4651
X5.9274Y-3.3651
X5.9274Y-3.4651
X6.0274Y-3.3651
X6.0274Y-3.4651
T6
X5.3748Y-2.1394
X5.5992Y-2.1394
T7
X6.69Y-1.8831
X6.69Y-2.08
T3
G00X5.002Y-3.0278
M15
G01X4.9783Y-3.0278
M16
G05
G00X5.002Y-3.3679
M15
G01X4.9783Y-3.3679
M16
G05
G00X5.1764Y-3.0278
M15
G01X5.1331Y-3.0278
M16
G05
G00X5.1764Y-3.3679
M15
G01X5.1331Y-3.3679
M16
G05
T0
M30
