%TF.GenerationSoftware,KiCad,Pcbnew,5.1.9-73d0e3b20d~88~ubuntu20.04.1*%
%TF.CreationDate,2021-04-18T22:18:41+08:00*%
%TF.ProjectId,AbsoluteEncoderBoard,4162736f-6c75-4746-9545-6e636f646572,rev?*%
%TF.SameCoordinates,Original*%
%TF.FileFunction,Soldermask,Bot*%
%TF.FilePolarity,Negative*%
%FSLAX46Y46*%
G04 Gerber Fmt 4.6, Leading zero omitted, Abs format (unit mm)*
G04 Created by KiCad (PCBNEW 5.1.9-73d0e3b20d~88~ubuntu20.04.1) date 2021-04-18 22:18:41*
%MOMM*%
%LPD*%
G01*
G04 APERTURE LIST*
%ADD10C,3.200000*%
%ADD11O,1.200000X1.750000*%
%ADD12C,1.800000*%
%ADD13C,3.700000*%
%ADD14C,4.000000*%
%ADD15R,3.800000X3.800000*%
%ADD16C,1.700000*%
%ADD17R,0.650000X1.060000*%
%ADD18R,2.500000X1.800000*%
%ADD19R,3.500000X2.300000*%
%ADD20R,1.500000X2.000000*%
%ADD21R,3.800000X2.000000*%
%ADD22R,2.000000X0.600000*%
%ADD23R,0.600000X2.000000*%
%ADD24R,0.500000X0.800000*%
%ADD25R,0.400000X0.800000*%
%ADD26O,1.700000X1.700000*%
%ADD27R,1.700000X1.700000*%
%ADD28O,2.100000X1.000000*%
%ADD29C,0.650000*%
%ADD30O,1.600000X1.000000*%
%ADD31O,1.750000X1.200000*%
%ADD32C,0.230000*%
%ADD33C,0.100000*%
%ADD34C,0.254000*%
G04 APERTURE END LIST*
D10*
X170000000Y-90000000D03*
X130000000Y-90000000D03*
X170000000Y-40000000D03*
X130000000Y-40000000D03*
G36*
G01*
X169165000Y-73575000D02*
X168615000Y-73575000D01*
G75*
G02*
X168415000Y-73375000I0J200000D01*
G01*
X168415000Y-72975000D01*
G75*
G02*
X168615000Y-72775000I200000J0D01*
G01*
X169165000Y-72775000D01*
G75*
G02*
X169365000Y-72975000I0J-200000D01*
G01*
X169365000Y-73375000D01*
G75*
G02*
X169165000Y-73575000I-200000J0D01*
G01*
G37*
G36*
G01*
X169165000Y-75225000D02*
X168615000Y-75225000D01*
G75*
G02*
X168415000Y-75025000I0J200000D01*
G01*
X168415000Y-74625000D01*
G75*
G02*
X168615000Y-74425000I200000J0D01*
G01*
X169165000Y-74425000D01*
G75*
G02*
X169365000Y-74625000I0J-200000D01*
G01*
X169365000Y-75025000D01*
G75*
G02*
X169165000Y-75225000I-200000J0D01*
G01*
G37*
G36*
G01*
X173480000Y-80860000D02*
X173820000Y-80860000D01*
G75*
G02*
X173960000Y-81000000I0J-140000D01*
G01*
X173960000Y-81280000D01*
G75*
G02*
X173820000Y-81420000I-140000J0D01*
G01*
X173480000Y-81420000D01*
G75*
G02*
X173340000Y-81280000I0J140000D01*
G01*
X173340000Y-81000000D01*
G75*
G02*
X173480000Y-80860000I140000J0D01*
G01*
G37*
G36*
G01*
X173480000Y-79900000D02*
X173820000Y-79900000D01*
G75*
G02*
X173960000Y-80040000I0J-140000D01*
G01*
X173960000Y-80320000D01*
G75*
G02*
X173820000Y-80460000I-140000J0D01*
G01*
X173480000Y-80460000D01*
G75*
G02*
X173340000Y-80320000I0J140000D01*
G01*
X173340000Y-80040000D01*
G75*
G02*
X173480000Y-79900000I140000J0D01*
G01*
G37*
D11*
X162025000Y-84700000D03*
G36*
G01*
X164625000Y-84074999D02*
X164625000Y-85325001D01*
G75*
G02*
X164375001Y-85575000I-249999J0D01*
G01*
X163674999Y-85575000D01*
G75*
G02*
X163425000Y-85325001I0J249999D01*
G01*
X163425000Y-84074999D01*
G75*
G02*
X163674999Y-83825000I249999J0D01*
G01*
X164375001Y-83825000D01*
G75*
G02*
X164625000Y-84074999I0J-249999D01*
G01*
G37*
X155010000Y-62390000D03*
X153010000Y-62390000D03*
X151010000Y-62390000D03*
X149010000Y-62390000D03*
G36*
G01*
X146410000Y-63015001D02*
X146410000Y-61764999D01*
G75*
G02*
X146659999Y-61515000I249999J0D01*
G01*
X147360001Y-61515000D01*
G75*
G02*
X147610000Y-61764999I0J-249999D01*
G01*
X147610000Y-63015001D01*
G75*
G02*
X147360001Y-63265000I-249999J0D01*
G01*
X146659999Y-63265000D01*
G75*
G02*
X146410000Y-63015001I0J249999D01*
G01*
G37*
D12*
X133750000Y-57820000D03*
D13*
X136520000Y-54340000D03*
G36*
G01*
X140620000Y-52490000D02*
X143820000Y-52490000D01*
G75*
G02*
X144070000Y-52740000I0J-250000D01*
G01*
X144070000Y-55940000D01*
G75*
G02*
X143820000Y-56190000I-250000J0D01*
G01*
X140620000Y-56190000D01*
G75*
G02*
X140370000Y-55940000I0J250000D01*
G01*
X140370000Y-52740000D01*
G75*
G02*
X140620000Y-52490000I250000J0D01*
G01*
G37*
D14*
X169926000Y-47832000D03*
D15*
X169926000Y-52832000D03*
G36*
G01*
X147415240Y-84624600D02*
X148615240Y-84624600D01*
G75*
G02*
X148865240Y-84874600I0J-250000D01*
G01*
X148865240Y-86074600D01*
G75*
G02*
X148615240Y-86324600I-250000J0D01*
G01*
X147415240Y-86324600D01*
G75*
G02*
X147165240Y-86074600I0J250000D01*
G01*
X147165240Y-84874600D01*
G75*
G02*
X147415240Y-84624600I250000J0D01*
G01*
G37*
D16*
X150555240Y-85474600D03*
X153095240Y-85474600D03*
X148015240Y-88014600D03*
X150555240Y-88014600D03*
X153095240Y-88014600D03*
G36*
G01*
X146860000Y-73950000D02*
X146860000Y-73610000D01*
G75*
G02*
X147000000Y-73470000I140000J0D01*
G01*
X147280000Y-73470000D01*
G75*
G02*
X147420000Y-73610000I0J-140000D01*
G01*
X147420000Y-73950000D01*
G75*
G02*
X147280000Y-74090000I-140000J0D01*
G01*
X147000000Y-74090000D01*
G75*
G02*
X146860000Y-73950000I0J140000D01*
G01*
G37*
G36*
G01*
X145900000Y-73950000D02*
X145900000Y-73610000D01*
G75*
G02*
X146040000Y-73470000I140000J0D01*
G01*
X146320000Y-73470000D01*
G75*
G02*
X146460000Y-73610000I0J-140000D01*
G01*
X146460000Y-73950000D01*
G75*
G02*
X146320000Y-74090000I-140000J0D01*
G01*
X146040000Y-74090000D01*
G75*
G02*
X145900000Y-73950000I0J140000D01*
G01*
G37*
G36*
G01*
X139630000Y-69725000D02*
X139970000Y-69725000D01*
G75*
G02*
X140110000Y-69865000I0J-140000D01*
G01*
X140110000Y-70145000D01*
G75*
G02*
X139970000Y-70285000I-140000J0D01*
G01*
X139630000Y-70285000D01*
G75*
G02*
X139490000Y-70145000I0J140000D01*
G01*
X139490000Y-69865000D01*
G75*
G02*
X139630000Y-69725000I140000J0D01*
G01*
G37*
G36*
G01*
X139630000Y-68765000D02*
X139970000Y-68765000D01*
G75*
G02*
X140110000Y-68905000I0J-140000D01*
G01*
X140110000Y-69185000D01*
G75*
G02*
X139970000Y-69325000I-140000J0D01*
G01*
X139630000Y-69325000D01*
G75*
G02*
X139490000Y-69185000I0J140000D01*
G01*
X139490000Y-68905000D01*
G75*
G02*
X139630000Y-68765000I140000J0D01*
G01*
G37*
G36*
G01*
X147530000Y-69860000D02*
X147530000Y-69520000D01*
G75*
G02*
X147670000Y-69380000I140000J0D01*
G01*
X147950000Y-69380000D01*
G75*
G02*
X148090000Y-69520000I0J-140000D01*
G01*
X148090000Y-69860000D01*
G75*
G02*
X147950000Y-70000000I-140000J0D01*
G01*
X147670000Y-70000000D01*
G75*
G02*
X147530000Y-69860000I0J140000D01*
G01*
G37*
G36*
G01*
X146570000Y-69860000D02*
X146570000Y-69520000D01*
G75*
G02*
X146710000Y-69380000I140000J0D01*
G01*
X146990000Y-69380000D01*
G75*
G02*
X147130000Y-69520000I0J-140000D01*
G01*
X147130000Y-69860000D01*
G75*
G02*
X146990000Y-70000000I-140000J0D01*
G01*
X146710000Y-70000000D01*
G75*
G02*
X146570000Y-69860000I0J140000D01*
G01*
G37*
G36*
G01*
X139000000Y-77940000D02*
X139000000Y-77600000D01*
G75*
G02*
X139140000Y-77460000I140000J0D01*
G01*
X139420000Y-77460000D01*
G75*
G02*
X139560000Y-77600000I0J-140000D01*
G01*
X139560000Y-77940000D01*
G75*
G02*
X139420000Y-78080000I-140000J0D01*
G01*
X139140000Y-78080000D01*
G75*
G02*
X139000000Y-77940000I0J140000D01*
G01*
G37*
G36*
G01*
X138040000Y-77940000D02*
X138040000Y-77600000D01*
G75*
G02*
X138180000Y-77460000I140000J0D01*
G01*
X138460000Y-77460000D01*
G75*
G02*
X138600000Y-77600000I0J-140000D01*
G01*
X138600000Y-77940000D01*
G75*
G02*
X138460000Y-78080000I-140000J0D01*
G01*
X138180000Y-78080000D01*
G75*
G02*
X138040000Y-77940000I0J140000D01*
G01*
G37*
G36*
G01*
X149000000Y-72480000D02*
X149000000Y-72820000D01*
G75*
G02*
X148860000Y-72960000I-140000J0D01*
G01*
X148580000Y-72960000D01*
G75*
G02*
X148440000Y-72820000I0J140000D01*
G01*
X148440000Y-72480000D01*
G75*
G02*
X148580000Y-72340000I140000J0D01*
G01*
X148860000Y-72340000D01*
G75*
G02*
X149000000Y-72480000I0J-140000D01*
G01*
G37*
G36*
G01*
X149960000Y-72480000D02*
X149960000Y-72820000D01*
G75*
G02*
X149820000Y-72960000I-140000J0D01*
G01*
X149540000Y-72960000D01*
G75*
G02*
X149400000Y-72820000I0J140000D01*
G01*
X149400000Y-72480000D01*
G75*
G02*
X149540000Y-72340000I140000J0D01*
G01*
X149820000Y-72340000D01*
G75*
G02*
X149960000Y-72480000I0J-140000D01*
G01*
G37*
G36*
G01*
X149025000Y-78805000D02*
X149025000Y-79145000D01*
G75*
G02*
X148885000Y-79285000I-140000J0D01*
G01*
X148605000Y-79285000D01*
G75*
G02*
X148465000Y-79145000I0J140000D01*
G01*
X148465000Y-78805000D01*
G75*
G02*
X148605000Y-78665000I140000J0D01*
G01*
X148885000Y-78665000D01*
G75*
G02*
X149025000Y-78805000I0J-140000D01*
G01*
G37*
G36*
G01*
X149985000Y-78805000D02*
X149985000Y-79145000D01*
G75*
G02*
X149845000Y-79285000I-140000J0D01*
G01*
X149565000Y-79285000D01*
G75*
G02*
X149425000Y-79145000I0J140000D01*
G01*
X149425000Y-78805000D01*
G75*
G02*
X149565000Y-78665000I140000J0D01*
G01*
X149845000Y-78665000D01*
G75*
G02*
X149985000Y-78805000I0J-140000D01*
G01*
G37*
G36*
G01*
X140705000Y-69725000D02*
X141045000Y-69725000D01*
G75*
G02*
X141185000Y-69865000I0J-140000D01*
G01*
X141185000Y-70145000D01*
G75*
G02*
X141045000Y-70285000I-140000J0D01*
G01*
X140705000Y-70285000D01*
G75*
G02*
X140565000Y-70145000I0J140000D01*
G01*
X140565000Y-69865000D01*
G75*
G02*
X140705000Y-69725000I140000J0D01*
G01*
G37*
G36*
G01*
X140705000Y-68765000D02*
X141045000Y-68765000D01*
G75*
G02*
X141185000Y-68905000I0J-140000D01*
G01*
X141185000Y-69185000D01*
G75*
G02*
X141045000Y-69325000I-140000J0D01*
G01*
X140705000Y-69325000D01*
G75*
G02*
X140565000Y-69185000I0J140000D01*
G01*
X140565000Y-68905000D01*
G75*
G02*
X140705000Y-68765000I140000J0D01*
G01*
G37*
G36*
G01*
X149425000Y-80170000D02*
X149425000Y-79830000D01*
G75*
G02*
X149565000Y-79690000I140000J0D01*
G01*
X149845000Y-79690000D01*
G75*
G02*
X149985000Y-79830000I0J-140000D01*
G01*
X149985000Y-80170000D01*
G75*
G02*
X149845000Y-80310000I-140000J0D01*
G01*
X149565000Y-80310000D01*
G75*
G02*
X149425000Y-80170000I0J140000D01*
G01*
G37*
G36*
G01*
X148465000Y-80170000D02*
X148465000Y-79830000D01*
G75*
G02*
X148605000Y-79690000I140000J0D01*
G01*
X148885000Y-79690000D01*
G75*
G02*
X149025000Y-79830000I0J-140000D01*
G01*
X149025000Y-80170000D01*
G75*
G02*
X148885000Y-80310000I-140000J0D01*
G01*
X148605000Y-80310000D01*
G75*
G02*
X148465000Y-80170000I0J140000D01*
G01*
G37*
G36*
G01*
X139000000Y-79195000D02*
X139000000Y-78855000D01*
G75*
G02*
X139140000Y-78715000I140000J0D01*
G01*
X139420000Y-78715000D01*
G75*
G02*
X139560000Y-78855000I0J-140000D01*
G01*
X139560000Y-79195000D01*
G75*
G02*
X139420000Y-79335000I-140000J0D01*
G01*
X139140000Y-79335000D01*
G75*
G02*
X139000000Y-79195000I0J140000D01*
G01*
G37*
G36*
G01*
X138040000Y-79195000D02*
X138040000Y-78855000D01*
G75*
G02*
X138180000Y-78715000I140000J0D01*
G01*
X138460000Y-78715000D01*
G75*
G02*
X138600000Y-78855000I0J-140000D01*
G01*
X138600000Y-79195000D01*
G75*
G02*
X138460000Y-79335000I-140000J0D01*
G01*
X138180000Y-79335000D01*
G75*
G02*
X138040000Y-79195000I0J140000D01*
G01*
G37*
G36*
G01*
X151920000Y-67350000D02*
X151580000Y-67350000D01*
G75*
G02*
X151440000Y-67210000I0J140000D01*
G01*
X151440000Y-66930000D01*
G75*
G02*
X151580000Y-66790000I140000J0D01*
G01*
X151920000Y-66790000D01*
G75*
G02*
X152060000Y-66930000I0J-140000D01*
G01*
X152060000Y-67210000D01*
G75*
G02*
X151920000Y-67350000I-140000J0D01*
G01*
G37*
G36*
G01*
X151920000Y-68310000D02*
X151580000Y-68310000D01*
G75*
G02*
X151440000Y-68170000I0J140000D01*
G01*
X151440000Y-67890000D01*
G75*
G02*
X151580000Y-67750000I140000J0D01*
G01*
X151920000Y-67750000D01*
G75*
G02*
X152060000Y-67890000I0J-140000D01*
G01*
X152060000Y-68170000D01*
G75*
G02*
X151920000Y-68310000I-140000J0D01*
G01*
G37*
G36*
G01*
X149010000Y-74830000D02*
X149010000Y-75170000D01*
G75*
G02*
X148870000Y-75310000I-140000J0D01*
G01*
X148590000Y-75310000D01*
G75*
G02*
X148450000Y-75170000I0J140000D01*
G01*
X148450000Y-74830000D01*
G75*
G02*
X148590000Y-74690000I140000J0D01*
G01*
X148870000Y-74690000D01*
G75*
G02*
X149010000Y-74830000I0J-140000D01*
G01*
G37*
G36*
G01*
X149970000Y-74830000D02*
X149970000Y-75170000D01*
G75*
G02*
X149830000Y-75310000I-140000J0D01*
G01*
X149550000Y-75310000D01*
G75*
G02*
X149410000Y-75170000I0J140000D01*
G01*
X149410000Y-74830000D01*
G75*
G02*
X149550000Y-74690000I140000J0D01*
G01*
X149830000Y-74690000D01*
G75*
G02*
X149970000Y-74830000I0J-140000D01*
G01*
G37*
G36*
G01*
X173800000Y-66340000D02*
X174140000Y-66340000D01*
G75*
G02*
X174280000Y-66480000I0J-140000D01*
G01*
X174280000Y-66760000D01*
G75*
G02*
X174140000Y-66900000I-140000J0D01*
G01*
X173800000Y-66900000D01*
G75*
G02*
X173660000Y-66760000I0J140000D01*
G01*
X173660000Y-66480000D01*
G75*
G02*
X173800000Y-66340000I140000J0D01*
G01*
G37*
G36*
G01*
X173800000Y-65380000D02*
X174140000Y-65380000D01*
G75*
G02*
X174280000Y-65520000I0J-140000D01*
G01*
X174280000Y-65800000D01*
G75*
G02*
X174140000Y-65940000I-140000J0D01*
G01*
X173800000Y-65940000D01*
G75*
G02*
X173660000Y-65800000I0J140000D01*
G01*
X173660000Y-65520000D01*
G75*
G02*
X173800000Y-65380000I140000J0D01*
G01*
G37*
G36*
G01*
X153700000Y-75830000D02*
X153700000Y-76170000D01*
G75*
G02*
X153560000Y-76310000I-140000J0D01*
G01*
X153280000Y-76310000D01*
G75*
G02*
X153140000Y-76170000I0J140000D01*
G01*
X153140000Y-75830000D01*
G75*
G02*
X153280000Y-75690000I140000J0D01*
G01*
X153560000Y-75690000D01*
G75*
G02*
X153700000Y-75830000I0J-140000D01*
G01*
G37*
G36*
G01*
X154660000Y-75830000D02*
X154660000Y-76170000D01*
G75*
G02*
X154520000Y-76310000I-140000J0D01*
G01*
X154240000Y-76310000D01*
G75*
G02*
X154100000Y-76170000I0J140000D01*
G01*
X154100000Y-75830000D01*
G75*
G02*
X154240000Y-75690000I140000J0D01*
G01*
X154520000Y-75690000D01*
G75*
G02*
X154660000Y-75830000I0J-140000D01*
G01*
G37*
G36*
G01*
X127450000Y-50280000D02*
X127450000Y-50620000D01*
G75*
G02*
X127310000Y-50760000I-140000J0D01*
G01*
X127030000Y-50760000D01*
G75*
G02*
X126890000Y-50620000I0J140000D01*
G01*
X126890000Y-50280000D01*
G75*
G02*
X127030000Y-50140000I140000J0D01*
G01*
X127310000Y-50140000D01*
G75*
G02*
X127450000Y-50280000I0J-140000D01*
G01*
G37*
G36*
G01*
X128410000Y-50280000D02*
X128410000Y-50620000D01*
G75*
G02*
X128270000Y-50760000I-140000J0D01*
G01*
X127990000Y-50760000D01*
G75*
G02*
X127850000Y-50620000I0J140000D01*
G01*
X127850000Y-50280000D01*
G75*
G02*
X127990000Y-50140000I140000J0D01*
G01*
X128270000Y-50140000D01*
G75*
G02*
X128410000Y-50280000I0J-140000D01*
G01*
G37*
G36*
G01*
X149010000Y-75830000D02*
X149010000Y-76170000D01*
G75*
G02*
X148870000Y-76310000I-140000J0D01*
G01*
X148590000Y-76310000D01*
G75*
G02*
X148450000Y-76170000I0J140000D01*
G01*
X148450000Y-75830000D01*
G75*
G02*
X148590000Y-75690000I140000J0D01*
G01*
X148870000Y-75690000D01*
G75*
G02*
X149010000Y-75830000I0J-140000D01*
G01*
G37*
G36*
G01*
X149970000Y-75830000D02*
X149970000Y-76170000D01*
G75*
G02*
X149830000Y-76310000I-140000J0D01*
G01*
X149550000Y-76310000D01*
G75*
G02*
X149410000Y-76170000I0J140000D01*
G01*
X149410000Y-75830000D01*
G75*
G02*
X149550000Y-75690000I140000J0D01*
G01*
X149830000Y-75690000D01*
G75*
G02*
X149970000Y-75830000I0J-140000D01*
G01*
G37*
G36*
G01*
X131790000Y-52700000D02*
X131450000Y-52700000D01*
G75*
G02*
X131310000Y-52560000I0J140000D01*
G01*
X131310000Y-52280000D01*
G75*
G02*
X131450000Y-52140000I140000J0D01*
G01*
X131790000Y-52140000D01*
G75*
G02*
X131930000Y-52280000I0J-140000D01*
G01*
X131930000Y-52560000D01*
G75*
G02*
X131790000Y-52700000I-140000J0D01*
G01*
G37*
G36*
G01*
X131790000Y-53660000D02*
X131450000Y-53660000D01*
G75*
G02*
X131310000Y-53520000I0J140000D01*
G01*
X131310000Y-53240000D01*
G75*
G02*
X131450000Y-53100000I140000J0D01*
G01*
X131790000Y-53100000D01*
G75*
G02*
X131930000Y-53240000I0J-140000D01*
G01*
X131930000Y-53520000D01*
G75*
G02*
X131790000Y-53660000I-140000J0D01*
G01*
G37*
D17*
X130125000Y-63700000D03*
X128225000Y-63700000D03*
X128225000Y-65900000D03*
X129175000Y-65900000D03*
X130125000Y-65900000D03*
G36*
G01*
X132670000Y-59050000D02*
X132330000Y-59050000D01*
G75*
G02*
X132190000Y-58910000I0J140000D01*
G01*
X132190000Y-58630000D01*
G75*
G02*
X132330000Y-58490000I140000J0D01*
G01*
X132670000Y-58490000D01*
G75*
G02*
X132810000Y-58630000I0J-140000D01*
G01*
X132810000Y-58910000D01*
G75*
G02*
X132670000Y-59050000I-140000J0D01*
G01*
G37*
G36*
G01*
X132670000Y-60010000D02*
X132330000Y-60010000D01*
G75*
G02*
X132190000Y-59870000I0J140000D01*
G01*
X132190000Y-59590000D01*
G75*
G02*
X132330000Y-59450000I140000J0D01*
G01*
X132670000Y-59450000D01*
G75*
G02*
X132810000Y-59590000I0J-140000D01*
G01*
X132810000Y-59870000D01*
G75*
G02*
X132670000Y-60010000I-140000J0D01*
G01*
G37*
G36*
G01*
X149010000Y-73830000D02*
X149010000Y-74170000D01*
G75*
G02*
X148870000Y-74310000I-140000J0D01*
G01*
X148590000Y-74310000D01*
G75*
G02*
X148450000Y-74170000I0J140000D01*
G01*
X148450000Y-73830000D01*
G75*
G02*
X148590000Y-73690000I140000J0D01*
G01*
X148870000Y-73690000D01*
G75*
G02*
X149010000Y-73830000I0J-140000D01*
G01*
G37*
G36*
G01*
X149970000Y-73830000D02*
X149970000Y-74170000D01*
G75*
G02*
X149830000Y-74310000I-140000J0D01*
G01*
X149550000Y-74310000D01*
G75*
G02*
X149410000Y-74170000I0J140000D01*
G01*
X149410000Y-73830000D01*
G75*
G02*
X149550000Y-73690000I140000J0D01*
G01*
X149830000Y-73690000D01*
G75*
G02*
X149970000Y-73830000I0J-140000D01*
G01*
G37*
G36*
G01*
X138700000Y-61000001D02*
X138700000Y-58799999D01*
G75*
G02*
X138949999Y-58550000I249999J0D01*
G01*
X139600001Y-58550000D01*
G75*
G02*
X139850000Y-58799999I0J-249999D01*
G01*
X139850000Y-61000001D01*
G75*
G02*
X139600001Y-61250000I-249999J0D01*
G01*
X138949999Y-61250000D01*
G75*
G02*
X138700000Y-61000001I0J249999D01*
G01*
G37*
G36*
G01*
X135750000Y-61000001D02*
X135750000Y-58799999D01*
G75*
G02*
X135999999Y-58550000I249999J0D01*
G01*
X136650001Y-58550000D01*
G75*
G02*
X136900000Y-58799999I0J-249999D01*
G01*
X136900000Y-61000001D01*
G75*
G02*
X136650001Y-61250000I-249999J0D01*
G01*
X135999999Y-61250000D01*
G75*
G02*
X135750000Y-61000001I0J249999D01*
G01*
G37*
D18*
X136325000Y-63475000D03*
X140325000Y-63475000D03*
D19*
X136290000Y-50010000D03*
X141690000Y-50010000D03*
G36*
G01*
X156440840Y-58750000D02*
X156440840Y-58250000D01*
G75*
G02*
X156665840Y-58025000I225000J0D01*
G01*
X157115840Y-58025000D01*
G75*
G02*
X157340840Y-58250000I0J-225000D01*
G01*
X157340840Y-58750000D01*
G75*
G02*
X157115840Y-58975000I-225000J0D01*
G01*
X156665840Y-58975000D01*
G75*
G02*
X156440840Y-58750000I0J225000D01*
G01*
G37*
G36*
G01*
X154890840Y-58750000D02*
X154890840Y-58250000D01*
G75*
G02*
X155115840Y-58025000I225000J0D01*
G01*
X155565840Y-58025000D01*
G75*
G02*
X155790840Y-58250000I0J-225000D01*
G01*
X155790840Y-58750000D01*
G75*
G02*
X155565840Y-58975000I-225000J0D01*
G01*
X155115840Y-58975000D01*
G75*
G02*
X154890840Y-58750000I0J225000D01*
G01*
G37*
G36*
G01*
X165030000Y-80092500D02*
X165030000Y-79817500D01*
G75*
G02*
X165167500Y-79680000I137500J0D01*
G01*
X166492500Y-79680000D01*
G75*
G02*
X166630000Y-79817500I0J-137500D01*
G01*
X166630000Y-80092500D01*
G75*
G02*
X166492500Y-80230000I-137500J0D01*
G01*
X165167500Y-80230000D01*
G75*
G02*
X165030000Y-80092500I0J137500D01*
G01*
G37*
G36*
G01*
X165030000Y-78822500D02*
X165030000Y-78547500D01*
G75*
G02*
X165167500Y-78410000I137500J0D01*
G01*
X166492500Y-78410000D01*
G75*
G02*
X166630000Y-78547500I0J-137500D01*
G01*
X166630000Y-78822500D01*
G75*
G02*
X166492500Y-78960000I-137500J0D01*
G01*
X165167500Y-78960000D01*
G75*
G02*
X165030000Y-78822500I0J137500D01*
G01*
G37*
G36*
G01*
X165030000Y-77552500D02*
X165030000Y-77277500D01*
G75*
G02*
X165167500Y-77140000I137500J0D01*
G01*
X166492500Y-77140000D01*
G75*
G02*
X166630000Y-77277500I0J-137500D01*
G01*
X166630000Y-77552500D01*
G75*
G02*
X166492500Y-77690000I-137500J0D01*
G01*
X165167500Y-77690000D01*
G75*
G02*
X165030000Y-77552500I0J137500D01*
G01*
G37*
G36*
G01*
X165030000Y-76282500D02*
X165030000Y-76007500D01*
G75*
G02*
X165167500Y-75870000I137500J0D01*
G01*
X166492500Y-75870000D01*
G75*
G02*
X166630000Y-76007500I0J-137500D01*
G01*
X166630000Y-76282500D01*
G75*
G02*
X166492500Y-76420000I-137500J0D01*
G01*
X165167500Y-76420000D01*
G75*
G02*
X165030000Y-76282500I0J137500D01*
G01*
G37*
G36*
G01*
X165030000Y-75012500D02*
X165030000Y-74737500D01*
G75*
G02*
X165167500Y-74600000I137500J0D01*
G01*
X166492500Y-74600000D01*
G75*
G02*
X166630000Y-74737500I0J-137500D01*
G01*
X166630000Y-75012500D01*
G75*
G02*
X166492500Y-75150000I-137500J0D01*
G01*
X165167500Y-75150000D01*
G75*
G02*
X165030000Y-75012500I0J137500D01*
G01*
G37*
G36*
G01*
X165030000Y-73742500D02*
X165030000Y-73467500D01*
G75*
G02*
X165167500Y-73330000I137500J0D01*
G01*
X166492500Y-73330000D01*
G75*
G02*
X166630000Y-73467500I0J-137500D01*
G01*
X166630000Y-73742500D01*
G75*
G02*
X166492500Y-73880000I-137500J0D01*
G01*
X165167500Y-73880000D01*
G75*
G02*
X165030000Y-73742500I0J137500D01*
G01*
G37*
G36*
G01*
X165030000Y-72472500D02*
X165030000Y-72197500D01*
G75*
G02*
X165167500Y-72060000I137500J0D01*
G01*
X166492500Y-72060000D01*
G75*
G02*
X166630000Y-72197500I0J-137500D01*
G01*
X166630000Y-72472500D01*
G75*
G02*
X166492500Y-72610000I-137500J0D01*
G01*
X165167500Y-72610000D01*
G75*
G02*
X165030000Y-72472500I0J137500D01*
G01*
G37*
G36*
G01*
X165030000Y-71202500D02*
X165030000Y-70927500D01*
G75*
G02*
X165167500Y-70790000I137500J0D01*
G01*
X166492500Y-70790000D01*
G75*
G02*
X166630000Y-70927500I0J-137500D01*
G01*
X166630000Y-71202500D01*
G75*
G02*
X166492500Y-71340000I-137500J0D01*
G01*
X165167500Y-71340000D01*
G75*
G02*
X165030000Y-71202500I0J137500D01*
G01*
G37*
G36*
G01*
X158530000Y-71202500D02*
X158530000Y-70927500D01*
G75*
G02*
X158667500Y-70790000I137500J0D01*
G01*
X159992500Y-70790000D01*
G75*
G02*
X160130000Y-70927500I0J-137500D01*
G01*
X160130000Y-71202500D01*
G75*
G02*
X159992500Y-71340000I-137500J0D01*
G01*
X158667500Y-71340000D01*
G75*
G02*
X158530000Y-71202500I0J137500D01*
G01*
G37*
G36*
G01*
X158530000Y-72472500D02*
X158530000Y-72197500D01*
G75*
G02*
X158667500Y-72060000I137500J0D01*
G01*
X159992500Y-72060000D01*
G75*
G02*
X160130000Y-72197500I0J-137500D01*
G01*
X160130000Y-72472500D01*
G75*
G02*
X159992500Y-72610000I-137500J0D01*
G01*
X158667500Y-72610000D01*
G75*
G02*
X158530000Y-72472500I0J137500D01*
G01*
G37*
G36*
G01*
X158530000Y-73742500D02*
X158530000Y-73467500D01*
G75*
G02*
X158667500Y-73330000I137500J0D01*
G01*
X159992500Y-73330000D01*
G75*
G02*
X160130000Y-73467500I0J-137500D01*
G01*
X160130000Y-73742500D01*
G75*
G02*
X159992500Y-73880000I-137500J0D01*
G01*
X158667500Y-73880000D01*
G75*
G02*
X158530000Y-73742500I0J137500D01*
G01*
G37*
G36*
G01*
X158530000Y-75012500D02*
X158530000Y-74737500D01*
G75*
G02*
X158667500Y-74600000I137500J0D01*
G01*
X159992500Y-74600000D01*
G75*
G02*
X160130000Y-74737500I0J-137500D01*
G01*
X160130000Y-75012500D01*
G75*
G02*
X159992500Y-75150000I-137500J0D01*
G01*
X158667500Y-75150000D01*
G75*
G02*
X158530000Y-75012500I0J137500D01*
G01*
G37*
G36*
G01*
X158530000Y-76282500D02*
X158530000Y-76007500D01*
G75*
G02*
X158667500Y-75870000I137500J0D01*
G01*
X159992500Y-75870000D01*
G75*
G02*
X160130000Y-76007500I0J-137500D01*
G01*
X160130000Y-76282500D01*
G75*
G02*
X159992500Y-76420000I-137500J0D01*
G01*
X158667500Y-76420000D01*
G75*
G02*
X158530000Y-76282500I0J137500D01*
G01*
G37*
G36*
G01*
X158530000Y-77552500D02*
X158530000Y-77277500D01*
G75*
G02*
X158667500Y-77140000I137500J0D01*
G01*
X159992500Y-77140000D01*
G75*
G02*
X160130000Y-77277500I0J-137500D01*
G01*
X160130000Y-77552500D01*
G75*
G02*
X159992500Y-77690000I-137500J0D01*
G01*
X158667500Y-77690000D01*
G75*
G02*
X158530000Y-77552500I0J137500D01*
G01*
G37*
G36*
G01*
X158530000Y-78822500D02*
X158530000Y-78547500D01*
G75*
G02*
X158667500Y-78410000I137500J0D01*
G01*
X159992500Y-78410000D01*
G75*
G02*
X160130000Y-78547500I0J-137500D01*
G01*
X160130000Y-78822500D01*
G75*
G02*
X159992500Y-78960000I-137500J0D01*
G01*
X158667500Y-78960000D01*
G75*
G02*
X158530000Y-78822500I0J137500D01*
G01*
G37*
G36*
G01*
X158530000Y-80092500D02*
X158530000Y-79817500D01*
G75*
G02*
X158667500Y-79680000I137500J0D01*
G01*
X159992500Y-79680000D01*
G75*
G02*
X160130000Y-79817500I0J-137500D01*
G01*
X160130000Y-80092500D01*
G75*
G02*
X159992500Y-80230000I-137500J0D01*
G01*
X158667500Y-80230000D01*
G75*
G02*
X158530000Y-80092500I0J137500D01*
G01*
G37*
G36*
G01*
X148950000Y-68305000D02*
X148950000Y-68005000D01*
G75*
G02*
X149100000Y-67855000I150000J0D01*
G01*
X150750000Y-67855000D01*
G75*
G02*
X150900000Y-68005000I0J-150000D01*
G01*
X150900000Y-68305000D01*
G75*
G02*
X150750000Y-68455000I-150000J0D01*
G01*
X149100000Y-68455000D01*
G75*
G02*
X148950000Y-68305000I0J150000D01*
G01*
G37*
G36*
G01*
X148950000Y-67035000D02*
X148950000Y-66735000D01*
G75*
G02*
X149100000Y-66585000I150000J0D01*
G01*
X150750000Y-66585000D01*
G75*
G02*
X150900000Y-66735000I0J-150000D01*
G01*
X150900000Y-67035000D01*
G75*
G02*
X150750000Y-67185000I-150000J0D01*
G01*
X149100000Y-67185000D01*
G75*
G02*
X148950000Y-67035000I0J150000D01*
G01*
G37*
G36*
G01*
X148950000Y-65765000D02*
X148950000Y-65465000D01*
G75*
G02*
X149100000Y-65315000I150000J0D01*
G01*
X150750000Y-65315000D01*
G75*
G02*
X150900000Y-65465000I0J-150000D01*
G01*
X150900000Y-65765000D01*
G75*
G02*
X150750000Y-65915000I-150000J0D01*
G01*
X149100000Y-65915000D01*
G75*
G02*
X148950000Y-65765000I0J150000D01*
G01*
G37*
G36*
G01*
X148950000Y-64495000D02*
X148950000Y-64195000D01*
G75*
G02*
X149100000Y-64045000I150000J0D01*
G01*
X150750000Y-64045000D01*
G75*
G02*
X150900000Y-64195000I0J-150000D01*
G01*
X150900000Y-64495000D01*
G75*
G02*
X150750000Y-64645000I-150000J0D01*
G01*
X149100000Y-64645000D01*
G75*
G02*
X148950000Y-64495000I0J150000D01*
G01*
G37*
G36*
G01*
X144000000Y-64495000D02*
X144000000Y-64195000D01*
G75*
G02*
X144150000Y-64045000I150000J0D01*
G01*
X145800000Y-64045000D01*
G75*
G02*
X145950000Y-64195000I0J-150000D01*
G01*
X145950000Y-64495000D01*
G75*
G02*
X145800000Y-64645000I-150000J0D01*
G01*
X144150000Y-64645000D01*
G75*
G02*
X144000000Y-64495000I0J150000D01*
G01*
G37*
G36*
G01*
X144000000Y-65765000D02*
X144000000Y-65465000D01*
G75*
G02*
X144150000Y-65315000I150000J0D01*
G01*
X145800000Y-65315000D01*
G75*
G02*
X145950000Y-65465000I0J-150000D01*
G01*
X145950000Y-65765000D01*
G75*
G02*
X145800000Y-65915000I-150000J0D01*
G01*
X144150000Y-65915000D01*
G75*
G02*
X144000000Y-65765000I0J150000D01*
G01*
G37*
G36*
G01*
X144000000Y-67035000D02*
X144000000Y-66735000D01*
G75*
G02*
X144150000Y-66585000I150000J0D01*
G01*
X145800000Y-66585000D01*
G75*
G02*
X145950000Y-66735000I0J-150000D01*
G01*
X145950000Y-67035000D01*
G75*
G02*
X145800000Y-67185000I-150000J0D01*
G01*
X144150000Y-67185000D01*
G75*
G02*
X144000000Y-67035000I0J150000D01*
G01*
G37*
G36*
G01*
X144000000Y-68305000D02*
X144000000Y-68005000D01*
G75*
G02*
X144150000Y-67855000I150000J0D01*
G01*
X145800000Y-67855000D01*
G75*
G02*
X145950000Y-68005000I0J-150000D01*
G01*
X145950000Y-68305000D01*
G75*
G02*
X145800000Y-68455000I-150000J0D01*
G01*
X144150000Y-68455000D01*
G75*
G02*
X144000000Y-68305000I0J150000D01*
G01*
G37*
D20*
X159763400Y-57190000D03*
X164363400Y-57190000D03*
X162063400Y-57190000D03*
D21*
X162063400Y-63490000D03*
G36*
G01*
X172425000Y-81050000D02*
X172125000Y-81050000D01*
G75*
G02*
X171975000Y-80900000I0J150000D01*
G01*
X171975000Y-79450000D01*
G75*
G02*
X172125000Y-79300000I150000J0D01*
G01*
X172425000Y-79300000D01*
G75*
G02*
X172575000Y-79450000I0J-150000D01*
G01*
X172575000Y-80900000D01*
G75*
G02*
X172425000Y-81050000I-150000J0D01*
G01*
G37*
G36*
G01*
X171155000Y-81050000D02*
X170855000Y-81050000D01*
G75*
G02*
X170705000Y-80900000I0J150000D01*
G01*
X170705000Y-79450000D01*
G75*
G02*
X170855000Y-79300000I150000J0D01*
G01*
X171155000Y-79300000D01*
G75*
G02*
X171305000Y-79450000I0J-150000D01*
G01*
X171305000Y-80900000D01*
G75*
G02*
X171155000Y-81050000I-150000J0D01*
G01*
G37*
G36*
G01*
X169885000Y-81050000D02*
X169585000Y-81050000D01*
G75*
G02*
X169435000Y-80900000I0J150000D01*
G01*
X169435000Y-79450000D01*
G75*
G02*
X169585000Y-79300000I150000J0D01*
G01*
X169885000Y-79300000D01*
G75*
G02*
X170035000Y-79450000I0J-150000D01*
G01*
X170035000Y-80900000D01*
G75*
G02*
X169885000Y-81050000I-150000J0D01*
G01*
G37*
G36*
G01*
X168615000Y-81050000D02*
X168315000Y-81050000D01*
G75*
G02*
X168165000Y-80900000I0J150000D01*
G01*
X168165000Y-79450000D01*
G75*
G02*
X168315000Y-79300000I150000J0D01*
G01*
X168615000Y-79300000D01*
G75*
G02*
X168765000Y-79450000I0J-150000D01*
G01*
X168765000Y-80900000D01*
G75*
G02*
X168615000Y-81050000I-150000J0D01*
G01*
G37*
G36*
G01*
X168615000Y-86200000D02*
X168315000Y-86200000D01*
G75*
G02*
X168165000Y-86050000I0J150000D01*
G01*
X168165000Y-84600000D01*
G75*
G02*
X168315000Y-84450000I150000J0D01*
G01*
X168615000Y-84450000D01*
G75*
G02*
X168765000Y-84600000I0J-150000D01*
G01*
X168765000Y-86050000D01*
G75*
G02*
X168615000Y-86200000I-150000J0D01*
G01*
G37*
G36*
G01*
X169885000Y-86200000D02*
X169585000Y-86200000D01*
G75*
G02*
X169435000Y-86050000I0J150000D01*
G01*
X169435000Y-84600000D01*
G75*
G02*
X169585000Y-84450000I150000J0D01*
G01*
X169885000Y-84450000D01*
G75*
G02*
X170035000Y-84600000I0J-150000D01*
G01*
X170035000Y-86050000D01*
G75*
G02*
X169885000Y-86200000I-150000J0D01*
G01*
G37*
G36*
G01*
X171155000Y-86200000D02*
X170855000Y-86200000D01*
G75*
G02*
X170705000Y-86050000I0J150000D01*
G01*
X170705000Y-84600000D01*
G75*
G02*
X170855000Y-84450000I150000J0D01*
G01*
X171155000Y-84450000D01*
G75*
G02*
X171305000Y-84600000I0J-150000D01*
G01*
X171305000Y-86050000D01*
G75*
G02*
X171155000Y-86200000I-150000J0D01*
G01*
G37*
G36*
G01*
X172425000Y-86200000D02*
X172125000Y-86200000D01*
G75*
G02*
X171975000Y-86050000I0J150000D01*
G01*
X171975000Y-84600000D01*
G75*
G02*
X172125000Y-84450000I150000J0D01*
G01*
X172425000Y-84450000D01*
G75*
G02*
X172575000Y-84600000I0J-150000D01*
G01*
X172575000Y-86050000D01*
G75*
G02*
X172425000Y-86200000I-150000J0D01*
G01*
G37*
D22*
X172180000Y-66635000D03*
X167280000Y-64095000D03*
X167280000Y-65365000D03*
X167280000Y-66635000D03*
X167280000Y-67905000D03*
X172180000Y-67905000D03*
X172180000Y-65365000D03*
X172180000Y-64095000D03*
G36*
G01*
X151845000Y-81750000D02*
X152145000Y-81750000D01*
G75*
G02*
X152295000Y-81900000I0J-150000D01*
G01*
X152295000Y-83550000D01*
G75*
G02*
X152145000Y-83700000I-150000J0D01*
G01*
X151845000Y-83700000D01*
G75*
G02*
X151695000Y-83550000I0J150000D01*
G01*
X151695000Y-81900000D01*
G75*
G02*
X151845000Y-81750000I150000J0D01*
G01*
G37*
G36*
G01*
X153115000Y-81750000D02*
X153415000Y-81750000D01*
G75*
G02*
X153565000Y-81900000I0J-150000D01*
G01*
X153565000Y-83550000D01*
G75*
G02*
X153415000Y-83700000I-150000J0D01*
G01*
X153115000Y-83700000D01*
G75*
G02*
X152965000Y-83550000I0J150000D01*
G01*
X152965000Y-81900000D01*
G75*
G02*
X153115000Y-81750000I150000J0D01*
G01*
G37*
G36*
G01*
X154385000Y-81750000D02*
X154685000Y-81750000D01*
G75*
G02*
X154835000Y-81900000I0J-150000D01*
G01*
X154835000Y-83550000D01*
G75*
G02*
X154685000Y-83700000I-150000J0D01*
G01*
X154385000Y-83700000D01*
G75*
G02*
X154235000Y-83550000I0J150000D01*
G01*
X154235000Y-81900000D01*
G75*
G02*
X154385000Y-81750000I150000J0D01*
G01*
G37*
G36*
G01*
X155655000Y-81750000D02*
X155955000Y-81750000D01*
G75*
G02*
X156105000Y-81900000I0J-150000D01*
G01*
X156105000Y-83550000D01*
G75*
G02*
X155955000Y-83700000I-150000J0D01*
G01*
X155655000Y-83700000D01*
G75*
G02*
X155505000Y-83550000I0J150000D01*
G01*
X155505000Y-81900000D01*
G75*
G02*
X155655000Y-81750000I150000J0D01*
G01*
G37*
G36*
G01*
X155655000Y-76800000D02*
X155955000Y-76800000D01*
G75*
G02*
X156105000Y-76950000I0J-150000D01*
G01*
X156105000Y-78600000D01*
G75*
G02*
X155955000Y-78750000I-150000J0D01*
G01*
X155655000Y-78750000D01*
G75*
G02*
X155505000Y-78600000I0J150000D01*
G01*
X155505000Y-76950000D01*
G75*
G02*
X155655000Y-76800000I150000J0D01*
G01*
G37*
G36*
G01*
X154385000Y-76800000D02*
X154685000Y-76800000D01*
G75*
G02*
X154835000Y-76950000I0J-150000D01*
G01*
X154835000Y-78600000D01*
G75*
G02*
X154685000Y-78750000I-150000J0D01*
G01*
X154385000Y-78750000D01*
G75*
G02*
X154235000Y-78600000I0J150000D01*
G01*
X154235000Y-76950000D01*
G75*
G02*
X154385000Y-76800000I150000J0D01*
G01*
G37*
G36*
G01*
X153115000Y-76800000D02*
X153415000Y-76800000D01*
G75*
G02*
X153565000Y-76950000I0J-150000D01*
G01*
X153565000Y-78600000D01*
G75*
G02*
X153415000Y-78750000I-150000J0D01*
G01*
X153115000Y-78750000D01*
G75*
G02*
X152965000Y-78600000I0J150000D01*
G01*
X152965000Y-76950000D01*
G75*
G02*
X153115000Y-76800000I150000J0D01*
G01*
G37*
G36*
G01*
X151845000Y-76800000D02*
X152145000Y-76800000D01*
G75*
G02*
X152295000Y-76950000I0J-150000D01*
G01*
X152295000Y-78600000D01*
G75*
G02*
X152145000Y-78750000I-150000J0D01*
G01*
X151845000Y-78750000D01*
G75*
G02*
X151695000Y-78600000I0J150000D01*
G01*
X151695000Y-76950000D01*
G75*
G02*
X151845000Y-76800000I150000J0D01*
G01*
G37*
D17*
X128600000Y-51775000D03*
X126700000Y-51775000D03*
X126700000Y-53975000D03*
X127650000Y-53975000D03*
X128600000Y-53975000D03*
D23*
X128540000Y-61350000D03*
X131080000Y-56450000D03*
X129810000Y-56450000D03*
X128540000Y-56450000D03*
X127270000Y-56450000D03*
X127270000Y-61350000D03*
X129810000Y-61350000D03*
X131080000Y-61350000D03*
D24*
X165110000Y-69330000D03*
D25*
X164310000Y-69330000D03*
D24*
X162710000Y-69330000D03*
D25*
X163510000Y-69330000D03*
D24*
X165110000Y-67530000D03*
D25*
X163510000Y-67530000D03*
X164310000Y-67530000D03*
D24*
X162710000Y-67530000D03*
G36*
G01*
X159325000Y-68935000D02*
X159325000Y-69485000D01*
G75*
G02*
X159125000Y-69685000I-200000J0D01*
G01*
X158725000Y-69685000D01*
G75*
G02*
X158525000Y-69485000I0J200000D01*
G01*
X158525000Y-68935000D01*
G75*
G02*
X158725000Y-68735000I200000J0D01*
G01*
X159125000Y-68735000D01*
G75*
G02*
X159325000Y-68935000I0J-200000D01*
G01*
G37*
G36*
G01*
X160975000Y-68935000D02*
X160975000Y-69485000D01*
G75*
G02*
X160775000Y-69685000I-200000J0D01*
G01*
X160375000Y-69685000D01*
G75*
G02*
X160175000Y-69485000I0J200000D01*
G01*
X160175000Y-68935000D01*
G75*
G02*
X160375000Y-68735000I200000J0D01*
G01*
X160775000Y-68735000D01*
G75*
G02*
X160975000Y-68935000I0J-200000D01*
G01*
G37*
G36*
G01*
X159325000Y-67415000D02*
X159325000Y-67965000D01*
G75*
G02*
X159125000Y-68165000I-200000J0D01*
G01*
X158725000Y-68165000D01*
G75*
G02*
X158525000Y-67965000I0J200000D01*
G01*
X158525000Y-67415000D01*
G75*
G02*
X158725000Y-67215000I200000J0D01*
G01*
X159125000Y-67215000D01*
G75*
G02*
X159325000Y-67415000I0J-200000D01*
G01*
G37*
G36*
G01*
X160975000Y-67415000D02*
X160975000Y-67965000D01*
G75*
G02*
X160775000Y-68165000I-200000J0D01*
G01*
X160375000Y-68165000D01*
G75*
G02*
X160175000Y-67965000I0J200000D01*
G01*
X160175000Y-67415000D01*
G75*
G02*
X160375000Y-67215000I200000J0D01*
G01*
X160775000Y-67215000D01*
G75*
G02*
X160975000Y-67415000I0J-200000D01*
G01*
G37*
G36*
G01*
X157560000Y-74215000D02*
X157010000Y-74215000D01*
G75*
G02*
X156810000Y-74015000I0J200000D01*
G01*
X156810000Y-73615000D01*
G75*
G02*
X157010000Y-73415000I200000J0D01*
G01*
X157560000Y-73415000D01*
G75*
G02*
X157760000Y-73615000I0J-200000D01*
G01*
X157760000Y-74015000D01*
G75*
G02*
X157560000Y-74215000I-200000J0D01*
G01*
G37*
G36*
G01*
X157560000Y-75865000D02*
X157010000Y-75865000D01*
G75*
G02*
X156810000Y-75665000I0J200000D01*
G01*
X156810000Y-75265000D01*
G75*
G02*
X157010000Y-75065000I200000J0D01*
G01*
X157560000Y-75065000D01*
G75*
G02*
X157760000Y-75265000I0J-200000D01*
G01*
X157760000Y-75665000D01*
G75*
G02*
X157560000Y-75865000I-200000J0D01*
G01*
G37*
G36*
G01*
X156035000Y-74215000D02*
X155485000Y-74215000D01*
G75*
G02*
X155285000Y-74015000I0J200000D01*
G01*
X155285000Y-73615000D01*
G75*
G02*
X155485000Y-73415000I200000J0D01*
G01*
X156035000Y-73415000D01*
G75*
G02*
X156235000Y-73615000I0J-200000D01*
G01*
X156235000Y-74015000D01*
G75*
G02*
X156035000Y-74215000I-200000J0D01*
G01*
G37*
G36*
G01*
X156035000Y-75865000D02*
X155485000Y-75865000D01*
G75*
G02*
X155285000Y-75665000I0J200000D01*
G01*
X155285000Y-75265000D01*
G75*
G02*
X155485000Y-75065000I200000J0D01*
G01*
X156035000Y-75065000D01*
G75*
G02*
X156235000Y-75265000I0J-200000D01*
G01*
X156235000Y-75665000D01*
G75*
G02*
X156035000Y-75865000I-200000J0D01*
G01*
G37*
G36*
G01*
X153395000Y-60245000D02*
X153395000Y-60795000D01*
G75*
G02*
X153195000Y-60995000I-200000J0D01*
G01*
X152795000Y-60995000D01*
G75*
G02*
X152595000Y-60795000I0J200000D01*
G01*
X152595000Y-60245000D01*
G75*
G02*
X152795000Y-60045000I200000J0D01*
G01*
X153195000Y-60045000D01*
G75*
G02*
X153395000Y-60245000I0J-200000D01*
G01*
G37*
G36*
G01*
X155045000Y-60245000D02*
X155045000Y-60795000D01*
G75*
G02*
X154845000Y-60995000I-200000J0D01*
G01*
X154445000Y-60995000D01*
G75*
G02*
X154245000Y-60795000I0J200000D01*
G01*
X154245000Y-60245000D01*
G75*
G02*
X154445000Y-60045000I200000J0D01*
G01*
X154845000Y-60045000D01*
G75*
G02*
X155045000Y-60245000I0J-200000D01*
G01*
G37*
G36*
G01*
X150605000Y-60775000D02*
X150605000Y-60225000D01*
G75*
G02*
X150805000Y-60025000I200000J0D01*
G01*
X151205000Y-60025000D01*
G75*
G02*
X151405000Y-60225000I0J-200000D01*
G01*
X151405000Y-60775000D01*
G75*
G02*
X151205000Y-60975000I-200000J0D01*
G01*
X150805000Y-60975000D01*
G75*
G02*
X150605000Y-60775000I0J200000D01*
G01*
G37*
G36*
G01*
X148955000Y-60775000D02*
X148955000Y-60225000D01*
G75*
G02*
X149155000Y-60025000I200000J0D01*
G01*
X149555000Y-60025000D01*
G75*
G02*
X149755000Y-60225000I0J-200000D01*
G01*
X149755000Y-60775000D01*
G75*
G02*
X149555000Y-60975000I-200000J0D01*
G01*
X149155000Y-60975000D01*
G75*
G02*
X148955000Y-60775000I0J200000D01*
G01*
G37*
G36*
G01*
X146225000Y-75125000D02*
X146225000Y-75675000D01*
G75*
G02*
X146025000Y-75875000I-200000J0D01*
G01*
X145625000Y-75875000D01*
G75*
G02*
X145425000Y-75675000I0J200000D01*
G01*
X145425000Y-75125000D01*
G75*
G02*
X145625000Y-74925000I200000J0D01*
G01*
X146025000Y-74925000D01*
G75*
G02*
X146225000Y-75125000I0J-200000D01*
G01*
G37*
G36*
G01*
X147875000Y-75125000D02*
X147875000Y-75675000D01*
G75*
G02*
X147675000Y-75875000I-200000J0D01*
G01*
X147275000Y-75875000D01*
G75*
G02*
X147075000Y-75675000I0J200000D01*
G01*
X147075000Y-75125000D01*
G75*
G02*
X147275000Y-74925000I200000J0D01*
G01*
X147675000Y-74925000D01*
G75*
G02*
X147875000Y-75125000I0J-200000D01*
G01*
G37*
G36*
G01*
X146225000Y-76775000D02*
X146225000Y-77325000D01*
G75*
G02*
X146025000Y-77525000I-200000J0D01*
G01*
X145625000Y-77525000D01*
G75*
G02*
X145425000Y-77325000I0J200000D01*
G01*
X145425000Y-76775000D01*
G75*
G02*
X145625000Y-76575000I200000J0D01*
G01*
X146025000Y-76575000D01*
G75*
G02*
X146225000Y-76775000I0J-200000D01*
G01*
G37*
G36*
G01*
X147875000Y-76775000D02*
X147875000Y-77325000D01*
G75*
G02*
X147675000Y-77525000I-200000J0D01*
G01*
X147275000Y-77525000D01*
G75*
G02*
X147075000Y-77325000I0J200000D01*
G01*
X147075000Y-76775000D01*
G75*
G02*
X147275000Y-76575000I200000J0D01*
G01*
X147675000Y-76575000D01*
G75*
G02*
X147875000Y-76775000I0J-200000D01*
G01*
G37*
G36*
G01*
X155688300Y-55066480D02*
X155688300Y-55616480D01*
G75*
G02*
X155488300Y-55816480I-200000J0D01*
G01*
X155088300Y-55816480D01*
G75*
G02*
X154888300Y-55616480I0J200000D01*
G01*
X154888300Y-55066480D01*
G75*
G02*
X155088300Y-54866480I200000J0D01*
G01*
X155488300Y-54866480D01*
G75*
G02*
X155688300Y-55066480I0J-200000D01*
G01*
G37*
G36*
G01*
X157338300Y-55066480D02*
X157338300Y-55616480D01*
G75*
G02*
X157138300Y-55816480I-200000J0D01*
G01*
X156738300Y-55816480D01*
G75*
G02*
X156538300Y-55616480I0J200000D01*
G01*
X156538300Y-55066480D01*
G75*
G02*
X156738300Y-54866480I200000J0D01*
G01*
X157138300Y-54866480D01*
G75*
G02*
X157338300Y-55066480I0J-200000D01*
G01*
G37*
G36*
G01*
X155693380Y-56595560D02*
X155693380Y-57145560D01*
G75*
G02*
X155493380Y-57345560I-200000J0D01*
G01*
X155093380Y-57345560D01*
G75*
G02*
X154893380Y-57145560I0J200000D01*
G01*
X154893380Y-56595560D01*
G75*
G02*
X155093380Y-56395560I200000J0D01*
G01*
X155493380Y-56395560D01*
G75*
G02*
X155693380Y-56595560I0J-200000D01*
G01*
G37*
G36*
G01*
X157343380Y-56595560D02*
X157343380Y-57145560D01*
G75*
G02*
X157143380Y-57345560I-200000J0D01*
G01*
X156743380Y-57345560D01*
G75*
G02*
X156543380Y-57145560I0J200000D01*
G01*
X156543380Y-56595560D01*
G75*
G02*
X156743380Y-56395560I200000J0D01*
G01*
X157143380Y-56395560D01*
G75*
G02*
X157343380Y-56595560I0J-200000D01*
G01*
G37*
G36*
G01*
X128375000Y-82225000D02*
X128375000Y-81675000D01*
G75*
G02*
X128575000Y-81475000I200000J0D01*
G01*
X128975000Y-81475000D01*
G75*
G02*
X129175000Y-81675000I0J-200000D01*
G01*
X129175000Y-82225000D01*
G75*
G02*
X128975000Y-82425000I-200000J0D01*
G01*
X128575000Y-82425000D01*
G75*
G02*
X128375000Y-82225000I0J200000D01*
G01*
G37*
G36*
G01*
X126725000Y-82225000D02*
X126725000Y-81675000D01*
G75*
G02*
X126925000Y-81475000I200000J0D01*
G01*
X127325000Y-81475000D01*
G75*
G02*
X127525000Y-81675000I0J-200000D01*
G01*
X127525000Y-82225000D01*
G75*
G02*
X127325000Y-82425000I-200000J0D01*
G01*
X126925000Y-82425000D01*
G75*
G02*
X126725000Y-82225000I0J200000D01*
G01*
G37*
G36*
G01*
X128365000Y-80675000D02*
X128365000Y-80125000D01*
G75*
G02*
X128565000Y-79925000I200000J0D01*
G01*
X128965000Y-79925000D01*
G75*
G02*
X129165000Y-80125000I0J-200000D01*
G01*
X129165000Y-80675000D01*
G75*
G02*
X128965000Y-80875000I-200000J0D01*
G01*
X128565000Y-80875000D01*
G75*
G02*
X128365000Y-80675000I0J200000D01*
G01*
G37*
G36*
G01*
X126715000Y-80675000D02*
X126715000Y-80125000D01*
G75*
G02*
X126915000Y-79925000I200000J0D01*
G01*
X127315000Y-79925000D01*
G75*
G02*
X127515000Y-80125000I0J-200000D01*
G01*
X127515000Y-80675000D01*
G75*
G02*
X127315000Y-80875000I-200000J0D01*
G01*
X126915000Y-80875000D01*
G75*
G02*
X126715000Y-80675000I0J200000D01*
G01*
G37*
G36*
G01*
X127525000Y-78575000D02*
X127525000Y-79125000D01*
G75*
G02*
X127325000Y-79325000I-200000J0D01*
G01*
X126925000Y-79325000D01*
G75*
G02*
X126725000Y-79125000I0J200000D01*
G01*
X126725000Y-78575000D01*
G75*
G02*
X126925000Y-78375000I200000J0D01*
G01*
X127325000Y-78375000D01*
G75*
G02*
X127525000Y-78575000I0J-200000D01*
G01*
G37*
G36*
G01*
X129175000Y-78575000D02*
X129175000Y-79125000D01*
G75*
G02*
X128975000Y-79325000I-200000J0D01*
G01*
X128575000Y-79325000D01*
G75*
G02*
X128375000Y-79125000I0J200000D01*
G01*
X128375000Y-78575000D01*
G75*
G02*
X128575000Y-78375000I200000J0D01*
G01*
X128975000Y-78375000D01*
G75*
G02*
X129175000Y-78575000I0J-200000D01*
G01*
G37*
G36*
G01*
X171825000Y-59975000D02*
X172375000Y-59975000D01*
G75*
G02*
X172575000Y-60175000I0J-200000D01*
G01*
X172575000Y-60575000D01*
G75*
G02*
X172375000Y-60775000I-200000J0D01*
G01*
X171825000Y-60775000D01*
G75*
G02*
X171625000Y-60575000I0J200000D01*
G01*
X171625000Y-60175000D01*
G75*
G02*
X171825000Y-59975000I200000J0D01*
G01*
G37*
G36*
G01*
X171825000Y-58325000D02*
X172375000Y-58325000D01*
G75*
G02*
X172575000Y-58525000I0J-200000D01*
G01*
X172575000Y-58925000D01*
G75*
G02*
X172375000Y-59125000I-200000J0D01*
G01*
X171825000Y-59125000D01*
G75*
G02*
X171625000Y-58925000I0J200000D01*
G01*
X171625000Y-58525000D01*
G75*
G02*
X171825000Y-58325000I200000J0D01*
G01*
G37*
G36*
G01*
X150125000Y-82475000D02*
X150675000Y-82475000D01*
G75*
G02*
X150875000Y-82675000I0J-200000D01*
G01*
X150875000Y-83075000D01*
G75*
G02*
X150675000Y-83275000I-200000J0D01*
G01*
X150125000Y-83275000D01*
G75*
G02*
X149925000Y-83075000I0J200000D01*
G01*
X149925000Y-82675000D01*
G75*
G02*
X150125000Y-82475000I200000J0D01*
G01*
G37*
G36*
G01*
X150125000Y-80825000D02*
X150675000Y-80825000D01*
G75*
G02*
X150875000Y-81025000I0J-200000D01*
G01*
X150875000Y-81425000D01*
G75*
G02*
X150675000Y-81625000I-200000J0D01*
G01*
X150125000Y-81625000D01*
G75*
G02*
X149925000Y-81425000I0J200000D01*
G01*
X149925000Y-81025000D01*
G75*
G02*
X150125000Y-80825000I200000J0D01*
G01*
G37*
G36*
G01*
X129975000Y-53325000D02*
X130525000Y-53325000D01*
G75*
G02*
X130725000Y-53525000I0J-200000D01*
G01*
X130725000Y-53925000D01*
G75*
G02*
X130525000Y-54125000I-200000J0D01*
G01*
X129975000Y-54125000D01*
G75*
G02*
X129775000Y-53925000I0J200000D01*
G01*
X129775000Y-53525000D01*
G75*
G02*
X129975000Y-53325000I200000J0D01*
G01*
G37*
G36*
G01*
X129975000Y-51675000D02*
X130525000Y-51675000D01*
G75*
G02*
X130725000Y-51875000I0J-200000D01*
G01*
X130725000Y-52275000D01*
G75*
G02*
X130525000Y-52475000I-200000J0D01*
G01*
X129975000Y-52475000D01*
G75*
G02*
X129775000Y-52275000I0J200000D01*
G01*
X129775000Y-51875000D01*
G75*
G02*
X129975000Y-51675000I200000J0D01*
G01*
G37*
D11*
X162025000Y-90437400D03*
G36*
G01*
X164625000Y-89812399D02*
X164625000Y-91062401D01*
G75*
G02*
X164375001Y-91312400I-249999J0D01*
G01*
X163674999Y-91312400D01*
G75*
G02*
X163425000Y-91062401I0J249999D01*
G01*
X163425000Y-89812399D01*
G75*
G02*
X163674999Y-89562400I249999J0D01*
G01*
X164375001Y-89562400D01*
G75*
G02*
X164625000Y-89812399I0J-249999D01*
G01*
G37*
X135975000Y-90400000D03*
X137975000Y-90400000D03*
G36*
G01*
X140575000Y-89774999D02*
X140575000Y-91025001D01*
G75*
G02*
X140325001Y-91275000I-249999J0D01*
G01*
X139624999Y-91275000D01*
G75*
G02*
X139375000Y-91025001I0J249999D01*
G01*
X139375000Y-89774999D01*
G75*
G02*
X139624999Y-89525000I249999J0D01*
G01*
X140325001Y-89525000D01*
G75*
G02*
X140575000Y-89774999I0J-249999D01*
G01*
G37*
X135975000Y-84700000D03*
X137975000Y-84700000D03*
G36*
G01*
X140575000Y-84074999D02*
X140575000Y-85325001D01*
G75*
G02*
X140325001Y-85575000I-249999J0D01*
G01*
X139624999Y-85575000D01*
G75*
G02*
X139375000Y-85325001I0J249999D01*
G01*
X139375000Y-84074999D01*
G75*
G02*
X139624999Y-83825000I249999J0D01*
G01*
X140325001Y-83825000D01*
G75*
G02*
X140575000Y-84074999I0J-249999D01*
G01*
G37*
D26*
X131840000Y-73850000D03*
X129300000Y-73850000D03*
D27*
X126760000Y-73850000D03*
D28*
X130930000Y-85545000D03*
X130930000Y-76905000D03*
D29*
X130400000Y-78335000D03*
D30*
X126750000Y-76905000D03*
D29*
X130400000Y-84115000D03*
D30*
X126750000Y-85545000D03*
D31*
X170910000Y-76970000D03*
X170910000Y-74970000D03*
X170910000Y-72970000D03*
G36*
G01*
X170284999Y-70370000D02*
X171535001Y-70370000D01*
G75*
G02*
X171785000Y-70619999I0J-249999D01*
G01*
X171785000Y-71320001D01*
G75*
G02*
X171535001Y-71570000I-249999J0D01*
G01*
X170284999Y-71570000D01*
G75*
G02*
X170035000Y-71320001I0J249999D01*
G01*
X170035000Y-70619999D01*
G75*
G02*
X170284999Y-70370000I249999J0D01*
G01*
G37*
G36*
G01*
X167655000Y-60800000D02*
X167655000Y-60200000D01*
G75*
G02*
X167725000Y-60130000I70000J0D01*
G01*
X169025000Y-60130000D01*
G75*
G02*
X169095000Y-60200000I0J-70000D01*
G01*
X169095000Y-60800000D01*
G75*
G02*
X169025000Y-60870000I-70000J0D01*
G01*
X167725000Y-60870000D01*
G75*
G02*
X167655000Y-60800000I0J70000D01*
G01*
G37*
G36*
G01*
X167655000Y-58900000D02*
X167655000Y-58300000D01*
G75*
G02*
X167725000Y-58230000I70000J0D01*
G01*
X169025000Y-58230000D01*
G75*
G02*
X169095000Y-58300000I0J-70000D01*
G01*
X169095000Y-58900000D01*
G75*
G02*
X169025000Y-58970000I-70000J0D01*
G01*
X167725000Y-58970000D01*
G75*
G02*
X167655000Y-58900000I0J70000D01*
G01*
G37*
G36*
G01*
X169755000Y-59850000D02*
X169755000Y-59250000D01*
G75*
G02*
X169825000Y-59180000I70000J0D01*
G01*
X171125000Y-59180000D01*
G75*
G02*
X171195000Y-59250000I0J-70000D01*
G01*
X171195000Y-59850000D01*
G75*
G02*
X171125000Y-59920000I-70000J0D01*
G01*
X169825000Y-59920000D01*
G75*
G02*
X169755000Y-59850000I0J70000D01*
G01*
G37*
G36*
G01*
X159650000Y-54825000D02*
X159650000Y-55325000D01*
G75*
G02*
X159425000Y-55550000I-225000J0D01*
G01*
X158975000Y-55550000D01*
G75*
G02*
X158750000Y-55325000I0J225000D01*
G01*
X158750000Y-54825000D01*
G75*
G02*
X158975000Y-54600000I225000J0D01*
G01*
X159425000Y-54600000D01*
G75*
G02*
X159650000Y-54825000I0J-225000D01*
G01*
G37*
G36*
G01*
X161200000Y-54825000D02*
X161200000Y-55325000D01*
G75*
G02*
X160975000Y-55550000I-225000J0D01*
G01*
X160525000Y-55550000D01*
G75*
G02*
X160300000Y-55325000I0J225000D01*
G01*
X160300000Y-54825000D01*
G75*
G02*
X160525000Y-54600000I225000J0D01*
G01*
X160975000Y-54600000D01*
G75*
G02*
X161200000Y-54825000I0J-225000D01*
G01*
G37*
G36*
G01*
X164500000Y-55325000D02*
X164500000Y-54825000D01*
G75*
G02*
X164725000Y-54600000I225000J0D01*
G01*
X165175000Y-54600000D01*
G75*
G02*
X165400000Y-54825000I0J-225000D01*
G01*
X165400000Y-55325000D01*
G75*
G02*
X165175000Y-55550000I-225000J0D01*
G01*
X164725000Y-55550000D01*
G75*
G02*
X164500000Y-55325000I0J225000D01*
G01*
G37*
G36*
G01*
X162950000Y-55325000D02*
X162950000Y-54825000D01*
G75*
G02*
X163175000Y-54600000I225000J0D01*
G01*
X163625000Y-54600000D01*
G75*
G02*
X163850000Y-54825000I0J-225000D01*
G01*
X163850000Y-55325000D01*
G75*
G02*
X163625000Y-55550000I-225000J0D01*
G01*
X163175000Y-55550000D01*
G75*
G02*
X162950000Y-55325000I0J225000D01*
G01*
G37*
G36*
G01*
X128275000Y-83750000D02*
X128275000Y-83250000D01*
G75*
G02*
X128500000Y-83025000I225000J0D01*
G01*
X128950000Y-83025000D01*
G75*
G02*
X129175000Y-83250000I0J-225000D01*
G01*
X129175000Y-83750000D01*
G75*
G02*
X128950000Y-83975000I-225000J0D01*
G01*
X128500000Y-83975000D01*
G75*
G02*
X128275000Y-83750000I0J225000D01*
G01*
G37*
G36*
G01*
X126725000Y-83750000D02*
X126725000Y-83250000D01*
G75*
G02*
X126950000Y-83025000I225000J0D01*
G01*
X127400000Y-83025000D01*
G75*
G02*
X127625000Y-83250000I0J-225000D01*
G01*
X127625000Y-83750000D01*
G75*
G02*
X127400000Y-83975000I-225000J0D01*
G01*
X126950000Y-83975000D01*
G75*
G02*
X126725000Y-83750000I0J225000D01*
G01*
G37*
D32*
X163229828Y-45475000D02*
X163230507Y-45474999D01*
X165385000Y-45465508D01*
X165385000Y-47650000D01*
X165387210Y-47672435D01*
X165393754Y-47694009D01*
X165404381Y-47713891D01*
X165419481Y-47732108D01*
X168677275Y-50926864D01*
X168694841Y-50940995D01*
X168714825Y-50951427D01*
X168736462Y-50957760D01*
X168757408Y-50959755D01*
X171766789Y-50969858D01*
X171753274Y-54684754D01*
X166222464Y-54675083D01*
X161581011Y-50068378D01*
X161563531Y-50054142D01*
X161543609Y-50043589D01*
X161522011Y-50037126D01*
X161499934Y-50035000D01*
X144074934Y-50045000D01*
X144052500Y-50047223D01*
X144030930Y-50053779D01*
X144011055Y-50064418D01*
X143993636Y-50078729D01*
X143979344Y-50096164D01*
X143968729Y-50116052D01*
X143962197Y-50137629D01*
X143960000Y-50160066D01*
X143962223Y-50182500D01*
X143965000Y-50191637D01*
X143965000Y-52854689D01*
X140457324Y-52845235D01*
X140023439Y-51293356D01*
X140024989Y-48886490D01*
X140531342Y-47153206D01*
X142404512Y-45443846D01*
X163229828Y-45475000D01*
D33*
G36*
X163229828Y-45475000D02*
G01*
X163230507Y-45474999D01*
X165385000Y-45465508D01*
X165385000Y-47650000D01*
X165387210Y-47672435D01*
X165393754Y-47694009D01*
X165404381Y-47713891D01*
X165419481Y-47732108D01*
X168677275Y-50926864D01*
X168694841Y-50940995D01*
X168714825Y-50951427D01*
X168736462Y-50957760D01*
X168757408Y-50959755D01*
X171766789Y-50969858D01*
X171753274Y-54684754D01*
X166222464Y-54675083D01*
X161581011Y-50068378D01*
X161563531Y-50054142D01*
X161543609Y-50043589D01*
X161522011Y-50037126D01*
X161499934Y-50035000D01*
X144074934Y-50045000D01*
X144052500Y-50047223D01*
X144030930Y-50053779D01*
X144011055Y-50064418D01*
X143993636Y-50078729D01*
X143979344Y-50096164D01*
X143968729Y-50116052D01*
X143962197Y-50137629D01*
X143960000Y-50160066D01*
X143962223Y-50182500D01*
X143965000Y-50191637D01*
X143965000Y-52854689D01*
X140457324Y-52845235D01*
X140023439Y-51293356D01*
X140024989Y-48886490D01*
X140531342Y-47153206D01*
X142404512Y-45443846D01*
X163229828Y-45475000D01*
G37*
D34*
X142373000Y-47873000D02*
X134627000Y-47873000D01*
X134627000Y-45452000D01*
X142373000Y-45452000D01*
X142373000Y-47873000D01*
D33*
G36*
X142373000Y-47873000D02*
G01*
X134627000Y-47873000D01*
X134627000Y-45452000D01*
X142373000Y-45452000D01*
X142373000Y-47873000D01*
G37*
M02*
