%TF.GenerationSoftware,KiCad,Pcbnew,5.1.9-73d0e3b20d~88~ubuntu20.04.1*%
%TF.CreationDate,2021-04-18T22:18:41+08:00*%
%TF.ProjectId,AbsoluteEncoderBoard,4162736f-6c75-4746-9545-6e636f646572,rev?*%
%TF.SameCoordinates,Original*%
%TF.FileFunction,Soldermask,Top*%
%TF.FilePolarity,Negative*%
%FSLAX46Y46*%
G04 Gerber Fmt 4.6, Leading zero omitted, Abs format (unit mm)*
G04 Created by KiCad (PCBNEW 5.1.9-73d0e3b20d~88~ubuntu20.04.1) date 2021-04-18 22:18:41*
%MOMM*%
%LPD*%
G01*
G04 APERTURE LIST*
%ADD10C,0.150000*%
%ADD11C,3.200000*%
%ADD12R,0.300000X1.200000*%
%ADD13R,1.200000X0.300000*%
%ADD14O,1.200000X1.750000*%
%ADD15C,1.800000*%
%ADD16C,3.700000*%
%ADD17C,4.000000*%
%ADD18R,3.800000X3.800000*%
%ADD19C,1.700000*%
%ADD20R,0.600000X0.450000*%
%ADD21R,1.000000X1.000000*%
%ADD22R,1.560000X0.650000*%
%ADD23R,1.800000X2.900000*%
%ADD24R,2.300000X3.500000*%
%ADD25R,1.100000X1.300000*%
%ADD26R,1.700000X1.000000*%
%ADD27C,0.100000*%
%ADD28R,0.850000X0.500000*%
%ADD29O,1.700000X1.700000*%
%ADD30R,1.700000X1.700000*%
%ADD31R,1.450000X0.600000*%
%ADD32R,1.450000X0.300000*%
%ADD33O,2.100000X1.000000*%
%ADD34C,0.650000*%
%ADD35O,1.600000X1.000000*%
%ADD36O,1.750000X1.200000*%
%ADD37C,0.254000*%
%ADD38C,0.230000*%
G04 APERTURE END LIST*
D10*
X145427142Y-91596904D02*
X145427142Y-90796904D01*
X145693809Y-91368333D01*
X145960476Y-90796904D01*
X145960476Y-91596904D01*
X146455714Y-91596904D02*
X146379523Y-91558809D01*
X146341428Y-91520714D01*
X146303333Y-91444523D01*
X146303333Y-91215952D01*
X146341428Y-91139761D01*
X146379523Y-91101666D01*
X146455714Y-91063571D01*
X146570000Y-91063571D01*
X146646190Y-91101666D01*
X146684285Y-91139761D01*
X146722380Y-91215952D01*
X146722380Y-91444523D01*
X146684285Y-91520714D01*
X146646190Y-91558809D01*
X146570000Y-91596904D01*
X146455714Y-91596904D01*
X146950952Y-91063571D02*
X147255714Y-91063571D01*
X147065238Y-90796904D02*
X147065238Y-91482619D01*
X147103333Y-91558809D01*
X147179523Y-91596904D01*
X147255714Y-91596904D01*
X147636666Y-91596904D02*
X147560476Y-91558809D01*
X147522380Y-91520714D01*
X147484285Y-91444523D01*
X147484285Y-91215952D01*
X147522380Y-91139761D01*
X147560476Y-91101666D01*
X147636666Y-91063571D01*
X147750952Y-91063571D01*
X147827142Y-91101666D01*
X147865238Y-91139761D01*
X147903333Y-91215952D01*
X147903333Y-91444523D01*
X147865238Y-91520714D01*
X147827142Y-91558809D01*
X147750952Y-91596904D01*
X147636666Y-91596904D01*
X148246190Y-91596904D02*
X148246190Y-91063571D01*
X148246190Y-91215952D02*
X148284285Y-91139761D01*
X148322380Y-91101666D01*
X148398571Y-91063571D01*
X148474761Y-91063571D01*
X149808095Y-91520714D02*
X149770000Y-91558809D01*
X149655714Y-91596904D01*
X149579523Y-91596904D01*
X149465238Y-91558809D01*
X149389047Y-91482619D01*
X149350952Y-91406428D01*
X149312857Y-91254047D01*
X149312857Y-91139761D01*
X149350952Y-90987380D01*
X149389047Y-90911190D01*
X149465238Y-90835000D01*
X149579523Y-90796904D01*
X149655714Y-90796904D01*
X149770000Y-90835000D01*
X149808095Y-90873095D01*
X150265238Y-91596904D02*
X150189047Y-91558809D01*
X150150952Y-91520714D01*
X150112857Y-91444523D01*
X150112857Y-91215952D01*
X150150952Y-91139761D01*
X150189047Y-91101666D01*
X150265238Y-91063571D01*
X150379523Y-91063571D01*
X150455714Y-91101666D01*
X150493809Y-91139761D01*
X150531904Y-91215952D01*
X150531904Y-91444523D01*
X150493809Y-91520714D01*
X150455714Y-91558809D01*
X150379523Y-91596904D01*
X150265238Y-91596904D01*
X150874761Y-91063571D02*
X150874761Y-91596904D01*
X150874761Y-91139761D02*
X150912857Y-91101666D01*
X150989047Y-91063571D01*
X151103333Y-91063571D01*
X151179523Y-91101666D01*
X151217619Y-91177857D01*
X151217619Y-91596904D01*
X151484285Y-91063571D02*
X151789047Y-91063571D01*
X151598571Y-90796904D02*
X151598571Y-91482619D01*
X151636666Y-91558809D01*
X151712857Y-91596904D01*
X151789047Y-91596904D01*
X152055714Y-91596904D02*
X152055714Y-91063571D01*
X152055714Y-91215952D02*
X152093809Y-91139761D01*
X152131904Y-91101666D01*
X152208095Y-91063571D01*
X152284285Y-91063571D01*
X152665238Y-91596904D02*
X152589047Y-91558809D01*
X152550952Y-91520714D01*
X152512857Y-91444523D01*
X152512857Y-91215952D01*
X152550952Y-91139761D01*
X152589047Y-91101666D01*
X152665238Y-91063571D01*
X152779523Y-91063571D01*
X152855714Y-91101666D01*
X152893809Y-91139761D01*
X152931904Y-91215952D01*
X152931904Y-91444523D01*
X152893809Y-91520714D01*
X152855714Y-91558809D01*
X152779523Y-91596904D01*
X152665238Y-91596904D01*
X153389047Y-91596904D02*
X153312857Y-91558809D01*
X153274761Y-91482619D01*
X153274761Y-90796904D01*
X153808095Y-91596904D02*
X153731904Y-91558809D01*
X153693809Y-91482619D01*
X153693809Y-90796904D01*
X154417619Y-91558809D02*
X154341428Y-91596904D01*
X154189047Y-91596904D01*
X154112857Y-91558809D01*
X154074761Y-91482619D01*
X154074761Y-91177857D01*
X154112857Y-91101666D01*
X154189047Y-91063571D01*
X154341428Y-91063571D01*
X154417619Y-91101666D01*
X154455714Y-91177857D01*
X154455714Y-91254047D01*
X154074761Y-91330238D01*
X154798571Y-91596904D02*
X154798571Y-91063571D01*
X154798571Y-91215952D02*
X154836666Y-91139761D01*
X154874761Y-91101666D01*
X154950952Y-91063571D01*
X155027142Y-91063571D01*
X146474761Y-92146904D02*
X146474761Y-92718333D01*
X146436666Y-92832619D01*
X146360476Y-92908809D01*
X146246190Y-92946904D01*
X146170000Y-92946904D01*
X147160476Y-92908809D02*
X147084285Y-92946904D01*
X146931904Y-92946904D01*
X146855714Y-92908809D01*
X146817619Y-92832619D01*
X146817619Y-92527857D01*
X146855714Y-92451666D01*
X146931904Y-92413571D01*
X147084285Y-92413571D01*
X147160476Y-92451666D01*
X147198571Y-92527857D01*
X147198571Y-92604047D01*
X146817619Y-92680238D01*
X147427142Y-92413571D02*
X147731904Y-92413571D01*
X147541428Y-92946904D02*
X147541428Y-92261190D01*
X147579523Y-92185000D01*
X147655714Y-92146904D01*
X147731904Y-92146904D01*
X147884285Y-92413571D02*
X148189047Y-92413571D01*
X147998571Y-92946904D02*
X147998571Y-92261190D01*
X148036666Y-92185000D01*
X148112857Y-92146904D01*
X148189047Y-92146904D01*
X149446190Y-92946904D02*
X149065238Y-92946904D01*
X149065238Y-92146904D01*
X150055714Y-92946904D02*
X150055714Y-92527857D01*
X150017619Y-92451666D01*
X149941428Y-92413571D01*
X149789047Y-92413571D01*
X149712857Y-92451666D01*
X150055714Y-92908809D02*
X149979523Y-92946904D01*
X149789047Y-92946904D01*
X149712857Y-92908809D01*
X149674761Y-92832619D01*
X149674761Y-92756428D01*
X149712857Y-92680238D01*
X149789047Y-92642142D01*
X149979523Y-92642142D01*
X150055714Y-92604047D01*
X150436666Y-92946904D02*
X150436666Y-92413571D01*
X150436666Y-92146904D02*
X150398571Y-92185000D01*
X150436666Y-92223095D01*
X150474761Y-92185000D01*
X150436666Y-92146904D01*
X150436666Y-92223095D01*
X151389047Y-92223095D02*
X151427142Y-92185000D01*
X151503333Y-92146904D01*
X151693809Y-92146904D01*
X151770000Y-92185000D01*
X151808095Y-92223095D01*
X151846190Y-92299285D01*
X151846190Y-92375476D01*
X151808095Y-92489761D01*
X151350952Y-92946904D01*
X151846190Y-92946904D01*
X152341428Y-92146904D02*
X152417619Y-92146904D01*
X152493809Y-92185000D01*
X152531904Y-92223095D01*
X152570000Y-92299285D01*
X152608095Y-92451666D01*
X152608095Y-92642142D01*
X152570000Y-92794523D01*
X152531904Y-92870714D01*
X152493809Y-92908809D01*
X152417619Y-92946904D01*
X152341428Y-92946904D01*
X152265238Y-92908809D01*
X152227142Y-92870714D01*
X152189047Y-92794523D01*
X152150952Y-92642142D01*
X152150952Y-92451666D01*
X152189047Y-92299285D01*
X152227142Y-92223095D01*
X152265238Y-92185000D01*
X152341428Y-92146904D01*
X152912857Y-92223095D02*
X152950952Y-92185000D01*
X153027142Y-92146904D01*
X153217619Y-92146904D01*
X153293809Y-92185000D01*
X153331904Y-92223095D01*
X153370000Y-92299285D01*
X153370000Y-92375476D01*
X153331904Y-92489761D01*
X152874761Y-92946904D01*
X153370000Y-92946904D01*
X154131904Y-92946904D02*
X153674761Y-92946904D01*
X153903333Y-92946904D02*
X153903333Y-92146904D01*
X153827142Y-92261190D01*
X153750952Y-92337380D01*
X153674761Y-92375476D01*
D11*
X170000000Y-90000000D03*
X130000000Y-90000000D03*
X170000000Y-40000000D03*
X130000000Y-40000000D03*
G36*
G01*
X145980000Y-88510000D02*
X146180000Y-88510000D01*
G75*
G02*
X146280000Y-88610000I0J-100000D01*
G01*
X146280000Y-88870000D01*
G75*
G02*
X146180000Y-88970000I-100000J0D01*
G01*
X145980000Y-88970000D01*
G75*
G02*
X145880000Y-88870000I0J100000D01*
G01*
X145880000Y-88610000D01*
G75*
G02*
X145980000Y-88510000I100000J0D01*
G01*
G37*
G36*
G01*
X145980000Y-87870000D02*
X146180000Y-87870000D01*
G75*
G02*
X146280000Y-87970000I0J-100000D01*
G01*
X146280000Y-88230000D01*
G75*
G02*
X146180000Y-88330000I-100000J0D01*
G01*
X145980000Y-88330000D01*
G75*
G02*
X145880000Y-88230000I0J100000D01*
G01*
X145880000Y-87970000D01*
G75*
G02*
X145980000Y-87870000I100000J0D01*
G01*
G37*
G36*
G01*
X145805000Y-86325000D02*
X146355000Y-86325000D01*
G75*
G02*
X146555000Y-86525000I0J-200000D01*
G01*
X146555000Y-86925000D01*
G75*
G02*
X146355000Y-87125000I-200000J0D01*
G01*
X145805000Y-87125000D01*
G75*
G02*
X145605000Y-86925000I0J200000D01*
G01*
X145605000Y-86525000D01*
G75*
G02*
X145805000Y-86325000I200000J0D01*
G01*
G37*
G36*
G01*
X145805000Y-84675000D02*
X146355000Y-84675000D01*
G75*
G02*
X146555000Y-84875000I0J-200000D01*
G01*
X146555000Y-85275000D01*
G75*
G02*
X146355000Y-85475000I-200000J0D01*
G01*
X145805000Y-85475000D01*
G75*
G02*
X145605000Y-85275000I0J200000D01*
G01*
X145605000Y-84875000D01*
G75*
G02*
X145805000Y-84675000I200000J0D01*
G01*
G37*
D12*
X147850000Y-80375000D03*
X147350000Y-80375000D03*
X146850000Y-80375000D03*
X146350000Y-80375000D03*
X145850000Y-80375000D03*
X145350000Y-80375000D03*
X144850000Y-80375000D03*
X144350000Y-80375000D03*
X143850000Y-80375000D03*
X143350000Y-80375000D03*
X142850000Y-80375000D03*
X142350000Y-80375000D03*
X141850000Y-80375000D03*
X141350000Y-80375000D03*
X140850000Y-80375000D03*
X140350000Y-80375000D03*
D13*
X138350000Y-78375000D03*
X138350000Y-77875000D03*
X138350000Y-77375000D03*
X138350000Y-76875000D03*
X138350000Y-76375000D03*
X138350000Y-75875000D03*
X138350000Y-75375000D03*
X138350000Y-74875000D03*
X138350000Y-74375000D03*
X138350000Y-73875000D03*
X138350000Y-73375000D03*
X138350000Y-72875000D03*
X138350000Y-72375000D03*
X138350000Y-71875000D03*
X138350000Y-71375000D03*
X138350000Y-70875000D03*
D12*
X140350000Y-68875000D03*
X140850000Y-68875000D03*
X141350000Y-68875000D03*
X141850000Y-68875000D03*
X142350000Y-68875000D03*
X142850000Y-68875000D03*
X143350000Y-68875000D03*
X143850000Y-68875000D03*
X144350000Y-68875000D03*
X144850000Y-68875000D03*
X145350000Y-68875000D03*
X145850000Y-68875000D03*
X146350000Y-68875000D03*
X146850000Y-68875000D03*
X147350000Y-68875000D03*
D13*
X149850000Y-70875000D03*
X149850000Y-71375000D03*
X149850000Y-71875000D03*
X149850000Y-72375000D03*
X149850000Y-72875000D03*
X149850000Y-73375000D03*
X149850000Y-73875000D03*
X149850000Y-74375000D03*
X149850000Y-74875000D03*
X149850000Y-75375000D03*
X149850000Y-75875000D03*
X149850000Y-76375000D03*
X149850000Y-76875000D03*
X149850000Y-77375000D03*
X149850000Y-77875000D03*
X149850000Y-78375000D03*
D12*
X147850000Y-68875000D03*
D14*
X162025000Y-84700000D03*
G36*
G01*
X164625000Y-84074999D02*
X164625000Y-85325001D01*
G75*
G02*
X164375001Y-85575000I-249999J0D01*
G01*
X163674999Y-85575000D01*
G75*
G02*
X163425000Y-85325001I0J249999D01*
G01*
X163425000Y-84074999D01*
G75*
G02*
X163674999Y-83825000I249999J0D01*
G01*
X164375001Y-83825000D01*
G75*
G02*
X164625000Y-84074999I0J-249999D01*
G01*
G37*
X155010000Y-62390000D03*
X153010000Y-62390000D03*
X151010000Y-62390000D03*
X149010000Y-62390000D03*
G36*
G01*
X146410000Y-63015001D02*
X146410000Y-61764999D01*
G75*
G02*
X146659999Y-61515000I249999J0D01*
G01*
X147360001Y-61515000D01*
G75*
G02*
X147610000Y-61764999I0J-249999D01*
G01*
X147610000Y-63015001D01*
G75*
G02*
X147360001Y-63265000I-249999J0D01*
G01*
X146659999Y-63265000D01*
G75*
G02*
X146410000Y-63015001I0J249999D01*
G01*
G37*
D15*
X133750000Y-57820000D03*
D16*
X136520000Y-54340000D03*
G36*
G01*
X140620000Y-52490000D02*
X143820000Y-52490000D01*
G75*
G02*
X144070000Y-52740000I0J-250000D01*
G01*
X144070000Y-55940000D01*
G75*
G02*
X143820000Y-56190000I-250000J0D01*
G01*
X140620000Y-56190000D01*
G75*
G02*
X140370000Y-55940000I0J250000D01*
G01*
X140370000Y-52740000D01*
G75*
G02*
X140620000Y-52490000I250000J0D01*
G01*
G37*
G36*
G01*
X139480000Y-60565000D02*
X139480000Y-59615000D01*
G75*
G02*
X139730000Y-59365000I250000J0D01*
G01*
X140230000Y-59365000D01*
G75*
G02*
X140480000Y-59615000I0J-250000D01*
G01*
X140480000Y-60565000D01*
G75*
G02*
X140230000Y-60815000I-250000J0D01*
G01*
X139730000Y-60815000D01*
G75*
G02*
X139480000Y-60565000I0J250000D01*
G01*
G37*
G36*
G01*
X137580000Y-60565000D02*
X137580000Y-59615000D01*
G75*
G02*
X137830000Y-59365000I250000J0D01*
G01*
X138330000Y-59365000D01*
G75*
G02*
X138580000Y-59615000I0J-250000D01*
G01*
X138580000Y-60565000D01*
G75*
G02*
X138330000Y-60815000I-250000J0D01*
G01*
X137830000Y-60815000D01*
G75*
G02*
X137580000Y-60565000I0J250000D01*
G01*
G37*
D17*
X169926000Y-47832000D03*
D18*
X169926000Y-52832000D03*
G36*
G01*
X147415240Y-84624600D02*
X148615240Y-84624600D01*
G75*
G02*
X148865240Y-84874600I0J-250000D01*
G01*
X148865240Y-86074600D01*
G75*
G02*
X148615240Y-86324600I-250000J0D01*
G01*
X147415240Y-86324600D01*
G75*
G02*
X147165240Y-86074600I0J250000D01*
G01*
X147165240Y-84874600D01*
G75*
G02*
X147415240Y-84624600I250000J0D01*
G01*
G37*
D19*
X150555240Y-85474600D03*
X153095240Y-85474600D03*
X148015240Y-88014600D03*
X150555240Y-88014600D03*
X153095240Y-88014600D03*
D20*
X134400000Y-73000000D03*
X136500000Y-73000000D03*
G36*
G01*
X155395000Y-77275000D02*
X155055000Y-77275000D01*
G75*
G02*
X154915000Y-77135000I0J140000D01*
G01*
X154915000Y-76855000D01*
G75*
G02*
X155055000Y-76715000I140000J0D01*
G01*
X155395000Y-76715000D01*
G75*
G02*
X155535000Y-76855000I0J-140000D01*
G01*
X155535000Y-77135000D01*
G75*
G02*
X155395000Y-77275000I-140000J0D01*
G01*
G37*
G36*
G01*
X155395000Y-78235000D02*
X155055000Y-78235000D01*
G75*
G02*
X154915000Y-78095000I0J140000D01*
G01*
X154915000Y-77815000D01*
G75*
G02*
X155055000Y-77675000I140000J0D01*
G01*
X155395000Y-77675000D01*
G75*
G02*
X155535000Y-77815000I0J-140000D01*
G01*
X155535000Y-78095000D01*
G75*
G02*
X155395000Y-78235000I-140000J0D01*
G01*
G37*
G36*
G01*
X159000000Y-54645000D02*
X159000000Y-54305000D01*
G75*
G02*
X159140000Y-54165000I140000J0D01*
G01*
X159420000Y-54165000D01*
G75*
G02*
X159560000Y-54305000I0J-140000D01*
G01*
X159560000Y-54645000D01*
G75*
G02*
X159420000Y-54785000I-140000J0D01*
G01*
X159140000Y-54785000D01*
G75*
G02*
X159000000Y-54645000I0J140000D01*
G01*
G37*
G36*
G01*
X158040000Y-54645000D02*
X158040000Y-54305000D01*
G75*
G02*
X158180000Y-54165000I140000J0D01*
G01*
X158460000Y-54165000D01*
G75*
G02*
X158600000Y-54305000I0J-140000D01*
G01*
X158600000Y-54645000D01*
G75*
G02*
X158460000Y-54785000I-140000J0D01*
G01*
X158180000Y-54785000D01*
G75*
G02*
X158040000Y-54645000I0J140000D01*
G01*
G37*
G36*
G01*
X154580000Y-86150000D02*
X154920000Y-86150000D01*
G75*
G02*
X155060000Y-86290000I0J-140000D01*
G01*
X155060000Y-86570000D01*
G75*
G02*
X154920000Y-86710000I-140000J0D01*
G01*
X154580000Y-86710000D01*
G75*
G02*
X154440000Y-86570000I0J140000D01*
G01*
X154440000Y-86290000D01*
G75*
G02*
X154580000Y-86150000I140000J0D01*
G01*
G37*
G36*
G01*
X154580000Y-85190000D02*
X154920000Y-85190000D01*
G75*
G02*
X155060000Y-85330000I0J-140000D01*
G01*
X155060000Y-85610000D01*
G75*
G02*
X154920000Y-85750000I-140000J0D01*
G01*
X154580000Y-85750000D01*
G75*
G02*
X154440000Y-85610000I0J140000D01*
G01*
X154440000Y-85330000D01*
G75*
G02*
X154580000Y-85190000I140000J0D01*
G01*
G37*
D21*
X159800000Y-59200000D03*
X159800000Y-61700000D03*
X150000000Y-54350000D03*
X152500000Y-54350000D03*
G36*
G01*
X172550000Y-57625000D02*
X170350000Y-57625000D01*
G75*
G02*
X170100000Y-57375000I0J250000D01*
G01*
X170100000Y-56875000D01*
G75*
G02*
X170350000Y-56625000I250000J0D01*
G01*
X172550000Y-56625000D01*
G75*
G02*
X172800000Y-56875000I0J-250000D01*
G01*
X172800000Y-57375000D01*
G75*
G02*
X172550000Y-57625000I-250000J0D01*
G01*
G37*
G36*
G01*
X172550000Y-62575000D02*
X170350000Y-62575000D01*
G75*
G02*
X170100000Y-62325000I0J250000D01*
G01*
X170100000Y-61825000D01*
G75*
G02*
X170350000Y-61575000I250000J0D01*
G01*
X172550000Y-61575000D01*
G75*
G02*
X172800000Y-61825000I0J-250000D01*
G01*
X172800000Y-62325000D01*
G75*
G02*
X172550000Y-62575000I-250000J0D01*
G01*
G37*
G36*
G01*
X168950000Y-59275000D02*
X167550000Y-59275000D01*
G75*
G02*
X167400000Y-59125000I0J150000D01*
G01*
X167400000Y-58825000D01*
G75*
G02*
X167550000Y-58675000I150000J0D01*
G01*
X168950000Y-58675000D01*
G75*
G02*
X169100000Y-58825000I0J-150000D01*
G01*
X169100000Y-59125000D01*
G75*
G02*
X168950000Y-59275000I-150000J0D01*
G01*
G37*
G36*
G01*
X168950000Y-60525000D02*
X167550000Y-60525000D01*
G75*
G02*
X167400000Y-60375000I0J150000D01*
G01*
X167400000Y-60075000D01*
G75*
G02*
X167550000Y-59925000I150000J0D01*
G01*
X168950000Y-59925000D01*
G75*
G02*
X169100000Y-60075000I0J-150000D01*
G01*
X169100000Y-60375000D01*
G75*
G02*
X168950000Y-60525000I-150000J0D01*
G01*
G37*
G36*
G01*
X164775000Y-63025000D02*
X164775000Y-63575000D01*
G75*
G02*
X164575000Y-63775000I-200000J0D01*
G01*
X164175000Y-63775000D01*
G75*
G02*
X163975000Y-63575000I0J200000D01*
G01*
X163975000Y-63025000D01*
G75*
G02*
X164175000Y-62825000I200000J0D01*
G01*
X164575000Y-62825000D01*
G75*
G02*
X164775000Y-63025000I0J-200000D01*
G01*
G37*
G36*
G01*
X166425000Y-63025000D02*
X166425000Y-63575000D01*
G75*
G02*
X166225000Y-63775000I-200000J0D01*
G01*
X165825000Y-63775000D01*
G75*
G02*
X165625000Y-63575000I0J200000D01*
G01*
X165625000Y-63025000D01*
G75*
G02*
X165825000Y-62825000I200000J0D01*
G01*
X166225000Y-62825000D01*
G75*
G02*
X166425000Y-63025000I0J-200000D01*
G01*
G37*
G36*
G01*
X166200001Y-60250000D02*
X165399999Y-60250000D01*
G75*
G02*
X165150000Y-60000001I0J249999D01*
G01*
X165150000Y-59174999D01*
G75*
G02*
X165399999Y-58925000I249999J0D01*
G01*
X166200001Y-58925000D01*
G75*
G02*
X166450000Y-59174999I0J-249999D01*
G01*
X166450000Y-60000001D01*
G75*
G02*
X166200001Y-60250000I-249999J0D01*
G01*
G37*
G36*
G01*
X166200001Y-62175000D02*
X165399999Y-62175000D01*
G75*
G02*
X165150000Y-61925001I0J249999D01*
G01*
X165150000Y-61099999D01*
G75*
G02*
X165399999Y-60850000I249999J0D01*
G01*
X166200001Y-60850000D01*
G75*
G02*
X166450000Y-61099999I0J-249999D01*
G01*
X166450000Y-61925001D01*
G75*
G02*
X166200001Y-62175000I-249999J0D01*
G01*
G37*
G36*
G01*
X162575000Y-63575000D02*
X162575000Y-63025000D01*
G75*
G02*
X162775000Y-62825000I200000J0D01*
G01*
X163175000Y-62825000D01*
G75*
G02*
X163375000Y-63025000I0J-200000D01*
G01*
X163375000Y-63575000D01*
G75*
G02*
X163175000Y-63775000I-200000J0D01*
G01*
X162775000Y-63775000D01*
G75*
G02*
X162575000Y-63575000I0J200000D01*
G01*
G37*
G36*
G01*
X160925000Y-63575000D02*
X160925000Y-63025000D01*
G75*
G02*
X161125000Y-62825000I200000J0D01*
G01*
X161525000Y-62825000D01*
G75*
G02*
X161725000Y-63025000I0J-200000D01*
G01*
X161725000Y-63575000D01*
G75*
G02*
X161525000Y-63775000I-200000J0D01*
G01*
X161125000Y-63775000D01*
G75*
G02*
X160925000Y-63575000I0J200000D01*
G01*
G37*
G36*
G01*
X164200001Y-60250000D02*
X163399999Y-60250000D01*
G75*
G02*
X163150000Y-60000001I0J249999D01*
G01*
X163150000Y-59174999D01*
G75*
G02*
X163399999Y-58925000I249999J0D01*
G01*
X164200001Y-58925000D01*
G75*
G02*
X164450000Y-59174999I0J-249999D01*
G01*
X164450000Y-60000001D01*
G75*
G02*
X164200001Y-60250000I-249999J0D01*
G01*
G37*
G36*
G01*
X164200001Y-62175000D02*
X163399999Y-62175000D01*
G75*
G02*
X163150000Y-61925001I0J249999D01*
G01*
X163150000Y-61099999D01*
G75*
G02*
X163399999Y-60850000I249999J0D01*
G01*
X164200001Y-60850000D01*
G75*
G02*
X164450000Y-61099999I0J-249999D01*
G01*
X164450000Y-61925001D01*
G75*
G02*
X164200001Y-62175000I-249999J0D01*
G01*
G37*
G36*
G01*
X133850000Y-67300000D02*
X133850000Y-65300000D01*
G75*
G02*
X134100000Y-65050000I250000J0D01*
G01*
X137600000Y-65050000D01*
G75*
G02*
X137850000Y-65300000I0J-250000D01*
G01*
X137850000Y-67300000D01*
G75*
G02*
X137600000Y-67550000I-250000J0D01*
G01*
X134100000Y-67550000D01*
G75*
G02*
X133850000Y-67300000I0J250000D01*
G01*
G37*
G36*
G01*
X125850000Y-67300000D02*
X125850000Y-65300000D01*
G75*
G02*
X126100000Y-65050000I250000J0D01*
G01*
X129600000Y-65050000D01*
G75*
G02*
X129850000Y-65300000I0J-250000D01*
G01*
X129850000Y-67300000D01*
G75*
G02*
X129600000Y-67550000I-250000J0D01*
G01*
X126100000Y-67550000D01*
G75*
G02*
X125850000Y-67300000I0J250000D01*
G01*
G37*
D22*
X154765840Y-56865480D03*
X154765840Y-57815480D03*
X154765840Y-55915480D03*
X157465840Y-55915480D03*
X157465840Y-56865480D03*
X157465840Y-57815480D03*
G36*
G01*
X159649660Y-56130600D02*
X159099660Y-56130600D01*
G75*
G02*
X158899660Y-55930600I0J200000D01*
G01*
X158899660Y-55530600D01*
G75*
G02*
X159099660Y-55330600I200000J0D01*
G01*
X159649660Y-55330600D01*
G75*
G02*
X159849660Y-55530600I0J-200000D01*
G01*
X159849660Y-55930600D01*
G75*
G02*
X159649660Y-56130600I-200000J0D01*
G01*
G37*
G36*
G01*
X159649660Y-57780600D02*
X159099660Y-57780600D01*
G75*
G02*
X158899660Y-57580600I0J200000D01*
G01*
X158899660Y-57180600D01*
G75*
G02*
X159099660Y-56980600I200000J0D01*
G01*
X159649660Y-56980600D01*
G75*
G02*
X159849660Y-57180600I0J-200000D01*
G01*
X159849660Y-57580600D01*
G75*
G02*
X159649660Y-57780600I-200000J0D01*
G01*
G37*
G36*
G01*
X160675000Y-56975000D02*
X161225000Y-56975000D01*
G75*
G02*
X161425000Y-57175000I0J-200000D01*
G01*
X161425000Y-57575000D01*
G75*
G02*
X161225000Y-57775000I-200000J0D01*
G01*
X160675000Y-57775000D01*
G75*
G02*
X160475000Y-57575000I0J200000D01*
G01*
X160475000Y-57175000D01*
G75*
G02*
X160675000Y-56975000I200000J0D01*
G01*
G37*
G36*
G01*
X160675000Y-55325000D02*
X161225000Y-55325000D01*
G75*
G02*
X161425000Y-55525000I0J-200000D01*
G01*
X161425000Y-55925000D01*
G75*
G02*
X161225000Y-56125000I-200000J0D01*
G01*
X160675000Y-56125000D01*
G75*
G02*
X160475000Y-55925000I0J200000D01*
G01*
X160475000Y-55525000D01*
G75*
G02*
X160675000Y-55325000I200000J0D01*
G01*
G37*
G36*
G01*
X165365800Y-57819600D02*
X165365800Y-57269600D01*
G75*
G02*
X165565800Y-57069600I200000J0D01*
G01*
X165965800Y-57069600D01*
G75*
G02*
X166165800Y-57269600I0J-200000D01*
G01*
X166165800Y-57819600D01*
G75*
G02*
X165965800Y-58019600I-200000J0D01*
G01*
X165565800Y-58019600D01*
G75*
G02*
X165365800Y-57819600I0J200000D01*
G01*
G37*
G36*
G01*
X163715800Y-57819600D02*
X163715800Y-57269600D01*
G75*
G02*
X163915800Y-57069600I200000J0D01*
G01*
X164315800Y-57069600D01*
G75*
G02*
X164515800Y-57269600I0J-200000D01*
G01*
X164515800Y-57819600D01*
G75*
G02*
X164315800Y-58019600I-200000J0D01*
G01*
X163915800Y-58019600D01*
G75*
G02*
X163715800Y-57819600I0J200000D01*
G01*
G37*
G36*
G01*
X165365800Y-56244800D02*
X165365800Y-55694800D01*
G75*
G02*
X165565800Y-55494800I200000J0D01*
G01*
X165965800Y-55494800D01*
G75*
G02*
X166165800Y-55694800I0J-200000D01*
G01*
X166165800Y-56244800D01*
G75*
G02*
X165965800Y-56444800I-200000J0D01*
G01*
X165565800Y-56444800D01*
G75*
G02*
X165365800Y-56244800I0J200000D01*
G01*
G37*
G36*
G01*
X163715800Y-56244800D02*
X163715800Y-55694800D01*
G75*
G02*
X163915800Y-55494800I200000J0D01*
G01*
X164315800Y-55494800D01*
G75*
G02*
X164515800Y-55694800I0J-200000D01*
G01*
X164515800Y-56244800D01*
G75*
G02*
X164315800Y-56444800I-200000J0D01*
G01*
X163915800Y-56444800D01*
G75*
G02*
X163715800Y-56244800I0J200000D01*
G01*
G37*
D23*
X148904700Y-57239860D03*
X152104700Y-57239860D03*
D24*
X164000000Y-52900000D03*
X164000000Y-47500000D03*
G36*
G01*
X146703780Y-57247360D02*
X147203780Y-57247360D01*
G75*
G02*
X147428780Y-57472360I0J-225000D01*
G01*
X147428780Y-57922360D01*
G75*
G02*
X147203780Y-58147360I-225000J0D01*
G01*
X146703780Y-58147360D01*
G75*
G02*
X146478780Y-57922360I0J225000D01*
G01*
X146478780Y-57472360D01*
G75*
G02*
X146703780Y-57247360I225000J0D01*
G01*
G37*
G36*
G01*
X146703780Y-55697360D02*
X147203780Y-55697360D01*
G75*
G02*
X147428780Y-55922360I0J-225000D01*
G01*
X147428780Y-56372360D01*
G75*
G02*
X147203780Y-56597360I-225000J0D01*
G01*
X146703780Y-56597360D01*
G75*
G02*
X146478780Y-56372360I0J225000D01*
G01*
X146478780Y-55922360D01*
G75*
G02*
X146703780Y-55697360I225000J0D01*
G01*
G37*
G36*
G01*
X156440840Y-54456100D02*
X156440840Y-53956100D01*
G75*
G02*
X156665840Y-53731100I225000J0D01*
G01*
X157115840Y-53731100D01*
G75*
G02*
X157340840Y-53956100I0J-225000D01*
G01*
X157340840Y-54456100D01*
G75*
G02*
X157115840Y-54681100I-225000J0D01*
G01*
X156665840Y-54681100D01*
G75*
G02*
X156440840Y-54456100I0J225000D01*
G01*
G37*
G36*
G01*
X154890840Y-54456100D02*
X154890840Y-53956100D01*
G75*
G02*
X155115840Y-53731100I225000J0D01*
G01*
X155565840Y-53731100D01*
G75*
G02*
X155790840Y-53956100I0J-225000D01*
G01*
X155790840Y-54456100D01*
G75*
G02*
X155565840Y-54681100I-225000J0D01*
G01*
X155115840Y-54681100D01*
G75*
G02*
X154890840Y-54456100I0J225000D01*
G01*
G37*
G36*
G01*
X158699999Y-51900000D02*
X160900001Y-51900000D01*
G75*
G02*
X161150000Y-52149999I0J-249999D01*
G01*
X161150000Y-52800001D01*
G75*
G02*
X160900001Y-53050000I-249999J0D01*
G01*
X158699999Y-53050000D01*
G75*
G02*
X158450000Y-52800001I0J249999D01*
G01*
X158450000Y-52149999D01*
G75*
G02*
X158699999Y-51900000I249999J0D01*
G01*
G37*
G36*
G01*
X158699999Y-48950000D02*
X160900001Y-48950000D01*
G75*
G02*
X161150000Y-49199999I0J-249999D01*
G01*
X161150000Y-49850001D01*
G75*
G02*
X160900001Y-50100000I-249999J0D01*
G01*
X158699999Y-50100000D01*
G75*
G02*
X158450000Y-49850001I0J249999D01*
G01*
X158450000Y-49199999D01*
G75*
G02*
X158699999Y-48950000I249999J0D01*
G01*
G37*
G36*
G01*
X154812499Y-51900000D02*
X157012501Y-51900000D01*
G75*
G02*
X157262500Y-52149999I0J-249999D01*
G01*
X157262500Y-52800001D01*
G75*
G02*
X157012501Y-53050000I-249999J0D01*
G01*
X154812499Y-53050000D01*
G75*
G02*
X154562500Y-52800001I0J249999D01*
G01*
X154562500Y-52149999D01*
G75*
G02*
X154812499Y-51900000I249999J0D01*
G01*
G37*
G36*
G01*
X154812499Y-48950000D02*
X157012501Y-48950000D01*
G75*
G02*
X157262500Y-49199999I0J-249999D01*
G01*
X157262500Y-49850001D01*
G75*
G02*
X157012501Y-50100000I-249999J0D01*
G01*
X154812499Y-50100000D01*
G75*
G02*
X154562500Y-49850001I0J249999D01*
G01*
X154562500Y-49199999D01*
G75*
G02*
X154812499Y-48950000I249999J0D01*
G01*
G37*
G36*
G01*
X150924999Y-51900000D02*
X153125001Y-51900000D01*
G75*
G02*
X153375000Y-52149999I0J-249999D01*
G01*
X153375000Y-52800001D01*
G75*
G02*
X153125001Y-53050000I-249999J0D01*
G01*
X150924999Y-53050000D01*
G75*
G02*
X150675000Y-52800001I0J249999D01*
G01*
X150675000Y-52149999D01*
G75*
G02*
X150924999Y-51900000I249999J0D01*
G01*
G37*
G36*
G01*
X150924999Y-48950000D02*
X153125001Y-48950000D01*
G75*
G02*
X153375000Y-49199999I0J-249999D01*
G01*
X153375000Y-49850001D01*
G75*
G02*
X153125001Y-50100000I-249999J0D01*
G01*
X150924999Y-50100000D01*
G75*
G02*
X150675000Y-49850001I0J249999D01*
G01*
X150675000Y-49199999D01*
G75*
G02*
X150924999Y-48950000I249999J0D01*
G01*
G37*
D25*
X151825000Y-78475000D03*
X151825000Y-76375000D03*
X153475000Y-76375000D03*
X153475000Y-78475000D03*
D26*
X158590000Y-75490000D03*
X164890000Y-75490000D03*
X158590000Y-79290000D03*
X164890000Y-79290000D03*
G36*
G01*
X159025000Y-89677500D02*
X158475000Y-89677500D01*
G75*
G02*
X158275000Y-89477500I0J200000D01*
G01*
X158275000Y-89077500D01*
G75*
G02*
X158475000Y-88877500I200000J0D01*
G01*
X159025000Y-88877500D01*
G75*
G02*
X159225000Y-89077500I0J-200000D01*
G01*
X159225000Y-89477500D01*
G75*
G02*
X159025000Y-89677500I-200000J0D01*
G01*
G37*
G36*
G01*
X159025000Y-91327500D02*
X158475000Y-91327500D01*
G75*
G02*
X158275000Y-91127500I0J200000D01*
G01*
X158275000Y-90727500D01*
G75*
G02*
X158475000Y-90527500I200000J0D01*
G01*
X159025000Y-90527500D01*
G75*
G02*
X159225000Y-90727500I0J-200000D01*
G01*
X159225000Y-91127500D01*
G75*
G02*
X159025000Y-91327500I-200000J0D01*
G01*
G37*
G36*
G01*
X159025000Y-83725000D02*
X158475000Y-83725000D01*
G75*
G02*
X158275000Y-83525000I0J200000D01*
G01*
X158275000Y-83125000D01*
G75*
G02*
X158475000Y-82925000I200000J0D01*
G01*
X159025000Y-82925000D01*
G75*
G02*
X159225000Y-83125000I0J-200000D01*
G01*
X159225000Y-83525000D01*
G75*
G02*
X159025000Y-83725000I-200000J0D01*
G01*
G37*
G36*
G01*
X159025000Y-85375000D02*
X158475000Y-85375000D01*
G75*
G02*
X158275000Y-85175000I0J200000D01*
G01*
X158275000Y-84775000D01*
G75*
G02*
X158475000Y-84575000I200000J0D01*
G01*
X159025000Y-84575000D01*
G75*
G02*
X159225000Y-84775000I0J-200000D01*
G01*
X159225000Y-85175000D01*
G75*
G02*
X159025000Y-85375000I-200000J0D01*
G01*
G37*
G36*
G01*
X134825000Y-77125000D02*
X134825000Y-77675000D01*
G75*
G02*
X134625000Y-77875000I-200000J0D01*
G01*
X134225000Y-77875000D01*
G75*
G02*
X134025000Y-77675000I0J200000D01*
G01*
X134025000Y-77125000D01*
G75*
G02*
X134225000Y-76925000I200000J0D01*
G01*
X134625000Y-76925000D01*
G75*
G02*
X134825000Y-77125000I0J-200000D01*
G01*
G37*
G36*
G01*
X136475000Y-77125000D02*
X136475000Y-77675000D01*
G75*
G02*
X136275000Y-77875000I-200000J0D01*
G01*
X135875000Y-77875000D01*
G75*
G02*
X135675000Y-77675000I0J200000D01*
G01*
X135675000Y-77125000D01*
G75*
G02*
X135875000Y-76925000I200000J0D01*
G01*
X136275000Y-76925000D01*
G75*
G02*
X136475000Y-77125000I0J-200000D01*
G01*
G37*
G36*
G01*
X134825000Y-75600000D02*
X134825000Y-76150000D01*
G75*
G02*
X134625000Y-76350000I-200000J0D01*
G01*
X134225000Y-76350000D01*
G75*
G02*
X134025000Y-76150000I0J200000D01*
G01*
X134025000Y-75600000D01*
G75*
G02*
X134225000Y-75400000I200000J0D01*
G01*
X134625000Y-75400000D01*
G75*
G02*
X134825000Y-75600000I0J-200000D01*
G01*
G37*
G36*
G01*
X136475000Y-75600000D02*
X136475000Y-76150000D01*
G75*
G02*
X136275000Y-76350000I-200000J0D01*
G01*
X135875000Y-76350000D01*
G75*
G02*
X135675000Y-76150000I0J200000D01*
G01*
X135675000Y-75600000D01*
G75*
G02*
X135875000Y-75400000I200000J0D01*
G01*
X136275000Y-75400000D01*
G75*
G02*
X136475000Y-75600000I0J-200000D01*
G01*
G37*
G36*
G01*
X167825000Y-63725000D02*
X167825000Y-64275000D01*
G75*
G02*
X167625000Y-64475000I-200000J0D01*
G01*
X167225000Y-64475000D01*
G75*
G02*
X167025000Y-64275000I0J200000D01*
G01*
X167025000Y-63725000D01*
G75*
G02*
X167225000Y-63525000I200000J0D01*
G01*
X167625000Y-63525000D01*
G75*
G02*
X167825000Y-63725000I0J-200000D01*
G01*
G37*
G36*
G01*
X169475000Y-63725000D02*
X169475000Y-64275000D01*
G75*
G02*
X169275000Y-64475000I-200000J0D01*
G01*
X168875000Y-64475000D01*
G75*
G02*
X168675000Y-64275000I0J200000D01*
G01*
X168675000Y-63725000D01*
G75*
G02*
X168875000Y-63525000I200000J0D01*
G01*
X169275000Y-63525000D01*
G75*
G02*
X169475000Y-63725000I0J-200000D01*
G01*
G37*
G36*
G01*
X130279201Y-51142400D02*
X127429199Y-51142400D01*
G75*
G02*
X127179200Y-50892401I0J249999D01*
G01*
X127179200Y-50167399D01*
G75*
G02*
X127429199Y-49917400I249999J0D01*
G01*
X130279201Y-49917400D01*
G75*
G02*
X130529200Y-50167399I0J-249999D01*
G01*
X130529200Y-50892401D01*
G75*
G02*
X130279201Y-51142400I-249999J0D01*
G01*
G37*
G36*
G01*
X130279201Y-57067400D02*
X127429199Y-57067400D01*
G75*
G02*
X127179200Y-56817401I0J249999D01*
G01*
X127179200Y-56092399D01*
G75*
G02*
X127429199Y-55842400I249999J0D01*
G01*
X130279201Y-55842400D01*
G75*
G02*
X130529200Y-56092399I0J-249999D01*
G01*
X130529200Y-56817401D01*
G75*
G02*
X130279201Y-57067400I-249999J0D01*
G01*
G37*
D27*
G36*
X127175000Y-48105000D02*
G01*
X127975000Y-48105000D01*
X127975000Y-47435000D01*
X127175000Y-47435000D01*
X127175000Y-46835000D01*
X127975000Y-46835000D01*
X127975000Y-46165000D01*
X127175000Y-46165000D01*
X127175000Y-45565000D01*
X127975000Y-45565000D01*
X127975000Y-44895000D01*
X127175000Y-44895000D01*
X127175000Y-44295000D01*
X131725000Y-44295000D01*
X131725000Y-48705000D01*
X127175000Y-48705000D01*
X127175000Y-48105000D01*
G37*
D28*
X133400000Y-44595000D03*
X133400000Y-45865000D03*
X133400000Y-47135000D03*
X133400000Y-48405000D03*
D14*
X162025000Y-90437400D03*
G36*
G01*
X164625000Y-89812399D02*
X164625000Y-91062401D01*
G75*
G02*
X164375001Y-91312400I-249999J0D01*
G01*
X163674999Y-91312400D01*
G75*
G02*
X163425000Y-91062401I0J249999D01*
G01*
X163425000Y-89812399D01*
G75*
G02*
X163674999Y-89562400I249999J0D01*
G01*
X164375001Y-89562400D01*
G75*
G02*
X164625000Y-89812399I0J-249999D01*
G01*
G37*
X135975000Y-90400000D03*
X137975000Y-90400000D03*
G36*
G01*
X140575000Y-89774999D02*
X140575000Y-91025001D01*
G75*
G02*
X140325001Y-91275000I-249999J0D01*
G01*
X139624999Y-91275000D01*
G75*
G02*
X139375000Y-91025001I0J249999D01*
G01*
X139375000Y-89774999D01*
G75*
G02*
X139624999Y-89525000I249999J0D01*
G01*
X140325001Y-89525000D01*
G75*
G02*
X140575000Y-89774999I0J-249999D01*
G01*
G37*
X135975000Y-84700000D03*
X137975000Y-84700000D03*
G36*
G01*
X140575000Y-84074999D02*
X140575000Y-85325001D01*
G75*
G02*
X140325001Y-85575000I-249999J0D01*
G01*
X139624999Y-85575000D01*
G75*
G02*
X139375000Y-85325001I0J249999D01*
G01*
X139375000Y-84074999D01*
G75*
G02*
X139624999Y-83825000I249999J0D01*
G01*
X140325001Y-83825000D01*
G75*
G02*
X140575000Y-84074999I0J-249999D01*
G01*
G37*
D29*
X131840000Y-73850000D03*
X129300000Y-73850000D03*
D30*
X126760000Y-73850000D03*
D31*
X131845000Y-84475000D03*
X131845000Y-83675000D03*
X131845000Y-78775000D03*
X131845000Y-77975000D03*
X131845000Y-77975000D03*
X131845000Y-78775000D03*
X131845000Y-83675000D03*
X131845000Y-84475000D03*
D32*
X131845000Y-79475000D03*
X131845000Y-79975000D03*
X131845000Y-80475000D03*
X131845000Y-81475000D03*
X131845000Y-81975000D03*
X131845000Y-82475000D03*
X131845000Y-82975000D03*
X131845000Y-80975000D03*
D33*
X130930000Y-85545000D03*
X130930000Y-76905000D03*
D34*
X130400000Y-78335000D03*
D35*
X126750000Y-76905000D03*
D34*
X130400000Y-84115000D03*
D35*
X126750000Y-85545000D03*
D36*
X170910000Y-76970000D03*
X170910000Y-74970000D03*
X170910000Y-72970000D03*
G36*
G01*
X170284999Y-70370000D02*
X171535001Y-70370000D01*
G75*
G02*
X171785000Y-70619999I0J-249999D01*
G01*
X171785000Y-71320001D01*
G75*
G02*
X171535001Y-71570000I-249999J0D01*
G01*
X170284999Y-71570000D01*
G75*
G02*
X170035000Y-71320001I0J249999D01*
G01*
X170035000Y-70619999D01*
G75*
G02*
X170284999Y-70370000I249999J0D01*
G01*
G37*
G36*
G01*
X161372050Y-61199140D02*
X162284550Y-61199140D01*
G75*
G02*
X162528300Y-61442890I0J-243750D01*
G01*
X162528300Y-61930390D01*
G75*
G02*
X162284550Y-62174140I-243750J0D01*
G01*
X161372050Y-62174140D01*
G75*
G02*
X161128300Y-61930390I0J243750D01*
G01*
X161128300Y-61442890D01*
G75*
G02*
X161372050Y-61199140I243750J0D01*
G01*
G37*
G36*
G01*
X161372050Y-59324140D02*
X162284550Y-59324140D01*
G75*
G02*
X162528300Y-59567890I0J-243750D01*
G01*
X162528300Y-60055390D01*
G75*
G02*
X162284550Y-60299140I-243750J0D01*
G01*
X161372050Y-60299140D01*
G75*
G02*
X161128300Y-60055390I0J243750D01*
G01*
X161128300Y-59567890D01*
G75*
G02*
X161372050Y-59324140I243750J0D01*
G01*
G37*
D21*
X168990000Y-85080000D03*
X171490000Y-85080000D03*
X168990000Y-82920000D03*
X171490000Y-82920000D03*
G36*
G01*
X157390001Y-89630000D02*
X156489999Y-89630000D01*
G75*
G02*
X156240000Y-89380001I0J249999D01*
G01*
X156240000Y-88729999D01*
G75*
G02*
X156489999Y-88480000I249999J0D01*
G01*
X157390001Y-88480000D01*
G75*
G02*
X157640000Y-88729999I0J-249999D01*
G01*
X157640000Y-89380001D01*
G75*
G02*
X157390001Y-89630000I-249999J0D01*
G01*
G37*
G36*
G01*
X157390001Y-91680000D02*
X156489999Y-91680000D01*
G75*
G02*
X156240000Y-91430001I0J249999D01*
G01*
X156240000Y-90779999D01*
G75*
G02*
X156489999Y-90530000I249999J0D01*
G01*
X157390001Y-90530000D01*
G75*
G02*
X157640000Y-90779999I0J-249999D01*
G01*
X157640000Y-91430001D01*
G75*
G02*
X157390001Y-91680000I-249999J0D01*
G01*
G37*
G36*
G01*
X157390001Y-83677500D02*
X156489999Y-83677500D01*
G75*
G02*
X156240000Y-83427501I0J249999D01*
G01*
X156240000Y-82777499D01*
G75*
G02*
X156489999Y-82527500I249999J0D01*
G01*
X157390001Y-82527500D01*
G75*
G02*
X157640000Y-82777499I0J-249999D01*
G01*
X157640000Y-83427501D01*
G75*
G02*
X157390001Y-83677500I-249999J0D01*
G01*
G37*
G36*
G01*
X157390001Y-85727500D02*
X156489999Y-85727500D01*
G75*
G02*
X156240000Y-85477501I0J249999D01*
G01*
X156240000Y-84827499D01*
G75*
G02*
X156489999Y-84577500I249999J0D01*
G01*
X157390001Y-84577500D01*
G75*
G02*
X157640000Y-84827499I0J-249999D01*
G01*
X157640000Y-85477501D01*
G75*
G02*
X157390001Y-85727500I-249999J0D01*
G01*
G37*
G36*
G01*
X143900001Y-89630000D02*
X142999999Y-89630000D01*
G75*
G02*
X142750000Y-89380001I0J249999D01*
G01*
X142750000Y-88729999D01*
G75*
G02*
X142999999Y-88480000I249999J0D01*
G01*
X143900001Y-88480000D01*
G75*
G02*
X144150000Y-88729999I0J-249999D01*
G01*
X144150000Y-89380001D01*
G75*
G02*
X143900001Y-89630000I-249999J0D01*
G01*
G37*
G36*
G01*
X143900001Y-91680000D02*
X142999999Y-91680000D01*
G75*
G02*
X142750000Y-91430001I0J249999D01*
G01*
X142750000Y-90779999D01*
G75*
G02*
X142999999Y-90530000I249999J0D01*
G01*
X143900001Y-90530000D01*
G75*
G02*
X144150000Y-90779999I0J-249999D01*
G01*
X144150000Y-91430001D01*
G75*
G02*
X143900001Y-91680000I-249999J0D01*
G01*
G37*
G36*
G01*
X143900001Y-83675000D02*
X142999999Y-83675000D01*
G75*
G02*
X142750000Y-83425001I0J249999D01*
G01*
X142750000Y-82774999D01*
G75*
G02*
X142999999Y-82525000I249999J0D01*
G01*
X143900001Y-82525000D01*
G75*
G02*
X144150000Y-82774999I0J-249999D01*
G01*
X144150000Y-83425001D01*
G75*
G02*
X143900001Y-83675000I-249999J0D01*
G01*
G37*
G36*
G01*
X143900001Y-85725000D02*
X142999999Y-85725000D01*
G75*
G02*
X142750000Y-85475001I0J249999D01*
G01*
X142750000Y-84824999D01*
G75*
G02*
X142999999Y-84575000I249999J0D01*
G01*
X143900001Y-84575000D01*
G75*
G02*
X144150000Y-84824999I0J-249999D01*
G01*
X144150000Y-85475001D01*
G75*
G02*
X143900001Y-85725000I-249999J0D01*
G01*
G37*
G36*
G01*
X164529999Y-72780000D02*
X165430001Y-72780000D01*
G75*
G02*
X165680000Y-73029999I0J-249999D01*
G01*
X165680000Y-73680001D01*
G75*
G02*
X165430001Y-73930000I-249999J0D01*
G01*
X164529999Y-73930000D01*
G75*
G02*
X164280000Y-73680001I0J249999D01*
G01*
X164280000Y-73029999D01*
G75*
G02*
X164529999Y-72780000I249999J0D01*
G01*
G37*
G36*
G01*
X164529999Y-70730000D02*
X165430001Y-70730000D01*
G75*
G02*
X165680000Y-70979999I0J-249999D01*
G01*
X165680000Y-71630001D01*
G75*
G02*
X165430001Y-71880000I-249999J0D01*
G01*
X164529999Y-71880000D01*
G75*
G02*
X164280000Y-71630001I0J249999D01*
G01*
X164280000Y-70979999D01*
G75*
G02*
X164529999Y-70730000I249999J0D01*
G01*
G37*
G36*
G01*
X162296665Y-72780000D02*
X163196667Y-72780000D01*
G75*
G02*
X163446666Y-73029999I0J-249999D01*
G01*
X163446666Y-73680001D01*
G75*
G02*
X163196667Y-73930000I-249999J0D01*
G01*
X162296665Y-73930000D01*
G75*
G02*
X162046666Y-73680001I0J249999D01*
G01*
X162046666Y-73029999D01*
G75*
G02*
X162296665Y-72780000I249999J0D01*
G01*
G37*
G36*
G01*
X162296665Y-70730000D02*
X163196667Y-70730000D01*
G75*
G02*
X163446666Y-70979999I0J-249999D01*
G01*
X163446666Y-71630001D01*
G75*
G02*
X163196667Y-71880000I-249999J0D01*
G01*
X162296665Y-71880000D01*
G75*
G02*
X162046666Y-71630001I0J249999D01*
G01*
X162046666Y-70979999D01*
G75*
G02*
X162296665Y-70730000I249999J0D01*
G01*
G37*
G36*
G01*
X160063332Y-72780000D02*
X160963334Y-72780000D01*
G75*
G02*
X161213333Y-73029999I0J-249999D01*
G01*
X161213333Y-73680001D01*
G75*
G02*
X160963334Y-73930000I-249999J0D01*
G01*
X160063332Y-73930000D01*
G75*
G02*
X159813333Y-73680001I0J249999D01*
G01*
X159813333Y-73029999D01*
G75*
G02*
X160063332Y-72780000I249999J0D01*
G01*
G37*
G36*
G01*
X160063332Y-70730000D02*
X160963334Y-70730000D01*
G75*
G02*
X161213333Y-70979999I0J-249999D01*
G01*
X161213333Y-71630001D01*
G75*
G02*
X160963334Y-71880000I-249999J0D01*
G01*
X160063332Y-71880000D01*
G75*
G02*
X159813333Y-71630001I0J249999D01*
G01*
X159813333Y-70979999D01*
G75*
G02*
X160063332Y-70730000I249999J0D01*
G01*
G37*
G36*
G01*
X157989999Y-72780000D02*
X158890001Y-72780000D01*
G75*
G02*
X159140000Y-73029999I0J-249999D01*
G01*
X159140000Y-73680001D01*
G75*
G02*
X158890001Y-73930000I-249999J0D01*
G01*
X157989999Y-73930000D01*
G75*
G02*
X157740000Y-73680001I0J249999D01*
G01*
X157740000Y-73029999D01*
G75*
G02*
X157989999Y-72780000I249999J0D01*
G01*
G37*
G36*
G01*
X157989999Y-70730000D02*
X158890001Y-70730000D01*
G75*
G02*
X159140000Y-70979999I0J-249999D01*
G01*
X159140000Y-71630001D01*
G75*
G02*
X158890001Y-71880000I-249999J0D01*
G01*
X157989999Y-71880000D01*
G75*
G02*
X157740000Y-71630001I0J249999D01*
G01*
X157740000Y-70979999D01*
G75*
G02*
X157989999Y-70730000I249999J0D01*
G01*
G37*
G36*
G01*
X154550000Y-80780000D02*
X155150000Y-80780000D01*
G75*
G02*
X155220000Y-80850000I0J-70000D01*
G01*
X155220000Y-82150000D01*
G75*
G02*
X155150000Y-82220000I-70000J0D01*
G01*
X154550000Y-82220000D01*
G75*
G02*
X154480000Y-82150000I0J70000D01*
G01*
X154480000Y-80850000D01*
G75*
G02*
X154550000Y-80780000I70000J0D01*
G01*
G37*
G36*
G01*
X152650000Y-80780000D02*
X153250000Y-80780000D01*
G75*
G02*
X153320000Y-80850000I0J-70000D01*
G01*
X153320000Y-82150000D01*
G75*
G02*
X153250000Y-82220000I-70000J0D01*
G01*
X152650000Y-82220000D01*
G75*
G02*
X152580000Y-82150000I0J70000D01*
G01*
X152580000Y-80850000D01*
G75*
G02*
X152650000Y-80780000I70000J0D01*
G01*
G37*
G36*
G01*
X153600000Y-82880000D02*
X154200000Y-82880000D01*
G75*
G02*
X154270000Y-82950000I0J-70000D01*
G01*
X154270000Y-84250000D01*
G75*
G02*
X154200000Y-84320000I-70000J0D01*
G01*
X153600000Y-84320000D01*
G75*
G02*
X153530000Y-84250000I0J70000D01*
G01*
X153530000Y-82950000D01*
G75*
G02*
X153600000Y-82880000I70000J0D01*
G01*
G37*
G36*
G01*
X169800000Y-80235000D02*
X169800000Y-81185000D01*
G75*
G02*
X169550000Y-81435000I-250000J0D01*
G01*
X169050000Y-81435000D01*
G75*
G02*
X168800000Y-81185000I0J250000D01*
G01*
X168800000Y-80235000D01*
G75*
G02*
X169050000Y-79985000I250000J0D01*
G01*
X169550000Y-79985000D01*
G75*
G02*
X169800000Y-80235000I0J-250000D01*
G01*
G37*
G36*
G01*
X171700000Y-80235000D02*
X171700000Y-81185000D01*
G75*
G02*
X171450000Y-81435000I-250000J0D01*
G01*
X170950000Y-81435000D01*
G75*
G02*
X170700000Y-81185000I0J250000D01*
G01*
X170700000Y-80235000D01*
G75*
G02*
X170950000Y-79985000I250000J0D01*
G01*
X171450000Y-79985000D01*
G75*
G02*
X171700000Y-80235000I0J-250000D01*
G01*
G37*
G36*
G01*
X147037499Y-51900000D02*
X149237501Y-51900000D01*
G75*
G02*
X149487500Y-52149999I0J-249999D01*
G01*
X149487500Y-52800001D01*
G75*
G02*
X149237501Y-53050000I-249999J0D01*
G01*
X147037499Y-53050000D01*
G75*
G02*
X146787500Y-52800001I0J249999D01*
G01*
X146787500Y-52149999D01*
G75*
G02*
X147037499Y-51900000I249999J0D01*
G01*
G37*
G36*
G01*
X147037499Y-48950000D02*
X149237501Y-48950000D01*
G75*
G02*
X149487500Y-49199999I0J-249999D01*
G01*
X149487500Y-49850001D01*
G75*
G02*
X149237501Y-50100000I-249999J0D01*
G01*
X147037499Y-50100000D01*
G75*
G02*
X146787500Y-49850001I0J249999D01*
G01*
X146787500Y-49199999D01*
G75*
G02*
X147037499Y-48950000I249999J0D01*
G01*
G37*
D37*
X131873000Y-51444845D02*
X131350436Y-51933000D01*
X126630812Y-51933000D01*
X126127000Y-51446119D01*
X126127000Y-45052606D01*
X127052606Y-44127000D01*
X131873000Y-44127000D01*
X131873000Y-51444845D01*
D27*
G36*
X131873000Y-51444845D02*
G01*
X131350436Y-51933000D01*
X126630812Y-51933000D01*
X126127000Y-51446119D01*
X126127000Y-45052606D01*
X127052606Y-44127000D01*
X131873000Y-44127000D01*
X131873000Y-51444845D01*
G37*
D37*
X134498000Y-46098000D02*
X133027000Y-46098000D01*
X133027000Y-45652000D01*
X134498000Y-45652000D01*
X134498000Y-46098000D01*
D27*
G36*
X134498000Y-46098000D02*
G01*
X133027000Y-46098000D01*
X133027000Y-45652000D01*
X134498000Y-45652000D01*
X134498000Y-46098000D01*
G37*
D37*
X134523000Y-47348000D02*
X133052000Y-47348000D01*
X133052000Y-46927000D01*
X134523000Y-46927000D01*
X134523000Y-47348000D01*
D27*
G36*
X134523000Y-47348000D02*
G01*
X133052000Y-47348000D01*
X133052000Y-46927000D01*
X134523000Y-46927000D01*
X134523000Y-47348000D01*
G37*
D37*
X134623000Y-48648000D02*
X133052000Y-48648000D01*
X133052000Y-48177000D01*
X134623000Y-48177000D01*
X134623000Y-48648000D01*
D27*
G36*
X134623000Y-48648000D02*
G01*
X133052000Y-48648000D01*
X133052000Y-48177000D01*
X134623000Y-48177000D01*
X134623000Y-48648000D01*
G37*
D37*
X166624000Y-50165000D02*
X134620000Y-50165000D01*
X134620000Y-45466000D01*
X166624000Y-45466000D01*
X166624000Y-50165000D01*
D27*
G36*
X166624000Y-50165000D02*
G01*
X134620000Y-50165000D01*
X134620000Y-45466000D01*
X166624000Y-45466000D01*
X166624000Y-50165000D01*
G37*
D38*
X135494978Y-55715000D02*
X133810000Y-55715000D01*
X133787565Y-55717210D01*
X133765991Y-55723754D01*
X133746109Y-55734381D01*
X133728683Y-55748683D01*
X132879442Y-56597925D01*
X132865140Y-56615351D01*
X132857246Y-56630120D01*
X132132366Y-57355000D01*
X127015000Y-57355000D01*
X127015000Y-55835000D01*
X130430000Y-55835000D01*
X130452435Y-55832790D01*
X130474009Y-55826246D01*
X130493891Y-55815619D01*
X130511128Y-55801506D01*
X132637478Y-53685000D01*
X135494580Y-53685000D01*
X135494978Y-55715000D01*
D27*
G36*
X135494978Y-55715000D02*
G01*
X133810000Y-55715000D01*
X133787565Y-55717210D01*
X133765991Y-55723754D01*
X133746109Y-55734381D01*
X133728683Y-55748683D01*
X132879442Y-56597925D01*
X132865140Y-56615351D01*
X132857246Y-56630120D01*
X132132366Y-57355000D01*
X127015000Y-57355000D01*
X127015000Y-55835000D01*
X130430000Y-55835000D01*
X130452435Y-55832790D01*
X130474009Y-55826246D01*
X130493891Y-55815619D01*
X130511128Y-55801506D01*
X132637478Y-53685000D01*
X135494580Y-53685000D01*
X135494978Y-55715000D01*
G37*
D38*
X129485000Y-65465000D02*
X127595000Y-65465000D01*
X127595000Y-56515000D01*
X129485000Y-56515000D01*
X129485000Y-65465000D01*
D27*
G36*
X129485000Y-65465000D02*
G01*
X127595000Y-65465000D01*
X127595000Y-56515000D01*
X129485000Y-56515000D01*
X129485000Y-65465000D01*
G37*
M02*
