G04 #@! TF.GenerationSoftware,KiCad,Pcbnew,6.0.4-6f826c9f35~116~ubuntu18.04.1*
G04 #@! TF.CreationDate,2022-04-26T12:07:31+08:00*
G04 #@! TF.ProjectId,ESP32_CAN_TEST,45535033-325f-4434-914e-5f544553542e,rev?*
G04 #@! TF.SameCoordinates,Original*
G04 #@! TF.FileFunction,Copper,L2,Bot*
G04 #@! TF.FilePolarity,Positive*
%FSLAX46Y46*%
G04 Gerber Fmt 4.6, Leading zero omitted, Abs format (unit mm)*
G04 Created by KiCad (PCBNEW 6.0.4-6f826c9f35~116~ubuntu18.04.1) date 2022-04-26 12:07:31*
%MOMM*%
%LPD*%
G01*
G04 APERTURE LIST*
G04 Aperture macros list*
%AMRoundRect*
0 Rectangle with rounded corners*
0 $1 Rounding radius*
0 $2 $3 $4 $5 $6 $7 $8 $9 X,Y pos of 4 corners*
0 Add a 4 corners polygon primitive as box body*
4,1,4,$2,$3,$4,$5,$6,$7,$8,$9,$2,$3,0*
0 Add four circle primitives for the rounded corners*
1,1,$1+$1,$2,$3*
1,1,$1+$1,$4,$5*
1,1,$1+$1,$6,$7*
1,1,$1+$1,$8,$9*
0 Add four rect primitives between the rounded corners*
20,1,$1+$1,$2,$3,$4,$5,0*
20,1,$1+$1,$4,$5,$6,$7,0*
20,1,$1+$1,$6,$7,$8,$9,0*
20,1,$1+$1,$8,$9,$2,$3,0*%
G04 Aperture macros list end*
G04 #@! TA.AperFunction,ComponentPad*
%ADD10RoundRect,0.250000X0.750000X-0.600000X0.750000X0.600000X-0.750000X0.600000X-0.750000X-0.600000X0*%
G04 #@! TD*
G04 #@! TA.AperFunction,ComponentPad*
%ADD11O,2.000000X1.700000*%
G04 #@! TD*
G04 #@! TA.AperFunction,ComponentPad*
%ADD12RoundRect,0.250001X0.499999X-0.499999X0.499999X0.499999X-0.499999X0.499999X-0.499999X-0.499999X0*%
G04 #@! TD*
G04 #@! TA.AperFunction,ComponentPad*
%ADD13C,1.500000*%
G04 #@! TD*
G04 #@! TA.AperFunction,ComponentPad*
%ADD14R,1.700000X1.700000*%
G04 #@! TD*
G04 #@! TA.AperFunction,ComponentPad*
%ADD15O,1.700000X1.700000*%
G04 #@! TD*
G04 #@! TA.AperFunction,ComponentPad*
%ADD16R,2.600000X2.600000*%
G04 #@! TD*
G04 #@! TA.AperFunction,ComponentPad*
%ADD17C,2.600000*%
G04 #@! TD*
G04 #@! TA.AperFunction,SMDPad,CuDef*
%ADD18RoundRect,0.250000X0.450000X-0.262500X0.450000X0.262500X-0.450000X0.262500X-0.450000X-0.262500X0*%
G04 #@! TD*
G04 #@! TA.AperFunction,SMDPad,CuDef*
%ADD19R,1.500000X2.000000*%
G04 #@! TD*
G04 #@! TA.AperFunction,SMDPad,CuDef*
%ADD20R,3.800000X2.000000*%
G04 #@! TD*
G04 #@! TA.AperFunction,SMDPad,CuDef*
%ADD21RoundRect,0.250000X0.475000X-0.250000X0.475000X0.250000X-0.475000X0.250000X-0.475000X-0.250000X0*%
G04 #@! TD*
G04 #@! TA.AperFunction,SMDPad,CuDef*
%ADD22RoundRect,0.150000X-0.587500X-0.150000X0.587500X-0.150000X0.587500X0.150000X-0.587500X0.150000X0*%
G04 #@! TD*
G04 #@! TA.AperFunction,SMDPad,CuDef*
%ADD23RoundRect,0.250000X-0.337500X-0.475000X0.337500X-0.475000X0.337500X0.475000X-0.337500X0.475000X0*%
G04 #@! TD*
G04 #@! TA.AperFunction,SMDPad,CuDef*
%ADD24RoundRect,0.250000X-0.475000X0.250000X-0.475000X-0.250000X0.475000X-0.250000X0.475000X0.250000X0*%
G04 #@! TD*
G04 #@! TA.AperFunction,SMDPad,CuDef*
%ADD25RoundRect,0.250000X0.450000X-0.350000X0.450000X0.350000X-0.450000X0.350000X-0.450000X-0.350000X0*%
G04 #@! TD*
G04 #@! TA.AperFunction,SMDPad,CuDef*
%ADD26R,1.500000X1.000000*%
G04 #@! TD*
G04 #@! TA.AperFunction,SMDPad,CuDef*
%ADD27RoundRect,0.150000X-0.825000X-0.150000X0.825000X-0.150000X0.825000X0.150000X-0.825000X0.150000X0*%
G04 #@! TD*
G04 #@! TA.AperFunction,SMDPad,CuDef*
%ADD28RoundRect,0.250000X-0.450000X0.262500X-0.450000X-0.262500X0.450000X-0.262500X0.450000X0.262500X0*%
G04 #@! TD*
G04 #@! TA.AperFunction,ViaPad*
%ADD29C,0.800000*%
G04 #@! TD*
G04 #@! TA.AperFunction,ViaPad*
%ADD30C,5.000000*%
G04 #@! TD*
G04 #@! TA.AperFunction,ViaPad*
%ADD31C,1.200000*%
G04 #@! TD*
G04 #@! TA.AperFunction,Conductor*
%ADD32C,1.000000*%
G04 #@! TD*
G04 #@! TA.AperFunction,Conductor*
%ADD33C,0.500000*%
G04 #@! TD*
G04 #@! TA.AperFunction,Conductor*
%ADD34C,1.500000*%
G04 #@! TD*
G04 #@! TA.AperFunction,Conductor*
%ADD35C,0.350000*%
G04 #@! TD*
G04 APERTURE END LIST*
D10*
X136144000Y-83038000D03*
D11*
X136144000Y-80538000D03*
D12*
X140325000Y-69572000D03*
D13*
X140325000Y-66572000D03*
X143325000Y-69572000D03*
X143325000Y-66572000D03*
D14*
X109992000Y-47727000D03*
D15*
X112532000Y-47727000D03*
X115072000Y-47727000D03*
X117612000Y-47727000D03*
D14*
X142240000Y-49784000D03*
D15*
X142240000Y-52324000D03*
X142240000Y-54864000D03*
X142240000Y-57404000D03*
X142240000Y-59944000D03*
D14*
X127508000Y-45720000D03*
D15*
X130048000Y-45720000D03*
X132588000Y-45720000D03*
X135128000Y-45720000D03*
X137668000Y-45720000D03*
D16*
X111800000Y-81077000D03*
D17*
X116800000Y-81077000D03*
D14*
X109992000Y-43155000D03*
D15*
X112532000Y-43155000D03*
X115072000Y-43155000D03*
X117612000Y-43155000D03*
D18*
X127000000Y-65936500D03*
X127000000Y-64111500D03*
X118364000Y-64516000D03*
X118364000Y-62691000D03*
D19*
X130824000Y-82398000D03*
D20*
X128524000Y-76098000D03*
D19*
X128524000Y-82398000D03*
X126224000Y-82398000D03*
D21*
X121920000Y-84770000D03*
X121920000Y-82870000D03*
D22*
X121490500Y-64450000D03*
X121490500Y-62550000D03*
X123365500Y-63500000D03*
D18*
X118364000Y-60452000D03*
X118364000Y-58627000D03*
D23*
X135614500Y-56896000D03*
X137689500Y-56896000D03*
D24*
X122936000Y-76774000D03*
X122936000Y-78674000D03*
D25*
X140208000Y-77866000D03*
X140208000Y-75866000D03*
D26*
X142748000Y-76200000D03*
X142748000Y-77500000D03*
D27*
X130621000Y-63373000D03*
X130621000Y-62103000D03*
X130621000Y-60833000D03*
X130621000Y-59563000D03*
X135571000Y-59563000D03*
X135571000Y-60833000D03*
X135571000Y-62103000D03*
X135571000Y-63373000D03*
D28*
X127000000Y-56999500D03*
X127000000Y-58824500D03*
D22*
X121490500Y-60386000D03*
X121490500Y-58486000D03*
X123365500Y-59436000D03*
D29*
X133604000Y-82804000D03*
X138176000Y-58928000D03*
X137160000Y-76708000D03*
X141732000Y-81280000D03*
X124460000Y-78232000D03*
D30*
X104140000Y-43180000D03*
X104140000Y-83820000D03*
X144780000Y-83820000D03*
X144780000Y-43180000D03*
D31*
X116332000Y-72644000D03*
D29*
X124460000Y-61468000D03*
X131064000Y-67564000D03*
X130048000Y-54864000D03*
X119888000Y-61468000D03*
X120904000Y-54864000D03*
D32*
X116332000Y-66040000D02*
X113792000Y-63500000D01*
X109992000Y-43155000D02*
X109992000Y-47727000D01*
X114808000Y-64516000D02*
X118364000Y-64516000D01*
D33*
X121490500Y-64450000D02*
X118430000Y-64450000D01*
X121490500Y-60386000D02*
X118430000Y-60386000D01*
D34*
X122936000Y-76774000D02*
X120462000Y-76774000D01*
D32*
X109992000Y-47727000D02*
X109992000Y-55636000D01*
D33*
X118430000Y-64450000D02*
X118364000Y-64516000D01*
D34*
X120462000Y-76774000D02*
X116332000Y-72644000D01*
D32*
X116332000Y-72644000D02*
X116332000Y-66040000D01*
X109992000Y-55636000D02*
X113792000Y-59436000D01*
D33*
X118430000Y-60386000D02*
X118364000Y-60452000D01*
D32*
X113792000Y-59436000D02*
X114808000Y-60452000D01*
X113792000Y-59436000D02*
X113792000Y-63500000D01*
D34*
X123612000Y-76098000D02*
X122936000Y-76774000D01*
D32*
X113792000Y-63500000D02*
X114808000Y-64516000D01*
D34*
X128524000Y-76098000D02*
X123612000Y-76098000D01*
D32*
X114808000Y-60452000D02*
X118364000Y-60452000D01*
X127508000Y-47244000D02*
X130048000Y-49784000D01*
D34*
X133096000Y-55372000D02*
X138684000Y-49784000D01*
D33*
X132992500Y-56999500D02*
X133096000Y-56896000D01*
D34*
X134346000Y-84836000D02*
X136144000Y-83038000D01*
D33*
X133096000Y-56896000D02*
X133096000Y-55372000D01*
D34*
X133604000Y-67056000D02*
X133096000Y-66548000D01*
X133604000Y-67056000D02*
X135128000Y-68580000D01*
D32*
X130048000Y-49784000D02*
X138684000Y-49784000D01*
D34*
X126224000Y-82398000D02*
X123786000Y-84836000D01*
D35*
X134112000Y-56896000D02*
X133096000Y-57912000D01*
D33*
X132484500Y-65936500D02*
X127000000Y-65936500D01*
D34*
X111800000Y-81320000D02*
X111800000Y-81077000D01*
X133096000Y-57912000D02*
X133096000Y-55372000D01*
X123786000Y-84836000D02*
X115316000Y-84836000D01*
X123786000Y-84836000D02*
X134346000Y-84836000D01*
X138684000Y-49784000D02*
X142240000Y-49784000D01*
D32*
X127508000Y-45720000D02*
X127508000Y-47244000D01*
D34*
X133096000Y-60960000D02*
X133096000Y-57912000D01*
D33*
X130621000Y-60833000D02*
X132969000Y-60833000D01*
D34*
X133096000Y-66548000D02*
X133096000Y-60960000D01*
X126224000Y-81040000D02*
X126224000Y-82398000D01*
D33*
X132969000Y-60833000D02*
X133096000Y-60960000D01*
D34*
X135128000Y-75692000D02*
X131572000Y-79248000D01*
X131572000Y-79248000D02*
X128016000Y-79248000D01*
X128016000Y-79248000D02*
X126224000Y-81040000D01*
D35*
X135614500Y-56896000D02*
X134112000Y-56896000D01*
D33*
X133604000Y-67056000D02*
X132484500Y-65936500D01*
X127000000Y-56999500D02*
X132992500Y-56999500D01*
D34*
X115316000Y-84836000D02*
X111800000Y-81320000D01*
X135128000Y-68580000D02*
X135128000Y-75692000D01*
D33*
X139700000Y-61976000D02*
X139700000Y-64008000D01*
X135571000Y-60833000D02*
X138557000Y-60833000D01*
X139700000Y-64008000D02*
X141732000Y-66040000D01*
X138557000Y-60833000D02*
X139700000Y-61976000D01*
X140208000Y-69689000D02*
X140208000Y-72644000D01*
X142748000Y-75184000D02*
X142748000Y-76200000D01*
X141732000Y-68165000D02*
X140208000Y-69689000D01*
X141732000Y-66040000D02*
X141732000Y-68165000D01*
X140208000Y-72644000D02*
X142748000Y-75184000D01*
X138684000Y-72644000D02*
X138684000Y-68213000D01*
X140208000Y-74168000D02*
X138684000Y-72644000D01*
X138684000Y-68213000D02*
X140325000Y-66572000D01*
X138684000Y-64931000D02*
X138684000Y-62484000D01*
X140325000Y-66572000D02*
X138684000Y-64931000D01*
X138303000Y-62103000D02*
X135571000Y-62103000D01*
X140208000Y-75866000D02*
X140208000Y-74168000D01*
X138684000Y-62484000D02*
X138303000Y-62103000D01*
D35*
X140208000Y-77866000D02*
X142382000Y-77866000D01*
X142382000Y-77866000D02*
X142748000Y-77500000D01*
D33*
X119888000Y-61468000D02*
X119888000Y-61976000D01*
X119888000Y-61976000D02*
X120462000Y-62550000D01*
X118505000Y-62550000D02*
X118364000Y-62691000D01*
X120462000Y-62550000D02*
X118505000Y-62550000D01*
X120462000Y-62550000D02*
X121490500Y-62550000D01*
D35*
X120904000Y-57899500D02*
X121490500Y-58486000D01*
X118505000Y-58486000D02*
X118364000Y-58627000D01*
X120904000Y-54864000D02*
X120904000Y-57899500D01*
X121490500Y-58486000D02*
X118505000Y-58486000D01*
X123365500Y-63500000D02*
X126388500Y-63500000D01*
X130621000Y-63373000D02*
X127738500Y-63373000D01*
X127738500Y-63373000D02*
X127000000Y-64111500D01*
X126388500Y-63500000D02*
X127000000Y-64111500D01*
X126388500Y-59436000D02*
X127000000Y-58824500D01*
X123365500Y-59436000D02*
X126388500Y-59436000D01*
X127738500Y-59563000D02*
X127000000Y-58824500D01*
X130621000Y-59563000D02*
X127738500Y-59563000D01*
G04 #@! TA.AperFunction,Conductor*
G36*
X142358920Y-41168502D02*
G01*
X142405413Y-41222158D01*
X142415517Y-41292432D01*
X142389954Y-41352244D01*
X142305386Y-41460098D01*
X142303493Y-41463187D01*
X142303491Y-41463190D01*
X142257233Y-41538676D01*
X142124105Y-41755921D01*
X142122580Y-41759206D01*
X142122578Y-41759210D01*
X142056879Y-41900747D01*
X141978027Y-42070620D01*
X141931670Y-42210791D01*
X141901703Y-42301403D01*
X141869087Y-42400023D01*
X141868351Y-42403578D01*
X141868350Y-42403581D01*
X141850793Y-42488360D01*
X141798730Y-42739764D01*
X141767888Y-43085341D01*
X141767983Y-43088971D01*
X141767983Y-43088972D01*
X141770367Y-43180000D01*
X141776970Y-43432171D01*
X141825856Y-43775660D01*
X141913897Y-44111253D01*
X142039927Y-44434503D01*
X142054584Y-44462185D01*
X142175113Y-44689825D01*
X142202275Y-44741126D01*
X142204325Y-44744109D01*
X142204327Y-44744112D01*
X142396733Y-45024064D01*
X142396739Y-45024071D01*
X142398790Y-45027056D01*
X142626866Y-45288505D01*
X142629551Y-45290948D01*
X142850881Y-45492342D01*
X142883481Y-45522006D01*
X143165233Y-45724466D01*
X143468388Y-45893200D01*
X143788928Y-46025972D01*
X143792422Y-46026967D01*
X143792424Y-46026968D01*
X144119103Y-46120025D01*
X144119108Y-46120026D01*
X144122604Y-46121022D01*
X144319304Y-46153233D01*
X144461412Y-46176504D01*
X144461419Y-46176505D01*
X144464993Y-46177090D01*
X144638276Y-46185262D01*
X144807931Y-46193263D01*
X144807932Y-46193263D01*
X144811558Y-46193434D01*
X144820415Y-46192830D01*
X145154073Y-46170084D01*
X145154081Y-46170083D01*
X145157704Y-46169836D01*
X145161279Y-46169173D01*
X145161282Y-46169173D01*
X145495279Y-46107270D01*
X145495283Y-46107269D01*
X145498844Y-46106609D01*
X145830456Y-46004592D01*
X146148145Y-45865136D01*
X146392511Y-45722341D01*
X146444560Y-45691926D01*
X146444562Y-45691925D01*
X146447700Y-45690091D01*
X146475647Y-45669108D01*
X146609847Y-45568348D01*
X146676332Y-45543442D01*
X146745728Y-45558434D01*
X146796001Y-45608565D01*
X146811500Y-45669108D01*
X146811500Y-81325176D01*
X146791498Y-81393297D01*
X146737842Y-81439790D01*
X146667568Y-81449894D01*
X146608420Y-81423139D01*
X146607669Y-81424129D01*
X146604775Y-81421932D01*
X146602019Y-81419578D01*
X146599016Y-81417560D01*
X146599008Y-81417554D01*
X146394729Y-81280285D01*
X146314047Y-81226069D01*
X146005741Y-81066940D01*
X145681189Y-80944302D01*
X145677668Y-80943418D01*
X145677663Y-80943416D01*
X145516378Y-80902904D01*
X145344692Y-80859780D01*
X145322476Y-80856855D01*
X145004315Y-80814968D01*
X145004307Y-80814967D01*
X145000711Y-80814494D01*
X144856045Y-80812221D01*
X144657446Y-80809101D01*
X144657442Y-80809101D01*
X144653804Y-80809044D01*
X144650190Y-80809405D01*
X144650184Y-80809405D01*
X144406843Y-80833694D01*
X144308569Y-80843503D01*
X143969583Y-80917414D01*
X143966156Y-80918587D01*
X143966150Y-80918589D01*
X143865434Y-80953072D01*
X143641339Y-81029797D01*
X143328188Y-81179163D01*
X143034279Y-81363532D01*
X143031443Y-81365804D01*
X143031436Y-81365809D01*
X142958641Y-81424129D01*
X142763509Y-81580459D01*
X142519466Y-81827071D01*
X142517225Y-81829929D01*
X142460732Y-81901978D01*
X142305386Y-82100098D01*
X142303493Y-82103187D01*
X142303491Y-82103190D01*
X142257233Y-82178676D01*
X142124105Y-82395921D01*
X142122580Y-82399206D01*
X142122578Y-82399210D01*
X142083505Y-82483386D01*
X141978027Y-82710620D01*
X141938292Y-82830767D01*
X141907986Y-82922405D01*
X141869087Y-83040023D01*
X141798730Y-83379764D01*
X141780897Y-83579578D01*
X141774868Y-83647137D01*
X141767888Y-83725341D01*
X141767983Y-83728971D01*
X141767983Y-83728972D01*
X141775249Y-84006434D01*
X141776970Y-84072171D01*
X141825856Y-84415660D01*
X141913897Y-84751253D01*
X142039927Y-85074503D01*
X142056997Y-85106742D01*
X142175113Y-85329825D01*
X142202275Y-85381126D01*
X142204325Y-85384109D01*
X142204327Y-85384112D01*
X142389908Y-85654133D01*
X142412008Y-85721602D01*
X142394123Y-85790309D01*
X142341931Y-85838440D01*
X142286068Y-85851500D01*
X138728663Y-85851500D01*
X138660542Y-85831498D01*
X138614049Y-85777842D01*
X138603945Y-85707568D01*
X138633439Y-85642988D01*
X138670971Y-85613484D01*
X138740249Y-85577804D01*
X138740252Y-85577802D01*
X138745580Y-85575058D01*
X138911920Y-85444396D01*
X138915852Y-85439865D01*
X138915855Y-85439862D01*
X139046621Y-85289167D01*
X139050552Y-85284637D01*
X139053552Y-85279451D01*
X139053555Y-85279447D01*
X139153467Y-85106742D01*
X139156473Y-85101546D01*
X139225861Y-84901729D01*
X139247679Y-84751253D01*
X139255352Y-84698336D01*
X139255352Y-84698333D01*
X139256213Y-84692396D01*
X139246433Y-84481101D01*
X139196875Y-84275466D01*
X139109326Y-84082913D01*
X138986946Y-83910389D01*
X138834150Y-83764119D01*
X138656452Y-83649380D01*
X138596354Y-83625160D01*
X138465832Y-83572558D01*
X138465829Y-83572557D01*
X138460263Y-83570314D01*
X138252663Y-83529772D01*
X138247101Y-83529500D01*
X138091154Y-83529500D01*
X137933434Y-83544548D01*
X137813969Y-83579595D01*
X137742973Y-83579578D01*
X137683256Y-83541180D01*
X137653778Y-83476592D01*
X137652500Y-83458690D01*
X137652500Y-82387600D01*
X137641526Y-82281834D01*
X137585550Y-82114054D01*
X137492478Y-81963652D01*
X137367303Y-81838695D01*
X137353082Y-81829929D01*
X137222968Y-81749725D01*
X137222966Y-81749724D01*
X137216738Y-81745885D01*
X137056254Y-81692655D01*
X137055389Y-81692368D01*
X137055387Y-81692368D01*
X137048861Y-81690203D01*
X137042025Y-81689503D01*
X137042022Y-81689502D01*
X136998969Y-81685091D01*
X136944400Y-81679500D01*
X135343600Y-81679500D01*
X135340354Y-81679837D01*
X135340350Y-81679837D01*
X135244692Y-81689762D01*
X135244688Y-81689763D01*
X135237834Y-81690474D01*
X135231298Y-81692655D01*
X135231296Y-81692655D01*
X135099194Y-81736728D01*
X135070054Y-81746450D01*
X134919652Y-81839522D01*
X134794695Y-81964697D01*
X134701885Y-82115262D01*
X134646203Y-82283139D01*
X134635500Y-82387600D01*
X134635500Y-82714522D01*
X134615498Y-82782643D01*
X134598595Y-82803618D01*
X133861616Y-83540596D01*
X133799304Y-83574621D01*
X133772521Y-83577500D01*
X129908209Y-83577500D01*
X129840088Y-83557498D01*
X129793595Y-83503842D01*
X129782670Y-83446134D01*
X129782500Y-83446134D01*
X129782500Y-81349866D01*
X129775745Y-81287684D01*
X129724615Y-81151295D01*
X129637261Y-81034739D01*
X129520705Y-80947385D01*
X129384316Y-80896255D01*
X129322134Y-80889500D01*
X128458477Y-80889500D01*
X128390356Y-80869498D01*
X128343863Y-80815842D01*
X128333759Y-80745568D01*
X128363253Y-80680988D01*
X128369382Y-80674405D01*
X128500382Y-80543405D01*
X128562694Y-80509379D01*
X128589477Y-80506500D01*
X131480604Y-80506500D01*
X131497051Y-80507578D01*
X131513516Y-80509746D01*
X131513520Y-80509746D01*
X131519086Y-80510479D01*
X131600489Y-80506640D01*
X131606424Y-80506500D01*
X131628999Y-80506500D01*
X131654989Y-80504181D01*
X131660248Y-80503822D01*
X131743488Y-80499896D01*
X131748947Y-80498646D01*
X131748952Y-80498645D01*
X131760970Y-80495892D01*
X131777899Y-80493211D01*
X131795762Y-80491617D01*
X131801178Y-80490135D01*
X131801180Y-80490135D01*
X131876133Y-80469630D01*
X131881251Y-80468344D01*
X131957000Y-80450995D01*
X131957002Y-80450994D01*
X131962470Y-80449742D01*
X131972970Y-80445263D01*
X131978967Y-80442706D01*
X131995142Y-80437073D01*
X132007039Y-80433818D01*
X132007043Y-80433817D01*
X132012451Y-80432337D01*
X132087667Y-80396461D01*
X132092476Y-80394290D01*
X132163949Y-80363804D01*
X132163950Y-80363804D01*
X132169109Y-80361603D01*
X132184110Y-80351749D01*
X132199025Y-80343346D01*
X132215218Y-80335622D01*
X132219769Y-80332352D01*
X132219772Y-80332350D01*
X132282881Y-80287001D01*
X132287232Y-80284011D01*
X132353010Y-80240804D01*
X132353018Y-80240798D01*
X132356874Y-80238265D01*
X132377662Y-80219743D01*
X132387939Y-80211510D01*
X132397654Y-80204529D01*
X132472063Y-80127745D01*
X132473452Y-80126335D01*
X135953263Y-76646525D01*
X135965654Y-76635657D01*
X135978848Y-76625533D01*
X135983292Y-76622123D01*
X136038158Y-76561826D01*
X136042257Y-76557531D01*
X136058198Y-76541590D01*
X136074942Y-76521564D01*
X136078401Y-76517599D01*
X136130708Y-76460115D01*
X136130709Y-76460114D01*
X136134485Y-76455964D01*
X136144016Y-76440770D01*
X136154085Y-76426910D01*
X136165593Y-76413147D01*
X136206869Y-76340782D01*
X136209579Y-76336253D01*
X136250885Y-76270405D01*
X136253864Y-76265656D01*
X136260553Y-76249017D01*
X136268012Y-76233587D01*
X136274119Y-76222881D01*
X136274123Y-76222872D01*
X136276898Y-76218007D01*
X136304712Y-76139462D01*
X136306573Y-76134537D01*
X136335561Y-76062428D01*
X136337656Y-76057217D01*
X136341296Y-76039639D01*
X136345902Y-76023146D01*
X136351888Y-76006241D01*
X136365352Y-75924021D01*
X136366314Y-75918833D01*
X136382276Y-75841756D01*
X136383213Y-75837233D01*
X136384816Y-75809437D01*
X136386263Y-75796331D01*
X136387286Y-75790086D01*
X136387287Y-75790079D01*
X136388193Y-75784543D01*
X136386516Y-75677769D01*
X136386500Y-75675791D01*
X136386500Y-68671395D01*
X136387578Y-68654948D01*
X136389746Y-68638483D01*
X136389746Y-68638479D01*
X136390479Y-68632913D01*
X136386640Y-68551510D01*
X136386500Y-68545575D01*
X136386500Y-68523001D01*
X136384181Y-68497013D01*
X136383822Y-68491750D01*
X136380160Y-68414112D01*
X136379896Y-68408511D01*
X136378645Y-68403048D01*
X136378644Y-68403042D01*
X136375893Y-68391032D01*
X136373211Y-68374099D01*
X136372116Y-68361832D01*
X136371617Y-68356238D01*
X136365114Y-68332465D01*
X136354453Y-68293498D01*
X136349624Y-68275848D01*
X136348341Y-68270739D01*
X136341265Y-68239842D01*
X136329742Y-68189530D01*
X136322706Y-68173033D01*
X136317073Y-68156858D01*
X136313818Y-68144961D01*
X136313817Y-68144957D01*
X136312337Y-68139549D01*
X136276461Y-68064333D01*
X136274290Y-68059524D01*
X136243804Y-67988051D01*
X136243804Y-67988050D01*
X136241603Y-67982891D01*
X136231749Y-67967890D01*
X136223343Y-67952970D01*
X136218035Y-67941841D01*
X136215622Y-67936782D01*
X136212354Y-67932234D01*
X136212351Y-67932229D01*
X136166998Y-67869114D01*
X136164009Y-67864765D01*
X136118265Y-67795125D01*
X136099747Y-67774341D01*
X136091498Y-67764045D01*
X136087804Y-67758904D01*
X136084529Y-67754346D01*
X136007777Y-67679968D01*
X136006367Y-67678579D01*
X134391405Y-66063617D01*
X134357379Y-66001305D01*
X134354500Y-65974522D01*
X134354500Y-62992803D01*
X134374502Y-62924682D01*
X134428158Y-62878189D01*
X134498432Y-62868085D01*
X134515652Y-62871806D01*
X134642169Y-62908562D01*
X134648574Y-62909066D01*
X134648579Y-62909067D01*
X134677042Y-62911307D01*
X134677050Y-62911307D01*
X134679498Y-62911500D01*
X136462502Y-62911500D01*
X136464950Y-62911307D01*
X136464958Y-62911307D01*
X136493421Y-62909067D01*
X136493426Y-62909066D01*
X136499831Y-62908562D01*
X136506007Y-62906768D01*
X136506011Y-62906767D01*
X136644602Y-62866503D01*
X136679754Y-62861500D01*
X137799500Y-62861500D01*
X137867621Y-62881502D01*
X137914114Y-62935158D01*
X137925500Y-62987500D01*
X137925500Y-64863930D01*
X137924067Y-64882880D01*
X137920801Y-64904349D01*
X137921394Y-64911641D01*
X137921394Y-64911644D01*
X137925085Y-64957018D01*
X137925500Y-64967233D01*
X137925500Y-64975293D01*
X137925925Y-64978937D01*
X137928789Y-65003507D01*
X137929222Y-65007882D01*
X137934103Y-65067886D01*
X137935140Y-65080637D01*
X137937396Y-65087601D01*
X137938587Y-65093560D01*
X137939971Y-65099415D01*
X137940818Y-65106681D01*
X137965735Y-65175327D01*
X137967152Y-65179455D01*
X137980358Y-65220218D01*
X137989649Y-65248899D01*
X137993445Y-65255154D01*
X137995951Y-65260628D01*
X137998670Y-65266058D01*
X138001167Y-65272937D01*
X138005180Y-65279057D01*
X138005180Y-65279058D01*
X138041186Y-65333976D01*
X138043523Y-65337680D01*
X138081405Y-65400107D01*
X138085121Y-65404315D01*
X138085122Y-65404316D01*
X138088803Y-65408484D01*
X138088776Y-65408508D01*
X138091429Y-65411500D01*
X138094132Y-65414733D01*
X138098144Y-65420852D01*
X138103456Y-65425884D01*
X138154383Y-65474128D01*
X138156825Y-65476506D01*
X139035482Y-66355163D01*
X139069508Y-66417475D01*
X139071908Y-66455239D01*
X139062172Y-66566524D01*
X139061693Y-66572000D01*
X139062172Y-66577475D01*
X139062172Y-66577476D01*
X139071908Y-66688761D01*
X139057919Y-66758365D01*
X139035482Y-66788837D01*
X138195089Y-67629230D01*
X138180677Y-67641616D01*
X138169082Y-67650149D01*
X138169077Y-67650154D01*
X138163182Y-67654492D01*
X138158443Y-67660070D01*
X138158440Y-67660073D01*
X138128965Y-67694768D01*
X138122035Y-67702284D01*
X138116340Y-67707979D01*
X138114060Y-67710861D01*
X138098719Y-67730251D01*
X138095928Y-67733655D01*
X138074294Y-67759120D01*
X138048667Y-67789285D01*
X138045339Y-67795801D01*
X138041972Y-67800850D01*
X138038805Y-67805979D01*
X138034266Y-67811716D01*
X138003345Y-67877875D01*
X138001442Y-67881769D01*
X137968231Y-67946808D01*
X137966492Y-67953916D01*
X137964393Y-67959559D01*
X137962476Y-67965322D01*
X137959378Y-67971950D01*
X137957888Y-67979112D01*
X137957888Y-67979113D01*
X137944514Y-68043412D01*
X137943544Y-68047696D01*
X137926192Y-68118610D01*
X137925500Y-68129764D01*
X137925464Y-68129762D01*
X137925225Y-68133755D01*
X137924851Y-68137947D01*
X137923360Y-68145115D01*
X137923558Y-68152432D01*
X137925454Y-68222521D01*
X137925500Y-68225928D01*
X137925500Y-72576930D01*
X137924067Y-72595880D01*
X137920801Y-72617349D01*
X137921394Y-72624641D01*
X137921394Y-72624644D01*
X137925085Y-72670018D01*
X137925500Y-72680233D01*
X137925500Y-72688293D01*
X137925925Y-72691937D01*
X137928789Y-72716507D01*
X137929222Y-72720882D01*
X137933687Y-72775768D01*
X137935140Y-72793637D01*
X137937396Y-72800601D01*
X137938587Y-72806560D01*
X137939971Y-72812415D01*
X137940818Y-72819681D01*
X137965735Y-72888327D01*
X137967152Y-72892455D01*
X137986319Y-72951619D01*
X137989649Y-72961899D01*
X137993445Y-72968154D01*
X137995951Y-72973628D01*
X137998670Y-72979058D01*
X138001167Y-72985937D01*
X138005180Y-72992057D01*
X138005180Y-72992058D01*
X138041186Y-73046976D01*
X138043523Y-73050680D01*
X138081405Y-73113107D01*
X138085121Y-73117315D01*
X138085122Y-73117316D01*
X138088803Y-73121484D01*
X138088776Y-73121508D01*
X138091429Y-73124500D01*
X138094132Y-73127733D01*
X138098144Y-73133852D01*
X138154383Y-73187128D01*
X138156825Y-73189506D01*
X139412595Y-74445276D01*
X139446621Y-74507588D01*
X139449500Y-74534371D01*
X139449500Y-74744689D01*
X139429498Y-74812810D01*
X139389804Y-74851833D01*
X139283652Y-74917522D01*
X139158695Y-75042697D01*
X139154855Y-75048927D01*
X139154854Y-75048928D01*
X139085496Y-75161448D01*
X139065885Y-75193262D01*
X139039436Y-75273005D01*
X139015915Y-75343919D01*
X139010203Y-75361139D01*
X138999500Y-75465600D01*
X138999500Y-76266400D01*
X138999837Y-76269646D01*
X138999837Y-76269650D01*
X139007218Y-76340782D01*
X139010474Y-76372166D01*
X139066450Y-76539946D01*
X139159522Y-76690348D01*
X139164704Y-76695521D01*
X139246109Y-76776784D01*
X139280188Y-76839066D01*
X139275185Y-76909886D01*
X139246264Y-76954975D01*
X139245957Y-76955283D01*
X139158695Y-77042697D01*
X139154855Y-77048927D01*
X139154854Y-77048928D01*
X139097042Y-77142717D01*
X139065885Y-77193262D01*
X139063581Y-77200209D01*
X139018443Y-77336297D01*
X139010203Y-77361139D01*
X138999500Y-77465600D01*
X138999500Y-78266400D01*
X138999837Y-78269646D01*
X138999837Y-78269650D01*
X139002520Y-78295503D01*
X139010474Y-78372166D01*
X139066450Y-78539946D01*
X139159522Y-78690348D01*
X139284697Y-78815305D01*
X139290927Y-78819145D01*
X139290928Y-78819146D01*
X139428090Y-78903694D01*
X139435262Y-78908115D01*
X139515005Y-78934564D01*
X139596611Y-78961632D01*
X139596613Y-78961632D01*
X139603139Y-78963797D01*
X139609975Y-78964497D01*
X139609978Y-78964498D01*
X139653031Y-78968909D01*
X139707600Y-78974500D01*
X140708400Y-78974500D01*
X140711646Y-78974163D01*
X140711650Y-78974163D01*
X140807308Y-78964238D01*
X140807312Y-78964237D01*
X140814166Y-78963526D01*
X140820702Y-78961345D01*
X140820704Y-78961345D01*
X140952806Y-78917272D01*
X140981946Y-78907550D01*
X141132348Y-78814478D01*
X141257305Y-78689303D01*
X141306568Y-78609384D01*
X141359340Y-78561891D01*
X141413828Y-78549500D01*
X142353955Y-78549500D01*
X142362524Y-78549792D01*
X142410458Y-78553060D01*
X142410462Y-78553060D01*
X142418034Y-78553576D01*
X142425511Y-78552271D01*
X142425514Y-78552271D01*
X142478647Y-78542998D01*
X142485171Y-78542035D01*
X142538691Y-78535558D01*
X142546235Y-78534645D01*
X142553345Y-78531958D01*
X142558248Y-78530754D01*
X142568700Y-78527895D01*
X142573517Y-78526441D01*
X142581004Y-78525134D01*
X142594688Y-78519127D01*
X142645334Y-78508500D01*
X143546134Y-78508500D01*
X143608316Y-78501745D01*
X143744705Y-78450615D01*
X143861261Y-78363261D01*
X143948615Y-78246705D01*
X143999745Y-78110316D01*
X144006500Y-78048134D01*
X144006500Y-76951866D01*
X143999745Y-76889684D01*
X143996971Y-76882285D01*
X143996225Y-76879146D01*
X143996225Y-76820854D01*
X143996971Y-76817715D01*
X143999745Y-76810316D01*
X144006500Y-76748134D01*
X144006500Y-75651866D01*
X143999745Y-75589684D01*
X143948615Y-75453295D01*
X143861261Y-75336739D01*
X143744705Y-75249385D01*
X143650839Y-75214196D01*
X143615714Y-75201028D01*
X143615711Y-75201027D01*
X143608316Y-75198255D01*
X143600460Y-75197402D01*
X143597362Y-75196665D01*
X143535715Y-75161448D01*
X143502894Y-75098493D01*
X143500922Y-75084298D01*
X143497454Y-75041661D01*
X143497453Y-75041658D01*
X143496860Y-75034363D01*
X143494604Y-75027399D01*
X143493413Y-75021440D01*
X143492029Y-75015585D01*
X143491182Y-75008319D01*
X143466265Y-74939673D01*
X143464848Y-74935545D01*
X143444607Y-74873064D01*
X143444606Y-74873062D01*
X143442351Y-74866101D01*
X143438555Y-74859846D01*
X143436049Y-74854372D01*
X143433330Y-74848942D01*
X143430833Y-74842063D01*
X143390809Y-74781016D01*
X143388472Y-74777312D01*
X143353509Y-74719693D01*
X143353505Y-74719688D01*
X143350595Y-74714892D01*
X143343197Y-74706516D01*
X143343223Y-74706493D01*
X143340574Y-74703503D01*
X143337866Y-74700264D01*
X143333856Y-74694148D01*
X143328549Y-74689121D01*
X143328546Y-74689117D01*
X143277617Y-74640872D01*
X143275175Y-74638494D01*
X141201606Y-72564925D01*
X143251645Y-72564925D01*
X143252204Y-72571065D01*
X143261674Y-72675120D01*
X143269570Y-72761888D01*
X143271308Y-72767794D01*
X143271309Y-72767798D01*
X143302249Y-72872924D01*
X143325410Y-72951619D01*
X143328263Y-72957077D01*
X143328265Y-72957081D01*
X143336916Y-72973628D01*
X143417040Y-73126890D01*
X143540968Y-73281025D01*
X143545692Y-73284989D01*
X143552933Y-73291065D01*
X143692474Y-73408154D01*
X143697872Y-73411121D01*
X143697877Y-73411125D01*
X143807717Y-73471509D01*
X143865787Y-73503433D01*
X143871654Y-73505294D01*
X143871656Y-73505295D01*
X144048436Y-73561373D01*
X144054306Y-73563235D01*
X144208227Y-73580500D01*
X144314769Y-73580500D01*
X144317825Y-73580200D01*
X144317832Y-73580200D01*
X144376340Y-73574463D01*
X144461833Y-73566080D01*
X144467734Y-73564298D01*
X144467736Y-73564298D01*
X144541053Y-73542162D01*
X144651169Y-73508916D01*
X144825796Y-73416066D01*
X144912062Y-73345709D01*
X144974287Y-73294960D01*
X144974290Y-73294957D01*
X144979062Y-73291065D01*
X144991344Y-73276219D01*
X145101201Y-73143425D01*
X145101203Y-73143421D01*
X145105130Y-73138675D01*
X145199198Y-72964701D01*
X145257682Y-72775768D01*
X145267723Y-72680233D01*
X145277711Y-72585204D01*
X145277711Y-72585202D01*
X145278355Y-72579075D01*
X145260430Y-72382112D01*
X145204590Y-72192381D01*
X145194919Y-72173881D01*
X145115813Y-72022568D01*
X145112960Y-72017110D01*
X144989032Y-71862975D01*
X144982727Y-71857684D01*
X144966334Y-71843929D01*
X144837526Y-71735846D01*
X144832128Y-71732879D01*
X144832123Y-71732875D01*
X144669608Y-71643533D01*
X144669609Y-71643533D01*
X144664213Y-71640567D01*
X144658346Y-71638706D01*
X144658344Y-71638705D01*
X144481564Y-71582627D01*
X144481563Y-71582627D01*
X144475694Y-71580765D01*
X144321773Y-71563500D01*
X144215231Y-71563500D01*
X144212175Y-71563800D01*
X144212168Y-71563800D01*
X144153660Y-71569537D01*
X144068167Y-71577920D01*
X144062266Y-71579702D01*
X144062264Y-71579702D01*
X143988947Y-71601838D01*
X143878831Y-71635084D01*
X143704204Y-71727934D01*
X143617938Y-71798291D01*
X143555713Y-71849040D01*
X143555710Y-71849043D01*
X143550938Y-71852935D01*
X143547011Y-71857682D01*
X143547009Y-71857684D01*
X143428799Y-72000575D01*
X143428797Y-72000579D01*
X143424870Y-72005325D01*
X143330802Y-72179299D01*
X143272318Y-72368232D01*
X143251645Y-72564925D01*
X141201606Y-72564925D01*
X141003405Y-72366724D01*
X140969379Y-72304412D01*
X140966500Y-72277629D01*
X140966500Y-70915209D01*
X140986502Y-70847088D01*
X141040158Y-70800595D01*
X141052619Y-70795687D01*
X141148945Y-70763550D01*
X141299348Y-70670478D01*
X141424305Y-70545303D01*
X141517115Y-70394738D01*
X141572797Y-70226861D01*
X141583500Y-70122400D01*
X141583500Y-69438371D01*
X141603502Y-69370250D01*
X141620405Y-69349276D01*
X141918152Y-69051529D01*
X141980464Y-69017503D01*
X142051279Y-69022568D01*
X142108115Y-69065115D01*
X142132926Y-69131635D01*
X142128954Y-69173236D01*
X142080885Y-69352629D01*
X142061693Y-69572000D01*
X142080885Y-69791371D01*
X142137880Y-70004076D01*
X142140205Y-70009061D01*
X142228618Y-70198666D01*
X142228621Y-70198671D01*
X142230944Y-70203653D01*
X142234100Y-70208160D01*
X142234101Y-70208162D01*
X142242406Y-70220022D01*
X142357251Y-70384038D01*
X142512962Y-70539749D01*
X142517471Y-70542906D01*
X142517473Y-70542908D01*
X142592241Y-70595261D01*
X142693346Y-70666056D01*
X142892924Y-70759120D01*
X143105629Y-70816115D01*
X143325000Y-70835307D01*
X143544371Y-70816115D01*
X143757076Y-70759120D01*
X143956654Y-70666056D01*
X144057759Y-70595261D01*
X144132527Y-70542908D01*
X144132529Y-70542906D01*
X144137038Y-70539749D01*
X144292749Y-70384038D01*
X144407595Y-70220022D01*
X144415899Y-70208162D01*
X144415900Y-70208160D01*
X144419056Y-70203653D01*
X144421379Y-70198671D01*
X144421382Y-70198666D01*
X144509795Y-70009061D01*
X144512120Y-70004076D01*
X144569115Y-69791371D01*
X144588307Y-69572000D01*
X144569115Y-69352629D01*
X144512120Y-69139924D01*
X144455034Y-69017503D01*
X144421382Y-68945334D01*
X144421379Y-68945329D01*
X144419056Y-68940347D01*
X144292749Y-68759962D01*
X144137038Y-68604251D01*
X144114851Y-68588715D01*
X144023284Y-68524599D01*
X143956654Y-68477944D01*
X143757076Y-68384880D01*
X143544371Y-68327885D01*
X143325000Y-68308693D01*
X143105629Y-68327885D01*
X142892924Y-68384880D01*
X142799562Y-68428415D01*
X142698334Y-68475618D01*
X142698329Y-68475621D01*
X142693347Y-68477944D01*
X142673630Y-68491750D01*
X142659117Y-68501912D01*
X142591843Y-68524599D01*
X142522982Y-68507313D01*
X142474399Y-68455543D01*
X142461517Y-68385725D01*
X142463488Y-68373038D01*
X142471483Y-68334603D01*
X142472453Y-68330315D01*
X142473882Y-68324474D01*
X142489808Y-68259390D01*
X142490500Y-68248236D01*
X142490536Y-68248238D01*
X142490775Y-68244248D01*
X142491150Y-68240050D01*
X142492640Y-68232885D01*
X142490546Y-68155479D01*
X142490500Y-68152072D01*
X142490500Y-67766066D01*
X142510502Y-67697945D01*
X142564158Y-67651452D01*
X142634432Y-67641348D01*
X142683680Y-67660836D01*
X142684076Y-67660150D01*
X142688716Y-67662829D01*
X142688764Y-67662848D01*
X142688801Y-67662873D01*
X142693346Y-67666056D01*
X142892924Y-67759120D01*
X143105629Y-67816115D01*
X143325000Y-67835307D01*
X143544371Y-67816115D01*
X143757076Y-67759120D01*
X143956654Y-67666056D01*
X144137038Y-67539749D01*
X144292749Y-67384038D01*
X144326165Y-67336316D01*
X144415899Y-67208162D01*
X144415900Y-67208160D01*
X144419056Y-67203653D01*
X144421379Y-67198671D01*
X144421382Y-67198666D01*
X144509795Y-67009061D01*
X144512120Y-67004076D01*
X144569115Y-66791371D01*
X144588307Y-66572000D01*
X144569115Y-66352629D01*
X144512120Y-66139924D01*
X144444761Y-65995471D01*
X144421382Y-65945334D01*
X144421379Y-65945329D01*
X144419056Y-65940347D01*
X144292749Y-65759962D01*
X144137038Y-65604251D01*
X143956654Y-65477944D01*
X143757076Y-65384880D01*
X143544371Y-65327885D01*
X143325000Y-65308693D01*
X143105629Y-65327885D01*
X142892924Y-65384880D01*
X142835837Y-65411500D01*
X142698334Y-65475618D01*
X142698329Y-65475621D01*
X142693347Y-65477944D01*
X142688840Y-65481100D01*
X142688838Y-65481101D01*
X142609475Y-65536672D01*
X142512962Y-65604251D01*
X142511643Y-65602368D01*
X142455615Y-65626895D01*
X142385509Y-65615684D01*
X142338170Y-65576592D01*
X142337504Y-65575688D01*
X142334595Y-65570893D01*
X142327197Y-65562516D01*
X142327224Y-65562492D01*
X142324571Y-65559500D01*
X142321868Y-65556267D01*
X142317856Y-65550148D01*
X142261617Y-65496872D01*
X142259175Y-65494494D01*
X140495405Y-63730724D01*
X140461379Y-63668412D01*
X140458500Y-63641629D01*
X140458500Y-63564925D01*
X143251645Y-63564925D01*
X143256461Y-63617842D01*
X143263650Y-63696833D01*
X143269570Y-63761888D01*
X143271308Y-63767794D01*
X143271309Y-63767798D01*
X143276951Y-63786967D01*
X143325410Y-63951619D01*
X143328263Y-63957077D01*
X143328265Y-63957081D01*
X143374988Y-64046453D01*
X143417040Y-64126890D01*
X143540968Y-64281025D01*
X143545692Y-64284989D01*
X143552933Y-64291065D01*
X143692474Y-64408154D01*
X143697872Y-64411121D01*
X143697877Y-64411125D01*
X143841180Y-64489905D01*
X143865787Y-64503433D01*
X143871654Y-64505294D01*
X143871656Y-64505295D01*
X143970670Y-64536704D01*
X144054306Y-64563235D01*
X144208227Y-64580500D01*
X144314769Y-64580500D01*
X144317825Y-64580200D01*
X144317832Y-64580200D01*
X144376340Y-64574463D01*
X144461833Y-64566080D01*
X144467734Y-64564298D01*
X144467736Y-64564298D01*
X144563486Y-64535389D01*
X144651169Y-64508916D01*
X144825796Y-64416066D01*
X144957685Y-64308500D01*
X144974287Y-64294960D01*
X144974290Y-64294957D01*
X144979062Y-64291065D01*
X144991344Y-64276219D01*
X145101201Y-64143425D01*
X145101203Y-64143421D01*
X145105130Y-64138675D01*
X145199198Y-63964701D01*
X145257682Y-63775768D01*
X145265359Y-63702728D01*
X145277711Y-63585204D01*
X145277711Y-63585202D01*
X145278355Y-63579075D01*
X145266769Y-63451764D01*
X145260989Y-63388251D01*
X145260988Y-63388248D01*
X145260430Y-63382112D01*
X145231460Y-63283677D01*
X145206330Y-63198294D01*
X145204590Y-63192381D01*
X145194919Y-63173881D01*
X145115813Y-63022568D01*
X145112960Y-63017110D01*
X144989032Y-62862975D01*
X144982727Y-62857684D01*
X144961759Y-62840090D01*
X144837526Y-62735846D01*
X144832128Y-62732879D01*
X144832123Y-62732875D01*
X144669608Y-62643533D01*
X144669609Y-62643533D01*
X144664213Y-62640567D01*
X144658346Y-62638706D01*
X144658344Y-62638705D01*
X144481564Y-62582627D01*
X144481563Y-62582627D01*
X144475694Y-62580765D01*
X144321773Y-62563500D01*
X144215231Y-62563500D01*
X144212175Y-62563800D01*
X144212168Y-62563800D01*
X144156762Y-62569233D01*
X144068167Y-62577920D01*
X144062266Y-62579702D01*
X144062264Y-62579702D01*
X144002285Y-62597811D01*
X143878831Y-62635084D01*
X143704204Y-62727934D01*
X143646833Y-62774725D01*
X143555713Y-62849040D01*
X143555710Y-62849043D01*
X143550938Y-62852935D01*
X143547011Y-62857682D01*
X143547009Y-62857684D01*
X143428799Y-63000575D01*
X143428797Y-63000579D01*
X143424870Y-63005325D01*
X143330802Y-63179299D01*
X143272318Y-63368232D01*
X143271674Y-63374357D01*
X143271674Y-63374358D01*
X143257681Y-63507500D01*
X143251645Y-63564925D01*
X140458500Y-63564925D01*
X140458500Y-62043070D01*
X140459933Y-62024120D01*
X140462099Y-62009885D01*
X140462099Y-62009881D01*
X140463199Y-62002651D01*
X140461974Y-61987584D01*
X140458915Y-61949982D01*
X140458500Y-61939767D01*
X140458500Y-61931707D01*
X140455211Y-61903493D01*
X140454778Y-61899118D01*
X140449454Y-61833661D01*
X140449453Y-61833658D01*
X140448860Y-61826363D01*
X140446604Y-61819399D01*
X140445413Y-61813440D01*
X140444029Y-61807585D01*
X140443182Y-61800319D01*
X140418265Y-61731673D01*
X140416848Y-61727545D01*
X140396607Y-61665064D01*
X140396606Y-61665062D01*
X140394351Y-61658101D01*
X140390555Y-61651846D01*
X140388049Y-61646372D01*
X140385330Y-61640942D01*
X140382833Y-61634063D01*
X140361684Y-61601806D01*
X140342814Y-61573024D01*
X140340467Y-61569305D01*
X140302595Y-61506893D01*
X140295197Y-61498516D01*
X140295224Y-61498492D01*
X140292571Y-61495500D01*
X140289868Y-61492267D01*
X140285856Y-61486148D01*
X140229617Y-61432872D01*
X140227175Y-61430494D01*
X139140770Y-60344089D01*
X139128384Y-60329677D01*
X139119851Y-60318082D01*
X139119846Y-60318077D01*
X139115508Y-60312182D01*
X139109930Y-60307443D01*
X139109927Y-60307440D01*
X139075232Y-60277965D01*
X139067716Y-60271035D01*
X139062021Y-60265340D01*
X139055880Y-60260482D01*
X139039749Y-60247719D01*
X139036345Y-60244928D01*
X138986297Y-60202409D01*
X138986295Y-60202408D01*
X138980715Y-60197667D01*
X138974199Y-60194339D01*
X138969150Y-60190972D01*
X138964021Y-60187805D01*
X138958284Y-60183266D01*
X138892125Y-60152345D01*
X138888225Y-60150439D01*
X138881976Y-60147248D01*
X138823192Y-60117231D01*
X138816084Y-60115492D01*
X138810441Y-60113393D01*
X138804678Y-60111476D01*
X138798050Y-60108378D01*
X138784493Y-60105558D01*
X138726588Y-60093514D01*
X138722299Y-60092543D01*
X138667095Y-60079035D01*
X138651390Y-60075192D01*
X138645788Y-60074844D01*
X138645785Y-60074844D01*
X138640236Y-60074500D01*
X138640238Y-60074464D01*
X138636245Y-60074225D01*
X138632053Y-60073851D01*
X138624885Y-60072360D01*
X138558675Y-60074151D01*
X138547479Y-60074454D01*
X138544072Y-60074500D01*
X137144519Y-60074500D01*
X137076398Y-60054498D01*
X137029905Y-60000842D01*
X137019801Y-59930568D01*
X137023522Y-59913348D01*
X137049767Y-59823011D01*
X137049768Y-59823007D01*
X137051562Y-59816831D01*
X137054500Y-59779502D01*
X137054500Y-59346498D01*
X137051562Y-59309169D01*
X137005145Y-59149399D01*
X136947664Y-59052204D01*
X136924491Y-59013020D01*
X136924489Y-59013017D01*
X136920453Y-59006193D01*
X136802807Y-58888547D01*
X136795983Y-58884511D01*
X136795980Y-58884509D01*
X136666427Y-58807892D01*
X136666428Y-58807892D01*
X136659601Y-58803855D01*
X136651990Y-58801644D01*
X136651988Y-58801643D01*
X136599769Y-58786472D01*
X136499831Y-58757438D01*
X136493426Y-58756934D01*
X136493421Y-58756933D01*
X136464958Y-58754693D01*
X136464950Y-58754693D01*
X136462502Y-58754500D01*
X134679498Y-58754500D01*
X134677050Y-58754693D01*
X134677042Y-58754693D01*
X134648579Y-58756933D01*
X134648574Y-58756934D01*
X134642169Y-58757438D01*
X134515653Y-58794194D01*
X134444656Y-58793991D01*
X134385040Y-58755437D01*
X134355732Y-58690772D01*
X134354500Y-58673197D01*
X134354500Y-57764794D01*
X134374502Y-57696673D01*
X134428158Y-57650180D01*
X134498432Y-57640076D01*
X134563012Y-57669570D01*
X134587643Y-57698490D01*
X134678522Y-57845348D01*
X134803697Y-57970305D01*
X134809927Y-57974145D01*
X134809928Y-57974146D01*
X134947090Y-58058694D01*
X134954262Y-58063115D01*
X135028239Y-58087652D01*
X135115611Y-58116632D01*
X135115613Y-58116632D01*
X135122139Y-58118797D01*
X135128975Y-58119497D01*
X135128978Y-58119498D01*
X135172031Y-58123909D01*
X135226600Y-58129500D01*
X136002400Y-58129500D01*
X136005646Y-58129163D01*
X136005650Y-58129163D01*
X136101308Y-58119238D01*
X136101312Y-58119237D01*
X136108166Y-58118526D01*
X136114702Y-58116345D01*
X136114704Y-58116345D01*
X136266885Y-58065573D01*
X136275946Y-58062550D01*
X136426348Y-57969478D01*
X136551305Y-57844303D01*
X136568489Y-57816425D01*
X136640275Y-57699968D01*
X136640276Y-57699966D01*
X136644115Y-57693738D01*
X136699797Y-57525861D01*
X136710500Y-57421400D01*
X136710500Y-56370600D01*
X136704892Y-56316550D01*
X136700238Y-56271692D01*
X136700237Y-56271688D01*
X136699526Y-56264834D01*
X136691575Y-56241000D01*
X136645868Y-56104002D01*
X136643550Y-56097054D01*
X136550478Y-55946652D01*
X136425303Y-55821695D01*
X136416522Y-55816282D01*
X136280968Y-55732725D01*
X136280966Y-55732724D01*
X136274738Y-55728885D01*
X136194995Y-55702436D01*
X136113389Y-55675368D01*
X136113387Y-55675368D01*
X136106861Y-55673203D01*
X136100025Y-55672503D01*
X136100022Y-55672502D01*
X136056969Y-55668091D01*
X136002400Y-55662500D01*
X135226600Y-55662500D01*
X135223354Y-55662837D01*
X135223350Y-55662837D01*
X135127692Y-55672762D01*
X135127688Y-55672763D01*
X135120834Y-55673474D01*
X135114298Y-55675655D01*
X135114296Y-55675655D01*
X134982194Y-55719728D01*
X134953054Y-55729450D01*
X134802652Y-55822522D01*
X134677695Y-55947697D01*
X134673855Y-55953927D01*
X134673854Y-55953928D01*
X134587760Y-56093598D01*
X134534988Y-56141091D01*
X134464916Y-56152515D01*
X134399792Y-56124241D01*
X134360293Y-56065247D01*
X134354500Y-56027482D01*
X134354500Y-55945477D01*
X134374502Y-55877356D01*
X134391405Y-55856382D01*
X139168383Y-51079405D01*
X139230695Y-51045379D01*
X139257478Y-51042500D01*
X141045126Y-51042500D01*
X141113247Y-51062502D01*
X141120673Y-51067661D01*
X141143295Y-51084615D01*
X141151704Y-51087767D01*
X141151705Y-51087768D01*
X141260451Y-51128535D01*
X141317216Y-51171176D01*
X141341916Y-51237738D01*
X141326709Y-51307087D01*
X141307316Y-51333568D01*
X141180629Y-51466138D01*
X141054743Y-51650680D01*
X140960688Y-51853305D01*
X140900989Y-52068570D01*
X140877251Y-52290695D01*
X140877548Y-52295848D01*
X140877548Y-52295851D01*
X140883011Y-52390590D01*
X140890110Y-52513715D01*
X140891247Y-52518761D01*
X140891248Y-52518767D01*
X140911119Y-52606939D01*
X140939222Y-52731639D01*
X141023266Y-52938616D01*
X141139987Y-53129088D01*
X141286250Y-53297938D01*
X141458126Y-53440632D01*
X141528595Y-53481811D01*
X141531445Y-53483476D01*
X141580169Y-53535114D01*
X141593240Y-53604897D01*
X141566509Y-53670669D01*
X141526055Y-53704027D01*
X141513607Y-53710507D01*
X141509474Y-53713610D01*
X141509471Y-53713612D01*
X141485247Y-53731800D01*
X141334965Y-53844635D01*
X141180629Y-54006138D01*
X141054743Y-54190680D01*
X140960688Y-54393305D01*
X140900989Y-54608570D01*
X140877251Y-54830695D01*
X140877548Y-54835848D01*
X140877548Y-54835851D01*
X140882947Y-54929478D01*
X140890110Y-55053715D01*
X140891247Y-55058761D01*
X140891248Y-55058767D01*
X140909556Y-55140001D01*
X140939222Y-55271639D01*
X140986570Y-55388243D01*
X141016774Y-55462627D01*
X141023266Y-55478616D01*
X141139987Y-55669088D01*
X141286250Y-55837938D01*
X141458126Y-55980632D01*
X141520479Y-56017068D01*
X141531445Y-56023476D01*
X141580169Y-56075114D01*
X141593240Y-56144897D01*
X141566509Y-56210669D01*
X141526055Y-56244027D01*
X141513607Y-56250507D01*
X141509474Y-56253610D01*
X141509471Y-56253612D01*
X141339100Y-56381530D01*
X141334965Y-56384635D01*
X141180629Y-56546138D01*
X141177715Y-56550410D01*
X141177714Y-56550411D01*
X141092556Y-56675249D01*
X141054743Y-56730680D01*
X140960688Y-56933305D01*
X140900989Y-57148570D01*
X140877251Y-57370695D01*
X140877548Y-57375848D01*
X140877548Y-57375851D01*
X140883011Y-57470590D01*
X140890110Y-57593715D01*
X140891247Y-57598761D01*
X140891248Y-57598767D01*
X140909540Y-57679933D01*
X140939222Y-57811639D01*
X140990911Y-57938934D01*
X141016201Y-58001216D01*
X141023266Y-58018616D01*
X141025965Y-58023020D01*
X141091216Y-58129500D01*
X141139987Y-58209088D01*
X141286250Y-58377938D01*
X141458126Y-58520632D01*
X141651000Y-58633338D01*
X141859692Y-58713030D01*
X141864760Y-58714061D01*
X141864763Y-58714062D01*
X141926916Y-58726707D01*
X142078597Y-58757567D01*
X142083772Y-58757757D01*
X142083774Y-58757757D01*
X142296673Y-58765564D01*
X142296677Y-58765564D01*
X142301837Y-58765753D01*
X142306957Y-58765097D01*
X142306959Y-58765097D01*
X142518288Y-58738025D01*
X142518289Y-58738025D01*
X142523416Y-58737368D01*
X142558951Y-58726707D01*
X142732429Y-58674661D01*
X142732434Y-58674659D01*
X142737384Y-58673174D01*
X142937994Y-58574896D01*
X143119860Y-58445173D01*
X143278096Y-58287489D01*
X143312751Y-58239262D01*
X143405435Y-58110277D01*
X143408453Y-58106077D01*
X143428548Y-58065419D01*
X143505136Y-57910453D01*
X143505137Y-57910451D01*
X143507430Y-57905811D01*
X143542278Y-57791114D01*
X143570865Y-57697023D01*
X143570865Y-57697021D01*
X143572370Y-57692069D01*
X143601529Y-57470590D01*
X143602731Y-57421400D01*
X143603074Y-57407365D01*
X143603074Y-57407361D01*
X143603156Y-57404000D01*
X143584852Y-57181361D01*
X143530431Y-56964702D01*
X143441354Y-56759840D01*
X143391904Y-56683402D01*
X143322822Y-56576617D01*
X143322820Y-56576614D01*
X143320014Y-56572277D01*
X143169670Y-56407051D01*
X143165619Y-56403852D01*
X143165615Y-56403848D01*
X142998414Y-56271800D01*
X142998410Y-56271798D01*
X142994359Y-56268598D01*
X142953053Y-56245796D01*
X142903084Y-56195364D01*
X142888312Y-56125921D01*
X142913428Y-56059516D01*
X142940780Y-56032909D01*
X143001674Y-55989474D01*
X143119860Y-55905173D01*
X143147775Y-55877356D01*
X143274435Y-55751137D01*
X143278096Y-55747489D01*
X143288288Y-55733306D01*
X143405435Y-55570277D01*
X143408453Y-55566077D01*
X143445712Y-55490690D01*
X143505136Y-55370453D01*
X143505137Y-55370451D01*
X143507430Y-55365811D01*
X143572370Y-55152069D01*
X143601529Y-54930590D01*
X143603156Y-54864000D01*
X143584852Y-54641361D01*
X143530431Y-54424702D01*
X143441354Y-54219840D01*
X143401906Y-54158862D01*
X143322822Y-54036617D01*
X143322820Y-54036614D01*
X143320014Y-54032277D01*
X143169670Y-53867051D01*
X143165619Y-53863852D01*
X143165615Y-53863848D01*
X142998414Y-53731800D01*
X142998410Y-53731798D01*
X142994359Y-53728598D01*
X142953053Y-53705796D01*
X142903084Y-53655364D01*
X142888312Y-53585921D01*
X142913428Y-53519516D01*
X142940780Y-53492909D01*
X142984603Y-53461650D01*
X143119860Y-53365173D01*
X143278096Y-53207489D01*
X143337594Y-53124689D01*
X143405435Y-53030277D01*
X143408453Y-53026077D01*
X143507430Y-52825811D01*
X143572370Y-52612069D01*
X143601529Y-52390590D01*
X143603156Y-52324000D01*
X143584852Y-52101361D01*
X143530431Y-51884702D01*
X143441354Y-51679840D01*
X143320014Y-51492277D01*
X143316532Y-51488450D01*
X143172798Y-51330488D01*
X143141746Y-51266642D01*
X143150141Y-51196143D01*
X143195317Y-51141375D01*
X143221761Y-51127706D01*
X143328297Y-51087767D01*
X143336705Y-51084615D01*
X143453261Y-50997261D01*
X143540615Y-50880705D01*
X143591745Y-50744316D01*
X143598500Y-50682134D01*
X143598500Y-48885866D01*
X143591745Y-48823684D01*
X143540615Y-48687295D01*
X143453261Y-48570739D01*
X143336705Y-48483385D01*
X143200316Y-48432255D01*
X143138134Y-48425500D01*
X141341866Y-48425500D01*
X141279684Y-48432255D01*
X141143295Y-48483385D01*
X141120689Y-48500327D01*
X141054185Y-48525174D01*
X141045126Y-48525500D01*
X138775395Y-48525500D01*
X138758948Y-48524422D01*
X138742483Y-48522254D01*
X138742479Y-48522254D01*
X138736913Y-48521521D01*
X138659455Y-48525174D01*
X138655511Y-48525360D01*
X138649575Y-48525500D01*
X138627001Y-48525500D01*
X138602886Y-48527652D01*
X138601013Y-48527819D01*
X138595750Y-48528178D01*
X138579933Y-48528924D01*
X138512511Y-48532104D01*
X138507048Y-48533355D01*
X138507042Y-48533356D01*
X138495032Y-48536107D01*
X138478100Y-48538789D01*
X138460238Y-48540383D01*
X138454827Y-48541863D01*
X138454823Y-48541864D01*
X138408157Y-48554631D01*
X138379848Y-48562376D01*
X138374750Y-48563656D01*
X138293530Y-48582258D01*
X138288369Y-48584459D01*
X138288370Y-48584459D01*
X138277033Y-48589294D01*
X138260858Y-48594927D01*
X138248961Y-48598182D01*
X138248957Y-48598183D01*
X138243549Y-48599663D01*
X138238483Y-48602079D01*
X138238484Y-48602079D01*
X138168333Y-48635539D01*
X138163524Y-48637710D01*
X138092241Y-48668115D01*
X138086891Y-48670397D01*
X138071890Y-48680251D01*
X138056975Y-48688654D01*
X138040782Y-48696378D01*
X138036234Y-48699646D01*
X138036229Y-48699649D01*
X137973114Y-48745002D01*
X137968778Y-48747982D01*
X137958380Y-48754812D01*
X137889204Y-48775500D01*
X130517924Y-48775500D01*
X130449803Y-48755498D01*
X130428829Y-48738595D01*
X128756624Y-47066390D01*
X128722598Y-47004078D01*
X128727663Y-46933263D01*
X128744892Y-46901730D01*
X128766122Y-46873403D01*
X128808615Y-46816705D01*
X128830799Y-46757529D01*
X128852598Y-46699382D01*
X128895240Y-46642618D01*
X128961802Y-46617918D01*
X129031150Y-46633126D01*
X129065817Y-46661114D01*
X129094250Y-46693938D01*
X129266126Y-46836632D01*
X129459000Y-46949338D01*
X129667692Y-47029030D01*
X129672760Y-47030061D01*
X129672763Y-47030062D01*
X129761777Y-47048172D01*
X129886597Y-47073567D01*
X129891772Y-47073757D01*
X129891774Y-47073757D01*
X130104673Y-47081564D01*
X130104677Y-47081564D01*
X130109837Y-47081753D01*
X130114957Y-47081097D01*
X130114959Y-47081097D01*
X130326288Y-47054025D01*
X130326289Y-47054025D01*
X130331416Y-47053368D01*
X130348735Y-47048172D01*
X130540429Y-46990661D01*
X130540434Y-46990659D01*
X130545384Y-46989174D01*
X130745994Y-46890896D01*
X130927860Y-46761173D01*
X130981586Y-46707635D01*
X131071616Y-46617918D01*
X131086096Y-46603489D01*
X131170422Y-46486137D01*
X131216453Y-46422077D01*
X131217776Y-46423028D01*
X131264645Y-46379857D01*
X131334580Y-46367625D01*
X131400026Y-46395144D01*
X131427875Y-46426994D01*
X131487987Y-46525088D01*
X131634250Y-46693938D01*
X131806126Y-46836632D01*
X131999000Y-46949338D01*
X132207692Y-47029030D01*
X132212760Y-47030061D01*
X132212763Y-47030062D01*
X132301777Y-47048172D01*
X132426597Y-47073567D01*
X132431772Y-47073757D01*
X132431774Y-47073757D01*
X132644673Y-47081564D01*
X132644677Y-47081564D01*
X132649837Y-47081753D01*
X132654957Y-47081097D01*
X132654959Y-47081097D01*
X132866288Y-47054025D01*
X132866289Y-47054025D01*
X132871416Y-47053368D01*
X132888735Y-47048172D01*
X133080429Y-46990661D01*
X133080434Y-46990659D01*
X133085384Y-46989174D01*
X133285994Y-46890896D01*
X133467860Y-46761173D01*
X133521586Y-46707635D01*
X133611616Y-46617918D01*
X133626096Y-46603489D01*
X133710422Y-46486137D01*
X133756453Y-46422077D01*
X133757776Y-46423028D01*
X133804645Y-46379857D01*
X133874580Y-46367625D01*
X133940026Y-46395144D01*
X133967875Y-46426994D01*
X134027987Y-46525088D01*
X134174250Y-46693938D01*
X134346126Y-46836632D01*
X134539000Y-46949338D01*
X134747692Y-47029030D01*
X134752760Y-47030061D01*
X134752763Y-47030062D01*
X134841777Y-47048172D01*
X134966597Y-47073567D01*
X134971772Y-47073757D01*
X134971774Y-47073757D01*
X135184673Y-47081564D01*
X135184677Y-47081564D01*
X135189837Y-47081753D01*
X135194957Y-47081097D01*
X135194959Y-47081097D01*
X135406288Y-47054025D01*
X135406289Y-47054025D01*
X135411416Y-47053368D01*
X135428735Y-47048172D01*
X135620429Y-46990661D01*
X135620434Y-46990659D01*
X135625384Y-46989174D01*
X135825994Y-46890896D01*
X136007860Y-46761173D01*
X136061586Y-46707635D01*
X136151616Y-46617918D01*
X136166096Y-46603489D01*
X136250422Y-46486137D01*
X136293435Y-46426277D01*
X136296453Y-46422077D01*
X136310667Y-46393318D01*
X136393136Y-46226453D01*
X136393137Y-46226451D01*
X136395430Y-46221811D01*
X136460370Y-46008069D01*
X136489529Y-45786590D01*
X136491156Y-45720000D01*
X136472852Y-45497361D01*
X136418431Y-45280702D01*
X136329354Y-45075840D01*
X136208014Y-44888277D01*
X136057670Y-44723051D01*
X136053619Y-44719852D01*
X136053615Y-44719848D01*
X135886414Y-44587800D01*
X135886410Y-44587798D01*
X135882359Y-44584598D01*
X135686789Y-44476638D01*
X135681920Y-44474914D01*
X135681916Y-44474912D01*
X135481087Y-44403795D01*
X135481083Y-44403794D01*
X135476212Y-44402069D01*
X135471119Y-44401162D01*
X135471116Y-44401161D01*
X135261373Y-44363800D01*
X135261367Y-44363799D01*
X135256284Y-44362894D01*
X135182452Y-44361992D01*
X135038081Y-44360228D01*
X135038079Y-44360228D01*
X135032911Y-44360165D01*
X134812091Y-44393955D01*
X134599756Y-44463357D01*
X134401607Y-44566507D01*
X134397474Y-44569610D01*
X134397471Y-44569612D01*
X134227100Y-44697530D01*
X134222965Y-44700635D01*
X134219393Y-44704373D01*
X134111729Y-44817037D01*
X134068629Y-44862138D01*
X133961201Y-45019621D01*
X133906293Y-45064621D01*
X133835768Y-45072792D01*
X133772021Y-45041538D01*
X133751324Y-45017054D01*
X133670822Y-44892617D01*
X133670820Y-44892614D01*
X133668014Y-44888277D01*
X133517670Y-44723051D01*
X133513619Y-44719852D01*
X133513615Y-44719848D01*
X133346414Y-44587800D01*
X133346410Y-44587798D01*
X133342359Y-44584598D01*
X133146789Y-44476638D01*
X133141920Y-44474914D01*
X133141916Y-44474912D01*
X132941087Y-44403795D01*
X132941083Y-44403794D01*
X132936212Y-44402069D01*
X132931119Y-44401162D01*
X132931116Y-44401161D01*
X132721373Y-44363800D01*
X132721367Y-44363799D01*
X132716284Y-44362894D01*
X132642452Y-44361992D01*
X132498081Y-44360228D01*
X132498079Y-44360228D01*
X132492911Y-44360165D01*
X132272091Y-44393955D01*
X132059756Y-44463357D01*
X131861607Y-44566507D01*
X131857474Y-44569610D01*
X131857471Y-44569612D01*
X131687100Y-44697530D01*
X131682965Y-44700635D01*
X131679393Y-44704373D01*
X131571729Y-44817037D01*
X131528629Y-44862138D01*
X131421201Y-45019621D01*
X131366293Y-45064621D01*
X131295768Y-45072792D01*
X131232021Y-45041538D01*
X131211324Y-45017054D01*
X131130822Y-44892617D01*
X131130820Y-44892614D01*
X131128014Y-44888277D01*
X130977670Y-44723051D01*
X130973619Y-44719852D01*
X130973615Y-44719848D01*
X130806414Y-44587800D01*
X130806410Y-44587798D01*
X130802359Y-44584598D01*
X130606789Y-44476638D01*
X130601920Y-44474914D01*
X130601916Y-44474912D01*
X130401087Y-44403795D01*
X130401083Y-44403794D01*
X130396212Y-44402069D01*
X130391119Y-44401162D01*
X130391116Y-44401161D01*
X130181373Y-44363800D01*
X130181367Y-44363799D01*
X130176284Y-44362894D01*
X130102452Y-44361992D01*
X129958081Y-44360228D01*
X129958079Y-44360228D01*
X129952911Y-44360165D01*
X129732091Y-44393955D01*
X129519756Y-44463357D01*
X129321607Y-44566507D01*
X129317474Y-44569610D01*
X129317471Y-44569612D01*
X129147100Y-44697530D01*
X129142965Y-44700635D01*
X129086537Y-44759684D01*
X129062283Y-44785064D01*
X129000759Y-44820494D01*
X128929846Y-44817037D01*
X128872060Y-44775791D01*
X128853207Y-44742243D01*
X128811767Y-44631703D01*
X128808615Y-44623295D01*
X128721261Y-44506739D01*
X128604705Y-44419385D01*
X128468316Y-44368255D01*
X128406134Y-44361500D01*
X126609866Y-44361500D01*
X126547684Y-44368255D01*
X126411295Y-44419385D01*
X126294739Y-44506739D01*
X126207385Y-44623295D01*
X126156255Y-44759684D01*
X126149500Y-44821866D01*
X126149500Y-46618134D01*
X126156255Y-46680316D01*
X126207385Y-46816705D01*
X126294739Y-46933261D01*
X126411295Y-47020615D01*
X126419704Y-47023767D01*
X126427575Y-47028077D01*
X126426664Y-47029741D01*
X126474490Y-47065663D01*
X126499193Y-47132224D01*
X126499500Y-47141009D01*
X126499500Y-47182157D01*
X126498763Y-47195764D01*
X126494676Y-47233388D01*
X126495213Y-47239523D01*
X126499050Y-47283388D01*
X126499379Y-47288214D01*
X126499500Y-47290686D01*
X126499500Y-47293769D01*
X126499801Y-47296837D01*
X126503690Y-47336506D01*
X126503812Y-47337819D01*
X126511913Y-47430413D01*
X126513400Y-47435532D01*
X126513920Y-47440833D01*
X126540791Y-47529834D01*
X126541126Y-47530967D01*
X126567091Y-47620336D01*
X126569544Y-47625068D01*
X126571084Y-47630169D01*
X126573978Y-47635612D01*
X126614731Y-47712260D01*
X126615343Y-47713426D01*
X126624124Y-47730365D01*
X126658108Y-47795926D01*
X126661431Y-47800089D01*
X126663934Y-47804796D01*
X126722755Y-47876918D01*
X126723446Y-47877774D01*
X126754738Y-47916973D01*
X126757242Y-47919477D01*
X126757884Y-47920195D01*
X126761585Y-47924528D01*
X126788935Y-47958062D01*
X126793682Y-47961989D01*
X126793684Y-47961991D01*
X126824262Y-47987287D01*
X126833042Y-47995277D01*
X129291149Y-50453384D01*
X129300251Y-50463527D01*
X129323968Y-50493025D01*
X129362446Y-50525312D01*
X129366062Y-50528467D01*
X129367888Y-50530123D01*
X129370074Y-50532309D01*
X129372454Y-50534264D01*
X129372464Y-50534273D01*
X129403268Y-50559576D01*
X129404283Y-50560418D01*
X129475474Y-50620154D01*
X129480148Y-50622723D01*
X129484261Y-50626102D01*
X129489698Y-50629017D01*
X129489699Y-50629018D01*
X129566047Y-50669955D01*
X129567177Y-50670568D01*
X129648787Y-50715433D01*
X129653869Y-50717045D01*
X129658563Y-50719562D01*
X129747531Y-50746762D01*
X129748559Y-50747082D01*
X129837306Y-50775235D01*
X129842602Y-50775829D01*
X129847698Y-50777387D01*
X129940257Y-50786790D01*
X129941393Y-50786911D01*
X129975008Y-50790681D01*
X129987730Y-50792108D01*
X129987734Y-50792108D01*
X129991227Y-50792500D01*
X129994754Y-50792500D01*
X129995739Y-50792555D01*
X130001419Y-50793002D01*
X130030825Y-50795989D01*
X130038337Y-50796752D01*
X130038339Y-50796752D01*
X130044462Y-50797374D01*
X130090108Y-50793059D01*
X130101967Y-50792500D01*
X135591522Y-50792500D01*
X135659643Y-50812502D01*
X135706136Y-50866158D01*
X135716240Y-50936432D01*
X135686746Y-51001012D01*
X135680617Y-51007595D01*
X132270737Y-54417475D01*
X132258347Y-54428342D01*
X132240708Y-54441877D01*
X132199903Y-54486721D01*
X132185842Y-54502174D01*
X132181743Y-54506469D01*
X132165802Y-54522410D01*
X132164007Y-54524557D01*
X132164005Y-54524559D01*
X132149068Y-54542423D01*
X132145600Y-54546398D01*
X132093288Y-54603888D01*
X132093281Y-54603897D01*
X132089515Y-54608036D01*
X132086538Y-54612782D01*
X132086537Y-54612783D01*
X132079987Y-54623225D01*
X132069911Y-54637093D01*
X132062004Y-54646549D01*
X132061997Y-54646559D01*
X132058406Y-54650854D01*
X132017118Y-54723240D01*
X132014413Y-54727759D01*
X131970136Y-54798344D01*
X131968043Y-54803549D01*
X131968042Y-54803552D01*
X131963448Y-54814979D01*
X131955988Y-54830411D01*
X131949880Y-54841119D01*
X131949876Y-54841128D01*
X131947101Y-54845993D01*
X131945232Y-54851270D01*
X131945230Y-54851275D01*
X131919285Y-54924542D01*
X131917420Y-54929478D01*
X131886344Y-55006783D01*
X131885208Y-55012270D01*
X131885207Y-55012272D01*
X131882706Y-55024349D01*
X131878101Y-55040844D01*
X131872111Y-55057759D01*
X131871204Y-55063298D01*
X131858643Y-55140001D01*
X131857683Y-55145180D01*
X131840787Y-55226767D01*
X131840521Y-55231379D01*
X131840521Y-55231380D01*
X131839185Y-55254548D01*
X131837738Y-55267653D01*
X131837086Y-55271639D01*
X131835806Y-55279457D01*
X131835894Y-55285070D01*
X131835894Y-55285072D01*
X131837484Y-55386264D01*
X131837500Y-55388243D01*
X131837500Y-56115000D01*
X131817498Y-56183121D01*
X131763842Y-56229614D01*
X131711500Y-56241000D01*
X128078915Y-56241000D01*
X128010794Y-56220998D01*
X127989897Y-56204173D01*
X127928483Y-56142866D01*
X127923303Y-56137695D01*
X127886485Y-56115000D01*
X127778968Y-56048725D01*
X127778966Y-56048724D01*
X127772738Y-56044885D01*
X127612254Y-55991655D01*
X127611389Y-55991368D01*
X127611387Y-55991368D01*
X127604861Y-55989203D01*
X127598025Y-55988503D01*
X127598022Y-55988502D01*
X127554969Y-55984091D01*
X127500400Y-55978500D01*
X126499600Y-55978500D01*
X126496354Y-55978837D01*
X126496350Y-55978837D01*
X126400692Y-55988762D01*
X126400688Y-55988763D01*
X126393834Y-55989474D01*
X126387298Y-55991655D01*
X126387296Y-55991655D01*
X126291918Y-56023476D01*
X126226054Y-56045450D01*
X126075652Y-56138522D01*
X126070479Y-56143704D01*
X126031131Y-56183121D01*
X125950695Y-56263697D01*
X125946855Y-56269927D01*
X125946854Y-56269928D01*
X125882786Y-56373866D01*
X125857885Y-56414262D01*
X125855581Y-56421209D01*
X125812727Y-56550411D01*
X125802203Y-56582139D01*
X125791500Y-56686600D01*
X125791500Y-57312400D01*
X125791837Y-57315646D01*
X125791837Y-57315650D01*
X125798084Y-57375851D01*
X125802474Y-57418166D01*
X125858450Y-57585946D01*
X125951522Y-57736348D01*
X126026945Y-57811639D01*
X126038109Y-57822784D01*
X126072188Y-57885066D01*
X126067185Y-57955886D01*
X126038264Y-58000975D01*
X125973932Y-58065419D01*
X125950695Y-58088697D01*
X125946855Y-58094927D01*
X125946854Y-58094928D01*
X125876485Y-58209088D01*
X125857885Y-58239262D01*
X125802203Y-58407139D01*
X125791500Y-58511600D01*
X125791500Y-58626500D01*
X125771498Y-58694621D01*
X125717842Y-58741114D01*
X125665500Y-58752500D01*
X124378978Y-58752500D01*
X124314839Y-58734953D01*
X124223427Y-58680892D01*
X124223428Y-58680892D01*
X124216601Y-58676855D01*
X124208990Y-58674644D01*
X124208988Y-58674643D01*
X124156769Y-58659472D01*
X124056831Y-58630438D01*
X124050426Y-58629934D01*
X124050421Y-58629933D01*
X124021958Y-58627693D01*
X124021950Y-58627693D01*
X124019502Y-58627500D01*
X122862500Y-58627500D01*
X122794379Y-58607498D01*
X122747886Y-58553842D01*
X122736500Y-58501500D01*
X122736500Y-58269498D01*
X122734572Y-58245002D01*
X122734067Y-58238579D01*
X122734066Y-58238574D01*
X122733562Y-58232169D01*
X122699912Y-58116345D01*
X122689357Y-58080012D01*
X122689356Y-58080010D01*
X122687145Y-58072399D01*
X122652507Y-58013829D01*
X122606491Y-57936020D01*
X122606489Y-57936017D01*
X122602453Y-57929193D01*
X122484807Y-57811547D01*
X122477983Y-57807511D01*
X122477980Y-57807509D01*
X122348427Y-57730892D01*
X122348428Y-57730892D01*
X122341601Y-57726855D01*
X122333990Y-57724644D01*
X122333988Y-57724643D01*
X122243970Y-57698491D01*
X122181831Y-57680438D01*
X122175426Y-57679934D01*
X122175421Y-57679933D01*
X122146958Y-57677693D01*
X122146950Y-57677693D01*
X122144502Y-57677500D01*
X121713500Y-57677500D01*
X121645379Y-57657498D01*
X121598886Y-57603842D01*
X121587500Y-57551500D01*
X121587500Y-55510994D01*
X121607502Y-55442873D01*
X121619865Y-55426683D01*
X121638617Y-55405857D01*
X121638620Y-55405853D01*
X121643040Y-55400944D01*
X121716383Y-55273910D01*
X121735223Y-55241279D01*
X121735224Y-55241278D01*
X121738527Y-55235556D01*
X121797542Y-55053928D01*
X121799768Y-55032755D01*
X121816814Y-54870565D01*
X121817504Y-54864000D01*
X121803186Y-54727768D01*
X121798232Y-54680635D01*
X121798232Y-54680633D01*
X121797542Y-54674072D01*
X121738527Y-54492444D01*
X121643040Y-54327056D01*
X121546503Y-54219840D01*
X121519675Y-54190045D01*
X121519674Y-54190044D01*
X121515253Y-54185134D01*
X121360752Y-54072882D01*
X121354724Y-54070198D01*
X121354722Y-54070197D01*
X121192319Y-53997891D01*
X121192318Y-53997891D01*
X121186288Y-53995206D01*
X121092888Y-53975353D01*
X121005944Y-53956872D01*
X121005939Y-53956872D01*
X120999487Y-53955500D01*
X120808513Y-53955500D01*
X120802061Y-53956872D01*
X120802056Y-53956872D01*
X120715113Y-53975353D01*
X120621712Y-53995206D01*
X120615682Y-53997891D01*
X120615681Y-53997891D01*
X120453278Y-54070197D01*
X120453276Y-54070198D01*
X120447248Y-54072882D01*
X120292747Y-54185134D01*
X120288326Y-54190044D01*
X120288325Y-54190045D01*
X120261498Y-54219840D01*
X120164960Y-54327056D01*
X120069473Y-54492444D01*
X120010458Y-54674072D01*
X120009768Y-54680633D01*
X120009768Y-54680635D01*
X120004814Y-54727768D01*
X119990496Y-54864000D01*
X119991186Y-54870565D01*
X120008233Y-55032755D01*
X120010458Y-55053928D01*
X120069473Y-55235556D01*
X120072776Y-55241278D01*
X120072777Y-55241279D01*
X120091617Y-55273910D01*
X120164960Y-55400944D01*
X120169380Y-55405853D01*
X120169383Y-55405857D01*
X120188135Y-55426683D01*
X120218853Y-55490690D01*
X120220500Y-55510994D01*
X120220500Y-57676500D01*
X120200498Y-57744621D01*
X120146842Y-57791114D01*
X120094500Y-57802500D01*
X119376800Y-57802500D01*
X119308679Y-57782498D01*
X119298624Y-57774404D01*
X119298229Y-57774904D01*
X119292483Y-57770366D01*
X119287303Y-57765195D01*
X119240505Y-57736348D01*
X119142968Y-57676225D01*
X119142966Y-57676224D01*
X119136738Y-57672385D01*
X119039329Y-57640076D01*
X118975389Y-57618868D01*
X118975387Y-57618868D01*
X118968861Y-57616703D01*
X118962025Y-57616003D01*
X118962022Y-57616002D01*
X118918969Y-57611591D01*
X118864400Y-57606000D01*
X117863600Y-57606000D01*
X117860354Y-57606337D01*
X117860350Y-57606337D01*
X117764692Y-57616262D01*
X117764688Y-57616263D01*
X117757834Y-57616974D01*
X117751298Y-57619155D01*
X117751296Y-57619155D01*
X117748419Y-57620115D01*
X117590054Y-57672950D01*
X117439652Y-57766022D01*
X117314695Y-57891197D01*
X117310855Y-57897427D01*
X117310854Y-57897428D01*
X117247027Y-58000975D01*
X117221885Y-58041762D01*
X117166203Y-58209639D01*
X117165503Y-58216475D01*
X117165502Y-58216478D01*
X117163238Y-58238579D01*
X117155500Y-58314100D01*
X117155500Y-58939900D01*
X117155837Y-58943146D01*
X117155837Y-58943150D01*
X117163087Y-59013020D01*
X117166474Y-59045666D01*
X117222450Y-59213446D01*
X117226306Y-59219677D01*
X117245811Y-59251197D01*
X117264649Y-59319649D01*
X117243488Y-59387419D01*
X117189047Y-59432990D01*
X117138667Y-59443500D01*
X115277926Y-59443500D01*
X115209805Y-59423498D01*
X115188831Y-59406596D01*
X114546064Y-58763830D01*
X114537516Y-58754370D01*
X114526871Y-58741318D01*
X114511065Y-58721938D01*
X114506323Y-58718015D01*
X114506321Y-58718013D01*
X114475727Y-58692703D01*
X114466947Y-58684713D01*
X111037405Y-55255171D01*
X111003379Y-55192859D01*
X111000500Y-55166076D01*
X111000500Y-49148009D01*
X111020502Y-49079888D01*
X111074158Y-49033395D01*
X111079694Y-49031097D01*
X111080296Y-49030768D01*
X111088705Y-49027615D01*
X111205261Y-48940261D01*
X111292615Y-48823705D01*
X111321545Y-48746535D01*
X111336598Y-48706382D01*
X111379240Y-48649618D01*
X111445802Y-48624918D01*
X111515150Y-48640126D01*
X111549817Y-48668114D01*
X111578250Y-48700938D01*
X111750126Y-48843632D01*
X111943000Y-48956338D01*
X112151692Y-49036030D01*
X112156760Y-49037061D01*
X112156763Y-49037062D01*
X112264017Y-49058883D01*
X112370597Y-49080567D01*
X112375772Y-49080757D01*
X112375774Y-49080757D01*
X112588673Y-49088564D01*
X112588677Y-49088564D01*
X112593837Y-49088753D01*
X112598957Y-49088097D01*
X112598959Y-49088097D01*
X112810288Y-49061025D01*
X112810289Y-49061025D01*
X112815416Y-49060368D01*
X112820366Y-49058883D01*
X113024429Y-48997661D01*
X113024434Y-48997659D01*
X113029384Y-48996174D01*
X113229994Y-48897896D01*
X113411860Y-48768173D01*
X113424580Y-48755498D01*
X113500884Y-48679460D01*
X113570096Y-48610489D01*
X113578940Y-48598182D01*
X113700453Y-48429077D01*
X113701776Y-48430028D01*
X113748645Y-48386857D01*
X113818580Y-48374625D01*
X113884026Y-48402144D01*
X113911875Y-48433994D01*
X113971987Y-48532088D01*
X114118250Y-48700938D01*
X114290126Y-48843632D01*
X114483000Y-48956338D01*
X114691692Y-49036030D01*
X114696760Y-49037061D01*
X114696763Y-49037062D01*
X114804017Y-49058883D01*
X114910597Y-49080567D01*
X114915772Y-49080757D01*
X114915774Y-49080757D01*
X115128673Y-49088564D01*
X115128677Y-49088564D01*
X115133837Y-49088753D01*
X115138957Y-49088097D01*
X115138959Y-49088097D01*
X115350288Y-49061025D01*
X115350289Y-49061025D01*
X115355416Y-49060368D01*
X115360366Y-49058883D01*
X115564429Y-48997661D01*
X115564434Y-48997659D01*
X115569384Y-48996174D01*
X115769994Y-48897896D01*
X115951860Y-48768173D01*
X115964580Y-48755498D01*
X116040884Y-48679460D01*
X116110096Y-48610489D01*
X116118940Y-48598182D01*
X116237435Y-48433277D01*
X116240453Y-48429077D01*
X116261320Y-48386857D01*
X116337136Y-48233453D01*
X116337137Y-48233451D01*
X116339430Y-48228811D01*
X116404370Y-48015069D01*
X116433529Y-47793590D01*
X116435156Y-47727000D01*
X116416852Y-47504361D01*
X116362431Y-47287702D01*
X116273354Y-47082840D01*
X116185301Y-46946731D01*
X116154822Y-46899617D01*
X116154820Y-46899614D01*
X116152014Y-46895277D01*
X116001670Y-46730051D01*
X115997619Y-46726852D01*
X115997615Y-46726848D01*
X115830414Y-46594800D01*
X115830410Y-46594798D01*
X115826359Y-46591598D01*
X115630789Y-46483638D01*
X115625920Y-46481914D01*
X115625916Y-46481912D01*
X115425087Y-46410795D01*
X115425083Y-46410794D01*
X115420212Y-46409069D01*
X115415119Y-46408162D01*
X115415116Y-46408161D01*
X115205373Y-46370800D01*
X115205367Y-46370799D01*
X115200284Y-46369894D01*
X115126452Y-46368992D01*
X114982081Y-46367228D01*
X114982079Y-46367228D01*
X114976911Y-46367165D01*
X114756091Y-46400955D01*
X114543756Y-46470357D01*
X114345607Y-46573507D01*
X114341474Y-46576610D01*
X114341471Y-46576612D01*
X114177957Y-46699382D01*
X114166965Y-46707635D01*
X114163393Y-46711373D01*
X114055729Y-46824037D01*
X114012629Y-46869138D01*
X113905201Y-47026621D01*
X113850293Y-47071621D01*
X113779768Y-47079792D01*
X113716021Y-47048538D01*
X113695324Y-47024054D01*
X113614822Y-46899617D01*
X113614820Y-46899614D01*
X113612014Y-46895277D01*
X113461670Y-46730051D01*
X113457619Y-46726852D01*
X113457615Y-46726848D01*
X113290414Y-46594800D01*
X113290410Y-46594798D01*
X113286359Y-46591598D01*
X113090789Y-46483638D01*
X113085920Y-46481914D01*
X113085916Y-46481912D01*
X112885087Y-46410795D01*
X112885083Y-46410794D01*
X112880212Y-46409069D01*
X112875119Y-46408162D01*
X112875116Y-46408161D01*
X112665373Y-46370800D01*
X112665367Y-46370799D01*
X112660284Y-46369894D01*
X112586452Y-46368992D01*
X112442081Y-46367228D01*
X112442079Y-46367228D01*
X112436911Y-46367165D01*
X112216091Y-46400955D01*
X112003756Y-46470357D01*
X111805607Y-46573507D01*
X111801474Y-46576610D01*
X111801471Y-46576612D01*
X111637957Y-46699382D01*
X111626965Y-46707635D01*
X111570537Y-46766684D01*
X111546283Y-46792064D01*
X111484759Y-46827494D01*
X111413846Y-46824037D01*
X111356060Y-46782791D01*
X111337207Y-46749243D01*
X111295767Y-46638703D01*
X111292615Y-46630295D01*
X111205261Y-46513739D01*
X111088705Y-46426385D01*
X111080296Y-46423233D01*
X111072425Y-46418923D01*
X111073336Y-46417259D01*
X111025510Y-46381337D01*
X111000807Y-46314776D01*
X111000500Y-46305991D01*
X111000500Y-44576009D01*
X111020502Y-44507888D01*
X111074158Y-44461395D01*
X111079694Y-44459097D01*
X111080296Y-44458768D01*
X111088705Y-44455615D01*
X111205261Y-44368261D01*
X111292615Y-44251705D01*
X111314799Y-44192529D01*
X111336598Y-44134382D01*
X111379240Y-44077618D01*
X111445802Y-44052918D01*
X111515150Y-44068126D01*
X111549817Y-44096114D01*
X111578250Y-44128938D01*
X111750126Y-44271632D01*
X111943000Y-44384338D01*
X111947825Y-44386180D01*
X111947826Y-44386181D01*
X111987055Y-44401161D01*
X112151692Y-44464030D01*
X112156760Y-44465061D01*
X112156763Y-44465062D01*
X112264017Y-44486883D01*
X112370597Y-44508567D01*
X112375772Y-44508757D01*
X112375774Y-44508757D01*
X112588673Y-44516564D01*
X112588677Y-44516564D01*
X112593837Y-44516753D01*
X112598957Y-44516097D01*
X112598959Y-44516097D01*
X112810288Y-44489025D01*
X112810289Y-44489025D01*
X112815416Y-44488368D01*
X112820366Y-44486883D01*
X113024429Y-44425661D01*
X113024434Y-44425659D01*
X113029384Y-44424174D01*
X113229994Y-44325896D01*
X113411860Y-44196173D01*
X113570096Y-44038489D01*
X113700453Y-43857077D01*
X113701776Y-43858028D01*
X113748645Y-43814857D01*
X113818580Y-43802625D01*
X113884026Y-43830144D01*
X113911875Y-43861994D01*
X113971987Y-43960088D01*
X114118250Y-44128938D01*
X114290126Y-44271632D01*
X114483000Y-44384338D01*
X114487825Y-44386180D01*
X114487826Y-44386181D01*
X114527055Y-44401161D01*
X114691692Y-44464030D01*
X114696760Y-44465061D01*
X114696763Y-44465062D01*
X114804017Y-44486883D01*
X114910597Y-44508567D01*
X114915772Y-44508757D01*
X114915774Y-44508757D01*
X115128673Y-44516564D01*
X115128677Y-44516564D01*
X115133837Y-44516753D01*
X115138957Y-44516097D01*
X115138959Y-44516097D01*
X115350288Y-44489025D01*
X115350289Y-44489025D01*
X115355416Y-44488368D01*
X115360366Y-44486883D01*
X115564429Y-44425661D01*
X115564434Y-44425659D01*
X115569384Y-44424174D01*
X115769994Y-44325896D01*
X115951860Y-44196173D01*
X116110096Y-44038489D01*
X116240453Y-43857077D01*
X116261320Y-43814857D01*
X116337136Y-43661453D01*
X116337137Y-43661451D01*
X116339430Y-43656811D01*
X116404370Y-43443069D01*
X116433529Y-43221590D01*
X116434545Y-43180000D01*
X116435074Y-43158365D01*
X116435074Y-43158361D01*
X116435156Y-43155000D01*
X116416852Y-42932361D01*
X116362431Y-42715702D01*
X116273354Y-42510840D01*
X116152014Y-42323277D01*
X116001670Y-42158051D01*
X115997619Y-42154852D01*
X115997615Y-42154848D01*
X115830414Y-42022800D01*
X115830410Y-42022798D01*
X115826359Y-42019598D01*
X115630789Y-41911638D01*
X115625920Y-41909914D01*
X115625916Y-41909912D01*
X115425087Y-41838795D01*
X115425083Y-41838794D01*
X115420212Y-41837069D01*
X115415119Y-41836162D01*
X115415116Y-41836161D01*
X115205373Y-41798800D01*
X115205367Y-41798799D01*
X115200284Y-41797894D01*
X115126452Y-41796992D01*
X114982081Y-41795228D01*
X114982079Y-41795228D01*
X114976911Y-41795165D01*
X114756091Y-41828955D01*
X114543756Y-41898357D01*
X114345607Y-42001507D01*
X114341474Y-42004610D01*
X114341471Y-42004612D01*
X114171100Y-42132530D01*
X114166965Y-42135635D01*
X114163393Y-42139373D01*
X114055729Y-42252037D01*
X114012629Y-42297138D01*
X113905201Y-42454621D01*
X113850293Y-42499621D01*
X113779768Y-42507792D01*
X113716021Y-42476538D01*
X113695324Y-42452054D01*
X113614822Y-42327617D01*
X113614820Y-42327614D01*
X113612014Y-42323277D01*
X113461670Y-42158051D01*
X113457619Y-42154852D01*
X113457615Y-42154848D01*
X113290414Y-42022800D01*
X113290410Y-42022798D01*
X113286359Y-42019598D01*
X113090789Y-41911638D01*
X113085920Y-41909914D01*
X113085916Y-41909912D01*
X112885087Y-41838795D01*
X112885083Y-41838794D01*
X112880212Y-41837069D01*
X112875119Y-41836162D01*
X112875116Y-41836161D01*
X112665373Y-41798800D01*
X112665367Y-41798799D01*
X112660284Y-41797894D01*
X112586452Y-41796992D01*
X112442081Y-41795228D01*
X112442079Y-41795228D01*
X112436911Y-41795165D01*
X112216091Y-41828955D01*
X112003756Y-41898357D01*
X111805607Y-42001507D01*
X111801474Y-42004610D01*
X111801471Y-42004612D01*
X111631100Y-42132530D01*
X111626965Y-42135635D01*
X111570537Y-42194684D01*
X111546283Y-42220064D01*
X111484759Y-42255494D01*
X111413846Y-42252037D01*
X111356060Y-42210791D01*
X111337207Y-42177243D01*
X111295767Y-42066703D01*
X111292615Y-42058295D01*
X111205261Y-41941739D01*
X111088705Y-41854385D01*
X110952316Y-41803255D01*
X110890134Y-41796500D01*
X109093866Y-41796500D01*
X109031684Y-41803255D01*
X108895295Y-41854385D01*
X108778739Y-41941739D01*
X108691385Y-42058295D01*
X108640255Y-42194684D01*
X108633500Y-42256866D01*
X108633500Y-44053134D01*
X108640255Y-44115316D01*
X108691385Y-44251705D01*
X108778739Y-44368261D01*
X108895295Y-44455615D01*
X108903704Y-44458767D01*
X108911575Y-44463077D01*
X108910664Y-44464741D01*
X108958490Y-44500663D01*
X108983193Y-44567224D01*
X108983500Y-44576009D01*
X108983500Y-46305991D01*
X108963498Y-46374112D01*
X108909842Y-46420605D01*
X108904306Y-46422903D01*
X108903704Y-46423232D01*
X108895295Y-46426385D01*
X108778739Y-46513739D01*
X108691385Y-46630295D01*
X108640255Y-46766684D01*
X108633500Y-46828866D01*
X108633500Y-48625134D01*
X108640255Y-48687316D01*
X108691385Y-48823705D01*
X108778739Y-48940261D01*
X108895295Y-49027615D01*
X108903704Y-49030767D01*
X108911575Y-49035077D01*
X108910664Y-49036741D01*
X108958490Y-49072663D01*
X108983193Y-49139224D01*
X108983500Y-49148009D01*
X108983500Y-55574157D01*
X108982763Y-55587764D01*
X108978676Y-55625388D01*
X108979213Y-55631523D01*
X108983050Y-55675388D01*
X108983379Y-55680214D01*
X108983500Y-55682686D01*
X108983500Y-55685769D01*
X108983801Y-55688837D01*
X108987690Y-55728506D01*
X108987812Y-55729819D01*
X108988117Y-55733306D01*
X108995913Y-55822413D01*
X108997400Y-55827532D01*
X108997920Y-55832833D01*
X109024791Y-55921834D01*
X109025126Y-55922967D01*
X109044449Y-55989474D01*
X109051091Y-56012336D01*
X109053544Y-56017068D01*
X109055084Y-56022169D01*
X109057978Y-56027612D01*
X109098731Y-56104260D01*
X109099343Y-56105426D01*
X109121079Y-56147357D01*
X109142108Y-56187926D01*
X109145431Y-56192089D01*
X109147934Y-56196796D01*
X109206755Y-56268918D01*
X109207446Y-56269774D01*
X109238738Y-56308973D01*
X109241242Y-56311477D01*
X109241884Y-56312195D01*
X109245585Y-56316528D01*
X109272935Y-56350062D01*
X109277682Y-56353989D01*
X109277684Y-56353991D01*
X109308262Y-56379287D01*
X109317042Y-56387277D01*
X112746595Y-59816830D01*
X112780621Y-59879142D01*
X112783500Y-59905925D01*
X112783500Y-63438157D01*
X112782763Y-63451764D01*
X112780078Y-63476483D01*
X112778676Y-63489388D01*
X112779213Y-63495523D01*
X112783050Y-63539388D01*
X112783379Y-63544214D01*
X112783500Y-63546686D01*
X112783500Y-63549769D01*
X112783801Y-63552837D01*
X112787690Y-63592506D01*
X112787812Y-63593819D01*
X112795913Y-63686413D01*
X112797400Y-63691532D01*
X112797920Y-63696833D01*
X112824791Y-63785834D01*
X112825126Y-63786967D01*
X112851091Y-63876336D01*
X112853544Y-63881068D01*
X112855084Y-63886169D01*
X112857978Y-63891612D01*
X112898731Y-63968260D01*
X112899343Y-63969426D01*
X112939271Y-64046453D01*
X112942108Y-64051926D01*
X112945431Y-64056089D01*
X112947934Y-64060796D01*
X113006755Y-64132918D01*
X113007446Y-64133774D01*
X113038738Y-64172973D01*
X113041242Y-64175477D01*
X113041884Y-64176195D01*
X113045585Y-64180528D01*
X113072935Y-64214062D01*
X113077682Y-64217989D01*
X113077684Y-64217991D01*
X113108262Y-64243287D01*
X113117042Y-64251277D01*
X114051149Y-65185384D01*
X114060251Y-65195527D01*
X114083968Y-65225025D01*
X114088696Y-65228992D01*
X114122154Y-65257067D01*
X114130258Y-65264493D01*
X115286595Y-66420830D01*
X115320621Y-66483142D01*
X115323500Y-66509925D01*
X115323500Y-71846951D01*
X115303498Y-71915072D01*
X115296655Y-71924697D01*
X115272266Y-71955801D01*
X115167146Y-72154341D01*
X115165440Y-72159687D01*
X115165439Y-72159689D01*
X115127799Y-72277629D01*
X115098844Y-72368357D01*
X115069521Y-72591086D01*
X115069785Y-72596685D01*
X115069785Y-72596687D01*
X115073484Y-72675120D01*
X115080104Y-72815488D01*
X115096779Y-72888294D01*
X115115520Y-72970119D01*
X115130258Y-73034470D01*
X115218397Y-73241109D01*
X115221474Y-73245793D01*
X115333322Y-73416066D01*
X115341735Y-73428874D01*
X115344798Y-73432312D01*
X115344802Y-73432317D01*
X115375575Y-73466855D01*
X115379722Y-73471509D01*
X115381019Y-73472806D01*
X119507475Y-77599263D01*
X119518342Y-77611653D01*
X119531877Y-77629292D01*
X119558008Y-77653069D01*
X119592174Y-77684158D01*
X119596469Y-77688257D01*
X119612410Y-77704198D01*
X119614557Y-77705993D01*
X119614559Y-77705995D01*
X119632423Y-77720932D01*
X119636398Y-77724400D01*
X119693888Y-77776712D01*
X119693897Y-77776719D01*
X119698036Y-77780485D01*
X119702782Y-77783462D01*
X119702783Y-77783463D01*
X119713225Y-77790013D01*
X119727093Y-77800089D01*
X119736549Y-77807996D01*
X119736559Y-77808003D01*
X119740854Y-77811594D01*
X119813240Y-77852882D01*
X119817759Y-77855587D01*
X119831227Y-77864035D01*
X119883596Y-77896886D01*
X119883599Y-77896888D01*
X119888344Y-77899864D01*
X119893549Y-77901957D01*
X119893552Y-77901958D01*
X119904979Y-77906552D01*
X119920411Y-77914012D01*
X119931119Y-77920120D01*
X119931128Y-77920124D01*
X119935993Y-77922899D01*
X119941270Y-77924768D01*
X119941275Y-77924770D01*
X120014542Y-77950715D01*
X120019478Y-77952580D01*
X120045581Y-77963073D01*
X120096783Y-77983656D01*
X120102270Y-77984792D01*
X120102272Y-77984793D01*
X120114349Y-77987294D01*
X120130844Y-77991899D01*
X120147759Y-77997889D01*
X120230010Y-78011359D01*
X120235180Y-78012317D01*
X120263181Y-78018116D01*
X120309244Y-78027655D01*
X120316767Y-78029213D01*
X120321379Y-78029479D01*
X120321380Y-78029479D01*
X120344548Y-78030815D01*
X120357653Y-78032262D01*
X120363910Y-78033286D01*
X120363914Y-78033286D01*
X120369457Y-78034194D01*
X120375070Y-78034106D01*
X120375072Y-78034106D01*
X120476264Y-78032516D01*
X120478243Y-78032500D01*
X122844604Y-78032500D01*
X122861051Y-78033578D01*
X122877516Y-78035746D01*
X122877520Y-78035746D01*
X122883086Y-78036479D01*
X122964489Y-78032640D01*
X122970424Y-78032500D01*
X122992999Y-78032500D01*
X123018989Y-78030181D01*
X123024248Y-78029822D01*
X123107488Y-78025896D01*
X123112947Y-78024646D01*
X123112952Y-78024645D01*
X123124970Y-78021892D01*
X123141899Y-78019211D01*
X123159762Y-78017617D01*
X123165178Y-78016135D01*
X123165180Y-78016135D01*
X123240133Y-77995630D01*
X123245251Y-77994344D01*
X123321000Y-77976995D01*
X123321002Y-77976994D01*
X123326470Y-77975742D01*
X123336970Y-77971263D01*
X123342967Y-77968706D01*
X123359142Y-77963073D01*
X123371039Y-77959818D01*
X123371043Y-77959817D01*
X123376451Y-77958337D01*
X123446826Y-77924770D01*
X123451667Y-77922461D01*
X123456476Y-77920290D01*
X123527949Y-77889804D01*
X123527950Y-77889804D01*
X123533109Y-77887603D01*
X123548110Y-77877749D01*
X123563025Y-77869346D01*
X123579218Y-77861622D01*
X123583769Y-77858352D01*
X123583772Y-77858350D01*
X123616996Y-77834476D01*
X123646892Y-77812994D01*
X123651232Y-77810011D01*
X123717010Y-77766804D01*
X123717018Y-77766798D01*
X123720874Y-77764265D01*
X123741662Y-77745743D01*
X123751939Y-77737510D01*
X123761654Y-77730529D01*
X123827040Y-77663055D01*
X123851222Y-77643596D01*
X123879120Y-77626332D01*
X123885348Y-77622478D01*
X124010305Y-77497303D01*
X124031206Y-77463394D01*
X124049371Y-77440416D01*
X124096382Y-77393405D01*
X124158694Y-77359379D01*
X124185477Y-77356500D01*
X126119198Y-77356500D01*
X126187319Y-77376502D01*
X126220024Y-77406935D01*
X126260739Y-77461261D01*
X126377295Y-77548615D01*
X126513684Y-77599745D01*
X126575866Y-77606500D01*
X130472134Y-77606500D01*
X130534316Y-77599745D01*
X130670705Y-77548615D01*
X130787261Y-77461261D01*
X130874615Y-77344705D01*
X130925745Y-77208316D01*
X130932500Y-77146134D01*
X130932500Y-75049866D01*
X130925745Y-74987684D01*
X130874615Y-74851295D01*
X130787261Y-74734739D01*
X130670705Y-74647385D01*
X130534316Y-74596255D01*
X130472134Y-74589500D01*
X126575866Y-74589500D01*
X126513684Y-74596255D01*
X126377295Y-74647385D01*
X126260739Y-74734739D01*
X126255358Y-74741919D01*
X126220024Y-74789065D01*
X126163165Y-74831580D01*
X126119198Y-74839500D01*
X123703395Y-74839500D01*
X123686948Y-74838422D01*
X123670483Y-74836254D01*
X123670479Y-74836254D01*
X123664913Y-74835521D01*
X123583511Y-74839360D01*
X123577575Y-74839500D01*
X123555001Y-74839500D01*
X123530886Y-74841652D01*
X123529013Y-74841819D01*
X123523750Y-74842178D01*
X123507933Y-74842924D01*
X123440511Y-74846104D01*
X123435048Y-74847355D01*
X123435042Y-74847356D01*
X123423032Y-74850107D01*
X123406100Y-74852789D01*
X123388238Y-74854383D01*
X123382827Y-74855863D01*
X123382823Y-74855864D01*
X123345405Y-74866101D01*
X123307848Y-74876376D01*
X123302750Y-74877656D01*
X123221530Y-74896258D01*
X123216369Y-74898459D01*
X123216370Y-74898459D01*
X123205033Y-74903294D01*
X123188858Y-74908927D01*
X123176961Y-74912182D01*
X123176957Y-74912183D01*
X123171549Y-74913663D01*
X123152594Y-74922704D01*
X123096333Y-74949539D01*
X123091524Y-74951710D01*
X123045395Y-74971386D01*
X123014891Y-74984397D01*
X122999890Y-74994251D01*
X122984975Y-75002654D01*
X122968782Y-75010378D01*
X122964234Y-75013646D01*
X122964229Y-75013649D01*
X122901114Y-75059002D01*
X122896777Y-75061982D01*
X122827125Y-75107735D01*
X122806344Y-75126251D01*
X122796048Y-75134500D01*
X122786346Y-75141471D01*
X122731318Y-75198255D01*
X122711968Y-75218223D01*
X122710579Y-75219633D01*
X122451617Y-75478595D01*
X122389305Y-75512621D01*
X122362522Y-75515500D01*
X121035477Y-75515500D01*
X120967356Y-75495498D01*
X120946382Y-75478595D01*
X117377405Y-71909617D01*
X117343379Y-71847305D01*
X117340500Y-71820522D01*
X117340500Y-66101840D01*
X117341237Y-66088232D01*
X117344659Y-66056736D01*
X117344659Y-66056732D01*
X117345324Y-66050611D01*
X117343233Y-66026712D01*
X117340950Y-66000609D01*
X117340621Y-65995784D01*
X117340500Y-65993313D01*
X117340500Y-65990231D01*
X117336309Y-65947489D01*
X117336187Y-65946174D01*
X117328623Y-65859719D01*
X117328087Y-65853587D01*
X117326600Y-65848468D01*
X117326080Y-65843167D01*
X117299203Y-65754144D01*
X117298865Y-65753001D01*
X117279298Y-65685655D01*
X117279499Y-65614659D01*
X117318052Y-65555042D01*
X117382717Y-65525732D01*
X117400294Y-65524500D01*
X117740973Y-65524500D01*
X117759126Y-65526424D01*
X117759139Y-65526297D01*
X117863600Y-65537000D01*
X118864400Y-65537000D01*
X118867646Y-65536663D01*
X118867650Y-65536663D01*
X118963308Y-65526738D01*
X118963312Y-65526737D01*
X118970166Y-65526026D01*
X118976702Y-65523845D01*
X118976704Y-65523845D01*
X119130998Y-65472368D01*
X119137946Y-65470050D01*
X119288348Y-65376978D01*
X119409049Y-65256067D01*
X119413305Y-65251803D01*
X119414043Y-65252540D01*
X119466505Y-65215345D01*
X119507470Y-65208500D01*
X120619246Y-65208500D01*
X120654398Y-65213503D01*
X120792989Y-65253767D01*
X120792993Y-65253768D01*
X120799169Y-65255562D01*
X120805574Y-65256066D01*
X120805579Y-65256067D01*
X120834042Y-65258307D01*
X120834050Y-65258307D01*
X120836498Y-65258500D01*
X122144502Y-65258500D01*
X122146950Y-65258307D01*
X122146958Y-65258307D01*
X122175421Y-65256067D01*
X122175426Y-65256066D01*
X122181831Y-65255562D01*
X122303487Y-65220218D01*
X122333988Y-65211357D01*
X122333990Y-65211356D01*
X122341601Y-65209145D01*
X122428086Y-65157998D01*
X122477980Y-65128491D01*
X122477983Y-65128489D01*
X122484807Y-65124453D01*
X122602453Y-65006807D01*
X122606489Y-64999983D01*
X122606491Y-64999980D01*
X122683108Y-64870427D01*
X122687145Y-64863601D01*
X122690074Y-64853521D01*
X122731767Y-64710008D01*
X122733562Y-64703831D01*
X122734121Y-64696738D01*
X122736307Y-64668958D01*
X122736307Y-64668950D01*
X122736500Y-64666502D01*
X122736500Y-64434500D01*
X122756502Y-64366379D01*
X122810158Y-64319886D01*
X122862500Y-64308500D01*
X124019502Y-64308500D01*
X124021950Y-64308307D01*
X124021958Y-64308307D01*
X124050421Y-64306067D01*
X124050426Y-64306066D01*
X124056831Y-64305562D01*
X124157831Y-64276219D01*
X124208988Y-64261357D01*
X124208990Y-64261356D01*
X124216601Y-64259145D01*
X124314839Y-64201047D01*
X124378978Y-64183500D01*
X125665500Y-64183500D01*
X125733621Y-64203502D01*
X125780114Y-64257158D01*
X125791500Y-64309500D01*
X125791500Y-64424400D01*
X125791837Y-64427646D01*
X125791837Y-64427650D01*
X125799393Y-64500467D01*
X125802474Y-64530166D01*
X125804655Y-64536702D01*
X125804655Y-64536704D01*
X125813861Y-64564298D01*
X125858450Y-64697946D01*
X125951522Y-64848348D01*
X126014929Y-64911644D01*
X126038109Y-64934784D01*
X126072188Y-64997066D01*
X126067185Y-65067886D01*
X126038264Y-65112975D01*
X126026806Y-65124453D01*
X125950695Y-65200697D01*
X125946855Y-65206927D01*
X125946854Y-65206928D01*
X125867409Y-65335812D01*
X125857885Y-65351262D01*
X125837905Y-65411500D01*
X125809589Y-65496872D01*
X125802203Y-65519139D01*
X125801503Y-65525975D01*
X125801502Y-65525978D01*
X125800373Y-65537000D01*
X125791500Y-65623600D01*
X125791500Y-66249400D01*
X125791837Y-66252646D01*
X125791837Y-66252650D01*
X125801660Y-66347319D01*
X125802474Y-66355166D01*
X125858450Y-66522946D01*
X125951522Y-66673348D01*
X126076697Y-66798305D01*
X126082927Y-66802145D01*
X126082928Y-66802146D01*
X126220090Y-66886694D01*
X126227262Y-66891115D01*
X126307005Y-66917564D01*
X126388611Y-66944632D01*
X126388613Y-66944632D01*
X126395139Y-66946797D01*
X126401975Y-66947497D01*
X126401978Y-66947498D01*
X126445031Y-66951909D01*
X126499600Y-66957500D01*
X127500400Y-66957500D01*
X127503646Y-66957163D01*
X127503650Y-66957163D01*
X127599308Y-66947238D01*
X127599312Y-66947237D01*
X127606166Y-66946526D01*
X127612702Y-66944345D01*
X127612704Y-66944345D01*
X127744806Y-66900272D01*
X127773946Y-66890550D01*
X127924348Y-66797478D01*
X127989731Y-66731982D01*
X128052013Y-66697903D01*
X128078903Y-66695000D01*
X131735223Y-66695000D01*
X131803344Y-66715002D01*
X131849837Y-66768658D01*
X131856757Y-66787751D01*
X131874370Y-66852132D01*
X131875656Y-66857251D01*
X131883814Y-66892868D01*
X131894258Y-66938470D01*
X131896460Y-66943632D01*
X131901294Y-66954967D01*
X131906927Y-66971142D01*
X131911663Y-66988451D01*
X131927280Y-67021192D01*
X131947539Y-67063667D01*
X131949710Y-67068476D01*
X131982397Y-67145109D01*
X131992251Y-67160110D01*
X132000654Y-67175025D01*
X132008378Y-67191218D01*
X132011648Y-67195769D01*
X132011650Y-67195772D01*
X132056999Y-67258881D01*
X132059989Y-67263232D01*
X132103196Y-67329010D01*
X132103202Y-67329018D01*
X132105735Y-67332874D01*
X132124257Y-67353662D01*
X132132490Y-67363939D01*
X132139471Y-67373654D01*
X132154208Y-67387935D01*
X132216251Y-67448060D01*
X132217660Y-67449448D01*
X132754410Y-67986198D01*
X132754414Y-67986201D01*
X132754422Y-67986209D01*
X133832595Y-69064383D01*
X133866621Y-69126695D01*
X133869500Y-69153478D01*
X133869500Y-75118522D01*
X133849498Y-75186643D01*
X133832595Y-75207617D01*
X131087617Y-77952595D01*
X131025305Y-77986621D01*
X130998522Y-77989500D01*
X128107396Y-77989500D01*
X128090949Y-77988422D01*
X128090270Y-77988333D01*
X128068914Y-77985521D01*
X128063314Y-77985785D01*
X128063313Y-77985785D01*
X127987504Y-77989360D01*
X127981569Y-77989500D01*
X127959001Y-77989500D01*
X127956218Y-77989748D01*
X127956204Y-77989749D01*
X127933023Y-77991818D01*
X127927760Y-77992177D01*
X127898342Y-77993564D01*
X127844512Y-77996103D01*
X127827023Y-78000108D01*
X127810104Y-78002788D01*
X127805618Y-78003189D01*
X127792238Y-78004383D01*
X127786830Y-78005862D01*
X127786827Y-78005863D01*
X127711870Y-78026369D01*
X127706752Y-78027655D01*
X127649946Y-78040666D01*
X127625530Y-78046258D01*
X127609037Y-78053293D01*
X127592855Y-78058928D01*
X127580967Y-78062180D01*
X127580958Y-78062183D01*
X127575549Y-78063663D01*
X127570486Y-78066078D01*
X127570475Y-78066082D01*
X127500343Y-78099534D01*
X127495542Y-78101702D01*
X127418892Y-78134396D01*
X127414204Y-78137475D01*
X127414203Y-78137476D01*
X127403900Y-78144244D01*
X127388971Y-78152656D01*
X127372782Y-78160378D01*
X127368226Y-78163652D01*
X127368224Y-78163653D01*
X127305122Y-78208997D01*
X127300771Y-78211987D01*
X127234992Y-78255195D01*
X127234987Y-78255199D01*
X127231126Y-78257735D01*
X127217753Y-78269650D01*
X127210346Y-78276249D01*
X127200055Y-78284494D01*
X127194907Y-78288193D01*
X127194903Y-78288197D01*
X127190346Y-78291471D01*
X127186439Y-78295503D01*
X127115968Y-78368223D01*
X127114579Y-78369633D01*
X125398737Y-80085475D01*
X125386347Y-80096342D01*
X125368708Y-80109877D01*
X125314188Y-80169794D01*
X125313842Y-80170174D01*
X125309743Y-80174469D01*
X125293802Y-80190410D01*
X125292007Y-80192557D01*
X125292005Y-80192559D01*
X125277068Y-80210423D01*
X125273600Y-80214398D01*
X125221288Y-80271888D01*
X125221281Y-80271897D01*
X125217515Y-80276036D01*
X125214538Y-80280782D01*
X125214537Y-80280783D01*
X125207987Y-80291225D01*
X125197911Y-80305093D01*
X125190004Y-80314549D01*
X125189997Y-80314559D01*
X125186406Y-80318854D01*
X125160767Y-80363804D01*
X125145118Y-80391240D01*
X125142408Y-80395768D01*
X125109932Y-80447540D01*
X125098136Y-80466344D01*
X125096043Y-80471549D01*
X125096042Y-80471552D01*
X125091448Y-80482979D01*
X125083988Y-80498411D01*
X125077880Y-80509119D01*
X125077876Y-80509128D01*
X125075101Y-80513993D01*
X125073232Y-80519270D01*
X125073230Y-80519275D01*
X125047285Y-80592542D01*
X125045420Y-80597478D01*
X125014344Y-80674783D01*
X125013208Y-80680270D01*
X125013207Y-80680272D01*
X125010706Y-80692349D01*
X125006101Y-80708844D01*
X125000111Y-80725759D01*
X124999204Y-80731298D01*
X124986643Y-80808001D01*
X124985683Y-80813180D01*
X124968787Y-80894767D01*
X124968521Y-80899379D01*
X124968521Y-80899380D01*
X124967185Y-80922548D01*
X124965738Y-80935653D01*
X124964714Y-80941910D01*
X124963806Y-80947457D01*
X124963894Y-80953070D01*
X124963894Y-80953072D01*
X124965484Y-81054264D01*
X124965500Y-81056243D01*
X124965500Y-81824522D01*
X124945498Y-81892643D01*
X124928595Y-81913617D01*
X123301617Y-83540595D01*
X123239305Y-83574621D01*
X123212522Y-83577500D01*
X115889477Y-83577500D01*
X115821356Y-83557498D01*
X115800382Y-83540595D01*
X113645405Y-81385617D01*
X113611379Y-81323305D01*
X113608500Y-81296522D01*
X113608500Y-79728866D01*
X113601745Y-79666684D01*
X113550615Y-79530295D01*
X113463261Y-79413739D01*
X113346705Y-79326385D01*
X113210316Y-79275255D01*
X113148134Y-79268500D01*
X110451866Y-79268500D01*
X110389684Y-79275255D01*
X110253295Y-79326385D01*
X110136739Y-79413739D01*
X110049385Y-79530295D01*
X109998255Y-79666684D01*
X109991500Y-79728866D01*
X109991500Y-82425134D01*
X109998255Y-82487316D01*
X110049385Y-82623705D01*
X110136739Y-82740261D01*
X110253295Y-82827615D01*
X110389684Y-82878745D01*
X110451866Y-82885500D01*
X111533523Y-82885500D01*
X111601644Y-82905502D01*
X111622618Y-82922405D01*
X114336618Y-85636405D01*
X114370644Y-85698717D01*
X114365579Y-85769532D01*
X114323032Y-85826368D01*
X114256512Y-85851179D01*
X114247523Y-85851500D01*
X106632710Y-85851500D01*
X106564589Y-85831498D01*
X106518096Y-85777842D01*
X106507992Y-85707568D01*
X106536047Y-85644677D01*
X106557048Y-85619560D01*
X106559370Y-85616783D01*
X106584975Y-85577804D01*
X106675585Y-85439862D01*
X106749853Y-85326799D01*
X106860530Y-85106742D01*
X106904117Y-85020080D01*
X106904120Y-85020072D01*
X106905744Y-85016844D01*
X107024977Y-84691026D01*
X107025822Y-84687504D01*
X107025825Y-84687496D01*
X107105124Y-84357191D01*
X107105125Y-84357187D01*
X107105971Y-84353662D01*
X107138735Y-84082913D01*
X107147316Y-84012004D01*
X107147316Y-84011997D01*
X107147652Y-84009225D01*
X107153599Y-83820000D01*
X107150377Y-83764119D01*
X107133836Y-83477246D01*
X107133835Y-83477241D01*
X107133627Y-83473626D01*
X107073976Y-83131842D01*
X106975437Y-82799180D01*
X106974013Y-82795841D01*
X106840740Y-82483386D01*
X106840738Y-82483383D01*
X106839316Y-82480048D01*
X106809932Y-82428531D01*
X106669208Y-82181816D01*
X106667417Y-82178676D01*
X106462018Y-81899060D01*
X106405924Y-81838695D01*
X106267936Y-81690203D01*
X106225842Y-81644904D01*
X105962019Y-81419578D01*
X105674047Y-81226069D01*
X105365741Y-81066940D01*
X105041189Y-80944302D01*
X105037668Y-80943418D01*
X105037663Y-80943416D01*
X104876378Y-80902904D01*
X104704692Y-80859780D01*
X104682476Y-80856855D01*
X104364315Y-80814968D01*
X104364307Y-80814967D01*
X104360711Y-80814494D01*
X104216045Y-80812221D01*
X104017446Y-80809101D01*
X104017442Y-80809101D01*
X104013804Y-80809044D01*
X104010190Y-80809405D01*
X104010184Y-80809405D01*
X103766843Y-80833694D01*
X103668569Y-80843503D01*
X103329583Y-80917414D01*
X103326156Y-80918587D01*
X103326150Y-80918589D01*
X103225434Y-80953072D01*
X103001339Y-81029797D01*
X102688188Y-81179163D01*
X102394279Y-81363532D01*
X102357126Y-81393297D01*
X102313280Y-81428424D01*
X102247611Y-81455406D01*
X102177778Y-81442601D01*
X102125955Y-81394074D01*
X102108500Y-81330090D01*
X102108500Y-75086000D01*
X102128502Y-75017879D01*
X102182158Y-74971386D01*
X102234500Y-74960000D01*
X107378000Y-74960000D01*
X107378000Y-46960000D01*
X102234500Y-46960000D01*
X102166379Y-46939998D01*
X102119886Y-46886342D01*
X102108500Y-46834000D01*
X102108500Y-45670708D01*
X102128502Y-45602587D01*
X102182158Y-45556094D01*
X102252432Y-45545990D01*
X102308025Y-45568385D01*
X102525233Y-45724466D01*
X102828388Y-45893200D01*
X103148928Y-46025972D01*
X103152422Y-46026967D01*
X103152424Y-46026968D01*
X103479103Y-46120025D01*
X103479108Y-46120026D01*
X103482604Y-46121022D01*
X103679304Y-46153233D01*
X103821412Y-46176504D01*
X103821419Y-46176505D01*
X103824993Y-46177090D01*
X103998276Y-46185262D01*
X104167931Y-46193263D01*
X104167932Y-46193263D01*
X104171558Y-46193434D01*
X104180415Y-46192830D01*
X104514073Y-46170084D01*
X104514081Y-46170083D01*
X104517704Y-46169836D01*
X104521279Y-46169173D01*
X104521282Y-46169173D01*
X104855279Y-46107270D01*
X104855283Y-46107269D01*
X104858844Y-46106609D01*
X105190456Y-46004592D01*
X105508145Y-45865136D01*
X105752511Y-45722341D01*
X105804560Y-45691926D01*
X105804562Y-45691925D01*
X105807700Y-45690091D01*
X105835647Y-45669108D01*
X106082244Y-45483958D01*
X106082248Y-45483955D01*
X106085151Y-45481775D01*
X106336819Y-45242950D01*
X106559370Y-44976783D01*
X106614657Y-44892617D01*
X106706837Y-44752285D01*
X106749853Y-44686799D01*
X106849323Y-44489025D01*
X106904117Y-44380080D01*
X106904120Y-44380072D01*
X106905744Y-44376844D01*
X106911359Y-44361500D01*
X107023729Y-44054437D01*
X107023730Y-44054433D01*
X107024977Y-44051026D01*
X107025822Y-44047504D01*
X107025825Y-44047496D01*
X107105124Y-43717191D01*
X107105125Y-43717187D01*
X107105971Y-43713662D01*
X107114561Y-43642680D01*
X107147316Y-43372004D01*
X107147316Y-43371997D01*
X107147652Y-43369225D01*
X107153599Y-43180000D01*
X107152352Y-43158365D01*
X107133836Y-42837246D01*
X107133835Y-42837241D01*
X107133627Y-42833626D01*
X107112217Y-42710954D01*
X107074600Y-42495415D01*
X107074598Y-42495408D01*
X107073976Y-42491842D01*
X107069335Y-42476172D01*
X107004373Y-42256866D01*
X106975437Y-42159180D01*
X106936263Y-42067337D01*
X106840740Y-41843386D01*
X106840738Y-41843383D01*
X106839316Y-41840048D01*
X106833906Y-41830562D01*
X106669208Y-41541816D01*
X106667417Y-41538676D01*
X106607604Y-41457250D01*
X106528155Y-41349094D01*
X106503947Y-41282352D01*
X106519665Y-41213117D01*
X106570319Y-41163371D01*
X106629702Y-41148500D01*
X142290799Y-41148500D01*
X142358920Y-41168502D01*
G37*
G04 #@! TD.AperFunction*
G04 #@! TA.AperFunction,Conductor*
G36*
X127070316Y-59865502D02*
G01*
X127091290Y-59882405D01*
X127235344Y-60026459D01*
X127241198Y-60032724D01*
X127277790Y-60074670D01*
X127328155Y-60110066D01*
X127333420Y-60113978D01*
X127381828Y-60151935D01*
X127388752Y-60155061D01*
X127393061Y-60157671D01*
X127402476Y-60163042D01*
X127406924Y-60165427D01*
X127413139Y-60169795D01*
X127447691Y-60183266D01*
X127470457Y-60192142D01*
X127476529Y-60194694D01*
X127532605Y-60220014D01*
X127540082Y-60221400D01*
X127544902Y-60222910D01*
X127555318Y-60225878D01*
X127560198Y-60227131D01*
X127567272Y-60229889D01*
X127574803Y-60230881D01*
X127574805Y-60230881D01*
X127628277Y-60237921D01*
X127634790Y-60238953D01*
X127687799Y-60248777D01*
X127687801Y-60248777D01*
X127695268Y-60250161D01*
X127702849Y-60249724D01*
X127702850Y-60249724D01*
X127755143Y-60246709D01*
X127762395Y-60246500D01*
X129070941Y-60246500D01*
X129139062Y-60266502D01*
X129185555Y-60320158D01*
X129195659Y-60390432D01*
X129188027Y-60417417D01*
X129186855Y-60419399D01*
X129140438Y-60579169D01*
X129139934Y-60585574D01*
X129139933Y-60585579D01*
X129138408Y-60604958D01*
X129137500Y-60616498D01*
X129137500Y-61049502D01*
X129137693Y-61051950D01*
X129137693Y-61051958D01*
X129138680Y-61064491D01*
X129140438Y-61086831D01*
X129186855Y-61246601D01*
X129190892Y-61253427D01*
X129267509Y-61382980D01*
X129267511Y-61382983D01*
X129271547Y-61389807D01*
X129389193Y-61507453D01*
X129396017Y-61511489D01*
X129396020Y-61511491D01*
X129493779Y-61569305D01*
X129532399Y-61592145D01*
X129540010Y-61594356D01*
X129540012Y-61594357D01*
X129592231Y-61609528D01*
X129692169Y-61638562D01*
X129698574Y-61639066D01*
X129698579Y-61639067D01*
X129727042Y-61641307D01*
X129727050Y-61641307D01*
X129729498Y-61641500D01*
X131512502Y-61641500D01*
X131514950Y-61641307D01*
X131514958Y-61641307D01*
X131543421Y-61639067D01*
X131543426Y-61639066D01*
X131549831Y-61638562D01*
X131676347Y-61601806D01*
X131747344Y-61602009D01*
X131806960Y-61640563D01*
X131836268Y-61705228D01*
X131837500Y-61722803D01*
X131837500Y-62483197D01*
X131817498Y-62551318D01*
X131763842Y-62597811D01*
X131693568Y-62607915D01*
X131676347Y-62604194D01*
X131549831Y-62567438D01*
X131543426Y-62566934D01*
X131543421Y-62566933D01*
X131514958Y-62564693D01*
X131514950Y-62564693D01*
X131512502Y-62564500D01*
X129729498Y-62564500D01*
X129727050Y-62564693D01*
X129727042Y-62564693D01*
X129698579Y-62566933D01*
X129698574Y-62566934D01*
X129692169Y-62567438D01*
X129639888Y-62582627D01*
X129540012Y-62611643D01*
X129540010Y-62611644D01*
X129532399Y-62613855D01*
X129525572Y-62617892D01*
X129525573Y-62617892D01*
X129434161Y-62671953D01*
X129370022Y-62689500D01*
X127766556Y-62689500D01*
X127757986Y-62689208D01*
X127756943Y-62689137D01*
X127702466Y-62685423D01*
X127694989Y-62686728D01*
X127694986Y-62686728D01*
X127641842Y-62696003D01*
X127635319Y-62696966D01*
X127581808Y-62703442D01*
X127581807Y-62703442D01*
X127574265Y-62704355D01*
X127567155Y-62707041D01*
X127562252Y-62708246D01*
X127551766Y-62711114D01*
X127546974Y-62712561D01*
X127539496Y-62713866D01*
X127532544Y-62716918D01*
X127532543Y-62716918D01*
X127483159Y-62738595D01*
X127477054Y-62741086D01*
X127426618Y-62760145D01*
X127426615Y-62760147D01*
X127419511Y-62762831D01*
X127413254Y-62767131D01*
X127408786Y-62769467D01*
X127399340Y-62774725D01*
X127394974Y-62777307D01*
X127388015Y-62780362D01*
X127339196Y-62817823D01*
X127333877Y-62821686D01*
X127295179Y-62848283D01*
X127283174Y-62856534D01*
X127278123Y-62862203D01*
X127243268Y-62901323D01*
X127238287Y-62906598D01*
X127091290Y-63053595D01*
X127028978Y-63087621D01*
X127002195Y-63090500D01*
X126997805Y-63090500D01*
X126929684Y-63070498D01*
X126908710Y-63053595D01*
X126891656Y-63036541D01*
X126885802Y-63030276D01*
X126879078Y-63022568D01*
X126849210Y-62988330D01*
X126798845Y-62952934D01*
X126793577Y-62949020D01*
X126745172Y-62911065D01*
X126738248Y-62907939D01*
X126733939Y-62905329D01*
X126724524Y-62899958D01*
X126720076Y-62897573D01*
X126713861Y-62893205D01*
X126656539Y-62870856D01*
X126650471Y-62868306D01*
X126594395Y-62842986D01*
X126586918Y-62841600D01*
X126582098Y-62840090D01*
X126571665Y-62837118D01*
X126566804Y-62835870D01*
X126559728Y-62833111D01*
X126498738Y-62825082D01*
X126492222Y-62824050D01*
X126439200Y-62814223D01*
X126431733Y-62812839D01*
X126424153Y-62813276D01*
X126424152Y-62813276D01*
X126371858Y-62816291D01*
X126364606Y-62816500D01*
X124378978Y-62816500D01*
X124314839Y-62798953D01*
X124223427Y-62744892D01*
X124223428Y-62744892D01*
X124216601Y-62740855D01*
X124208990Y-62738644D01*
X124208988Y-62738643D01*
X124123703Y-62713866D01*
X124056831Y-62694438D01*
X124050426Y-62693934D01*
X124050421Y-62693933D01*
X124021958Y-62691693D01*
X124021950Y-62691693D01*
X124019502Y-62691500D01*
X122862500Y-62691500D01*
X122794379Y-62671498D01*
X122747886Y-62617842D01*
X122736500Y-62565500D01*
X122736500Y-62333498D01*
X122733562Y-62296169D01*
X122687145Y-62136399D01*
X122665342Y-62099532D01*
X122606491Y-62000020D01*
X122606489Y-62000017D01*
X122602453Y-61993193D01*
X122484807Y-61875547D01*
X122477983Y-61871511D01*
X122477980Y-61871509D01*
X122348427Y-61794892D01*
X122348428Y-61794892D01*
X122341601Y-61790855D01*
X122333990Y-61788644D01*
X122333988Y-61788643D01*
X122281769Y-61773472D01*
X122181831Y-61744438D01*
X122175426Y-61743934D01*
X122175421Y-61743933D01*
X122146958Y-61741693D01*
X122146950Y-61741693D01*
X122144502Y-61741500D01*
X120912696Y-61741500D01*
X120844575Y-61721498D01*
X120798082Y-61667842D01*
X120787386Y-61602330D01*
X120800814Y-61474565D01*
X120801504Y-61468000D01*
X120787386Y-61333670D01*
X120800158Y-61263832D01*
X120848661Y-61211985D01*
X120912696Y-61194500D01*
X122144502Y-61194500D01*
X122146950Y-61194307D01*
X122146958Y-61194307D01*
X122175421Y-61192067D01*
X122175426Y-61192066D01*
X122181831Y-61191562D01*
X122281769Y-61162528D01*
X122333988Y-61147357D01*
X122333990Y-61147356D01*
X122341601Y-61145145D01*
X122429760Y-61093008D01*
X122477980Y-61064491D01*
X122477983Y-61064489D01*
X122484807Y-61060453D01*
X122602453Y-60942807D01*
X122606489Y-60935983D01*
X122606491Y-60935980D01*
X122683108Y-60806427D01*
X122687145Y-60799601D01*
X122733562Y-60639831D01*
X122735399Y-60616498D01*
X122736307Y-60604958D01*
X122736307Y-60604950D01*
X122736500Y-60602502D01*
X122736500Y-60370500D01*
X122756502Y-60302379D01*
X122810158Y-60255886D01*
X122862500Y-60244500D01*
X124019502Y-60244500D01*
X124021950Y-60244307D01*
X124021958Y-60244307D01*
X124050421Y-60242067D01*
X124050426Y-60242066D01*
X124056831Y-60241562D01*
X124191598Y-60202409D01*
X124208988Y-60197357D01*
X124208990Y-60197356D01*
X124216601Y-60195145D01*
X124279966Y-60157671D01*
X124314839Y-60137047D01*
X124378978Y-60119500D01*
X126360455Y-60119500D01*
X126369024Y-60119792D01*
X126416958Y-60123060D01*
X126416962Y-60123060D01*
X126424534Y-60123576D01*
X126432011Y-60122271D01*
X126432014Y-60122271D01*
X126485147Y-60112998D01*
X126491671Y-60112035D01*
X126545191Y-60105558D01*
X126552735Y-60104645D01*
X126559845Y-60101958D01*
X126564748Y-60100754D01*
X126575234Y-60097886D01*
X126580026Y-60096439D01*
X126587504Y-60095134D01*
X126594457Y-60092082D01*
X126643841Y-60070405D01*
X126649946Y-60067914D01*
X126700382Y-60048855D01*
X126700385Y-60048853D01*
X126707489Y-60046169D01*
X126713746Y-60041869D01*
X126718214Y-60039533D01*
X126727660Y-60034275D01*
X126732026Y-60031693D01*
X126738985Y-60028638D01*
X126787804Y-59991177D01*
X126793123Y-59987314D01*
X126837565Y-59956769D01*
X126843826Y-59952466D01*
X126883733Y-59907676D01*
X126888713Y-59902402D01*
X126908710Y-59882405D01*
X126971022Y-59848379D01*
X126997805Y-59845500D01*
X127002195Y-59845500D01*
X127070316Y-59865502D01*
G37*
G04 #@! TD.AperFunction*
M02*
