G04 #@! TF.GenerationSoftware,KiCad,Pcbnew,6.0.4-6f826c9f35~116~ubuntu18.04.1*
G04 #@! TF.CreationDate,2022-06-24T10:17:27+08:00*
G04 #@! TF.ProjectId,ESP32_CAN_TEST,45535033-325f-4434-914e-5f544553542e,rev?*
G04 #@! TF.SameCoordinates,Original*
G04 #@! TF.FileFunction,Copper,L1,Top*
G04 #@! TF.FilePolarity,Positive*
%FSLAX46Y46*%
G04 Gerber Fmt 4.6, Leading zero omitted, Abs format (unit mm)*
G04 Created by KiCad (PCBNEW 6.0.4-6f826c9f35~116~ubuntu18.04.1) date 2022-06-24 10:17:27*
%MOMM*%
%LPD*%
G01*
G04 APERTURE LIST*
G04 Aperture macros list*
%AMRoundRect*
0 Rectangle with rounded corners*
0 $1 Rounding radius*
0 $2 $3 $4 $5 $6 $7 $8 $9 X,Y pos of 4 corners*
0 Add a 4 corners polygon primitive as box body*
4,1,4,$2,$3,$4,$5,$6,$7,$8,$9,$2,$3,0*
0 Add four circle primitives for the rounded corners*
1,1,$1+$1,$2,$3*
1,1,$1+$1,$4,$5*
1,1,$1+$1,$6,$7*
1,1,$1+$1,$8,$9*
0 Add four rect primitives between the rounded corners*
20,1,$1+$1,$2,$3,$4,$5,0*
20,1,$1+$1,$4,$5,$6,$7,0*
20,1,$1+$1,$6,$7,$8,$9,0*
20,1,$1+$1,$8,$9,$2,$3,0*%
G04 Aperture macros list end*
G04 #@! TA.AperFunction,SMDPad,CuDef*
%ADD10RoundRect,0.250000X0.450000X-0.350000X0.450000X0.350000X-0.450000X0.350000X-0.450000X-0.350000X0*%
G04 #@! TD*
G04 #@! TA.AperFunction,SMDPad,CuDef*
%ADD11RoundRect,0.243750X0.456250X-0.243750X0.456250X0.243750X-0.456250X0.243750X-0.456250X-0.243750X0*%
G04 #@! TD*
G04 #@! TA.AperFunction,SMDPad,CuDef*
%ADD12R,1.500000X1.000000*%
G04 #@! TD*
G04 #@! TA.AperFunction,SMDPad,CuDef*
%ADD13R,1.700000X1.000000*%
G04 #@! TD*
G04 #@! TA.AperFunction,SMDPad,CuDef*
%ADD14RoundRect,0.250000X-0.475000X0.250000X-0.475000X-0.250000X0.475000X-0.250000X0.475000X0.250000X0*%
G04 #@! TD*
G04 #@! TA.AperFunction,ComponentPad*
%ADD15RoundRect,0.250001X-0.499999X-0.499999X0.499999X-0.499999X0.499999X0.499999X-0.499999X0.499999X0*%
G04 #@! TD*
G04 #@! TA.AperFunction,ComponentPad*
%ADD16C,1.500000*%
G04 #@! TD*
G04 #@! TA.AperFunction,SMDPad,CuDef*
%ADD17RoundRect,0.243750X-0.456250X0.243750X-0.456250X-0.243750X0.456250X-0.243750X0.456250X0.243750X0*%
G04 #@! TD*
G04 #@! TA.AperFunction,SMDPad,CuDef*
%ADD18RoundRect,0.150000X0.825000X0.150000X-0.825000X0.150000X-0.825000X-0.150000X0.825000X-0.150000X0*%
G04 #@! TD*
G04 #@! TA.AperFunction,ComponentPad*
%ADD19R,1.700000X1.700000*%
G04 #@! TD*
G04 #@! TA.AperFunction,ComponentPad*
%ADD20O,1.700000X1.700000*%
G04 #@! TD*
G04 #@! TA.AperFunction,ComponentPad*
%ADD21R,3.800000X3.800000*%
G04 #@! TD*
G04 #@! TA.AperFunction,ComponentPad*
%ADD22C,3.800000*%
G04 #@! TD*
G04 #@! TA.AperFunction,SMDPad,CuDef*
%ADD23RoundRect,0.250000X0.475000X-0.250000X0.475000X0.250000X-0.475000X0.250000X-0.475000X-0.250000X0*%
G04 #@! TD*
G04 #@! TA.AperFunction,SMDPad,CuDef*
%ADD24R,2.000000X0.900000*%
G04 #@! TD*
G04 #@! TA.AperFunction,SMDPad,CuDef*
%ADD25R,0.900000X2.000000*%
G04 #@! TD*
G04 #@! TA.AperFunction,SMDPad,CuDef*
%ADD26R,5.000000X5.000000*%
G04 #@! TD*
G04 #@! TA.AperFunction,SMDPad,CuDef*
%ADD27RoundRect,0.150000X0.150000X0.700000X-0.150000X0.700000X-0.150000X-0.700000X0.150000X-0.700000X0*%
G04 #@! TD*
G04 #@! TA.AperFunction,SMDPad,CuDef*
%ADD28RoundRect,0.250000X0.250000X1.150000X-0.250000X1.150000X-0.250000X-1.150000X0.250000X-1.150000X0*%
G04 #@! TD*
G04 #@! TA.AperFunction,SMDPad,CuDef*
%ADD29RoundRect,0.250000X-0.450000X0.350000X-0.450000X-0.350000X0.450000X-0.350000X0.450000X0.350000X0*%
G04 #@! TD*
G04 #@! TA.AperFunction,ComponentPad*
%ADD30RoundRect,0.250001X-0.499999X0.499999X-0.499999X-0.499999X0.499999X-0.499999X0.499999X0.499999X0*%
G04 #@! TD*
G04 #@! TA.AperFunction,SMDPad,CuDef*
%ADD31RoundRect,0.250000X-0.250000X-0.475000X0.250000X-0.475000X0.250000X0.475000X-0.250000X0.475000X0*%
G04 #@! TD*
G04 #@! TA.AperFunction,SMDPad,CuDef*
%ADD32R,2.500000X2.300000*%
G04 #@! TD*
G04 #@! TA.AperFunction,ViaPad*
%ADD33C,0.800000*%
G04 #@! TD*
G04 #@! TA.AperFunction,ViaPad*
%ADD34C,1.000000*%
G04 #@! TD*
G04 #@! TA.AperFunction,ViaPad*
%ADD35C,5.000000*%
G04 #@! TD*
G04 #@! TA.AperFunction,Conductor*
%ADD36C,0.350000*%
G04 #@! TD*
G04 #@! TA.AperFunction,Conductor*
%ADD37C,1.000000*%
G04 #@! TD*
G04 #@! TA.AperFunction,Conductor*
%ADD38C,0.500000*%
G04 #@! TD*
G04 #@! TA.AperFunction,Conductor*
%ADD39C,0.250000*%
G04 #@! TD*
G04 #@! TA.AperFunction,Conductor*
%ADD40C,1.500000*%
G04 #@! TD*
G04 APERTURE END LIST*
D10*
X142240000Y-80772000D03*
X142240000Y-78772000D03*
D11*
X144780000Y-80439500D03*
X144780000Y-78564500D03*
D12*
X143510000Y-103744000D03*
X143510000Y-105044000D03*
X143510000Y-101600000D03*
X143510000Y-100300000D03*
D13*
X114656000Y-87498000D03*
X108356000Y-87498000D03*
X114656000Y-83698000D03*
X108356000Y-83698000D03*
X108330600Y-93898800D03*
X114630600Y-93898800D03*
X108330600Y-90098800D03*
X114630600Y-90098800D03*
D14*
X137922000Y-104140000D03*
X137922000Y-106040000D03*
D15*
X116102000Y-115179000D03*
D16*
X119102000Y-115179000D03*
X116102000Y-118179000D03*
X119102000Y-118179000D03*
D17*
X117856000Y-97868500D03*
X117856000Y-99743500D03*
D18*
X134555000Y-105791000D03*
X134555000Y-104521000D03*
X134555000Y-103251000D03*
X134555000Y-101981000D03*
X129605000Y-101981000D03*
X129605000Y-103251000D03*
X129605000Y-104521000D03*
X129605000Y-105791000D03*
D19*
X144038400Y-119786400D03*
D20*
X141498400Y-119786400D03*
X138958400Y-119786400D03*
X136418400Y-119786400D03*
X133878400Y-119786400D03*
D21*
X110490000Y-108672000D03*
D22*
X110490000Y-103672000D03*
D19*
X150612000Y-97053000D03*
D20*
X148072000Y-97053000D03*
X145532000Y-97053000D03*
X142992000Y-97053000D03*
D23*
X114046000Y-79182000D03*
X114046000Y-77282000D03*
X116332000Y-79182000D03*
X116332000Y-77282000D03*
D14*
X117094000Y-87442000D03*
X117094000Y-89342000D03*
D19*
X150418800Y-103637000D03*
D20*
X150418800Y-106177000D03*
X150418800Y-108717000D03*
X150418800Y-111257000D03*
X150418800Y-113797000D03*
D24*
X120786000Y-77851000D03*
X120786000Y-79121000D03*
X120786000Y-80391000D03*
X120786000Y-81661000D03*
X120786000Y-82931000D03*
X120786000Y-84201000D03*
X120786000Y-85471000D03*
X120786000Y-86741000D03*
X120786000Y-88011000D03*
X120786000Y-89281000D03*
X120786000Y-90551000D03*
X120786000Y-91821000D03*
X120786000Y-93091000D03*
X120786000Y-94361000D03*
D25*
X123571000Y-95361000D03*
X124841000Y-95361000D03*
X126111000Y-95361000D03*
X127381000Y-95361000D03*
X128651000Y-95361000D03*
X129921000Y-95361000D03*
X131191000Y-95361000D03*
X132461000Y-95361000D03*
X133731000Y-95361000D03*
X135001000Y-95361000D03*
D24*
X137786000Y-94361000D03*
X137786000Y-93091000D03*
X137786000Y-91821000D03*
X137786000Y-90551000D03*
X137786000Y-89281000D03*
X137786000Y-88011000D03*
X137786000Y-86741000D03*
X137786000Y-85471000D03*
X137786000Y-84201000D03*
X137786000Y-82931000D03*
X137786000Y-81661000D03*
X137786000Y-80391000D03*
X137786000Y-79121000D03*
X137786000Y-77851000D03*
D26*
X128286000Y-85351000D03*
D27*
X129149000Y-116160000D03*
X127899000Y-116160000D03*
D28*
X130999000Y-119510000D03*
X126049000Y-119510000D03*
D29*
X117094000Y-83582000D03*
X117094000Y-85582000D03*
D30*
X149352000Y-86106000D03*
D16*
X149352000Y-89106000D03*
X146352000Y-86106000D03*
X146352000Y-89106000D03*
D31*
X113451600Y-96189800D03*
X115351600Y-96189800D03*
D29*
X120396000Y-97552000D03*
X120396000Y-99552000D03*
D32*
X120768000Y-103632000D03*
X116468000Y-103632000D03*
D33*
X123190000Y-82804000D03*
X118872000Y-86614000D03*
X144272000Y-115570000D03*
X140208000Y-77978000D03*
X133604000Y-79756000D03*
X123952000Y-79756000D03*
X135636000Y-79756000D03*
X119126000Y-77470000D03*
X143256000Y-107950000D03*
D34*
X123444000Y-77724000D03*
X140462000Y-81788000D03*
X112000500Y-81575269D03*
D35*
X109363000Y-78867000D03*
D33*
X142494000Y-106680000D03*
X145288000Y-108204000D03*
X151384000Y-101092000D03*
X126746000Y-85598000D03*
D35*
X109363000Y-119507000D03*
D33*
X126746000Y-83820000D03*
X126492000Y-102362000D03*
X115316000Y-107188000D03*
X128270000Y-87122000D03*
X124714000Y-108966000D03*
X124460000Y-92710000D03*
X133858000Y-114046000D03*
X130048000Y-85598000D03*
X115316000Y-110236000D03*
X119380000Y-120650000D03*
D35*
X150003000Y-119507000D03*
D33*
X108966000Y-112776000D03*
X151130000Y-93726000D03*
X146812000Y-102108000D03*
X143002000Y-117094000D03*
X110744000Y-89662000D03*
X137668000Y-116332000D03*
X110490000Y-85090000D03*
X113030000Y-85598000D03*
X147828000Y-91948000D03*
X145542000Y-112776000D03*
X133604000Y-92456000D03*
X150876000Y-91948000D03*
X127762000Y-92710000D03*
X121920000Y-111760000D03*
X126746000Y-87122000D03*
X130048000Y-87122000D03*
X128270000Y-83820000D03*
X112522000Y-89662000D03*
X112522000Y-91186000D03*
X128270000Y-107188000D03*
X128270000Y-85598000D03*
X110744000Y-91186000D03*
X130048000Y-83820000D03*
D35*
X150003000Y-78867000D03*
D33*
X151384000Y-99060000D03*
X124206000Y-102362000D03*
X116078000Y-120650000D03*
X108966000Y-115062000D03*
X123444000Y-113284000D03*
D34*
X121920000Y-98298000D03*
X137414000Y-114554000D03*
D33*
X117348000Y-95758000D03*
X137897000Y-96012000D03*
D34*
X135453464Y-98423668D03*
X136398000Y-100838000D03*
X136398000Y-99568000D03*
D33*
X136906000Y-97536000D03*
X135128000Y-107188000D03*
X138671500Y-97536000D03*
X136144000Y-92710000D03*
D34*
X123444000Y-107188000D03*
D33*
X133604000Y-87122000D03*
X134620000Y-84582000D03*
D36*
X142240000Y-78772000D02*
X144572500Y-78772000D01*
X144572500Y-78772000D02*
X144780000Y-78564500D01*
X142240000Y-80772000D02*
X140970000Y-80772000D01*
X140970000Y-80772000D02*
X139319000Y-79121000D01*
X139319000Y-79121000D02*
X137786000Y-79121000D01*
D37*
X112000500Y-81039500D02*
X113858000Y-79182000D01*
X112000500Y-81575269D02*
X112000500Y-81039500D01*
X113858000Y-79182000D02*
X114046000Y-79182000D01*
D38*
X115570000Y-82296000D02*
X116856000Y-83582000D01*
X112721231Y-82296000D02*
X115570000Y-82296000D01*
X112000500Y-81575269D02*
X112721231Y-82296000D01*
X116856000Y-83582000D02*
X117094000Y-83582000D01*
D37*
X150418800Y-103637000D02*
X145801000Y-103637000D01*
X145801000Y-103637000D02*
X143617000Y-103637000D01*
X145801000Y-103637000D02*
X146641511Y-104477511D01*
X146641511Y-104477511D02*
X146641511Y-116756489D01*
X146641511Y-116756489D02*
X144038400Y-119359600D01*
X144038400Y-119359600D02*
X144038400Y-119786400D01*
X143617000Y-103637000D02*
X143510000Y-103744000D01*
X143764000Y-92710000D02*
X145288000Y-94234000D01*
X143764000Y-88900000D02*
X143764000Y-92710000D01*
X145288000Y-94234000D02*
X148082000Y-94234000D01*
X140462000Y-81788000D02*
X141986000Y-83312000D01*
X141986000Y-87122000D02*
X143764000Y-88900000D01*
X141986000Y-83312000D02*
X141986000Y-87122000D01*
X148082000Y-94234000D02*
X150612000Y-96764000D01*
X150612000Y-96764000D02*
X150612000Y-97053000D01*
D36*
X142748000Y-93218000D02*
X145034000Y-95504000D01*
X142748000Y-89662000D02*
X142748000Y-93218000D01*
X140462000Y-87376000D02*
X142748000Y-89662000D01*
X146558000Y-95504000D02*
X148072000Y-97018000D01*
X140462000Y-83407978D02*
X140462000Y-87376000D01*
X137786000Y-81661000D02*
X138715022Y-81661000D01*
X138715022Y-81661000D02*
X140462000Y-83407978D01*
X145034000Y-95504000D02*
X146558000Y-95504000D01*
X148072000Y-97018000D02*
X148072000Y-97053000D01*
X141986000Y-93472000D02*
X145532000Y-97018000D01*
X139700000Y-83915978D02*
X139700000Y-87630000D01*
X141986000Y-89916000D02*
X141986000Y-93472000D01*
X137786000Y-82931000D02*
X138715022Y-82931000D01*
X138715022Y-82931000D02*
X139700000Y-83915978D01*
X139700000Y-87630000D02*
X141986000Y-89916000D01*
X145532000Y-97018000D02*
X145532000Y-97053000D01*
D37*
X116332000Y-79182000D02*
X121986000Y-79182000D01*
X121986000Y-79182000D02*
X123444000Y-77724000D01*
X114046000Y-79182000D02*
X116332000Y-79182000D01*
X144496000Y-99314000D02*
X148351000Y-99314000D01*
X143510000Y-100300000D02*
X144496000Y-99314000D01*
X148351000Y-99314000D02*
X150612000Y-97053000D01*
X143256000Y-107950000D02*
X143593511Y-107612489D01*
X143593511Y-105127511D02*
X143510000Y-105044000D01*
X143593511Y-107612489D02*
X143593511Y-105127511D01*
X143510000Y-101600000D02*
X143510000Y-103744000D01*
D38*
X136017000Y-103251000D02*
X136398000Y-103632000D01*
X136398000Y-105156000D02*
X137282000Y-106040000D01*
X136398000Y-103632000D02*
X136398000Y-105156000D01*
X134555000Y-103251000D02*
X136017000Y-103251000D01*
X137282000Y-106040000D02*
X137922000Y-106040000D01*
X137922000Y-106040000D02*
X137922000Y-114046000D01*
X137922000Y-114046000D02*
X137414000Y-114554000D01*
X134874000Y-99568000D02*
X132588000Y-97282000D01*
X136398000Y-99568000D02*
X134874000Y-99568000D01*
X132588000Y-97282000D02*
X125682978Y-97282000D01*
X125682978Y-97282000D02*
X124841000Y-96440022D01*
X124841000Y-96440022D02*
X124841000Y-95361000D01*
X122428000Y-93653978D02*
X121865022Y-93091000D01*
X122428000Y-96567022D02*
X122428000Y-93653978D01*
X124158978Y-98298000D02*
X122428000Y-96567022D01*
X132334000Y-98298000D02*
X124158978Y-98298000D01*
X136398000Y-100838000D02*
X134874000Y-100838000D01*
X134874000Y-100838000D02*
X132334000Y-98298000D01*
X121865022Y-93091000D02*
X120786000Y-93091000D01*
X135453464Y-98162486D02*
X133731000Y-96440022D01*
X133731000Y-96440022D02*
X133731000Y-95361000D01*
X135453464Y-98423668D02*
X135453464Y-98162486D01*
D36*
X133604000Y-87122000D02*
X131445000Y-89281000D01*
X131445000Y-89281000D02*
X120786000Y-89281000D01*
X134620000Y-84582000D02*
X134620000Y-88900000D01*
X133096000Y-90424000D02*
X120913000Y-90424000D01*
X134620000Y-88900000D02*
X133096000Y-90424000D01*
D37*
X121920000Y-98298000D02*
X123952000Y-100330000D01*
X131826000Y-108966000D02*
X137414000Y-114554000D01*
X123952000Y-100330000D02*
X130130402Y-100330000D01*
X131826000Y-102025598D02*
X131826000Y-108966000D01*
X130130402Y-100330000D02*
X131826000Y-102025598D01*
D39*
X117094000Y-85582000D02*
X117094000Y-87442000D01*
D38*
X118872000Y-83804000D02*
X117094000Y-85582000D01*
D39*
X114656000Y-83698000D02*
X115210000Y-83698000D01*
D38*
X118872000Y-81225978D02*
X118872000Y-83804000D01*
D39*
X108356000Y-83698000D02*
X114656000Y-83698000D01*
D38*
X119706978Y-80391000D02*
X118872000Y-81225978D01*
X120786000Y-80391000D02*
X119706978Y-80391000D01*
D39*
X115210000Y-83698000D02*
X117094000Y-85582000D01*
D36*
X137786000Y-95901000D02*
X137897000Y-96012000D01*
X114630600Y-95468800D02*
X115351600Y-96189800D01*
X114630600Y-93898800D02*
X108330600Y-93898800D01*
X117348000Y-95758000D02*
X115783400Y-95758000D01*
X115783400Y-95758000D02*
X115351600Y-96189800D01*
X137786000Y-94361000D02*
X137786000Y-95901000D01*
X114630600Y-93898800D02*
X114630600Y-95468800D01*
D39*
X120396000Y-99552000D02*
X118047500Y-99552000D01*
X118047500Y-99552000D02*
X117856000Y-99743500D01*
D36*
X124206000Y-116332000D02*
X124206000Y-115808862D01*
X120979480Y-114629480D02*
X120142000Y-113792000D01*
X117348000Y-113792000D02*
X116102000Y-115038000D01*
X127006520Y-117052480D02*
X124926480Y-117052480D01*
X124206000Y-115808862D02*
X123026618Y-114629480D01*
X129605000Y-103251000D02*
X129605000Y-103313000D01*
X120142000Y-113792000D02*
X117348000Y-113792000D01*
X126238000Y-105410000D02*
X126238000Y-114499000D01*
X116102000Y-115038000D02*
X116102000Y-115179000D01*
X126238000Y-114499000D02*
X127899000Y-116160000D01*
X123026618Y-114629480D02*
X120979480Y-114629480D01*
X124926480Y-117052480D02*
X124206000Y-116332000D01*
X129605000Y-103251000D02*
X128397000Y-103251000D01*
X127899000Y-116160000D02*
X127006520Y-117052480D01*
X129605000Y-103313000D02*
X129540000Y-103378000D01*
X128397000Y-103251000D02*
X126238000Y-105410000D01*
X129605000Y-104521000D02*
X128438520Y-104521000D01*
X123444000Y-115824000D02*
X123444000Y-116586000D01*
X127508000Y-114554000D02*
X128524000Y-114554000D01*
X127041520Y-105918000D02*
X127041520Y-114087520D01*
X127041520Y-114087520D02*
X127508000Y-114554000D01*
X128524000Y-114554000D02*
X129149000Y-115179000D01*
X123444000Y-116586000D02*
X124460000Y-117602000D01*
X128438520Y-104521000D02*
X127041520Y-105918000D01*
X129149000Y-115179000D02*
X129149000Y-116160000D01*
X129149000Y-116723000D02*
X129149000Y-116160000D01*
X122799000Y-115179000D02*
X123444000Y-115824000D01*
X124460000Y-117602000D02*
X128270000Y-117602000D01*
X119102000Y-115179000D02*
X122799000Y-115179000D01*
X128270000Y-117602000D02*
X129149000Y-116723000D01*
X137786000Y-88011000D02*
X139136000Y-88011000D01*
X139136000Y-88011000D02*
X140970000Y-89845000D01*
X140970000Y-119258000D02*
X141498400Y-119786400D01*
X140970000Y-89845000D02*
X140970000Y-119258000D01*
X140208000Y-118618000D02*
X139039600Y-119786400D01*
X139293600Y-119786400D02*
X138958400Y-119786400D01*
X139039600Y-119786400D02*
X138958400Y-119786400D01*
X140208000Y-91623000D02*
X140208000Y-118618000D01*
X137786000Y-90551000D02*
X139136000Y-90551000D01*
X139136000Y-90551000D02*
X140208000Y-91623000D01*
X139446000Y-92456000D02*
X139446000Y-116758800D01*
X139446000Y-116758800D02*
X136418400Y-119786400D01*
X138811000Y-91821000D02*
X139446000Y-92456000D01*
X137786000Y-91821000D02*
X138811000Y-91821000D01*
D39*
X120786000Y-97162000D02*
X120396000Y-97552000D01*
X120786000Y-94361000D02*
X120786000Y-97162000D01*
D36*
X135128000Y-107188000D02*
X135128000Y-106364000D01*
X136411489Y-94572467D02*
X136411489Y-96787489D01*
X135128000Y-90932000D02*
X135128000Y-93288978D01*
X136411489Y-96787489D02*
X136906000Y-97282000D01*
X137786000Y-89281000D02*
X136779000Y-89281000D01*
X136906000Y-97282000D02*
X136906000Y-97536000D01*
X135128000Y-93288978D02*
X136411489Y-94572467D01*
X136779000Y-89281000D02*
X135128000Y-90932000D01*
X135128000Y-106364000D02*
X134555000Y-105791000D01*
X137786000Y-93091000D02*
X136525000Y-93091000D01*
X137786000Y-93091000D02*
X138557000Y-93091000D01*
X137414000Y-101092000D02*
X136525000Y-101981000D01*
X136525000Y-93091000D02*
X136144000Y-92710000D01*
X138671500Y-97536000D02*
X138671500Y-97548500D01*
X137414000Y-98806000D02*
X137414000Y-101092000D01*
X136525000Y-101981000D02*
X134555000Y-101981000D01*
X138671500Y-97548500D02*
X137414000Y-98806000D01*
D37*
X123698000Y-105156000D02*
X123698000Y-106934000D01*
X123698000Y-106934000D02*
X123444000Y-107188000D01*
X120768000Y-103632000D02*
X122174000Y-103632000D01*
X122174000Y-103632000D02*
X123698000Y-105156000D01*
D40*
X116428000Y-103672000D02*
X116468000Y-103632000D01*
X110490000Y-103672000D02*
X116428000Y-103672000D01*
D38*
X120913000Y-89408000D02*
X120786000Y-89281000D01*
X120913000Y-90424000D02*
X120786000Y-90551000D01*
G04 #@! TA.AperFunction,Conductor*
G36*
X151994698Y-104464637D02*
G01*
X152026407Y-104528159D01*
X152028384Y-104550345D01*
X152028790Y-105711493D01*
X152028929Y-106110644D01*
X152008951Y-106178772D01*
X151994109Y-106191642D01*
X151997223Y-106193591D01*
X152027482Y-106257817D01*
X152028987Y-106277187D01*
X152029322Y-107233949D01*
X152029773Y-108522859D01*
X152029821Y-108661490D01*
X152009843Y-108729618D01*
X152002433Y-108736043D01*
X152028368Y-108791091D01*
X152029873Y-108810458D01*
X152030064Y-109357612D01*
X152030712Y-111212336D01*
X152010734Y-111280464D01*
X152009197Y-111281796D01*
X152029253Y-111324365D01*
X152030758Y-111343735D01*
X152033620Y-119530970D01*
X152034241Y-121305240D01*
X152034278Y-121412456D01*
X152014300Y-121480584D01*
X151960660Y-121527095D01*
X151908278Y-121538500D01*
X131713897Y-121538500D01*
X131645776Y-121518498D01*
X131599283Y-121464842D01*
X131589179Y-121394568D01*
X131618673Y-121329988D01*
X131647594Y-121305356D01*
X131647782Y-121305240D01*
X131723348Y-121258478D01*
X131848305Y-121133303D01*
X131871014Y-121096462D01*
X131937275Y-120988968D01*
X131937276Y-120988966D01*
X131941115Y-120982738D01*
X131992581Y-120827573D01*
X131994632Y-120821389D01*
X131994632Y-120821387D01*
X131996797Y-120814861D01*
X132007500Y-120710400D01*
X132007500Y-118309600D01*
X132006181Y-118296886D01*
X131997238Y-118210692D01*
X131997237Y-118210688D01*
X131996526Y-118203834D01*
X131992089Y-118190533D01*
X131942868Y-118043002D01*
X131940550Y-118036054D01*
X131847478Y-117885652D01*
X131722303Y-117760695D01*
X131716072Y-117756854D01*
X131577968Y-117671725D01*
X131577966Y-117671724D01*
X131571738Y-117667885D01*
X131411254Y-117614655D01*
X131410389Y-117614368D01*
X131410387Y-117614368D01*
X131403861Y-117612203D01*
X131397025Y-117611503D01*
X131397022Y-117611502D01*
X131353969Y-117607091D01*
X131299400Y-117601500D01*
X130698600Y-117601500D01*
X130695354Y-117601837D01*
X130695350Y-117601837D01*
X130599692Y-117611762D01*
X130599688Y-117611763D01*
X130592834Y-117612474D01*
X130586298Y-117614655D01*
X130586296Y-117614655D01*
X130489602Y-117646915D01*
X130425054Y-117668450D01*
X130274652Y-117761522D01*
X130149695Y-117886697D01*
X130056885Y-118037262D01*
X130046523Y-118068504D01*
X130003444Y-118198384D01*
X130001203Y-118205139D01*
X130000503Y-118211975D01*
X130000502Y-118211978D01*
X129996091Y-118255031D01*
X129990500Y-118309600D01*
X129990500Y-120710400D01*
X129990837Y-120713646D01*
X129990837Y-120713650D01*
X129995036Y-120754115D01*
X130001474Y-120816166D01*
X130003655Y-120822702D01*
X130003655Y-120822704D01*
X130023807Y-120883105D01*
X130057450Y-120983946D01*
X130150522Y-121134348D01*
X130275697Y-121259305D01*
X130281927Y-121263145D01*
X130281928Y-121263146D01*
X130350217Y-121305240D01*
X130397710Y-121358012D01*
X130409134Y-121428084D01*
X130380860Y-121493208D01*
X130321866Y-121532707D01*
X130284101Y-121538500D01*
X126763897Y-121538500D01*
X126695776Y-121518498D01*
X126649283Y-121464842D01*
X126639179Y-121394568D01*
X126668673Y-121329988D01*
X126697594Y-121305356D01*
X126697782Y-121305240D01*
X126773348Y-121258478D01*
X126898305Y-121133303D01*
X126921014Y-121096462D01*
X126987275Y-120988968D01*
X126987276Y-120988966D01*
X126991115Y-120982738D01*
X127042581Y-120827573D01*
X127044632Y-120821389D01*
X127044632Y-120821387D01*
X127046797Y-120814861D01*
X127057500Y-120710400D01*
X127057500Y-118411500D01*
X127077502Y-118343379D01*
X127131158Y-118296886D01*
X127183500Y-118285500D01*
X128241955Y-118285500D01*
X128250524Y-118285792D01*
X128298458Y-118289060D01*
X128298462Y-118289060D01*
X128306034Y-118289576D01*
X128313511Y-118288271D01*
X128313514Y-118288271D01*
X128366647Y-118278998D01*
X128373171Y-118278035D01*
X128426691Y-118271558D01*
X128434235Y-118270645D01*
X128441345Y-118267958D01*
X128446248Y-118266754D01*
X128456734Y-118263886D01*
X128461526Y-118262439D01*
X128469004Y-118261134D01*
X128475957Y-118258082D01*
X128525341Y-118236405D01*
X128531446Y-118233914D01*
X128581882Y-118214855D01*
X128581885Y-118214853D01*
X128588989Y-118212169D01*
X128595246Y-118207869D01*
X128599714Y-118205533D01*
X128609160Y-118200275D01*
X128613526Y-118197693D01*
X128620485Y-118194638D01*
X128669304Y-118157177D01*
X128674623Y-118153314D01*
X128719065Y-118122769D01*
X128725326Y-118118466D01*
X128765233Y-118073676D01*
X128770213Y-118068402D01*
X129283488Y-117555127D01*
X129345800Y-117521101D01*
X129365509Y-117518591D01*
X129365502Y-117518500D01*
X129367952Y-117518307D01*
X129367956Y-117518307D01*
X129396421Y-117516067D01*
X129396426Y-117516066D01*
X129402831Y-117515562D01*
X129523444Y-117480521D01*
X129554988Y-117471357D01*
X129554990Y-117471356D01*
X129562601Y-117469145D01*
X129625357Y-117432031D01*
X129698980Y-117388491D01*
X129698983Y-117388489D01*
X129705807Y-117384453D01*
X129823453Y-117266807D01*
X129827489Y-117259983D01*
X129827491Y-117259980D01*
X129904108Y-117130427D01*
X129908145Y-117123601D01*
X129954562Y-116963831D01*
X129955117Y-116956791D01*
X129957307Y-116928958D01*
X129957307Y-116928950D01*
X129957500Y-116926502D01*
X129957500Y-115393498D01*
X129957228Y-115390039D01*
X129955067Y-115362579D01*
X129955066Y-115362574D01*
X129954562Y-115356169D01*
X129915172Y-115220586D01*
X129910357Y-115204012D01*
X129910356Y-115204010D01*
X129908145Y-115196399D01*
X129835454Y-115073485D01*
X129820568Y-115029632D01*
X129820369Y-115029681D01*
X129819804Y-115027382D01*
X129818821Y-115024486D01*
X129817645Y-115014765D01*
X129814961Y-115007662D01*
X129813759Y-115002768D01*
X129810902Y-114992325D01*
X129809439Y-114987478D01*
X129808133Y-114979996D01*
X129805081Y-114973043D01*
X129805079Y-114973037D01*
X129783405Y-114923663D01*
X129780912Y-114917554D01*
X129761853Y-114867115D01*
X129759169Y-114860011D01*
X129754867Y-114853752D01*
X129752539Y-114849298D01*
X129747264Y-114839819D01*
X129744690Y-114835467D01*
X129741638Y-114828514D01*
X129737015Y-114822490D01*
X129737012Y-114822484D01*
X129704176Y-114779691D01*
X129700300Y-114774357D01*
X129698325Y-114771483D01*
X129665466Y-114723674D01*
X129620676Y-114683767D01*
X129615402Y-114678787D01*
X129027156Y-114090541D01*
X129021302Y-114084276D01*
X128989704Y-114048055D01*
X128984710Y-114042330D01*
X128934345Y-114006934D01*
X128929077Y-114003020D01*
X128925657Y-114000338D01*
X128880672Y-113965065D01*
X128873748Y-113961939D01*
X128869439Y-113959329D01*
X128860024Y-113953958D01*
X128855576Y-113951573D01*
X128849361Y-113947205D01*
X128792039Y-113924856D01*
X128785971Y-113922306D01*
X128729895Y-113896986D01*
X128722418Y-113895600D01*
X128717598Y-113894090D01*
X128707165Y-113891118D01*
X128702304Y-113889870D01*
X128695228Y-113887111D01*
X128634238Y-113879082D01*
X128627722Y-113878050D01*
X128574700Y-113868223D01*
X128567233Y-113866839D01*
X128559653Y-113867276D01*
X128559652Y-113867276D01*
X128507358Y-113870291D01*
X128500106Y-113870500D01*
X127851020Y-113870500D01*
X127782899Y-113850498D01*
X127736406Y-113796842D01*
X127725020Y-113744500D01*
X127725020Y-106253305D01*
X127745022Y-106185184D01*
X127761925Y-106164210D01*
X128565239Y-105360896D01*
X128627551Y-105326870D01*
X128674524Y-105326084D01*
X128676169Y-105326562D01*
X128682581Y-105327067D01*
X128682583Y-105327067D01*
X128711042Y-105329307D01*
X128711050Y-105329307D01*
X128713498Y-105329500D01*
X130496502Y-105329500D01*
X130498950Y-105329307D01*
X130498958Y-105329307D01*
X130527421Y-105327067D01*
X130527426Y-105327066D01*
X130533831Y-105326562D01*
X130656348Y-105290968D01*
X130727344Y-105291171D01*
X130786960Y-105329725D01*
X130816268Y-105394390D01*
X130817500Y-105411965D01*
X130817500Y-108904157D01*
X130816763Y-108917764D01*
X130814062Y-108942631D01*
X130812676Y-108955388D01*
X130814973Y-108981638D01*
X130817050Y-109005388D01*
X130817379Y-109010214D01*
X130817500Y-109012686D01*
X130817500Y-109015769D01*
X130817801Y-109018837D01*
X130821690Y-109058506D01*
X130821812Y-109059819D01*
X130829913Y-109152413D01*
X130831400Y-109157532D01*
X130831920Y-109162833D01*
X130858791Y-109251834D01*
X130859126Y-109252967D01*
X130880586Y-109326829D01*
X130885091Y-109342336D01*
X130887544Y-109347068D01*
X130889084Y-109352169D01*
X130891978Y-109357612D01*
X130932731Y-109434260D01*
X130933343Y-109435426D01*
X130976108Y-109517926D01*
X130979431Y-109522089D01*
X130981934Y-109526796D01*
X131040755Y-109598918D01*
X131041446Y-109599774D01*
X131072738Y-109638973D01*
X131075242Y-109641477D01*
X131075884Y-109642195D01*
X131079585Y-109646528D01*
X131106935Y-109680062D01*
X131111682Y-109683989D01*
X131111684Y-109683991D01*
X131142262Y-109709287D01*
X131151042Y-109717277D01*
X136654352Y-115220586D01*
X136664003Y-115231417D01*
X136685035Y-115257953D01*
X136689728Y-115261947D01*
X136689729Y-115261948D01*
X136726066Y-115292873D01*
X136733498Y-115299732D01*
X136736075Y-115302309D01*
X136738455Y-115304264D01*
X136738465Y-115304273D01*
X136766183Y-115327041D01*
X136767870Y-115328451D01*
X136835650Y-115386136D01*
X136841021Y-115389138D01*
X136841815Y-115389690D01*
X136842219Y-115389995D01*
X136842284Y-115390039D01*
X136844098Y-115391276D01*
X136844256Y-115391386D01*
X136844726Y-115391674D01*
X136845503Y-115392194D01*
X136850261Y-115396102D01*
X136855693Y-115399014D01*
X136855692Y-115399014D01*
X136928653Y-115438136D01*
X136930523Y-115439159D01*
X137008294Y-115482624D01*
X137014152Y-115484528D01*
X137015034Y-115484913D01*
X137015496Y-115485137D01*
X137015572Y-115485169D01*
X137017570Y-115486021D01*
X137017741Y-115486095D01*
X137018272Y-115486292D01*
X137019129Y-115486649D01*
X137024563Y-115489562D01*
X137030457Y-115491364D01*
X137109624Y-115515568D01*
X137111719Y-115516229D01*
X137190528Y-115541835D01*
X137190531Y-115541836D01*
X137196392Y-115543740D01*
X137202512Y-115544470D01*
X137203419Y-115544669D01*
X137203931Y-115544803D01*
X137204058Y-115544829D01*
X137206252Y-115545291D01*
X137206376Y-115545318D01*
X137206891Y-115545401D01*
X137207807Y-115545586D01*
X137213698Y-115547387D01*
X137219827Y-115548010D01*
X137219829Y-115548010D01*
X137302213Y-115556379D01*
X137304397Y-115556620D01*
X137377106Y-115565289D01*
X137392777Y-115567158D01*
X137398913Y-115566686D01*
X137399868Y-115566706D01*
X137400388Y-115566738D01*
X137400495Y-115566738D01*
X137402708Y-115566765D01*
X137402856Y-115566768D01*
X137403401Y-115566748D01*
X137404329Y-115566751D01*
X137410462Y-115567374D01*
X137499063Y-115558999D01*
X137501225Y-115558813D01*
X137529728Y-115556620D01*
X137583827Y-115552457D01*
X137583828Y-115552457D01*
X137589972Y-115551984D01*
X137595911Y-115550326D01*
X137596836Y-115550163D01*
X137597386Y-115550089D01*
X137597503Y-115550066D01*
X137599638Y-115549670D01*
X137599771Y-115549646D01*
X137600302Y-115549521D01*
X137601226Y-115549341D01*
X137607362Y-115548761D01*
X137620639Y-115544803D01*
X137692685Y-115523326D01*
X137694796Y-115522717D01*
X137774525Y-115500456D01*
X137774526Y-115500456D01*
X137780463Y-115498798D01*
X137785964Y-115496019D01*
X137786839Y-115495680D01*
X137787350Y-115495505D01*
X137787477Y-115495453D01*
X137789528Y-115494637D01*
X137789641Y-115494593D01*
X137790118Y-115494376D01*
X137790994Y-115494019D01*
X137796896Y-115492259D01*
X137875607Y-115450759D01*
X137877554Y-115449754D01*
X137951505Y-115412399D01*
X137951507Y-115412398D01*
X137956996Y-115409625D01*
X137961845Y-115405837D01*
X137962655Y-115405323D01*
X137963112Y-115405058D01*
X137963220Y-115404987D01*
X137965029Y-115403817D01*
X137965161Y-115403733D01*
X137965607Y-115403413D01*
X137966402Y-115402889D01*
X137971846Y-115400018D01*
X138021514Y-115359797D01*
X138040980Y-115344034D01*
X138042702Y-115342664D01*
X138107991Y-115291655D01*
X138107992Y-115291654D01*
X138112847Y-115287861D01*
X138116874Y-115283196D01*
X138117552Y-115282550D01*
X138117956Y-115282195D01*
X138118035Y-115282117D01*
X138119617Y-115280583D01*
X138119723Y-115280482D01*
X138120092Y-115280088D01*
X138120759Y-115279430D01*
X138125547Y-115275553D01*
X138182494Y-115207202D01*
X138183908Y-115205535D01*
X138191794Y-115196399D01*
X138242078Y-115138145D01*
X138245118Y-115132793D01*
X138245676Y-115132003D01*
X138245988Y-115131596D01*
X138246052Y-115131502D01*
X138247272Y-115129741D01*
X138247384Y-115129582D01*
X138247681Y-115129105D01*
X138248203Y-115128336D01*
X138252146Y-115123604D01*
X138255092Y-115118202D01*
X138255096Y-115118195D01*
X138294745Y-115045473D01*
X138295815Y-115043551D01*
X138303695Y-115029681D01*
X138339769Y-114966179D01*
X138341714Y-114960333D01*
X138342104Y-114959457D01*
X138342332Y-114958995D01*
X138342360Y-114958930D01*
X138343241Y-114956903D01*
X138343315Y-114956737D01*
X138343509Y-114956223D01*
X138343871Y-114955370D01*
X138346821Y-114949959D01*
X138373414Y-114865102D01*
X138374089Y-114863010D01*
X138378651Y-114849298D01*
X138402197Y-114778513D01*
X138402969Y-114772397D01*
X138403177Y-114771483D01*
X138403315Y-114770973D01*
X138403338Y-114770861D01*
X138403797Y-114768755D01*
X138403841Y-114768562D01*
X138403933Y-114768010D01*
X138404120Y-114767116D01*
X138405964Y-114761232D01*
X138406942Y-114752235D01*
X138415568Y-114672829D01*
X138415823Y-114670659D01*
X138416222Y-114667498D01*
X138445204Y-114601700D01*
X138477045Y-114564220D01*
X138483965Y-114556716D01*
X138489660Y-114551021D01*
X138507281Y-114528749D01*
X138510072Y-114525345D01*
X138540476Y-114489558D01*
X138599825Y-114450594D01*
X138670818Y-114449902D01*
X138730916Y-114487701D01*
X138761037Y-114551992D01*
X138762500Y-114571138D01*
X138762500Y-116423495D01*
X138742498Y-116491616D01*
X138725595Y-116512590D01*
X136815726Y-118422459D01*
X136753414Y-118456485D01*
X136704535Y-118457411D01*
X136551773Y-118430200D01*
X136551767Y-118430199D01*
X136546684Y-118429294D01*
X136472852Y-118428392D01*
X136328481Y-118426628D01*
X136328479Y-118426628D01*
X136323311Y-118426565D01*
X136102491Y-118460355D01*
X135890156Y-118529757D01*
X135692007Y-118632907D01*
X135687874Y-118636010D01*
X135687871Y-118636012D01*
X135542321Y-118745294D01*
X135513365Y-118767035D01*
X135476448Y-118805666D01*
X135371745Y-118915232D01*
X135359029Y-118928538D01*
X135233143Y-119113080D01*
X135216048Y-119149908D01*
X135157806Y-119275381D01*
X135139088Y-119315705D01*
X135079389Y-119530970D01*
X135055651Y-119753095D01*
X135068510Y-119976115D01*
X135069647Y-119981161D01*
X135069648Y-119981167D01*
X135093704Y-120087908D01*
X135117622Y-120194039D01*
X135201666Y-120401016D01*
X135239085Y-120462078D01*
X135315691Y-120587088D01*
X135318387Y-120591488D01*
X135464650Y-120760338D01*
X135636526Y-120903032D01*
X135829400Y-121015738D01*
X136038092Y-121095430D01*
X136043160Y-121096461D01*
X136043163Y-121096462D01*
X136150417Y-121118283D01*
X136256997Y-121139967D01*
X136262172Y-121140157D01*
X136262174Y-121140157D01*
X136475073Y-121147964D01*
X136475077Y-121147964D01*
X136480237Y-121148153D01*
X136485357Y-121147497D01*
X136485359Y-121147497D01*
X136696688Y-121120425D01*
X136696689Y-121120425D01*
X136701816Y-121119768D01*
X136706766Y-121118283D01*
X136910829Y-121057061D01*
X136910834Y-121057059D01*
X136915784Y-121055574D01*
X137116394Y-120957296D01*
X137298260Y-120827573D01*
X137317880Y-120808022D01*
X137392524Y-120733638D01*
X137456496Y-120669889D01*
X137515994Y-120587089D01*
X137586853Y-120488477D01*
X137588176Y-120489428D01*
X137635045Y-120446257D01*
X137704980Y-120434025D01*
X137770426Y-120461544D01*
X137798275Y-120493394D01*
X137858387Y-120591488D01*
X138004650Y-120760338D01*
X138176526Y-120903032D01*
X138369400Y-121015738D01*
X138578092Y-121095430D01*
X138583160Y-121096461D01*
X138583163Y-121096462D01*
X138690417Y-121118283D01*
X138796997Y-121139967D01*
X138802172Y-121140157D01*
X138802174Y-121140157D01*
X139015073Y-121147964D01*
X139015077Y-121147964D01*
X139020237Y-121148153D01*
X139025357Y-121147497D01*
X139025359Y-121147497D01*
X139236688Y-121120425D01*
X139236689Y-121120425D01*
X139241816Y-121119768D01*
X139246766Y-121118283D01*
X139450829Y-121057061D01*
X139450834Y-121057059D01*
X139455784Y-121055574D01*
X139656394Y-120957296D01*
X139838260Y-120827573D01*
X139857880Y-120808022D01*
X139932524Y-120733638D01*
X139996496Y-120669889D01*
X140055994Y-120587089D01*
X140126853Y-120488477D01*
X140128176Y-120489428D01*
X140175045Y-120446257D01*
X140244980Y-120434025D01*
X140310426Y-120461544D01*
X140338275Y-120493394D01*
X140398387Y-120591488D01*
X140544650Y-120760338D01*
X140716526Y-120903032D01*
X140909400Y-121015738D01*
X141118092Y-121095430D01*
X141123160Y-121096461D01*
X141123163Y-121096462D01*
X141230417Y-121118283D01*
X141336997Y-121139967D01*
X141342172Y-121140157D01*
X141342174Y-121140157D01*
X141555073Y-121147964D01*
X141555077Y-121147964D01*
X141560237Y-121148153D01*
X141565357Y-121147497D01*
X141565359Y-121147497D01*
X141776688Y-121120425D01*
X141776689Y-121120425D01*
X141781816Y-121119768D01*
X141786766Y-121118283D01*
X141990829Y-121057061D01*
X141990834Y-121057059D01*
X141995784Y-121055574D01*
X142196394Y-120957296D01*
X142378260Y-120827573D01*
X142486491Y-120719719D01*
X142548862Y-120685804D01*
X142619668Y-120690992D01*
X142676430Y-120733638D01*
X142693412Y-120764741D01*
X142710120Y-120809308D01*
X142737785Y-120883105D01*
X142825139Y-120999661D01*
X142941695Y-121087015D01*
X143078084Y-121138145D01*
X143140266Y-121144900D01*
X144936534Y-121144900D01*
X144998716Y-121138145D01*
X145135105Y-121087015D01*
X145251661Y-120999661D01*
X145339015Y-120883105D01*
X145390145Y-120746716D01*
X145396900Y-120684534D01*
X145396900Y-119479525D01*
X145416902Y-119411404D01*
X145433805Y-119390430D01*
X147310890Y-117513344D01*
X147321033Y-117504242D01*
X147345729Y-117484386D01*
X147350536Y-117480521D01*
X147382803Y-117442067D01*
X147385983Y-117438420D01*
X147387626Y-117436608D01*
X147389820Y-117434414D01*
X147417153Y-117401140D01*
X147417859Y-117400289D01*
X147435854Y-117378844D01*
X147477665Y-117329015D01*
X147480233Y-117324345D01*
X147483614Y-117320228D01*
X147527488Y-117238403D01*
X147528117Y-117237244D01*
X147569973Y-117161108D01*
X147569976Y-117161100D01*
X147572944Y-117155702D01*
X147574556Y-117150620D01*
X147577073Y-117145926D01*
X147604258Y-117057012D01*
X147604650Y-117055754D01*
X147630883Y-116973056D01*
X147632746Y-116967183D01*
X147633340Y-116961892D01*
X147634899Y-116956791D01*
X147644301Y-116864226D01*
X147644436Y-116862959D01*
X147646177Y-116847446D01*
X147650011Y-116813262D01*
X147650011Y-116809737D01*
X147650066Y-116808752D01*
X147650515Y-116803048D01*
X147654263Y-116766155D01*
X147654263Y-116766150D01*
X147654885Y-116760027D01*
X147650570Y-116714380D01*
X147650011Y-116702522D01*
X147650011Y-104771500D01*
X147670013Y-104703379D01*
X147723669Y-104656886D01*
X147776011Y-104645500D01*
X148997791Y-104645500D01*
X149065912Y-104665502D01*
X149112405Y-104719158D01*
X149114703Y-104724694D01*
X149115032Y-104725296D01*
X149118185Y-104733705D01*
X149205539Y-104850261D01*
X149322095Y-104937615D01*
X149330504Y-104940767D01*
X149330505Y-104940768D01*
X149439251Y-104981535D01*
X149496016Y-105024176D01*
X149520716Y-105090738D01*
X149505509Y-105160087D01*
X149486116Y-105186568D01*
X149409098Y-105267163D01*
X149359429Y-105319138D01*
X149356515Y-105323410D01*
X149356514Y-105323411D01*
X149352207Y-105329725D01*
X149233543Y-105503680D01*
X149139488Y-105706305D01*
X149079789Y-105921570D01*
X149056051Y-106143695D01*
X149056348Y-106148848D01*
X149056348Y-106148851D01*
X149059362Y-106201115D01*
X149068910Y-106366715D01*
X149070047Y-106371761D01*
X149070048Y-106371767D01*
X149085597Y-106440760D01*
X149118022Y-106584639D01*
X149202066Y-106791616D01*
X149213774Y-106810721D01*
X149315857Y-106977306D01*
X149318787Y-106982088D01*
X149465050Y-107150938D01*
X149636926Y-107293632D01*
X149695964Y-107328131D01*
X149710245Y-107336476D01*
X149758969Y-107388114D01*
X149772040Y-107457897D01*
X149745309Y-107523669D01*
X149704855Y-107557027D01*
X149697327Y-107560946D01*
X149692407Y-107563507D01*
X149688274Y-107566610D01*
X149688271Y-107566612D01*
X149517900Y-107694530D01*
X149513765Y-107697635D01*
X149359429Y-107859138D01*
X149356515Y-107863410D01*
X149356514Y-107863411D01*
X149319824Y-107917197D01*
X149233543Y-108043680D01*
X149192176Y-108132798D01*
X149160617Y-108200787D01*
X149139488Y-108246305D01*
X149079789Y-108461570D01*
X149056051Y-108683695D01*
X149056348Y-108688848D01*
X149056348Y-108688851D01*
X149062414Y-108794058D01*
X149068910Y-108906715D01*
X149070047Y-108911761D01*
X149070048Y-108911767D01*
X149089919Y-108999939D01*
X149118022Y-109124639D01*
X149202066Y-109331616D01*
X149214469Y-109351856D01*
X149312883Y-109512453D01*
X149318787Y-109522088D01*
X149465050Y-109690938D01*
X149636926Y-109833632D01*
X149707395Y-109874811D01*
X149710245Y-109876476D01*
X149758969Y-109928114D01*
X149772040Y-109997897D01*
X149745309Y-110063669D01*
X149704855Y-110097027D01*
X149692407Y-110103507D01*
X149688274Y-110106610D01*
X149688271Y-110106612D01*
X149664047Y-110124800D01*
X149513765Y-110237635D01*
X149359429Y-110399138D01*
X149233543Y-110583680D01*
X149139488Y-110786305D01*
X149079789Y-111001570D01*
X149056051Y-111223695D01*
X149056348Y-111228848D01*
X149056348Y-111228851D01*
X149062972Y-111343735D01*
X149068910Y-111446715D01*
X149070047Y-111451761D01*
X149070048Y-111451767D01*
X149089919Y-111539939D01*
X149118022Y-111664639D01*
X149202066Y-111871616D01*
X149318787Y-112062088D01*
X149465050Y-112230938D01*
X149636926Y-112373632D01*
X149829800Y-112486338D01*
X150038492Y-112566030D01*
X150043560Y-112567061D01*
X150043563Y-112567062D01*
X150150817Y-112588883D01*
X150257397Y-112610567D01*
X150262572Y-112610757D01*
X150262574Y-112610757D01*
X150475473Y-112618564D01*
X150475477Y-112618564D01*
X150480637Y-112618753D01*
X150485757Y-112618097D01*
X150485759Y-112618097D01*
X150697088Y-112591025D01*
X150697089Y-112591025D01*
X150702216Y-112590368D01*
X150759853Y-112573076D01*
X150911229Y-112527661D01*
X150911234Y-112527659D01*
X150916184Y-112526174D01*
X151116794Y-112427896D01*
X151298660Y-112298173D01*
X151456896Y-112140489D01*
X151516394Y-112057689D01*
X151584235Y-111963277D01*
X151587253Y-111959077D01*
X151686230Y-111758811D01*
X151751170Y-111545069D01*
X151779836Y-111327331D01*
X151802277Y-111276605D01*
X151783828Y-111247921D01*
X151779136Y-111222704D01*
X151778796Y-111218562D01*
X151763652Y-111034361D01*
X151709231Y-110817702D01*
X151620154Y-110612840D01*
X151498814Y-110425277D01*
X151348470Y-110260051D01*
X151344419Y-110256852D01*
X151344415Y-110256848D01*
X151177214Y-110124800D01*
X151177210Y-110124798D01*
X151173159Y-110121598D01*
X151131853Y-110098796D01*
X151081884Y-110048364D01*
X151067112Y-109978921D01*
X151092228Y-109912516D01*
X151119580Y-109885909D01*
X151163403Y-109854650D01*
X151298660Y-109758173D01*
X151456896Y-109600489D01*
X151509850Y-109526796D01*
X151584235Y-109423277D01*
X151587253Y-109419077D01*
X151620476Y-109351856D01*
X151683936Y-109223453D01*
X151683937Y-109223451D01*
X151686230Y-109218811D01*
X151747919Y-109015769D01*
X151749665Y-109010023D01*
X151749665Y-109010021D01*
X151751170Y-109005069D01*
X151778951Y-108794058D01*
X151805995Y-108732926D01*
X151782937Y-108697075D01*
X151778245Y-108671858D01*
X151765154Y-108512634D01*
X151763652Y-108494361D01*
X151709231Y-108277702D01*
X151620154Y-108072840D01*
X151570469Y-107996038D01*
X151501622Y-107889617D01*
X151501620Y-107889614D01*
X151498814Y-107885277D01*
X151348470Y-107720051D01*
X151344419Y-107716852D01*
X151344415Y-107716848D01*
X151177214Y-107584800D01*
X151177210Y-107584798D01*
X151173159Y-107581598D01*
X151131853Y-107558796D01*
X151081884Y-107508364D01*
X151067112Y-107438921D01*
X151092228Y-107372516D01*
X151119580Y-107345909D01*
X151163403Y-107314650D01*
X151298660Y-107218173D01*
X151456896Y-107060489D01*
X151470788Y-107041157D01*
X151584235Y-106883277D01*
X151587253Y-106879077D01*
X151621036Y-106810723D01*
X151683936Y-106683453D01*
X151683937Y-106683451D01*
X151686230Y-106678811D01*
X151727395Y-106543323D01*
X151749665Y-106470023D01*
X151749665Y-106470021D01*
X151751170Y-106465069D01*
X151778065Y-106260783D01*
X151806788Y-106195857D01*
X151811827Y-106192533D01*
X151782045Y-106146229D01*
X151777353Y-106121012D01*
X151774022Y-106080500D01*
X151763652Y-105954361D01*
X151709231Y-105737702D01*
X151620154Y-105532840D01*
X151553797Y-105430267D01*
X151501622Y-105349617D01*
X151501620Y-105349614D01*
X151498814Y-105345277D01*
X151484458Y-105329500D01*
X151351598Y-105183488D01*
X151320546Y-105119642D01*
X151328941Y-105049143D01*
X151374117Y-104994375D01*
X151400561Y-104980706D01*
X151507097Y-104940767D01*
X151515505Y-104937615D01*
X151632061Y-104850261D01*
X151719415Y-104733705D01*
X151770545Y-104597316D01*
X151777121Y-104536785D01*
X151804363Y-104471223D01*
X151862727Y-104430797D01*
X151933681Y-104428342D01*
X151994698Y-104464637D01*
G37*
G04 #@! TD.AperFunction*
G04 #@! TA.AperFunction,Conductor*
G36*
X113293739Y-84351502D02*
G01*
X113340232Y-84405158D01*
X113343599Y-84413269D01*
X113352231Y-84436293D01*
X113355385Y-84444705D01*
X113442739Y-84561261D01*
X113559295Y-84648615D01*
X113695684Y-84699745D01*
X113757866Y-84706500D01*
X115270406Y-84706500D01*
X115338527Y-84726502D01*
X115359501Y-84743405D01*
X115848595Y-85232499D01*
X115882621Y-85294811D01*
X115885500Y-85321594D01*
X115885500Y-85982400D01*
X115885837Y-85985646D01*
X115885837Y-85985650D01*
X115895567Y-86079423D01*
X115896474Y-86088166D01*
X115898655Y-86094702D01*
X115898655Y-86094704D01*
X115938289Y-86213500D01*
X115952450Y-86255946D01*
X116045522Y-86406348D01*
X116050704Y-86411521D01*
X116099587Y-86460319D01*
X116133666Y-86522602D01*
X116128663Y-86593422D01*
X116099742Y-86638510D01*
X116034101Y-86704266D01*
X116019695Y-86718697D01*
X116015855Y-86724927D01*
X116015854Y-86724928D01*
X115993705Y-86760861D01*
X115926885Y-86869262D01*
X115871203Y-87037139D01*
X115860500Y-87141600D01*
X115860500Y-87742400D01*
X115871474Y-87848166D01*
X115927450Y-88015946D01*
X116020522Y-88166348D01*
X116145697Y-88291305D01*
X116151927Y-88295145D01*
X116151928Y-88295146D01*
X116289090Y-88379694D01*
X116296262Y-88384115D01*
X116376005Y-88410564D01*
X116457611Y-88437632D01*
X116457613Y-88437632D01*
X116464139Y-88439797D01*
X116470975Y-88440497D01*
X116470978Y-88440498D01*
X116514031Y-88444909D01*
X116568600Y-88450500D01*
X117619400Y-88450500D01*
X117622646Y-88450163D01*
X117622650Y-88450163D01*
X117718308Y-88440238D01*
X117718312Y-88440237D01*
X117725166Y-88439526D01*
X117731702Y-88437345D01*
X117731704Y-88437345D01*
X117863806Y-88393272D01*
X117892946Y-88383550D01*
X118043348Y-88290478D01*
X118168305Y-88165303D01*
X118186541Y-88135719D01*
X118257275Y-88020968D01*
X118257276Y-88020966D01*
X118261115Y-88014738D01*
X118292138Y-87921205D01*
X118314632Y-87853389D01*
X118314632Y-87853387D01*
X118316797Y-87846861D01*
X118327500Y-87742400D01*
X118327500Y-87141600D01*
X118322582Y-87094202D01*
X118317238Y-87042692D01*
X118317237Y-87042688D01*
X118316526Y-87035834D01*
X118278881Y-86922997D01*
X118262868Y-86875002D01*
X118260550Y-86868054D01*
X118167478Y-86717652D01*
X118088369Y-86638681D01*
X118054290Y-86576399D01*
X118059293Y-86505579D01*
X118088214Y-86460490D01*
X118138134Y-86410483D01*
X118143305Y-86405303D01*
X118236115Y-86254738D01*
X118283633Y-86111475D01*
X118289632Y-86093389D01*
X118289632Y-86093387D01*
X118291797Y-86086861D01*
X118302500Y-85982400D01*
X118302500Y-85498371D01*
X118322502Y-85430250D01*
X118339405Y-85409276D01*
X119069207Y-84679474D01*
X119131519Y-84645448D01*
X119202334Y-84650513D01*
X119259170Y-84693060D01*
X119280084Y-84746132D01*
X119281575Y-84745778D01*
X119283402Y-84753460D01*
X119284255Y-84761316D01*
X119295672Y-84791771D01*
X119300855Y-84862577D01*
X119295674Y-84880224D01*
X119284255Y-84910684D01*
X119277500Y-84972866D01*
X119277500Y-85969134D01*
X119284255Y-86031316D01*
X119295672Y-86061771D01*
X119300855Y-86132577D01*
X119295674Y-86150224D01*
X119284255Y-86180684D01*
X119277500Y-86242866D01*
X119277500Y-87239134D01*
X119284255Y-87301316D01*
X119295672Y-87331771D01*
X119300855Y-87402577D01*
X119295674Y-87420224D01*
X119284255Y-87450684D01*
X119277500Y-87512866D01*
X119277500Y-88509134D01*
X119284255Y-88571316D01*
X119295672Y-88601771D01*
X119300855Y-88672577D01*
X119295674Y-88690224D01*
X119284255Y-88720684D01*
X119277500Y-88782866D01*
X119277500Y-89779134D01*
X119284255Y-89841316D01*
X119295672Y-89871771D01*
X119300855Y-89942577D01*
X119295674Y-89960224D01*
X119284255Y-89990684D01*
X119277500Y-90052866D01*
X119277500Y-91049134D01*
X119284255Y-91111316D01*
X119295672Y-91141771D01*
X119300855Y-91212577D01*
X119295674Y-91230224D01*
X119284255Y-91260684D01*
X119277500Y-91322866D01*
X119277500Y-92319134D01*
X119284255Y-92381316D01*
X119295672Y-92411771D01*
X119300855Y-92482577D01*
X119295674Y-92500224D01*
X119284255Y-92530684D01*
X119277500Y-92592866D01*
X119277500Y-93589134D01*
X119284255Y-93651316D01*
X119295672Y-93681771D01*
X119300855Y-93752577D01*
X119295674Y-93770224D01*
X119284255Y-93800684D01*
X119277500Y-93862866D01*
X119277500Y-94859134D01*
X119284255Y-94921316D01*
X119335385Y-95057705D01*
X119422739Y-95174261D01*
X119539295Y-95261615D01*
X119675684Y-95312745D01*
X119737866Y-95319500D01*
X120026500Y-95319500D01*
X120094621Y-95339502D01*
X120141114Y-95393158D01*
X120152500Y-95445500D01*
X120152500Y-96317500D01*
X120132498Y-96385621D01*
X120078842Y-96432114D01*
X120026500Y-96443500D01*
X119895600Y-96443500D01*
X119892354Y-96443837D01*
X119892350Y-96443837D01*
X119796692Y-96453762D01*
X119796688Y-96453763D01*
X119789834Y-96454474D01*
X119783298Y-96456655D01*
X119783296Y-96456655D01*
X119717175Y-96478715D01*
X119622054Y-96510450D01*
X119471652Y-96603522D01*
X119346695Y-96728697D01*
X119342855Y-96734927D01*
X119342854Y-96734928D01*
X119265776Y-96859972D01*
X119253885Y-96879262D01*
X119240207Y-96920500D01*
X119201782Y-97036350D01*
X119198203Y-97047139D01*
X119197503Y-97053975D01*
X119197502Y-97053978D01*
X119194832Y-97080041D01*
X119187500Y-97151600D01*
X119187500Y-97952400D01*
X119187837Y-97955646D01*
X119187837Y-97955650D01*
X119195577Y-98030241D01*
X119198474Y-98058166D01*
X119254450Y-98225946D01*
X119347522Y-98376348D01*
X119392596Y-98421343D01*
X119434109Y-98462784D01*
X119468188Y-98525066D01*
X119463185Y-98595886D01*
X119434264Y-98640975D01*
X119346695Y-98728697D01*
X119342855Y-98734927D01*
X119342854Y-98734928D01*
X119266611Y-98858616D01*
X119213838Y-98906110D01*
X119159351Y-98918500D01*
X118838647Y-98918500D01*
X118772531Y-98899760D01*
X118705782Y-98858616D01*
X118632329Y-98813339D01*
X118625380Y-98811034D01*
X118472366Y-98760281D01*
X118472364Y-98760281D01*
X118465835Y-98758115D01*
X118362231Y-98747500D01*
X117859904Y-98747500D01*
X117349770Y-98747501D01*
X117244871Y-98758384D01*
X117238340Y-98760563D01*
X117238335Y-98760564D01*
X117090189Y-98809990D01*
X117078474Y-98813898D01*
X116929311Y-98906203D01*
X116805383Y-99030347D01*
X116801543Y-99036577D01*
X116801542Y-99036578D01*
X116789262Y-99056500D01*
X116713339Y-99179671D01*
X116658115Y-99346165D01*
X116647500Y-99449769D01*
X116647501Y-100037230D01*
X116658384Y-100142129D01*
X116660563Y-100148660D01*
X116660564Y-100148665D01*
X116695964Y-100254771D01*
X116713898Y-100308526D01*
X116806203Y-100457689D01*
X116811385Y-100462862D01*
X116843876Y-100495296D01*
X116930347Y-100581617D01*
X116936577Y-100585457D01*
X116936578Y-100585458D01*
X116954360Y-100596419D01*
X117079671Y-100673661D01*
X117086619Y-100675966D01*
X117086620Y-100675966D01*
X117239634Y-100726719D01*
X117239636Y-100726719D01*
X117246165Y-100728885D01*
X117349769Y-100739500D01*
X117852096Y-100739500D01*
X118362230Y-100739499D01*
X118467129Y-100728616D01*
X118473660Y-100726437D01*
X118473665Y-100726436D01*
X118626578Y-100675420D01*
X118633526Y-100673102D01*
X118782689Y-100580797D01*
X118906617Y-100456653D01*
X118953569Y-100380483D01*
X118994821Y-100313559D01*
X118994822Y-100313558D01*
X118998661Y-100307329D01*
X119010435Y-100271830D01*
X119050867Y-100213472D01*
X119116431Y-100186236D01*
X119130028Y-100185500D01*
X119159219Y-100185500D01*
X119227340Y-100205502D01*
X119266363Y-100245197D01*
X119347522Y-100376348D01*
X119472697Y-100501305D01*
X119478927Y-100505145D01*
X119478928Y-100505146D01*
X119616090Y-100589694D01*
X119623262Y-100594115D01*
X119703005Y-100620564D01*
X119784611Y-100647632D01*
X119784613Y-100647632D01*
X119791139Y-100649797D01*
X119797975Y-100650497D01*
X119797978Y-100650498D01*
X119841031Y-100654909D01*
X119895600Y-100660500D01*
X120896400Y-100660500D01*
X120899646Y-100660163D01*
X120899650Y-100660163D01*
X120995308Y-100650238D01*
X120995312Y-100650237D01*
X121002166Y-100649526D01*
X121008702Y-100647345D01*
X121008704Y-100647345D01*
X121140806Y-100603272D01*
X121169946Y-100593550D01*
X121320348Y-100500478D01*
X121357899Y-100462862D01*
X121440134Y-100380483D01*
X121445305Y-100375303D01*
X121477779Y-100322621D01*
X121534275Y-100230968D01*
X121534276Y-100230966D01*
X121538115Y-100224738D01*
X121579998Y-100098465D01*
X121591632Y-100063389D01*
X121591632Y-100063387D01*
X121593797Y-100056861D01*
X121595809Y-100037230D01*
X121604172Y-99955598D01*
X121604500Y-99952400D01*
X121604500Y-99712925D01*
X121624502Y-99644804D01*
X121678158Y-99598311D01*
X121748432Y-99588207D01*
X121813012Y-99617701D01*
X121819595Y-99623830D01*
X123195145Y-100999379D01*
X123204247Y-101009522D01*
X123227968Y-101039025D01*
X123262624Y-101068105D01*
X123266421Y-101071291D01*
X123270069Y-101074472D01*
X123271881Y-101076115D01*
X123274075Y-101078309D01*
X123307349Y-101105642D01*
X123308147Y-101106304D01*
X123379474Y-101166154D01*
X123384144Y-101168722D01*
X123388261Y-101172103D01*
X123438353Y-101198962D01*
X123470086Y-101215977D01*
X123471245Y-101216606D01*
X123547381Y-101258462D01*
X123547389Y-101258465D01*
X123552787Y-101261433D01*
X123557869Y-101263045D01*
X123562563Y-101265562D01*
X123651531Y-101292762D01*
X123652559Y-101293082D01*
X123741306Y-101321235D01*
X123746602Y-101321829D01*
X123751698Y-101323387D01*
X123844257Y-101332790D01*
X123845393Y-101332911D01*
X123879008Y-101336681D01*
X123891730Y-101338108D01*
X123891734Y-101338108D01*
X123895227Y-101338500D01*
X123898754Y-101338500D01*
X123899739Y-101338555D01*
X123905419Y-101339002D01*
X123934825Y-101341989D01*
X123942337Y-101342752D01*
X123942339Y-101342752D01*
X123948462Y-101343374D01*
X123994108Y-101339059D01*
X124005967Y-101338500D01*
X128085325Y-101338500D01*
X128153446Y-101358502D01*
X128199939Y-101412158D01*
X128210043Y-101482432D01*
X128193779Y-101528636D01*
X128170855Y-101567399D01*
X128168644Y-101575010D01*
X128168643Y-101575012D01*
X128162791Y-101595156D01*
X128124438Y-101727169D01*
X128123934Y-101733574D01*
X128123933Y-101733579D01*
X128123492Y-101739186D01*
X128121500Y-101764498D01*
X128121500Y-102197502D01*
X128121693Y-102199950D01*
X128121693Y-102199958D01*
X128123909Y-102228109D01*
X128124438Y-102234831D01*
X128141710Y-102294281D01*
X128168643Y-102386986D01*
X128170855Y-102394601D01*
X128196617Y-102438161D01*
X128214076Y-102506975D01*
X128191560Y-102574307D01*
X128132702Y-102620165D01*
X128078011Y-102640831D01*
X128071754Y-102645131D01*
X128067286Y-102647467D01*
X128057840Y-102652725D01*
X128053474Y-102655307D01*
X128046515Y-102658362D01*
X127997696Y-102695823D01*
X127992377Y-102699686D01*
X127974458Y-102712002D01*
X127941674Y-102734534D01*
X127936623Y-102740203D01*
X127901768Y-102779323D01*
X127896787Y-102784598D01*
X125774541Y-104906844D01*
X125768276Y-104912698D01*
X125726330Y-104949290D01*
X125690934Y-104999655D01*
X125687022Y-105004920D01*
X125649065Y-105053328D01*
X125645939Y-105060252D01*
X125643329Y-105064561D01*
X125637958Y-105073976D01*
X125635573Y-105078424D01*
X125631205Y-105084639D01*
X125628446Y-105091716D01*
X125608858Y-105141957D01*
X125606306Y-105148029D01*
X125580986Y-105204105D01*
X125579600Y-105211582D01*
X125578090Y-105216402D01*
X125575118Y-105226835D01*
X125573870Y-105231696D01*
X125571111Y-105238772D01*
X125565556Y-105280971D01*
X125563082Y-105299762D01*
X125562050Y-105306278D01*
X125558234Y-105326870D01*
X125550839Y-105366767D01*
X125551276Y-105374347D01*
X125551276Y-105374348D01*
X125554291Y-105426642D01*
X125554500Y-105433894D01*
X125554500Y-114470955D01*
X125554208Y-114479524D01*
X125551167Y-114524139D01*
X125550424Y-114535034D01*
X125551729Y-114542511D01*
X125551729Y-114542514D01*
X125561002Y-114595647D01*
X125561965Y-114602171D01*
X125565553Y-114631817D01*
X125569355Y-114663235D01*
X125572042Y-114670345D01*
X125573246Y-114675248D01*
X125576114Y-114685734D01*
X125577561Y-114690526D01*
X125578866Y-114698004D01*
X125581918Y-114704956D01*
X125581918Y-114704957D01*
X125603595Y-114754341D01*
X125606086Y-114760446D01*
X125625145Y-114810882D01*
X125627831Y-114817989D01*
X125632131Y-114824246D01*
X125634467Y-114828714D01*
X125639725Y-114838160D01*
X125642307Y-114842526D01*
X125645362Y-114849485D01*
X125682823Y-114898304D01*
X125686686Y-114903623D01*
X125713283Y-114942321D01*
X125721534Y-114954326D01*
X125727203Y-114959377D01*
X125766323Y-114994232D01*
X125771598Y-114999213D01*
X126843290Y-116070905D01*
X126877316Y-116133217D01*
X126872251Y-116204032D01*
X126843290Y-116249095D01*
X126760310Y-116332075D01*
X126697998Y-116366101D01*
X126671215Y-116368980D01*
X125261785Y-116368980D01*
X125193664Y-116348978D01*
X125172690Y-116332075D01*
X124926405Y-116085790D01*
X124892379Y-116023478D01*
X124889500Y-115996695D01*
X124889500Y-115836907D01*
X124889792Y-115828338D01*
X124893060Y-115780404D01*
X124893060Y-115780400D01*
X124893576Y-115772828D01*
X124885436Y-115726183D01*
X124882998Y-115712215D01*
X124882035Y-115705691D01*
X124875558Y-115652171D01*
X124874645Y-115644627D01*
X124871958Y-115637517D01*
X124870754Y-115632614D01*
X124867886Y-115622128D01*
X124866439Y-115617336D01*
X124865134Y-115609858D01*
X124862082Y-115602905D01*
X124840405Y-115553521D01*
X124837914Y-115547416D01*
X124818855Y-115496980D01*
X124818853Y-115496977D01*
X124816169Y-115489873D01*
X124811869Y-115483616D01*
X124809533Y-115479148D01*
X124804275Y-115469702D01*
X124801693Y-115465336D01*
X124798638Y-115458377D01*
X124761177Y-115409558D01*
X124757314Y-115404239D01*
X124726769Y-115359797D01*
X124722466Y-115353536D01*
X124677676Y-115313629D01*
X124672402Y-115308649D01*
X123529774Y-114166021D01*
X123523920Y-114159756D01*
X123507026Y-114140390D01*
X123487328Y-114117810D01*
X123436963Y-114082414D01*
X123431695Y-114078500D01*
X123429359Y-114076668D01*
X123383290Y-114040545D01*
X123376366Y-114037419D01*
X123372057Y-114034809D01*
X123362642Y-114029438D01*
X123358194Y-114027053D01*
X123351979Y-114022685D01*
X123294657Y-114000336D01*
X123288589Y-113997786D01*
X123232513Y-113972466D01*
X123225036Y-113971080D01*
X123220216Y-113969570D01*
X123209783Y-113966598D01*
X123204922Y-113965350D01*
X123197846Y-113962591D01*
X123136856Y-113954562D01*
X123130340Y-113953530D01*
X123077318Y-113943703D01*
X123069851Y-113942319D01*
X123062271Y-113942756D01*
X123062270Y-113942756D01*
X123009976Y-113945771D01*
X123002724Y-113945980D01*
X121314785Y-113945980D01*
X121246664Y-113925978D01*
X121225690Y-113909075D01*
X120645156Y-113328541D01*
X120639302Y-113322276D01*
X120607704Y-113286055D01*
X120602710Y-113280330D01*
X120552345Y-113244934D01*
X120547077Y-113241020D01*
X120504649Y-113207752D01*
X120498672Y-113203065D01*
X120491748Y-113199939D01*
X120487439Y-113197329D01*
X120478024Y-113191958D01*
X120473576Y-113189573D01*
X120467361Y-113185205D01*
X120410039Y-113162856D01*
X120403971Y-113160306D01*
X120347895Y-113134986D01*
X120340418Y-113133600D01*
X120335598Y-113132090D01*
X120325165Y-113129118D01*
X120320304Y-113127870D01*
X120313228Y-113125111D01*
X120252238Y-113117082D01*
X120245722Y-113116050D01*
X120192700Y-113106223D01*
X120185233Y-113104839D01*
X120177653Y-113105276D01*
X120177652Y-113105276D01*
X120125358Y-113108291D01*
X120118106Y-113108500D01*
X117376045Y-113108500D01*
X117367476Y-113108208D01*
X117319542Y-113104940D01*
X117319538Y-113104940D01*
X117311966Y-113104424D01*
X117304489Y-113105729D01*
X117304486Y-113105729D01*
X117251353Y-113115002D01*
X117244829Y-113115965D01*
X117191309Y-113122442D01*
X117183765Y-113123355D01*
X117176655Y-113126042D01*
X117171752Y-113127246D01*
X117161266Y-113130114D01*
X117156474Y-113131561D01*
X117148996Y-113132866D01*
X117142044Y-113135918D01*
X117142043Y-113135918D01*
X117092659Y-113157595D01*
X117086554Y-113160086D01*
X117036118Y-113179145D01*
X117036115Y-113179147D01*
X117029011Y-113181831D01*
X117022754Y-113186131D01*
X117018286Y-113188467D01*
X117008840Y-113193725D01*
X117004474Y-113196307D01*
X116997515Y-113199362D01*
X116948696Y-113236823D01*
X116943377Y-113240686D01*
X116937166Y-113244955D01*
X116892674Y-113275534D01*
X116887623Y-113281203D01*
X116852768Y-113320323D01*
X116847787Y-113325598D01*
X116289790Y-113883595D01*
X116227478Y-113917621D01*
X116200695Y-113920500D01*
X115551600Y-113920500D01*
X115548354Y-113920837D01*
X115548350Y-113920837D01*
X115452693Y-113930762D01*
X115452689Y-113930763D01*
X115445835Y-113931474D01*
X115439299Y-113933655D01*
X115439297Y-113933655D01*
X115352566Y-113962591D01*
X115278055Y-113987450D01*
X115127652Y-114080522D01*
X115002695Y-114205697D01*
X114909885Y-114356262D01*
X114907581Y-114363209D01*
X114872255Y-114469715D01*
X114854203Y-114524139D01*
X114853503Y-114530975D01*
X114853502Y-114530978D01*
X114849091Y-114574031D01*
X114843500Y-114628600D01*
X114843500Y-115729400D01*
X114843837Y-115732646D01*
X114843837Y-115732650D01*
X114852399Y-115815162D01*
X114854474Y-115835165D01*
X114856655Y-115841701D01*
X114856655Y-115841703D01*
X114866730Y-115871901D01*
X114910450Y-116002945D01*
X115003522Y-116153348D01*
X115128697Y-116278305D01*
X115134927Y-116282145D01*
X115134928Y-116282146D01*
X115272090Y-116366694D01*
X115279262Y-116371115D01*
X115292962Y-116375659D01*
X115440611Y-116424632D01*
X115440613Y-116424632D01*
X115447139Y-116426797D01*
X115453975Y-116427497D01*
X115453978Y-116427498D01*
X115497031Y-116431909D01*
X115551600Y-116437500D01*
X116652400Y-116437500D01*
X116655646Y-116437163D01*
X116655650Y-116437163D01*
X116751307Y-116427238D01*
X116751311Y-116427237D01*
X116758165Y-116426526D01*
X116764701Y-116424345D01*
X116764703Y-116424345D01*
X116896805Y-116380272D01*
X116925945Y-116370550D01*
X117076348Y-116277478D01*
X117201305Y-116152303D01*
X117213498Y-116132522D01*
X117290275Y-116007968D01*
X117290276Y-116007966D01*
X117294115Y-116001738D01*
X117349797Y-115833861D01*
X117360500Y-115729400D01*
X117360500Y-114798305D01*
X117380502Y-114730184D01*
X117397405Y-114709210D01*
X117594210Y-114512405D01*
X117656522Y-114478379D01*
X117683305Y-114475500D01*
X117843666Y-114475500D01*
X117911787Y-114495502D01*
X117958280Y-114549158D01*
X117968384Y-114619432D01*
X117957861Y-114654749D01*
X117917206Y-114741934D01*
X117917203Y-114741942D01*
X117914880Y-114746924D01*
X117857885Y-114959629D01*
X117838693Y-115179000D01*
X117857885Y-115398371D01*
X117914880Y-115611076D01*
X117930525Y-115644627D01*
X118005618Y-115805666D01*
X118005621Y-115805671D01*
X118007944Y-115810653D01*
X118011100Y-115815160D01*
X118011101Y-115815162D01*
X118044248Y-115862500D01*
X118134251Y-115991038D01*
X118289962Y-116146749D01*
X118294471Y-116149906D01*
X118294473Y-116149908D01*
X118308886Y-116160000D01*
X118470346Y-116273056D01*
X118669924Y-116366120D01*
X118882629Y-116423115D01*
X119102000Y-116442307D01*
X119321371Y-116423115D01*
X119534076Y-116366120D01*
X119733654Y-116273056D01*
X119895114Y-116160000D01*
X119909527Y-116149908D01*
X119909529Y-116149906D01*
X119914038Y-116146749D01*
X120069749Y-115991038D01*
X120122132Y-115916228D01*
X120177587Y-115871901D01*
X120225343Y-115862500D01*
X122463695Y-115862500D01*
X122531816Y-115882502D01*
X122552790Y-115899405D01*
X122723595Y-116070210D01*
X122757621Y-116132522D01*
X122760500Y-116159305D01*
X122760500Y-116557955D01*
X122760208Y-116566523D01*
X122756424Y-116622034D01*
X122757729Y-116629511D01*
X122757729Y-116629514D01*
X122767002Y-116682647D01*
X122767965Y-116689171D01*
X122775355Y-116750235D01*
X122778042Y-116757345D01*
X122779246Y-116762248D01*
X122782114Y-116772734D01*
X122783561Y-116777526D01*
X122784866Y-116785004D01*
X122787918Y-116791956D01*
X122787918Y-116791957D01*
X122809595Y-116841341D01*
X122812086Y-116847446D01*
X122831145Y-116897882D01*
X122833831Y-116904989D01*
X122838131Y-116911246D01*
X122840467Y-116915714D01*
X122845725Y-116925160D01*
X122848307Y-116929526D01*
X122851362Y-116936485D01*
X122888823Y-116985304D01*
X122892686Y-116990623D01*
X122895148Y-116994205D01*
X122927534Y-117041326D01*
X122933203Y-117046377D01*
X122972323Y-117081232D01*
X122977598Y-117086213D01*
X123956844Y-118065459D01*
X123962698Y-118071724D01*
X123999290Y-118113670D01*
X124049655Y-118149066D01*
X124054920Y-118152978D01*
X124103328Y-118190935D01*
X124110252Y-118194061D01*
X124114561Y-118196671D01*
X124123976Y-118202042D01*
X124128424Y-118204427D01*
X124134639Y-118208795D01*
X124191957Y-118231142D01*
X124198029Y-118233694D01*
X124254105Y-118259014D01*
X124261582Y-118260400D01*
X124266402Y-118261910D01*
X124276818Y-118264878D01*
X124281698Y-118266131D01*
X124288772Y-118268889D01*
X124296303Y-118269881D01*
X124296305Y-118269881D01*
X124349777Y-118276921D01*
X124356290Y-118277953D01*
X124409299Y-118287777D01*
X124409301Y-118287777D01*
X124416768Y-118289161D01*
X124424349Y-118288724D01*
X124424350Y-118288724D01*
X124476643Y-118285709D01*
X124483895Y-118285500D01*
X124914500Y-118285500D01*
X124982621Y-118305502D01*
X125029114Y-118359158D01*
X125040500Y-118411500D01*
X125040500Y-120710400D01*
X125040837Y-120713646D01*
X125040837Y-120713650D01*
X125045036Y-120754115D01*
X125051474Y-120816166D01*
X125053655Y-120822702D01*
X125053655Y-120822704D01*
X125073807Y-120883105D01*
X125107450Y-120983946D01*
X125200522Y-121134348D01*
X125325697Y-121259305D01*
X125331927Y-121263145D01*
X125331928Y-121263146D01*
X125400217Y-121305240D01*
X125447710Y-121358012D01*
X125459134Y-121428084D01*
X125430860Y-121493208D01*
X125371866Y-121532707D01*
X125334101Y-121538500D01*
X107457983Y-121538500D01*
X107389862Y-121518498D01*
X107343369Y-121464842D01*
X107331983Y-121412404D01*
X107333733Y-119111925D01*
X112088645Y-119111925D01*
X112089204Y-119118065D01*
X112103521Y-119275381D01*
X112106570Y-119308888D01*
X112108308Y-119314794D01*
X112108309Y-119314798D01*
X112110655Y-119322768D01*
X112162410Y-119498619D01*
X112165263Y-119504077D01*
X112165265Y-119504081D01*
X112182008Y-119536107D01*
X112254040Y-119673890D01*
X112377968Y-119828025D01*
X112382692Y-119831989D01*
X112389933Y-119838065D01*
X112529474Y-119955154D01*
X112534872Y-119958121D01*
X112534877Y-119958125D01*
X112678180Y-120036905D01*
X112702787Y-120050433D01*
X112708654Y-120052294D01*
X112708656Y-120052295D01*
X112885436Y-120108373D01*
X112891306Y-120110235D01*
X113045227Y-120127500D01*
X113151769Y-120127500D01*
X113154825Y-120127200D01*
X113154832Y-120127200D01*
X113213340Y-120121463D01*
X113298833Y-120113080D01*
X113304734Y-120111298D01*
X113304736Y-120111298D01*
X113378053Y-120089162D01*
X113488169Y-120055916D01*
X113662796Y-119963066D01*
X113749062Y-119892709D01*
X113811287Y-119841960D01*
X113811290Y-119841957D01*
X113816062Y-119838065D01*
X113882090Y-119758251D01*
X113938201Y-119690425D01*
X113938203Y-119690421D01*
X113942130Y-119685675D01*
X114036198Y-119511701D01*
X114094682Y-119322768D01*
X114115355Y-119126075D01*
X114097430Y-118929112D01*
X114085852Y-118889771D01*
X114043330Y-118745294D01*
X114041590Y-118739381D01*
X114031919Y-118720881D01*
X113952813Y-118569568D01*
X113949960Y-118564110D01*
X113826032Y-118409975D01*
X113819727Y-118404684D01*
X113710302Y-118312866D01*
X113674526Y-118282846D01*
X113669128Y-118279879D01*
X113669123Y-118279875D01*
X113506608Y-118190533D01*
X113506609Y-118190533D01*
X113501213Y-118187567D01*
X113495346Y-118185706D01*
X113495344Y-118185705D01*
X113474207Y-118179000D01*
X114838693Y-118179000D01*
X114857885Y-118398371D01*
X114914880Y-118611076D01*
X114917205Y-118616061D01*
X115005618Y-118805666D01*
X115005621Y-118805671D01*
X115007944Y-118810653D01*
X115011100Y-118815160D01*
X115011101Y-118815162D01*
X115108791Y-118954677D01*
X115134251Y-118991038D01*
X115289962Y-119146749D01*
X115470346Y-119273056D01*
X115669924Y-119366120D01*
X115882629Y-119423115D01*
X116102000Y-119442307D01*
X116321371Y-119423115D01*
X116534076Y-119366120D01*
X116733654Y-119273056D01*
X116914038Y-119146749D01*
X117069749Y-118991038D01*
X117095210Y-118954677D01*
X117192899Y-118815162D01*
X117192900Y-118815160D01*
X117196056Y-118810653D01*
X117198379Y-118805671D01*
X117198382Y-118805666D01*
X117286795Y-118616061D01*
X117289120Y-118611076D01*
X117346115Y-118398371D01*
X117365307Y-118179000D01*
X117838693Y-118179000D01*
X117857885Y-118398371D01*
X117914880Y-118611076D01*
X117917205Y-118616061D01*
X118005618Y-118805666D01*
X118005621Y-118805671D01*
X118007944Y-118810653D01*
X118011100Y-118815160D01*
X118011101Y-118815162D01*
X118108791Y-118954677D01*
X118134251Y-118991038D01*
X118289962Y-119146749D01*
X118470346Y-119273056D01*
X118669924Y-119366120D01*
X118882629Y-119423115D01*
X119102000Y-119442307D01*
X119321371Y-119423115D01*
X119534076Y-119366120D01*
X119733654Y-119273056D01*
X119914038Y-119146749D01*
X119948862Y-119111925D01*
X121088645Y-119111925D01*
X121089204Y-119118065D01*
X121103521Y-119275381D01*
X121106570Y-119308888D01*
X121108308Y-119314794D01*
X121108309Y-119314798D01*
X121110655Y-119322768D01*
X121162410Y-119498619D01*
X121165263Y-119504077D01*
X121165265Y-119504081D01*
X121182008Y-119536107D01*
X121254040Y-119673890D01*
X121377968Y-119828025D01*
X121382692Y-119831989D01*
X121389933Y-119838065D01*
X121529474Y-119955154D01*
X121534872Y-119958121D01*
X121534877Y-119958125D01*
X121678180Y-120036905D01*
X121702787Y-120050433D01*
X121708654Y-120052294D01*
X121708656Y-120052295D01*
X121885436Y-120108373D01*
X121891306Y-120110235D01*
X122045227Y-120127500D01*
X122151769Y-120127500D01*
X122154825Y-120127200D01*
X122154832Y-120127200D01*
X122213340Y-120121463D01*
X122298833Y-120113080D01*
X122304734Y-120111298D01*
X122304736Y-120111298D01*
X122378053Y-120089162D01*
X122488169Y-120055916D01*
X122662796Y-119963066D01*
X122749062Y-119892709D01*
X122811287Y-119841960D01*
X122811290Y-119841957D01*
X122816062Y-119838065D01*
X122882090Y-119758251D01*
X122938201Y-119690425D01*
X122938203Y-119690421D01*
X122942130Y-119685675D01*
X123036198Y-119511701D01*
X123094682Y-119322768D01*
X123115355Y-119126075D01*
X123097430Y-118929112D01*
X123085852Y-118889771D01*
X123043330Y-118745294D01*
X123041590Y-118739381D01*
X123031919Y-118720881D01*
X122952813Y-118569568D01*
X122949960Y-118564110D01*
X122826032Y-118409975D01*
X122819727Y-118404684D01*
X122710302Y-118312866D01*
X122674526Y-118282846D01*
X122669128Y-118279879D01*
X122669123Y-118279875D01*
X122506608Y-118190533D01*
X122506609Y-118190533D01*
X122501213Y-118187567D01*
X122495346Y-118185706D01*
X122495344Y-118185705D01*
X122318564Y-118129627D01*
X122318563Y-118129627D01*
X122312694Y-118127765D01*
X122158773Y-118110500D01*
X122052231Y-118110500D01*
X122049175Y-118110800D01*
X122049168Y-118110800D01*
X121990660Y-118116537D01*
X121905167Y-118124920D01*
X121899266Y-118126702D01*
X121899264Y-118126702D01*
X121825947Y-118148838D01*
X121715831Y-118182084D01*
X121541204Y-118274934D01*
X121494755Y-118312817D01*
X121392713Y-118396040D01*
X121392710Y-118396043D01*
X121387938Y-118399935D01*
X121384011Y-118404682D01*
X121384009Y-118404684D01*
X121265799Y-118547575D01*
X121265797Y-118547579D01*
X121261870Y-118552325D01*
X121167802Y-118726299D01*
X121109318Y-118915232D01*
X121108674Y-118921357D01*
X121108674Y-118921358D01*
X121101351Y-118991038D01*
X121088645Y-119111925D01*
X119948862Y-119111925D01*
X120069749Y-118991038D01*
X120095210Y-118954677D01*
X120192899Y-118815162D01*
X120192900Y-118815160D01*
X120196056Y-118810653D01*
X120198379Y-118805671D01*
X120198382Y-118805666D01*
X120286795Y-118616061D01*
X120289120Y-118611076D01*
X120346115Y-118398371D01*
X120365307Y-118179000D01*
X120346115Y-117959629D01*
X120289120Y-117746924D01*
X120227442Y-117614655D01*
X120198382Y-117552334D01*
X120198379Y-117552329D01*
X120196056Y-117547347D01*
X120192899Y-117542838D01*
X120072908Y-117371473D01*
X120072906Y-117371470D01*
X120069749Y-117366962D01*
X119914038Y-117211251D01*
X119733654Y-117084944D01*
X119534076Y-116991880D01*
X119321371Y-116934885D01*
X119102000Y-116915693D01*
X118882629Y-116934885D01*
X118669924Y-116991880D01*
X118577313Y-117035065D01*
X118475334Y-117082618D01*
X118475329Y-117082621D01*
X118470347Y-117084944D01*
X118465840Y-117088100D01*
X118465838Y-117088101D01*
X118294473Y-117208092D01*
X118294470Y-117208094D01*
X118289962Y-117211251D01*
X118134251Y-117366962D01*
X118131094Y-117371470D01*
X118131092Y-117371473D01*
X118011101Y-117542838D01*
X118007944Y-117547347D01*
X118005621Y-117552329D01*
X118005618Y-117552334D01*
X117976558Y-117614655D01*
X117914880Y-117746924D01*
X117857885Y-117959629D01*
X117838693Y-118179000D01*
X117365307Y-118179000D01*
X117346115Y-117959629D01*
X117289120Y-117746924D01*
X117227442Y-117614655D01*
X117198382Y-117552334D01*
X117198379Y-117552329D01*
X117196056Y-117547347D01*
X117192899Y-117542838D01*
X117072908Y-117371473D01*
X117072906Y-117371470D01*
X117069749Y-117366962D01*
X116914038Y-117211251D01*
X116733654Y-117084944D01*
X116534076Y-116991880D01*
X116321371Y-116934885D01*
X116102000Y-116915693D01*
X115882629Y-116934885D01*
X115669924Y-116991880D01*
X115577313Y-117035065D01*
X115475334Y-117082618D01*
X115475329Y-117082621D01*
X115470347Y-117084944D01*
X115465840Y-117088100D01*
X115465838Y-117088101D01*
X115294473Y-117208092D01*
X115294470Y-117208094D01*
X115289962Y-117211251D01*
X115134251Y-117366962D01*
X115131094Y-117371470D01*
X115131092Y-117371473D01*
X115011101Y-117542838D01*
X115007944Y-117547347D01*
X115005621Y-117552329D01*
X115005618Y-117552334D01*
X114976558Y-117614655D01*
X114914880Y-117746924D01*
X114857885Y-117959629D01*
X114838693Y-118179000D01*
X113474207Y-118179000D01*
X113318564Y-118129627D01*
X113318563Y-118129627D01*
X113312694Y-118127765D01*
X113158773Y-118110500D01*
X113052231Y-118110500D01*
X113049175Y-118110800D01*
X113049168Y-118110800D01*
X112990660Y-118116537D01*
X112905167Y-118124920D01*
X112899266Y-118126702D01*
X112899264Y-118126702D01*
X112825947Y-118148838D01*
X112715831Y-118182084D01*
X112541204Y-118274934D01*
X112494755Y-118312817D01*
X112392713Y-118396040D01*
X112392710Y-118396043D01*
X112387938Y-118399935D01*
X112384011Y-118404682D01*
X112384009Y-118404684D01*
X112265799Y-118547575D01*
X112265797Y-118547579D01*
X112261870Y-118552325D01*
X112167802Y-118726299D01*
X112109318Y-118915232D01*
X112108674Y-118921357D01*
X112108674Y-118921358D01*
X112101351Y-118991038D01*
X112088645Y-119111925D01*
X107333733Y-119111925D01*
X107345479Y-103672000D01*
X108076738Y-103672000D01*
X108095767Y-103974462D01*
X108152555Y-104272154D01*
X108153782Y-104275930D01*
X108233761Y-104522078D01*
X108246206Y-104560381D01*
X108247893Y-104563967D01*
X108247895Y-104563971D01*
X108295672Y-104665502D01*
X108375242Y-104834598D01*
X108537630Y-105090480D01*
X108540149Y-105093525D01*
X108540152Y-105093529D01*
X108565562Y-105124244D01*
X108730808Y-105323992D01*
X108824490Y-105411965D01*
X108927157Y-105508375D01*
X108951729Y-105531450D01*
X108954931Y-105533777D01*
X108954933Y-105533778D01*
X108960180Y-105537590D01*
X109196910Y-105709584D01*
X109200379Y-105711491D01*
X109200382Y-105711493D01*
X109459014Y-105853678D01*
X109462483Y-105855585D01*
X109466152Y-105857038D01*
X109466157Y-105857040D01*
X109711962Y-105954361D01*
X109744261Y-105967149D01*
X110037800Y-106042516D01*
X110338470Y-106080500D01*
X110641530Y-106080500D01*
X110942200Y-106042516D01*
X111235739Y-105967149D01*
X111268038Y-105954361D01*
X111513843Y-105857040D01*
X111513848Y-105857038D01*
X111517517Y-105855585D01*
X111520986Y-105853678D01*
X111779618Y-105711493D01*
X111779621Y-105711491D01*
X111783090Y-105709584D01*
X112019820Y-105537590D01*
X112025067Y-105533778D01*
X112025069Y-105533777D01*
X112028271Y-105531450D01*
X112052844Y-105508375D01*
X112155510Y-105411965D01*
X112249192Y-105323992D01*
X112414438Y-105124244D01*
X112439848Y-105093529D01*
X112439851Y-105093525D01*
X112442370Y-105090480D01*
X112506781Y-104988985D01*
X112560169Y-104942187D01*
X112613165Y-104930500D01*
X114643242Y-104930500D01*
X114711363Y-104950502D01*
X114757856Y-105004158D01*
X114761219Y-105012256D01*
X114767385Y-105028705D01*
X114772765Y-105035884D01*
X114772767Y-105035887D01*
X114829415Y-105111471D01*
X114854739Y-105145261D01*
X114971295Y-105232615D01*
X115107684Y-105283745D01*
X115169866Y-105290500D01*
X117766134Y-105290500D01*
X117828316Y-105283745D01*
X117964705Y-105232615D01*
X118081261Y-105145261D01*
X118168615Y-105028705D01*
X118219745Y-104892316D01*
X118226500Y-104830134D01*
X119009500Y-104830134D01*
X119016255Y-104892316D01*
X119067385Y-105028705D01*
X119154739Y-105145261D01*
X119271295Y-105232615D01*
X119407684Y-105283745D01*
X119469866Y-105290500D01*
X122066134Y-105290500D01*
X122128316Y-105283745D01*
X122249605Y-105238276D01*
X122320410Y-105233093D01*
X122382928Y-105267163D01*
X122652595Y-105536830D01*
X122686621Y-105599142D01*
X122689500Y-105625925D01*
X122689500Y-106472302D01*
X122669498Y-106540423D01*
X122660024Y-106553290D01*
X122607846Y-106615474D01*
X122605278Y-106620144D01*
X122601897Y-106624261D01*
X122590164Y-106646143D01*
X122558023Y-106706086D01*
X122557394Y-106707245D01*
X122515538Y-106783381D01*
X122515535Y-106783389D01*
X122512567Y-106788787D01*
X122510955Y-106793869D01*
X122508438Y-106798563D01*
X122481238Y-106887531D01*
X122480918Y-106888559D01*
X122452765Y-106977306D01*
X122452171Y-106982602D01*
X122450613Y-106987698D01*
X122449867Y-106995044D01*
X122441219Y-107080178D01*
X122441086Y-107081427D01*
X122430719Y-107173851D01*
X122431165Y-107179159D01*
X122430626Y-107184462D01*
X122437760Y-107259927D01*
X122439375Y-107277016D01*
X122439492Y-107278331D01*
X122445167Y-107345909D01*
X122447268Y-107370934D01*
X122448738Y-107376060D01*
X122449239Y-107381362D01*
X122450999Y-107387265D01*
X122475792Y-107470433D01*
X122476160Y-107471691D01*
X122501783Y-107561050D01*
X122504219Y-107565789D01*
X122505741Y-107570896D01*
X122549145Y-107653221D01*
X122549666Y-107654221D01*
X122568491Y-107690850D01*
X122586014Y-107724944D01*
X122592187Y-107736956D01*
X122595496Y-107741131D01*
X122597982Y-107745846D01*
X122652193Y-107812791D01*
X122656418Y-107818008D01*
X122657242Y-107819037D01*
X122711205Y-107887121D01*
X122715035Y-107891953D01*
X122719097Y-107895410D01*
X122722447Y-107899547D01*
X122727182Y-107903492D01*
X122727186Y-107903496D01*
X122793766Y-107958967D01*
X122794776Y-107959818D01*
X122860954Y-108016140D01*
X122860958Y-108016143D01*
X122865650Y-108020136D01*
X122870305Y-108022738D01*
X122874396Y-108026146D01*
X122930608Y-108056794D01*
X122956003Y-108070640D01*
X122957158Y-108071278D01*
X123032911Y-108113616D01*
X123032915Y-108113618D01*
X123038294Y-108116624D01*
X123043361Y-108118270D01*
X123048041Y-108120822D01*
X123136841Y-108148650D01*
X123137949Y-108149004D01*
X123226392Y-108177740D01*
X123231680Y-108178371D01*
X123236768Y-108179965D01*
X123242895Y-108180631D01*
X123242897Y-108180631D01*
X123329108Y-108189996D01*
X123330420Y-108190145D01*
X123413043Y-108199997D01*
X123422777Y-108201158D01*
X123428094Y-108200749D01*
X123433388Y-108201324D01*
X123494038Y-108196018D01*
X123525969Y-108193225D01*
X123527282Y-108193117D01*
X123613829Y-108186457D01*
X123613832Y-108186457D01*
X123619972Y-108185984D01*
X123625102Y-108184552D01*
X123630413Y-108184087D01*
X123719706Y-108158144D01*
X123720971Y-108157784D01*
X123804532Y-108134454D01*
X123804533Y-108134454D01*
X123810463Y-108132798D01*
X123815219Y-108130396D01*
X123820336Y-108128909D01*
X123902847Y-108086139D01*
X123904015Y-108085541D01*
X123981493Y-108046405D01*
X123981495Y-108046404D01*
X123986996Y-108043625D01*
X123991195Y-108040344D01*
X123995926Y-108037892D01*
X124068652Y-107979836D01*
X124069684Y-107979022D01*
X124137991Y-107925655D01*
X124137992Y-107925655D01*
X124142847Y-107921861D01*
X124180662Y-107878052D01*
X124186947Y-107871288D01*
X124367384Y-107690850D01*
X124377528Y-107681748D01*
X124402218Y-107661897D01*
X124402219Y-107661896D01*
X124407025Y-107658032D01*
X124439320Y-107619544D01*
X124442478Y-107615925D01*
X124444124Y-107614110D01*
X124446309Y-107611925D01*
X124448264Y-107609545D01*
X124448273Y-107609535D01*
X124473549Y-107578764D01*
X124474391Y-107577749D01*
X124530194Y-107511245D01*
X124534154Y-107506526D01*
X124536723Y-107501852D01*
X124540102Y-107497739D01*
X124583975Y-107415915D01*
X124584584Y-107414793D01*
X124626464Y-107338614D01*
X124626465Y-107338612D01*
X124629433Y-107333213D01*
X124631045Y-107328131D01*
X124633562Y-107323437D01*
X124660762Y-107234469D01*
X124661108Y-107233358D01*
X124664975Y-107221171D01*
X124689235Y-107144694D01*
X124689829Y-107139398D01*
X124691387Y-107134302D01*
X124700790Y-107041743D01*
X124700911Y-107040607D01*
X124704945Y-107004635D01*
X124706108Y-106994270D01*
X124706108Y-106994266D01*
X124706500Y-106990773D01*
X124706500Y-106987246D01*
X124706555Y-106986261D01*
X124707002Y-106980581D01*
X124711374Y-106937538D01*
X124707059Y-106891891D01*
X124706500Y-106880033D01*
X124706500Y-105217840D01*
X124707237Y-105204232D01*
X124710659Y-105172736D01*
X124710659Y-105172732D01*
X124711324Y-105166611D01*
X124708828Y-105138081D01*
X124706950Y-105116609D01*
X124706621Y-105111784D01*
X124706500Y-105109313D01*
X124706500Y-105106231D01*
X124702309Y-105063489D01*
X124702187Y-105062174D01*
X124697753Y-105011498D01*
X124694087Y-104969587D01*
X124692600Y-104964468D01*
X124692080Y-104959167D01*
X124665199Y-104870133D01*
X124664864Y-104869000D01*
X124640627Y-104785578D01*
X124640625Y-104785574D01*
X124638908Y-104779663D01*
X124636457Y-104774934D01*
X124634916Y-104769831D01*
X124591230Y-104687669D01*
X124590683Y-104686627D01*
X124550728Y-104609545D01*
X124550727Y-104609544D01*
X124547892Y-104604074D01*
X124544569Y-104599911D01*
X124542066Y-104595204D01*
X124537382Y-104589460D01*
X124483263Y-104523105D01*
X124482500Y-104522160D01*
X124451261Y-104483027D01*
X124448770Y-104480536D01*
X124448120Y-104479809D01*
X124444408Y-104475463D01*
X124420955Y-104446708D01*
X124417065Y-104441938D01*
X124412323Y-104438015D01*
X124412321Y-104438013D01*
X124381727Y-104412703D01*
X124372947Y-104404713D01*
X122930855Y-102962621D01*
X122921753Y-102952478D01*
X122901897Y-102927782D01*
X122898032Y-102922975D01*
X122859578Y-102890708D01*
X122855931Y-102887528D01*
X122854119Y-102885885D01*
X122851925Y-102883691D01*
X122818651Y-102856358D01*
X122817853Y-102855696D01*
X122746526Y-102795846D01*
X122741856Y-102793278D01*
X122737739Y-102789897D01*
X122655914Y-102746023D01*
X122654755Y-102745394D01*
X122591800Y-102710785D01*
X122541741Y-102660440D01*
X122526500Y-102600370D01*
X122526500Y-102433866D01*
X122519745Y-102371684D01*
X122468615Y-102235295D01*
X122381261Y-102118739D01*
X122264705Y-102031385D01*
X122128316Y-101980255D01*
X122066134Y-101973500D01*
X119469866Y-101973500D01*
X119407684Y-101980255D01*
X119271295Y-102031385D01*
X119154739Y-102118739D01*
X119067385Y-102235295D01*
X119016255Y-102371684D01*
X119009500Y-102433866D01*
X119009500Y-104830134D01*
X118226500Y-104830134D01*
X118226500Y-102433866D01*
X118219745Y-102371684D01*
X118168615Y-102235295D01*
X118081261Y-102118739D01*
X117964705Y-102031385D01*
X117828316Y-101980255D01*
X117766134Y-101973500D01*
X115169866Y-101973500D01*
X115107684Y-101980255D01*
X114971295Y-102031385D01*
X114854739Y-102118739D01*
X114767385Y-102235295D01*
X114764233Y-102243703D01*
X114731233Y-102331730D01*
X114688591Y-102388494D01*
X114622030Y-102413194D01*
X114613251Y-102413500D01*
X112613165Y-102413500D01*
X112545044Y-102393498D01*
X112506780Y-102355014D01*
X112506068Y-102353891D01*
X112442370Y-102253520D01*
X112421607Y-102228421D01*
X112326418Y-102113358D01*
X112249192Y-102020008D01*
X112058401Y-101840844D01*
X112031158Y-101815261D01*
X112031157Y-101815261D01*
X112028271Y-101812550D01*
X111783090Y-101634416D01*
X111675036Y-101575012D01*
X111520986Y-101490322D01*
X111520985Y-101490321D01*
X111517517Y-101488415D01*
X111513848Y-101486962D01*
X111513843Y-101486960D01*
X111239409Y-101378304D01*
X111239408Y-101378304D01*
X111235739Y-101376851D01*
X110942200Y-101301484D01*
X110641530Y-101263500D01*
X110338470Y-101263500D01*
X110037800Y-101301484D01*
X109744261Y-101376851D01*
X109740592Y-101378304D01*
X109740591Y-101378304D01*
X109466157Y-101486960D01*
X109466152Y-101486962D01*
X109462483Y-101488415D01*
X109459015Y-101490321D01*
X109459014Y-101490322D01*
X109304965Y-101575012D01*
X109196910Y-101634416D01*
X108951729Y-101812550D01*
X108948843Y-101815261D01*
X108948842Y-101815261D01*
X108921599Y-101840844D01*
X108730808Y-102020008D01*
X108653582Y-102113358D01*
X108558394Y-102228421D01*
X108537630Y-102253520D01*
X108375242Y-102509402D01*
X108330323Y-102604861D01*
X108248228Y-102779323D01*
X108246206Y-102783619D01*
X108244980Y-102787391D01*
X108244980Y-102787392D01*
X108212488Y-102887392D01*
X108152555Y-103071846D01*
X108095767Y-103369538D01*
X108076738Y-103672000D01*
X107345479Y-103672000D01*
X107352051Y-95033204D01*
X107372105Y-94965099D01*
X107425796Y-94918647D01*
X107478051Y-94907300D01*
X109228734Y-94907300D01*
X109290916Y-94900545D01*
X109427305Y-94849415D01*
X109543861Y-94762061D01*
X109631215Y-94645505D01*
X109631461Y-94644849D01*
X109678775Y-94597643D01*
X109739033Y-94582300D01*
X113222167Y-94582300D01*
X113290288Y-94602302D01*
X113329600Y-94644478D01*
X113329985Y-94645505D01*
X113417339Y-94762061D01*
X113533895Y-94849415D01*
X113670284Y-94900545D01*
X113732466Y-94907300D01*
X113821100Y-94907300D01*
X113889221Y-94927302D01*
X113935714Y-94980958D01*
X113947100Y-95033300D01*
X113947100Y-95440755D01*
X113946808Y-95449323D01*
X113943024Y-95504834D01*
X113944329Y-95512311D01*
X113944329Y-95512314D01*
X113953602Y-95565447D01*
X113954565Y-95571971D01*
X113956036Y-95584125D01*
X113961955Y-95633035D01*
X113964642Y-95640145D01*
X113965846Y-95645048D01*
X113968714Y-95655534D01*
X113970161Y-95660326D01*
X113971466Y-95667804D01*
X113974518Y-95674756D01*
X113974518Y-95674757D01*
X113996195Y-95724141D01*
X113998686Y-95730246D01*
X114011655Y-95764565D01*
X114020431Y-95787789D01*
X114024731Y-95794046D01*
X114027067Y-95798514D01*
X114032325Y-95807960D01*
X114034907Y-95812326D01*
X114037962Y-95819285D01*
X114075423Y-95868104D01*
X114079286Y-95873423D01*
X114105883Y-95912121D01*
X114114134Y-95924126D01*
X114119803Y-95929177D01*
X114158923Y-95964032D01*
X114164198Y-95969013D01*
X114306195Y-96111010D01*
X114340221Y-96173322D01*
X114343100Y-96200105D01*
X114343100Y-96715200D01*
X114343437Y-96718446D01*
X114343437Y-96718450D01*
X114353104Y-96811615D01*
X114354074Y-96820966D01*
X114356255Y-96827502D01*
X114356255Y-96827504D01*
X114395559Y-96945312D01*
X114410050Y-96988746D01*
X114503122Y-97139148D01*
X114628297Y-97264105D01*
X114634527Y-97267945D01*
X114634528Y-97267946D01*
X114771690Y-97352494D01*
X114778862Y-97356915D01*
X114858605Y-97383364D01*
X114940211Y-97410432D01*
X114940213Y-97410432D01*
X114946739Y-97412597D01*
X114953575Y-97413297D01*
X114953578Y-97413298D01*
X114996631Y-97417709D01*
X115051200Y-97423300D01*
X115652000Y-97423300D01*
X115655246Y-97422963D01*
X115655250Y-97422963D01*
X115750908Y-97413038D01*
X115750912Y-97413037D01*
X115757766Y-97412326D01*
X115764302Y-97410145D01*
X115764304Y-97410145D01*
X115896406Y-97366072D01*
X115925546Y-97356350D01*
X116075948Y-97263278D01*
X116200905Y-97138103D01*
X116250408Y-97057795D01*
X116289875Y-96993768D01*
X116289876Y-96993766D01*
X116293715Y-96987538D01*
X116336968Y-96857134D01*
X116347232Y-96826189D01*
X116347232Y-96826187D01*
X116349397Y-96819661D01*
X116350222Y-96811615D01*
X116357372Y-96741825D01*
X116360100Y-96715200D01*
X116360100Y-96567500D01*
X116380102Y-96499379D01*
X116433758Y-96452886D01*
X116486100Y-96441500D01*
X116702185Y-96441500D01*
X116770306Y-96461502D01*
X116776246Y-96465564D01*
X116843334Y-96514306D01*
X116891248Y-96549118D01*
X116897276Y-96551802D01*
X116897278Y-96551803D01*
X117013442Y-96603522D01*
X117065712Y-96626794D01*
X117135905Y-96641714D01*
X117246056Y-96665128D01*
X117246061Y-96665128D01*
X117252513Y-96666500D01*
X117443487Y-96666500D01*
X117449939Y-96665128D01*
X117449944Y-96665128D01*
X117560095Y-96641714D01*
X117630288Y-96626794D01*
X117682558Y-96603522D01*
X117798722Y-96551803D01*
X117798724Y-96551802D01*
X117804752Y-96549118D01*
X117959253Y-96436866D01*
X118005394Y-96385621D01*
X118082621Y-96299852D01*
X118082622Y-96299851D01*
X118087040Y-96294944D01*
X118167914Y-96154866D01*
X118179223Y-96135279D01*
X118179224Y-96135278D01*
X118182527Y-96129556D01*
X118241542Y-95947928D01*
X118261504Y-95758000D01*
X118256351Y-95708971D01*
X118242232Y-95574635D01*
X118242232Y-95574633D01*
X118241542Y-95568072D01*
X118182527Y-95386444D01*
X118087040Y-95221056D01*
X117959253Y-95079134D01*
X117804752Y-94966882D01*
X117798724Y-94964198D01*
X117798722Y-94964197D01*
X117636319Y-94891891D01*
X117636318Y-94891891D01*
X117630288Y-94889206D01*
X117536888Y-94869353D01*
X117449944Y-94850872D01*
X117449939Y-94850872D01*
X117443487Y-94849500D01*
X117252513Y-94849500D01*
X117246061Y-94850872D01*
X117246056Y-94850872D01*
X117159112Y-94869353D01*
X117065712Y-94889206D01*
X117059682Y-94891891D01*
X117059681Y-94891891D01*
X116897278Y-94964197D01*
X116897276Y-94964198D01*
X116891248Y-94966882D01*
X116885907Y-94970762D01*
X116885906Y-94970763D01*
X116776246Y-95050436D01*
X116709378Y-95074295D01*
X116702185Y-95074500D01*
X116044111Y-95074500D01*
X115977995Y-95055760D01*
X115930568Y-95026525D01*
X115930566Y-95026524D01*
X115924338Y-95022685D01*
X115856247Y-95000100D01*
X115797888Y-94959671D01*
X115770651Y-94894107D01*
X115783184Y-94824225D01*
X115820349Y-94779683D01*
X115836679Y-94767444D01*
X115836681Y-94767442D01*
X115843861Y-94762061D01*
X115931215Y-94645505D01*
X115982345Y-94509116D01*
X115989100Y-94446934D01*
X115989100Y-93350666D01*
X115982345Y-93288484D01*
X115931215Y-93152095D01*
X115843861Y-93035539D01*
X115727305Y-92948185D01*
X115590916Y-92897055D01*
X115528734Y-92890300D01*
X113732466Y-92890300D01*
X113670284Y-92897055D01*
X113533895Y-92948185D01*
X113417339Y-93035539D01*
X113329985Y-93152095D01*
X113329739Y-93152751D01*
X113282425Y-93199957D01*
X113222167Y-93215300D01*
X109739033Y-93215300D01*
X109670912Y-93195298D01*
X109631600Y-93153122D01*
X109631215Y-93152095D01*
X109543861Y-93035539D01*
X109427305Y-92948185D01*
X109290916Y-92897055D01*
X109228734Y-92890300D01*
X107479777Y-92890300D01*
X107411656Y-92870298D01*
X107365163Y-92816642D01*
X107353777Y-92764204D01*
X107359811Y-84832404D01*
X107379865Y-84764299D01*
X107433556Y-84717847D01*
X107485811Y-84706500D01*
X109254134Y-84706500D01*
X109316316Y-84699745D01*
X109452705Y-84648615D01*
X109569261Y-84561261D01*
X109656615Y-84444705D01*
X109659769Y-84436293D01*
X109668401Y-84413269D01*
X109711043Y-84356505D01*
X109777605Y-84331806D01*
X109786382Y-84331500D01*
X113225618Y-84331500D01*
X113293739Y-84351502D01*
G37*
G04 #@! TD.AperFunction*
G04 #@! TA.AperFunction,Conductor*
G36*
X141862012Y-94315081D02*
G01*
X141868595Y-94321210D01*
X144174024Y-96626639D01*
X144208050Y-96688951D01*
X144206346Y-96749406D01*
X144192989Y-96797570D01*
X144169251Y-97019695D01*
X144169548Y-97024848D01*
X144169548Y-97024851D01*
X144175719Y-97131872D01*
X144182110Y-97242715D01*
X144183247Y-97247761D01*
X144183248Y-97247767D01*
X144206850Y-97352494D01*
X144231222Y-97460639D01*
X144315266Y-97667616D01*
X144366942Y-97751944D01*
X144429291Y-97853688D01*
X144431987Y-97858088D01*
X144578250Y-98026938D01*
X144582225Y-98030238D01*
X144582228Y-98030241D01*
X144645242Y-98082556D01*
X144684877Y-98141459D01*
X144686375Y-98212440D01*
X144649260Y-98272962D01*
X144585316Y-98303811D01*
X144564757Y-98305500D01*
X144557850Y-98305500D01*
X144544242Y-98304763D01*
X144543662Y-98304700D01*
X144506612Y-98300675D01*
X144456570Y-98305053D01*
X144451788Y-98305379D01*
X144449310Y-98305500D01*
X144446231Y-98305500D01*
X144443177Y-98305799D01*
X144443166Y-98305800D01*
X144403529Y-98309687D01*
X144402215Y-98309809D01*
X144366688Y-98312917D01*
X144309587Y-98317913D01*
X144304468Y-98319400D01*
X144299167Y-98319920D01*
X144210166Y-98346791D01*
X144209033Y-98347126D01*
X144125586Y-98371370D01*
X144125582Y-98371372D01*
X144119664Y-98373091D01*
X144114932Y-98375544D01*
X144109831Y-98377084D01*
X144104388Y-98379978D01*
X144027740Y-98420731D01*
X144026574Y-98421343D01*
X143972587Y-98449328D01*
X143944074Y-98464108D01*
X143939911Y-98467431D01*
X143935204Y-98469934D01*
X143930429Y-98473828D01*
X143930428Y-98473829D01*
X143863102Y-98528739D01*
X143862075Y-98529567D01*
X143825792Y-98558531D01*
X143825787Y-98558536D01*
X143823028Y-98560738D01*
X143820527Y-98563239D01*
X143819809Y-98563881D01*
X143815461Y-98567594D01*
X143781938Y-98594935D01*
X143778015Y-98599677D01*
X143778013Y-98599679D01*
X143752703Y-98630273D01*
X143744713Y-98639053D01*
X143129171Y-99254595D01*
X143066859Y-99288621D01*
X143040076Y-99291500D01*
X142711866Y-99291500D01*
X142649684Y-99298255D01*
X142513295Y-99349385D01*
X142396739Y-99436739D01*
X142309385Y-99553295D01*
X142258255Y-99689684D01*
X142251500Y-99751866D01*
X142251500Y-100848134D01*
X142258255Y-100910316D01*
X142261029Y-100917715D01*
X142261775Y-100920854D01*
X142261775Y-100979146D01*
X142261029Y-100982285D01*
X142258255Y-100989684D01*
X142251500Y-101051866D01*
X142251500Y-102148134D01*
X142258255Y-102210316D01*
X142309385Y-102346705D01*
X142396739Y-102463261D01*
X142403919Y-102468642D01*
X142451065Y-102503976D01*
X142493580Y-102560835D01*
X142501500Y-102604802D01*
X142501500Y-102739198D01*
X142481498Y-102807319D01*
X142451065Y-102840024D01*
X142396739Y-102880739D01*
X142309385Y-102997295D01*
X142258255Y-103133684D01*
X142251500Y-103195866D01*
X142251500Y-104292134D01*
X142258255Y-104354316D01*
X142261029Y-104361715D01*
X142261775Y-104364854D01*
X142261775Y-104423146D01*
X142261029Y-104426285D01*
X142258255Y-104433684D01*
X142251500Y-104495866D01*
X142251500Y-105592134D01*
X142258255Y-105654316D01*
X142309385Y-105790705D01*
X142396739Y-105907261D01*
X142403919Y-105912642D01*
X142506113Y-105989233D01*
X142506116Y-105989235D01*
X142513295Y-105994615D01*
X142520119Y-105997173D01*
X142569666Y-106046829D01*
X142585011Y-106107092D01*
X142585011Y-107142565D01*
X142565009Y-107210686D01*
X142548106Y-107231660D01*
X142507691Y-107272075D01*
X142505738Y-107274452D01*
X142505734Y-107274457D01*
X142489984Y-107293632D01*
X142413897Y-107386261D01*
X142320438Y-107560563D01*
X142287218Y-107669219D01*
X142265405Y-107740567D01*
X142262613Y-107749698D01*
X142261990Y-107755833D01*
X142244740Y-107925655D01*
X142242626Y-107946462D01*
X142251762Y-108043105D01*
X142260188Y-108132240D01*
X142261239Y-108143362D01*
X142278347Y-108200749D01*
X142293416Y-108251297D01*
X142317741Y-108332896D01*
X142409982Y-108507846D01*
X142413858Y-108512632D01*
X142413859Y-108512634D01*
X142472599Y-108585171D01*
X142534447Y-108661547D01*
X142539182Y-108665492D01*
X142680928Y-108783590D01*
X142686396Y-108788146D01*
X142860041Y-108882822D01*
X142919793Y-108901547D01*
X143042886Y-108940122D01*
X143042889Y-108940123D01*
X143048768Y-108941965D01*
X143054891Y-108942630D01*
X143054895Y-108942631D01*
X143239263Y-108962659D01*
X143239267Y-108962659D01*
X143245388Y-108963324D01*
X143442413Y-108946087D01*
X143448330Y-108944368D01*
X143448335Y-108944367D01*
X143595720Y-108901547D01*
X143632336Y-108890909D01*
X143807926Y-108799892D01*
X143928973Y-108703262D01*
X144262895Y-108369339D01*
X144273039Y-108360237D01*
X144297729Y-108340386D01*
X144297730Y-108340385D01*
X144302536Y-108336521D01*
X144334803Y-108298067D01*
X144337983Y-108294420D01*
X144339626Y-108292608D01*
X144341820Y-108290414D01*
X144369153Y-108257140D01*
X144369859Y-108256289D01*
X144382177Y-108241610D01*
X144429665Y-108185015D01*
X144432233Y-108180345D01*
X144435614Y-108176228D01*
X144479526Y-108094331D01*
X144480135Y-108093209D01*
X144521977Y-108017100D01*
X144521979Y-108017095D01*
X144524944Y-108011702D01*
X144526555Y-108006624D01*
X144529074Y-108001926D01*
X144556264Y-107912991D01*
X144556647Y-107911761D01*
X144582882Y-107829059D01*
X144584746Y-107823183D01*
X144585339Y-107817892D01*
X144586899Y-107812791D01*
X144596306Y-107720178D01*
X144596426Y-107719058D01*
X144602011Y-107669262D01*
X144602011Y-107665733D01*
X144602066Y-107664750D01*
X144602515Y-107659045D01*
X144603001Y-107654267D01*
X144606885Y-107616026D01*
X144602570Y-107570377D01*
X144602011Y-107558520D01*
X144602011Y-105977590D01*
X144622013Y-105909469D01*
X144627185Y-105902025D01*
X144651800Y-105869181D01*
X144710615Y-105790705D01*
X144761745Y-105654316D01*
X144768500Y-105592134D01*
X144768500Y-104771500D01*
X144788502Y-104703379D01*
X144842158Y-104656886D01*
X144894500Y-104645500D01*
X145331074Y-104645500D01*
X145399195Y-104665502D01*
X145420169Y-104682404D01*
X145596106Y-104858340D01*
X145630131Y-104920652D01*
X145633011Y-104947436D01*
X145633011Y-116286564D01*
X145613009Y-116354685D01*
X145596106Y-116375659D01*
X143580771Y-118390995D01*
X143518459Y-118425020D01*
X143491676Y-118427900D01*
X143140266Y-118427900D01*
X143078084Y-118434655D01*
X142941695Y-118485785D01*
X142825139Y-118573139D01*
X142737785Y-118689695D01*
X142734633Y-118698103D01*
X142693319Y-118808307D01*
X142650677Y-118865071D01*
X142584116Y-118889771D01*
X142514767Y-118874563D01*
X142482143Y-118848876D01*
X142431551Y-118793275D01*
X142431542Y-118793266D01*
X142428070Y-118789451D01*
X142424019Y-118786252D01*
X142424015Y-118786248D01*
X142256814Y-118654200D01*
X142256810Y-118654198D01*
X142252759Y-118650998D01*
X142057189Y-118543038D01*
X142052320Y-118541314D01*
X142052316Y-118541312D01*
X141851487Y-118470195D01*
X141851483Y-118470194D01*
X141846612Y-118468469D01*
X141841522Y-118467562D01*
X141841517Y-118467561D01*
X141777230Y-118456110D01*
X141757404Y-118452579D01*
X141693847Y-118420942D01*
X141657484Y-118359964D01*
X141653500Y-118328532D01*
X141653500Y-94410305D01*
X141673502Y-94342184D01*
X141727158Y-94295691D01*
X141797432Y-94285587D01*
X141862012Y-94315081D01*
G37*
G04 #@! TD.AperFunction*
G04 #@! TA.AperFunction,Conductor*
G36*
X133043012Y-103469057D02*
G01*
X133081497Y-103529129D01*
X133118642Y-103656986D01*
X133118644Y-103656991D01*
X133120855Y-103664601D01*
X133124892Y-103671427D01*
X133201509Y-103800980D01*
X133201511Y-103800983D01*
X133205547Y-103807807D01*
X133323193Y-103925453D01*
X133330017Y-103929489D01*
X133330020Y-103929491D01*
X133437589Y-103993107D01*
X133466399Y-104010145D01*
X133474010Y-104012356D01*
X133474012Y-104012357D01*
X133526231Y-104027528D01*
X133626169Y-104056562D01*
X133632574Y-104057066D01*
X133632579Y-104057067D01*
X133661042Y-104059307D01*
X133661050Y-104059307D01*
X133663498Y-104059500D01*
X135446502Y-104059500D01*
X135448950Y-104059307D01*
X135448958Y-104059307D01*
X135477416Y-104057067D01*
X135477417Y-104057067D01*
X135483831Y-104056562D01*
X135490010Y-104054767D01*
X135490863Y-104054611D01*
X135561469Y-104062049D01*
X135616845Y-104106479D01*
X135639500Y-104178561D01*
X135639500Y-104863439D01*
X135619498Y-104931560D01*
X135565842Y-104978053D01*
X135490863Y-104987389D01*
X135490010Y-104987233D01*
X135483831Y-104985438D01*
X135477417Y-104984933D01*
X135477416Y-104984933D01*
X135448958Y-104982693D01*
X135448950Y-104982693D01*
X135446502Y-104982500D01*
X133663498Y-104982500D01*
X133661050Y-104982693D01*
X133661042Y-104982693D01*
X133632579Y-104984933D01*
X133632574Y-104984934D01*
X133626169Y-104985438D01*
X133536469Y-105011498D01*
X133474012Y-105029643D01*
X133474010Y-105029644D01*
X133466399Y-105031855D01*
X133450087Y-105041502D01*
X133330020Y-105112509D01*
X133330017Y-105112511D01*
X133323193Y-105116547D01*
X133205547Y-105234193D01*
X133201511Y-105241017D01*
X133201509Y-105241020D01*
X133150738Y-105326870D01*
X133120855Y-105377399D01*
X133118644Y-105385009D01*
X133118642Y-105385014D01*
X133081497Y-105512871D01*
X133043284Y-105572707D01*
X132978788Y-105602385D01*
X132908486Y-105592482D01*
X132854697Y-105546143D01*
X132834500Y-105477719D01*
X132834500Y-103564281D01*
X132854502Y-103496160D01*
X132908158Y-103449667D01*
X132978432Y-103439563D01*
X133043012Y-103469057D01*
G37*
G04 #@! TD.AperFunction*
G04 #@! TA.AperFunction,Conductor*
G36*
X138680532Y-98610249D02*
G01*
X138737368Y-98652796D01*
X138762179Y-98719316D01*
X138762500Y-98728305D01*
X138762500Y-104937526D01*
X138742498Y-105005647D01*
X138688842Y-105052140D01*
X138618568Y-105062244D01*
X138596836Y-105057121D01*
X138551861Y-105042203D01*
X138545025Y-105041503D01*
X138545022Y-105041502D01*
X138493662Y-105036240D01*
X138447400Y-105031500D01*
X137398371Y-105031500D01*
X137330250Y-105011498D01*
X137309276Y-104994595D01*
X137193405Y-104878724D01*
X137159379Y-104816412D01*
X137156500Y-104789629D01*
X137156500Y-103699063D01*
X137157933Y-103680114D01*
X137160097Y-103665886D01*
X137161198Y-103658651D01*
X137156915Y-103605990D01*
X137156500Y-103595777D01*
X137156500Y-103587707D01*
X137156078Y-103584087D01*
X137156077Y-103584069D01*
X137153208Y-103559461D01*
X137152775Y-103555086D01*
X137147454Y-103489661D01*
X137147453Y-103489658D01*
X137146860Y-103482363D01*
X137144604Y-103475399D01*
X137143413Y-103469440D01*
X137142029Y-103463585D01*
X137141182Y-103456319D01*
X137116265Y-103387673D01*
X137114848Y-103383545D01*
X137094607Y-103321064D01*
X137094606Y-103321062D01*
X137092351Y-103314101D01*
X137088555Y-103307846D01*
X137086049Y-103302372D01*
X137083330Y-103296942D01*
X137080833Y-103290063D01*
X137040809Y-103229016D01*
X137038472Y-103225312D01*
X137003509Y-103167693D01*
X137003505Y-103167688D01*
X137000595Y-103162892D01*
X136993197Y-103154516D01*
X136993223Y-103154493D01*
X136990574Y-103151503D01*
X136987866Y-103148264D01*
X136983856Y-103142148D01*
X136978549Y-103137121D01*
X136978546Y-103137117D01*
X136927617Y-103088872D01*
X136925175Y-103086494D01*
X136683810Y-102845129D01*
X136649784Y-102782817D01*
X136654849Y-102712002D01*
X136697396Y-102655166D01*
X136724576Y-102641436D01*
X136724005Y-102640134D01*
X136780341Y-102615405D01*
X136786446Y-102612914D01*
X136836882Y-102593855D01*
X136836885Y-102593853D01*
X136843989Y-102591169D01*
X136850246Y-102586869D01*
X136854714Y-102584533D01*
X136864160Y-102579275D01*
X136868526Y-102576693D01*
X136875485Y-102573638D01*
X136924304Y-102536177D01*
X136929623Y-102532314D01*
X136974065Y-102501769D01*
X136980326Y-102497466D01*
X137020233Y-102452676D01*
X137025213Y-102447402D01*
X137877459Y-101595156D01*
X137883724Y-101589302D01*
X137916651Y-101560578D01*
X137925670Y-101552710D01*
X137961066Y-101502345D01*
X137964980Y-101497077D01*
X137983332Y-101473672D01*
X138002935Y-101448672D01*
X138006061Y-101441748D01*
X138008671Y-101437439D01*
X138014042Y-101428024D01*
X138016427Y-101423576D01*
X138020795Y-101417361D01*
X138043144Y-101360039D01*
X138045698Y-101353962D01*
X138046302Y-101352626D01*
X138071014Y-101297895D01*
X138072400Y-101290418D01*
X138073910Y-101285598D01*
X138076878Y-101275182D01*
X138078131Y-101270302D01*
X138080889Y-101263228D01*
X138086336Y-101221855D01*
X138088921Y-101202223D01*
X138089953Y-101195710D01*
X138099777Y-101142701D01*
X138099777Y-101142699D01*
X138101161Y-101135232D01*
X138097709Y-101075357D01*
X138097500Y-101068105D01*
X138097500Y-99141305D01*
X138117502Y-99073184D01*
X138134405Y-99052210D01*
X138547405Y-98639210D01*
X138609717Y-98605184D01*
X138680532Y-98610249D01*
G37*
G04 #@! TD.AperFunction*
G04 #@! TA.AperFunction,Conductor*
G36*
X151960545Y-98256918D02*
G01*
X152010776Y-98307092D01*
X152026222Y-98367495D01*
X152027743Y-102717666D01*
X152007765Y-102785794D01*
X151954125Y-102832305D01*
X151883855Y-102842434D01*
X151819264Y-102812963D01*
X151780859Y-102753251D01*
X151776480Y-102731318D01*
X151774997Y-102717666D01*
X151770545Y-102676684D01*
X151719415Y-102540295D01*
X151632061Y-102423739D01*
X151515505Y-102336385D01*
X151379116Y-102285255D01*
X151316934Y-102278500D01*
X149520666Y-102278500D01*
X149458484Y-102285255D01*
X149322095Y-102336385D01*
X149205539Y-102423739D01*
X149118185Y-102540295D01*
X149115033Y-102548703D01*
X149110723Y-102556575D01*
X149109059Y-102555664D01*
X149073137Y-102603490D01*
X149006576Y-102628193D01*
X148997791Y-102628500D01*
X145858904Y-102628500D01*
X145846171Y-102627855D01*
X145810666Y-102624248D01*
X145810661Y-102624248D01*
X145804538Y-102623626D01*
X145762259Y-102627623D01*
X145758891Y-102627941D01*
X145747033Y-102628500D01*
X144751312Y-102628500D01*
X144683191Y-102608498D01*
X144636698Y-102554842D01*
X144626594Y-102484568D01*
X144650486Y-102426935D01*
X144674719Y-102394601D01*
X144710615Y-102346705D01*
X144761745Y-102210316D01*
X144768500Y-102148134D01*
X144768500Y-101051866D01*
X144761745Y-100989684D01*
X144758971Y-100982285D01*
X144758225Y-100979146D01*
X144758225Y-100920854D01*
X144758971Y-100917715D01*
X144761745Y-100910316D01*
X144768500Y-100848134D01*
X144768500Y-100519924D01*
X144788502Y-100451803D01*
X144805405Y-100430829D01*
X144876829Y-100359405D01*
X144939141Y-100325379D01*
X144965924Y-100322500D01*
X148289157Y-100322500D01*
X148302764Y-100323237D01*
X148334262Y-100326659D01*
X148334267Y-100326659D01*
X148340388Y-100327324D01*
X148366638Y-100325027D01*
X148390388Y-100322950D01*
X148395214Y-100322621D01*
X148397686Y-100322500D01*
X148400769Y-100322500D01*
X148412738Y-100321326D01*
X148443506Y-100318310D01*
X148444819Y-100318188D01*
X148489084Y-100314315D01*
X148537413Y-100310087D01*
X148542532Y-100308600D01*
X148547833Y-100308080D01*
X148636834Y-100281209D01*
X148637967Y-100280874D01*
X148721414Y-100256630D01*
X148721418Y-100256628D01*
X148727336Y-100254909D01*
X148732068Y-100252456D01*
X148737169Y-100250916D01*
X148807593Y-100213472D01*
X148819260Y-100207269D01*
X148820426Y-100206657D01*
X148897453Y-100166729D01*
X148902926Y-100163892D01*
X148907089Y-100160569D01*
X148911796Y-100158066D01*
X148983918Y-100099245D01*
X148984774Y-100098554D01*
X149023973Y-100067262D01*
X149026477Y-100064758D01*
X149027195Y-100064116D01*
X149031528Y-100060415D01*
X149065062Y-100033065D01*
X149094288Y-99997737D01*
X149102277Y-99988958D01*
X149836640Y-99254595D01*
X150642829Y-98448405D01*
X150705141Y-98414380D01*
X150731924Y-98411500D01*
X151510134Y-98411500D01*
X151572316Y-98404745D01*
X151708705Y-98353615D01*
X151824659Y-98266712D01*
X151891163Y-98241865D01*
X151960545Y-98256918D01*
G37*
G04 #@! TD.AperFunction*
G04 #@! TA.AperFunction,Conductor*
G36*
X151960784Y-76805017D02*
G01*
X152007307Y-76858647D01*
X152018722Y-76911009D01*
X152025303Y-95737728D01*
X152005325Y-95805856D01*
X151951685Y-95852367D01*
X151881415Y-95862496D01*
X151823739Y-95838599D01*
X151708705Y-95752385D01*
X151572316Y-95701255D01*
X151516440Y-95695185D01*
X151513531Y-95694869D01*
X151510134Y-95694500D01*
X151020925Y-95694500D01*
X150952804Y-95674498D01*
X150931830Y-95657595D01*
X148838855Y-93564621D01*
X148829753Y-93554478D01*
X148809897Y-93529782D01*
X148806032Y-93524975D01*
X148767578Y-93492708D01*
X148763931Y-93489528D01*
X148762119Y-93487885D01*
X148759925Y-93485691D01*
X148726651Y-93458358D01*
X148725853Y-93457696D01*
X148654526Y-93397846D01*
X148649856Y-93395278D01*
X148645739Y-93391897D01*
X148563914Y-93348023D01*
X148562755Y-93347394D01*
X148486619Y-93305538D01*
X148486611Y-93305535D01*
X148481213Y-93302567D01*
X148476131Y-93300955D01*
X148471437Y-93298438D01*
X148382469Y-93271238D01*
X148381441Y-93270918D01*
X148292694Y-93242765D01*
X148287398Y-93242171D01*
X148282302Y-93240613D01*
X148189743Y-93231210D01*
X148188607Y-93231089D01*
X148154992Y-93227319D01*
X148142270Y-93225892D01*
X148142266Y-93225892D01*
X148138773Y-93225500D01*
X148135246Y-93225500D01*
X148134261Y-93225445D01*
X148128581Y-93224998D01*
X148099175Y-93222011D01*
X148091663Y-93221248D01*
X148091661Y-93221248D01*
X148085538Y-93220626D01*
X148043259Y-93224623D01*
X148039891Y-93224941D01*
X148028033Y-93225500D01*
X145960138Y-93225500D01*
X145892017Y-93205498D01*
X145845524Y-93151842D01*
X145835420Y-93081568D01*
X145864914Y-93016988D01*
X145900985Y-92988248D01*
X145967355Y-92952959D01*
X145972796Y-92950066D01*
X146070601Y-92870298D01*
X146121287Y-92828960D01*
X146121290Y-92828957D01*
X146126062Y-92825065D01*
X146176411Y-92764204D01*
X146248201Y-92677425D01*
X146248203Y-92677421D01*
X146252130Y-92672675D01*
X146346198Y-92498701D01*
X146404682Y-92309768D01*
X146425355Y-92113075D01*
X146407430Y-91916112D01*
X146351590Y-91726381D01*
X146340241Y-91704671D01*
X146262813Y-91556568D01*
X146259960Y-91551110D01*
X146136032Y-91396975D01*
X145984526Y-91269846D01*
X145979128Y-91266879D01*
X145979123Y-91266875D01*
X145832010Y-91186000D01*
X145811213Y-91174567D01*
X145805346Y-91172706D01*
X145805344Y-91172705D01*
X145628564Y-91116627D01*
X145628563Y-91116627D01*
X145622694Y-91114765D01*
X145468773Y-91097500D01*
X145362231Y-91097500D01*
X145359175Y-91097800D01*
X145359168Y-91097800D01*
X145301447Y-91103460D01*
X145215167Y-91111920D01*
X145209266Y-91113702D01*
X145209264Y-91113702D01*
X145141693Y-91134103D01*
X145025831Y-91169084D01*
X145020389Y-91171978D01*
X145020388Y-91171978D01*
X144957654Y-91205334D01*
X144888116Y-91219654D01*
X144821876Y-91194106D01*
X144779963Y-91136802D01*
X144772500Y-91094083D01*
X144772500Y-89106000D01*
X145088693Y-89106000D01*
X145107885Y-89325371D01*
X145164880Y-89538076D01*
X145167205Y-89543061D01*
X145255618Y-89732666D01*
X145255621Y-89732671D01*
X145257944Y-89737653D01*
X145261100Y-89742160D01*
X145261101Y-89742162D01*
X145367410Y-89893986D01*
X145384251Y-89918038D01*
X145539962Y-90073749D01*
X145544471Y-90076906D01*
X145544473Y-90076908D01*
X145617604Y-90128115D01*
X145720346Y-90200056D01*
X145919924Y-90293120D01*
X146132629Y-90350115D01*
X146352000Y-90369307D01*
X146571371Y-90350115D01*
X146784076Y-90293120D01*
X146983654Y-90200056D01*
X147086396Y-90128115D01*
X147159527Y-90076908D01*
X147159529Y-90076906D01*
X147164038Y-90073749D01*
X147319749Y-89918038D01*
X147336591Y-89893986D01*
X147442899Y-89742162D01*
X147442900Y-89742160D01*
X147446056Y-89737653D01*
X147448379Y-89732671D01*
X147448382Y-89732666D01*
X147536795Y-89543061D01*
X147539120Y-89538076D01*
X147596115Y-89325371D01*
X147615307Y-89106000D01*
X148088693Y-89106000D01*
X148107885Y-89325371D01*
X148164880Y-89538076D01*
X148167205Y-89543061D01*
X148255618Y-89732666D01*
X148255621Y-89732671D01*
X148257944Y-89737653D01*
X148261100Y-89742160D01*
X148261101Y-89742162D01*
X148367410Y-89893986D01*
X148384251Y-89918038D01*
X148539962Y-90073749D01*
X148544471Y-90076906D01*
X148544473Y-90076908D01*
X148617604Y-90128115D01*
X148720346Y-90200056D01*
X148919924Y-90293120D01*
X149132629Y-90350115D01*
X149352000Y-90369307D01*
X149571371Y-90350115D01*
X149784076Y-90293120D01*
X149983654Y-90200056D01*
X150086396Y-90128115D01*
X150159527Y-90076908D01*
X150159529Y-90076906D01*
X150164038Y-90073749D01*
X150319749Y-89918038D01*
X150336591Y-89893986D01*
X150442899Y-89742162D01*
X150442900Y-89742160D01*
X150446056Y-89737653D01*
X150448379Y-89732671D01*
X150448382Y-89732666D01*
X150536795Y-89543061D01*
X150539120Y-89538076D01*
X150596115Y-89325371D01*
X150615307Y-89106000D01*
X150596115Y-88886629D01*
X150539120Y-88673924D01*
X150486274Y-88560595D01*
X150448382Y-88479334D01*
X150448379Y-88479329D01*
X150446056Y-88474347D01*
X150429358Y-88450500D01*
X150322908Y-88298473D01*
X150322906Y-88298470D01*
X150319749Y-88293962D01*
X150164038Y-88138251D01*
X149983654Y-88011944D01*
X149784076Y-87918880D01*
X149571371Y-87861885D01*
X149352000Y-87842693D01*
X149132629Y-87861885D01*
X148919924Y-87918880D01*
X148826562Y-87962415D01*
X148725334Y-88009618D01*
X148725329Y-88009621D01*
X148720347Y-88011944D01*
X148715840Y-88015100D01*
X148715838Y-88015101D01*
X148544473Y-88135092D01*
X148544470Y-88135094D01*
X148539962Y-88138251D01*
X148384251Y-88293962D01*
X148381094Y-88298470D01*
X148381092Y-88298473D01*
X148274642Y-88450500D01*
X148257944Y-88474347D01*
X148255621Y-88479329D01*
X148255618Y-88479334D01*
X148217726Y-88560595D01*
X148164880Y-88673924D01*
X148107885Y-88886629D01*
X148088693Y-89106000D01*
X147615307Y-89106000D01*
X147596115Y-88886629D01*
X147539120Y-88673924D01*
X147486274Y-88560595D01*
X147448382Y-88479334D01*
X147448379Y-88479329D01*
X147446056Y-88474347D01*
X147429358Y-88450500D01*
X147322908Y-88298473D01*
X147322906Y-88298470D01*
X147319749Y-88293962D01*
X147164038Y-88138251D01*
X146983654Y-88011944D01*
X146784076Y-87918880D01*
X146571371Y-87861885D01*
X146352000Y-87842693D01*
X146132629Y-87861885D01*
X145919924Y-87918880D01*
X145826562Y-87962415D01*
X145725334Y-88009618D01*
X145725329Y-88009621D01*
X145720347Y-88011944D01*
X145715840Y-88015100D01*
X145715838Y-88015101D01*
X145544473Y-88135092D01*
X145544470Y-88135094D01*
X145539962Y-88138251D01*
X145384251Y-88293962D01*
X145381094Y-88298470D01*
X145381092Y-88298473D01*
X145274642Y-88450500D01*
X145257944Y-88474347D01*
X145255621Y-88479329D01*
X145255618Y-88479334D01*
X145217726Y-88560595D01*
X145164880Y-88673924D01*
X145107885Y-88886629D01*
X145088693Y-89106000D01*
X144772500Y-89106000D01*
X144772500Y-88961850D01*
X144773237Y-88948242D01*
X144776659Y-88916739D01*
X144777325Y-88910612D01*
X144772947Y-88860570D01*
X144772621Y-88855788D01*
X144772500Y-88853310D01*
X144772500Y-88850231D01*
X144772201Y-88847177D01*
X144772200Y-88847166D01*
X144768313Y-88807529D01*
X144768191Y-88806215D01*
X144760623Y-88719718D01*
X144760087Y-88713587D01*
X144758600Y-88708468D01*
X144758080Y-88703167D01*
X144731209Y-88614166D01*
X144730874Y-88613033D01*
X144706630Y-88529586D01*
X144706628Y-88529582D01*
X144704909Y-88523664D01*
X144702456Y-88518932D01*
X144700916Y-88513831D01*
X144677525Y-88469838D01*
X144657269Y-88431740D01*
X144656657Y-88430574D01*
X144616729Y-88353547D01*
X144613892Y-88348074D01*
X144610569Y-88343911D01*
X144608066Y-88339204D01*
X144571168Y-88293962D01*
X144549261Y-88267102D01*
X144548433Y-88266075D01*
X144519469Y-88229792D01*
X144519464Y-88229787D01*
X144517262Y-88227028D01*
X144514761Y-88224527D01*
X144514119Y-88223809D01*
X144510406Y-88219461D01*
X144502642Y-88209941D01*
X144483065Y-88185938D01*
X144478323Y-88182015D01*
X144478321Y-88182013D01*
X144447727Y-88156703D01*
X144438947Y-88148713D01*
X143031405Y-86741171D01*
X142997379Y-86678859D01*
X142994500Y-86652076D01*
X142994500Y-86106000D01*
X145088693Y-86106000D01*
X145107885Y-86325371D01*
X145164880Y-86538076D01*
X145190349Y-86592695D01*
X145255618Y-86732666D01*
X145255621Y-86732671D01*
X145257944Y-86737653D01*
X145261100Y-86742160D01*
X145261101Y-86742162D01*
X145350098Y-86869262D01*
X145384251Y-86918038D01*
X145539962Y-87073749D01*
X145544471Y-87076906D01*
X145544473Y-87076908D01*
X145619241Y-87129261D01*
X145720346Y-87200056D01*
X145919924Y-87293120D01*
X146132629Y-87350115D01*
X146352000Y-87369307D01*
X146571371Y-87350115D01*
X146784076Y-87293120D01*
X146983654Y-87200056D01*
X147084759Y-87129261D01*
X147159527Y-87076908D01*
X147159529Y-87076906D01*
X147164038Y-87073749D01*
X147319749Y-86918038D01*
X147353903Y-86869262D01*
X147442899Y-86742162D01*
X147442900Y-86742160D01*
X147446056Y-86737653D01*
X147448379Y-86732671D01*
X147448382Y-86732666D01*
X147483945Y-86656400D01*
X148093500Y-86656400D01*
X148093837Y-86659646D01*
X148093837Y-86659650D01*
X148103258Y-86750444D01*
X148104474Y-86762165D01*
X148106655Y-86768701D01*
X148106655Y-86768703D01*
X148142522Y-86876209D01*
X148160450Y-86929945D01*
X148253522Y-87080348D01*
X148378697Y-87205305D01*
X148384927Y-87209145D01*
X148384928Y-87209146D01*
X148522090Y-87293694D01*
X148529262Y-87298115D01*
X148609005Y-87324564D01*
X148690611Y-87351632D01*
X148690613Y-87351632D01*
X148697139Y-87353797D01*
X148703975Y-87354497D01*
X148703978Y-87354498D01*
X148747031Y-87358909D01*
X148801600Y-87364500D01*
X149902400Y-87364500D01*
X149905646Y-87364163D01*
X149905650Y-87364163D01*
X150001307Y-87354238D01*
X150001311Y-87354237D01*
X150008165Y-87353526D01*
X150014701Y-87351345D01*
X150014703Y-87351345D01*
X150164657Y-87301316D01*
X150175945Y-87297550D01*
X150326348Y-87204478D01*
X150451305Y-87079303D01*
X150457131Y-87069852D01*
X150540275Y-86934968D01*
X150540276Y-86934966D01*
X150544115Y-86928738D01*
X150599797Y-86760861D01*
X150600865Y-86750444D01*
X150610172Y-86659598D01*
X150610500Y-86656400D01*
X150610500Y-85555600D01*
X150602587Y-85479334D01*
X150600238Y-85456693D01*
X150600237Y-85456689D01*
X150599526Y-85449835D01*
X150585995Y-85409276D01*
X150547806Y-85294811D01*
X150543550Y-85282055D01*
X150450478Y-85131652D01*
X150325303Y-85006695D01*
X150275966Y-84976283D01*
X150180968Y-84917725D01*
X150180966Y-84917724D01*
X150174738Y-84913885D01*
X150073274Y-84880231D01*
X150013389Y-84860368D01*
X150013387Y-84860368D01*
X150006861Y-84858203D01*
X150000025Y-84857503D01*
X150000022Y-84857502D01*
X149956969Y-84853091D01*
X149902400Y-84847500D01*
X148801600Y-84847500D01*
X148798354Y-84847837D01*
X148798350Y-84847837D01*
X148702693Y-84857762D01*
X148702689Y-84857763D01*
X148695835Y-84858474D01*
X148689299Y-84860655D01*
X148689297Y-84860655D01*
X148561511Y-84903288D01*
X148528055Y-84914450D01*
X148377652Y-85007522D01*
X148252695Y-85132697D01*
X148159885Y-85283262D01*
X148154840Y-85298473D01*
X148111132Y-85430250D01*
X148104203Y-85451139D01*
X148093500Y-85555600D01*
X148093500Y-86656400D01*
X147483945Y-86656400D01*
X147513651Y-86592695D01*
X147539120Y-86538076D01*
X147596115Y-86325371D01*
X147615307Y-86106000D01*
X147596115Y-85886629D01*
X147539120Y-85673924D01*
X147457259Y-85498371D01*
X147448382Y-85479334D01*
X147448379Y-85479329D01*
X147446056Y-85474347D01*
X147442899Y-85469838D01*
X147322908Y-85298473D01*
X147322906Y-85298470D01*
X147319749Y-85293962D01*
X147164038Y-85138251D01*
X147156107Y-85132697D01*
X147084759Y-85082739D01*
X146983654Y-85011944D01*
X146784076Y-84918880D01*
X146571371Y-84861885D01*
X146352000Y-84842693D01*
X146132629Y-84861885D01*
X145919924Y-84918880D01*
X145859039Y-84947271D01*
X145725334Y-85009618D01*
X145725329Y-85009621D01*
X145720347Y-85011944D01*
X145715840Y-85015100D01*
X145715838Y-85015101D01*
X145544473Y-85135092D01*
X145544470Y-85135094D01*
X145539962Y-85138251D01*
X145384251Y-85293962D01*
X145381094Y-85298470D01*
X145381092Y-85298473D01*
X145261101Y-85469838D01*
X145257944Y-85474347D01*
X145255621Y-85479329D01*
X145255618Y-85479334D01*
X145246741Y-85498371D01*
X145164880Y-85673924D01*
X145107885Y-85886629D01*
X145088693Y-86106000D01*
X142994500Y-86106000D01*
X142994500Y-83373840D01*
X142995237Y-83360232D01*
X142998659Y-83328736D01*
X142998659Y-83328732D01*
X142999324Y-83322611D01*
X142994950Y-83272609D01*
X142994621Y-83267784D01*
X142994500Y-83265313D01*
X142994500Y-83262231D01*
X142990309Y-83219489D01*
X142990187Y-83218174D01*
X142982623Y-83131719D01*
X142982087Y-83125587D01*
X142980600Y-83120468D01*
X142980080Y-83115167D01*
X142975176Y-83098925D01*
X144398645Y-83098925D01*
X144416570Y-83295888D01*
X144418308Y-83301794D01*
X144418309Y-83301798D01*
X144435507Y-83360232D01*
X144472410Y-83485619D01*
X144475263Y-83491077D01*
X144475265Y-83491081D01*
X144491309Y-83521769D01*
X144564040Y-83660890D01*
X144687968Y-83815025D01*
X144692692Y-83818989D01*
X144699933Y-83825065D01*
X144839474Y-83942154D01*
X144844872Y-83945121D01*
X144844877Y-83945125D01*
X144988180Y-84023905D01*
X145012787Y-84037433D01*
X145018654Y-84039294D01*
X145018656Y-84039295D01*
X145195436Y-84095373D01*
X145201306Y-84097235D01*
X145355227Y-84114500D01*
X145461769Y-84114500D01*
X145464825Y-84114200D01*
X145464832Y-84114200D01*
X145523340Y-84108463D01*
X145608833Y-84100080D01*
X145614734Y-84098298D01*
X145614736Y-84098298D01*
X145688053Y-84076162D01*
X145798169Y-84042916D01*
X145972796Y-83950066D01*
X146059062Y-83879709D01*
X146121287Y-83828960D01*
X146121290Y-83828957D01*
X146126062Y-83825065D01*
X146219735Y-83711834D01*
X146248201Y-83677425D01*
X146248203Y-83677421D01*
X146252130Y-83672675D01*
X146346198Y-83498701D01*
X146404682Y-83309768D01*
X146414309Y-83218174D01*
X146424711Y-83119204D01*
X146424711Y-83119202D01*
X146425355Y-83113075D01*
X146416425Y-83014953D01*
X146407989Y-82922251D01*
X146407988Y-82922248D01*
X146407430Y-82916112D01*
X146351590Y-82726381D01*
X146341919Y-82707881D01*
X146275546Y-82580923D01*
X146259960Y-82551110D01*
X146136032Y-82396975D01*
X146129727Y-82391684D01*
X146104700Y-82370684D01*
X145984526Y-82269846D01*
X145979128Y-82266879D01*
X145979123Y-82266875D01*
X145816608Y-82177533D01*
X145816609Y-82177533D01*
X145811213Y-82174567D01*
X145805346Y-82172706D01*
X145805344Y-82172705D01*
X145628564Y-82116627D01*
X145628563Y-82116627D01*
X145622694Y-82114765D01*
X145468773Y-82097500D01*
X145362231Y-82097500D01*
X145359175Y-82097800D01*
X145359168Y-82097800D01*
X145300660Y-82103537D01*
X145215167Y-82111920D01*
X145209266Y-82113702D01*
X145209264Y-82113702D01*
X145155982Y-82129789D01*
X145025831Y-82169084D01*
X144851204Y-82261934D01*
X144776849Y-82322577D01*
X144702713Y-82383040D01*
X144702710Y-82383043D01*
X144697938Y-82386935D01*
X144694011Y-82391682D01*
X144694009Y-82391684D01*
X144575799Y-82534575D01*
X144575797Y-82534579D01*
X144571870Y-82539325D01*
X144477802Y-82713299D01*
X144419318Y-82902232D01*
X144418674Y-82908357D01*
X144418674Y-82908358D01*
X144405266Y-83035934D01*
X144398645Y-83098925D01*
X142975176Y-83098925D01*
X142953199Y-83026133D01*
X142952864Y-83025000D01*
X142928627Y-82941578D01*
X142928625Y-82941574D01*
X142926908Y-82935663D01*
X142924457Y-82930934D01*
X142922916Y-82925831D01*
X142879230Y-82843669D01*
X142878683Y-82842627D01*
X142838728Y-82765545D01*
X142838727Y-82765544D01*
X142835892Y-82760074D01*
X142832569Y-82755911D01*
X142830066Y-82751204D01*
X142771263Y-82679105D01*
X142770500Y-82678160D01*
X142739261Y-82639027D01*
X142736770Y-82636536D01*
X142736120Y-82635809D01*
X142732408Y-82631463D01*
X142708955Y-82602708D01*
X142705065Y-82597938D01*
X142700323Y-82594015D01*
X142700321Y-82594013D01*
X142669727Y-82568703D01*
X142660947Y-82560713D01*
X142195829Y-82095595D01*
X142161803Y-82033283D01*
X142166868Y-81962468D01*
X142209415Y-81905632D01*
X142275935Y-81880821D01*
X142284924Y-81880500D01*
X142740400Y-81880500D01*
X142743646Y-81880163D01*
X142743650Y-81880163D01*
X142839308Y-81870238D01*
X142839312Y-81870237D01*
X142846166Y-81869526D01*
X142852702Y-81867345D01*
X142852704Y-81867345D01*
X143006998Y-81815868D01*
X143013946Y-81813550D01*
X143164348Y-81720478D01*
X143289305Y-81595303D01*
X143324509Y-81538192D01*
X143378275Y-81450968D01*
X143378276Y-81450966D01*
X143382115Y-81444738D01*
X143437797Y-81276861D01*
X143448500Y-81172400D01*
X143448500Y-80371600D01*
X143448163Y-80368350D01*
X143438238Y-80272692D01*
X143438237Y-80272688D01*
X143437526Y-80265834D01*
X143404406Y-80166560D01*
X143388510Y-80118916D01*
X143381550Y-80098054D01*
X143288478Y-79947652D01*
X143201891Y-79861216D01*
X143167812Y-79798934D01*
X143172815Y-79728114D01*
X143201736Y-79683025D01*
X143284134Y-79600483D01*
X143289305Y-79595303D01*
X143338568Y-79515384D01*
X143391340Y-79467891D01*
X143445828Y-79455500D01*
X143904426Y-79455500D01*
X143970542Y-79474240D01*
X144003671Y-79494661D01*
X144010619Y-79496966D01*
X144010620Y-79496966D01*
X144163634Y-79547719D01*
X144163636Y-79547719D01*
X144170165Y-79549885D01*
X144273769Y-79560500D01*
X144776096Y-79560500D01*
X145286230Y-79560499D01*
X145391129Y-79549616D01*
X145397660Y-79547437D01*
X145397665Y-79547436D01*
X145550578Y-79496420D01*
X145557526Y-79494102D01*
X145706689Y-79401797D01*
X145830617Y-79277653D01*
X145922661Y-79128329D01*
X145977885Y-78961835D01*
X145988500Y-78858231D01*
X145988499Y-78270770D01*
X145977616Y-78165871D01*
X145975437Y-78159340D01*
X145975436Y-78159335D01*
X145924420Y-78006422D01*
X145922102Y-77999474D01*
X145829797Y-77850311D01*
X145705653Y-77726383D01*
X145556329Y-77634339D01*
X145549380Y-77632034D01*
X145396366Y-77581281D01*
X145396364Y-77581281D01*
X145389835Y-77579115D01*
X145286231Y-77568500D01*
X144783904Y-77568500D01*
X144273770Y-77568501D01*
X144168871Y-77579384D01*
X144162340Y-77581563D01*
X144162335Y-77581564D01*
X144025101Y-77627349D01*
X144002474Y-77634898D01*
X143853311Y-77727203D01*
X143729383Y-77851347D01*
X143637339Y-78000671D01*
X143635034Y-78007621D01*
X143631941Y-78014253D01*
X143629323Y-78013032D01*
X143596384Y-78060549D01*
X143530812Y-78087768D01*
X143517249Y-78088500D01*
X143445840Y-78088500D01*
X143377719Y-78068498D01*
X143338696Y-78028803D01*
X143292332Y-77953880D01*
X143288478Y-77947652D01*
X143163303Y-77822695D01*
X143043401Y-77748786D01*
X143018968Y-77733725D01*
X143018966Y-77733724D01*
X143012738Y-77729885D01*
X142852254Y-77676655D01*
X142851389Y-77676368D01*
X142851387Y-77676368D01*
X142844861Y-77674203D01*
X142838025Y-77673503D01*
X142838022Y-77673502D01*
X142794969Y-77669091D01*
X142740400Y-77663500D01*
X141739600Y-77663500D01*
X141736354Y-77663837D01*
X141736350Y-77663837D01*
X141640692Y-77673762D01*
X141640688Y-77673763D01*
X141633834Y-77674474D01*
X141627298Y-77676655D01*
X141627296Y-77676655D01*
X141495899Y-77720493D01*
X141466054Y-77730450D01*
X141315652Y-77823522D01*
X141310479Y-77828704D01*
X141281655Y-77857578D01*
X141190695Y-77948697D01*
X141186855Y-77954927D01*
X141186854Y-77954928D01*
X141140157Y-78030685D01*
X141097885Y-78099262D01*
X141073150Y-78173837D01*
X141057711Y-78220385D01*
X141042203Y-78267139D01*
X141041503Y-78273975D01*
X141041502Y-78273978D01*
X141037524Y-78312805D01*
X141031500Y-78371600D01*
X141031500Y-79172400D01*
X141042474Y-79278166D01*
X141098450Y-79445946D01*
X141191522Y-79596348D01*
X141196704Y-79601521D01*
X141278109Y-79682784D01*
X141312188Y-79745066D01*
X141307185Y-79815886D01*
X141278264Y-79860975D01*
X141241132Y-79898172D01*
X141178850Y-79932251D01*
X141108030Y-79927248D01*
X141062864Y-79898249D01*
X139822156Y-78657541D01*
X139816302Y-78651276D01*
X139784704Y-78615055D01*
X139779710Y-78609330D01*
X139729345Y-78573934D01*
X139724077Y-78570020D01*
X139675672Y-78532065D01*
X139668748Y-78528939D01*
X139664439Y-78526329D01*
X139655024Y-78520958D01*
X139650576Y-78518573D01*
X139644361Y-78514205D01*
X139587039Y-78491856D01*
X139580971Y-78489306D01*
X139524895Y-78463986D01*
X139517418Y-78462600D01*
X139512598Y-78461090D01*
X139502165Y-78458118D01*
X139497304Y-78456870D01*
X139490228Y-78454111D01*
X139429238Y-78446082D01*
X139422722Y-78445050D01*
X139381986Y-78437500D01*
X139362233Y-78433839D01*
X139354652Y-78434276D01*
X139354651Y-78434276D01*
X139316192Y-78436493D01*
X139247033Y-78420445D01*
X139208115Y-78386267D01*
X139154643Y-78314920D01*
X139154642Y-78314919D01*
X139149261Y-78307739D01*
X139032705Y-78220385D01*
X138896316Y-78169255D01*
X138834134Y-78162500D01*
X136737866Y-78162500D01*
X136675684Y-78169255D01*
X136539295Y-78220385D01*
X136422739Y-78307739D01*
X136335385Y-78424295D01*
X136284255Y-78560684D01*
X136277500Y-78622866D01*
X136277500Y-79619134D01*
X136284255Y-79681316D01*
X136295672Y-79711771D01*
X136300855Y-79782577D01*
X136295674Y-79800224D01*
X136284255Y-79830684D01*
X136277500Y-79892866D01*
X136277500Y-80889134D01*
X136284255Y-80951316D01*
X136295672Y-80981771D01*
X136300855Y-81052577D01*
X136295674Y-81070224D01*
X136284255Y-81100684D01*
X136280898Y-81131588D01*
X136278019Y-81158093D01*
X136277500Y-81162866D01*
X136277500Y-82159134D01*
X136284255Y-82221316D01*
X136295672Y-82251771D01*
X136300855Y-82322577D01*
X136295674Y-82340224D01*
X136284255Y-82370684D01*
X136277500Y-82432866D01*
X136277500Y-83429134D01*
X136284255Y-83491316D01*
X136295672Y-83521771D01*
X136300855Y-83592577D01*
X136295674Y-83610224D01*
X136284255Y-83640684D01*
X136277500Y-83702866D01*
X136277500Y-84699134D01*
X136284255Y-84761316D01*
X136295672Y-84791771D01*
X136300855Y-84862577D01*
X136295674Y-84880224D01*
X136284255Y-84910684D01*
X136277500Y-84972866D01*
X136277500Y-85969134D01*
X136284255Y-86031316D01*
X136295672Y-86061771D01*
X136300855Y-86132577D01*
X136295674Y-86150224D01*
X136284255Y-86180684D01*
X136277500Y-86242866D01*
X136277500Y-87239134D01*
X136284255Y-87301316D01*
X136295672Y-87331771D01*
X136300855Y-87402577D01*
X136295674Y-87420224D01*
X136284255Y-87450684D01*
X136277500Y-87512866D01*
X136277500Y-88509134D01*
X136284255Y-88571316D01*
X136295672Y-88601771D01*
X136300855Y-88672577D01*
X136295674Y-88690224D01*
X136284255Y-88720684D01*
X136283402Y-88728535D01*
X136283401Y-88728540D01*
X136278268Y-88775797D01*
X136251026Y-88841359D01*
X136242100Y-88851285D01*
X134664541Y-90428844D01*
X134658276Y-90434698D01*
X134616330Y-90471290D01*
X134580934Y-90521655D01*
X134577022Y-90526920D01*
X134539065Y-90575328D01*
X134535939Y-90582252D01*
X134533329Y-90586561D01*
X134527958Y-90595976D01*
X134525573Y-90600424D01*
X134521205Y-90606639D01*
X134518446Y-90613716D01*
X134498858Y-90663957D01*
X134496306Y-90670029D01*
X134470986Y-90726105D01*
X134469600Y-90733582D01*
X134468090Y-90738402D01*
X134465118Y-90748835D01*
X134463870Y-90753696D01*
X134461111Y-90760772D01*
X134460120Y-90768302D01*
X134453082Y-90821762D01*
X134452050Y-90828278D01*
X134440839Y-90888767D01*
X134441276Y-90896347D01*
X134441276Y-90896348D01*
X134444291Y-90948642D01*
X134444500Y-90955894D01*
X134444500Y-93260933D01*
X134444208Y-93269502D01*
X134441923Y-93303029D01*
X134440424Y-93325012D01*
X134441729Y-93332488D01*
X134441729Y-93332492D01*
X134451002Y-93385624D01*
X134451965Y-93392148D01*
X134459355Y-93453213D01*
X134462041Y-93460323D01*
X134463246Y-93465226D01*
X134466114Y-93475712D01*
X134467561Y-93480504D01*
X134468866Y-93487982D01*
X134471918Y-93494934D01*
X134471918Y-93494935D01*
X134493595Y-93544319D01*
X134496086Y-93550424D01*
X134511998Y-93592531D01*
X134517831Y-93607967D01*
X134522131Y-93614224D01*
X134524467Y-93618692D01*
X134529725Y-93628138D01*
X134532307Y-93632504D01*
X134535362Y-93639463D01*
X134544457Y-93651316D01*
X134547347Y-93655082D01*
X134572948Y-93721302D01*
X134558684Y-93790851D01*
X134509083Y-93841647D01*
X134460991Y-93857049D01*
X134448541Y-93858401D01*
X134448537Y-93858402D01*
X134440684Y-93859255D01*
X134410229Y-93870672D01*
X134339423Y-93875855D01*
X134321776Y-93870674D01*
X134291316Y-93859255D01*
X134229134Y-93852500D01*
X133232866Y-93852500D01*
X133170684Y-93859255D01*
X133140229Y-93870672D01*
X133069423Y-93875855D01*
X133051776Y-93870674D01*
X133021316Y-93859255D01*
X132959134Y-93852500D01*
X131962866Y-93852500D01*
X131900684Y-93859255D01*
X131870229Y-93870672D01*
X131799423Y-93875855D01*
X131781776Y-93870674D01*
X131751316Y-93859255D01*
X131689134Y-93852500D01*
X130692866Y-93852500D01*
X130630684Y-93859255D01*
X130600229Y-93870672D01*
X130529423Y-93875855D01*
X130511776Y-93870674D01*
X130481316Y-93859255D01*
X130419134Y-93852500D01*
X129422866Y-93852500D01*
X129360684Y-93859255D01*
X129330229Y-93870672D01*
X129259423Y-93875855D01*
X129241776Y-93870674D01*
X129211316Y-93859255D01*
X129149134Y-93852500D01*
X128152866Y-93852500D01*
X128090684Y-93859255D01*
X128060229Y-93870672D01*
X127989423Y-93875855D01*
X127971776Y-93870674D01*
X127941316Y-93859255D01*
X127879134Y-93852500D01*
X126882866Y-93852500D01*
X126820684Y-93859255D01*
X126790229Y-93870672D01*
X126719423Y-93875855D01*
X126701776Y-93870674D01*
X126671316Y-93859255D01*
X126609134Y-93852500D01*
X125612866Y-93852500D01*
X125550684Y-93859255D01*
X125520229Y-93870672D01*
X125449423Y-93875855D01*
X125431776Y-93870674D01*
X125401316Y-93859255D01*
X125339134Y-93852500D01*
X124342866Y-93852500D01*
X124280684Y-93859255D01*
X124144295Y-93910385D01*
X124027739Y-93997739D01*
X123940385Y-94114295D01*
X123889255Y-94250684D01*
X123882500Y-94312866D01*
X123882500Y-96409134D01*
X123889255Y-96471316D01*
X123940385Y-96607705D01*
X124027739Y-96724261D01*
X124034919Y-96729642D01*
X124137113Y-96806233D01*
X124137116Y-96806235D01*
X124144295Y-96811615D01*
X124152697Y-96814765D01*
X124160574Y-96819077D01*
X124159362Y-96821290D01*
X124205426Y-96855890D01*
X124212155Y-96865870D01*
X124235491Y-96904328D01*
X124235495Y-96904333D01*
X124238405Y-96909129D01*
X124242121Y-96913337D01*
X124242122Y-96913338D01*
X124245803Y-96917506D01*
X124245776Y-96917530D01*
X124248429Y-96920522D01*
X124251132Y-96923755D01*
X124255144Y-96929874D01*
X124260456Y-96934906D01*
X124311383Y-96983150D01*
X124313825Y-96985528D01*
X124652702Y-97324405D01*
X124686728Y-97386717D01*
X124681663Y-97457532D01*
X124639116Y-97514368D01*
X124572596Y-97539179D01*
X124563607Y-97539500D01*
X124525349Y-97539500D01*
X124457228Y-97519498D01*
X124436254Y-97502595D01*
X123223405Y-96289746D01*
X123189379Y-96227434D01*
X123186500Y-96200651D01*
X123186500Y-93721047D01*
X123187933Y-93702096D01*
X123190099Y-93687861D01*
X123190099Y-93687859D01*
X123191199Y-93680629D01*
X123189417Y-93658712D01*
X123186915Y-93627960D01*
X123186500Y-93617745D01*
X123186500Y-93609685D01*
X123183211Y-93581471D01*
X123182778Y-93577096D01*
X123177454Y-93511639D01*
X123177453Y-93511636D01*
X123176860Y-93504341D01*
X123174604Y-93497377D01*
X123173413Y-93491418D01*
X123172029Y-93485563D01*
X123171182Y-93478297D01*
X123146265Y-93409651D01*
X123144848Y-93405523D01*
X123124607Y-93343042D01*
X123124606Y-93343040D01*
X123122351Y-93336079D01*
X123118555Y-93329824D01*
X123116049Y-93324350D01*
X123113330Y-93318920D01*
X123110833Y-93312041D01*
X123106820Y-93305920D01*
X123070814Y-93251002D01*
X123068467Y-93247283D01*
X123030595Y-93184871D01*
X123023197Y-93176494D01*
X123023224Y-93176470D01*
X123020571Y-93173478D01*
X123017868Y-93170245D01*
X123013856Y-93164126D01*
X122957617Y-93110850D01*
X122955175Y-93108472D01*
X122448792Y-92602089D01*
X122436406Y-92587677D01*
X122427873Y-92576082D01*
X122427868Y-92576077D01*
X122423530Y-92570182D01*
X122417952Y-92565443D01*
X122417949Y-92565440D01*
X122383254Y-92535965D01*
X122375738Y-92529035D01*
X122370043Y-92523340D01*
X122363902Y-92518482D01*
X122347771Y-92505719D01*
X122344364Y-92502926D01*
X122331230Y-92491767D01*
X122292268Y-92432417D01*
X122290690Y-92381636D01*
X122287745Y-92381316D01*
X122294131Y-92322531D01*
X122294500Y-92319134D01*
X122294500Y-91322866D01*
X122289171Y-91273813D01*
X122288598Y-91268534D01*
X122288598Y-91268532D01*
X122287745Y-91260684D01*
X122287355Y-91259643D01*
X122290899Y-91191747D01*
X122332345Y-91134103D01*
X122398375Y-91108017D01*
X122409780Y-91107500D01*
X133067955Y-91107500D01*
X133076524Y-91107792D01*
X133124458Y-91111060D01*
X133124462Y-91111060D01*
X133132034Y-91111576D01*
X133139511Y-91110271D01*
X133139514Y-91110271D01*
X133192647Y-91100998D01*
X133199171Y-91100035D01*
X133252691Y-91093558D01*
X133260235Y-91092645D01*
X133267345Y-91089958D01*
X133272248Y-91088754D01*
X133282734Y-91085886D01*
X133287526Y-91084439D01*
X133295004Y-91083134D01*
X133301957Y-91080082D01*
X133351341Y-91058405D01*
X133357446Y-91055914D01*
X133407882Y-91036855D01*
X133407885Y-91036853D01*
X133414989Y-91034169D01*
X133421246Y-91029869D01*
X133425714Y-91027533D01*
X133435160Y-91022275D01*
X133439526Y-91019693D01*
X133446485Y-91016638D01*
X133495304Y-90979177D01*
X133500623Y-90975314D01*
X133545065Y-90944769D01*
X133551326Y-90940466D01*
X133591233Y-90895676D01*
X133596213Y-90890402D01*
X135083459Y-89403156D01*
X135089724Y-89397302D01*
X135125945Y-89365704D01*
X135131670Y-89360710D01*
X135167046Y-89310374D01*
X135170972Y-89305088D01*
X135204251Y-89262646D01*
X135204252Y-89262645D01*
X135208935Y-89256672D01*
X135212060Y-89249751D01*
X135214673Y-89245436D01*
X135220042Y-89236024D01*
X135222427Y-89231576D01*
X135226795Y-89225361D01*
X135249142Y-89168044D01*
X135251697Y-89161966D01*
X135273886Y-89112823D01*
X135277014Y-89105896D01*
X135278399Y-89098424D01*
X135279919Y-89093573D01*
X135282862Y-89083243D01*
X135284130Y-89078304D01*
X135286889Y-89071228D01*
X135294922Y-89010215D01*
X135295953Y-89003703D01*
X135307160Y-88943233D01*
X135303709Y-88883375D01*
X135303500Y-88876123D01*
X135303500Y-85228994D01*
X135323502Y-85160873D01*
X135335865Y-85144683D01*
X135354617Y-85123857D01*
X135354620Y-85123853D01*
X135359040Y-85118944D01*
X135441406Y-84976283D01*
X135451223Y-84959279D01*
X135451224Y-84959278D01*
X135454527Y-84953556D01*
X135513542Y-84771928D01*
X135514658Y-84761316D01*
X135532814Y-84588565D01*
X135533504Y-84582000D01*
X135515770Y-84413269D01*
X135514232Y-84398635D01*
X135514232Y-84398633D01*
X135513542Y-84392072D01*
X135454527Y-84210444D01*
X135359040Y-84045056D01*
X135231253Y-83903134D01*
X135076752Y-83790882D01*
X135070724Y-83788198D01*
X135070722Y-83788197D01*
X134908319Y-83715891D01*
X134908318Y-83715891D01*
X134902288Y-83713206D01*
X134808888Y-83693353D01*
X134721944Y-83674872D01*
X134721939Y-83674872D01*
X134715487Y-83673500D01*
X134524513Y-83673500D01*
X134518061Y-83674872D01*
X134518056Y-83674872D01*
X134431112Y-83693353D01*
X134337712Y-83713206D01*
X134331682Y-83715891D01*
X134331681Y-83715891D01*
X134169278Y-83788197D01*
X134169276Y-83788198D01*
X134163248Y-83790882D01*
X134008747Y-83903134D01*
X133880960Y-84045056D01*
X133785473Y-84210444D01*
X133726458Y-84392072D01*
X133725768Y-84398633D01*
X133725768Y-84398635D01*
X133724230Y-84413269D01*
X133706496Y-84582000D01*
X133707186Y-84588565D01*
X133725343Y-84761316D01*
X133726458Y-84771928D01*
X133785473Y-84953556D01*
X133788776Y-84959278D01*
X133788777Y-84959279D01*
X133798594Y-84976283D01*
X133880960Y-85118944D01*
X133885380Y-85123853D01*
X133885383Y-85123857D01*
X133904135Y-85144683D01*
X133934853Y-85208690D01*
X133936500Y-85228994D01*
X133936500Y-86108281D01*
X133916498Y-86176402D01*
X133862842Y-86222895D01*
X133792568Y-86232999D01*
X133784303Y-86231528D01*
X133705944Y-86214872D01*
X133705939Y-86214872D01*
X133699487Y-86213500D01*
X133508513Y-86213500D01*
X133502061Y-86214872D01*
X133502056Y-86214872D01*
X133423698Y-86231528D01*
X133321712Y-86253206D01*
X133315682Y-86255891D01*
X133315681Y-86255891D01*
X133153278Y-86328197D01*
X133153276Y-86328198D01*
X133147248Y-86330882D01*
X132992747Y-86443134D01*
X132988326Y-86448044D01*
X132988325Y-86448045D01*
X132913358Y-86531305D01*
X132864960Y-86585056D01*
X132821923Y-86659598D01*
X132774255Y-86742162D01*
X132769473Y-86750444D01*
X132710458Y-86932072D01*
X132709768Y-86938633D01*
X132709768Y-86938635D01*
X132701398Y-87018277D01*
X132674385Y-87083934D01*
X132665183Y-87094202D01*
X131198790Y-88560595D01*
X131136478Y-88594621D01*
X131109695Y-88597500D01*
X122420500Y-88597500D01*
X122352379Y-88577498D01*
X122305886Y-88523842D01*
X122294500Y-88471500D01*
X122294500Y-87512866D01*
X122287745Y-87450684D01*
X122276328Y-87420229D01*
X122271145Y-87349423D01*
X122276326Y-87331776D01*
X122287745Y-87301316D01*
X122294500Y-87239134D01*
X122294500Y-86242866D01*
X122287745Y-86180684D01*
X122276328Y-86150229D01*
X122271145Y-86079423D01*
X122276326Y-86061776D01*
X122287745Y-86031316D01*
X122294500Y-85969134D01*
X122294500Y-84972866D01*
X122287745Y-84910684D01*
X122276328Y-84880229D01*
X122271145Y-84809423D01*
X122276326Y-84791776D01*
X122287745Y-84761316D01*
X122294500Y-84699134D01*
X122294500Y-83702866D01*
X122287745Y-83640684D01*
X122276328Y-83610229D01*
X122271145Y-83539423D01*
X122276326Y-83521776D01*
X122287745Y-83491316D01*
X122294500Y-83429134D01*
X122294500Y-82432866D01*
X122287745Y-82370684D01*
X122276328Y-82340229D01*
X122271145Y-82269423D01*
X122276326Y-82251776D01*
X122287745Y-82221316D01*
X122294500Y-82159134D01*
X122294500Y-81162866D01*
X122293982Y-81158093D01*
X122291102Y-81131588D01*
X122287745Y-81100684D01*
X122276328Y-81070229D01*
X122271145Y-80999423D01*
X122276326Y-80981776D01*
X122287745Y-80951316D01*
X122294500Y-80889134D01*
X122294500Y-80234681D01*
X122314502Y-80166560D01*
X122362355Y-80122899D01*
X122362870Y-80122632D01*
X122368443Y-80120041D01*
X122372169Y-80118916D01*
X122423123Y-80091824D01*
X122454260Y-80075269D01*
X122455426Y-80074657D01*
X122532453Y-80034729D01*
X122537926Y-80031892D01*
X122542089Y-80028569D01*
X122546796Y-80026066D01*
X122618918Y-79967245D01*
X122619774Y-79966554D01*
X122658973Y-79935262D01*
X122661477Y-79932758D01*
X122662195Y-79932116D01*
X122666528Y-79928415D01*
X122700062Y-79901065D01*
X122729288Y-79865737D01*
X122737277Y-79856958D01*
X124107797Y-78486437D01*
X124119309Y-78476251D01*
X124142847Y-78457861D01*
X124180687Y-78414023D01*
X124186959Y-78407275D01*
X124192309Y-78401925D01*
X124214576Y-78374817D01*
X124216487Y-78372548D01*
X124250173Y-78333522D01*
X124272078Y-78308145D01*
X124275121Y-78302787D01*
X124278672Y-78297754D01*
X124278929Y-78297935D01*
X124279024Y-78297798D01*
X124278762Y-78297623D01*
X124282194Y-78292497D01*
X124286102Y-78287739D01*
X124311459Y-78240450D01*
X124326269Y-78212829D01*
X124327757Y-78210133D01*
X124369769Y-78136179D01*
X124371714Y-78130332D01*
X124374221Y-78124701D01*
X124374506Y-78124828D01*
X124374569Y-78124681D01*
X124374280Y-78124561D01*
X124376649Y-78118870D01*
X124379562Y-78113437D01*
X124404419Y-78032133D01*
X124405347Y-78029226D01*
X124415245Y-77999474D01*
X124432197Y-77948513D01*
X124432970Y-77942398D01*
X124434335Y-77936390D01*
X124434638Y-77936459D01*
X124434674Y-77936292D01*
X124434368Y-77936230D01*
X124435584Y-77930200D01*
X124437387Y-77924302D01*
X124444165Y-77857578D01*
X124445978Y-77839732D01*
X124446326Y-77836675D01*
X124456545Y-77755776D01*
X124456985Y-77752295D01*
X124457053Y-77747436D01*
X124457272Y-77731779D01*
X124457272Y-77731777D01*
X124457324Y-77728033D01*
X124457374Y-77727538D01*
X124457336Y-77727138D01*
X124457380Y-77724000D01*
X124452454Y-77673762D01*
X124447920Y-77627517D01*
X124447878Y-77627080D01*
X124439318Y-77536526D01*
X124439317Y-77536522D01*
X124438761Y-77530638D01*
X124438253Y-77528935D01*
X124438080Y-77527167D01*
X124436375Y-77521521D01*
X124436374Y-77521514D01*
X124410154Y-77434669D01*
X124410027Y-77434249D01*
X124383937Y-77346732D01*
X124383936Y-77346730D01*
X124382259Y-77341104D01*
X124381429Y-77339529D01*
X124380916Y-77337831D01*
X124335323Y-77252083D01*
X124290018Y-77166154D01*
X124288901Y-77164775D01*
X124288066Y-77163204D01*
X124226587Y-77087823D01*
X124186370Y-77038159D01*
X124169253Y-77017021D01*
X124169248Y-77017016D01*
X124165553Y-77012453D01*
X124164529Y-77011599D01*
X124163333Y-77010267D01*
X124163080Y-77009957D01*
X124164143Y-77009090D01*
X124133648Y-76952792D01*
X124138952Y-76881993D01*
X124181690Y-76825302D01*
X124248293Y-76800715D01*
X124256788Y-76800424D01*
X142337336Y-76790368D01*
X151892652Y-76785053D01*
X151960784Y-76805017D01*
G37*
G04 #@! TD.AperFunction*
G04 #@! TA.AperFunction,Conductor*
G36*
X122699509Y-76821291D02*
G01*
X122746031Y-76874921D01*
X122756174Y-76945189D01*
X122727969Y-77008317D01*
X122702929Y-77038159D01*
X122695502Y-77046264D01*
X121616171Y-78125595D01*
X121553859Y-78159621D01*
X121527076Y-78162500D01*
X119737866Y-78162500D01*
X119734469Y-78162869D01*
X119683535Y-78168402D01*
X119683534Y-78168402D01*
X119675684Y-78169255D01*
X119672115Y-78170593D01*
X119647321Y-78173500D01*
X113919850Y-78173500D01*
X113906242Y-78172763D01*
X113899485Y-78172029D01*
X113868612Y-78168675D01*
X113818928Y-78173022D01*
X113807968Y-78173500D01*
X113520600Y-78173500D01*
X113517354Y-78173837D01*
X113517350Y-78173837D01*
X113421692Y-78183762D01*
X113421688Y-78183763D01*
X113414834Y-78184474D01*
X113408298Y-78186655D01*
X113408296Y-78186655D01*
X113307196Y-78220385D01*
X113247054Y-78240450D01*
X113096652Y-78333522D01*
X112971695Y-78458697D01*
X112967855Y-78464927D01*
X112967854Y-78464928D01*
X112900649Y-78573955D01*
X112878885Y-78609262D01*
X112873240Y-78626283D01*
X112825936Y-78768900D01*
X112795438Y-78818328D01*
X111331121Y-80282645D01*
X111320978Y-80291747D01*
X111291475Y-80315468D01*
X111287508Y-80320196D01*
X111259209Y-80353921D01*
X111256028Y-80357569D01*
X111254385Y-80359381D01*
X111252191Y-80361575D01*
X111224858Y-80394849D01*
X111224196Y-80395647D01*
X111164346Y-80466974D01*
X111161778Y-80471644D01*
X111158397Y-80475761D01*
X111127360Y-80533645D01*
X111114523Y-80557586D01*
X111113894Y-80558745D01*
X111072038Y-80634881D01*
X111072035Y-80634889D01*
X111069067Y-80640287D01*
X111067455Y-80645369D01*
X111064938Y-80650063D01*
X111037738Y-80739031D01*
X111037418Y-80740059D01*
X111009265Y-80828806D01*
X111008671Y-80834102D01*
X111007113Y-80839198D01*
X111001696Y-80892531D01*
X110997718Y-80931687D01*
X110997589Y-80932893D01*
X110994573Y-80959786D01*
X110993114Y-80972799D01*
X110992000Y-80982727D01*
X110992000Y-80986254D01*
X110991945Y-80987239D01*
X110991498Y-80992919D01*
X110987126Y-81035962D01*
X110990438Y-81070996D01*
X110991441Y-81081609D01*
X110992000Y-81093467D01*
X110992000Y-81511450D01*
X110991215Y-81525494D01*
X110987219Y-81561120D01*
X110988556Y-81577047D01*
X110991558Y-81612793D01*
X110991814Y-81618888D01*
X110991850Y-81618886D01*
X110992000Y-81621953D01*
X110992000Y-81625038D01*
X110992301Y-81628106D01*
X110995998Y-81665818D01*
X110996157Y-81667568D01*
X111003768Y-81758203D01*
X111005425Y-81763983D01*
X111005463Y-81764173D01*
X111005795Y-81765914D01*
X111005834Y-81766127D01*
X111006420Y-81772102D01*
X111008202Y-81778004D01*
X111032691Y-81859117D01*
X111033188Y-81860804D01*
X111056584Y-81942394D01*
X111058283Y-81948319D01*
X111061033Y-81953668D01*
X111061100Y-81953832D01*
X111061740Y-81955417D01*
X111061851Y-81955698D01*
X111063584Y-81961438D01*
X111066475Y-81966875D01*
X111066479Y-81966885D01*
X111106324Y-82041822D01*
X111107068Y-82043244D01*
X111148687Y-82124225D01*
X111152414Y-82128928D01*
X111152560Y-82129147D01*
X111153517Y-82130609D01*
X111153609Y-82130751D01*
X111156434Y-82136065D01*
X111213939Y-82206573D01*
X111215031Y-82207932D01*
X111271535Y-82279222D01*
X111276113Y-82283118D01*
X111276243Y-82283249D01*
X111277483Y-82284515D01*
X111277638Y-82284676D01*
X111281435Y-82289331D01*
X111286182Y-82293258D01*
X111286185Y-82293261D01*
X111351511Y-82347303D01*
X111352859Y-82348434D01*
X111417460Y-82403414D01*
X111417463Y-82403416D01*
X111422150Y-82407405D01*
X111427398Y-82410338D01*
X111427574Y-82410457D01*
X111429048Y-82411467D01*
X111429195Y-82411569D01*
X111433825Y-82415399D01*
X111439245Y-82418329D01*
X111439247Y-82418331D01*
X111513835Y-82458661D01*
X111515376Y-82459508D01*
X111589417Y-82500888D01*
X111594794Y-82503893D01*
X111600509Y-82505750D01*
X111600683Y-82505823D01*
X111602285Y-82506510D01*
X111602522Y-82506614D01*
X111607799Y-82509467D01*
X111613688Y-82511290D01*
X111694734Y-82536378D01*
X111696397Y-82536906D01*
X111782892Y-82565009D01*
X111788854Y-82565720D01*
X111789074Y-82565765D01*
X111790791Y-82566130D01*
X111790993Y-82566174D01*
X111796732Y-82567951D01*
X111887262Y-82577466D01*
X111888863Y-82577645D01*
X111892494Y-82578078D01*
X111957761Y-82606019D01*
X111966644Y-82614094D01*
X112137461Y-82784911D01*
X112149847Y-82799323D01*
X112158380Y-82810918D01*
X112158385Y-82810923D01*
X112162723Y-82816818D01*
X112192925Y-82842476D01*
X112231888Y-82901824D01*
X112232581Y-82972817D01*
X112194781Y-83032915D01*
X112130491Y-83063037D01*
X112111344Y-83064500D01*
X109786382Y-83064500D01*
X109718261Y-83044498D01*
X109671768Y-82990842D01*
X109668401Y-82982731D01*
X109659769Y-82959707D01*
X109659768Y-82959704D01*
X109656615Y-82951295D01*
X109569261Y-82834739D01*
X109452705Y-82747385D01*
X109316316Y-82696255D01*
X109254134Y-82689500D01*
X107487537Y-82689500D01*
X107419416Y-82669498D01*
X107372923Y-82615842D01*
X107361537Y-82563404D01*
X107363360Y-80166560D01*
X107365818Y-76935651D01*
X107385872Y-76867547D01*
X107439563Y-76821095D01*
X107491748Y-76809748D01*
X122631377Y-76801327D01*
X122699509Y-76821291D01*
G37*
G04 #@! TD.AperFunction*
M02*
