G04 #@! TF.GenerationSoftware,KiCad,Pcbnew,6.0.4-6f826c9f35~116~ubuntu18.04.1*
G04 #@! TF.CreationDate,2022-06-24T10:17:27+08:00*
G04 #@! TF.ProjectId,ESP32_CAN_TEST,45535033-325f-4434-914e-5f544553542e,rev?*
G04 #@! TF.SameCoordinates,Original*
G04 #@! TF.FileFunction,Legend,Bot*
G04 #@! TF.FilePolarity,Positive*
%FSLAX46Y46*%
G04 Gerber Fmt 4.6, Leading zero omitted, Abs format (unit mm)*
G04 Created by KiCad (PCBNEW 6.0.4-6f826c9f35~116~ubuntu18.04.1) date 2022-06-24 10:17:27*
%MOMM*%
%LPD*%
G01*
G04 APERTURE LIST*
G04 Aperture macros list*
%AMRoundRect*
0 Rectangle with rounded corners*
0 $1 Rounding radius*
0 $2 $3 $4 $5 $6 $7 $8 $9 X,Y pos of 4 corners*
0 Add a 4 corners polygon primitive as box body*
4,1,4,$2,$3,$4,$5,$6,$7,$8,$9,$2,$3,0*
0 Add four circle primitives for the rounded corners*
1,1,$1+$1,$2,$3*
1,1,$1+$1,$4,$5*
1,1,$1+$1,$6,$7*
1,1,$1+$1,$8,$9*
0 Add four rect primitives between the rounded corners*
20,1,$1+$1,$2,$3,$4,$5,0*
20,1,$1+$1,$4,$5,$6,$7,0*
20,1,$1+$1,$6,$7,$8,$9,0*
20,1,$1+$1,$8,$9,$2,$3,0*%
G04 Aperture macros list end*
%ADD10C,0.150000*%
%ADD11C,0.250000*%
%ADD12C,0.120000*%
%ADD13C,0.127000*%
%ADD14C,0.500000*%
%ADD15R,2.000000X1.500000*%
%ADD16R,2.000000X3.800000*%
%ADD17C,1.000000*%
%ADD18RoundRect,0.250001X-0.499999X-0.499999X0.499999X-0.499999X0.499999X0.499999X-0.499999X0.499999X0*%
%ADD19C,1.500000*%
%ADD20R,1.700000X1.700000*%
%ADD21O,1.700000X1.700000*%
%ADD22R,3.800000X3.800000*%
%ADD23C,3.800000*%
%ADD24RoundRect,0.250001X-0.499999X0.499999X-0.499999X-0.499999X0.499999X-0.499999X0.499999X0.499999X0*%
%ADD25RoundRect,0.250000X-0.550000X1.500000X-0.550000X-1.500000X0.550000X-1.500000X0.550000X1.500000X0*%
%ADD26RoundRect,0.250000X-0.250000X-0.475000X0.250000X-0.475000X0.250000X0.475000X-0.250000X0.475000X0*%
%ADD27RoundRect,0.250000X-0.450000X0.350000X-0.450000X-0.350000X0.450000X-0.350000X0.450000X0.350000X0*%
%ADD28RoundRect,0.250000X0.550000X-1.500000X0.550000X1.500000X-0.550000X1.500000X-0.550000X-1.500000X0*%
%ADD29RoundRect,0.150000X-0.825000X-0.150000X0.825000X-0.150000X0.825000X0.150000X-0.825000X0.150000X0*%
%ADD30R,2.940000X5.020000*%
%ADD31R,3.048000X4.826000*%
%ADD32R,3.070000X5.118000*%
%ADD33R,1.500000X1.000000*%
%ADD34RoundRect,0.250000X0.250000X0.475000X-0.250000X0.475000X-0.250000X-0.475000X0.250000X-0.475000X0*%
%ADD35R,2.500000X2.300000*%
%ADD36R,1.000000X1.500000*%
%ADD37RoundRect,0.250000X-0.350000X-0.450000X0.350000X-0.450000X0.350000X0.450000X-0.350000X0.450000X0*%
%ADD38RoundRect,0.250000X0.350000X0.450000X-0.350000X0.450000X-0.350000X-0.450000X0.350000X-0.450000X0*%
%ADD39RoundRect,0.250000X0.325000X0.450000X-0.325000X0.450000X-0.325000X-0.450000X0.325000X-0.450000X0*%
G04 APERTURE END LIST*
D10*
X114950476Y-100988761D02*
X114807619Y-101036380D01*
X114569523Y-101036380D01*
X114474285Y-100988761D01*
X114426666Y-100941142D01*
X114379047Y-100845904D01*
X114379047Y-100750666D01*
X114426666Y-100655428D01*
X114474285Y-100607809D01*
X114569523Y-100560190D01*
X114760000Y-100512571D01*
X114855238Y-100464952D01*
X114902857Y-100417333D01*
X114950476Y-100322095D01*
X114950476Y-100226857D01*
X114902857Y-100131619D01*
X114855238Y-100084000D01*
X114760000Y-100036380D01*
X114521904Y-100036380D01*
X114379047Y-100084000D01*
X113950476Y-101036380D02*
X113950476Y-100036380D01*
X113379047Y-101036380D01*
X113379047Y-100036380D01*
X112569523Y-100512571D02*
X112426666Y-100560190D01*
X112379047Y-100607809D01*
X112331428Y-100703047D01*
X112331428Y-100845904D01*
X112379047Y-100941142D01*
X112426666Y-100988761D01*
X112521904Y-101036380D01*
X112902857Y-101036380D01*
X112902857Y-100036380D01*
X112569523Y-100036380D01*
X112474285Y-100084000D01*
X112426666Y-100131619D01*
X112379047Y-100226857D01*
X112379047Y-100322095D01*
X112426666Y-100417333D01*
X112474285Y-100464952D01*
X112569523Y-100512571D01*
X112902857Y-100512571D01*
X111950476Y-100131619D02*
X111902857Y-100084000D01*
X111807619Y-100036380D01*
X111569523Y-100036380D01*
X111474285Y-100084000D01*
X111426666Y-100131619D01*
X111379047Y-100226857D01*
X111379047Y-100322095D01*
X111426666Y-100464952D01*
X111998095Y-101036380D01*
X111379047Y-101036380D01*
X110521904Y-100369714D02*
X110521904Y-101036380D01*
X110759999Y-99988761D02*
X110998095Y-100703047D01*
X110379047Y-100703047D01*
X109426666Y-100941142D02*
X109474285Y-100988761D01*
X109617142Y-101036380D01*
X109712380Y-101036380D01*
X109855238Y-100988761D01*
X109950476Y-100893523D01*
X109998095Y-100798285D01*
X110045714Y-100607809D01*
X110045714Y-100464952D01*
X109998095Y-100274476D01*
X109950476Y-100179238D01*
X109855238Y-100084000D01*
X109712380Y-100036380D01*
X109617142Y-100036380D01*
X109474285Y-100084000D01*
X109426666Y-100131619D01*
X109045714Y-100750666D02*
X108569523Y-100750666D01*
X109140952Y-101036380D02*
X108807619Y-100036380D01*
X108474285Y-101036380D01*
X118006571Y-76747714D02*
X118006571Y-77747714D01*
X118006571Y-76795333D02*
X117911333Y-76747714D01*
X117720857Y-76747714D01*
X117625619Y-76795333D01*
X117578000Y-76842952D01*
X117530380Y-76938190D01*
X117530380Y-77223904D01*
X117578000Y-77319142D01*
X117625619Y-77366761D01*
X117720857Y-77414380D01*
X117911333Y-77414380D01*
X118006571Y-77366761D01*
X116958952Y-77414380D02*
X117054190Y-77366761D01*
X117101809Y-77319142D01*
X117149428Y-77223904D01*
X117149428Y-76938190D01*
X117101809Y-76842952D01*
X117054190Y-76795333D01*
X116958952Y-76747714D01*
X116816095Y-76747714D01*
X116720857Y-76795333D01*
X116673238Y-76842952D01*
X116625619Y-76938190D01*
X116625619Y-77223904D01*
X116673238Y-77319142D01*
X116720857Y-77366761D01*
X116816095Y-77414380D01*
X116958952Y-77414380D01*
X116292285Y-76747714D02*
X116101809Y-77414380D01*
X115911333Y-76938190D01*
X115720857Y-77414380D01*
X115530380Y-76747714D01*
X114768476Y-77366761D02*
X114863714Y-77414380D01*
X115054190Y-77414380D01*
X115149428Y-77366761D01*
X115197047Y-77271523D01*
X115197047Y-76890571D01*
X115149428Y-76795333D01*
X115054190Y-76747714D01*
X114863714Y-76747714D01*
X114768476Y-76795333D01*
X114720857Y-76890571D01*
X114720857Y-76985809D01*
X115197047Y-77081047D01*
X114292285Y-77414380D02*
X114292285Y-76747714D01*
X114292285Y-76938190D02*
X114244666Y-76842952D01*
X114197047Y-76795333D01*
X114101809Y-76747714D01*
X114006571Y-76747714D01*
X151328476Y-89352380D02*
X151804666Y-89352380D01*
X151804666Y-88352380D01*
X151923714Y-86558380D02*
X151923714Y-85558380D01*
X151923714Y-86034571D02*
X151352285Y-86034571D01*
X151352285Y-86558380D02*
X151352285Y-85558380D01*
X140104666Y-80208380D02*
X140676095Y-80208380D01*
X140390380Y-80208380D02*
X140390380Y-79208380D01*
X140485619Y-79351238D01*
X140580857Y-79446476D01*
X140676095Y-79494095D01*
X139723714Y-79303619D02*
X139676095Y-79256000D01*
X139580857Y-79208380D01*
X139342761Y-79208380D01*
X139247523Y-79256000D01*
X139199904Y-79303619D01*
X139152285Y-79398857D01*
X139152285Y-79494095D01*
X139199904Y-79636952D01*
X139771333Y-80208380D01*
X139152285Y-80208380D01*
X138533238Y-79208380D02*
X138438000Y-79208380D01*
X138342761Y-79256000D01*
X138295142Y-79303619D01*
X138247523Y-79398857D01*
X138199904Y-79589333D01*
X138199904Y-79827428D01*
X138247523Y-80017904D01*
X138295142Y-80113142D01*
X138342761Y-80160761D01*
X138438000Y-80208380D01*
X138533238Y-80208380D01*
X138628476Y-80160761D01*
X138676095Y-80113142D01*
X138723714Y-80017904D01*
X138771333Y-79827428D01*
X138771333Y-79589333D01*
X138723714Y-79398857D01*
X138676095Y-79303619D01*
X138628476Y-79256000D01*
X138533238Y-79208380D01*
X137199904Y-80208380D02*
X137533238Y-79732190D01*
X137771333Y-80208380D02*
X137771333Y-79208380D01*
X137390380Y-79208380D01*
X137295142Y-79256000D01*
X137247523Y-79303619D01*
X137199904Y-79398857D01*
X137199904Y-79541714D01*
X137247523Y-79636952D01*
X137295142Y-79684571D01*
X137390380Y-79732190D01*
X137771333Y-79732190D01*
X110640666Y-113228380D02*
X111212095Y-113228380D01*
X110926380Y-113228380D02*
X110926380Y-112228380D01*
X111021619Y-112371238D01*
X111116857Y-112466476D01*
X111212095Y-112514095D01*
X110259714Y-112323619D02*
X110212095Y-112276000D01*
X110116857Y-112228380D01*
X109878761Y-112228380D01*
X109783523Y-112276000D01*
X109735904Y-112323619D01*
X109688285Y-112418857D01*
X109688285Y-112514095D01*
X109735904Y-112656952D01*
X110307333Y-113228380D01*
X109688285Y-113228380D01*
X109069238Y-112228380D02*
X108974000Y-112228380D01*
X108878761Y-112276000D01*
X108831142Y-112323619D01*
X108783523Y-112418857D01*
X108735904Y-112609333D01*
X108735904Y-112847428D01*
X108783523Y-113037904D01*
X108831142Y-113133142D01*
X108878761Y-113180761D01*
X108974000Y-113228380D01*
X109069238Y-113228380D01*
X109164476Y-113180761D01*
X109212095Y-113133142D01*
X109259714Y-113037904D01*
X109307333Y-112847428D01*
X109307333Y-112609333D01*
X109259714Y-112418857D01*
X109212095Y-112323619D01*
X109164476Y-112276000D01*
X109069238Y-112228380D01*
X107735904Y-113228380D02*
X108069238Y-112752190D01*
X108307333Y-113228380D02*
X108307333Y-112228380D01*
X107926380Y-112228380D01*
X107831142Y-112276000D01*
X107783523Y-112323619D01*
X107735904Y-112418857D01*
X107735904Y-112561714D01*
X107783523Y-112656952D01*
X107831142Y-112704571D01*
X107926380Y-112752190D01*
X108307333Y-112752190D01*
D11*
X138483571Y-99854571D02*
X138483571Y-100187904D01*
X139007380Y-100330761D02*
X139007380Y-99854571D01*
X138007380Y-99854571D01*
X138007380Y-100330761D01*
X138959761Y-100711714D02*
X139007380Y-100854571D01*
X139007380Y-101092666D01*
X138959761Y-101187904D01*
X138912142Y-101235523D01*
X138816904Y-101283142D01*
X138721666Y-101283142D01*
X138626428Y-101235523D01*
X138578809Y-101187904D01*
X138531190Y-101092666D01*
X138483571Y-100902190D01*
X138435952Y-100806952D01*
X138388333Y-100759333D01*
X138293095Y-100711714D01*
X138197857Y-100711714D01*
X138102619Y-100759333D01*
X138055000Y-100806952D01*
X138007380Y-100902190D01*
X138007380Y-101140285D01*
X138055000Y-101283142D01*
X139007380Y-101711714D02*
X138007380Y-101711714D01*
X138007380Y-102092666D01*
X138055000Y-102187904D01*
X138102619Y-102235523D01*
X138197857Y-102283142D01*
X138340714Y-102283142D01*
X138435952Y-102235523D01*
X138483571Y-102187904D01*
X138531190Y-102092666D01*
X138531190Y-101711714D01*
X138007380Y-102616476D02*
X138007380Y-103235523D01*
X138388333Y-102902190D01*
X138388333Y-103045047D01*
X138435952Y-103140285D01*
X138483571Y-103187904D01*
X138578809Y-103235523D01*
X138816904Y-103235523D01*
X138912142Y-103187904D01*
X138959761Y-103140285D01*
X139007380Y-103045047D01*
X139007380Y-102759333D01*
X138959761Y-102664095D01*
X138912142Y-102616476D01*
X138102619Y-103616476D02*
X138055000Y-103664095D01*
X138007380Y-103759333D01*
X138007380Y-103997428D01*
X138055000Y-104092666D01*
X138102619Y-104140285D01*
X138197857Y-104187904D01*
X138293095Y-104187904D01*
X138435952Y-104140285D01*
X139007380Y-103568857D01*
X139007380Y-104187904D01*
X138007380Y-105235523D02*
X138007380Y-105806952D01*
X139007380Y-105521238D02*
X138007380Y-105521238D01*
X138959761Y-106521238D02*
X139007380Y-106426000D01*
X139007380Y-106235523D01*
X138959761Y-106140285D01*
X138864523Y-106092666D01*
X138483571Y-106092666D01*
X138388333Y-106140285D01*
X138340714Y-106235523D01*
X138340714Y-106426000D01*
X138388333Y-106521238D01*
X138483571Y-106568857D01*
X138578809Y-106568857D01*
X138674047Y-106092666D01*
X138959761Y-106949809D02*
X139007380Y-107045047D01*
X139007380Y-107235523D01*
X138959761Y-107330761D01*
X138864523Y-107378380D01*
X138816904Y-107378380D01*
X138721666Y-107330761D01*
X138674047Y-107235523D01*
X138674047Y-107092666D01*
X138626428Y-106997428D01*
X138531190Y-106949809D01*
X138483571Y-106949809D01*
X138388333Y-106997428D01*
X138340714Y-107092666D01*
X138340714Y-107235523D01*
X138388333Y-107330761D01*
X138340714Y-107664095D02*
X138340714Y-108045047D01*
X138007380Y-107806952D02*
X138864523Y-107806952D01*
X138959761Y-107854571D01*
X139007380Y-107949809D01*
X139007380Y-108045047D01*
X138483571Y-109473619D02*
X138531190Y-109616476D01*
X138578809Y-109664095D01*
X138674047Y-109711714D01*
X138816904Y-109711714D01*
X138912142Y-109664095D01*
X138959761Y-109616476D01*
X139007380Y-109521238D01*
X139007380Y-109140285D01*
X138007380Y-109140285D01*
X138007380Y-109473619D01*
X138055000Y-109568857D01*
X138102619Y-109616476D01*
X138197857Y-109664095D01*
X138293095Y-109664095D01*
X138388333Y-109616476D01*
X138435952Y-109568857D01*
X138483571Y-109473619D01*
X138483571Y-109140285D01*
X139007380Y-110283142D02*
X138959761Y-110187904D01*
X138912142Y-110140285D01*
X138816904Y-110092666D01*
X138531190Y-110092666D01*
X138435952Y-110140285D01*
X138388333Y-110187904D01*
X138340714Y-110283142D01*
X138340714Y-110426000D01*
X138388333Y-110521238D01*
X138435952Y-110568857D01*
X138531190Y-110616476D01*
X138816904Y-110616476D01*
X138912142Y-110568857D01*
X138959761Y-110521238D01*
X139007380Y-110426000D01*
X139007380Y-110283142D01*
X139007380Y-111473619D02*
X138483571Y-111473619D01*
X138388333Y-111426000D01*
X138340714Y-111330761D01*
X138340714Y-111140285D01*
X138388333Y-111045047D01*
X138959761Y-111473619D02*
X139007380Y-111378380D01*
X139007380Y-111140285D01*
X138959761Y-111045047D01*
X138864523Y-110997428D01*
X138769285Y-110997428D01*
X138674047Y-111045047D01*
X138626428Y-111140285D01*
X138626428Y-111378380D01*
X138578809Y-111473619D01*
X139007380Y-111949809D02*
X138340714Y-111949809D01*
X138531190Y-111949809D02*
X138435952Y-111997428D01*
X138388333Y-112045047D01*
X138340714Y-112140285D01*
X138340714Y-112235523D01*
X139007380Y-112997428D02*
X138007380Y-112997428D01*
X138959761Y-112997428D02*
X139007380Y-112902190D01*
X139007380Y-112711714D01*
X138959761Y-112616476D01*
X138912142Y-112568857D01*
X138816904Y-112521238D01*
X138531190Y-112521238D01*
X138435952Y-112568857D01*
X138388333Y-112616476D01*
X138340714Y-112711714D01*
X138340714Y-112902190D01*
X138388333Y-112997428D01*
X140569761Y-101092666D02*
X140617380Y-101235523D01*
X140617380Y-101473619D01*
X140569761Y-101568857D01*
X140522142Y-101616476D01*
X140426904Y-101664095D01*
X140331666Y-101664095D01*
X140236428Y-101616476D01*
X140188809Y-101568857D01*
X140141190Y-101473619D01*
X140093571Y-101283142D01*
X140045952Y-101187904D01*
X139998333Y-101140285D01*
X139903095Y-101092666D01*
X139807857Y-101092666D01*
X139712619Y-101140285D01*
X139665000Y-101187904D01*
X139617380Y-101283142D01*
X139617380Y-101521238D01*
X139665000Y-101664095D01*
X140617380Y-102521238D02*
X140093571Y-102521238D01*
X139998333Y-102473619D01*
X139950714Y-102378380D01*
X139950714Y-102187904D01*
X139998333Y-102092666D01*
X140569761Y-102521238D02*
X140617380Y-102426000D01*
X140617380Y-102187904D01*
X140569761Y-102092666D01*
X140474523Y-102045047D01*
X140379285Y-102045047D01*
X140284047Y-102092666D01*
X140236428Y-102187904D01*
X140236428Y-102426000D01*
X140188809Y-102521238D01*
X140617380Y-102997428D02*
X139950714Y-102997428D01*
X140045952Y-102997428D02*
X139998333Y-103045047D01*
X139950714Y-103140285D01*
X139950714Y-103283142D01*
X139998333Y-103378380D01*
X140093571Y-103426000D01*
X140617380Y-103426000D01*
X140093571Y-103426000D02*
X139998333Y-103473619D01*
X139950714Y-103568857D01*
X139950714Y-103711714D01*
X139998333Y-103806952D01*
X140093571Y-103854571D01*
X140617380Y-103854571D01*
X140569761Y-104283142D02*
X140617380Y-104378380D01*
X140617380Y-104568857D01*
X140569761Y-104664095D01*
X140474523Y-104711714D01*
X140426904Y-104711714D01*
X140331666Y-104664095D01*
X140284047Y-104568857D01*
X140284047Y-104426000D01*
X140236428Y-104330761D01*
X140141190Y-104283142D01*
X140093571Y-104283142D01*
X139998333Y-104330761D01*
X139950714Y-104426000D01*
X139950714Y-104568857D01*
X139998333Y-104664095D01*
X140617380Y-105283142D02*
X140569761Y-105187904D01*
X140522142Y-105140285D01*
X140426904Y-105092666D01*
X140141190Y-105092666D01*
X140045952Y-105140285D01*
X139998333Y-105187904D01*
X139950714Y-105283142D01*
X139950714Y-105426000D01*
X139998333Y-105521238D01*
X140045952Y-105568857D01*
X140141190Y-105616476D01*
X140426904Y-105616476D01*
X140522142Y-105568857D01*
X140569761Y-105521238D01*
X140617380Y-105426000D01*
X140617380Y-105283142D01*
X139950714Y-106045047D02*
X140617380Y-106045047D01*
X140045952Y-106045047D02*
X139998333Y-106092666D01*
X139950714Y-106187904D01*
X139950714Y-106330761D01*
X139998333Y-106426000D01*
X140093571Y-106473619D01*
X140617380Y-106473619D01*
X140522142Y-108283142D02*
X140569761Y-108235523D01*
X140617380Y-108092666D01*
X140617380Y-107997428D01*
X140569761Y-107854571D01*
X140474523Y-107759333D01*
X140379285Y-107711714D01*
X140188809Y-107664095D01*
X140045952Y-107664095D01*
X139855476Y-107711714D01*
X139760238Y-107759333D01*
X139665000Y-107854571D01*
X139617380Y-107997428D01*
X139617380Y-108092666D01*
X139665000Y-108235523D01*
X139712619Y-108283142D01*
X140617380Y-108711714D02*
X139617380Y-108711714D01*
X140617380Y-109140285D02*
X140093571Y-109140285D01*
X139998333Y-109092666D01*
X139950714Y-108997428D01*
X139950714Y-108854571D01*
X139998333Y-108759333D01*
X140045952Y-108711714D01*
X140617380Y-110045047D02*
X140093571Y-110045047D01*
X139998333Y-109997428D01*
X139950714Y-109902190D01*
X139950714Y-109711714D01*
X139998333Y-109616476D01*
X140569761Y-110045047D02*
X140617380Y-109949809D01*
X140617380Y-109711714D01*
X140569761Y-109616476D01*
X140474523Y-109568857D01*
X140379285Y-109568857D01*
X140284047Y-109616476D01*
X140236428Y-109711714D01*
X140236428Y-109949809D01*
X140188809Y-110045047D01*
X139950714Y-110949809D02*
X140617380Y-110949809D01*
X139950714Y-110521238D02*
X140474523Y-110521238D01*
X140569761Y-110568857D01*
X140617380Y-110664095D01*
X140617380Y-110806952D01*
X140569761Y-110902190D01*
X140522142Y-110949809D01*
X142227380Y-103973619D02*
X141751190Y-103640285D01*
X142227380Y-103402190D02*
X141227380Y-103402190D01*
X141227380Y-103783142D01*
X141275000Y-103878380D01*
X141322619Y-103926000D01*
X141417857Y-103973619D01*
X141560714Y-103973619D01*
X141655952Y-103926000D01*
X141703571Y-103878380D01*
X141751190Y-103783142D01*
X141751190Y-103402190D01*
X142179761Y-104783142D02*
X142227380Y-104687904D01*
X142227380Y-104497428D01*
X142179761Y-104402190D01*
X142084523Y-104354571D01*
X141703571Y-104354571D01*
X141608333Y-104402190D01*
X141560714Y-104497428D01*
X141560714Y-104687904D01*
X141608333Y-104783142D01*
X141703571Y-104830761D01*
X141798809Y-104830761D01*
X141894047Y-104354571D01*
X141560714Y-105164095D02*
X142227380Y-105402190D01*
X141560714Y-105640285D01*
X141322619Y-106735523D02*
X141275000Y-106783142D01*
X141227380Y-106878380D01*
X141227380Y-107116476D01*
X141275000Y-107211714D01*
X141322619Y-107259333D01*
X141417857Y-107306952D01*
X141513095Y-107306952D01*
X141655952Y-107259333D01*
X142227380Y-106687904D01*
X142227380Y-107306952D01*
X142132142Y-107735523D02*
X142179761Y-107783142D01*
X142227380Y-107735523D01*
X142179761Y-107687904D01*
X142132142Y-107735523D01*
X142227380Y-107735523D01*
X141227380Y-108402190D02*
X141227380Y-108497428D01*
X141275000Y-108592666D01*
X141322619Y-108640285D01*
X141417857Y-108687904D01*
X141608333Y-108735523D01*
X141846428Y-108735523D01*
X142036904Y-108687904D01*
X142132142Y-108640285D01*
X142179761Y-108592666D01*
X142227380Y-108497428D01*
X142227380Y-108402190D01*
X142179761Y-108306952D01*
X142132142Y-108259333D01*
X142036904Y-108211714D01*
X141846428Y-108164095D01*
X141608333Y-108164095D01*
X141417857Y-108211714D01*
X141322619Y-108259333D01*
X141275000Y-108306952D01*
X141227380Y-108402190D01*
X142932619Y-102045047D02*
X142885000Y-102092666D01*
X142837380Y-102187904D01*
X142837380Y-102426000D01*
X142885000Y-102521238D01*
X142932619Y-102568857D01*
X143027857Y-102616476D01*
X143123095Y-102616476D01*
X143265952Y-102568857D01*
X143837380Y-101997428D01*
X143837380Y-102616476D01*
X142837380Y-103235523D02*
X142837380Y-103330761D01*
X142885000Y-103426000D01*
X142932619Y-103473619D01*
X143027857Y-103521238D01*
X143218333Y-103568857D01*
X143456428Y-103568857D01*
X143646904Y-103521238D01*
X143742142Y-103473619D01*
X143789761Y-103426000D01*
X143837380Y-103330761D01*
X143837380Y-103235523D01*
X143789761Y-103140285D01*
X143742142Y-103092666D01*
X143646904Y-103045047D01*
X143456428Y-102997428D01*
X143218333Y-102997428D01*
X143027857Y-103045047D01*
X142932619Y-103092666D01*
X142885000Y-103140285D01*
X142837380Y-103235523D01*
X142932619Y-103949809D02*
X142885000Y-103997428D01*
X142837380Y-104092666D01*
X142837380Y-104330761D01*
X142885000Y-104426000D01*
X142932619Y-104473619D01*
X143027857Y-104521238D01*
X143123095Y-104521238D01*
X143265952Y-104473619D01*
X143837380Y-103902190D01*
X143837380Y-104521238D01*
X142932619Y-104902190D02*
X142885000Y-104949809D01*
X142837380Y-105045047D01*
X142837380Y-105283142D01*
X142885000Y-105378380D01*
X142932619Y-105426000D01*
X143027857Y-105473619D01*
X143123095Y-105473619D01*
X143265952Y-105426000D01*
X143837380Y-104854571D01*
X143837380Y-105473619D01*
X143456428Y-105902190D02*
X143456428Y-106664095D01*
X142837380Y-107568857D02*
X142837380Y-107378380D01*
X142885000Y-107283142D01*
X142932619Y-107235523D01*
X143075476Y-107140285D01*
X143265952Y-107092666D01*
X143646904Y-107092666D01*
X143742142Y-107140285D01*
X143789761Y-107187904D01*
X143837380Y-107283142D01*
X143837380Y-107473619D01*
X143789761Y-107568857D01*
X143742142Y-107616476D01*
X143646904Y-107664095D01*
X143408809Y-107664095D01*
X143313571Y-107616476D01*
X143265952Y-107568857D01*
X143218333Y-107473619D01*
X143218333Y-107283142D01*
X143265952Y-107187904D01*
X143313571Y-107140285D01*
X143408809Y-107092666D01*
X143456428Y-108092666D02*
X143456428Y-108854571D01*
X142932619Y-109283142D02*
X142885000Y-109330761D01*
X142837380Y-109426000D01*
X142837380Y-109664095D01*
X142885000Y-109759333D01*
X142932619Y-109806952D01*
X143027857Y-109854571D01*
X143123095Y-109854571D01*
X143265952Y-109806952D01*
X143837380Y-109235523D01*
X143837380Y-109854571D01*
X142837380Y-110187904D02*
X142837380Y-110806952D01*
X143218333Y-110473619D01*
X143218333Y-110616476D01*
X143265952Y-110711714D01*
X143313571Y-110759333D01*
X143408809Y-110806952D01*
X143646904Y-110806952D01*
X143742142Y-110759333D01*
X143789761Y-110711714D01*
X143837380Y-110616476D01*
X143837380Y-110330761D01*
X143789761Y-110235523D01*
X143742142Y-110187904D01*
D10*
X109219904Y-91400380D02*
X109219904Y-92209904D01*
X109172285Y-92305142D01*
X109124666Y-92352761D01*
X109029428Y-92400380D01*
X108838952Y-92400380D01*
X108743714Y-92352761D01*
X108696095Y-92305142D01*
X108648476Y-92209904D01*
X108648476Y-91400380D01*
X107648476Y-92400380D02*
X108219904Y-92400380D01*
X107934190Y-92400380D02*
X107934190Y-91400380D01*
X108029428Y-91543238D01*
X108124666Y-91638476D01*
X108219904Y-91686095D01*
X124423466Y-121362742D02*
X124471085Y-121410361D01*
X124613942Y-121457980D01*
X124709180Y-121457980D01*
X124852038Y-121410361D01*
X124947276Y-121315123D01*
X124994895Y-121219885D01*
X125042514Y-121029409D01*
X125042514Y-120886552D01*
X124994895Y-120696076D01*
X124947276Y-120600838D01*
X124852038Y-120505600D01*
X124709180Y-120457980D01*
X124613942Y-120457980D01*
X124471085Y-120505600D01*
X124423466Y-120553219D01*
X123566323Y-120457980D02*
X123756800Y-120457980D01*
X123852038Y-120505600D01*
X123899657Y-120553219D01*
X123994895Y-120696076D01*
X124042514Y-120886552D01*
X124042514Y-121267504D01*
X123994895Y-121362742D01*
X123947276Y-121410361D01*
X123852038Y-121457980D01*
X123661561Y-121457980D01*
X123566323Y-121410361D01*
X123518704Y-121362742D01*
X123471085Y-121267504D01*
X123471085Y-121029409D01*
X123518704Y-120934171D01*
X123566323Y-120886552D01*
X123661561Y-120838933D01*
X123852038Y-120838933D01*
X123947276Y-120886552D01*
X123994895Y-120934171D01*
X124042514Y-121029409D01*
X112180666Y-83669142D02*
X112228285Y-83716761D01*
X112371142Y-83764380D01*
X112466380Y-83764380D01*
X112609238Y-83716761D01*
X112704476Y-83621523D01*
X112752095Y-83526285D01*
X112799714Y-83335809D01*
X112799714Y-83192952D01*
X112752095Y-83002476D01*
X112704476Y-82907238D01*
X112609238Y-82812000D01*
X112466380Y-82764380D01*
X112371142Y-82764380D01*
X112228285Y-82812000D01*
X112180666Y-82859619D01*
X111275904Y-82764380D02*
X111752095Y-82764380D01*
X111799714Y-83240571D01*
X111752095Y-83192952D01*
X111656857Y-83145333D01*
X111418761Y-83145333D01*
X111323523Y-83192952D01*
X111275904Y-83240571D01*
X111228285Y-83335809D01*
X111228285Y-83573904D01*
X111275904Y-83669142D01*
X111323523Y-83716761D01*
X111418761Y-83764380D01*
X111656857Y-83764380D01*
X111752095Y-83716761D01*
X111799714Y-83669142D01*
X145962666Y-77922380D02*
X146296000Y-77446190D01*
X146534095Y-77922380D02*
X146534095Y-76922380D01*
X146153142Y-76922380D01*
X146057904Y-76970000D01*
X146010285Y-77017619D01*
X145962666Y-77112857D01*
X145962666Y-77255714D01*
X146010285Y-77350952D01*
X146057904Y-77398571D01*
X146153142Y-77446190D01*
X146534095Y-77446190D01*
X145486476Y-77922380D02*
X145296000Y-77922380D01*
X145200761Y-77874761D01*
X145153142Y-77827142D01*
X145057904Y-77684285D01*
X145010285Y-77493809D01*
X145010285Y-77112857D01*
X145057904Y-77017619D01*
X145105523Y-76970000D01*
X145200761Y-76922380D01*
X145391238Y-76922380D01*
X145486476Y-76970000D01*
X145534095Y-77017619D01*
X145581714Y-77112857D01*
X145581714Y-77350952D01*
X145534095Y-77446190D01*
X145486476Y-77493809D01*
X145391238Y-77541428D01*
X145200761Y-77541428D01*
X145105523Y-77493809D01*
X145057904Y-77446190D01*
X145010285Y-77350952D01*
X127166666Y-81129142D02*
X127214285Y-81176761D01*
X127357142Y-81224380D01*
X127452380Y-81224380D01*
X127595238Y-81176761D01*
X127690476Y-81081523D01*
X127738095Y-80986285D01*
X127785714Y-80795809D01*
X127785714Y-80652952D01*
X127738095Y-80462476D01*
X127690476Y-80367238D01*
X127595238Y-80272000D01*
X127452380Y-80224380D01*
X127357142Y-80224380D01*
X127214285Y-80272000D01*
X127166666Y-80319619D01*
X126690476Y-81224380D02*
X126500000Y-81224380D01*
X126404761Y-81176761D01*
X126357142Y-81129142D01*
X126261904Y-80986285D01*
X126214285Y-80795809D01*
X126214285Y-80414857D01*
X126261904Y-80319619D01*
X126309523Y-80272000D01*
X126404761Y-80224380D01*
X126595238Y-80224380D01*
X126690476Y-80272000D01*
X126738095Y-80319619D01*
X126785714Y-80414857D01*
X126785714Y-80652952D01*
X126738095Y-80748190D01*
X126690476Y-80795809D01*
X126595238Y-80843428D01*
X126404761Y-80843428D01*
X126309523Y-80795809D01*
X126261904Y-80748190D01*
X126214285Y-80652952D01*
X139634904Y-89339380D02*
X139634904Y-90148904D01*
X139587285Y-90244142D01*
X139539666Y-90291761D01*
X139444428Y-90339380D01*
X139253952Y-90339380D01*
X139158714Y-90291761D01*
X139111095Y-90244142D01*
X139063476Y-90148904D01*
X139063476Y-89339380D01*
X138111095Y-89339380D02*
X138587285Y-89339380D01*
X138634904Y-89815571D01*
X138587285Y-89767952D01*
X138492047Y-89720333D01*
X138253952Y-89720333D01*
X138158714Y-89767952D01*
X138111095Y-89815571D01*
X138063476Y-89910809D01*
X138063476Y-90148904D01*
X138111095Y-90244142D01*
X138158714Y-90291761D01*
X138253952Y-90339380D01*
X138492047Y-90339380D01*
X138587285Y-90291761D01*
X138634904Y-90244142D01*
X115392803Y-106842074D02*
X116030224Y-106842074D01*
X116105215Y-106879570D01*
X116142710Y-106917065D01*
X116180205Y-106992056D01*
X116180205Y-107142037D01*
X116142710Y-107217028D01*
X116105215Y-107254523D01*
X116030224Y-107292018D01*
X115392803Y-107292018D01*
X115392803Y-107591981D02*
X115392803Y-108079420D01*
X115692766Y-107816953D01*
X115692766Y-107929439D01*
X115730261Y-108004430D01*
X115767757Y-108041925D01*
X115842747Y-108079420D01*
X116030224Y-108079420D01*
X116105215Y-108041925D01*
X116142710Y-108004430D01*
X116180205Y-107929439D01*
X116180205Y-107704467D01*
X116142710Y-107629476D01*
X116105215Y-107591981D01*
X130745630Y-93757952D02*
X130745630Y-93948428D01*
X130793250Y-94043666D01*
X130888488Y-94138904D01*
X131078964Y-94186523D01*
X131412297Y-94186523D01*
X131602773Y-94138904D01*
X131698011Y-94043666D01*
X131745630Y-93948428D01*
X131745630Y-93757952D01*
X131698011Y-93662714D01*
X131602773Y-93567476D01*
X131412297Y-93519857D01*
X131078964Y-93519857D01*
X130888488Y-93567476D01*
X130793250Y-93662714D01*
X130745630Y-93757952D01*
X130745630Y-94615095D02*
X131555154Y-94615095D01*
X131650392Y-94662714D01*
X131698011Y-94710333D01*
X131745630Y-94805571D01*
X131745630Y-94996047D01*
X131698011Y-95091285D01*
X131650392Y-95138904D01*
X131555154Y-95186523D01*
X130745630Y-95186523D01*
X130745630Y-95519857D02*
X130745630Y-96091285D01*
X131745630Y-95805571D02*
X130745630Y-95805571D01*
X131364678Y-96424619D02*
X131364678Y-97186523D01*
X119553630Y-103886142D02*
X118553630Y-103886142D01*
X119553630Y-104362333D02*
X118553630Y-104362333D01*
X119553630Y-104933761D01*
X118553630Y-104933761D01*
X119172678Y-105409952D02*
X119172678Y-106171857D01*
X119553630Y-105790904D02*
X118791726Y-105790904D01*
X131745630Y-103886142D02*
X130745630Y-103886142D01*
X131745630Y-104362333D02*
X130745630Y-104362333D01*
X131745630Y-104933761D01*
X130745630Y-104933761D01*
X131364678Y-105409952D02*
X131364678Y-106171857D01*
X118553630Y-93503952D02*
X118553630Y-93694428D01*
X118601250Y-93789666D01*
X118696488Y-93884904D01*
X118886964Y-93932523D01*
X119220297Y-93932523D01*
X119410773Y-93884904D01*
X119506011Y-93789666D01*
X119553630Y-93694428D01*
X119553630Y-93503952D01*
X119506011Y-93408714D01*
X119410773Y-93313476D01*
X119220297Y-93265857D01*
X118886964Y-93265857D01*
X118696488Y-93313476D01*
X118601250Y-93408714D01*
X118553630Y-93503952D01*
X118553630Y-94361095D02*
X119363154Y-94361095D01*
X119458392Y-94408714D01*
X119506011Y-94456333D01*
X119553630Y-94551571D01*
X119553630Y-94742047D01*
X119506011Y-94837285D01*
X119458392Y-94884904D01*
X119363154Y-94932523D01*
X118553630Y-94932523D01*
X118553630Y-95265857D02*
X118553630Y-95837285D01*
X119553630Y-95551571D02*
X118553630Y-95551571D01*
X119172678Y-96170619D02*
X119172678Y-96932523D01*
X119553630Y-96551571D02*
X118791726Y-96551571D01*
X143327333Y-76668380D02*
X143327333Y-77382666D01*
X143374952Y-77525523D01*
X143470190Y-77620761D01*
X143613047Y-77668380D01*
X143708285Y-77668380D01*
X142851142Y-77668380D02*
X142851142Y-76668380D01*
X142470190Y-76668380D01*
X142374952Y-76716000D01*
X142327333Y-76763619D01*
X142279714Y-76858857D01*
X142279714Y-77001714D01*
X142327333Y-77096952D01*
X142374952Y-77144571D01*
X142470190Y-77192190D01*
X142851142Y-77192190D01*
X141898761Y-76763619D02*
X141851142Y-76716000D01*
X141755904Y-76668380D01*
X141517809Y-76668380D01*
X141422571Y-76716000D01*
X141374952Y-76763619D01*
X141327333Y-76858857D01*
X141327333Y-76954095D01*
X141374952Y-77096952D01*
X141946380Y-77668380D01*
X141327333Y-77668380D01*
X111484666Y-92657142D02*
X111532285Y-92704761D01*
X111675142Y-92752380D01*
X111770380Y-92752380D01*
X111913238Y-92704761D01*
X112008476Y-92609523D01*
X112056095Y-92514285D01*
X112103714Y-92323809D01*
X112103714Y-92180952D01*
X112056095Y-91990476D01*
X112008476Y-91895238D01*
X111913238Y-91800000D01*
X111770380Y-91752380D01*
X111675142Y-91752380D01*
X111532285Y-91800000D01*
X111484666Y-91847619D01*
X111151333Y-91752380D02*
X110532285Y-91752380D01*
X110865619Y-92133333D01*
X110722761Y-92133333D01*
X110627523Y-92180952D01*
X110579904Y-92228571D01*
X110532285Y-92323809D01*
X110532285Y-92561904D01*
X110579904Y-92657142D01*
X110627523Y-92704761D01*
X110722761Y-92752380D01*
X111008476Y-92752380D01*
X111103714Y-92704761D01*
X111151333Y-92657142D01*
X133992857Y-80465142D02*
X134040476Y-80512761D01*
X134183333Y-80560380D01*
X134278571Y-80560380D01*
X134421428Y-80512761D01*
X134516666Y-80417523D01*
X134564285Y-80322285D01*
X134611904Y-80131809D01*
X134611904Y-79988952D01*
X134564285Y-79798476D01*
X134516666Y-79703238D01*
X134421428Y-79608000D01*
X134278571Y-79560380D01*
X134183333Y-79560380D01*
X134040476Y-79608000D01*
X133992857Y-79655619D01*
X133040476Y-80560380D02*
X133611904Y-80560380D01*
X133326190Y-80560380D02*
X133326190Y-79560380D01*
X133421428Y-79703238D01*
X133516666Y-79798476D01*
X133611904Y-79846095D01*
X132659523Y-79655619D02*
X132611904Y-79608000D01*
X132516666Y-79560380D01*
X132278571Y-79560380D01*
X132183333Y-79608000D01*
X132135714Y-79655619D01*
X132088095Y-79750857D01*
X132088095Y-79846095D01*
X132135714Y-79988952D01*
X132707142Y-80560380D01*
X132088095Y-80560380D01*
X115800095Y-94762580D02*
X115800095Y-93762580D01*
X115562000Y-93762580D01*
X115419142Y-93810200D01*
X115323904Y-93905438D01*
X115276285Y-94000676D01*
X115228666Y-94191152D01*
X115228666Y-94334009D01*
X115276285Y-94524485D01*
X115323904Y-94619723D01*
X115419142Y-94714961D01*
X115562000Y-94762580D01*
X115800095Y-94762580D01*
X114895333Y-93762580D02*
X114276285Y-93762580D01*
X114609619Y-94143533D01*
X114466761Y-94143533D01*
X114371523Y-94191152D01*
X114323904Y-94238771D01*
X114276285Y-94334009D01*
X114276285Y-94572104D01*
X114323904Y-94667342D01*
X114371523Y-94714961D01*
X114466761Y-94762580D01*
X114752476Y-94762580D01*
X114847714Y-94714961D01*
X114895333Y-94667342D01*
X109545333Y-115022380D02*
X109545333Y-115736666D01*
X109592952Y-115879523D01*
X109688190Y-115974761D01*
X109831047Y-116022380D01*
X109926285Y-116022380D01*
X109069142Y-116022380D02*
X109069142Y-115022380D01*
X108688190Y-115022380D01*
X108592952Y-115070000D01*
X108545333Y-115117619D01*
X108497714Y-115212857D01*
X108497714Y-115355714D01*
X108545333Y-115450952D01*
X108592952Y-115498571D01*
X108688190Y-115546190D01*
X109069142Y-115546190D01*
X107545333Y-116022380D02*
X108116761Y-116022380D01*
X107831047Y-116022380D02*
X107831047Y-115022380D01*
X107926285Y-115165238D01*
X108021523Y-115260476D01*
X108116761Y-115308095D01*
X116498666Y-112212380D02*
X116832000Y-111736190D01*
X117070095Y-112212380D02*
X117070095Y-111212380D01*
X116689142Y-111212380D01*
X116593904Y-111260000D01*
X116546285Y-111307619D01*
X116498666Y-111402857D01*
X116498666Y-111545714D01*
X116546285Y-111640952D01*
X116593904Y-111688571D01*
X116689142Y-111736190D01*
X117070095Y-111736190D01*
X115641523Y-111545714D02*
X115641523Y-112212380D01*
X115879619Y-111164761D02*
X116117714Y-111879047D01*
X115498666Y-111879047D01*
X117514666Y-81478380D02*
X117848000Y-81002190D01*
X118086095Y-81478380D02*
X118086095Y-80478380D01*
X117705142Y-80478380D01*
X117609904Y-80526000D01*
X117562285Y-80573619D01*
X117514666Y-80668857D01*
X117514666Y-80811714D01*
X117562285Y-80906952D01*
X117609904Y-80954571D01*
X117705142Y-81002190D01*
X118086095Y-81002190D01*
X116562285Y-81478380D02*
X117133714Y-81478380D01*
X116848000Y-81478380D02*
X116848000Y-80478380D01*
X116943238Y-80621238D01*
X117038476Y-80716476D01*
X117133714Y-80764095D01*
X118340095Y-79192380D02*
X118340095Y-78192380D01*
X118102000Y-78192380D01*
X117959142Y-78240000D01*
X117863904Y-78335238D01*
X117816285Y-78430476D01*
X117768666Y-78620952D01*
X117768666Y-78763809D01*
X117816285Y-78954285D01*
X117863904Y-79049523D01*
X117959142Y-79144761D01*
X118102000Y-79192380D01*
X118340095Y-79192380D01*
X116816285Y-79192380D02*
X117387714Y-79192380D01*
X117102000Y-79192380D02*
X117102000Y-78192380D01*
X117197238Y-78335238D01*
X117292476Y-78430476D01*
X117387714Y-78478095D01*
D12*
X109824600Y-84347000D02*
X109824600Y-85607000D01*
X109824600Y-91167000D02*
X109824600Y-89907000D01*
X113584600Y-91167000D02*
X109824600Y-91167000D01*
X115834600Y-84347000D02*
X109824600Y-84347000D01*
X124400437Y-113176000D02*
X125686000Y-113176000D01*
X129091563Y-113176000D02*
X130156000Y-114240437D01*
X129091563Y-113176000D02*
X127806000Y-113176000D01*
X130156000Y-114240437D02*
X130156000Y-119996000D01*
X123336000Y-114240437D02*
X123336000Y-119996000D01*
X123336000Y-119996000D02*
X125686000Y-119996000D01*
X124898500Y-112148500D02*
X124898500Y-112936000D01*
X124400437Y-113176000D02*
X123336000Y-114240437D01*
X130156000Y-119996000D02*
X127806000Y-119996000D01*
X124504750Y-112542250D02*
X125292250Y-112542250D01*
X108984148Y-81942000D02*
X109506652Y-81942000D01*
X108984148Y-83412000D02*
X109506652Y-83412000D01*
X145061000Y-79782936D02*
X145061000Y-80237064D01*
X146531000Y-79782936D02*
X146531000Y-80237064D01*
X118764000Y-79648000D02*
X121114000Y-79648000D01*
X125584000Y-85403563D02*
X125584000Y-79648000D01*
X124519563Y-86468000D02*
X125584000Y-85403563D01*
X124021500Y-87495500D02*
X124021500Y-86708000D01*
X124519563Y-86468000D02*
X123234000Y-86468000D01*
X119828437Y-86468000D02*
X121114000Y-86468000D01*
X124415250Y-87101750D02*
X123627750Y-87101750D01*
X118764000Y-85403563D02*
X118764000Y-79648000D01*
X125584000Y-79648000D02*
X123234000Y-79648000D01*
X119828437Y-86468000D02*
X118764000Y-85403563D01*
X138873000Y-83927000D02*
X140823000Y-83927000D01*
X138873000Y-83927000D02*
X136923000Y-83927000D01*
X138873000Y-89047000D02*
X135423000Y-89047000D01*
X138873000Y-89047000D02*
X140823000Y-89047000D01*
X129769250Y-110871000D02*
X120879250Y-110871000D01*
D13*
X133561250Y-110871000D02*
X133561250Y-88871000D01*
D14*
X125451250Y-103251000D02*
X125451250Y-96901000D01*
X125451250Y-96901000D02*
X124181250Y-98171000D01*
D12*
X133561250Y-110871000D02*
X132817250Y-110871000D01*
D14*
X125451250Y-96901000D02*
X126721250Y-98171000D01*
D12*
X116561250Y-88773000D02*
X116561250Y-88871000D01*
X129261250Y-88773000D02*
X121133250Y-88773000D01*
X132690250Y-88773000D02*
X133561250Y-88773000D01*
D13*
X116561250Y-110871000D02*
X116561250Y-88871000D01*
D12*
X117704250Y-88773000D02*
X116561250Y-88773000D01*
X133561250Y-88773000D02*
X133561250Y-88871000D01*
X117577250Y-110871000D02*
X116561250Y-110871000D01*
X133561250Y-88773000D02*
X132690250Y-88773000D01*
X143494000Y-81156000D02*
X143494000Y-78356000D01*
X141494000Y-78356000D02*
X141494000Y-81156000D01*
X143494000Y-78356000D02*
X141494000Y-78356000D01*
X141494000Y-81156000D02*
X143494000Y-81156000D01*
X111579252Y-93245000D02*
X111056748Y-93245000D01*
X111579252Y-94715000D02*
X111056748Y-94715000D01*
X133611252Y-81053000D02*
X133088748Y-81053000D01*
X133611252Y-82523000D02*
X133088748Y-82523000D01*
X108210000Y-95386000D02*
X113910000Y-95386000D01*
X108210000Y-99686000D02*
X108210000Y-95386000D01*
X108210000Y-99686000D02*
X113910000Y-99686000D01*
X110614000Y-114570000D02*
X110614000Y-116570000D01*
X113414000Y-116570000D02*
X113414000Y-114570000D01*
X110614000Y-116570000D02*
X113414000Y-116570000D01*
X113414000Y-114570000D02*
X110614000Y-114570000D01*
X113056936Y-113511000D02*
X113511064Y-113511000D01*
X113056936Y-112041000D02*
X113511064Y-112041000D01*
X114527064Y-80545000D02*
X114072936Y-80545000D01*
X114527064Y-82015000D02*
X114072936Y-82015000D01*
X116160000Y-77754600D02*
X116160000Y-79674600D01*
X116160000Y-79674600D02*
X113300000Y-79674600D01*
X113300000Y-77754600D02*
X116160000Y-77754600D01*
%LPC*%
D15*
X114884600Y-85457000D03*
D16*
X108584600Y-87757000D03*
D15*
X114884600Y-87757000D03*
X114884600Y-90057000D03*
D17*
X122102000Y-119119000D03*
X113102000Y-119119000D03*
D18*
X116102000Y-115179000D03*
D19*
X119102000Y-115179000D03*
X116102000Y-118179000D03*
X119102000Y-118179000D03*
D20*
X144038400Y-119786400D03*
D21*
X141498400Y-119786400D03*
X138958400Y-119786400D03*
X136418400Y-119786400D03*
X133878400Y-119786400D03*
D22*
X110490000Y-108672000D03*
D23*
X110490000Y-103672000D03*
D20*
X150612000Y-97053000D03*
D21*
X148072000Y-97053000D03*
X145532000Y-97053000D03*
X142992000Y-97053000D03*
D20*
X150418800Y-103637000D03*
D21*
X150418800Y-106177000D03*
X150418800Y-108717000D03*
X150418800Y-111257000D03*
X150418800Y-113797000D03*
D17*
X145412000Y-83106000D03*
X145412000Y-92106000D03*
D24*
X149352000Y-86106000D03*
D19*
X149352000Y-89106000D03*
X146352000Y-86106000D03*
X146352000Y-89106000D03*
D25*
X126746000Y-113886000D03*
X126746000Y-119286000D03*
D26*
X108295400Y-82677000D03*
X110195400Y-82677000D03*
D27*
X145796000Y-79010000D03*
X145796000Y-81010000D03*
D28*
X122174000Y-85758000D03*
X122174000Y-80358000D03*
D29*
X136398000Y-88392000D03*
X136398000Y-87122000D03*
X136398000Y-85852000D03*
X136398000Y-84582000D03*
X141348000Y-84582000D03*
X141348000Y-85852000D03*
X141348000Y-87122000D03*
X141348000Y-88392000D03*
D30*
X119155250Y-109631000D03*
X131239250Y-109631000D03*
D31*
X119355250Y-89916000D03*
D32*
X131050250Y-90062000D03*
D33*
X142494000Y-80406000D03*
X142494000Y-79106000D03*
D34*
X112268000Y-93980000D03*
X110368000Y-93980000D03*
X134300000Y-81788000D03*
X132400000Y-81788000D03*
D35*
X109610000Y-97536000D03*
X113910000Y-97536000D03*
D36*
X112664000Y-115570000D03*
X111364000Y-115570000D03*
D37*
X112284000Y-112776000D03*
X114284000Y-112776000D03*
D38*
X115300000Y-81280000D03*
X113300000Y-81280000D03*
D39*
X115325000Y-78714600D03*
X113275000Y-78714600D03*
M02*
