G04 #@! TF.GenerationSoftware,KiCad,Pcbnew,6.0.4-6f826c9f35~116~ubuntu18.04.1*
G04 #@! TF.CreationDate,2022-04-26T12:07:31+08:00*
G04 #@! TF.ProjectId,ESP32_CAN_TEST,45535033-325f-4434-914e-5f544553542e,rev?*
G04 #@! TF.SameCoordinates,Original*
G04 #@! TF.FileFunction,Paste,Top*
G04 #@! TF.FilePolarity,Positive*
%FSLAX46Y46*%
G04 Gerber Fmt 4.6, Leading zero omitted, Abs format (unit mm)*
G04 Created by KiCad (PCBNEW 6.0.4-6f826c9f35~116~ubuntu18.04.1) date 2022-04-26 12:07:31*
%MOMM*%
%LPD*%
G01*
G04 APERTURE LIST*
G04 Aperture macros list*
%AMRoundRect*
0 Rectangle with rounded corners*
0 $1 Rounding radius*
0 $2 $3 $4 $5 $6 $7 $8 $9 X,Y pos of 4 corners*
0 Add a 4 corners polygon primitive as box body*
4,1,4,$2,$3,$4,$5,$6,$7,$8,$9,$2,$3,0*
0 Add four circle primitives for the rounded corners*
1,1,$1+$1,$2,$3*
1,1,$1+$1,$4,$5*
1,1,$1+$1,$6,$7*
1,1,$1+$1,$8,$9*
0 Add four rect primitives between the rounded corners*
20,1,$1+$1,$2,$3,$4,$5,0*
20,1,$1+$1,$4,$5,$6,$7,0*
20,1,$1+$1,$6,$7,$8,$9,0*
20,1,$1+$1,$8,$9,$2,$3,0*%
G04 Aperture macros list end*
%ADD10RoundRect,0.250000X-0.475000X0.250000X-0.475000X-0.250000X0.475000X-0.250000X0.475000X0.250000X0*%
%ADD11RoundRect,0.243750X-0.456250X0.243750X-0.456250X-0.243750X0.456250X-0.243750X0.456250X0.243750X0*%
%ADD12RoundRect,0.250000X-0.450000X0.325000X-0.450000X-0.325000X0.450000X-0.325000X0.450000X0.325000X0*%
%ADD13RoundRect,0.250000X-0.250000X-0.475000X0.250000X-0.475000X0.250000X0.475000X-0.250000X0.475000X0*%
%ADD14RoundRect,0.150000X-0.700000X0.150000X-0.700000X-0.150000X0.700000X-0.150000X0.700000X0.150000X0*%
%ADD15RoundRect,0.250000X-1.150000X0.250000X-1.150000X-0.250000X1.150000X-0.250000X1.150000X0.250000X0*%
%ADD16R,1.000000X1.700000*%
%ADD17R,0.900000X2.000000*%
%ADD18R,2.000000X0.900000*%
%ADD19R,5.000000X5.000000*%
%ADD20RoundRect,0.250000X0.450000X-0.350000X0.450000X0.350000X-0.450000X0.350000X-0.450000X-0.350000X0*%
%ADD21RoundRect,0.250000X-0.450000X0.350000X-0.450000X-0.350000X0.450000X-0.350000X0.450000X0.350000X0*%
%ADD22RoundRect,0.250000X-0.350000X-0.450000X0.350000X-0.450000X0.350000X0.450000X-0.350000X0.450000X0*%
G04 APERTURE END LIST*
D10*
X111760000Y-72710000D03*
X111760000Y-74610000D03*
D11*
X130048000Y-72214500D03*
X130048000Y-74089500D03*
D12*
X134112000Y-69079000D03*
X134112000Y-71129000D03*
D13*
X122494000Y-76200000D03*
X124394000Y-76200000D03*
X127508000Y-76200000D03*
X129408000Y-76200000D03*
D14*
X141814000Y-76591000D03*
X141814000Y-77841000D03*
D15*
X145164000Y-74741000D03*
X145164000Y-79691000D03*
D16*
X128148000Y-78638000D03*
X128148000Y-84938000D03*
X131948000Y-78638000D03*
X131948000Y-84938000D03*
D10*
X109220000Y-72710000D03*
X109220000Y-74610000D03*
D17*
X109093000Y-69460000D03*
X110363000Y-69460000D03*
X111633000Y-69460000D03*
X112903000Y-69460000D03*
X114173000Y-69460000D03*
X115443000Y-69460000D03*
X116713000Y-69460000D03*
X117983000Y-69460000D03*
X119253000Y-69460000D03*
X120523000Y-69460000D03*
X121793000Y-69460000D03*
X123063000Y-69460000D03*
X124333000Y-69460000D03*
X125603000Y-69460000D03*
D18*
X126603000Y-66675000D03*
X126603000Y-65405000D03*
X126603000Y-64135000D03*
X126603000Y-62865000D03*
X126603000Y-61595000D03*
X126603000Y-60325000D03*
X126603000Y-59055000D03*
X126603000Y-57785000D03*
X126603000Y-56515000D03*
X126603000Y-55245000D03*
D17*
X125603000Y-52460000D03*
X124333000Y-52460000D03*
X123063000Y-52460000D03*
X121793000Y-52460000D03*
X120523000Y-52460000D03*
X119253000Y-52460000D03*
X117983000Y-52460000D03*
X116713000Y-52460000D03*
X115443000Y-52460000D03*
X114173000Y-52460000D03*
X112903000Y-52460000D03*
X111633000Y-52460000D03*
X110363000Y-52460000D03*
X109093000Y-52460000D03*
D19*
X116593000Y-61960000D03*
D16*
X125852000Y-78638000D03*
X125852000Y-84938000D03*
X122052000Y-84938000D03*
X122052000Y-78638000D03*
D20*
X134112000Y-75152000D03*
X134112000Y-73152000D03*
D21*
X127508000Y-72152000D03*
X127508000Y-74152000D03*
D22*
X119396000Y-74168000D03*
X121396000Y-74168000D03*
M02*
