G04 #@! TF.GenerationSoftware,KiCad,Pcbnew,6.0.4-6f826c9f35~116~ubuntu18.04.1*
G04 #@! TF.CreationDate,2022-06-24T10:17:27+08:00*
G04 #@! TF.ProjectId,ESP32_CAN_TEST,45535033-325f-4434-914e-5f544553542e,rev?*
G04 #@! TF.SameCoordinates,Original*
G04 #@! TF.FileFunction,Paste,Top*
G04 #@! TF.FilePolarity,Positive*
%FSLAX46Y46*%
G04 Gerber Fmt 4.6, Leading zero omitted, Abs format (unit mm)*
G04 Created by KiCad (PCBNEW 6.0.4-6f826c9f35~116~ubuntu18.04.1) date 2022-06-24 10:17:27*
%MOMM*%
%LPD*%
G01*
G04 APERTURE LIST*
G04 Aperture macros list*
%AMRoundRect*
0 Rectangle with rounded corners*
0 $1 Rounding radius*
0 $2 $3 $4 $5 $6 $7 $8 $9 X,Y pos of 4 corners*
0 Add a 4 corners polygon primitive as box body*
4,1,4,$2,$3,$4,$5,$6,$7,$8,$9,$2,$3,0*
0 Add four circle primitives for the rounded corners*
1,1,$1+$1,$2,$3*
1,1,$1+$1,$4,$5*
1,1,$1+$1,$6,$7*
1,1,$1+$1,$8,$9*
0 Add four rect primitives between the rounded corners*
20,1,$1+$1,$2,$3,$4,$5,0*
20,1,$1+$1,$4,$5,$6,$7,0*
20,1,$1+$1,$6,$7,$8,$9,0*
20,1,$1+$1,$8,$9,$2,$3,0*%
G04 Aperture macros list end*
%ADD10RoundRect,0.250000X0.450000X-0.350000X0.450000X0.350000X-0.450000X0.350000X-0.450000X-0.350000X0*%
%ADD11RoundRect,0.243750X0.456250X-0.243750X0.456250X0.243750X-0.456250X0.243750X-0.456250X-0.243750X0*%
%ADD12R,1.700000X1.000000*%
%ADD13RoundRect,0.250000X-0.475000X0.250000X-0.475000X-0.250000X0.475000X-0.250000X0.475000X0.250000X0*%
%ADD14RoundRect,0.243750X-0.456250X0.243750X-0.456250X-0.243750X0.456250X-0.243750X0.456250X0.243750X0*%
%ADD15RoundRect,0.150000X0.825000X0.150000X-0.825000X0.150000X-0.825000X-0.150000X0.825000X-0.150000X0*%
%ADD16RoundRect,0.250000X0.475000X-0.250000X0.475000X0.250000X-0.475000X0.250000X-0.475000X-0.250000X0*%
%ADD17R,2.000000X0.900000*%
%ADD18R,0.900000X2.000000*%
%ADD19R,5.000000X5.000000*%
%ADD20RoundRect,0.150000X0.150000X0.700000X-0.150000X0.700000X-0.150000X-0.700000X0.150000X-0.700000X0*%
%ADD21RoundRect,0.250000X0.250000X1.150000X-0.250000X1.150000X-0.250000X-1.150000X0.250000X-1.150000X0*%
%ADD22RoundRect,0.250000X-0.450000X0.350000X-0.450000X-0.350000X0.450000X-0.350000X0.450000X0.350000X0*%
%ADD23RoundRect,0.250000X-0.250000X-0.475000X0.250000X-0.475000X0.250000X0.475000X-0.250000X0.475000X0*%
%ADD24R,2.500000X2.300000*%
G04 APERTURE END LIST*
D10*
X142240000Y-80772000D03*
X142240000Y-78772000D03*
D11*
X144780000Y-80439500D03*
X144780000Y-78564500D03*
D12*
X114656000Y-87498000D03*
X108356000Y-87498000D03*
X114656000Y-83698000D03*
X108356000Y-83698000D03*
X108330600Y-93898800D03*
X114630600Y-93898800D03*
X108330600Y-90098800D03*
X114630600Y-90098800D03*
D13*
X137922000Y-104140000D03*
X137922000Y-106040000D03*
D14*
X117856000Y-97868500D03*
X117856000Y-99743500D03*
D15*
X134555000Y-105791000D03*
X134555000Y-104521000D03*
X134555000Y-103251000D03*
X134555000Y-101981000D03*
X129605000Y-101981000D03*
X129605000Y-103251000D03*
X129605000Y-104521000D03*
X129605000Y-105791000D03*
D16*
X114046000Y-79182000D03*
X114046000Y-77282000D03*
X116332000Y-79182000D03*
X116332000Y-77282000D03*
D13*
X117094000Y-87442000D03*
X117094000Y-89342000D03*
D17*
X120786000Y-77851000D03*
X120786000Y-79121000D03*
X120786000Y-80391000D03*
X120786000Y-81661000D03*
X120786000Y-82931000D03*
X120786000Y-84201000D03*
X120786000Y-85471000D03*
X120786000Y-86741000D03*
X120786000Y-88011000D03*
X120786000Y-89281000D03*
X120786000Y-90551000D03*
X120786000Y-91821000D03*
X120786000Y-93091000D03*
X120786000Y-94361000D03*
D18*
X123571000Y-95361000D03*
X124841000Y-95361000D03*
X126111000Y-95361000D03*
X127381000Y-95361000D03*
X128651000Y-95361000D03*
X129921000Y-95361000D03*
X131191000Y-95361000D03*
X132461000Y-95361000D03*
X133731000Y-95361000D03*
X135001000Y-95361000D03*
D17*
X137786000Y-94361000D03*
X137786000Y-93091000D03*
X137786000Y-91821000D03*
X137786000Y-90551000D03*
X137786000Y-89281000D03*
X137786000Y-88011000D03*
X137786000Y-86741000D03*
X137786000Y-85471000D03*
X137786000Y-84201000D03*
X137786000Y-82931000D03*
X137786000Y-81661000D03*
X137786000Y-80391000D03*
X137786000Y-79121000D03*
X137786000Y-77851000D03*
D19*
X128286000Y-85351000D03*
D20*
X129149000Y-116160000D03*
X127899000Y-116160000D03*
D21*
X130999000Y-119510000D03*
X126049000Y-119510000D03*
D22*
X117094000Y-83582000D03*
X117094000Y-85582000D03*
D23*
X113451600Y-96189800D03*
X115351600Y-96189800D03*
D22*
X120396000Y-97552000D03*
X120396000Y-99552000D03*
D24*
X120768000Y-103632000D03*
X116468000Y-103632000D03*
M02*
