G04 #@! TF.GenerationSoftware,KiCad,Pcbnew,6.0.4-6f826c9f35~116~ubuntu18.04.1*
G04 #@! TF.CreationDate,2022-04-26T12:07:31+08:00*
G04 #@! TF.ProjectId,ESP32_CAN_TEST,45535033-325f-4434-914e-5f544553542e,rev?*
G04 #@! TF.SameCoordinates,Original*
G04 #@! TF.FileFunction,Legend,Top*
G04 #@! TF.FilePolarity,Positive*
%FSLAX46Y46*%
G04 Gerber Fmt 4.6, Leading zero omitted, Abs format (unit mm)*
G04 Created by KiCad (PCBNEW 6.0.4-6f826c9f35~116~ubuntu18.04.1) date 2022-04-26 12:07:31*
%MOMM*%
%LPD*%
G01*
G04 APERTURE LIST*
G04 Aperture macros list*
%AMRoundRect*
0 Rectangle with rounded corners*
0 $1 Rounding radius*
0 $2 $3 $4 $5 $6 $7 $8 $9 X,Y pos of 4 corners*
0 Add a 4 corners polygon primitive as box body*
4,1,4,$2,$3,$4,$5,$6,$7,$8,$9,$2,$3,0*
0 Add four circle primitives for the rounded corners*
1,1,$1+$1,$2,$3*
1,1,$1+$1,$4,$5*
1,1,$1+$1,$6,$7*
1,1,$1+$1,$8,$9*
0 Add four rect primitives between the rounded corners*
20,1,$1+$1,$2,$3,$4,$5,0*
20,1,$1+$1,$4,$5,$6,$7,0*
20,1,$1+$1,$6,$7,$8,$9,0*
20,1,$1+$1,$8,$9,$2,$3,0*%
G04 Aperture macros list end*
%ADD10C,0.150000*%
%ADD11C,0.120000*%
%ADD12RoundRect,0.250000X-0.475000X0.250000X-0.475000X-0.250000X0.475000X-0.250000X0.475000X0.250000X0*%
%ADD13RoundRect,0.243750X-0.456250X0.243750X-0.456250X-0.243750X0.456250X-0.243750X0.456250X0.243750X0*%
%ADD14C,1.200000*%
%ADD15RoundRect,0.250000X0.750000X-0.600000X0.750000X0.600000X-0.750000X0.600000X-0.750000X-0.600000X0*%
%ADD16O,2.000000X1.700000*%
%ADD17RoundRect,0.250000X-0.450000X0.325000X-0.450000X-0.325000X0.450000X-0.325000X0.450000X0.325000X0*%
%ADD18C,1.000000*%
%ADD19RoundRect,0.250001X0.499999X-0.499999X0.499999X0.499999X-0.499999X0.499999X-0.499999X-0.499999X0*%
%ADD20C,1.500000*%
%ADD21R,1.700000X1.700000*%
%ADD22O,1.700000X1.700000*%
%ADD23RoundRect,0.250000X-0.250000X-0.475000X0.250000X-0.475000X0.250000X0.475000X-0.250000X0.475000X0*%
%ADD24R,2.600000X2.600000*%
%ADD25C,2.600000*%
%ADD26RoundRect,0.150000X-0.700000X0.150000X-0.700000X-0.150000X0.700000X-0.150000X0.700000X0.150000X0*%
%ADD27RoundRect,0.250000X-1.150000X0.250000X-1.150000X-0.250000X1.150000X-0.250000X1.150000X0.250000X0*%
%ADD28R,1.000000X1.700000*%
%ADD29R,0.900000X2.000000*%
%ADD30R,2.000000X0.900000*%
%ADD31R,5.000000X5.000000*%
%ADD32RoundRect,0.250000X0.450000X-0.350000X0.450000X0.350000X-0.450000X0.350000X-0.450000X-0.350000X0*%
%ADD33RoundRect,0.250000X-0.450000X0.350000X-0.450000X-0.350000X0.450000X-0.350000X0.450000X0.350000X0*%
%ADD34RoundRect,0.250000X-0.350000X-0.450000X0.350000X-0.450000X0.350000X0.450000X-0.350000X0.450000X0*%
G04 APERTURE END LIST*
D10*
X120848380Y-44156190D02*
X119848380Y-44156190D01*
X119943619Y-43727619D02*
X119896000Y-43680000D01*
X119848380Y-43584761D01*
X119848380Y-43346666D01*
X119896000Y-43251428D01*
X119943619Y-43203809D01*
X120038857Y-43156190D01*
X120134095Y-43156190D01*
X120276952Y-43203809D01*
X120848380Y-43775238D01*
X120848380Y-43156190D01*
X120753142Y-42156190D02*
X120800761Y-42203809D01*
X120848380Y-42346666D01*
X120848380Y-42441904D01*
X120800761Y-42584761D01*
X120705523Y-42680000D01*
X120610285Y-42727619D01*
X120419809Y-42775238D01*
X120276952Y-42775238D01*
X120086476Y-42727619D01*
X119991238Y-42680000D01*
X119896000Y-42584761D01*
X119848380Y-42441904D01*
X119848380Y-42346666D01*
X119896000Y-42203809D01*
X119943619Y-42156190D01*
X113836571Y-45535809D02*
X113950857Y-45573904D01*
X114141333Y-45573904D01*
X114217523Y-45535809D01*
X114255619Y-45497714D01*
X114293714Y-45421523D01*
X114293714Y-45345333D01*
X114255619Y-45269142D01*
X114217523Y-45231047D01*
X114141333Y-45192952D01*
X113988952Y-45154857D01*
X113912761Y-45116761D01*
X113874666Y-45078666D01*
X113836571Y-45002476D01*
X113836571Y-44926285D01*
X113874666Y-44850095D01*
X113912761Y-44812000D01*
X113988952Y-44773904D01*
X114179428Y-44773904D01*
X114293714Y-44812000D01*
X114636571Y-45573904D02*
X114636571Y-44773904D01*
X114827047Y-44773904D01*
X114941333Y-44812000D01*
X115017523Y-44888190D01*
X115055619Y-44964380D01*
X115093714Y-45116761D01*
X115093714Y-45231047D01*
X115055619Y-45383428D01*
X115017523Y-45459619D01*
X114941333Y-45535809D01*
X114827047Y-45573904D01*
X114636571Y-45573904D01*
X115398476Y-45345333D02*
X115779428Y-45345333D01*
X115322285Y-45573904D02*
X115588952Y-44773904D01*
X115855619Y-45573904D01*
X108889904Y-49853904D02*
X109385142Y-49853904D01*
X109118476Y-50158666D01*
X109232761Y-50158666D01*
X109308952Y-50196761D01*
X109347047Y-50234857D01*
X109385142Y-50311047D01*
X109385142Y-50501523D01*
X109347047Y-50577714D01*
X109308952Y-50615809D01*
X109232761Y-50653904D01*
X109004190Y-50653904D01*
X108928000Y-50615809D01*
X108889904Y-50577714D01*
X109728000Y-50577714D02*
X109766095Y-50615809D01*
X109728000Y-50653904D01*
X109689904Y-50615809D01*
X109728000Y-50577714D01*
X109728000Y-50653904D01*
X110032761Y-49853904D02*
X110528000Y-49853904D01*
X110261333Y-50158666D01*
X110375619Y-50158666D01*
X110451809Y-50196761D01*
X110489904Y-50234857D01*
X110528000Y-50311047D01*
X110528000Y-50501523D01*
X110489904Y-50577714D01*
X110451809Y-50615809D01*
X110375619Y-50653904D01*
X110147047Y-50653904D01*
X110070857Y-50615809D01*
X110032761Y-50577714D01*
X119848380Y-49347238D02*
X120657904Y-49347238D01*
X120753142Y-49299619D01*
X120800761Y-49252000D01*
X120848380Y-49156761D01*
X120848380Y-48966285D01*
X120800761Y-48871047D01*
X120753142Y-48823428D01*
X120657904Y-48775809D01*
X119848380Y-48775809D01*
X120562666Y-48347238D02*
X120562666Y-47871047D01*
X120848380Y-48442476D02*
X119848380Y-48109142D01*
X120848380Y-47775809D01*
X120848380Y-46871047D02*
X120372190Y-47204380D01*
X120848380Y-47442476D02*
X119848380Y-47442476D01*
X119848380Y-47061523D01*
X119896000Y-46966285D01*
X119943619Y-46918666D01*
X120038857Y-46871047D01*
X120181714Y-46871047D01*
X120276952Y-46918666D01*
X120324571Y-46966285D01*
X120372190Y-47061523D01*
X120372190Y-47442476D01*
X119848380Y-46585333D02*
X119848380Y-46013904D01*
X120848380Y-46299619D02*
X119848380Y-46299619D01*
X117246476Y-44812000D02*
X117170285Y-44773904D01*
X117056000Y-44773904D01*
X116941714Y-44812000D01*
X116865523Y-44888190D01*
X116827428Y-44964380D01*
X116789333Y-45116761D01*
X116789333Y-45231047D01*
X116827428Y-45383428D01*
X116865523Y-45459619D01*
X116941714Y-45535809D01*
X117056000Y-45573904D01*
X117132190Y-45573904D01*
X117246476Y-45535809D01*
X117284571Y-45497714D01*
X117284571Y-45231047D01*
X117132190Y-45231047D01*
X117627428Y-45573904D02*
X117627428Y-44773904D01*
X118084571Y-45573904D01*
X118084571Y-44773904D01*
X118465523Y-45573904D02*
X118465523Y-44773904D01*
X118656000Y-44773904D01*
X118770285Y-44812000D01*
X118846476Y-44888190D01*
X118884571Y-44964380D01*
X118922666Y-45116761D01*
X118922666Y-45231047D01*
X118884571Y-45383428D01*
X118846476Y-45459619D01*
X118770285Y-45535809D01*
X118656000Y-45573904D01*
X118465523Y-45573904D01*
X114731809Y-50653904D02*
X114465142Y-50272952D01*
X114274666Y-50653904D02*
X114274666Y-49853904D01*
X114579428Y-49853904D01*
X114655619Y-49892000D01*
X114693714Y-49930095D01*
X114731809Y-50006285D01*
X114731809Y-50120571D01*
X114693714Y-50196761D01*
X114655619Y-50234857D01*
X114579428Y-50272952D01*
X114274666Y-50272952D01*
X114998476Y-50653904D02*
X115417523Y-50120571D01*
X114998476Y-50120571D02*
X115417523Y-50653904D01*
X137299571Y-62872190D02*
X137299571Y-62538857D01*
X137823380Y-62396000D02*
X137823380Y-62872190D01*
X136823380Y-62872190D01*
X136823380Y-62396000D01*
X137775761Y-62015047D02*
X137823380Y-61872190D01*
X137823380Y-61634095D01*
X137775761Y-61538857D01*
X137728142Y-61491238D01*
X137632904Y-61443619D01*
X137537666Y-61443619D01*
X137442428Y-61491238D01*
X137394809Y-61538857D01*
X137347190Y-61634095D01*
X137299571Y-61824571D01*
X137251952Y-61919809D01*
X137204333Y-61967428D01*
X137109095Y-62015047D01*
X137013857Y-62015047D01*
X136918619Y-61967428D01*
X136871000Y-61919809D01*
X136823380Y-61824571D01*
X136823380Y-61586476D01*
X136871000Y-61443619D01*
X137823380Y-61015047D02*
X136823380Y-61015047D01*
X136823380Y-60634095D01*
X136871000Y-60538857D01*
X136918619Y-60491238D01*
X137013857Y-60443619D01*
X137156714Y-60443619D01*
X137251952Y-60491238D01*
X137299571Y-60538857D01*
X137347190Y-60634095D01*
X137347190Y-61015047D01*
X136823380Y-60110285D02*
X136823380Y-59491238D01*
X137204333Y-59824571D01*
X137204333Y-59681714D01*
X137251952Y-59586476D01*
X137299571Y-59538857D01*
X137394809Y-59491238D01*
X137632904Y-59491238D01*
X137728142Y-59538857D01*
X137775761Y-59586476D01*
X137823380Y-59681714D01*
X137823380Y-59967428D01*
X137775761Y-60062666D01*
X137728142Y-60110285D01*
X136918619Y-59110285D02*
X136871000Y-59062666D01*
X136823380Y-58967428D01*
X136823380Y-58729333D01*
X136871000Y-58634095D01*
X136918619Y-58586476D01*
X137013857Y-58538857D01*
X137109095Y-58538857D01*
X137251952Y-58586476D01*
X137823380Y-59157904D01*
X137823380Y-58538857D01*
X137918619Y-58348380D02*
X137918619Y-57586476D01*
X137823380Y-57348380D02*
X136823380Y-57348380D01*
X137537666Y-57015047D01*
X136823380Y-56681714D01*
X137823380Y-56681714D01*
X137823380Y-56205523D02*
X137156714Y-56205523D01*
X136823380Y-56205523D02*
X136871000Y-56253142D01*
X136918619Y-56205523D01*
X136871000Y-56157904D01*
X136823380Y-56205523D01*
X136918619Y-56205523D01*
X137156714Y-55729333D02*
X137823380Y-55729333D01*
X137251952Y-55729333D02*
X137204333Y-55681714D01*
X137156714Y-55586476D01*
X137156714Y-55443619D01*
X137204333Y-55348380D01*
X137299571Y-55300761D01*
X137823380Y-55300761D01*
X137823380Y-54824571D02*
X137156714Y-54824571D01*
X136823380Y-54824571D02*
X136871000Y-54872190D01*
X136918619Y-54824571D01*
X136871000Y-54776952D01*
X136823380Y-54824571D01*
X136918619Y-54824571D01*
X137299571Y-54015047D02*
X137347190Y-53872190D01*
X137394809Y-53824571D01*
X137490047Y-53776952D01*
X137632904Y-53776952D01*
X137728142Y-53824571D01*
X137775761Y-53872190D01*
X137823380Y-53967428D01*
X137823380Y-54348380D01*
X136823380Y-54348380D01*
X136823380Y-54015047D01*
X136871000Y-53919809D01*
X136918619Y-53872190D01*
X137013857Y-53824571D01*
X137109095Y-53824571D01*
X137204333Y-53872190D01*
X137251952Y-53919809D01*
X137299571Y-54015047D01*
X137299571Y-54348380D01*
X137823380Y-53348380D02*
X137156714Y-53348380D01*
X137347190Y-53348380D02*
X137251952Y-53300761D01*
X137204333Y-53253142D01*
X137156714Y-53157904D01*
X137156714Y-53062666D01*
X137823380Y-52300761D02*
X137299571Y-52300761D01*
X137204333Y-52348380D01*
X137156714Y-52443619D01*
X137156714Y-52634095D01*
X137204333Y-52729333D01*
X137775761Y-52300761D02*
X137823380Y-52396000D01*
X137823380Y-52634095D01*
X137775761Y-52729333D01*
X137680523Y-52776952D01*
X137585285Y-52776952D01*
X137490047Y-52729333D01*
X137442428Y-52634095D01*
X137442428Y-52396000D01*
X137394809Y-52300761D01*
X137823380Y-51824571D02*
X137156714Y-51824571D01*
X136823380Y-51824571D02*
X136871000Y-51872190D01*
X136918619Y-51824571D01*
X136871000Y-51776952D01*
X136823380Y-51824571D01*
X136918619Y-51824571D01*
X137156714Y-51348380D02*
X137823380Y-51348380D01*
X137251952Y-51348380D02*
X137204333Y-51300761D01*
X137156714Y-51205523D01*
X137156714Y-51062666D01*
X137204333Y-50967428D01*
X137299571Y-50919809D01*
X137823380Y-50919809D01*
X138909571Y-62348380D02*
X138957190Y-62205523D01*
X139004809Y-62157904D01*
X139100047Y-62110285D01*
X139242904Y-62110285D01*
X139338142Y-62157904D01*
X139385761Y-62205523D01*
X139433380Y-62300761D01*
X139433380Y-62681714D01*
X138433380Y-62681714D01*
X138433380Y-62348380D01*
X138481000Y-62253142D01*
X138528619Y-62205523D01*
X138623857Y-62157904D01*
X138719095Y-62157904D01*
X138814333Y-62205523D01*
X138861952Y-62253142D01*
X138909571Y-62348380D01*
X138909571Y-62681714D01*
X138766714Y-61776952D02*
X139433380Y-61538857D01*
X138766714Y-61300761D02*
X139433380Y-61538857D01*
X139671476Y-61634095D01*
X139719095Y-61681714D01*
X139766714Y-61776952D01*
X139385761Y-60205523D02*
X139433380Y-60062666D01*
X139433380Y-59824571D01*
X139385761Y-59729333D01*
X139338142Y-59681714D01*
X139242904Y-59634095D01*
X139147666Y-59634095D01*
X139052428Y-59681714D01*
X139004809Y-59729333D01*
X138957190Y-59824571D01*
X138909571Y-60015047D01*
X138861952Y-60110285D01*
X138814333Y-60157904D01*
X138719095Y-60205523D01*
X138623857Y-60205523D01*
X138528619Y-60157904D01*
X138481000Y-60110285D01*
X138433380Y-60015047D01*
X138433380Y-59776952D01*
X138481000Y-59634095D01*
X139433380Y-58776952D02*
X138909571Y-58776952D01*
X138814333Y-58824571D01*
X138766714Y-58919809D01*
X138766714Y-59110285D01*
X138814333Y-59205523D01*
X139385761Y-58776952D02*
X139433380Y-58872190D01*
X139433380Y-59110285D01*
X139385761Y-59205523D01*
X139290523Y-59253142D01*
X139195285Y-59253142D01*
X139100047Y-59205523D01*
X139052428Y-59110285D01*
X139052428Y-58872190D01*
X139004809Y-58776952D01*
X139433380Y-58300761D02*
X138766714Y-58300761D01*
X138861952Y-58300761D02*
X138814333Y-58253142D01*
X138766714Y-58157904D01*
X138766714Y-58015047D01*
X138814333Y-57919809D01*
X138909571Y-57872190D01*
X139433380Y-57872190D01*
X138909571Y-57872190D02*
X138814333Y-57824571D01*
X138766714Y-57729333D01*
X138766714Y-57586476D01*
X138814333Y-57491238D01*
X138909571Y-57443619D01*
X139433380Y-57443619D01*
X139385761Y-57015047D02*
X139433380Y-56919809D01*
X139433380Y-56729333D01*
X139385761Y-56634095D01*
X139290523Y-56586476D01*
X139242904Y-56586476D01*
X139147666Y-56634095D01*
X139100047Y-56729333D01*
X139100047Y-56872190D01*
X139052428Y-56967428D01*
X138957190Y-57015047D01*
X138909571Y-57015047D01*
X138814333Y-56967428D01*
X138766714Y-56872190D01*
X138766714Y-56729333D01*
X138814333Y-56634095D01*
X139433380Y-56015047D02*
X139385761Y-56110285D01*
X139338142Y-56157904D01*
X139242904Y-56205523D01*
X138957190Y-56205523D01*
X138861952Y-56157904D01*
X138814333Y-56110285D01*
X138766714Y-56015047D01*
X138766714Y-55872190D01*
X138814333Y-55776952D01*
X138861952Y-55729333D01*
X138957190Y-55681714D01*
X139242904Y-55681714D01*
X139338142Y-55729333D01*
X139385761Y-55776952D01*
X139433380Y-55872190D01*
X139433380Y-56015047D01*
X138766714Y-55253142D02*
X139433380Y-55253142D01*
X138861952Y-55253142D02*
X138814333Y-55205523D01*
X138766714Y-55110285D01*
X138766714Y-54967428D01*
X138814333Y-54872190D01*
X138909571Y-54824571D01*
X139433380Y-54824571D01*
X139338142Y-53776952D02*
X139385761Y-53824571D01*
X139433380Y-53967428D01*
X139433380Y-54062666D01*
X139385761Y-54205523D01*
X139290523Y-54300761D01*
X139195285Y-54348380D01*
X139004809Y-54396000D01*
X138861952Y-54396000D01*
X138671476Y-54348380D01*
X138576238Y-54300761D01*
X138481000Y-54205523D01*
X138433380Y-54062666D01*
X138433380Y-53967428D01*
X138481000Y-53824571D01*
X138528619Y-53776952D01*
X139433380Y-53348380D02*
X138433380Y-53348380D01*
X139433380Y-52919809D02*
X138909571Y-52919809D01*
X138814333Y-52967428D01*
X138766714Y-53062666D01*
X138766714Y-53205523D01*
X138814333Y-53300761D01*
X138861952Y-53348380D01*
X139433380Y-52015047D02*
X138909571Y-52015047D01*
X138814333Y-52062666D01*
X138766714Y-52157904D01*
X138766714Y-52348380D01*
X138814333Y-52443619D01*
X139385761Y-52015047D02*
X139433380Y-52110285D01*
X139433380Y-52348380D01*
X139385761Y-52443619D01*
X139290523Y-52491238D01*
X139195285Y-52491238D01*
X139100047Y-52443619D01*
X139052428Y-52348380D01*
X139052428Y-52110285D01*
X139004809Y-52015047D01*
X138766714Y-51110285D02*
X139433380Y-51110285D01*
X138766714Y-51538857D02*
X139290523Y-51538857D01*
X139385761Y-51491238D01*
X139433380Y-51396000D01*
X139433380Y-51253142D01*
X139385761Y-51157904D01*
X139338142Y-51110285D01*
X111315619Y-45535809D02*
X111429904Y-45573904D01*
X111620380Y-45573904D01*
X111696571Y-45535809D01*
X111734666Y-45497714D01*
X111772761Y-45421523D01*
X111772761Y-45345333D01*
X111734666Y-45269142D01*
X111696571Y-45231047D01*
X111620380Y-45192952D01*
X111468000Y-45154857D01*
X111391809Y-45116761D01*
X111353714Y-45078666D01*
X111315619Y-45002476D01*
X111315619Y-44926285D01*
X111353714Y-44850095D01*
X111391809Y-44812000D01*
X111468000Y-44773904D01*
X111658476Y-44773904D01*
X111772761Y-44812000D01*
X112572761Y-45497714D02*
X112534666Y-45535809D01*
X112420380Y-45573904D01*
X112344190Y-45573904D01*
X112229904Y-45535809D01*
X112153714Y-45459619D01*
X112115619Y-45383428D01*
X112077523Y-45231047D01*
X112077523Y-45116761D01*
X112115619Y-44964380D01*
X112153714Y-44888190D01*
X112229904Y-44812000D01*
X112344190Y-44773904D01*
X112420380Y-44773904D01*
X112534666Y-44812000D01*
X112572761Y-44850095D01*
X113296571Y-45573904D02*
X112915619Y-45573904D01*
X112915619Y-44773904D01*
X126997904Y-42824380D02*
X126997904Y-43205333D01*
X127378857Y-43243428D01*
X127340761Y-43205333D01*
X127302666Y-43129142D01*
X127302666Y-42938666D01*
X127340761Y-42862476D01*
X127378857Y-42824380D01*
X127455047Y-42786285D01*
X127645523Y-42786285D01*
X127721714Y-42824380D01*
X127759809Y-42862476D01*
X127797904Y-42938666D01*
X127797904Y-43129142D01*
X127759809Y-43205333D01*
X127721714Y-43243428D01*
X126997904Y-42557714D02*
X127797904Y-42291047D01*
X126997904Y-42024380D01*
X130145333Y-42862476D02*
X130145333Y-42481523D01*
X130373904Y-42938666D02*
X129573904Y-42672000D01*
X130373904Y-42405333D01*
X132530857Y-42614857D02*
X132568952Y-42500571D01*
X132607047Y-42462476D01*
X132683238Y-42424380D01*
X132797523Y-42424380D01*
X132873714Y-42462476D01*
X132911809Y-42500571D01*
X132949904Y-42576761D01*
X132949904Y-42881523D01*
X132149904Y-42881523D01*
X132149904Y-42614857D01*
X132188000Y-42538666D01*
X132226095Y-42500571D01*
X132302285Y-42462476D01*
X132378476Y-42462476D01*
X132454666Y-42500571D01*
X132492761Y-42538666D01*
X132530857Y-42614857D01*
X132530857Y-42881523D01*
X134992571Y-42881523D02*
X134992571Y-42462476D01*
X135525904Y-42881523D01*
X135525904Y-42462476D01*
X137340000Y-43281523D02*
X137301904Y-43357714D01*
X137301904Y-43472000D01*
X137340000Y-43586285D01*
X137416190Y-43662476D01*
X137492380Y-43700571D01*
X137644761Y-43738666D01*
X137759047Y-43738666D01*
X137911428Y-43700571D01*
X137987619Y-43662476D01*
X138063809Y-43586285D01*
X138101904Y-43472000D01*
X138101904Y-43395809D01*
X138063809Y-43281523D01*
X138025714Y-43243428D01*
X137759047Y-43243428D01*
X137759047Y-43395809D01*
X138101904Y-42900571D02*
X137301904Y-42900571D01*
X138101904Y-42443428D01*
X137301904Y-42443428D01*
X138101904Y-42062476D02*
X137301904Y-42062476D01*
X137301904Y-41872000D01*
X137340000Y-41757714D01*
X137416190Y-41681523D01*
X137492380Y-41643428D01*
X137644761Y-41605333D01*
X137759047Y-41605333D01*
X137911428Y-41643428D01*
X137987619Y-41681523D01*
X138063809Y-41757714D01*
X138101904Y-41872000D01*
X138101904Y-42062476D01*
X108889904Y-44773904D02*
X109385142Y-44773904D01*
X109118476Y-45078666D01*
X109232761Y-45078666D01*
X109308952Y-45116761D01*
X109347047Y-45154857D01*
X109385142Y-45231047D01*
X109385142Y-45421523D01*
X109347047Y-45497714D01*
X109308952Y-45535809D01*
X109232761Y-45573904D01*
X109004190Y-45573904D01*
X108928000Y-45535809D01*
X108889904Y-45497714D01*
X109728000Y-45497714D02*
X109766095Y-45535809D01*
X109728000Y-45573904D01*
X109689904Y-45535809D01*
X109728000Y-45497714D01*
X109728000Y-45573904D01*
X110032761Y-44773904D02*
X110528000Y-44773904D01*
X110261333Y-45078666D01*
X110375619Y-45078666D01*
X110451809Y-45116761D01*
X110489904Y-45154857D01*
X110528000Y-45231047D01*
X110528000Y-45421523D01*
X110489904Y-45497714D01*
X110451809Y-45535809D01*
X110375619Y-45573904D01*
X110147047Y-45573904D01*
X110070857Y-45535809D01*
X110032761Y-45497714D01*
X107148380Y-80581333D02*
X107148380Y-81057523D01*
X107624571Y-81105142D01*
X107576952Y-81057523D01*
X107529333Y-80962285D01*
X107529333Y-80724190D01*
X107576952Y-80628952D01*
X107624571Y-80581333D01*
X107719809Y-80533714D01*
X107957904Y-80533714D01*
X108053142Y-80581333D01*
X108100761Y-80628952D01*
X108148380Y-80724190D01*
X108148380Y-80962285D01*
X108100761Y-81057523D01*
X108053142Y-81105142D01*
X107148380Y-80248000D02*
X108148380Y-79914666D01*
X107148380Y-79581333D01*
X108243619Y-79486095D02*
X108243619Y-78724190D01*
X108148380Y-78486095D02*
X107148380Y-78486095D01*
X108148380Y-78009904D02*
X107148380Y-78009904D01*
X108148380Y-77438476D01*
X107148380Y-77438476D01*
X132040761Y-48188571D02*
X132374095Y-48188571D01*
X132516952Y-48712380D02*
X132040761Y-48712380D01*
X132040761Y-47712380D01*
X132516952Y-47712380D01*
X132945523Y-48045714D02*
X132945523Y-48712380D01*
X132945523Y-48140952D02*
X132993142Y-48093333D01*
X133088380Y-48045714D01*
X133231238Y-48045714D01*
X133326476Y-48093333D01*
X133374095Y-48188571D01*
X133374095Y-48712380D01*
X134278857Y-48664761D02*
X134183619Y-48712380D01*
X133993142Y-48712380D01*
X133897904Y-48664761D01*
X133850285Y-48617142D01*
X133802666Y-48521904D01*
X133802666Y-48236190D01*
X133850285Y-48140952D01*
X133897904Y-48093333D01*
X133993142Y-48045714D01*
X134183619Y-48045714D01*
X134278857Y-48093333D01*
X134850285Y-48712380D02*
X134755047Y-48664761D01*
X134707428Y-48617142D01*
X134659809Y-48521904D01*
X134659809Y-48236190D01*
X134707428Y-48140952D01*
X134755047Y-48093333D01*
X134850285Y-48045714D01*
X134993142Y-48045714D01*
X135088380Y-48093333D01*
X135136000Y-48140952D01*
X135183619Y-48236190D01*
X135183619Y-48521904D01*
X135136000Y-48617142D01*
X135088380Y-48664761D01*
X134993142Y-48712380D01*
X134850285Y-48712380D01*
X136040761Y-48712380D02*
X136040761Y-47712380D01*
X136040761Y-48664761D02*
X135945523Y-48712380D01*
X135755047Y-48712380D01*
X135659809Y-48664761D01*
X135612190Y-48617142D01*
X135564571Y-48521904D01*
X135564571Y-48236190D01*
X135612190Y-48140952D01*
X135659809Y-48093333D01*
X135755047Y-48045714D01*
X135945523Y-48045714D01*
X136040761Y-48093333D01*
X136897904Y-48664761D02*
X136802666Y-48712380D01*
X136612190Y-48712380D01*
X136516952Y-48664761D01*
X136469333Y-48569523D01*
X136469333Y-48188571D01*
X136516952Y-48093333D01*
X136612190Y-48045714D01*
X136802666Y-48045714D01*
X136897904Y-48093333D01*
X136945523Y-48188571D01*
X136945523Y-48283809D01*
X136469333Y-48379047D01*
X137374095Y-48712380D02*
X137374095Y-48045714D01*
X137374095Y-48236190D02*
X137421714Y-48140952D01*
X137469333Y-48093333D01*
X137564571Y-48045714D01*
X137659809Y-48045714D01*
X137755047Y-48807619D02*
X138516952Y-48807619D01*
X139278857Y-48712380D02*
X138707428Y-48712380D01*
X138993142Y-48712380D02*
X138993142Y-47712380D01*
X138897904Y-47855238D01*
X138802666Y-47950476D01*
X138707428Y-47998095D01*
X117246476Y-49892000D02*
X117170285Y-49853904D01*
X117056000Y-49853904D01*
X116941714Y-49892000D01*
X116865523Y-49968190D01*
X116827428Y-50044380D01*
X116789333Y-50196761D01*
X116789333Y-50311047D01*
X116827428Y-50463428D01*
X116865523Y-50539619D01*
X116941714Y-50615809D01*
X117056000Y-50653904D01*
X117132190Y-50653904D01*
X117246476Y-50615809D01*
X117284571Y-50577714D01*
X117284571Y-50311047D01*
X117132190Y-50311047D01*
X117627428Y-50653904D02*
X117627428Y-49853904D01*
X118084571Y-50653904D01*
X118084571Y-49853904D01*
X118465523Y-50653904D02*
X118465523Y-49853904D01*
X118656000Y-49853904D01*
X118770285Y-49892000D01*
X118846476Y-49968190D01*
X118884571Y-50044380D01*
X118922666Y-50196761D01*
X118922666Y-50311047D01*
X118884571Y-50463428D01*
X118846476Y-50539619D01*
X118770285Y-50615809D01*
X118656000Y-50653904D01*
X118465523Y-50653904D01*
X144627619Y-49273904D02*
X144246666Y-49273904D01*
X144208571Y-49654857D01*
X144246666Y-49616761D01*
X144322857Y-49578666D01*
X144513333Y-49578666D01*
X144589523Y-49616761D01*
X144627619Y-49654857D01*
X144665714Y-49731047D01*
X144665714Y-49921523D01*
X144627619Y-49997714D01*
X144589523Y-50035809D01*
X144513333Y-50073904D01*
X144322857Y-50073904D01*
X144246666Y-50035809D01*
X144208571Y-49997714D01*
X144894285Y-49273904D02*
X145160952Y-50073904D01*
X145427619Y-49273904D01*
X144589523Y-52421333D02*
X144970476Y-52421333D01*
X144513333Y-52649904D02*
X144780000Y-51849904D01*
X145046666Y-52649904D01*
X144837142Y-54806857D02*
X144951428Y-54844952D01*
X144989523Y-54883047D01*
X145027619Y-54959238D01*
X145027619Y-55073523D01*
X144989523Y-55149714D01*
X144951428Y-55187809D01*
X144875238Y-55225904D01*
X144570476Y-55225904D01*
X144570476Y-54425904D01*
X144837142Y-54425904D01*
X144913333Y-54464000D01*
X144951428Y-54502095D01*
X144989523Y-54578285D01*
X144989523Y-54654476D01*
X144951428Y-54730666D01*
X144913333Y-54768761D01*
X144837142Y-54806857D01*
X144570476Y-54806857D01*
X144570476Y-57268571D02*
X144989523Y-57268571D01*
X144570476Y-57801904D01*
X144989523Y-57801904D01*
X144170476Y-59616000D02*
X144094285Y-59577904D01*
X143980000Y-59577904D01*
X143865714Y-59616000D01*
X143789523Y-59692190D01*
X143751428Y-59768380D01*
X143713333Y-59920761D01*
X143713333Y-60035047D01*
X143751428Y-60187428D01*
X143789523Y-60263619D01*
X143865714Y-60339809D01*
X143980000Y-60377904D01*
X144056190Y-60377904D01*
X144170476Y-60339809D01*
X144208571Y-60301714D01*
X144208571Y-60035047D01*
X144056190Y-60035047D01*
X144551428Y-60377904D02*
X144551428Y-59577904D01*
X145008571Y-60377904D01*
X145008571Y-59577904D01*
X145389523Y-60377904D02*
X145389523Y-59577904D01*
X145580000Y-59577904D01*
X145694285Y-59616000D01*
X145770476Y-59692190D01*
X145808571Y-59768380D01*
X145846666Y-59920761D01*
X145846666Y-60035047D01*
X145808571Y-60187428D01*
X145770476Y-60263619D01*
X145694285Y-60339809D01*
X145580000Y-60377904D01*
X145389523Y-60377904D01*
X111715619Y-49853904D02*
X112172761Y-49853904D01*
X111944190Y-50653904D02*
X111944190Y-49853904D01*
X112363238Y-50653904D02*
X112782285Y-50120571D01*
X112363238Y-50120571D02*
X112782285Y-50653904D01*
D11*
X111025000Y-73398748D02*
X111025000Y-73921252D01*
X112495000Y-73398748D02*
X112495000Y-73921252D01*
G36*
X133508391Y-54275712D02*
G01*
X133502762Y-54413680D01*
X133484684Y-54498540D01*
X133460587Y-54534245D01*
X133438022Y-54568139D01*
X133423430Y-54632198D01*
X133415473Y-54737124D01*
X133412810Y-54893619D01*
X133412783Y-54916200D01*
X133414904Y-55079551D01*
X133422160Y-55190058D01*
X133435892Y-55258423D01*
X133457437Y-55295349D01*
X133460587Y-55298155D01*
X133491070Y-55352151D01*
X133506109Y-55455404D01*
X133508391Y-55542438D01*
X133508391Y-55747096D01*
X133341851Y-55737475D01*
X133267627Y-55731347D01*
X133210005Y-55717725D01*
X133166877Y-55689336D01*
X133136137Y-55638901D01*
X133115678Y-55559145D01*
X133103393Y-55442792D01*
X133097174Y-55282565D01*
X133094915Y-55071189D01*
X133094558Y-54883496D01*
X133094961Y-54633108D01*
X133098046Y-54439171D01*
X133106047Y-54294477D01*
X133121199Y-54191820D01*
X133145735Y-54123992D01*
X133181891Y-54083786D01*
X133231900Y-54063995D01*
X133297996Y-54057412D01*
X133350851Y-54056802D01*
X133508391Y-54056802D01*
X133508391Y-54275712D01*
G37*
G36*
X131375264Y-67435679D02*
G01*
X131243852Y-67398586D01*
X131154157Y-67370004D01*
X131121287Y-67356116D01*
X131070499Y-67313507D01*
X131034300Y-67252324D01*
X131010488Y-67162479D01*
X130996863Y-67033882D01*
X130991221Y-66856445D01*
X130990700Y-66757746D01*
X130991310Y-66588495D01*
X130994532Y-66470055D01*
X130994624Y-66469123D01*
X131309395Y-66469123D01*
X131309395Y-67096202D01*
X131452808Y-67128978D01*
X131596221Y-67161755D01*
X131596221Y-66850020D01*
X131594829Y-66704475D01*
X131589301Y-66610650D01*
X131577605Y-66556641D01*
X131557709Y-66530544D01*
X131540449Y-66523183D01*
X131466850Y-66504762D01*
X131397036Y-66488602D01*
X131309395Y-66469123D01*
X130994624Y-66469123D01*
X131002452Y-66389583D01*
X131017158Y-66334233D01*
X131040736Y-66291160D01*
X131073207Y-66249971D01*
X131139487Y-66189758D01*
X131220430Y-66158080D01*
X131328525Y-66153651D01*
X131476258Y-66175188D01*
X131579835Y-66197848D01*
X131702708Y-66231405D01*
X131791402Y-66272270D01*
X131851413Y-66330663D01*
X131888236Y-66416807D01*
X131907368Y-66540919D01*
X131914304Y-66713222D01*
X131914916Y-66821009D01*
X131914916Y-67231792D01*
X132036163Y-67264399D01*
X132146802Y-67292237D01*
X132252248Y-67315932D01*
X132259249Y-67317349D01*
X132317766Y-67332416D01*
X132348051Y-67359138D01*
X132359394Y-67415173D01*
X132361089Y-67510920D01*
X132358496Y-67610223D01*
X132347574Y-67659152D01*
X132323611Y-67670891D01*
X132305317Y-67666949D01*
X132256892Y-67654097D01*
X132157912Y-67629340D01*
X132019835Y-67595492D01*
X131854117Y-67555367D01*
X131716573Y-67522365D01*
X131596221Y-67492693D01*
X131536726Y-67478025D01*
X131375264Y-67435679D01*
G37*
G36*
X133508391Y-62313171D02*
G01*
X133503915Y-62434909D01*
X133488835Y-62505002D01*
X133460674Y-62534946D01*
X133460587Y-62534979D01*
X133440093Y-62553850D01*
X133426198Y-62598510D01*
X133417773Y-62678816D01*
X133413687Y-62804627D01*
X133412783Y-62952169D01*
X133413907Y-63120950D01*
X133418044Y-63235662D01*
X133426340Y-63305871D01*
X133439941Y-63341140D01*
X133459993Y-63351033D01*
X133460587Y-63351037D01*
X133487401Y-63364850D01*
X133502305Y-63414204D01*
X133508041Y-63510975D01*
X133508391Y-63557930D01*
X133508391Y-63764822D01*
X133094088Y-63764822D01*
X133094088Y-63007994D01*
X133094501Y-62745780D01*
X133097058Y-62540306D01*
X133103736Y-62384657D01*
X133116513Y-62271915D01*
X133137366Y-62195161D01*
X133168271Y-62147479D01*
X133211207Y-62121952D01*
X133268149Y-62111661D01*
X133341077Y-62109690D01*
X133350851Y-62109684D01*
X133508391Y-62109684D01*
X133508391Y-62313171D01*
G37*
G36*
X135133736Y-59308682D02*
G01*
X134946503Y-59308682D01*
X134841559Y-59306957D01*
X134783567Y-59296608D01*
X134755745Y-59269868D01*
X134741313Y-59218973D01*
X134740148Y-59213193D01*
X134732340Y-59107261D01*
X134740148Y-59022215D01*
X134754211Y-58968870D01*
X134780215Y-58940351D01*
X134834941Y-58928893D01*
X134935169Y-58926731D01*
X134946503Y-58926727D01*
X135133736Y-58926727D01*
X135133736Y-59308682D01*
G37*
G36*
X133835054Y-66094322D02*
G01*
X133915424Y-66116016D01*
X133971773Y-66173995D01*
X133995183Y-66215699D01*
X134039731Y-66284064D01*
X134080771Y-66316651D01*
X134089597Y-66316890D01*
X134134652Y-66293467D01*
X134211142Y-66243762D01*
X134275405Y-66198212D01*
X134358274Y-66143091D01*
X134420405Y-66112127D01*
X134443914Y-66110283D01*
X134455929Y-66153210D01*
X134462315Y-66237665D01*
X134463263Y-66341782D01*
X134458962Y-66443698D01*
X134449603Y-66521547D01*
X134440087Y-66550091D01*
X134404178Y-66584016D01*
X134331936Y-66642911D01*
X134238619Y-66714361D01*
X134233423Y-66718227D01*
X134050173Y-66854353D01*
X134050173Y-67329734D01*
X134237980Y-67329734D01*
X134353170Y-67334527D01*
X134418167Y-67351006D01*
X134445132Y-67380082D01*
X134458284Y-67446008D01*
X134463743Y-67538370D01*
X134461647Y-67632134D01*
X134452136Y-67702268D01*
X134443230Y-67722299D01*
X134404475Y-67730940D01*
X134316033Y-67737886D01*
X134191951Y-67742322D01*
X134076731Y-67743519D01*
X133731478Y-67743519D01*
X133731478Y-66084347D01*
X133835054Y-66094322D01*
G37*
G36*
X135133736Y-60465156D02*
G01*
X135133039Y-60702851D01*
X135131065Y-60919675D01*
X135127996Y-61107518D01*
X135124013Y-61258273D01*
X135119296Y-61363831D01*
X135114024Y-61416085D01*
X135112490Y-61420043D01*
X135053545Y-61441529D01*
X134965323Y-61438564D01*
X134875654Y-61414975D01*
X134816819Y-61379379D01*
X134785807Y-61342339D01*
X134761811Y-61295498D01*
X134744117Y-61231131D01*
X134732014Y-61141518D01*
X134724790Y-61018935D01*
X134721733Y-60855661D01*
X134722130Y-60643973D01*
X134725143Y-60385109D01*
X134728873Y-60150713D01*
X134733048Y-59971543D01*
X134738428Y-59839165D01*
X134745772Y-59745146D01*
X134755842Y-59681052D01*
X134769398Y-59638451D01*
X134787200Y-59608910D01*
X134796079Y-59598420D01*
X134868218Y-59549033D01*
X134975557Y-59531745D01*
X134995263Y-59531489D01*
X135133736Y-59531489D01*
X135133736Y-60465156D01*
G37*
G36*
X133508391Y-61886877D02*
G01*
X133350851Y-61886877D01*
X133277913Y-61885706D01*
X133220289Y-61877719D01*
X133176173Y-61856205D01*
X133143762Y-61814455D01*
X133121251Y-61745758D01*
X133106836Y-61643405D01*
X133098712Y-61500684D01*
X133095076Y-61310886D01*
X133094122Y-61067300D01*
X133094088Y-60931990D01*
X133094403Y-60660739D01*
X133096550Y-60446437D01*
X133102335Y-60282373D01*
X133113562Y-60161838D01*
X133132034Y-60078121D01*
X133159556Y-60024512D01*
X133197933Y-59994301D01*
X133248968Y-59980778D01*
X133314467Y-59977231D01*
X133350851Y-59977103D01*
X133508391Y-59977103D01*
X133508391Y-61886877D01*
G37*
G36*
X133715543Y-63748907D02*
G01*
X133715543Y-62996240D01*
X133715550Y-62970961D01*
X134018304Y-62970961D01*
X134019888Y-63139309D01*
X134025277Y-63252603D01*
X134035427Y-63319382D01*
X134051291Y-63348187D01*
X134060796Y-63351037D01*
X134114998Y-63336899D01*
X134124535Y-63329818D01*
X134136172Y-63286814D01*
X134143131Y-63197038D01*
X134145700Y-63077183D01*
X134144163Y-62943941D01*
X134138807Y-62814006D01*
X134129917Y-62704071D01*
X134117780Y-62630828D01*
X134112313Y-62615973D01*
X134077386Y-62569747D01*
X134051017Y-62579269D01*
X134032713Y-62646411D01*
X134021976Y-62773046D01*
X134018310Y-62961046D01*
X134018304Y-62970961D01*
X133715550Y-62970961D01*
X133715617Y-62735816D01*
X133717756Y-62532093D01*
X133724833Y-62378117D01*
X133739724Y-62266936D01*
X133765302Y-62191597D01*
X133804442Y-62145146D01*
X133860019Y-62120631D01*
X133934906Y-62111098D01*
X134031979Y-62109594D01*
X134082043Y-62109684D01*
X134189590Y-62109909D01*
X134273691Y-62115239D01*
X134337331Y-62132655D01*
X134383498Y-62169138D01*
X134415180Y-62231671D01*
X134435364Y-62327234D01*
X134447038Y-62462809D01*
X134453189Y-62645377D01*
X134456803Y-62881921D01*
X134458149Y-62988641D01*
X134460678Y-63232635D01*
X134460976Y-63419985D01*
X134458730Y-63557678D01*
X134453628Y-63652701D01*
X134445359Y-63712040D01*
X134433609Y-63742681D01*
X134424125Y-63750455D01*
X134375420Y-63756594D01*
X134278630Y-63759882D01*
X134149357Y-63760005D01*
X134060796Y-63758290D01*
X134048019Y-63758042D01*
X133715543Y-63748907D01*
G37*
G36*
X133508391Y-57844521D02*
G01*
X133350851Y-57844521D01*
X133277129Y-57843245D01*
X133219070Y-57834888D01*
X133174803Y-57812661D01*
X133142459Y-57769771D01*
X133120166Y-57699428D01*
X133106055Y-57594841D01*
X133098254Y-57449218D01*
X133094894Y-57255769D01*
X133094103Y-57007701D01*
X133094088Y-56912289D01*
X133094666Y-56637602D01*
X133097664Y-56419936D01*
X133104974Y-56252656D01*
X133118492Y-56129125D01*
X133140110Y-56042709D01*
X133171724Y-55986771D01*
X133215226Y-55954675D01*
X133272510Y-55939786D01*
X133345471Y-55935469D01*
X133372946Y-55935234D01*
X133508391Y-55934747D01*
X133508391Y-57844521D01*
G37*
G36*
X133508391Y-65865574D02*
G01*
X133350851Y-65865574D01*
X133277129Y-65864297D01*
X133219070Y-65855941D01*
X133174803Y-65833714D01*
X133142459Y-65790824D01*
X133120166Y-65720481D01*
X133106055Y-65615894D01*
X133098254Y-65470271D01*
X133094894Y-65276821D01*
X133094103Y-65028754D01*
X133094088Y-64933341D01*
X133094666Y-64658654D01*
X133097664Y-64440989D01*
X133104974Y-64273708D01*
X133118492Y-64150178D01*
X133140110Y-64063761D01*
X133171724Y-64007823D01*
X133215226Y-63975728D01*
X133272510Y-63960839D01*
X133345471Y-63956521D01*
X133372946Y-63956287D01*
X133508391Y-63955799D01*
X133508391Y-65865574D01*
G37*
G36*
X133501085Y-59217491D02*
G01*
X133503547Y-59434298D01*
X133503739Y-59595780D01*
X133501114Y-59710250D01*
X133495126Y-59786019D01*
X133485226Y-59831399D01*
X133470867Y-59854702D01*
X133458642Y-59862040D01*
X133380804Y-59877256D01*
X133279909Y-59880170D01*
X133185928Y-59871437D01*
X133133217Y-59854939D01*
X133118601Y-59830150D01*
X133108296Y-59772633D01*
X133101963Y-59675549D01*
X133099265Y-59532064D01*
X133099862Y-59335340D01*
X133101347Y-59210877D01*
X133110022Y-58592516D01*
X133492457Y-58592516D01*
X133501085Y-59217491D01*
G37*
G36*
X136087802Y-60382930D02*
G01*
X136086241Y-60612777D01*
X136082877Y-60824351D01*
X136078010Y-61008493D01*
X136071938Y-61156041D01*
X136064961Y-61257835D01*
X136057730Y-61303907D01*
X136015921Y-61369416D01*
X135946705Y-61411034D01*
X135839314Y-61432091D01*
X135682980Y-61435919D01*
X135635377Y-61434588D01*
X135372758Y-61425348D01*
X135363389Y-61231011D01*
X135354021Y-61036674D01*
X135535685Y-61017948D01*
X135639343Y-61000897D01*
X135716488Y-60976520D01*
X135743750Y-60957648D01*
X135751532Y-60914723D01*
X135758451Y-60818023D01*
X135764144Y-60677431D01*
X135768250Y-60502830D01*
X135770406Y-60304104D01*
X135770639Y-60223782D01*
X135771127Y-59531489D01*
X136089822Y-59531489D01*
X136087802Y-60382930D01*
G37*
G36*
X131381102Y-63112668D02*
G01*
X131435291Y-63125580D01*
X131539507Y-63150162D01*
X131681712Y-63183583D01*
X131849868Y-63223013D01*
X131976898Y-63252751D01*
X132169392Y-63298225D01*
X132310599Y-63333726D01*
X132411360Y-63363493D01*
X132482517Y-63391767D01*
X132534911Y-63422790D01*
X132579385Y-63460802D01*
X132622256Y-63505196D01*
X132690486Y-63583555D01*
X132726800Y-63648987D01*
X132741153Y-63728108D01*
X132743523Y-63829393D01*
X132741332Y-63936424D01*
X132732083Y-63992737D01*
X132711763Y-64011204D01*
X132687751Y-64008214D01*
X132610784Y-63986511D01*
X132560273Y-63972095D01*
X132500351Y-63928775D01*
X132488567Y-63876684D01*
X132474824Y-63770785D01*
X132436649Y-63710950D01*
X132405484Y-63701163D01*
X132377846Y-63721011D01*
X132363963Y-63786957D01*
X132361089Y-63873396D01*
X132356741Y-63979463D01*
X132337255Y-64047200D01*
X132292968Y-64101698D01*
X132263035Y-64128033D01*
X132187374Y-64180747D01*
X132122799Y-64208063D01*
X132111655Y-64209171D01*
X132060822Y-64201341D01*
X131962654Y-64181006D01*
X131831603Y-64151312D01*
X131691829Y-64117796D01*
X131325330Y-64027686D01*
X131315697Y-63864424D01*
X131313396Y-63772399D01*
X131317925Y-63713190D01*
X131323927Y-63701163D01*
X131360411Y-63708061D01*
X131445402Y-63726740D01*
X131565414Y-63754179D01*
X131678982Y-63780737D01*
X131818901Y-63813158D01*
X131936163Y-63839211D01*
X132016711Y-63855842D01*
X132045220Y-63860311D01*
X132063528Y-63832095D01*
X132073593Y-63761739D01*
X132074263Y-63734998D01*
X132074263Y-63609685D01*
X131309395Y-63434691D01*
X131309395Y-63264939D01*
X131311364Y-63167312D01*
X131321678Y-63119279D01*
X131346949Y-63106800D01*
X131381102Y-63112668D01*
G37*
G36*
X135133736Y-57844521D02*
G01*
X134759642Y-57844521D01*
X134741000Y-57729790D01*
X134733259Y-57623232D01*
X134740403Y-57525006D01*
X134740814Y-57522898D01*
X134754802Y-57471382D01*
X134781483Y-57443848D01*
X134837590Y-57432799D01*
X134939855Y-57430738D01*
X134946503Y-57430737D01*
X135133736Y-57430737D01*
X135133736Y-57844521D01*
G37*
G36*
X134153846Y-59977193D02*
G01*
X134248307Y-59982047D01*
X134320086Y-59998541D01*
X134372380Y-60033550D01*
X134408390Y-60093951D01*
X134431313Y-60186619D01*
X134444349Y-60318429D01*
X134450696Y-60496258D01*
X134453554Y-60726982D01*
X134454829Y-60882743D01*
X134455450Y-61097725D01*
X134453725Y-61295779D01*
X134449927Y-61466527D01*
X134444329Y-61599592D01*
X134437205Y-61684596D01*
X134433138Y-61705892D01*
X134403568Y-61785989D01*
X134366085Y-61838237D01*
X134307582Y-61868524D01*
X134214955Y-61882739D01*
X134075096Y-61886770D01*
X134030336Y-61886877D01*
X133731478Y-61886877D01*
X133731478Y-61473093D01*
X133882858Y-61472605D01*
X133976773Y-61470502D01*
X134043302Y-61458597D01*
X134087443Y-61427442D01*
X134114191Y-61367587D01*
X134128544Y-61269583D01*
X134135497Y-61123983D01*
X134138633Y-60988914D01*
X134141056Y-60783658D01*
X134136162Y-60633191D01*
X134120391Y-60528752D01*
X134090179Y-60461581D01*
X134041965Y-60422919D01*
X133972186Y-60404005D01*
X133898018Y-60397181D01*
X133731478Y-60387560D01*
X133731478Y-59977103D01*
X134033504Y-59977103D01*
X134153846Y-59977193D01*
G37*
G36*
X133508391Y-66291868D02*
G01*
X133503915Y-66413606D01*
X133488835Y-66483699D01*
X133460674Y-66513642D01*
X133460587Y-66513676D01*
X133440013Y-66532636D01*
X133426093Y-66577501D01*
X133417683Y-66658166D01*
X133413641Y-66784524D01*
X133412783Y-66927460D01*
X133414122Y-67098170D01*
X133418900Y-67215158D01*
X133428261Y-67288316D01*
X133443349Y-67327541D01*
X133460587Y-67341245D01*
X133489655Y-67372710D01*
X133504708Y-67446289D01*
X133508391Y-67551542D01*
X133508391Y-67743519D01*
X133094088Y-67743519D01*
X133094088Y-66986691D01*
X133094501Y-66724476D01*
X133097058Y-66519003D01*
X133103736Y-66363354D01*
X133116513Y-66250611D01*
X133137366Y-66173858D01*
X133168271Y-66126176D01*
X133211207Y-66100649D01*
X133268149Y-66090358D01*
X133341077Y-66088387D01*
X133350851Y-66088381D01*
X133508391Y-66088381D01*
X133508391Y-66291868D01*
G37*
G36*
X135132723Y-54255737D02*
G01*
X135123243Y-54395660D01*
X135098177Y-54493242D01*
X135084919Y-54516457D01*
X135062270Y-54576798D01*
X135046260Y-54679063D01*
X135036867Y-54808002D01*
X135034073Y-54948369D01*
X135037859Y-55084915D01*
X135048205Y-55202391D01*
X135065092Y-55285550D01*
X135085932Y-55318474D01*
X135116512Y-55360209D01*
X135133437Y-55441919D01*
X135136849Y-55541434D01*
X135126892Y-55636579D01*
X135103706Y-55705182D01*
X135083326Y-55724449D01*
X135004857Y-55739673D01*
X134903382Y-55742229D01*
X134809055Y-55732879D01*
X134757108Y-55716197D01*
X134743395Y-55694907D01*
X134733325Y-55646335D01*
X134726620Y-55563740D01*
X134723004Y-55440381D01*
X134722200Y-55269518D01*
X134723932Y-55044409D01*
X134725238Y-54940134D01*
X134728848Y-54700570D01*
X134732853Y-54516426D01*
X134737968Y-54379467D01*
X134744909Y-54281453D01*
X134754391Y-54214147D01*
X134767127Y-54169312D01*
X134783834Y-54138711D01*
X134796079Y-54123735D01*
X134868214Y-54074348D01*
X134975546Y-54057059D01*
X134995263Y-54056802D01*
X135133736Y-54056802D01*
X135132723Y-54255737D01*
G37*
G36*
X134175208Y-63959931D02*
G01*
X134286738Y-63976257D01*
X134358764Y-64010674D01*
X134403246Y-64069079D01*
X134432146Y-64157369D01*
X134433599Y-64163544D01*
X134443176Y-64238200D01*
X134450622Y-64362310D01*
X134455950Y-64523683D01*
X134459172Y-64710126D01*
X134460299Y-64909445D01*
X134459344Y-65109447D01*
X134456319Y-65297940D01*
X134451237Y-65462732D01*
X134444109Y-65591628D01*
X134434948Y-65672436D01*
X134432079Y-65684589D01*
X134403387Y-65764599D01*
X134366260Y-65816837D01*
X134307698Y-65847157D01*
X134214703Y-65861415D01*
X134074276Y-65865469D01*
X134030336Y-65865574D01*
X133731478Y-65865574D01*
X133731478Y-65451789D01*
X133907549Y-65451789D01*
X134010088Y-65449038D01*
X134067818Y-65435531D01*
X134099600Y-65403383D01*
X134117013Y-65364258D01*
X134129840Y-65296032D01*
X134138313Y-65178148D01*
X134141785Y-65024499D01*
X134140126Y-64868266D01*
X134133394Y-64679852D01*
X134120863Y-64545877D01*
X134097519Y-64457126D01*
X134058349Y-64404385D01*
X133998339Y-64378439D01*
X133912475Y-64370072D01*
X133868800Y-64369584D01*
X133731478Y-64369584D01*
X133731478Y-63955799D01*
X134012212Y-63955799D01*
X134175208Y-63959931D01*
G37*
G36*
X135372758Y-55727854D02*
G01*
X135365636Y-55097184D01*
X135649060Y-55097184D01*
X135656176Y-55223278D01*
X135673098Y-55297461D01*
X135701051Y-55325395D01*
X135737470Y-55315173D01*
X135754805Y-55271069D01*
X135764154Y-55164813D01*
X135765545Y-54995973D01*
X135764149Y-54921668D01*
X135758876Y-54758902D01*
X135751376Y-54650108D01*
X135740169Y-54585602D01*
X135723776Y-54555702D01*
X135707388Y-54550160D01*
X135685973Y-54560784D01*
X135670957Y-54599162D01*
X135660811Y-54675056D01*
X135654008Y-54798228D01*
X135650523Y-54913517D01*
X135649060Y-55097184D01*
X135365636Y-55097184D01*
X135364212Y-54971033D01*
X135355665Y-54214212D01*
X135434469Y-54135507D01*
X135487498Y-54091625D01*
X135548832Y-54067715D01*
X135639335Y-54058090D01*
X135723322Y-54056802D01*
X135843972Y-54060234D01*
X135921889Y-54074291D01*
X135977884Y-54104613D01*
X136011597Y-54134929D01*
X136089822Y-54213056D01*
X136089822Y-54963497D01*
X136089108Y-55211558D01*
X136086728Y-55402518D01*
X136082321Y-55542919D01*
X136075529Y-55639305D01*
X136065992Y-55698221D01*
X136053350Y-55726209D01*
X136047716Y-55730075D01*
X135999291Y-55736079D01*
X135903211Y-55739124D01*
X135775503Y-55738900D01*
X135701051Y-55737290D01*
X135689184Y-55737033D01*
X135372758Y-55727854D01*
G37*
G36*
X136041199Y-56028655D02*
G01*
X136057015Y-56069949D01*
X136069142Y-56130279D01*
X136078018Y-56217489D01*
X136084080Y-56339426D01*
X136087766Y-56503934D01*
X136089516Y-56718858D01*
X136089822Y-56899676D01*
X136089564Y-57142843D01*
X136088365Y-57330630D01*
X136085592Y-57471316D01*
X136080609Y-57573179D01*
X136072781Y-57644496D01*
X136061473Y-57693548D01*
X136046049Y-57728612D01*
X136025874Y-57757966D01*
X136023770Y-57760655D01*
X135989240Y-57799853D01*
X135950803Y-57824450D01*
X135893647Y-57837834D01*
X135802963Y-57843394D01*
X135663939Y-57844520D01*
X135657270Y-57844521D01*
X135356823Y-57844521D01*
X135356823Y-57430737D01*
X135502331Y-57430737D01*
X135600582Y-57429192D01*
X135671393Y-57418584D01*
X135719259Y-57389958D01*
X135748672Y-57334354D01*
X135764125Y-57242815D01*
X135770112Y-57106385D01*
X135771126Y-56916104D01*
X135771127Y-56894880D01*
X135768778Y-56680106D01*
X135761575Y-56525712D01*
X135749285Y-56428587D01*
X135732883Y-56386727D01*
X135680953Y-56365004D01*
X135589881Y-56351168D01*
X135525731Y-56348531D01*
X135356823Y-56348531D01*
X135356823Y-55934747D01*
X135992576Y-55934747D01*
X136041199Y-56028655D01*
G37*
G36*
X133508391Y-58259305D02*
G01*
X133502234Y-58383564D01*
X133482872Y-58451637D01*
X133464505Y-58468101D01*
X133408199Y-58476130D01*
X133315576Y-58477282D01*
X133265321Y-58475059D01*
X133110022Y-58465198D01*
X133091046Y-58067328D01*
X133508391Y-58067328D01*
X133508391Y-58259305D01*
G37*
G36*
X134298869Y-55941030D02*
G01*
X134448542Y-55950661D01*
X134454040Y-56762316D01*
X134454502Y-56988138D01*
X134452915Y-57196936D01*
X134449511Y-57378986D01*
X134444525Y-57524565D01*
X134438192Y-57623947D01*
X134432349Y-57663536D01*
X134403433Y-57743569D01*
X134366215Y-57795809D01*
X134307668Y-57826120D01*
X134214767Y-57840368D01*
X134074484Y-57844416D01*
X134030336Y-57844521D01*
X133731478Y-57844521D01*
X133731478Y-57430737D01*
X133882858Y-57430249D01*
X133959430Y-57429911D01*
X134018302Y-57424507D01*
X134061917Y-57406618D01*
X134092714Y-57368826D01*
X134113137Y-57303714D01*
X134125627Y-57203862D01*
X134132625Y-57061854D01*
X134136573Y-56870270D01*
X134139521Y-56650443D01*
X134149196Y-55931398D01*
X134298869Y-55941030D01*
G37*
G36*
X134086247Y-54056802D02*
G01*
X134189766Y-54057328D01*
X134271340Y-54063438D01*
X134333691Y-54081927D01*
X134379542Y-54119590D01*
X134411615Y-54183221D01*
X134432631Y-54279618D01*
X134445313Y-54415574D01*
X134452383Y-54597886D01*
X134456563Y-54833348D01*
X134458594Y-54986316D01*
X134468647Y-55743769D01*
X134150844Y-55743769D01*
X134140345Y-55157509D01*
X134135772Y-54970221D01*
X134129427Y-54805073D01*
X134121899Y-54672537D01*
X134113780Y-54583088D01*
X134105945Y-54547442D01*
X134081408Y-54534376D01*
X134062176Y-54554081D01*
X134047264Y-54612684D01*
X134035688Y-54716316D01*
X134026461Y-54871106D01*
X134018600Y-55083183D01*
X134018304Y-55092815D01*
X134010973Y-55301107D01*
X134001659Y-55454915D01*
X133987510Y-55563409D01*
X133965674Y-55635757D01*
X133933300Y-55681129D01*
X133887537Y-55708695D01*
X133825532Y-55727623D01*
X133820506Y-55728863D01*
X133782343Y-55735038D01*
X133752728Y-55728163D01*
X133730736Y-55701530D01*
X133715441Y-55648428D01*
X133705918Y-55562147D01*
X133701240Y-55435979D01*
X133700482Y-55263213D01*
X133702719Y-55037140D01*
X133704846Y-54890543D01*
X133708860Y-54638961D01*
X133714463Y-54443846D01*
X133724934Y-54298027D01*
X133743554Y-54194334D01*
X133773602Y-54125596D01*
X133818359Y-54084644D01*
X133881105Y-54064306D01*
X133965120Y-54057413D01*
X134073684Y-54056795D01*
X134086247Y-54056802D01*
G37*
G36*
X132886115Y-51394313D02*
G01*
X132921352Y-51429637D01*
X132973681Y-51507626D01*
X133033284Y-51613239D01*
X133049223Y-51644283D01*
X133115793Y-51772809D01*
X133166478Y-51854337D01*
X133212381Y-51899545D01*
X133264603Y-51919106D01*
X133334244Y-51923697D01*
X133339822Y-51923733D01*
X133392740Y-51918403D01*
X133440341Y-51895322D01*
X133494092Y-51844698D01*
X133565464Y-51756741D01*
X133618908Y-51685499D01*
X133700084Y-51581399D01*
X133770906Y-51500581D01*
X133820948Y-51454486D01*
X133835282Y-51448037D01*
X133882659Y-51459728D01*
X133971074Y-51489413D01*
X134082559Y-51531006D01*
X134097977Y-51537036D01*
X134321064Y-51624774D01*
X134302260Y-52239716D01*
X134426862Y-52322071D01*
X134551465Y-52404426D01*
X134795626Y-52307556D01*
X134914554Y-52262445D01*
X135013911Y-52228531D01*
X135076428Y-52211597D01*
X135084899Y-52210687D01*
X135125360Y-52234900D01*
X135188114Y-52297303D01*
X135260982Y-52382540D01*
X135331787Y-52475254D01*
X135388348Y-52560091D01*
X135418487Y-52621694D01*
X135420562Y-52633911D01*
X135401670Y-52679224D01*
X135351574Y-52758026D01*
X135280146Y-52855129D01*
X135261214Y-52879108D01*
X135173164Y-52994330D01*
X135123515Y-53079636D01*
X135107735Y-53152158D01*
X135121288Y-53229028D01*
X135149130Y-53302603D01*
X135175893Y-53360422D01*
X135207271Y-53400012D01*
X135256722Y-53428120D01*
X135337702Y-53451493D01*
X135463671Y-53476879D01*
X135516171Y-53486619D01*
X135653079Y-53515561D01*
X135738357Y-53546608D01*
X135783785Y-53588303D01*
X135801144Y-53649194D01*
X135802996Y-53694659D01*
X135802996Y-53802165D01*
X134723956Y-53802165D01*
X134671079Y-53620505D01*
X134575170Y-53360716D01*
X134445321Y-53138925D01*
X134268465Y-52932977D01*
X134261172Y-52925693D01*
X134017690Y-52725709D01*
X133750715Y-52583016D01*
X133466587Y-52498650D01*
X133171646Y-52473646D01*
X132872230Y-52509038D01*
X132574681Y-52605862D01*
X132503523Y-52638712D01*
X132239505Y-52801644D01*
X132020110Y-53007493D01*
X131848923Y-53250467D01*
X131729532Y-53524771D01*
X131665523Y-53824612D01*
X131655186Y-54009057D01*
X131680966Y-54315189D01*
X131760480Y-54590531D01*
X131896671Y-54841905D01*
X132092486Y-55076132D01*
X132132821Y-55115599D01*
X132241530Y-55207447D01*
X132370775Y-55299166D01*
X132505277Y-55381745D01*
X132629754Y-55446175D01*
X132728925Y-55483446D01*
X132766304Y-55489108D01*
X132810817Y-55514148D01*
X132838010Y-55550699D01*
X132849217Y-55602824D01*
X132858332Y-55703990D01*
X132865158Y-55839603D01*
X132869494Y-55995075D01*
X132871143Y-56155814D01*
X132869906Y-56307227D01*
X132865584Y-56434726D01*
X132857978Y-56523717D01*
X132851657Y-56552820D01*
X132805982Y-56591733D01*
X132739325Y-56603168D01*
X132685961Y-56597207D01*
X132646693Y-56572461D01*
X132616433Y-56518638D01*
X132590094Y-56425444D01*
X132562585Y-56282585D01*
X132552945Y-56226130D01*
X132530830Y-56105167D01*
X132509190Y-56031123D01*
X132479553Y-55987889D01*
X132433452Y-55959356D01*
X132406524Y-55947621D01*
X132322309Y-55917082D01*
X132252883Y-55909314D01*
X132182182Y-55928700D01*
X132094141Y-55979627D01*
X131973667Y-56065758D01*
X131753731Y-56228599D01*
X131635139Y-56144886D01*
X131529772Y-56067057D01*
X131422765Y-55983020D01*
X131405914Y-55969155D01*
X131295281Y-55877137D01*
X131398204Y-55627433D01*
X131456855Y-55477437D01*
X131488419Y-55370301D01*
X131494131Y-55291855D01*
X131475224Y-55227929D01*
X131437979Y-55170837D01*
X131405694Y-55134040D01*
X131367876Y-55110762D01*
X131310197Y-55097925D01*
X131218326Y-55092451D01*
X131077934Y-55091265D01*
X131067406Y-55091263D01*
X130758049Y-55091263D01*
X130683157Y-54870213D01*
X130646219Y-54754426D01*
X130619466Y-54657673D01*
X130608321Y-54599702D01*
X130608266Y-54597547D01*
X130632992Y-54557511D01*
X130699195Y-54493698D01*
X130794917Y-54417031D01*
X130847287Y-54379256D01*
X130961404Y-54297586D01*
X131032190Y-54238902D01*
X131069796Y-54191557D01*
X131084372Y-54143906D01*
X131086309Y-54105029D01*
X131077726Y-54038172D01*
X131045774Y-53980456D01*
X130981142Y-53923289D01*
X130874522Y-53858080D01*
X130745967Y-53790938D01*
X130653083Y-53740786D01*
X130585204Y-53697808D01*
X130561968Y-53677282D01*
X130560730Y-53634379D01*
X130573690Y-53546153D01*
X130598241Y-53428686D01*
X130610518Y-53377927D01*
X130678007Y-53109178D01*
X130982539Y-53081674D01*
X131126451Y-53067228D01*
X131221326Y-53052225D01*
X131281747Y-53032212D01*
X131322296Y-53002739D01*
X131350155Y-52969455D01*
X131413239Y-52884739D01*
X131263990Y-52611281D01*
X131114741Y-52337824D01*
X131283021Y-52160116D01*
X131391021Y-52048089D01*
X131470794Y-51979174D01*
X131538198Y-51950508D01*
X131609092Y-51959226D01*
X131699336Y-52002464D01*
X131805611Y-52065741D01*
X131918049Y-52131159D01*
X132012768Y-52181225D01*
X132074651Y-52208145D01*
X132086675Y-52210687D01*
X132136609Y-52190500D01*
X132203675Y-52141058D01*
X132213023Y-52132632D01*
X132260917Y-52079614D01*
X132287046Y-52019139D01*
X132298207Y-51929572D01*
X132300527Y-51854124D01*
X132305112Y-51700520D01*
X132319298Y-51597216D01*
X132352438Y-51530854D01*
X132413887Y-51488075D01*
X132512999Y-51455521D01*
X132593644Y-51435529D01*
X132715764Y-51409723D01*
X132817239Y-51394587D01*
X132879593Y-51392726D01*
X132886115Y-51394313D01*
G37*
G36*
X134432607Y-58481113D02*
G01*
X133738572Y-58481113D01*
X133717145Y-58367041D01*
X133708017Y-58260770D01*
X133715670Y-58162293D01*
X133716130Y-58160148D01*
X133736542Y-58067328D01*
X134432607Y-58067328D01*
X134432607Y-58481113D01*
G37*
G36*
X131071822Y-61683334D02*
G01*
X131166202Y-61707933D01*
X131301239Y-61742232D01*
X131466301Y-61783529D01*
X131639644Y-61826390D01*
X131867911Y-61882115D01*
X132042278Y-61928118D01*
X132169978Y-61972708D01*
X132258242Y-62024191D01*
X132314300Y-62090872D01*
X132345384Y-62181059D01*
X132358725Y-62303058D01*
X132361554Y-62465176D01*
X132361089Y-62655127D01*
X132359494Y-62831938D01*
X132355077Y-62984228D01*
X132348386Y-63101620D01*
X132339972Y-63173738D01*
X132332650Y-63191890D01*
X132294037Y-63184741D01*
X132203667Y-63164852D01*
X132071708Y-63134557D01*
X131908330Y-63096192D01*
X131723702Y-63052092D01*
X131719632Y-63051112D01*
X131508746Y-62999406D01*
X131351027Y-62958045D01*
X131237346Y-62923908D01*
X131158571Y-62893873D01*
X131105574Y-62864817D01*
X131069225Y-62833619D01*
X131062876Y-62826530D01*
X131015858Y-62751143D01*
X130991902Y-62671508D01*
X130992091Y-62604726D01*
X131017509Y-62567896D01*
X131046472Y-62567620D01*
X131096513Y-62580904D01*
X131194024Y-62605586D01*
X131324522Y-62638101D01*
X131473523Y-62674885D01*
X131626545Y-62712374D01*
X131769103Y-62747004D01*
X131886714Y-62775211D01*
X131954753Y-62791132D01*
X132042394Y-62811148D01*
X132042394Y-62243216D01*
X131524514Y-62116579D01*
X131006635Y-61989942D01*
X130996860Y-61822908D01*
X130994857Y-61723150D01*
X131005408Y-61676153D01*
X131028729Y-61671136D01*
X131071822Y-61683334D01*
G37*
G36*
X131046472Y-64318281D02*
G01*
X131116973Y-64337686D01*
X131228087Y-64366417D01*
X131366701Y-64401279D01*
X131519703Y-64439076D01*
X131673981Y-64476615D01*
X131816422Y-64510699D01*
X131933914Y-64538134D01*
X132013344Y-64555724D01*
X132040773Y-64560561D01*
X132062907Y-64532586D01*
X132073973Y-64463795D01*
X132074263Y-64449158D01*
X132079446Y-64378867D01*
X132104507Y-64345165D01*
X132163719Y-64341077D01*
X132261497Y-64357648D01*
X132319940Y-64373245D01*
X132349432Y-64401749D01*
X132359851Y-64461394D01*
X132361089Y-64541543D01*
X132349428Y-64669197D01*
X132318125Y-64765241D01*
X132310069Y-64778295D01*
X132267244Y-64831206D01*
X132218990Y-64866899D01*
X132156211Y-64885371D01*
X132069809Y-64886622D01*
X131950685Y-64870647D01*
X131789742Y-64837446D01*
X131577882Y-64787014D01*
X131541692Y-64778098D01*
X130990700Y-64641977D01*
X130990700Y-64471806D01*
X130993397Y-64373575D01*
X131004703Y-64325609D01*
X131029444Y-64314628D01*
X131046472Y-64318281D01*
G37*
G36*
X131714708Y-66108216D02*
G01*
X131575325Y-66021500D01*
X131465820Y-65900086D01*
X131386935Y-65754547D01*
X131339413Y-65595456D01*
X131333836Y-65536825D01*
X131558211Y-65536825D01*
X131600752Y-65647645D01*
X131680069Y-65742555D01*
X131789347Y-65806904D01*
X131840965Y-65821002D01*
X131955590Y-65817869D01*
X132051063Y-65771061D01*
X132109044Y-65690840D01*
X132115408Y-65667423D01*
X132127931Y-65607409D01*
X132133662Y-65586043D01*
X132125502Y-65553935D01*
X132099822Y-65486044D01*
X132092709Y-65468796D01*
X132024221Y-65368850D01*
X131925029Y-65299176D01*
X131812224Y-65264834D01*
X131702895Y-65270885D01*
X131614134Y-65322392D01*
X131610721Y-65326054D01*
X131559263Y-65424744D01*
X131558211Y-65536825D01*
X131333836Y-65536825D01*
X131323997Y-65433389D01*
X131341430Y-65278918D01*
X131392455Y-65142618D01*
X131477816Y-65035062D01*
X131598255Y-64966826D01*
X131633830Y-64957172D01*
X131779093Y-64955194D01*
X131933493Y-65002175D01*
X132081860Y-65088226D01*
X132209022Y-65203459D01*
X132299810Y-65337983D01*
X132326652Y-65408778D01*
X132354720Y-65572137D01*
X132354833Y-65739996D01*
X132327579Y-65884844D01*
X132315789Y-65916018D01*
X132229559Y-66041034D01*
X132105795Y-66121669D01*
X131955960Y-66154259D01*
X131840965Y-66140887D01*
X131791518Y-66135137D01*
X131714708Y-66108216D01*
G37*
G36*
X136089822Y-59308682D02*
G01*
X135353782Y-59308682D01*
X135372758Y-58910812D01*
X135571942Y-58901336D01*
X135771127Y-58891859D01*
X135771127Y-58035499D01*
X136089822Y-58035499D01*
X136089822Y-59308682D01*
G37*
G36*
X135133736Y-56348531D02*
G01*
X134759642Y-56348531D01*
X134741000Y-56233800D01*
X134733259Y-56127242D01*
X134740403Y-56029016D01*
X134740814Y-56026908D01*
X134754802Y-55975392D01*
X134781483Y-55947858D01*
X134837590Y-55936809D01*
X134939855Y-55934748D01*
X134946503Y-55934747D01*
X135133736Y-55934747D01*
X135133736Y-56348531D01*
G37*
G36*
X134236220Y-59055533D02*
G01*
X134341054Y-59061000D01*
X134404071Y-59071948D01*
X134436207Y-59089879D01*
X134445132Y-59104393D01*
X134458456Y-59181470D01*
X134459111Y-59287904D01*
X134447379Y-59390720D01*
X134442508Y-59412128D01*
X134428908Y-59436869D01*
X134396072Y-59453078D01*
X134332725Y-59462487D01*
X134227590Y-59466826D01*
X134079706Y-59467829D01*
X133731478Y-59467829D01*
X133731478Y-59054045D01*
X134078633Y-59054045D01*
X134236220Y-59055533D01*
G37*
X131008000Y-74152000D02*
X131008000Y-71467000D01*
X129088000Y-71467000D02*
X129088000Y-74152000D01*
X131008000Y-71467000D02*
X129088000Y-71467000D01*
X135944000Y-84838000D02*
X137284000Y-84838000D01*
X133694000Y-81288000D02*
X133694000Y-82288000D01*
X135944000Y-85588000D02*
X135944000Y-84838000D01*
X133694000Y-79788000D02*
X134444000Y-79788000D01*
X134444000Y-82288000D02*
X134444000Y-81288000D01*
X133694000Y-83788000D02*
X133694000Y-85588000D01*
X139654000Y-85598000D02*
X139654000Y-77978000D01*
X135944000Y-77988000D02*
X135944000Y-78738000D01*
X134444000Y-81288000D02*
X133694000Y-81288000D01*
X134444000Y-77988000D02*
X133694000Y-77988000D01*
X133394000Y-85888000D02*
X134644000Y-85888000D01*
X135944000Y-78738000D02*
X138894000Y-78738000D01*
X133394000Y-84638000D02*
X133394000Y-85888000D01*
X133694000Y-77988000D02*
X133694000Y-79788000D01*
X134444000Y-85588000D02*
X134444000Y-83788000D01*
X138894000Y-81788000D02*
X138894000Y-83778000D01*
X138894000Y-78738000D02*
X138894000Y-81788000D01*
X134444000Y-83788000D02*
X133694000Y-83788000D01*
X133694000Y-82288000D02*
X134444000Y-82288000D01*
X139654000Y-77978000D02*
X133684000Y-77978000D01*
X133684000Y-85598000D02*
X139654000Y-85598000D01*
X134444000Y-79788000D02*
X134444000Y-77988000D01*
X133684000Y-77978000D02*
X133684000Y-85598000D01*
X133694000Y-85588000D02*
X134444000Y-85588000D01*
X135072000Y-71104000D02*
X135072000Y-68244000D01*
X133152000Y-68244000D02*
X133152000Y-71104000D01*
X135072000Y-68244000D02*
X133152000Y-68244000D01*
X137745000Y-64557000D02*
X137745000Y-63137000D01*
X145025000Y-73007000D02*
X145335000Y-73007000D01*
X143505000Y-73007000D02*
X137745000Y-73007000D01*
X138245000Y-64557000D02*
X137745000Y-64557000D01*
X137745000Y-71587000D02*
X138245000Y-71587000D01*
X145335000Y-63137000D02*
X145025000Y-63137000D01*
X137745000Y-63137000D02*
X143505000Y-63137000D01*
X145335000Y-73007000D02*
X145335000Y-63137000D01*
X138245000Y-71587000D02*
X138245000Y-64557000D01*
X137745000Y-73007000D02*
X137745000Y-71587000D01*
X108662000Y-47727000D02*
X108662000Y-46397000D01*
X111262000Y-49057000D02*
X111262000Y-46397000D01*
X111262000Y-49057000D02*
X118942000Y-49057000D01*
X111262000Y-46397000D02*
X118942000Y-46397000D01*
X108662000Y-46397000D02*
X109992000Y-46397000D01*
X118942000Y-49057000D02*
X118942000Y-46397000D01*
X143570000Y-51054000D02*
X143570000Y-61274000D01*
X140910000Y-49784000D02*
X140910000Y-48454000D01*
X140910000Y-48454000D02*
X142240000Y-48454000D01*
X140910000Y-61274000D02*
X143570000Y-61274000D01*
X140910000Y-51054000D02*
X140910000Y-61274000D01*
X140910000Y-51054000D02*
X143570000Y-51054000D01*
X123182748Y-76935000D02*
X123705252Y-76935000D01*
X123182748Y-75465000D02*
X123705252Y-75465000D01*
X128778000Y-47050000D02*
X138998000Y-47050000D01*
X128778000Y-44390000D02*
X138998000Y-44390000D01*
X138998000Y-47050000D02*
X138998000Y-44390000D01*
X128778000Y-47050000D02*
X128778000Y-44390000D01*
X126178000Y-47050000D02*
X126178000Y-45720000D01*
X127508000Y-47050000D02*
X126178000Y-47050000D01*
X128196748Y-76935000D02*
X128719252Y-76935000D01*
X128196748Y-75465000D02*
X128719252Y-75465000D01*
X109240000Y-75816000D02*
X119360000Y-75816000D01*
X109240000Y-75816000D02*
X109240000Y-85737000D01*
X109240000Y-85737000D02*
X119360000Y-85737000D01*
X118075000Y-80008000D02*
X118028000Y-80054000D01*
X109240000Y-85177000D02*
X119360000Y-85177000D01*
X115766000Y-82316000D02*
X115731000Y-82351000D01*
X115573000Y-82100000D02*
X115526000Y-82146000D01*
X109240000Y-78776000D02*
X119360000Y-78776000D01*
X117870000Y-79802000D02*
X117835000Y-79838000D01*
X109000000Y-85977000D02*
X109500000Y-85977000D01*
X109000000Y-85237000D02*
X109000000Y-85977000D01*
X109240000Y-83677000D02*
X119360000Y-83677000D01*
X119360000Y-75816000D02*
X119360000Y-85737000D01*
X112484000Y-79542000D02*
G75*
G03*
X111116958Y-79541573I-684001J-1534993D01*
G01*
X111800000Y-82757000D02*
G75*
G03*
X112483318Y-82611756I0J1680000D01*
G01*
X110265000Y-80393000D02*
G75*
G03*
X110264573Y-81760042I1534993J-684001D01*
G01*
X111116000Y-82612000D02*
G75*
G03*
X111828805Y-82757253I683999J1535001D01*
G01*
X113335001Y-81761000D02*
G75*
G03*
X113335427Y-80393958I-1535001J684000D01*
G01*
X118480000Y-81077000D02*
G75*
G03*
X118480000Y-81077000I-1680000J0D01*
G01*
X143504000Y-74231000D02*
X141904000Y-74231000D01*
X146374000Y-75501000D02*
X146374000Y-78931000D01*
X141904000Y-80201000D02*
X141904000Y-78401000D01*
X143504000Y-80201000D02*
X141904000Y-80201000D01*
X141904000Y-76031000D02*
X140964000Y-76031000D01*
X141904000Y-74231000D02*
X141904000Y-76031000D01*
X132348000Y-83488000D02*
X132798000Y-83038000D01*
X132798000Y-83038000D02*
X132798000Y-80538000D01*
X127748000Y-80088000D02*
X127298000Y-80538000D01*
X129048000Y-79038000D02*
X131048000Y-79038000D01*
X129048000Y-84538000D02*
X131048000Y-84538000D01*
X127298000Y-83038000D02*
X127298000Y-80538000D01*
X127748000Y-83488000D02*
X127298000Y-83038000D01*
X132348000Y-80088000D02*
X132798000Y-80538000D01*
X109955000Y-73398748D02*
X109955000Y-73921252D01*
X108485000Y-73398748D02*
X108485000Y-73921252D01*
X126448000Y-70080000D02*
X127228000Y-70080000D01*
X127228000Y-70080000D02*
X127228000Y-69080000D01*
X101483000Y-70080000D02*
X101483000Y-51840000D01*
X101483000Y-70080000D02*
X107903000Y-70080000D01*
X107903000Y-70080000D02*
X107903000Y-70460000D01*
X126448000Y-51840000D02*
X127228000Y-51840000D01*
X127228000Y-51840000D02*
X127228000Y-52840000D01*
X101483000Y-51840000D02*
X107903000Y-51840000D01*
X121202000Y-80538000D02*
X121202000Y-83038000D01*
X126702000Y-80538000D02*
X126702000Y-83038000D01*
X126252000Y-83488000D02*
X126702000Y-83038000D01*
X124952000Y-79038000D02*
X122952000Y-79038000D01*
X124952000Y-84538000D02*
X122952000Y-84538000D01*
X126252000Y-80088000D02*
X126702000Y-80538000D01*
X121652000Y-83488000D02*
X121202000Y-83038000D01*
X121652000Y-80088000D02*
X121202000Y-80538000D01*
X134847000Y-74379064D02*
X134847000Y-73924936D01*
X133377000Y-74379064D02*
X133377000Y-73924936D01*
X126773000Y-72924936D02*
X126773000Y-73379064D01*
X128243000Y-72924936D02*
X128243000Y-73379064D01*
X118942000Y-44485000D02*
X118942000Y-41825000D01*
X111262000Y-41825000D02*
X118942000Y-41825000D01*
X111262000Y-44485000D02*
X111262000Y-41825000D01*
X108662000Y-43155000D02*
X108662000Y-41825000D01*
X108662000Y-41825000D02*
X109992000Y-41825000D01*
X111262000Y-44485000D02*
X118942000Y-44485000D01*
X120168936Y-74903000D02*
X120623064Y-74903000D01*
X120168936Y-73433000D02*
X120623064Y-73433000D01*
%LPC*%
D12*
X111760000Y-72710000D03*
X111760000Y-74610000D03*
D13*
X130048000Y-72214500D03*
X130048000Y-74089500D03*
D14*
X138144000Y-84638000D03*
D15*
X136144000Y-83038000D03*
D16*
X136144000Y-80538000D03*
D17*
X134112000Y-69079000D03*
X134112000Y-71129000D03*
D18*
X144265000Y-72572000D03*
X144265000Y-63572000D03*
D19*
X140325000Y-69572000D03*
D20*
X140325000Y-66572000D03*
X143325000Y-69572000D03*
X143325000Y-66572000D03*
D21*
X109992000Y-47727000D03*
D22*
X112532000Y-47727000D03*
X115072000Y-47727000D03*
X117612000Y-47727000D03*
D21*
X142240000Y-49784000D03*
D22*
X142240000Y-52324000D03*
X142240000Y-54864000D03*
X142240000Y-57404000D03*
X142240000Y-59944000D03*
D23*
X122494000Y-76200000D03*
X124394000Y-76200000D03*
D21*
X127508000Y-45720000D03*
D22*
X130048000Y-45720000D03*
X132588000Y-45720000D03*
X135128000Y-45720000D03*
X137668000Y-45720000D03*
D23*
X127508000Y-76200000D03*
X129408000Y-76200000D03*
D24*
X111800000Y-81077000D03*
D25*
X116800000Y-81077000D03*
D26*
X141814000Y-76591000D03*
X141814000Y-77841000D03*
D27*
X145164000Y-74741000D03*
X145164000Y-79691000D03*
D28*
X128148000Y-78638000D03*
X128148000Y-84938000D03*
X131948000Y-78638000D03*
X131948000Y-84938000D03*
D12*
X109220000Y-72710000D03*
X109220000Y-74610000D03*
D29*
X109093000Y-69460000D03*
X110363000Y-69460000D03*
X111633000Y-69460000D03*
X112903000Y-69460000D03*
X114173000Y-69460000D03*
X115443000Y-69460000D03*
X116713000Y-69460000D03*
X117983000Y-69460000D03*
X119253000Y-69460000D03*
X120523000Y-69460000D03*
X121793000Y-69460000D03*
X123063000Y-69460000D03*
X124333000Y-69460000D03*
X125603000Y-69460000D03*
D30*
X126603000Y-66675000D03*
X126603000Y-65405000D03*
X126603000Y-64135000D03*
X126603000Y-62865000D03*
X126603000Y-61595000D03*
X126603000Y-60325000D03*
X126603000Y-59055000D03*
X126603000Y-57785000D03*
X126603000Y-56515000D03*
X126603000Y-55245000D03*
D29*
X125603000Y-52460000D03*
X124333000Y-52460000D03*
X123063000Y-52460000D03*
X121793000Y-52460000D03*
X120523000Y-52460000D03*
X119253000Y-52460000D03*
X117983000Y-52460000D03*
X116713000Y-52460000D03*
X115443000Y-52460000D03*
X114173000Y-52460000D03*
X112903000Y-52460000D03*
X111633000Y-52460000D03*
X110363000Y-52460000D03*
X109093000Y-52460000D03*
D31*
X116593000Y-61960000D03*
D28*
X125852000Y-78638000D03*
X125852000Y-84938000D03*
X122052000Y-84938000D03*
X122052000Y-78638000D03*
D32*
X134112000Y-75152000D03*
X134112000Y-73152000D03*
D33*
X127508000Y-72152000D03*
X127508000Y-74152000D03*
D21*
X109992000Y-43155000D03*
D22*
X112532000Y-43155000D03*
X115072000Y-43155000D03*
X117612000Y-43155000D03*
D34*
X119396000Y-74168000D03*
X121396000Y-74168000D03*
M02*
