M48
; DRILL file {KiCad 6.0.4-6f826c9f35~116~ubuntu18.04.1} date Fri Jun 24 10:16:45 2022
; FORMAT={-:-/ absolute / metric / decimal}
; #@! TF.CreationDate,2022-06-24T10:16:45+08:00
; #@! TF.GenerationSoftware,Kicad,Pcbnew,6.0.4-6f826c9f35~116~ubuntu18.04.1
; #@! TF.FileFunction,Plated,1,2,PTH
FMAT,2
METRIC
; #@! TA.AperFunction,Plated,PTH,ViaDrill
T1C0.400
; #@! TA.AperFunction,Plated,PTH,ViaDrill
T2C0.500
; #@! TA.AperFunction,Plated,PTH,ComponentDrill
T3C1.000
; #@! TA.AperFunction,Plated,PTH,ComponentDrill
T4C2.700
; #@! TA.AperFunction,Plated,PTH,ViaDrill
T5C3.100
%
G90
G05
T1
X108.966Y-112.776
X108.966Y-115.062
X110.49Y-85.09
X110.744Y-89.662
X110.744Y-91.186
X112.522Y-89.662
X112.522Y-91.186
X113.03Y-85.598
X115.316Y-107.188
X115.316Y-110.236
X116.078Y-120.65
X117.348Y-95.758
X118.872Y-86.614
X119.126Y-77.47
X119.38Y-120.65
X121.92Y-111.76
X123.19Y-82.804
X123.444Y-113.284
X123.952Y-79.756
X124.206Y-102.362
X124.46Y-92.71
X124.714Y-108.966
X126.492Y-102.362
X126.746Y-83.82
X126.746Y-85.598
X126.746Y-87.122
X127.762Y-92.71
X128.27Y-83.82
X128.27Y-85.598
X128.27Y-87.122
X128.27Y-107.188
X130.048Y-83.82
X130.048Y-85.598
X130.048Y-87.122
X133.604Y-79.756
X133.604Y-87.122
X133.604Y-92.456
X133.858Y-114.046
X134.62Y-84.582
X135.128Y-107.188
X135.636Y-79.756
X136.144Y-92.71
X136.906Y-97.536
X137.668Y-116.332
X137.897Y-96.012
X138.671Y-97.536
X140.208Y-77.978
X142.494Y-106.68
X143.002Y-117.094
X143.256Y-107.95
X144.272Y-115.57
X145.288Y-108.204
X145.542Y-112.776
X146.812Y-102.108
X147.828Y-91.948
X150.876Y-91.948
X151.13Y-93.726
X151.384Y-99.06
X151.384Y-101.092
T2
X112.0Y-81.575
X121.92Y-98.298
X123.444Y-77.724
X123.444Y-107.188
X135.453Y-98.424
X136.398Y-99.568
X136.398Y-100.838
X137.414Y-114.554
X140.462Y-81.788
T3
X116.102Y-115.179
X116.102Y-118.179
X119.102Y-115.179
X119.102Y-118.179
X133.878Y-119.786
X136.418Y-119.786
X138.958Y-119.786
X141.498Y-119.786
X142.992Y-97.053
X144.038Y-119.786
X145.532Y-97.053
X146.352Y-86.106
X146.352Y-89.106
X148.072Y-97.053
X149.352Y-86.106
X149.352Y-89.106
X150.419Y-103.637
X150.419Y-106.177
X150.419Y-108.717
X150.419Y-111.257
X150.419Y-113.797
X150.612Y-97.053
T4
X110.49Y-103.672
X110.49Y-108.672
T5
X109.363Y-78.867
X109.363Y-119.507
X150.003Y-78.867
X150.003Y-119.507
T0
M30
