M48
; DRILL file {KiCad 6.0.6-3a73a75311~116~ubuntu20.04.1} date Tue 19 Jul 2022 02:40:14 PM HKT
; FORMAT={-:-/ absolute / inch / decimal}
; #@! TF.CreationDate,2022-07-19T14:40:14+08:00
; #@! TF.GenerationSoftware,Kicad,Pcbnew,6.0.6-3a73a75311~116~ubuntu20.04.1
; #@! TF.FileFunction,Plated,1,2,PTH
FMAT,2
INCH
; #@! TA.AperFunction,Plated,PTH,ViaDrill
T1C0.0157
; #@! TA.AperFunction,Plated,PTH,ViaDrill
T2C0.0197
; #@! TA.AperFunction,Plated,PTH,ComponentDrill
T3C0.0394
; #@! TA.AperFunction,Plated,PTH,ComponentDrill
T4C0.1063
; #@! TA.AperFunction,Plated,PTH,ViaDrill
T5C0.1220
%
G90
G05
T1
X4.29Y-4.44
X4.29Y-4.53
X4.35Y-3.35
X4.36Y-3.53
X4.36Y-3.59
X4.43Y-3.53
X4.43Y-3.59
X4.45Y-3.37
X4.54Y-4.22
X4.54Y-4.34
X4.57Y-4.75
X4.62Y-3.77
X4.68Y-3.41
X4.69Y-3.05
X4.7Y-4.75
X4.8Y-4.4
X4.85Y-3.26
X4.86Y-4.46
X4.88Y-3.14
X4.89Y-4.03
X4.9Y-3.65
X4.91Y-4.29
X4.98Y-4.03
X4.99Y-3.3
X4.99Y-3.37
X4.99Y-3.43
X5.03Y-3.65
X5.05Y-3.3
X5.05Y-3.37
X5.05Y-3.43
X5.05Y-4.22
X5.12Y-3.3
X5.12Y-3.37
X5.12Y-3.43
X5.26Y-3.14
X5.26Y-3.43
X5.26Y-3.64
X5.27Y-4.49
X5.3Y-3.33
X5.32Y-4.22
X5.34Y-3.14
X5.36Y-3.65
X5.39Y-3.84
X5.42Y-4.58
X5.429Y-3.78
X5.4595Y-3.84
X5.52Y-3.07
X5.61Y-4.2
X5.63Y-4.61
X5.64Y-4.25
X5.68Y-4.55
X5.72Y-4.26
X5.73Y-4.44
X5.78Y-4.02
X5.82Y-3.62
X5.94Y-3.62
X5.95Y-3.69
X5.96Y-3.9
X5.96Y-3.98
T2
X4.4095Y-3.2116
X4.8Y-3.87
X4.86Y-3.06
X4.86Y-4.22
X5.3328Y-3.8749
X5.37Y-3.92
X5.37Y-3.97
X5.41Y-4.51
X5.53Y-3.22
T3
X4.5709Y-4.5346
X4.5709Y-4.6527
X4.6891Y-4.5346
X4.6891Y-4.6527
X5.2708Y-4.716
X5.3708Y-4.716
X5.4708Y-4.716
X5.5708Y-4.716
X5.6296Y-3.821
X5.6708Y-4.716
X5.7296Y-3.821
X5.7619Y-3.39
X5.7619Y-3.5081
X5.8296Y-3.821
X5.88Y-3.39
X5.88Y-3.5081
X5.922Y-4.0802
X5.922Y-4.1802
X5.922Y-4.2802
X5.922Y-4.3802
X5.922Y-4.4802
X5.9296Y-3.821
T4
X4.35Y-4.0816
X4.35Y-4.2784
T5
X4.3056Y-3.105
X4.3056Y-4.705
X5.9056Y-3.105
X5.9056Y-4.705
T0
M30
