M48
; DRILL file {KiCad 6.0.7-f9a2dced07~116~ubuntu20.04.1} date Mon 22 Aug 2022 08:33:46 PM HKT
; FORMAT={-:-/ absolute / metric / decimal}
; #@! TF.CreationDate,2022-08-22T20:33:46+08:00
; #@! TF.GenerationSoftware,Kicad,Pcbnew,6.0.7-f9a2dced07~116~ubuntu20.04.1
; #@! TF.FileFunction,Plated,1,2,PTH
FMAT,2
METRIC
; #@! TA.AperFunction,Plated,PTH,ViaDrill
T1C0.400
; #@! TA.AperFunction,Plated,PTH,ComponentDrill
T2C0.762
; #@! TA.AperFunction,Plated,PTH,ComponentDrill
T3C0.800
; #@! TA.AperFunction,Plated,PTH,ComponentDrill
T4C1.000
; #@! TA.AperFunction,Plated,PTH,ComponentDrill
T5C1.020
; #@! TA.AperFunction,Plated,PTH,ComponentDrill
T6C2.750
%
G90
G05
T1
X110.16Y-97.46
X110.795Y-49.835
X110.795Y-53.01
X110.795Y-55.55
X111.43Y-82.22
X111.43Y-87.935
X115.24Y-53.01
X116.129Y-60.249
X116.51Y-98.095
X119.05Y-82.855
X119.05Y-87.3
X122.86Y-56.185
X124.765Y-74.6
X129.21Y-51.74
X129.21Y-74.6
X129.21Y-89.84
X133.655Y-74.6
X134.036Y-55.296
X134.925Y-82.22
X135.56Y-63.805
X136.195Y-90.475
X136.449Y-57.201
X138.1Y-64.059
X140.005Y-56.82
X143.815Y-57.455
X147.625Y-72.695
X147.625Y-77.775
X148.26Y-97.46
X149.53Y-53.645
X149.53Y-56.82
X152.07Y-53.645
X152.07Y-56.82
X153.975Y-72.695
X153.975Y-77.775
X153.975Y-87.3
X153.975Y-91.11
X155.245Y-53.645
X155.245Y-56.82
X157.785Y-87.3
X157.785Y-91.11
X158.42Y-59.995
X162.865Y-59.995
X164.135Y-82.855
X166.675Y-70.155
T2
X139.751Y-65.075
X142.291Y-65.075
X144.831Y-65.075
X147.371Y-65.075
X149.911Y-65.075
X152.451Y-65.075
X154.991Y-65.075
X157.531Y-65.075
X160.071Y-65.075
X162.611Y-65.075
T3
X111.684Y-66.345
X111.684Y-68.885
X111.684Y-71.425
X111.684Y-73.965
X119.304Y-66.345
X119.304Y-68.885
X119.304Y-71.425
X119.304Y-73.965
T4
X118.796Y-49.2
X121.336Y-49.2
X123.876Y-49.2
X126.416Y-49.2
X127.94Y-97.46
X128.956Y-49.2
X130.48Y-97.46
X131.496Y-49.2
X133.02Y-97.46
X134.036Y-49.2
X135.56Y-97.46
X136.576Y-49.2
X138.1Y-97.46
X139.116Y-49.2
X140.64Y-97.46
X141.656Y-49.2
X143.18Y-97.46
X145.72Y-49.2
X145.72Y-97.46
X148.26Y-49.2
X150.8Y-49.2
X150.8Y-97.46
X153.34Y-49.2
X153.34Y-97.46
X155.88Y-49.2
X155.88Y-97.46
X158.42Y-49.2
X158.42Y-97.46
X160.96Y-49.2
X160.96Y-97.46
X163.5Y-49.2
X163.5Y-97.46
X165.845Y-77.965
X165.845Y-80.505
X165.845Y-83.045
X165.845Y-85.585
T5
X117.78Y-56.36
X117.78Y-59.36
X120.78Y-56.36
X120.78Y-59.36
T6
X125.05Y-81.795
X125.05Y-88.995
T0
M30
