G04 #@! TF.GenerationSoftware,KiCad,Pcbnew,6.0.7-f9a2dced07~116~ubuntu20.04.1*
G04 #@! TF.CreationDate,2022-08-22T20:33:43+08:00*
G04 #@! TF.ProjectId,arduino_can_bus_shield_v2.1,61726475-696e-46f5-9f63-616e5f627573,rev?*
G04 #@! TF.SameCoordinates,Original*
G04 #@! TF.FileFunction,Legend,Top*
G04 #@! TF.FilePolarity,Positive*
%FSLAX46Y46*%
G04 Gerber Fmt 4.6, Leading zero omitted, Abs format (unit mm)*
G04 Created by KiCad (PCBNEW 6.0.7-f9a2dced07~116~ubuntu20.04.1) date 2022-08-22 20:33:43*
%MOMM*%
%LPD*%
G01*
G04 APERTURE LIST*
G04 Aperture macros list*
%AMRoundRect*
0 Rectangle with rounded corners*
0 $1 Rounding radius*
0 $2 $3 $4 $5 $6 $7 $8 $9 X,Y pos of 4 corners*
0 Add a 4 corners polygon primitive as box body*
4,1,4,$2,$3,$4,$5,$6,$7,$8,$9,$2,$3,0*
0 Add four circle primitives for the rounded corners*
1,1,$1+$1,$2,$3*
1,1,$1+$1,$4,$5*
1,1,$1+$1,$6,$7*
1,1,$1+$1,$8,$9*
0 Add four rect primitives between the rounded corners*
20,1,$1+$1,$2,$3,$4,$5,0*
20,1,$1+$1,$4,$5,$6,$7,0*
20,1,$1+$1,$6,$7,$8,$9,0*
20,1,$1+$1,$8,$9,$2,$3,0*%
G04 Aperture macros list end*
%ADD10C,0.150000*%
%ADD11C,0.120000*%
%ADD12C,0.500000*%
%ADD13C,0.127000*%
%ADD14O,2.000000X1.600000*%
%ADD15R,1.700000X1.700000*%
%ADD16O,1.700000X1.700000*%
%ADD17RoundRect,0.250000X0.450000X-0.350000X0.450000X0.350000X-0.450000X0.350000X-0.450000X-0.350000X0*%
%ADD18RoundRect,0.250000X-0.350000X-0.450000X0.350000X-0.450000X0.350000X0.450000X-0.350000X0.450000X0*%
%ADD19RoundRect,0.250000X-0.325000X-0.450000X0.325000X-0.450000X0.325000X0.450000X-0.325000X0.450000X0*%
%ADD20R,1.800000X0.900000*%
%ADD21C,4.500000*%
%ADD22R,1.600000X1.400000*%
%ADD23C,3.000000*%
%ADD24RoundRect,0.250001X0.499999X-0.499999X0.499999X0.499999X-0.499999X0.499999X-0.499999X-0.499999X0*%
%ADD25C,1.500000*%
%ADD26RoundRect,0.250000X-0.550000X1.412500X-0.550000X-1.412500X0.550000X-1.412500X0.550000X1.412500X0*%
%ADD27C,3.200000*%
%ADD28RoundRect,0.250000X-0.450000X0.350000X-0.450000X-0.350000X0.450000X-0.350000X0.450000X0.350000X0*%
%ADD29C,1.524000*%
%ADD30R,2.300000X3.500000*%
%ADD31R,1.600000X1.600000*%
%ADD32O,1.600000X1.600000*%
%ADD33R,5.020000X2.940000*%
%ADD34R,4.826000X3.048000*%
%ADD35R,5.118000X3.070000*%
%ADD36RoundRect,0.250000X0.350000X0.450000X-0.350000X0.450000X-0.350000X-0.450000X0.350000X-0.450000X0*%
%ADD37RoundRect,0.250000X0.325000X0.450000X-0.325000X0.450000X-0.325000X-0.450000X0.325000X-0.450000X0*%
%ADD38R,3.500000X2.300000*%
G04 APERTURE END LIST*
D10*
X122106904Y-74417380D02*
X121535476Y-74417380D01*
X121821190Y-74417380D02*
X121821190Y-73417380D01*
X121725952Y-73560238D01*
X121630714Y-73655476D01*
X121535476Y-73703095D01*
X122487857Y-73512619D02*
X122535476Y-73465000D01*
X122630714Y-73417380D01*
X122868809Y-73417380D01*
X122964047Y-73465000D01*
X123011666Y-73512619D01*
X123059285Y-73607857D01*
X123059285Y-73703095D01*
X123011666Y-73845952D01*
X122440238Y-74417380D01*
X123059285Y-74417380D01*
X123678333Y-73417380D02*
X123773571Y-73417380D01*
X123868809Y-73465000D01*
X123916428Y-73512619D01*
X123964047Y-73607857D01*
X124011666Y-73798333D01*
X124011666Y-74036428D01*
X123964047Y-74226904D01*
X123916428Y-74322142D01*
X123868809Y-74369761D01*
X123773571Y-74417380D01*
X123678333Y-74417380D01*
X123583095Y-74369761D01*
X123535476Y-74322142D01*
X123487857Y-74226904D01*
X123440238Y-74036428D01*
X123440238Y-73798333D01*
X123487857Y-73607857D01*
X123535476Y-73512619D01*
X123583095Y-73465000D01*
X123678333Y-73417380D01*
X125011666Y-74417380D02*
X124678333Y-73941190D01*
X124440238Y-74417380D02*
X124440238Y-73417380D01*
X124821190Y-73417380D01*
X124916428Y-73465000D01*
X124964047Y-73512619D01*
X125011666Y-73607857D01*
X125011666Y-73750714D01*
X124964047Y-73845952D01*
X124916428Y-73893571D01*
X124821190Y-73941190D01*
X124440238Y-73941190D01*
X126773571Y-74322142D02*
X126725952Y-74369761D01*
X126583095Y-74417380D01*
X126487857Y-74417380D01*
X126345000Y-74369761D01*
X126249761Y-74274523D01*
X126202142Y-74179285D01*
X126154523Y-73988809D01*
X126154523Y-73845952D01*
X126202142Y-73655476D01*
X126249761Y-73560238D01*
X126345000Y-73465000D01*
X126487857Y-73417380D01*
X126583095Y-73417380D01*
X126725952Y-73465000D01*
X126773571Y-73512619D01*
X127154523Y-74131666D02*
X127630714Y-74131666D01*
X127059285Y-74417380D02*
X127392619Y-73417380D01*
X127725952Y-74417380D01*
X128059285Y-74417380D02*
X128059285Y-73417380D01*
X128630714Y-74417380D01*
X128630714Y-73417380D01*
X129725952Y-73417380D02*
X130297380Y-73417380D01*
X130011666Y-74417380D02*
X130011666Y-73417380D01*
X131011666Y-74369761D02*
X130916428Y-74417380D01*
X130725952Y-74417380D01*
X130630714Y-74369761D01*
X130583095Y-74274523D01*
X130583095Y-73893571D01*
X130630714Y-73798333D01*
X130725952Y-73750714D01*
X130916428Y-73750714D01*
X131011666Y-73798333D01*
X131059285Y-73893571D01*
X131059285Y-73988809D01*
X130583095Y-74084047D01*
X131487857Y-74417380D02*
X131487857Y-73750714D01*
X131487857Y-73941190D02*
X131535476Y-73845952D01*
X131583095Y-73798333D01*
X131678333Y-73750714D01*
X131773571Y-73750714D01*
X132106904Y-74417380D02*
X132106904Y-73750714D01*
X132106904Y-73845952D02*
X132154523Y-73798333D01*
X132249761Y-73750714D01*
X132392619Y-73750714D01*
X132487857Y-73798333D01*
X132535476Y-73893571D01*
X132535476Y-74417380D01*
X132535476Y-73893571D02*
X132583095Y-73798333D01*
X132678333Y-73750714D01*
X132821190Y-73750714D01*
X132916428Y-73798333D01*
X132964047Y-73893571D01*
X132964047Y-74417380D01*
X133440238Y-74417380D02*
X133440238Y-73750714D01*
X133440238Y-73417380D02*
X133392619Y-73465000D01*
X133440238Y-73512619D01*
X133487857Y-73465000D01*
X133440238Y-73417380D01*
X133440238Y-73512619D01*
X133916428Y-73750714D02*
X133916428Y-74417380D01*
X133916428Y-73845952D02*
X133964047Y-73798333D01*
X134059285Y-73750714D01*
X134202142Y-73750714D01*
X134297380Y-73798333D01*
X134345000Y-73893571D01*
X134345000Y-74417380D01*
X135249761Y-74417380D02*
X135249761Y-73893571D01*
X135202142Y-73798333D01*
X135106904Y-73750714D01*
X134916428Y-73750714D01*
X134821190Y-73798333D01*
X135249761Y-74369761D02*
X135154523Y-74417380D01*
X134916428Y-74417380D01*
X134821190Y-74369761D01*
X134773571Y-74274523D01*
X134773571Y-74179285D01*
X134821190Y-74084047D01*
X134916428Y-74036428D01*
X135154523Y-74036428D01*
X135249761Y-73988809D01*
X135583095Y-73750714D02*
X135964047Y-73750714D01*
X135725952Y-73417380D02*
X135725952Y-74274523D01*
X135773571Y-74369761D01*
X135868809Y-74417380D01*
X135964047Y-74417380D01*
X136297380Y-74417380D02*
X136297380Y-73750714D01*
X136297380Y-73417380D02*
X136249761Y-73465000D01*
X136297380Y-73512619D01*
X136345000Y-73465000D01*
X136297380Y-73417380D01*
X136297380Y-73512619D01*
X136916428Y-74417380D02*
X136821190Y-74369761D01*
X136773571Y-74322142D01*
X136725952Y-74226904D01*
X136725952Y-73941190D01*
X136773571Y-73845952D01*
X136821190Y-73798333D01*
X136916428Y-73750714D01*
X137059285Y-73750714D01*
X137154523Y-73798333D01*
X137202142Y-73845952D01*
X137249761Y-73941190D01*
X137249761Y-74226904D01*
X137202142Y-74322142D01*
X137154523Y-74369761D01*
X137059285Y-74417380D01*
X136916428Y-74417380D01*
X137678333Y-73750714D02*
X137678333Y-74417380D01*
X137678333Y-73845952D02*
X137725952Y-73798333D01*
X137821190Y-73750714D01*
X137964047Y-73750714D01*
X138059285Y-73798333D01*
X138106904Y-73893571D01*
X138106904Y-74417380D01*
X122217380Y-71782142D02*
X122169761Y-71829761D01*
X122026904Y-71877380D01*
X121931666Y-71877380D01*
X121788809Y-71829761D01*
X121693571Y-71734523D01*
X121645952Y-71639285D01*
X121598333Y-71448809D01*
X121598333Y-71305952D01*
X121645952Y-71115476D01*
X121693571Y-71020238D01*
X121788809Y-70925000D01*
X121931666Y-70877380D01*
X122026904Y-70877380D01*
X122169761Y-70925000D01*
X122217380Y-70972619D01*
X122598333Y-71591666D02*
X123074523Y-71591666D01*
X122503095Y-71877380D02*
X122836428Y-70877380D01*
X123169761Y-71877380D01*
X123503095Y-71877380D02*
X123503095Y-70877380D01*
X124074523Y-71877380D01*
X124074523Y-70877380D01*
X125836428Y-70925000D02*
X125741190Y-70877380D01*
X125598333Y-70877380D01*
X125455476Y-70925000D01*
X125360238Y-71020238D01*
X125312619Y-71115476D01*
X125265000Y-71305952D01*
X125265000Y-71448809D01*
X125312619Y-71639285D01*
X125360238Y-71734523D01*
X125455476Y-71829761D01*
X125598333Y-71877380D01*
X125693571Y-71877380D01*
X125836428Y-71829761D01*
X125884047Y-71782142D01*
X125884047Y-71448809D01*
X125693571Y-71448809D01*
X126312619Y-71877380D02*
X126312619Y-70877380D01*
X126884047Y-71877380D01*
X126884047Y-70877380D01*
X127360238Y-71877380D02*
X127360238Y-70877380D01*
X127598333Y-70877380D01*
X127741190Y-70925000D01*
X127836428Y-71020238D01*
X127884047Y-71115476D01*
X127931666Y-71305952D01*
X127931666Y-71448809D01*
X127884047Y-71639285D01*
X127836428Y-71734523D01*
X127741190Y-71829761D01*
X127598333Y-71877380D01*
X127360238Y-71877380D01*
X121757142Y-69337380D02*
X121757142Y-68337380D01*
X122233333Y-69337380D02*
X122233333Y-68337380D01*
X122566666Y-69051666D01*
X122900000Y-68337380D01*
X122900000Y-69337380D01*
X123376190Y-68337380D02*
X123376190Y-69146904D01*
X123423809Y-69242142D01*
X123471428Y-69289761D01*
X123566666Y-69337380D01*
X123757142Y-69337380D01*
X123852380Y-69289761D01*
X123900000Y-69242142D01*
X123947619Y-69146904D01*
X123947619Y-68337380D01*
X125185714Y-68670714D02*
X125185714Y-69670714D01*
X125185714Y-68718333D02*
X125280952Y-68670714D01*
X125471428Y-68670714D01*
X125566666Y-68718333D01*
X125614285Y-68765952D01*
X125661904Y-68861190D01*
X125661904Y-69146904D01*
X125614285Y-69242142D01*
X125566666Y-69289761D01*
X125471428Y-69337380D01*
X125280952Y-69337380D01*
X125185714Y-69289761D01*
X126233333Y-69337380D02*
X126138095Y-69289761D01*
X126090476Y-69242142D01*
X126042857Y-69146904D01*
X126042857Y-68861190D01*
X126090476Y-68765952D01*
X126138095Y-68718333D01*
X126233333Y-68670714D01*
X126376190Y-68670714D01*
X126471428Y-68718333D01*
X126519047Y-68765952D01*
X126566666Y-68861190D01*
X126566666Y-69146904D01*
X126519047Y-69242142D01*
X126471428Y-69289761D01*
X126376190Y-69337380D01*
X126233333Y-69337380D01*
X126900000Y-68670714D02*
X127090476Y-69337380D01*
X127280952Y-68861190D01*
X127471428Y-69337380D01*
X127661904Y-68670714D01*
X128423809Y-69289761D02*
X128328571Y-69337380D01*
X128138095Y-69337380D01*
X128042857Y-69289761D01*
X127995238Y-69194523D01*
X127995238Y-68813571D01*
X128042857Y-68718333D01*
X128138095Y-68670714D01*
X128328571Y-68670714D01*
X128423809Y-68718333D01*
X128471428Y-68813571D01*
X128471428Y-68908809D01*
X127995238Y-69004047D01*
X128900000Y-69337380D02*
X128900000Y-68670714D01*
X128900000Y-68861190D02*
X128947619Y-68765952D01*
X128995238Y-68718333D01*
X129090476Y-68670714D01*
X129185714Y-68670714D01*
X122161904Y-66702142D02*
X122114285Y-66749761D01*
X121971428Y-66797380D01*
X121876190Y-66797380D01*
X121733333Y-66749761D01*
X121638095Y-66654523D01*
X121590476Y-66559285D01*
X121542857Y-66368809D01*
X121542857Y-66225952D01*
X121590476Y-66035476D01*
X121638095Y-65940238D01*
X121733333Y-65845000D01*
X121876190Y-65797380D01*
X121971428Y-65797380D01*
X122114285Y-65845000D01*
X122161904Y-65892619D01*
X122542857Y-66511666D02*
X123019047Y-66511666D01*
X122447619Y-66797380D02*
X122780952Y-65797380D01*
X123114285Y-66797380D01*
X123447619Y-66797380D02*
X123447619Y-65797380D01*
X124019047Y-66797380D01*
X124019047Y-65797380D01*
X125257142Y-66797380D02*
X125257142Y-65797380D01*
X125638095Y-65797380D01*
X125733333Y-65845000D01*
X125780952Y-65892619D01*
X125828571Y-65987857D01*
X125828571Y-66130714D01*
X125780952Y-66225952D01*
X125733333Y-66273571D01*
X125638095Y-66321190D01*
X125257142Y-66321190D01*
X126400000Y-66797380D02*
X126304761Y-66749761D01*
X126257142Y-66702142D01*
X126209523Y-66606904D01*
X126209523Y-66321190D01*
X126257142Y-66225952D01*
X126304761Y-66178333D01*
X126400000Y-66130714D01*
X126542857Y-66130714D01*
X126638095Y-66178333D01*
X126685714Y-66225952D01*
X126733333Y-66321190D01*
X126733333Y-66606904D01*
X126685714Y-66702142D01*
X126638095Y-66749761D01*
X126542857Y-66797380D01*
X126400000Y-66797380D01*
X127066666Y-66130714D02*
X127257142Y-66797380D01*
X127447619Y-66321190D01*
X127638095Y-66797380D01*
X127828571Y-66130714D01*
X128590476Y-66749761D02*
X128495238Y-66797380D01*
X128304761Y-66797380D01*
X128209523Y-66749761D01*
X128161904Y-66654523D01*
X128161904Y-66273571D01*
X128209523Y-66178333D01*
X128304761Y-66130714D01*
X128495238Y-66130714D01*
X128590476Y-66178333D01*
X128638095Y-66273571D01*
X128638095Y-66368809D01*
X128161904Y-66464047D01*
X129066666Y-66797380D02*
X129066666Y-66130714D01*
X129066666Y-66321190D02*
X129114285Y-66225952D01*
X129161904Y-66178333D01*
X129257142Y-66130714D01*
X129352380Y-66130714D01*
X157888333Y-75798571D02*
X158031190Y-75846190D01*
X158078809Y-75893809D01*
X158126428Y-75989047D01*
X158126428Y-76131904D01*
X158078809Y-76227142D01*
X158031190Y-76274761D01*
X157935952Y-76322380D01*
X157555000Y-76322380D01*
X157555000Y-75322380D01*
X157888333Y-75322380D01*
X157983571Y-75370000D01*
X158031190Y-75417619D01*
X158078809Y-75512857D01*
X158078809Y-75608095D01*
X158031190Y-75703333D01*
X157983571Y-75750952D01*
X157888333Y-75798571D01*
X157555000Y-75798571D01*
X158555000Y-76322380D02*
X158555000Y-75655714D01*
X158555000Y-75846190D02*
X158602619Y-75750952D01*
X158650238Y-75703333D01*
X158745476Y-75655714D01*
X158840714Y-75655714D01*
X159602619Y-76322380D02*
X159602619Y-75322380D01*
X159602619Y-76274761D02*
X159507380Y-76322380D01*
X159316904Y-76322380D01*
X159221666Y-76274761D01*
X159174047Y-76227142D01*
X159126428Y-76131904D01*
X159126428Y-75846190D01*
X159174047Y-75750952D01*
X159221666Y-75703333D01*
X159316904Y-75655714D01*
X159507380Y-75655714D01*
X159602619Y-75703333D01*
X160602619Y-76322380D02*
X160031190Y-76322380D01*
X160316904Y-76322380D02*
X160316904Y-75322380D01*
X160221666Y-75465238D01*
X160126428Y-75560476D01*
X160031190Y-75608095D01*
X135393333Y-59177380D02*
X135060000Y-58701190D01*
X134821904Y-59177380D02*
X134821904Y-58177380D01*
X135202857Y-58177380D01*
X135298095Y-58225000D01*
X135345714Y-58272619D01*
X135393333Y-58367857D01*
X135393333Y-58510714D01*
X135345714Y-58605952D01*
X135298095Y-58653571D01*
X135202857Y-58701190D01*
X134821904Y-58701190D01*
X135774285Y-58272619D02*
X135821904Y-58225000D01*
X135917142Y-58177380D01*
X136155238Y-58177380D01*
X136250476Y-58225000D01*
X136298095Y-58272619D01*
X136345714Y-58367857D01*
X136345714Y-58463095D01*
X136298095Y-58605952D01*
X135726666Y-59177380D01*
X136345714Y-59177380D01*
X156713333Y-92197380D02*
X156380000Y-91721190D01*
X156141904Y-92197380D02*
X156141904Y-91197380D01*
X156522857Y-91197380D01*
X156618095Y-91245000D01*
X156665714Y-91292619D01*
X156713333Y-91387857D01*
X156713333Y-91530714D01*
X156665714Y-91625952D01*
X156618095Y-91673571D01*
X156522857Y-91721190D01*
X156141904Y-91721190D01*
X157570476Y-91530714D02*
X157570476Y-92197380D01*
X157332380Y-91149761D02*
X157094285Y-91864047D01*
X157713333Y-91864047D01*
X118701904Y-96262380D02*
X118701904Y-95262380D01*
X118940000Y-95262380D01*
X119082857Y-95310000D01*
X119178095Y-95405238D01*
X119225714Y-95500476D01*
X119273333Y-95690952D01*
X119273333Y-95833809D01*
X119225714Y-96024285D01*
X119178095Y-96119523D01*
X119082857Y-96214761D01*
X118940000Y-96262380D01*
X118701904Y-96262380D01*
X119606666Y-95262380D02*
X120225714Y-95262380D01*
X119892380Y-95643333D01*
X120035238Y-95643333D01*
X120130476Y-95690952D01*
X120178095Y-95738571D01*
X120225714Y-95833809D01*
X120225714Y-96071904D01*
X120178095Y-96167142D01*
X120130476Y-96214761D01*
X120035238Y-96262380D01*
X119749523Y-96262380D01*
X119654285Y-96214761D01*
X119606666Y-96167142D01*
X121891666Y-75322380D02*
X121891666Y-76036666D01*
X121844047Y-76179523D01*
X121748809Y-76274761D01*
X121605952Y-76322380D01*
X121510714Y-76322380D01*
X122796428Y-75322380D02*
X122605952Y-75322380D01*
X122510714Y-75370000D01*
X122463095Y-75417619D01*
X122367857Y-75560476D01*
X122320238Y-75750952D01*
X122320238Y-76131904D01*
X122367857Y-76227142D01*
X122415476Y-76274761D01*
X122510714Y-76322380D01*
X122701190Y-76322380D01*
X122796428Y-76274761D01*
X122844047Y-76227142D01*
X122891666Y-76131904D01*
X122891666Y-75893809D01*
X122844047Y-75798571D01*
X122796428Y-75750952D01*
X122701190Y-75703333D01*
X122510714Y-75703333D01*
X122415476Y-75750952D01*
X122367857Y-75798571D01*
X122320238Y-75893809D01*
X129146666Y-52754761D02*
X129289523Y-52802380D01*
X129527619Y-52802380D01*
X129622857Y-52754761D01*
X129670476Y-52707142D01*
X129718095Y-52611904D01*
X129718095Y-52516666D01*
X129670476Y-52421428D01*
X129622857Y-52373809D01*
X129527619Y-52326190D01*
X129337142Y-52278571D01*
X129241904Y-52230952D01*
X129194285Y-52183333D01*
X129146666Y-52088095D01*
X129146666Y-51992857D01*
X129194285Y-51897619D01*
X129241904Y-51850000D01*
X129337142Y-51802380D01*
X129575238Y-51802380D01*
X129718095Y-51850000D01*
X130051428Y-51802380D02*
X130289523Y-52802380D01*
X130480000Y-52088095D01*
X130670476Y-52802380D01*
X130908571Y-51802380D01*
X131813333Y-52802380D02*
X131241904Y-52802380D01*
X131527619Y-52802380D02*
X131527619Y-51802380D01*
X131432380Y-51945238D01*
X131337142Y-52040476D01*
X131241904Y-52088095D01*
X112366666Y-51192380D02*
X112366666Y-51906666D01*
X112319047Y-52049523D01*
X112223809Y-52144761D01*
X112080952Y-52192380D01*
X111985714Y-52192380D01*
X112747619Y-51192380D02*
X113414285Y-51192380D01*
X112985714Y-52192380D01*
X129146666Y-59129761D02*
X129289523Y-59177380D01*
X129527619Y-59177380D01*
X129622857Y-59129761D01*
X129670476Y-59082142D01*
X129718095Y-58986904D01*
X129718095Y-58891666D01*
X129670476Y-58796428D01*
X129622857Y-58748809D01*
X129527619Y-58701190D01*
X129337142Y-58653571D01*
X129241904Y-58605952D01*
X129194285Y-58558333D01*
X129146666Y-58463095D01*
X129146666Y-58367857D01*
X129194285Y-58272619D01*
X129241904Y-58225000D01*
X129337142Y-58177380D01*
X129575238Y-58177380D01*
X129718095Y-58225000D01*
X130051428Y-58177380D02*
X130289523Y-59177380D01*
X130480000Y-58463095D01*
X130670476Y-59177380D01*
X130908571Y-58177380D01*
X131241904Y-58272619D02*
X131289523Y-58225000D01*
X131384761Y-58177380D01*
X131622857Y-58177380D01*
X131718095Y-58225000D01*
X131765714Y-58272619D01*
X131813333Y-58367857D01*
X131813333Y-58463095D01*
X131765714Y-58605952D01*
X131194285Y-59177380D01*
X131813333Y-59177380D01*
X144918333Y-94642142D02*
X144870714Y-94689761D01*
X144727857Y-94737380D01*
X144632619Y-94737380D01*
X144489761Y-94689761D01*
X144394523Y-94594523D01*
X144346904Y-94499285D01*
X144299285Y-94308809D01*
X144299285Y-94165952D01*
X144346904Y-93975476D01*
X144394523Y-93880238D01*
X144489761Y-93785000D01*
X144632619Y-93737380D01*
X144727857Y-93737380D01*
X144870714Y-93785000D01*
X144918333Y-93832619D01*
X145299285Y-93832619D02*
X145346904Y-93785000D01*
X145442142Y-93737380D01*
X145680238Y-93737380D01*
X145775476Y-93785000D01*
X145823095Y-93832619D01*
X145870714Y-93927857D01*
X145870714Y-94023095D01*
X145823095Y-94165952D01*
X145251666Y-94737380D01*
X145870714Y-94737380D01*
X136663333Y-94642142D02*
X136615714Y-94689761D01*
X136472857Y-94737380D01*
X136377619Y-94737380D01*
X136234761Y-94689761D01*
X136139523Y-94594523D01*
X136091904Y-94499285D01*
X136044285Y-94308809D01*
X136044285Y-94165952D01*
X136091904Y-93975476D01*
X136139523Y-93880238D01*
X136234761Y-93785000D01*
X136377619Y-93737380D01*
X136472857Y-93737380D01*
X136615714Y-93785000D01*
X136663333Y-93832619D01*
X137615714Y-94737380D02*
X137044285Y-94737380D01*
X137330000Y-94737380D02*
X137330000Y-93737380D01*
X137234761Y-93880238D01*
X137139523Y-93975476D01*
X137044285Y-94023095D01*
X136028333Y-52827380D02*
X135695000Y-52351190D01*
X135456904Y-52827380D02*
X135456904Y-51827380D01*
X135837857Y-51827380D01*
X135933095Y-51875000D01*
X135980714Y-51922619D01*
X136028333Y-52017857D01*
X136028333Y-52160714D01*
X135980714Y-52255952D01*
X135933095Y-52303571D01*
X135837857Y-52351190D01*
X135456904Y-52351190D01*
X136980714Y-52827380D02*
X136409285Y-52827380D01*
X136695000Y-52827380D02*
X136695000Y-51827380D01*
X136599761Y-51970238D01*
X136504523Y-52065476D01*
X136409285Y-52113095D01*
X137663380Y-65884523D02*
X136663380Y-65884523D01*
X137377666Y-65551190D01*
X136663380Y-65217857D01*
X137663380Y-65217857D01*
X137663380Y-64217857D02*
X137663380Y-64789285D01*
X137663380Y-64503571D02*
X136663380Y-64503571D01*
X136806238Y-64598809D01*
X136901476Y-64694047D01*
X136949095Y-64789285D01*
X162793571Y-63050714D02*
X162793571Y-63384047D01*
X163317380Y-63384047D02*
X162317380Y-63384047D01*
X162317380Y-62907857D01*
X163269761Y-62574523D02*
X163317380Y-62431666D01*
X163317380Y-62193571D01*
X163269761Y-62098333D01*
X163222142Y-62050714D01*
X163126904Y-62003095D01*
X163031666Y-62003095D01*
X162936428Y-62050714D01*
X162888809Y-62098333D01*
X162841190Y-62193571D01*
X162793571Y-62384047D01*
X162745952Y-62479285D01*
X162698333Y-62526904D01*
X162603095Y-62574523D01*
X162507857Y-62574523D01*
X162412619Y-62526904D01*
X162365000Y-62479285D01*
X162317380Y-62384047D01*
X162317380Y-62145952D01*
X162365000Y-62003095D01*
X162841190Y-61384047D02*
X163317380Y-61384047D01*
X162317380Y-61717380D02*
X162841190Y-61384047D01*
X162317380Y-61050714D01*
X163317380Y-60717380D02*
X162317380Y-60717380D01*
X163317380Y-60145952D01*
X162317380Y-60145952D01*
X163222142Y-59098333D02*
X163269761Y-59145952D01*
X163317380Y-59288809D01*
X163317380Y-59384047D01*
X163269761Y-59526904D01*
X163174523Y-59622142D01*
X163079285Y-59669761D01*
X162888809Y-59717380D01*
X162745952Y-59717380D01*
X162555476Y-59669761D01*
X162460238Y-59622142D01*
X162365000Y-59526904D01*
X162317380Y-59384047D01*
X162317380Y-59288809D01*
X162365000Y-59145952D01*
X162412619Y-59098333D01*
X149839571Y-63677857D02*
X149839571Y-63344523D01*
X150363380Y-63201666D02*
X150363380Y-63677857D01*
X149363380Y-63677857D01*
X149363380Y-63201666D01*
X150363380Y-62773095D02*
X149363380Y-62773095D01*
X149363380Y-62535000D01*
X149411000Y-62392142D01*
X149506238Y-62296904D01*
X149601476Y-62249285D01*
X149791952Y-62201666D01*
X149934809Y-62201666D01*
X150125285Y-62249285D01*
X150220523Y-62296904D01*
X150315761Y-62392142D01*
X150363380Y-62535000D01*
X150363380Y-62773095D01*
X150077666Y-61820714D02*
X150077666Y-61344523D01*
X150363380Y-61915952D02*
X149363380Y-61582619D01*
X150363380Y-61249285D01*
X143569761Y-56002380D02*
X143569761Y-55002380D01*
X143903095Y-55716666D01*
X144236428Y-55002380D01*
X144236428Y-56002380D01*
X144712619Y-56002380D02*
X144712619Y-55002380D01*
X145093571Y-55002380D01*
X145188809Y-55050000D01*
X145236428Y-55097619D01*
X145284047Y-55192857D01*
X145284047Y-55335714D01*
X145236428Y-55430952D01*
X145188809Y-55478571D01*
X145093571Y-55526190D01*
X144712619Y-55526190D01*
X145712619Y-55002380D02*
X145712619Y-55811904D01*
X145760238Y-55907142D01*
X145807857Y-55954761D01*
X145903095Y-56002380D01*
X146093571Y-56002380D01*
X146188809Y-55954761D01*
X146236428Y-55907142D01*
X146284047Y-55811904D01*
X146284047Y-55002380D01*
X146807857Y-56002380D02*
X146998333Y-56002380D01*
X147093571Y-55954761D01*
X147141190Y-55907142D01*
X147236428Y-55764285D01*
X147284047Y-55573809D01*
X147284047Y-55192857D01*
X147236428Y-55097619D01*
X147188809Y-55050000D01*
X147093571Y-55002380D01*
X146903095Y-55002380D01*
X146807857Y-55050000D01*
X146760238Y-55097619D01*
X146712619Y-55192857D01*
X146712619Y-55430952D01*
X146760238Y-55526190D01*
X146807857Y-55573809D01*
X146903095Y-55621428D01*
X147093571Y-55621428D01*
X147188809Y-55573809D01*
X147236428Y-55526190D01*
X147284047Y-55430952D01*
X147665000Y-55097619D02*
X147712619Y-55050000D01*
X147807857Y-55002380D01*
X148045952Y-55002380D01*
X148141190Y-55050000D01*
X148188809Y-55097619D01*
X148236428Y-55192857D01*
X148236428Y-55288095D01*
X148188809Y-55430952D01*
X147617380Y-56002380D01*
X148236428Y-56002380D01*
X149141190Y-55002380D02*
X148665000Y-55002380D01*
X148617380Y-55478571D01*
X148665000Y-55430952D01*
X148760238Y-55383333D01*
X148998333Y-55383333D01*
X149093571Y-55430952D01*
X149141190Y-55478571D01*
X149188809Y-55573809D01*
X149188809Y-55811904D01*
X149141190Y-55907142D01*
X149093571Y-55954761D01*
X148998333Y-56002380D01*
X148760238Y-56002380D01*
X148665000Y-55954761D01*
X148617380Y-55907142D01*
X149807857Y-55002380D02*
X149903095Y-55002380D01*
X149998333Y-55050000D01*
X150045952Y-55097619D01*
X150093571Y-55192857D01*
X150141190Y-55383333D01*
X150141190Y-55621428D01*
X150093571Y-55811904D01*
X150045952Y-55907142D01*
X149998333Y-55954761D01*
X149903095Y-56002380D01*
X149807857Y-56002380D01*
X149712619Y-55954761D01*
X149665000Y-55907142D01*
X149617380Y-55811904D01*
X149569761Y-55621428D01*
X149569761Y-55383333D01*
X149617380Y-55192857D01*
X149665000Y-55097619D01*
X149712619Y-55050000D01*
X149807857Y-55002380D01*
X150569761Y-55621428D02*
X151331666Y-55621428D01*
X151807857Y-56002380D02*
X151807857Y-55335714D01*
X151807857Y-55430952D02*
X151855476Y-55383333D01*
X151950714Y-55335714D01*
X152093571Y-55335714D01*
X152188809Y-55383333D01*
X152236428Y-55478571D01*
X152236428Y-56002380D01*
X152236428Y-55478571D02*
X152284047Y-55383333D01*
X152379285Y-55335714D01*
X152522142Y-55335714D01*
X152617380Y-55383333D01*
X152665000Y-55478571D01*
X152665000Y-56002380D01*
X153284047Y-56002380D02*
X153188809Y-55954761D01*
X153141190Y-55907142D01*
X153093571Y-55811904D01*
X153093571Y-55526190D01*
X153141190Y-55430952D01*
X153188809Y-55383333D01*
X153284047Y-55335714D01*
X153426904Y-55335714D01*
X153522142Y-55383333D01*
X153569761Y-55430952D01*
X153617380Y-55526190D01*
X153617380Y-55811904D01*
X153569761Y-55907142D01*
X153522142Y-55954761D01*
X153426904Y-56002380D01*
X153284047Y-56002380D01*
X154474523Y-56002380D02*
X154474523Y-55002380D01*
X154474523Y-55954761D02*
X154379285Y-56002380D01*
X154188809Y-56002380D01*
X154093571Y-55954761D01*
X154045952Y-55907142D01*
X153998333Y-55811904D01*
X153998333Y-55526190D01*
X154045952Y-55430952D01*
X154093571Y-55383333D01*
X154188809Y-55335714D01*
X154379285Y-55335714D01*
X154474523Y-55383333D01*
X155379285Y-55335714D02*
X155379285Y-56002380D01*
X154950714Y-55335714D02*
X154950714Y-55859523D01*
X154998333Y-55954761D01*
X155093571Y-56002380D01*
X155236428Y-56002380D01*
X155331666Y-55954761D01*
X155379285Y-55907142D01*
X155998333Y-56002380D02*
X155903095Y-55954761D01*
X155855476Y-55859523D01*
X155855476Y-55002380D01*
X156760238Y-55954761D02*
X156665000Y-56002380D01*
X156474523Y-56002380D01*
X156379285Y-55954761D01*
X156331666Y-55859523D01*
X156331666Y-55478571D01*
X156379285Y-55383333D01*
X156474523Y-55335714D01*
X156665000Y-55335714D01*
X156760238Y-55383333D01*
X156807857Y-55478571D01*
X156807857Y-55573809D01*
X156331666Y-55669047D01*
X145235761Y-63725476D02*
X145283380Y-63582619D01*
X145283380Y-63344523D01*
X145235761Y-63249285D01*
X145188142Y-63201666D01*
X145092904Y-63154047D01*
X144997666Y-63154047D01*
X144902428Y-63201666D01*
X144854809Y-63249285D01*
X144807190Y-63344523D01*
X144759571Y-63535000D01*
X144711952Y-63630238D01*
X144664333Y-63677857D01*
X144569095Y-63725476D01*
X144473857Y-63725476D01*
X144378619Y-63677857D01*
X144331000Y-63630238D01*
X144283380Y-63535000D01*
X144283380Y-63296904D01*
X144331000Y-63154047D01*
X145188142Y-62154047D02*
X145235761Y-62201666D01*
X145283380Y-62344523D01*
X145283380Y-62439761D01*
X145235761Y-62582619D01*
X145140523Y-62677857D01*
X145045285Y-62725476D01*
X144854809Y-62773095D01*
X144711952Y-62773095D01*
X144521476Y-62725476D01*
X144426238Y-62677857D01*
X144331000Y-62582619D01*
X144283380Y-62439761D01*
X144283380Y-62344523D01*
X144331000Y-62201666D01*
X144378619Y-62154047D01*
X145283380Y-61249285D02*
X145283380Y-61725476D01*
X144283380Y-61725476D01*
X147775761Y-63749285D02*
X147823380Y-63606428D01*
X147823380Y-63368333D01*
X147775761Y-63273095D01*
X147728142Y-63225476D01*
X147632904Y-63177857D01*
X147537666Y-63177857D01*
X147442428Y-63225476D01*
X147394809Y-63273095D01*
X147347190Y-63368333D01*
X147299571Y-63558809D01*
X147251952Y-63654047D01*
X147204333Y-63701666D01*
X147109095Y-63749285D01*
X147013857Y-63749285D01*
X146918619Y-63701666D01*
X146871000Y-63654047D01*
X146823380Y-63558809D01*
X146823380Y-63320714D01*
X146871000Y-63177857D01*
X147823380Y-62749285D02*
X146823380Y-62749285D01*
X146823380Y-62511190D01*
X146871000Y-62368333D01*
X146966238Y-62273095D01*
X147061476Y-62225476D01*
X147251952Y-62177857D01*
X147394809Y-62177857D01*
X147585285Y-62225476D01*
X147680523Y-62273095D01*
X147775761Y-62368333D01*
X147823380Y-62511190D01*
X147823380Y-62749285D01*
X147537666Y-61796904D02*
X147537666Y-61320714D01*
X147823380Y-61892142D02*
X146823380Y-61558809D01*
X147823380Y-61225476D01*
X160777380Y-63161904D02*
X159777380Y-63161904D01*
X160777380Y-62590476D01*
X159777380Y-62590476D01*
X160682142Y-61542857D02*
X160729761Y-61590476D01*
X160777380Y-61733333D01*
X160777380Y-61828571D01*
X160729761Y-61971428D01*
X160634523Y-62066666D01*
X160539285Y-62114285D01*
X160348809Y-62161904D01*
X160205952Y-62161904D01*
X160015476Y-62114285D01*
X159920238Y-62066666D01*
X159825000Y-61971428D01*
X159777380Y-61828571D01*
X159777380Y-61733333D01*
X159825000Y-61590476D01*
X159872619Y-61542857D01*
X160729761Y-61161904D02*
X160777380Y-61019047D01*
X160777380Y-60780952D01*
X160729761Y-60685714D01*
X160682142Y-60638095D01*
X160586904Y-60590476D01*
X160491666Y-60590476D01*
X160396428Y-60638095D01*
X160348809Y-60685714D01*
X160301190Y-60780952D01*
X160253571Y-60971428D01*
X160205952Y-61066666D01*
X160158333Y-61114285D01*
X160063095Y-61161904D01*
X159967857Y-61161904D01*
X159872619Y-61114285D01*
X159825000Y-61066666D01*
X159777380Y-60971428D01*
X159777380Y-60733333D01*
X159825000Y-60590476D01*
X141791000Y-63296904D02*
X141743380Y-63392142D01*
X141743380Y-63535000D01*
X141791000Y-63677857D01*
X141886238Y-63773095D01*
X141981476Y-63820714D01*
X142171952Y-63868333D01*
X142314809Y-63868333D01*
X142505285Y-63820714D01*
X142600523Y-63773095D01*
X142695761Y-63677857D01*
X142743380Y-63535000D01*
X142743380Y-63439761D01*
X142695761Y-63296904D01*
X142648142Y-63249285D01*
X142314809Y-63249285D01*
X142314809Y-63439761D01*
X142743380Y-62820714D02*
X141743380Y-62820714D01*
X142743380Y-62249285D01*
X141743380Y-62249285D01*
X142743380Y-61773095D02*
X141743380Y-61773095D01*
X141743380Y-61535000D01*
X141791000Y-61392142D01*
X141886238Y-61296904D01*
X141981476Y-61249285D01*
X142171952Y-61201666D01*
X142314809Y-61201666D01*
X142505285Y-61249285D01*
X142600523Y-61296904D01*
X142695761Y-61392142D01*
X142743380Y-61535000D01*
X142743380Y-61773095D01*
X155157666Y-63749285D02*
X155157666Y-63273095D01*
X155443380Y-63844523D02*
X154443380Y-63511190D01*
X155443380Y-63177857D01*
X155443380Y-62844523D02*
X154443380Y-62844523D01*
X154443380Y-62606428D01*
X154491000Y-62463571D01*
X154586238Y-62368333D01*
X154681476Y-62320714D01*
X154871952Y-62273095D01*
X155014809Y-62273095D01*
X155205285Y-62320714D01*
X155300523Y-62368333D01*
X155395761Y-62463571D01*
X155443380Y-62606428D01*
X155443380Y-62844523D01*
X154443380Y-61654047D02*
X154443380Y-61558809D01*
X154491000Y-61463571D01*
X154538619Y-61415952D01*
X154633857Y-61368333D01*
X154824333Y-61320714D01*
X155062428Y-61320714D01*
X155252904Y-61368333D01*
X155348142Y-61415952D01*
X155395761Y-61463571D01*
X155443380Y-61558809D01*
X155443380Y-61654047D01*
X155395761Y-61749285D01*
X155348142Y-61796904D01*
X155252904Y-61844523D01*
X155062428Y-61892142D01*
X154824333Y-61892142D01*
X154633857Y-61844523D01*
X154538619Y-61796904D01*
X154491000Y-61749285D01*
X154443380Y-61654047D01*
X139203380Y-63868333D02*
X140203380Y-63535000D01*
X139203380Y-63201666D01*
X140108142Y-62296904D02*
X140155761Y-62344523D01*
X140203380Y-62487380D01*
X140203380Y-62582619D01*
X140155761Y-62725476D01*
X140060523Y-62820714D01*
X139965285Y-62868333D01*
X139774809Y-62915952D01*
X139631952Y-62915952D01*
X139441476Y-62868333D01*
X139346238Y-62820714D01*
X139251000Y-62725476D01*
X139203380Y-62582619D01*
X139203380Y-62487380D01*
X139251000Y-62344523D01*
X139298619Y-62296904D01*
X140108142Y-61296904D02*
X140155761Y-61344523D01*
X140203380Y-61487380D01*
X140203380Y-61582619D01*
X140155761Y-61725476D01*
X140060523Y-61820714D01*
X139965285Y-61868333D01*
X139774809Y-61915952D01*
X139631952Y-61915952D01*
X139441476Y-61868333D01*
X139346238Y-61820714D01*
X139251000Y-61725476D01*
X139203380Y-61582619D01*
X139203380Y-61487380D01*
X139251000Y-61344523D01*
X139298619Y-61296904D01*
X157983380Y-63439761D02*
X156983380Y-63439761D01*
X157983380Y-62963571D02*
X156983380Y-62963571D01*
X157983380Y-62392142D01*
X156983380Y-62392142D01*
X156983380Y-62058809D02*
X156983380Y-61487380D01*
X157983380Y-61773095D02*
X156983380Y-61773095D01*
X152379571Y-63654047D02*
X152379571Y-63320714D01*
X152903380Y-63177857D02*
X152903380Y-63654047D01*
X151903380Y-63654047D01*
X151903380Y-63177857D01*
X152808142Y-62177857D02*
X152855761Y-62225476D01*
X152903380Y-62368333D01*
X152903380Y-62463571D01*
X152855761Y-62606428D01*
X152760523Y-62701666D01*
X152665285Y-62749285D01*
X152474809Y-62796904D01*
X152331952Y-62796904D01*
X152141476Y-62749285D01*
X152046238Y-62701666D01*
X151951000Y-62606428D01*
X151903380Y-62463571D01*
X151903380Y-62368333D01*
X151951000Y-62225476D01*
X151998619Y-62177857D01*
X152903380Y-61273095D02*
X152903380Y-61749285D01*
X151903380Y-61749285D01*
X136091904Y-85212380D02*
X136091904Y-84212380D01*
X136330000Y-84212380D01*
X136472857Y-84260000D01*
X136568095Y-84355238D01*
X136615714Y-84450476D01*
X136663333Y-84640952D01*
X136663333Y-84783809D01*
X136615714Y-84974285D01*
X136568095Y-85069523D01*
X136472857Y-85164761D01*
X136330000Y-85212380D01*
X136091904Y-85212380D01*
X137615714Y-85212380D02*
X137044285Y-85212380D01*
X137330000Y-85212380D02*
X137330000Y-84212380D01*
X137234761Y-84355238D01*
X137139523Y-84450476D01*
X137044285Y-84498095D01*
X121526666Y-64209761D02*
X121669523Y-64257380D01*
X121907619Y-64257380D01*
X122002857Y-64209761D01*
X122050476Y-64162142D01*
X122098095Y-64066904D01*
X122098095Y-63971666D01*
X122050476Y-63876428D01*
X122002857Y-63828809D01*
X121907619Y-63781190D01*
X121717142Y-63733571D01*
X121621904Y-63685952D01*
X121574285Y-63638333D01*
X121526666Y-63543095D01*
X121526666Y-63447857D01*
X121574285Y-63352619D01*
X121621904Y-63305000D01*
X121717142Y-63257380D01*
X121955238Y-63257380D01*
X122098095Y-63305000D01*
X122431428Y-63257380D02*
X122669523Y-64257380D01*
X122860000Y-63543095D01*
X123050476Y-64257380D01*
X123288571Y-63257380D01*
X123574285Y-63257380D02*
X124193333Y-63257380D01*
X123860000Y-63638333D01*
X124002857Y-63638333D01*
X124098095Y-63685952D01*
X124145714Y-63733571D01*
X124193333Y-63828809D01*
X124193333Y-64066904D01*
X124145714Y-64162142D01*
X124098095Y-64209761D01*
X124002857Y-64257380D01*
X123717142Y-64257380D01*
X123621904Y-64209761D01*
X123574285Y-64162142D01*
X136230074Y-82423803D02*
X136230074Y-83061224D01*
X136267570Y-83136215D01*
X136305065Y-83173710D01*
X136380056Y-83211205D01*
X136530037Y-83211205D01*
X136605028Y-83173710D01*
X136642523Y-83136215D01*
X136680018Y-83061224D01*
X136680018Y-82423803D01*
X137467420Y-83211205D02*
X137017476Y-83211205D01*
X137242448Y-83211205D02*
X137242448Y-82423803D01*
X137167458Y-82536289D01*
X137092467Y-82611280D01*
X137017476Y-82648775D01*
X153879952Y-81824130D02*
X154070428Y-81824130D01*
X154165666Y-81871750D01*
X154260904Y-81966988D01*
X154308523Y-82157464D01*
X154308523Y-82490797D01*
X154260904Y-82681273D01*
X154165666Y-82776511D01*
X154070428Y-82824130D01*
X153879952Y-82824130D01*
X153784714Y-82776511D01*
X153689476Y-82681273D01*
X153641857Y-82490797D01*
X153641857Y-82157464D01*
X153689476Y-81966988D01*
X153784714Y-81871750D01*
X153879952Y-81824130D01*
X154737095Y-81824130D02*
X154737095Y-82633654D01*
X154784714Y-82728892D01*
X154832333Y-82776511D01*
X154927571Y-82824130D01*
X155118047Y-82824130D01*
X155213285Y-82776511D01*
X155260904Y-82728892D01*
X155308523Y-82633654D01*
X155308523Y-81824130D01*
X155641857Y-81824130D02*
X156213285Y-81824130D01*
X155927571Y-82824130D02*
X155927571Y-81824130D01*
X156546619Y-82443178D02*
X157308523Y-82443178D01*
X156927571Y-82824130D02*
X156927571Y-82062226D01*
X153625952Y-69632130D02*
X153816428Y-69632130D01*
X153911666Y-69679750D01*
X154006904Y-69774988D01*
X154054523Y-69965464D01*
X154054523Y-70298797D01*
X154006904Y-70489273D01*
X153911666Y-70584511D01*
X153816428Y-70632130D01*
X153625952Y-70632130D01*
X153530714Y-70584511D01*
X153435476Y-70489273D01*
X153387857Y-70298797D01*
X153387857Y-69965464D01*
X153435476Y-69774988D01*
X153530714Y-69679750D01*
X153625952Y-69632130D01*
X154483095Y-69632130D02*
X154483095Y-70441654D01*
X154530714Y-70536892D01*
X154578333Y-70584511D01*
X154673571Y-70632130D01*
X154864047Y-70632130D01*
X154959285Y-70584511D01*
X155006904Y-70536892D01*
X155054523Y-70441654D01*
X155054523Y-69632130D01*
X155387857Y-69632130D02*
X155959285Y-69632130D01*
X155673571Y-70632130D02*
X155673571Y-69632130D01*
X156292619Y-70251178D02*
X157054523Y-70251178D01*
X144450142Y-70632130D02*
X144450142Y-69632130D01*
X144926333Y-70632130D02*
X144926333Y-69632130D01*
X145497761Y-70632130D01*
X145497761Y-69632130D01*
X145973952Y-70251178D02*
X146735857Y-70251178D01*
X144450142Y-82824130D02*
X144450142Y-81824130D01*
X144926333Y-82824130D02*
X144926333Y-81824130D01*
X145497761Y-82824130D01*
X145497761Y-81824130D01*
X145973952Y-82443178D02*
X146735857Y-82443178D01*
X146354904Y-82824130D02*
X146354904Y-82062226D01*
X123328333Y-96007380D02*
X122995000Y-95531190D01*
X122756904Y-96007380D02*
X122756904Y-95007380D01*
X123137857Y-95007380D01*
X123233095Y-95055000D01*
X123280714Y-95102619D01*
X123328333Y-95197857D01*
X123328333Y-95340714D01*
X123280714Y-95435952D01*
X123233095Y-95483571D01*
X123137857Y-95531190D01*
X122756904Y-95531190D01*
X123661666Y-95007380D02*
X124280714Y-95007380D01*
X123947380Y-95388333D01*
X124090238Y-95388333D01*
X124185476Y-95435952D01*
X124233095Y-95483571D01*
X124280714Y-95578809D01*
X124280714Y-95816904D01*
X124233095Y-95912142D01*
X124185476Y-95959761D01*
X124090238Y-96007380D01*
X123804523Y-96007380D01*
X123709285Y-95959761D01*
X123661666Y-95912142D01*
X158316904Y-92197380D02*
X158316904Y-91197380D01*
X158555000Y-91197380D01*
X158697857Y-91245000D01*
X158793095Y-91340238D01*
X158840714Y-91435476D01*
X158888333Y-91625952D01*
X158888333Y-91768809D01*
X158840714Y-91959285D01*
X158793095Y-92054523D01*
X158697857Y-92149761D01*
X158555000Y-92197380D01*
X158316904Y-92197380D01*
X159745476Y-91530714D02*
X159745476Y-92197380D01*
X159507380Y-91149761D02*
X159269285Y-91864047D01*
X159888333Y-91864047D01*
X132916904Y-81862380D02*
X132916904Y-80862380D01*
X133155000Y-80862380D01*
X133297857Y-80910000D01*
X133393095Y-81005238D01*
X133440714Y-81100476D01*
X133488333Y-81290952D01*
X133488333Y-81433809D01*
X133440714Y-81624285D01*
X133393095Y-81719523D01*
X133297857Y-81814761D01*
X133155000Y-81862380D01*
X132916904Y-81862380D01*
X133869285Y-80957619D02*
X133916904Y-80910000D01*
X134012142Y-80862380D01*
X134250238Y-80862380D01*
X134345476Y-80910000D01*
X134393095Y-80957619D01*
X134440714Y-81052857D01*
X134440714Y-81148095D01*
X134393095Y-81290952D01*
X133821666Y-81862380D01*
X134440714Y-81862380D01*
D11*
X164643000Y-86665000D02*
X164643000Y-76886000D01*
X167056000Y-76886000D02*
X164643000Y-76886000D01*
X140245000Y-95585000D02*
X140245000Y-68185000D01*
X164262000Y-95047000D02*
X164250000Y-94793000D01*
X167545000Y-68185000D02*
X167545000Y-95585000D01*
X140245000Y-68185000D02*
X167545000Y-68185000D01*
X147650000Y-91707000D02*
X147650000Y-68607000D01*
X147650000Y-91707000D02*
X147625000Y-95047000D01*
X167056000Y-76886000D02*
X167056000Y-86665000D01*
X167545000Y-95585000D02*
X140245000Y-95585000D01*
X147625000Y-95047000D02*
X164262000Y-95047000D01*
X147650000Y-68607000D02*
X164250000Y-68607000D01*
X164250000Y-91707000D02*
X164250000Y-94793000D01*
X167056000Y-86665000D02*
X164643000Y-86665000D01*
X164250000Y-68607000D02*
X164250000Y-91707000D01*
X129210000Y-98790000D02*
X129210000Y-96130000D01*
X126610000Y-96130000D02*
X127940000Y-96130000D01*
X129210000Y-98790000D02*
X147050000Y-98790000D01*
X129210000Y-96130000D02*
X147050000Y-96130000D01*
X147050000Y-98790000D02*
X147050000Y-96130000D01*
X126610000Y-97460000D02*
X126610000Y-96130000D01*
X149470000Y-96130000D02*
X150800000Y-96130000D01*
X164830000Y-98790000D02*
X164830000Y-96130000D01*
X152070000Y-98790000D02*
X164830000Y-98790000D01*
X152070000Y-98790000D02*
X152070000Y-96130000D01*
X152070000Y-96130000D02*
X164830000Y-96130000D01*
X149470000Y-97460000D02*
X149470000Y-96130000D01*
X142986000Y-50530000D02*
X142986000Y-47870000D01*
X120066000Y-50530000D02*
X120066000Y-47870000D01*
X117466000Y-49200000D02*
X117466000Y-47870000D01*
X120066000Y-47870000D02*
X142986000Y-47870000D01*
X117466000Y-47870000D02*
X118796000Y-47870000D01*
X120066000Y-50530000D02*
X142986000Y-50530000D01*
X164830000Y-50530000D02*
X164830000Y-47870000D01*
X146990000Y-50530000D02*
X164830000Y-50530000D01*
X144390000Y-47870000D02*
X145720000Y-47870000D01*
X146990000Y-50530000D02*
X146990000Y-47870000D01*
X144390000Y-49200000D02*
X144390000Y-47870000D01*
X146990000Y-47870000D02*
X164830000Y-47870000D01*
X136730000Y-59587064D02*
X136730000Y-59132936D01*
X138200000Y-59587064D02*
X138200000Y-59132936D01*
X153747936Y-94385000D02*
X154202064Y-94385000D01*
X153747936Y-92915000D02*
X154202064Y-92915000D01*
X117580000Y-96500000D02*
X117580000Y-98420000D01*
X117580000Y-98420000D02*
X120440000Y-98420000D01*
X120440000Y-96500000D02*
X117580000Y-96500000D01*
X108450000Y-77595000D02*
X108450000Y-77395000D01*
X108650000Y-93395000D02*
X109650000Y-93395000D01*
X110450000Y-77395000D02*
X127650000Y-77395000D01*
X127550000Y-76495000D02*
X126550000Y-76495000D01*
X109650000Y-93395000D02*
X110450000Y-93395000D01*
X108650000Y-77395000D02*
X109650000Y-77395000D01*
X127650000Y-77595000D02*
X127650000Y-77395000D01*
X108450000Y-93395000D02*
X108450000Y-93195000D01*
X108450000Y-93395000D02*
X108650000Y-93395000D01*
X127650000Y-77595000D02*
X127650000Y-85395000D01*
X109650000Y-77395000D02*
X110450000Y-77395000D01*
X127650000Y-85395000D02*
X127650000Y-93195000D01*
X127650000Y-93395000D02*
X110450000Y-93395000D01*
X127050000Y-76995000D02*
X127050000Y-75995000D01*
X108450000Y-93195000D02*
X108450000Y-77595000D01*
X127650000Y-93395000D02*
X127650000Y-93195000D01*
X127550000Y-94395000D02*
X126550000Y-94395000D01*
X108450000Y-77395000D02*
X108650000Y-77395000D01*
X128110000Y-56580000D02*
X128110000Y-54520000D01*
X132850000Y-57920000D02*
X132850000Y-57520000D01*
X128110000Y-57920000D02*
X128110000Y-57520000D01*
X128110000Y-53180000D02*
X128110000Y-53580000D01*
X132850000Y-56580000D02*
X132850000Y-54520000D01*
X128110000Y-53180000D02*
X132850000Y-53180000D01*
X128110000Y-57920000D02*
X132850000Y-57920000D01*
X132850000Y-53180000D02*
X132850000Y-53580000D01*
X118880000Y-63045000D02*
X109750000Y-63045000D01*
X109750000Y-52675000D02*
X118880000Y-52675000D01*
X108750000Y-62045000D02*
X108750000Y-53675000D01*
X109750000Y-63045000D02*
X108750000Y-62045000D01*
X118880000Y-52675000D02*
X118880000Y-63045000D01*
X108750000Y-53675000D02*
X109750000Y-52675000D01*
X128110000Y-59530000D02*
X132850000Y-59530000D01*
X128110000Y-64270000D02*
X128110000Y-63870000D01*
X132850000Y-64270000D02*
X132850000Y-63870000D01*
X132850000Y-59530000D02*
X132850000Y-59930000D01*
X132850000Y-62930000D02*
X132850000Y-60870000D01*
X128110000Y-64270000D02*
X132850000Y-64270000D01*
X128110000Y-62930000D02*
X128110000Y-60870000D01*
X128110000Y-59530000D02*
X128110000Y-59930000D01*
X151670000Y-93250000D02*
X149320000Y-93250000D01*
X151670000Y-87494437D02*
X151670000Y-93250000D01*
X150605563Y-86430000D02*
X149320000Y-86430000D01*
X145914437Y-86430000D02*
X144850000Y-87494437D01*
X144850000Y-87494437D02*
X144850000Y-93250000D01*
X150605563Y-86430000D02*
X151670000Y-87494437D01*
X144850000Y-93250000D02*
X147200000Y-93250000D01*
X145914437Y-86430000D02*
X147200000Y-86430000D01*
X144050000Y-93250000D02*
X141700000Y-93250000D01*
X142985563Y-86430000D02*
X144050000Y-87494437D01*
X137230000Y-93250000D02*
X139580000Y-93250000D01*
X137230000Y-87494437D02*
X137230000Y-93250000D01*
X142985563Y-86430000D02*
X141700000Y-86430000D01*
X144050000Y-87494437D02*
X144050000Y-93250000D01*
X138294437Y-86430000D02*
X139580000Y-86430000D01*
X138294437Y-86430000D02*
X137230000Y-87494437D01*
X136730000Y-54687936D02*
X136730000Y-55142064D01*
X138200000Y-54687936D02*
X138200000Y-55142064D01*
X138481000Y-66345000D02*
X164135000Y-66345000D01*
X164135000Y-66345000D02*
X164135000Y-51105000D01*
X164135000Y-51105000D02*
X138481000Y-51105000D01*
X138481000Y-51105000D02*
X138481000Y-66345000D01*
X130870000Y-83970000D02*
X130870000Y-91270000D01*
X135170000Y-83970000D02*
X135170000Y-91270000D01*
X135170000Y-83970000D02*
X130870000Y-83970000D01*
X113464000Y-66980000D02*
X117524000Y-66980000D01*
X113464000Y-66430000D02*
X114817333Y-66430000D01*
X114817333Y-65710000D02*
X114817333Y-66980000D01*
X113464000Y-71390000D02*
X114817333Y-71390000D01*
X114817333Y-70790000D02*
X114817333Y-72060000D01*
X117524000Y-72060000D02*
X117524000Y-70790000D01*
X110304000Y-63685000D02*
X110304000Y-65068000D01*
X113464000Y-69090000D02*
X114817333Y-69090000D01*
X113464000Y-69450000D02*
X114817333Y-69450000D01*
X113464000Y-73330000D02*
X113464000Y-74600000D01*
X113464000Y-74170000D02*
X114817333Y-74170000D01*
X113464000Y-65710000D02*
X113464000Y-66980000D01*
X110304000Y-63685000D02*
X111688000Y-63685000D01*
X113464000Y-66190000D02*
X114817333Y-66190000D01*
X113464000Y-68370000D02*
X114817333Y-68370000D01*
X110544000Y-76385000D02*
X120444000Y-76385000D01*
X113464000Y-71030000D02*
X114817333Y-71030000D01*
X117524000Y-68250000D02*
X113464000Y-68250000D01*
X117524000Y-73330000D02*
X113464000Y-73330000D01*
X117524000Y-66980000D02*
X117524000Y-65710000D01*
X113464000Y-70790000D02*
X113464000Y-72060000D01*
X113464000Y-69330000D02*
X114817333Y-69330000D01*
X113464000Y-71150000D02*
X114817333Y-71150000D01*
X113464000Y-70910000D02*
X114817333Y-70910000D01*
X117524000Y-74600000D02*
X117524000Y-73330000D01*
X113464000Y-68490000D02*
X114817333Y-68490000D01*
X114817333Y-68250000D02*
X114817333Y-69520000D01*
X113464000Y-68730000D02*
X114817333Y-68730000D01*
X114817333Y-73330000D02*
X114817333Y-74600000D01*
X113464000Y-74530000D02*
X114817333Y-74530000D01*
X113464000Y-71990000D02*
X114817333Y-71990000D01*
X113464000Y-68850000D02*
X114817333Y-68850000D01*
X113464000Y-66910000D02*
X114817333Y-66910000D01*
X113464000Y-73930000D02*
X114817333Y-73930000D01*
X113464000Y-73690000D02*
X114817333Y-73690000D01*
X110544000Y-63925000D02*
X110544000Y-76385000D01*
X113464000Y-66790000D02*
X114817333Y-66790000D01*
X113464000Y-71630000D02*
X114817333Y-71630000D01*
X120444000Y-63925000D02*
X120444000Y-76385000D01*
X113464000Y-73810000D02*
X114817333Y-73810000D01*
X113464000Y-66310000D02*
X114817333Y-66310000D01*
X113464000Y-72060000D02*
X117524000Y-72060000D01*
X113464000Y-66670000D02*
X114817333Y-66670000D01*
X113464000Y-69210000D02*
X114817333Y-69210000D01*
X113464000Y-68970000D02*
X114817333Y-68970000D01*
X113464000Y-71750000D02*
X114817333Y-71750000D01*
X113464000Y-71870000D02*
X114817333Y-71870000D01*
X113464000Y-68610000D02*
X114817333Y-68610000D01*
X113464000Y-74290000D02*
X114817333Y-74290000D01*
X113464000Y-68250000D02*
X113464000Y-69520000D01*
X113464000Y-74410000D02*
X114817333Y-74410000D01*
X113464000Y-66070000D02*
X114817333Y-66070000D01*
X113464000Y-71270000D02*
X114817333Y-71270000D01*
X117524000Y-69520000D02*
X117524000Y-68250000D01*
X113464000Y-73570000D02*
X114817333Y-73570000D01*
X113464000Y-74050000D02*
X114817333Y-74050000D01*
X113464000Y-66550000D02*
X114817333Y-66550000D01*
X117524000Y-70790000D02*
X113464000Y-70790000D01*
X113464000Y-65950000D02*
X114817333Y-65950000D01*
X113464000Y-65830000D02*
X114817333Y-65830000D01*
X113464000Y-71510000D02*
X114817333Y-71510000D01*
X113464000Y-73450000D02*
X114817333Y-73450000D01*
X113464000Y-74600000D02*
X117524000Y-74600000D01*
X110544000Y-63925000D02*
X120444000Y-63925000D01*
X117524000Y-65710000D02*
X113464000Y-65710000D01*
X113464000Y-69520000D02*
X117524000Y-69520000D01*
X161849000Y-83768750D02*
X161849000Y-84911750D01*
X161849000Y-72211750D02*
X161849000Y-80339750D01*
D12*
X153721000Y-76021750D02*
X152451000Y-74751750D01*
D11*
X139751000Y-67911750D02*
X139751000Y-68655750D01*
X161849000Y-68782750D02*
X161849000Y-67911750D01*
D12*
X153721000Y-76021750D02*
X152451000Y-77291750D01*
D13*
X139751000Y-84911750D02*
X161751000Y-84911750D01*
D11*
X161849000Y-67911750D02*
X161751000Y-67911750D01*
D12*
X147371000Y-76021750D02*
X153721000Y-76021750D01*
D11*
X161849000Y-84911750D02*
X161751000Y-84911750D01*
X139751000Y-83895750D02*
X139751000Y-84911750D01*
D13*
X139751000Y-67911750D02*
X161751000Y-67911750D01*
D11*
X161849000Y-67911750D02*
X161849000Y-68782750D01*
X139751000Y-71703750D02*
X139751000Y-80593750D01*
X123722064Y-96725000D02*
X123267936Y-96725000D01*
X123722064Y-98195000D02*
X123267936Y-98195000D01*
X159645000Y-94610000D02*
X159645000Y-92690000D01*
X156785000Y-94610000D02*
X159645000Y-94610000D01*
X159645000Y-92690000D02*
X156785000Y-92690000D01*
X138255000Y-80560000D02*
X138255000Y-76260000D01*
X138255000Y-80560000D02*
X130955000Y-80560000D01*
X138255000Y-76260000D02*
X130955000Y-76260000D01*
%LPC*%
D14*
X165845000Y-77965000D03*
X165845000Y-80505000D03*
X165845000Y-83045000D03*
X165845000Y-85585000D03*
D15*
X127940000Y-97460000D03*
D16*
X130480000Y-97460000D03*
X133020000Y-97460000D03*
X135560000Y-97460000D03*
X138100000Y-97460000D03*
X140640000Y-97460000D03*
X143180000Y-97460000D03*
X145720000Y-97460000D03*
D15*
X150800000Y-97460000D03*
D16*
X153340000Y-97460000D03*
X155880000Y-97460000D03*
X158420000Y-97460000D03*
X160960000Y-97460000D03*
X163500000Y-97460000D03*
D15*
X118796000Y-49200000D03*
D16*
X121336000Y-49200000D03*
X123876000Y-49200000D03*
X126416000Y-49200000D03*
X128956000Y-49200000D03*
X131496000Y-49200000D03*
X134036000Y-49200000D03*
X136576000Y-49200000D03*
X139116000Y-49200000D03*
X141656000Y-49200000D03*
D15*
X145720000Y-49200000D03*
D16*
X148260000Y-49200000D03*
X150800000Y-49200000D03*
X153340000Y-49200000D03*
X155880000Y-49200000D03*
X158420000Y-49200000D03*
X160960000Y-49200000D03*
X163500000Y-49200000D03*
D17*
X137465000Y-60360000D03*
X137465000Y-58360000D03*
D18*
X152975000Y-93650000D03*
X154975000Y-93650000D03*
D19*
X118415000Y-97460000D03*
X120465000Y-97460000D03*
D20*
X119050000Y-92145000D03*
X119050000Y-78645000D03*
D21*
X125050000Y-88995000D03*
X125050000Y-81795000D03*
D22*
X134080000Y-54050000D03*
X126880000Y-54050000D03*
X134080000Y-57050000D03*
X126880000Y-57050000D03*
D23*
X113460000Y-57860000D03*
D24*
X117780000Y-59360000D03*
D25*
X117780000Y-56360000D03*
X120780000Y-59360000D03*
X120780000Y-56360000D03*
D22*
X126880000Y-60400000D03*
X134080000Y-60400000D03*
X126880000Y-63400000D03*
X134080000Y-63400000D03*
D26*
X148260000Y-92377500D03*
X148260000Y-87302500D03*
D27*
X115240000Y-49200000D03*
D26*
X140640000Y-87302500D03*
X140640000Y-92377500D03*
D28*
X137465000Y-53915000D03*
X137465000Y-55915000D03*
D29*
X139751000Y-65075000D03*
X142291000Y-65075000D03*
X144831000Y-65075000D03*
X147371000Y-65075000D03*
X149911000Y-65075000D03*
X152451000Y-65075000D03*
X154991000Y-65075000D03*
X157531000Y-65075000D03*
X160071000Y-65075000D03*
X162611000Y-65075000D03*
D30*
X133020000Y-85870000D03*
X133020000Y-91270000D03*
D31*
X111684000Y-66345000D03*
D32*
X111684000Y-68885000D03*
X111684000Y-71425000D03*
X111684000Y-73965000D03*
X119304000Y-73965000D03*
X119304000Y-71425000D03*
X119304000Y-68885000D03*
X119304000Y-66345000D03*
D33*
X140991000Y-82317750D03*
X140991000Y-70233750D03*
D34*
X160706000Y-82117750D03*
D35*
X160560000Y-70422750D03*
D36*
X124495000Y-97460000D03*
X122495000Y-97460000D03*
D27*
X113970000Y-97460000D03*
X166040000Y-64440000D03*
D37*
X158810000Y-93650000D03*
X156760000Y-93650000D03*
D27*
X166040000Y-92380000D03*
D38*
X136355000Y-78410000D03*
X130955000Y-78410000D03*
M02*
