G04 #@! TF.GenerationSoftware,KiCad,Pcbnew,6.0.7-f9a2dced07~116~ubuntu20.04.1*
G04 #@! TF.CreationDate,2022-08-22T20:33:42+08:00*
G04 #@! TF.ProjectId,arduino_can_bus_shield_v2.1,61726475-696e-46f5-9f63-616e5f627573,rev?*
G04 #@! TF.SameCoordinates,Original*
G04 #@! TF.FileFunction,Copper,L2,Bot*
G04 #@! TF.FilePolarity,Positive*
%FSLAX46Y46*%
G04 Gerber Fmt 4.6, Leading zero omitted, Abs format (unit mm)*
G04 Created by KiCad (PCBNEW 6.0.7-f9a2dced07~116~ubuntu20.04.1) date 2022-08-22 20:33:42*
%MOMM*%
%LPD*%
G01*
G04 APERTURE LIST*
G04 Aperture macros list*
%AMRoundRect*
0 Rectangle with rounded corners*
0 $1 Rounding radius*
0 $2 $3 $4 $5 $6 $7 $8 $9 X,Y pos of 4 corners*
0 Add a 4 corners polygon primitive as box body*
4,1,4,$2,$3,$4,$5,$6,$7,$8,$9,$2,$3,0*
0 Add four circle primitives for the rounded corners*
1,1,$1+$1,$2,$3*
1,1,$1+$1,$4,$5*
1,1,$1+$1,$6,$7*
1,1,$1+$1,$8,$9*
0 Add four rect primitives between the rounded corners*
20,1,$1+$1,$2,$3,$4,$5,0*
20,1,$1+$1,$4,$5,$6,$7,0*
20,1,$1+$1,$6,$7,$8,$9,0*
20,1,$1+$1,$8,$9,$2,$3,0*%
G04 Aperture macros list end*
G04 #@! TA.AperFunction,ComponentPad*
%ADD10O,2.000000X1.600000*%
G04 #@! TD*
G04 #@! TA.AperFunction,ComponentPad*
%ADD11R,1.700000X1.700000*%
G04 #@! TD*
G04 #@! TA.AperFunction,ComponentPad*
%ADD12O,1.700000X1.700000*%
G04 #@! TD*
G04 #@! TA.AperFunction,WasherPad*
%ADD13R,1.800000X0.900000*%
G04 #@! TD*
G04 #@! TA.AperFunction,ComponentPad*
%ADD14C,4.500000*%
G04 #@! TD*
G04 #@! TA.AperFunction,ComponentPad*
%ADD15RoundRect,0.250001X0.499999X-0.499999X0.499999X0.499999X-0.499999X0.499999X-0.499999X-0.499999X0*%
G04 #@! TD*
G04 #@! TA.AperFunction,ComponentPad*
%ADD16C,1.500000*%
G04 #@! TD*
G04 #@! TA.AperFunction,ComponentPad*
%ADD17C,1.524000*%
G04 #@! TD*
G04 #@! TA.AperFunction,ComponentPad*
%ADD18R,1.600000X1.600000*%
G04 #@! TD*
G04 #@! TA.AperFunction,ComponentPad*
%ADD19O,1.600000X1.600000*%
G04 #@! TD*
G04 #@! TA.AperFunction,SMDPad,CuDef*
%ADD20RoundRect,0.250000X0.337500X0.475000X-0.337500X0.475000X-0.337500X-0.475000X0.337500X-0.475000X0*%
G04 #@! TD*
G04 #@! TA.AperFunction,SMDPad,CuDef*
%ADD21R,4.500000X2.000000*%
G04 #@! TD*
G04 #@! TA.AperFunction,SMDPad,CuDef*
%ADD22RoundRect,0.250000X-0.337500X-0.475000X0.337500X-0.475000X0.337500X0.475000X-0.337500X0.475000X0*%
G04 #@! TD*
G04 #@! TA.AperFunction,SMDPad,CuDef*
%ADD23RoundRect,0.100000X-0.637500X-0.100000X0.637500X-0.100000X0.637500X0.100000X-0.637500X0.100000X0*%
G04 #@! TD*
G04 #@! TA.AperFunction,SMDPad,CuDef*
%ADD24RoundRect,0.250000X0.350000X0.450000X-0.350000X0.450000X-0.350000X-0.450000X0.350000X-0.450000X0*%
G04 #@! TD*
G04 #@! TA.AperFunction,SMDPad,CuDef*
%ADD25RoundRect,0.250000X0.450000X-0.350000X0.450000X0.350000X-0.450000X0.350000X-0.450000X-0.350000X0*%
G04 #@! TD*
G04 #@! TA.AperFunction,SMDPad,CuDef*
%ADD26RoundRect,0.150000X0.150000X-0.825000X0.150000X0.825000X-0.150000X0.825000X-0.150000X-0.825000X0*%
G04 #@! TD*
G04 #@! TA.AperFunction,ViaPad*
%ADD27C,0.800000*%
G04 #@! TD*
G04 #@! TA.AperFunction,ViaPad*
%ADD28C,0.600000*%
G04 #@! TD*
G04 #@! TA.AperFunction,Conductor*
%ADD29C,0.400000*%
G04 #@! TD*
G04 #@! TA.AperFunction,Conductor*
%ADD30C,0.600000*%
G04 #@! TD*
G04 APERTURE END LIST*
D10*
X165845000Y-77965000D03*
X165845000Y-80505000D03*
X165845000Y-83045000D03*
X165845000Y-85585000D03*
D11*
X127940000Y-97460000D03*
D12*
X130480000Y-97460000D03*
X133020000Y-97460000D03*
X135560000Y-97460000D03*
X138100000Y-97460000D03*
X140640000Y-97460000D03*
X143180000Y-97460000D03*
X145720000Y-97460000D03*
D11*
X150800000Y-97460000D03*
D12*
X153340000Y-97460000D03*
X155880000Y-97460000D03*
X158420000Y-97460000D03*
X160960000Y-97460000D03*
X163500000Y-97460000D03*
D11*
X118796000Y-49200000D03*
D12*
X121336000Y-49200000D03*
X123876000Y-49200000D03*
X126416000Y-49200000D03*
X128956000Y-49200000D03*
X131496000Y-49200000D03*
X134036000Y-49200000D03*
X136576000Y-49200000D03*
X139116000Y-49200000D03*
X141656000Y-49200000D03*
D11*
X145720000Y-49200000D03*
D12*
X148260000Y-49200000D03*
X150800000Y-49200000D03*
X153340000Y-49200000D03*
X155880000Y-49200000D03*
X158420000Y-49200000D03*
X160960000Y-49200000D03*
X163500000Y-49200000D03*
D13*
X119050000Y-92145000D03*
X119050000Y-78645000D03*
D14*
X125050000Y-88995000D03*
X125050000Y-81795000D03*
D15*
X117780000Y-59360000D03*
D16*
X117780000Y-56360000D03*
X120780000Y-59360000D03*
X120780000Y-56360000D03*
D17*
X139751000Y-65075000D03*
X142291000Y-65075000D03*
X144831000Y-65075000D03*
X147371000Y-65075000D03*
X149911000Y-65075000D03*
X152451000Y-65075000D03*
X154991000Y-65075000D03*
X157531000Y-65075000D03*
X160071000Y-65075000D03*
X162611000Y-65075000D03*
D18*
X111684000Y-66345000D03*
D19*
X111684000Y-68885000D03*
X111684000Y-71425000D03*
X111684000Y-73965000D03*
X119304000Y-73965000D03*
X119304000Y-71425000D03*
X119304000Y-68885000D03*
X119304000Y-66345000D03*
D20*
X127072500Y-65710000D03*
X124997500Y-65710000D03*
D21*
X124960000Y-70155000D03*
X133460000Y-70155000D03*
D20*
X123135500Y-62281000D03*
X121060500Y-62281000D03*
D22*
X141910000Y-59995000D03*
X143985000Y-59995000D03*
D23*
X132189500Y-61142000D03*
X132189500Y-60492000D03*
X132189500Y-59842000D03*
X132189500Y-59192000D03*
X132189500Y-58542000D03*
X132189500Y-57892000D03*
X132189500Y-57242000D03*
X132189500Y-56592000D03*
X132189500Y-55942000D03*
X132189500Y-55292000D03*
X137914500Y-55292000D03*
X137914500Y-55942000D03*
X137914500Y-56592000D03*
X137914500Y-57242000D03*
X137914500Y-57892000D03*
X137914500Y-58542000D03*
X137914500Y-59192000D03*
X137914500Y-59842000D03*
X137914500Y-60492000D03*
X137914500Y-61142000D03*
D24*
X123225000Y-54026000D03*
X121225000Y-54026000D03*
X115859000Y-62535000D03*
X113859000Y-62535000D03*
D20*
X133422500Y-65710000D03*
X131347500Y-65710000D03*
D25*
X136576000Y-64932000D03*
X136576000Y-62932000D03*
D26*
X128702000Y-59168000D03*
X127432000Y-59168000D03*
X126162000Y-59168000D03*
X124892000Y-59168000D03*
X124892000Y-54218000D03*
X126162000Y-54218000D03*
X127432000Y-54218000D03*
X128702000Y-54218000D03*
D27*
X143815000Y-57455000D03*
X140005000Y-56820000D03*
X110795000Y-49835000D03*
X110795000Y-55550000D03*
X110795000Y-53010000D03*
X115240000Y-53010000D03*
X129210000Y-51740000D03*
X122860000Y-56185000D03*
X158420000Y-59995000D03*
X162865000Y-59995000D03*
X166675000Y-70155000D03*
X157785000Y-91110000D03*
X153975000Y-91110000D03*
X153975000Y-87300000D03*
X157785000Y-87300000D03*
X110160000Y-97460000D03*
X116510000Y-98095000D03*
X148260000Y-97460000D03*
X129210000Y-89840000D03*
X136195000Y-90475000D03*
X134925000Y-82220000D03*
X111430000Y-87935000D03*
X111430000Y-82220000D03*
X119050000Y-87300000D03*
X119050000Y-82855000D03*
X124765000Y-74600000D03*
X129210000Y-74600000D03*
X133655000Y-74600000D03*
X153975000Y-77775000D03*
X147625000Y-77775000D03*
X147625000Y-72695000D03*
X153975000Y-72695000D03*
X149530000Y-56820000D03*
X152070000Y-56820000D03*
X155245000Y-56820000D03*
X155245000Y-53645000D03*
X152070000Y-53645000D03*
X149530000Y-53645000D03*
X164135000Y-82855000D03*
D28*
X135560000Y-63805000D03*
X138100000Y-64059000D03*
X116129000Y-60249000D03*
X136449000Y-57201000D03*
X134036000Y-55296000D03*
D29*
X138100000Y-64059000D02*
X138100000Y-61327500D01*
X138100000Y-61327500D02*
X137914500Y-61142000D01*
X137914500Y-61142000D02*
X140763000Y-61142000D01*
X140763000Y-61142000D02*
X141910000Y-59995000D01*
X130099000Y-57836000D02*
X130099000Y-59741000D01*
X126564500Y-66345000D02*
X129104500Y-63805000D01*
X129104500Y-63805000D02*
X131750000Y-63805000D01*
X131750000Y-63805000D02*
X133655000Y-61900000D01*
X133655000Y-61900000D02*
X133655000Y-59700528D01*
X133655000Y-59700528D02*
X133633000Y-59678528D01*
X133633000Y-59678528D02*
X133633000Y-57228000D01*
X133633000Y-57228000D02*
X132997000Y-56592000D01*
X132997000Y-56592000D02*
X132189500Y-56592000D01*
X135560000Y-63805000D02*
X135560000Y-63916000D01*
X135560000Y-63916000D02*
X136576000Y-64932000D01*
D30*
X164135000Y-82855000D02*
X163500000Y-82220000D01*
X163500000Y-82220000D02*
X150800000Y-82220000D01*
X150800000Y-82220000D02*
X135560000Y-97460000D01*
X167709997Y-83720003D02*
X165845000Y-85585000D01*
X167709997Y-74872997D02*
X167709997Y-83720003D01*
X150419000Y-68123000D02*
X160960000Y-68123000D01*
X147371000Y-65075000D02*
X150419000Y-68123000D01*
X160960000Y-68123000D02*
X167709997Y-74872997D01*
X163500000Y-97460000D02*
X163500000Y-85390000D01*
X144831000Y-65075000D02*
X149149000Y-69393000D01*
X163881000Y-72822000D02*
X163881000Y-81081000D01*
X149149000Y-69393000D02*
X160452000Y-69393000D01*
X163500000Y-85390000D02*
X165845000Y-83045000D01*
X163881000Y-81081000D02*
X165845000Y-83045000D01*
X160452000Y-69393000D02*
X163881000Y-72822000D01*
D29*
X145720000Y-53391000D02*
X139269000Y-59842000D01*
X139269000Y-59842000D02*
X137914500Y-59842000D01*
X145720000Y-49200000D02*
X145720000Y-53391000D01*
X124960000Y-70155000D02*
X124960000Y-67949500D01*
X124960000Y-67949500D02*
X126564500Y-66345000D01*
X137914500Y-61142000D02*
X137914500Y-61175000D01*
X123135500Y-64672500D02*
X121463000Y-66345000D01*
X126162000Y-61773000D02*
X125654000Y-62281000D01*
X125654000Y-62281000D02*
X123135500Y-62281000D01*
X121463000Y-66345000D02*
X119304000Y-66345000D01*
X123135500Y-62281000D02*
X123135500Y-64672500D01*
X126162000Y-59168000D02*
X126162000Y-61773000D01*
X134233000Y-56636000D02*
X134233000Y-59430000D01*
X132189500Y-55942000D02*
X133539000Y-55942000D01*
X133460000Y-65864528D02*
X133460000Y-70155000D01*
X134255000Y-65069528D02*
X133460000Y-65864528D01*
X133539000Y-55942000D02*
X134233000Y-56636000D01*
X134233000Y-59430000D02*
X134255000Y-59452000D01*
X134255000Y-59452000D02*
X134255000Y-65069528D01*
X126162000Y-51994000D02*
X120066000Y-51994000D01*
X116510000Y-55550000D02*
X116510000Y-58090000D01*
X117780000Y-60614000D02*
X115859000Y-62535000D01*
X116510000Y-58090000D02*
X117780000Y-59360000D01*
X127432000Y-53264000D02*
X126162000Y-51994000D01*
X120066000Y-51994000D02*
X116510000Y-55550000D01*
X127432000Y-54218000D02*
X127432000Y-53264000D01*
X117780000Y-59360000D02*
X117780000Y-60614000D01*
X115494000Y-60884000D02*
X116129000Y-60249000D01*
X108509000Y-64694000D02*
X112319000Y-60884000D01*
X108509000Y-73584000D02*
X108509000Y-64694000D01*
X125400000Y-52629000D02*
X120701000Y-52629000D01*
X117272000Y-75997000D02*
X110922000Y-75997000D01*
X126162000Y-54218000D02*
X126162000Y-53391000D01*
X110922000Y-75997000D02*
X108509000Y-73584000D01*
X117780000Y-55550000D02*
X117780000Y-56360000D01*
X112319000Y-60884000D02*
X115494000Y-60884000D01*
X120701000Y-52629000D02*
X117780000Y-55550000D01*
X126162000Y-53391000D02*
X125400000Y-52629000D01*
X119304000Y-73965000D02*
X117272000Y-75997000D01*
D30*
X119177000Y-60963000D02*
X119177000Y-62408000D01*
X114605000Y-66980000D02*
X114605000Y-70409000D01*
X120780000Y-59360000D02*
X119177000Y-60963000D01*
X114605000Y-70409000D02*
X113589000Y-71425000D01*
X113589000Y-71425000D02*
X111684000Y-71425000D01*
X119177000Y-62408000D02*
X114605000Y-66980000D01*
D29*
X123225000Y-54772000D02*
X123225000Y-54026000D01*
X128702000Y-54218000D02*
X128702000Y-55296000D01*
X128702000Y-55296000D02*
X128067000Y-55931000D01*
X128067000Y-55931000D02*
X124384000Y-55931000D01*
X124384000Y-55931000D02*
X123225000Y-54772000D01*
X110414000Y-73965000D02*
X111684000Y-73965000D01*
X109398000Y-72949000D02*
X110414000Y-73965000D01*
X109398000Y-64821000D02*
X109398000Y-72949000D01*
X113859000Y-62535000D02*
X111684000Y-62535000D01*
X111684000Y-62535000D02*
X109398000Y-64821000D01*
X136576000Y-61011000D02*
X137095000Y-60492000D01*
X137095000Y-60492000D02*
X137914500Y-60492000D01*
X136576000Y-62932000D02*
X136576000Y-61011000D01*
X128702000Y-60503000D02*
X129341000Y-61142000D01*
X128702000Y-59168000D02*
X128702000Y-60503000D01*
X129341000Y-61142000D02*
X132189500Y-61142000D01*
X126503183Y-57074000D02*
X129337000Y-57074000D01*
X130099000Y-59741000D02*
X130900000Y-60542000D01*
X129337000Y-57074000D02*
X130099000Y-57836000D01*
X124892000Y-58685183D02*
X126503183Y-57074000D01*
X130900000Y-60542000D02*
X132139500Y-60542000D01*
X132139500Y-60542000D02*
X132189500Y-60492000D01*
X124892000Y-59168000D02*
X124892000Y-58685183D01*
X137873500Y-57201000D02*
X137914500Y-57242000D01*
X136449000Y-57201000D02*
X137873500Y-57201000D01*
X128956000Y-49200000D02*
X134036000Y-54280000D01*
X134036000Y-54280000D02*
X134036000Y-55296000D01*
X135433000Y-58090000D02*
X135885000Y-58542000D01*
X134036000Y-49200000D02*
X135433000Y-50597000D01*
X135433000Y-50597000D02*
X135433000Y-58090000D01*
X135885000Y-58542000D02*
X137914500Y-58542000D01*
X134833000Y-58338528D02*
X135686472Y-59192000D01*
X134833000Y-52537000D02*
X134833000Y-58338528D01*
X131496000Y-49200000D02*
X134833000Y-52537000D01*
X135686472Y-59192000D02*
X137914500Y-59192000D01*
G04 #@! TA.AperFunction,Conductor*
G36*
X113953273Y-47315002D02*
G01*
X113999766Y-47368658D01*
X114009870Y-47438932D01*
X113980376Y-47503512D01*
X113957602Y-47524087D01*
X113913489Y-47555090D01*
X113913482Y-47555095D01*
X113909977Y-47557559D01*
X113906836Y-47560478D01*
X113768725Y-47688819D01*
X113699378Y-47753260D01*
X113517287Y-47975732D01*
X113367073Y-48220858D01*
X113251517Y-48484102D01*
X113250342Y-48488229D01*
X113250341Y-48488230D01*
X113247097Y-48499618D01*
X113172756Y-48760594D01*
X113132249Y-49045216D01*
X113132227Y-49049505D01*
X113132226Y-49049512D01*
X113130765Y-49328417D01*
X113130743Y-49332703D01*
X113168268Y-49617734D01*
X113244129Y-49895036D01*
X113245813Y-49898984D01*
X113341202Y-50122618D01*
X113356923Y-50159476D01*
X113504561Y-50406161D01*
X113684313Y-50630528D01*
X113892851Y-50828423D01*
X114126317Y-50996186D01*
X114130112Y-50998195D01*
X114130113Y-50998196D01*
X114151869Y-51009715D01*
X114380392Y-51130712D01*
X114404699Y-51139607D01*
X114617724Y-51217563D01*
X114650373Y-51229511D01*
X114931264Y-51290755D01*
X114950387Y-51292260D01*
X115154282Y-51308307D01*
X115154291Y-51308307D01*
X115156739Y-51308500D01*
X115312271Y-51308500D01*
X115314407Y-51308354D01*
X115314418Y-51308354D01*
X115522548Y-51294165D01*
X115522554Y-51294164D01*
X115526825Y-51293873D01*
X115531020Y-51293004D01*
X115531022Y-51293004D01*
X115752892Y-51247057D01*
X115808342Y-51235574D01*
X116079343Y-51139607D01*
X116334812Y-51007750D01*
X116338313Y-51005289D01*
X116338317Y-51005287D01*
X116501683Y-50890471D01*
X116570023Y-50842441D01*
X116714757Y-50707946D01*
X116777479Y-50649661D01*
X116777481Y-50649658D01*
X116780622Y-50646740D01*
X116962713Y-50424268D01*
X117112927Y-50179142D01*
X117116927Y-50170031D01*
X117196127Y-49989607D01*
X117241823Y-49935271D01*
X117309641Y-49914266D01*
X117378049Y-49933260D01*
X117425329Y-49986224D01*
X117437500Y-50040252D01*
X117437500Y-50098134D01*
X117444255Y-50160316D01*
X117495385Y-50296705D01*
X117582739Y-50413261D01*
X117699295Y-50500615D01*
X117835684Y-50551745D01*
X117897866Y-50558500D01*
X119694134Y-50558500D01*
X119756316Y-50551745D01*
X119892705Y-50500615D01*
X120009261Y-50413261D01*
X120096615Y-50296705D01*
X120118799Y-50237529D01*
X120140598Y-50179382D01*
X120183240Y-50122618D01*
X120249802Y-50097918D01*
X120319150Y-50113126D01*
X120353817Y-50141114D01*
X120382250Y-50173938D01*
X120554126Y-50316632D01*
X120747000Y-50429338D01*
X120955692Y-50509030D01*
X120960760Y-50510061D01*
X120960763Y-50510062D01*
X121020891Y-50522295D01*
X121174597Y-50553567D01*
X121179772Y-50553757D01*
X121179774Y-50553757D01*
X121392673Y-50561564D01*
X121392677Y-50561564D01*
X121397837Y-50561753D01*
X121402957Y-50561097D01*
X121402959Y-50561097D01*
X121614288Y-50534025D01*
X121614289Y-50534025D01*
X121619416Y-50533368D01*
X121624366Y-50531883D01*
X121828429Y-50470661D01*
X121828434Y-50470659D01*
X121833384Y-50469174D01*
X122033994Y-50370896D01*
X122215860Y-50241173D01*
X122374096Y-50083489D01*
X122433594Y-50000689D01*
X122504453Y-49902077D01*
X122505776Y-49903028D01*
X122552645Y-49859857D01*
X122622580Y-49847625D01*
X122688026Y-49875144D01*
X122715875Y-49906994D01*
X122775987Y-50005088D01*
X122922250Y-50173938D01*
X123094126Y-50316632D01*
X123287000Y-50429338D01*
X123495692Y-50509030D01*
X123500760Y-50510061D01*
X123500763Y-50510062D01*
X123560891Y-50522295D01*
X123714597Y-50553567D01*
X123719772Y-50553757D01*
X123719774Y-50553757D01*
X123932673Y-50561564D01*
X123932677Y-50561564D01*
X123937837Y-50561753D01*
X123942957Y-50561097D01*
X123942959Y-50561097D01*
X124154288Y-50534025D01*
X124154289Y-50534025D01*
X124159416Y-50533368D01*
X124164366Y-50531883D01*
X124368429Y-50470661D01*
X124368434Y-50470659D01*
X124373384Y-50469174D01*
X124573994Y-50370896D01*
X124755860Y-50241173D01*
X124914096Y-50083489D01*
X124973594Y-50000689D01*
X125041435Y-49906277D01*
X125044453Y-49902077D01*
X125049979Y-49890897D01*
X125141136Y-49706453D01*
X125141137Y-49706451D01*
X125143430Y-49701811D01*
X125208370Y-49488069D01*
X125237529Y-49266590D01*
X125239156Y-49200000D01*
X125220852Y-48977361D01*
X125166431Y-48760702D01*
X125077354Y-48555840D01*
X124996769Y-48431274D01*
X124958822Y-48372617D01*
X124958820Y-48372614D01*
X124956014Y-48368277D01*
X124805670Y-48203051D01*
X124801619Y-48199852D01*
X124801615Y-48199848D01*
X124634414Y-48067800D01*
X124634410Y-48067798D01*
X124630359Y-48064598D01*
X124434789Y-47956638D01*
X124429920Y-47954914D01*
X124429916Y-47954912D01*
X124229087Y-47883795D01*
X124229083Y-47883794D01*
X124224212Y-47882069D01*
X124219119Y-47881162D01*
X124219116Y-47881161D01*
X124009373Y-47843800D01*
X124009367Y-47843799D01*
X124004284Y-47842894D01*
X123930452Y-47841992D01*
X123786081Y-47840228D01*
X123786079Y-47840228D01*
X123780911Y-47840165D01*
X123560091Y-47873955D01*
X123347756Y-47943357D01*
X123149607Y-48046507D01*
X123145474Y-48049610D01*
X123145471Y-48049612D01*
X122975100Y-48177530D01*
X122970965Y-48180635D01*
X122967393Y-48184373D01*
X122826888Y-48331403D01*
X122816629Y-48342138D01*
X122709201Y-48499621D01*
X122654293Y-48544621D01*
X122583768Y-48552792D01*
X122520021Y-48521538D01*
X122499324Y-48497054D01*
X122418822Y-48372617D01*
X122418820Y-48372614D01*
X122416014Y-48368277D01*
X122265670Y-48203051D01*
X122261619Y-48199852D01*
X122261615Y-48199848D01*
X122094414Y-48067800D01*
X122094410Y-48067798D01*
X122090359Y-48064598D01*
X121894789Y-47956638D01*
X121889920Y-47954914D01*
X121889916Y-47954912D01*
X121689087Y-47883795D01*
X121689083Y-47883794D01*
X121684212Y-47882069D01*
X121679119Y-47881162D01*
X121679116Y-47881161D01*
X121469373Y-47843800D01*
X121469367Y-47843799D01*
X121464284Y-47842894D01*
X121390452Y-47841992D01*
X121246081Y-47840228D01*
X121246079Y-47840228D01*
X121240911Y-47840165D01*
X121020091Y-47873955D01*
X120807756Y-47943357D01*
X120609607Y-48046507D01*
X120605474Y-48049610D01*
X120605471Y-48049612D01*
X120435100Y-48177530D01*
X120430965Y-48180635D01*
X120374537Y-48239684D01*
X120350283Y-48265064D01*
X120288759Y-48300494D01*
X120217846Y-48297037D01*
X120160060Y-48255791D01*
X120141207Y-48222243D01*
X120099767Y-48111703D01*
X120096615Y-48103295D01*
X120009261Y-47986739D01*
X119892705Y-47899385D01*
X119756316Y-47848255D01*
X119694134Y-47841500D01*
X117897866Y-47841500D01*
X117835684Y-47848255D01*
X117699295Y-47899385D01*
X117582739Y-47986739D01*
X117495385Y-48103295D01*
X117444255Y-48239684D01*
X117437500Y-48301866D01*
X117437500Y-48361123D01*
X117417498Y-48429244D01*
X117363842Y-48475737D01*
X117293568Y-48485841D01*
X117228988Y-48456347D01*
X117195603Y-48410558D01*
X117124763Y-48244476D01*
X117124761Y-48244472D01*
X117123077Y-48240524D01*
X117019704Y-48067800D01*
X116977643Y-47997521D01*
X116977640Y-47997517D01*
X116975439Y-47993839D01*
X116795687Y-47769472D01*
X116587149Y-47571577D01*
X116519993Y-47523320D01*
X116476347Y-47467328D01*
X116469901Y-47396625D01*
X116502704Y-47333660D01*
X116564340Y-47298426D01*
X116593521Y-47295000D01*
X164092144Y-47295000D01*
X164160265Y-47315002D01*
X164168964Y-47321127D01*
X165359388Y-48236837D01*
X165482324Y-48331403D01*
X165524122Y-48388791D01*
X165531500Y-48431274D01*
X165531500Y-59288928D01*
X165530145Y-59301058D01*
X165530627Y-59301097D01*
X165529907Y-59310044D01*
X165527926Y-59318800D01*
X165528482Y-59327760D01*
X165531258Y-59372508D01*
X165531500Y-59380310D01*
X165531500Y-59396513D01*
X165532136Y-59400953D01*
X165532984Y-59406878D01*
X165534013Y-59416928D01*
X165536945Y-59464177D01*
X165539994Y-59472623D01*
X165540593Y-59475514D01*
X165544822Y-59492480D01*
X165545648Y-59495305D01*
X165546920Y-59504187D01*
X165566522Y-59547298D01*
X165570327Y-59556647D01*
X165586404Y-59601181D01*
X165591699Y-59608429D01*
X165593080Y-59611027D01*
X165601915Y-59626145D01*
X165603494Y-59628614D01*
X165607208Y-59636782D01*
X165621972Y-59653917D01*
X165638115Y-59672652D01*
X165644401Y-59680569D01*
X165649548Y-59687615D01*
X165649553Y-59687620D01*
X165652425Y-59691552D01*
X165663400Y-59702527D01*
X165669758Y-59709374D01*
X165702287Y-59747127D01*
X165709822Y-59752011D01*
X165716066Y-59757458D01*
X165727931Y-59767058D01*
X165749095Y-59788222D01*
X165783121Y-59850534D01*
X165786000Y-59877317D01*
X165786000Y-59995000D01*
X168036851Y-62364317D01*
X168069267Y-62427478D01*
X168071500Y-62451097D01*
X168071500Y-63272636D01*
X168051498Y-63340757D01*
X167997842Y-63387250D01*
X167927568Y-63397354D01*
X167862988Y-63367860D01*
X167837384Y-63337342D01*
X167826333Y-63318876D01*
X167794843Y-63266260D01*
X167777643Y-63237521D01*
X167777640Y-63237517D01*
X167775439Y-63233839D01*
X167595687Y-63009472D01*
X167424536Y-62847056D01*
X167390258Y-62814527D01*
X167390255Y-62814525D01*
X167387149Y-62811577D01*
X167153683Y-62643814D01*
X167131843Y-62632250D01*
X167069639Y-62599315D01*
X166899608Y-62509288D01*
X166693814Y-62433978D01*
X166633658Y-62411964D01*
X166633656Y-62411963D01*
X166629627Y-62410489D01*
X166348736Y-62349245D01*
X166317685Y-62346801D01*
X166125718Y-62331693D01*
X166125709Y-62331693D01*
X166123261Y-62331500D01*
X165967729Y-62331500D01*
X165965593Y-62331646D01*
X165965582Y-62331646D01*
X165757452Y-62345835D01*
X165757446Y-62345836D01*
X165753175Y-62346127D01*
X165748980Y-62346996D01*
X165748978Y-62346996D01*
X165665338Y-62364317D01*
X165471658Y-62404426D01*
X165200657Y-62500393D01*
X165196848Y-62502359D01*
X165008999Y-62599315D01*
X164945188Y-62632250D01*
X164941687Y-62634711D01*
X164941683Y-62634713D01*
X164931594Y-62641804D01*
X164709977Y-62797559D01*
X164499378Y-62993260D01*
X164317287Y-63215732D01*
X164167073Y-63460858D01*
X164165347Y-63464791D01*
X164165346Y-63464792D01*
X164073828Y-63673275D01*
X164051517Y-63724102D01*
X164050342Y-63728229D01*
X164050341Y-63728230D01*
X164048840Y-63733498D01*
X163972756Y-64000594D01*
X163932249Y-64285216D01*
X163932031Y-64326840D01*
X163931923Y-64347467D01*
X163911565Y-64415482D01*
X163857666Y-64461693D01*
X163787340Y-64471429D01*
X163722915Y-64441598D01*
X163702712Y-64419078D01*
X163591136Y-64259730D01*
X163591134Y-64259727D01*
X163587977Y-64255219D01*
X163430781Y-64098023D01*
X163426273Y-64094866D01*
X163426270Y-64094864D01*
X163301615Y-64007580D01*
X163248677Y-63970512D01*
X163243695Y-63968189D01*
X163243690Y-63968186D01*
X163052178Y-63878883D01*
X163052177Y-63878882D01*
X163047196Y-63876560D01*
X163041888Y-63875138D01*
X163041886Y-63875137D01*
X162976051Y-63857497D01*
X162832463Y-63819022D01*
X162611000Y-63799647D01*
X162389537Y-63819022D01*
X162245949Y-63857497D01*
X162180114Y-63875137D01*
X162180112Y-63875138D01*
X162174804Y-63876560D01*
X162169823Y-63878882D01*
X162169822Y-63878883D01*
X161978311Y-63968186D01*
X161978306Y-63968189D01*
X161973324Y-63970512D01*
X161968817Y-63973668D01*
X161968815Y-63973669D01*
X161795730Y-64094864D01*
X161795727Y-64094866D01*
X161791219Y-64098023D01*
X161634023Y-64255219D01*
X161630866Y-64259727D01*
X161630864Y-64259730D01*
X161509669Y-64432815D01*
X161506512Y-64437324D01*
X161504189Y-64442306D01*
X161504186Y-64442311D01*
X161455195Y-64547373D01*
X161408277Y-64600658D01*
X161340000Y-64620119D01*
X161272040Y-64599577D01*
X161226805Y-64547373D01*
X161177814Y-64442311D01*
X161177811Y-64442306D01*
X161175488Y-64437324D01*
X161172331Y-64432815D01*
X161051136Y-64259730D01*
X161051134Y-64259727D01*
X161047977Y-64255219D01*
X160890781Y-64098023D01*
X160886273Y-64094866D01*
X160886270Y-64094864D01*
X160761615Y-64007580D01*
X160708677Y-63970512D01*
X160703695Y-63968189D01*
X160703690Y-63968186D01*
X160512178Y-63878883D01*
X160512177Y-63878882D01*
X160507196Y-63876560D01*
X160501888Y-63875138D01*
X160501886Y-63875137D01*
X160436051Y-63857497D01*
X160292463Y-63819022D01*
X160071000Y-63799647D01*
X159849537Y-63819022D01*
X159705949Y-63857497D01*
X159640114Y-63875137D01*
X159640112Y-63875138D01*
X159634804Y-63876560D01*
X159629823Y-63878882D01*
X159629822Y-63878883D01*
X159438311Y-63968186D01*
X159438306Y-63968189D01*
X159433324Y-63970512D01*
X159428817Y-63973668D01*
X159428815Y-63973669D01*
X159255730Y-64094864D01*
X159255727Y-64094866D01*
X159251219Y-64098023D01*
X159094023Y-64255219D01*
X159090866Y-64259727D01*
X159090864Y-64259730D01*
X158969669Y-64432815D01*
X158966512Y-64437324D01*
X158964189Y-64442306D01*
X158964186Y-64442311D01*
X158915195Y-64547373D01*
X158868277Y-64600658D01*
X158800000Y-64620119D01*
X158732040Y-64599577D01*
X158686805Y-64547373D01*
X158637814Y-64442311D01*
X158637811Y-64442306D01*
X158635488Y-64437324D01*
X158632331Y-64432815D01*
X158511136Y-64259730D01*
X158511134Y-64259727D01*
X158507977Y-64255219D01*
X158350781Y-64098023D01*
X158346273Y-64094866D01*
X158346270Y-64094864D01*
X158221615Y-64007580D01*
X158168677Y-63970512D01*
X158163695Y-63968189D01*
X158163690Y-63968186D01*
X157972178Y-63878883D01*
X157972177Y-63878882D01*
X157967196Y-63876560D01*
X157961888Y-63875138D01*
X157961886Y-63875137D01*
X157896051Y-63857497D01*
X157752463Y-63819022D01*
X157531000Y-63799647D01*
X157309537Y-63819022D01*
X157165949Y-63857497D01*
X157100114Y-63875137D01*
X157100112Y-63875138D01*
X157094804Y-63876560D01*
X157089823Y-63878882D01*
X157089822Y-63878883D01*
X156898311Y-63968186D01*
X156898306Y-63968189D01*
X156893324Y-63970512D01*
X156888817Y-63973668D01*
X156888815Y-63973669D01*
X156715730Y-64094864D01*
X156715727Y-64094866D01*
X156711219Y-64098023D01*
X156554023Y-64255219D01*
X156550866Y-64259727D01*
X156550864Y-64259730D01*
X156429669Y-64432815D01*
X156426512Y-64437324D01*
X156424189Y-64442306D01*
X156424186Y-64442311D01*
X156375195Y-64547373D01*
X156328277Y-64600658D01*
X156260000Y-64620119D01*
X156192040Y-64599577D01*
X156146805Y-64547373D01*
X156097814Y-64442311D01*
X156097811Y-64442306D01*
X156095488Y-64437324D01*
X156092331Y-64432815D01*
X155971136Y-64259730D01*
X155971134Y-64259727D01*
X155967977Y-64255219D01*
X155810781Y-64098023D01*
X155806273Y-64094866D01*
X155806270Y-64094864D01*
X155681615Y-64007580D01*
X155628677Y-63970512D01*
X155623695Y-63968189D01*
X155623690Y-63968186D01*
X155432178Y-63878883D01*
X155432177Y-63878882D01*
X155427196Y-63876560D01*
X155421888Y-63875138D01*
X155421886Y-63875137D01*
X155356051Y-63857497D01*
X155212463Y-63819022D01*
X154991000Y-63799647D01*
X154769537Y-63819022D01*
X154625949Y-63857497D01*
X154560114Y-63875137D01*
X154560112Y-63875138D01*
X154554804Y-63876560D01*
X154549823Y-63878882D01*
X154549822Y-63878883D01*
X154358311Y-63968186D01*
X154358306Y-63968189D01*
X154353324Y-63970512D01*
X154348817Y-63973668D01*
X154348815Y-63973669D01*
X154175730Y-64094864D01*
X154175727Y-64094866D01*
X154171219Y-64098023D01*
X154014023Y-64255219D01*
X154010866Y-64259727D01*
X154010864Y-64259730D01*
X153889669Y-64432815D01*
X153886512Y-64437324D01*
X153884189Y-64442306D01*
X153884186Y-64442311D01*
X153835195Y-64547373D01*
X153788277Y-64600658D01*
X153720000Y-64620119D01*
X153652040Y-64599577D01*
X153606805Y-64547373D01*
X153557814Y-64442311D01*
X153557811Y-64442306D01*
X153555488Y-64437324D01*
X153552331Y-64432815D01*
X153431136Y-64259730D01*
X153431134Y-64259727D01*
X153427977Y-64255219D01*
X153270781Y-64098023D01*
X153266273Y-64094866D01*
X153266270Y-64094864D01*
X153141615Y-64007580D01*
X153088677Y-63970512D01*
X153083695Y-63968189D01*
X153083690Y-63968186D01*
X152892178Y-63878883D01*
X152892177Y-63878882D01*
X152887196Y-63876560D01*
X152881888Y-63875138D01*
X152881886Y-63875137D01*
X152816051Y-63857497D01*
X152672463Y-63819022D01*
X152451000Y-63799647D01*
X152229537Y-63819022D01*
X152085949Y-63857497D01*
X152020114Y-63875137D01*
X152020112Y-63875138D01*
X152014804Y-63876560D01*
X152009823Y-63878882D01*
X152009822Y-63878883D01*
X151818311Y-63968186D01*
X151818306Y-63968189D01*
X151813324Y-63970512D01*
X151808817Y-63973668D01*
X151808815Y-63973669D01*
X151635730Y-64094864D01*
X151635727Y-64094866D01*
X151631219Y-64098023D01*
X151474023Y-64255219D01*
X151470866Y-64259727D01*
X151470864Y-64259730D01*
X151349669Y-64432815D01*
X151346512Y-64437324D01*
X151344189Y-64442306D01*
X151344186Y-64442311D01*
X151295195Y-64547373D01*
X151248277Y-64600658D01*
X151180000Y-64620119D01*
X151112040Y-64599577D01*
X151066805Y-64547373D01*
X151017814Y-64442311D01*
X151017811Y-64442306D01*
X151015488Y-64437324D01*
X151012331Y-64432815D01*
X150891136Y-64259730D01*
X150891134Y-64259727D01*
X150887977Y-64255219D01*
X150730781Y-64098023D01*
X150726273Y-64094866D01*
X150726270Y-64094864D01*
X150601615Y-64007580D01*
X150548677Y-63970512D01*
X150543695Y-63968189D01*
X150543690Y-63968186D01*
X150352178Y-63878883D01*
X150352177Y-63878882D01*
X150347196Y-63876560D01*
X150341888Y-63875138D01*
X150341886Y-63875137D01*
X150276051Y-63857497D01*
X150132463Y-63819022D01*
X149911000Y-63799647D01*
X149689537Y-63819022D01*
X149545949Y-63857497D01*
X149480114Y-63875137D01*
X149480112Y-63875138D01*
X149474804Y-63876560D01*
X149469823Y-63878882D01*
X149469822Y-63878883D01*
X149278311Y-63968186D01*
X149278306Y-63968189D01*
X149273324Y-63970512D01*
X149268817Y-63973668D01*
X149268815Y-63973669D01*
X149095730Y-64094864D01*
X149095727Y-64094866D01*
X149091219Y-64098023D01*
X148934023Y-64255219D01*
X148930866Y-64259727D01*
X148930864Y-64259730D01*
X148809669Y-64432815D01*
X148806512Y-64437324D01*
X148804189Y-64442306D01*
X148804186Y-64442311D01*
X148755195Y-64547373D01*
X148708277Y-64600658D01*
X148640000Y-64620119D01*
X148572040Y-64599577D01*
X148526805Y-64547373D01*
X148477814Y-64442311D01*
X148477811Y-64442306D01*
X148475488Y-64437324D01*
X148472331Y-64432815D01*
X148351136Y-64259730D01*
X148351134Y-64259727D01*
X148347977Y-64255219D01*
X148190781Y-64098023D01*
X148186273Y-64094866D01*
X148186270Y-64094864D01*
X148061615Y-64007580D01*
X148008677Y-63970512D01*
X148003695Y-63968189D01*
X148003690Y-63968186D01*
X147812178Y-63878883D01*
X147812177Y-63878882D01*
X147807196Y-63876560D01*
X147801888Y-63875138D01*
X147801886Y-63875137D01*
X147736051Y-63857497D01*
X147592463Y-63819022D01*
X147371000Y-63799647D01*
X147149537Y-63819022D01*
X147005949Y-63857497D01*
X146940114Y-63875137D01*
X146940112Y-63875138D01*
X146934804Y-63876560D01*
X146929823Y-63878882D01*
X146929822Y-63878883D01*
X146738311Y-63968186D01*
X146738306Y-63968189D01*
X146733324Y-63970512D01*
X146728817Y-63973668D01*
X146728815Y-63973669D01*
X146555730Y-64094864D01*
X146555727Y-64094866D01*
X146551219Y-64098023D01*
X146394023Y-64255219D01*
X146390866Y-64259727D01*
X146390864Y-64259730D01*
X146269669Y-64432815D01*
X146266512Y-64437324D01*
X146264189Y-64442306D01*
X146264186Y-64442311D01*
X146215195Y-64547373D01*
X146168277Y-64600658D01*
X146100000Y-64620119D01*
X146032040Y-64599577D01*
X145986805Y-64547373D01*
X145937814Y-64442311D01*
X145937811Y-64442306D01*
X145935488Y-64437324D01*
X145932331Y-64432815D01*
X145811136Y-64259730D01*
X145811134Y-64259727D01*
X145807977Y-64255219D01*
X145650781Y-64098023D01*
X145646273Y-64094866D01*
X145646270Y-64094864D01*
X145521615Y-64007580D01*
X145468677Y-63970512D01*
X145463695Y-63968189D01*
X145463690Y-63968186D01*
X145272178Y-63878883D01*
X145272177Y-63878882D01*
X145267196Y-63876560D01*
X145261888Y-63875138D01*
X145261886Y-63875137D01*
X145196051Y-63857497D01*
X145052463Y-63819022D01*
X144831000Y-63799647D01*
X144609537Y-63819022D01*
X144465949Y-63857497D01*
X144400114Y-63875137D01*
X144400112Y-63875138D01*
X144394804Y-63876560D01*
X144389823Y-63878882D01*
X144389822Y-63878883D01*
X144198311Y-63968186D01*
X144198306Y-63968189D01*
X144193324Y-63970512D01*
X144188817Y-63973668D01*
X144188815Y-63973669D01*
X144015730Y-64094864D01*
X144015727Y-64094866D01*
X144011219Y-64098023D01*
X143854023Y-64255219D01*
X143850866Y-64259727D01*
X143850864Y-64259730D01*
X143729669Y-64432815D01*
X143726512Y-64437324D01*
X143724189Y-64442306D01*
X143724186Y-64442311D01*
X143658524Y-64583124D01*
X143632560Y-64638804D01*
X143631138Y-64644112D01*
X143631137Y-64644114D01*
X143629778Y-64649186D01*
X143575022Y-64853537D01*
X143555647Y-65075000D01*
X143575022Y-65296463D01*
X143604584Y-65406789D01*
X143629748Y-65500700D01*
X143632560Y-65511196D01*
X143634882Y-65516177D01*
X143634883Y-65516178D01*
X143724186Y-65707689D01*
X143724189Y-65707694D01*
X143726512Y-65712676D01*
X143729668Y-65717183D01*
X143729669Y-65717185D01*
X143848393Y-65886740D01*
X143854023Y-65894781D01*
X144011219Y-66051977D01*
X144015727Y-66055134D01*
X144015730Y-66055136D01*
X144030493Y-66065473D01*
X144193323Y-66179488D01*
X144198305Y-66181811D01*
X144198310Y-66181814D01*
X144389822Y-66271117D01*
X144394804Y-66273440D01*
X144400112Y-66274862D01*
X144400114Y-66274863D01*
X144465949Y-66292503D01*
X144609537Y-66330978D01*
X144831000Y-66350353D01*
X144836475Y-66349874D01*
X144836477Y-66349874D01*
X144893817Y-66344858D01*
X144963421Y-66358848D01*
X144993892Y-66381284D01*
X148570766Y-69958158D01*
X148571694Y-69959095D01*
X148634771Y-70023507D01*
X148671221Y-70046998D01*
X148681546Y-70054417D01*
X148715443Y-70081476D01*
X148721784Y-70084541D01*
X148721785Y-70084542D01*
X148745637Y-70096072D01*
X148759054Y-70103601D01*
X148787238Y-70121765D01*
X148793855Y-70124173D01*
X148793860Y-70124176D01*
X148827973Y-70136592D01*
X148839716Y-70141553D01*
X148872403Y-70157354D01*
X148872408Y-70157356D01*
X148878749Y-70160421D01*
X148885607Y-70162004D01*
X148885609Y-70162005D01*
X148911426Y-70167965D01*
X148926169Y-70172332D01*
X148957685Y-70183803D01*
X148964675Y-70184686D01*
X148964683Y-70184688D01*
X149000701Y-70189238D01*
X149013253Y-70191474D01*
X149048614Y-70199638D01*
X149048617Y-70199638D01*
X149055485Y-70201224D01*
X149062531Y-70201249D01*
X149062534Y-70201249D01*
X149096056Y-70201366D01*
X149096938Y-70201395D01*
X149097769Y-70201500D01*
X149134419Y-70201500D01*
X149134859Y-70201501D01*
X149233343Y-70201845D01*
X149233348Y-70201845D01*
X149236870Y-70201857D01*
X149238070Y-70201589D01*
X149239707Y-70201500D01*
X160064918Y-70201500D01*
X160133039Y-70221502D01*
X160154013Y-70238405D01*
X163035595Y-73119987D01*
X163069621Y-73182299D01*
X163072500Y-73209082D01*
X163072500Y-81071786D01*
X163072493Y-81073106D01*
X163071549Y-81163221D01*
X163080711Y-81205597D01*
X163082769Y-81218163D01*
X163087437Y-81259777D01*
X163087437Y-81259780D01*
X163087603Y-81261256D01*
X163087344Y-81261285D01*
X163083160Y-81328446D01*
X163041138Y-81385670D01*
X162974848Y-81411091D01*
X162964705Y-81411500D01*
X150809260Y-81411500D01*
X150807941Y-81411493D01*
X150717779Y-81410549D01*
X150710893Y-81412038D01*
X150710891Y-81412038D01*
X150701563Y-81414055D01*
X150675403Y-81419711D01*
X150662837Y-81421769D01*
X150619745Y-81426603D01*
X150613094Y-81428919D01*
X150613090Y-81428920D01*
X150588070Y-81437633D01*
X150573257Y-81441796D01*
X150540490Y-81448881D01*
X150501189Y-81467207D01*
X150489406Y-81471992D01*
X150448448Y-81486255D01*
X150442471Y-81489990D01*
X150420016Y-81504021D01*
X150406499Y-81511360D01*
X150382481Y-81522560D01*
X150382477Y-81522562D01*
X150376098Y-81525537D01*
X150370534Y-81529853D01*
X150370532Y-81529854D01*
X150341840Y-81552109D01*
X150331385Y-81559403D01*
X150294624Y-81582374D01*
X150289627Y-81587336D01*
X150289626Y-81587337D01*
X150265821Y-81610976D01*
X150265196Y-81611561D01*
X150264530Y-81612078D01*
X150238540Y-81638068D01*
X150165918Y-81710185D01*
X150165260Y-81711222D01*
X150164157Y-81712451D01*
X135807276Y-96069332D01*
X135744964Y-96103358D01*
X135698524Y-96104237D01*
X135698519Y-96104287D01*
X135698076Y-96104245D01*
X135696081Y-96104283D01*
X135688284Y-96102894D01*
X135614452Y-96101992D01*
X135470081Y-96100228D01*
X135470079Y-96100228D01*
X135464911Y-96100165D01*
X135244091Y-96133955D01*
X135031756Y-96203357D01*
X134833607Y-96306507D01*
X134829474Y-96309610D01*
X134829471Y-96309612D01*
X134725561Y-96387630D01*
X134654965Y-96440635D01*
X134651393Y-96444373D01*
X134543729Y-96557037D01*
X134500629Y-96602138D01*
X134393201Y-96759621D01*
X134338293Y-96804621D01*
X134267768Y-96812792D01*
X134204021Y-96781538D01*
X134183324Y-96757054D01*
X134102822Y-96632617D01*
X134102820Y-96632614D01*
X134100014Y-96628277D01*
X133949670Y-96463051D01*
X133945619Y-96459852D01*
X133945615Y-96459848D01*
X133778414Y-96327800D01*
X133778410Y-96327798D01*
X133774359Y-96324598D01*
X133765525Y-96319721D01*
X133722136Y-96295769D01*
X133578789Y-96216638D01*
X133573920Y-96214914D01*
X133573916Y-96214912D01*
X133373087Y-96143795D01*
X133373083Y-96143794D01*
X133368212Y-96142069D01*
X133363119Y-96141162D01*
X133363116Y-96141161D01*
X133153373Y-96103800D01*
X133153367Y-96103799D01*
X133148284Y-96102894D01*
X133074452Y-96101992D01*
X132930081Y-96100228D01*
X132930079Y-96100228D01*
X132924911Y-96100165D01*
X132704091Y-96133955D01*
X132491756Y-96203357D01*
X132293607Y-96306507D01*
X132289474Y-96309610D01*
X132289471Y-96309612D01*
X132185561Y-96387630D01*
X132114965Y-96440635D01*
X132111393Y-96444373D01*
X132003729Y-96557037D01*
X131960629Y-96602138D01*
X131853201Y-96759621D01*
X131798293Y-96804621D01*
X131727768Y-96812792D01*
X131664021Y-96781538D01*
X131643324Y-96757054D01*
X131562822Y-96632617D01*
X131562820Y-96632614D01*
X131560014Y-96628277D01*
X131409670Y-96463051D01*
X131405619Y-96459852D01*
X131405615Y-96459848D01*
X131238414Y-96327800D01*
X131238410Y-96327798D01*
X131234359Y-96324598D01*
X131225525Y-96319721D01*
X131182136Y-96295769D01*
X131038789Y-96216638D01*
X131033920Y-96214914D01*
X131033916Y-96214912D01*
X130833087Y-96143795D01*
X130833083Y-96143794D01*
X130828212Y-96142069D01*
X130823119Y-96141162D01*
X130823116Y-96141161D01*
X130613373Y-96103800D01*
X130613367Y-96103799D01*
X130608284Y-96102894D01*
X130534452Y-96101992D01*
X130390081Y-96100228D01*
X130390079Y-96100228D01*
X130384911Y-96100165D01*
X130164091Y-96133955D01*
X129951756Y-96203357D01*
X129753607Y-96306507D01*
X129749474Y-96309610D01*
X129749471Y-96309612D01*
X129645561Y-96387630D01*
X129574965Y-96440635D01*
X129495543Y-96523746D01*
X129494283Y-96525064D01*
X129432759Y-96560494D01*
X129361846Y-96557037D01*
X129304060Y-96515791D01*
X129285207Y-96482243D01*
X129243767Y-96371703D01*
X129240615Y-96363295D01*
X129153261Y-96246739D01*
X129036705Y-96159385D01*
X128900316Y-96108255D01*
X128838134Y-96101500D01*
X127041866Y-96101500D01*
X126979684Y-96108255D01*
X126843295Y-96159385D01*
X126726739Y-96246739D01*
X126639385Y-96363295D01*
X126588255Y-96499684D01*
X126581500Y-96561866D01*
X126581500Y-98358134D01*
X126588255Y-98420316D01*
X126639385Y-98556705D01*
X126726739Y-98673261D01*
X126843295Y-98760615D01*
X126979684Y-98811745D01*
X127041866Y-98818500D01*
X128838134Y-98818500D01*
X128900316Y-98811745D01*
X129036705Y-98760615D01*
X129153261Y-98673261D01*
X129240615Y-98556705D01*
X129262799Y-98497529D01*
X129284598Y-98439382D01*
X129327240Y-98382618D01*
X129393802Y-98357918D01*
X129463150Y-98373126D01*
X129497817Y-98401114D01*
X129526250Y-98433938D01*
X129698126Y-98576632D01*
X129891000Y-98689338D01*
X129895825Y-98691180D01*
X129895826Y-98691181D01*
X129946645Y-98710587D01*
X130099692Y-98769030D01*
X130104760Y-98770061D01*
X130104763Y-98770062D01*
X130212017Y-98791883D01*
X130318597Y-98813567D01*
X130323772Y-98813757D01*
X130323774Y-98813757D01*
X130536673Y-98821564D01*
X130536677Y-98821564D01*
X130541837Y-98821753D01*
X130546957Y-98821097D01*
X130546959Y-98821097D01*
X130758288Y-98794025D01*
X130758289Y-98794025D01*
X130763416Y-98793368D01*
X130768366Y-98791883D01*
X130972429Y-98730661D01*
X130972434Y-98730659D01*
X130977384Y-98729174D01*
X131177994Y-98630896D01*
X131359860Y-98501173D01*
X131518096Y-98343489D01*
X131527693Y-98330134D01*
X131648453Y-98162077D01*
X131649776Y-98163028D01*
X131696645Y-98119857D01*
X131766580Y-98107625D01*
X131832026Y-98135144D01*
X131859875Y-98166994D01*
X131919987Y-98265088D01*
X132066250Y-98433938D01*
X132238126Y-98576632D01*
X132431000Y-98689338D01*
X132435825Y-98691180D01*
X132435826Y-98691181D01*
X132486645Y-98710587D01*
X132639692Y-98769030D01*
X132644760Y-98770061D01*
X132644763Y-98770062D01*
X132752017Y-98791883D01*
X132858597Y-98813567D01*
X132863772Y-98813757D01*
X132863774Y-98813757D01*
X133076673Y-98821564D01*
X133076677Y-98821564D01*
X133081837Y-98821753D01*
X133086957Y-98821097D01*
X133086959Y-98821097D01*
X133298288Y-98794025D01*
X133298289Y-98794025D01*
X133303416Y-98793368D01*
X133308366Y-98791883D01*
X133512429Y-98730661D01*
X133512434Y-98730659D01*
X133517384Y-98729174D01*
X133717994Y-98630896D01*
X133899860Y-98501173D01*
X134058096Y-98343489D01*
X134067693Y-98330134D01*
X134188453Y-98162077D01*
X134189776Y-98163028D01*
X134236645Y-98119857D01*
X134306580Y-98107625D01*
X134372026Y-98135144D01*
X134399875Y-98166994D01*
X134459987Y-98265088D01*
X134606250Y-98433938D01*
X134778126Y-98576632D01*
X134971000Y-98689338D01*
X134975825Y-98691180D01*
X134975826Y-98691181D01*
X135026645Y-98710587D01*
X135179692Y-98769030D01*
X135184760Y-98770061D01*
X135184763Y-98770062D01*
X135292017Y-98791883D01*
X135398597Y-98813567D01*
X135403772Y-98813757D01*
X135403774Y-98813757D01*
X135616673Y-98821564D01*
X135616677Y-98821564D01*
X135621837Y-98821753D01*
X135626957Y-98821097D01*
X135626959Y-98821097D01*
X135838288Y-98794025D01*
X135838289Y-98794025D01*
X135843416Y-98793368D01*
X135848366Y-98791883D01*
X136052429Y-98730661D01*
X136052434Y-98730659D01*
X136057384Y-98729174D01*
X136257994Y-98630896D01*
X136439860Y-98501173D01*
X136598096Y-98343489D01*
X136607693Y-98330134D01*
X136728453Y-98162077D01*
X136729776Y-98163028D01*
X136776645Y-98119857D01*
X136846580Y-98107625D01*
X136912026Y-98135144D01*
X136939875Y-98166994D01*
X136999987Y-98265088D01*
X137146250Y-98433938D01*
X137318126Y-98576632D01*
X137511000Y-98689338D01*
X137515825Y-98691180D01*
X137515826Y-98691181D01*
X137566645Y-98710587D01*
X137719692Y-98769030D01*
X137724760Y-98770061D01*
X137724763Y-98770062D01*
X137832017Y-98791883D01*
X137938597Y-98813567D01*
X137943772Y-98813757D01*
X137943774Y-98813757D01*
X138156673Y-98821564D01*
X138156677Y-98821564D01*
X138161837Y-98821753D01*
X138166957Y-98821097D01*
X138166959Y-98821097D01*
X138378288Y-98794025D01*
X138378289Y-98794025D01*
X138383416Y-98793368D01*
X138388366Y-98791883D01*
X138592429Y-98730661D01*
X138592434Y-98730659D01*
X138597384Y-98729174D01*
X138797994Y-98630896D01*
X138979860Y-98501173D01*
X139138096Y-98343489D01*
X139147693Y-98330134D01*
X139265435Y-98166277D01*
X139268453Y-98162077D01*
X139273979Y-98150897D01*
X139365136Y-97966453D01*
X139365137Y-97966451D01*
X139367430Y-97961811D01*
X139432370Y-97748069D01*
X139461529Y-97526590D01*
X139463156Y-97460000D01*
X139444852Y-97237361D01*
X139390431Y-97020702D01*
X139301354Y-96815840D01*
X139180014Y-96628277D01*
X139029670Y-96463051D01*
X139025619Y-96459852D01*
X139025615Y-96459848D01*
X138858414Y-96327800D01*
X138858410Y-96327798D01*
X138854359Y-96324598D01*
X138845525Y-96319721D01*
X138802136Y-96295769D01*
X138658789Y-96216638D01*
X138653920Y-96214914D01*
X138653916Y-96214912D01*
X138453087Y-96143795D01*
X138453083Y-96143794D01*
X138448212Y-96142069D01*
X138384286Y-96130682D01*
X138323651Y-96119881D01*
X138260094Y-96088243D01*
X138223731Y-96027265D01*
X138226108Y-95956308D01*
X138256653Y-95906739D01*
X151097986Y-83065405D01*
X151160298Y-83031379D01*
X151187081Y-83028500D01*
X163112917Y-83028500D01*
X163181038Y-83048502D01*
X163202012Y-83065404D01*
X163248909Y-83112300D01*
X163279647Y-83162460D01*
X163300473Y-83226556D01*
X163395960Y-83391944D01*
X163400378Y-83396851D01*
X163400379Y-83396852D01*
X163412744Y-83410585D01*
X163523747Y-83533866D01*
X163678248Y-83646118D01*
X163684276Y-83648802D01*
X163684278Y-83648803D01*
X163802930Y-83701630D01*
X163857026Y-83747610D01*
X163877675Y-83815537D01*
X163858323Y-83883846D01*
X163840776Y-83905832D01*
X162934842Y-84811766D01*
X162933905Y-84812694D01*
X162904742Y-84841253D01*
X162869493Y-84875771D01*
X162846002Y-84912221D01*
X162838583Y-84922546D01*
X162811524Y-84956443D01*
X162808459Y-84962784D01*
X162808458Y-84962785D01*
X162796928Y-84986637D01*
X162789399Y-85000054D01*
X162771235Y-85028238D01*
X162768827Y-85034855D01*
X162768824Y-85034860D01*
X162756408Y-85068973D01*
X162751447Y-85080716D01*
X162735646Y-85113403D01*
X162735644Y-85113408D01*
X162732579Y-85119749D01*
X162730996Y-85126607D01*
X162730995Y-85126609D01*
X162725035Y-85152426D01*
X162720668Y-85167169D01*
X162709197Y-85198685D01*
X162708314Y-85205675D01*
X162708312Y-85205683D01*
X162703762Y-85241701D01*
X162701526Y-85254253D01*
X162700051Y-85260644D01*
X162691776Y-85296485D01*
X162691751Y-85303531D01*
X162691751Y-85303534D01*
X162691634Y-85337056D01*
X162691605Y-85337938D01*
X162691500Y-85338769D01*
X162691500Y-85375572D01*
X162691143Y-85477870D01*
X162691411Y-85479070D01*
X162691500Y-85480707D01*
X162691500Y-96305195D01*
X162671498Y-96373316D01*
X162641153Y-96405955D01*
X162599106Y-96437525D01*
X162599100Y-96437531D01*
X162594965Y-96440635D01*
X162591393Y-96444373D01*
X162591391Y-96444375D01*
X162483729Y-96557037D01*
X162440629Y-96602138D01*
X162333201Y-96759621D01*
X162278293Y-96804621D01*
X162207768Y-96812792D01*
X162144021Y-96781538D01*
X162123324Y-96757054D01*
X162042822Y-96632617D01*
X162042820Y-96632614D01*
X162040014Y-96628277D01*
X161889670Y-96463051D01*
X161885619Y-96459852D01*
X161885615Y-96459848D01*
X161718414Y-96327800D01*
X161718410Y-96327798D01*
X161714359Y-96324598D01*
X161705525Y-96319721D01*
X161662136Y-96295769D01*
X161518789Y-96216638D01*
X161513920Y-96214914D01*
X161513916Y-96214912D01*
X161313087Y-96143795D01*
X161313083Y-96143794D01*
X161308212Y-96142069D01*
X161303119Y-96141162D01*
X161303116Y-96141161D01*
X161093373Y-96103800D01*
X161093367Y-96103799D01*
X161088284Y-96102894D01*
X161014452Y-96101992D01*
X160870081Y-96100228D01*
X160870079Y-96100228D01*
X160864911Y-96100165D01*
X160644091Y-96133955D01*
X160431756Y-96203357D01*
X160233607Y-96306507D01*
X160229474Y-96309610D01*
X160229471Y-96309612D01*
X160125561Y-96387630D01*
X160054965Y-96440635D01*
X160051393Y-96444373D01*
X159943729Y-96557037D01*
X159900629Y-96602138D01*
X159793201Y-96759621D01*
X159738293Y-96804621D01*
X159667768Y-96812792D01*
X159604021Y-96781538D01*
X159583324Y-96757054D01*
X159502822Y-96632617D01*
X159502820Y-96632614D01*
X159500014Y-96628277D01*
X159349670Y-96463051D01*
X159345619Y-96459852D01*
X159345615Y-96459848D01*
X159178414Y-96327800D01*
X159178410Y-96327798D01*
X159174359Y-96324598D01*
X159165525Y-96319721D01*
X159122136Y-96295769D01*
X158978789Y-96216638D01*
X158973920Y-96214914D01*
X158973916Y-96214912D01*
X158773087Y-96143795D01*
X158773083Y-96143794D01*
X158768212Y-96142069D01*
X158763119Y-96141162D01*
X158763116Y-96141161D01*
X158553373Y-96103800D01*
X158553367Y-96103799D01*
X158548284Y-96102894D01*
X158474452Y-96101992D01*
X158330081Y-96100228D01*
X158330079Y-96100228D01*
X158324911Y-96100165D01*
X158104091Y-96133955D01*
X157891756Y-96203357D01*
X157693607Y-96306507D01*
X157689474Y-96309610D01*
X157689471Y-96309612D01*
X157585561Y-96387630D01*
X157514965Y-96440635D01*
X157511393Y-96444373D01*
X157403729Y-96557037D01*
X157360629Y-96602138D01*
X157253201Y-96759621D01*
X157198293Y-96804621D01*
X157127768Y-96812792D01*
X157064021Y-96781538D01*
X157043324Y-96757054D01*
X156962822Y-96632617D01*
X156962820Y-96632614D01*
X156960014Y-96628277D01*
X156809670Y-96463051D01*
X156805619Y-96459852D01*
X156805615Y-96459848D01*
X156638414Y-96327800D01*
X156638410Y-96327798D01*
X156634359Y-96324598D01*
X156625525Y-96319721D01*
X156582136Y-96295769D01*
X156438789Y-96216638D01*
X156433920Y-96214914D01*
X156433916Y-96214912D01*
X156233087Y-96143795D01*
X156233083Y-96143794D01*
X156228212Y-96142069D01*
X156223119Y-96141162D01*
X156223116Y-96141161D01*
X156013373Y-96103800D01*
X156013367Y-96103799D01*
X156008284Y-96102894D01*
X155934452Y-96101992D01*
X155790081Y-96100228D01*
X155790079Y-96100228D01*
X155784911Y-96100165D01*
X155564091Y-96133955D01*
X155351756Y-96203357D01*
X155153607Y-96306507D01*
X155149474Y-96309610D01*
X155149471Y-96309612D01*
X155045561Y-96387630D01*
X154974965Y-96440635D01*
X154971393Y-96444373D01*
X154863729Y-96557037D01*
X154820629Y-96602138D01*
X154713201Y-96759621D01*
X154658293Y-96804621D01*
X154587768Y-96812792D01*
X154524021Y-96781538D01*
X154503324Y-96757054D01*
X154422822Y-96632617D01*
X154422820Y-96632614D01*
X154420014Y-96628277D01*
X154269670Y-96463051D01*
X154265619Y-96459852D01*
X154265615Y-96459848D01*
X154098414Y-96327800D01*
X154098410Y-96327798D01*
X154094359Y-96324598D01*
X154085525Y-96319721D01*
X154042136Y-96295769D01*
X153898789Y-96216638D01*
X153893920Y-96214914D01*
X153893916Y-96214912D01*
X153693087Y-96143795D01*
X153693083Y-96143794D01*
X153688212Y-96142069D01*
X153683119Y-96141162D01*
X153683116Y-96141161D01*
X153473373Y-96103800D01*
X153473367Y-96103799D01*
X153468284Y-96102894D01*
X153394452Y-96101992D01*
X153250081Y-96100228D01*
X153250079Y-96100228D01*
X153244911Y-96100165D01*
X153024091Y-96133955D01*
X152811756Y-96203357D01*
X152613607Y-96306507D01*
X152609474Y-96309610D01*
X152609471Y-96309612D01*
X152505561Y-96387630D01*
X152434965Y-96440635D01*
X152355543Y-96523746D01*
X152354283Y-96525064D01*
X152292759Y-96560494D01*
X152221846Y-96557037D01*
X152164060Y-96515791D01*
X152145207Y-96482243D01*
X152103767Y-96371703D01*
X152100615Y-96363295D01*
X152013261Y-96246739D01*
X151896705Y-96159385D01*
X151760316Y-96108255D01*
X151698134Y-96101500D01*
X149901866Y-96101500D01*
X149839684Y-96108255D01*
X149703295Y-96159385D01*
X149586739Y-96246739D01*
X149499385Y-96363295D01*
X149448255Y-96499684D01*
X149441500Y-96561866D01*
X149441500Y-98358134D01*
X149448255Y-98420316D01*
X149499385Y-98556705D01*
X149586739Y-98673261D01*
X149626863Y-98703332D01*
X149684219Y-98746318D01*
X149703295Y-98760615D01*
X149708432Y-98762541D01*
X149757337Y-98811555D01*
X149772351Y-98880946D01*
X149747466Y-98947438D01*
X149690583Y-98989922D01*
X149647817Y-98997812D01*
X146558785Y-99025642D01*
X146074231Y-99030007D01*
X146005933Y-99010619D01*
X145958959Y-98957385D01*
X145948222Y-98887205D01*
X145977132Y-98822361D01*
X146036888Y-98783326D01*
X146212429Y-98730661D01*
X146212434Y-98730659D01*
X146217384Y-98729174D01*
X146417994Y-98630896D01*
X146599860Y-98501173D01*
X146758096Y-98343489D01*
X146767693Y-98330134D01*
X146885435Y-98166277D01*
X146888453Y-98162077D01*
X146893979Y-98150897D01*
X146985136Y-97966453D01*
X146985137Y-97966451D01*
X146987430Y-97961811D01*
X147052370Y-97748069D01*
X147081529Y-97526590D01*
X147083156Y-97460000D01*
X147064852Y-97237361D01*
X147010431Y-97020702D01*
X146921354Y-96815840D01*
X146800014Y-96628277D01*
X146649670Y-96463051D01*
X146645619Y-96459852D01*
X146645615Y-96459848D01*
X146478414Y-96327800D01*
X146478410Y-96327798D01*
X146474359Y-96324598D01*
X146465525Y-96319721D01*
X146422136Y-96295769D01*
X146278789Y-96216638D01*
X146273920Y-96214914D01*
X146273916Y-96214912D01*
X146073087Y-96143795D01*
X146073083Y-96143794D01*
X146068212Y-96142069D01*
X146063119Y-96141162D01*
X146063116Y-96141161D01*
X145853373Y-96103800D01*
X145853367Y-96103799D01*
X145848284Y-96102894D01*
X145774452Y-96101992D01*
X145630081Y-96100228D01*
X145630079Y-96100228D01*
X145624911Y-96100165D01*
X145404091Y-96133955D01*
X145191756Y-96203357D01*
X144993607Y-96306507D01*
X144989474Y-96309610D01*
X144989471Y-96309612D01*
X144885561Y-96387630D01*
X144814965Y-96440635D01*
X144811393Y-96444373D01*
X144703729Y-96557037D01*
X144660629Y-96602138D01*
X144534743Y-96786680D01*
X144440688Y-96989305D01*
X144380989Y-97204570D01*
X144357251Y-97426695D01*
X144357548Y-97431848D01*
X144357548Y-97431851D01*
X144363011Y-97526590D01*
X144370110Y-97649715D01*
X144371247Y-97654761D01*
X144371248Y-97654767D01*
X144391119Y-97742939D01*
X144419222Y-97867639D01*
X144503266Y-98074616D01*
X144550011Y-98150897D01*
X144617291Y-98260688D01*
X144619987Y-98265088D01*
X144766250Y-98433938D01*
X144938126Y-98576632D01*
X145131000Y-98689338D01*
X145135825Y-98691180D01*
X145135826Y-98691181D01*
X145186645Y-98710587D01*
X145339692Y-98769030D01*
X145426041Y-98786598D01*
X145488802Y-98819778D01*
X145523665Y-98881625D01*
X145519556Y-98952503D01*
X145477780Y-99009907D01*
X145411600Y-99035613D01*
X145402052Y-99036062D01*
X115402433Y-99306329D01*
X115334135Y-99286941D01*
X115287161Y-99233707D01*
X115276424Y-99163527D01*
X115305334Y-99098683D01*
X115315527Y-99088034D01*
X115507479Y-98909661D01*
X115507481Y-98909658D01*
X115510622Y-98906740D01*
X115692713Y-98684268D01*
X115842927Y-98439142D01*
X115846927Y-98430031D01*
X115956757Y-98179830D01*
X115958483Y-98175898D01*
X115963742Y-98157438D01*
X116036068Y-97903534D01*
X116037244Y-97899406D01*
X116077751Y-97614784D01*
X116077845Y-97596951D01*
X116079235Y-97331583D01*
X116079235Y-97331576D01*
X116079257Y-97327297D01*
X116041732Y-97042266D01*
X115965871Y-96764964D01*
X115898239Y-96606403D01*
X115854763Y-96504476D01*
X115854761Y-96504472D01*
X115853077Y-96500524D01*
X115749704Y-96327800D01*
X115707643Y-96257521D01*
X115707640Y-96257517D01*
X115705439Y-96253839D01*
X115525687Y-96029472D01*
X115317149Y-95831577D01*
X115083683Y-95663814D01*
X115061843Y-95652250D01*
X114948290Y-95592127D01*
X114829608Y-95529288D01*
X114559627Y-95430489D01*
X114278736Y-95369245D01*
X114247685Y-95366801D01*
X114055718Y-95351693D01*
X114055709Y-95351693D01*
X114053261Y-95351500D01*
X113897729Y-95351500D01*
X113895593Y-95351646D01*
X113895582Y-95351646D01*
X113687452Y-95365835D01*
X113687446Y-95365836D01*
X113683175Y-95366127D01*
X113678980Y-95366996D01*
X113678978Y-95366996D01*
X113542417Y-95395276D01*
X113401658Y-95424426D01*
X113130657Y-95520393D01*
X113126848Y-95522359D01*
X112991675Y-95592127D01*
X112875188Y-95652250D01*
X112871687Y-95654711D01*
X112871683Y-95654713D01*
X112861594Y-95661804D01*
X112639977Y-95817559D01*
X112624892Y-95831577D01*
X112465846Y-95979372D01*
X112429378Y-96013260D01*
X112247287Y-96235732D01*
X112097073Y-96480858D01*
X111981517Y-96744102D01*
X111980342Y-96748229D01*
X111980341Y-96748230D01*
X111977097Y-96759618D01*
X111902756Y-97020594D01*
X111862249Y-97305216D01*
X111862227Y-97309505D01*
X111862226Y-97309512D01*
X111860765Y-97588417D01*
X111860743Y-97592703D01*
X111898268Y-97877734D01*
X111974129Y-98155036D01*
X111975813Y-98158984D01*
X112071202Y-98382618D01*
X112086923Y-98419476D01*
X112097555Y-98437240D01*
X112229986Y-98658516D01*
X112234561Y-98666161D01*
X112414313Y-98890528D01*
X112505153Y-98976732D01*
X112556694Y-99025642D01*
X112622851Y-99088423D01*
X112643858Y-99103518D01*
X112687504Y-99159512D01*
X112693949Y-99230216D01*
X112661146Y-99293180D01*
X112599509Y-99328414D01*
X112571468Y-99331834D01*
X109017134Y-99363855D01*
X108948837Y-99344467D01*
X108901863Y-99291233D01*
X108890000Y-99237860D01*
X108890000Y-92643134D01*
X117641500Y-92643134D01*
X117648255Y-92705316D01*
X117699385Y-92841705D01*
X117786739Y-92958261D01*
X117903295Y-93045615D01*
X118039684Y-93096745D01*
X118101866Y-93103500D01*
X119998134Y-93103500D01*
X120060316Y-93096745D01*
X120196705Y-93045615D01*
X120313261Y-92958261D01*
X120400615Y-92841705D01*
X120451745Y-92705316D01*
X120458500Y-92643134D01*
X120458500Y-91646866D01*
X120451745Y-91584684D01*
X120400615Y-91448295D01*
X120313261Y-91331739D01*
X120196705Y-91244385D01*
X120060316Y-91193255D01*
X119998134Y-91186500D01*
X118101866Y-91186500D01*
X118039684Y-91193255D01*
X117903295Y-91244385D01*
X117786739Y-91331739D01*
X117699385Y-91448295D01*
X117648255Y-91584684D01*
X117641500Y-91646866D01*
X117641500Y-92643134D01*
X108890000Y-92643134D01*
X108890000Y-81766061D01*
X122286610Y-81766061D01*
X122286799Y-81769853D01*
X122300795Y-82050999D01*
X122303147Y-82098255D01*
X122303788Y-82101986D01*
X122303789Y-82101994D01*
X122318586Y-82188103D01*
X122359474Y-82426057D01*
X122454774Y-82744718D01*
X122456287Y-82748189D01*
X122456289Y-82748195D01*
X122547458Y-82957370D01*
X122587666Y-83049622D01*
X122589589Y-83052893D01*
X122589591Y-83052897D01*
X122630749Y-83122909D01*
X122756226Y-83336352D01*
X122758527Y-83339367D01*
X122955712Y-83597742D01*
X122955717Y-83597748D01*
X122958012Y-83600755D01*
X123190102Y-83839002D01*
X123449132Y-84047640D01*
X123731352Y-84223648D01*
X124032672Y-84364476D01*
X124348729Y-84468085D01*
X124674944Y-84532973D01*
X124678716Y-84533260D01*
X124678724Y-84533261D01*
X125002815Y-84557914D01*
X125002820Y-84557914D01*
X125006592Y-84558201D01*
X125338869Y-84543403D01*
X125343401Y-84542649D01*
X125663220Y-84489417D01*
X125663225Y-84489416D01*
X125666961Y-84488794D01*
X125986116Y-84395164D01*
X125989583Y-84393674D01*
X125989587Y-84393673D01*
X126288228Y-84265366D01*
X126288230Y-84265365D01*
X126291712Y-84263869D01*
X126579321Y-84096813D01*
X126582343Y-84094532D01*
X126582347Y-84094529D01*
X126841753Y-83898697D01*
X126841754Y-83898696D01*
X126844777Y-83896414D01*
X127084235Y-83665575D01*
X127294227Y-83407641D01*
X127408483Y-83226556D01*
X127469683Y-83129560D01*
X127469685Y-83129557D01*
X127471710Y-83126347D01*
X127614114Y-82825767D01*
X127719377Y-82510257D01*
X127785972Y-82184386D01*
X127812936Y-81852875D01*
X127813317Y-81816449D01*
X127813519Y-81797221D01*
X127813519Y-81797214D01*
X127813542Y-81795000D01*
X127813409Y-81792789D01*
X127793755Y-81466772D01*
X127793754Y-81466765D01*
X127793527Y-81462997D01*
X127746515Y-81205585D01*
X127734451Y-81139530D01*
X127734450Y-81139525D01*
X127733770Y-81135803D01*
X127714303Y-81073106D01*
X127636261Y-80821771D01*
X127635139Y-80818157D01*
X127499061Y-80514662D01*
X127414108Y-80373555D01*
X127329466Y-80232966D01*
X127329462Y-80232960D01*
X127327507Y-80229713D01*
X127325180Y-80226729D01*
X127325175Y-80226722D01*
X127125294Y-79970425D01*
X127125288Y-79970418D01*
X127122963Y-79967437D01*
X126888392Y-79731634D01*
X126627191Y-79525720D01*
X126343144Y-79352677D01*
X126222046Y-79297617D01*
X126043817Y-79216580D01*
X126043809Y-79216577D01*
X126040365Y-79215011D01*
X125723240Y-79114718D01*
X125500896Y-79072906D01*
X125400087Y-79053949D01*
X125400085Y-79053949D01*
X125396364Y-79053249D01*
X125064470Y-79031496D01*
X125060690Y-79031704D01*
X125060689Y-79031704D01*
X124962918Y-79037085D01*
X124732366Y-79049773D01*
X124728639Y-79050434D01*
X124728635Y-79050434D01*
X124469510Y-79096358D01*
X124404864Y-79107815D01*
X124401239Y-79108920D01*
X124401234Y-79108921D01*
X124193683Y-79172178D01*
X124086707Y-79204782D01*
X124083243Y-79206313D01*
X124083236Y-79206316D01*
X123896051Y-79289070D01*
X123782503Y-79339269D01*
X123779249Y-79341205D01*
X123779243Y-79341208D01*
X123499918Y-79507389D01*
X123496659Y-79509328D01*
X123493658Y-79511643D01*
X123493654Y-79511646D01*
X123449624Y-79545615D01*
X123233316Y-79712496D01*
X122996288Y-79945829D01*
X122789009Y-80205949D01*
X122614481Y-80489086D01*
X122475232Y-80791140D01*
X122474073Y-80794740D01*
X122474070Y-80794747D01*
X122384431Y-81073106D01*
X122373280Y-81107735D01*
X122372561Y-81111451D01*
X122372559Y-81111459D01*
X122314508Y-81411500D01*
X122310100Y-81434285D01*
X122309833Y-81438061D01*
X122309832Y-81438066D01*
X122288506Y-81739284D01*
X122286610Y-81766061D01*
X108890000Y-81766061D01*
X108890000Y-79143134D01*
X117641500Y-79143134D01*
X117648255Y-79205316D01*
X117699385Y-79341705D01*
X117786739Y-79458261D01*
X117903295Y-79545615D01*
X118039684Y-79596745D01*
X118101866Y-79603500D01*
X119998134Y-79603500D01*
X120060316Y-79596745D01*
X120196705Y-79545615D01*
X120313261Y-79458261D01*
X120400615Y-79341705D01*
X120451745Y-79205316D01*
X120458500Y-79143134D01*
X120458500Y-78146866D01*
X120451745Y-78084684D01*
X120400615Y-77948295D01*
X120313261Y-77831739D01*
X120196705Y-77744385D01*
X120060316Y-77693255D01*
X119998134Y-77686500D01*
X118101866Y-77686500D01*
X118039684Y-77693255D01*
X117903295Y-77744385D01*
X117786739Y-77831739D01*
X117699385Y-77948295D01*
X117648255Y-78084684D01*
X117641500Y-78146866D01*
X117641500Y-79143134D01*
X108890000Y-79143134D01*
X108890000Y-75271160D01*
X108910002Y-75203039D01*
X108963658Y-75156546D01*
X109033932Y-75146442D01*
X109098512Y-75175936D01*
X109105088Y-75182059D01*
X110400557Y-76477528D01*
X110406411Y-76483793D01*
X110444439Y-76527385D01*
X110496729Y-76564136D01*
X110501971Y-76568028D01*
X110552282Y-76607476D01*
X110559201Y-76610600D01*
X110561493Y-76611988D01*
X110576165Y-76620357D01*
X110578525Y-76621622D01*
X110584739Y-76625990D01*
X110591818Y-76628750D01*
X110591820Y-76628751D01*
X110644275Y-76649202D01*
X110650344Y-76651753D01*
X110708573Y-76678045D01*
X110716046Y-76679430D01*
X110718612Y-76680234D01*
X110734835Y-76684855D01*
X110737427Y-76685520D01*
X110744509Y-76688282D01*
X110752044Y-76689274D01*
X110807861Y-76696622D01*
X110814377Y-76697654D01*
X110852770Y-76704770D01*
X110877186Y-76709295D01*
X110884766Y-76708858D01*
X110884767Y-76708858D01*
X110939380Y-76705709D01*
X110946633Y-76705500D01*
X117243088Y-76705500D01*
X117251658Y-76705792D01*
X117301776Y-76709209D01*
X117301780Y-76709209D01*
X117309352Y-76709725D01*
X117316829Y-76708420D01*
X117316830Y-76708420D01*
X117343308Y-76703799D01*
X117372303Y-76698738D01*
X117378821Y-76697777D01*
X117442242Y-76690102D01*
X117449343Y-76687419D01*
X117451952Y-76686778D01*
X117468262Y-76682315D01*
X117470798Y-76681550D01*
X117478284Y-76680243D01*
X117536800Y-76654556D01*
X117542904Y-76652065D01*
X117595548Y-76632173D01*
X117595549Y-76632172D01*
X117602656Y-76629487D01*
X117608919Y-76625183D01*
X117611285Y-76623946D01*
X117626097Y-76615701D01*
X117628351Y-76614368D01*
X117635305Y-76611315D01*
X117686002Y-76572413D01*
X117691332Y-76568541D01*
X117737720Y-76536661D01*
X117737725Y-76536656D01*
X117743981Y-76532357D01*
X117785436Y-76485829D01*
X117790416Y-76480554D01*
X118975988Y-75294982D01*
X119038300Y-75260956D01*
X119076063Y-75258556D01*
X119304000Y-75278498D01*
X119532087Y-75258543D01*
X119537400Y-75257119D01*
X119537402Y-75257119D01*
X119747933Y-75200707D01*
X119747935Y-75200706D01*
X119753243Y-75199284D01*
X119790170Y-75182065D01*
X119955762Y-75104849D01*
X119955767Y-75104846D01*
X119960749Y-75102523D01*
X120065611Y-75029098D01*
X120143789Y-74974357D01*
X120143792Y-74974355D01*
X120148300Y-74971198D01*
X120310198Y-74809300D01*
X120441523Y-74621749D01*
X120443846Y-74616767D01*
X120443849Y-74616762D01*
X120535961Y-74419225D01*
X120535961Y-74419224D01*
X120538284Y-74414243D01*
X120597543Y-74193087D01*
X120617498Y-73965000D01*
X120597543Y-73736913D01*
X120566578Y-73621352D01*
X120539707Y-73521067D01*
X120539706Y-73521065D01*
X120538284Y-73515757D01*
X120535961Y-73510775D01*
X120443849Y-73313238D01*
X120443846Y-73313233D01*
X120441523Y-73308251D01*
X120310198Y-73120700D01*
X120148300Y-72958802D01*
X120143792Y-72955645D01*
X120143789Y-72955643D01*
X120065611Y-72900902D01*
X119960749Y-72827477D01*
X119955767Y-72825154D01*
X119955762Y-72825151D01*
X119758225Y-72733039D01*
X119758224Y-72733039D01*
X119753243Y-72730716D01*
X119747935Y-72729294D01*
X119747933Y-72729293D01*
X119537402Y-72672881D01*
X119537400Y-72672881D01*
X119532087Y-72671457D01*
X119304000Y-72651502D01*
X119075913Y-72671457D01*
X119070600Y-72672881D01*
X119070598Y-72672881D01*
X118860067Y-72729293D01*
X118860065Y-72729294D01*
X118854757Y-72730716D01*
X118849776Y-72733039D01*
X118849775Y-72733039D01*
X118652238Y-72825151D01*
X118652233Y-72825154D01*
X118647251Y-72827477D01*
X118542389Y-72900902D01*
X118464211Y-72955643D01*
X118464208Y-72955645D01*
X118459700Y-72958802D01*
X118297802Y-73120700D01*
X118166477Y-73308251D01*
X118164154Y-73313233D01*
X118164151Y-73313238D01*
X118072039Y-73510775D01*
X118069716Y-73515757D01*
X118068294Y-73521065D01*
X118068293Y-73521067D01*
X118041422Y-73621352D01*
X118010457Y-73736913D01*
X117990502Y-73965000D01*
X118002300Y-74099846D01*
X118010444Y-74192935D01*
X117996455Y-74262540D01*
X117974018Y-74293012D01*
X117015435Y-75251595D01*
X116953123Y-75285621D01*
X116926340Y-75288500D01*
X112474767Y-75288500D01*
X112406646Y-75268498D01*
X112360153Y-75214842D01*
X112350049Y-75144568D01*
X112379543Y-75079988D01*
X112402496Y-75059287D01*
X112523789Y-74974357D01*
X112523792Y-74974355D01*
X112528300Y-74971198D01*
X112690198Y-74809300D01*
X112821523Y-74621749D01*
X112823846Y-74616767D01*
X112823849Y-74616762D01*
X112915961Y-74419225D01*
X112915961Y-74419224D01*
X112918284Y-74414243D01*
X112977543Y-74193087D01*
X112997498Y-73965000D01*
X112977543Y-73736913D01*
X112946578Y-73621352D01*
X112919707Y-73521067D01*
X112919706Y-73521065D01*
X112918284Y-73515757D01*
X112915961Y-73510775D01*
X112823849Y-73313238D01*
X112823846Y-73313233D01*
X112821523Y-73308251D01*
X112690198Y-73120700D01*
X112528300Y-72958802D01*
X112523792Y-72955645D01*
X112523789Y-72955643D01*
X112445611Y-72900902D01*
X112340749Y-72827477D01*
X112335767Y-72825154D01*
X112335762Y-72825151D01*
X112301543Y-72809195D01*
X112248258Y-72762278D01*
X112228797Y-72694001D01*
X112249339Y-72626041D01*
X112301543Y-72580805D01*
X112335762Y-72564849D01*
X112335767Y-72564846D01*
X112340749Y-72562523D01*
X112445611Y-72489098D01*
X112523789Y-72434357D01*
X112523792Y-72434355D01*
X112528300Y-72431198D01*
X112689093Y-72270405D01*
X112751405Y-72236379D01*
X112778188Y-72233500D01*
X113579786Y-72233500D01*
X113581106Y-72233507D01*
X113671221Y-72234451D01*
X113713597Y-72225289D01*
X113726163Y-72223231D01*
X113769255Y-72218397D01*
X113775906Y-72216081D01*
X113775910Y-72216080D01*
X113800930Y-72207367D01*
X113815742Y-72203204D01*
X113841619Y-72197609D01*
X113848510Y-72196119D01*
X113887813Y-72177792D01*
X113899589Y-72173010D01*
X113940552Y-72158745D01*
X113946527Y-72155011D01*
X113946530Y-72155010D01*
X113968995Y-72140973D01*
X113982512Y-72133634D01*
X114006514Y-72122441D01*
X114006515Y-72122440D01*
X114012902Y-72119462D01*
X114047153Y-72092894D01*
X114057612Y-72085598D01*
X114088404Y-72066358D01*
X114088407Y-72066356D01*
X114094376Y-72062626D01*
X114123179Y-72034024D01*
X114123804Y-72033439D01*
X114124470Y-72032922D01*
X114150460Y-72006932D01*
X114223082Y-71934815D01*
X114223740Y-71933778D01*
X114224843Y-71932549D01*
X115170158Y-70987234D01*
X115171095Y-70986306D01*
X115230475Y-70928157D01*
X115230476Y-70928156D01*
X115235507Y-70923229D01*
X115258998Y-70886779D01*
X115266417Y-70876454D01*
X115293476Y-70842557D01*
X115308073Y-70812362D01*
X115315602Y-70798945D01*
X115329948Y-70776684D01*
X115333765Y-70770762D01*
X115336173Y-70764145D01*
X115336176Y-70764140D01*
X115348592Y-70730027D01*
X115353553Y-70718284D01*
X115369354Y-70685597D01*
X115369356Y-70685592D01*
X115372421Y-70679251D01*
X115379965Y-70646572D01*
X115384332Y-70631831D01*
X115395803Y-70600315D01*
X115396686Y-70593325D01*
X115396688Y-70593317D01*
X115401238Y-70557299D01*
X115403474Y-70544747D01*
X115411638Y-70509386D01*
X115411638Y-70509383D01*
X115413224Y-70502515D01*
X115413366Y-70461944D01*
X115413395Y-70461062D01*
X115413500Y-70460231D01*
X115413500Y-70423428D01*
X115413857Y-70321130D01*
X115413589Y-70319930D01*
X115413500Y-70318293D01*
X115413500Y-67367082D01*
X115433502Y-67298961D01*
X115450405Y-67277987D01*
X119742176Y-62986216D01*
X119743114Y-62985287D01*
X119746700Y-62981776D01*
X119776950Y-62952153D01*
X119802475Y-62927157D01*
X119802476Y-62927156D01*
X119807507Y-62922229D01*
X119830998Y-62885779D01*
X119838417Y-62875454D01*
X119865476Y-62841557D01*
X119868540Y-62835218D01*
X119868543Y-62835214D01*
X119880074Y-62811362D01*
X119887601Y-62797949D01*
X119901947Y-62775687D01*
X119901948Y-62775684D01*
X119905765Y-62769762D01*
X119908176Y-62763139D01*
X119920592Y-62729027D01*
X119925553Y-62717283D01*
X119941352Y-62684601D01*
X119941353Y-62684599D01*
X119944421Y-62678252D01*
X119951966Y-62645573D01*
X119956334Y-62630825D01*
X119956531Y-62630285D01*
X119967803Y-62599315D01*
X119968685Y-62592329D01*
X119968687Y-62592323D01*
X119973238Y-62556299D01*
X119975474Y-62543747D01*
X119983638Y-62508386D01*
X119983638Y-62508383D01*
X119985224Y-62501515D01*
X119985366Y-62460944D01*
X119985395Y-62460062D01*
X119985500Y-62459231D01*
X119985500Y-62422428D01*
X119985752Y-62350158D01*
X119985845Y-62323657D01*
X119985845Y-62323652D01*
X119985857Y-62320130D01*
X119985589Y-62318930D01*
X119985500Y-62317293D01*
X119985500Y-61350082D01*
X120005502Y-61281961D01*
X120022405Y-61260987D01*
X120628185Y-60655207D01*
X120690497Y-60621181D01*
X120728260Y-60618781D01*
X120774523Y-60622828D01*
X120774525Y-60622828D01*
X120780000Y-60623307D01*
X120999371Y-60604115D01*
X121212076Y-60547120D01*
X121411654Y-60454056D01*
X121546205Y-60359842D01*
X121587527Y-60330908D01*
X121587529Y-60330906D01*
X121592038Y-60327749D01*
X121747749Y-60172038D01*
X121791881Y-60109012D01*
X121870899Y-59996162D01*
X121870900Y-59996160D01*
X121874056Y-59991653D01*
X121876379Y-59986671D01*
X121876382Y-59986666D01*
X121938189Y-59854118D01*
X121967120Y-59792076D01*
X122024115Y-59579371D01*
X122043307Y-59360000D01*
X122024115Y-59140629D01*
X121967120Y-58927924D01*
X121894633Y-58772474D01*
X121876382Y-58733334D01*
X121876379Y-58733329D01*
X121874056Y-58728347D01*
X121841523Y-58681885D01*
X121750908Y-58552473D01*
X121750906Y-58552470D01*
X121747749Y-58547962D01*
X121592038Y-58392251D01*
X121411654Y-58265944D01*
X121212076Y-58172880D01*
X120999371Y-58115885D01*
X120780000Y-58096693D01*
X120560629Y-58115885D01*
X120347924Y-58172880D01*
X120310569Y-58190299D01*
X120153334Y-58263618D01*
X120153329Y-58263621D01*
X120148347Y-58265944D01*
X120143840Y-58269100D01*
X120143838Y-58269101D01*
X119972473Y-58389092D01*
X119972470Y-58389094D01*
X119967962Y-58392251D01*
X119812251Y-58547962D01*
X119809094Y-58552470D01*
X119809092Y-58552473D01*
X119718477Y-58681885D01*
X119685944Y-58728347D01*
X119683621Y-58733329D01*
X119683618Y-58733334D01*
X119665367Y-58772474D01*
X119592880Y-58927924D01*
X119535885Y-59140629D01*
X119516693Y-59360000D01*
X119517172Y-59365475D01*
X119517172Y-59365477D01*
X119521219Y-59411740D01*
X119507229Y-59481344D01*
X119484793Y-59511816D01*
X119253595Y-59743013D01*
X119191283Y-59777038D01*
X119120467Y-59771973D01*
X119063632Y-59729426D01*
X119038821Y-59662905D01*
X119038500Y-59653917D01*
X119038500Y-58809600D01*
X119037592Y-58800850D01*
X119028238Y-58710693D01*
X119028237Y-58710689D01*
X119027526Y-58703835D01*
X119022191Y-58687842D01*
X118977027Y-58552473D01*
X118971550Y-58536055D01*
X118878478Y-58385652D01*
X118753303Y-58260695D01*
X118740336Y-58252702D01*
X118608968Y-58171725D01*
X118608966Y-58171724D01*
X118602738Y-58167885D01*
X118480534Y-58127352D01*
X118441389Y-58114368D01*
X118441387Y-58114368D01*
X118434861Y-58112203D01*
X118428025Y-58111503D01*
X118428022Y-58111502D01*
X118384969Y-58107091D01*
X118330400Y-58101500D01*
X117575660Y-58101500D01*
X117507539Y-58081498D01*
X117486565Y-58064595D01*
X117255405Y-57833435D01*
X117221379Y-57771123D01*
X117218500Y-57744340D01*
X117218500Y-57676648D01*
X117238502Y-57608527D01*
X117292158Y-57562034D01*
X117362432Y-57551930D01*
X117377112Y-57554941D01*
X117560629Y-57604115D01*
X117780000Y-57623307D01*
X117999371Y-57604115D01*
X118212076Y-57547120D01*
X118411654Y-57454056D01*
X118533504Y-57368735D01*
X118587527Y-57330908D01*
X118587529Y-57330906D01*
X118592038Y-57327749D01*
X118747749Y-57172038D01*
X118793824Y-57106237D01*
X118870899Y-56996162D01*
X118870900Y-56996160D01*
X118874056Y-56991653D01*
X118876379Y-56986671D01*
X118876382Y-56986666D01*
X118940271Y-56849653D01*
X118967120Y-56792076D01*
X119024115Y-56579371D01*
X119043307Y-56360000D01*
X119516693Y-56360000D01*
X119535885Y-56579371D01*
X119592880Y-56792076D01*
X119619729Y-56849653D01*
X119683618Y-56986666D01*
X119683621Y-56986671D01*
X119685944Y-56991653D01*
X119689100Y-56996160D01*
X119689101Y-56996162D01*
X119766177Y-57106237D01*
X119812251Y-57172038D01*
X119967962Y-57327749D01*
X119972471Y-57330906D01*
X119972473Y-57330908D01*
X120026496Y-57368735D01*
X120148346Y-57454056D01*
X120347924Y-57547120D01*
X120560629Y-57604115D01*
X120780000Y-57623307D01*
X120999371Y-57604115D01*
X121212076Y-57547120D01*
X121411654Y-57454056D01*
X121533504Y-57368735D01*
X121587527Y-57330908D01*
X121587529Y-57330906D01*
X121592038Y-57327749D01*
X121747749Y-57172038D01*
X121793824Y-57106237D01*
X121870899Y-56996162D01*
X121870900Y-56996160D01*
X121874056Y-56991653D01*
X121876379Y-56986671D01*
X121876382Y-56986666D01*
X121940271Y-56849653D01*
X121967120Y-56792076D01*
X122024115Y-56579371D01*
X122043307Y-56360000D01*
X122024115Y-56140629D01*
X121967120Y-55927924D01*
X121908455Y-55802116D01*
X121876382Y-55733334D01*
X121876379Y-55733328D01*
X121874056Y-55728347D01*
X121848142Y-55691338D01*
X121750908Y-55552473D01*
X121750906Y-55552470D01*
X121747749Y-55547962D01*
X121592038Y-55392251D01*
X121550047Y-55362848D01*
X121442933Y-55287846D01*
X121411654Y-55265944D01*
X121212076Y-55172880D01*
X120999371Y-55115885D01*
X120780000Y-55096693D01*
X120560629Y-55115885D01*
X120347924Y-55172880D01*
X120262446Y-55212739D01*
X120153334Y-55263618D01*
X120153329Y-55263621D01*
X120148347Y-55265944D01*
X120143840Y-55269100D01*
X120143838Y-55269101D01*
X119972473Y-55389092D01*
X119972470Y-55389094D01*
X119967962Y-55392251D01*
X119812251Y-55547962D01*
X119809094Y-55552470D01*
X119809092Y-55552473D01*
X119711858Y-55691338D01*
X119685944Y-55728347D01*
X119683621Y-55733328D01*
X119683618Y-55733334D01*
X119651545Y-55802116D01*
X119592880Y-55927924D01*
X119535885Y-56140629D01*
X119516693Y-56360000D01*
X119043307Y-56360000D01*
X119024115Y-56140629D01*
X118967120Y-55927924D01*
X118908455Y-55802116D01*
X118876379Y-55733328D01*
X118876377Y-55733325D01*
X118874056Y-55728347D01*
X118823323Y-55655892D01*
X118800636Y-55588619D01*
X118817922Y-55519758D01*
X118837442Y-55494528D01*
X120957565Y-53374405D01*
X121019877Y-53340379D01*
X121046660Y-53337500D01*
X121996203Y-53337500D01*
X122064324Y-53357502D01*
X122110817Y-53411158D01*
X122121547Y-53476342D01*
X122116500Y-53525600D01*
X122116500Y-54526400D01*
X122116837Y-54529646D01*
X122116837Y-54529650D01*
X122124050Y-54599162D01*
X122127474Y-54632166D01*
X122129655Y-54638702D01*
X122129655Y-54638704D01*
X122158148Y-54724106D01*
X122183450Y-54799946D01*
X122276522Y-54950348D01*
X122401697Y-55075305D01*
X122552262Y-55168115D01*
X122559210Y-55170419D01*
X122559213Y-55170421D01*
X122622481Y-55191406D01*
X122680841Y-55231837D01*
X122684613Y-55236895D01*
X122685338Y-55237717D01*
X122689643Y-55243981D01*
X122724845Y-55275345D01*
X122736170Y-55285435D01*
X122741446Y-55290416D01*
X123862550Y-56411520D01*
X123868404Y-56417785D01*
X123906439Y-56461385D01*
X123912657Y-56465755D01*
X123958697Y-56498112D01*
X123963993Y-56502045D01*
X124014282Y-56541477D01*
X124021204Y-56544602D01*
X124023452Y-56545964D01*
X124038185Y-56554368D01*
X124040524Y-56555622D01*
X124046739Y-56559990D01*
X124053815Y-56562749D01*
X124053819Y-56562751D01*
X124106274Y-56583202D01*
X124112352Y-56585757D01*
X124170574Y-56612045D01*
X124178045Y-56613429D01*
X124180599Y-56614230D01*
X124196878Y-56618867D01*
X124199433Y-56619523D01*
X124206509Y-56622282D01*
X124234962Y-56626028D01*
X124269851Y-56630621D01*
X124276367Y-56631653D01*
X124318706Y-56639500D01*
X124339187Y-56643296D01*
X124346767Y-56642859D01*
X124346768Y-56642859D01*
X124401398Y-56639709D01*
X124408651Y-56639500D01*
X125631523Y-56639500D01*
X125699644Y-56659502D01*
X125746137Y-56713158D01*
X125756241Y-56783432D01*
X125726747Y-56848012D01*
X125720618Y-56854595D01*
X124927618Y-57647595D01*
X124865306Y-57681621D01*
X124838523Y-57684500D01*
X124675498Y-57684500D01*
X124673050Y-57684693D01*
X124673042Y-57684693D01*
X124644579Y-57686933D01*
X124644574Y-57686934D01*
X124638169Y-57687438D01*
X124538231Y-57716472D01*
X124486012Y-57731643D01*
X124486010Y-57731644D01*
X124478399Y-57733855D01*
X124471572Y-57737892D01*
X124471573Y-57737892D01*
X124342020Y-57814509D01*
X124342017Y-57814511D01*
X124335193Y-57818547D01*
X124217547Y-57936193D01*
X124213511Y-57943017D01*
X124213509Y-57943020D01*
X124160955Y-58031884D01*
X124132855Y-58079399D01*
X124130644Y-58087010D01*
X124130643Y-58087012D01*
X124116751Y-58134830D01*
X124086438Y-58239169D01*
X124085934Y-58245574D01*
X124085933Y-58245579D01*
X124084082Y-58269101D01*
X124083500Y-58276498D01*
X124083500Y-60059502D01*
X124086438Y-60096831D01*
X124108445Y-60172579D01*
X124124479Y-60227769D01*
X124132855Y-60256601D01*
X124136892Y-60263427D01*
X124213509Y-60392980D01*
X124213511Y-60392983D01*
X124217547Y-60399807D01*
X124335193Y-60517453D01*
X124342017Y-60521489D01*
X124342020Y-60521491D01*
X124387763Y-60548543D01*
X124478399Y-60602145D01*
X124486010Y-60604356D01*
X124486012Y-60604357D01*
X124535661Y-60618781D01*
X124638169Y-60648562D01*
X124644574Y-60649066D01*
X124644579Y-60649067D01*
X124673042Y-60651307D01*
X124673050Y-60651307D01*
X124675498Y-60651500D01*
X125108502Y-60651500D01*
X125110950Y-60651307D01*
X125110958Y-60651307D01*
X125139421Y-60649067D01*
X125139426Y-60649066D01*
X125145831Y-60648562D01*
X125152007Y-60646768D01*
X125152011Y-60646767D01*
X125292348Y-60605996D01*
X125363344Y-60606199D01*
X125422960Y-60644753D01*
X125452268Y-60709418D01*
X125453500Y-60726993D01*
X125453500Y-61427340D01*
X125433498Y-61495461D01*
X125416595Y-61516435D01*
X125397435Y-61535595D01*
X125335123Y-61569621D01*
X125308340Y-61572500D01*
X124285516Y-61572500D01*
X124217395Y-61552498D01*
X124170902Y-61498842D01*
X124167863Y-61491126D01*
X124166868Y-61489003D01*
X124164550Y-61482054D01*
X124071478Y-61331652D01*
X123946303Y-61206695D01*
X123825772Y-61132398D01*
X123801968Y-61117725D01*
X123801966Y-61117724D01*
X123795738Y-61113885D01*
X123670459Y-61072332D01*
X123634389Y-61060368D01*
X123634387Y-61060368D01*
X123627861Y-61058203D01*
X123621025Y-61057503D01*
X123621022Y-61057502D01*
X123577969Y-61053091D01*
X123523400Y-61047500D01*
X122747600Y-61047500D01*
X122744354Y-61047837D01*
X122744350Y-61047837D01*
X122648692Y-61057762D01*
X122648688Y-61057763D01*
X122641834Y-61058474D01*
X122635298Y-61060655D01*
X122635296Y-61060655D01*
X122542660Y-61091561D01*
X122474054Y-61114450D01*
X122323652Y-61207522D01*
X122198695Y-61332697D01*
X122105885Y-61483262D01*
X122099554Y-61502350D01*
X122069653Y-61592500D01*
X122050203Y-61651139D01*
X122039500Y-61755600D01*
X122039500Y-62806400D01*
X122039837Y-62809646D01*
X122039837Y-62809650D01*
X122049181Y-62899701D01*
X122050474Y-62912166D01*
X122052655Y-62918702D01*
X122052655Y-62918704D01*
X122074019Y-62982739D01*
X122106450Y-63079946D01*
X122199522Y-63230348D01*
X122204704Y-63235521D01*
X122208340Y-63239151D01*
X122324697Y-63355305D01*
X122330929Y-63359147D01*
X122330931Y-63359148D01*
X122367117Y-63381454D01*
X122414610Y-63434226D01*
X122427000Y-63488713D01*
X122427000Y-64326840D01*
X122406998Y-64394961D01*
X122390095Y-64415935D01*
X121206435Y-65599595D01*
X121144123Y-65633621D01*
X121117340Y-65636500D01*
X120470878Y-65636500D01*
X120402757Y-65616498D01*
X120367665Y-65582771D01*
X120313357Y-65505211D01*
X120313355Y-65505208D01*
X120310198Y-65500700D01*
X120148300Y-65338802D01*
X120143792Y-65335645D01*
X120143789Y-65335643D01*
X120018073Y-65247616D01*
X119960749Y-65207477D01*
X119955767Y-65205154D01*
X119955762Y-65205151D01*
X119758225Y-65113039D01*
X119758224Y-65113039D01*
X119753243Y-65110716D01*
X119747935Y-65109294D01*
X119747933Y-65109293D01*
X119537402Y-65052881D01*
X119537400Y-65052881D01*
X119532087Y-65051457D01*
X119304000Y-65031502D01*
X119075913Y-65051457D01*
X119070600Y-65052881D01*
X119070598Y-65052881D01*
X118860067Y-65109293D01*
X118860065Y-65109294D01*
X118854757Y-65110716D01*
X118849776Y-65113039D01*
X118849775Y-65113039D01*
X118652238Y-65205151D01*
X118652233Y-65205154D01*
X118647251Y-65207477D01*
X118589927Y-65247616D01*
X118464211Y-65335643D01*
X118464208Y-65335645D01*
X118459700Y-65338802D01*
X118297802Y-65500700D01*
X118294645Y-65505208D01*
X118294643Y-65505211D01*
X118286964Y-65516178D01*
X118166477Y-65688251D01*
X118164154Y-65693233D01*
X118164151Y-65693238D01*
X118072039Y-65890775D01*
X118069716Y-65895757D01*
X118068294Y-65901065D01*
X118068293Y-65901067D01*
X118033612Y-66030498D01*
X118010457Y-66116913D01*
X117990502Y-66345000D01*
X118010457Y-66573087D01*
X118011881Y-66578400D01*
X118011881Y-66578402D01*
X118066832Y-66783478D01*
X118069716Y-66794243D01*
X118072039Y-66799224D01*
X118072039Y-66799225D01*
X118164151Y-66996762D01*
X118164154Y-66996767D01*
X118166477Y-67001749D01*
X118297802Y-67189300D01*
X118459700Y-67351198D01*
X118464208Y-67354355D01*
X118464211Y-67354357D01*
X118492903Y-67374447D01*
X118647251Y-67482523D01*
X118652233Y-67484846D01*
X118652238Y-67484849D01*
X118686457Y-67500805D01*
X118739742Y-67547722D01*
X118759203Y-67615999D01*
X118738661Y-67683959D01*
X118686457Y-67729195D01*
X118652238Y-67745151D01*
X118652233Y-67745154D01*
X118647251Y-67747477D01*
X118542389Y-67820902D01*
X118464211Y-67875643D01*
X118464208Y-67875645D01*
X118459700Y-67878802D01*
X118297802Y-68040700D01*
X118166477Y-68228251D01*
X118164154Y-68233233D01*
X118164151Y-68233238D01*
X118159613Y-68242970D01*
X118069716Y-68435757D01*
X118010457Y-68656913D01*
X117990502Y-68885000D01*
X118010457Y-69113087D01*
X118069716Y-69334243D01*
X118072039Y-69339224D01*
X118072039Y-69339225D01*
X118164151Y-69536762D01*
X118164154Y-69536767D01*
X118166477Y-69541749D01*
X118297802Y-69729300D01*
X118459700Y-69891198D01*
X118464208Y-69894355D01*
X118464211Y-69894357D01*
X118542389Y-69949098D01*
X118647251Y-70022523D01*
X118652233Y-70024846D01*
X118652238Y-70024849D01*
X118849775Y-70116961D01*
X118854757Y-70119284D01*
X118860065Y-70120706D01*
X118860067Y-70120707D01*
X119070598Y-70177119D01*
X119070600Y-70177119D01*
X119075913Y-70178543D01*
X119304000Y-70198498D01*
X119532087Y-70178543D01*
X119537400Y-70177119D01*
X119537402Y-70177119D01*
X119747933Y-70120707D01*
X119747935Y-70120706D01*
X119753243Y-70119284D01*
X119758225Y-70116961D01*
X119955762Y-70024849D01*
X119955767Y-70024846D01*
X119960749Y-70022523D01*
X120065611Y-69949098D01*
X120143789Y-69894357D01*
X120143792Y-69894355D01*
X120148300Y-69891198D01*
X120310198Y-69729300D01*
X120441523Y-69541749D01*
X120443846Y-69536767D01*
X120443849Y-69536762D01*
X120535961Y-69339225D01*
X120535961Y-69339224D01*
X120538284Y-69334243D01*
X120597543Y-69113087D01*
X120617498Y-68885000D01*
X120597543Y-68656913D01*
X120538284Y-68435757D01*
X120448387Y-68242970D01*
X120443849Y-68233238D01*
X120443846Y-68233233D01*
X120441523Y-68228251D01*
X120310198Y-68040700D01*
X120148300Y-67878802D01*
X120143792Y-67875645D01*
X120143789Y-67875643D01*
X120065611Y-67820902D01*
X119960749Y-67747477D01*
X119955767Y-67745154D01*
X119955762Y-67745151D01*
X119921543Y-67729195D01*
X119868258Y-67682278D01*
X119848797Y-67614001D01*
X119869339Y-67546041D01*
X119921543Y-67500805D01*
X119955762Y-67484849D01*
X119955767Y-67484846D01*
X119960749Y-67482523D01*
X120115097Y-67374447D01*
X120143789Y-67354357D01*
X120143792Y-67354355D01*
X120148300Y-67351198D01*
X120310198Y-67189300D01*
X120367665Y-67107229D01*
X120423122Y-67062901D01*
X120470878Y-67053500D01*
X121434088Y-67053500D01*
X121442658Y-67053792D01*
X121492776Y-67057209D01*
X121492780Y-67057209D01*
X121500352Y-67057725D01*
X121507829Y-67056420D01*
X121507830Y-67056420D01*
X121534308Y-67051799D01*
X121563303Y-67046738D01*
X121569821Y-67045777D01*
X121633242Y-67038102D01*
X121640343Y-67035419D01*
X121642952Y-67034778D01*
X121659262Y-67030315D01*
X121661798Y-67029550D01*
X121669284Y-67028243D01*
X121727800Y-67002556D01*
X121733904Y-67000065D01*
X121742646Y-66996762D01*
X121793656Y-66977487D01*
X121799919Y-66973183D01*
X121802285Y-66971946D01*
X121817097Y-66963701D01*
X121819351Y-66962368D01*
X121826305Y-66959315D01*
X121877002Y-66920413D01*
X121882332Y-66916541D01*
X121928720Y-66884661D01*
X121928725Y-66884656D01*
X121934981Y-66880357D01*
X121941809Y-66872694D01*
X121976435Y-66833830D01*
X121981416Y-66828554D01*
X123616028Y-65193943D01*
X123622293Y-65188089D01*
X123660164Y-65155052D01*
X123660165Y-65155051D01*
X123665885Y-65150061D01*
X123702636Y-65097771D01*
X123706528Y-65092529D01*
X123745976Y-65042218D01*
X123749100Y-65035299D01*
X123750488Y-65033007D01*
X123758857Y-65018335D01*
X123760122Y-65015975D01*
X123764490Y-65009761D01*
X123787703Y-64950223D01*
X123790259Y-64944142D01*
X123813418Y-64892852D01*
X123816545Y-64885927D01*
X123817930Y-64878454D01*
X123818734Y-64875888D01*
X123823355Y-64859665D01*
X123824020Y-64857073D01*
X123826782Y-64849991D01*
X123835122Y-64786639D01*
X123836154Y-64780123D01*
X123846411Y-64724781D01*
X123847795Y-64717314D01*
X123844209Y-64655120D01*
X123844000Y-64647867D01*
X123844000Y-63488634D01*
X123864002Y-63420513D01*
X123903697Y-63381490D01*
X123941120Y-63358332D01*
X123947348Y-63354478D01*
X124072305Y-63229303D01*
X124138597Y-63121758D01*
X124161275Y-63084968D01*
X124161276Y-63084966D01*
X124165115Y-63078738D01*
X124167419Y-63071791D01*
X124170513Y-63065156D01*
X124172749Y-63066199D01*
X124206523Y-63017462D01*
X124272091Y-62990234D01*
X124285672Y-62989500D01*
X125625088Y-62989500D01*
X125633658Y-62989792D01*
X125683776Y-62993209D01*
X125683780Y-62993209D01*
X125691352Y-62993725D01*
X125698829Y-62992420D01*
X125698830Y-62992420D01*
X125739700Y-62985287D01*
X125754303Y-62982738D01*
X125760821Y-62981777D01*
X125824242Y-62974102D01*
X125831343Y-62971419D01*
X125833952Y-62970778D01*
X125850262Y-62966315D01*
X125852798Y-62965550D01*
X125860284Y-62964243D01*
X125918800Y-62938556D01*
X125924904Y-62936065D01*
X125977548Y-62916173D01*
X125977549Y-62916172D01*
X125984656Y-62913487D01*
X125990919Y-62909183D01*
X125993285Y-62907946D01*
X126008097Y-62899701D01*
X126010351Y-62898368D01*
X126017305Y-62895315D01*
X126068002Y-62856413D01*
X126073332Y-62852541D01*
X126119720Y-62820661D01*
X126119725Y-62820656D01*
X126125981Y-62816357D01*
X126134853Y-62806400D01*
X126167427Y-62769839D01*
X126172408Y-62764562D01*
X126642536Y-62294435D01*
X126648801Y-62288582D01*
X126686664Y-62255552D01*
X126686665Y-62255551D01*
X126692385Y-62250561D01*
X126729136Y-62198271D01*
X126733028Y-62193029D01*
X126772476Y-62142718D01*
X126775600Y-62135799D01*
X126776988Y-62133507D01*
X126785357Y-62118835D01*
X126786622Y-62116475D01*
X126790990Y-62110261D01*
X126814203Y-62050723D01*
X126816759Y-62044642D01*
X126839918Y-61993352D01*
X126843045Y-61986427D01*
X126844430Y-61978954D01*
X126845234Y-61976388D01*
X126849855Y-61960165D01*
X126850520Y-61957573D01*
X126853282Y-61950491D01*
X126861261Y-61889885D01*
X126861622Y-61887139D01*
X126862654Y-61880623D01*
X126872911Y-61825281D01*
X126874295Y-61817814D01*
X126870708Y-61755600D01*
X126870500Y-61748367D01*
X126870500Y-60376706D01*
X126888045Y-60312569D01*
X126921145Y-60256601D01*
X126929522Y-60227769D01*
X126945555Y-60172579D01*
X126967562Y-60096831D01*
X126970500Y-60059502D01*
X126970500Y-58276498D01*
X126969918Y-58269101D01*
X126968067Y-58245579D01*
X126968066Y-58245574D01*
X126967562Y-58239169D01*
X126937249Y-58134830D01*
X126923357Y-58087012D01*
X126923356Y-58087010D01*
X126921145Y-58079399D01*
X126858007Y-57972639D01*
X126840547Y-57903823D01*
X126863064Y-57836492D01*
X126918408Y-57792023D01*
X126966460Y-57782500D01*
X127897540Y-57782500D01*
X127965661Y-57802502D01*
X128012154Y-57856158D01*
X128022258Y-57926432D01*
X128005993Y-57972638D01*
X127942855Y-58079399D01*
X127940644Y-58087010D01*
X127940643Y-58087012D01*
X127926751Y-58134830D01*
X127896438Y-58239169D01*
X127895934Y-58245574D01*
X127895933Y-58245579D01*
X127894082Y-58269101D01*
X127893500Y-58276498D01*
X127893500Y-60059502D01*
X127896438Y-60096831D01*
X127918445Y-60172579D01*
X127934479Y-60227769D01*
X127942855Y-60256601D01*
X127975955Y-60312569D01*
X127993500Y-60376706D01*
X127993500Y-60474088D01*
X127993208Y-60482658D01*
X127990087Y-60528447D01*
X127989275Y-60540352D01*
X127990580Y-60547829D01*
X127990580Y-60547830D01*
X127995201Y-60574308D01*
X128000060Y-60602145D01*
X128000261Y-60603299D01*
X128001223Y-60609821D01*
X128008898Y-60673242D01*
X128011581Y-60680343D01*
X128012222Y-60682952D01*
X128016685Y-60699262D01*
X128017450Y-60701798D01*
X128018757Y-60709284D01*
X128029289Y-60733275D01*
X128044442Y-60767795D01*
X128046933Y-60773899D01*
X128069513Y-60833656D01*
X128073817Y-60839919D01*
X128075054Y-60842285D01*
X128083299Y-60857097D01*
X128084632Y-60859351D01*
X128087685Y-60866305D01*
X128092307Y-60872328D01*
X128126579Y-60916991D01*
X128130459Y-60922332D01*
X128162339Y-60968720D01*
X128162344Y-60968725D01*
X128166643Y-60974981D01*
X128172313Y-60980032D01*
X128172314Y-60980034D01*
X128213161Y-61016427D01*
X128218438Y-61021408D01*
X128819565Y-61622536D01*
X128825418Y-61628801D01*
X128851605Y-61658819D01*
X128863439Y-61672385D01*
X128915729Y-61709136D01*
X128920971Y-61713028D01*
X128971282Y-61752476D01*
X128978201Y-61755600D01*
X128980493Y-61756988D01*
X128995165Y-61765357D01*
X128997525Y-61766622D01*
X129003739Y-61770990D01*
X129010818Y-61773750D01*
X129010820Y-61773751D01*
X129063275Y-61794202D01*
X129069344Y-61796753D01*
X129127573Y-61823045D01*
X129135046Y-61824430D01*
X129137612Y-61825234D01*
X129153835Y-61829855D01*
X129156427Y-61830520D01*
X129163509Y-61833282D01*
X129171044Y-61834274D01*
X129226861Y-61841622D01*
X129233377Y-61842654D01*
X129262880Y-61848122D01*
X129296186Y-61854295D01*
X129303766Y-61853858D01*
X129303767Y-61853858D01*
X129358380Y-61850709D01*
X129365633Y-61850500D01*
X132232503Y-61850500D01*
X132232506Y-61850499D01*
X132398341Y-61850499D01*
X132466462Y-61870501D01*
X132512955Y-61924157D01*
X132523059Y-61994431D01*
X132493565Y-62059011D01*
X132487436Y-62065594D01*
X131493435Y-63059595D01*
X131431123Y-63093621D01*
X131404340Y-63096500D01*
X129133411Y-63096500D01*
X129124842Y-63096208D01*
X129074723Y-63092791D01*
X129074719Y-63092791D01*
X129067147Y-63092275D01*
X129004185Y-63103264D01*
X128997695Y-63104221D01*
X128934258Y-63111898D01*
X128927149Y-63114584D01*
X128924578Y-63115216D01*
X128908272Y-63119676D01*
X128905704Y-63120451D01*
X128898216Y-63121758D01*
X128879529Y-63129961D01*
X128839712Y-63147439D01*
X128833605Y-63149931D01*
X128796738Y-63163862D01*
X128773844Y-63172513D01*
X128767583Y-63176816D01*
X128765217Y-63178053D01*
X128750437Y-63186280D01*
X128748152Y-63187631D01*
X128741195Y-63190685D01*
X128735175Y-63195305D01*
X128735169Y-63195308D01*
X128708554Y-63215732D01*
X128690498Y-63229587D01*
X128685168Y-63233459D01*
X128638780Y-63265339D01*
X128638775Y-63265344D01*
X128632519Y-63269643D01*
X128627468Y-63275313D01*
X128627466Y-63275314D01*
X128591065Y-63316170D01*
X128586084Y-63321446D01*
X127467935Y-64439595D01*
X127405623Y-64473621D01*
X127378840Y-64476500D01*
X126684600Y-64476500D01*
X126681354Y-64476837D01*
X126681350Y-64476837D01*
X126585692Y-64486762D01*
X126585688Y-64486763D01*
X126578834Y-64487474D01*
X126572298Y-64489655D01*
X126572296Y-64489655D01*
X126488161Y-64517725D01*
X126411054Y-64543450D01*
X126260652Y-64636522D01*
X126135695Y-64761697D01*
X126131855Y-64767927D01*
X126131854Y-64767928D01*
X126054850Y-64892852D01*
X126042885Y-64912262D01*
X125987203Y-65080139D01*
X125986503Y-65086975D01*
X125986502Y-65086978D01*
X125984475Y-65106760D01*
X125976500Y-65184600D01*
X125976500Y-65878839D01*
X125956498Y-65946960D01*
X125939595Y-65967934D01*
X124479472Y-67428058D01*
X124473206Y-67433912D01*
X124435340Y-67466944D01*
X124435337Y-67466947D01*
X124429615Y-67471939D01*
X124400306Y-67513642D01*
X124392872Y-67524219D01*
X124388939Y-67529514D01*
X124349524Y-67579782D01*
X124346401Y-67586698D01*
X124345017Y-67588984D01*
X124336643Y-67603665D01*
X124335378Y-67606025D01*
X124331010Y-67612239D01*
X124328250Y-67619318D01*
X124328249Y-67619320D01*
X124307798Y-67671775D01*
X124305247Y-67677844D01*
X124278955Y-67736073D01*
X124277571Y-67743540D01*
X124276770Y-67746095D01*
X124272141Y-67762348D01*
X124271478Y-67764928D01*
X124268718Y-67772009D01*
X124267727Y-67779540D01*
X124267726Y-67779542D01*
X124260379Y-67835352D01*
X124259348Y-67841859D01*
X124247704Y-67904686D01*
X124248141Y-67912266D01*
X124248141Y-67912267D01*
X124251291Y-67966892D01*
X124251500Y-67974146D01*
X124251500Y-68520500D01*
X124231498Y-68588621D01*
X124177842Y-68635114D01*
X124125500Y-68646500D01*
X122661866Y-68646500D01*
X122599684Y-68653255D01*
X122463295Y-68704385D01*
X122346739Y-68791739D01*
X122259385Y-68908295D01*
X122208255Y-69044684D01*
X122201500Y-69106866D01*
X122201500Y-71203134D01*
X122208255Y-71265316D01*
X122259385Y-71401705D01*
X122346739Y-71518261D01*
X122463295Y-71605615D01*
X122599684Y-71656745D01*
X122661866Y-71663500D01*
X127258134Y-71663500D01*
X127320316Y-71656745D01*
X127456705Y-71605615D01*
X127573261Y-71518261D01*
X127660615Y-71401705D01*
X127711745Y-71265316D01*
X127718500Y-71203134D01*
X127718500Y-69106866D01*
X127711745Y-69044684D01*
X127660615Y-68908295D01*
X127573261Y-68791739D01*
X127456705Y-68704385D01*
X127320316Y-68653255D01*
X127258134Y-68646500D01*
X125794500Y-68646500D01*
X125726379Y-68626498D01*
X125679886Y-68572842D01*
X125668500Y-68520500D01*
X125668500Y-68295160D01*
X125688502Y-68227039D01*
X125705405Y-68206065D01*
X126931065Y-66980405D01*
X126993377Y-66946379D01*
X127020160Y-66943500D01*
X127460400Y-66943500D01*
X127463646Y-66943163D01*
X127463650Y-66943163D01*
X127559308Y-66933238D01*
X127559312Y-66933237D01*
X127566166Y-66932526D01*
X127572702Y-66930345D01*
X127572704Y-66930345D01*
X127726998Y-66878868D01*
X127733946Y-66876550D01*
X127884348Y-66783478D01*
X128009305Y-66658303D01*
X128102115Y-66507738D01*
X128150716Y-66361211D01*
X128155632Y-66346389D01*
X128155632Y-66346387D01*
X128157797Y-66339861D01*
X128168500Y-66235400D01*
X128168500Y-65795160D01*
X128188502Y-65727039D01*
X128205405Y-65706065D01*
X129361066Y-64550405D01*
X129423378Y-64516379D01*
X129450161Y-64513500D01*
X131721088Y-64513500D01*
X131729658Y-64513792D01*
X131779776Y-64517209D01*
X131779780Y-64517209D01*
X131787352Y-64517725D01*
X131794829Y-64516420D01*
X131794830Y-64516420D01*
X131825621Y-64511046D01*
X131850303Y-64506738D01*
X131856821Y-64505777D01*
X131920242Y-64498102D01*
X131927343Y-64495419D01*
X131929952Y-64494778D01*
X131946262Y-64490315D01*
X131948798Y-64489550D01*
X131956284Y-64488243D01*
X132014800Y-64462556D01*
X132020904Y-64460065D01*
X132073548Y-64440173D01*
X132073549Y-64440172D01*
X132080656Y-64437487D01*
X132086919Y-64433183D01*
X132089285Y-64431946D01*
X132104097Y-64423701D01*
X132106351Y-64422368D01*
X132113305Y-64419315D01*
X132164002Y-64380413D01*
X132169332Y-64376541D01*
X132215720Y-64344661D01*
X132215725Y-64344656D01*
X132221981Y-64340357D01*
X132236304Y-64324282D01*
X132263435Y-64293830D01*
X132268416Y-64288554D01*
X133331405Y-63225565D01*
X133393717Y-63191539D01*
X133464532Y-63196604D01*
X133521368Y-63239151D01*
X133546179Y-63305671D01*
X133546500Y-63314660D01*
X133546500Y-64350500D01*
X133526498Y-64418621D01*
X133472842Y-64465114D01*
X133420500Y-64476500D01*
X133034600Y-64476500D01*
X133031354Y-64476837D01*
X133031350Y-64476837D01*
X132935692Y-64486762D01*
X132935688Y-64486763D01*
X132928834Y-64487474D01*
X132922298Y-64489655D01*
X132922296Y-64489655D01*
X132838161Y-64517725D01*
X132761054Y-64543450D01*
X132610652Y-64636522D01*
X132485695Y-64761697D01*
X132481855Y-64767927D01*
X132481854Y-64767928D01*
X132404850Y-64892852D01*
X132392885Y-64912262D01*
X132337203Y-65080139D01*
X132336503Y-65086975D01*
X132336502Y-65086978D01*
X132334475Y-65106760D01*
X132326500Y-65184600D01*
X132326500Y-66235400D01*
X132326837Y-66238646D01*
X132326837Y-66238650D01*
X132336467Y-66331457D01*
X132337474Y-66341166D01*
X132339655Y-66347702D01*
X132339655Y-66347704D01*
X132379046Y-66465771D01*
X132393450Y-66508946D01*
X132486522Y-66659348D01*
X132611697Y-66784305D01*
X132617927Y-66788145D01*
X132617928Y-66788146D01*
X132691616Y-66833568D01*
X132739109Y-66886340D01*
X132751500Y-66940828D01*
X132751500Y-68520500D01*
X132731498Y-68588621D01*
X132677842Y-68635114D01*
X132625500Y-68646500D01*
X131161866Y-68646500D01*
X131099684Y-68653255D01*
X130963295Y-68704385D01*
X130846739Y-68791739D01*
X130759385Y-68908295D01*
X130708255Y-69044684D01*
X130701500Y-69106866D01*
X130701500Y-71203134D01*
X130708255Y-71265316D01*
X130759385Y-71401705D01*
X130846739Y-71518261D01*
X130963295Y-71605615D01*
X131099684Y-71656745D01*
X131161866Y-71663500D01*
X135758134Y-71663500D01*
X135820316Y-71656745D01*
X135956705Y-71605615D01*
X136073261Y-71518261D01*
X136160615Y-71401705D01*
X136211745Y-71265316D01*
X136218500Y-71203134D01*
X136218500Y-69106866D01*
X136211745Y-69044684D01*
X136160615Y-68908295D01*
X136073261Y-68791739D01*
X135956705Y-68704385D01*
X135820316Y-68653255D01*
X135758134Y-68646500D01*
X134294500Y-68646500D01*
X134226379Y-68626498D01*
X134179886Y-68572842D01*
X134168500Y-68520500D01*
X134168500Y-66894428D01*
X134188502Y-66826307D01*
X134222888Y-66792505D01*
X134222388Y-66791875D01*
X134228120Y-66787332D01*
X134234348Y-66783478D01*
X134359305Y-66658303D01*
X134452115Y-66507738D01*
X134500716Y-66361211D01*
X134505632Y-66346389D01*
X134505632Y-66346387D01*
X134507797Y-66339861D01*
X134518500Y-66235400D01*
X134518500Y-65860188D01*
X134538502Y-65792067D01*
X134555405Y-65771093D01*
X134735520Y-65590978D01*
X134741785Y-65585124D01*
X134779660Y-65552083D01*
X134785385Y-65547089D01*
X134822114Y-65494828D01*
X134826046Y-65489533D01*
X134860791Y-65445222D01*
X134865477Y-65439246D01*
X134868602Y-65432324D01*
X134869964Y-65430076D01*
X134878368Y-65415343D01*
X134879622Y-65413004D01*
X134883990Y-65406789D01*
X134886749Y-65399713D01*
X134886751Y-65399709D01*
X134907200Y-65347259D01*
X134909749Y-65341194D01*
X134936045Y-65282955D01*
X134937429Y-65275490D01*
X134938226Y-65272946D01*
X134942859Y-65256680D01*
X134943521Y-65254100D01*
X134946282Y-65247019D01*
X134954622Y-65183671D01*
X134955653Y-65177157D01*
X134967296Y-65114341D01*
X134965028Y-65075000D01*
X134963709Y-65052135D01*
X134963500Y-65044881D01*
X134963500Y-64625660D01*
X134983502Y-64557539D01*
X135037158Y-64511046D01*
X135107432Y-64500942D01*
X135172012Y-64530436D01*
X135178595Y-64536565D01*
X135330595Y-64688565D01*
X135364621Y-64750877D01*
X135367500Y-64777660D01*
X135367500Y-65332400D01*
X135367837Y-65335646D01*
X135367837Y-65335650D01*
X135377635Y-65430076D01*
X135378474Y-65438166D01*
X135380655Y-65444702D01*
X135380655Y-65444704D01*
X135402839Y-65511196D01*
X135434450Y-65605946D01*
X135527522Y-65756348D01*
X135652697Y-65881305D01*
X135658927Y-65885145D01*
X135658928Y-65885146D01*
X135796090Y-65969694D01*
X135803262Y-65974115D01*
X135883005Y-66000564D01*
X135964611Y-66027632D01*
X135964613Y-66027632D01*
X135971139Y-66029797D01*
X135977975Y-66030497D01*
X135977978Y-66030498D01*
X136021031Y-66034909D01*
X136075600Y-66040500D01*
X137076400Y-66040500D01*
X137079646Y-66040163D01*
X137079650Y-66040163D01*
X137175308Y-66030238D01*
X137175312Y-66030237D01*
X137182166Y-66029526D01*
X137188702Y-66027345D01*
X137188704Y-66027345D01*
X137320806Y-65983272D01*
X137349946Y-65973550D01*
X137500348Y-65880478D01*
X137625305Y-65755303D01*
X137642727Y-65727039D01*
X137714275Y-65610968D01*
X137714276Y-65610966D01*
X137718115Y-65604738D01*
X137750903Y-65505886D01*
X137771632Y-65443389D01*
X137771632Y-65443387D01*
X137773797Y-65436861D01*
X137775613Y-65419142D01*
X137778909Y-65386969D01*
X137784500Y-65332400D01*
X137784500Y-64976543D01*
X137804502Y-64908422D01*
X137858158Y-64861929D01*
X137927165Y-64851650D01*
X138075980Y-64871507D01*
X138075984Y-64871507D01*
X138082961Y-64872438D01*
X138089972Y-64871800D01*
X138089976Y-64871800D01*
X138244525Y-64857734D01*
X138263600Y-64855998D01*
X138270305Y-64853819D01*
X138270307Y-64853819D01*
X138320524Y-64837503D01*
X138391491Y-64835476D01*
X138452289Y-64872139D01*
X138483614Y-64935851D01*
X138484980Y-64968317D01*
X138477964Y-65048511D01*
X138475647Y-65075000D01*
X138495022Y-65296463D01*
X138524584Y-65406789D01*
X138549748Y-65500700D01*
X138552560Y-65511196D01*
X138554882Y-65516177D01*
X138554883Y-65516178D01*
X138644186Y-65707689D01*
X138644189Y-65707694D01*
X138646512Y-65712676D01*
X138649668Y-65717183D01*
X138649669Y-65717185D01*
X138768393Y-65886740D01*
X138774023Y-65894781D01*
X138931219Y-66051977D01*
X138935727Y-66055134D01*
X138935730Y-66055136D01*
X138950493Y-66065473D01*
X139113323Y-66179488D01*
X139118305Y-66181811D01*
X139118310Y-66181814D01*
X139309822Y-66271117D01*
X139314804Y-66273440D01*
X139320112Y-66274862D01*
X139320114Y-66274863D01*
X139385949Y-66292503D01*
X139529537Y-66330978D01*
X139751000Y-66350353D01*
X139972463Y-66330978D01*
X140116051Y-66292503D01*
X140181886Y-66274863D01*
X140181888Y-66274862D01*
X140187196Y-66273440D01*
X140192178Y-66271117D01*
X140383690Y-66181814D01*
X140383695Y-66181811D01*
X140388677Y-66179488D01*
X140551507Y-66065473D01*
X140566270Y-66055136D01*
X140566273Y-66055134D01*
X140570781Y-66051977D01*
X140727977Y-65894781D01*
X140733608Y-65886740D01*
X140852331Y-65717185D01*
X140852332Y-65717183D01*
X140855488Y-65712676D01*
X140857811Y-65707694D01*
X140857814Y-65707689D01*
X140947117Y-65516178D01*
X140947118Y-65516177D01*
X140949440Y-65511196D01*
X140952253Y-65500700D01*
X140977416Y-65406789D01*
X141006978Y-65296463D01*
X141026353Y-65075000D01*
X141006978Y-64853537D01*
X140952222Y-64649186D01*
X140950863Y-64644114D01*
X140950862Y-64644112D01*
X140949440Y-64638804D01*
X140923476Y-64583124D01*
X140857814Y-64442311D01*
X140857811Y-64442306D01*
X140855488Y-64437324D01*
X140852331Y-64432815D01*
X140731136Y-64259730D01*
X140731134Y-64259727D01*
X140727977Y-64255219D01*
X140570781Y-64098023D01*
X140566273Y-64094866D01*
X140566270Y-64094864D01*
X140441615Y-64007580D01*
X140388677Y-63970512D01*
X140383695Y-63968189D01*
X140383690Y-63968186D01*
X140192178Y-63878883D01*
X140192177Y-63878882D01*
X140187196Y-63876560D01*
X140181888Y-63875138D01*
X140181886Y-63875137D01*
X140116051Y-63857497D01*
X139972463Y-63819022D01*
X139751000Y-63799647D01*
X139529537Y-63819022D01*
X139385949Y-63857497D01*
X139320114Y-63875137D01*
X139320112Y-63875138D01*
X139314804Y-63876560D01*
X139309823Y-63878882D01*
X139309822Y-63878883D01*
X139118311Y-63968186D01*
X139118306Y-63968189D01*
X139113324Y-63970512D01*
X139092786Y-63984893D01*
X139025512Y-64007580D01*
X138956652Y-63990295D01*
X138908068Y-63938525D01*
X138895301Y-63895720D01*
X138894183Y-63885746D01*
X138894182Y-63885740D01*
X138893397Y-63878745D01*
X138891080Y-63872091D01*
X138836064Y-63714106D01*
X138836062Y-63714103D01*
X138833745Y-63707448D01*
X138827644Y-63697684D01*
X138808500Y-63630918D01*
X138808500Y-61976500D01*
X138828502Y-61908379D01*
X138882158Y-61861886D01*
X138934500Y-61850500D01*
X140734088Y-61850500D01*
X140742658Y-61850792D01*
X140792776Y-61854209D01*
X140792780Y-61854209D01*
X140800352Y-61854725D01*
X140807829Y-61853420D01*
X140807830Y-61853420D01*
X140838186Y-61848122D01*
X140863303Y-61843738D01*
X140869821Y-61842777D01*
X140933242Y-61835102D01*
X140940343Y-61832419D01*
X140942952Y-61831778D01*
X140959262Y-61827315D01*
X140961798Y-61826550D01*
X140969284Y-61825243D01*
X141027800Y-61799556D01*
X141033904Y-61797065D01*
X141086548Y-61777173D01*
X141086549Y-61777172D01*
X141093656Y-61774487D01*
X141099919Y-61770183D01*
X141102285Y-61768946D01*
X141117097Y-61760701D01*
X141119351Y-61759368D01*
X141126305Y-61756315D01*
X141177002Y-61717413D01*
X141182332Y-61713541D01*
X141228720Y-61681661D01*
X141228725Y-61681656D01*
X141234981Y-61677357D01*
X141258341Y-61651139D01*
X141276435Y-61630830D01*
X141281416Y-61625554D01*
X141641565Y-61265405D01*
X141703877Y-61231379D01*
X141730660Y-61228500D01*
X142297900Y-61228500D01*
X142301146Y-61228163D01*
X142301150Y-61228163D01*
X142396808Y-61218238D01*
X142396812Y-61218237D01*
X142403666Y-61217526D01*
X142410202Y-61215345D01*
X142410204Y-61215345D01*
X142564498Y-61163868D01*
X142571446Y-61161550D01*
X142721848Y-61068478D01*
X142758247Y-61032016D01*
X142841634Y-60948483D01*
X142846805Y-60943303D01*
X142863024Y-60916991D01*
X142935775Y-60798968D01*
X142935776Y-60798966D01*
X142939615Y-60792738D01*
X142970619Y-60699262D01*
X142993132Y-60631389D01*
X142993132Y-60631387D01*
X142995297Y-60624861D01*
X142997175Y-60606537D01*
X143003116Y-60548543D01*
X143006000Y-60520400D01*
X143006000Y-59469600D01*
X143005663Y-59466350D01*
X142995738Y-59370692D01*
X142995737Y-59370688D01*
X142995026Y-59363834D01*
X142991921Y-59354525D01*
X142948772Y-59225194D01*
X142939050Y-59196054D01*
X142845978Y-59045652D01*
X142720803Y-58920695D01*
X142633211Y-58866702D01*
X142576468Y-58831725D01*
X142576466Y-58831724D01*
X142570238Y-58827885D01*
X142488730Y-58800850D01*
X142408889Y-58774368D01*
X142408887Y-58774368D01*
X142402361Y-58772203D01*
X142395525Y-58771503D01*
X142395522Y-58771502D01*
X142352469Y-58767091D01*
X142297900Y-58761500D01*
X141655660Y-58761500D01*
X141587539Y-58741498D01*
X141541046Y-58687842D01*
X141530942Y-58617568D01*
X141560436Y-58552988D01*
X141566565Y-58546405D01*
X146200520Y-53912450D01*
X146206785Y-53906596D01*
X146244660Y-53873555D01*
X146250385Y-53868561D01*
X146287114Y-53816300D01*
X146291046Y-53811005D01*
X146325791Y-53766694D01*
X146330477Y-53760718D01*
X146333602Y-53753796D01*
X146334964Y-53751548D01*
X146343368Y-53736815D01*
X146344622Y-53734476D01*
X146348990Y-53728261D01*
X146351749Y-53721185D01*
X146351751Y-53721181D01*
X146372200Y-53668731D01*
X146374749Y-53662666D01*
X146392749Y-53622801D01*
X159221237Y-53622801D01*
X159237837Y-53910691D01*
X159238662Y-53914896D01*
X159238663Y-53914904D01*
X159259260Y-54019886D01*
X159293354Y-54193665D01*
X159294741Y-54197715D01*
X159294742Y-54197720D01*
X159319148Y-54269003D01*
X159386762Y-54466486D01*
X159388689Y-54470317D01*
X159510545Y-54712601D01*
X159516331Y-54724106D01*
X159518757Y-54727635D01*
X159518760Y-54727641D01*
X159626996Y-54885124D01*
X159679665Y-54961758D01*
X159682552Y-54964931D01*
X159682553Y-54964932D01*
X159849157Y-55148028D01*
X159873740Y-55175044D01*
X159943654Y-55233501D01*
X160091674Y-55357266D01*
X160091679Y-55357270D01*
X160094966Y-55360018D01*
X160171477Y-55408013D01*
X160335610Y-55510974D01*
X160335614Y-55510976D01*
X160339250Y-55513257D01*
X160602069Y-55631924D01*
X160635461Y-55641815D01*
X160874450Y-55712607D01*
X160874454Y-55712608D01*
X160878563Y-55713825D01*
X160882797Y-55714473D01*
X160882802Y-55714474D01*
X161043421Y-55739052D01*
X161163613Y-55757444D01*
X161310373Y-55759750D01*
X161447655Y-55761907D01*
X161447661Y-55761907D01*
X161451946Y-55761974D01*
X161738226Y-55727330D01*
X161974974Y-55665220D01*
X162013012Y-55655241D01*
X162013013Y-55655241D01*
X162017155Y-55654154D01*
X162283573Y-55543801D01*
X162532549Y-55398311D01*
X162759476Y-55220377D01*
X162775187Y-55204165D01*
X162928674Y-55045778D01*
X162960155Y-55013292D01*
X162962688Y-55009844D01*
X162962692Y-55009839D01*
X163128335Y-54784343D01*
X163130873Y-54780888D01*
X163177891Y-54694293D01*
X163266423Y-54531237D01*
X163268471Y-54527465D01*
X163366135Y-54269003D01*
X163368886Y-54261722D01*
X163368887Y-54261719D01*
X163370401Y-54257712D01*
X163426792Y-54011499D01*
X163433823Y-53980802D01*
X163433824Y-53980797D01*
X163434780Y-53976622D01*
X163457577Y-53721181D01*
X163460194Y-53691861D01*
X163460194Y-53691859D01*
X163460414Y-53689395D01*
X163460879Y-53645000D01*
X163441266Y-53357299D01*
X163440399Y-53353113D01*
X163440398Y-53353105D01*
X163395112Y-53134434D01*
X163382788Y-53074923D01*
X163286529Y-52803095D01*
X163204592Y-52644344D01*
X163156234Y-52550652D01*
X163156234Y-52550651D01*
X163154269Y-52546845D01*
X163139197Y-52525400D01*
X162990919Y-52314422D01*
X162990914Y-52314416D01*
X162988455Y-52310917D01*
X162792157Y-52099675D01*
X162569006Y-51917028D01*
X162510832Y-51881379D01*
X162326782Y-51768592D01*
X162326774Y-51768588D01*
X162323132Y-51766356D01*
X162319215Y-51764637D01*
X162319212Y-51764635D01*
X162202762Y-51713517D01*
X162059083Y-51650447D01*
X162054955Y-51649271D01*
X162054952Y-51649270D01*
X161785876Y-51572621D01*
X161785877Y-51572621D01*
X161781748Y-51571445D01*
X161569063Y-51541176D01*
X161500508Y-51531419D01*
X161500506Y-51531419D01*
X161496256Y-51530814D01*
X161344269Y-51530018D01*
X161212178Y-51529326D01*
X161212171Y-51529326D01*
X161207892Y-51529304D01*
X161203648Y-51529863D01*
X161203644Y-51529863D01*
X161100899Y-51543390D01*
X160921990Y-51566944D01*
X160643843Y-51643036D01*
X160639895Y-51644720D01*
X160382547Y-51754488D01*
X160382543Y-51754490D01*
X160378595Y-51756174D01*
X160253662Y-51830945D01*
X160134838Y-51902059D01*
X160134834Y-51902062D01*
X160131156Y-51904263D01*
X159906105Y-52084563D01*
X159903161Y-52087665D01*
X159903157Y-52087669D01*
X159815599Y-52179936D01*
X159707605Y-52293738D01*
X159539330Y-52527917D01*
X159518009Y-52568186D01*
X159421445Y-52750565D01*
X159404394Y-52782768D01*
X159402922Y-52786791D01*
X159402920Y-52786795D01*
X159349291Y-52933344D01*
X159305294Y-53053573D01*
X159243862Y-53335322D01*
X159242401Y-53353882D01*
X159221752Y-53616259D01*
X159221751Y-53616259D01*
X159221752Y-53616263D01*
X159221237Y-53622801D01*
X146392749Y-53622801D01*
X146401045Y-53604427D01*
X146402429Y-53596962D01*
X146403226Y-53594418D01*
X146407859Y-53578152D01*
X146408521Y-53575572D01*
X146411282Y-53568491D01*
X146419622Y-53505143D01*
X146420653Y-53498629D01*
X146430609Y-53444917D01*
X146432296Y-53435813D01*
X146431196Y-53416726D01*
X146428709Y-53373602D01*
X146428500Y-53366349D01*
X146428500Y-50684500D01*
X146448502Y-50616379D01*
X146502158Y-50569886D01*
X146554500Y-50558500D01*
X146618134Y-50558500D01*
X146680316Y-50551745D01*
X146816705Y-50500615D01*
X146933261Y-50413261D01*
X147020615Y-50296705D01*
X147042799Y-50237529D01*
X147064598Y-50179382D01*
X147107240Y-50122618D01*
X147173802Y-50097918D01*
X147243150Y-50113126D01*
X147277817Y-50141114D01*
X147306250Y-50173938D01*
X147478126Y-50316632D01*
X147671000Y-50429338D01*
X147879692Y-50509030D01*
X147884760Y-50510061D01*
X147884763Y-50510062D01*
X147944891Y-50522295D01*
X148098597Y-50553567D01*
X148103772Y-50553757D01*
X148103774Y-50553757D01*
X148316673Y-50561564D01*
X148316677Y-50561564D01*
X148321837Y-50561753D01*
X148326957Y-50561097D01*
X148326959Y-50561097D01*
X148538288Y-50534025D01*
X148538289Y-50534025D01*
X148543416Y-50533368D01*
X148548366Y-50531883D01*
X148752429Y-50470661D01*
X148752434Y-50470659D01*
X148757384Y-50469174D01*
X148957994Y-50370896D01*
X149139860Y-50241173D01*
X149298096Y-50083489D01*
X149357594Y-50000689D01*
X149428453Y-49902077D01*
X149429776Y-49903028D01*
X149476645Y-49859857D01*
X149546580Y-49847625D01*
X149612026Y-49875144D01*
X149639875Y-49906994D01*
X149699987Y-50005088D01*
X149846250Y-50173938D01*
X150018126Y-50316632D01*
X150211000Y-50429338D01*
X150419692Y-50509030D01*
X150424760Y-50510061D01*
X150424763Y-50510062D01*
X150484891Y-50522295D01*
X150638597Y-50553567D01*
X150643772Y-50553757D01*
X150643774Y-50553757D01*
X150856673Y-50561564D01*
X150856677Y-50561564D01*
X150861837Y-50561753D01*
X150866957Y-50561097D01*
X150866959Y-50561097D01*
X151078288Y-50534025D01*
X151078289Y-50534025D01*
X151083416Y-50533368D01*
X151088366Y-50531883D01*
X151292429Y-50470661D01*
X151292434Y-50470659D01*
X151297384Y-50469174D01*
X151497994Y-50370896D01*
X151679860Y-50241173D01*
X151838096Y-50083489D01*
X151897594Y-50000689D01*
X151968453Y-49902077D01*
X151969776Y-49903028D01*
X152016645Y-49859857D01*
X152086580Y-49847625D01*
X152152026Y-49875144D01*
X152179875Y-49906994D01*
X152239987Y-50005088D01*
X152386250Y-50173938D01*
X152558126Y-50316632D01*
X152751000Y-50429338D01*
X152959692Y-50509030D01*
X152964760Y-50510061D01*
X152964763Y-50510062D01*
X153024891Y-50522295D01*
X153178597Y-50553567D01*
X153183772Y-50553757D01*
X153183774Y-50553757D01*
X153396673Y-50561564D01*
X153396677Y-50561564D01*
X153401837Y-50561753D01*
X153406957Y-50561097D01*
X153406959Y-50561097D01*
X153618288Y-50534025D01*
X153618289Y-50534025D01*
X153623416Y-50533368D01*
X153628366Y-50531883D01*
X153832429Y-50470661D01*
X153832434Y-50470659D01*
X153837384Y-50469174D01*
X154037994Y-50370896D01*
X154219860Y-50241173D01*
X154378096Y-50083489D01*
X154437594Y-50000689D01*
X154508453Y-49902077D01*
X154509776Y-49903028D01*
X154556645Y-49859857D01*
X154626580Y-49847625D01*
X154692026Y-49875144D01*
X154719875Y-49906994D01*
X154779987Y-50005088D01*
X154926250Y-50173938D01*
X155098126Y-50316632D01*
X155291000Y-50429338D01*
X155499692Y-50509030D01*
X155504760Y-50510061D01*
X155504763Y-50510062D01*
X155564891Y-50522295D01*
X155718597Y-50553567D01*
X155723772Y-50553757D01*
X155723774Y-50553757D01*
X155936673Y-50561564D01*
X155936677Y-50561564D01*
X155941837Y-50561753D01*
X155946957Y-50561097D01*
X155946959Y-50561097D01*
X156158288Y-50534025D01*
X156158289Y-50534025D01*
X156163416Y-50533368D01*
X156168366Y-50531883D01*
X156372429Y-50470661D01*
X156372434Y-50470659D01*
X156377384Y-50469174D01*
X156577994Y-50370896D01*
X156759860Y-50241173D01*
X156918096Y-50083489D01*
X156977594Y-50000689D01*
X157048453Y-49902077D01*
X157049776Y-49903028D01*
X157096645Y-49859857D01*
X157166580Y-49847625D01*
X157232026Y-49875144D01*
X157259875Y-49906994D01*
X157319987Y-50005088D01*
X157466250Y-50173938D01*
X157638126Y-50316632D01*
X157831000Y-50429338D01*
X158039692Y-50509030D01*
X158044760Y-50510061D01*
X158044763Y-50510062D01*
X158104891Y-50522295D01*
X158258597Y-50553567D01*
X158263772Y-50553757D01*
X158263774Y-50553757D01*
X158476673Y-50561564D01*
X158476677Y-50561564D01*
X158481837Y-50561753D01*
X158486957Y-50561097D01*
X158486959Y-50561097D01*
X158698288Y-50534025D01*
X158698289Y-50534025D01*
X158703416Y-50533368D01*
X158708366Y-50531883D01*
X158912429Y-50470661D01*
X158912434Y-50470659D01*
X158917384Y-50469174D01*
X159117994Y-50370896D01*
X159299860Y-50241173D01*
X159458096Y-50083489D01*
X159517594Y-50000689D01*
X159588453Y-49902077D01*
X159589776Y-49903028D01*
X159636645Y-49859857D01*
X159706580Y-49847625D01*
X159772026Y-49875144D01*
X159799875Y-49906994D01*
X159859987Y-50005088D01*
X160006250Y-50173938D01*
X160178126Y-50316632D01*
X160371000Y-50429338D01*
X160579692Y-50509030D01*
X160584760Y-50510061D01*
X160584763Y-50510062D01*
X160644891Y-50522295D01*
X160798597Y-50553567D01*
X160803772Y-50553757D01*
X160803774Y-50553757D01*
X161016673Y-50561564D01*
X161016677Y-50561564D01*
X161021837Y-50561753D01*
X161026957Y-50561097D01*
X161026959Y-50561097D01*
X161238288Y-50534025D01*
X161238289Y-50534025D01*
X161243416Y-50533368D01*
X161248366Y-50531883D01*
X161452429Y-50470661D01*
X161452434Y-50470659D01*
X161457384Y-50469174D01*
X161657994Y-50370896D01*
X161839860Y-50241173D01*
X161998096Y-50083489D01*
X162057594Y-50000689D01*
X162128453Y-49902077D01*
X162129776Y-49903028D01*
X162176645Y-49859857D01*
X162246580Y-49847625D01*
X162312026Y-49875144D01*
X162339875Y-49906994D01*
X162399987Y-50005088D01*
X162546250Y-50173938D01*
X162718126Y-50316632D01*
X162911000Y-50429338D01*
X163119692Y-50509030D01*
X163124760Y-50510061D01*
X163124763Y-50510062D01*
X163184891Y-50522295D01*
X163338597Y-50553567D01*
X163343772Y-50553757D01*
X163343774Y-50553757D01*
X163556673Y-50561564D01*
X163556677Y-50561564D01*
X163561837Y-50561753D01*
X163566957Y-50561097D01*
X163566959Y-50561097D01*
X163778288Y-50534025D01*
X163778289Y-50534025D01*
X163783416Y-50533368D01*
X163788366Y-50531883D01*
X163992429Y-50470661D01*
X163992434Y-50470659D01*
X163997384Y-50469174D01*
X164197994Y-50370896D01*
X164379860Y-50241173D01*
X164538096Y-50083489D01*
X164597594Y-50000689D01*
X164665435Y-49906277D01*
X164668453Y-49902077D01*
X164673979Y-49890897D01*
X164765136Y-49706453D01*
X164765137Y-49706451D01*
X164767430Y-49701811D01*
X164832370Y-49488069D01*
X164861529Y-49266590D01*
X164863156Y-49200000D01*
X164844852Y-48977361D01*
X164790431Y-48760702D01*
X164701354Y-48555840D01*
X164620769Y-48431274D01*
X164582822Y-48372617D01*
X164582820Y-48372614D01*
X164580014Y-48368277D01*
X164429670Y-48203051D01*
X164425619Y-48199852D01*
X164425615Y-48199848D01*
X164258414Y-48067800D01*
X164258410Y-48067798D01*
X164254359Y-48064598D01*
X164058789Y-47956638D01*
X164053920Y-47954914D01*
X164053916Y-47954912D01*
X163853087Y-47883795D01*
X163853083Y-47883794D01*
X163848212Y-47882069D01*
X163843119Y-47881162D01*
X163843116Y-47881161D01*
X163633373Y-47843800D01*
X163633367Y-47843799D01*
X163628284Y-47842894D01*
X163554452Y-47841992D01*
X163410081Y-47840228D01*
X163410079Y-47840228D01*
X163404911Y-47840165D01*
X163184091Y-47873955D01*
X162971756Y-47943357D01*
X162773607Y-48046507D01*
X162769474Y-48049610D01*
X162769471Y-48049612D01*
X162599100Y-48177530D01*
X162594965Y-48180635D01*
X162591393Y-48184373D01*
X162450888Y-48331403D01*
X162440629Y-48342138D01*
X162333201Y-48499621D01*
X162278293Y-48544621D01*
X162207768Y-48552792D01*
X162144021Y-48521538D01*
X162123324Y-48497054D01*
X162042822Y-48372617D01*
X162042820Y-48372614D01*
X162040014Y-48368277D01*
X161889670Y-48203051D01*
X161885619Y-48199852D01*
X161885615Y-48199848D01*
X161718414Y-48067800D01*
X161718410Y-48067798D01*
X161714359Y-48064598D01*
X161518789Y-47956638D01*
X161513920Y-47954914D01*
X161513916Y-47954912D01*
X161313087Y-47883795D01*
X161313083Y-47883794D01*
X161308212Y-47882069D01*
X161303119Y-47881162D01*
X161303116Y-47881161D01*
X161093373Y-47843800D01*
X161093367Y-47843799D01*
X161088284Y-47842894D01*
X161014452Y-47841992D01*
X160870081Y-47840228D01*
X160870079Y-47840228D01*
X160864911Y-47840165D01*
X160644091Y-47873955D01*
X160431756Y-47943357D01*
X160233607Y-48046507D01*
X160229474Y-48049610D01*
X160229471Y-48049612D01*
X160059100Y-48177530D01*
X160054965Y-48180635D01*
X160051393Y-48184373D01*
X159910888Y-48331403D01*
X159900629Y-48342138D01*
X159793201Y-48499621D01*
X159738293Y-48544621D01*
X159667768Y-48552792D01*
X159604021Y-48521538D01*
X159583324Y-48497054D01*
X159502822Y-48372617D01*
X159502820Y-48372614D01*
X159500014Y-48368277D01*
X159349670Y-48203051D01*
X159345619Y-48199852D01*
X159345615Y-48199848D01*
X159178414Y-48067800D01*
X159178410Y-48067798D01*
X159174359Y-48064598D01*
X158978789Y-47956638D01*
X158973920Y-47954914D01*
X158973916Y-47954912D01*
X158773087Y-47883795D01*
X158773083Y-47883794D01*
X158768212Y-47882069D01*
X158763119Y-47881162D01*
X158763116Y-47881161D01*
X158553373Y-47843800D01*
X158553367Y-47843799D01*
X158548284Y-47842894D01*
X158474452Y-47841992D01*
X158330081Y-47840228D01*
X158330079Y-47840228D01*
X158324911Y-47840165D01*
X158104091Y-47873955D01*
X157891756Y-47943357D01*
X157693607Y-48046507D01*
X157689474Y-48049610D01*
X157689471Y-48049612D01*
X157519100Y-48177530D01*
X157514965Y-48180635D01*
X157511393Y-48184373D01*
X157370888Y-48331403D01*
X157360629Y-48342138D01*
X157253201Y-48499621D01*
X157198293Y-48544621D01*
X157127768Y-48552792D01*
X157064021Y-48521538D01*
X157043324Y-48497054D01*
X156962822Y-48372617D01*
X156962820Y-48372614D01*
X156960014Y-48368277D01*
X156809670Y-48203051D01*
X156805619Y-48199852D01*
X156805615Y-48199848D01*
X156638414Y-48067800D01*
X156638410Y-48067798D01*
X156634359Y-48064598D01*
X156438789Y-47956638D01*
X156433920Y-47954914D01*
X156433916Y-47954912D01*
X156233087Y-47883795D01*
X156233083Y-47883794D01*
X156228212Y-47882069D01*
X156223119Y-47881162D01*
X156223116Y-47881161D01*
X156013373Y-47843800D01*
X156013367Y-47843799D01*
X156008284Y-47842894D01*
X155934452Y-47841992D01*
X155790081Y-47840228D01*
X155790079Y-47840228D01*
X155784911Y-47840165D01*
X155564091Y-47873955D01*
X155351756Y-47943357D01*
X155153607Y-48046507D01*
X155149474Y-48049610D01*
X155149471Y-48049612D01*
X154979100Y-48177530D01*
X154974965Y-48180635D01*
X154971393Y-48184373D01*
X154830888Y-48331403D01*
X154820629Y-48342138D01*
X154713201Y-48499621D01*
X154658293Y-48544621D01*
X154587768Y-48552792D01*
X154524021Y-48521538D01*
X154503324Y-48497054D01*
X154422822Y-48372617D01*
X154422820Y-48372614D01*
X154420014Y-48368277D01*
X154269670Y-48203051D01*
X154265619Y-48199852D01*
X154265615Y-48199848D01*
X154098414Y-48067800D01*
X154098410Y-48067798D01*
X154094359Y-48064598D01*
X153898789Y-47956638D01*
X153893920Y-47954914D01*
X153893916Y-47954912D01*
X153693087Y-47883795D01*
X153693083Y-47883794D01*
X153688212Y-47882069D01*
X153683119Y-47881162D01*
X153683116Y-47881161D01*
X153473373Y-47843800D01*
X153473367Y-47843799D01*
X153468284Y-47842894D01*
X153394452Y-47841992D01*
X153250081Y-47840228D01*
X153250079Y-47840228D01*
X153244911Y-47840165D01*
X153024091Y-47873955D01*
X152811756Y-47943357D01*
X152613607Y-48046507D01*
X152609474Y-48049610D01*
X152609471Y-48049612D01*
X152439100Y-48177530D01*
X152434965Y-48180635D01*
X152431393Y-48184373D01*
X152290888Y-48331403D01*
X152280629Y-48342138D01*
X152173201Y-48499621D01*
X152118293Y-48544621D01*
X152047768Y-48552792D01*
X151984021Y-48521538D01*
X151963324Y-48497054D01*
X151882822Y-48372617D01*
X151882820Y-48372614D01*
X151880014Y-48368277D01*
X151729670Y-48203051D01*
X151725619Y-48199852D01*
X151725615Y-48199848D01*
X151558414Y-48067800D01*
X151558410Y-48067798D01*
X151554359Y-48064598D01*
X151358789Y-47956638D01*
X151353920Y-47954914D01*
X151353916Y-47954912D01*
X151153087Y-47883795D01*
X151153083Y-47883794D01*
X151148212Y-47882069D01*
X151143119Y-47881162D01*
X151143116Y-47881161D01*
X150933373Y-47843800D01*
X150933367Y-47843799D01*
X150928284Y-47842894D01*
X150854452Y-47841992D01*
X150710081Y-47840228D01*
X150710079Y-47840228D01*
X150704911Y-47840165D01*
X150484091Y-47873955D01*
X150271756Y-47943357D01*
X150073607Y-48046507D01*
X150069474Y-48049610D01*
X150069471Y-48049612D01*
X149899100Y-48177530D01*
X149894965Y-48180635D01*
X149891393Y-48184373D01*
X149750888Y-48331403D01*
X149740629Y-48342138D01*
X149633201Y-48499621D01*
X149578293Y-48544621D01*
X149507768Y-48552792D01*
X149444021Y-48521538D01*
X149423324Y-48497054D01*
X149342822Y-48372617D01*
X149342820Y-48372614D01*
X149340014Y-48368277D01*
X149189670Y-48203051D01*
X149185619Y-48199852D01*
X149185615Y-48199848D01*
X149018414Y-48067800D01*
X149018410Y-48067798D01*
X149014359Y-48064598D01*
X148818789Y-47956638D01*
X148813920Y-47954914D01*
X148813916Y-47954912D01*
X148613087Y-47883795D01*
X148613083Y-47883794D01*
X148608212Y-47882069D01*
X148603119Y-47881162D01*
X148603116Y-47881161D01*
X148393373Y-47843800D01*
X148393367Y-47843799D01*
X148388284Y-47842894D01*
X148314452Y-47841992D01*
X148170081Y-47840228D01*
X148170079Y-47840228D01*
X148164911Y-47840165D01*
X147944091Y-47873955D01*
X147731756Y-47943357D01*
X147533607Y-48046507D01*
X147529474Y-48049610D01*
X147529471Y-48049612D01*
X147359100Y-48177530D01*
X147354965Y-48180635D01*
X147298537Y-48239684D01*
X147274283Y-48265064D01*
X147212759Y-48300494D01*
X147141846Y-48297037D01*
X147084060Y-48255791D01*
X147065207Y-48222243D01*
X147023767Y-48111703D01*
X147020615Y-48103295D01*
X146933261Y-47986739D01*
X146816705Y-47899385D01*
X146680316Y-47848255D01*
X146618134Y-47841500D01*
X144821866Y-47841500D01*
X144759684Y-47848255D01*
X144623295Y-47899385D01*
X144506739Y-47986739D01*
X144419385Y-48103295D01*
X144368255Y-48239684D01*
X144361500Y-48301866D01*
X144361500Y-50098134D01*
X144368255Y-50160316D01*
X144419385Y-50296705D01*
X144506739Y-50413261D01*
X144623295Y-50500615D01*
X144759684Y-50551745D01*
X144821866Y-50558500D01*
X144885500Y-50558500D01*
X144953621Y-50578502D01*
X145000114Y-50632158D01*
X145011500Y-50684500D01*
X145011500Y-53045339D01*
X144991498Y-53113460D01*
X144974595Y-53134434D01*
X142086297Y-56022733D01*
X139375595Y-58733435D01*
X139313283Y-58767461D01*
X139242468Y-58762396D01*
X139185632Y-58719849D01*
X139160821Y-58653329D01*
X139160500Y-58644341D01*
X139160499Y-58406239D01*
X139160499Y-58402116D01*
X139159714Y-58396148D01*
X139145916Y-58291337D01*
X139145916Y-58291335D01*
X139144838Y-58283150D01*
X139137411Y-58265219D01*
X139129821Y-58194630D01*
X139137411Y-58168780D01*
X139141678Y-58158480D01*
X139141679Y-58158477D01*
X139144838Y-58150850D01*
X139160500Y-58031885D01*
X139160499Y-57752116D01*
X139159476Y-57744340D01*
X139145916Y-57641337D01*
X139145916Y-57641335D01*
X139144838Y-57633150D01*
X139137411Y-57615219D01*
X139129821Y-57544630D01*
X139137411Y-57518780D01*
X139141678Y-57508480D01*
X139141679Y-57508477D01*
X139144838Y-57500850D01*
X139160500Y-57381885D01*
X139160499Y-57102116D01*
X139145958Y-56991653D01*
X139145916Y-56991337D01*
X139145916Y-56991335D01*
X139144838Y-56983150D01*
X139137411Y-56965219D01*
X139129821Y-56894630D01*
X139137411Y-56868780D01*
X139141678Y-56858480D01*
X139141679Y-56858477D01*
X139144838Y-56850850D01*
X139160500Y-56731885D01*
X139160499Y-56452116D01*
X139156351Y-56420601D01*
X139145916Y-56341337D01*
X139145916Y-56341335D01*
X139144838Y-56333150D01*
X139137411Y-56315219D01*
X139129821Y-56244630D01*
X139137411Y-56218780D01*
X139141678Y-56208480D01*
X139141679Y-56208477D01*
X139144838Y-56200850D01*
X139160500Y-56081885D01*
X139160499Y-55802116D01*
X139158526Y-55787123D01*
X139145916Y-55691337D01*
X139145916Y-55691335D01*
X139144838Y-55683150D01*
X139137411Y-55665219D01*
X139129821Y-55594630D01*
X139137411Y-55568780D01*
X139141678Y-55558480D01*
X139141679Y-55558477D01*
X139144838Y-55550850D01*
X139153755Y-55483122D01*
X139159962Y-55435972D01*
X139159962Y-55435971D01*
X139160500Y-55431885D01*
X139160499Y-55152116D01*
X139159804Y-55146831D01*
X139155735Y-55115927D01*
X139166675Y-55045778D01*
X139213804Y-54992680D01*
X139282158Y-54973491D01*
X139350035Y-54994303D01*
X139373851Y-55014682D01*
X139536309Y-55193221D01*
X139760164Y-55380392D01*
X139763805Y-55382676D01*
X140003709Y-55533168D01*
X140003713Y-55533170D01*
X140007349Y-55535451D01*
X140138415Y-55594630D01*
X140269379Y-55653763D01*
X140269383Y-55653765D01*
X140273291Y-55655529D01*
X140327863Y-55671694D01*
X140548956Y-55737185D01*
X140548960Y-55737186D01*
X140553069Y-55738403D01*
X140557303Y-55739051D01*
X140557308Y-55739052D01*
X140782828Y-55773561D01*
X140841506Y-55782540D01*
X140990086Y-55784874D01*
X141128973Y-55787056D01*
X141128979Y-55787056D01*
X141133264Y-55787123D01*
X141422945Y-55752068D01*
X141705188Y-55678023D01*
X141974770Y-55566358D01*
X141998532Y-55552473D01*
X142223006Y-55421301D01*
X142223007Y-55421301D01*
X142226704Y-55419140D01*
X142232538Y-55414566D01*
X142452955Y-55241736D01*
X142456327Y-55239092D01*
X142659391Y-55029547D01*
X142661924Y-55026099D01*
X142661928Y-55026094D01*
X142829599Y-54797837D01*
X142832137Y-54794382D01*
X142863333Y-54736926D01*
X142969319Y-54541725D01*
X142969320Y-54541723D01*
X142971369Y-54537949D01*
X143074511Y-54264991D01*
X143130648Y-54019886D01*
X143138697Y-53984742D01*
X143138698Y-53984737D01*
X143139654Y-53980562D01*
X143165593Y-53689923D01*
X143165625Y-53686921D01*
X143166037Y-53647485D01*
X143166037Y-53647484D01*
X143166063Y-53645000D01*
X143164241Y-53618265D01*
X143151802Y-53435813D01*
X143146217Y-53353882D01*
X143145350Y-53349696D01*
X143145349Y-53349688D01*
X143089317Y-53079125D01*
X143087044Y-53068150D01*
X142989641Y-52793093D01*
X142986956Y-52787889D01*
X142857775Y-52537606D01*
X142857775Y-52537605D01*
X142855810Y-52533799D01*
X142849226Y-52524430D01*
X142690494Y-52298578D01*
X142690493Y-52298577D01*
X142688027Y-52295068D01*
X142489397Y-52081316D01*
X142263595Y-51896500D01*
X142014799Y-51744037D01*
X141991331Y-51733735D01*
X141751546Y-51628477D01*
X141747614Y-51626751D01*
X141466984Y-51546812D01*
X141253162Y-51516381D01*
X141182353Y-51506303D01*
X141182351Y-51506303D01*
X141178101Y-51505698D01*
X141024318Y-51504893D01*
X140890596Y-51504192D01*
X140890589Y-51504192D01*
X140886310Y-51504170D01*
X140882066Y-51504729D01*
X140882062Y-51504729D01*
X140754496Y-51521524D01*
X140597013Y-51542257D01*
X140592873Y-51543390D01*
X140592871Y-51543390D01*
X140517375Y-51564043D01*
X140315560Y-51619253D01*
X140311612Y-51620937D01*
X140051114Y-51732049D01*
X140051110Y-51732051D01*
X140047162Y-51733735D01*
X139995532Y-51764635D01*
X139800465Y-51881379D01*
X139800461Y-51881382D01*
X139796783Y-51883583D01*
X139569058Y-52066025D01*
X139566101Y-52069141D01*
X139566100Y-52069142D01*
X139551569Y-52084455D01*
X139368201Y-52277685D01*
X139365701Y-52281164D01*
X139365697Y-52281169D01*
X139346578Y-52307776D01*
X139197927Y-52514647D01*
X139195925Y-52518429D01*
X139195922Y-52518433D01*
X139079964Y-52737438D01*
X139061387Y-52772524D01*
X138961110Y-53046547D01*
X138898949Y-53331643D01*
X138896218Y-53366349D01*
X138876601Y-53615602D01*
X138876599Y-53615602D01*
X138876600Y-53615609D01*
X138876055Y-53622537D01*
X138892851Y-53913848D01*
X138949028Y-54200183D01*
X138950415Y-54204234D01*
X138950416Y-54204238D01*
X139042156Y-54472190D01*
X139042160Y-54472199D01*
X139043545Y-54476245D01*
X139045473Y-54480079D01*
X139045475Y-54480083D01*
X139063305Y-54515535D01*
X139076043Y-54585379D01*
X139048999Y-54651023D01*
X138990758Y-54691624D01*
X138919811Y-54694293D01*
X138874038Y-54672111D01*
X138858875Y-54660476D01*
X138710850Y-54599162D01*
X138702662Y-54598084D01*
X138595972Y-54584038D01*
X138595971Y-54584038D01*
X138591885Y-54583500D01*
X137914583Y-54583500D01*
X137237116Y-54583501D01*
X137233031Y-54584039D01*
X137233027Y-54584039D01*
X137126337Y-54598084D01*
X137126335Y-54598084D01*
X137118150Y-54599162D01*
X137055028Y-54625308D01*
X136977752Y-54657316D01*
X136977750Y-54657317D01*
X136970124Y-54660476D01*
X136963574Y-54665502D01*
X136870356Y-54737032D01*
X136843013Y-54758013D01*
X136837987Y-54764563D01*
X136837984Y-54764566D01*
X136806056Y-54806176D01*
X136745476Y-54885125D01*
X136684162Y-55033150D01*
X136683084Y-55041338D01*
X136670040Y-55140421D01*
X136668500Y-55152115D01*
X136668501Y-55431884D01*
X136669039Y-55435969D01*
X136669039Y-55435973D01*
X136679620Y-55516351D01*
X136684162Y-55550850D01*
X136689690Y-55564195D01*
X136691589Y-55568780D01*
X136699179Y-55639370D01*
X136691589Y-55665220D01*
X136687322Y-55675520D01*
X136687321Y-55675523D01*
X136684162Y-55683150D01*
X136683084Y-55691337D01*
X136683084Y-55691338D01*
X136670483Y-55787056D01*
X136668500Y-55802115D01*
X136668501Y-56081884D01*
X136684162Y-56200850D01*
X136691589Y-56218780D01*
X136699179Y-56289370D01*
X136691586Y-56315227D01*
X136688475Y-56322736D01*
X136643923Y-56378013D01*
X136576558Y-56400429D01*
X136557151Y-56399623D01*
X136527455Y-56396082D01*
X136454680Y-56387404D01*
X136447677Y-56388140D01*
X136447676Y-56388140D01*
X136280671Y-56405693D01*
X136210832Y-56392921D01*
X136158985Y-56344419D01*
X136141500Y-56280383D01*
X136141500Y-50652221D01*
X136161502Y-50584100D01*
X136215158Y-50537607D01*
X136285432Y-50527503D01*
X136292608Y-50528748D01*
X136414597Y-50553567D01*
X136419772Y-50553757D01*
X136419774Y-50553757D01*
X136632673Y-50561564D01*
X136632677Y-50561564D01*
X136637837Y-50561753D01*
X136642957Y-50561097D01*
X136642959Y-50561097D01*
X136854288Y-50534025D01*
X136854289Y-50534025D01*
X136859416Y-50533368D01*
X136864366Y-50531883D01*
X137068429Y-50470661D01*
X137068434Y-50470659D01*
X137073384Y-50469174D01*
X137273994Y-50370896D01*
X137455860Y-50241173D01*
X137614096Y-50083489D01*
X137673594Y-50000689D01*
X137744453Y-49902077D01*
X137745776Y-49903028D01*
X137792645Y-49859857D01*
X137862580Y-49847625D01*
X137928026Y-49875144D01*
X137955875Y-49906994D01*
X138015987Y-50005088D01*
X138162250Y-50173938D01*
X138334126Y-50316632D01*
X138527000Y-50429338D01*
X138735692Y-50509030D01*
X138740760Y-50510061D01*
X138740763Y-50510062D01*
X138800891Y-50522295D01*
X138954597Y-50553567D01*
X138959772Y-50553757D01*
X138959774Y-50553757D01*
X139172673Y-50561564D01*
X139172677Y-50561564D01*
X139177837Y-50561753D01*
X139182957Y-50561097D01*
X139182959Y-50561097D01*
X139394288Y-50534025D01*
X139394289Y-50534025D01*
X139399416Y-50533368D01*
X139404366Y-50531883D01*
X139608429Y-50470661D01*
X139608434Y-50470659D01*
X139613384Y-50469174D01*
X139813994Y-50370896D01*
X139995860Y-50241173D01*
X140154096Y-50083489D01*
X140213594Y-50000689D01*
X140284453Y-49902077D01*
X140285776Y-49903028D01*
X140332645Y-49859857D01*
X140402580Y-49847625D01*
X140468026Y-49875144D01*
X140495875Y-49906994D01*
X140555987Y-50005088D01*
X140702250Y-50173938D01*
X140874126Y-50316632D01*
X141067000Y-50429338D01*
X141275692Y-50509030D01*
X141280760Y-50510061D01*
X141280763Y-50510062D01*
X141340891Y-50522295D01*
X141494597Y-50553567D01*
X141499772Y-50553757D01*
X141499774Y-50553757D01*
X141712673Y-50561564D01*
X141712677Y-50561564D01*
X141717837Y-50561753D01*
X141722957Y-50561097D01*
X141722959Y-50561097D01*
X141934288Y-50534025D01*
X141934289Y-50534025D01*
X141939416Y-50533368D01*
X141944366Y-50531883D01*
X142148429Y-50470661D01*
X142148434Y-50470659D01*
X142153384Y-50469174D01*
X142353994Y-50370896D01*
X142535860Y-50241173D01*
X142694096Y-50083489D01*
X142753594Y-50000689D01*
X142821435Y-49906277D01*
X142824453Y-49902077D01*
X142829979Y-49890897D01*
X142921136Y-49706453D01*
X142921137Y-49706451D01*
X142923430Y-49701811D01*
X142988370Y-49488069D01*
X143017529Y-49266590D01*
X143019156Y-49200000D01*
X143000852Y-48977361D01*
X142946431Y-48760702D01*
X142857354Y-48555840D01*
X142776769Y-48431274D01*
X142738822Y-48372617D01*
X142738820Y-48372614D01*
X142736014Y-48368277D01*
X142585670Y-48203051D01*
X142581619Y-48199852D01*
X142581615Y-48199848D01*
X142414414Y-48067800D01*
X142414410Y-48067798D01*
X142410359Y-48064598D01*
X142214789Y-47956638D01*
X142209920Y-47954914D01*
X142209916Y-47954912D01*
X142009087Y-47883795D01*
X142009083Y-47883794D01*
X142004212Y-47882069D01*
X141999119Y-47881162D01*
X141999116Y-47881161D01*
X141789373Y-47843800D01*
X141789367Y-47843799D01*
X141784284Y-47842894D01*
X141710452Y-47841992D01*
X141566081Y-47840228D01*
X141566079Y-47840228D01*
X141560911Y-47840165D01*
X141340091Y-47873955D01*
X141127756Y-47943357D01*
X140929607Y-48046507D01*
X140925474Y-48049610D01*
X140925471Y-48049612D01*
X140755100Y-48177530D01*
X140750965Y-48180635D01*
X140747393Y-48184373D01*
X140606888Y-48331403D01*
X140596629Y-48342138D01*
X140489201Y-48499621D01*
X140434293Y-48544621D01*
X140363768Y-48552792D01*
X140300021Y-48521538D01*
X140279324Y-48497054D01*
X140198822Y-48372617D01*
X140198820Y-48372614D01*
X140196014Y-48368277D01*
X140045670Y-48203051D01*
X140041619Y-48199852D01*
X140041615Y-48199848D01*
X139874414Y-48067800D01*
X139874410Y-48067798D01*
X139870359Y-48064598D01*
X139674789Y-47956638D01*
X139669920Y-47954914D01*
X139669916Y-47954912D01*
X139469087Y-47883795D01*
X139469083Y-47883794D01*
X139464212Y-47882069D01*
X139459119Y-47881162D01*
X139459116Y-47881161D01*
X139249373Y-47843800D01*
X139249367Y-47843799D01*
X139244284Y-47842894D01*
X139170452Y-47841992D01*
X139026081Y-47840228D01*
X139026079Y-47840228D01*
X139020911Y-47840165D01*
X138800091Y-47873955D01*
X138587756Y-47943357D01*
X138389607Y-48046507D01*
X138385474Y-48049610D01*
X138385471Y-48049612D01*
X138215100Y-48177530D01*
X138210965Y-48180635D01*
X138207393Y-48184373D01*
X138066888Y-48331403D01*
X138056629Y-48342138D01*
X137949201Y-48499621D01*
X137894293Y-48544621D01*
X137823768Y-48552792D01*
X137760021Y-48521538D01*
X137739324Y-48497054D01*
X137658822Y-48372617D01*
X137658820Y-48372614D01*
X137656014Y-48368277D01*
X137505670Y-48203051D01*
X137501619Y-48199852D01*
X137501615Y-48199848D01*
X137334414Y-48067800D01*
X137334410Y-48067798D01*
X137330359Y-48064598D01*
X137134789Y-47956638D01*
X137129920Y-47954914D01*
X137129916Y-47954912D01*
X136929087Y-47883795D01*
X136929083Y-47883794D01*
X136924212Y-47882069D01*
X136919119Y-47881162D01*
X136919116Y-47881161D01*
X136709373Y-47843800D01*
X136709367Y-47843799D01*
X136704284Y-47842894D01*
X136630452Y-47841992D01*
X136486081Y-47840228D01*
X136486079Y-47840228D01*
X136480911Y-47840165D01*
X136260091Y-47873955D01*
X136047756Y-47943357D01*
X135849607Y-48046507D01*
X135845474Y-48049610D01*
X135845471Y-48049612D01*
X135675100Y-48177530D01*
X135670965Y-48180635D01*
X135667393Y-48184373D01*
X135526888Y-48331403D01*
X135516629Y-48342138D01*
X135409201Y-48499621D01*
X135354293Y-48544621D01*
X135283768Y-48552792D01*
X135220021Y-48521538D01*
X135199324Y-48497054D01*
X135118822Y-48372617D01*
X135118820Y-48372614D01*
X135116014Y-48368277D01*
X134965670Y-48203051D01*
X134961619Y-48199852D01*
X134961615Y-48199848D01*
X134794414Y-48067800D01*
X134794410Y-48067798D01*
X134790359Y-48064598D01*
X134594789Y-47956638D01*
X134589920Y-47954914D01*
X134589916Y-47954912D01*
X134389087Y-47883795D01*
X134389083Y-47883794D01*
X134384212Y-47882069D01*
X134379119Y-47881162D01*
X134379116Y-47881161D01*
X134169373Y-47843800D01*
X134169367Y-47843799D01*
X134164284Y-47842894D01*
X134090452Y-47841992D01*
X133946081Y-47840228D01*
X133946079Y-47840228D01*
X133940911Y-47840165D01*
X133720091Y-47873955D01*
X133507756Y-47943357D01*
X133309607Y-48046507D01*
X133305474Y-48049610D01*
X133305471Y-48049612D01*
X133135100Y-48177530D01*
X133130965Y-48180635D01*
X133127393Y-48184373D01*
X132986888Y-48331403D01*
X132976629Y-48342138D01*
X132869201Y-48499621D01*
X132814293Y-48544621D01*
X132743768Y-48552792D01*
X132680021Y-48521538D01*
X132659324Y-48497054D01*
X132578822Y-48372617D01*
X132578820Y-48372614D01*
X132576014Y-48368277D01*
X132425670Y-48203051D01*
X132421619Y-48199852D01*
X132421615Y-48199848D01*
X132254414Y-48067800D01*
X132254410Y-48067798D01*
X132250359Y-48064598D01*
X132054789Y-47956638D01*
X132049920Y-47954914D01*
X132049916Y-47954912D01*
X131849087Y-47883795D01*
X131849083Y-47883794D01*
X131844212Y-47882069D01*
X131839119Y-47881162D01*
X131839116Y-47881161D01*
X131629373Y-47843800D01*
X131629367Y-47843799D01*
X131624284Y-47842894D01*
X131550452Y-47841992D01*
X131406081Y-47840228D01*
X131406079Y-47840228D01*
X131400911Y-47840165D01*
X131180091Y-47873955D01*
X130967756Y-47943357D01*
X130769607Y-48046507D01*
X130765474Y-48049610D01*
X130765471Y-48049612D01*
X130595100Y-48177530D01*
X130590965Y-48180635D01*
X130587393Y-48184373D01*
X130446888Y-48331403D01*
X130436629Y-48342138D01*
X130329201Y-48499621D01*
X130274293Y-48544621D01*
X130203768Y-48552792D01*
X130140021Y-48521538D01*
X130119324Y-48497054D01*
X130038822Y-48372617D01*
X130038820Y-48372614D01*
X130036014Y-48368277D01*
X129885670Y-48203051D01*
X129881619Y-48199852D01*
X129881615Y-48199848D01*
X129714414Y-48067800D01*
X129714410Y-48067798D01*
X129710359Y-48064598D01*
X129514789Y-47956638D01*
X129509920Y-47954914D01*
X129509916Y-47954912D01*
X129309087Y-47883795D01*
X129309083Y-47883794D01*
X129304212Y-47882069D01*
X129299119Y-47881162D01*
X129299116Y-47881161D01*
X129089373Y-47843800D01*
X129089367Y-47843799D01*
X129084284Y-47842894D01*
X129010452Y-47841992D01*
X128866081Y-47840228D01*
X128866079Y-47840228D01*
X128860911Y-47840165D01*
X128640091Y-47873955D01*
X128427756Y-47943357D01*
X128229607Y-48046507D01*
X128225474Y-48049610D01*
X128225471Y-48049612D01*
X128055100Y-48177530D01*
X128050965Y-48180635D01*
X128047393Y-48184373D01*
X127906888Y-48331403D01*
X127896629Y-48342138D01*
X127770743Y-48526680D01*
X127676688Y-48729305D01*
X127616989Y-48944570D01*
X127593251Y-49166695D01*
X127593548Y-49171848D01*
X127593548Y-49171851D01*
X127599011Y-49266590D01*
X127606110Y-49389715D01*
X127607247Y-49394761D01*
X127607248Y-49394767D01*
X127627119Y-49482939D01*
X127655222Y-49607639D01*
X127739266Y-49814616D01*
X127786011Y-49890897D01*
X127853291Y-50000688D01*
X127855987Y-50005088D01*
X128002250Y-50173938D01*
X128174126Y-50316632D01*
X128367000Y-50429338D01*
X128575692Y-50509030D01*
X128580760Y-50510061D01*
X128580763Y-50510062D01*
X128640891Y-50522295D01*
X128794597Y-50553567D01*
X128799772Y-50553757D01*
X128799774Y-50553757D01*
X129012673Y-50561564D01*
X129012677Y-50561564D01*
X129017837Y-50561753D01*
X129022957Y-50561097D01*
X129022959Y-50561097D01*
X129220589Y-50535780D01*
X129290699Y-50546965D01*
X129325694Y-50571664D01*
X133290595Y-54536565D01*
X133324621Y-54598877D01*
X133327500Y-54625660D01*
X133327500Y-54865710D01*
X133311341Y-54920598D01*
X133314183Y-54922009D01*
X133311053Y-54928313D01*
X133307235Y-54934238D01*
X133304826Y-54940858D01*
X133304824Y-54940861D01*
X133247606Y-55098066D01*
X133245197Y-55104685D01*
X133242896Y-55122902D01*
X133242846Y-55123295D01*
X133214463Y-55188371D01*
X133155402Y-55227771D01*
X133117840Y-55233500D01*
X132146497Y-55233500D01*
X132146494Y-55233501D01*
X131512116Y-55233501D01*
X131508031Y-55234039D01*
X131508027Y-55234039D01*
X131401337Y-55248084D01*
X131401335Y-55248084D01*
X131393150Y-55249162D01*
X131345013Y-55269101D01*
X131252752Y-55307316D01*
X131252750Y-55307317D01*
X131245124Y-55310476D01*
X131238574Y-55315502D01*
X131133476Y-55396148D01*
X131118013Y-55408013D01*
X131112987Y-55414563D01*
X131112984Y-55414566D01*
X131091651Y-55442368D01*
X131020476Y-55535125D01*
X130959162Y-55683150D01*
X130958084Y-55691337D01*
X130958084Y-55691338D01*
X130945483Y-55787056D01*
X130943500Y-55802115D01*
X130943501Y-56081884D01*
X130959162Y-56200850D01*
X130966589Y-56218780D01*
X130974179Y-56289370D01*
X130966589Y-56315220D01*
X130962322Y-56325520D01*
X130962321Y-56325523D01*
X130959162Y-56333150D01*
X130958084Y-56341337D01*
X130958084Y-56341338D01*
X130948444Y-56414565D01*
X130943500Y-56452115D01*
X130943501Y-56731884D01*
X130944039Y-56735969D01*
X130944039Y-56735973D01*
X130951425Y-56792076D01*
X130959162Y-56850850D01*
X130966589Y-56868780D01*
X130974179Y-56939370D01*
X130966589Y-56965220D01*
X130962322Y-56975520D01*
X130962321Y-56975523D01*
X130959162Y-56983150D01*
X130943500Y-57102115D01*
X130943501Y-57381884D01*
X130944040Y-57385978D01*
X130944623Y-57390410D01*
X130933682Y-57460558D01*
X130886553Y-57513656D01*
X130818199Y-57532844D01*
X130750321Y-57512031D01*
X130713696Y-57473564D01*
X130713315Y-57472695D01*
X130674413Y-57421998D01*
X130670541Y-57416668D01*
X130638661Y-57370280D01*
X130638656Y-57370275D01*
X130634357Y-57364019D01*
X130587829Y-57322564D01*
X130582554Y-57317584D01*
X129858450Y-56593480D01*
X129852596Y-56587215D01*
X129840975Y-56573894D01*
X129814561Y-56543615D01*
X129762280Y-56506871D01*
X129756986Y-56502939D01*
X129712693Y-56468209D01*
X129706718Y-56463524D01*
X129699802Y-56460401D01*
X129697516Y-56459017D01*
X129682835Y-56450643D01*
X129680475Y-56449378D01*
X129674261Y-56445010D01*
X129667182Y-56442250D01*
X129667180Y-56442249D01*
X129614725Y-56421798D01*
X129608656Y-56419247D01*
X129550427Y-56392955D01*
X129542960Y-56391571D01*
X129540405Y-56390770D01*
X129524152Y-56386141D01*
X129521572Y-56385478D01*
X129514491Y-56382718D01*
X129506960Y-56381727D01*
X129506958Y-56381726D01*
X129477339Y-56377827D01*
X129451139Y-56374378D01*
X129444641Y-56373348D01*
X129381814Y-56361704D01*
X129374234Y-56362141D01*
X129374233Y-56362141D01*
X129319608Y-56365291D01*
X129312354Y-56365500D01*
X128938660Y-56365500D01*
X128870539Y-56345498D01*
X128824046Y-56291842D01*
X128813942Y-56221568D01*
X128843436Y-56156988D01*
X128849565Y-56150405D01*
X129182520Y-55817450D01*
X129188785Y-55811596D01*
X129204339Y-55798027D01*
X129232385Y-55773561D01*
X129269114Y-55721300D01*
X129273046Y-55716005D01*
X129312477Y-55665718D01*
X129315602Y-55658796D01*
X129316964Y-55656548D01*
X129325368Y-55641815D01*
X129326622Y-55639476D01*
X129330990Y-55633261D01*
X129333749Y-55626185D01*
X129333751Y-55626181D01*
X129354202Y-55573726D01*
X129356758Y-55567646D01*
X129363609Y-55552473D01*
X129383045Y-55509426D01*
X129384429Y-55501955D01*
X129385230Y-55499401D01*
X129389867Y-55483122D01*
X129390523Y-55480567D01*
X129393282Y-55473491D01*
X129398751Y-55431949D01*
X129415220Y-55384255D01*
X129417712Y-55380042D01*
X129461145Y-55306601D01*
X129507562Y-55146831D01*
X129509091Y-55127411D01*
X129510307Y-55111958D01*
X129510307Y-55111950D01*
X129510500Y-55109502D01*
X129510500Y-53326498D01*
X129507562Y-53289169D01*
X129461145Y-53129399D01*
X129428928Y-53074923D01*
X129380491Y-52993020D01*
X129380489Y-52993017D01*
X129376453Y-52986193D01*
X129258807Y-52868547D01*
X129251983Y-52864511D01*
X129251980Y-52864509D01*
X129139987Y-52798277D01*
X129115601Y-52783855D01*
X129107990Y-52781644D01*
X129107988Y-52781643D01*
X129055769Y-52766472D01*
X128955831Y-52737438D01*
X128949426Y-52736934D01*
X128949421Y-52736933D01*
X128920958Y-52734693D01*
X128920950Y-52734693D01*
X128918502Y-52734500D01*
X128485498Y-52734500D01*
X128483050Y-52734693D01*
X128483042Y-52734693D01*
X128454579Y-52736933D01*
X128454574Y-52736934D01*
X128448169Y-52737438D01*
X128348231Y-52766472D01*
X128296012Y-52781643D01*
X128296010Y-52781644D01*
X128288399Y-52783855D01*
X128157456Y-52861294D01*
X128088642Y-52878753D01*
X128021310Y-52856236D01*
X127989478Y-52824206D01*
X127971658Y-52798277D01*
X127967357Y-52792019D01*
X127955712Y-52781643D01*
X127920830Y-52750565D01*
X127915554Y-52745584D01*
X126683450Y-51513480D01*
X126677596Y-51507215D01*
X126674940Y-51504170D01*
X126639561Y-51463615D01*
X126587280Y-51426871D01*
X126581986Y-51422939D01*
X126537693Y-51388209D01*
X126531718Y-51383524D01*
X126524802Y-51380401D01*
X126522516Y-51379017D01*
X126507835Y-51370643D01*
X126505475Y-51369378D01*
X126499261Y-51365010D01*
X126492182Y-51362250D01*
X126492180Y-51362249D01*
X126439725Y-51341798D01*
X126433656Y-51339247D01*
X126375427Y-51312955D01*
X126367960Y-51311571D01*
X126365405Y-51310770D01*
X126349152Y-51306141D01*
X126346572Y-51305478D01*
X126339491Y-51302718D01*
X126331960Y-51301727D01*
X126331958Y-51301726D01*
X126302339Y-51297827D01*
X126276139Y-51294378D01*
X126269641Y-51293348D01*
X126206814Y-51281704D01*
X126199234Y-51282141D01*
X126199233Y-51282141D01*
X126144608Y-51285291D01*
X126137354Y-51285500D01*
X120094911Y-51285500D01*
X120086342Y-51285208D01*
X120036223Y-51281791D01*
X120036219Y-51281791D01*
X120028647Y-51281275D01*
X119965685Y-51292264D01*
X119959195Y-51293221D01*
X119895758Y-51300898D01*
X119888649Y-51303584D01*
X119886078Y-51304216D01*
X119869772Y-51308676D01*
X119867204Y-51309451D01*
X119859716Y-51310758D01*
X119824722Y-51326119D01*
X119801212Y-51336439D01*
X119795105Y-51338931D01*
X119787518Y-51341798D01*
X119735344Y-51361513D01*
X119729083Y-51365816D01*
X119726717Y-51367053D01*
X119711937Y-51375280D01*
X119709652Y-51376631D01*
X119702695Y-51379685D01*
X119696675Y-51384305D01*
X119696669Y-51384308D01*
X119665542Y-51408194D01*
X119651998Y-51418587D01*
X119646668Y-51422459D01*
X119600280Y-51454339D01*
X119600275Y-51454344D01*
X119594019Y-51458643D01*
X119588968Y-51464313D01*
X119588966Y-51464314D01*
X119552565Y-51505170D01*
X119547584Y-51510446D01*
X116029480Y-55028550D01*
X116023215Y-55034404D01*
X115979615Y-55072439D01*
X115961604Y-55098066D01*
X115942872Y-55124719D01*
X115938939Y-55130014D01*
X115899524Y-55180282D01*
X115896401Y-55187198D01*
X115895017Y-55189484D01*
X115886643Y-55204165D01*
X115885378Y-55206525D01*
X115881010Y-55212739D01*
X115878250Y-55219818D01*
X115878249Y-55219820D01*
X115857798Y-55272275D01*
X115855247Y-55278344D01*
X115828955Y-55336573D01*
X115827571Y-55344040D01*
X115826770Y-55346595D01*
X115822141Y-55362848D01*
X115821478Y-55365428D01*
X115818718Y-55372509D01*
X115817727Y-55380040D01*
X115817726Y-55380042D01*
X115816535Y-55389092D01*
X115812295Y-55421301D01*
X115810379Y-55435852D01*
X115809348Y-55442359D01*
X115797704Y-55505186D01*
X115798141Y-55512766D01*
X115798141Y-55512767D01*
X115801291Y-55567392D01*
X115801500Y-55574646D01*
X115801500Y-58061088D01*
X115801208Y-58069658D01*
X115797960Y-58117308D01*
X115797275Y-58127352D01*
X115804973Y-58171457D01*
X115808261Y-58190299D01*
X115809223Y-58196821D01*
X115816898Y-58260242D01*
X115819581Y-58267343D01*
X115820222Y-58269952D01*
X115824685Y-58286262D01*
X115825450Y-58288798D01*
X115826757Y-58296284D01*
X115829811Y-58303241D01*
X115852442Y-58354795D01*
X115854933Y-58360899D01*
X115877513Y-58420656D01*
X115881817Y-58426919D01*
X115883054Y-58429285D01*
X115891299Y-58444097D01*
X115892632Y-58446351D01*
X115895685Y-58453305D01*
X115900307Y-58459328D01*
X115934579Y-58503991D01*
X115938459Y-58509332D01*
X115970339Y-58555720D01*
X115970344Y-58555725D01*
X115974643Y-58561981D01*
X115980313Y-58567032D01*
X115980314Y-58567034D01*
X116021170Y-58603435D01*
X116026446Y-58608416D01*
X116484595Y-59066565D01*
X116518621Y-59128877D01*
X116521500Y-59155660D01*
X116521500Y-59351871D01*
X116501498Y-59419992D01*
X116447842Y-59466485D01*
X116377568Y-59476589D01*
X116353233Y-59470570D01*
X116321424Y-59459243D01*
X116321422Y-59459243D01*
X116314790Y-59456881D01*
X116307802Y-59456048D01*
X116307799Y-59456047D01*
X116184698Y-59441368D01*
X116134680Y-59435404D01*
X116127677Y-59436140D01*
X116127676Y-59436140D01*
X115961288Y-59453628D01*
X115961286Y-59453629D01*
X115954288Y-59454364D01*
X115782579Y-59512818D01*
X115737635Y-59540468D01*
X115634095Y-59604166D01*
X115634092Y-59604168D01*
X115628088Y-59607862D01*
X115623053Y-59612793D01*
X115623050Y-59612795D01*
X115503951Y-59729426D01*
X115498493Y-59734771D01*
X115400235Y-59887238D01*
X115397826Y-59893858D01*
X115397824Y-59893861D01*
X115359111Y-60000225D01*
X115329805Y-60046225D01*
X115237435Y-60138595D01*
X115175123Y-60172621D01*
X115148340Y-60175500D01*
X112347927Y-60175500D01*
X112339358Y-60175208D01*
X112289225Y-60171790D01*
X112289221Y-60171790D01*
X112281648Y-60171274D01*
X112218681Y-60182264D01*
X112212169Y-60183224D01*
X112148758Y-60190898D01*
X112141657Y-60193581D01*
X112139048Y-60194222D01*
X112122728Y-60198687D01*
X112120195Y-60199452D01*
X112112717Y-60200757D01*
X112054190Y-60226448D01*
X112048108Y-60228930D01*
X112027753Y-60236622D01*
X111995449Y-60248828D01*
X111995447Y-60248829D01*
X111988344Y-60251513D01*
X111982085Y-60255814D01*
X111979720Y-60257051D01*
X111964948Y-60265273D01*
X111962656Y-60266628D01*
X111955695Y-60269684D01*
X111949668Y-60274309D01*
X111949664Y-60274311D01*
X111904987Y-60308593D01*
X111899662Y-60312462D01*
X111899510Y-60312567D01*
X111856340Y-60342237D01*
X111847019Y-60348643D01*
X111841967Y-60354313D01*
X111841966Y-60354314D01*
X111805573Y-60395161D01*
X111800592Y-60400437D01*
X109934821Y-62266209D01*
X109105095Y-63095935D01*
X109042783Y-63129961D01*
X108971968Y-63124896D01*
X108915132Y-63082349D01*
X108890321Y-63015829D01*
X108890000Y-63006840D01*
X108890000Y-57789733D01*
X111447822Y-57789733D01*
X111447975Y-57794121D01*
X111447975Y-57794127D01*
X111457448Y-58065375D01*
X111457625Y-58070458D01*
X111458387Y-58074781D01*
X111458388Y-58074788D01*
X111482164Y-58209624D01*
X111506402Y-58347087D01*
X111593203Y-58614235D01*
X111595131Y-58618188D01*
X111595133Y-58618193D01*
X111626198Y-58681884D01*
X111716340Y-58866702D01*
X111718795Y-58870341D01*
X111718798Y-58870347D01*
X111761217Y-58933235D01*
X111873415Y-59099576D01*
X112061371Y-59308322D01*
X112276550Y-59488879D01*
X112514764Y-59637731D01*
X112692041Y-59716660D01*
X112760471Y-59747127D01*
X112771375Y-59751982D01*
X113041390Y-59829407D01*
X113045740Y-59830018D01*
X113045743Y-59830019D01*
X113146648Y-59844200D01*
X113319552Y-59868500D01*
X113530146Y-59868500D01*
X113532332Y-59868347D01*
X113532336Y-59868347D01*
X113735827Y-59854118D01*
X113735832Y-59854117D01*
X113740212Y-59853811D01*
X114014970Y-59795409D01*
X114019099Y-59793906D01*
X114019103Y-59793905D01*
X114274781Y-59700846D01*
X114274785Y-59700844D01*
X114278926Y-59699337D01*
X114526942Y-59567464D01*
X114548374Y-59551893D01*
X114750629Y-59404947D01*
X114750632Y-59404944D01*
X114754192Y-59402358D01*
X114777024Y-59380310D01*
X114953087Y-59210287D01*
X114956252Y-59207231D01*
X115129188Y-58985882D01*
X115131384Y-58982078D01*
X115131389Y-58982071D01*
X115267435Y-58746431D01*
X115269636Y-58742619D01*
X115374862Y-58482176D01*
X115380559Y-58459328D01*
X115441753Y-58213893D01*
X115441754Y-58213888D01*
X115442817Y-58209624D01*
X115444163Y-58196825D01*
X115471719Y-57934636D01*
X115471719Y-57934633D01*
X115472178Y-57930267D01*
X115469747Y-57860640D01*
X115462529Y-57653939D01*
X115462528Y-57653933D01*
X115462375Y-57649542D01*
X115460929Y-57641337D01*
X115416683Y-57390410D01*
X115413598Y-57372913D01*
X115326797Y-57105765D01*
X115323024Y-57098028D01*
X115245640Y-56939370D01*
X115203660Y-56853298D01*
X115201205Y-56849659D01*
X115201202Y-56849653D01*
X115062012Y-56643296D01*
X115046585Y-56620424D01*
X115022325Y-56593480D01*
X114861566Y-56414940D01*
X114858629Y-56411678D01*
X114844263Y-56399623D01*
X114646820Y-56233949D01*
X114643450Y-56231121D01*
X114405236Y-56082269D01*
X114148625Y-55968018D01*
X113878610Y-55890593D01*
X113874260Y-55889982D01*
X113874257Y-55889981D01*
X113771310Y-55875513D01*
X113600448Y-55851500D01*
X113389854Y-55851500D01*
X113387668Y-55851653D01*
X113387664Y-55851653D01*
X113184173Y-55865882D01*
X113184168Y-55865883D01*
X113179788Y-55866189D01*
X112905030Y-55924591D01*
X112900901Y-55926094D01*
X112900897Y-55926095D01*
X112645219Y-56019154D01*
X112645215Y-56019156D01*
X112641074Y-56020663D01*
X112393058Y-56152536D01*
X112389499Y-56155122D01*
X112389497Y-56155123D01*
X112201319Y-56291842D01*
X112165808Y-56317642D01*
X112162644Y-56320698D01*
X112162641Y-56320700D01*
X112074628Y-56405693D01*
X111963748Y-56512769D01*
X111864572Y-56639709D01*
X111795779Y-56727761D01*
X111790812Y-56734118D01*
X111788616Y-56737922D01*
X111788611Y-56737929D01*
X111713065Y-56868780D01*
X111650364Y-56977381D01*
X111545138Y-57237824D01*
X111544073Y-57242097D01*
X111544072Y-57242099D01*
X111478438Y-57505344D01*
X111477183Y-57510376D01*
X111476724Y-57514744D01*
X111476723Y-57514749D01*
X111451342Y-57756239D01*
X111447822Y-57789733D01*
X108890000Y-57789733D01*
X108890000Y-47421000D01*
X108910002Y-47352879D01*
X108963658Y-47306386D01*
X109016000Y-47295000D01*
X113885152Y-47295000D01*
X113953273Y-47315002D01*
G37*
G04 #@! TD.AperFunction*
G04 #@! TA.AperFunction,Conductor*
G36*
X164898012Y-73204858D02*
G01*
X164904595Y-73210987D01*
X166864592Y-75170984D01*
X166898618Y-75233296D01*
X166901497Y-75260079D01*
X166901497Y-79265298D01*
X166881495Y-79333419D01*
X166827839Y-79379912D01*
X166757565Y-79390016D01*
X166711858Y-79371930D01*
X166711019Y-79373383D01*
X166706256Y-79370633D01*
X166701749Y-79367477D01*
X166696767Y-79365154D01*
X166696762Y-79365151D01*
X166499225Y-79273039D01*
X166499224Y-79273039D01*
X166494243Y-79270716D01*
X166488935Y-79269294D01*
X166488933Y-79269293D01*
X166278402Y-79212881D01*
X166278400Y-79212881D01*
X166273087Y-79211457D01*
X166173520Y-79202746D01*
X166104851Y-79196738D01*
X166104844Y-79196738D01*
X166102127Y-79196500D01*
X165587873Y-79196500D01*
X165585156Y-79196738D01*
X165585149Y-79196738D01*
X165516480Y-79202746D01*
X165416913Y-79211457D01*
X165411600Y-79212881D01*
X165411598Y-79212881D01*
X165201067Y-79269293D01*
X165201065Y-79269294D01*
X165195757Y-79270716D01*
X165190776Y-79273039D01*
X165190775Y-79273039D01*
X164993238Y-79365151D01*
X164993233Y-79365154D01*
X164988251Y-79367477D01*
X164953990Y-79391467D01*
X164887771Y-79437834D01*
X164820497Y-79460522D01*
X164751636Y-79443237D01*
X164703052Y-79391467D01*
X164689500Y-79334621D01*
X164689500Y-73300082D01*
X164709502Y-73231961D01*
X164763158Y-73185468D01*
X164833432Y-73175364D01*
X164898012Y-73204858D01*
G37*
G04 #@! TD.AperFunction*
G04 #@! TA.AperFunction,Conductor*
G36*
X164028390Y-65207342D02*
G01*
X164086858Y-65247616D01*
X164104940Y-65277604D01*
X164156923Y-65399476D01*
X164206351Y-65482064D01*
X164281206Y-65607137D01*
X164304561Y-65646161D01*
X164484313Y-65870528D01*
X164592876Y-65973550D01*
X164675521Y-66051977D01*
X164692851Y-66068423D01*
X164926317Y-66236186D01*
X164930112Y-66238195D01*
X164930113Y-66238196D01*
X164951869Y-66249715D01*
X165180392Y-66370712D01*
X165265251Y-66401766D01*
X165426687Y-66460843D01*
X165450373Y-66469511D01*
X165731264Y-66530755D01*
X165759841Y-66533004D01*
X165954282Y-66548307D01*
X165954291Y-66548307D01*
X165956739Y-66548500D01*
X166112271Y-66548500D01*
X166114407Y-66548354D01*
X166114418Y-66548354D01*
X166322548Y-66534165D01*
X166322554Y-66534164D01*
X166326825Y-66533873D01*
X166331020Y-66533004D01*
X166331022Y-66533004D01*
X166479745Y-66502205D01*
X166608342Y-66475574D01*
X166879343Y-66379607D01*
X167134812Y-66247750D01*
X167138313Y-66245289D01*
X167138317Y-66245287D01*
X167320974Y-66116913D01*
X167370023Y-66082441D01*
X167484709Y-65975868D01*
X167577479Y-65889661D01*
X167577481Y-65889658D01*
X167580622Y-65886740D01*
X167762713Y-65664268D01*
X167838067Y-65541302D01*
X167890715Y-65493671D01*
X167960757Y-65482064D01*
X168025954Y-65510167D01*
X168065608Y-65569058D01*
X168071500Y-65607137D01*
X168071500Y-73786919D01*
X168051498Y-73855040D01*
X167997842Y-73901533D01*
X167927568Y-73911637D01*
X167862988Y-73882143D01*
X167856405Y-73876014D01*
X164792755Y-70812363D01*
X161538234Y-67557842D01*
X161537306Y-67556905D01*
X161479157Y-67497525D01*
X161479156Y-67497524D01*
X161474229Y-67492493D01*
X161437779Y-67469002D01*
X161427454Y-67461583D01*
X161393557Y-67434524D01*
X161363362Y-67419927D01*
X161349945Y-67412398D01*
X161321762Y-67394235D01*
X161315145Y-67391827D01*
X161315140Y-67391824D01*
X161281027Y-67379408D01*
X161269284Y-67374447D01*
X161236597Y-67358646D01*
X161236592Y-67358644D01*
X161230251Y-67355579D01*
X161223393Y-67353996D01*
X161223391Y-67353995D01*
X161197574Y-67348035D01*
X161182831Y-67343668D01*
X161151315Y-67332197D01*
X161144325Y-67331314D01*
X161144317Y-67331312D01*
X161108299Y-67326762D01*
X161095747Y-67324526D01*
X161060386Y-67316362D01*
X161060383Y-67316362D01*
X161053515Y-67314776D01*
X161046469Y-67314751D01*
X161046466Y-67314751D01*
X161012944Y-67314634D01*
X161012062Y-67314605D01*
X161011231Y-67314500D01*
X160974581Y-67314500D01*
X160974141Y-67314499D01*
X160875657Y-67314155D01*
X160875652Y-67314155D01*
X160872130Y-67314143D01*
X160870930Y-67314411D01*
X160869293Y-67314500D01*
X150806082Y-67314500D01*
X150737961Y-67294498D01*
X150716987Y-67277595D01*
X149990566Y-66551174D01*
X149956540Y-66488862D01*
X149961605Y-66418047D01*
X150004152Y-66361211D01*
X150068680Y-66336558D01*
X150132463Y-66330978D01*
X150276051Y-66292503D01*
X150341886Y-66274863D01*
X150341888Y-66274862D01*
X150347196Y-66273440D01*
X150352178Y-66271117D01*
X150543690Y-66181814D01*
X150543695Y-66181811D01*
X150548677Y-66179488D01*
X150711507Y-66065473D01*
X150726270Y-66055136D01*
X150726273Y-66055134D01*
X150730781Y-66051977D01*
X150887977Y-65894781D01*
X150893608Y-65886740D01*
X151012331Y-65717185D01*
X151012332Y-65717183D01*
X151015488Y-65712676D01*
X151017811Y-65707694D01*
X151017814Y-65707689D01*
X151066805Y-65602627D01*
X151113723Y-65549342D01*
X151182000Y-65529881D01*
X151249960Y-65550423D01*
X151295195Y-65602627D01*
X151344186Y-65707689D01*
X151344189Y-65707694D01*
X151346512Y-65712676D01*
X151349668Y-65717183D01*
X151349669Y-65717185D01*
X151468393Y-65886740D01*
X151474023Y-65894781D01*
X151631219Y-66051977D01*
X151635727Y-66055134D01*
X151635730Y-66055136D01*
X151650493Y-66065473D01*
X151813323Y-66179488D01*
X151818305Y-66181811D01*
X151818310Y-66181814D01*
X152009822Y-66271117D01*
X152014804Y-66273440D01*
X152020112Y-66274862D01*
X152020114Y-66274863D01*
X152085949Y-66292503D01*
X152229537Y-66330978D01*
X152451000Y-66350353D01*
X152672463Y-66330978D01*
X152816051Y-66292503D01*
X152881886Y-66274863D01*
X152881888Y-66274862D01*
X152887196Y-66273440D01*
X152892178Y-66271117D01*
X153083690Y-66181814D01*
X153083695Y-66181811D01*
X153088677Y-66179488D01*
X153251507Y-66065473D01*
X153266270Y-66055136D01*
X153266273Y-66055134D01*
X153270781Y-66051977D01*
X153427977Y-65894781D01*
X153433608Y-65886740D01*
X153552331Y-65717185D01*
X153552332Y-65717183D01*
X153555488Y-65712676D01*
X153557811Y-65707694D01*
X153557814Y-65707689D01*
X153606805Y-65602627D01*
X153653723Y-65549342D01*
X153722000Y-65529881D01*
X153789960Y-65550423D01*
X153835195Y-65602627D01*
X153884186Y-65707689D01*
X153884189Y-65707694D01*
X153886512Y-65712676D01*
X153889668Y-65717183D01*
X153889669Y-65717185D01*
X154008393Y-65886740D01*
X154014023Y-65894781D01*
X154171219Y-66051977D01*
X154175727Y-66055134D01*
X154175730Y-66055136D01*
X154190493Y-66065473D01*
X154353323Y-66179488D01*
X154358305Y-66181811D01*
X154358310Y-66181814D01*
X154549822Y-66271117D01*
X154554804Y-66273440D01*
X154560112Y-66274862D01*
X154560114Y-66274863D01*
X154625949Y-66292503D01*
X154769537Y-66330978D01*
X154991000Y-66350353D01*
X155212463Y-66330978D01*
X155356051Y-66292503D01*
X155421886Y-66274863D01*
X155421888Y-66274862D01*
X155427196Y-66273440D01*
X155432178Y-66271117D01*
X155623690Y-66181814D01*
X155623695Y-66181811D01*
X155628677Y-66179488D01*
X155791507Y-66065473D01*
X155806270Y-66055136D01*
X155806273Y-66055134D01*
X155810781Y-66051977D01*
X155967977Y-65894781D01*
X155973608Y-65886740D01*
X156092331Y-65717185D01*
X156092332Y-65717183D01*
X156095488Y-65712676D01*
X156097811Y-65707694D01*
X156097814Y-65707689D01*
X156146805Y-65602627D01*
X156193723Y-65549342D01*
X156262000Y-65529881D01*
X156329960Y-65550423D01*
X156375195Y-65602627D01*
X156424186Y-65707689D01*
X156424189Y-65707694D01*
X156426512Y-65712676D01*
X156429668Y-65717183D01*
X156429669Y-65717185D01*
X156548393Y-65886740D01*
X156554023Y-65894781D01*
X156711219Y-66051977D01*
X156715727Y-66055134D01*
X156715730Y-66055136D01*
X156730493Y-66065473D01*
X156893323Y-66179488D01*
X156898305Y-66181811D01*
X156898310Y-66181814D01*
X157089822Y-66271117D01*
X157094804Y-66273440D01*
X157100112Y-66274862D01*
X157100114Y-66274863D01*
X157165949Y-66292503D01*
X157309537Y-66330978D01*
X157531000Y-66350353D01*
X157752463Y-66330978D01*
X157896051Y-66292503D01*
X157961886Y-66274863D01*
X157961888Y-66274862D01*
X157967196Y-66273440D01*
X157972178Y-66271117D01*
X158163690Y-66181814D01*
X158163695Y-66181811D01*
X158168677Y-66179488D01*
X158331507Y-66065473D01*
X158346270Y-66055136D01*
X158346273Y-66055134D01*
X158350781Y-66051977D01*
X158507977Y-65894781D01*
X158513608Y-65886740D01*
X158632331Y-65717185D01*
X158632332Y-65717183D01*
X158635488Y-65712676D01*
X158637811Y-65707694D01*
X158637814Y-65707689D01*
X158686805Y-65602627D01*
X158733723Y-65549342D01*
X158802000Y-65529881D01*
X158869960Y-65550423D01*
X158915195Y-65602627D01*
X158964186Y-65707689D01*
X158964189Y-65707694D01*
X158966512Y-65712676D01*
X158969668Y-65717183D01*
X158969669Y-65717185D01*
X159088393Y-65886740D01*
X159094023Y-65894781D01*
X159251219Y-66051977D01*
X159255727Y-66055134D01*
X159255730Y-66055136D01*
X159270493Y-66065473D01*
X159433323Y-66179488D01*
X159438305Y-66181811D01*
X159438310Y-66181814D01*
X159629822Y-66271117D01*
X159634804Y-66273440D01*
X159640112Y-66274862D01*
X159640114Y-66274863D01*
X159705949Y-66292503D01*
X159849537Y-66330978D01*
X160071000Y-66350353D01*
X160292463Y-66330978D01*
X160436051Y-66292503D01*
X160501886Y-66274863D01*
X160501888Y-66274862D01*
X160507196Y-66273440D01*
X160512178Y-66271117D01*
X160703690Y-66181814D01*
X160703695Y-66181811D01*
X160708677Y-66179488D01*
X160871507Y-66065473D01*
X160886270Y-66055136D01*
X160886273Y-66055134D01*
X160890781Y-66051977D01*
X161047977Y-65894781D01*
X161053608Y-65886740D01*
X161172331Y-65717185D01*
X161172332Y-65717183D01*
X161175488Y-65712676D01*
X161177811Y-65707694D01*
X161177814Y-65707689D01*
X161226805Y-65602627D01*
X161273723Y-65549342D01*
X161342000Y-65529881D01*
X161409960Y-65550423D01*
X161455195Y-65602627D01*
X161504186Y-65707689D01*
X161504189Y-65707694D01*
X161506512Y-65712676D01*
X161509668Y-65717183D01*
X161509669Y-65717185D01*
X161628393Y-65886740D01*
X161634023Y-65894781D01*
X161791219Y-66051977D01*
X161795727Y-66055134D01*
X161795730Y-66055136D01*
X161810493Y-66065473D01*
X161973323Y-66179488D01*
X161978305Y-66181811D01*
X161978310Y-66181814D01*
X162169822Y-66271117D01*
X162174804Y-66273440D01*
X162180112Y-66274862D01*
X162180114Y-66274863D01*
X162245949Y-66292503D01*
X162389537Y-66330978D01*
X162611000Y-66350353D01*
X162832463Y-66330978D01*
X162976051Y-66292503D01*
X163041886Y-66274863D01*
X163041888Y-66274862D01*
X163047196Y-66273440D01*
X163052178Y-66271117D01*
X163243690Y-66181814D01*
X163243695Y-66181811D01*
X163248677Y-66179488D01*
X163411507Y-66065473D01*
X163426270Y-66055136D01*
X163426273Y-66055134D01*
X163430781Y-66051977D01*
X163587977Y-65894781D01*
X163593608Y-65886740D01*
X163712331Y-65717185D01*
X163712332Y-65717183D01*
X163715488Y-65712676D01*
X163717811Y-65707694D01*
X163717814Y-65707689D01*
X163807117Y-65516178D01*
X163807118Y-65516177D01*
X163809440Y-65511196D01*
X163812253Y-65500700D01*
X163866978Y-65296463D01*
X163868994Y-65297003D01*
X163896507Y-65241526D01*
X163957430Y-65205072D01*
X164028390Y-65207342D01*
G37*
G04 #@! TD.AperFunction*
M02*
