G04 #@! TF.GenerationSoftware,KiCad,Pcbnew,6.0.7-f9a2dced07~116~ubuntu20.04.1*
G04 #@! TF.CreationDate,2022-08-22T20:33:43+08:00*
G04 #@! TF.ProjectId,arduino_can_bus_shield_v2.1,61726475-696e-46f5-9f63-616e5f627573,rev?*
G04 #@! TF.SameCoordinates,Original*
G04 #@! TF.FileFunction,Legend,Bot*
G04 #@! TF.FilePolarity,Positive*
%FSLAX46Y46*%
G04 Gerber Fmt 4.6, Leading zero omitted, Abs format (unit mm)*
G04 Created by KiCad (PCBNEW 6.0.7-f9a2dced07~116~ubuntu20.04.1) date 2022-08-22 20:33:43*
%MOMM*%
%LPD*%
G01*
G04 APERTURE LIST*
G04 Aperture macros list*
%AMRoundRect*
0 Rectangle with rounded corners*
0 $1 Rounding radius*
0 $2 $3 $4 $5 $6 $7 $8 $9 X,Y pos of 4 corners*
0 Add a 4 corners polygon primitive as box body*
4,1,4,$2,$3,$4,$5,$6,$7,$8,$9,$2,$3,0*
0 Add four circle primitives for the rounded corners*
1,1,$1+$1,$2,$3*
1,1,$1+$1,$4,$5*
1,1,$1+$1,$6,$7*
1,1,$1+$1,$8,$9*
0 Add four rect primitives between the rounded corners*
20,1,$1+$1,$2,$3,$4,$5,0*
20,1,$1+$1,$4,$5,$6,$7,0*
20,1,$1+$1,$6,$7,$8,$9,0*
20,1,$1+$1,$8,$9,$2,$3,0*%
G04 Aperture macros list end*
%ADD10C,0.150000*%
%ADD11C,0.120000*%
%ADD12O,2.000000X1.600000*%
%ADD13R,1.700000X1.700000*%
%ADD14O,1.700000X1.700000*%
%ADD15R,1.800000X0.900000*%
%ADD16C,4.500000*%
%ADD17C,3.000000*%
%ADD18RoundRect,0.250001X0.499999X-0.499999X0.499999X0.499999X-0.499999X0.499999X-0.499999X-0.499999X0*%
%ADD19C,1.500000*%
%ADD20C,3.200000*%
%ADD21C,1.524000*%
%ADD22R,1.600000X1.600000*%
%ADD23O,1.600000X1.600000*%
%ADD24RoundRect,0.250000X0.337500X0.475000X-0.337500X0.475000X-0.337500X-0.475000X0.337500X-0.475000X0*%
%ADD25R,4.500000X2.000000*%
%ADD26RoundRect,0.250000X-0.337500X-0.475000X0.337500X-0.475000X0.337500X0.475000X-0.337500X0.475000X0*%
%ADD27RoundRect,0.100000X-0.637500X-0.100000X0.637500X-0.100000X0.637500X0.100000X-0.637500X0.100000X0*%
%ADD28RoundRect,0.250000X0.350000X0.450000X-0.350000X0.450000X-0.350000X-0.450000X0.350000X-0.450000X0*%
%ADD29RoundRect,0.250000X0.450000X-0.350000X0.450000X0.350000X-0.450000X0.350000X-0.450000X-0.350000X0*%
%ADD30RoundRect,0.150000X0.150000X-0.825000X0.150000X0.825000X-0.150000X0.825000X-0.150000X-0.825000X0*%
G04 APERTURE END LIST*
D10*
X148394523Y-93737380D02*
X148585000Y-93737380D01*
X148680238Y-93785000D01*
X148727857Y-93832619D01*
X148823095Y-93975476D01*
X148870714Y-94165952D01*
X148870714Y-94546904D01*
X148823095Y-94642142D01*
X148775476Y-94689761D01*
X148680238Y-94737380D01*
X148489761Y-94737380D01*
X148394523Y-94689761D01*
X148346904Y-94642142D01*
X148299285Y-94546904D01*
X148299285Y-94308809D01*
X148346904Y-94213571D01*
X148394523Y-94165952D01*
X148489761Y-94118333D01*
X148680238Y-94118333D01*
X148775476Y-94165952D01*
X148823095Y-94213571D01*
X148870714Y-94308809D01*
X147870714Y-94356428D02*
X147108809Y-94356428D01*
X146108809Y-94737380D02*
X146680238Y-94737380D01*
X146394523Y-94737380D02*
X146394523Y-93737380D01*
X146489761Y-93880238D01*
X146585000Y-93975476D01*
X146680238Y-94023095D01*
X145727857Y-93832619D02*
X145680238Y-93785000D01*
X145585000Y-93737380D01*
X145346904Y-93737380D01*
X145251666Y-93785000D01*
X145204047Y-93832619D01*
X145156428Y-93927857D01*
X145156428Y-94023095D01*
X145204047Y-94165952D01*
X145775476Y-94737380D01*
X145156428Y-94737380D01*
X144870714Y-93737380D02*
X144537380Y-94737380D01*
X144204047Y-93737380D01*
X143251666Y-93737380D02*
X142918333Y-94737380D01*
X142585000Y-93737380D01*
X142251666Y-94737380D02*
X142251666Y-94070714D01*
X142251666Y-93737380D02*
X142299285Y-93785000D01*
X142251666Y-93832619D01*
X142204047Y-93785000D01*
X142251666Y-93737380D01*
X142251666Y-93832619D01*
X141775476Y-94070714D02*
X141775476Y-94737380D01*
X141775476Y-94165952D02*
X141727857Y-94118333D01*
X141632619Y-94070714D01*
X141489761Y-94070714D01*
X141394523Y-94118333D01*
X141346904Y-94213571D01*
X141346904Y-94737380D01*
X126351904Y-93832619D02*
X126304285Y-93785000D01*
X126209047Y-93737380D01*
X125970952Y-93737380D01*
X125875714Y-93785000D01*
X125828095Y-93832619D01*
X125780476Y-93927857D01*
X125780476Y-94023095D01*
X125828095Y-94165952D01*
X126399523Y-94737380D01*
X125780476Y-94737380D01*
X124923333Y-94070714D02*
X124923333Y-94737380D01*
X125161428Y-93689761D02*
X125399523Y-94404047D01*
X124780476Y-94404047D01*
X124494761Y-94070714D02*
X124256666Y-94737380D01*
X124018571Y-94070714D01*
X122875714Y-94070714D02*
X122875714Y-95070714D01*
X122875714Y-94118333D02*
X122780476Y-94070714D01*
X122590000Y-94070714D01*
X122494761Y-94118333D01*
X122447142Y-94165952D01*
X122399523Y-94261190D01*
X122399523Y-94546904D01*
X122447142Y-94642142D01*
X122494761Y-94689761D01*
X122590000Y-94737380D01*
X122780476Y-94737380D01*
X122875714Y-94689761D01*
X121828095Y-94737380D02*
X121923333Y-94689761D01*
X121970952Y-94642142D01*
X122018571Y-94546904D01*
X122018571Y-94261190D01*
X121970952Y-94165952D01*
X121923333Y-94118333D01*
X121828095Y-94070714D01*
X121685238Y-94070714D01*
X121590000Y-94118333D01*
X121542380Y-94165952D01*
X121494761Y-94261190D01*
X121494761Y-94546904D01*
X121542380Y-94642142D01*
X121590000Y-94689761D01*
X121685238Y-94737380D01*
X121828095Y-94737380D01*
X121161428Y-94070714D02*
X120970952Y-94737380D01*
X120780476Y-94261190D01*
X120590000Y-94737380D01*
X120399523Y-94070714D01*
X119637619Y-94689761D02*
X119732857Y-94737380D01*
X119923333Y-94737380D01*
X120018571Y-94689761D01*
X120066190Y-94594523D01*
X120066190Y-94213571D01*
X120018571Y-94118333D01*
X119923333Y-94070714D01*
X119732857Y-94070714D01*
X119637619Y-94118333D01*
X119590000Y-94213571D01*
X119590000Y-94308809D01*
X120066190Y-94404047D01*
X119161428Y-94737380D02*
X119161428Y-94070714D01*
X119161428Y-94261190D02*
X119113809Y-94165952D01*
X119066190Y-94118333D01*
X118970952Y-94070714D01*
X118875714Y-94070714D01*
X117780476Y-94737380D02*
X117780476Y-94070714D01*
X117780476Y-93737380D02*
X117828095Y-93785000D01*
X117780476Y-93832619D01*
X117732857Y-93785000D01*
X117780476Y-93737380D01*
X117780476Y-93832619D01*
X117304285Y-94070714D02*
X117304285Y-94737380D01*
X117304285Y-94165952D02*
X117256666Y-94118333D01*
X117161428Y-94070714D01*
X117018571Y-94070714D01*
X116923333Y-94118333D01*
X116875714Y-94213571D01*
X116875714Y-94737380D01*
X133655001Y-60630000D02*
G75*
G03*
X133655001Y-60630000I-1J0D01*
G01*
X128575001Y-57455000D02*
G75*
G03*
X128575001Y-57455000I-1J0D01*
G01*
X162991904Y-78375000D02*
X163087142Y-78327380D01*
X163230000Y-78327380D01*
X163372857Y-78375000D01*
X163468095Y-78470238D01*
X163515714Y-78565476D01*
X163563333Y-78755952D01*
X163563333Y-78898809D01*
X163515714Y-79089285D01*
X163468095Y-79184523D01*
X163372857Y-79279761D01*
X163230000Y-79327380D01*
X163134761Y-79327380D01*
X162991904Y-79279761D01*
X162944285Y-79232142D01*
X162944285Y-78898809D01*
X163134761Y-78898809D01*
X162515714Y-79327380D02*
X162515714Y-78327380D01*
X161944285Y-79327380D01*
X161944285Y-78327380D01*
X161468095Y-79327380D02*
X161468095Y-78327380D01*
X161230000Y-78327380D01*
X161087142Y-78375000D01*
X160991904Y-78470238D01*
X160944285Y-78565476D01*
X160896666Y-78755952D01*
X160896666Y-78898809D01*
X160944285Y-79089285D01*
X160991904Y-79184523D01*
X161087142Y-79279761D01*
X161230000Y-79327380D01*
X161468095Y-79327380D01*
X163420476Y-79937380D02*
X162801428Y-79937380D01*
X163134761Y-80318333D01*
X162991904Y-80318333D01*
X162896666Y-80365952D01*
X162849047Y-80413571D01*
X162801428Y-80508809D01*
X162801428Y-80746904D01*
X162849047Y-80842142D01*
X162896666Y-80889761D01*
X162991904Y-80937380D01*
X163277619Y-80937380D01*
X163372857Y-80889761D01*
X163420476Y-80842142D01*
X162468095Y-80270714D02*
X162230000Y-80937380D01*
X161991904Y-80270714D01*
X161706190Y-79937380D02*
X161087142Y-79937380D01*
X161420476Y-80318333D01*
X161277619Y-80318333D01*
X161182380Y-80365952D01*
X161134761Y-80413571D01*
X161087142Y-80508809D01*
X161087142Y-80746904D01*
X161134761Y-80842142D01*
X161182380Y-80889761D01*
X161277619Y-80937380D01*
X161563333Y-80937380D01*
X161658571Y-80889761D01*
X161706190Y-80842142D01*
X163420476Y-84359761D02*
X163277619Y-84407380D01*
X163039523Y-84407380D01*
X162944285Y-84359761D01*
X162896666Y-84312142D01*
X162849047Y-84216904D01*
X162849047Y-84121666D01*
X162896666Y-84026428D01*
X162944285Y-83978809D01*
X163039523Y-83931190D01*
X163230000Y-83883571D01*
X163325238Y-83835952D01*
X163372857Y-83788333D01*
X163420476Y-83693095D01*
X163420476Y-83597857D01*
X163372857Y-83502619D01*
X163325238Y-83455000D01*
X163230000Y-83407380D01*
X162991904Y-83407380D01*
X162849047Y-83455000D01*
X161849047Y-84312142D02*
X161896666Y-84359761D01*
X162039523Y-84407380D01*
X162134761Y-84407380D01*
X162277619Y-84359761D01*
X162372857Y-84264523D01*
X162420476Y-84169285D01*
X162468095Y-83978809D01*
X162468095Y-83835952D01*
X162420476Y-83645476D01*
X162372857Y-83550238D01*
X162277619Y-83455000D01*
X162134761Y-83407380D01*
X162039523Y-83407380D01*
X161896666Y-83455000D01*
X161849047Y-83502619D01*
X160944285Y-84407380D02*
X161420476Y-84407380D01*
X161420476Y-83407380D01*
X163444285Y-85969761D02*
X163301428Y-86017380D01*
X163063333Y-86017380D01*
X162968095Y-85969761D01*
X162920476Y-85922142D01*
X162872857Y-85826904D01*
X162872857Y-85731666D01*
X162920476Y-85636428D01*
X162968095Y-85588809D01*
X163063333Y-85541190D01*
X163253809Y-85493571D01*
X163349047Y-85445952D01*
X163396666Y-85398333D01*
X163444285Y-85303095D01*
X163444285Y-85207857D01*
X163396666Y-85112619D01*
X163349047Y-85065000D01*
X163253809Y-85017380D01*
X163015714Y-85017380D01*
X162872857Y-85065000D01*
X162444285Y-86017380D02*
X162444285Y-85017380D01*
X162206190Y-85017380D01*
X162063333Y-85065000D01*
X161968095Y-85160238D01*
X161920476Y-85255476D01*
X161872857Y-85445952D01*
X161872857Y-85588809D01*
X161920476Y-85779285D01*
X161968095Y-85874523D01*
X162063333Y-85969761D01*
X162206190Y-86017380D01*
X162444285Y-86017380D01*
X161491904Y-85731666D02*
X161015714Y-85731666D01*
X161587142Y-86017380D02*
X161253809Y-85017380D01*
X160920476Y-86017380D01*
X161894404Y-87040714D02*
X161894404Y-88040714D01*
X161894404Y-87088333D02*
X161799166Y-87040714D01*
X161608690Y-87040714D01*
X161513452Y-87088333D01*
X161465833Y-87135952D01*
X161418214Y-87231190D01*
X161418214Y-87516904D01*
X161465833Y-87612142D01*
X161513452Y-87659761D01*
X161608690Y-87707380D01*
X161799166Y-87707380D01*
X161894404Y-87659761D01*
X160989642Y-87707380D02*
X160989642Y-87040714D01*
X160989642Y-86707380D02*
X161037261Y-86755000D01*
X160989642Y-86802619D01*
X160942023Y-86755000D01*
X160989642Y-86707380D01*
X160989642Y-86802619D01*
X160513452Y-87040714D02*
X160513452Y-87707380D01*
X160513452Y-87135952D02*
X160465833Y-87088333D01*
X160370595Y-87040714D01*
X160227738Y-87040714D01*
X160132500Y-87088333D01*
X160084880Y-87183571D01*
X160084880Y-87707380D01*
X159465833Y-87707380D02*
X159561071Y-87659761D01*
X159608690Y-87612142D01*
X159656309Y-87516904D01*
X159656309Y-87231190D01*
X159608690Y-87135952D01*
X159561071Y-87088333D01*
X159465833Y-87040714D01*
X159322976Y-87040714D01*
X159227738Y-87088333D01*
X159180119Y-87135952D01*
X159132500Y-87231190D01*
X159132500Y-87516904D01*
X159180119Y-87612142D01*
X159227738Y-87659761D01*
X159322976Y-87707380D01*
X159465833Y-87707380D01*
X158275357Y-87040714D02*
X158275357Y-87707380D01*
X158703928Y-87040714D02*
X158703928Y-87564523D01*
X158656309Y-87659761D01*
X158561071Y-87707380D01*
X158418214Y-87707380D01*
X158322976Y-87659761D01*
X158275357Y-87612142D01*
X157942023Y-87040714D02*
X157561071Y-87040714D01*
X157799166Y-86707380D02*
X157799166Y-87564523D01*
X157751547Y-87659761D01*
X157656309Y-87707380D01*
X157561071Y-87707380D01*
X161894404Y-89317380D02*
X161894404Y-88650714D01*
X161894404Y-88745952D02*
X161846785Y-88698333D01*
X161751547Y-88650714D01*
X161608690Y-88650714D01*
X161513452Y-88698333D01*
X161465833Y-88793571D01*
X161465833Y-89317380D01*
X161465833Y-88793571D02*
X161418214Y-88698333D01*
X161322976Y-88650714D01*
X161180119Y-88650714D01*
X161084880Y-88698333D01*
X161037261Y-88793571D01*
X161037261Y-89317380D01*
X160132500Y-89269761D02*
X160227738Y-89317380D01*
X160418214Y-89317380D01*
X160513452Y-89269761D01*
X160561071Y-89222142D01*
X160608690Y-89126904D01*
X160608690Y-88841190D01*
X160561071Y-88745952D01*
X160513452Y-88698333D01*
X160418214Y-88650714D01*
X160227738Y-88650714D01*
X160132500Y-88698333D01*
X159703928Y-88650714D02*
X159703928Y-89650714D01*
X159703928Y-88698333D02*
X159608690Y-88650714D01*
X159418214Y-88650714D01*
X159322976Y-88698333D01*
X159275357Y-88745952D01*
X159227738Y-88841190D01*
X159227738Y-89126904D01*
X159275357Y-89222142D01*
X159322976Y-89269761D01*
X159418214Y-89317380D01*
X159608690Y-89317380D01*
X159703928Y-89269761D01*
X158846785Y-88412619D02*
X158799166Y-88365000D01*
X158703928Y-88317380D01*
X158465833Y-88317380D01*
X158370595Y-88365000D01*
X158322976Y-88412619D01*
X158275357Y-88507857D01*
X158275357Y-88603095D01*
X158322976Y-88745952D01*
X158894404Y-89317380D01*
X158275357Y-89317380D01*
X157370595Y-88317380D02*
X157846785Y-88317380D01*
X157894404Y-88793571D01*
X157846785Y-88745952D01*
X157751547Y-88698333D01*
X157513452Y-88698333D01*
X157418214Y-88745952D01*
X157370595Y-88793571D01*
X157322976Y-88888809D01*
X157322976Y-89126904D01*
X157370595Y-89222142D01*
X157418214Y-89269761D01*
X157513452Y-89317380D01*
X157751547Y-89317380D01*
X157846785Y-89269761D01*
X157894404Y-89222142D01*
X156370595Y-89317380D02*
X156942023Y-89317380D01*
X156656309Y-89317380D02*
X156656309Y-88317380D01*
X156751547Y-88460238D01*
X156846785Y-88555476D01*
X156942023Y-88603095D01*
X155465833Y-88317380D02*
X155942023Y-88317380D01*
X155989642Y-88793571D01*
X155942023Y-88745952D01*
X155846785Y-88698333D01*
X155608690Y-88698333D01*
X155513452Y-88745952D01*
X155465833Y-88793571D01*
X155418214Y-88888809D01*
X155418214Y-89126904D01*
X155465833Y-89222142D01*
X155513452Y-89269761D01*
X155608690Y-89317380D01*
X155846785Y-89317380D01*
X155942023Y-89269761D01*
X155989642Y-89222142D01*
X153799166Y-89269761D02*
X153894404Y-89317380D01*
X154084880Y-89317380D01*
X154180119Y-89269761D01*
X154227738Y-89222142D01*
X154275357Y-89126904D01*
X154275357Y-88841190D01*
X154227738Y-88745952D01*
X154180119Y-88698333D01*
X154084880Y-88650714D01*
X153894404Y-88650714D01*
X153799166Y-88698333D01*
X153418214Y-89269761D02*
X153322976Y-89317380D01*
X153132500Y-89317380D01*
X153037261Y-89269761D01*
X152989642Y-89174523D01*
X152989642Y-89126904D01*
X153037261Y-89031666D01*
X153132500Y-88984047D01*
X153275357Y-88984047D01*
X153370595Y-88936428D01*
X153418214Y-88841190D01*
X153418214Y-88793571D01*
X153370595Y-88698333D01*
X153275357Y-88650714D01*
X153132500Y-88650714D01*
X153037261Y-88698333D01*
X151799166Y-89317380D02*
X151799166Y-88317380D01*
X151561071Y-88317380D01*
X151418214Y-88365000D01*
X151322976Y-88460238D01*
X151275357Y-88555476D01*
X151227738Y-88745952D01*
X151227738Y-88888809D01*
X151275357Y-89079285D01*
X151322976Y-89174523D01*
X151418214Y-89269761D01*
X151561071Y-89317380D01*
X151799166Y-89317380D01*
X150894404Y-88317380D02*
X150227738Y-88317380D01*
X150656309Y-89317380D01*
X161942023Y-90879761D02*
X161846785Y-90927380D01*
X161656309Y-90927380D01*
X161561071Y-90879761D01*
X161513452Y-90784523D01*
X161513452Y-90736904D01*
X161561071Y-90641666D01*
X161656309Y-90594047D01*
X161799166Y-90594047D01*
X161894404Y-90546428D01*
X161942023Y-90451190D01*
X161942023Y-90403571D01*
X161894404Y-90308333D01*
X161799166Y-90260714D01*
X161656309Y-90260714D01*
X161561071Y-90308333D01*
X161180119Y-90260714D02*
X160989642Y-90927380D01*
X160799166Y-90451190D01*
X160608690Y-90927380D01*
X160418214Y-90260714D01*
X159513452Y-90927380D02*
X160084880Y-90927380D01*
X159799166Y-90927380D02*
X159799166Y-89927380D01*
X159894404Y-90070238D01*
X159989642Y-90165476D01*
X160084880Y-90213095D01*
X158322976Y-90927380D02*
X158322976Y-89927380D01*
X158084880Y-89927380D01*
X157942023Y-89975000D01*
X157846785Y-90070238D01*
X157799166Y-90165476D01*
X157751547Y-90355952D01*
X157751547Y-90498809D01*
X157799166Y-90689285D01*
X157846785Y-90784523D01*
X157942023Y-90879761D01*
X158084880Y-90927380D01*
X158322976Y-90927380D01*
X157275357Y-90927380D02*
X157084880Y-90927380D01*
X156989642Y-90879761D01*
X156942023Y-90832142D01*
X156846785Y-90689285D01*
X156799166Y-90498809D01*
X156799166Y-90117857D01*
X156846785Y-90022619D01*
X156894404Y-89975000D01*
X156989642Y-89927380D01*
X157180119Y-89927380D01*
X157275357Y-89975000D01*
X157322976Y-90022619D01*
X157370595Y-90117857D01*
X157370595Y-90355952D01*
X157322976Y-90451190D01*
X157275357Y-90498809D01*
X157180119Y-90546428D01*
X156989642Y-90546428D01*
X156894404Y-90498809D01*
X156846785Y-90451190D01*
X156799166Y-90355952D01*
X161942023Y-92489761D02*
X161846785Y-92537380D01*
X161656309Y-92537380D01*
X161561071Y-92489761D01*
X161513452Y-92394523D01*
X161513452Y-92346904D01*
X161561071Y-92251666D01*
X161656309Y-92204047D01*
X161799166Y-92204047D01*
X161894404Y-92156428D01*
X161942023Y-92061190D01*
X161942023Y-92013571D01*
X161894404Y-91918333D01*
X161799166Y-91870714D01*
X161656309Y-91870714D01*
X161561071Y-91918333D01*
X161180119Y-91870714D02*
X160989642Y-92537380D01*
X160799166Y-92061190D01*
X160608690Y-92537380D01*
X160418214Y-91870714D01*
X160084880Y-91632619D02*
X160037261Y-91585000D01*
X159942023Y-91537380D01*
X159703928Y-91537380D01*
X159608690Y-91585000D01*
X159561071Y-91632619D01*
X159513452Y-91727857D01*
X159513452Y-91823095D01*
X159561071Y-91965952D01*
X160132500Y-92537380D01*
X159513452Y-92537380D01*
X158322976Y-92537380D02*
X158322976Y-91537380D01*
X158084880Y-91537380D01*
X157942023Y-91585000D01*
X157846785Y-91680238D01*
X157799166Y-91775476D01*
X157751547Y-91965952D01*
X157751547Y-92108809D01*
X157799166Y-92299285D01*
X157846785Y-92394523D01*
X157942023Y-92489761D01*
X158084880Y-92537380D01*
X158322976Y-92537380D01*
X157180119Y-91965952D02*
X157275357Y-91918333D01*
X157322976Y-91870714D01*
X157370595Y-91775476D01*
X157370595Y-91727857D01*
X157322976Y-91632619D01*
X157275357Y-91585000D01*
X157180119Y-91537380D01*
X156989642Y-91537380D01*
X156894404Y-91585000D01*
X156846785Y-91632619D01*
X156799166Y-91727857D01*
X156799166Y-91775476D01*
X156846785Y-91870714D01*
X156894404Y-91918333D01*
X156989642Y-91965952D01*
X157180119Y-91965952D01*
X157275357Y-92013571D01*
X157322976Y-92061190D01*
X157370595Y-92156428D01*
X157370595Y-92346904D01*
X157322976Y-92442142D01*
X157275357Y-92489761D01*
X157180119Y-92537380D01*
X156989642Y-92537380D01*
X156894404Y-92489761D01*
X156846785Y-92442142D01*
X156799166Y-92346904D01*
X156799166Y-92156428D01*
X156846785Y-92061190D01*
X156894404Y-92013571D01*
X156989642Y-91965952D01*
X161751547Y-94147380D02*
X161846785Y-94099761D01*
X161894404Y-94004523D01*
X161894404Y-93147380D01*
X160989642Y-94099761D02*
X161084880Y-94147380D01*
X161275357Y-94147380D01*
X161370595Y-94099761D01*
X161418214Y-94004523D01*
X161418214Y-93623571D01*
X161370595Y-93528333D01*
X161275357Y-93480714D01*
X161084880Y-93480714D01*
X160989642Y-93528333D01*
X160942023Y-93623571D01*
X160942023Y-93718809D01*
X161418214Y-93814047D01*
X160084880Y-94147380D02*
X160084880Y-93147380D01*
X160084880Y-94099761D02*
X160180119Y-94147380D01*
X160370595Y-94147380D01*
X160465833Y-94099761D01*
X160513452Y-94052142D01*
X160561071Y-93956904D01*
X160561071Y-93671190D01*
X160513452Y-93575952D01*
X160465833Y-93528333D01*
X160370595Y-93480714D01*
X160180119Y-93480714D01*
X160084880Y-93528333D01*
X158894404Y-93861666D02*
X158418214Y-93861666D01*
X158989642Y-94147380D02*
X158656309Y-93147380D01*
X158322976Y-94147380D01*
X157799166Y-93147380D02*
X157703928Y-93147380D01*
X157608690Y-93195000D01*
X157561071Y-93242619D01*
X157513452Y-93337857D01*
X157465833Y-93528333D01*
X157465833Y-93766428D01*
X157513452Y-93956904D01*
X157561071Y-94052142D01*
X157608690Y-94099761D01*
X157703928Y-94147380D01*
X157799166Y-94147380D01*
X157894404Y-94099761D01*
X157942023Y-94052142D01*
X157989642Y-93956904D01*
X158037261Y-93766428D01*
X158037261Y-93528333D01*
X157989642Y-93337857D01*
X157942023Y-93242619D01*
X157894404Y-93195000D01*
X157799166Y-93147380D01*
X150751190Y-80776666D02*
X150275000Y-80776666D01*
X150846428Y-81062380D02*
X150513095Y-80062380D01*
X150179761Y-81062380D01*
X149846428Y-81062380D02*
X149846428Y-80395714D01*
X149846428Y-80586190D02*
X149798809Y-80490952D01*
X149751190Y-80443333D01*
X149655952Y-80395714D01*
X149560714Y-80395714D01*
X148798809Y-81062380D02*
X148798809Y-80062380D01*
X148798809Y-81014761D02*
X148894047Y-81062380D01*
X149084523Y-81062380D01*
X149179761Y-81014761D01*
X149227380Y-80967142D01*
X149275000Y-80871904D01*
X149275000Y-80586190D01*
X149227380Y-80490952D01*
X149179761Y-80443333D01*
X149084523Y-80395714D01*
X148894047Y-80395714D01*
X148798809Y-80443333D01*
X147894047Y-80395714D02*
X147894047Y-81062380D01*
X148322619Y-80395714D02*
X148322619Y-80919523D01*
X148275000Y-81014761D01*
X148179761Y-81062380D01*
X148036904Y-81062380D01*
X147941666Y-81014761D01*
X147894047Y-80967142D01*
X147417857Y-81062380D02*
X147417857Y-80395714D01*
X147417857Y-80062380D02*
X147465476Y-80110000D01*
X147417857Y-80157619D01*
X147370238Y-80110000D01*
X147417857Y-80062380D01*
X147417857Y-80157619D01*
X146941666Y-80395714D02*
X146941666Y-81062380D01*
X146941666Y-80490952D02*
X146894047Y-80443333D01*
X146798809Y-80395714D01*
X146655952Y-80395714D01*
X146560714Y-80443333D01*
X146513095Y-80538571D01*
X146513095Y-81062380D01*
X145894047Y-81062380D02*
X145989285Y-81014761D01*
X146036904Y-80967142D01*
X146084523Y-80871904D01*
X146084523Y-80586190D01*
X146036904Y-80490952D01*
X145989285Y-80443333D01*
X145894047Y-80395714D01*
X145751190Y-80395714D01*
X145655952Y-80443333D01*
X145608333Y-80490952D01*
X145560714Y-80586190D01*
X145560714Y-80871904D01*
X145608333Y-80967142D01*
X145655952Y-81014761D01*
X145751190Y-81062380D01*
X145894047Y-81062380D01*
X143941666Y-81014761D02*
X144036904Y-81062380D01*
X144227380Y-81062380D01*
X144322619Y-81014761D01*
X144370238Y-80967142D01*
X144417857Y-80871904D01*
X144417857Y-80586190D01*
X144370238Y-80490952D01*
X144322619Y-80443333D01*
X144227380Y-80395714D01*
X144036904Y-80395714D01*
X143941666Y-80443333D01*
X143084523Y-81062380D02*
X143084523Y-80538571D01*
X143132142Y-80443333D01*
X143227380Y-80395714D01*
X143417857Y-80395714D01*
X143513095Y-80443333D01*
X143084523Y-81014761D02*
X143179761Y-81062380D01*
X143417857Y-81062380D01*
X143513095Y-81014761D01*
X143560714Y-80919523D01*
X143560714Y-80824285D01*
X143513095Y-80729047D01*
X143417857Y-80681428D01*
X143179761Y-80681428D01*
X143084523Y-80633809D01*
X142608333Y-80395714D02*
X142608333Y-81062380D01*
X142608333Y-80490952D02*
X142560714Y-80443333D01*
X142465476Y-80395714D01*
X142322619Y-80395714D01*
X142227380Y-80443333D01*
X142179761Y-80538571D01*
X142179761Y-81062380D01*
X141703571Y-81062380D02*
X141703571Y-80062380D01*
X141703571Y-80443333D02*
X141608333Y-80395714D01*
X141417857Y-80395714D01*
X141322619Y-80443333D01*
X141275000Y-80490952D01*
X141227380Y-80586190D01*
X141227380Y-80871904D01*
X141275000Y-80967142D01*
X141322619Y-81014761D01*
X141417857Y-81062380D01*
X141608333Y-81062380D01*
X141703571Y-81014761D01*
X140370238Y-80395714D02*
X140370238Y-81062380D01*
X140798809Y-80395714D02*
X140798809Y-80919523D01*
X140751190Y-81014761D01*
X140655952Y-81062380D01*
X140513095Y-81062380D01*
X140417857Y-81014761D01*
X140370238Y-80967142D01*
X139941666Y-81014761D02*
X139846428Y-81062380D01*
X139655952Y-81062380D01*
X139560714Y-81014761D01*
X139513095Y-80919523D01*
X139513095Y-80871904D01*
X139560714Y-80776666D01*
X139655952Y-80729047D01*
X139798809Y-80729047D01*
X139894047Y-80681428D01*
X139941666Y-80586190D01*
X139941666Y-80538571D01*
X139894047Y-80443333D01*
X139798809Y-80395714D01*
X139655952Y-80395714D01*
X139560714Y-80443333D01*
X138370238Y-81014761D02*
X138275000Y-81062380D01*
X138084523Y-81062380D01*
X137989285Y-81014761D01*
X137941666Y-80919523D01*
X137941666Y-80871904D01*
X137989285Y-80776666D01*
X138084523Y-80729047D01*
X138227380Y-80729047D01*
X138322619Y-80681428D01*
X138370238Y-80586190D01*
X138370238Y-80538571D01*
X138322619Y-80443333D01*
X138227380Y-80395714D01*
X138084523Y-80395714D01*
X137989285Y-80443333D01*
X137513095Y-81062380D02*
X137513095Y-80062380D01*
X137084523Y-81062380D02*
X137084523Y-80538571D01*
X137132142Y-80443333D01*
X137227380Y-80395714D01*
X137370238Y-80395714D01*
X137465476Y-80443333D01*
X137513095Y-80490952D01*
X136608333Y-81062380D02*
X136608333Y-80395714D01*
X136608333Y-80062380D02*
X136655952Y-80110000D01*
X136608333Y-80157619D01*
X136560714Y-80110000D01*
X136608333Y-80062380D01*
X136608333Y-80157619D01*
X135751190Y-81014761D02*
X135846428Y-81062380D01*
X136036904Y-81062380D01*
X136132142Y-81014761D01*
X136179761Y-80919523D01*
X136179761Y-80538571D01*
X136132142Y-80443333D01*
X136036904Y-80395714D01*
X135846428Y-80395714D01*
X135751190Y-80443333D01*
X135703571Y-80538571D01*
X135703571Y-80633809D01*
X136179761Y-80729047D01*
X135132142Y-81062380D02*
X135227380Y-81014761D01*
X135275000Y-80919523D01*
X135275000Y-80062380D01*
X134322619Y-81062380D02*
X134322619Y-80062380D01*
X134322619Y-81014761D02*
X134417857Y-81062380D01*
X134608333Y-81062380D01*
X134703571Y-81014761D01*
X134751190Y-80967142D01*
X134798809Y-80871904D01*
X134798809Y-80586190D01*
X134751190Y-80490952D01*
X134703571Y-80443333D01*
X134608333Y-80395714D01*
X134417857Y-80395714D01*
X134322619Y-80443333D01*
X133179761Y-80395714D02*
X132941666Y-81062380D01*
X132703571Y-80395714D01*
X132370238Y-80157619D02*
X132322619Y-80110000D01*
X132227380Y-80062380D01*
X131989285Y-80062380D01*
X131894047Y-80110000D01*
X131846428Y-80157619D01*
X131798809Y-80252857D01*
X131798809Y-80348095D01*
X131846428Y-80490952D01*
X132417857Y-81062380D01*
X131798809Y-81062380D01*
X146608333Y-82624761D02*
X146465476Y-82672380D01*
X146227380Y-82672380D01*
X146132142Y-82624761D01*
X146084523Y-82577142D01*
X146036904Y-82481904D01*
X146036904Y-82386666D01*
X146084523Y-82291428D01*
X146132142Y-82243809D01*
X146227380Y-82196190D01*
X146417857Y-82148571D01*
X146513095Y-82100952D01*
X146560714Y-82053333D01*
X146608333Y-81958095D01*
X146608333Y-81862857D01*
X146560714Y-81767619D01*
X146513095Y-81720000D01*
X146417857Y-81672380D01*
X146179761Y-81672380D01*
X146036904Y-81720000D01*
X145179761Y-82672380D02*
X145179761Y-82148571D01*
X145227380Y-82053333D01*
X145322619Y-82005714D01*
X145513095Y-82005714D01*
X145608333Y-82053333D01*
X145179761Y-82624761D02*
X145275000Y-82672380D01*
X145513095Y-82672380D01*
X145608333Y-82624761D01*
X145655952Y-82529523D01*
X145655952Y-82434285D01*
X145608333Y-82339047D01*
X145513095Y-82291428D01*
X145275000Y-82291428D01*
X145179761Y-82243809D01*
X144703571Y-82672380D02*
X144703571Y-82005714D01*
X144703571Y-82100952D02*
X144655952Y-82053333D01*
X144560714Y-82005714D01*
X144417857Y-82005714D01*
X144322619Y-82053333D01*
X144275000Y-82148571D01*
X144275000Y-82672380D01*
X144275000Y-82148571D02*
X144227380Y-82053333D01*
X144132142Y-82005714D01*
X143989285Y-82005714D01*
X143894047Y-82053333D01*
X143846428Y-82148571D01*
X143846428Y-82672380D01*
X143417857Y-82624761D02*
X143322619Y-82672380D01*
X143132142Y-82672380D01*
X143036904Y-82624761D01*
X142989285Y-82529523D01*
X142989285Y-82481904D01*
X143036904Y-82386666D01*
X143132142Y-82339047D01*
X143275000Y-82339047D01*
X143370238Y-82291428D01*
X143417857Y-82196190D01*
X143417857Y-82148571D01*
X143370238Y-82053333D01*
X143275000Y-82005714D01*
X143132142Y-82005714D01*
X143036904Y-82053333D01*
X142417857Y-82672380D02*
X142513095Y-82624761D01*
X142560714Y-82577142D01*
X142608333Y-82481904D01*
X142608333Y-82196190D01*
X142560714Y-82100952D01*
X142513095Y-82053333D01*
X142417857Y-82005714D01*
X142275000Y-82005714D01*
X142179761Y-82053333D01*
X142132142Y-82100952D01*
X142084523Y-82196190D01*
X142084523Y-82481904D01*
X142132142Y-82577142D01*
X142179761Y-82624761D01*
X142275000Y-82672380D01*
X142417857Y-82672380D01*
X141655952Y-82005714D02*
X141655952Y-82672380D01*
X141655952Y-82100952D02*
X141608333Y-82053333D01*
X141513095Y-82005714D01*
X141370238Y-82005714D01*
X141275000Y-82053333D01*
X141227380Y-82148571D01*
X141227380Y-82672380D01*
X139417857Y-82577142D02*
X139465476Y-82624761D01*
X139608333Y-82672380D01*
X139703571Y-82672380D01*
X139846428Y-82624761D01*
X139941666Y-82529523D01*
X139989285Y-82434285D01*
X140036904Y-82243809D01*
X140036904Y-82100952D01*
X139989285Y-81910476D01*
X139941666Y-81815238D01*
X139846428Y-81720000D01*
X139703571Y-81672380D01*
X139608333Y-81672380D01*
X139465476Y-81720000D01*
X139417857Y-81767619D01*
X138989285Y-82672380D02*
X138989285Y-81672380D01*
X138560714Y-82672380D02*
X138560714Y-82148571D01*
X138608333Y-82053333D01*
X138703571Y-82005714D01*
X138846428Y-82005714D01*
X138941666Y-82053333D01*
X138989285Y-82100952D01*
X137655952Y-82672380D02*
X137655952Y-82148571D01*
X137703571Y-82053333D01*
X137798809Y-82005714D01*
X137989285Y-82005714D01*
X138084523Y-82053333D01*
X137655952Y-82624761D02*
X137751190Y-82672380D01*
X137989285Y-82672380D01*
X138084523Y-82624761D01*
X138132142Y-82529523D01*
X138132142Y-82434285D01*
X138084523Y-82339047D01*
X137989285Y-82291428D01*
X137751190Y-82291428D01*
X137655952Y-82243809D01*
X136751190Y-82005714D02*
X136751190Y-82672380D01*
X137179761Y-82005714D02*
X137179761Y-82529523D01*
X137132142Y-82624761D01*
X137036904Y-82672380D01*
X136894047Y-82672380D01*
X136798809Y-82624761D01*
X136751190Y-82577142D01*
X145655952Y-83377619D02*
X145608333Y-83330000D01*
X145513095Y-83282380D01*
X145275000Y-83282380D01*
X145179761Y-83330000D01*
X145132142Y-83377619D01*
X145084523Y-83472857D01*
X145084523Y-83568095D01*
X145132142Y-83710952D01*
X145703571Y-84282380D01*
X145084523Y-84282380D01*
X144465476Y-83282380D02*
X144370238Y-83282380D01*
X144275000Y-83330000D01*
X144227380Y-83377619D01*
X144179761Y-83472857D01*
X144132142Y-83663333D01*
X144132142Y-83901428D01*
X144179761Y-84091904D01*
X144227380Y-84187142D01*
X144275000Y-84234761D01*
X144370238Y-84282380D01*
X144465476Y-84282380D01*
X144560714Y-84234761D01*
X144608333Y-84187142D01*
X144655952Y-84091904D01*
X144703571Y-83901428D01*
X144703571Y-83663333D01*
X144655952Y-83472857D01*
X144608333Y-83377619D01*
X144560714Y-83330000D01*
X144465476Y-83282380D01*
X143751190Y-83377619D02*
X143703571Y-83330000D01*
X143608333Y-83282380D01*
X143370238Y-83282380D01*
X143275000Y-83330000D01*
X143227380Y-83377619D01*
X143179761Y-83472857D01*
X143179761Y-83568095D01*
X143227380Y-83710952D01*
X143798809Y-84282380D01*
X143179761Y-84282380D01*
X142798809Y-83377619D02*
X142751190Y-83330000D01*
X142655952Y-83282380D01*
X142417857Y-83282380D01*
X142322619Y-83330000D01*
X142275000Y-83377619D01*
X142227380Y-83472857D01*
X142227380Y-83568095D01*
X142275000Y-83710952D01*
X142846428Y-84282380D01*
X142227380Y-84282380D01*
X141798809Y-83901428D02*
X141036904Y-83901428D01*
X140417857Y-83710952D02*
X140513095Y-83663333D01*
X140560714Y-83615714D01*
X140608333Y-83520476D01*
X140608333Y-83472857D01*
X140560714Y-83377619D01*
X140513095Y-83330000D01*
X140417857Y-83282380D01*
X140227380Y-83282380D01*
X140132142Y-83330000D01*
X140084523Y-83377619D01*
X140036904Y-83472857D01*
X140036904Y-83520476D01*
X140084523Y-83615714D01*
X140132142Y-83663333D01*
X140227380Y-83710952D01*
X140417857Y-83710952D01*
X140513095Y-83758571D01*
X140560714Y-83806190D01*
X140608333Y-83901428D01*
X140608333Y-84091904D01*
X140560714Y-84187142D01*
X140513095Y-84234761D01*
X140417857Y-84282380D01*
X140227380Y-84282380D01*
X140132142Y-84234761D01*
X140084523Y-84187142D01*
X140036904Y-84091904D01*
X140036904Y-83901428D01*
X140084523Y-83806190D01*
X140132142Y-83758571D01*
X140227380Y-83710952D01*
X139608333Y-83901428D02*
X138846428Y-83901428D01*
X138417857Y-83377619D02*
X138370238Y-83330000D01*
X138275000Y-83282380D01*
X138036904Y-83282380D01*
X137941666Y-83330000D01*
X137894047Y-83377619D01*
X137846428Y-83472857D01*
X137846428Y-83568095D01*
X137894047Y-83710952D01*
X138465476Y-84282380D01*
X137846428Y-84282380D01*
X137465476Y-83377619D02*
X137417857Y-83330000D01*
X137322619Y-83282380D01*
X137084523Y-83282380D01*
X136989285Y-83330000D01*
X136941666Y-83377619D01*
X136894047Y-83472857D01*
X136894047Y-83568095D01*
X136941666Y-83710952D01*
X137513095Y-84282380D01*
X136894047Y-84282380D01*
X141791000Y-61773095D02*
X141743380Y-61677857D01*
X141743380Y-61535000D01*
X141791000Y-61392142D01*
X141886238Y-61296904D01*
X141981476Y-61249285D01*
X142171952Y-61201666D01*
X142314809Y-61201666D01*
X142505285Y-61249285D01*
X142600523Y-61296904D01*
X142695761Y-61392142D01*
X142743380Y-61535000D01*
X142743380Y-61630238D01*
X142695761Y-61773095D01*
X142648142Y-61820714D01*
X142314809Y-61820714D01*
X142314809Y-61630238D01*
X142743380Y-62249285D02*
X141743380Y-62249285D01*
X142743380Y-62820714D01*
X141743380Y-62820714D01*
X142743380Y-63296904D02*
X141743380Y-63296904D01*
X141743380Y-63535000D01*
X141791000Y-63677857D01*
X141886238Y-63773095D01*
X141981476Y-63820714D01*
X142171952Y-63868333D01*
X142314809Y-63868333D01*
X142505285Y-63820714D01*
X142600523Y-63773095D01*
X142695761Y-63677857D01*
X142743380Y-63535000D01*
X142743380Y-63296904D01*
X139203380Y-61201666D02*
X140203380Y-61535000D01*
X139203380Y-61868333D01*
X140108142Y-62773095D02*
X140155761Y-62725476D01*
X140203380Y-62582619D01*
X140203380Y-62487380D01*
X140155761Y-62344523D01*
X140060523Y-62249285D01*
X139965285Y-62201666D01*
X139774809Y-62154047D01*
X139631952Y-62154047D01*
X139441476Y-62201666D01*
X139346238Y-62249285D01*
X139251000Y-62344523D01*
X139203380Y-62487380D01*
X139203380Y-62582619D01*
X139251000Y-62725476D01*
X139298619Y-62773095D01*
X140108142Y-63773095D02*
X140155761Y-63725476D01*
X140203380Y-63582619D01*
X140203380Y-63487380D01*
X140155761Y-63344523D01*
X140060523Y-63249285D01*
X139965285Y-63201666D01*
X139774809Y-63154047D01*
X139631952Y-63154047D01*
X139441476Y-63201666D01*
X139346238Y-63249285D01*
X139251000Y-63344523D01*
X139203380Y-63487380D01*
X139203380Y-63582619D01*
X139251000Y-63725476D01*
X139298619Y-63773095D01*
X152379571Y-61415952D02*
X152379571Y-61749285D01*
X152903380Y-61892142D02*
X152903380Y-61415952D01*
X151903380Y-61415952D01*
X151903380Y-61892142D01*
X152808142Y-62892142D02*
X152855761Y-62844523D01*
X152903380Y-62701666D01*
X152903380Y-62606428D01*
X152855761Y-62463571D01*
X152760523Y-62368333D01*
X152665285Y-62320714D01*
X152474809Y-62273095D01*
X152331952Y-62273095D01*
X152141476Y-62320714D01*
X152046238Y-62368333D01*
X151951000Y-62463571D01*
X151903380Y-62606428D01*
X151903380Y-62701666D01*
X151951000Y-62844523D01*
X151998619Y-62892142D01*
X152903380Y-63796904D02*
X152903380Y-63320714D01*
X151903380Y-63320714D01*
X157983380Y-61630238D02*
X156983380Y-61630238D01*
X157983380Y-62106428D02*
X156983380Y-62106428D01*
X157983380Y-62677857D01*
X156983380Y-62677857D01*
X156983380Y-63011190D02*
X156983380Y-63582619D01*
X157983380Y-63296904D02*
X156983380Y-63296904D01*
X160777380Y-60638095D02*
X159777380Y-60638095D01*
X160777380Y-61209523D01*
X159777380Y-61209523D01*
X160682142Y-62257142D02*
X160729761Y-62209523D01*
X160777380Y-62066666D01*
X160777380Y-61971428D01*
X160729761Y-61828571D01*
X160634523Y-61733333D01*
X160539285Y-61685714D01*
X160348809Y-61638095D01*
X160205952Y-61638095D01*
X160015476Y-61685714D01*
X159920238Y-61733333D01*
X159825000Y-61828571D01*
X159777380Y-61971428D01*
X159777380Y-62066666D01*
X159825000Y-62209523D01*
X159872619Y-62257142D01*
X160729761Y-62638095D02*
X160777380Y-62780952D01*
X160777380Y-63019047D01*
X160729761Y-63114285D01*
X160682142Y-63161904D01*
X160586904Y-63209523D01*
X160491666Y-63209523D01*
X160396428Y-63161904D01*
X160348809Y-63114285D01*
X160301190Y-63019047D01*
X160253571Y-62828571D01*
X160205952Y-62733333D01*
X160158333Y-62685714D01*
X160063095Y-62638095D01*
X159967857Y-62638095D01*
X159872619Y-62685714D01*
X159825000Y-62733333D01*
X159777380Y-62828571D01*
X159777380Y-63066666D01*
X159825000Y-63209523D01*
X156760238Y-56002380D02*
X156760238Y-55002380D01*
X156426904Y-55716666D01*
X156093571Y-55002380D01*
X156093571Y-56002380D01*
X155617380Y-56002380D02*
X155617380Y-55002380D01*
X155236428Y-55002380D01*
X155141190Y-55050000D01*
X155093571Y-55097619D01*
X155045952Y-55192857D01*
X155045952Y-55335714D01*
X155093571Y-55430952D01*
X155141190Y-55478571D01*
X155236428Y-55526190D01*
X155617380Y-55526190D01*
X154617380Y-55002380D02*
X154617380Y-55811904D01*
X154569761Y-55907142D01*
X154522142Y-55954761D01*
X154426904Y-56002380D01*
X154236428Y-56002380D01*
X154141190Y-55954761D01*
X154093571Y-55907142D01*
X154045952Y-55811904D01*
X154045952Y-55002380D01*
X153522142Y-56002380D02*
X153331666Y-56002380D01*
X153236428Y-55954761D01*
X153188809Y-55907142D01*
X153093571Y-55764285D01*
X153045952Y-55573809D01*
X153045952Y-55192857D01*
X153093571Y-55097619D01*
X153141190Y-55050000D01*
X153236428Y-55002380D01*
X153426904Y-55002380D01*
X153522142Y-55050000D01*
X153569761Y-55097619D01*
X153617380Y-55192857D01*
X153617380Y-55430952D01*
X153569761Y-55526190D01*
X153522142Y-55573809D01*
X153426904Y-55621428D01*
X153236428Y-55621428D01*
X153141190Y-55573809D01*
X153093571Y-55526190D01*
X153045952Y-55430952D01*
X152665000Y-55097619D02*
X152617380Y-55050000D01*
X152522142Y-55002380D01*
X152284047Y-55002380D01*
X152188809Y-55050000D01*
X152141190Y-55097619D01*
X152093571Y-55192857D01*
X152093571Y-55288095D01*
X152141190Y-55430952D01*
X152712619Y-56002380D01*
X152093571Y-56002380D01*
X151188809Y-55002380D02*
X151665000Y-55002380D01*
X151712619Y-55478571D01*
X151665000Y-55430952D01*
X151569761Y-55383333D01*
X151331666Y-55383333D01*
X151236428Y-55430952D01*
X151188809Y-55478571D01*
X151141190Y-55573809D01*
X151141190Y-55811904D01*
X151188809Y-55907142D01*
X151236428Y-55954761D01*
X151331666Y-56002380D01*
X151569761Y-56002380D01*
X151665000Y-55954761D01*
X151712619Y-55907142D01*
X150522142Y-55002380D02*
X150426904Y-55002380D01*
X150331666Y-55050000D01*
X150284047Y-55097619D01*
X150236428Y-55192857D01*
X150188809Y-55383333D01*
X150188809Y-55621428D01*
X150236428Y-55811904D01*
X150284047Y-55907142D01*
X150331666Y-55954761D01*
X150426904Y-56002380D01*
X150522142Y-56002380D01*
X150617380Y-55954761D01*
X150665000Y-55907142D01*
X150712619Y-55811904D01*
X150760238Y-55621428D01*
X150760238Y-55383333D01*
X150712619Y-55192857D01*
X150665000Y-55097619D01*
X150617380Y-55050000D01*
X150522142Y-55002380D01*
X149760238Y-55621428D02*
X148998333Y-55621428D01*
X148522142Y-56002380D02*
X148522142Y-55335714D01*
X148522142Y-55430952D02*
X148474523Y-55383333D01*
X148379285Y-55335714D01*
X148236428Y-55335714D01*
X148141190Y-55383333D01*
X148093571Y-55478571D01*
X148093571Y-56002380D01*
X148093571Y-55478571D02*
X148045952Y-55383333D01*
X147950714Y-55335714D01*
X147807857Y-55335714D01*
X147712619Y-55383333D01*
X147665000Y-55478571D01*
X147665000Y-56002380D01*
X147045952Y-56002380D02*
X147141190Y-55954761D01*
X147188809Y-55907142D01*
X147236428Y-55811904D01*
X147236428Y-55526190D01*
X147188809Y-55430952D01*
X147141190Y-55383333D01*
X147045952Y-55335714D01*
X146903095Y-55335714D01*
X146807857Y-55383333D01*
X146760238Y-55430952D01*
X146712619Y-55526190D01*
X146712619Y-55811904D01*
X146760238Y-55907142D01*
X146807857Y-55954761D01*
X146903095Y-56002380D01*
X147045952Y-56002380D01*
X145855476Y-56002380D02*
X145855476Y-55002380D01*
X145855476Y-55954761D02*
X145950714Y-56002380D01*
X146141190Y-56002380D01*
X146236428Y-55954761D01*
X146284047Y-55907142D01*
X146331666Y-55811904D01*
X146331666Y-55526190D01*
X146284047Y-55430952D01*
X146236428Y-55383333D01*
X146141190Y-55335714D01*
X145950714Y-55335714D01*
X145855476Y-55383333D01*
X144950714Y-55335714D02*
X144950714Y-56002380D01*
X145379285Y-55335714D02*
X145379285Y-55859523D01*
X145331666Y-55954761D01*
X145236428Y-56002380D01*
X145093571Y-56002380D01*
X144998333Y-55954761D01*
X144950714Y-55907142D01*
X144331666Y-56002380D02*
X144426904Y-55954761D01*
X144474523Y-55859523D01*
X144474523Y-55002380D01*
X143569761Y-55954761D02*
X143665000Y-56002380D01*
X143855476Y-56002380D01*
X143950714Y-55954761D01*
X143998333Y-55859523D01*
X143998333Y-55478571D01*
X143950714Y-55383333D01*
X143855476Y-55335714D01*
X143665000Y-55335714D01*
X143569761Y-55383333D01*
X143522142Y-55478571D01*
X143522142Y-55573809D01*
X143998333Y-55669047D01*
X155157666Y-61320714D02*
X155157666Y-61796904D01*
X155443380Y-61225476D02*
X154443380Y-61558809D01*
X155443380Y-61892142D01*
X155443380Y-62225476D02*
X154443380Y-62225476D01*
X154443380Y-62463571D01*
X154491000Y-62606428D01*
X154586238Y-62701666D01*
X154681476Y-62749285D01*
X154871952Y-62796904D01*
X155014809Y-62796904D01*
X155205285Y-62749285D01*
X155300523Y-62701666D01*
X155395761Y-62606428D01*
X155443380Y-62463571D01*
X155443380Y-62225476D01*
X154443380Y-63415952D02*
X154443380Y-63511190D01*
X154491000Y-63606428D01*
X154538619Y-63654047D01*
X154633857Y-63701666D01*
X154824333Y-63749285D01*
X155062428Y-63749285D01*
X155252904Y-63701666D01*
X155348142Y-63654047D01*
X155395761Y-63606428D01*
X155443380Y-63511190D01*
X155443380Y-63415952D01*
X155395761Y-63320714D01*
X155348142Y-63273095D01*
X155252904Y-63225476D01*
X155062428Y-63177857D01*
X154824333Y-63177857D01*
X154633857Y-63225476D01*
X154538619Y-63273095D01*
X154491000Y-63320714D01*
X154443380Y-63415952D01*
X147775761Y-61320714D02*
X147823380Y-61463571D01*
X147823380Y-61701666D01*
X147775761Y-61796904D01*
X147728142Y-61844523D01*
X147632904Y-61892142D01*
X147537666Y-61892142D01*
X147442428Y-61844523D01*
X147394809Y-61796904D01*
X147347190Y-61701666D01*
X147299571Y-61511190D01*
X147251952Y-61415952D01*
X147204333Y-61368333D01*
X147109095Y-61320714D01*
X147013857Y-61320714D01*
X146918619Y-61368333D01*
X146871000Y-61415952D01*
X146823380Y-61511190D01*
X146823380Y-61749285D01*
X146871000Y-61892142D01*
X147823380Y-62320714D02*
X146823380Y-62320714D01*
X146823380Y-62558809D01*
X146871000Y-62701666D01*
X146966238Y-62796904D01*
X147061476Y-62844523D01*
X147251952Y-62892142D01*
X147394809Y-62892142D01*
X147585285Y-62844523D01*
X147680523Y-62796904D01*
X147775761Y-62701666D01*
X147823380Y-62558809D01*
X147823380Y-62320714D01*
X147537666Y-63273095D02*
X147537666Y-63749285D01*
X147823380Y-63177857D02*
X146823380Y-63511190D01*
X147823380Y-63844523D01*
X145235761Y-61344523D02*
X145283380Y-61487380D01*
X145283380Y-61725476D01*
X145235761Y-61820714D01*
X145188142Y-61868333D01*
X145092904Y-61915952D01*
X144997666Y-61915952D01*
X144902428Y-61868333D01*
X144854809Y-61820714D01*
X144807190Y-61725476D01*
X144759571Y-61535000D01*
X144711952Y-61439761D01*
X144664333Y-61392142D01*
X144569095Y-61344523D01*
X144473857Y-61344523D01*
X144378619Y-61392142D01*
X144331000Y-61439761D01*
X144283380Y-61535000D01*
X144283380Y-61773095D01*
X144331000Y-61915952D01*
X145188142Y-62915952D02*
X145235761Y-62868333D01*
X145283380Y-62725476D01*
X145283380Y-62630238D01*
X145235761Y-62487380D01*
X145140523Y-62392142D01*
X145045285Y-62344523D01*
X144854809Y-62296904D01*
X144711952Y-62296904D01*
X144521476Y-62344523D01*
X144426238Y-62392142D01*
X144331000Y-62487380D01*
X144283380Y-62630238D01*
X144283380Y-62725476D01*
X144331000Y-62868333D01*
X144378619Y-62915952D01*
X145283380Y-63820714D02*
X145283380Y-63344523D01*
X144283380Y-63344523D01*
X149839571Y-61392142D02*
X149839571Y-61725476D01*
X150363380Y-61868333D02*
X150363380Y-61392142D01*
X149363380Y-61392142D01*
X149363380Y-61868333D01*
X150363380Y-62296904D02*
X149363380Y-62296904D01*
X149363380Y-62535000D01*
X149411000Y-62677857D01*
X149506238Y-62773095D01*
X149601476Y-62820714D01*
X149791952Y-62868333D01*
X149934809Y-62868333D01*
X150125285Y-62820714D01*
X150220523Y-62773095D01*
X150315761Y-62677857D01*
X150363380Y-62535000D01*
X150363380Y-62296904D01*
X150077666Y-63249285D02*
X150077666Y-63725476D01*
X150363380Y-63154047D02*
X149363380Y-63487380D01*
X150363380Y-63820714D01*
X162793571Y-59479285D02*
X162793571Y-59145952D01*
X163317380Y-59145952D02*
X162317380Y-59145952D01*
X162317380Y-59622142D01*
X163269761Y-59955476D02*
X163317380Y-60098333D01*
X163317380Y-60336428D01*
X163269761Y-60431666D01*
X163222142Y-60479285D01*
X163126904Y-60526904D01*
X163031666Y-60526904D01*
X162936428Y-60479285D01*
X162888809Y-60431666D01*
X162841190Y-60336428D01*
X162793571Y-60145952D01*
X162745952Y-60050714D01*
X162698333Y-60003095D01*
X162603095Y-59955476D01*
X162507857Y-59955476D01*
X162412619Y-60003095D01*
X162365000Y-60050714D01*
X162317380Y-60145952D01*
X162317380Y-60384047D01*
X162365000Y-60526904D01*
X162841190Y-61145952D02*
X163317380Y-61145952D01*
X162317380Y-60812619D02*
X162841190Y-61145952D01*
X162317380Y-61479285D01*
X163317380Y-61812619D02*
X162317380Y-61812619D01*
X163317380Y-62384047D01*
X162317380Y-62384047D01*
X163222142Y-63431666D02*
X163269761Y-63384047D01*
X163317380Y-63241190D01*
X163317380Y-63145952D01*
X163269761Y-63003095D01*
X163174523Y-62907857D01*
X163079285Y-62860238D01*
X162888809Y-62812619D01*
X162745952Y-62812619D01*
X162555476Y-62860238D01*
X162460238Y-62907857D01*
X162365000Y-63003095D01*
X162317380Y-63145952D01*
X162317380Y-63241190D01*
X162365000Y-63384047D01*
X162412619Y-63431666D01*
X126201666Y-64387142D02*
X126249285Y-64434761D01*
X126392142Y-64482380D01*
X126487380Y-64482380D01*
X126630238Y-64434761D01*
X126725476Y-64339523D01*
X126773095Y-64244285D01*
X126820714Y-64053809D01*
X126820714Y-63910952D01*
X126773095Y-63720476D01*
X126725476Y-63625238D01*
X126630238Y-63530000D01*
X126487380Y-63482380D01*
X126392142Y-63482380D01*
X126249285Y-63530000D01*
X126201666Y-63577619D01*
X125868333Y-63482380D02*
X125249285Y-63482380D01*
X125582619Y-63863333D01*
X125439761Y-63863333D01*
X125344523Y-63910952D01*
X125296904Y-63958571D01*
X125249285Y-64053809D01*
X125249285Y-64291904D01*
X125296904Y-64387142D01*
X125344523Y-64434761D01*
X125439761Y-64482380D01*
X125725476Y-64482380D01*
X125820714Y-64434761D01*
X125868333Y-64387142D01*
X129686190Y-73681190D02*
X129686190Y-74157380D01*
X130019523Y-73157380D02*
X129686190Y-73681190D01*
X129352857Y-73157380D01*
X128495714Y-74157380D02*
X129067142Y-74157380D01*
X128781428Y-74157380D02*
X128781428Y-73157380D01*
X128876666Y-73300238D01*
X128971904Y-73395476D01*
X129067142Y-73443095D01*
X123026666Y-60958142D02*
X123074285Y-61005761D01*
X123217142Y-61053380D01*
X123312380Y-61053380D01*
X123455238Y-61005761D01*
X123550476Y-60910523D01*
X123598095Y-60815285D01*
X123645714Y-60624809D01*
X123645714Y-60481952D01*
X123598095Y-60291476D01*
X123550476Y-60196238D01*
X123455238Y-60101000D01*
X123312380Y-60053380D01*
X123217142Y-60053380D01*
X123074285Y-60101000D01*
X123026666Y-60148619D01*
X122169523Y-60053380D02*
X122360000Y-60053380D01*
X122455238Y-60101000D01*
X122502857Y-60148619D01*
X122598095Y-60291476D01*
X122645714Y-60481952D01*
X122645714Y-60862904D01*
X122598095Y-60958142D01*
X122550476Y-61005761D01*
X122455238Y-61053380D01*
X122264761Y-61053380D01*
X122169523Y-61005761D01*
X122121904Y-60958142D01*
X122074285Y-60862904D01*
X122074285Y-60624809D01*
X122121904Y-60529571D01*
X122169523Y-60481952D01*
X122264761Y-60434333D01*
X122455238Y-60434333D01*
X122550476Y-60481952D01*
X122598095Y-60529571D01*
X122645714Y-60624809D01*
X142076666Y-58447142D02*
X142124285Y-58494761D01*
X142267142Y-58542380D01*
X142362380Y-58542380D01*
X142505238Y-58494761D01*
X142600476Y-58399523D01*
X142648095Y-58304285D01*
X142695714Y-58113809D01*
X142695714Y-57970952D01*
X142648095Y-57780476D01*
X142600476Y-57685238D01*
X142505238Y-57590000D01*
X142362380Y-57542380D01*
X142267142Y-57542380D01*
X142124285Y-57590000D01*
X142076666Y-57637619D01*
X141219523Y-57875714D02*
X141219523Y-58542380D01*
X141457619Y-57494761D02*
X141695714Y-58209047D01*
X141076666Y-58209047D01*
X134416904Y-61987380D02*
X134416904Y-62796904D01*
X134369285Y-62892142D01*
X134321666Y-62939761D01*
X134226428Y-62987380D01*
X134035952Y-62987380D01*
X133940714Y-62939761D01*
X133893095Y-62892142D01*
X133845476Y-62796904D01*
X133845476Y-61987380D01*
X133464523Y-61987380D02*
X132845476Y-61987380D01*
X133178809Y-62368333D01*
X133035952Y-62368333D01*
X132940714Y-62415952D01*
X132893095Y-62463571D01*
X132845476Y-62558809D01*
X132845476Y-62796904D01*
X132893095Y-62892142D01*
X132940714Y-62939761D01*
X133035952Y-62987380D01*
X133321666Y-62987380D01*
X133416904Y-62939761D01*
X133464523Y-62892142D01*
X122391666Y-52828380D02*
X122725000Y-52352190D01*
X122963095Y-52828380D02*
X122963095Y-51828380D01*
X122582142Y-51828380D01*
X122486904Y-51876000D01*
X122439285Y-51923619D01*
X122391666Y-52018857D01*
X122391666Y-52161714D01*
X122439285Y-52256952D01*
X122486904Y-52304571D01*
X122582142Y-52352190D01*
X122963095Y-52352190D01*
X121486904Y-51828380D02*
X121963095Y-51828380D01*
X122010714Y-52304571D01*
X121963095Y-52256952D01*
X121867857Y-52209333D01*
X121629761Y-52209333D01*
X121534523Y-52256952D01*
X121486904Y-52304571D01*
X121439285Y-52399809D01*
X121439285Y-52637904D01*
X121486904Y-52733142D01*
X121534523Y-52780761D01*
X121629761Y-52828380D01*
X121867857Y-52828380D01*
X121963095Y-52780761D01*
X122010714Y-52733142D01*
X114771666Y-61337380D02*
X115105000Y-60861190D01*
X115343095Y-61337380D02*
X115343095Y-60337380D01*
X114962142Y-60337380D01*
X114866904Y-60385000D01*
X114819285Y-60432619D01*
X114771666Y-60527857D01*
X114771666Y-60670714D01*
X114819285Y-60765952D01*
X114866904Y-60813571D01*
X114962142Y-60861190D01*
X115343095Y-60861190D01*
X113914523Y-60337380D02*
X114105000Y-60337380D01*
X114200238Y-60385000D01*
X114247857Y-60432619D01*
X114343095Y-60575476D01*
X114390714Y-60765952D01*
X114390714Y-61146904D01*
X114343095Y-61242142D01*
X114295476Y-61289761D01*
X114200238Y-61337380D01*
X114009761Y-61337380D01*
X113914523Y-61289761D01*
X113866904Y-61242142D01*
X113819285Y-61146904D01*
X113819285Y-60908809D01*
X113866904Y-60813571D01*
X113914523Y-60765952D01*
X114009761Y-60718333D01*
X114200238Y-60718333D01*
X114295476Y-60765952D01*
X114343095Y-60813571D01*
X114390714Y-60908809D01*
X132551666Y-64387142D02*
X132599285Y-64434761D01*
X132742142Y-64482380D01*
X132837380Y-64482380D01*
X132980238Y-64434761D01*
X133075476Y-64339523D01*
X133123095Y-64244285D01*
X133170714Y-64053809D01*
X133170714Y-63910952D01*
X133123095Y-63720476D01*
X133075476Y-63625238D01*
X132980238Y-63530000D01*
X132837380Y-63482380D01*
X132742142Y-63482380D01*
X132599285Y-63530000D01*
X132551666Y-63577619D01*
X131646904Y-63482380D02*
X132123095Y-63482380D01*
X132170714Y-63958571D01*
X132123095Y-63910952D01*
X132027857Y-63863333D01*
X131789761Y-63863333D01*
X131694523Y-63910952D01*
X131646904Y-63958571D01*
X131599285Y-64053809D01*
X131599285Y-64291904D01*
X131646904Y-64387142D01*
X131694523Y-64434761D01*
X131789761Y-64482380D01*
X132027857Y-64482380D01*
X132123095Y-64434761D01*
X132170714Y-64387142D01*
X136996666Y-67432380D02*
X137330000Y-66956190D01*
X137568095Y-67432380D02*
X137568095Y-66432380D01*
X137187142Y-66432380D01*
X137091904Y-66480000D01*
X137044285Y-66527619D01*
X136996666Y-66622857D01*
X136996666Y-66765714D01*
X137044285Y-66860952D01*
X137091904Y-66908571D01*
X137187142Y-66956190D01*
X137568095Y-66956190D01*
X136663333Y-66432380D02*
X135996666Y-66432380D01*
X136425238Y-67432380D01*
X131876904Y-53097380D02*
X131876904Y-53906904D01*
X131829285Y-54002142D01*
X131781666Y-54049761D01*
X131686428Y-54097380D01*
X131495952Y-54097380D01*
X131400714Y-54049761D01*
X131353095Y-54002142D01*
X131305476Y-53906904D01*
X131305476Y-53097380D01*
X130876904Y-53192619D02*
X130829285Y-53145000D01*
X130734047Y-53097380D01*
X130495952Y-53097380D01*
X130400714Y-53145000D01*
X130353095Y-53192619D01*
X130305476Y-53287857D01*
X130305476Y-53383095D01*
X130353095Y-53525952D01*
X130924523Y-54097380D01*
X130305476Y-54097380D01*
G36*
X147502754Y-75360103D02*
G01*
X147750821Y-75360894D01*
X147944271Y-75364254D01*
X148089894Y-75372055D01*
X148194481Y-75386166D01*
X148264824Y-75408459D01*
X148307714Y-75440803D01*
X148329941Y-75485070D01*
X148338297Y-75543129D01*
X148339574Y-75616851D01*
X148339574Y-75774391D01*
X146429799Y-75774391D01*
X146430287Y-75638946D01*
X146430521Y-75611471D01*
X146434839Y-75538510D01*
X146449728Y-75481226D01*
X146481823Y-75437724D01*
X146537761Y-75406110D01*
X146624178Y-75384492D01*
X146747708Y-75370974D01*
X146914989Y-75363664D01*
X147132654Y-75360666D01*
X147407341Y-75360088D01*
X147502754Y-75360103D01*
G37*
G36*
X141941829Y-76345706D02*
G01*
X141940826Y-76493590D01*
X141936487Y-76598725D01*
X141927078Y-76662072D01*
X141910869Y-76694908D01*
X141886128Y-76708508D01*
X141864720Y-76713379D01*
X141761904Y-76725111D01*
X141655470Y-76724456D01*
X141578393Y-76711132D01*
X141563879Y-76702207D01*
X141545948Y-76670071D01*
X141535000Y-76607054D01*
X141529533Y-76502220D01*
X141528045Y-76344633D01*
X141528045Y-75997478D01*
X141941829Y-75997478D01*
X141941829Y-76345706D01*
G37*
G36*
X143705011Y-77629389D02*
G01*
X143899348Y-77638758D01*
X143908588Y-77901377D01*
X143909919Y-77948980D01*
X143906091Y-78105314D01*
X143885034Y-78212705D01*
X143843416Y-78281921D01*
X143777907Y-78323730D01*
X143731835Y-78330961D01*
X143630041Y-78337938D01*
X143482493Y-78344010D01*
X143298351Y-78348877D01*
X143086777Y-78352241D01*
X142856930Y-78353802D01*
X142005489Y-78355822D01*
X142005489Y-78037127D01*
X142697782Y-78036639D01*
X142778104Y-78036406D01*
X142976830Y-78034250D01*
X143151431Y-78030144D01*
X143292023Y-78024451D01*
X143388723Y-78017532D01*
X143431648Y-78009750D01*
X143450520Y-77982488D01*
X143474897Y-77905343D01*
X143491948Y-77801685D01*
X143510674Y-77620021D01*
X143705011Y-77629389D01*
G37*
G36*
X143541300Y-75360122D02*
G01*
X143784886Y-75361076D01*
X143974684Y-75364712D01*
X144117405Y-75372836D01*
X144219758Y-75387251D01*
X144288455Y-75409762D01*
X144330205Y-75442173D01*
X144351719Y-75486289D01*
X144359706Y-75543913D01*
X144360877Y-75616851D01*
X144360877Y-75774391D01*
X142451103Y-75774391D01*
X142451103Y-75616851D01*
X142451231Y-75580467D01*
X142454778Y-75514968D01*
X142468301Y-75463933D01*
X142498512Y-75425556D01*
X142552121Y-75398034D01*
X142635838Y-75379562D01*
X142756373Y-75368335D01*
X142920437Y-75362550D01*
X143134739Y-75360403D01*
X143405990Y-75360088D01*
X143541300Y-75360122D01*
G37*
G36*
X141782682Y-78355822D02*
G01*
X140509499Y-78355822D01*
X140509499Y-78037127D01*
X141365859Y-78037127D01*
X141375336Y-77837942D01*
X141384812Y-77638758D01*
X141782682Y-77619782D01*
X141782682Y-78355822D01*
G37*
G36*
X150029367Y-74120117D02*
G01*
X150069492Y-74285835D01*
X150103340Y-74423912D01*
X150128097Y-74522892D01*
X150140949Y-74571317D01*
X150144891Y-74589611D01*
X150133152Y-74613574D01*
X150084223Y-74624496D01*
X149984920Y-74627089D01*
X149889173Y-74625394D01*
X149833138Y-74614051D01*
X149806416Y-74583766D01*
X149791349Y-74525249D01*
X149789932Y-74518248D01*
X149766237Y-74412802D01*
X149738399Y-74302163D01*
X149705792Y-74180916D01*
X149295009Y-74180916D01*
X149187222Y-74180304D01*
X149014919Y-74173368D01*
X148890807Y-74154236D01*
X148804663Y-74117413D01*
X148746270Y-74057402D01*
X148705405Y-73968708D01*
X148671848Y-73845835D01*
X148649188Y-73742258D01*
X148627651Y-73594525D01*
X148628435Y-73575395D01*
X148943123Y-73575395D01*
X148962602Y-73663036D01*
X148978762Y-73732850D01*
X148997183Y-73806449D01*
X149004544Y-73823709D01*
X149030641Y-73843605D01*
X149084650Y-73855301D01*
X149178475Y-73860829D01*
X149324020Y-73862221D01*
X149635755Y-73862221D01*
X149602978Y-73718808D01*
X149570202Y-73575395D01*
X148943123Y-73575395D01*
X148628435Y-73575395D01*
X148632080Y-73486430D01*
X148663758Y-73405487D01*
X148723971Y-73339207D01*
X148765160Y-73306736D01*
X148808233Y-73283158D01*
X148863583Y-73268452D01*
X148944055Y-73260532D01*
X149062495Y-73257310D01*
X149231746Y-73256700D01*
X149330445Y-73257221D01*
X149507882Y-73262863D01*
X149636479Y-73276488D01*
X149726324Y-73300300D01*
X149787507Y-73336499D01*
X149830116Y-73387287D01*
X149844004Y-73420157D01*
X149872586Y-73509852D01*
X149909679Y-73641264D01*
X149952025Y-73802726D01*
X149966693Y-73862221D01*
X149996365Y-73982573D01*
X150029367Y-74120117D01*
G37*
G36*
X143492935Y-76990790D02*
G01*
X143615518Y-76998014D01*
X143705131Y-77010117D01*
X143769498Y-77027811D01*
X143816339Y-77051807D01*
X143853379Y-77082819D01*
X143888975Y-77141654D01*
X143912564Y-77231323D01*
X143915529Y-77319545D01*
X143894043Y-77378490D01*
X143890085Y-77380024D01*
X143837831Y-77385296D01*
X143732273Y-77390013D01*
X143581518Y-77393996D01*
X143393675Y-77397065D01*
X143176851Y-77399039D01*
X142939156Y-77399736D01*
X142005489Y-77399736D01*
X142005489Y-77261263D01*
X142005745Y-77241557D01*
X142023033Y-77134218D01*
X142072420Y-77062079D01*
X142082910Y-77053200D01*
X142112451Y-77035398D01*
X142155052Y-77021842D01*
X142219146Y-77011772D01*
X142313165Y-77004428D01*
X142445543Y-76999048D01*
X142624713Y-76994873D01*
X142859109Y-76991143D01*
X143117973Y-76988130D01*
X143329661Y-76987733D01*
X143492935Y-76990790D01*
G37*
G36*
X140318521Y-76296336D02*
G01*
X140318416Y-76340484D01*
X140314368Y-76480767D01*
X140300120Y-76573668D01*
X140269809Y-76632215D01*
X140217569Y-76669433D01*
X140137536Y-76698349D01*
X140097947Y-76704192D01*
X139998565Y-76710525D01*
X139852986Y-76715511D01*
X139670936Y-76718915D01*
X139462138Y-76720502D01*
X139236316Y-76720040D01*
X138424661Y-76714542D01*
X138415030Y-76564869D01*
X138405398Y-76415196D01*
X139124443Y-76405521D01*
X139344270Y-76402573D01*
X139535854Y-76398625D01*
X139677862Y-76391627D01*
X139777714Y-76379137D01*
X139842826Y-76358714D01*
X139880618Y-76327917D01*
X139898507Y-76284302D01*
X139903911Y-76225430D01*
X139904249Y-76148858D01*
X139904737Y-75997478D01*
X140318521Y-75997478D01*
X140318521Y-76296336D01*
G37*
G36*
X142149549Y-75367963D02*
G01*
X142246633Y-75374296D01*
X142304150Y-75384601D01*
X142328939Y-75399217D01*
X142345437Y-75451928D01*
X142354170Y-75545909D01*
X142351256Y-75646804D01*
X142336040Y-75724642D01*
X142328702Y-75736867D01*
X142305399Y-75751226D01*
X142260019Y-75761126D01*
X142184250Y-75767114D01*
X142069780Y-75769739D01*
X141908298Y-75769547D01*
X141691491Y-75767085D01*
X141066516Y-75758457D01*
X141066516Y-75376022D01*
X141684877Y-75367347D01*
X141809340Y-75365862D01*
X142006064Y-75365265D01*
X142149549Y-75367963D01*
G37*
G36*
X146238822Y-75774391D02*
G01*
X146031930Y-75774391D01*
X145984975Y-75774041D01*
X145888204Y-75768305D01*
X145838850Y-75753401D01*
X145825037Y-75726587D01*
X145825033Y-75725993D01*
X145815140Y-75705941D01*
X145779871Y-75692340D01*
X145709662Y-75684044D01*
X145594950Y-75679907D01*
X145426169Y-75678783D01*
X145278627Y-75679687D01*
X145152816Y-75683773D01*
X145072510Y-75692198D01*
X145027850Y-75706093D01*
X145008979Y-75726587D01*
X145008946Y-75726674D01*
X144979002Y-75754835D01*
X144908909Y-75769915D01*
X144787171Y-75774391D01*
X144583684Y-75774391D01*
X144583684Y-75616851D01*
X144583690Y-75607077D01*
X144585661Y-75534149D01*
X144595952Y-75477207D01*
X144621479Y-75434271D01*
X144669161Y-75403366D01*
X144745915Y-75382513D01*
X144858657Y-75369736D01*
X145014306Y-75363058D01*
X145219780Y-75360501D01*
X145481994Y-75360088D01*
X146238822Y-75360088D01*
X146238822Y-75774391D01*
G37*
G36*
X139481701Y-75360103D02*
G01*
X139729769Y-75360894D01*
X139923218Y-75364254D01*
X140068841Y-75372055D01*
X140173428Y-75386166D01*
X140243771Y-75408459D01*
X140286661Y-75440803D01*
X140308888Y-75485070D01*
X140317245Y-75543129D01*
X140318521Y-75616851D01*
X140318521Y-75774391D01*
X138408747Y-75774391D01*
X138409234Y-75638946D01*
X138409469Y-75611471D01*
X138413786Y-75538510D01*
X138428675Y-75481226D01*
X138460771Y-75437724D01*
X138516709Y-75406110D01*
X138603125Y-75384492D01*
X138726656Y-75370974D01*
X138893936Y-75363664D01*
X139111602Y-75360666D01*
X139386289Y-75360088D01*
X139481701Y-75360103D01*
G37*
G36*
X137545189Y-75360915D02*
G01*
X137756565Y-75363174D01*
X137916792Y-75369393D01*
X138033145Y-75381678D01*
X138112901Y-75402137D01*
X138163336Y-75432877D01*
X138191725Y-75476005D01*
X138205347Y-75533627D01*
X138211475Y-75607851D01*
X138221096Y-75774391D01*
X138016438Y-75774391D01*
X137929404Y-75772109D01*
X137826151Y-75757070D01*
X137772155Y-75726587D01*
X137769349Y-75723437D01*
X137732423Y-75701892D01*
X137664058Y-75688160D01*
X137553551Y-75680904D01*
X137390200Y-75678783D01*
X137367619Y-75678810D01*
X137211124Y-75681473D01*
X137106198Y-75689430D01*
X137042139Y-75704022D01*
X137008245Y-75726587D01*
X136972540Y-75750684D01*
X136887680Y-75768762D01*
X136749712Y-75774391D01*
X136530802Y-75774391D01*
X136530802Y-75616851D01*
X136531412Y-75563996D01*
X136537995Y-75497900D01*
X136557786Y-75447891D01*
X136597992Y-75411735D01*
X136665820Y-75387199D01*
X136768477Y-75372047D01*
X136913171Y-75364046D01*
X137107108Y-75360961D01*
X137357496Y-75360558D01*
X137545189Y-75360915D01*
G37*
G36*
X142871181Y-76164018D02*
G01*
X142878005Y-76238186D01*
X142896919Y-76307965D01*
X142935581Y-76356179D01*
X143002752Y-76386391D01*
X143107191Y-76402162D01*
X143257658Y-76407056D01*
X143462914Y-76404633D01*
X143597983Y-76401497D01*
X143743583Y-76394544D01*
X143841587Y-76380191D01*
X143901442Y-76353443D01*
X143932597Y-76309302D01*
X143944502Y-76242773D01*
X143946605Y-76148858D01*
X143947093Y-75997478D01*
X144360877Y-75997478D01*
X144360877Y-76296336D01*
X144360770Y-76341096D01*
X144356739Y-76480955D01*
X144342524Y-76573582D01*
X144312237Y-76632085D01*
X144259989Y-76669568D01*
X144179892Y-76699138D01*
X144158596Y-76703205D01*
X144073592Y-76710329D01*
X143940527Y-76715927D01*
X143769779Y-76719725D01*
X143571725Y-76721450D01*
X143356743Y-76720829D01*
X143200982Y-76719554D01*
X142970258Y-76716696D01*
X142792429Y-76710349D01*
X142660619Y-76697313D01*
X142567951Y-76674390D01*
X142507550Y-76638380D01*
X142472541Y-76586086D01*
X142456047Y-76514307D01*
X142451193Y-76419846D01*
X142451103Y-76299504D01*
X142451103Y-75997478D01*
X142861560Y-75997478D01*
X142871181Y-76164018D01*
G37*
G36*
X136151282Y-72827968D02*
G01*
X136171808Y-72851204D01*
X136214786Y-72919083D01*
X136264938Y-73011967D01*
X136332080Y-73140522D01*
X136397289Y-73247142D01*
X136454456Y-73311774D01*
X136512172Y-73343726D01*
X136579029Y-73352309D01*
X136617906Y-73350372D01*
X136665557Y-73335796D01*
X136712902Y-73298190D01*
X136771586Y-73227404D01*
X136853256Y-73113287D01*
X136891031Y-73060917D01*
X136967698Y-72965195D01*
X137031511Y-72898992D01*
X137071547Y-72874266D01*
X137073702Y-72874321D01*
X137131673Y-72885466D01*
X137228426Y-72912219D01*
X137344213Y-72949157D01*
X137565263Y-73024049D01*
X137565263Y-73333406D01*
X137565265Y-73343934D01*
X137566451Y-73484326D01*
X137571925Y-73576197D01*
X137584762Y-73633876D01*
X137608040Y-73671694D01*
X137644837Y-73703979D01*
X137701929Y-73741224D01*
X137765855Y-73760131D01*
X137844301Y-73754419D01*
X137951437Y-73722855D01*
X138101433Y-73664204D01*
X138351137Y-73561281D01*
X138443155Y-73671914D01*
X138457020Y-73688765D01*
X138541057Y-73795772D01*
X138618886Y-73901139D01*
X138702599Y-74019731D01*
X138539758Y-74239667D01*
X138453627Y-74360141D01*
X138402700Y-74448182D01*
X138383314Y-74518883D01*
X138391082Y-74588309D01*
X138421621Y-74672524D01*
X138433356Y-74699452D01*
X138461889Y-74745553D01*
X138505123Y-74775190D01*
X138579167Y-74796830D01*
X138700130Y-74818945D01*
X138756585Y-74828585D01*
X138899444Y-74856094D01*
X138992638Y-74882433D01*
X139046461Y-74912693D01*
X139071207Y-74951961D01*
X139077168Y-75005325D01*
X139065733Y-75071982D01*
X139026820Y-75117657D01*
X138997717Y-75123978D01*
X138908726Y-75131584D01*
X138781227Y-75135906D01*
X138629814Y-75137143D01*
X138469075Y-75135494D01*
X138313603Y-75131158D01*
X138177990Y-75124332D01*
X138076824Y-75115217D01*
X138024699Y-75104010D01*
X137988148Y-75076817D01*
X137963108Y-75032304D01*
X137957446Y-74994925D01*
X137920175Y-74895754D01*
X137855745Y-74771277D01*
X137773166Y-74636775D01*
X137681447Y-74507530D01*
X137589599Y-74398821D01*
X137550132Y-74358486D01*
X137315905Y-74162671D01*
X137064531Y-74026480D01*
X136789189Y-73946966D01*
X136483057Y-73921186D01*
X136298612Y-73931523D01*
X135998771Y-73995532D01*
X135724467Y-74114923D01*
X135481493Y-74286110D01*
X135275644Y-74505505D01*
X135112712Y-74769523D01*
X135079862Y-74840681D01*
X134983038Y-75138230D01*
X134947646Y-75437646D01*
X134972650Y-75732587D01*
X135057016Y-76016715D01*
X135199709Y-76283690D01*
X135399693Y-76527172D01*
X135406977Y-76534465D01*
X135612925Y-76711321D01*
X135834716Y-76841170D01*
X136094505Y-76937079D01*
X136276165Y-76989956D01*
X136276165Y-78068996D01*
X136168659Y-78068996D01*
X136123194Y-78067144D01*
X136062303Y-78049785D01*
X136020608Y-78004357D01*
X135989561Y-77919079D01*
X135960619Y-77782171D01*
X135950879Y-77729671D01*
X135925493Y-77603702D01*
X135902120Y-77522722D01*
X135874012Y-77473271D01*
X135834422Y-77441893D01*
X135776603Y-77415130D01*
X135703028Y-77387288D01*
X135626158Y-77373735D01*
X135553636Y-77389515D01*
X135468330Y-77439164D01*
X135353108Y-77527214D01*
X135329129Y-77546146D01*
X135232026Y-77617574D01*
X135153224Y-77667670D01*
X135107911Y-77686562D01*
X135095694Y-77684487D01*
X135034091Y-77654348D01*
X134949254Y-77597787D01*
X134856540Y-77526982D01*
X134771303Y-77454114D01*
X134708900Y-77391360D01*
X134684687Y-77350899D01*
X134685597Y-77342428D01*
X134702531Y-77279911D01*
X134736445Y-77180554D01*
X134781556Y-77061626D01*
X134878426Y-76817465D01*
X134796071Y-76692862D01*
X134713716Y-76568260D01*
X134098774Y-76587064D01*
X134011036Y-76363977D01*
X134005006Y-76348559D01*
X133963413Y-76237074D01*
X133933728Y-76148659D01*
X133922037Y-76101282D01*
X133928486Y-76086948D01*
X133974581Y-76036906D01*
X134055399Y-75966084D01*
X134159499Y-75884908D01*
X134230741Y-75831464D01*
X134318698Y-75760092D01*
X134369322Y-75706341D01*
X134392403Y-75658740D01*
X134397733Y-75605822D01*
X134397697Y-75600244D01*
X134393106Y-75530603D01*
X134373545Y-75478381D01*
X134328337Y-75432478D01*
X134246809Y-75381793D01*
X134118283Y-75315223D01*
X134087239Y-75299284D01*
X133981626Y-75239681D01*
X133903637Y-75187352D01*
X133868313Y-75152115D01*
X133866726Y-75145593D01*
X133868587Y-75083239D01*
X133883723Y-74981764D01*
X133909529Y-74859644D01*
X133929521Y-74778999D01*
X133962075Y-74679887D01*
X134004854Y-74618438D01*
X134071216Y-74585298D01*
X134174520Y-74571112D01*
X134328124Y-74566527D01*
X134403572Y-74564207D01*
X134493139Y-74553046D01*
X134553614Y-74526917D01*
X134606632Y-74479023D01*
X134615058Y-74469675D01*
X134664500Y-74402609D01*
X134684687Y-74352675D01*
X134682145Y-74340651D01*
X134655225Y-74278768D01*
X134605159Y-74184049D01*
X134539741Y-74071611D01*
X134476464Y-73965336D01*
X134433226Y-73875092D01*
X134424508Y-73804198D01*
X134453174Y-73736794D01*
X134522089Y-73657021D01*
X134634116Y-73549021D01*
X134811824Y-73380741D01*
X135085281Y-73529990D01*
X135358739Y-73679239D01*
X135443455Y-73616155D01*
X135476739Y-73588296D01*
X135506212Y-73547747D01*
X135526225Y-73487326D01*
X135541228Y-73392451D01*
X135555674Y-73248539D01*
X135583178Y-72944007D01*
X135851927Y-72876518D01*
X135902686Y-72864241D01*
X136020153Y-72839690D01*
X136108379Y-72826730D01*
X136151282Y-72827968D01*
G37*
G36*
X146843584Y-76134800D02*
G01*
X146844072Y-76178475D01*
X146852439Y-76264339D01*
X146878385Y-76324349D01*
X146931126Y-76363519D01*
X147019877Y-76386863D01*
X147153852Y-76399394D01*
X147342266Y-76406126D01*
X147498499Y-76407785D01*
X147652148Y-76404313D01*
X147770032Y-76395840D01*
X147838258Y-76383013D01*
X147877383Y-76365600D01*
X147909531Y-76333818D01*
X147923038Y-76276088D01*
X147925789Y-76173549D01*
X147925789Y-75997478D01*
X148339574Y-75997478D01*
X148339574Y-76296336D01*
X148339469Y-76340276D01*
X148335415Y-76480703D01*
X148321157Y-76573698D01*
X148290837Y-76632260D01*
X148238599Y-76669387D01*
X148158589Y-76698079D01*
X148146436Y-76700948D01*
X148065628Y-76710109D01*
X147936732Y-76717237D01*
X147771940Y-76722319D01*
X147583447Y-76725344D01*
X147383445Y-76726299D01*
X147184126Y-76725172D01*
X146997683Y-76721950D01*
X146836310Y-76716622D01*
X146712200Y-76709176D01*
X146637544Y-76699599D01*
X146631369Y-76698146D01*
X146543079Y-76669246D01*
X146484674Y-76624764D01*
X146450257Y-76552738D01*
X146433931Y-76441208D01*
X146429799Y-76278212D01*
X146429799Y-75997478D01*
X146843584Y-75997478D01*
X146843584Y-76134800D01*
G37*
G36*
X138822531Y-77791731D02*
G01*
X138825168Y-77855881D01*
X138839004Y-77946953D01*
X138860727Y-77998883D01*
X138902587Y-78015285D01*
X138999712Y-78027575D01*
X139154106Y-78034778D01*
X139368880Y-78037127D01*
X139390104Y-78037126D01*
X139580385Y-78036112D01*
X139716815Y-78030125D01*
X139808354Y-78014672D01*
X139863958Y-77985259D01*
X139892584Y-77937393D01*
X139903192Y-77866582D01*
X139904737Y-77768331D01*
X139904737Y-77622823D01*
X140318521Y-77622823D01*
X140318521Y-77923270D01*
X140318520Y-77929939D01*
X140317394Y-78068963D01*
X140311834Y-78159647D01*
X140298450Y-78216803D01*
X140273853Y-78255240D01*
X140234655Y-78289770D01*
X140231966Y-78291874D01*
X140202612Y-78312049D01*
X140167548Y-78327473D01*
X140118496Y-78338781D01*
X140047179Y-78346609D01*
X139945316Y-78351592D01*
X139804630Y-78354365D01*
X139616843Y-78355564D01*
X139373676Y-78355822D01*
X139192858Y-78355516D01*
X138977934Y-78353766D01*
X138813426Y-78350080D01*
X138691489Y-78344018D01*
X138604279Y-78335142D01*
X138543949Y-78323015D01*
X138502655Y-78307199D01*
X138408747Y-78258576D01*
X138408747Y-77622823D01*
X138822531Y-77622823D01*
X138822531Y-77791731D01*
G37*
G36*
X137914381Y-76989004D02*
G01*
X138037740Y-76992620D01*
X138120335Y-76999325D01*
X138168907Y-77009395D01*
X138190197Y-77023108D01*
X138206879Y-77075055D01*
X138216229Y-77169382D01*
X138213673Y-77270857D01*
X138198449Y-77349326D01*
X138179182Y-77369706D01*
X138110579Y-77392892D01*
X138015434Y-77402849D01*
X137915919Y-77399437D01*
X137834209Y-77382512D01*
X137792474Y-77351932D01*
X137759550Y-77331092D01*
X137676391Y-77314205D01*
X137558915Y-77303859D01*
X137422369Y-77300073D01*
X137282002Y-77302867D01*
X137153063Y-77312260D01*
X137050798Y-77328270D01*
X136990457Y-77350919D01*
X136967242Y-77364177D01*
X136869660Y-77389243D01*
X136729737Y-77398723D01*
X136530802Y-77399736D01*
X136530802Y-77261263D01*
X136531059Y-77241546D01*
X136548348Y-77134214D01*
X136597735Y-77062079D01*
X136612711Y-77049834D01*
X136643312Y-77033127D01*
X136688147Y-77020391D01*
X136755453Y-77010909D01*
X136853467Y-77003968D01*
X136990426Y-76998853D01*
X137174570Y-76994848D01*
X137414134Y-76991238D01*
X137518409Y-76989932D01*
X137743518Y-76988200D01*
X137914381Y-76989004D01*
G37*
G36*
X146083685Y-74340263D02*
G01*
X146208998Y-74340263D01*
X146235739Y-74339593D01*
X146306095Y-74329528D01*
X146334311Y-74311220D01*
X146329842Y-74282711D01*
X146313211Y-74202163D01*
X146287158Y-74084901D01*
X146254737Y-73944982D01*
X146228179Y-73831414D01*
X146200740Y-73711402D01*
X146182061Y-73626411D01*
X146175163Y-73589927D01*
X146187190Y-73583925D01*
X146246399Y-73579396D01*
X146338424Y-73581697D01*
X146501686Y-73591330D01*
X146591796Y-73957829D01*
X146625312Y-74097603D01*
X146655006Y-74228654D01*
X146675341Y-74326822D01*
X146683171Y-74377655D01*
X146682063Y-74388799D01*
X146654747Y-74453374D01*
X146602033Y-74529035D01*
X146575698Y-74558968D01*
X146521200Y-74603255D01*
X146453463Y-74622741D01*
X146347396Y-74627089D01*
X146260957Y-74629963D01*
X146195011Y-74643846D01*
X146175163Y-74671484D01*
X146184950Y-74702649D01*
X146244785Y-74740824D01*
X146350684Y-74754567D01*
X146402775Y-74766351D01*
X146446095Y-74826273D01*
X146460511Y-74876784D01*
X146482214Y-74953751D01*
X146485204Y-74977763D01*
X146466737Y-74998083D01*
X146410424Y-75007332D01*
X146303393Y-75009523D01*
X146202108Y-75007153D01*
X146122987Y-74992800D01*
X146057555Y-74956486D01*
X145979196Y-74888256D01*
X145934802Y-74845385D01*
X145896790Y-74800911D01*
X145865767Y-74748517D01*
X145837493Y-74677360D01*
X145807726Y-74576599D01*
X145772225Y-74435392D01*
X145726751Y-74242898D01*
X145697013Y-74115868D01*
X145657583Y-73947712D01*
X145624162Y-73805507D01*
X145599580Y-73701291D01*
X145586668Y-73647102D01*
X145580800Y-73612949D01*
X145593279Y-73587678D01*
X145641312Y-73577364D01*
X145738939Y-73575395D01*
X145908691Y-73575395D01*
X146083685Y-74340263D01*
G37*
G36*
X146233882Y-76544630D02*
G01*
X146230594Y-76641420D01*
X146224455Y-76690125D01*
X146216681Y-76699609D01*
X146186040Y-76711359D01*
X146126701Y-76719628D01*
X146031678Y-76724730D01*
X145893985Y-76726976D01*
X145706635Y-76726678D01*
X145462641Y-76724149D01*
X145355921Y-76722803D01*
X145119377Y-76719189D01*
X144936809Y-76713038D01*
X144801234Y-76701364D01*
X144705671Y-76681180D01*
X144643138Y-76649498D01*
X144606655Y-76603331D01*
X144589239Y-76539691D01*
X144583909Y-76455590D01*
X144583684Y-76348043D01*
X144583676Y-76343386D01*
X145043747Y-76343386D01*
X145089973Y-76378313D01*
X145104828Y-76383780D01*
X145178071Y-76395917D01*
X145288006Y-76404807D01*
X145417941Y-76410163D01*
X145551183Y-76411700D01*
X145671038Y-76409131D01*
X145760814Y-76402172D01*
X145803818Y-76390535D01*
X145810899Y-76380998D01*
X145825037Y-76326796D01*
X145822187Y-76317291D01*
X145793382Y-76301427D01*
X145726603Y-76291277D01*
X145613309Y-76285888D01*
X145444961Y-76284304D01*
X145435046Y-76284310D01*
X145247046Y-76287976D01*
X145120411Y-76298713D01*
X145053269Y-76317017D01*
X145043747Y-76343386D01*
X144583676Y-76343386D01*
X144583594Y-76297979D01*
X144585098Y-76200906D01*
X144594631Y-76126019D01*
X144619146Y-76070442D01*
X144665597Y-76031302D01*
X144740936Y-76005724D01*
X144852117Y-75990833D01*
X145006093Y-75983756D01*
X145209816Y-75981617D01*
X145470240Y-75981543D01*
X146222907Y-75981543D01*
X146232042Y-76314019D01*
X146232290Y-76326796D01*
X146234005Y-76415357D01*
X146233882Y-76544630D01*
G37*
G36*
X140841041Y-75983145D02*
G01*
X140955113Y-76004572D01*
X140955113Y-76698607D01*
X140541328Y-76698607D01*
X140541328Y-76002542D01*
X140634148Y-75982130D01*
X140636293Y-75981670D01*
X140734770Y-75974017D01*
X140841041Y-75983145D01*
G37*
G36*
X140939198Y-75376022D02*
G01*
X140949059Y-75531321D01*
X140951282Y-75581576D01*
X140950130Y-75674199D01*
X140942101Y-75730505D01*
X140925637Y-75748872D01*
X140857564Y-75768234D01*
X140733305Y-75774391D01*
X140541328Y-75774391D01*
X140541328Y-75357046D01*
X140939198Y-75376022D01*
G37*
G36*
X137909979Y-75967240D02*
G01*
X138036147Y-75971918D01*
X138122428Y-75981441D01*
X138175530Y-75996736D01*
X138202163Y-76018728D01*
X138209038Y-76048343D01*
X138202863Y-76086506D01*
X138201623Y-76091532D01*
X138182695Y-76153537D01*
X138155129Y-76199300D01*
X138109757Y-76231674D01*
X138037409Y-76253510D01*
X137928915Y-76267659D01*
X137775107Y-76276973D01*
X137566815Y-76284304D01*
X137557183Y-76284600D01*
X137345106Y-76292461D01*
X137190316Y-76301688D01*
X137086684Y-76313264D01*
X137028081Y-76328176D01*
X137008376Y-76347408D01*
X137021442Y-76371945D01*
X137057088Y-76379780D01*
X137146537Y-76387899D01*
X137279073Y-76395427D01*
X137444221Y-76401772D01*
X137631509Y-76406345D01*
X138217769Y-76416844D01*
X138217769Y-76734647D01*
X137460316Y-76724594D01*
X137307348Y-76722563D01*
X137071886Y-76718383D01*
X136889574Y-76711313D01*
X136753618Y-76698631D01*
X136657221Y-76677615D01*
X136593590Y-76645542D01*
X136555927Y-76599691D01*
X136537438Y-76537340D01*
X136531328Y-76455766D01*
X136530802Y-76352247D01*
X136530795Y-76339684D01*
X136531413Y-76231120D01*
X136538306Y-76147105D01*
X136558644Y-76084359D01*
X136599596Y-76039602D01*
X136668334Y-76009554D01*
X136772027Y-75990934D01*
X136917846Y-75980463D01*
X137112961Y-75974860D01*
X137364543Y-75970846D01*
X137511140Y-75968719D01*
X137737213Y-75966482D01*
X137909979Y-75967240D01*
G37*
G36*
X141687193Y-77006148D02*
G01*
X141692973Y-77007313D01*
X141743868Y-77021745D01*
X141770608Y-77049567D01*
X141780957Y-77107559D01*
X141782682Y-77212503D01*
X141782682Y-77399736D01*
X141400727Y-77399736D01*
X141400727Y-77212503D01*
X141400731Y-77201169D01*
X141402893Y-77100941D01*
X141414351Y-77046215D01*
X141442870Y-77020211D01*
X141496215Y-77006148D01*
X141581261Y-76998340D01*
X141687193Y-77006148D01*
G37*
G36*
X138707800Y-77007000D02*
G01*
X138822531Y-77025642D01*
X138822531Y-77399736D01*
X138408747Y-77399736D01*
X138408747Y-77212503D01*
X138408748Y-77205855D01*
X138410809Y-77103590D01*
X138421858Y-77047483D01*
X138449392Y-77020802D01*
X138500908Y-77006814D01*
X138503016Y-77006403D01*
X138601242Y-76999259D01*
X138707800Y-77007000D01*
G37*
G36*
X140203790Y-77007000D02*
G01*
X140318521Y-77025642D01*
X140318521Y-77399736D01*
X139904737Y-77399736D01*
X139904737Y-77212503D01*
X139904738Y-77205855D01*
X139906799Y-77103590D01*
X139917848Y-77047483D01*
X139945382Y-77020802D01*
X139996898Y-77006814D01*
X139999006Y-77006403D01*
X140097232Y-76999259D01*
X140203790Y-77007000D01*
G37*
G36*
X147252098Y-73807692D02*
G01*
X147261014Y-73843882D01*
X147311446Y-74055742D01*
X147344647Y-74216685D01*
X147360622Y-74335809D01*
X147359371Y-74422211D01*
X147340899Y-74484990D01*
X147305206Y-74533244D01*
X147252295Y-74576069D01*
X147239241Y-74584125D01*
X147143197Y-74615428D01*
X147015543Y-74627089D01*
X146935394Y-74625851D01*
X146875749Y-74615432D01*
X146847245Y-74585940D01*
X146831648Y-74527497D01*
X146815077Y-74429719D01*
X146819165Y-74370507D01*
X146852867Y-74345446D01*
X146923158Y-74340263D01*
X146937795Y-74339973D01*
X147006586Y-74328907D01*
X147034561Y-74306773D01*
X147029724Y-74279344D01*
X147012134Y-74199914D01*
X146984699Y-74082422D01*
X146950615Y-73939981D01*
X146913076Y-73785703D01*
X146875279Y-73632701D01*
X146840417Y-73494087D01*
X146811686Y-73382973D01*
X146792281Y-73312472D01*
X146788628Y-73295444D01*
X146799609Y-73270703D01*
X146847575Y-73259397D01*
X146945806Y-73256700D01*
X147115977Y-73256700D01*
X147252098Y-73807692D01*
G37*
G36*
X145225143Y-73281858D02*
G01*
X145300530Y-73328876D01*
X145307619Y-73335225D01*
X145338817Y-73371574D01*
X145367873Y-73424571D01*
X145397908Y-73503346D01*
X145432045Y-73617027D01*
X145473406Y-73774746D01*
X145525112Y-73985632D01*
X145526092Y-73989702D01*
X145570192Y-74174330D01*
X145608557Y-74337708D01*
X145638852Y-74469667D01*
X145658741Y-74560037D01*
X145665890Y-74598650D01*
X145647738Y-74605972D01*
X145575620Y-74614386D01*
X145458228Y-74621077D01*
X145305938Y-74625494D01*
X145129127Y-74627089D01*
X144939176Y-74627554D01*
X144777058Y-74624725D01*
X144655059Y-74611384D01*
X144564872Y-74580300D01*
X144498191Y-74524242D01*
X144446708Y-74435978D01*
X144402118Y-74308278D01*
X144356115Y-74133911D01*
X144300390Y-73905644D01*
X144257529Y-73732301D01*
X144216232Y-73567239D01*
X144181933Y-73432202D01*
X144157334Y-73337822D01*
X144145136Y-73294729D01*
X144150153Y-73271408D01*
X144197150Y-73260857D01*
X144296908Y-73262860D01*
X144463942Y-73272635D01*
X144590579Y-73790514D01*
X144717216Y-74308394D01*
X145285148Y-74308394D01*
X145265132Y-74220753D01*
X145249211Y-74152714D01*
X145221004Y-74035103D01*
X145186374Y-73892545D01*
X145148885Y-73739523D01*
X145112101Y-73590522D01*
X145079586Y-73460024D01*
X145054904Y-73362513D01*
X145041620Y-73312472D01*
X145041896Y-73283509D01*
X145078726Y-73258091D01*
X145145508Y-73257902D01*
X145225143Y-73281858D01*
G37*
G36*
X150217519Y-75774391D02*
G01*
X150025542Y-75774391D01*
X149920289Y-75770708D01*
X149846710Y-75755655D01*
X149815245Y-75726587D01*
X149801541Y-75709349D01*
X149762316Y-75694261D01*
X149689158Y-75684900D01*
X149572170Y-75680122D01*
X149401460Y-75678783D01*
X149258524Y-75679641D01*
X149132166Y-75683683D01*
X149051501Y-75692093D01*
X149006636Y-75706013D01*
X148987676Y-75726587D01*
X148987642Y-75726674D01*
X148957699Y-75754835D01*
X148887606Y-75769915D01*
X148765868Y-75774391D01*
X148562381Y-75774391D01*
X148562381Y-75616851D01*
X148562387Y-75607077D01*
X148564358Y-75534149D01*
X148574649Y-75477207D01*
X148600176Y-75434271D01*
X148647858Y-75403366D01*
X148724611Y-75382513D01*
X148837354Y-75369736D01*
X148993003Y-75363058D01*
X149198476Y-75360501D01*
X149460691Y-75360088D01*
X150217519Y-75360088D01*
X150217519Y-75774391D01*
G37*
G36*
X150217519Y-76342731D02*
G01*
X150216322Y-76457951D01*
X150211886Y-76582033D01*
X150204940Y-76670475D01*
X150196299Y-76709230D01*
X150176268Y-76718136D01*
X150106134Y-76727647D01*
X150012370Y-76729743D01*
X149920008Y-76724284D01*
X149854082Y-76711132D01*
X149825006Y-76684167D01*
X149808527Y-76619170D01*
X149803734Y-76503980D01*
X149803734Y-76316173D01*
X149328353Y-76316173D01*
X149192227Y-76499423D01*
X149188361Y-76504619D01*
X149116911Y-76597936D01*
X149058016Y-76670178D01*
X149024091Y-76706087D01*
X148995547Y-76715603D01*
X148917698Y-76724962D01*
X148815782Y-76729263D01*
X148711665Y-76728315D01*
X148627210Y-76721929D01*
X148584283Y-76709914D01*
X148586127Y-76686405D01*
X148617091Y-76624274D01*
X148672212Y-76541405D01*
X148717762Y-76477142D01*
X148767467Y-76400652D01*
X148790890Y-76355597D01*
X148790651Y-76346771D01*
X148758064Y-76305731D01*
X148689699Y-76261183D01*
X148647995Y-76237773D01*
X148590016Y-76181424D01*
X148568322Y-76101054D01*
X148558347Y-75997478D01*
X150217519Y-75997478D01*
X150217519Y-76342731D01*
G37*
G36*
X148595669Y-74371795D02*
G01*
X148515034Y-74495559D01*
X148390018Y-74581789D01*
X148358844Y-74593579D01*
X148213996Y-74620833D01*
X148046137Y-74620720D01*
X147882778Y-74592652D01*
X147811983Y-74565810D01*
X147677459Y-74475022D01*
X147562226Y-74347860D01*
X147476175Y-74199493D01*
X147439275Y-74078224D01*
X147738834Y-74078224D01*
X147773176Y-74191029D01*
X147842850Y-74290221D01*
X147942796Y-74358709D01*
X147960044Y-74365822D01*
X148027935Y-74391502D01*
X148060043Y-74399662D01*
X148081409Y-74393931D01*
X148141423Y-74381408D01*
X148164840Y-74375044D01*
X148245061Y-74317063D01*
X148291869Y-74221590D01*
X148295002Y-74106965D01*
X148280904Y-74055347D01*
X148216555Y-73946069D01*
X148121645Y-73866752D01*
X148010825Y-73824211D01*
X147898744Y-73825263D01*
X147800054Y-73876721D01*
X147796392Y-73880134D01*
X147744885Y-73968895D01*
X147738834Y-74078224D01*
X147439275Y-74078224D01*
X147429194Y-74045093D01*
X147431172Y-73899830D01*
X147440826Y-73864255D01*
X147509062Y-73743816D01*
X147616618Y-73658455D01*
X147752918Y-73607430D01*
X147907389Y-73589997D01*
X148069456Y-73605413D01*
X148228547Y-73652935D01*
X148374086Y-73731820D01*
X148495500Y-73841325D01*
X148582216Y-73980708D01*
X148609137Y-74057518D01*
X148614887Y-74106965D01*
X148628259Y-74221960D01*
X148595669Y-74371795D01*
G37*
G36*
X138213124Y-78169211D02*
G01*
X138210079Y-78265291D01*
X138204075Y-78313716D01*
X138200209Y-78319350D01*
X138172221Y-78331992D01*
X138113305Y-78341529D01*
X138016919Y-78348321D01*
X137876518Y-78352728D01*
X137685558Y-78355108D01*
X137437497Y-78355822D01*
X136687056Y-78355822D01*
X136608929Y-78277597D01*
X136578613Y-78243884D01*
X136548291Y-78187889D01*
X136534234Y-78109972D01*
X136530802Y-77989322D01*
X136531046Y-77973388D01*
X137024160Y-77973388D01*
X137029702Y-77989776D01*
X137059602Y-78006169D01*
X137124108Y-78017376D01*
X137232902Y-78024876D01*
X137395668Y-78030149D01*
X137469973Y-78031545D01*
X137638813Y-78030154D01*
X137745069Y-78020805D01*
X137789173Y-78003470D01*
X137799395Y-77967051D01*
X137771461Y-77939098D01*
X137697278Y-77922176D01*
X137571184Y-77915060D01*
X137387517Y-77916523D01*
X137272228Y-77920008D01*
X137149056Y-77926811D01*
X137073162Y-77936957D01*
X137034784Y-77951973D01*
X137024160Y-77973388D01*
X136531046Y-77973388D01*
X136532090Y-77905335D01*
X136541715Y-77814832D01*
X136565625Y-77753498D01*
X136609507Y-77700469D01*
X136688212Y-77621665D01*
X137445033Y-77630212D01*
X138201854Y-77638758D01*
X138211033Y-77955184D01*
X138211290Y-77967051D01*
X138212900Y-78041503D01*
X138213124Y-78169211D01*
G37*
D11*
X140767000Y-51105000D02*
X164135000Y-51105000D01*
X164135000Y-51105000D02*
X164135000Y-66345000D01*
X164135000Y-66345000D02*
X140767000Y-66345000D01*
X140767000Y-66345000D02*
X140767000Y-51105000D01*
X126296252Y-66445000D02*
X125773748Y-66445000D01*
X126296252Y-64975000D02*
X125773748Y-64975000D01*
X122510000Y-67605000D02*
X135110000Y-67605000D01*
X122510000Y-72705000D02*
X122510000Y-67605000D01*
X135110000Y-72705000D02*
X122510000Y-72705000D01*
X122359252Y-63016000D02*
X121836748Y-63016000D01*
X122359252Y-61546000D02*
X121836748Y-61546000D01*
X142686248Y-59260000D02*
X143208752Y-59260000D01*
X142686248Y-60730000D02*
X143208752Y-60730000D01*
X135052000Y-61602000D02*
X131452000Y-61602000D01*
X135052000Y-61602000D02*
X137252000Y-61602000D01*
X135052000Y-54832000D02*
X132852000Y-54832000D01*
X135052000Y-54832000D02*
X137252000Y-54832000D01*
X122452064Y-54761000D02*
X121997936Y-54761000D01*
X122452064Y-53291000D02*
X121997936Y-53291000D01*
X115086064Y-63270000D02*
X114631936Y-63270000D01*
X115086064Y-61800000D02*
X114631936Y-61800000D01*
X132646252Y-64975000D02*
X132123748Y-64975000D01*
X132646252Y-66445000D02*
X132123748Y-66445000D01*
X137311000Y-64159064D02*
X137311000Y-63704936D01*
X135841000Y-64159064D02*
X135841000Y-63704936D01*
X129357000Y-56693000D02*
X129357000Y-60143000D01*
X124237000Y-56693000D02*
X124237000Y-54743000D01*
X124237000Y-56693000D02*
X124237000Y-58643000D01*
X129357000Y-56693000D02*
X129357000Y-54743000D01*
%LPC*%
D12*
X165845000Y-77965000D03*
X165845000Y-80505000D03*
X165845000Y-83045000D03*
X165845000Y-85585000D03*
D13*
X127940000Y-97460000D03*
D14*
X130480000Y-97460000D03*
X133020000Y-97460000D03*
X135560000Y-97460000D03*
X138100000Y-97460000D03*
X140640000Y-97460000D03*
X143180000Y-97460000D03*
X145720000Y-97460000D03*
D13*
X150800000Y-97460000D03*
D14*
X153340000Y-97460000D03*
X155880000Y-97460000D03*
X158420000Y-97460000D03*
X160960000Y-97460000D03*
X163500000Y-97460000D03*
D13*
X118796000Y-49200000D03*
D14*
X121336000Y-49200000D03*
X123876000Y-49200000D03*
X126416000Y-49200000D03*
X128956000Y-49200000D03*
X131496000Y-49200000D03*
X134036000Y-49200000D03*
X136576000Y-49200000D03*
X139116000Y-49200000D03*
X141656000Y-49200000D03*
D13*
X145720000Y-49200000D03*
D14*
X148260000Y-49200000D03*
X150800000Y-49200000D03*
X153340000Y-49200000D03*
X155880000Y-49200000D03*
X158420000Y-49200000D03*
X160960000Y-49200000D03*
X163500000Y-49200000D03*
D15*
X119050000Y-92145000D03*
X119050000Y-78645000D03*
D16*
X125050000Y-88995000D03*
X125050000Y-81795000D03*
D17*
X113460000Y-57860000D03*
D18*
X117780000Y-59360000D03*
D19*
X117780000Y-56360000D03*
X120780000Y-59360000D03*
X120780000Y-56360000D03*
D20*
X115240000Y-49200000D03*
D21*
X139751000Y-65075000D03*
X142291000Y-65075000D03*
X144831000Y-65075000D03*
X147371000Y-65075000D03*
X149911000Y-65075000D03*
X152451000Y-65075000D03*
X154991000Y-65075000D03*
X157531000Y-65075000D03*
X160071000Y-65075000D03*
X162611000Y-65075000D03*
D22*
X111684000Y-66345000D03*
D23*
X111684000Y-68885000D03*
X111684000Y-71425000D03*
X111684000Y-73965000D03*
X119304000Y-73965000D03*
X119304000Y-71425000D03*
X119304000Y-68885000D03*
X119304000Y-66345000D03*
D20*
X113970000Y-97460000D03*
X166040000Y-64440000D03*
X166040000Y-92380000D03*
D24*
X127072500Y-65710000D03*
X124997500Y-65710000D03*
D25*
X124960000Y-70155000D03*
X133460000Y-70155000D03*
D24*
X123135500Y-62281000D03*
X121060500Y-62281000D03*
D26*
X141910000Y-59995000D03*
X143985000Y-59995000D03*
D27*
X132189500Y-61142000D03*
X132189500Y-60492000D03*
X132189500Y-59842000D03*
X132189500Y-59192000D03*
X132189500Y-58542000D03*
X132189500Y-57892000D03*
X132189500Y-57242000D03*
X132189500Y-56592000D03*
X132189500Y-55942000D03*
X132189500Y-55292000D03*
X137914500Y-55292000D03*
X137914500Y-55942000D03*
X137914500Y-56592000D03*
X137914500Y-57242000D03*
X137914500Y-57892000D03*
X137914500Y-58542000D03*
X137914500Y-59192000D03*
X137914500Y-59842000D03*
X137914500Y-60492000D03*
X137914500Y-61142000D03*
D28*
X123225000Y-54026000D03*
X121225000Y-54026000D03*
X115859000Y-62535000D03*
X113859000Y-62535000D03*
D24*
X133422500Y-65710000D03*
X131347500Y-65710000D03*
D29*
X136576000Y-64932000D03*
X136576000Y-62932000D03*
D30*
X128702000Y-59168000D03*
X127432000Y-59168000D03*
X126162000Y-59168000D03*
X124892000Y-59168000D03*
X124892000Y-54218000D03*
X126162000Y-54218000D03*
X127432000Y-54218000D03*
X128702000Y-54218000D03*
M02*
