G04 #@! TF.GenerationSoftware,KiCad,Pcbnew,6.0.7-f9a2dced07~116~ubuntu20.04.1*
G04 #@! TF.CreationDate,2022-08-22T20:33:43+08:00*
G04 #@! TF.ProjectId,arduino_can_bus_shield_v2.1,61726475-696e-46f5-9f63-616e5f627573,rev?*
G04 #@! TF.SameCoordinates,Original*
G04 #@! TF.FileFunction,Soldermask,Bot*
G04 #@! TF.FilePolarity,Negative*
%FSLAX46Y46*%
G04 Gerber Fmt 4.6, Leading zero omitted, Abs format (unit mm)*
G04 Created by KiCad (PCBNEW 6.0.7-f9a2dced07~116~ubuntu20.04.1) date 2022-08-22 20:33:43*
%MOMM*%
%LPD*%
G01*
G04 APERTURE LIST*
G04 Aperture macros list*
%AMRoundRect*
0 Rectangle with rounded corners*
0 $1 Rounding radius*
0 $2 $3 $4 $5 $6 $7 $8 $9 X,Y pos of 4 corners*
0 Add a 4 corners polygon primitive as box body*
4,1,4,$2,$3,$4,$5,$6,$7,$8,$9,$2,$3,0*
0 Add four circle primitives for the rounded corners*
1,1,$1+$1,$2,$3*
1,1,$1+$1,$4,$5*
1,1,$1+$1,$6,$7*
1,1,$1+$1,$8,$9*
0 Add four rect primitives between the rounded corners*
20,1,$1+$1,$2,$3,$4,$5,0*
20,1,$1+$1,$4,$5,$6,$7,0*
20,1,$1+$1,$6,$7,$8,$9,0*
20,1,$1+$1,$8,$9,$2,$3,0*%
G04 Aperture macros list end*
%ADD10O,2.000000X1.600000*%
%ADD11R,1.700000X1.700000*%
%ADD12O,1.700000X1.700000*%
%ADD13R,1.800000X0.900000*%
%ADD14C,4.500000*%
%ADD15C,3.000000*%
%ADD16RoundRect,0.250001X0.499999X-0.499999X0.499999X0.499999X-0.499999X0.499999X-0.499999X-0.499999X0*%
%ADD17C,1.500000*%
%ADD18C,3.200000*%
%ADD19C,1.524000*%
%ADD20R,1.600000X1.600000*%
%ADD21O,1.600000X1.600000*%
%ADD22RoundRect,0.250000X0.337500X0.475000X-0.337500X0.475000X-0.337500X-0.475000X0.337500X-0.475000X0*%
%ADD23R,4.500000X2.000000*%
%ADD24RoundRect,0.250000X-0.337500X-0.475000X0.337500X-0.475000X0.337500X0.475000X-0.337500X0.475000X0*%
%ADD25RoundRect,0.100000X-0.637500X-0.100000X0.637500X-0.100000X0.637500X0.100000X-0.637500X0.100000X0*%
%ADD26RoundRect,0.250000X0.350000X0.450000X-0.350000X0.450000X-0.350000X-0.450000X0.350000X-0.450000X0*%
%ADD27RoundRect,0.250000X0.450000X-0.350000X0.450000X0.350000X-0.450000X0.350000X-0.450000X-0.350000X0*%
%ADD28RoundRect,0.150000X0.150000X-0.825000X0.150000X0.825000X-0.150000X0.825000X-0.150000X-0.825000X0*%
G04 APERTURE END LIST*
D10*
X165845000Y-77965000D03*
X165845000Y-80505000D03*
X165845000Y-83045000D03*
X165845000Y-85585000D03*
D11*
X127940000Y-97460000D03*
D12*
X130480000Y-97460000D03*
X133020000Y-97460000D03*
X135560000Y-97460000D03*
X138100000Y-97460000D03*
X140640000Y-97460000D03*
X143180000Y-97460000D03*
X145720000Y-97460000D03*
D11*
X150800000Y-97460000D03*
D12*
X153340000Y-97460000D03*
X155880000Y-97460000D03*
X158420000Y-97460000D03*
X160960000Y-97460000D03*
X163500000Y-97460000D03*
D11*
X118796000Y-49200000D03*
D12*
X121336000Y-49200000D03*
X123876000Y-49200000D03*
X126416000Y-49200000D03*
X128956000Y-49200000D03*
X131496000Y-49200000D03*
X134036000Y-49200000D03*
X136576000Y-49200000D03*
X139116000Y-49200000D03*
X141656000Y-49200000D03*
D11*
X145720000Y-49200000D03*
D12*
X148260000Y-49200000D03*
X150800000Y-49200000D03*
X153340000Y-49200000D03*
X155880000Y-49200000D03*
X158420000Y-49200000D03*
X160960000Y-49200000D03*
X163500000Y-49200000D03*
D13*
X119050000Y-92145000D03*
X119050000Y-78645000D03*
D14*
X125050000Y-88995000D03*
X125050000Y-81795000D03*
D15*
X113460000Y-57860000D03*
D16*
X117780000Y-59360000D03*
D17*
X117780000Y-56360000D03*
X120780000Y-59360000D03*
X120780000Y-56360000D03*
D18*
X115240000Y-49200000D03*
D19*
X139751000Y-65075000D03*
X142291000Y-65075000D03*
X144831000Y-65075000D03*
X147371000Y-65075000D03*
X149911000Y-65075000D03*
X152451000Y-65075000D03*
X154991000Y-65075000D03*
X157531000Y-65075000D03*
X160071000Y-65075000D03*
X162611000Y-65075000D03*
D20*
X111684000Y-66345000D03*
D21*
X111684000Y-68885000D03*
X111684000Y-71425000D03*
X111684000Y-73965000D03*
X119304000Y-73965000D03*
X119304000Y-71425000D03*
X119304000Y-68885000D03*
X119304000Y-66345000D03*
D18*
X113970000Y-97460000D03*
X166040000Y-64440000D03*
X166040000Y-92380000D03*
D22*
X127072500Y-65710000D03*
X124997500Y-65710000D03*
D23*
X124960000Y-70155000D03*
X133460000Y-70155000D03*
D22*
X123135500Y-62281000D03*
X121060500Y-62281000D03*
D24*
X141910000Y-59995000D03*
X143985000Y-59995000D03*
D25*
X132189500Y-61142000D03*
X132189500Y-60492000D03*
X132189500Y-59842000D03*
X132189500Y-59192000D03*
X132189500Y-58542000D03*
X132189500Y-57892000D03*
X132189500Y-57242000D03*
X132189500Y-56592000D03*
X132189500Y-55942000D03*
X132189500Y-55292000D03*
X137914500Y-55292000D03*
X137914500Y-55942000D03*
X137914500Y-56592000D03*
X137914500Y-57242000D03*
X137914500Y-57892000D03*
X137914500Y-58542000D03*
X137914500Y-59192000D03*
X137914500Y-59842000D03*
X137914500Y-60492000D03*
X137914500Y-61142000D03*
D26*
X123225000Y-54026000D03*
X121225000Y-54026000D03*
X115859000Y-62535000D03*
X113859000Y-62535000D03*
D22*
X133422500Y-65710000D03*
X131347500Y-65710000D03*
D27*
X136576000Y-64932000D03*
X136576000Y-62932000D03*
D28*
X128702000Y-59168000D03*
X127432000Y-59168000D03*
X126162000Y-59168000D03*
X124892000Y-59168000D03*
X124892000Y-54218000D03*
X126162000Y-54218000D03*
X127432000Y-54218000D03*
X128702000Y-54218000D03*
M02*
