G04 #@! TF.GenerationSoftware,KiCad,Pcbnew,6.0.7-f9a2dced07~116~ubuntu20.04.1*
G04 #@! TF.CreationDate,2022-08-24T23:56:41+08:00*
G04 #@! TF.ProjectId,arduino_can_bus_shield_v2.1,61726475-696e-46f5-9f63-616e5f627573,rev?*
G04 #@! TF.SameCoordinates,Original*
G04 #@! TF.FileFunction,Soldermask,Top*
G04 #@! TF.FilePolarity,Negative*
%FSLAX46Y46*%
G04 Gerber Fmt 4.6, Leading zero omitted, Abs format (unit mm)*
G04 Created by KiCad (PCBNEW 6.0.7-f9a2dced07~116~ubuntu20.04.1) date 2022-08-24 23:56:41*
%MOMM*%
%LPD*%
G01*
G04 APERTURE LIST*
G04 Aperture macros list*
%AMRoundRect*
0 Rectangle with rounded corners*
0 $1 Rounding radius*
0 $2 $3 $4 $5 $6 $7 $8 $9 X,Y pos of 4 corners*
0 Add a 4 corners polygon primitive as box body*
4,1,4,$2,$3,$4,$5,$6,$7,$8,$9,$2,$3,0*
0 Add four circle primitives for the rounded corners*
1,1,$1+$1,$2,$3*
1,1,$1+$1,$4,$5*
1,1,$1+$1,$6,$7*
1,1,$1+$1,$8,$9*
0 Add four rect primitives between the rounded corners*
20,1,$1+$1,$2,$3,$4,$5,0*
20,1,$1+$1,$4,$5,$6,$7,0*
20,1,$1+$1,$6,$7,$8,$9,0*
20,1,$1+$1,$8,$9,$2,$3,0*%
G04 Aperture macros list end*
%ADD10R,1.700000X1.700000*%
%ADD11O,1.700000X1.700000*%
%ADD12RoundRect,0.250000X-0.450000X0.350000X-0.450000X-0.350000X0.450000X-0.350000X0.450000X0.350000X0*%
%ADD13RoundRect,0.250000X-0.350000X-0.450000X0.350000X-0.450000X0.350000X0.450000X-0.350000X0.450000X0*%
%ADD14RoundRect,0.250000X-0.325000X-0.450000X0.325000X-0.450000X0.325000X0.450000X-0.325000X0.450000X0*%
%ADD15R,1.800000X0.900000*%
%ADD16C,4.500000*%
%ADD17R,1.600000X1.400000*%
%ADD18C,3.000000*%
%ADD19RoundRect,0.250001X0.499999X-0.499999X0.499999X0.499999X-0.499999X0.499999X-0.499999X-0.499999X0*%
%ADD20C,1.500000*%
%ADD21RoundRect,0.250000X-0.550000X1.412500X-0.550000X-1.412500X0.550000X-1.412500X0.550000X1.412500X0*%
%ADD22C,3.200000*%
%ADD23RoundRect,0.250000X0.450000X-0.350000X0.450000X0.350000X-0.450000X0.350000X-0.450000X-0.350000X0*%
%ADD24C,1.524000*%
%ADD25R,2.300000X3.500000*%
%ADD26R,1.600000X1.600000*%
%ADD27O,1.600000X1.600000*%
%ADD28R,5.020000X2.940000*%
%ADD29R,4.826000X3.048000*%
%ADD30R,5.118000X3.070000*%
%ADD31RoundRect,0.250000X0.350000X0.450000X-0.350000X0.450000X-0.350000X-0.450000X0.350000X-0.450000X0*%
%ADD32RoundRect,0.250000X0.325000X0.450000X-0.325000X0.450000X-0.325000X-0.450000X0.325000X-0.450000X0*%
%ADD33O,2.000000X1.600000*%
%ADD34R,3.500000X2.300000*%
G04 APERTURE END LIST*
D10*
X127940000Y-97460000D03*
D11*
X130480000Y-97460000D03*
X133020000Y-97460000D03*
X135560000Y-97460000D03*
X138100000Y-97460000D03*
X140640000Y-97460000D03*
X143180000Y-97460000D03*
X145720000Y-97460000D03*
D10*
X150800000Y-97460000D03*
D11*
X153340000Y-97460000D03*
X155880000Y-97460000D03*
X158420000Y-97460000D03*
X160960000Y-97460000D03*
X163500000Y-97460000D03*
D10*
X118796000Y-49200000D03*
D11*
X121336000Y-49200000D03*
X123876000Y-49200000D03*
X126416000Y-49200000D03*
X128956000Y-49200000D03*
X131496000Y-49200000D03*
X134036000Y-49200000D03*
X136576000Y-49200000D03*
X139116000Y-49200000D03*
X141656000Y-49200000D03*
D10*
X145720000Y-49200000D03*
D11*
X148260000Y-49200000D03*
X150800000Y-49200000D03*
X153340000Y-49200000D03*
X155880000Y-49200000D03*
X158420000Y-49200000D03*
X160960000Y-49200000D03*
X163500000Y-49200000D03*
D12*
X137465000Y-53915000D03*
X137465000Y-55915000D03*
D13*
X152975000Y-93650000D03*
X154975000Y-93650000D03*
D14*
X118415000Y-97460000D03*
X120465000Y-97460000D03*
D15*
X119050000Y-92145000D03*
X119050000Y-78645000D03*
D16*
X125050000Y-88995000D03*
X125050000Y-81795000D03*
D17*
X134080000Y-60400000D03*
X126880000Y-60400000D03*
X134080000Y-63400000D03*
X126880000Y-63400000D03*
D18*
X113460000Y-57860000D03*
D19*
X117780000Y-59360000D03*
D20*
X117780000Y-56360000D03*
X120780000Y-59360000D03*
X120780000Y-56360000D03*
D17*
X126880000Y-54050000D03*
X134080000Y-54050000D03*
X126880000Y-57050000D03*
X134080000Y-57050000D03*
D21*
X148260000Y-87302500D03*
X148260000Y-92377500D03*
D22*
X115240000Y-49200000D03*
D21*
X140640000Y-87302500D03*
X140640000Y-92377500D03*
D23*
X137465000Y-60360000D03*
X137465000Y-58360000D03*
D24*
X139751000Y-65075000D03*
X142291000Y-65075000D03*
X144831000Y-65075000D03*
X147371000Y-65075000D03*
X149911000Y-65075000D03*
X152451000Y-65075000D03*
X154991000Y-65075000D03*
X157531000Y-65075000D03*
X160071000Y-65075000D03*
X162611000Y-65075000D03*
D25*
X133020000Y-85870000D03*
X133020000Y-91270000D03*
D26*
X111684000Y-66345000D03*
D27*
X111684000Y-68885000D03*
X111684000Y-71425000D03*
X111684000Y-73965000D03*
X119304000Y-73965000D03*
X119304000Y-71425000D03*
X119304000Y-68885000D03*
X119304000Y-66345000D03*
D28*
X140991000Y-82317750D03*
X140991000Y-70233750D03*
D29*
X160706000Y-82117750D03*
D30*
X160560000Y-70422750D03*
D31*
X124495000Y-97460000D03*
X122495000Y-97460000D03*
D22*
X113970000Y-97460000D03*
X166040000Y-64440000D03*
D32*
X158810000Y-93650000D03*
X156760000Y-93650000D03*
D22*
X166040000Y-92380000D03*
D33*
X165845000Y-77965000D03*
X165845000Y-80505000D03*
X165845000Y-83045000D03*
X165845000Y-85585000D03*
D34*
X136355000Y-78410000D03*
X130955000Y-78410000D03*
M02*
