G04 #@! TF.GenerationSoftware,KiCad,Pcbnew,6.0.7-f9a2dced07~116~ubuntu20.04.1*
G04 #@! TF.CreationDate,2022-08-24T23:56:41+08:00*
G04 #@! TF.ProjectId,arduino_can_bus_shield_v2.1,61726475-696e-46f5-9f63-616e5f627573,rev?*
G04 #@! TF.SameCoordinates,Original*
G04 #@! TF.FileFunction,Copper,L1,Top*
G04 #@! TF.FilePolarity,Positive*
%FSLAX46Y46*%
G04 Gerber Fmt 4.6, Leading zero omitted, Abs format (unit mm)*
G04 Created by KiCad (PCBNEW 6.0.7-f9a2dced07~116~ubuntu20.04.1) date 2022-08-24 23:56:41*
%MOMM*%
%LPD*%
G01*
G04 APERTURE LIST*
G04 Aperture macros list*
%AMRoundRect*
0 Rectangle with rounded corners*
0 $1 Rounding radius*
0 $2 $3 $4 $5 $6 $7 $8 $9 X,Y pos of 4 corners*
0 Add a 4 corners polygon primitive as box body*
4,1,4,$2,$3,$4,$5,$6,$7,$8,$9,$2,$3,0*
0 Add four circle primitives for the rounded corners*
1,1,$1+$1,$2,$3*
1,1,$1+$1,$4,$5*
1,1,$1+$1,$6,$7*
1,1,$1+$1,$8,$9*
0 Add four rect primitives between the rounded corners*
20,1,$1+$1,$2,$3,$4,$5,0*
20,1,$1+$1,$4,$5,$6,$7,0*
20,1,$1+$1,$6,$7,$8,$9,0*
20,1,$1+$1,$8,$9,$2,$3,0*%
G04 Aperture macros list end*
G04 #@! TA.AperFunction,ComponentPad*
%ADD10R,1.700000X1.700000*%
G04 #@! TD*
G04 #@! TA.AperFunction,ComponentPad*
%ADD11O,1.700000X1.700000*%
G04 #@! TD*
G04 #@! TA.AperFunction,SMDPad,CuDef*
%ADD12RoundRect,0.250000X-0.450000X0.350000X-0.450000X-0.350000X0.450000X-0.350000X0.450000X0.350000X0*%
G04 #@! TD*
G04 #@! TA.AperFunction,SMDPad,CuDef*
%ADD13RoundRect,0.250000X-0.350000X-0.450000X0.350000X-0.450000X0.350000X0.450000X-0.350000X0.450000X0*%
G04 #@! TD*
G04 #@! TA.AperFunction,SMDPad,CuDef*
%ADD14RoundRect,0.250000X-0.325000X-0.450000X0.325000X-0.450000X0.325000X0.450000X-0.325000X0.450000X0*%
G04 #@! TD*
G04 #@! TA.AperFunction,WasherPad*
%ADD15R,1.800000X0.900000*%
G04 #@! TD*
G04 #@! TA.AperFunction,ComponentPad*
%ADD16C,4.500000*%
G04 #@! TD*
G04 #@! TA.AperFunction,SMDPad,CuDef*
%ADD17R,1.600000X1.400000*%
G04 #@! TD*
G04 #@! TA.AperFunction,ComponentPad*
%ADD18RoundRect,0.250001X0.499999X-0.499999X0.499999X0.499999X-0.499999X0.499999X-0.499999X-0.499999X0*%
G04 #@! TD*
G04 #@! TA.AperFunction,ComponentPad*
%ADD19C,1.500000*%
G04 #@! TD*
G04 #@! TA.AperFunction,SMDPad,CuDef*
%ADD20RoundRect,0.250000X-0.550000X1.412500X-0.550000X-1.412500X0.550000X-1.412500X0.550000X1.412500X0*%
G04 #@! TD*
G04 #@! TA.AperFunction,SMDPad,CuDef*
%ADD21RoundRect,0.250000X0.450000X-0.350000X0.450000X0.350000X-0.450000X0.350000X-0.450000X-0.350000X0*%
G04 #@! TD*
G04 #@! TA.AperFunction,ComponentPad*
%ADD22C,1.524000*%
G04 #@! TD*
G04 #@! TA.AperFunction,SMDPad,CuDef*
%ADD23R,2.300000X3.500000*%
G04 #@! TD*
G04 #@! TA.AperFunction,ComponentPad*
%ADD24R,1.600000X1.600000*%
G04 #@! TD*
G04 #@! TA.AperFunction,ComponentPad*
%ADD25O,1.600000X1.600000*%
G04 #@! TD*
G04 #@! TA.AperFunction,SMDPad,CuDef*
%ADD26R,5.020000X2.940000*%
G04 #@! TD*
G04 #@! TA.AperFunction,SMDPad,CuDef*
%ADD27R,4.826000X3.048000*%
G04 #@! TD*
G04 #@! TA.AperFunction,SMDPad,CuDef*
%ADD28R,5.118000X3.070000*%
G04 #@! TD*
G04 #@! TA.AperFunction,SMDPad,CuDef*
%ADD29RoundRect,0.250000X0.350000X0.450000X-0.350000X0.450000X-0.350000X-0.450000X0.350000X-0.450000X0*%
G04 #@! TD*
G04 #@! TA.AperFunction,SMDPad,CuDef*
%ADD30RoundRect,0.250000X0.325000X0.450000X-0.325000X0.450000X-0.325000X-0.450000X0.325000X-0.450000X0*%
G04 #@! TD*
G04 #@! TA.AperFunction,ComponentPad*
%ADD31O,2.000000X1.600000*%
G04 #@! TD*
G04 #@! TA.AperFunction,SMDPad,CuDef*
%ADD32R,3.500000X2.300000*%
G04 #@! TD*
G04 #@! TA.AperFunction,ViaPad*
%ADD33C,0.600000*%
G04 #@! TD*
G04 #@! TA.AperFunction,ViaPad*
%ADD34C,0.800000*%
G04 #@! TD*
G04 #@! TA.AperFunction,Conductor*
%ADD35C,0.400000*%
G04 #@! TD*
G04 #@! TA.AperFunction,Conductor*
%ADD36C,1.500000*%
G04 #@! TD*
G04 #@! TA.AperFunction,Conductor*
%ADD37C,0.600000*%
G04 #@! TD*
G04 #@! TA.AperFunction,Conductor*
%ADD38C,2.000000*%
G04 #@! TD*
G04 APERTURE END LIST*
D10*
X127940000Y-97460000D03*
D11*
X130480000Y-97460000D03*
X133020000Y-97460000D03*
X135560000Y-97460000D03*
X138100000Y-97460000D03*
X140640000Y-97460000D03*
X143180000Y-97460000D03*
X145720000Y-97460000D03*
D10*
X150800000Y-97460000D03*
D11*
X153340000Y-97460000D03*
X155880000Y-97460000D03*
X158420000Y-97460000D03*
X160960000Y-97460000D03*
X163500000Y-97460000D03*
D10*
X118796000Y-49200000D03*
D11*
X121336000Y-49200000D03*
X123876000Y-49200000D03*
X126416000Y-49200000D03*
X128956000Y-49200000D03*
X131496000Y-49200000D03*
X134036000Y-49200000D03*
X136576000Y-49200000D03*
X139116000Y-49200000D03*
X141656000Y-49200000D03*
D10*
X145720000Y-49200000D03*
D11*
X148260000Y-49200000D03*
X150800000Y-49200000D03*
X153340000Y-49200000D03*
X155880000Y-49200000D03*
X158420000Y-49200000D03*
X160960000Y-49200000D03*
X163500000Y-49200000D03*
D12*
X137465000Y-53915000D03*
X137465000Y-55915000D03*
D13*
X152975000Y-93650000D03*
X154975000Y-93650000D03*
D14*
X118415000Y-97460000D03*
X120465000Y-97460000D03*
D15*
X119050000Y-92145000D03*
X119050000Y-78645000D03*
D16*
X125050000Y-88995000D03*
X125050000Y-81795000D03*
D17*
X134080000Y-60400000D03*
X126880000Y-60400000D03*
X134080000Y-63400000D03*
X126880000Y-63400000D03*
D18*
X117780000Y-59360000D03*
D19*
X117780000Y-56360000D03*
X120780000Y-59360000D03*
X120780000Y-56360000D03*
D17*
X126880000Y-54050000D03*
X134080000Y-54050000D03*
X126880000Y-57050000D03*
X134080000Y-57050000D03*
D20*
X148260000Y-87302500D03*
X148260000Y-92377500D03*
X140640000Y-87302500D03*
X140640000Y-92377500D03*
D21*
X137465000Y-60360000D03*
X137465000Y-58360000D03*
D22*
X139751000Y-65075000D03*
X142291000Y-65075000D03*
X144831000Y-65075000D03*
X147371000Y-65075000D03*
X149911000Y-65075000D03*
X152451000Y-65075000D03*
X154991000Y-65075000D03*
X157531000Y-65075000D03*
X160071000Y-65075000D03*
X162611000Y-65075000D03*
D23*
X133020000Y-85870000D03*
X133020000Y-91270000D03*
D24*
X111684000Y-66345000D03*
D25*
X111684000Y-68885000D03*
X111684000Y-71425000D03*
X111684000Y-73965000D03*
X119304000Y-73965000D03*
X119304000Y-71425000D03*
X119304000Y-68885000D03*
X119304000Y-66345000D03*
D26*
X140991000Y-82317750D03*
X140991000Y-70233750D03*
D27*
X160706000Y-82117750D03*
D28*
X160560000Y-70422750D03*
D29*
X124495000Y-97460000D03*
X122495000Y-97460000D03*
D30*
X158810000Y-93650000D03*
X156760000Y-93650000D03*
D31*
X165845000Y-77965000D03*
X165845000Y-80505000D03*
X165845000Y-83045000D03*
X165845000Y-85585000D03*
D32*
X136355000Y-78410000D03*
X130955000Y-78410000D03*
D33*
X134036000Y-55296000D03*
X136449000Y-57201000D03*
D34*
X110160000Y-97460000D03*
X149530000Y-53645000D03*
X134925000Y-82220000D03*
X153975000Y-77775000D03*
X153975000Y-72695000D03*
X155245000Y-56820000D03*
X129210000Y-51740000D03*
X158420000Y-59995000D03*
X129210000Y-74600000D03*
X140005000Y-56820000D03*
X152070000Y-56820000D03*
X166675000Y-70155000D03*
X133655000Y-74600000D03*
X162865000Y-59995000D03*
X136195000Y-90475000D03*
X147625000Y-72695000D03*
X111430000Y-82220000D03*
X153975000Y-91110000D03*
X155245000Y-53645000D03*
X110795000Y-53010000D03*
X157785000Y-87300000D03*
X148260000Y-97460000D03*
X152070000Y-53645000D03*
X110795000Y-55550000D03*
X149530000Y-56820000D03*
X122860000Y-56185000D03*
X116510000Y-98095000D03*
X143815000Y-57455000D03*
X153975000Y-87300000D03*
X115240000Y-53010000D03*
X129210000Y-89840000D03*
X157785000Y-91110000D03*
X147625000Y-77775000D03*
X124765000Y-74600000D03*
X110795000Y-49835000D03*
X119050000Y-82855000D03*
X111430000Y-87935000D03*
X119050000Y-87300000D03*
D33*
X135560000Y-63805000D03*
D34*
X164135000Y-82855000D03*
D33*
X138100000Y-64059000D03*
X116129000Y-60249000D03*
D35*
X134036000Y-55296000D02*
X135052000Y-55296000D01*
X135052000Y-55296000D02*
X136449000Y-56693000D01*
X136449000Y-56693000D02*
X136449000Y-57201000D01*
X137465000Y-53915000D02*
X137465000Y-51740000D01*
X138100000Y-51105000D02*
X139751000Y-51105000D01*
X137465000Y-51740000D02*
X138100000Y-51105000D01*
X139751000Y-51105000D02*
X141656000Y-49200000D01*
X134080000Y-60400000D02*
X134310000Y-60630000D01*
X134310000Y-60630000D02*
X143815000Y-60630000D01*
X143815000Y-60630000D02*
X145720000Y-58725000D01*
X145720000Y-58725000D02*
X145720000Y-53010000D01*
X145720000Y-53010000D02*
X148260000Y-50470000D01*
X148260000Y-50470000D02*
X148260000Y-49200000D01*
D36*
X125400000Y-95047000D02*
X124495000Y-95952000D01*
X129107000Y-63400000D02*
X126880000Y-63400000D01*
X138100000Y-97460000D02*
X138100000Y-95555000D01*
X129210000Y-57050000D02*
X125170000Y-57050000D01*
X125170000Y-57050000D02*
X124130000Y-58090000D01*
X114629000Y-63400000D02*
X111684000Y-66345000D01*
X112192000Y-68885000D02*
X111684000Y-68885000D01*
X121820000Y-63400000D02*
X114629000Y-63400000D01*
X125400000Y-95047000D02*
X115875000Y-95047000D01*
X138100000Y-95555000D02*
X137592000Y-95047000D01*
D37*
X111684000Y-66345000D02*
X111684000Y-68885000D01*
D36*
X122630000Y-63400000D02*
X121820000Y-63400000D01*
X134080000Y-57050000D02*
X129186000Y-57050000D01*
X114351000Y-93523000D02*
X114351000Y-71044000D01*
X124130000Y-58090000D02*
X124130000Y-61900000D01*
X124495000Y-95952000D02*
X124495000Y-97460000D01*
D35*
X135560000Y-63805000D02*
X134485000Y-63805000D01*
D36*
X114351000Y-71044000D02*
X112192000Y-68885000D01*
X126880000Y-63400000D02*
X121820000Y-63400000D01*
X115875000Y-95047000D02*
X114351000Y-93523000D01*
X124130000Y-61900000D02*
X122630000Y-63400000D01*
D35*
X134485000Y-63805000D02*
X134080000Y-63400000D01*
D36*
X134080000Y-63400000D02*
X129107000Y-63400000D01*
X137592000Y-95047000D02*
X125400000Y-95047000D01*
D37*
X152975000Y-93650000D02*
X150800000Y-95825000D01*
X150800000Y-95825000D02*
X150800000Y-97460000D01*
X160960000Y-90470000D02*
X165845000Y-85585000D01*
X160960000Y-97460000D02*
X160960000Y-90470000D01*
D35*
X134080000Y-60400000D02*
X126880000Y-60400000D01*
D37*
X164135000Y-82855000D02*
X164135000Y-82215000D01*
X164135000Y-82215000D02*
X165845000Y-80505000D01*
D38*
X148260000Y-87302500D02*
X147625000Y-87302500D01*
X155982250Y-82117750D02*
X150797500Y-87302500D01*
X160706000Y-82117750D02*
X155982250Y-82117750D01*
X145720000Y-89207500D02*
X145720000Y-97460000D01*
X150797500Y-87302500D02*
X148260000Y-87302500D01*
X147625000Y-87302500D02*
X145720000Y-89207500D01*
X136355000Y-78410000D02*
X137083250Y-78410000D01*
X137083250Y-78410000D02*
X140991000Y-82317750D01*
X140991000Y-82317750D02*
X140991000Y-86951500D01*
X140991000Y-86951500D02*
X140640000Y-87302500D01*
D35*
X138100000Y-64059000D02*
X136602050Y-64059000D01*
X136602050Y-64059000D02*
X134316050Y-66345000D01*
X134316050Y-66345000D02*
X119304000Y-66345000D01*
D38*
X125050000Y-81795000D02*
X127570000Y-81795000D01*
X128945000Y-81795000D02*
X133020000Y-85870000D01*
X127570000Y-81795000D02*
X130955000Y-78410000D01*
X125050000Y-81795000D02*
X128945000Y-81795000D01*
D37*
X122495000Y-97460000D02*
X120465000Y-97460000D01*
X156760000Y-93650000D02*
X154975000Y-93650000D01*
D35*
X116129000Y-58011000D02*
X117780000Y-56360000D01*
X116129000Y-60249000D02*
X116129000Y-58011000D01*
X134290000Y-67615000D02*
X136830000Y-65075000D01*
X119304000Y-68885000D02*
X120574000Y-67615000D01*
X120574000Y-67615000D02*
X134290000Y-67615000D01*
X136830000Y-65075000D02*
X139751000Y-65075000D01*
X137465000Y-53915000D02*
X137330000Y-54050000D01*
X137330000Y-54050000D02*
X134080000Y-54050000D01*
X134080000Y-54050000D02*
X126880000Y-54050000D01*
G04 #@! TA.AperFunction,Conductor*
G36*
X113953273Y-47315002D02*
G01*
X113999766Y-47368658D01*
X114009870Y-47438932D01*
X113980376Y-47503512D01*
X113957602Y-47524087D01*
X113913489Y-47555090D01*
X113913482Y-47555095D01*
X113909977Y-47557559D01*
X113906836Y-47560478D01*
X113768725Y-47688819D01*
X113699378Y-47753260D01*
X113517287Y-47975732D01*
X113367073Y-48220858D01*
X113251517Y-48484102D01*
X113250342Y-48488229D01*
X113250341Y-48488230D01*
X113247097Y-48499618D01*
X113172756Y-48760594D01*
X113132249Y-49045216D01*
X113132227Y-49049505D01*
X113132226Y-49049512D01*
X113130765Y-49328417D01*
X113130743Y-49332703D01*
X113168268Y-49617734D01*
X113244129Y-49895036D01*
X113245813Y-49898984D01*
X113341202Y-50122618D01*
X113356923Y-50159476D01*
X113367406Y-50176992D01*
X113497031Y-50393579D01*
X113504561Y-50406161D01*
X113684313Y-50630528D01*
X113801403Y-50741642D01*
X113886733Y-50822617D01*
X113892851Y-50828423D01*
X114126317Y-50996186D01*
X114130112Y-50998195D01*
X114130113Y-50998196D01*
X114151869Y-51009715D01*
X114380392Y-51130712D01*
X114404699Y-51139607D01*
X114620462Y-51218565D01*
X114650373Y-51229511D01*
X114931264Y-51290755D01*
X114959841Y-51293004D01*
X115154282Y-51308307D01*
X115154291Y-51308307D01*
X115156739Y-51308500D01*
X115312271Y-51308500D01*
X115314407Y-51308354D01*
X115314418Y-51308354D01*
X115522548Y-51294165D01*
X115522554Y-51294164D01*
X115526825Y-51293873D01*
X115531020Y-51293004D01*
X115531022Y-51293004D01*
X115702735Y-51257444D01*
X115808342Y-51235574D01*
X116079343Y-51139607D01*
X116334812Y-51007750D01*
X116338313Y-51005289D01*
X116338317Y-51005287D01*
X116565400Y-50845690D01*
X116570023Y-50842441D01*
X116675253Y-50744655D01*
X116777479Y-50649661D01*
X116777481Y-50649658D01*
X116780622Y-50646740D01*
X116962713Y-50424268D01*
X117112927Y-50179142D01*
X117116927Y-50170031D01*
X117196127Y-49989607D01*
X117241823Y-49935271D01*
X117309641Y-49914266D01*
X117378049Y-49933260D01*
X117425329Y-49986224D01*
X117437500Y-50040252D01*
X117437500Y-50098134D01*
X117444255Y-50160316D01*
X117495385Y-50296705D01*
X117582739Y-50413261D01*
X117699295Y-50500615D01*
X117835684Y-50551745D01*
X117897866Y-50558500D01*
X119694134Y-50558500D01*
X119756316Y-50551745D01*
X119892705Y-50500615D01*
X120009261Y-50413261D01*
X120096615Y-50296705D01*
X120101346Y-50284086D01*
X120140598Y-50179382D01*
X120183240Y-50122618D01*
X120249802Y-50097918D01*
X120319150Y-50113126D01*
X120353817Y-50141114D01*
X120382250Y-50173938D01*
X120554126Y-50316632D01*
X120747000Y-50429338D01*
X120751825Y-50431180D01*
X120751826Y-50431181D01*
X120798476Y-50448995D01*
X120955692Y-50509030D01*
X120960760Y-50510061D01*
X120960763Y-50510062D01*
X121020822Y-50522281D01*
X121174597Y-50553567D01*
X121179772Y-50553757D01*
X121179774Y-50553757D01*
X121392673Y-50561564D01*
X121392677Y-50561564D01*
X121397837Y-50561753D01*
X121402957Y-50561097D01*
X121402959Y-50561097D01*
X121614288Y-50534025D01*
X121614289Y-50534025D01*
X121619416Y-50533368D01*
X121659264Y-50521413D01*
X121828429Y-50470661D01*
X121828434Y-50470659D01*
X121833384Y-50469174D01*
X122033994Y-50370896D01*
X122215860Y-50241173D01*
X122374096Y-50083489D01*
X122433594Y-50000689D01*
X122504453Y-49902077D01*
X122505776Y-49903028D01*
X122552645Y-49859857D01*
X122622580Y-49847625D01*
X122688026Y-49875144D01*
X122715875Y-49906994D01*
X122775987Y-50005088D01*
X122922250Y-50173938D01*
X123094126Y-50316632D01*
X123287000Y-50429338D01*
X123291825Y-50431180D01*
X123291826Y-50431181D01*
X123338476Y-50448995D01*
X123495692Y-50509030D01*
X123500760Y-50510061D01*
X123500763Y-50510062D01*
X123560822Y-50522281D01*
X123714597Y-50553567D01*
X123719772Y-50553757D01*
X123719774Y-50553757D01*
X123932673Y-50561564D01*
X123932677Y-50561564D01*
X123937837Y-50561753D01*
X123942957Y-50561097D01*
X123942959Y-50561097D01*
X124154288Y-50534025D01*
X124154289Y-50534025D01*
X124159416Y-50533368D01*
X124199264Y-50521413D01*
X124368429Y-50470661D01*
X124368434Y-50470659D01*
X124373384Y-50469174D01*
X124573994Y-50370896D01*
X124755860Y-50241173D01*
X124914096Y-50083489D01*
X124973594Y-50000689D01*
X125041435Y-49906277D01*
X125044453Y-49902077D01*
X125049979Y-49890897D01*
X125141136Y-49706453D01*
X125141137Y-49706451D01*
X125143430Y-49701811D01*
X125208370Y-49488069D01*
X125237529Y-49266590D01*
X125239156Y-49200000D01*
X125220852Y-48977361D01*
X125166431Y-48760702D01*
X125077354Y-48555840D01*
X124996769Y-48431274D01*
X124958822Y-48372617D01*
X124958820Y-48372614D01*
X124956014Y-48368277D01*
X124805670Y-48203051D01*
X124801619Y-48199852D01*
X124801615Y-48199848D01*
X124634414Y-48067800D01*
X124634410Y-48067798D01*
X124630359Y-48064598D01*
X124434789Y-47956638D01*
X124429920Y-47954914D01*
X124429916Y-47954912D01*
X124229087Y-47883795D01*
X124229083Y-47883794D01*
X124224212Y-47882069D01*
X124219119Y-47881162D01*
X124219116Y-47881161D01*
X124009373Y-47843800D01*
X124009367Y-47843799D01*
X124004284Y-47842894D01*
X123930452Y-47841992D01*
X123786081Y-47840228D01*
X123786079Y-47840228D01*
X123780911Y-47840165D01*
X123560091Y-47873955D01*
X123347756Y-47943357D01*
X123149607Y-48046507D01*
X123145474Y-48049610D01*
X123145471Y-48049612D01*
X122975100Y-48177530D01*
X122970965Y-48180635D01*
X122967393Y-48184373D01*
X122826888Y-48331403D01*
X122816629Y-48342138D01*
X122709201Y-48499621D01*
X122654293Y-48544621D01*
X122583768Y-48552792D01*
X122520021Y-48521538D01*
X122499324Y-48497054D01*
X122418822Y-48372617D01*
X122418820Y-48372614D01*
X122416014Y-48368277D01*
X122265670Y-48203051D01*
X122261619Y-48199852D01*
X122261615Y-48199848D01*
X122094414Y-48067800D01*
X122094410Y-48067798D01*
X122090359Y-48064598D01*
X121894789Y-47956638D01*
X121889920Y-47954914D01*
X121889916Y-47954912D01*
X121689087Y-47883795D01*
X121689083Y-47883794D01*
X121684212Y-47882069D01*
X121679119Y-47881162D01*
X121679116Y-47881161D01*
X121469373Y-47843800D01*
X121469367Y-47843799D01*
X121464284Y-47842894D01*
X121390452Y-47841992D01*
X121246081Y-47840228D01*
X121246079Y-47840228D01*
X121240911Y-47840165D01*
X121020091Y-47873955D01*
X120807756Y-47943357D01*
X120609607Y-48046507D01*
X120605474Y-48049610D01*
X120605471Y-48049612D01*
X120435100Y-48177530D01*
X120430965Y-48180635D01*
X120374537Y-48239684D01*
X120350283Y-48265064D01*
X120288759Y-48300494D01*
X120217846Y-48297037D01*
X120160060Y-48255791D01*
X120141207Y-48222243D01*
X120099767Y-48111703D01*
X120096615Y-48103295D01*
X120009261Y-47986739D01*
X119892705Y-47899385D01*
X119756316Y-47848255D01*
X119694134Y-47841500D01*
X117897866Y-47841500D01*
X117835684Y-47848255D01*
X117699295Y-47899385D01*
X117582739Y-47986739D01*
X117495385Y-48103295D01*
X117444255Y-48239684D01*
X117437500Y-48301866D01*
X117437500Y-48361123D01*
X117417498Y-48429244D01*
X117363842Y-48475737D01*
X117293568Y-48485841D01*
X117228988Y-48456347D01*
X117195603Y-48410558D01*
X117124763Y-48244476D01*
X117124761Y-48244472D01*
X117123077Y-48240524D01*
X117019704Y-48067800D01*
X116977643Y-47997521D01*
X116977640Y-47997517D01*
X116975439Y-47993839D01*
X116795687Y-47769472D01*
X116587149Y-47571577D01*
X116519993Y-47523320D01*
X116476347Y-47467328D01*
X116469901Y-47396625D01*
X116502704Y-47333660D01*
X116564340Y-47298426D01*
X116593521Y-47295000D01*
X164092144Y-47295000D01*
X164160265Y-47315002D01*
X164168964Y-47321127D01*
X165359388Y-48236837D01*
X165482324Y-48331403D01*
X165524122Y-48388791D01*
X165531500Y-48431274D01*
X165531500Y-59288928D01*
X165530145Y-59301058D01*
X165530627Y-59301097D01*
X165529907Y-59310044D01*
X165527926Y-59318800D01*
X165528482Y-59327760D01*
X165531258Y-59372508D01*
X165531500Y-59380310D01*
X165531500Y-59396513D01*
X165532136Y-59400953D01*
X165532984Y-59406878D01*
X165534013Y-59416928D01*
X165536945Y-59464177D01*
X165539994Y-59472623D01*
X165540593Y-59475514D01*
X165544822Y-59492480D01*
X165545648Y-59495305D01*
X165546920Y-59504187D01*
X165566522Y-59547298D01*
X165570327Y-59556647D01*
X165586404Y-59601181D01*
X165591699Y-59608429D01*
X165593080Y-59611027D01*
X165601915Y-59626145D01*
X165603494Y-59628614D01*
X165607208Y-59636782D01*
X165613064Y-59643578D01*
X165638115Y-59672652D01*
X165644401Y-59680569D01*
X165649548Y-59687615D01*
X165649553Y-59687620D01*
X165652425Y-59691552D01*
X165663400Y-59702527D01*
X165669758Y-59709374D01*
X165702287Y-59747127D01*
X165709822Y-59752011D01*
X165716066Y-59757458D01*
X165727931Y-59767058D01*
X165749095Y-59788222D01*
X165783121Y-59850534D01*
X165786000Y-59877317D01*
X165786000Y-59995000D01*
X168036851Y-62364317D01*
X168069267Y-62427478D01*
X168071500Y-62451097D01*
X168071500Y-63272636D01*
X168051498Y-63340757D01*
X167997842Y-63387250D01*
X167927568Y-63397354D01*
X167862988Y-63367860D01*
X167837384Y-63337342D01*
X167833892Y-63331506D01*
X167793708Y-63264364D01*
X167777643Y-63237521D01*
X167777640Y-63237517D01*
X167775439Y-63233839D01*
X167595687Y-63009472D01*
X167387149Y-62811577D01*
X167169644Y-62655283D01*
X167157172Y-62646321D01*
X167157171Y-62646320D01*
X167153683Y-62643814D01*
X167131843Y-62632250D01*
X167037475Y-62582285D01*
X166899608Y-62509288D01*
X166676052Y-62427478D01*
X166633658Y-62411964D01*
X166633656Y-62411963D01*
X166629627Y-62410489D01*
X166348736Y-62349245D01*
X166317685Y-62346801D01*
X166125718Y-62331693D01*
X166125709Y-62331693D01*
X166123261Y-62331500D01*
X165967729Y-62331500D01*
X165965593Y-62331646D01*
X165965582Y-62331646D01*
X165757452Y-62345835D01*
X165757446Y-62345836D01*
X165753175Y-62346127D01*
X165748980Y-62346996D01*
X165748978Y-62346996D01*
X165681360Y-62360999D01*
X165471658Y-62404426D01*
X165200657Y-62500393D01*
X164945188Y-62632250D01*
X164941687Y-62634711D01*
X164941683Y-62634713D01*
X164917277Y-62651866D01*
X164709977Y-62797559D01*
X164499378Y-62993260D01*
X164317287Y-63215732D01*
X164167073Y-63460858D01*
X164051517Y-63724102D01*
X163972756Y-64000594D01*
X163932249Y-64285216D01*
X163931923Y-64347467D01*
X163911565Y-64415482D01*
X163857666Y-64461693D01*
X163787340Y-64471429D01*
X163722915Y-64441598D01*
X163702712Y-64419078D01*
X163591136Y-64259730D01*
X163591134Y-64259727D01*
X163587977Y-64255219D01*
X163430781Y-64098023D01*
X163426273Y-64094866D01*
X163426270Y-64094864D01*
X163301615Y-64007580D01*
X163248677Y-63970512D01*
X163243695Y-63968189D01*
X163243690Y-63968186D01*
X163052178Y-63878883D01*
X163052177Y-63878882D01*
X163047196Y-63876560D01*
X163041888Y-63875138D01*
X163041886Y-63875137D01*
X162976051Y-63857497D01*
X162832463Y-63819022D01*
X162611000Y-63799647D01*
X162389537Y-63819022D01*
X162245949Y-63857497D01*
X162180114Y-63875137D01*
X162180112Y-63875138D01*
X162174804Y-63876560D01*
X162169823Y-63878882D01*
X162169822Y-63878883D01*
X161978311Y-63968186D01*
X161978306Y-63968189D01*
X161973324Y-63970512D01*
X161968817Y-63973668D01*
X161968815Y-63973669D01*
X161795730Y-64094864D01*
X161795727Y-64094866D01*
X161791219Y-64098023D01*
X161634023Y-64255219D01*
X161630866Y-64259727D01*
X161630864Y-64259730D01*
X161569430Y-64347467D01*
X161506512Y-64437324D01*
X161504189Y-64442306D01*
X161504186Y-64442311D01*
X161455195Y-64547373D01*
X161408277Y-64600658D01*
X161340000Y-64620119D01*
X161272040Y-64599577D01*
X161226805Y-64547373D01*
X161177814Y-64442311D01*
X161177811Y-64442306D01*
X161175488Y-64437324D01*
X161112570Y-64347467D01*
X161051136Y-64259730D01*
X161051134Y-64259727D01*
X161047977Y-64255219D01*
X160890781Y-64098023D01*
X160886273Y-64094866D01*
X160886270Y-64094864D01*
X160761615Y-64007580D01*
X160708677Y-63970512D01*
X160703695Y-63968189D01*
X160703690Y-63968186D01*
X160512178Y-63878883D01*
X160512177Y-63878882D01*
X160507196Y-63876560D01*
X160501888Y-63875138D01*
X160501886Y-63875137D01*
X160436051Y-63857497D01*
X160292463Y-63819022D01*
X160071000Y-63799647D01*
X159849537Y-63819022D01*
X159705949Y-63857497D01*
X159640114Y-63875137D01*
X159640112Y-63875138D01*
X159634804Y-63876560D01*
X159629823Y-63878882D01*
X159629822Y-63878883D01*
X159438311Y-63968186D01*
X159438306Y-63968189D01*
X159433324Y-63970512D01*
X159428817Y-63973668D01*
X159428815Y-63973669D01*
X159255730Y-64094864D01*
X159255727Y-64094866D01*
X159251219Y-64098023D01*
X159094023Y-64255219D01*
X159090866Y-64259727D01*
X159090864Y-64259730D01*
X159029430Y-64347467D01*
X158966512Y-64437324D01*
X158964189Y-64442306D01*
X158964186Y-64442311D01*
X158915195Y-64547373D01*
X158868277Y-64600658D01*
X158800000Y-64620119D01*
X158732040Y-64599577D01*
X158686805Y-64547373D01*
X158637814Y-64442311D01*
X158637811Y-64442306D01*
X158635488Y-64437324D01*
X158572570Y-64347467D01*
X158511136Y-64259730D01*
X158511134Y-64259727D01*
X158507977Y-64255219D01*
X158350781Y-64098023D01*
X158346273Y-64094866D01*
X158346270Y-64094864D01*
X158221615Y-64007580D01*
X158168677Y-63970512D01*
X158163695Y-63968189D01*
X158163690Y-63968186D01*
X157972178Y-63878883D01*
X157972177Y-63878882D01*
X157967196Y-63876560D01*
X157961888Y-63875138D01*
X157961886Y-63875137D01*
X157896051Y-63857497D01*
X157752463Y-63819022D01*
X157531000Y-63799647D01*
X157309537Y-63819022D01*
X157165949Y-63857497D01*
X157100114Y-63875137D01*
X157100112Y-63875138D01*
X157094804Y-63876560D01*
X157089823Y-63878882D01*
X157089822Y-63878883D01*
X156898311Y-63968186D01*
X156898306Y-63968189D01*
X156893324Y-63970512D01*
X156888817Y-63973668D01*
X156888815Y-63973669D01*
X156715730Y-64094864D01*
X156715727Y-64094866D01*
X156711219Y-64098023D01*
X156554023Y-64255219D01*
X156550866Y-64259727D01*
X156550864Y-64259730D01*
X156489430Y-64347467D01*
X156426512Y-64437324D01*
X156424189Y-64442306D01*
X156424186Y-64442311D01*
X156375195Y-64547373D01*
X156328277Y-64600658D01*
X156260000Y-64620119D01*
X156192040Y-64599577D01*
X156146805Y-64547373D01*
X156097814Y-64442311D01*
X156097811Y-64442306D01*
X156095488Y-64437324D01*
X156032570Y-64347467D01*
X155971136Y-64259730D01*
X155971134Y-64259727D01*
X155967977Y-64255219D01*
X155810781Y-64098023D01*
X155806273Y-64094866D01*
X155806270Y-64094864D01*
X155681615Y-64007580D01*
X155628677Y-63970512D01*
X155623695Y-63968189D01*
X155623690Y-63968186D01*
X155432178Y-63878883D01*
X155432177Y-63878882D01*
X155427196Y-63876560D01*
X155421888Y-63875138D01*
X155421886Y-63875137D01*
X155356051Y-63857497D01*
X155212463Y-63819022D01*
X154991000Y-63799647D01*
X154769537Y-63819022D01*
X154625949Y-63857497D01*
X154560114Y-63875137D01*
X154560112Y-63875138D01*
X154554804Y-63876560D01*
X154549823Y-63878882D01*
X154549822Y-63878883D01*
X154358311Y-63968186D01*
X154358306Y-63968189D01*
X154353324Y-63970512D01*
X154348817Y-63973668D01*
X154348815Y-63973669D01*
X154175730Y-64094864D01*
X154175727Y-64094866D01*
X154171219Y-64098023D01*
X154014023Y-64255219D01*
X154010866Y-64259727D01*
X154010864Y-64259730D01*
X153949430Y-64347467D01*
X153886512Y-64437324D01*
X153884189Y-64442306D01*
X153884186Y-64442311D01*
X153835195Y-64547373D01*
X153788277Y-64600658D01*
X153720000Y-64620119D01*
X153652040Y-64599577D01*
X153606805Y-64547373D01*
X153557814Y-64442311D01*
X153557811Y-64442306D01*
X153555488Y-64437324D01*
X153492570Y-64347467D01*
X153431136Y-64259730D01*
X153431134Y-64259727D01*
X153427977Y-64255219D01*
X153270781Y-64098023D01*
X153266273Y-64094866D01*
X153266270Y-64094864D01*
X153141615Y-64007580D01*
X153088677Y-63970512D01*
X153083695Y-63968189D01*
X153083690Y-63968186D01*
X152892178Y-63878883D01*
X152892177Y-63878882D01*
X152887196Y-63876560D01*
X152881888Y-63875138D01*
X152881886Y-63875137D01*
X152816051Y-63857497D01*
X152672463Y-63819022D01*
X152451000Y-63799647D01*
X152229537Y-63819022D01*
X152085949Y-63857497D01*
X152020114Y-63875137D01*
X152020112Y-63875138D01*
X152014804Y-63876560D01*
X152009823Y-63878882D01*
X152009822Y-63878883D01*
X151818311Y-63968186D01*
X151818306Y-63968189D01*
X151813324Y-63970512D01*
X151808817Y-63973668D01*
X151808815Y-63973669D01*
X151635730Y-64094864D01*
X151635727Y-64094866D01*
X151631219Y-64098023D01*
X151474023Y-64255219D01*
X151470866Y-64259727D01*
X151470864Y-64259730D01*
X151409430Y-64347467D01*
X151346512Y-64437324D01*
X151344189Y-64442306D01*
X151344186Y-64442311D01*
X151295195Y-64547373D01*
X151248277Y-64600658D01*
X151180000Y-64620119D01*
X151112040Y-64599577D01*
X151066805Y-64547373D01*
X151017814Y-64442311D01*
X151017811Y-64442306D01*
X151015488Y-64437324D01*
X150952570Y-64347467D01*
X150891136Y-64259730D01*
X150891134Y-64259727D01*
X150887977Y-64255219D01*
X150730781Y-64098023D01*
X150726273Y-64094866D01*
X150726270Y-64094864D01*
X150601615Y-64007580D01*
X150548677Y-63970512D01*
X150543695Y-63968189D01*
X150543690Y-63968186D01*
X150352178Y-63878883D01*
X150352177Y-63878882D01*
X150347196Y-63876560D01*
X150341888Y-63875138D01*
X150341886Y-63875137D01*
X150276051Y-63857497D01*
X150132463Y-63819022D01*
X149911000Y-63799647D01*
X149689537Y-63819022D01*
X149545949Y-63857497D01*
X149480114Y-63875137D01*
X149480112Y-63875138D01*
X149474804Y-63876560D01*
X149469823Y-63878882D01*
X149469822Y-63878883D01*
X149278311Y-63968186D01*
X149278306Y-63968189D01*
X149273324Y-63970512D01*
X149268817Y-63973668D01*
X149268815Y-63973669D01*
X149095730Y-64094864D01*
X149095727Y-64094866D01*
X149091219Y-64098023D01*
X148934023Y-64255219D01*
X148930866Y-64259727D01*
X148930864Y-64259730D01*
X148869430Y-64347467D01*
X148806512Y-64437324D01*
X148804189Y-64442306D01*
X148804186Y-64442311D01*
X148755195Y-64547373D01*
X148708277Y-64600658D01*
X148640000Y-64620119D01*
X148572040Y-64599577D01*
X148526805Y-64547373D01*
X148477814Y-64442311D01*
X148477811Y-64442306D01*
X148475488Y-64437324D01*
X148412570Y-64347467D01*
X148351136Y-64259730D01*
X148351134Y-64259727D01*
X148347977Y-64255219D01*
X148190781Y-64098023D01*
X148186273Y-64094866D01*
X148186270Y-64094864D01*
X148061615Y-64007580D01*
X148008677Y-63970512D01*
X148003695Y-63968189D01*
X148003690Y-63968186D01*
X147812178Y-63878883D01*
X147812177Y-63878882D01*
X147807196Y-63876560D01*
X147801888Y-63875138D01*
X147801886Y-63875137D01*
X147736051Y-63857497D01*
X147592463Y-63819022D01*
X147371000Y-63799647D01*
X147149537Y-63819022D01*
X147005949Y-63857497D01*
X146940114Y-63875137D01*
X146940112Y-63875138D01*
X146934804Y-63876560D01*
X146929823Y-63878882D01*
X146929822Y-63878883D01*
X146738311Y-63968186D01*
X146738306Y-63968189D01*
X146733324Y-63970512D01*
X146728817Y-63973668D01*
X146728815Y-63973669D01*
X146555730Y-64094864D01*
X146555727Y-64094866D01*
X146551219Y-64098023D01*
X146394023Y-64255219D01*
X146390866Y-64259727D01*
X146390864Y-64259730D01*
X146329430Y-64347467D01*
X146266512Y-64437324D01*
X146264189Y-64442306D01*
X146264186Y-64442311D01*
X146215195Y-64547373D01*
X146168277Y-64600658D01*
X146100000Y-64620119D01*
X146032040Y-64599577D01*
X145986805Y-64547373D01*
X145937814Y-64442311D01*
X145937811Y-64442306D01*
X145935488Y-64437324D01*
X145872570Y-64347467D01*
X145811136Y-64259730D01*
X145811134Y-64259727D01*
X145807977Y-64255219D01*
X145650781Y-64098023D01*
X145646273Y-64094866D01*
X145646270Y-64094864D01*
X145521615Y-64007580D01*
X145468677Y-63970512D01*
X145463695Y-63968189D01*
X145463690Y-63968186D01*
X145272178Y-63878883D01*
X145272177Y-63878882D01*
X145267196Y-63876560D01*
X145261888Y-63875138D01*
X145261886Y-63875137D01*
X145196051Y-63857497D01*
X145052463Y-63819022D01*
X144831000Y-63799647D01*
X144609537Y-63819022D01*
X144465949Y-63857497D01*
X144400114Y-63875137D01*
X144400112Y-63875138D01*
X144394804Y-63876560D01*
X144389823Y-63878882D01*
X144389822Y-63878883D01*
X144198311Y-63968186D01*
X144198306Y-63968189D01*
X144193324Y-63970512D01*
X144188817Y-63973668D01*
X144188815Y-63973669D01*
X144015730Y-64094864D01*
X144015727Y-64094866D01*
X144011219Y-64098023D01*
X143854023Y-64255219D01*
X143850866Y-64259727D01*
X143850864Y-64259730D01*
X143789430Y-64347467D01*
X143726512Y-64437324D01*
X143724189Y-64442306D01*
X143724186Y-64442311D01*
X143650852Y-64599577D01*
X143632560Y-64638804D01*
X143631138Y-64644112D01*
X143631137Y-64644114D01*
X143626511Y-64661379D01*
X143575022Y-64853537D01*
X143555647Y-65075000D01*
X143575022Y-65296463D01*
X143607894Y-65419142D01*
X143629748Y-65500700D01*
X143632560Y-65511196D01*
X143634882Y-65516177D01*
X143634883Y-65516178D01*
X143724186Y-65707689D01*
X143724189Y-65707694D01*
X143726512Y-65712676D01*
X143729668Y-65717183D01*
X143729669Y-65717185D01*
X143850861Y-65890265D01*
X143854023Y-65894781D01*
X144011219Y-66051977D01*
X144015727Y-66055134D01*
X144015730Y-66055136D01*
X144030493Y-66065473D01*
X144193323Y-66179488D01*
X144198305Y-66181811D01*
X144198310Y-66181814D01*
X144389822Y-66271117D01*
X144394804Y-66273440D01*
X144400112Y-66274862D01*
X144400114Y-66274863D01*
X144465949Y-66292503D01*
X144609537Y-66330978D01*
X144831000Y-66350353D01*
X145052463Y-66330978D01*
X145196051Y-66292503D01*
X145261886Y-66274863D01*
X145261888Y-66274862D01*
X145267196Y-66273440D01*
X145272178Y-66271117D01*
X145463690Y-66181814D01*
X145463695Y-66181811D01*
X145468677Y-66179488D01*
X145631507Y-66065473D01*
X145646270Y-66055136D01*
X145646273Y-66055134D01*
X145650781Y-66051977D01*
X145807977Y-65894781D01*
X145811140Y-65890265D01*
X145932331Y-65717185D01*
X145932332Y-65717183D01*
X145935488Y-65712676D01*
X145937811Y-65707694D01*
X145937814Y-65707689D01*
X145986805Y-65602627D01*
X146033723Y-65549342D01*
X146102000Y-65529881D01*
X146169960Y-65550423D01*
X146215195Y-65602627D01*
X146264186Y-65707689D01*
X146264189Y-65707694D01*
X146266512Y-65712676D01*
X146269668Y-65717183D01*
X146269669Y-65717185D01*
X146390861Y-65890265D01*
X146394023Y-65894781D01*
X146551219Y-66051977D01*
X146555727Y-66055134D01*
X146555730Y-66055136D01*
X146570493Y-66065473D01*
X146733323Y-66179488D01*
X146738305Y-66181811D01*
X146738310Y-66181814D01*
X146929822Y-66271117D01*
X146934804Y-66273440D01*
X146940112Y-66274862D01*
X146940114Y-66274863D01*
X147005949Y-66292503D01*
X147149537Y-66330978D01*
X147371000Y-66350353D01*
X147592463Y-66330978D01*
X147736051Y-66292503D01*
X147801886Y-66274863D01*
X147801888Y-66274862D01*
X147807196Y-66273440D01*
X147812178Y-66271117D01*
X148003690Y-66181814D01*
X148003695Y-66181811D01*
X148008677Y-66179488D01*
X148171507Y-66065473D01*
X148186270Y-66055136D01*
X148186273Y-66055134D01*
X148190781Y-66051977D01*
X148347977Y-65894781D01*
X148351140Y-65890265D01*
X148472331Y-65717185D01*
X148472332Y-65717183D01*
X148475488Y-65712676D01*
X148477811Y-65707694D01*
X148477814Y-65707689D01*
X148526805Y-65602627D01*
X148573723Y-65549342D01*
X148642000Y-65529881D01*
X148709960Y-65550423D01*
X148755195Y-65602627D01*
X148804186Y-65707689D01*
X148804189Y-65707694D01*
X148806512Y-65712676D01*
X148809668Y-65717183D01*
X148809669Y-65717185D01*
X148930861Y-65890265D01*
X148934023Y-65894781D01*
X149091219Y-66051977D01*
X149095727Y-66055134D01*
X149095730Y-66055136D01*
X149110493Y-66065473D01*
X149273323Y-66179488D01*
X149278305Y-66181811D01*
X149278310Y-66181814D01*
X149469822Y-66271117D01*
X149474804Y-66273440D01*
X149480112Y-66274862D01*
X149480114Y-66274863D01*
X149545949Y-66292503D01*
X149689537Y-66330978D01*
X149911000Y-66350353D01*
X150132463Y-66330978D01*
X150276051Y-66292503D01*
X150341886Y-66274863D01*
X150341888Y-66274862D01*
X150347196Y-66273440D01*
X150352178Y-66271117D01*
X150543690Y-66181814D01*
X150543695Y-66181811D01*
X150548677Y-66179488D01*
X150711507Y-66065473D01*
X150726270Y-66055136D01*
X150726273Y-66055134D01*
X150730781Y-66051977D01*
X150887977Y-65894781D01*
X150891140Y-65890265D01*
X151012331Y-65717185D01*
X151012332Y-65717183D01*
X151015488Y-65712676D01*
X151017811Y-65707694D01*
X151017814Y-65707689D01*
X151066805Y-65602627D01*
X151113723Y-65549342D01*
X151182000Y-65529881D01*
X151249960Y-65550423D01*
X151295195Y-65602627D01*
X151344186Y-65707689D01*
X151344189Y-65707694D01*
X151346512Y-65712676D01*
X151349668Y-65717183D01*
X151349669Y-65717185D01*
X151470861Y-65890265D01*
X151474023Y-65894781D01*
X151631219Y-66051977D01*
X151635727Y-66055134D01*
X151635730Y-66055136D01*
X151650493Y-66065473D01*
X151813323Y-66179488D01*
X151818305Y-66181811D01*
X151818310Y-66181814D01*
X152009822Y-66271117D01*
X152014804Y-66273440D01*
X152020112Y-66274862D01*
X152020114Y-66274863D01*
X152085949Y-66292503D01*
X152229537Y-66330978D01*
X152451000Y-66350353D01*
X152672463Y-66330978D01*
X152816051Y-66292503D01*
X152881886Y-66274863D01*
X152881888Y-66274862D01*
X152887196Y-66273440D01*
X152892178Y-66271117D01*
X153083690Y-66181814D01*
X153083695Y-66181811D01*
X153088677Y-66179488D01*
X153251507Y-66065473D01*
X153266270Y-66055136D01*
X153266273Y-66055134D01*
X153270781Y-66051977D01*
X153427977Y-65894781D01*
X153431140Y-65890265D01*
X153552331Y-65717185D01*
X153552332Y-65717183D01*
X153555488Y-65712676D01*
X153557811Y-65707694D01*
X153557814Y-65707689D01*
X153606805Y-65602627D01*
X153653723Y-65549342D01*
X153722000Y-65529881D01*
X153789960Y-65550423D01*
X153835195Y-65602627D01*
X153884186Y-65707689D01*
X153884189Y-65707694D01*
X153886512Y-65712676D01*
X153889668Y-65717183D01*
X153889669Y-65717185D01*
X154010861Y-65890265D01*
X154014023Y-65894781D01*
X154171219Y-66051977D01*
X154175727Y-66055134D01*
X154175730Y-66055136D01*
X154190493Y-66065473D01*
X154353323Y-66179488D01*
X154358305Y-66181811D01*
X154358310Y-66181814D01*
X154549822Y-66271117D01*
X154554804Y-66273440D01*
X154560112Y-66274862D01*
X154560114Y-66274863D01*
X154625949Y-66292503D01*
X154769537Y-66330978D01*
X154991000Y-66350353D01*
X155212463Y-66330978D01*
X155356051Y-66292503D01*
X155421886Y-66274863D01*
X155421888Y-66274862D01*
X155427196Y-66273440D01*
X155432178Y-66271117D01*
X155623690Y-66181814D01*
X155623695Y-66181811D01*
X155628677Y-66179488D01*
X155791507Y-66065473D01*
X155806270Y-66055136D01*
X155806273Y-66055134D01*
X155810781Y-66051977D01*
X155967977Y-65894781D01*
X155971140Y-65890265D01*
X156092331Y-65717185D01*
X156092332Y-65717183D01*
X156095488Y-65712676D01*
X156097811Y-65707694D01*
X156097814Y-65707689D01*
X156146805Y-65602627D01*
X156193723Y-65549342D01*
X156262000Y-65529881D01*
X156329960Y-65550423D01*
X156375195Y-65602627D01*
X156424186Y-65707689D01*
X156424189Y-65707694D01*
X156426512Y-65712676D01*
X156429668Y-65717183D01*
X156429669Y-65717185D01*
X156550861Y-65890265D01*
X156554023Y-65894781D01*
X156711219Y-66051977D01*
X156715727Y-66055134D01*
X156715730Y-66055136D01*
X156730493Y-66065473D01*
X156893323Y-66179488D01*
X156898305Y-66181811D01*
X156898310Y-66181814D01*
X157089822Y-66271117D01*
X157094804Y-66273440D01*
X157100112Y-66274862D01*
X157100114Y-66274863D01*
X157165949Y-66292503D01*
X157309537Y-66330978D01*
X157531000Y-66350353D01*
X157752463Y-66330978D01*
X157896051Y-66292503D01*
X157961886Y-66274863D01*
X157961888Y-66274862D01*
X157967196Y-66273440D01*
X157972178Y-66271117D01*
X158163690Y-66181814D01*
X158163695Y-66181811D01*
X158168677Y-66179488D01*
X158331507Y-66065473D01*
X158346270Y-66055136D01*
X158346273Y-66055134D01*
X158350781Y-66051977D01*
X158507977Y-65894781D01*
X158511140Y-65890265D01*
X158632331Y-65717185D01*
X158632332Y-65717183D01*
X158635488Y-65712676D01*
X158637811Y-65707694D01*
X158637814Y-65707689D01*
X158686805Y-65602627D01*
X158733723Y-65549342D01*
X158802000Y-65529881D01*
X158869960Y-65550423D01*
X158915195Y-65602627D01*
X158964186Y-65707689D01*
X158964189Y-65707694D01*
X158966512Y-65712676D01*
X158969668Y-65717183D01*
X158969669Y-65717185D01*
X159090861Y-65890265D01*
X159094023Y-65894781D01*
X159251219Y-66051977D01*
X159255727Y-66055134D01*
X159255730Y-66055136D01*
X159270493Y-66065473D01*
X159433323Y-66179488D01*
X159438305Y-66181811D01*
X159438310Y-66181814D01*
X159629822Y-66271117D01*
X159634804Y-66273440D01*
X159640112Y-66274862D01*
X159640114Y-66274863D01*
X159705949Y-66292503D01*
X159849537Y-66330978D01*
X160071000Y-66350353D01*
X160292463Y-66330978D01*
X160436051Y-66292503D01*
X160501886Y-66274863D01*
X160501888Y-66274862D01*
X160507196Y-66273440D01*
X160512178Y-66271117D01*
X160703690Y-66181814D01*
X160703695Y-66181811D01*
X160708677Y-66179488D01*
X160871507Y-66065473D01*
X160886270Y-66055136D01*
X160886273Y-66055134D01*
X160890781Y-66051977D01*
X161047977Y-65894781D01*
X161051140Y-65890265D01*
X161172331Y-65717185D01*
X161172332Y-65717183D01*
X161175488Y-65712676D01*
X161177811Y-65707694D01*
X161177814Y-65707689D01*
X161226805Y-65602627D01*
X161273723Y-65549342D01*
X161342000Y-65529881D01*
X161409960Y-65550423D01*
X161455195Y-65602627D01*
X161504186Y-65707689D01*
X161504189Y-65707694D01*
X161506512Y-65712676D01*
X161509668Y-65717183D01*
X161509669Y-65717185D01*
X161630861Y-65890265D01*
X161634023Y-65894781D01*
X161791219Y-66051977D01*
X161795727Y-66055134D01*
X161795730Y-66055136D01*
X161810493Y-66065473D01*
X161973323Y-66179488D01*
X161978305Y-66181811D01*
X161978310Y-66181814D01*
X162169822Y-66271117D01*
X162174804Y-66273440D01*
X162180112Y-66274862D01*
X162180114Y-66274863D01*
X162245949Y-66292503D01*
X162389537Y-66330978D01*
X162611000Y-66350353D01*
X162832463Y-66330978D01*
X162976051Y-66292503D01*
X163041886Y-66274863D01*
X163041888Y-66274862D01*
X163047196Y-66273440D01*
X163052178Y-66271117D01*
X163243690Y-66181814D01*
X163243695Y-66181811D01*
X163248677Y-66179488D01*
X163411507Y-66065473D01*
X163426270Y-66055136D01*
X163426273Y-66055134D01*
X163430781Y-66051977D01*
X163587977Y-65894781D01*
X163591140Y-65890265D01*
X163712331Y-65717185D01*
X163712332Y-65717183D01*
X163715488Y-65712676D01*
X163717811Y-65707694D01*
X163717814Y-65707689D01*
X163807117Y-65516178D01*
X163807118Y-65516177D01*
X163809440Y-65511196D01*
X163812253Y-65500700D01*
X163866978Y-65296463D01*
X163868994Y-65297003D01*
X163896507Y-65241526D01*
X163957430Y-65205072D01*
X164028390Y-65207342D01*
X164086858Y-65247616D01*
X164104940Y-65277604D01*
X164156923Y-65399476D01*
X164206351Y-65482064D01*
X164281206Y-65607137D01*
X164304561Y-65646161D01*
X164484313Y-65870528D01*
X164607711Y-65987628D01*
X164675521Y-66051977D01*
X164692851Y-66068423D01*
X164926317Y-66236186D01*
X164930112Y-66238195D01*
X164930113Y-66238196D01*
X164951869Y-66249715D01*
X165180392Y-66370712D01*
X165450373Y-66469511D01*
X165731264Y-66530755D01*
X165759841Y-66533004D01*
X165954282Y-66548307D01*
X165954291Y-66548307D01*
X165956739Y-66548500D01*
X166112271Y-66548500D01*
X166114407Y-66548354D01*
X166114418Y-66548354D01*
X166322548Y-66534165D01*
X166322554Y-66534164D01*
X166326825Y-66533873D01*
X166331020Y-66533004D01*
X166331022Y-66533004D01*
X166467584Y-66504723D01*
X166608342Y-66475574D01*
X166879343Y-66379607D01*
X167134812Y-66247750D01*
X167138313Y-66245289D01*
X167138317Y-66245287D01*
X167320974Y-66116913D01*
X167370023Y-66082441D01*
X167448403Y-66009606D01*
X167577479Y-65889661D01*
X167577481Y-65889658D01*
X167580622Y-65886740D01*
X167762713Y-65664268D01*
X167838067Y-65541302D01*
X167890715Y-65493671D01*
X167960757Y-65482064D01*
X168025954Y-65510167D01*
X168065608Y-65569058D01*
X168071500Y-65607137D01*
X168071500Y-79109551D01*
X168071496Y-79110520D01*
X167979494Y-91070722D01*
X167958970Y-91138685D01*
X167904958Y-91184764D01*
X167834609Y-91194327D01*
X167770257Y-91164338D01*
X167755165Y-91148532D01*
X167598364Y-90952814D01*
X167595687Y-90949472D01*
X167387149Y-90751577D01*
X167153683Y-90583814D01*
X167131843Y-90572250D01*
X167098022Y-90554343D01*
X166899608Y-90449288D01*
X166719927Y-90383534D01*
X166633658Y-90351964D01*
X166633656Y-90351963D01*
X166629627Y-90350489D01*
X166348736Y-90289245D01*
X166317685Y-90286801D01*
X166125718Y-90271693D01*
X166125709Y-90271693D01*
X166123261Y-90271500D01*
X165967729Y-90271500D01*
X165965593Y-90271646D01*
X165965582Y-90271646D01*
X165757452Y-90285835D01*
X165757446Y-90285836D01*
X165753175Y-90286127D01*
X165748980Y-90286996D01*
X165748978Y-90286996D01*
X165612416Y-90315277D01*
X165471658Y-90344426D01*
X165200657Y-90440393D01*
X164945188Y-90572250D01*
X164941687Y-90574711D01*
X164941683Y-90574713D01*
X164931594Y-90581804D01*
X164709977Y-90737559D01*
X164499378Y-90933260D01*
X164317287Y-91155732D01*
X164167073Y-91400858D01*
X164165347Y-91404791D01*
X164165346Y-91404792D01*
X164060574Y-91643469D01*
X164051517Y-91664102D01*
X163972756Y-91940594D01*
X163932249Y-92225216D01*
X163932227Y-92229505D01*
X163932226Y-92229512D01*
X163931047Y-92454655D01*
X163930743Y-92512703D01*
X163968268Y-92797734D01*
X163969401Y-92801874D01*
X163969401Y-92801876D01*
X163977997Y-92833297D01*
X164044129Y-93075036D01*
X164045813Y-93078984D01*
X164077327Y-93152866D01*
X164156923Y-93339476D01*
X164217003Y-93439863D01*
X164285587Y-93554457D01*
X164304561Y-93586161D01*
X164484313Y-93810528D01*
X164547284Y-93870285D01*
X164647523Y-93965408D01*
X164692851Y-94008423D01*
X164926317Y-94176186D01*
X164930112Y-94178195D01*
X164930113Y-94178196D01*
X164951869Y-94189715D01*
X165180392Y-94310712D01*
X165450373Y-94409511D01*
X165731264Y-94470755D01*
X165759841Y-94473004D01*
X165954282Y-94488307D01*
X165954291Y-94488307D01*
X165956739Y-94488500D01*
X166112271Y-94488500D01*
X166114407Y-94488354D01*
X166114418Y-94488354D01*
X166322548Y-94474165D01*
X166322554Y-94474164D01*
X166326825Y-94473873D01*
X166331020Y-94473004D01*
X166331022Y-94473004D01*
X166569006Y-94423720D01*
X166608342Y-94415574D01*
X166879343Y-94319607D01*
X167118533Y-94196152D01*
X167131005Y-94189715D01*
X167131006Y-94189715D01*
X167134812Y-94187750D01*
X167138313Y-94185289D01*
X167138317Y-94185287D01*
X167264505Y-94096600D01*
X167370023Y-94022441D01*
X167569211Y-93837344D01*
X167577479Y-93829661D01*
X167577481Y-93829658D01*
X167580622Y-93826740D01*
X167735630Y-93637357D01*
X167794255Y-93597311D01*
X167865223Y-93595318D01*
X167926004Y-93632009D01*
X167957299Y-93695736D01*
X167959130Y-93718129D01*
X167945639Y-95472013D01*
X167945426Y-95499662D01*
X167924901Y-95567627D01*
X167903965Y-95592127D01*
X165278000Y-97968000D01*
X165278000Y-98732130D01*
X165257998Y-98800251D01*
X165204342Y-98846744D01*
X165153135Y-98858125D01*
X164261069Y-98866162D01*
X164192773Y-98846774D01*
X164145799Y-98793540D01*
X164135062Y-98723360D01*
X164163972Y-98658516D01*
X164194801Y-98632460D01*
X164197994Y-98630896D01*
X164379860Y-98501173D01*
X164538096Y-98343489D01*
X164547693Y-98330134D01*
X164665435Y-98166277D01*
X164668453Y-98162077D01*
X164671211Y-98156498D01*
X164765136Y-97966453D01*
X164765137Y-97966451D01*
X164767430Y-97961811D01*
X164832370Y-97748069D01*
X164861529Y-97526590D01*
X164863156Y-97460000D01*
X164844852Y-97237361D01*
X164790431Y-97020702D01*
X164701354Y-96815840D01*
X164652401Y-96740170D01*
X164582822Y-96632617D01*
X164582820Y-96632614D01*
X164580014Y-96628277D01*
X164429670Y-96463051D01*
X164425619Y-96459852D01*
X164425615Y-96459848D01*
X164258414Y-96327800D01*
X164258410Y-96327798D01*
X164254359Y-96324598D01*
X164245525Y-96319721D01*
X164202136Y-96295769D01*
X164058789Y-96216638D01*
X164053920Y-96214914D01*
X164053916Y-96214912D01*
X163853087Y-96143795D01*
X163853083Y-96143794D01*
X163848212Y-96142069D01*
X163843119Y-96141162D01*
X163843116Y-96141161D01*
X163633373Y-96103800D01*
X163633367Y-96103799D01*
X163628284Y-96102894D01*
X163554452Y-96101992D01*
X163410081Y-96100228D01*
X163410079Y-96100228D01*
X163404911Y-96100165D01*
X163184091Y-96133955D01*
X162971756Y-96203357D01*
X162773607Y-96306507D01*
X162769474Y-96309610D01*
X162769471Y-96309612D01*
X162600629Y-96436382D01*
X162594965Y-96440635D01*
X162582869Y-96453293D01*
X162483729Y-96557037D01*
X162440629Y-96602138D01*
X162333201Y-96759621D01*
X162278293Y-96804621D01*
X162207768Y-96812792D01*
X162144021Y-96781538D01*
X162123324Y-96757054D01*
X162042822Y-96632617D01*
X162042820Y-96632614D01*
X162040014Y-96628277D01*
X161889670Y-96463051D01*
X161885625Y-96459857D01*
X161885616Y-96459848D01*
X161816408Y-96405191D01*
X161775345Y-96347274D01*
X161768500Y-96306309D01*
X161768500Y-90857082D01*
X161788502Y-90788961D01*
X161805405Y-90767987D01*
X165642987Y-86930405D01*
X165705299Y-86896379D01*
X165732082Y-86893500D01*
X166102127Y-86893500D01*
X166104844Y-86893262D01*
X166104851Y-86893262D01*
X166173520Y-86887254D01*
X166273087Y-86878543D01*
X166278400Y-86877119D01*
X166278402Y-86877119D01*
X166488933Y-86820707D01*
X166488935Y-86820706D01*
X166494243Y-86819284D01*
X166499225Y-86816961D01*
X166696762Y-86724849D01*
X166696767Y-86724846D01*
X166701749Y-86722523D01*
X166806611Y-86649098D01*
X166884789Y-86594357D01*
X166884792Y-86594355D01*
X166889300Y-86591198D01*
X167051198Y-86429300D01*
X167073793Y-86397032D01*
X167110336Y-86344842D01*
X167182523Y-86241749D01*
X167184846Y-86236767D01*
X167184849Y-86236762D01*
X167276961Y-86039225D01*
X167276961Y-86039224D01*
X167279284Y-86034243D01*
X167301972Y-85949573D01*
X167337119Y-85818402D01*
X167337119Y-85818400D01*
X167338543Y-85813087D01*
X167358498Y-85585000D01*
X167338543Y-85356913D01*
X167322410Y-85296704D01*
X167280707Y-85141067D01*
X167280706Y-85141065D01*
X167279284Y-85135757D01*
X167276961Y-85130775D01*
X167184849Y-84933238D01*
X167184846Y-84933233D01*
X167182523Y-84928251D01*
X167051198Y-84740700D01*
X166889300Y-84578802D01*
X166884792Y-84575645D01*
X166884789Y-84575643D01*
X166761645Y-84489417D01*
X166701749Y-84447477D01*
X166696767Y-84445154D01*
X166696762Y-84445151D01*
X166662543Y-84429195D01*
X166609258Y-84382278D01*
X166589797Y-84314001D01*
X166610339Y-84246041D01*
X166662543Y-84200805D01*
X166696762Y-84184849D01*
X166696767Y-84184846D01*
X166701749Y-84182523D01*
X166864635Y-84068469D01*
X166884789Y-84054357D01*
X166884792Y-84054355D01*
X166889300Y-84051198D01*
X167051198Y-83889300D01*
X167056518Y-83881703D01*
X167140245Y-83762128D01*
X167182523Y-83701749D01*
X167184846Y-83696767D01*
X167184849Y-83696762D01*
X167276961Y-83499225D01*
X167276961Y-83499224D01*
X167279284Y-83494243D01*
X167329635Y-83306334D01*
X167337119Y-83278402D01*
X167337119Y-83278400D01*
X167338543Y-83273087D01*
X167358498Y-83045000D01*
X167338543Y-82816913D01*
X167279284Y-82595757D01*
X167276961Y-82590775D01*
X167184849Y-82393238D01*
X167184846Y-82393233D01*
X167182523Y-82388251D01*
X167051198Y-82200700D01*
X166889300Y-82038802D01*
X166884792Y-82035645D01*
X166884789Y-82035643D01*
X166806611Y-81980902D01*
X166701749Y-81907477D01*
X166696767Y-81905154D01*
X166696762Y-81905151D01*
X166662543Y-81889195D01*
X166609258Y-81842278D01*
X166589797Y-81774001D01*
X166610339Y-81706041D01*
X166662543Y-81660805D01*
X166696762Y-81644849D01*
X166696767Y-81644846D01*
X166701749Y-81642523D01*
X166806611Y-81569098D01*
X166884789Y-81514357D01*
X166884792Y-81514355D01*
X166889300Y-81511198D01*
X167051198Y-81349300D01*
X167182523Y-81161749D01*
X167184846Y-81156767D01*
X167184849Y-81156762D01*
X167276961Y-80959225D01*
X167276961Y-80959224D01*
X167279284Y-80954243D01*
X167292956Y-80903221D01*
X167337119Y-80738402D01*
X167337119Y-80738400D01*
X167338543Y-80733087D01*
X167358498Y-80505000D01*
X167338543Y-80276913D01*
X167302697Y-80143135D01*
X167280707Y-80061067D01*
X167280706Y-80061065D01*
X167279284Y-80055757D01*
X167238100Y-79967437D01*
X167184849Y-79853238D01*
X167184846Y-79853233D01*
X167182523Y-79848251D01*
X167063112Y-79677715D01*
X167054357Y-79665211D01*
X167054355Y-79665208D01*
X167051198Y-79660700D01*
X166889300Y-79498802D01*
X166884792Y-79495645D01*
X166884789Y-79495643D01*
X166806611Y-79440902D01*
X166701749Y-79367477D01*
X166696767Y-79365154D01*
X166696762Y-79365151D01*
X166499225Y-79273039D01*
X166499224Y-79273039D01*
X166494243Y-79270716D01*
X166488935Y-79269294D01*
X166488933Y-79269293D01*
X166278402Y-79212881D01*
X166278400Y-79212881D01*
X166273087Y-79211457D01*
X166173520Y-79202746D01*
X166104851Y-79196738D01*
X166104844Y-79196738D01*
X166102127Y-79196500D01*
X165587873Y-79196500D01*
X165585156Y-79196738D01*
X165585149Y-79196738D01*
X165516480Y-79202746D01*
X165416913Y-79211457D01*
X165411600Y-79212881D01*
X165411598Y-79212881D01*
X165201067Y-79269293D01*
X165201065Y-79269294D01*
X165195757Y-79270716D01*
X165190776Y-79273039D01*
X165190775Y-79273039D01*
X164993238Y-79365151D01*
X164993233Y-79365154D01*
X164988251Y-79367477D01*
X164883389Y-79440902D01*
X164805211Y-79495643D01*
X164805208Y-79495645D01*
X164800700Y-79498802D01*
X164638802Y-79660700D01*
X164635645Y-79665208D01*
X164635643Y-79665211D01*
X164626888Y-79677715D01*
X164507477Y-79848251D01*
X164505154Y-79853233D01*
X164505151Y-79853238D01*
X164451900Y-79967437D01*
X164410716Y-80055757D01*
X164409294Y-80061065D01*
X164409293Y-80061067D01*
X164387303Y-80143135D01*
X164351457Y-80276913D01*
X164331502Y-80505000D01*
X164351457Y-80733087D01*
X164352880Y-80738398D01*
X164352882Y-80738409D01*
X164358424Y-80759092D01*
X164356733Y-80830068D01*
X164325812Y-80880796D01*
X163842595Y-81364013D01*
X163780283Y-81398039D01*
X163709468Y-81392974D01*
X163652632Y-81350427D01*
X163627821Y-81283907D01*
X163627500Y-81274918D01*
X163627500Y-80545616D01*
X163620745Y-80483434D01*
X163569615Y-80347045D01*
X163482261Y-80230489D01*
X163365705Y-80143135D01*
X163229316Y-80092005D01*
X163167134Y-80085250D01*
X158244866Y-80085250D01*
X158182684Y-80092005D01*
X158046295Y-80143135D01*
X157929739Y-80230489D01*
X157842385Y-80347045D01*
X157791255Y-80483434D01*
X157790402Y-80491287D01*
X157790401Y-80491291D01*
X157789797Y-80496855D01*
X157762557Y-80562418D01*
X157704195Y-80602845D01*
X157664534Y-80609250D01*
X156006266Y-80609250D01*
X156002748Y-80609201D01*
X155908100Y-80606557D01*
X155908097Y-80606557D01*
X155903045Y-80606416D01*
X155825152Y-80616809D01*
X155818611Y-80617508D01*
X155789918Y-80619817D01*
X155745327Y-80623404D01*
X155745323Y-80623405D01*
X155740285Y-80623810D01*
X155708372Y-80631649D01*
X155694992Y-80634176D01*
X155662430Y-80638521D01*
X155657589Y-80639982D01*
X155657587Y-80639983D01*
X155587221Y-80661228D01*
X155580860Y-80662969D01*
X155504544Y-80681713D01*
X155499884Y-80683691D01*
X155474299Y-80694551D01*
X155461489Y-80699188D01*
X155430042Y-80708683D01*
X155425494Y-80710901D01*
X155425487Y-80710904D01*
X155359432Y-80743121D01*
X155353430Y-80745857D01*
X155322251Y-80759092D01*
X155281094Y-80776562D01*
X155263414Y-80787696D01*
X155253294Y-80794069D01*
X155241390Y-80800695D01*
X155211862Y-80815096D01*
X155207725Y-80818015D01*
X155207724Y-80818015D01*
X155147653Y-80860391D01*
X155142164Y-80864051D01*
X155115574Y-80880796D01*
X155075683Y-80905917D01*
X155071894Y-80909258D01*
X155071888Y-80909262D01*
X155051033Y-80927648D01*
X155040338Y-80936094D01*
X155013503Y-80955024D01*
X154992000Y-80974659D01*
X154952284Y-81014375D01*
X154946514Y-81019794D01*
X154897392Y-81063100D01*
X154897389Y-81063103D01*
X154893595Y-81066448D01*
X154890385Y-81070356D01*
X154890384Y-81070357D01*
X154867071Y-81098739D01*
X154858801Y-81107858D01*
X150209564Y-85757095D01*
X150147252Y-85791121D01*
X150120469Y-85794000D01*
X149668390Y-85794000D01*
X149600269Y-85773998D01*
X149553776Y-85720342D01*
X149548867Y-85707877D01*
X149503870Y-85573007D01*
X149503869Y-85573005D01*
X149501550Y-85566054D01*
X149408478Y-85415652D01*
X149283303Y-85290695D01*
X149277072Y-85286854D01*
X149138968Y-85201725D01*
X149138966Y-85201724D01*
X149132738Y-85197885D01*
X148972254Y-85144655D01*
X148971389Y-85144368D01*
X148971387Y-85144368D01*
X148964861Y-85142203D01*
X148958025Y-85141503D01*
X148958022Y-85141502D01*
X148914969Y-85137091D01*
X148860400Y-85131500D01*
X147659600Y-85131500D01*
X147656354Y-85131837D01*
X147656350Y-85131837D01*
X147560692Y-85141762D01*
X147560688Y-85141763D01*
X147553834Y-85142474D01*
X147547298Y-85144655D01*
X147547296Y-85144655D01*
X147415194Y-85188728D01*
X147386054Y-85198450D01*
X147235652Y-85291522D01*
X147110695Y-85416697D01*
X147106855Y-85422927D01*
X147106854Y-85422928D01*
X147083760Y-85460394D01*
X147017885Y-85567262D01*
X146962203Y-85735139D01*
X146961503Y-85741975D01*
X146961502Y-85741978D01*
X146957091Y-85785031D01*
X146951500Y-85839600D01*
X146951500Y-85873857D01*
X146931498Y-85941978D01*
X146880735Y-85987105D01*
X146859165Y-85997625D01*
X146859161Y-85997627D01*
X146854612Y-85999846D01*
X146850475Y-86002765D01*
X146850474Y-86002765D01*
X146790403Y-86045141D01*
X146784914Y-86048801D01*
X146722714Y-86087971D01*
X146718433Y-86090667D01*
X146714644Y-86094008D01*
X146714638Y-86094012D01*
X146693783Y-86112398D01*
X146683088Y-86120844D01*
X146656253Y-86139774D01*
X146634750Y-86159409D01*
X146595034Y-86199125D01*
X146589264Y-86204544D01*
X146540142Y-86247850D01*
X146540139Y-86247853D01*
X146536345Y-86251198D01*
X146533135Y-86255106D01*
X146533134Y-86255107D01*
X146509821Y-86283489D01*
X146501551Y-86292608D01*
X144670334Y-88123825D01*
X144667812Y-88126279D01*
X144595319Y-88194832D01*
X144592252Y-88198844D01*
X144547592Y-88257257D01*
X144543448Y-88262392D01*
X144492530Y-88322220D01*
X144489911Y-88326545D01*
X144489907Y-88326550D01*
X144475509Y-88350324D01*
X144467837Y-88361571D01*
X144447880Y-88387674D01*
X144416305Y-88446562D01*
X144410761Y-88456901D01*
X144407496Y-88462626D01*
X144366779Y-88529858D01*
X144364884Y-88534549D01*
X144354473Y-88560317D01*
X144348693Y-88572658D01*
X144333169Y-88601609D01*
X144331523Y-88606390D01*
X144331521Y-88606394D01*
X144307588Y-88675901D01*
X144305278Y-88682079D01*
X144288732Y-88723033D01*
X144275845Y-88754929D01*
X144268568Y-88786960D01*
X144264837Y-88800059D01*
X144254138Y-88831131D01*
X144240757Y-88908600D01*
X144239477Y-88915004D01*
X144222065Y-88991644D01*
X144220001Y-89024453D01*
X144218415Y-89037953D01*
X144212821Y-89070336D01*
X144211500Y-89099425D01*
X144211500Y-89155608D01*
X144211251Y-89163519D01*
X144206822Y-89233913D01*
X144207316Y-89238948D01*
X144210899Y-89275492D01*
X144211500Y-89287788D01*
X144211500Y-97521001D01*
X144211702Y-97523509D01*
X144211702Y-97523514D01*
X144219388Y-97619036D01*
X144226060Y-97701965D01*
X144227266Y-97706873D01*
X144227266Y-97706876D01*
X144274556Y-97899406D01*
X144283963Y-97937706D01*
X144285938Y-97942358D01*
X144285939Y-97942362D01*
X144296165Y-97966453D01*
X144378812Y-98161156D01*
X144385496Y-98171770D01*
X144504996Y-98361531D01*
X144508167Y-98366567D01*
X144528404Y-98389521D01*
X144665350Y-98544858D01*
X144665353Y-98544861D01*
X144668698Y-98548655D01*
X144672606Y-98551865D01*
X144672607Y-98551866D01*
X144848870Y-98696649D01*
X144856278Y-98702734D01*
X145032096Y-98805063D01*
X145080908Y-98856616D01*
X145094101Y-98926376D01*
X145067484Y-98992194D01*
X145009509Y-99033174D01*
X144969849Y-99039956D01*
X115402433Y-99306329D01*
X115334135Y-99286941D01*
X115287161Y-99233707D01*
X115276424Y-99163527D01*
X115305334Y-99098683D01*
X115315527Y-99088034D01*
X115507479Y-98909661D01*
X115507481Y-98909658D01*
X115510622Y-98906740D01*
X115692713Y-98684268D01*
X115842927Y-98439142D01*
X115846927Y-98430031D01*
X115956757Y-98179830D01*
X115958483Y-98175898D01*
X115963742Y-98157438D01*
X116036068Y-97903534D01*
X116037244Y-97899406D01*
X116077751Y-97614784D01*
X116077778Y-97609757D01*
X116079235Y-97331583D01*
X116079235Y-97331576D01*
X116079257Y-97327297D01*
X116041732Y-97042266D01*
X115965871Y-96764964D01*
X115898239Y-96606403D01*
X115854763Y-96504476D01*
X115854761Y-96504472D01*
X115853077Y-96500524D01*
X115850490Y-96496201D01*
X115850432Y-96495976D01*
X115848926Y-96493021D01*
X115849579Y-96492688D01*
X115832673Y-96427477D01*
X115854840Y-96360029D01*
X115909953Y-96315273D01*
X115958609Y-96305500D01*
X119467673Y-96305500D01*
X119535794Y-96325502D01*
X119582287Y-96379158D01*
X119592391Y-96449432D01*
X119562897Y-96514012D01*
X119556848Y-96520515D01*
X119540695Y-96536697D01*
X119536855Y-96542927D01*
X119536854Y-96542928D01*
X119507922Y-96589865D01*
X119447885Y-96687262D01*
X119392203Y-96855139D01*
X119381500Y-96959600D01*
X119381500Y-97960400D01*
X119381837Y-97963646D01*
X119381837Y-97963650D01*
X119389101Y-98033656D01*
X119392474Y-98066166D01*
X119394655Y-98072702D01*
X119394655Y-98072704D01*
X119425874Y-98166277D01*
X119448450Y-98233946D01*
X119541522Y-98384348D01*
X119546704Y-98389521D01*
X119553450Y-98396255D01*
X119666697Y-98509305D01*
X119672927Y-98513145D01*
X119672928Y-98513146D01*
X119810090Y-98597694D01*
X119817262Y-98602115D01*
X119870231Y-98619684D01*
X119978611Y-98655632D01*
X119978613Y-98655632D01*
X119985139Y-98657797D01*
X119991975Y-98658497D01*
X119991978Y-98658498D01*
X120030835Y-98662479D01*
X120089600Y-98668500D01*
X120840400Y-98668500D01*
X120843646Y-98668163D01*
X120843650Y-98668163D01*
X120939308Y-98658238D01*
X120939312Y-98658237D01*
X120946166Y-98657526D01*
X120952702Y-98655345D01*
X120952704Y-98655345D01*
X121084806Y-98611272D01*
X121113946Y-98601550D01*
X121264348Y-98508478D01*
X121378237Y-98394391D01*
X121440518Y-98360312D01*
X121511338Y-98365315D01*
X121556427Y-98394236D01*
X121601652Y-98439382D01*
X121671697Y-98509305D01*
X121677927Y-98513145D01*
X121677928Y-98513146D01*
X121815090Y-98597694D01*
X121822262Y-98602115D01*
X121875231Y-98619684D01*
X121983611Y-98655632D01*
X121983613Y-98655632D01*
X121990139Y-98657797D01*
X121996975Y-98658497D01*
X121996978Y-98658498D01*
X122035835Y-98662479D01*
X122094600Y-98668500D01*
X122895400Y-98668500D01*
X122898646Y-98668163D01*
X122898650Y-98668163D01*
X122994308Y-98658238D01*
X122994312Y-98658237D01*
X123001166Y-98657526D01*
X123007702Y-98655345D01*
X123007704Y-98655345D01*
X123139806Y-98611272D01*
X123168946Y-98601550D01*
X123319348Y-98508478D01*
X123405784Y-98421891D01*
X123468066Y-98387812D01*
X123538886Y-98392815D01*
X123583975Y-98421736D01*
X123601652Y-98439382D01*
X123671697Y-98509305D01*
X123677927Y-98513145D01*
X123677928Y-98513146D01*
X123815090Y-98597694D01*
X123822262Y-98602115D01*
X123875231Y-98619684D01*
X123983611Y-98655632D01*
X123983613Y-98655632D01*
X123990139Y-98657797D01*
X123996975Y-98658497D01*
X123996978Y-98658498D01*
X124035835Y-98662479D01*
X124094600Y-98668500D01*
X124122504Y-98668500D01*
X124151918Y-98671981D01*
X124290601Y-98705276D01*
X124310411Y-98710032D01*
X124394475Y-98714879D01*
X124529083Y-98722640D01*
X124529086Y-98722640D01*
X124534690Y-98722963D01*
X124757715Y-98695975D01*
X124828917Y-98674070D01*
X124865967Y-98668500D01*
X124895400Y-98668500D01*
X124898646Y-98668163D01*
X124898650Y-98668163D01*
X124994308Y-98658238D01*
X124994312Y-98658237D01*
X125001166Y-98657526D01*
X125007702Y-98655345D01*
X125007704Y-98655345D01*
X125139806Y-98611272D01*
X125168946Y-98601550D01*
X125319348Y-98508478D01*
X125444305Y-98383303D01*
X125458477Y-98360312D01*
X125533275Y-98238968D01*
X125533276Y-98238966D01*
X125537115Y-98232738D01*
X125569485Y-98135144D01*
X125578486Y-98108008D01*
X125591341Y-98080720D01*
X125617882Y-98038409D01*
X125620864Y-98033656D01*
X125704656Y-97825217D01*
X125750213Y-97605233D01*
X125750907Y-97593202D01*
X125753395Y-97550048D01*
X125753395Y-97550044D01*
X125753500Y-97548225D01*
X125753500Y-96525478D01*
X125773502Y-96457357D01*
X125790405Y-96436382D01*
X125884384Y-96342404D01*
X125946696Y-96308379D01*
X125973479Y-96305500D01*
X126479253Y-96305500D01*
X126547374Y-96325502D01*
X126593867Y-96379158D01*
X126603971Y-96449432D01*
X126597235Y-96475730D01*
X126588255Y-96499684D01*
X126581500Y-96561866D01*
X126581500Y-98358134D01*
X126588255Y-98420316D01*
X126639385Y-98556705D01*
X126726739Y-98673261D01*
X126843295Y-98760615D01*
X126979684Y-98811745D01*
X127041866Y-98818500D01*
X128838134Y-98818500D01*
X128900316Y-98811745D01*
X129036705Y-98760615D01*
X129153261Y-98673261D01*
X129240615Y-98556705D01*
X129257250Y-98512332D01*
X129284598Y-98439382D01*
X129327240Y-98382618D01*
X129393802Y-98357918D01*
X129463150Y-98373126D01*
X129497817Y-98401114D01*
X129526250Y-98433938D01*
X129698126Y-98576632D01*
X129891000Y-98689338D01*
X129895825Y-98691180D01*
X129895826Y-98691181D01*
X129945192Y-98710032D01*
X130099692Y-98769030D01*
X130104760Y-98770061D01*
X130104763Y-98770062D01*
X130212017Y-98791883D01*
X130318597Y-98813567D01*
X130323772Y-98813757D01*
X130323774Y-98813757D01*
X130536673Y-98821564D01*
X130536677Y-98821564D01*
X130541837Y-98821753D01*
X130546957Y-98821097D01*
X130546959Y-98821097D01*
X130758288Y-98794025D01*
X130758289Y-98794025D01*
X130763416Y-98793368D01*
X130768366Y-98791883D01*
X130972429Y-98730661D01*
X130972434Y-98730659D01*
X130977384Y-98729174D01*
X131177994Y-98630896D01*
X131359860Y-98501173D01*
X131518096Y-98343489D01*
X131527693Y-98330134D01*
X131648453Y-98162077D01*
X131649776Y-98163028D01*
X131696645Y-98119857D01*
X131766580Y-98107625D01*
X131832026Y-98135144D01*
X131859875Y-98166994D01*
X131919987Y-98265088D01*
X131923367Y-98268990D01*
X131934352Y-98281671D01*
X132066250Y-98433938D01*
X132238126Y-98576632D01*
X132431000Y-98689338D01*
X132435825Y-98691180D01*
X132435826Y-98691181D01*
X132485192Y-98710032D01*
X132639692Y-98769030D01*
X132644760Y-98770061D01*
X132644763Y-98770062D01*
X132752017Y-98791883D01*
X132858597Y-98813567D01*
X132863772Y-98813757D01*
X132863774Y-98813757D01*
X133076673Y-98821564D01*
X133076677Y-98821564D01*
X133081837Y-98821753D01*
X133086957Y-98821097D01*
X133086959Y-98821097D01*
X133298288Y-98794025D01*
X133298289Y-98794025D01*
X133303416Y-98793368D01*
X133308366Y-98791883D01*
X133512429Y-98730661D01*
X133512434Y-98730659D01*
X133517384Y-98729174D01*
X133717994Y-98630896D01*
X133899860Y-98501173D01*
X134058096Y-98343489D01*
X134067693Y-98330134D01*
X134188453Y-98162077D01*
X134189776Y-98163028D01*
X134236645Y-98119857D01*
X134306580Y-98107625D01*
X134372026Y-98135144D01*
X134399875Y-98166994D01*
X134459987Y-98265088D01*
X134463367Y-98268990D01*
X134474352Y-98281671D01*
X134606250Y-98433938D01*
X134778126Y-98576632D01*
X134971000Y-98689338D01*
X134975825Y-98691180D01*
X134975826Y-98691181D01*
X135025192Y-98710032D01*
X135179692Y-98769030D01*
X135184760Y-98770061D01*
X135184763Y-98770062D01*
X135292017Y-98791883D01*
X135398597Y-98813567D01*
X135403772Y-98813757D01*
X135403774Y-98813757D01*
X135616673Y-98821564D01*
X135616677Y-98821564D01*
X135621837Y-98821753D01*
X135626957Y-98821097D01*
X135626959Y-98821097D01*
X135838288Y-98794025D01*
X135838289Y-98794025D01*
X135843416Y-98793368D01*
X135848366Y-98791883D01*
X136052429Y-98730661D01*
X136052434Y-98730659D01*
X136057384Y-98729174D01*
X136257994Y-98630896D01*
X136439860Y-98501173D01*
X136598096Y-98343489D01*
X136607693Y-98330134D01*
X136728453Y-98162077D01*
X136729776Y-98163028D01*
X136776645Y-98119857D01*
X136846580Y-98107625D01*
X136912026Y-98135144D01*
X136939875Y-98166994D01*
X136999987Y-98265088D01*
X137003367Y-98268990D01*
X137014352Y-98281671D01*
X137146250Y-98433938D01*
X137318126Y-98576632D01*
X137511000Y-98689338D01*
X137515825Y-98691180D01*
X137515826Y-98691181D01*
X137565192Y-98710032D01*
X137719692Y-98769030D01*
X137724760Y-98770061D01*
X137724763Y-98770062D01*
X137832017Y-98791883D01*
X137938597Y-98813567D01*
X137943772Y-98813757D01*
X137943774Y-98813757D01*
X138156673Y-98821564D01*
X138156677Y-98821564D01*
X138161837Y-98821753D01*
X138166957Y-98821097D01*
X138166959Y-98821097D01*
X138378288Y-98794025D01*
X138378289Y-98794025D01*
X138383416Y-98793368D01*
X138388366Y-98791883D01*
X138592429Y-98730661D01*
X138592434Y-98730659D01*
X138597384Y-98729174D01*
X138797994Y-98630896D01*
X138979860Y-98501173D01*
X139138096Y-98343489D01*
X139147693Y-98330134D01*
X139265435Y-98166277D01*
X139268453Y-98162077D01*
X139271211Y-98156498D01*
X139365136Y-97966453D01*
X139365137Y-97966451D01*
X139367430Y-97961811D01*
X139432370Y-97748069D01*
X139461529Y-97526590D01*
X139463156Y-97460000D01*
X139444852Y-97237361D01*
X139394807Y-97038124D01*
X139391689Y-97025709D01*
X139391688Y-97025705D01*
X139390431Y-97020702D01*
X139388375Y-97015973D01*
X139388372Y-97015965D01*
X139368950Y-96971298D01*
X139358500Y-96921056D01*
X139358500Y-95646395D01*
X139359578Y-95629948D01*
X139361746Y-95613483D01*
X139361746Y-95613479D01*
X139362479Y-95607913D01*
X139358640Y-95526510D01*
X139358500Y-95520575D01*
X139358500Y-95498001D01*
X139356181Y-95472013D01*
X139355822Y-95466750D01*
X139352160Y-95389112D01*
X139351896Y-95383511D01*
X139350645Y-95378048D01*
X139350644Y-95378042D01*
X139347893Y-95366032D01*
X139345211Y-95349099D01*
X139344116Y-95336832D01*
X139343617Y-95331238D01*
X139339637Y-95316687D01*
X139321627Y-95250859D01*
X139320341Y-95245739D01*
X139301742Y-95164530D01*
X139294706Y-95148033D01*
X139289073Y-95131858D01*
X139285818Y-95119961D01*
X139285817Y-95119957D01*
X139284337Y-95114549D01*
X139248461Y-95039333D01*
X139246290Y-95034524D01*
X139215804Y-94963051D01*
X139215804Y-94963050D01*
X139213603Y-94957891D01*
X139203749Y-94942890D01*
X139195343Y-94927970D01*
X139190035Y-94916841D01*
X139187622Y-94911782D01*
X139184354Y-94907234D01*
X139184351Y-94907229D01*
X139138998Y-94844114D01*
X139136009Y-94839765D01*
X139090265Y-94770125D01*
X139071747Y-94749341D01*
X139063498Y-94739045D01*
X139059804Y-94733904D01*
X139056529Y-94729346D01*
X138979777Y-94654968D01*
X138978367Y-94653579D01*
X138546525Y-94221737D01*
X138535657Y-94209346D01*
X138525533Y-94196152D01*
X138522123Y-94191708D01*
X138461826Y-94136842D01*
X138457531Y-94132743D01*
X138441590Y-94116802D01*
X138439374Y-94114949D01*
X138421577Y-94100068D01*
X138417602Y-94096600D01*
X138360112Y-94044288D01*
X138360103Y-94044281D01*
X138355964Y-94040515D01*
X138340773Y-94030986D01*
X138326907Y-94020911D01*
X138317451Y-94013004D01*
X138317441Y-94012997D01*
X138313146Y-94009406D01*
X138240752Y-93968113D01*
X138236232Y-93965408D01*
X138233113Y-93963451D01*
X138179734Y-93929967D01*
X138170404Y-93924114D01*
X138170401Y-93924112D01*
X138165656Y-93921136D01*
X138160451Y-93919043D01*
X138160448Y-93919042D01*
X138149021Y-93914448D01*
X138133589Y-93906988D01*
X138122881Y-93900880D01*
X138122872Y-93900876D01*
X138118007Y-93898101D01*
X138112730Y-93896232D01*
X138112725Y-93896230D01*
X138039458Y-93870285D01*
X138034522Y-93868420D01*
X137962416Y-93839434D01*
X137957217Y-93837344D01*
X137951730Y-93836208D01*
X137951728Y-93836207D01*
X137939651Y-93833706D01*
X137923156Y-93829101D01*
X137906241Y-93823111D01*
X137823990Y-93809641D01*
X137818820Y-93808683D01*
X137737233Y-93791787D01*
X137732621Y-93791521D01*
X137732620Y-93791521D01*
X137709452Y-93790185D01*
X137696347Y-93788738D01*
X137690090Y-93787714D01*
X137690086Y-93787714D01*
X137684543Y-93786806D01*
X137678930Y-93786894D01*
X137678928Y-93786894D01*
X137577736Y-93788484D01*
X137575757Y-93788500D01*
X125491395Y-93788500D01*
X125474948Y-93787422D01*
X125458483Y-93785254D01*
X125458479Y-93785254D01*
X125452913Y-93784521D01*
X125371512Y-93788360D01*
X125365576Y-93788500D01*
X116448478Y-93788500D01*
X116380357Y-93768498D01*
X116359383Y-93751595D01*
X115646405Y-93038617D01*
X115612379Y-92976305D01*
X115609500Y-92949522D01*
X115609500Y-92643134D01*
X117641500Y-92643134D01*
X117648255Y-92705316D01*
X117699385Y-92841705D01*
X117786739Y-92958261D01*
X117903295Y-93045615D01*
X118039684Y-93096745D01*
X118101866Y-93103500D01*
X119998134Y-93103500D01*
X120060316Y-93096745D01*
X120196705Y-93045615D01*
X120313261Y-92958261D01*
X120400615Y-92841705D01*
X120451745Y-92705316D01*
X120458500Y-92643134D01*
X120458500Y-91646866D01*
X120451745Y-91584684D01*
X120400615Y-91448295D01*
X120313261Y-91331739D01*
X120196705Y-91244385D01*
X120060316Y-91193255D01*
X119998134Y-91186500D01*
X118101866Y-91186500D01*
X118039684Y-91193255D01*
X117903295Y-91244385D01*
X117786739Y-91331739D01*
X117699385Y-91448295D01*
X117648255Y-91584684D01*
X117641500Y-91646866D01*
X117641500Y-92643134D01*
X115609500Y-92643134D01*
X115609500Y-81766061D01*
X122286610Y-81766061D01*
X122303147Y-82098255D01*
X122303788Y-82101986D01*
X122303789Y-82101994D01*
X122353835Y-82393238D01*
X122359474Y-82426057D01*
X122454774Y-82744718D01*
X122456287Y-82748189D01*
X122456289Y-82748195D01*
X122547458Y-82957370D01*
X122587666Y-83049622D01*
X122756226Y-83336352D01*
X122758527Y-83339367D01*
X122955712Y-83597742D01*
X122955717Y-83597748D01*
X122958012Y-83600755D01*
X122960656Y-83603469D01*
X123187065Y-83835884D01*
X123190102Y-83839002D01*
X123449132Y-84047640D01*
X123731352Y-84223648D01*
X124032672Y-84364476D01*
X124121737Y-84393673D01*
X124285865Y-84447477D01*
X124348729Y-84468085D01*
X124674944Y-84532973D01*
X124678716Y-84533260D01*
X124678724Y-84533261D01*
X125002815Y-84557914D01*
X125002820Y-84557914D01*
X125006592Y-84558201D01*
X125338869Y-84543403D01*
X125343401Y-84542649D01*
X125663220Y-84489417D01*
X125663225Y-84489416D01*
X125666961Y-84488794D01*
X125986116Y-84395164D01*
X125989583Y-84393674D01*
X125989587Y-84393673D01*
X126288228Y-84265366D01*
X126288230Y-84265365D01*
X126291712Y-84263869D01*
X126579321Y-84096813D01*
X126582343Y-84094532D01*
X126582347Y-84094529D01*
X126841753Y-83898697D01*
X126841754Y-83898696D01*
X126844777Y-83896414D01*
X127022420Y-83725165D01*
X127081508Y-83668204D01*
X127081509Y-83668203D01*
X127084235Y-83665575D01*
X127294227Y-83407641D01*
X127322857Y-83362265D01*
X127376124Y-83315326D01*
X127429419Y-83303500D01*
X127545984Y-83303500D01*
X127549502Y-83303549D01*
X127644150Y-83306193D01*
X127644153Y-83306193D01*
X127649205Y-83306334D01*
X127662150Y-83304607D01*
X127678812Y-83303500D01*
X128267969Y-83303500D01*
X128336090Y-83323502D01*
X128357064Y-83340405D01*
X131324595Y-86307937D01*
X131358621Y-86370249D01*
X131361500Y-86397032D01*
X131361500Y-87668134D01*
X131368255Y-87730316D01*
X131419385Y-87866705D01*
X131506739Y-87983261D01*
X131623295Y-88070615D01*
X131759684Y-88121745D01*
X131821866Y-88128500D01*
X134218134Y-88128500D01*
X134280316Y-88121745D01*
X134416705Y-88070615D01*
X134533261Y-87983261D01*
X134620615Y-87866705D01*
X134671745Y-87730316D01*
X134678500Y-87668134D01*
X134678500Y-84071866D01*
X134671745Y-84009684D01*
X134620615Y-83873295D01*
X134533261Y-83756739D01*
X134416705Y-83669385D01*
X134280316Y-83618255D01*
X134218134Y-83611500D01*
X132947031Y-83611500D01*
X132878910Y-83591498D01*
X132857936Y-83574595D01*
X130479936Y-81196595D01*
X130445910Y-81134283D01*
X130450975Y-81063468D01*
X130479936Y-81018405D01*
X131392936Y-80105405D01*
X131455248Y-80071379D01*
X131482031Y-80068500D01*
X132753134Y-80068500D01*
X132815316Y-80061745D01*
X132951705Y-80010615D01*
X133068261Y-79923261D01*
X133155615Y-79806705D01*
X133206745Y-79670316D01*
X133213500Y-79608134D01*
X134096500Y-79608134D01*
X134103255Y-79670316D01*
X134154385Y-79806705D01*
X134241739Y-79923261D01*
X134358295Y-80010615D01*
X134494684Y-80061745D01*
X134556866Y-80068500D01*
X136556219Y-80068500D01*
X136624340Y-80088502D01*
X136645314Y-80105405D01*
X137935595Y-81395686D01*
X137969621Y-81457998D01*
X137972500Y-81484781D01*
X137972500Y-83835884D01*
X137979255Y-83898066D01*
X138030385Y-84034455D01*
X138117739Y-84151011D01*
X138234295Y-84238365D01*
X138370684Y-84289495D01*
X138432866Y-84296250D01*
X139356500Y-84296250D01*
X139424621Y-84316252D01*
X139471114Y-84369908D01*
X139482500Y-84422250D01*
X139482500Y-85394278D01*
X139463760Y-85460393D01*
X139397885Y-85567262D01*
X139342203Y-85735139D01*
X139341503Y-85741975D01*
X139341502Y-85741978D01*
X139337091Y-85785031D01*
X139331500Y-85839600D01*
X139331500Y-86515835D01*
X139313276Y-86581106D01*
X139286779Y-86624858D01*
X139195845Y-86849929D01*
X139194725Y-86854859D01*
X139147893Y-87060994D01*
X139142065Y-87086644D01*
X139141747Y-87091691D01*
X139141747Y-87091694D01*
X139132166Y-87243982D01*
X139126822Y-87328913D01*
X139150511Y-87570502D01*
X139212519Y-87805196D01*
X139214575Y-87809813D01*
X139214575Y-87809814D01*
X139294195Y-87988642D01*
X139311254Y-88026956D01*
X139314026Y-88031191D01*
X139316123Y-88035038D01*
X139331500Y-88095358D01*
X139331500Y-88765400D01*
X139331837Y-88768646D01*
X139331837Y-88768650D01*
X139339134Y-88838973D01*
X139342474Y-88871166D01*
X139344655Y-88877702D01*
X139344655Y-88877704D01*
X139357104Y-88915018D01*
X139398450Y-89038946D01*
X139491522Y-89189348D01*
X139616697Y-89314305D01*
X139622927Y-89318145D01*
X139622928Y-89318146D01*
X139760090Y-89402694D01*
X139767262Y-89407115D01*
X139847005Y-89433564D01*
X139928611Y-89460632D01*
X139928613Y-89460632D01*
X139935139Y-89462797D01*
X139941975Y-89463497D01*
X139941978Y-89463498D01*
X139985031Y-89467909D01*
X140039600Y-89473500D01*
X141240400Y-89473500D01*
X141243646Y-89473163D01*
X141243650Y-89473163D01*
X141339308Y-89463238D01*
X141339312Y-89463237D01*
X141346166Y-89462526D01*
X141352702Y-89460345D01*
X141352704Y-89460345D01*
X141484806Y-89416272D01*
X141513946Y-89406550D01*
X141664348Y-89313478D01*
X141789305Y-89188303D01*
X141843219Y-89100839D01*
X141878275Y-89043968D01*
X141878276Y-89043966D01*
X141882115Y-89037738D01*
X141937797Y-88869861D01*
X141948500Y-88765400D01*
X141948500Y-88179531D01*
X141968502Y-88111410D01*
X141985405Y-88090436D01*
X142040666Y-88035175D01*
X142043188Y-88032721D01*
X142112012Y-87967638D01*
X142112014Y-87967635D01*
X142115681Y-87964168D01*
X142163411Y-87901739D01*
X142167552Y-87896608D01*
X142215191Y-87840633D01*
X142215192Y-87840632D01*
X142218470Y-87836780D01*
X142221089Y-87832455D01*
X142221093Y-87832450D01*
X142235491Y-87808676D01*
X142243163Y-87797429D01*
X142263120Y-87771326D01*
X142300243Y-87702092D01*
X142303507Y-87696368D01*
X142341602Y-87633466D01*
X142344221Y-87629142D01*
X142356528Y-87598681D01*
X142362308Y-87586341D01*
X142375440Y-87561850D01*
X142377831Y-87557391D01*
X142403412Y-87483099D01*
X142405722Y-87476921D01*
X142433258Y-87408766D01*
X142435155Y-87404071D01*
X142442432Y-87372039D01*
X142446163Y-87358941D01*
X142456862Y-87327869D01*
X142470243Y-87250400D01*
X142471526Y-87243982D01*
X142487815Y-87172286D01*
X142487815Y-87172285D01*
X142488935Y-87167356D01*
X142490999Y-87134547D01*
X142492585Y-87121047D01*
X142498179Y-87088664D01*
X142499500Y-87059575D01*
X142499500Y-87003392D01*
X142499749Y-86995480D01*
X142503860Y-86930141D01*
X142504178Y-86925087D01*
X142500101Y-86883508D01*
X142499500Y-86871212D01*
X142499500Y-84422250D01*
X142519502Y-84354129D01*
X142573158Y-84307636D01*
X142625500Y-84296250D01*
X143549134Y-84296250D01*
X143611316Y-84289495D01*
X143747705Y-84238365D01*
X143864261Y-84151011D01*
X143951615Y-84034455D01*
X144002745Y-83898066D01*
X144009500Y-83835884D01*
X144009500Y-80799616D01*
X144002745Y-80737434D01*
X143951615Y-80601045D01*
X143864261Y-80484489D01*
X143747705Y-80397135D01*
X143611316Y-80346005D01*
X143549134Y-80339250D01*
X141198031Y-80339250D01*
X141129910Y-80319248D01*
X141108936Y-80302345D01*
X138650405Y-77843814D01*
X138616379Y-77781502D01*
X138613500Y-77754719D01*
X138613500Y-77211866D01*
X138606745Y-77149684D01*
X138555615Y-77013295D01*
X138468261Y-76896739D01*
X138351705Y-76809385D01*
X138215316Y-76758255D01*
X138153134Y-76751500D01*
X134556866Y-76751500D01*
X134494684Y-76758255D01*
X134358295Y-76809385D01*
X134241739Y-76896739D01*
X134154385Y-77013295D01*
X134103255Y-77149684D01*
X134096500Y-77211866D01*
X134096500Y-79608134D01*
X133213500Y-79608134D01*
X133213500Y-77211866D01*
X133206745Y-77149684D01*
X133155615Y-77013295D01*
X133068261Y-76896739D01*
X132951705Y-76809385D01*
X132815316Y-76758255D01*
X132753134Y-76751500D01*
X129156866Y-76751500D01*
X129094684Y-76758255D01*
X128958295Y-76809385D01*
X128841739Y-76896739D01*
X128754385Y-77013295D01*
X128703255Y-77149684D01*
X128696500Y-77211866D01*
X128696500Y-78482969D01*
X128676498Y-78551090D01*
X128659595Y-78572064D01*
X127282737Y-79948922D01*
X127220425Y-79982948D01*
X127149610Y-79977883D01*
X127104314Y-79948689D01*
X126891070Y-79734325D01*
X126891061Y-79734317D01*
X126888392Y-79731634D01*
X126627191Y-79525720D01*
X126343144Y-79352677D01*
X126222046Y-79297617D01*
X126043817Y-79216580D01*
X126043809Y-79216577D01*
X126040365Y-79215011D01*
X125723240Y-79114718D01*
X125500896Y-79072906D01*
X125400087Y-79053949D01*
X125400085Y-79053949D01*
X125396364Y-79053249D01*
X125064470Y-79031496D01*
X125060690Y-79031704D01*
X125060689Y-79031704D01*
X124962918Y-79037085D01*
X124732366Y-79049773D01*
X124728639Y-79050434D01*
X124728635Y-79050434D01*
X124469510Y-79096358D01*
X124404864Y-79107815D01*
X124401239Y-79108920D01*
X124401234Y-79108921D01*
X124193683Y-79172178D01*
X124086707Y-79204782D01*
X124083243Y-79206313D01*
X124083236Y-79206316D01*
X123896051Y-79289070D01*
X123782503Y-79339269D01*
X123779249Y-79341205D01*
X123779243Y-79341208D01*
X123507801Y-79502699D01*
X123496659Y-79509328D01*
X123493658Y-79511643D01*
X123493654Y-79511646D01*
X123449624Y-79545615D01*
X123233316Y-79712496D01*
X122996288Y-79945829D01*
X122789009Y-80205949D01*
X122614481Y-80489086D01*
X122475232Y-80791140D01*
X122474073Y-80794740D01*
X122474070Y-80794747D01*
X122376177Y-81098739D01*
X122373280Y-81107735D01*
X122372561Y-81111451D01*
X122372559Y-81111459D01*
X122310819Y-81430567D01*
X122310100Y-81434285D01*
X122309833Y-81438061D01*
X122309832Y-81438066D01*
X122295192Y-81644849D01*
X122286610Y-81766061D01*
X115609500Y-81766061D01*
X115609500Y-79143134D01*
X117641500Y-79143134D01*
X117648255Y-79205316D01*
X117699385Y-79341705D01*
X117786739Y-79458261D01*
X117903295Y-79545615D01*
X118039684Y-79596745D01*
X118101866Y-79603500D01*
X119998134Y-79603500D01*
X120060316Y-79596745D01*
X120196705Y-79545615D01*
X120313261Y-79458261D01*
X120400615Y-79341705D01*
X120451745Y-79205316D01*
X120458500Y-79143134D01*
X120458500Y-78146866D01*
X120451745Y-78084684D01*
X120400615Y-77948295D01*
X120313261Y-77831739D01*
X120196705Y-77744385D01*
X120060316Y-77693255D01*
X119998134Y-77686500D01*
X118101866Y-77686500D01*
X118039684Y-77693255D01*
X117903295Y-77744385D01*
X117786739Y-77831739D01*
X117699385Y-77948295D01*
X117648255Y-78084684D01*
X117641500Y-78146866D01*
X117641500Y-79143134D01*
X115609500Y-79143134D01*
X115609500Y-73965000D01*
X117990502Y-73965000D01*
X118010457Y-74193087D01*
X118069716Y-74414243D01*
X118072039Y-74419224D01*
X118072039Y-74419225D01*
X118164151Y-74616762D01*
X118164154Y-74616767D01*
X118166477Y-74621749D01*
X118297802Y-74809300D01*
X118459700Y-74971198D01*
X118464208Y-74974355D01*
X118464211Y-74974357D01*
X118542389Y-75029098D01*
X118647251Y-75102523D01*
X118652233Y-75104846D01*
X118652238Y-75104849D01*
X118849775Y-75196961D01*
X118854757Y-75199284D01*
X118860065Y-75200706D01*
X118860067Y-75200707D01*
X119070598Y-75257119D01*
X119070600Y-75257119D01*
X119075913Y-75258543D01*
X119304000Y-75278498D01*
X119532087Y-75258543D01*
X119537400Y-75257119D01*
X119537402Y-75257119D01*
X119747933Y-75200707D01*
X119747935Y-75200706D01*
X119753243Y-75199284D01*
X119758225Y-75196961D01*
X119955762Y-75104849D01*
X119955767Y-75104846D01*
X119960749Y-75102523D01*
X120065611Y-75029098D01*
X120143789Y-74974357D01*
X120143792Y-74974355D01*
X120148300Y-74971198D01*
X120310198Y-74809300D01*
X120441523Y-74621749D01*
X120443846Y-74616767D01*
X120443849Y-74616762D01*
X120535961Y-74419225D01*
X120535961Y-74419224D01*
X120538284Y-74414243D01*
X120597543Y-74193087D01*
X120617498Y-73965000D01*
X120597543Y-73736913D01*
X120538284Y-73515757D01*
X120505631Y-73445732D01*
X120443849Y-73313238D01*
X120443846Y-73313233D01*
X120441523Y-73308251D01*
X120310198Y-73120700D01*
X120148300Y-72958802D01*
X120143792Y-72955645D01*
X120143789Y-72955643D01*
X120065611Y-72900902D01*
X119960749Y-72827477D01*
X119955767Y-72825154D01*
X119955762Y-72825151D01*
X119758225Y-72733039D01*
X119758224Y-72733039D01*
X119753243Y-72730716D01*
X119747935Y-72729294D01*
X119747933Y-72729293D01*
X119537402Y-72672881D01*
X119537400Y-72672881D01*
X119532087Y-72671457D01*
X119304000Y-72651502D01*
X119075913Y-72671457D01*
X119070600Y-72672881D01*
X119070598Y-72672881D01*
X118860067Y-72729293D01*
X118860065Y-72729294D01*
X118854757Y-72730716D01*
X118849776Y-72733039D01*
X118849775Y-72733039D01*
X118652238Y-72825151D01*
X118652233Y-72825154D01*
X118647251Y-72827477D01*
X118542389Y-72900902D01*
X118464211Y-72955643D01*
X118464208Y-72955645D01*
X118459700Y-72958802D01*
X118297802Y-73120700D01*
X118166477Y-73308251D01*
X118164154Y-73313233D01*
X118164151Y-73313238D01*
X118102369Y-73445732D01*
X118069716Y-73515757D01*
X118010457Y-73736913D01*
X117990502Y-73965000D01*
X115609500Y-73965000D01*
X115609500Y-71135395D01*
X115610578Y-71118948D01*
X115612746Y-71102483D01*
X115612746Y-71102479D01*
X115613479Y-71096913D01*
X115609640Y-71015511D01*
X115609500Y-71009576D01*
X115609500Y-70987001D01*
X115607181Y-70961011D01*
X115606822Y-70955749D01*
X115603160Y-70878113D01*
X115602896Y-70872512D01*
X115598892Y-70855030D01*
X115596211Y-70838100D01*
X115595116Y-70825832D01*
X115594617Y-70820238D01*
X115572630Y-70739867D01*
X115571344Y-70734749D01*
X115553995Y-70659000D01*
X115553994Y-70658998D01*
X115552742Y-70653530D01*
X115545706Y-70637033D01*
X115540073Y-70620858D01*
X115536818Y-70608961D01*
X115536817Y-70608957D01*
X115535337Y-70603549D01*
X115499461Y-70528333D01*
X115497290Y-70523524D01*
X115466804Y-70452051D01*
X115466804Y-70452050D01*
X115464603Y-70446891D01*
X115454749Y-70431890D01*
X115446343Y-70416970D01*
X115441035Y-70405841D01*
X115438622Y-70400782D01*
X115389994Y-70333108D01*
X115387011Y-70328768D01*
X115343804Y-70262990D01*
X115343798Y-70262982D01*
X115341265Y-70259126D01*
X115322743Y-70238338D01*
X115314506Y-70228056D01*
X115310799Y-70222897D01*
X115307529Y-70218346D01*
X115230746Y-70143938D01*
X115229336Y-70142549D01*
X113146525Y-68059737D01*
X113135657Y-68047346D01*
X113125533Y-68034152D01*
X113122123Y-68029708D01*
X113061826Y-67974842D01*
X113057531Y-67970743D01*
X113041590Y-67954802D01*
X113039440Y-67953004D01*
X113021577Y-67938068D01*
X113017602Y-67934600D01*
X112960112Y-67882288D01*
X112960103Y-67882281D01*
X112955964Y-67878515D01*
X112940773Y-67868986D01*
X112926907Y-67858911D01*
X112917451Y-67851004D01*
X112917441Y-67850997D01*
X112913146Y-67847406D01*
X112840752Y-67806113D01*
X112836231Y-67803407D01*
X112783306Y-67770207D01*
X112736229Y-67717064D01*
X112725357Y-67646904D01*
X112754141Y-67582005D01*
X112774698Y-67562644D01*
X112840081Y-67513642D01*
X112847261Y-67508261D01*
X112934615Y-67391705D01*
X112985745Y-67255316D01*
X112992500Y-67193134D01*
X112992500Y-66868477D01*
X113012502Y-66800356D01*
X113029405Y-66779382D01*
X115113382Y-64695405D01*
X115175694Y-64661379D01*
X115202477Y-64658500D01*
X122538604Y-64658500D01*
X122555051Y-64659578D01*
X122571516Y-64661746D01*
X122571520Y-64661746D01*
X122577086Y-64662479D01*
X122658489Y-64658640D01*
X122664424Y-64658500D01*
X134136999Y-64658500D01*
X134139786Y-64658251D01*
X134139792Y-64658251D01*
X134209929Y-64651991D01*
X134303762Y-64643617D01*
X134309176Y-64642136D01*
X134309181Y-64642135D01*
X134415802Y-64612966D01*
X134449050Y-64608500D01*
X134746390Y-64608500D01*
X134814511Y-64628502D01*
X134861004Y-64682158D01*
X134871108Y-64752432D01*
X134841614Y-64817012D01*
X134835485Y-64823595D01*
X134059485Y-65599595D01*
X133997173Y-65633621D01*
X133970390Y-65636500D01*
X120470878Y-65636500D01*
X120402757Y-65616498D01*
X120367665Y-65582771D01*
X120313357Y-65505211D01*
X120313355Y-65505208D01*
X120310198Y-65500700D01*
X120148300Y-65338802D01*
X120143792Y-65335645D01*
X120143789Y-65335643D01*
X120009376Y-65241526D01*
X119960749Y-65207477D01*
X119955767Y-65205154D01*
X119955762Y-65205151D01*
X119758225Y-65113039D01*
X119758224Y-65113039D01*
X119753243Y-65110716D01*
X119747935Y-65109294D01*
X119747933Y-65109293D01*
X119537402Y-65052881D01*
X119537400Y-65052881D01*
X119532087Y-65051457D01*
X119304000Y-65031502D01*
X119075913Y-65051457D01*
X119070600Y-65052881D01*
X119070598Y-65052881D01*
X118860067Y-65109293D01*
X118860065Y-65109294D01*
X118854757Y-65110716D01*
X118849776Y-65113039D01*
X118849775Y-65113039D01*
X118652238Y-65205151D01*
X118652233Y-65205154D01*
X118647251Y-65207477D01*
X118598624Y-65241526D01*
X118464211Y-65335643D01*
X118464208Y-65335645D01*
X118459700Y-65338802D01*
X118297802Y-65500700D01*
X118294645Y-65505208D01*
X118294643Y-65505211D01*
X118286964Y-65516178D01*
X118166477Y-65688251D01*
X118164154Y-65693233D01*
X118164151Y-65693238D01*
X118072039Y-65890775D01*
X118069716Y-65895757D01*
X118010457Y-66116913D01*
X117990502Y-66345000D01*
X118010457Y-66573087D01*
X118069716Y-66794243D01*
X118072039Y-66799224D01*
X118072039Y-66799225D01*
X118164151Y-66996762D01*
X118164154Y-66996767D01*
X118166477Y-67001749D01*
X118297802Y-67189300D01*
X118459700Y-67351198D01*
X118464208Y-67354355D01*
X118464211Y-67354357D01*
X118505542Y-67383297D01*
X118647251Y-67482523D01*
X118652233Y-67484846D01*
X118652238Y-67484849D01*
X118686457Y-67500805D01*
X118739742Y-67547722D01*
X118759203Y-67615999D01*
X118738661Y-67683959D01*
X118686457Y-67729195D01*
X118652238Y-67745151D01*
X118652233Y-67745154D01*
X118647251Y-67747477D01*
X118567375Y-67803407D01*
X118464211Y-67875643D01*
X118464208Y-67875645D01*
X118459700Y-67878802D01*
X118297802Y-68040700D01*
X118294645Y-68045208D01*
X118294643Y-68045211D01*
X118253598Y-68103830D01*
X118166477Y-68228251D01*
X118164154Y-68233233D01*
X118164151Y-68233238D01*
X118104853Y-68360405D01*
X118069716Y-68435757D01*
X118010457Y-68656913D01*
X117990502Y-68885000D01*
X118010457Y-69113087D01*
X118069716Y-69334243D01*
X118072039Y-69339224D01*
X118072039Y-69339225D01*
X118164151Y-69536762D01*
X118164154Y-69536767D01*
X118166477Y-69541749D01*
X118297802Y-69729300D01*
X118459700Y-69891198D01*
X118464208Y-69894355D01*
X118464211Y-69894357D01*
X118542389Y-69949098D01*
X118647251Y-70022523D01*
X118652233Y-70024846D01*
X118652238Y-70024849D01*
X118849775Y-70116961D01*
X118854757Y-70119284D01*
X118860065Y-70120706D01*
X118860067Y-70120707D01*
X119070598Y-70177119D01*
X119070600Y-70177119D01*
X119075913Y-70178543D01*
X119304000Y-70198498D01*
X119532087Y-70178543D01*
X119537400Y-70177119D01*
X119537402Y-70177119D01*
X119747933Y-70120707D01*
X119747935Y-70120706D01*
X119753243Y-70119284D01*
X119758225Y-70116961D01*
X119955762Y-70024849D01*
X119955767Y-70024846D01*
X119960749Y-70022523D01*
X120065611Y-69949098D01*
X120143789Y-69894357D01*
X120143792Y-69894355D01*
X120148300Y-69891198D01*
X120310198Y-69729300D01*
X120441523Y-69541749D01*
X120443846Y-69536767D01*
X120443849Y-69536762D01*
X120535961Y-69339225D01*
X120535961Y-69339224D01*
X120538284Y-69334243D01*
X120597543Y-69113087D01*
X120617498Y-68885000D01*
X120597556Y-68657065D01*
X120611545Y-68587461D01*
X120633982Y-68556989D01*
X120830566Y-68360405D01*
X120892878Y-68326379D01*
X120919661Y-68323500D01*
X134261088Y-68323500D01*
X134269658Y-68323792D01*
X134319776Y-68327209D01*
X134319780Y-68327209D01*
X134327352Y-68327725D01*
X134334829Y-68326420D01*
X134334830Y-68326420D01*
X134361308Y-68321799D01*
X134390303Y-68316738D01*
X134396821Y-68315777D01*
X134460242Y-68308102D01*
X134467343Y-68305419D01*
X134469952Y-68304778D01*
X134486262Y-68300315D01*
X134488798Y-68299550D01*
X134496284Y-68298243D01*
X134554800Y-68272556D01*
X134560904Y-68270065D01*
X134613548Y-68250173D01*
X134613549Y-68250172D01*
X134620656Y-68247487D01*
X134626919Y-68243183D01*
X134629285Y-68241946D01*
X134644097Y-68233701D01*
X134646351Y-68232368D01*
X134653305Y-68229315D01*
X134704002Y-68190413D01*
X134709332Y-68186541D01*
X134755720Y-68154661D01*
X134755725Y-68154656D01*
X134761981Y-68150357D01*
X134803436Y-68103829D01*
X134808416Y-68098554D01*
X137086566Y-65820405D01*
X137148878Y-65786379D01*
X137175661Y-65783500D01*
X138630512Y-65783500D01*
X138698633Y-65803502D01*
X138733725Y-65837230D01*
X138770860Y-65890265D01*
X138770864Y-65890270D01*
X138774023Y-65894781D01*
X138931219Y-66051977D01*
X138935727Y-66055134D01*
X138935730Y-66055136D01*
X138950493Y-66065473D01*
X139113323Y-66179488D01*
X139118305Y-66181811D01*
X139118310Y-66181814D01*
X139309822Y-66271117D01*
X139314804Y-66273440D01*
X139320112Y-66274862D01*
X139320114Y-66274863D01*
X139385949Y-66292503D01*
X139529537Y-66330978D01*
X139751000Y-66350353D01*
X139972463Y-66330978D01*
X140116051Y-66292503D01*
X140181886Y-66274863D01*
X140181888Y-66274862D01*
X140187196Y-66273440D01*
X140192178Y-66271117D01*
X140383690Y-66181814D01*
X140383695Y-66181811D01*
X140388677Y-66179488D01*
X140551507Y-66065473D01*
X140566270Y-66055136D01*
X140566273Y-66055134D01*
X140570781Y-66051977D01*
X140727977Y-65894781D01*
X140731140Y-65890265D01*
X140852331Y-65717185D01*
X140852332Y-65717183D01*
X140855488Y-65712676D01*
X140857811Y-65707694D01*
X140857814Y-65707689D01*
X140947117Y-65516178D01*
X140947118Y-65516177D01*
X140949440Y-65511196D01*
X140952253Y-65500700D01*
X140974106Y-65419142D01*
X141006978Y-65296463D01*
X141026353Y-65075000D01*
X141006978Y-64853537D01*
X140955489Y-64661379D01*
X140950863Y-64644114D01*
X140950862Y-64644112D01*
X140949440Y-64638804D01*
X140931148Y-64599577D01*
X140857814Y-64442311D01*
X140857811Y-64442306D01*
X140855488Y-64437324D01*
X140792570Y-64347467D01*
X140731136Y-64259730D01*
X140731134Y-64259727D01*
X140727977Y-64255219D01*
X140570781Y-64098023D01*
X140566273Y-64094866D01*
X140566270Y-64094864D01*
X140441615Y-64007580D01*
X140388677Y-63970512D01*
X140383695Y-63968189D01*
X140383690Y-63968186D01*
X140192178Y-63878883D01*
X140192177Y-63878882D01*
X140187196Y-63876560D01*
X140181888Y-63875138D01*
X140181886Y-63875137D01*
X140116051Y-63857497D01*
X139972463Y-63819022D01*
X139751000Y-63799647D01*
X139529537Y-63819022D01*
X139385949Y-63857497D01*
X139320114Y-63875137D01*
X139320112Y-63875138D01*
X139314804Y-63876560D01*
X139309823Y-63878882D01*
X139309822Y-63878883D01*
X139118311Y-63968186D01*
X139118306Y-63968189D01*
X139113324Y-63970512D01*
X139092786Y-63984893D01*
X139025512Y-64007580D01*
X138956652Y-63990295D01*
X138908068Y-63938525D01*
X138895301Y-63895720D01*
X138894183Y-63885746D01*
X138894182Y-63885740D01*
X138893397Y-63878745D01*
X138872599Y-63819022D01*
X138836064Y-63714106D01*
X138836062Y-63714103D01*
X138833745Y-63707448D01*
X138737626Y-63553624D01*
X138732664Y-63548627D01*
X138614778Y-63429915D01*
X138614774Y-63429912D01*
X138609815Y-63424918D01*
X138456666Y-63327727D01*
X138427463Y-63317328D01*
X138292425Y-63269243D01*
X138292420Y-63269242D01*
X138285790Y-63266881D01*
X138278802Y-63266048D01*
X138278799Y-63266047D01*
X138155698Y-63251368D01*
X138105680Y-63245404D01*
X138098677Y-63246140D01*
X138098676Y-63246140D01*
X137932288Y-63263628D01*
X137932286Y-63263629D01*
X137925288Y-63264364D01*
X137836390Y-63294627D01*
X137760249Y-63320547D01*
X137760246Y-63320548D01*
X137753579Y-63322818D01*
X137747576Y-63326511D01*
X137747574Y-63326512D01*
X137738949Y-63331818D01*
X137672928Y-63350500D01*
X136630962Y-63350500D01*
X136622392Y-63350208D01*
X136572274Y-63346791D01*
X136572270Y-63346791D01*
X136564698Y-63346275D01*
X136557221Y-63347580D01*
X136557220Y-63347580D01*
X136542163Y-63350208D01*
X136501753Y-63357261D01*
X136495236Y-63358222D01*
X136431808Y-63365898D01*
X136424700Y-63368584D01*
X136422106Y-63369221D01*
X136405800Y-63373682D01*
X136403248Y-63374452D01*
X136395766Y-63375758D01*
X136388815Y-63378809D01*
X136388806Y-63378812D01*
X136377370Y-63383832D01*
X136306955Y-63392897D01*
X136242817Y-63362453D01*
X136219873Y-63335227D01*
X136201359Y-63305598D01*
X136197626Y-63299624D01*
X136170826Y-63272636D01*
X136074778Y-63175915D01*
X136074774Y-63175912D01*
X136069815Y-63170918D01*
X135916666Y-63073727D01*
X135887463Y-63063328D01*
X135752425Y-63015243D01*
X135752420Y-63015242D01*
X135745790Y-63012881D01*
X135738802Y-63012048D01*
X135738799Y-63012047D01*
X135609078Y-62996579D01*
X135565680Y-62991404D01*
X135527670Y-62995399D01*
X135457832Y-62982627D01*
X135405985Y-62934125D01*
X135388500Y-62870089D01*
X135388500Y-62651866D01*
X135381745Y-62589684D01*
X135330615Y-62453295D01*
X135243261Y-62336739D01*
X135126705Y-62249385D01*
X134990316Y-62198255D01*
X134928134Y-62191500D01*
X134463708Y-62191500D01*
X134438159Y-62188882D01*
X134225233Y-62144787D01*
X134220622Y-62144521D01*
X134220621Y-62144521D01*
X134170048Y-62141605D01*
X134170044Y-62141605D01*
X134168225Y-62141500D01*
X125514112Y-62141500D01*
X125445991Y-62121498D01*
X125399498Y-62067842D01*
X125390930Y-62003830D01*
X125388875Y-62003679D01*
X125389286Y-61998083D01*
X125390193Y-61992543D01*
X125388516Y-61885769D01*
X125388500Y-61883791D01*
X125388500Y-61396592D01*
X125408502Y-61328471D01*
X125462158Y-61281978D01*
X125532432Y-61271874D01*
X125597012Y-61301368D01*
X125625019Y-61336082D01*
X125626236Y-61338304D01*
X125629385Y-61346705D01*
X125716739Y-61463261D01*
X125833295Y-61550615D01*
X125969684Y-61601745D01*
X126031866Y-61608500D01*
X127728134Y-61608500D01*
X127790316Y-61601745D01*
X127926705Y-61550615D01*
X128043261Y-61463261D01*
X128130615Y-61346705D01*
X128138181Y-61326522D01*
X128178972Y-61217714D01*
X128178973Y-61217711D01*
X128181745Y-61210316D01*
X128182372Y-61204547D01*
X128217126Y-61143709D01*
X128280081Y-61110887D01*
X128304493Y-61108500D01*
X132655507Y-61108500D01*
X132723628Y-61128502D01*
X132770121Y-61182158D01*
X132777543Y-61203763D01*
X132778255Y-61210316D01*
X132781027Y-61217711D01*
X132781028Y-61217714D01*
X132821819Y-61326522D01*
X132829385Y-61346705D01*
X132916739Y-61463261D01*
X133033295Y-61550615D01*
X133169684Y-61601745D01*
X133231866Y-61608500D01*
X134928134Y-61608500D01*
X134990316Y-61601745D01*
X135126705Y-61550615D01*
X135243261Y-61463261D01*
X135298966Y-61388934D01*
X135355824Y-61346420D01*
X135399791Y-61338500D01*
X136553346Y-61338500D01*
X136619462Y-61357240D01*
X136654296Y-61378712D01*
X136692262Y-61402115D01*
X136732970Y-61415617D01*
X136853611Y-61455632D01*
X136853613Y-61455632D01*
X136860139Y-61457797D01*
X136866975Y-61458497D01*
X136866978Y-61458498D01*
X136910031Y-61462909D01*
X136964600Y-61468500D01*
X137965400Y-61468500D01*
X137968646Y-61468163D01*
X137968650Y-61468163D01*
X138064308Y-61458238D01*
X138064312Y-61458237D01*
X138071166Y-61457526D01*
X138077702Y-61455345D01*
X138077704Y-61455345D01*
X138209806Y-61411272D01*
X138238946Y-61401550D01*
X138259332Y-61388935D01*
X138310362Y-61357356D01*
X138376665Y-61338500D01*
X143786088Y-61338500D01*
X143794658Y-61338792D01*
X143844776Y-61342209D01*
X143844780Y-61342209D01*
X143852352Y-61342725D01*
X143859829Y-61341420D01*
X143859830Y-61341420D01*
X143890415Y-61336082D01*
X143915303Y-61331738D01*
X143921821Y-61330777D01*
X143985242Y-61323102D01*
X143992343Y-61320419D01*
X143994952Y-61319778D01*
X144011262Y-61315315D01*
X144013798Y-61314550D01*
X144021284Y-61313243D01*
X144079800Y-61287556D01*
X144085904Y-61285065D01*
X144138548Y-61265173D01*
X144138549Y-61265172D01*
X144145656Y-61262487D01*
X144151919Y-61258183D01*
X144154285Y-61256946D01*
X144169097Y-61248701D01*
X144171351Y-61247368D01*
X144178305Y-61244315D01*
X144229002Y-61205413D01*
X144234332Y-61201541D01*
X144280720Y-61169661D01*
X144280725Y-61169656D01*
X144286981Y-61165357D01*
X144328436Y-61118829D01*
X144333416Y-61113554D01*
X146200520Y-59246450D01*
X146206785Y-59240596D01*
X146207651Y-59239840D01*
X146250385Y-59202561D01*
X146287114Y-59150300D01*
X146291046Y-59145005D01*
X146325791Y-59100694D01*
X146330477Y-59094718D01*
X146333602Y-59087796D01*
X146334964Y-59085548D01*
X146343368Y-59070815D01*
X146344622Y-59068476D01*
X146348990Y-59062261D01*
X146351749Y-59055185D01*
X146351751Y-59055181D01*
X146372200Y-59002731D01*
X146374749Y-58996666D01*
X146401045Y-58938427D01*
X146402429Y-58930962D01*
X146403226Y-58928418D01*
X146407859Y-58912152D01*
X146408521Y-58909572D01*
X146411282Y-58902491D01*
X146419622Y-58839143D01*
X146420653Y-58832629D01*
X146424316Y-58812866D01*
X146432296Y-58769813D01*
X146430193Y-58733334D01*
X146428709Y-58707607D01*
X146428500Y-58700353D01*
X146428500Y-53622801D01*
X159221237Y-53622801D01*
X159237837Y-53910691D01*
X159238662Y-53914896D01*
X159238663Y-53914904D01*
X159266543Y-54057007D01*
X159293354Y-54193665D01*
X159294741Y-54197715D01*
X159294742Y-54197720D01*
X159377394Y-54439125D01*
X159386762Y-54466486D01*
X159388689Y-54470317D01*
X159510545Y-54712601D01*
X159516331Y-54724106D01*
X159518757Y-54727635D01*
X159518760Y-54727641D01*
X159615030Y-54867714D01*
X159679665Y-54961758D01*
X159682552Y-54964931D01*
X159682553Y-54964932D01*
X159821204Y-55117308D01*
X159873740Y-55175044D01*
X159924275Y-55217298D01*
X160091674Y-55357266D01*
X160091679Y-55357270D01*
X160094966Y-55360018D01*
X160159457Y-55400473D01*
X160335610Y-55510974D01*
X160335614Y-55510976D01*
X160339250Y-55513257D01*
X160602069Y-55631924D01*
X160606189Y-55633144D01*
X160606188Y-55633144D01*
X160874450Y-55712607D01*
X160874454Y-55712608D01*
X160878563Y-55713825D01*
X160882797Y-55714473D01*
X160882802Y-55714474D01*
X161043421Y-55739052D01*
X161163613Y-55757444D01*
X161310373Y-55759750D01*
X161447655Y-55761907D01*
X161447661Y-55761907D01*
X161451946Y-55761974D01*
X161738226Y-55727330D01*
X161954759Y-55670523D01*
X162013012Y-55655241D01*
X162013013Y-55655241D01*
X162017155Y-55654154D01*
X162283573Y-55543801D01*
X162532549Y-55398311D01*
X162759476Y-55220377D01*
X162960155Y-55013292D01*
X162962688Y-55009844D01*
X162962692Y-55009839D01*
X163128335Y-54784343D01*
X163130873Y-54780888D01*
X163142855Y-54758821D01*
X163266423Y-54531237D01*
X163268471Y-54527465D01*
X163366135Y-54269003D01*
X163368886Y-54261722D01*
X163368887Y-54261719D01*
X163370401Y-54257712D01*
X163426792Y-54011499D01*
X163433823Y-53980802D01*
X163433824Y-53980797D01*
X163434780Y-53976622D01*
X163456265Y-53735890D01*
X163460194Y-53691861D01*
X163460194Y-53691859D01*
X163460414Y-53689395D01*
X163460879Y-53645000D01*
X163441266Y-53357299D01*
X163440399Y-53353113D01*
X163440398Y-53353105D01*
X163390405Y-53111703D01*
X163382788Y-53074923D01*
X163344109Y-52965695D01*
X163287960Y-52807136D01*
X163286529Y-52803095D01*
X163222902Y-52679820D01*
X163156234Y-52550652D01*
X163156234Y-52550651D01*
X163154269Y-52546845D01*
X163145100Y-52533799D01*
X162990919Y-52314422D01*
X162990914Y-52314416D01*
X162988455Y-52310917D01*
X162792157Y-52099675D01*
X162569006Y-51917028D01*
X162514429Y-51883583D01*
X162326782Y-51768592D01*
X162326774Y-51768588D01*
X162323132Y-51766356D01*
X162319215Y-51764637D01*
X162319212Y-51764635D01*
X162178272Y-51702767D01*
X162059083Y-51650447D01*
X162054955Y-51649271D01*
X162054952Y-51649270D01*
X161785876Y-51572621D01*
X161785877Y-51572621D01*
X161781748Y-51571445D01*
X161536876Y-51536595D01*
X161500508Y-51531419D01*
X161500506Y-51531419D01*
X161496256Y-51530814D01*
X161344269Y-51530018D01*
X161212178Y-51529326D01*
X161212171Y-51529326D01*
X161207892Y-51529304D01*
X161203648Y-51529863D01*
X161203644Y-51529863D01*
X161088495Y-51545023D01*
X160921990Y-51566944D01*
X160917850Y-51568077D01*
X160917848Y-51568077D01*
X160907745Y-51570841D01*
X160643843Y-51643036D01*
X160639895Y-51644720D01*
X160382547Y-51754488D01*
X160382543Y-51754490D01*
X160378595Y-51756174D01*
X160295051Y-51806174D01*
X160134838Y-51902059D01*
X160134834Y-51902062D01*
X160131156Y-51904263D01*
X159906105Y-52084563D01*
X159903161Y-52087665D01*
X159903157Y-52087669D01*
X159815599Y-52179936D01*
X159707605Y-52293738D01*
X159539330Y-52527917D01*
X159505254Y-52592276D01*
X159414546Y-52763595D01*
X159404394Y-52782768D01*
X159402922Y-52786791D01*
X159402920Y-52786795D01*
X159327124Y-52993919D01*
X159305294Y-53053573D01*
X159243862Y-53335322D01*
X159229753Y-53514600D01*
X159221752Y-53616259D01*
X159221751Y-53616259D01*
X159221752Y-53616263D01*
X159221237Y-53622801D01*
X146428500Y-53622801D01*
X146428500Y-53355660D01*
X146448502Y-53287539D01*
X146465405Y-53266565D01*
X148740528Y-50991443D01*
X148746793Y-50985589D01*
X148784664Y-50952552D01*
X148784665Y-50952551D01*
X148790385Y-50947561D01*
X148827136Y-50895271D01*
X148831028Y-50890029D01*
X148870476Y-50839718D01*
X148873600Y-50832799D01*
X148874988Y-50830507D01*
X148883357Y-50815835D01*
X148884622Y-50813475D01*
X148888990Y-50807261D01*
X148912203Y-50747723D01*
X148914759Y-50741642D01*
X148937918Y-50690352D01*
X148941045Y-50683427D01*
X148942430Y-50675954D01*
X148943234Y-50673388D01*
X148947855Y-50657165D01*
X148948520Y-50654573D01*
X148951282Y-50647491D01*
X148959622Y-50584139D01*
X148960654Y-50577623D01*
X148967770Y-50539230D01*
X148972295Y-50514814D01*
X148971171Y-50495311D01*
X148968709Y-50452620D01*
X148968500Y-50445367D01*
X148968500Y-50428297D01*
X148988502Y-50360176D01*
X149021332Y-50325718D01*
X149135656Y-50244172D01*
X149135659Y-50244170D01*
X149139860Y-50241173D01*
X149298096Y-50083489D01*
X149357594Y-50000689D01*
X149428453Y-49902077D01*
X149429776Y-49903028D01*
X149476645Y-49859857D01*
X149546580Y-49847625D01*
X149612026Y-49875144D01*
X149639875Y-49906994D01*
X149699987Y-50005088D01*
X149846250Y-50173938D01*
X150018126Y-50316632D01*
X150211000Y-50429338D01*
X150215825Y-50431180D01*
X150215826Y-50431181D01*
X150262476Y-50448995D01*
X150419692Y-50509030D01*
X150424760Y-50510061D01*
X150424763Y-50510062D01*
X150484822Y-50522281D01*
X150638597Y-50553567D01*
X150643772Y-50553757D01*
X150643774Y-50553757D01*
X150856673Y-50561564D01*
X150856677Y-50561564D01*
X150861837Y-50561753D01*
X150866957Y-50561097D01*
X150866959Y-50561097D01*
X151078288Y-50534025D01*
X151078289Y-50534025D01*
X151083416Y-50533368D01*
X151123264Y-50521413D01*
X151292429Y-50470661D01*
X151292434Y-50470659D01*
X151297384Y-50469174D01*
X151497994Y-50370896D01*
X151679860Y-50241173D01*
X151838096Y-50083489D01*
X151897594Y-50000689D01*
X151968453Y-49902077D01*
X151969776Y-49903028D01*
X152016645Y-49859857D01*
X152086580Y-49847625D01*
X152152026Y-49875144D01*
X152179875Y-49906994D01*
X152239987Y-50005088D01*
X152386250Y-50173938D01*
X152558126Y-50316632D01*
X152751000Y-50429338D01*
X152755825Y-50431180D01*
X152755826Y-50431181D01*
X152802476Y-50448995D01*
X152959692Y-50509030D01*
X152964760Y-50510061D01*
X152964763Y-50510062D01*
X153024822Y-50522281D01*
X153178597Y-50553567D01*
X153183772Y-50553757D01*
X153183774Y-50553757D01*
X153396673Y-50561564D01*
X153396677Y-50561564D01*
X153401837Y-50561753D01*
X153406957Y-50561097D01*
X153406959Y-50561097D01*
X153618288Y-50534025D01*
X153618289Y-50534025D01*
X153623416Y-50533368D01*
X153663264Y-50521413D01*
X153832429Y-50470661D01*
X153832434Y-50470659D01*
X153837384Y-50469174D01*
X154037994Y-50370896D01*
X154219860Y-50241173D01*
X154378096Y-50083489D01*
X154437594Y-50000689D01*
X154508453Y-49902077D01*
X154509776Y-49903028D01*
X154556645Y-49859857D01*
X154626580Y-49847625D01*
X154692026Y-49875144D01*
X154719875Y-49906994D01*
X154779987Y-50005088D01*
X154926250Y-50173938D01*
X155098126Y-50316632D01*
X155291000Y-50429338D01*
X155295825Y-50431180D01*
X155295826Y-50431181D01*
X155342476Y-50448995D01*
X155499692Y-50509030D01*
X155504760Y-50510061D01*
X155504763Y-50510062D01*
X155564822Y-50522281D01*
X155718597Y-50553567D01*
X155723772Y-50553757D01*
X155723774Y-50553757D01*
X155936673Y-50561564D01*
X155936677Y-50561564D01*
X155941837Y-50561753D01*
X155946957Y-50561097D01*
X155946959Y-50561097D01*
X156158288Y-50534025D01*
X156158289Y-50534025D01*
X156163416Y-50533368D01*
X156203264Y-50521413D01*
X156372429Y-50470661D01*
X156372434Y-50470659D01*
X156377384Y-50469174D01*
X156577994Y-50370896D01*
X156759860Y-50241173D01*
X156918096Y-50083489D01*
X156977594Y-50000689D01*
X157048453Y-49902077D01*
X157049776Y-49903028D01*
X157096645Y-49859857D01*
X157166580Y-49847625D01*
X157232026Y-49875144D01*
X157259875Y-49906994D01*
X157319987Y-50005088D01*
X157466250Y-50173938D01*
X157638126Y-50316632D01*
X157831000Y-50429338D01*
X157835825Y-50431180D01*
X157835826Y-50431181D01*
X157882476Y-50448995D01*
X158039692Y-50509030D01*
X158044760Y-50510061D01*
X158044763Y-50510062D01*
X158104822Y-50522281D01*
X158258597Y-50553567D01*
X158263772Y-50553757D01*
X158263774Y-50553757D01*
X158476673Y-50561564D01*
X158476677Y-50561564D01*
X158481837Y-50561753D01*
X158486957Y-50561097D01*
X158486959Y-50561097D01*
X158698288Y-50534025D01*
X158698289Y-50534025D01*
X158703416Y-50533368D01*
X158743264Y-50521413D01*
X158912429Y-50470661D01*
X158912434Y-50470659D01*
X158917384Y-50469174D01*
X159117994Y-50370896D01*
X159299860Y-50241173D01*
X159458096Y-50083489D01*
X159517594Y-50000689D01*
X159588453Y-49902077D01*
X159589776Y-49903028D01*
X159636645Y-49859857D01*
X159706580Y-49847625D01*
X159772026Y-49875144D01*
X159799875Y-49906994D01*
X159859987Y-50005088D01*
X160006250Y-50173938D01*
X160178126Y-50316632D01*
X160371000Y-50429338D01*
X160375825Y-50431180D01*
X160375826Y-50431181D01*
X160422476Y-50448995D01*
X160579692Y-50509030D01*
X160584760Y-50510061D01*
X160584763Y-50510062D01*
X160644822Y-50522281D01*
X160798597Y-50553567D01*
X160803772Y-50553757D01*
X160803774Y-50553757D01*
X161016673Y-50561564D01*
X161016677Y-50561564D01*
X161021837Y-50561753D01*
X161026957Y-50561097D01*
X161026959Y-50561097D01*
X161238288Y-50534025D01*
X161238289Y-50534025D01*
X161243416Y-50533368D01*
X161283264Y-50521413D01*
X161452429Y-50470661D01*
X161452434Y-50470659D01*
X161457384Y-50469174D01*
X161657994Y-50370896D01*
X161839860Y-50241173D01*
X161998096Y-50083489D01*
X162057594Y-50000689D01*
X162128453Y-49902077D01*
X162129776Y-49903028D01*
X162176645Y-49859857D01*
X162246580Y-49847625D01*
X162312026Y-49875144D01*
X162339875Y-49906994D01*
X162399987Y-50005088D01*
X162546250Y-50173938D01*
X162718126Y-50316632D01*
X162911000Y-50429338D01*
X162915825Y-50431180D01*
X162915826Y-50431181D01*
X162962476Y-50448995D01*
X163119692Y-50509030D01*
X163124760Y-50510061D01*
X163124763Y-50510062D01*
X163184822Y-50522281D01*
X163338597Y-50553567D01*
X163343772Y-50553757D01*
X163343774Y-50553757D01*
X163556673Y-50561564D01*
X163556677Y-50561564D01*
X163561837Y-50561753D01*
X163566957Y-50561097D01*
X163566959Y-50561097D01*
X163778288Y-50534025D01*
X163778289Y-50534025D01*
X163783416Y-50533368D01*
X163823264Y-50521413D01*
X163992429Y-50470661D01*
X163992434Y-50470659D01*
X163997384Y-50469174D01*
X164197994Y-50370896D01*
X164379860Y-50241173D01*
X164538096Y-50083489D01*
X164597594Y-50000689D01*
X164665435Y-49906277D01*
X164668453Y-49902077D01*
X164673979Y-49890897D01*
X164765136Y-49706453D01*
X164765137Y-49706451D01*
X164767430Y-49701811D01*
X164832370Y-49488069D01*
X164861529Y-49266590D01*
X164863156Y-49200000D01*
X164844852Y-48977361D01*
X164790431Y-48760702D01*
X164701354Y-48555840D01*
X164620769Y-48431274D01*
X164582822Y-48372617D01*
X164582820Y-48372614D01*
X164580014Y-48368277D01*
X164429670Y-48203051D01*
X164425619Y-48199852D01*
X164425615Y-48199848D01*
X164258414Y-48067800D01*
X164258410Y-48067798D01*
X164254359Y-48064598D01*
X164058789Y-47956638D01*
X164053920Y-47954914D01*
X164053916Y-47954912D01*
X163853087Y-47883795D01*
X163853083Y-47883794D01*
X163848212Y-47882069D01*
X163843119Y-47881162D01*
X163843116Y-47881161D01*
X163633373Y-47843800D01*
X163633367Y-47843799D01*
X163628284Y-47842894D01*
X163554452Y-47841992D01*
X163410081Y-47840228D01*
X163410079Y-47840228D01*
X163404911Y-47840165D01*
X163184091Y-47873955D01*
X162971756Y-47943357D01*
X162773607Y-48046507D01*
X162769474Y-48049610D01*
X162769471Y-48049612D01*
X162599100Y-48177530D01*
X162594965Y-48180635D01*
X162591393Y-48184373D01*
X162450888Y-48331403D01*
X162440629Y-48342138D01*
X162333201Y-48499621D01*
X162278293Y-48544621D01*
X162207768Y-48552792D01*
X162144021Y-48521538D01*
X162123324Y-48497054D01*
X162042822Y-48372617D01*
X162042820Y-48372614D01*
X162040014Y-48368277D01*
X161889670Y-48203051D01*
X161885619Y-48199852D01*
X161885615Y-48199848D01*
X161718414Y-48067800D01*
X161718410Y-48067798D01*
X161714359Y-48064598D01*
X161518789Y-47956638D01*
X161513920Y-47954914D01*
X161513916Y-47954912D01*
X161313087Y-47883795D01*
X161313083Y-47883794D01*
X161308212Y-47882069D01*
X161303119Y-47881162D01*
X161303116Y-47881161D01*
X161093373Y-47843800D01*
X161093367Y-47843799D01*
X161088284Y-47842894D01*
X161014452Y-47841992D01*
X160870081Y-47840228D01*
X160870079Y-47840228D01*
X160864911Y-47840165D01*
X160644091Y-47873955D01*
X160431756Y-47943357D01*
X160233607Y-48046507D01*
X160229474Y-48049610D01*
X160229471Y-48049612D01*
X160059100Y-48177530D01*
X160054965Y-48180635D01*
X160051393Y-48184373D01*
X159910888Y-48331403D01*
X159900629Y-48342138D01*
X159793201Y-48499621D01*
X159738293Y-48544621D01*
X159667768Y-48552792D01*
X159604021Y-48521538D01*
X159583324Y-48497054D01*
X159502822Y-48372617D01*
X159502820Y-48372614D01*
X159500014Y-48368277D01*
X159349670Y-48203051D01*
X159345619Y-48199852D01*
X159345615Y-48199848D01*
X159178414Y-48067800D01*
X159178410Y-48067798D01*
X159174359Y-48064598D01*
X158978789Y-47956638D01*
X158973920Y-47954914D01*
X158973916Y-47954912D01*
X158773087Y-47883795D01*
X158773083Y-47883794D01*
X158768212Y-47882069D01*
X158763119Y-47881162D01*
X158763116Y-47881161D01*
X158553373Y-47843800D01*
X158553367Y-47843799D01*
X158548284Y-47842894D01*
X158474452Y-47841992D01*
X158330081Y-47840228D01*
X158330079Y-47840228D01*
X158324911Y-47840165D01*
X158104091Y-47873955D01*
X157891756Y-47943357D01*
X157693607Y-48046507D01*
X157689474Y-48049610D01*
X157689471Y-48049612D01*
X157519100Y-48177530D01*
X157514965Y-48180635D01*
X157511393Y-48184373D01*
X157370888Y-48331403D01*
X157360629Y-48342138D01*
X157253201Y-48499621D01*
X157198293Y-48544621D01*
X157127768Y-48552792D01*
X157064021Y-48521538D01*
X157043324Y-48497054D01*
X156962822Y-48372617D01*
X156962820Y-48372614D01*
X156960014Y-48368277D01*
X156809670Y-48203051D01*
X156805619Y-48199852D01*
X156805615Y-48199848D01*
X156638414Y-48067800D01*
X156638410Y-48067798D01*
X156634359Y-48064598D01*
X156438789Y-47956638D01*
X156433920Y-47954914D01*
X156433916Y-47954912D01*
X156233087Y-47883795D01*
X156233083Y-47883794D01*
X156228212Y-47882069D01*
X156223119Y-47881162D01*
X156223116Y-47881161D01*
X156013373Y-47843800D01*
X156013367Y-47843799D01*
X156008284Y-47842894D01*
X155934452Y-47841992D01*
X155790081Y-47840228D01*
X155790079Y-47840228D01*
X155784911Y-47840165D01*
X155564091Y-47873955D01*
X155351756Y-47943357D01*
X155153607Y-48046507D01*
X155149474Y-48049610D01*
X155149471Y-48049612D01*
X154979100Y-48177530D01*
X154974965Y-48180635D01*
X154971393Y-48184373D01*
X154830888Y-48331403D01*
X154820629Y-48342138D01*
X154713201Y-48499621D01*
X154658293Y-48544621D01*
X154587768Y-48552792D01*
X154524021Y-48521538D01*
X154503324Y-48497054D01*
X154422822Y-48372617D01*
X154422820Y-48372614D01*
X154420014Y-48368277D01*
X154269670Y-48203051D01*
X154265619Y-48199852D01*
X154265615Y-48199848D01*
X154098414Y-48067800D01*
X154098410Y-48067798D01*
X154094359Y-48064598D01*
X153898789Y-47956638D01*
X153893920Y-47954914D01*
X153893916Y-47954912D01*
X153693087Y-47883795D01*
X153693083Y-47883794D01*
X153688212Y-47882069D01*
X153683119Y-47881162D01*
X153683116Y-47881161D01*
X153473373Y-47843800D01*
X153473367Y-47843799D01*
X153468284Y-47842894D01*
X153394452Y-47841992D01*
X153250081Y-47840228D01*
X153250079Y-47840228D01*
X153244911Y-47840165D01*
X153024091Y-47873955D01*
X152811756Y-47943357D01*
X152613607Y-48046507D01*
X152609474Y-48049610D01*
X152609471Y-48049612D01*
X152439100Y-48177530D01*
X152434965Y-48180635D01*
X152431393Y-48184373D01*
X152290888Y-48331403D01*
X152280629Y-48342138D01*
X152173201Y-48499621D01*
X152118293Y-48544621D01*
X152047768Y-48552792D01*
X151984021Y-48521538D01*
X151963324Y-48497054D01*
X151882822Y-48372617D01*
X151882820Y-48372614D01*
X151880014Y-48368277D01*
X151729670Y-48203051D01*
X151725619Y-48199852D01*
X151725615Y-48199848D01*
X151558414Y-48067800D01*
X151558410Y-48067798D01*
X151554359Y-48064598D01*
X151358789Y-47956638D01*
X151353920Y-47954914D01*
X151353916Y-47954912D01*
X151153087Y-47883795D01*
X151153083Y-47883794D01*
X151148212Y-47882069D01*
X151143119Y-47881162D01*
X151143116Y-47881161D01*
X150933373Y-47843800D01*
X150933367Y-47843799D01*
X150928284Y-47842894D01*
X150854452Y-47841992D01*
X150710081Y-47840228D01*
X150710079Y-47840228D01*
X150704911Y-47840165D01*
X150484091Y-47873955D01*
X150271756Y-47943357D01*
X150073607Y-48046507D01*
X150069474Y-48049610D01*
X150069471Y-48049612D01*
X149899100Y-48177530D01*
X149894965Y-48180635D01*
X149891393Y-48184373D01*
X149750888Y-48331403D01*
X149740629Y-48342138D01*
X149633201Y-48499621D01*
X149578293Y-48544621D01*
X149507768Y-48552792D01*
X149444021Y-48521538D01*
X149423324Y-48497054D01*
X149342822Y-48372617D01*
X149342820Y-48372614D01*
X149340014Y-48368277D01*
X149189670Y-48203051D01*
X149185619Y-48199852D01*
X149185615Y-48199848D01*
X149018414Y-48067800D01*
X149018410Y-48067798D01*
X149014359Y-48064598D01*
X148818789Y-47956638D01*
X148813920Y-47954914D01*
X148813916Y-47954912D01*
X148613087Y-47883795D01*
X148613083Y-47883794D01*
X148608212Y-47882069D01*
X148603119Y-47881162D01*
X148603116Y-47881161D01*
X148393373Y-47843800D01*
X148393367Y-47843799D01*
X148388284Y-47842894D01*
X148314452Y-47841992D01*
X148170081Y-47840228D01*
X148170079Y-47840228D01*
X148164911Y-47840165D01*
X147944091Y-47873955D01*
X147731756Y-47943357D01*
X147533607Y-48046507D01*
X147529474Y-48049610D01*
X147529471Y-48049612D01*
X147359100Y-48177530D01*
X147354965Y-48180635D01*
X147298537Y-48239684D01*
X147274283Y-48265064D01*
X147212759Y-48300494D01*
X147141846Y-48297037D01*
X147084060Y-48255791D01*
X147065207Y-48222243D01*
X147023767Y-48111703D01*
X147020615Y-48103295D01*
X146933261Y-47986739D01*
X146816705Y-47899385D01*
X146680316Y-47848255D01*
X146618134Y-47841500D01*
X144821866Y-47841500D01*
X144759684Y-47848255D01*
X144623295Y-47899385D01*
X144506739Y-47986739D01*
X144419385Y-48103295D01*
X144368255Y-48239684D01*
X144361500Y-48301866D01*
X144361500Y-50098134D01*
X144368255Y-50160316D01*
X144419385Y-50296705D01*
X144506739Y-50413261D01*
X144623295Y-50500615D01*
X144759684Y-50551745D01*
X144821866Y-50558500D01*
X146618134Y-50558500D01*
X146680316Y-50551745D01*
X146816705Y-50500615D01*
X146933261Y-50413261D01*
X147020615Y-50296705D01*
X147025346Y-50284086D01*
X147064598Y-50179382D01*
X147107240Y-50122618D01*
X147173802Y-50097918D01*
X147243150Y-50113126D01*
X147277817Y-50141114D01*
X147306250Y-50173938D01*
X147335314Y-50198067D01*
X147374949Y-50256969D01*
X147376448Y-50327949D01*
X147343924Y-50384106D01*
X145239480Y-52488550D01*
X145233215Y-52494404D01*
X145189615Y-52532439D01*
X145176958Y-52550448D01*
X145152872Y-52584719D01*
X145148939Y-52590014D01*
X145109524Y-52640282D01*
X145106401Y-52647198D01*
X145105017Y-52649484D01*
X145096643Y-52664165D01*
X145095378Y-52666525D01*
X145091010Y-52672739D01*
X145088250Y-52679818D01*
X145088249Y-52679820D01*
X145067798Y-52732275D01*
X145065247Y-52738344D01*
X145038955Y-52796573D01*
X145037571Y-52804040D01*
X145036770Y-52806595D01*
X145032141Y-52822848D01*
X145031478Y-52825428D01*
X145028718Y-52832509D01*
X145027727Y-52840040D01*
X145027726Y-52840042D01*
X145023827Y-52869661D01*
X145023528Y-52871935D01*
X145020379Y-52895852D01*
X145019348Y-52902359D01*
X145007704Y-52965186D01*
X145008141Y-52972766D01*
X145008141Y-52972767D01*
X145011291Y-53027392D01*
X145011500Y-53034646D01*
X145011500Y-58379340D01*
X144991498Y-58447461D01*
X144974595Y-58468435D01*
X143558435Y-59884595D01*
X143496123Y-59918621D01*
X143469340Y-59921500D01*
X138775892Y-59921500D01*
X138707771Y-59901498D01*
X138661278Y-59847842D01*
X138656368Y-59835376D01*
X138623770Y-59737667D01*
X138606550Y-59686054D01*
X138513478Y-59535652D01*
X138388303Y-59410695D01*
X138378978Y-59404947D01*
X138243968Y-59321725D01*
X138243966Y-59321724D01*
X138237738Y-59317885D01*
X138077254Y-59264655D01*
X138076389Y-59264368D01*
X138076387Y-59264368D01*
X138069861Y-59262203D01*
X138063025Y-59261503D01*
X138063022Y-59261502D01*
X138019969Y-59257091D01*
X137965400Y-59251500D01*
X136964600Y-59251500D01*
X136961354Y-59251837D01*
X136961350Y-59251837D01*
X136865692Y-59261762D01*
X136865688Y-59261763D01*
X136858834Y-59262474D01*
X136852298Y-59264655D01*
X136852296Y-59264655D01*
X136779542Y-59288928D01*
X136691054Y-59318450D01*
X136540652Y-59411522D01*
X136415695Y-59536697D01*
X136411855Y-59542927D01*
X136411854Y-59542928D01*
X136327011Y-59680569D01*
X136322885Y-59687262D01*
X136299602Y-59757458D01*
X136273827Y-59835167D01*
X136233396Y-59893527D01*
X136167832Y-59920764D01*
X136154234Y-59921500D01*
X135514500Y-59921500D01*
X135446379Y-59901498D01*
X135399886Y-59847842D01*
X135388500Y-59795500D01*
X135388500Y-59651866D01*
X135381745Y-59589684D01*
X135330615Y-59453295D01*
X135243261Y-59336739D01*
X135126705Y-59249385D01*
X134990316Y-59198255D01*
X134928134Y-59191500D01*
X133231866Y-59191500D01*
X133169684Y-59198255D01*
X133033295Y-59249385D01*
X132916739Y-59336739D01*
X132829385Y-59453295D01*
X132826233Y-59461703D01*
X132781029Y-59582285D01*
X132778255Y-59589684D01*
X132777628Y-59595453D01*
X132742874Y-59656291D01*
X132679919Y-59689113D01*
X132655507Y-59691500D01*
X128304493Y-59691500D01*
X128236372Y-59671498D01*
X128189879Y-59617842D01*
X128182457Y-59596237D01*
X128181745Y-59589684D01*
X128178972Y-59582285D01*
X128133767Y-59461703D01*
X128130615Y-59453295D01*
X128043261Y-59336739D01*
X127926705Y-59249385D01*
X127790316Y-59198255D01*
X127728134Y-59191500D01*
X126031866Y-59191500D01*
X125969684Y-59198255D01*
X125833295Y-59249385D01*
X125716739Y-59336739D01*
X125629385Y-59453295D01*
X125626236Y-59461696D01*
X125625019Y-59463918D01*
X125574760Y-59514064D01*
X125505369Y-59529077D01*
X125438877Y-59504191D01*
X125396395Y-59447307D01*
X125388500Y-59403408D01*
X125388500Y-58663478D01*
X125408502Y-58595357D01*
X125425405Y-58574382D01*
X125654384Y-58345404D01*
X125716696Y-58311379D01*
X125743479Y-58308500D01*
X134136999Y-58308500D01*
X134139786Y-58308251D01*
X134139792Y-58308251D01*
X134209929Y-58301991D01*
X134303762Y-58293617D01*
X134309176Y-58292136D01*
X134309181Y-58292135D01*
X134415802Y-58262966D01*
X134449050Y-58258500D01*
X134928134Y-58258500D01*
X134990316Y-58251745D01*
X135126705Y-58200615D01*
X135243261Y-58113261D01*
X135330615Y-57996705D01*
X135381745Y-57860316D01*
X135388500Y-57798134D01*
X135388500Y-57247177D01*
X135404616Y-57192291D01*
X135390108Y-57161911D01*
X135388500Y-57141845D01*
X135388500Y-56938661D01*
X135408502Y-56870540D01*
X135462158Y-56824047D01*
X135532432Y-56813943D01*
X135597012Y-56843437D01*
X135603595Y-56849566D01*
X135629594Y-56875565D01*
X135663620Y-56937877D01*
X135659714Y-56995600D01*
X135662263Y-56996217D01*
X135660606Y-57003066D01*
X135658197Y-57009685D01*
X135657314Y-57016675D01*
X135639506Y-57157637D01*
X135623804Y-57193641D01*
X135635396Y-57211679D01*
X135639899Y-57234882D01*
X135653163Y-57370160D01*
X135710418Y-57542273D01*
X135714065Y-57548295D01*
X135714066Y-57548297D01*
X135771143Y-57642542D01*
X135804380Y-57697424D01*
X135809269Y-57702487D01*
X135809270Y-57702488D01*
X135874923Y-57770473D01*
X135930382Y-57827902D01*
X136082159Y-57927222D01*
X136088763Y-57929678D01*
X136088765Y-57929679D01*
X136245558Y-57987990D01*
X136245560Y-57987990D01*
X136252168Y-57990448D01*
X136335995Y-58001633D01*
X136424980Y-58013507D01*
X136424984Y-58013507D01*
X136431961Y-58014438D01*
X136438972Y-58013800D01*
X136438976Y-58013800D01*
X136581459Y-58000832D01*
X136612600Y-57997998D01*
X136619302Y-57995820D01*
X136619304Y-57995820D01*
X136778409Y-57944124D01*
X136778412Y-57944123D01*
X136785108Y-57941947D01*
X136922045Y-57860316D01*
X136934860Y-57852677D01*
X136934862Y-57852676D01*
X136940912Y-57849069D01*
X137072266Y-57723982D01*
X137172643Y-57572902D01*
X137222657Y-57441240D01*
X137234555Y-57409920D01*
X137234556Y-57409918D01*
X137237055Y-57403338D01*
X137238035Y-57396366D01*
X137261748Y-57227639D01*
X137261748Y-57227636D01*
X137262299Y-57223717D01*
X137262616Y-57201000D01*
X137242397Y-57020745D01*
X137240080Y-57014091D01*
X137185064Y-56856106D01*
X137185062Y-56856103D01*
X137182745Y-56849448D01*
X137176644Y-56839684D01*
X137157500Y-56772918D01*
X137157500Y-56721912D01*
X137157792Y-56713342D01*
X137161209Y-56663224D01*
X137161209Y-56663220D01*
X137161725Y-56655648D01*
X137159319Y-56641859D01*
X137150740Y-56592708D01*
X137149777Y-56586182D01*
X137143015Y-56530304D01*
X137142102Y-56522758D01*
X137139416Y-56515650D01*
X137138779Y-56513056D01*
X137134318Y-56496750D01*
X137133548Y-56494199D01*
X137132242Y-56486716D01*
X137106561Y-56428212D01*
X137104069Y-56422105D01*
X137084173Y-56369452D01*
X137084173Y-56369451D01*
X137081487Y-56362344D01*
X137077184Y-56356083D01*
X137075947Y-56353717D01*
X137067720Y-56338937D01*
X137066369Y-56336652D01*
X137063315Y-56329695D01*
X137058695Y-56323675D01*
X137058692Y-56323669D01*
X137024421Y-56279009D01*
X137020541Y-56273668D01*
X136988661Y-56227280D01*
X136988656Y-56227275D01*
X136984357Y-56221019D01*
X136937829Y-56179564D01*
X136932554Y-56174584D01*
X135731565Y-54973595D01*
X135697539Y-54911283D01*
X135702604Y-54840468D01*
X135745151Y-54783632D01*
X135811671Y-54758821D01*
X135820660Y-54758500D01*
X136383580Y-54758500D01*
X136451701Y-54778502D01*
X136472597Y-54795327D01*
X136536512Y-54859130D01*
X136536517Y-54859134D01*
X136541697Y-54864305D01*
X136547927Y-54868145D01*
X136547928Y-54868146D01*
X136685090Y-54952694D01*
X136692262Y-54957115D01*
X136715830Y-54964932D01*
X136853611Y-55010632D01*
X136853613Y-55010632D01*
X136860139Y-55012797D01*
X136866975Y-55013497D01*
X136866978Y-55013498D01*
X136910031Y-55017909D01*
X136964600Y-55023500D01*
X137965400Y-55023500D01*
X137968646Y-55023163D01*
X137968650Y-55023163D01*
X138064308Y-55013238D01*
X138064312Y-55013237D01*
X138071166Y-55012526D01*
X138077702Y-55010345D01*
X138077704Y-55010345D01*
X138223336Y-54961758D01*
X138238946Y-54956550D01*
X138389348Y-54863478D01*
X138514305Y-54738303D01*
X138569960Y-54648015D01*
X138603275Y-54593968D01*
X138603276Y-54593966D01*
X138607115Y-54587738D01*
X138648678Y-54462430D01*
X138660632Y-54426389D01*
X138660632Y-54426387D01*
X138662797Y-54419861D01*
X138673500Y-54315400D01*
X138673500Y-54092505D01*
X138693502Y-54024384D01*
X138747158Y-53977891D01*
X138817432Y-53967787D01*
X138882012Y-53997281D01*
X138920396Y-54057007D01*
X138923143Y-54068247D01*
X138949028Y-54200183D01*
X138950415Y-54204234D01*
X138950416Y-54204238D01*
X139042156Y-54472190D01*
X139042160Y-54472199D01*
X139043545Y-54476245D01*
X139067285Y-54523447D01*
X139172213Y-54732072D01*
X139174654Y-54736926D01*
X139177080Y-54740455D01*
X139177083Y-54740461D01*
X139214792Y-54795327D01*
X139339928Y-54977401D01*
X139536309Y-55193221D01*
X139760164Y-55380392D01*
X139763805Y-55382676D01*
X140003709Y-55533168D01*
X140003713Y-55533170D01*
X140007349Y-55535451D01*
X140140320Y-55595490D01*
X140269379Y-55653763D01*
X140269383Y-55653765D01*
X140273291Y-55655529D01*
X140277410Y-55656749D01*
X140548956Y-55737185D01*
X140548960Y-55737186D01*
X140553069Y-55738403D01*
X140557303Y-55739051D01*
X140557308Y-55739052D01*
X140810166Y-55777744D01*
X140841506Y-55782540D01*
X140990086Y-55784874D01*
X141128973Y-55787056D01*
X141128979Y-55787056D01*
X141133264Y-55787123D01*
X141422945Y-55752068D01*
X141705188Y-55678023D01*
X141974770Y-55566358D01*
X141998532Y-55552473D01*
X142223006Y-55421301D01*
X142223007Y-55421301D01*
X142226704Y-55419140D01*
X142422082Y-55265944D01*
X142452955Y-55241736D01*
X142456327Y-55239092D01*
X142659391Y-55029547D01*
X142661924Y-55026099D01*
X142661928Y-55026094D01*
X142818876Y-54812435D01*
X142832137Y-54794382D01*
X142851445Y-54758821D01*
X142969319Y-54541725D01*
X142969320Y-54541723D01*
X142971369Y-54537949D01*
X143074511Y-54264991D01*
X143114230Y-54091571D01*
X143138697Y-53984742D01*
X143138698Y-53984737D01*
X143139654Y-53980562D01*
X143165593Y-53689923D01*
X143165625Y-53686921D01*
X143166037Y-53647485D01*
X143166037Y-53647484D01*
X143166063Y-53645000D01*
X143146217Y-53353882D01*
X143145350Y-53349696D01*
X143145349Y-53349688D01*
X143103488Y-53147553D01*
X143087044Y-53068150D01*
X142989641Y-52793093D01*
X142986391Y-52786795D01*
X142857775Y-52537606D01*
X142857775Y-52537605D01*
X142855810Y-52533799D01*
X142849226Y-52524430D01*
X142690494Y-52298578D01*
X142690493Y-52298577D01*
X142688027Y-52295068D01*
X142489397Y-52081316D01*
X142430941Y-52033470D01*
X142338040Y-51957432D01*
X142263595Y-51896500D01*
X142014799Y-51744037D01*
X141747614Y-51626751D01*
X141466984Y-51546812D01*
X141253162Y-51516381D01*
X141182353Y-51506303D01*
X141182351Y-51506303D01*
X141178101Y-51505698D01*
X141024318Y-51504893D01*
X140890596Y-51504192D01*
X140890589Y-51504192D01*
X140886310Y-51504170D01*
X140641070Y-51536457D01*
X140570923Y-51525518D01*
X140517824Y-51478390D01*
X140498634Y-51410036D01*
X140519445Y-51342158D01*
X140535530Y-51322440D01*
X141288684Y-50569286D01*
X141350996Y-50535260D01*
X141402896Y-50534910D01*
X141494597Y-50553567D01*
X141499772Y-50553757D01*
X141499774Y-50553757D01*
X141712673Y-50561564D01*
X141712677Y-50561564D01*
X141717837Y-50561753D01*
X141722957Y-50561097D01*
X141722959Y-50561097D01*
X141934288Y-50534025D01*
X141934289Y-50534025D01*
X141939416Y-50533368D01*
X141979264Y-50521413D01*
X142148429Y-50470661D01*
X142148434Y-50470659D01*
X142153384Y-50469174D01*
X142353994Y-50370896D01*
X142535860Y-50241173D01*
X142694096Y-50083489D01*
X142753594Y-50000689D01*
X142821435Y-49906277D01*
X142824453Y-49902077D01*
X142829979Y-49890897D01*
X142921136Y-49706453D01*
X142921137Y-49706451D01*
X142923430Y-49701811D01*
X142988370Y-49488069D01*
X143017529Y-49266590D01*
X143019156Y-49200000D01*
X143000852Y-48977361D01*
X142946431Y-48760702D01*
X142857354Y-48555840D01*
X142776769Y-48431274D01*
X142738822Y-48372617D01*
X142738820Y-48372614D01*
X142736014Y-48368277D01*
X142585670Y-48203051D01*
X142581619Y-48199852D01*
X142581615Y-48199848D01*
X142414414Y-48067800D01*
X142414410Y-48067798D01*
X142410359Y-48064598D01*
X142214789Y-47956638D01*
X142209920Y-47954914D01*
X142209916Y-47954912D01*
X142009087Y-47883795D01*
X142009083Y-47883794D01*
X142004212Y-47882069D01*
X141999119Y-47881162D01*
X141999116Y-47881161D01*
X141789373Y-47843800D01*
X141789367Y-47843799D01*
X141784284Y-47842894D01*
X141710452Y-47841992D01*
X141566081Y-47840228D01*
X141566079Y-47840228D01*
X141560911Y-47840165D01*
X141340091Y-47873955D01*
X141127756Y-47943357D01*
X140929607Y-48046507D01*
X140925474Y-48049610D01*
X140925471Y-48049612D01*
X140755100Y-48177530D01*
X140750965Y-48180635D01*
X140747393Y-48184373D01*
X140606888Y-48331403D01*
X140596629Y-48342138D01*
X140489201Y-48499621D01*
X140434293Y-48544621D01*
X140363768Y-48552792D01*
X140300021Y-48521538D01*
X140279324Y-48497054D01*
X140198822Y-48372617D01*
X140198820Y-48372614D01*
X140196014Y-48368277D01*
X140045670Y-48203051D01*
X140041619Y-48199852D01*
X140041615Y-48199848D01*
X139874414Y-48067800D01*
X139874410Y-48067798D01*
X139870359Y-48064598D01*
X139674789Y-47956638D01*
X139669920Y-47954914D01*
X139669916Y-47954912D01*
X139469087Y-47883795D01*
X139469083Y-47883794D01*
X139464212Y-47882069D01*
X139459119Y-47881162D01*
X139459116Y-47881161D01*
X139249373Y-47843800D01*
X139249367Y-47843799D01*
X139244284Y-47842894D01*
X139170452Y-47841992D01*
X139026081Y-47840228D01*
X139026079Y-47840228D01*
X139020911Y-47840165D01*
X138800091Y-47873955D01*
X138587756Y-47943357D01*
X138389607Y-48046507D01*
X138385474Y-48049610D01*
X138385471Y-48049612D01*
X138215100Y-48177530D01*
X138210965Y-48180635D01*
X138207393Y-48184373D01*
X138066888Y-48331403D01*
X138056629Y-48342138D01*
X137949201Y-48499621D01*
X137894293Y-48544621D01*
X137823768Y-48552792D01*
X137760021Y-48521538D01*
X137739324Y-48497054D01*
X137658822Y-48372617D01*
X137658820Y-48372614D01*
X137656014Y-48368277D01*
X137505670Y-48203051D01*
X137501619Y-48199852D01*
X137501615Y-48199848D01*
X137334414Y-48067800D01*
X137334410Y-48067798D01*
X137330359Y-48064598D01*
X137134789Y-47956638D01*
X137129920Y-47954914D01*
X137129916Y-47954912D01*
X136929087Y-47883795D01*
X136929083Y-47883794D01*
X136924212Y-47882069D01*
X136919119Y-47881162D01*
X136919116Y-47881161D01*
X136709373Y-47843800D01*
X136709367Y-47843799D01*
X136704284Y-47842894D01*
X136630452Y-47841992D01*
X136486081Y-47840228D01*
X136486079Y-47840228D01*
X136480911Y-47840165D01*
X136260091Y-47873955D01*
X136047756Y-47943357D01*
X135849607Y-48046507D01*
X135845474Y-48049610D01*
X135845471Y-48049612D01*
X135675100Y-48177530D01*
X135670965Y-48180635D01*
X135667393Y-48184373D01*
X135526888Y-48331403D01*
X135516629Y-48342138D01*
X135409201Y-48499621D01*
X135354293Y-48544621D01*
X135283768Y-48552792D01*
X135220021Y-48521538D01*
X135199324Y-48497054D01*
X135118822Y-48372617D01*
X135118820Y-48372614D01*
X135116014Y-48368277D01*
X134965670Y-48203051D01*
X134961619Y-48199852D01*
X134961615Y-48199848D01*
X134794414Y-48067800D01*
X134794410Y-48067798D01*
X134790359Y-48064598D01*
X134594789Y-47956638D01*
X134589920Y-47954914D01*
X134589916Y-47954912D01*
X134389087Y-47883795D01*
X134389083Y-47883794D01*
X134384212Y-47882069D01*
X134379119Y-47881162D01*
X134379116Y-47881161D01*
X134169373Y-47843800D01*
X134169367Y-47843799D01*
X134164284Y-47842894D01*
X134090452Y-47841992D01*
X133946081Y-47840228D01*
X133946079Y-47840228D01*
X133940911Y-47840165D01*
X133720091Y-47873955D01*
X133507756Y-47943357D01*
X133309607Y-48046507D01*
X133305474Y-48049610D01*
X133305471Y-48049612D01*
X133135100Y-48177530D01*
X133130965Y-48180635D01*
X133127393Y-48184373D01*
X132986888Y-48331403D01*
X132976629Y-48342138D01*
X132869201Y-48499621D01*
X132814293Y-48544621D01*
X132743768Y-48552792D01*
X132680021Y-48521538D01*
X132659324Y-48497054D01*
X132578822Y-48372617D01*
X132578820Y-48372614D01*
X132576014Y-48368277D01*
X132425670Y-48203051D01*
X132421619Y-48199852D01*
X132421615Y-48199848D01*
X132254414Y-48067800D01*
X132254410Y-48067798D01*
X132250359Y-48064598D01*
X132054789Y-47956638D01*
X132049920Y-47954914D01*
X132049916Y-47954912D01*
X131849087Y-47883795D01*
X131849083Y-47883794D01*
X131844212Y-47882069D01*
X131839119Y-47881162D01*
X131839116Y-47881161D01*
X131629373Y-47843800D01*
X131629367Y-47843799D01*
X131624284Y-47842894D01*
X131550452Y-47841992D01*
X131406081Y-47840228D01*
X131406079Y-47840228D01*
X131400911Y-47840165D01*
X131180091Y-47873955D01*
X130967756Y-47943357D01*
X130769607Y-48046507D01*
X130765474Y-48049610D01*
X130765471Y-48049612D01*
X130595100Y-48177530D01*
X130590965Y-48180635D01*
X130587393Y-48184373D01*
X130446888Y-48331403D01*
X130436629Y-48342138D01*
X130329201Y-48499621D01*
X130274293Y-48544621D01*
X130203768Y-48552792D01*
X130140021Y-48521538D01*
X130119324Y-48497054D01*
X130038822Y-48372617D01*
X130038820Y-48372614D01*
X130036014Y-48368277D01*
X129885670Y-48203051D01*
X129881619Y-48199852D01*
X129881615Y-48199848D01*
X129714414Y-48067800D01*
X129714410Y-48067798D01*
X129710359Y-48064598D01*
X129514789Y-47956638D01*
X129509920Y-47954914D01*
X129509916Y-47954912D01*
X129309087Y-47883795D01*
X129309083Y-47883794D01*
X129304212Y-47882069D01*
X129299119Y-47881162D01*
X129299116Y-47881161D01*
X129089373Y-47843800D01*
X129089367Y-47843799D01*
X129084284Y-47842894D01*
X129010452Y-47841992D01*
X128866081Y-47840228D01*
X128866079Y-47840228D01*
X128860911Y-47840165D01*
X128640091Y-47873955D01*
X128427756Y-47943357D01*
X128229607Y-48046507D01*
X128225474Y-48049610D01*
X128225471Y-48049612D01*
X128055100Y-48177530D01*
X128050965Y-48180635D01*
X128047393Y-48184373D01*
X127906888Y-48331403D01*
X127896629Y-48342138D01*
X127770743Y-48526680D01*
X127676688Y-48729305D01*
X127616989Y-48944570D01*
X127593251Y-49166695D01*
X127593548Y-49171848D01*
X127593548Y-49171851D01*
X127599011Y-49266590D01*
X127606110Y-49389715D01*
X127607247Y-49394761D01*
X127607248Y-49394767D01*
X127627119Y-49482939D01*
X127655222Y-49607639D01*
X127739266Y-49814616D01*
X127786011Y-49890897D01*
X127853291Y-50000688D01*
X127855987Y-50005088D01*
X128002250Y-50173938D01*
X128174126Y-50316632D01*
X128367000Y-50429338D01*
X128371825Y-50431180D01*
X128371826Y-50431181D01*
X128418476Y-50448995D01*
X128575692Y-50509030D01*
X128580760Y-50510061D01*
X128580763Y-50510062D01*
X128640822Y-50522281D01*
X128794597Y-50553567D01*
X128799772Y-50553757D01*
X128799774Y-50553757D01*
X129012673Y-50561564D01*
X129012677Y-50561564D01*
X129017837Y-50561753D01*
X129022957Y-50561097D01*
X129022959Y-50561097D01*
X129234288Y-50534025D01*
X129234289Y-50534025D01*
X129239416Y-50533368D01*
X129279264Y-50521413D01*
X129448429Y-50470661D01*
X129448434Y-50470659D01*
X129453384Y-50469174D01*
X129653994Y-50370896D01*
X129835860Y-50241173D01*
X129994096Y-50083489D01*
X130053594Y-50000689D01*
X130124453Y-49902077D01*
X130125776Y-49903028D01*
X130172645Y-49859857D01*
X130242580Y-49847625D01*
X130308026Y-49875144D01*
X130335875Y-49906994D01*
X130395987Y-50005088D01*
X130542250Y-50173938D01*
X130714126Y-50316632D01*
X130907000Y-50429338D01*
X130911825Y-50431180D01*
X130911826Y-50431181D01*
X130958476Y-50448995D01*
X131115692Y-50509030D01*
X131120760Y-50510061D01*
X131120763Y-50510062D01*
X131180822Y-50522281D01*
X131334597Y-50553567D01*
X131339772Y-50553757D01*
X131339774Y-50553757D01*
X131552673Y-50561564D01*
X131552677Y-50561564D01*
X131557837Y-50561753D01*
X131562957Y-50561097D01*
X131562959Y-50561097D01*
X131774288Y-50534025D01*
X131774289Y-50534025D01*
X131779416Y-50533368D01*
X131819264Y-50521413D01*
X131988429Y-50470661D01*
X131988434Y-50470659D01*
X131993384Y-50469174D01*
X132193994Y-50370896D01*
X132375860Y-50241173D01*
X132534096Y-50083489D01*
X132593594Y-50000689D01*
X132664453Y-49902077D01*
X132665776Y-49903028D01*
X132712645Y-49859857D01*
X132782580Y-49847625D01*
X132848026Y-49875144D01*
X132875875Y-49906994D01*
X132935987Y-50005088D01*
X133082250Y-50173938D01*
X133254126Y-50316632D01*
X133447000Y-50429338D01*
X133451825Y-50431180D01*
X133451826Y-50431181D01*
X133498476Y-50448995D01*
X133655692Y-50509030D01*
X133660760Y-50510061D01*
X133660763Y-50510062D01*
X133720822Y-50522281D01*
X133874597Y-50553567D01*
X133879772Y-50553757D01*
X133879774Y-50553757D01*
X134092673Y-50561564D01*
X134092677Y-50561564D01*
X134097837Y-50561753D01*
X134102957Y-50561097D01*
X134102959Y-50561097D01*
X134314288Y-50534025D01*
X134314289Y-50534025D01*
X134319416Y-50533368D01*
X134359264Y-50521413D01*
X134528429Y-50470661D01*
X134528434Y-50470659D01*
X134533384Y-50469174D01*
X134733994Y-50370896D01*
X134915860Y-50241173D01*
X135074096Y-50083489D01*
X135133594Y-50000689D01*
X135204453Y-49902077D01*
X135205776Y-49903028D01*
X135252645Y-49859857D01*
X135322580Y-49847625D01*
X135388026Y-49875144D01*
X135415875Y-49906994D01*
X135475987Y-50005088D01*
X135622250Y-50173938D01*
X135794126Y-50316632D01*
X135987000Y-50429338D01*
X135991825Y-50431180D01*
X135991826Y-50431181D01*
X136038476Y-50448995D01*
X136195692Y-50509030D01*
X136200760Y-50510061D01*
X136200763Y-50510062D01*
X136260822Y-50522281D01*
X136414597Y-50553567D01*
X136419772Y-50553757D01*
X136419774Y-50553757D01*
X136632673Y-50561564D01*
X136632677Y-50561564D01*
X136637837Y-50561753D01*
X136642957Y-50561097D01*
X136642959Y-50561097D01*
X136854288Y-50534025D01*
X136854289Y-50534025D01*
X136859416Y-50533368D01*
X136899264Y-50521413D01*
X137068429Y-50470661D01*
X137068434Y-50470659D01*
X137073384Y-50469174D01*
X137273994Y-50370896D01*
X137455860Y-50241173D01*
X137614096Y-50083489D01*
X137673594Y-50000689D01*
X137744453Y-49902077D01*
X137745776Y-49903028D01*
X137792645Y-49859857D01*
X137862580Y-49847625D01*
X137928026Y-49875144D01*
X137955875Y-49906994D01*
X138015987Y-50005088D01*
X138162250Y-50173938D01*
X138166013Y-50177062D01*
X138200650Y-50238945D01*
X138196327Y-50309809D01*
X138154378Y-50367088D01*
X138088122Y-50392594D01*
X138071832Y-50392706D01*
X138070222Y-50392790D01*
X138062648Y-50392274D01*
X137999681Y-50403264D01*
X137993169Y-50404224D01*
X137929758Y-50411898D01*
X137922657Y-50414581D01*
X137920048Y-50415222D01*
X137903728Y-50419687D01*
X137901195Y-50420452D01*
X137893717Y-50421757D01*
X137835190Y-50447448D01*
X137829108Y-50449930D01*
X137808753Y-50457622D01*
X137776449Y-50469828D01*
X137776447Y-50469829D01*
X137769344Y-50472513D01*
X137763085Y-50476814D01*
X137760720Y-50478051D01*
X137745948Y-50486273D01*
X137743656Y-50487628D01*
X137736695Y-50490684D01*
X137730668Y-50495309D01*
X137730664Y-50495311D01*
X137685987Y-50529593D01*
X137680662Y-50533462D01*
X137628019Y-50569643D01*
X137622967Y-50575313D01*
X137622966Y-50575314D01*
X137586580Y-50616153D01*
X137581600Y-50621429D01*
X136984465Y-51218565D01*
X136978198Y-51224419D01*
X136940340Y-51257444D01*
X136940337Y-51257447D01*
X136934615Y-51262439D01*
X136930248Y-51268653D01*
X136897872Y-51314719D01*
X136893939Y-51320014D01*
X136854524Y-51370282D01*
X136851401Y-51377198D01*
X136850017Y-51379484D01*
X136841643Y-51394165D01*
X136840378Y-51396525D01*
X136836010Y-51402739D01*
X136833250Y-51409818D01*
X136833249Y-51409820D01*
X136812798Y-51462275D01*
X136810247Y-51468344D01*
X136783955Y-51526573D01*
X136782571Y-51534040D01*
X136781770Y-51536595D01*
X136777141Y-51552848D01*
X136776478Y-51555428D01*
X136773718Y-51562509D01*
X136772727Y-51570040D01*
X136772726Y-51570042D01*
X136765379Y-51625852D01*
X136764348Y-51632359D01*
X136752704Y-51695186D01*
X136753141Y-51702766D01*
X136753141Y-51702767D01*
X136756291Y-51757392D01*
X136756500Y-51764646D01*
X136756500Y-52763613D01*
X136736498Y-52831734D01*
X136690270Y-52872184D01*
X136691054Y-52873450D01*
X136540652Y-52966522D01*
X136415695Y-53091697D01*
X136322885Y-53242262D01*
X136320579Y-53249213D01*
X136320579Y-53249214D01*
X136318603Y-53255170D01*
X136278172Y-53313529D01*
X136212607Y-53340764D01*
X136199011Y-53341500D01*
X135504493Y-53341500D01*
X135436372Y-53321498D01*
X135389879Y-53267842D01*
X135382457Y-53246237D01*
X135381745Y-53239684D01*
X135378972Y-53232285D01*
X135333767Y-53111703D01*
X135330615Y-53103295D01*
X135243261Y-52986739D01*
X135126705Y-52899385D01*
X134990316Y-52848255D01*
X134928134Y-52841500D01*
X133231866Y-52841500D01*
X133169684Y-52848255D01*
X133033295Y-52899385D01*
X132916739Y-52986739D01*
X132829385Y-53103295D01*
X132826233Y-53111703D01*
X132781029Y-53232285D01*
X132778255Y-53239684D01*
X132777628Y-53245453D01*
X132742874Y-53306291D01*
X132679919Y-53339113D01*
X132655507Y-53341500D01*
X128304493Y-53341500D01*
X128236372Y-53321498D01*
X128189879Y-53267842D01*
X128182457Y-53246237D01*
X128181745Y-53239684D01*
X128178972Y-53232285D01*
X128133767Y-53111703D01*
X128130615Y-53103295D01*
X128043261Y-52986739D01*
X127926705Y-52899385D01*
X127790316Y-52848255D01*
X127728134Y-52841500D01*
X126031866Y-52841500D01*
X125969684Y-52848255D01*
X125833295Y-52899385D01*
X125716739Y-52986739D01*
X125629385Y-53103295D01*
X125578255Y-53239684D01*
X125571500Y-53301866D01*
X125571500Y-54798134D01*
X125578255Y-54860316D01*
X125629385Y-54996705D01*
X125716739Y-55113261D01*
X125833295Y-55200615D01*
X125969684Y-55251745D01*
X126031866Y-55258500D01*
X127728134Y-55258500D01*
X127790316Y-55251745D01*
X127926705Y-55200615D01*
X128043261Y-55113261D01*
X128130615Y-54996705D01*
X128144593Y-54959419D01*
X128178972Y-54867714D01*
X128178973Y-54867711D01*
X128181745Y-54860316D01*
X128182372Y-54854547D01*
X128217126Y-54793709D01*
X128280081Y-54760887D01*
X128304493Y-54758500D01*
X132655507Y-54758500D01*
X132723628Y-54778502D01*
X132770121Y-54832158D01*
X132777543Y-54853763D01*
X132778255Y-54860316D01*
X132781027Y-54867711D01*
X132781028Y-54867714D01*
X132815407Y-54959419D01*
X132829385Y-54996705D01*
X132916739Y-55113261D01*
X133033295Y-55200615D01*
X133041703Y-55203767D01*
X133147620Y-55243474D01*
X133204384Y-55286116D01*
X133228789Y-55349160D01*
X133233014Y-55392251D01*
X133240163Y-55465160D01*
X133242387Y-55471845D01*
X133293577Y-55625728D01*
X133296100Y-55696680D01*
X133259863Y-55757732D01*
X133196371Y-55789502D01*
X133174019Y-55791500D01*
X125261395Y-55791500D01*
X125244948Y-55790422D01*
X125228483Y-55788254D01*
X125228479Y-55788254D01*
X125222913Y-55787521D01*
X125141512Y-55791360D01*
X125135576Y-55791500D01*
X125113001Y-55791500D01*
X125093981Y-55793197D01*
X125087011Y-55793819D01*
X125081749Y-55794178D01*
X125065568Y-55794941D01*
X124998512Y-55798104D01*
X124993053Y-55799354D01*
X124993048Y-55799355D01*
X124981030Y-55802108D01*
X124964101Y-55804789D01*
X124946238Y-55806383D01*
X124940822Y-55807865D01*
X124940820Y-55807865D01*
X124865867Y-55828370D01*
X124860749Y-55829656D01*
X124785000Y-55847005D01*
X124784998Y-55847006D01*
X124779530Y-55848258D01*
X124770494Y-55852112D01*
X124763033Y-55855294D01*
X124746858Y-55860927D01*
X124734961Y-55864182D01*
X124734957Y-55864183D01*
X124729549Y-55865663D01*
X124724483Y-55868079D01*
X124724484Y-55868079D01*
X124654333Y-55901539D01*
X124649524Y-55903710D01*
X124580304Y-55933235D01*
X124572891Y-55936397D01*
X124557890Y-55946251D01*
X124542975Y-55954654D01*
X124526782Y-55962378D01*
X124522231Y-55965648D01*
X124522228Y-55965650D01*
X124459119Y-56010999D01*
X124454768Y-56013989D01*
X124388990Y-56057196D01*
X124388982Y-56057202D01*
X124385126Y-56059735D01*
X124364338Y-56078257D01*
X124354061Y-56086490D01*
X124344346Y-56093471D01*
X124298647Y-56140629D01*
X124269970Y-56170221D01*
X124268581Y-56171632D01*
X123304733Y-57135479D01*
X123292342Y-57146346D01*
X123274708Y-57159877D01*
X123270935Y-57164023D01*
X123270930Y-57164028D01*
X123219851Y-57220164D01*
X123215753Y-57224459D01*
X123199802Y-57240410D01*
X123198007Y-57242557D01*
X123198005Y-57242559D01*
X123183068Y-57260423D01*
X123179600Y-57264398D01*
X123127288Y-57321888D01*
X123127281Y-57321897D01*
X123123515Y-57326036D01*
X123120538Y-57330782D01*
X123120537Y-57330783D01*
X123113987Y-57341225D01*
X123103911Y-57355093D01*
X123096004Y-57364549D01*
X123095997Y-57364559D01*
X123092406Y-57368854D01*
X123056300Y-57432155D01*
X123051118Y-57441240D01*
X123048408Y-57445768D01*
X123007880Y-57510376D01*
X123004136Y-57516344D01*
X123002043Y-57521549D01*
X123002042Y-57521552D01*
X122997448Y-57532979D01*
X122989988Y-57548411D01*
X122983880Y-57559119D01*
X122983876Y-57559128D01*
X122981101Y-57563993D01*
X122979232Y-57569270D01*
X122979230Y-57569275D01*
X122953285Y-57642542D01*
X122951420Y-57647478D01*
X122920344Y-57724783D01*
X122919208Y-57730270D01*
X122919207Y-57730272D01*
X122916706Y-57742349D01*
X122912101Y-57758844D01*
X122906111Y-57775759D01*
X122901891Y-57801531D01*
X122892643Y-57858001D01*
X122891683Y-57863180D01*
X122874787Y-57944767D01*
X122874521Y-57949379D01*
X122874521Y-57949380D01*
X122873185Y-57972548D01*
X122871738Y-57985653D01*
X122870801Y-57991380D01*
X122869806Y-57997457D01*
X122869894Y-58003070D01*
X122869894Y-58003072D01*
X122871484Y-58104264D01*
X122871500Y-58106243D01*
X122871500Y-61326522D01*
X122851498Y-61394643D01*
X122834595Y-61415617D01*
X122145617Y-62104595D01*
X122083305Y-62138621D01*
X122056522Y-62141500D01*
X114720396Y-62141500D01*
X114703949Y-62140422D01*
X114703270Y-62140333D01*
X114681914Y-62137521D01*
X114676314Y-62137785D01*
X114676313Y-62137785D01*
X114600504Y-62141360D01*
X114594569Y-62141500D01*
X114572001Y-62141500D01*
X114569218Y-62141748D01*
X114569204Y-62141749D01*
X114546023Y-62143818D01*
X114540760Y-62144177D01*
X114511342Y-62145564D01*
X114457512Y-62148103D01*
X114440023Y-62152108D01*
X114423104Y-62154788D01*
X114418618Y-62155189D01*
X114405238Y-62156383D01*
X114399830Y-62157862D01*
X114399827Y-62157863D01*
X114324870Y-62178369D01*
X114319752Y-62179655D01*
X114244000Y-62197005D01*
X114243998Y-62197006D01*
X114238530Y-62198258D01*
X114228030Y-62202737D01*
X114222033Y-62205294D01*
X114205858Y-62210927D01*
X114193961Y-62214182D01*
X114193957Y-62214183D01*
X114188549Y-62215663D01*
X114183483Y-62218079D01*
X114183484Y-62218079D01*
X114113333Y-62251539D01*
X114108524Y-62253710D01*
X114031891Y-62286397D01*
X114016890Y-62296251D01*
X114001975Y-62304654D01*
X113985782Y-62312378D01*
X113981231Y-62315648D01*
X113981228Y-62315650D01*
X113958902Y-62331693D01*
X113933206Y-62350158D01*
X113918119Y-62360999D01*
X113913768Y-62363989D01*
X113847990Y-62407196D01*
X113847982Y-62407202D01*
X113844126Y-62409735D01*
X113823338Y-62428257D01*
X113813061Y-62436490D01*
X113803346Y-62443471D01*
X113740994Y-62507813D01*
X113728937Y-62520255D01*
X113727548Y-62521665D01*
X111249617Y-64999595D01*
X111187305Y-65033621D01*
X111160522Y-65036500D01*
X110835866Y-65036500D01*
X110773684Y-65043255D01*
X110637295Y-65094385D01*
X110520739Y-65181739D01*
X110433385Y-65298295D01*
X110382255Y-65434684D01*
X110375500Y-65496866D01*
X110375500Y-67193134D01*
X110382255Y-67255316D01*
X110433385Y-67391705D01*
X110520739Y-67508261D01*
X110637295Y-67595615D01*
X110645703Y-67598767D01*
X110766286Y-67643972D01*
X110766289Y-67643973D01*
X110773684Y-67646745D01*
X110779453Y-67647372D01*
X110840291Y-67682126D01*
X110873113Y-67745081D01*
X110875500Y-67769493D01*
X110875500Y-67790812D01*
X110855498Y-67858933D01*
X110838595Y-67879907D01*
X110677802Y-68040700D01*
X110674645Y-68045208D01*
X110674643Y-68045211D01*
X110633598Y-68103830D01*
X110546477Y-68228251D01*
X110544154Y-68233233D01*
X110544151Y-68233238D01*
X110484853Y-68360405D01*
X110449716Y-68435757D01*
X110390457Y-68656913D01*
X110370502Y-68885000D01*
X110390457Y-69113087D01*
X110449716Y-69334243D01*
X110452039Y-69339224D01*
X110452039Y-69339225D01*
X110544151Y-69536762D01*
X110544154Y-69536767D01*
X110546477Y-69541749D01*
X110677802Y-69729300D01*
X110839700Y-69891198D01*
X110844208Y-69894355D01*
X110844211Y-69894357D01*
X110922389Y-69949098D01*
X111027251Y-70022523D01*
X111032233Y-70024846D01*
X111032238Y-70024849D01*
X111066457Y-70040805D01*
X111119742Y-70087722D01*
X111139203Y-70155999D01*
X111118661Y-70223959D01*
X111066457Y-70269195D01*
X111032238Y-70285151D01*
X111032233Y-70285154D01*
X111027251Y-70287477D01*
X110968282Y-70328768D01*
X110844211Y-70415643D01*
X110844208Y-70415645D01*
X110839700Y-70418802D01*
X110677802Y-70580700D01*
X110546477Y-70768251D01*
X110544154Y-70773233D01*
X110544151Y-70773238D01*
X110495248Y-70878113D01*
X110449716Y-70975757D01*
X110448294Y-70981065D01*
X110448293Y-70981067D01*
X110411348Y-71118948D01*
X110390457Y-71196913D01*
X110370502Y-71425000D01*
X110390457Y-71653087D01*
X110449716Y-71874243D01*
X110452039Y-71879224D01*
X110452039Y-71879225D01*
X110544151Y-72076762D01*
X110544154Y-72076767D01*
X110546477Y-72081749D01*
X110677802Y-72269300D01*
X110839700Y-72431198D01*
X110844208Y-72434355D01*
X110844211Y-72434357D01*
X110922389Y-72489098D01*
X111027251Y-72562523D01*
X111032233Y-72564846D01*
X111032238Y-72564849D01*
X111066457Y-72580805D01*
X111119742Y-72627722D01*
X111139203Y-72695999D01*
X111118661Y-72763959D01*
X111066457Y-72809195D01*
X111032238Y-72825151D01*
X111032233Y-72825154D01*
X111027251Y-72827477D01*
X110922389Y-72900902D01*
X110844211Y-72955643D01*
X110844208Y-72955645D01*
X110839700Y-72958802D01*
X110677802Y-73120700D01*
X110546477Y-73308251D01*
X110544154Y-73313233D01*
X110544151Y-73313238D01*
X110482369Y-73445732D01*
X110449716Y-73515757D01*
X110390457Y-73736913D01*
X110370502Y-73965000D01*
X110390457Y-74193087D01*
X110449716Y-74414243D01*
X110452039Y-74419224D01*
X110452039Y-74419225D01*
X110544151Y-74616762D01*
X110544154Y-74616767D01*
X110546477Y-74621749D01*
X110677802Y-74809300D01*
X110839700Y-74971198D01*
X110844208Y-74974355D01*
X110844211Y-74974357D01*
X110922389Y-75029098D01*
X111027251Y-75102523D01*
X111032233Y-75104846D01*
X111032238Y-75104849D01*
X111229775Y-75196961D01*
X111234757Y-75199284D01*
X111240065Y-75200706D01*
X111240067Y-75200707D01*
X111450598Y-75257119D01*
X111450600Y-75257119D01*
X111455913Y-75258543D01*
X111684000Y-75278498D01*
X111912087Y-75258543D01*
X111917400Y-75257119D01*
X111917402Y-75257119D01*
X112127933Y-75200707D01*
X112127935Y-75200706D01*
X112133243Y-75199284D01*
X112138225Y-75196961D01*
X112335762Y-75104849D01*
X112335767Y-75104846D01*
X112340749Y-75102523D01*
X112445611Y-75029098D01*
X112523789Y-74974357D01*
X112523792Y-74974355D01*
X112528300Y-74971198D01*
X112690198Y-74809300D01*
X112821523Y-74621749D01*
X112823847Y-74616764D01*
X112823851Y-74616758D01*
X112852305Y-74555737D01*
X112899222Y-74502451D01*
X112967499Y-74482990D01*
X113035459Y-74503531D01*
X113081525Y-74557554D01*
X113092500Y-74608986D01*
X113092500Y-93431604D01*
X113091422Y-93448051D01*
X113088521Y-93470086D01*
X113088786Y-93475698D01*
X113092360Y-93551488D01*
X113092500Y-93557424D01*
X113092500Y-93579999D01*
X113094819Y-93605988D01*
X113095178Y-93611248D01*
X113099104Y-93694488D01*
X113100354Y-93699947D01*
X113100355Y-93699952D01*
X113103108Y-93711970D01*
X113105789Y-93728899D01*
X113107383Y-93746762D01*
X113108865Y-93752178D01*
X113108865Y-93752180D01*
X113129370Y-93827133D01*
X113130656Y-93832251D01*
X113149258Y-93913470D01*
X113151460Y-93918632D01*
X113156294Y-93929967D01*
X113161927Y-93946142D01*
X113166663Y-93963451D01*
X113169079Y-93968516D01*
X113202539Y-94038667D01*
X113204710Y-94043476D01*
X113228125Y-94098372D01*
X113237397Y-94120109D01*
X113247251Y-94135110D01*
X113255654Y-94150025D01*
X113263378Y-94166218D01*
X113266648Y-94170769D01*
X113266650Y-94170772D01*
X113271985Y-94178196D01*
X113303273Y-94221737D01*
X113311999Y-94233881D01*
X113314989Y-94238232D01*
X113358196Y-94304010D01*
X113358202Y-94304018D01*
X113360735Y-94307874D01*
X113379257Y-94328662D01*
X113387490Y-94338939D01*
X113394471Y-94348654D01*
X113458214Y-94410425D01*
X113471254Y-94423062D01*
X113472601Y-94424388D01*
X114187806Y-95139594D01*
X114221830Y-95201904D01*
X114216765Y-95272720D01*
X114174218Y-95329555D01*
X114107698Y-95354366D01*
X114088826Y-95354299D01*
X114065111Y-95352433D01*
X114055715Y-95351693D01*
X114055712Y-95351693D01*
X114053261Y-95351500D01*
X113897729Y-95351500D01*
X113895593Y-95351646D01*
X113895582Y-95351646D01*
X113687452Y-95365835D01*
X113687446Y-95365836D01*
X113683175Y-95366127D01*
X113678980Y-95366996D01*
X113678978Y-95366996D01*
X113625639Y-95378042D01*
X113401658Y-95424426D01*
X113130657Y-95520393D01*
X113126848Y-95522359D01*
X112991675Y-95592127D01*
X112875188Y-95652250D01*
X112871687Y-95654711D01*
X112871683Y-95654713D01*
X112831398Y-95683026D01*
X112639977Y-95817559D01*
X112636836Y-95820478D01*
X112465846Y-95979372D01*
X112429378Y-96013260D01*
X112247287Y-96235732D01*
X112097073Y-96480858D01*
X112095347Y-96484791D01*
X112095346Y-96484792D01*
X112034037Y-96624457D01*
X111981517Y-96744102D01*
X111980342Y-96748229D01*
X111980341Y-96748230D01*
X111977097Y-96759618D01*
X111902756Y-97020594D01*
X111862249Y-97305216D01*
X111862227Y-97309505D01*
X111862226Y-97309512D01*
X111860765Y-97588417D01*
X111860743Y-97592703D01*
X111861302Y-97596947D01*
X111861302Y-97596951D01*
X111862988Y-97609757D01*
X111898268Y-97877734D01*
X111974129Y-98155036D01*
X111975813Y-98158984D01*
X112071940Y-98384348D01*
X112086923Y-98419476D01*
X112097555Y-98437240D01*
X112229986Y-98658516D01*
X112234561Y-98666161D01*
X112414313Y-98890528D01*
X112622851Y-99088423D01*
X112643858Y-99103518D01*
X112687504Y-99159512D01*
X112693949Y-99230216D01*
X112661146Y-99293180D01*
X112599509Y-99328414D01*
X112571468Y-99331834D01*
X109017134Y-99363855D01*
X108948837Y-99344467D01*
X108901863Y-99291233D01*
X108890000Y-99237860D01*
X108890000Y-57789733D01*
X111447822Y-57789733D01*
X111447975Y-57794121D01*
X111447975Y-57794127D01*
X111456137Y-58027842D01*
X111457625Y-58070458D01*
X111458387Y-58074781D01*
X111458388Y-58074788D01*
X111479625Y-58195229D01*
X111506402Y-58347087D01*
X111593203Y-58614235D01*
X111595131Y-58618188D01*
X111595133Y-58618193D01*
X111633715Y-58697297D01*
X111716340Y-58866702D01*
X111718795Y-58870341D01*
X111718798Y-58870347D01*
X111791890Y-58978710D01*
X111873415Y-59099576D01*
X111876360Y-59102847D01*
X111876361Y-59102848D01*
X111915311Y-59146106D01*
X112061371Y-59308322D01*
X112064733Y-59311143D01*
X112064734Y-59311144D01*
X112072768Y-59317885D01*
X112276550Y-59488879D01*
X112514764Y-59637731D01*
X112694624Y-59717810D01*
X112760471Y-59747127D01*
X112771375Y-59751982D01*
X113041390Y-59829407D01*
X113045740Y-59830018D01*
X113045743Y-59830019D01*
X113148690Y-59844487D01*
X113319552Y-59868500D01*
X113530146Y-59868500D01*
X113532332Y-59868347D01*
X113532336Y-59868347D01*
X113735827Y-59854118D01*
X113735832Y-59854117D01*
X113740212Y-59853811D01*
X114014970Y-59795409D01*
X114019099Y-59793906D01*
X114019103Y-59793905D01*
X114274781Y-59700846D01*
X114274785Y-59700844D01*
X114278926Y-59699337D01*
X114526942Y-59567464D01*
X114548374Y-59551893D01*
X114750629Y-59404947D01*
X114750632Y-59404944D01*
X114754192Y-59402358D01*
X114777024Y-59380310D01*
X114871652Y-59288928D01*
X114956252Y-59207231D01*
X115129188Y-58985882D01*
X115131384Y-58982078D01*
X115131389Y-58982071D01*
X115185381Y-58888553D01*
X115236764Y-58839560D01*
X115306477Y-58826124D01*
X115372388Y-58852510D01*
X115413570Y-58910343D01*
X115420500Y-58951553D01*
X115420500Y-59818710D01*
X115404341Y-59873598D01*
X115407183Y-59875009D01*
X115404053Y-59881313D01*
X115400235Y-59887238D01*
X115397826Y-59893858D01*
X115397824Y-59893861D01*
X115356273Y-60008022D01*
X115338197Y-60057685D01*
X115315463Y-60237640D01*
X115333163Y-60418160D01*
X115390418Y-60590273D01*
X115394065Y-60596295D01*
X115394066Y-60596297D01*
X115407513Y-60618500D01*
X115484380Y-60745424D01*
X115610382Y-60875902D01*
X115762159Y-60975222D01*
X115768763Y-60977678D01*
X115768765Y-60977679D01*
X115925558Y-61035990D01*
X115925560Y-61035990D01*
X115932168Y-61038448D01*
X116015995Y-61049633D01*
X116104980Y-61061507D01*
X116104984Y-61061507D01*
X116111961Y-61062438D01*
X116118972Y-61061800D01*
X116118976Y-61061800D01*
X116261459Y-61048832D01*
X116292600Y-61045998D01*
X116299302Y-61043820D01*
X116299304Y-61043820D01*
X116458409Y-60992124D01*
X116458412Y-60992123D01*
X116465108Y-60989947D01*
X116620912Y-60897069D01*
X116752266Y-60771982D01*
X116852643Y-60620902D01*
X116854057Y-60621841D01*
X116896939Y-60576757D01*
X116965914Y-60559933D01*
X116999741Y-60566205D01*
X117118611Y-60605632D01*
X117118613Y-60605632D01*
X117125139Y-60607797D01*
X117131975Y-60608497D01*
X117131978Y-60608498D01*
X117175031Y-60612909D01*
X117229600Y-60618500D01*
X118330400Y-60618500D01*
X118333646Y-60618163D01*
X118333650Y-60618163D01*
X118429307Y-60608238D01*
X118429311Y-60608237D01*
X118436165Y-60607526D01*
X118442701Y-60605345D01*
X118442703Y-60605345D01*
X118596997Y-60553868D01*
X118603945Y-60551550D01*
X118754348Y-60458478D01*
X118879305Y-60333303D01*
X118972115Y-60182738D01*
X119013593Y-60057685D01*
X119025632Y-60021389D01*
X119025632Y-60021387D01*
X119027797Y-60014861D01*
X119038500Y-59910400D01*
X119038500Y-59360000D01*
X119516693Y-59360000D01*
X119535885Y-59579371D01*
X119592880Y-59792076D01*
X119621678Y-59853834D01*
X119683618Y-59986666D01*
X119683621Y-59986671D01*
X119685944Y-59991653D01*
X119689100Y-59996160D01*
X119689101Y-59996162D01*
X119737075Y-60064675D01*
X119812251Y-60172038D01*
X119967962Y-60327749D01*
X119972471Y-60330906D01*
X119972473Y-60330908D01*
X120047241Y-60383261D01*
X120148346Y-60454056D01*
X120347924Y-60547120D01*
X120560629Y-60604115D01*
X120780000Y-60623307D01*
X120999371Y-60604115D01*
X121212076Y-60547120D01*
X121411654Y-60454056D01*
X121512759Y-60383261D01*
X121587527Y-60330908D01*
X121587529Y-60330906D01*
X121592038Y-60327749D01*
X121747749Y-60172038D01*
X121822926Y-60064675D01*
X121870899Y-59996162D01*
X121870900Y-59996160D01*
X121874056Y-59991653D01*
X121876379Y-59986671D01*
X121876382Y-59986666D01*
X121938322Y-59853834D01*
X121967120Y-59792076D01*
X122024115Y-59579371D01*
X122043307Y-59360000D01*
X122024115Y-59140629D01*
X121967120Y-58927924D01*
X121910429Y-58806350D01*
X121876382Y-58733334D01*
X121876379Y-58733329D01*
X121874056Y-58728347D01*
X121856893Y-58703835D01*
X121750908Y-58552473D01*
X121750906Y-58552470D01*
X121747749Y-58547962D01*
X121592038Y-58392251D01*
X121573600Y-58379340D01*
X121512759Y-58336739D01*
X121411654Y-58265944D01*
X121212076Y-58172880D01*
X120999371Y-58115885D01*
X120780000Y-58096693D01*
X120560629Y-58115885D01*
X120347924Y-58172880D01*
X120254562Y-58216415D01*
X120153334Y-58263618D01*
X120153329Y-58263621D01*
X120148347Y-58265944D01*
X120143840Y-58269100D01*
X120143838Y-58269101D01*
X119972473Y-58389092D01*
X119972470Y-58389094D01*
X119967962Y-58392251D01*
X119812251Y-58547962D01*
X119809094Y-58552470D01*
X119809092Y-58552473D01*
X119703107Y-58703835D01*
X119685944Y-58728347D01*
X119683621Y-58733329D01*
X119683618Y-58733334D01*
X119649571Y-58806350D01*
X119592880Y-58927924D01*
X119535885Y-59140629D01*
X119516693Y-59360000D01*
X119038500Y-59360000D01*
X119038500Y-58809600D01*
X119033585Y-58762232D01*
X119028238Y-58710693D01*
X119028237Y-58710689D01*
X119027526Y-58703835D01*
X118998954Y-58618193D01*
X118977027Y-58552473D01*
X118971550Y-58536055D01*
X118878478Y-58385652D01*
X118753303Y-58260695D01*
X118747072Y-58256854D01*
X118608968Y-58171725D01*
X118608966Y-58171724D01*
X118602738Y-58167885D01*
X118522995Y-58141436D01*
X118441389Y-58114368D01*
X118441387Y-58114368D01*
X118434861Y-58112203D01*
X118428025Y-58111503D01*
X118428022Y-58111502D01*
X118384969Y-58107091D01*
X118330400Y-58101500D01*
X117344660Y-58101500D01*
X117276539Y-58081498D01*
X117230046Y-58027842D01*
X117219942Y-57957568D01*
X117249436Y-57892988D01*
X117255565Y-57886405D01*
X117498141Y-57643829D01*
X117560453Y-57609803D01*
X117598214Y-57607403D01*
X117780000Y-57623307D01*
X117999371Y-57604115D01*
X118212076Y-57547120D01*
X118411654Y-57454056D01*
X118521364Y-57377236D01*
X118587527Y-57330908D01*
X118587529Y-57330906D01*
X118592038Y-57327749D01*
X118747749Y-57172038D01*
X118756265Y-57159877D01*
X118870899Y-56996162D01*
X118870900Y-56996160D01*
X118874056Y-56991653D01*
X118876379Y-56986671D01*
X118876382Y-56986666D01*
X118943170Y-56843437D01*
X118967120Y-56792076D01*
X119024115Y-56579371D01*
X119043307Y-56360000D01*
X119516693Y-56360000D01*
X119535885Y-56579371D01*
X119592880Y-56792076D01*
X119616830Y-56843437D01*
X119683618Y-56986666D01*
X119683621Y-56986671D01*
X119685944Y-56991653D01*
X119689100Y-56996160D01*
X119689101Y-56996162D01*
X119803736Y-57159877D01*
X119812251Y-57172038D01*
X119967962Y-57327749D01*
X119972471Y-57330906D01*
X119972473Y-57330908D01*
X120038636Y-57377236D01*
X120148346Y-57454056D01*
X120347924Y-57547120D01*
X120560629Y-57604115D01*
X120780000Y-57623307D01*
X120999371Y-57604115D01*
X121212076Y-57547120D01*
X121411654Y-57454056D01*
X121521364Y-57377236D01*
X121587527Y-57330908D01*
X121587529Y-57330906D01*
X121592038Y-57327749D01*
X121747749Y-57172038D01*
X121756265Y-57159877D01*
X121870899Y-56996162D01*
X121870900Y-56996160D01*
X121874056Y-56991653D01*
X121876379Y-56986671D01*
X121876382Y-56986666D01*
X121943170Y-56843437D01*
X121967120Y-56792076D01*
X122024115Y-56579371D01*
X122043307Y-56360000D01*
X122024115Y-56140629D01*
X121967120Y-55927924D01*
X121910212Y-55805884D01*
X121876382Y-55733334D01*
X121876379Y-55733329D01*
X121874056Y-55728347D01*
X121851883Y-55696680D01*
X121750908Y-55552473D01*
X121750906Y-55552470D01*
X121747749Y-55547962D01*
X121592038Y-55392251D01*
X121411654Y-55265944D01*
X121212076Y-55172880D01*
X120999371Y-55115885D01*
X120780000Y-55096693D01*
X120560629Y-55115885D01*
X120347924Y-55172880D01*
X120254562Y-55216415D01*
X120153334Y-55263618D01*
X120153329Y-55263621D01*
X120148347Y-55265944D01*
X120143840Y-55269100D01*
X120143838Y-55269101D01*
X119972473Y-55389092D01*
X119972470Y-55389094D01*
X119967962Y-55392251D01*
X119812251Y-55547962D01*
X119809094Y-55552470D01*
X119809092Y-55552473D01*
X119708117Y-55696680D01*
X119685944Y-55728347D01*
X119683621Y-55733329D01*
X119683618Y-55733334D01*
X119649788Y-55805884D01*
X119592880Y-55927924D01*
X119535885Y-56140629D01*
X119516693Y-56360000D01*
X119043307Y-56360000D01*
X119024115Y-56140629D01*
X118967120Y-55927924D01*
X118910212Y-55805884D01*
X118876382Y-55733334D01*
X118876379Y-55733329D01*
X118874056Y-55728347D01*
X118851883Y-55696680D01*
X118750908Y-55552473D01*
X118750906Y-55552470D01*
X118747749Y-55547962D01*
X118592038Y-55392251D01*
X118411654Y-55265944D01*
X118212076Y-55172880D01*
X117999371Y-55115885D01*
X117780000Y-55096693D01*
X117560629Y-55115885D01*
X117347924Y-55172880D01*
X117254562Y-55216415D01*
X117153334Y-55263618D01*
X117153329Y-55263621D01*
X117148347Y-55265944D01*
X117143840Y-55269100D01*
X117143838Y-55269101D01*
X116972473Y-55389092D01*
X116972470Y-55389094D01*
X116967962Y-55392251D01*
X116812251Y-55547962D01*
X116809094Y-55552470D01*
X116809092Y-55552473D01*
X116708117Y-55696680D01*
X116685944Y-55728347D01*
X116683621Y-55733329D01*
X116683618Y-55733334D01*
X116649788Y-55805884D01*
X116592880Y-55927924D01*
X116535885Y-56140629D01*
X116516693Y-56360000D01*
X116532597Y-56541784D01*
X116518608Y-56611387D01*
X116496171Y-56641859D01*
X115648472Y-57489558D01*
X115642209Y-57495409D01*
X115630962Y-57505221D01*
X115566481Y-57534931D01*
X115496173Y-57525064D01*
X115442362Y-57478752D01*
X115424044Y-57432155D01*
X115414360Y-57377236D01*
X115413598Y-57372913D01*
X115326797Y-57105765D01*
X115288744Y-57027744D01*
X115262320Y-56973569D01*
X115203660Y-56853298D01*
X115201205Y-56849659D01*
X115201202Y-56849653D01*
X115109259Y-56713342D01*
X115046585Y-56620424D01*
X114858629Y-56411678D01*
X114643450Y-56231121D01*
X114405236Y-56082269D01*
X114148625Y-55968018D01*
X113878610Y-55890593D01*
X113874260Y-55889982D01*
X113874257Y-55889981D01*
X113771310Y-55875513D01*
X113600448Y-55851500D01*
X113389854Y-55851500D01*
X113387668Y-55851653D01*
X113387664Y-55851653D01*
X113184173Y-55865882D01*
X113184168Y-55865883D01*
X113179788Y-55866189D01*
X112905030Y-55924591D01*
X112900901Y-55926094D01*
X112900897Y-55926095D01*
X112645219Y-56019154D01*
X112645215Y-56019156D01*
X112641074Y-56020663D01*
X112393058Y-56152536D01*
X112389499Y-56155122D01*
X112389497Y-56155123D01*
X112284895Y-56231121D01*
X112165808Y-56317642D01*
X112162644Y-56320698D01*
X112162641Y-56320700D01*
X112121945Y-56360000D01*
X111963748Y-56512769D01*
X111790812Y-56734118D01*
X111788616Y-56737922D01*
X111788611Y-56737929D01*
X111676377Y-56932325D01*
X111650364Y-56977381D01*
X111545138Y-57237824D01*
X111544073Y-57242097D01*
X111544072Y-57242099D01*
X111480915Y-57495409D01*
X111477183Y-57510376D01*
X111476724Y-57514744D01*
X111476723Y-57514749D01*
X111448281Y-57785364D01*
X111447822Y-57789733D01*
X108890000Y-57789733D01*
X108890000Y-47421000D01*
X108910002Y-47352879D01*
X108963658Y-47306386D01*
X109016000Y-47295000D01*
X113885152Y-47295000D01*
X113953273Y-47315002D01*
G37*
G04 #@! TD.AperFunction*
G04 #@! TA.AperFunction,Conductor*
G36*
X157732655Y-83646252D02*
G01*
X157779148Y-83699908D01*
X157789797Y-83738645D01*
X157791255Y-83752066D01*
X157842385Y-83888455D01*
X157929739Y-84005011D01*
X158046295Y-84092365D01*
X158182684Y-84143495D01*
X158244866Y-84150250D01*
X163167134Y-84150250D01*
X163229316Y-84143495D01*
X163365705Y-84092365D01*
X163482261Y-84005011D01*
X163569615Y-83888455D01*
X163616031Y-83764641D01*
X163658672Y-83707876D01*
X163725234Y-83683176D01*
X163785260Y-83693763D01*
X163852712Y-83723794D01*
X163946113Y-83743647D01*
X164033056Y-83762128D01*
X164033061Y-83762128D01*
X164039513Y-83763500D01*
X164230487Y-83763500D01*
X164236939Y-83762128D01*
X164236944Y-83762128D01*
X164410839Y-83725165D01*
X164410841Y-83725164D01*
X164416337Y-83723996D01*
X164416340Y-83723996D01*
X164417288Y-83723794D01*
X164417325Y-83723967D01*
X164485223Y-83722030D01*
X164546019Y-83758694D01*
X164556400Y-83771618D01*
X164633483Y-83881703D01*
X164638802Y-83889300D01*
X164800700Y-84051198D01*
X164805208Y-84054355D01*
X164805211Y-84054357D01*
X164825365Y-84068469D01*
X164988251Y-84182523D01*
X164993233Y-84184846D01*
X164993238Y-84184849D01*
X165027457Y-84200805D01*
X165080742Y-84247722D01*
X165100203Y-84315999D01*
X165079661Y-84383959D01*
X165027457Y-84429195D01*
X164993238Y-84445151D01*
X164993233Y-84445154D01*
X164988251Y-84447477D01*
X164928355Y-84489417D01*
X164805211Y-84575643D01*
X164805208Y-84575645D01*
X164800700Y-84578802D01*
X164638802Y-84740700D01*
X164507477Y-84928251D01*
X164505154Y-84933233D01*
X164505151Y-84933238D01*
X164413039Y-85130775D01*
X164410716Y-85135757D01*
X164409294Y-85141065D01*
X164409293Y-85141067D01*
X164367590Y-85296704D01*
X164351457Y-85356913D01*
X164331502Y-85585000D01*
X164351457Y-85813087D01*
X164352880Y-85818398D01*
X164352882Y-85818409D01*
X164358424Y-85839092D01*
X164356733Y-85910068D01*
X164325812Y-85960796D01*
X160394842Y-89891766D01*
X160393905Y-89892694D01*
X160329493Y-89955771D01*
X160306002Y-89992221D01*
X160298583Y-90002546D01*
X160271524Y-90036443D01*
X160268459Y-90042784D01*
X160268458Y-90042785D01*
X160256928Y-90066637D01*
X160249399Y-90080054D01*
X160231235Y-90108238D01*
X160228827Y-90114855D01*
X160228824Y-90114860D01*
X160216408Y-90148973D01*
X160211447Y-90160716D01*
X160195646Y-90193403D01*
X160195644Y-90193408D01*
X160192579Y-90199749D01*
X160190996Y-90206607D01*
X160190995Y-90206609D01*
X160185035Y-90232426D01*
X160180668Y-90247169D01*
X160169197Y-90278685D01*
X160168314Y-90285675D01*
X160168312Y-90285683D01*
X160163762Y-90321701D01*
X160161526Y-90334253D01*
X160159178Y-90344426D01*
X160151776Y-90376485D01*
X160151751Y-90383531D01*
X160151751Y-90383534D01*
X160151634Y-90417056D01*
X160151605Y-90417938D01*
X160151500Y-90418769D01*
X160151500Y-90455572D01*
X160151143Y-90557870D01*
X160151411Y-90559070D01*
X160151500Y-90560707D01*
X160151500Y-96305195D01*
X160131498Y-96373316D01*
X160101153Y-96405955D01*
X160059106Y-96437525D01*
X160059100Y-96437531D01*
X160054965Y-96440635D01*
X160042869Y-96453293D01*
X159943729Y-96557037D01*
X159900629Y-96602138D01*
X159793201Y-96759621D01*
X159738293Y-96804621D01*
X159667768Y-96812792D01*
X159604021Y-96781538D01*
X159583324Y-96757054D01*
X159502822Y-96632617D01*
X159502820Y-96632614D01*
X159500014Y-96628277D01*
X159349670Y-96463051D01*
X159345619Y-96459852D01*
X159345615Y-96459848D01*
X159178414Y-96327800D01*
X159178410Y-96327798D01*
X159174359Y-96324598D01*
X159165525Y-96319721D01*
X159122136Y-96295769D01*
X158978789Y-96216638D01*
X158973920Y-96214914D01*
X158973916Y-96214912D01*
X158773087Y-96143795D01*
X158773083Y-96143794D01*
X158768212Y-96142069D01*
X158763119Y-96141162D01*
X158763116Y-96141161D01*
X158553373Y-96103800D01*
X158553367Y-96103799D01*
X158548284Y-96102894D01*
X158474452Y-96101992D01*
X158330081Y-96100228D01*
X158330079Y-96100228D01*
X158324911Y-96100165D01*
X158104091Y-96133955D01*
X157891756Y-96203357D01*
X157693607Y-96306507D01*
X157689474Y-96309610D01*
X157689471Y-96309612D01*
X157520629Y-96436382D01*
X157514965Y-96440635D01*
X157502869Y-96453293D01*
X157403729Y-96557037D01*
X157360629Y-96602138D01*
X157253201Y-96759621D01*
X157198293Y-96804621D01*
X157127768Y-96812792D01*
X157064021Y-96781538D01*
X157043324Y-96757054D01*
X156962822Y-96632617D01*
X156962820Y-96632614D01*
X156960014Y-96628277D01*
X156809670Y-96463051D01*
X156805619Y-96459852D01*
X156805615Y-96459848D01*
X156638414Y-96327800D01*
X156638410Y-96327798D01*
X156634359Y-96324598D01*
X156625525Y-96319721D01*
X156582136Y-96295769D01*
X156438789Y-96216638D01*
X156433920Y-96214914D01*
X156433916Y-96214912D01*
X156233087Y-96143795D01*
X156233083Y-96143794D01*
X156228212Y-96142069D01*
X156223119Y-96141162D01*
X156223116Y-96141161D01*
X156013373Y-96103800D01*
X156013367Y-96103799D01*
X156008284Y-96102894D01*
X155934452Y-96101992D01*
X155790081Y-96100228D01*
X155790079Y-96100228D01*
X155784911Y-96100165D01*
X155564091Y-96133955D01*
X155351756Y-96203357D01*
X155153607Y-96306507D01*
X155149474Y-96309610D01*
X155149471Y-96309612D01*
X154980629Y-96436382D01*
X154974965Y-96440635D01*
X154962869Y-96453293D01*
X154863729Y-96557037D01*
X154820629Y-96602138D01*
X154713201Y-96759621D01*
X154658293Y-96804621D01*
X154587768Y-96812792D01*
X154524021Y-96781538D01*
X154503324Y-96757054D01*
X154422822Y-96632617D01*
X154422820Y-96632614D01*
X154420014Y-96628277D01*
X154269670Y-96463051D01*
X154265619Y-96459852D01*
X154265615Y-96459848D01*
X154098414Y-96327800D01*
X154098410Y-96327798D01*
X154094359Y-96324598D01*
X154085525Y-96319721D01*
X154042136Y-96295769D01*
X153898789Y-96216638D01*
X153893920Y-96214914D01*
X153893916Y-96214912D01*
X153693087Y-96143795D01*
X153693083Y-96143794D01*
X153688212Y-96142069D01*
X153683119Y-96141162D01*
X153683116Y-96141161D01*
X153473373Y-96103800D01*
X153473367Y-96103799D01*
X153468284Y-96102894D01*
X153394452Y-96101992D01*
X153250081Y-96100228D01*
X153250079Y-96100228D01*
X153244911Y-96100165D01*
X153024091Y-96133955D01*
X152811756Y-96203357D01*
X152613607Y-96306507D01*
X152609474Y-96309610D01*
X152609471Y-96309612D01*
X152440629Y-96436382D01*
X152434965Y-96440635D01*
X152355543Y-96523746D01*
X152354283Y-96525064D01*
X152292759Y-96560494D01*
X152221846Y-96557037D01*
X152164060Y-96515791D01*
X152145207Y-96482243D01*
X152103767Y-96371703D01*
X152100615Y-96363295D01*
X152013261Y-96246739D01*
X151896705Y-96159385D01*
X151888300Y-96156234D01*
X151888298Y-96156233D01*
X151880774Y-96153413D01*
X151870700Y-96149636D01*
X151813935Y-96106997D01*
X151789234Y-96040435D01*
X151804440Y-95971086D01*
X151825833Y-95942559D01*
X152872987Y-94895405D01*
X152935299Y-94861379D01*
X152962082Y-94858500D01*
X153375400Y-94858500D01*
X153378646Y-94858163D01*
X153378650Y-94858163D01*
X153474308Y-94848238D01*
X153474312Y-94848237D01*
X153481166Y-94847526D01*
X153487702Y-94845345D01*
X153487704Y-94845345D01*
X153619806Y-94801272D01*
X153648946Y-94791550D01*
X153799348Y-94698478D01*
X153885784Y-94611891D01*
X153948066Y-94577812D01*
X154018886Y-94582815D01*
X154063975Y-94611736D01*
X154107283Y-94654968D01*
X154151697Y-94699305D01*
X154157927Y-94703145D01*
X154157928Y-94703146D01*
X154295090Y-94787694D01*
X154302262Y-94792115D01*
X154382005Y-94818564D01*
X154463611Y-94845632D01*
X154463613Y-94845632D01*
X154470139Y-94847797D01*
X154476975Y-94848497D01*
X154476978Y-94848498D01*
X154520031Y-94852909D01*
X154574600Y-94858500D01*
X155375400Y-94858500D01*
X155378646Y-94858163D01*
X155378650Y-94858163D01*
X155474308Y-94848238D01*
X155474312Y-94848237D01*
X155481166Y-94847526D01*
X155487702Y-94845345D01*
X155487704Y-94845345D01*
X155619806Y-94801272D01*
X155648946Y-94791550D01*
X155733793Y-94739045D01*
X155793126Y-94702329D01*
X155793130Y-94702326D01*
X155799348Y-94698478D01*
X155802706Y-94695114D01*
X155867540Y-94668872D01*
X155937304Y-94682043D01*
X155957169Y-94694785D01*
X155961697Y-94699305D01*
X156017827Y-94733904D01*
X156105090Y-94787694D01*
X156112262Y-94792115D01*
X156192005Y-94818564D01*
X156273611Y-94845632D01*
X156273613Y-94845632D01*
X156280139Y-94847797D01*
X156286975Y-94848497D01*
X156286978Y-94848498D01*
X156330031Y-94852909D01*
X156384600Y-94858500D01*
X157135400Y-94858500D01*
X157138646Y-94858163D01*
X157138650Y-94858163D01*
X157234308Y-94848238D01*
X157234312Y-94848237D01*
X157241166Y-94847526D01*
X157247702Y-94845345D01*
X157247704Y-94845345D01*
X157379806Y-94801272D01*
X157408946Y-94791550D01*
X157559348Y-94698478D01*
X157684305Y-94573303D01*
X157745595Y-94473873D01*
X157773275Y-94428968D01*
X157773276Y-94428966D01*
X157777115Y-94422738D01*
X157814939Y-94308701D01*
X157830632Y-94261389D01*
X157830632Y-94261387D01*
X157832797Y-94254861D01*
X157843500Y-94150400D01*
X157843500Y-93149600D01*
X157838717Y-93103500D01*
X157833238Y-93050692D01*
X157833237Y-93050688D01*
X157832526Y-93043834D01*
X157809997Y-92976305D01*
X157778868Y-92883002D01*
X157776550Y-92876054D01*
X157683478Y-92725652D01*
X157558303Y-92600695D01*
X157422446Y-92516951D01*
X157413968Y-92511725D01*
X157413966Y-92511724D01*
X157407738Y-92507885D01*
X157247254Y-92454655D01*
X157246389Y-92454368D01*
X157246387Y-92454368D01*
X157239861Y-92452203D01*
X157233025Y-92451503D01*
X157233022Y-92451502D01*
X157189969Y-92447091D01*
X157135400Y-92441500D01*
X156384600Y-92441500D01*
X156381354Y-92441837D01*
X156381350Y-92441837D01*
X156285692Y-92451762D01*
X156285688Y-92451763D01*
X156278834Y-92452474D01*
X156272298Y-92454655D01*
X156272296Y-92454655D01*
X156140194Y-92498728D01*
X156111054Y-92508450D01*
X156033471Y-92556460D01*
X155966874Y-92597671D01*
X155966870Y-92597674D01*
X155960652Y-92601522D01*
X155957294Y-92604886D01*
X155892460Y-92631128D01*
X155822696Y-92617957D01*
X155802831Y-92605215D01*
X155798303Y-92600695D01*
X155662446Y-92516951D01*
X155653968Y-92511725D01*
X155653966Y-92511724D01*
X155647738Y-92507885D01*
X155487254Y-92454655D01*
X155486389Y-92454368D01*
X155486387Y-92454368D01*
X155479861Y-92452203D01*
X155473025Y-92451503D01*
X155473022Y-92451502D01*
X155429969Y-92447091D01*
X155375400Y-92441500D01*
X154574600Y-92441500D01*
X154571354Y-92441837D01*
X154571350Y-92441837D01*
X154475692Y-92451762D01*
X154475688Y-92451763D01*
X154468834Y-92452474D01*
X154462298Y-92454655D01*
X154462296Y-92454655D01*
X154330194Y-92498728D01*
X154301054Y-92508450D01*
X154150652Y-92601522D01*
X154109113Y-92643134D01*
X154064216Y-92688109D01*
X154001934Y-92722188D01*
X153931114Y-92717185D01*
X153886025Y-92688264D01*
X153803483Y-92605866D01*
X153798303Y-92600695D01*
X153662446Y-92516951D01*
X153653968Y-92511725D01*
X153653966Y-92511724D01*
X153647738Y-92507885D01*
X153487254Y-92454655D01*
X153486389Y-92454368D01*
X153486387Y-92454368D01*
X153479861Y-92452203D01*
X153473025Y-92451503D01*
X153473022Y-92451502D01*
X153429969Y-92447091D01*
X153375400Y-92441500D01*
X152574600Y-92441500D01*
X152571354Y-92441837D01*
X152571350Y-92441837D01*
X152475692Y-92451762D01*
X152475688Y-92451763D01*
X152468834Y-92452474D01*
X152462298Y-92454655D01*
X152462296Y-92454655D01*
X152330194Y-92498728D01*
X152301054Y-92508450D01*
X152150652Y-92601522D01*
X152025695Y-92726697D01*
X152021855Y-92732927D01*
X152021854Y-92732928D01*
X151959986Y-92833297D01*
X151932885Y-92877262D01*
X151877203Y-93045139D01*
X151866500Y-93149600D01*
X151866500Y-93562919D01*
X151846498Y-93631040D01*
X151829595Y-93652014D01*
X150234843Y-95246765D01*
X150233906Y-95247693D01*
X150169493Y-95310771D01*
X150146002Y-95347221D01*
X150138583Y-95357546D01*
X150111524Y-95391443D01*
X150108459Y-95397784D01*
X150108458Y-95397785D01*
X150096928Y-95421637D01*
X150089399Y-95435054D01*
X150071235Y-95463238D01*
X150068827Y-95469855D01*
X150068824Y-95469860D01*
X150056408Y-95503973D01*
X150051447Y-95515716D01*
X150035646Y-95548403D01*
X150035644Y-95548408D01*
X150032579Y-95554749D01*
X150030996Y-95561607D01*
X150030995Y-95561609D01*
X150025035Y-95587426D01*
X150020668Y-95602169D01*
X150009197Y-95633685D01*
X150008314Y-95640675D01*
X150008312Y-95640683D01*
X150003762Y-95676701D01*
X150001526Y-95689253D01*
X149991776Y-95731485D01*
X149991751Y-95738531D01*
X149991751Y-95738534D01*
X149991634Y-95772056D01*
X149991605Y-95772938D01*
X149991500Y-95773769D01*
X149991500Y-95810572D01*
X149991143Y-95912870D01*
X149991411Y-95914070D01*
X149991500Y-95915707D01*
X149991500Y-95978709D01*
X149971498Y-96046830D01*
X149917842Y-96093323D01*
X149879108Y-96103972D01*
X149866914Y-96105297D01*
X149839684Y-96108255D01*
X149703295Y-96159385D01*
X149586739Y-96246739D01*
X149499385Y-96363295D01*
X149448255Y-96499684D01*
X149441500Y-96561866D01*
X149441500Y-98358134D01*
X149448255Y-98420316D01*
X149499385Y-98556705D01*
X149586739Y-98673261D01*
X149634054Y-98708722D01*
X149684219Y-98746318D01*
X149703295Y-98760615D01*
X149708432Y-98762541D01*
X149757337Y-98811555D01*
X149772351Y-98880946D01*
X149747466Y-98947438D01*
X149690583Y-98989922D01*
X149647817Y-98997812D01*
X146500310Y-99026168D01*
X146432012Y-99006780D01*
X146385038Y-98953546D01*
X146374301Y-98883366D01*
X146403211Y-98818522D01*
X146445926Y-98785978D01*
X146467536Y-98775901D01*
X146477616Y-98769051D01*
X146584473Y-98696430D01*
X146668307Y-98639456D01*
X146844681Y-98472668D01*
X146871768Y-98437240D01*
X146989047Y-98283846D01*
X146989050Y-98283842D01*
X146992120Y-98279826D01*
X147000023Y-98265088D01*
X147104439Y-98070352D01*
X147106831Y-98065891D01*
X147185862Y-97836369D01*
X147225004Y-97609757D01*
X147226504Y-97601074D01*
X147226505Y-97601068D01*
X147227179Y-97597164D01*
X147228500Y-97568075D01*
X147228500Y-89884531D01*
X147248502Y-89816410D01*
X147265405Y-89795436D01*
X147551703Y-89509138D01*
X147614015Y-89475112D01*
X147653649Y-89472890D01*
X147659600Y-89473500D01*
X148860400Y-89473500D01*
X148863646Y-89473163D01*
X148863650Y-89473163D01*
X148959308Y-89463238D01*
X148959312Y-89463237D01*
X148966166Y-89462526D01*
X148972702Y-89460345D01*
X148972704Y-89460345D01*
X149104806Y-89416272D01*
X149133946Y-89406550D01*
X149284348Y-89313478D01*
X149409305Y-89188303D01*
X149463219Y-89100839D01*
X149498275Y-89043968D01*
X149498276Y-89043966D01*
X149502115Y-89037738D01*
X149548685Y-88897333D01*
X149589115Y-88838973D01*
X149654680Y-88811736D01*
X149668278Y-88811000D01*
X150773484Y-88811000D01*
X150777002Y-88811049D01*
X150871650Y-88813693D01*
X150871653Y-88813693D01*
X150876705Y-88813834D01*
X150954598Y-88803441D01*
X150961139Y-88802742D01*
X150994348Y-88800070D01*
X151034423Y-88796846D01*
X151034427Y-88796845D01*
X151039465Y-88796440D01*
X151071378Y-88788601D01*
X151084758Y-88786074D01*
X151117320Y-88781729D01*
X151122161Y-88780268D01*
X151122163Y-88780267D01*
X151192529Y-88759022D01*
X151198892Y-88757281D01*
X151227583Y-88750234D01*
X151275206Y-88738537D01*
X151305452Y-88725699D01*
X151318263Y-88721061D01*
X151344862Y-88713030D01*
X151349708Y-88711567D01*
X151354256Y-88709349D01*
X151354263Y-88709346D01*
X151420318Y-88677129D01*
X151426320Y-88674393D01*
X151471004Y-88655425D01*
X151498656Y-88643688D01*
X151526456Y-88626181D01*
X151538360Y-88619555D01*
X151567888Y-88605154D01*
X151632100Y-88559857D01*
X151637586Y-88556199D01*
X151699786Y-88517029D01*
X151699787Y-88517028D01*
X151704067Y-88514333D01*
X151707856Y-88510992D01*
X151707862Y-88510988D01*
X151728717Y-88492602D01*
X151739412Y-88484156D01*
X151742363Y-88482074D01*
X151766247Y-88465226D01*
X151787750Y-88445591D01*
X151827466Y-88405875D01*
X151833236Y-88400456D01*
X151882358Y-88357150D01*
X151882361Y-88357147D01*
X151886155Y-88353802D01*
X151912679Y-88321511D01*
X151920949Y-88312392D01*
X156570186Y-83663155D01*
X156632498Y-83629129D01*
X156659281Y-83626250D01*
X157664534Y-83626250D01*
X157732655Y-83646252D01*
G37*
G04 #@! TD.AperFunction*
M02*
